g [break]bottle
v 0.024040058 -0.1838793 -0.090128176
v 0.18543199 -0.18552844 0.016565183
v 0.022770284 0.06076853 -0.07246327
v -0.13697141 0.061317906 -0.031201446
v -0.1534279 -0.18388087 -0.0544317
v 0.14080009 0.060363166 0.023910977
v 0.004179117 0.24907432 0.0005024551
v 0.004179117 0.24907432 0.0005024551
v -0.11211426 0.17445886 -0.016597288
v 0.022770284 0.06076853 -0.07246327
v 0.18543199 -0.18552844 0.016565183
v 0.14080009 0.060363166 0.023910977
v -0.1534279 -0.18388087 -0.0544317
v 0.024040058 -0.1838793 -0.090128176
v -0.11211426 0.17445886 -0.016597288
v -0.13697141 0.061317906 -0.031201446
v 0.17515516 -0.19902682 0.07865449
v 0.0052171014 -0.19902685 0.0036152569
v 0.1318332 0.048919424 0.08693069
v -0.006421457 0.23976785 0.06488314
v -0.124103844 0.16412991 0.047277234
v -0.15035005 0.049966667 0.032166876
v -0.16701137 -0.19902685 0.008373206
v 0.0052171014 -0.19902685 0.0036152569
v -0.16701137 -0.19902685 0.008373206
v -0.13697141 0.061317906 -0.031201446
v -0.15035005 0.049966667 0.032166876
v -0.124103844 0.16412991 0.047277234
v -0.1534279 -0.18388087 -0.0544317
v -0.11211426 0.17445886 -0.016597288
v 0.0052171014 -0.19902685 0.0036152569
v 0.024040058 -0.1838793 -0.090128176
v 0.17515516 -0.19902682 0.07865449
v 0.18543199 -0.18552844 0.016565183
v 0.1318332 0.048919424 0.08693069
v 0.14080009 0.060363166 0.023910977
v -0.006421457 0.23976785 0.06488314
v 0.004179117 0.24907432 0.0005024551
vt 0.18685652 0.5944015
vt 0.18395175 0.5944015
vt 0.18685652 0.60857224
vt 0.18840148 0.60857224
vt 0.18840148 0.5944015
vt 0.18395175 0.6085723
vt 0.18540414 0.6116919
vt 0.18540414 0.6116919
vt 0.18690284 0.61013204
vt 0.18685652 0.60857224
vt 0.18395175 0.5944015
vt 0.18395175 0.6085723
vt 0.18840148 0.5944015
vt 0.18685652 0.5944015
vt 0.18690284 0.61013204
vt 0.18840148 0.60857224
vt 0.18395175 0.5944015
vt 0.18685652 0.5944015
vt 0.18395175 0.6085723
vt 0.18540414 0.6116919
vt 0.18690284 0.61013204
vt 0.18840148 0.60857224
vt 0.18840148 0.5944015
vt 0.18685652 0.5944015
vt 0.18840148 0.5944015
vt 0.18840148 0.60857224
vt 0.18840148 0.60857224
vt 0.18690284 0.61013204
vt 0.18840148 0.5944015
vt 0.18690284 0.61013204
vt 0.18685652 0.5944015
vt 0.18685652 0.5944015
vt 0.18395175 0.5944015
vt 0.18395175 0.5944015
vt 0.18395175 0.6085723
vt 0.18395175 0.6085723
vt 0.18540414 0.6116919
vt 0.18540414 0.6116919
vn 0.07454635 0.03255931 -0.9966859
vn 0.7820692 0.29379812 -0.54959106
vn 0.05670836 0.29465678 -0.9539191
vn -0.54480004 0.3127647 -0.778056
vn 0.07454635 0.03255931 -0.9966859
vn 0.7820692 0.29379812 -0.54959106
vn 0.7790337 0.30911604 -0.54548484
vn -0.056698192 0.3351537 -0.9404559
vn -0.54480004 0.3127647 -0.778056
vn 0.14556463 0.14362788 -0.97886765
vn 0.79578066 -0.58677614 -0.14975616
vn 0.9192133 0.3600219 -0.15947193
vn -0.6274401 -0.5639618 -0.5369041
vn -0.0778761 -0.74976915 -0.65710074
vn -0.7525328 0.56236947 -0.34268785
vn -0.8589232 0.19365491 -0.47407675
vn 0.45395 -0.59673715 0.66169053
vn -0.10409654 -0.854168 0.5094711
vn 0.48995462 0.21156424 0.84568614
vn 0.04405341 0.72860163 0.6835195
vn -0.70401555 0.36396497 0.6098292
vn -0.78621376 0.032999244 0.6170729
vn -0.6402194 -0.6224428 0.45020443
vn -0.10409654 -0.854168 0.5094711
vn -0.6402194 -0.6224428 0.45020443
vn -0.8589232 0.19365491 -0.47407675
vn -0.78621376 0.032999244 0.6170729
vn -0.70401555 0.36396497 0.6098292
vn -0.6274401 -0.5639618 -0.5369041
vn -0.7525328 0.56236947 -0.34268785
vn -0.10409654 -0.854168 0.5094711
vn -0.0778761 -0.74976915 -0.65710074
vn 0.45395 -0.59673715 0.66169053
vn 0.79578066 -0.58677614 -0.14975616
vn 0.48995462 0.21156424 0.84568614
vn 0.9192133 0.3600219 -0.15947193
vn 0.04405341 0.72860163 0.6835195
vn 0.15145765 0.9741063 0.16786125
g [break]bottle_0
f 3/3/3 2/2/2 1/1/1
f 3/3/3 5/5/5 4/4/4
f 7/7/7 6/6/6 3/3/3
f 3/3/3 9/9/9 8/8/8
f 12/12/12 11/11/11 10/10/10
f 14/14/14 13/13/13 10/10/10
f 16/16/16 15/15/15 10/10/10
f 19/19/19 18/18/18 17/17/17
f 20/20/20 18/18/18 19/19/19
f 21/21/21 18/18/18 20/20/20
f 23/23/23 18/18/18 22/22/22
f 22/22/22 24/24/24 21/21/21
f 27/27/27 26/26/26 25/25/25
f 26/26/26 27/27/27 28/28/28
f 26/26/26 29/29/29 25/25/25
f 30/30/30 26/26/26 28/28/28
f 25/25/25 29/29/29 31/31/31
f 29/29/29 32/32/32 31/31/31
f 31/31/31 32/32/32 33/33/33
f 32/32/32 34/34/34 33/33/33
f 33/33/33 34/34/34 35/35/35
f 34/34/34 36/36/36 35/35/35
f 30/30/30 28/28/28 37/37/37
f 35/35/35 36/36/36 37/37/37
f 38/38/38 30/30/30 37/37/37
f 36/36/36 38/38/38 37/37/37
