g [breakable]teatans_parts1
v 1.5677714E-06 -0.35310796 0.001363044
v -0.16681434 -0.3531079 -0.10141817
v -0.16616037 -0.3531079 -0.04316013
v -0.15829526 0.3294378 -0.056782845
v -0.0006521041 0.3294377 -0.07262484
v 1.8558765E-06 0.3294377 -0.014366798
v -0.0006521041 0.3294377 -0.07262484
v -0.15829526 0.3294378 -0.056782845
v -0.15894923 0.3294377 -0.11504088
v 0.15764543 0.3294377 -0.11504056
v 1.8558765E-06 0.3294377 -0.014366798
v 0.15829939 0.3294377 -0.05678252
v -0.00065239216 -0.3531079 -0.056894995
v 0.16616437 -0.353108 -0.043160167
v 0.16551042 -0.353108 -0.101418205
v 0.20807983 -0.2082914 -0.027685009
v -0.00065239216 -0.3531079 -0.056894995
v 0.16551042 -0.353108 -0.101418205
v 0.20807983 -0.2082914 -0.027685009
v -0.16681434 -0.3531079 -0.10141817
v -0.00065239216 -0.3531079 -0.056894995
v -0.20938437 -0.20829132 -0.027685277
v -0.16681434 -0.3531079 -0.10141817
v 0.20807983 -0.2082914 -0.027685009
v -0.20280077 0.1728902 -0.0390884
v -0.0006521041 0.3294377 -0.07262484
v -0.15894923 0.3294377 -0.11504088
v -0.20280077 0.1728902 -0.0390884
v 0.15764543 0.3294377 -0.11504056
v -0.0006521041 0.3294377 -0.07262484
v -0.20280077 0.1728902 -0.0390884
v 0.20149642 0.1728902 -0.039088435
v 0.15764543 0.3294377 -0.11504056
v 1.7310309E-06 -0.20829135 0.08650237
v 1.5677714E-06 -0.35310796 0.001363044
v -0.16616037 -0.3531079 -0.04316013
v -0.2087304 -0.20829132 0.030572742
v 2.1391797E-06 -0.032011654 0.10770437
v -0.21933143 -0.032011617 0.048934214
v -0.2021468 0.17289025 0.019169662
v 1.8222642E-06 0.17289025 0.07333517
v -0.15829526 0.3294378 -0.056782845
v 1.8558765E-06 0.3294377 -0.014366798
v 0.16616437 -0.353108 -0.043160167
v 1.5677714E-06 -0.35310796 0.001363044
v 1.7310309E-06 -0.20829135 0.08650237
v 0.20873378 -0.2082914 0.030573012
v 2.1391797E-06 -0.032011654 0.10770437
v 0.21933489 -0.03201169 0.04893452
v 0.20215037 0.1728902 0.019169623
v 1.8222642E-06 0.17289025 0.07333517
v 0.15829939 0.3294377 -0.05678252
v 1.8558765E-06 0.3294377 -0.014366798
v 0.17678066 0.3448408 -0.05422912
v 0.17966814 0.29122585 -0.019775758
v 4.6048785E-06 0.29122585 0.028365282
v 4.614482E-06 0.34484065 -0.011418754
v 0.17431366 0.35310802 -0.12093803
v 4.6048785E-06 0.34484065 -0.08527441
v 0.17431366 0.28316718 -0.12093803
v 0.17431366 0.35310802 -0.12093803
v 4.603678E-06 0.2914345 -0.08527441
v 4.6048785E-06 0.29122585 0.028365282
v -0.17965952 0.2912259 -0.01977572
v -0.17677078 0.3448408 -0.054229774
v 4.614482E-06 0.34484065 -0.011418754
v -0.174302 0.35310787 -0.120937996
v 4.6048785E-06 0.34484065 -0.08527441
v -0.174302 0.35310787 -0.120937996
v 4.603678E-06 0.2914345 -0.08527441
v -0.174302 0.28316718 -0.120937996
v 0.22438936 -0.058288828 0.057684116
v 4.2687557E-06 -0.05828879 0.117807865
v 4.28076E-06 0.031770647 0.120938145
v 0.22595482 0.031770606 0.060395222
v 0.21230522 0.031770606 0.03675371
v 4.2615534E-06 0.031770647 0.09363962
v 4.28076E-06 0.031770647 0.120938145
v -0.22438146 -0.058288753 0.057684153
v -0.22594628 0.03177072 0.060394607
v 4.2687557E-06 -0.05828879 0.117807865
v -0.22594628 0.03177072 0.060394607
v 4.2615534E-06 0.031770647 0.09363962
v -0.21229671 0.03177072 0.036753096
v -0.16616037 -0.3531079 -0.04316013
v -0.20938437 -0.20829132 -0.027685277
v -0.2087304 -0.20829132 0.030572742
v -0.16681434 -0.3531079 -0.10141817
v -0.16681434 -0.3531079 -0.10141817
v 1.5677714E-06 -0.35310796 0.001363044
v -0.00065239216 -0.3531079 -0.056894995
v 0.16616437 -0.353108 -0.043160167
v -0.21933143 -0.032011617 0.048934214
v -0.20280077 0.1728902 -0.0390884
v -0.2021468 0.17289025 0.019169662
v -0.21998538 -0.032011617 -0.009323847
v 0.20215037 0.1728902 0.019169623
v 0.21868092 -0.03201169 -0.009323539
v 0.21933489 -0.03201169 0.04893452
v 0.20149642 0.1728902 -0.039088435
v -0.2021468 0.17289025 0.019169662
v -0.15894923 0.3294377 -0.11504088
v -0.15829526 0.3294378 -0.056782845
v -0.20280077 0.1728902 -0.0390884
v 0.20873378 -0.2082914 0.030573012
v 0.16551042 -0.353108 -0.101418205
v 0.16616437 -0.353108 -0.043160167
v 0.20807983 -0.2082914 -0.027685009
v -0.2087304 -0.20829132 0.030572742
v -0.21998538 -0.032011617 -0.009323847
v -0.21933143 -0.032011617 0.048934214
v -0.20938437 -0.20829132 -0.027685277
v 0.21933489 -0.03201169 0.04893452
v 0.20807983 -0.2082914 -0.027685009
v 0.20873378 -0.2082914 0.030573012
v 0.21868092 -0.03201169 -0.009323539
v 0.15829939 0.3294377 -0.05678252
v 0.20149642 0.1728902 -0.039088435
v 0.20215037 0.1728902 0.019169623
v 0.15764543 0.3294377 -0.11504056
v -0.20280077 0.1728902 -0.0390884
v 0.21868092 -0.03201169 -0.009323539
v 0.20149642 0.1728902 -0.039088435
v -0.21998538 -0.032011617 -0.009323847
v -0.21998538 -0.032011617 -0.009323847
v 0.20807983 -0.2082914 -0.027685009
v 0.21868092 -0.03201169 -0.009323539
v -0.20938437 -0.20829132 -0.027685277
v 0.17678066 0.3448408 -0.05422912
v 0.17431366 0.28316718 -0.12093803
v 0.17966814 0.29122585 -0.019775758
v 0.17431366 0.35310802 -0.12093803
v -0.17965952 0.2912259 -0.01977572
v -0.174302 0.35310787 -0.120937996
v -0.17677078 0.3448408 -0.054229774
v -0.174302 0.28316718 -0.120937996
vt 0.43844974 0.81280535
vt 0.43844974 0.80029255
vt 0.43844974 0.80029255
vt 0.41555068 0.80029255
vt 0.41555068 0.8128055
vt 0.41555068 0.8128055
vt 0.41555068 0.8128055
vt 0.41555068 0.80029255
vt 0.41555068 0.80029255
vt 0.41555068 0.8002927
vt 0.41555068 0.8128055
vt 0.41555068 0.8002927
vt 0.43844974 0.8128055
vt 0.43844974 0.8002927
vt 0.43844974 0.8002927
vt 0.43378842 0.8002927
vt 0.43844974 0.8128055
vt 0.43844974 0.8002927
vt 0.43378842 0.8002927
vt 0.43844974 0.80029255
vt 0.43844974 0.8128055
vt 0.43378842 0.80029255
vt 0.43844974 0.80029255
vt 0.43378842 0.8002927
vt 0.42040157 0.80029255
vt 0.41555068 0.8128055
vt 0.41555068 0.80029255
vt 0.42040157 0.80029255
vt 0.41555068 0.8002927
vt 0.41555068 0.8128055
vt 0.42040157 0.80029255
vt 0.42040157 0.8002927
vt 0.41555068 0.8002927
vt 0.43378842 0.8128055
vt 0.43844974 0.81280535
vt 0.43844974 0.80029255
vt 0.43378842 0.80029255
vt 0.42771074 0.8128055
vt 0.42771074 0.80029255
vt 0.42040157 0.80029255
vt 0.42040157 0.8128055
vt 0.41555068 0.80029255
vt 0.41555068 0.8128055
vt 0.43844974 0.8002927
vt 0.43844974 0.8128055
vt 0.43378842 0.8128055
vt 0.43378842 0.8002927
vt 0.42771074 0.8128055
vt 0.42771074 0.8002927
vt 0.42040157 0.8002927
vt 0.42040157 0.8128055
vt 0.41555068 0.8002927
vt 0.41555068 0.8128055
vt 0.4088094 0.80317575
vt 0.413613 0.80317575
vt 0.413613 0.8130081
vt 0.4088094 0.8130081
vt 0.40590325 0.80317575
vt 0.40590325 0.8130081
vt 0.40393838 0.80317575
vt 0.40590325 0.80317575
vt 0.40393838 0.8130081
vt 0.413613 0.81300825
vt 0.413613 0.80317575
vt 0.4088094 0.80317575
vt 0.4088094 0.81300825
vt 0.40590325 0.80317575
vt 0.40590325 0.81300825
vt 0.40590325 0.80317575
vt 0.40393838 0.81300825
vt 0.40393838 0.80317575
vt 0.40393838 0.803176
vt 0.40393838 0.8130085
vt 0.39989716 0.8130085
vt 0.39989716 0.803176
vt 0.3987265 0.803176
vt 0.3987265 0.8130085
vt 0.39989722 0.8130085
vt 0.40393838 0.8031761
vt 0.39989716 0.8031761
vt 0.40393838 0.8130085
vt 0.39989716 0.8031761
vt 0.39872655 0.8130085
vt 0.3987265 0.8031761
vt 0.43844974 0.80029255
vt 0.43378842 0.80029255
vt 0.43378842 0.80029255
vt 0.43844974 0.80029255
vt 0.43844974 0.80029255
vt 0.43844974 0.81280535
vt 0.43844974 0.81280535
vt 0.43844974 0.8002927
vt 0.42771074 0.80029255
vt 0.42040157 0.80029255
vt 0.42040157 0.80029255
vt 0.42771074 0.80029255
vt 0.42040157 0.8002927
vt 0.42771074 0.8002927
vt 0.42771074 0.8002927
vt 0.42040157 0.8002927
vt 0.42040157 0.80029255
vt 0.41555068 0.80029255
vt 0.41555068 0.80029255
vt 0.42040157 0.80029255
vt 0.43378842 0.8002927
vt 0.43844974 0.8002927
vt 0.43844974 0.8002927
vt 0.43378842 0.8002927
vt 0.43378842 0.80029255
vt 0.42771074 0.80029255
vt 0.42771074 0.80029255
vt 0.43378842 0.80029255
vt 0.42771074 0.8002927
vt 0.43378842 0.8002927
vt 0.43378842 0.8002927
vt 0.42771074 0.8002927
vt 0.41555068 0.8002927
vt 0.42040157 0.8002927
vt 0.42040157 0.8002927
vt 0.41555068 0.8002927
vt 0.42040157 0.80029255
vt 0.42771074 0.8002927
vt 0.42040157 0.8002927
vt 0.42771074 0.80029255
vt 0.42771074 0.80029255
vt 0.43378842 0.8002927
vt 0.42771074 0.8002927
vt 0.43378842 0.80029255
vt 0.4088094 0.80317575
vt 0.413613 0.80317575
vt 0.413613 0.80317575
vt 0.4088094 0.80317575
vt 0.413613 0.80317575
vt 0.4088094 0.80317575
vt 0.4088094 0.80317575
vt 0.413613 0.80317575
vn -1.4919694E-07 -1 0
vn -1.4919694E-07 -1 0
vn -1.4919694E-07 -1 0
vn 4.868047E-07 1 0
vn 4.868047E-07 1 0
vn 4.8680477E-07 1 0
vn 3.544289E-07 1 -1.3227325E-06
vn 3.5442892E-07 1 -1.3227323E-06
vn 3.5442892E-07 1 -1.3227324E-06
vn -0 1 0
vn -0 1 0
vn -0 1 0
vn -3.9492315E-07 -1 2.516994E-07
vn -3.9492312E-07 -1 2.516994E-07
vn -3.9492312E-07 -1 2.516994E-07
vn -0.22506088 0.4938116 -0.8399391
vn -0.22506087 0.49381152 -0.8399391
vn -0.22506087 0.49381152 -0.8399391
vn 0.25480512 -0.17545691 -0.9509412
vn 0.25480512 -0.17545693 -0.9509412
vn 0.25480512 -0.17545691 -0.9509412
vn 6.575059E-07 0.4537227 -0.891143
vn 6.5750584E-07 0.45372263 -0.891143
vn 6.57506E-07 0.4537227 -0.891143
vn 0.22763 -0.4759252 -0.8495174
vn 0.22763 -0.4759252 -0.8495174
vn 0.22763 -0.4759252 -0.8495174
vn -0.25674763 0.12626682 -0.95819485
vn -0.2567477 0.12626684 -0.95819485
vn -0.25674766 0.12626682 -0.95819485
vn -0 -0.4365076 -0.89970064
vn -0 -0.4365076 -0.89970064
vn -0 -0.43650755 -0.89970064
vn -5.933566E-07 -0.31009063 0.950707
vn -7.3666985E-07 -0.50681317 0.8620559
vn -0.4310279 -0.50681376 0.746562
vn -0.47535363 -0.3100907 0.8233363
vn 1.2692033E-07 0.022714775 0.999742
vn -0.49987116 0.02271509 0.86580175
vn -0.4731203 0.32346794 0.81946665
vn -3.0084243E-07 0.32346752 0.9462393
vn -0.43621135 0.48875493 0.75553834
vn -3.605695E-07 0.48875406 0.8724216
vn 0.43102795 -0.5068138 0.74656194
vn -7.3666985E-07 -0.50681317 0.8620559
vn -5.933566E-07 -0.31009063 0.950707
vn 0.47535282 -0.31009117 0.8233366
vn 1.2692033E-07 0.022714775 0.999742
vn 0.49987057 0.02271505 0.8658021
vn 0.47311997 0.32346767 0.81946707
vn -3.0084243E-07 0.32346752 0.9462393
vn 0.43621165 0.48875353 0.7555392
vn -3.605695E-07 0.48875406 0.8724216
vn 0.25260147 0.8630003 0.43751898
vn 0.40153176 0.5958934 0.69547343
vn -0 0.5958964 0.8030612
vn -0 0.86300147 0.5052014
vn -0.31886324 0.77026236 -0.55228806
vn -2.9436754E-07 0.77026075 -0.63772905
vn -0.4999994 0 -0.8660258
vn -0.31886324 0.77026236 -0.55228806
vn -3.2409324E-07 0 -1
vn -0 0.5958964 0.8030612
vn -0.40153104 0.59589714 0.6954707
vn -0.2526008 0.863002 0.43751627
vn -0 0.86300147 0.5052014
vn 0.31886384 0.77026236 -0.5522876
vn -2.9436754E-07 0.77026075 -0.63772905
vn 0.31886384 0.77026236 -0.5522876
vn -3.2409324E-07 0 -1
vn 0.5000003 0 -0.86602527
vn 0.4996971 -0.03473803 0.86550343
vn -4.2964805E-07 -0.034736272 0.99939656
vn -1.7801685E-07 0.64022744 0.76818544
vn 0.38409266 0.64022654 0.66526884
vn 2.015175E-07 1 -1.4164907E-07
vn 2.4534347E-07 1 0
vn -1.7801685E-07 0.64022744 0.76818544
vn -0.49969852 -0.03473316 0.8655027
vn -0.38409218 0.64022875 0.6652672
vn -4.2964805E-07 -0.034736272 0.99939656
vn -0.38409218 0.64022875 0.6652672
vn 2.4534347E-07 1 0
vn 1.6356258E-07 1 0
vn -0.9578569 -0.28704438 0.010752218
vn -0.957857 -0.28704438 0.010752218
vn -0.957857 -0.28704438 0.010752218
vn -0.957857 -0.28704438 0.01075215
vn 1.3844794E-07 -1 -5.166923E-07
vn 1.3844794E-07 -1 -5.166923E-07
vn 1.3844794E-07 -1 -5.166923E-07
vn -3.3209264E-07 -1 -5.114103E-07
vn -0.9963026 0.08518203 0.011183667
vn -0.9963026 0.08518204 0.011183667
vn -0.9963026 0.08518204 0.011183667
vn -0.9963026 0.08518207 0.011183724
vn 0.9965733 0.08195457 -0.011186761
vn 0.9965733 0.08195458 -0.011186762
vn 0.9965733 0.08195457 -0.011186762
vn 0.9965733 0.08195457 -0.011186762
vn -0.9615064 0.2745701 0.0107927695
vn -0.96150655 0.2745701 0.0107927695
vn -0.9615064 0.2745701 0.0107927695
vn -0.9615064 0.27457023 0.010792948
vn 0.9608247 -0.27694684 -0.010785411
vn 0.9608247 -0.27694684 -0.010785409
vn 0.9608247 -0.27694687 -0.01078541
vn 0.9608247 -0.27694684 -0.010785436
vn -0.9980634 -0.06118797 0.011203488
vn -0.9980634 -0.06118797 0.011203487
vn -0.9980634 -0.061187968 0.011203489
vn -0.9980634 -0.06118798 0.011203506
vn 0.99820316 -0.058862716 -0.011205055
vn 0.99820316 -0.058862716 -0.011205055
vn 0.99820316 -0.058862716 -0.011205055
vn 0.99820316 -0.058862716 -0.011205057
vn 0.96423095 0.2648422 -0.010823712
vn 0.96423095 0.2648422 -0.010823713
vn 0.96423095 0.2648422 -0.010823712
vn 0.96423095 0.2648422 -0.010823715
vn -0 -0.14375532 -0.98961323
vn -0 -0.14375532 -0.98961323
vn -0 -0.14375532 -0.98961323
vn 6.6810645E-07 -0.14375378 -0.9896135
vn 7.1493474E-07 0.10360046 -0.994619
vn 7.149348E-07 0.10360049 -0.994619
vn 7.1493474E-07 0.103600465 -0.994619
vn 6.5972245E-07 0.10360034 -0.994619
vn 0.99834454 0.018845495 -0.054343134
vn 0.99834454 0.018845495 -0.054343134
vn 0.99834454 0.018845497 -0.054343134
vn 0.99931693 0 -0.03695609
vn -0.99892396 0.032665767 -0.032920744
vn -0.99892396 0.032665767 -0.032920744
vn -0.99892396 0.032665767 -0.032920748
vn -0.99860054 0 -0.052885585
g [breakable]teatans_parts1_0
f 3/3/3 2/2/2 1/1/1
f 6/6/6 5/5/5 4/4/4
f 9/9/9 8/8/8 7/7/7
f 7/7/7 11/11/11 10/10/10
f 12/12/12 10/10/10 11/11/11
f 15/15/15 14/14/14 13/13/13
f 18/18/18 17/17/17 16/16/16
f 21/21/21 20/20/20 19/19/19
f 24/24/24 23/23/23 22/22/22
f 27/27/27 26/26/26 25/25/25
f 30/30/30 29/29/29 28/28/28
f 33/33/33 32/32/32 31/31/31
f 36/36/36 35/35/35 34/34/34
f 36/36/36 34/34/34 37/37/37
f 37/37/37 34/34/34 38/38/38
f 37/37/37 38/38/38 39/39/39
f 40/40/40 39/39/39 38/38/38
f 38/38/38 41/41/41 40/40/40
f 42/42/42 40/40/40 41/41/41
f 41/41/41 43/43/43 42/42/42
f 46/46/46 45/45/45 44/44/44
f 44/44/44 47/47/47 46/46/46
f 48/48/48 46/46/46 47/47/47
f 47/47/47 49/49/49 48/48/48
f 48/48/48 49/49/49 50/50/50
f 48/48/48 50/50/50 51/51/51
f 51/51/51 50/50/50 52/52/52
f 51/51/51 52/52/52 53/53/53
f 56/56/56 55/55/55 54/54/54
f 57/57/57 56/56/56 54/54/54
f 57/57/57 54/54/54 58/58/58
f 58/58/58 59/59/59 57/57/57
f 61/61/61 60/60/60 59/59/59
f 60/60/60 62/62/62 59/59/59
f 65/65/65 64/64/64 63/63/63
f 63/63/63 66/66/66 65/65/65
f 67/67/67 65/65/65 66/66/66
f 66/66/66 68/68/68 67/67/67
f 68/68/68 70/70/70 69/69/69
f 70/70/70 71/71/71 69/69/69
f 74/74/74 73/73/73 72/72/72
f 72/72/72 75/75/75 74/74/74
f 74/74/74 75/75/75 76/76/76
f 76/76/76 77/77/77 74/74/74
f 80/80/80 79/79/79 78/78/78
f 79/79/79 81/81/81 78/78/78
f 78/78/78 83/83/83 82/82/82
f 84/84/84 82/82/82 83/83/83
f 87/87/87 86/86/86 85/85/85
f 88/88/88 85/85/85 86/86/86
f 91/91/91 90/90/90 89/89/89
f 90/90/90 91/91/91 92/92/92
f 95/95/95 94/94/94 93/93/93
f 96/96/96 93/93/93 94/94/94
f 99/99/99 98/98/98 97/97/97
f 100/100/100 97/97/97 98/98/98
f 103/103/103 102/102/102 101/101/101
f 104/104/104 101/101/101 102/102/102
f 107/107/107 106/106/106 105/105/105
f 108/108/108 105/105/105 106/106/106
f 111/111/111 110/110/110 109/109/109
f 112/112/112 109/109/109 110/110/110
f 115/115/115 114/114/114 113/113/113
f 116/116/116 113/113/113 114/114/114
f 119/119/119 118/118/118 117/117/117
f 120/120/120 117/117/117 118/118/118
f 123/123/123 122/122/122 121/121/121
f 124/124/124 121/121/121 122/122/122
f 127/127/127 126/126/126 125/125/125
f 128/128/128 125/125/125 126/126/126
f 131/131/131 130/130/130 129/129/129
f 132/132/132 129/129/129 130/130/130
f 135/135/135 134/134/134 133/133/133
f 136/136/136 133/133/133 134/134/134
