g [breakable]bucket1
v 0.021424111 0.72946995 0.28023764
v -0.048155177 0.616169 0.32017452
v -0.00068848813 0.7294701 0.22575182
v -0.16935149 0.6234069 0.08803515
v -0.19544373 0.6234069 -0.0093424395
v -0.0006884173 0.38348773 0.038380735
v 0.19406697 0.6234069 -0.00934241
v 0.16797465 0.6234069 0.088035315
v -0.0006884173 0.38348773 0.038380735
v -0.00068848813 0.7294701 0.22575182
v -0.048155177 0.616169 0.32017452
v -0.044202596 0.72946995 0.27366924
v -0.15483822 -6.14624E-07 0.2576528
v -0.0006885627 0.18271764 0.38600427
v -0.0006885223 -6.53038E-07 0.29895714
v -0.19836183 0.18271768 0.33303773
v -0.0006885681 0.3654359 0.3977515
v -0.34306875 0.18271759 0.18833084
v -0.2042355 0.3654359 0.3432112
v -0.0006885513 0.547453 0.36145058
v -0.35324213 0.36543584 0.19420443
v -0.40778232 0.36543584 -0.009342426
v -0.18608509 0.54745305 0.3117737
v -0.32180473 0.5474529 0.17605406
v -0.048155177 0.616169 0.32017452
v 0.021424111 0.72946995 0.28023764
v -0.14826313 0.7294701 0.24626419
v -0.044202596 0.72946995 0.27366924
v -0.25629517 0.72947013 0.13823211
v -0.37148157 0.5474529 -0.009342455
v -0.32180467 0.54745287 -0.19473894
v -0.29583767 0.7294701 -0.009342477
v -0.2562951 0.7294699 -0.15691707
v 0.14688626 0.72946995 -0.26494917
v -0.00068838825 0.72946984 -0.22360937
v -0.0006883918 0.72946995 -0.30449164
v 0.10644514 0.72946984 -0.19490306
v 0.2549184 0.7294699 -0.15691707
v 0.18487231 0.7294699 -0.11647591
v 0.29446092 0.7294701 -0.009342433
v 0.21357866 0.72946995 -0.009342434
v 0.25491834 0.72947013 0.13823234
v 0.18487225 0.72946995 0.097791165
v 0.14688611 0.7294701 0.24626432
v 0.10644504 0.72947013 0.17621824
v 0.021424111 0.72946995 0.28023764
v -0.00068848813 0.7294701 0.22575182
v -0.00068847847 0.7294701 0.2049245
v -0.0006883918 0.72946995 -0.30449164
v -0.00068838825 0.72946984 -0.22360937
v -0.10782192 0.72946984 -0.19490303
v -0.14826304 0.72946995 -0.26494914
v -0.18624905 0.7294699 -0.116475925
v -0.2562951 0.7294699 -0.15691707
v -0.21495539 0.72946995 -0.0093424665
v -0.29583767 0.7294701 -0.009342477
v -0.18624909 0.72946995 0.097790994
v -0.25629517 0.72947013 0.13823211
v -0.10782196 0.72947013 0.1762181
v -0.14826313 0.7294701 0.24626419
v -0.044202596 0.72946995 0.27366924
v -0.00068848813 0.7294701 0.22575182
v -0.00068847847 0.7294701 0.2049245
v 0.18487231 0.7294699 -0.11647591
v 0.21357866 0.72946995 -0.009342434
v 0.19406697 0.6234069 -0.00934241
v 0.16797471 0.62340677 -0.10672004
v 0.10644514 0.72946984 -0.19490306
v 0.09668929 0.62340677 -0.17800541
v -0.00068838825 0.72946984 -0.22360937
v -0.0006883927 0.62340677 -0.20409764
v -0.10782192 0.72946984 -0.19490303
v -0.00068838825 0.72946984 -0.22360937
v -0.0006883927 0.62340677 -0.20409764
v -0.098066084 0.62340677 -0.17800537
v -0.18624905 0.7294699 -0.116475925
v -0.16935144 0.62340677 -0.10672006
v -0.21495539 0.72946995 -0.0093424665
v -0.19544373 0.6234069 -0.0093424395
v 0.14688611 0.7294701 0.24626432
v -0.0006885513 0.547453 0.36145058
v 0.021424111 0.72946995 0.28023764
v 0.184708 0.54745305 0.3117739
v 0.25491834 0.72947013 0.13823234
v -0.0006885681 0.3654359 0.3977515
v 0.3204278 0.5474529 0.17605436
v 0.29446092 0.7294701 -0.009342433
v 0.20285839 0.3654359 0.34321138
v -0.0006885627 0.18271764 0.38600427
v 0.3701048 0.5474529 -0.009342399
v 0.2549184 0.7294699 -0.15691707
v 0.32042792 0.54745287 -0.19473891
v 0.4064056 0.36543584 -0.009342365
v 0.35186523 0.36543584 0.19420476
v 0.34169176 0.18271759 0.18833117
v 0.19698477 0.18271768 0.33303797
v -0.0006885223 -6.53038E-07 0.29895714
v 0.15346122 -6.14624E-07 0.2576529
v 0.16797471 0.62340677 -0.10672004
v 0.19406697 0.6234069 -0.00934241
v -0.0006884173 0.38348773 0.038380735
v 0.09668929 0.62340677 -0.17800541
v -0.0006883927 0.62340677 -0.20409764
v -0.098066084 0.62340677 -0.17800537
v -0.0006883927 0.62340677 -0.20409764
v -0.0006884173 0.38348773 0.038380735
v -0.16935144 0.62340677 -0.10672006
v -0.19544373 0.6234069 -0.0093424395
vt 0.30826733 0.64674616
vt 0.3029993 0.64996004
vt 0.31171227 0.64996004
vt 0.3071905 0.654591
vt 0.299354 0.654591
vt 0.31110868 0.66984695
vt 0.29935393 0.654591
vt 0.30719048 0.654591
vt 0.31110868 0.66984695
vt 0.31171227 0.64996004
vt 0.3029993 0.64996004
vt 0.30826733 0.64674616
vt 0.31466505 0.6059276
vt 0.32350194 0.6153363
vt 0.32350194 0.6059276
vt 0.31466505 0.6153363
vt 0.32350194 0.624183
vt 0.30621278 0.6153363
vt 0.31466505 0.624183
vt 0.32350194 0.6327278
vt 0.30621278 0.624183
vt 0.29700422 0.624183
vt 0.31466505 0.6327278
vt 0.30621278 0.6327278
vt 0.3212395 0.6357893
vt 0.32350194 0.640837
vt 0.31466505 0.640837
vt 0.32200766 0.640837
vt 0.30621278 0.640837
vt 0.29700422 0.6327278
vt 0.28902453 0.6327278
vt 0.29700422 0.640837
vt 0.28902453 0.640837
vt 0.27938113 0.640837
vt 0.26946872 0.6453707
vt 0.26946872 0.640837
vt 0.27938113 0.6453707
vt 0.28902453 0.640837
vt 0.28902453 0.6453707
vt 0.29700422 0.640837
vt 0.29700422 0.6453707
vt 0.30621278 0.640837
vt 0.30621278 0.6453707
vt 0.31466505 0.640837
vt 0.31466505 0.6453707
vt 0.32350194 0.640837
vt 0.32350194 0.6442033
vt 0.32350194 0.6453707
vt 0.26946872 0.640837
vt 0.26946872 0.6453707
vt 0.27938113 0.6453707
vt 0.27938113 0.640837
vt 0.28902453 0.6453707
vt 0.28902453 0.640837
vt 0.29700422 0.6453707
vt 0.29700422 0.640837
vt 0.30621278 0.6453707
vt 0.30621278 0.640837
vt 0.31466505 0.6453707
vt 0.31466505 0.640837
vt 0.32200766 0.640837
vt 0.32350194 0.6442033
vt 0.32350194 0.6453707
vt 0.28902453 0.6453707
vt 0.29700422 0.6453707
vt 0.29700422 0.65323555
vt 0.28902453 0.65323555
vt 0.27938113 0.6453707
vt 0.27938113 0.65323555
vt 0.26946872 0.6453707
vt 0.26946872 0.65323555
vt 0.27938113 0.6453707
vt 0.26946872 0.6453707
vt 0.26946872 0.65323555
vt 0.27938113 0.65323555
vt 0.28902453 0.6453707
vt 0.28902453 0.65323555
vt 0.29700422 0.6453707
vt 0.29700422 0.65323555
vt 0.31466505 0.640837
vt 0.32350194 0.6327278
vt 0.32350194 0.640837
vt 0.31466505 0.6327278
vt 0.30621278 0.640837
vt 0.32350194 0.624183
vt 0.30621278 0.6327278
vt 0.29700422 0.640837
vt 0.31466505 0.624183
vt 0.32350194 0.6153363
vt 0.29700422 0.6327278
vt 0.28902453 0.640837
vt 0.28902453 0.6327278
vt 0.29700422 0.624183
vt 0.30621278 0.624183
vt 0.30621278 0.6153363
vt 0.31466505 0.6153363
vt 0.32350194 0.6059276
vt 0.31466505 0.6059276
vt 0.28815898 0.654591
vt 0.2959954 0.654591
vt 0.28424078 0.66984695
vt 0.28032258 0.654591
vt 0.27248615 0.654591
vt 0.28032258 0.654591
vt 0.27248615 0.654591
vt 0.28424078 0.66984695
vt 0.28815898 0.654591
vt 0.2959955 0.654591
vn -0.7585332 0.5743334 0.30784485
vn -0.75853324 0.57433337 0.30784488
vn -0.7585332 0.5743334 0.3078449
vn 0.77919555 0.5909848 -0.20878506
vn 0.8705455 0.4799048 0.10881982
vn 2.1913924E-07 0.9148403 0.4038157
vn -0.8705455 0.47990495 0.108819656
vn -0.7791953 0.590985 -0.20878534
vn 2.1913924E-07 0.9148403 0.4038157
vn 0.7181797 0.24263978 0.652184
vn 0.7181797 0.24263975 0.652184
vn 0.7181797 0.24263978 0.652184
vn -0.38103363 -0.4287239 0.8191515
vn -4.9349774E-07 -0.2443845 0.96967834
vn -4.283042E-07 -0.43008834 0.9027868
vn -0.48483944 -0.24438442 0.83976597
vn -5.1585556E-07 0.064901456 0.9978917
vn -0.7880239 -0.15853699 0.59488183
vn -0.4989461 0.06490136 0.8641994
vn -0.00072846137 0.29110858 0.9566898
vn -0.86419964 0.06490128 0.49894574
vn -0.98272955 0.13318947 0.12846433
vn -0.4788145 0.28688335 0.8297196
vn -0.8296788 0.28666675 0.4790151
vn -0.21472523 0.3897092 0.89555556
vn 0.16493432 0.38582462 0.9077092
vn -0.46093836 0.38444415 0.7998365
vn -0.23874354 0.37373406 0.8962836
vn -0.79971445 0.38376546 0.46171516
vn -0.9580304 0.28666666 -2.798396E-07
vn -0.9176404 0.31221542 -0.24588144
vn -0.9234306 0.38376555 -2.6652052E-07
vn -0.89639807 0.3725312 -0.24018964
vn -6.0219605E-07 1 1.297553E-06
vn -0 1 1.8997492E-06
vn -0 1 1.8997492E-06
vn -6.0219605E-07 1 1.2975529E-06
vn -6.9825865E-07 1 0
vn -6.9825865E-07 1 0
vn -1.0252825E-06 1 -6.901112E-07
vn -1.0252825E-06 1 -6.901112E-07
vn -7.455318E-07 1 -6.084501E-07
vn -7.4553174E-07 1 -6.084501E-07
vn -1.6304031E-07 1 3.8734208E-07
vn -1.8791495E-07 1 3.2440465E-07
vn -1.8437788E-07 1 1.3264835E-06
vn -0 1 7.708107E-07
vn -0 1 0
vn -0 1 1.8997492E-06
vn -0 1 1.8997492E-06
vn 6.021962E-07 1 1.2975529E-06
vn 6.021962E-07 1 1.297553E-06
vn 6.9825865E-07 1 0
vn 6.9825876E-07 1 0
vn 1.0252826E-06 1 -6.901111E-07
vn 1.0252827E-06 1 -6.901112E-07
vn 7.455321E-07 1 -6.0844997E-07
vn 7.455321E-07 1 -6.0844985E-07
vn 1.9541774E-07 1 3.7838515E-07
vn 1.7124633E-07 1 4.4429845E-07
vn 2.0093002E-07 1 1.4455754E-06
vn -0 1 7.708107E-07
vn -0 1 0
vn -0.85173297 0.18092708 0.49174824
vn -0.951028 0.17495395 0.2548271
vn -0.8705455 0.47990495 0.108819656
vn -0.77950114 0.42789465 0.45747575
vn -0.4917481 0.18092732 0.85173297
vn -0.445282 0.4429035 0.77817756
vn 1.1122979E-07 0.18092747 0.9834964
vn 1.2274528E-07 0.44805112 0.89400786
vn 0.49174815 0.18092735 0.85173297
vn 1.1122979E-07 0.18092747 0.9834964
vn 1.2274528E-07 0.44805112 0.89400786
vn 0.44528216 0.44290346 0.77817756
vn 0.85173297 0.18092705 0.4917483
vn 0.77950114 0.42789462 0.45747575
vn 0.951028 0.17495385 0.25482723
vn 0.8705455 0.4799048 0.10881982
vn 0.46226275 0.3833064 0.79961824
vn -0.00072846137 0.29110858 0.9566898
vn 0.16493432 0.38582462 0.9077092
vn 0.4792343 0.28644514 0.8296286
vn 0.7997141 0.38376546 0.46171582
vn -5.1585556E-07 0.064901456 0.9978917
vn 0.82967836 0.2866667 0.4790157
vn 0.9234306 0.38376537 0
vn 0.49894527 0.06490138 0.8641998
vn -4.9349774E-07 -0.2443845 0.96967834
vn 0.9580304 0.28666672 0
vn 0.89639807 0.37253106 -0.2401896
vn 0.9176404 0.3122154 -0.24588136
vn 0.98272955 0.1331896 0.12846474
vn 0.8641993 0.064901225 0.49894634
vn 0.78802335 -0.15853715 0.59488237
vn 0.48483866 -0.24438447 0.8397665
vn -4.283042E-07 -0.43008834 0.9027868
vn 0.38103288 -0.42872396 0.81915176
vn -0.77950114 0.42789465 0.45747575
vn -0.8705455 0.47990495 0.108819656
vn 2.1913924E-07 0.9148403 0.4038157
vn -0.445282 0.4429035 0.77817756
vn 1.2274528E-07 0.44805112 0.89400786
vn 0.44528216 0.44290346 0.77817756
vn 1.2274528E-07 0.44805112 0.89400786
vn 2.1913924E-07 0.9148403 0.4038157
vn 0.77950114 0.42789462 0.45747575
vn 0.8705455 0.4799048 0.10881982
g [breakable]bucket1_0
f 3/3/3 2/2/2 1/1/1
f 6/6/6 5/5/5 4/4/4
f 9/9/9 8/8/8 7/7/7
f 12/12/12 11/11/11 10/10/10
f 15/15/15 14/14/14 13/13/13
f 14/14/14 16/16/16 13/13/13
f 16/16/16 14/14/14 17/17/17
f 13/13/13 16/16/16 18/18/18
f 19/19/19 16/16/16 17/17/17
f 18/18/18 16/16/16 19/19/19
f 19/19/19 17/17/17 20/20/20
f 21/21/21 18/18/18 19/19/19
f 21/21/21 22/22/22 18/18/18
f 23/23/23 19/19/19 20/20/20
f 21/21/21 19/19/19 23/23/23
f 22/22/22 21/21/21 24/24/24
f 24/24/24 21/21/21 23/23/23
f 23/23/23 20/20/20 25/25/25
f 20/20/20 26/26/26 25/25/25
f 27/27/27 23/23/23 25/25/25
f 24/24/24 23/23/23 27/27/27
f 28/28/28 27/27/27 25/25/25
f 29/29/29 24/24/24 27/27/27
f 30/30/30 22/22/22 24/24/24
f 30/30/30 24/24/24 29/29/29
f 30/30/30 31/31/31 22/22/22
f 32/32/32 30/30/30 29/29/29
f 31/31/31 30/30/30 32/32/32
f 33/33/33 31/31/31 32/32/32
f 36/36/36 35/35/35 34/34/34
f 35/35/35 37/37/37 34/34/34
f 34/34/34 37/37/37 38/38/38
f 37/37/37 39/39/39 38/38/38
f 38/38/38 39/39/39 40/40/40
f 39/39/39 41/41/41 40/40/40
f 40/40/40 41/41/41 42/42/42
f 41/41/41 43/43/43 42/42/42
f 42/42/42 43/43/43 44/44/44
f 43/43/43 45/45/45 44/44/44
f 44/44/44 45/45/45 46/46/46
f 45/45/45 47/47/47 46/46/46
f 48/48/48 47/47/47 45/45/45
f 51/51/51 50/50/50 49/49/49
f 52/52/52 51/51/51 49/49/49
f 53/53/53 51/51/51 52/52/52
f 54/54/54 53/53/53 52/52/52
f 55/55/55 53/53/53 54/54/54
f 56/56/56 55/55/55 54/54/54
f 57/57/57 55/55/55 56/56/56
f 58/58/58 57/57/57 56/56/56
f 59/59/59 57/57/57 58/58/58
f 60/60/60 59/59/59 58/58/58
f 59/59/59 60/60/60 61/61/61
f 62/62/62 59/59/59 61/61/61
f 63/63/63 59/59/59 62/62/62
f 66/66/66 65/65/65 64/64/64
f 67/67/67 66/66/66 64/64/64
f 67/67/67 64/64/64 68/68/68
f 69/69/69 67/67/67 68/68/68
f 69/69/69 68/68/68 70/70/70
f 71/71/71 69/69/69 70/70/70
f 74/74/74 73/73/73 72/72/72
f 75/75/75 74/74/74 72/72/72
f 75/75/75 72/72/72 76/76/76
f 77/77/77 75/75/75 76/76/76
f 77/77/77 76/76/76 78/78/78
f 79/79/79 77/77/77 78/78/78
f 82/82/82 81/81/81 80/80/80
f 81/81/81 83/83/83 80/80/80
f 80/80/80 83/83/83 84/84/84
f 81/81/81 85/85/85 83/83/83
f 83/83/83 86/86/86 84/84/84
f 84/84/84 86/86/86 87/87/87
f 85/85/85 88/88/88 83/83/83
f 83/83/83 88/88/88 86/86/86
f 85/85/85 89/89/89 88/88/88
f 86/86/86 90/90/90 87/87/87
f 87/87/87 90/90/90 91/91/91
f 90/90/90 92/92/92 91/91/91
f 90/90/90 93/93/93 92/92/92
f 86/86/86 94/94/94 90/90/90
f 94/94/94 93/93/93 90/90/90
f 88/88/88 94/94/94 86/86/86
f 94/94/94 95/95/95 93/93/93
f 89/89/89 96/96/96 88/88/88
f 88/88/88 96/96/96 94/94/94
f 96/96/96 95/95/95 94/94/94
f 96/96/96 89/89/89 97/97/97
f 98/98/98 95/95/95 96/96/96
f 98/98/98 96/96/96 97/97/97
f 101/101/101 100/100/100 99/99/99
f 101/101/101 99/99/99 102/102/102
f 101/101/101 102/102/102 103/103/103
f 106/106/106 105/105/105 104/104/104
f 106/106/106 104/104/104 107/107/107
f 106/106/106 107/107/107 108/108/108
