g [breakable]pot1
v -0.15637273 0.67524076 -0.12581544
v -8.1461155E-07 0.54463387 -0.0064283023
v -0.15637273 0.67524076 0.11295918
v -0.15637273 0.67524076 0.11295918
v -8.1461155E-07 0.54463387 -0.0064283023
v 0.15637109 0.67524076 0.11295918
v 0.15637109 0.67524076 0.11295918
v -8.1461155E-07 0.54463387 -0.0064283023
v 0.15637109 0.67524076 -0.12581544
v 0.15637109 0.67524076 -0.12581544
v -8.1461155E-07 0.54463387 -0.0064283023
v -0.15637273 0.67524076 -0.12581544
v -0.22959346 0.6752409 -0.18171768
v -0.2550477 0.6467537 -0.1747564
v -0.22047554 0.6467537 -0.20115149
v -0.2550477 0.64675355 0.16190015
v -0.22959346 0.6752407 0.16886134
v -0.22047554 0.64675355 0.18829523
v 0.22047392 0.64675355 0.18829523
v 0.2295918 0.6752407 0.16886134
v 0.2550461 0.64675355 0.16190015
v 0.2295918 0.6752409 -0.18171768
v 0.22047392 0.6467537 -0.20115149
v 0.2550461 0.6467537 -0.1747564
v -0.32336095 0.4010654 -0.27736387
v -0.21947175 -0.030086078 -0.22379455
v 0.2194701 -0.030086078 -0.22379455
v 0.32335934 0.4010654 -0.27736387
v -0.25993723 0.48414287 -0.17850126
v -0.25993723 0.48414278 0.16564484
v -0.3548695 0.40106526 0.24045132
v -0.3548695 0.40106544 -0.2533078
v 0.22537857 0.48414278 0.19202834
v -0.32336095 0.4010653 0.26450753
v -0.22538023 0.48414278 0.19202834
v 0.32335934 0.4010653 0.26450753
v 0.35486788 0.40106526 0.24045132
v 0.2599356 0.48414287 -0.17850126
v 0.35486788 0.40106544 -0.2533078
v 0.2599356 0.48414278 0.16564484
v 0.22537857 0.48414272 -0.20488478
v -0.22538023 0.48414272 -0.20488478
v -0.32336095 0.4010654 -0.27736387
v 0.32335934 0.4010654 -0.27736387
v -0.2550477 0.6467537 -0.1747564
v -0.2550477 0.64675355 0.16190015
v -0.25993723 0.48414278 0.16564484
v -0.25993723 0.48414287 -0.17850126
v 0.2599356 0.48414278 0.16564484
v 0.2550461 0.64675355 0.16190015
v 0.2550461 0.6467537 -0.1747564
v 0.2599356 0.48414287 -0.17850126
v -0.22047554 0.6467537 -0.20115149
v 0.22537857 0.48414272 -0.20488478
v 0.22047392 0.6467537 -0.20115149
v -0.22538023 0.48414272 -0.20488478
v -0.15637273 0.67524076 -0.12581544
v -0.15637273 0.67524076 0.11295918
v -0.22959346 0.6752407 0.16886134
v -0.22959346 0.6752409 -0.18171768
v 0.2295918 0.6752407 0.16886134
v -0.22959346 0.6752407 0.16886134
v -0.15637273 0.67524076 0.11295918
v 0.15637109 0.67524076 0.11295918
v 0.15637109 0.67524076 -0.12581544
v 0.2295918 0.6752409 -0.18171768
v 0.2295918 0.6752407 0.16886134
v 0.15637109 0.67524076 0.11295918
v 0.2295918 0.6752409 -0.18171768
v -0.15637273 0.67524076 -0.12581544
v -0.22959346 0.6752409 -0.18171768
v 0.15637109 0.67524076 -0.12581544
v -0.2550477 0.6467537 -0.1747564
v -0.22959346 0.6752409 -0.18171768
v -0.22959346 0.6752407 0.16886134
v -0.2550477 0.64675355 0.16190015
v -0.22047554 0.64675355 0.18829523
v -0.22959346 0.6752407 0.16886134
v 0.2295918 0.6752407 0.16886134
v 0.22047392 0.64675355 0.18829523
v 0.2550461 0.64675355 0.16190015
v 0.2295918 0.6752407 0.16886134
v 0.2550461 0.6467537 -0.1747564
v 0.2295918 0.6752409 -0.18171768
v 0.22047392 0.6467537 -0.20115149
v 0.2295918 0.6752409 -0.18171768
v -0.22047554 0.6467537 -0.20115149
v -0.22959346 0.6752409 -0.18171768
v -0.32336095 0.4010654 -0.27736387
v -0.3548695 0.40106544 -0.2533078
v -0.25402877 -0.030086158 -0.19741105
v -0.21947175 -0.030086078 -0.22379455
v 0.2194701 -0.030086078 -0.22379455
v 0.25402713 -0.030086158 -0.19741105
v 0.32335934 0.4010654 -0.27736387
v 0.35486788 0.40106544 -0.2533078
v -0.25993723 0.48414287 -0.17850126
v -0.3548695 0.40106544 -0.2533078
v -0.32336095 0.4010654 -0.27736387
v -0.22538023 0.48414272 -0.20488478
v -0.32336095 0.4010653 0.26450753
v -0.3548695 0.40106526 0.24045132
v -0.25993723 0.48414278 0.16564484
v -0.22538023 0.48414278 0.19202834
v 0.35486788 0.40106526 0.24045132
v 0.32335934 0.4010653 0.26450753
v 0.2599356 0.48414278 0.16564484
v 0.22537857 0.48414278 0.19202834
v 0.2599356 0.48414287 -0.17850126
v 0.22537857 0.48414272 -0.20488478
v 0.32335934 0.4010654 -0.27736387
v 0.35486788 0.40106544 -0.2533078
v -0.22047554 0.6467537 -0.20115149
v -0.2550477 0.6467537 -0.1747564
v -0.22538023 0.48414272 -0.20488478
v -0.25993723 0.48414287 -0.17850126
v 0.2550461 0.6467537 -0.1747564
v 0.22047392 0.6467537 -0.20115149
v 0.22537857 0.48414272 -0.20488478
v 0.2599356 0.48414287 -0.17850126
vt 0.12635747 0.6231302
vt 0.13236669 0.6073965
vt 0.12635747 0.6231302
vt 0.12635747 0.6231302
vt 0.13236669 0.6073965
vt 0.13837604 0.6231302
vt 0.13837604 0.6231302
vt 0.13236669 0.6073965
vt 0.13837604 0.6231302
vt 0.13837604 0.6231302
vt 0.13236669 0.6073965
vt 0.12635747 0.6231302
vt 0.1398834 0.6186255
vt 0.13770929 0.6162359
vt 0.14039817 0.6162359
vt 0.13770929 0.6162359
vt 0.1398834 0.6186255
vt 0.14039817 0.6162359
vt 0.17851079 0.6162359
vt 0.17910364 0.6186255
vt 0.1812778 0.6162359
vt 0.17910364 0.6186255
vt 0.17851079 0.6162359
vt 0.1812778 0.6162359
vt 0.12920226 0.59090954
vt 0.1407479 0.5525073
vt 0.17823912 0.5525073
vt 0.18978475 0.59090954
vt 0.14039817 0.6047675
vt 0.17851079 0.6047675
vt 0.18975632 0.59090954
vt 0.12907533 0.59090954
vt 0.17851079 0.60476756
vt 0.12920226 0.59090954
vt 0.14039817 0.60476756
vt 0.18978475 0.59090954
vt 0.18975632 0.5909095
vt 0.14039817 0.6047675
vt 0.12907533 0.5909095
vt 0.17851079 0.6047675
vt 0.17851079 0.6047675
vt 0.14039817 0.6047675
vt 0.12920226 0.59090954
vt 0.18978475 0.59090954
vt 0.14039817 0.6162359
vt 0.17851079 0.6162359
vt 0.17851079 0.6047675
vt 0.14039817 0.6047675
vt 0.17851079 0.6047675
vt 0.17851079 0.6162359
vt 0.14039817 0.6162359
vt 0.14039817 0.6047675
vt 0.14039817 0.6162359
vt 0.17851079 0.6047675
vt 0.17851079 0.6162359
vt 0.14039817 0.6047675
vt 0.13991317 0.6233364
vt 0.17905872 0.6233364
vt 0.17905872 0.6186371
vt 0.13991317 0.6186371
vt 0.17905872 0.6186371
vt 0.13991317 0.6186371
vt 0.13991317 0.6233364
vt 0.17905872 0.6233364
vt 0.17905872 0.6233364
vt 0.17905872 0.6186371
vt 0.13991317 0.6186371
vt 0.13991317 0.6233364
vt 0.13991317 0.6186371
vt 0.17905872 0.6233364
vt 0.17905872 0.6186371
vt 0.13991317 0.6233364
vt 0.14039817 0.6162359
vt 0.1397738 0.6186255
vt 0.17905784 0.6186255
vt 0.17851079 0.6162359
vt 0.14039817 0.6162359
vt 0.1398834 0.6186255
vt 0.17910364 0.6186255
vt 0.17851079 0.6162359
vt 0.17851079 0.6162359
vt 0.17905784 0.6186255
vt 0.14039817 0.6162359
vt 0.1397738 0.6186255
vt 0.17851079 0.6162359
vt 0.17910364 0.6186255
vt 0.14039817 0.6162359
vt 0.1398834 0.6186255
vt 0.12920226 0.59090954
vt 0.12625065 0.59090954
vt 0.13779631 0.55250734
vt 0.1407479 0.5525073
vt 0.17823912 0.5525073
vt 0.18119073 0.55250734
vt 0.18978475 0.59090954
vt 0.19273637 0.59090954
vt 0.13729163 0.6047675
vt 0.12625065 0.59090954
vt 0.12920226 0.59090954
vt 0.14039817 0.6047675
vt 0.12920226 0.59090954
vt 0.12625065 0.59090954
vt 0.13729163 0.6047675
vt 0.14039817 0.60476756
vt 0.19273637 0.59090954
vt 0.18978475 0.59090954
vt 0.1816954 0.6047675
vt 0.17851079 0.60476756
vt 0.1816954 0.6047675
vt 0.17851079 0.6047675
vt 0.18978475 0.59090954
vt 0.19273637 0.59090954
vt 0.14039817 0.6162359
vt 0.13770929 0.6162359
vt 0.14039817 0.6047675
vt 0.13729163 0.6047675
vt 0.1812778 0.6162359
vt 0.17851079 0.6162359
vt 0.17851079 0.6047675
vt 0.1816954 0.6047675
vn 0.64104426 0.767504 0
vn 0.6410442 0.767504 0
vn 0.6410442 0.767504 0
vn -0 0.67469364 -0.7380979
vn -0 0.67469364 -0.7380979
vn -0 0.67469364 -0.7380979
vn -0.64104426 0.767504 0
vn -0.64104426 0.767504 0
vn -0.64104426 0.767504 0
vn -0 0.6746926 0.73809886
vn -0 0.6746926 0.73809886
vn -0 0.6746925 0.7380989
vn -0.57312226 0.32866624 -0.7506727
vn -0.5731222 0.32866624 -0.7506726
vn -0.57312226 0.32866624 -0.7506727
vn -0.5731216 0.32866824 0.7506723
vn -0.5731215 0.32866824 0.75067234
vn -0.57312155 0.3286682 0.7506723
vn 0.5731214 0.32866856 0.7506722
vn 0.5731214 0.32866853 0.7506723
vn 0.5731214 0.3286686 0.7506723
vn 0.57312214 0.3286666 -0.7506725
vn 0.57312214 0.3286666 -0.7506725
vn 0.57312214 0.3286666 -0.7506725
vn -0 -0.12329902 -0.99236953
vn -0 -0.12329901 -0.99236953
vn -0 -0.123299 -0.99236953
vn -0 -0.12329902 -0.99236953
vn -0.6585573 0.7525306 2.4336384E-07
vn -0.6585573 0.75253063 2.4336387E-07
vn -0.65855736 0.7525306 2.4336384E-07
vn -0.6585573 0.7525306 2.4336384E-07
vn -0 0.6574065 0.7535361
vn -0 0.6574065 0.75353616
vn -0 0.6574065 0.75353616
vn -0 0.6574065 0.7535361
vn 0.65855724 0.75253063 2.41534E-07
vn 0.65855724 0.75253063 2.4153397E-07
vn 0.6585572 0.75253063 2.4153397E-07
vn 0.65855724 0.75253063 2.41534E-07
vn -0 0.65740687 -0.7535358
vn -0 0.6574068 -0.75353587
vn -0 0.6574068 -0.75353587
vn -0 0.6574068 -0.75353587
vn -0.99954826 0.030055188 0
vn -0.99954826 0.03005519 0
vn -0.99954826 0.030055184 0
vn -0.99954826 0.030055184 0
vn 0.99954826 0.03005518 0
vn 0.99954826 0.030055184 0
vn 0.99954826 0.030055184 0
vn 0.99954826 0.030055182 0
vn -0 0.022952324 -0.9997365
vn -0 0.022952326 -0.9997365
vn -0 0.022952324 -0.9997365
vn -0 0.022952324 -0.9997365
vn -0 1 2.607195E-07
vn -0 1 2.6071953E-07
vn -0 1 2.6071956E-07
vn -0 1 2.6071953E-07
vn -0 1 1.3743296E-06
vn -0 1 1.3743295E-06
vn -0 1 1.3743295E-06
vn -0 1 1.3743295E-06
vn -0 1 2.6071953E-07
vn -0 1 2.6071953E-07
vn -0 1 2.6071953E-07
vn -0 1 2.6071953E-07
vn -0 1 1.3743276E-06
vn -0 1 1.3743276E-06
vn -0 1 1.3743276E-06
vn -0 1 1.3743276E-06
vn -0.74568623 0.66629726 2.9836357E-07
vn -0.74568623 0.66629726 2.9836357E-07
vn -0.7456862 0.66629726 2.9836355E-07
vn -0.7456862 0.66629726 2.9836355E-07
vn -0 0.56355155 0.8260809
vn -0 0.56355155 0.8260809
vn -0 0.5635516 0.8260809
vn -0 0.5635515 0.8260809
vn 0.745686 0.66629755 2.9790306E-07
vn 0.745686 0.66629755 2.97903E-07
vn 0.745686 0.6662975 2.97903E-07
vn 0.745686 0.66629755 2.9790306E-07
vn -0 0.56355006 -0.826082
vn -0 0.5635501 -0.8260819
vn -0 0.56355006 -0.826082
vn -0 0.56355 -0.8260819
vn -0.58940524 -0.23794048 -0.7720011
vn -0.5894053 -0.23794049 -0.7720011
vn -0.58940536 -0.23794049 -0.7720011
vn -0.5894053 -0.23794048 -0.7720011
vn 0.5894052 -0.23794052 -0.77200127
vn 0.5894051 -0.23794049 -0.77200115
vn 0.5894052 -0.23794052 -0.77200127
vn 0.5894052 -0.23794052 -0.77200127
vn -0.3511963 0.81551373 -0.45999837
vn -0.3511963 0.81551373 -0.45999837
vn -0.35119632 0.81551373 -0.45999837
vn -0.35119632 0.8155138 -0.45999834
vn -0.3511987 0.81551373 0.4599967
vn -0.3511987 0.81551373 0.45999667
vn -0.3511987 0.81551373 0.4599967
vn -0.3511987 0.81551373 0.4599967
vn 0.35119858 0.81551373 0.45999676
vn 0.35119858 0.81551373 0.45999676
vn 0.35119858 0.81551373 0.45999667
vn 0.35119858 0.81551373 0.45999676
vn 0.3511962 0.8155138 -0.4599984
vn 0.35119623 0.8155138 -0.45999843
vn 0.3511962 0.8155138 -0.45999843
vn 0.35119623 0.8155138 -0.4599984
vn -0.6064292 0.03652695 -0.79429805
vn -0.60642916 0.036526952 -0.79429805
vn -0.6064292 0.03652695 -0.79429805
vn -0.6064291 0.036526944 -0.79429805
vn 0.6064291 0.036526915 -0.7942981
vn 0.6064291 0.036526915 -0.7942981
vn 0.6064291 0.036526915 -0.7942981
vn 0.6064291 0.036526915 -0.79429805
g [breakable]pot1_0
f 3/3/3 2/2/2 1/1/1
f 6/6/6 5/5/5 4/4/4
f 9/9/9 8/8/8 7/7/7
f 12/12/12 11/11/11 10/10/10
f 15/15/15 14/14/14 13/13/13
f 18/18/18 17/17/17 16/16/16
f 21/21/21 20/20/20 19/19/19
f 24/24/24 23/23/23 22/22/22
f 27/27/27 26/26/26 25/25/25
f 25/25/25 28/28/28 27/27/27
f 31/31/31 30/30/30 29/29/29
f 29/29/29 32/32/32 31/31/31
f 35/35/35 34/34/34 33/33/33
f 34/34/34 36/36/36 33/33/33
f 39/39/39 38/38/38 37/37/37
f 38/38/38 40/40/40 37/37/37
f 43/43/43 42/42/42 41/41/41
f 41/41/41 44/44/44 43/43/43
f 47/47/47 46/46/46 45/45/45
f 45/45/45 48/48/48 47/47/47
f 51/51/51 50/50/50 49/49/49
f 49/49/49 52/52/52 51/51/51
f 55/55/55 54/54/54 53/53/53
f 54/54/54 56/56/56 53/53/53
f 59/59/59 58/58/58 57/57/57
f 57/57/57 60/60/60 59/59/59
f 63/63/63 62/62/62 61/61/61
f 61/61/61 64/64/64 63/63/63
f 67/67/67 66/66/66 65/65/65
f 65/65/65 68/68/68 67/67/67
f 71/71/71 70/70/70 69/69/69
f 70/70/70 72/72/72 69/69/69
f 75/75/75 74/74/74 73/73/73
f 73/73/73 76/76/76 75/75/75
f 79/79/79 78/78/78 77/77/77
f 77/77/77 80/80/80 79/79/79
f 83/83/83 82/82/82 81/81/81
f 82/82/82 83/83/83 84/84/84
f 87/87/87 86/86/86 85/85/85
f 86/86/86 87/87/87 88/88/88
f 91/91/91 90/90/90 89/89/89
f 89/89/89 92/92/92 91/91/91
f 95/95/95 94/94/94 93/93/93
f 94/94/94 95/95/95 96/96/96
f 99/99/99 98/98/98 97/97/97
f 99/99/99 97/97/97 100/100/100
f 103/103/103 102/102/102 101/101/101
f 101/101/101 104/104/104 103/103/103
f 107/107/107 106/106/106 105/105/105
f 106/106/106 107/107/107 108/108/108
f 111/111/111 110/110/110 109/109/109
f 109/109/109 112/112/112 111/111/111
f 115/115/115 114/114/114 113/113/113
f 115/115/115 116/116/116 114/114/114
f 119/119/119 118/118/118 117/117/117
f 117/117/117 120/120/120 119/119/119
