g [breakable]cookie1_2
v 0.21954404 0.38921553 -0.025431912
v 0.3293944 0.38921553 0.15739338
v -0.14025585 0.3892155 0.44030115
v 0.066886336 0.38921553 -0.052349605
v -0.22245504 0.3892155 0.44125494
v -0.34255308 0.38921553 -0.16966571
v -0.14879718 0.3892155 -0.23498015
v -0.4407173 0.3892156 0.26410073
v -0.4098563 0.3892156 0.33421436
v 0.3293944 0.38921553 0.15739338
v -0.14023995 0.31094393 0.43434364
v -0.14025585 0.3892155 0.44030115
v 0.3604639 0.31094387 0.13168138
v -0.13602944 0.23267224 0.40577042
v 0.36487058 0.23267224 0.10318126
v 0.21954404 0.38921553 -0.025431912
v 0.24335214 0.3109439 -0.062822044
v 0.2508206 0.23267227 -0.09044351
v 0.086098894 0.23267227 -0.12375253
v 0.08113886 0.3109439 -0.09142462
v 0.066886336 0.38921553 -0.052349605
v -0.14879718 0.3892155 -0.23498015
v -0.14789717 0.3109439 -0.28560778
v -0.14396098 0.23267227 -0.31543717
v -0.34592482 0.23267227 -0.25001866
v -0.35383213 0.3109439 -0.21611282
v -0.45673683 0.23267226 0.21981552
v -0.34255308 0.38921553 -0.16966571
v -0.46036476 0.31094393 0.25056812
v -0.4407173 0.3892156 0.26410073
v -0.11803309 -2.7095364E-06 0.3326434
v -0.13243496 0.15654054 0.39257005
v 0.40418828 0.15654054 0.06808045
v 0.42244375 -2.727394E-06 0.007552759
v 0.29172558 -2.746601E-06 -0.21835247
v 0.2766355 0.15654057 -0.14282256
v 0.114653096 -2.746601E-06 -0.2335268
v 0.10219227 0.15654054 -0.17578971
v -0.137154 0.15654057 -0.38230532
v -0.12972224 -2.746601E-06 -0.44132257
v -0.36394054 0.15654057 -0.30637723
v -0.38089672 -2.746601E-06 -0.3598121
v -0.4777383 0.15654054 0.19914104
v -0.47835928 -2.7290162E-06 0.14748932
v 0.2508206 0.23267227 -0.09044351
v 0.41062295 0.19460638 0.09318245
v 0.36487058 0.23267224 0.10318126
v 0.28349313 0.19460642 -0.12182822
v 0.40418828 0.15654054 0.06808045
v 0.2766355 0.15654057 -0.14282256
v 0.10219227 0.15654054 -0.17578971
v 0.10205075 0.19460641 -0.16066928
v 0.086098894 0.23267227 -0.12375253
v -0.14396098 0.23267227 -0.31543717
v -0.14427413 0.19460642 -0.36946043
v -0.137154 0.15654057 -0.38230532
v -0.36394054 0.15654057 -0.30637723
v -0.3726267 0.19460644 -0.29602656
v -0.34592482 0.23267227 -0.25001866
v -0.4777383 0.15654054 0.19914104
v -0.49177542 0.19460638 0.22111802
v -0.45673683 0.23267226 0.21981552
v -0.42617917 0.23267226 0.28962517
v -0.4611094 0.19460638 0.29121554
v -0.4463567 0.15654054 0.2684283
vt 0.42228815 0.21249798
vt 0.41703564 0.22036415
vt 0.4329313 0.23796414
vt 0.42843616 0.21249798
vt 0.43599898 0.23870754
vt 0.4453211 0.21032655
vt 0.43825632 0.20553923
vt 0.4453211 0.23203419
vt 0.44363502 0.2351465
vt 0.4453655 0.20223717
vt 0.43866023 0.1996859
vt 0.43869397 0.20223717
vt 0.4453655 0.1996859
vt 0.43866014 0.19713461
vt 0.4453655 0.19713461
vt 0.44236088 0.20223717
vt 0.44236088 0.1996859
vt 0.44236088 0.19713461
vt 0.43838435 0.19713461
vt 0.43838435 0.1996859
vt 0.43790507 0.20223717
vt 0.43401372 0.20223717
vt 0.43401372 0.1996859
vt 0.43401372 0.19713461
vt 0.42889678 0.19713461
vt 0.42889678 0.19968589
vt 0.43355396 0.19713461
vt 0.42889678 0.20223717
vt 0.43355045 0.1996859
vt 0.4335185 0.20223717
vt 0.4386235 0.19197822
vt 0.43862623 0.19580501
vt 0.4453655 0.19580501
vt 0.4453655 0.19197822
vt 0.44236088 0.19197822
vt 0.44236088 0.19580501
vt 0.43838435 0.19197822
vt 0.43838435 0.19580501
vt 0.43401372 0.19580501
vt 0.43401372 0.19197822
vt 0.42889678 0.19580501
vt 0.42889678 0.19197822
vt 0.43358278 0.19580501
vt 0.43358156 0.19197822
vt 0.4408928 0.18983641
vt 0.43401742 0.18559669
vt 0.43401742 0.18983641
vt 0.4408928 0.18559669
vt 0.43401742 0.18304352
vt 0.4408928 0.18304352
vt 0.43401742 0.18304352
vt 0.43401742 0.18559669
vt 0.43401742 0.18983641
vt 0.4408928 0.18983641
vt 0.4408928 0.18559669
vt 0.4408928 0.18304352
vt 0.4386624 0.18304352
vt 0.4386624 0.18559669
vt 0.4386624 0.18983641
vt 0.4366992 0.18304354
vt 0.4366953 0.18559669
vt 0.43671128 0.18983641
vt 0.43606073 0.18983641
vt 0.4361022 0.18559669
vt 0.43609223 0.18304354
vn 0.33776623 0.80609643 -0.48592445
vn 0.6822604 0.65412384 0.3265622
vn 0.26915467 0.853594 0.44601896
vn 0.18709758 0.8948206 -0.40532777
vn 1.1179897E-07 1 0
vn -0.5212569 0.7682901 -0.37151253
vn 0.1319523 0.8109136 -0.5700944
vn -0.42667514 0.89918864 -0.09699527
vn 3.7339544E-07 1 0
vn 0.6822604 0.65412384 0.3265622
vn 0.50994396 -0.16353594 0.84451944
vn 0.26915467 0.853594 0.44601896
vn 0.9585071 0.12355622 0.25690067
vn 0.4975698 -0.27281192 0.8234063
vn 0.99553055 0.03469007 0.08783849
vn 0.33776623 0.80609643 -0.48592445
vn 0.53658146 0.40222323 -0.74181986
vn 0.52047586 0.33458844 -0.78559244
vn 0.41752362 0.35202223 -0.83770776
vn 0.3847025 0.41624898 -0.8238572
vn 0.18709758 0.8948206 -0.40532777
vn 0.1319523 0.8109136 -0.5700944
vn 0.1641725 0.44649827 -0.8795946
vn 0.16982214 0.37368473 -0.9118773
vn -0.6443637 0.24732913 -0.7236184
vn -0.7264904 0.31286642 -0.611822
vn -0.973884 0.02159111 -0.22601712
vn -0.5212569 0.7682901 -0.37151253
vn -0.96110344 0.16641152 -0.22042517
vn -0.42667514 0.89918864 -0.09699527
vn 0.49787486 -0.26568317 0.8255502
vn 0.49787486 -0.26568314 0.8255502
vn 0.91311604 -0.04504023 0.40520418
vn 0.9922236 0.09422232 0.08132846
vn 0.47821355 0.38719812 -0.78828263
vn 0.5542445 0.3764676 -0.74235106
vn 0.39508358 0.3649705 -0.84303355
vn 0.3717496 0.36915246 -0.85177976
vn 0.18914056 0.36113986 -0.91312855
vn 0.17457692 0.36148882 -0.9158869
vn -0.7623508 0.25020435 -0.59684086
vn -0.68641937 0.27330542 -0.6738936
vn -0.9715504 0.12256395 -0.2026521
vn -0.9715504 0.12256395 -0.20265211
vn 0.35092524 0.76195186 -0.54431677
vn 0.72774917 0.5322581 -0.43253034
vn 0.5613552 0.7583601 -0.33131605
vn 0.5552513 0.5136744 -0.6540906
vn 0.8473641 0.1588487 -0.50669634
vn 0.4633328 0.343861 -0.8167511
vn 0.43013316 0.372374 -0.8223887
vn 0.34782025 0.5822441 -0.7348557
vn 0.29540476 0.7270882 -0.61974084
vn 0.16387166 0.8020383 -0.57435226
vn 0.13127758 0.54337263 -0.8291637
vn 0.21276172 0.31176382 -0.9260323
vn -0.66342247 0.060733587 -0.7457762
vn -0.7139389 0.38596025 -0.584231
vn -0.50957584 0.7799313 -0.36337247
vn -0.94526255 -0.3262317 -0.007168572
vn -0.9795799 0.14677484 0.13740566
vn -0.72592777 0.6836055 0.07557992
vn -0.6955543 0.65081453 0.30437595
vn -0.89257926 0.2200601 0.3935425
vn -0.7886898 -0.50468385 0.3510879
g [breakable]cookie1_2_0
f 3/3/3 2/2/2 1/1/1
f 4/4/4 3/3/3 1/1/1
f 3/3/3 4/4/4 5/5/5
f 4/4/4 6/6/6 5/5/5
f 7/7/7 6/6/6 4/4/4
f 5/5/5 6/6/6 8/8/8
f 9/9/9 5/5/5 8/8/8
f 12/12/12 11/11/11 10/10/10
f 11/11/11 13/13/13 10/10/10
f 13/13/13 11/11/11 14/14/14
f 15/15/15 13/13/13 14/14/14
f 10/10/10 13/13/13 16/16/16
f 13/13/13 15/15/15 17/17/17
f 13/13/13 17/17/17 16/16/16
f 15/15/15 18/18/18 17/17/17
f 17/17/17 18/18/18 19/19/19
f 16/16/16 17/17/17 20/20/20
f 20/20/20 17/17/17 19/19/19
f 21/21/21 16/16/16 20/20/20
f 21/21/21 20/20/20 22/22/22
f 23/23/23 20/20/20 19/19/19
f 20/20/20 23/23/23 22/22/22
f 24/24/24 23/23/23 19/19/19
f 24/24/24 25/25/25 23/23/23
f 23/23/23 26/26/26 22/22/22
f 25/25/25 26/26/26 23/23/23
f 25/25/25 27/27/27 26/26/26
f 26/26/26 28/28/28 22/22/22
f 27/27/27 29/29/29 26/26/26
f 26/26/26 29/29/29 28/28/28
f 29/29/29 30/30/30 28/28/28
f 33/33/33 32/32/32 31/31/31
f 34/34/34 33/33/33 31/31/31
f 34/34/34 35/35/35 33/33/33
f 35/35/35 36/36/36 33/33/33
f 35/35/35 37/37/37 36/36/36
f 37/37/37 38/38/38 36/36/36
f 39/39/39 38/38/38 37/37/37
f 40/40/40 39/39/39 37/37/37
f 41/41/41 39/39/39 40/40/40
f 42/42/42 41/41/41 40/40/40
f 43/43/43 41/41/41 42/42/42
f 44/44/44 43/43/43 42/42/42
f 47/47/47 46/46/46 45/45/45
f 46/46/46 48/48/48 45/45/45
f 46/46/46 49/49/49 48/48/48
f 49/49/49 50/50/50 48/48/48
f 48/48/48 50/50/50 51/51/51
f 45/45/45 48/48/48 52/52/52
f 52/52/52 48/48/48 51/51/51
f 53/53/53 45/45/45 52/52/52
f 53/53/53 52/52/52 54/54/54
f 55/55/55 52/52/52 51/51/51
f 52/52/52 55/55/55 54/54/54
f 56/56/56 55/55/55 51/51/51
f 56/56/56 57/57/57 55/55/55
f 55/55/55 58/58/58 54/54/54
f 57/57/57 58/58/58 55/55/55
f 58/58/58 59/59/59 54/54/54
f 57/57/57 60/60/60 58/58/58
f 58/58/58 61/61/61 59/59/59
f 60/60/60 61/61/61 58/58/58
f 61/61/61 62/62/62 59/59/59
f 63/63/63 62/62/62 61/61/61
f 64/64/64 63/63/63 61/61/61
f 64/64/64 61/61/61 60/60/60
f 65/65/65 64/64/64 60/60/60
