g [breakable]statue_piece3
v 0.48485795 0.65578943 -0.043376394
v 0.5419317 0.25838867 0.018449556
v 0.5016775 0.6557896 0.0424832
v 0.5265204 0.25838858 -0.07287793
v 0.36843762 0.029804155 -0.0215491
v 0.35890734 0.029804155 -0.08321026
v 0.5016775 0.6557896 0.0424832
v 0.22399303 0.71767753 0.3960999
v 0.45201173 0.71767765 0.049822196
v 0.23687345 0.65578955 0.44462454
v 0.23069917 0.25838864 0.49109915
v 0.5419317 0.25838867 0.018449556
v 0.14786924 0.029804176 0.3134143
v 0.36843762 0.029804155 -0.0215491
v 0.43611497 0.7176772 -0.031326577
v 0.48485795 0.65578943 -0.043376394
v 0.5016775 0.6557896 0.0424832
v 0.45201173 0.71767765 0.049822196
v -0.05351251 0.62207633 -0.36017752
v -0.013724708 0.71767735 -0.3275392
v -0.06946681 0.7130926 -0.31609407
v -0.10941571 0.62413454 -0.34678394
v -0.12280459 0.46307623 -0.45721057
v -0.17740768 0.47145703 -0.44177622
v -0.16266127 0.37161964 -0.5130239
v -0.21651658 0.38363725 -0.49641562
v -0.13990708 0.029804097 -0.41167217
v -0.17625856 0.029804097 -0.40467528
v 0.22399303 0.71767753 0.3960999
v 0.14316563 0.7176772 0.41355723
v -0.30667394 0.7176772 0.11734471
v 0.45201173 0.71767765 0.049822196
v 0.43611497 0.7176772 -0.031326577
v 0.25783688 0.71767735 -0.32955018
v -0.013724708 0.71767735 -0.3275392
v -0.06946681 0.7130926 -0.31609407
v -0.318183 0.71309245 0.06161568
v 0.1513539 0.65578943 0.46309537
v 0.23687345 0.65578955 0.44462454
v 0.23069917 0.25838864 0.49109915
v 0.14071287 0.25838858 0.51302373
v 0.14786924 0.029804176 0.3134143
v 0.08745935 0.029804176 0.32902092
v 0.14316563 0.7176772 0.41355723
v 0.22399303 0.71767753 0.3960999
v 0.23687345 0.65578955 0.44462454
v 0.1513539 0.65578943 0.46309537
v -0.30667394 0.7176772 0.11734471
v 0.14316563 0.7176772 0.41355723
v 0.1513539 0.65578943 0.46309537
v -0.3488469 0.6220763 0.08832842
v 0.14071287 0.25838858 0.51302373
v -0.46760297 0.46307623 0.06641309
v -0.5359112 0.37161964 0.053807568
v 0.08745935 0.029804176 0.32902092
v -0.41135538 0.029804155 0.0005593487
v -0.3488469 0.6220763 0.08832842
v -0.318183 0.71309245 0.06161568
v -0.30667394 0.7176772 0.11734471
v -0.3586296 0.6241345 0.031681642
v -0.46760297 0.46307623 0.06641309
v -0.4749971 0.47145703 0.0101544745
v -0.5359112 0.37161964 0.053807568
v -0.54193157 0.38363716 -0.0022280482
v -0.41135538 0.029804155 0.0005593487
v -0.41928977 0.029804155 -0.035599135
v -0.10941571 0.62413454 -0.34678394
v -0.06946681 0.7130926 -0.31609407
v -0.318183 0.71309245 0.06161568
v -0.3586296 0.6241345 0.031681642
v -0.17740768 0.47145703 -0.44177622
v -0.4749971 0.47145703 0.0101544745
v -0.21651658 0.38363725 -0.49641562
v -0.54193157 0.38363716 -0.0022280482
v -0.41928977 0.029804155 -0.035599135
v -0.17625856 0.029804097 -0.40467528
v 0.17409816 0.029804137 -0.32292998
v -0.16266127 0.37161964 -0.5130239
v -0.13990708 0.029804097 -0.41167217
v 0.27577868 0.24387327 -0.41193262
v 0.35890734 0.029804155 -0.08321026
v -0.12280459 0.46307623 -0.45721057
v 0.29046068 0.61603886 -0.3333593
v 0.5265204 0.25838858 -0.07287793
v -0.05351251 0.62207633 -0.36017752
v 0.48485795 0.65578943 -0.043376394
v -0.013724708 0.71767735 -0.3275392
v 0.43611497 0.7176772 -0.031326577
v 0.25783688 0.71767735 -0.32955018
vt 0.7819904 0.5786694
vt 0.77750576 0.5980405
vt 0.77862597 0.5786694
vt 0.7809706 0.5980405
vt 0.7768614 0.6091827
vt 0.78038394 0.6091827
vt 0.77862597 0.5786694
vt 0.7806822 0.57557833
vt 0.7806822 0.57557833
vt 0.77862597 0.5786694
vt 0.77750576 0.5980405
vt 0.77750576 0.5980405
vt 0.7768614 0.6091827
vt 0.7768614 0.6091827
vt 0.78386176 0.57557833
vt 0.7819904 0.5786694
vt 0.77862597 0.5786694
vt 0.7806822 0.57557833
vt 0.8339512 0.5786088
vt 0.8339512 0.57554483
vt 0.8376397 0.57554483
vt 0.8376397 0.5786088
vt 0.83395123 0.5876816
vt 0.8376397 0.5876816
vt 0.8339512 0.5929003
vt 0.8376397 0.5929003
vt 0.8339512 0.60926044
vt 0.8376397 0.60926044
vt 0.7806822 0.57557833
vt 0.78386176 0.57557833
vt 0.81329197 0.57557833
vt 0.7806822 0.57557833
vt 0.78386176 0.57557833
vt 0.7992636 0.57557833
vt 0.81329197 0.57557833
vt 0.81492263 0.57580733
vt 0.81492263 0.57580733
vt 0.7819904 0.5786694
vt 0.77862597 0.5786694
vt 0.77750576 0.5980405
vt 0.7809706 0.5980405
vt 0.7768614 0.6091827
vt 0.78038394 0.6091827
vt 0.78386176 0.57557833
vt 0.7806822 0.57557833
vt 0.77862597 0.5786694
vt 0.7819904 0.5786694
vt 0.81329197 0.57557833
vt 0.78386176 0.57557833
vt 0.7819904 0.5786694
vt 0.8152687 0.5786694
vt 0.7809706 0.5980405
vt 0.8262168 0.58768624
vt 0.8325142 0.5928727
vt 0.78038394 0.6091827
vt 0.8326466 0.6091827
vt 0.8339512 0.5786088
vt 0.8376397 0.57554483
vt 0.8339512 0.57554483
vt 0.8376397 0.5786088
vt 0.83395123 0.5876816
vt 0.8376397 0.5876816
vt 0.8339512 0.5929003
vt 0.8376397 0.5929003
vt 0.8339512 0.60926044
vt 0.8376397 0.60926044
vt 0.8376397 0.5786088
vt 0.8376397 0.57554483
vt 0.8376397 0.57554483
vt 0.8376397 0.5786088
vt 0.8376397 0.5876816
vt 0.8376397 0.5876816
vt 0.8376397 0.5929003
vt 0.8376397 0.5929003
vt 0.8376397 0.60926044
vt 0.8376397 0.60926044
vt 0.8036545 0.6091827
vt 0.8325142 0.5928727
vt 0.8326466 0.6091827
vt 0.80125797 0.5980405
vt 0.78038394 0.6091827
vt 0.8262168 0.58768624
vt 0.7970916 0.5786694
vt 0.7809706 0.5980405
vt 0.8152687 0.5786694
vt 0.7819904 0.5786694
vt 0.81329197 0.57557833
vt 0.78386176 0.57557833
vt 0.7992636 0.57557833
vn 0.9775834 0.11273281 -0.1778256
vn 0.96174806 -0.21667005 -0.16761503
vn 0.9775834 0.11273282 -0.17782561
vn 0.9475969 -0.27428758 -0.16378814
vn 0.8014565 -0.58360547 -0.13066036
vn 0.8014565 -0.5836055 -0.13066034
vn 0.8093116 0.24700506 0.5329196
vn 0.7145788 0.5176579 0.47053954
vn 0.7145788 0.5176579 0.4705395
vn 0.80931157 0.2470051 0.5329195
vn 0.8076265 -0.25478947 0.5318098
vn 0.80361605 -0.27236274 0.52916896
vn 0.6745281 -0.5896846 0.44416657
vn 0.6745281 -0.5896846 0.44416657
vn 0.7624421 0.6295815 -0.14936206
vn 0.7624421 0.6295815 -0.14936206
vn 0.7624421 0.6295815 -0.14936206
vn 0.7624421 0.6295815 -0.14936209
vn -0.18708876 0.47209057 -0.8614687
vn -0.20790018 0.39662528 -0.8941285
vn -0.2079002 0.39662534 -0.8941285
vn -0.17944567 0.49783754 -0.8485029
vn -0.14688271 0.56494266 -0.8119516
vn -0.1456816 0.5646657 -0.81236047
vn -0.23251967 0.13381572 -0.963342
vn -0.22290176 0.19015993 -0.95611405
vn -0.27777869 -0.28021282 -0.91886884
vn -0.27777869 -0.28021282 -0.9188687
vn -5.3225403E-07 1 -1.7343456E-07
vn -5.3225403E-07 1 -1.7343456E-07
vn -0.011063814 0.99991226 -0.007285095
vn -5.3225403E-07 1 -1.7343456E-07
vn -5.3225403E-07 1 -1.7343456E-07
vn -0.0074289446 0.9999604 -0.0048916154
vn -0.023579588 0.9996014 -0.01552645
vn -0.023579586 0.9996014 -0.015526449
vn -0.023579588 0.9996014 -0.015526449
vn 0.22287117 0.11273264 0.9683078
vn 0.22287115 0.112732634 0.9683078
vn 0.22326614 -0.2655867 0.9378783
vn 0.22163779 -0.29951054 0.9279925
vn 0.18542486 -0.64304763 0.7430392
vn 0.18542486 -0.64304763 0.7430392
vn 0.16402104 0.6295814 0.7594237
vn 0.16402104 0.62958145 0.7594237
vn 0.16402104 0.62958145 0.7594237
vn 0.16402104 0.62958145 0.7594237
vn -0.56734484 0.22562711 0.7919674
vn -0.5673449 0.22562708 0.7919674
vn -0.5685308 0.19515735 0.79917854
vn -0.5686838 0.18969727 0.8003835
vn -0.5842969 -0.046857744 0.81018615
vn -0.5839504 -0.09057462 0.80672055
vn -0.5529904 -0.28134808 0.78424805
vn -0.5602603 -0.27341852 0.7818892
vn -0.5221786 -0.3138134 0.79300106
vn -0.8738926 0.45503467 0.17104134
vn -0.91874385 0.35825595 0.16601925
vn -0.91874385 0.3582559 0.16601925
vn -0.85427207 0.49039254 0.17243657
vn -0.7966474 0.57500184 0.1863483
vn -0.79655385 0.574781 0.1874269
vn -0.97944325 0.115358226 0.16547923
vn -0.9735595 0.15296875 0.16965432
vn -0.9340209 -0.3439243 0.096545175
vn -0.9340209 -0.3439243 0.096545175
vn -0.7026012 0.540652 -0.46265215
vn -0.7272172 0.49177942 -0.47886148
vn -0.72721714 0.49177942 -0.47886148
vn -0.70294267 0.5400152 -0.462877
vn -0.6796797 0.5811426 -0.44755864
vn -0.6796797 0.58114266 -0.44755867
vn -0.8214359 0.18073978 -0.5409032
vn -0.8191776 0.19488056 -0.539416
vn -0.8125662 -0.23117967 -0.5350627
vn -0.8125662 -0.2311797 -0.53506273
vn 0.4617661 -0.37633482 -0.8032087
vn 0.19656701 -0.20534877 -0.9587456
vn 0.26274186 -0.25817063 -0.9296853
vn 0.5241051 -0.12456781 -0.84249437
vn 0.6926069 -0.51170737 -0.508381
vn 0.1786293 0.05606653 -0.9823178
vn 0.53372073 0.2706458 -0.8011823
vn 0.79946685 -0.15790199 -0.5795858
vn 0.12643687 0.24526033 -0.96117693
vn 0.790227 0.26958477 -0.55033195
vn 0.041374322 0.18010242 -0.98277736
vn 0.75213546 0.42323378 -0.505139
vn 0.39007267 0.3183568 -0.8639979
g [breakable]statue_piece3_0
f 3/3/3 2/2/2 1/1/1
f 2/2/2 4/4/4 1/1/1
f 4/4/4 2/2/2 5/5/5
f 6/6/6 4/4/4 5/5/5
f 9/9/9 8/8/8 7/7/7
f 8/8/8 10/10/10 7/7/7
f 7/7/7 10/10/10 11/11/11
f 12/12/12 7/7/7 11/11/11
f 12/12/12 11/11/11 13/13/13
f 14/14/14 12/12/12 13/13/13
f 17/17/17 16/16/16 15/15/15
f 18/18/18 17/17/17 15/15/15
f 21/21/21 20/20/20 19/19/19
f 22/22/22 21/21/21 19/19/19
f 19/19/19 23/23/23 22/22/22
f 23/23/23 24/24/24 22/22/22
f 24/24/24 23/23/23 25/25/25
f 26/26/26 24/24/24 25/25/25
f 26/26/26 25/25/25 27/27/27
f 28/28/28 26/26/26 27/27/27
f 31/31/31 30/30/30 29/29/29
f 31/31/31 29/29/29 32/32/32
f 31/31/31 32/32/32 33/33/33
f 33/33/33 34/34/34 31/31/31
f 31/31/31 34/34/34 35/35/35
f 35/35/35 36/36/36 31/31/31
f 36/36/36 37/37/37 31/31/31
f 40/40/40 39/39/39 38/38/38
f 41/41/41 40/40/40 38/38/38
f 42/42/42 40/40/40 41/41/41
f 43/43/43 42/42/42 41/41/41
f 46/46/46 45/45/45 44/44/44
f 47/47/47 46/46/46 44/44/44
f 50/50/50 49/49/49 48/48/48
f 51/51/51 50/50/50 48/48/48
f 50/50/50 51/51/51 52/52/52
f 51/51/51 53/53/53 52/52/52
f 52/52/52 53/53/53 54/54/54
f 55/55/55 52/52/52 54/54/54
f 56/56/56 55/55/55 54/54/54
f 59/59/59 58/58/58 57/57/57
f 58/58/58 60/60/60 57/57/57
f 57/57/57 60/60/60 61/61/61
f 60/60/60 62/62/62 61/61/61
f 61/61/61 62/62/62 63/63/63
f 62/62/62 64/64/64 63/63/63
f 63/63/63 64/64/64 65/65/65
f 64/64/64 66/66/66 65/65/65
f 69/69/69 68/68/68 67/67/67
f 70/70/70 69/69/69 67/67/67
f 70/70/70 67/67/67 71/71/71
f 72/72/72 70/70/70 71/71/71
f 72/72/72 71/71/71 73/73/73
f 74/74/74 72/72/72 73/73/73
f 75/75/75 74/74/74 73/73/73
f 76/76/76 75/75/75 73/73/73
f 79/79/79 78/78/78 77/77/77
f 80/80/80 77/77/77 78/78/78
f 77/77/77 80/80/80 81/81/81
f 82/82/82 80/80/80 78/78/78
f 83/83/83 80/80/80 82/82/82
f 80/80/80 84/84/84 81/81/81
f 84/84/84 80/80/80 83/83/83
f 85/85/85 83/83/83 82/82/82
f 86/86/86 84/84/84 83/83/83
f 85/85/85 87/87/87 83/83/83
f 86/86/86 83/83/83 88/88/88
f 87/87/87 89/89/89 83/83/83
f 83/83/83 89/89/89 88/88/88
