g [fx]plane_gradient2
v 31.055742 13.593979 0
v -31.055742 -13.593979 0
v -31.055742 13.593979 0
v 31.055742 -13.593979 0
v -31.055742 -33.390503 2.4414062E-06
v 31.055742 -33.390503 2.4414062E-06
vt 0.76587814 0.9845566
vt 0.7675892 0.0197756
vt 0.7675892 0.9845566
vt 0.76587814 0.0197756
vt 0.7675892 0.0197756
vt 0.76587814 0.0197756
vn -0 0 1
vn -0 0 1
vn -0 0 1
vn -0 0 1
vn -0 1.23325E-07 1
vn -0 1.23325E-07 1
g [fx]plane_gradient2_0
f 3/3/3 2/2/2 1/1/1
f 2/2/2 4/4/4 1/1/1
f 2/2/2 5/5/5 4/4/4
f 5/5/5 6/6/6 4/4/4
