g [fx]obj_light_R
v 0.004977707 3.7837315 0.11030091
v -0.10238131 3.6548014 0.110321514
v -0.07693217 3.7630742 0.11032152
v -0.013717101 0.5810902 -0.19111484
v 0.19373076 0.58109045 -0.19115642
v 0.19373056 0.58109033 0.21155487
v -0.22116494 0.58109003 -0.19107325
v -0.22116509 0.58109003 0.21163784
v -0.30508098 0.3203499 -0.27497277
v -0.22116494 0.58109003 -0.19107325
v -0.22116509 0.58109003 0.21163784
v -0.30508122 0.3203499 0.29557094
v -0.30508122 0.3203499 0.29557094
v -0.22116509 0.58109003 0.21163784
v 0.19373056 0.58109033 0.21155487
v 0.27764714 0.32035038 0.29545444
v 0.27764714 0.32035038 0.29545444
v 0.19373056 0.58109033 0.21155487
v 0.19373076 0.58109045 -0.19115642
v 0.27764738 0.32035044 -0.2750896
v -0.013716816 0.32035017 -0.27503118
v 0.27764738 0.32035044 -0.2750896
v 0.19373076 0.58109045 -0.19115642
v -0.013717101 0.5810902 -0.19111484
v -0.22116494 0.58109003 -0.19107325
v -0.30508098 0.3203499 -0.27497277
v -0.07693217 3.7630742 0.11032152
v -0.09925418 3.7630742 -0.08980153
v 0.010496703 3.7837315 -0.08982219
v 0.004977707 3.7837315 0.11030091
v 0.10539284 3.7377875 0.110280305
v 0.14504272 3.7377875 -0.08984284
v -0.11213208 0.37990808 0.11032142
v -0.15764058 0.37990806 -0.08980164
v -0.18182409 0.80913925 -0.08980162
v -0.13855626 0.80913925 0.11032144
v 0.13021137 0.37990886 0.1102802
v -0.11213208 0.37990808 0.11032142
v -0.13855626 0.80913925 0.11032144
v 0.07038113 0.9912185 0.11028024
v -0.12415535 1.0803468 0.110321455
v 0.11882426 1.2968732 0.11028026
v -0.13855626 0.80913925 0.11032144
v 0.17863926 0.3799089 -0.08984299
v 0.13021137 0.37990886 0.1102802
v 0.07038113 0.9912185 0.11028024
v 0.09813065 0.9912185 -0.089842945
v -0.05921573 3.1287124 0.110321485
v -0.09415477 1.6025275 -0.089801565
v -0.08337969 3.1287124 -0.08980158
v -0.07312637 1.6025275 0.11032149
v -0.11331885 1.2968726 -0.08980158
v -0.086038895 1.2968726 0.11032148
v 0.09047978 3.1287131 0.11028027
v -0.07312637 1.6025275 0.11032149
v -0.05921573 3.1287124 0.110321485
v 0.13281243 1.6025282 0.110280275
v 0.11882426 1.2968732 0.11028026
v -0.086038895 1.2968726 0.11032148
v -0.12415535 1.0803468 0.110321455
v 0.004977707 3.7837315 0.11030091
v 0.10539284 3.7377875 0.110280305
v -0.05921573 3.1287124 0.110321485
v -0.10238131 3.6548014 0.110321514
v 0.11719701 3.1287131 -0.089842916
v 0.18178217 1.6025281 -0.08984289
v 0.13281243 1.6025282 0.110280275
v 0.09047978 3.1287131 0.11028027
v -0.10238131 3.6548014 0.110321514
v -0.05921573 3.1287124 0.110321485
v -0.08337969 3.1287124 -0.08980158
v -0.13335341 3.6548014 -0.08980154
v 0.14504272 3.7377875 -0.08984284
v 0.11719701 3.1287131 -0.089842916
v 0.09047978 3.1287131 0.11028027
v 0.10539284 3.7377875 0.110280305
v -0.086038895 1.2968726 0.11032148
v -0.12415535 1.0803468 0.110321455
v -0.16633716 1.0803468 -0.0898016
v -0.11331885 1.2968726 -0.08980158
v 0.16117688 1.2968732 -0.089842916
v 0.09813065 0.9912185 -0.089842945
v 0.07038113 0.9912185 0.11028024
v 0.11882426 1.2968732 0.11028026
v -0.07693217 3.7630742 0.11032152
v -0.10238131 3.6548014 0.110321514
v -0.13335341 3.6548014 -0.08980154
v -0.09925418 3.7630742 -0.08980153
v 0.18178217 1.6025281 -0.08984289
v 0.16117688 1.2968732 -0.089842916
v 0.11882426 1.2968732 0.11028026
v 0.13281243 1.6025282 0.110280275
v -0.12415535 1.0803468 0.110321455
v -0.13855626 0.80913925 0.11032144
v -0.18182409 0.80913925 -0.08980162
v -0.16633716 1.0803468 -0.0898016
v -0.74922097 3.546008 0.41779965
v 0.03665782 3.6784823 0.41779974
v 0.04271986 3.6409156 0.45588988
v -0.7433761 3.5033267 0.46057838
v -0.7433761 3.5033267 0.46057838
v 0.04271986 3.6409156 0.45588988
v 0.048787434 3.6032689 0.41779974
v -0.7376438 3.4612188 0.41779965
v -0.7376438 3.4612188 0.41779965
v 0.048787434 3.6032689 0.41779974
v 0.04271986 3.6409156 0.3797096
v -0.7433761 3.5033267 0.37502095
v -0.7433761 3.5033267 0.37502095
v 0.04271986 3.6409156 0.3797096
v 0.03665782 3.6784823 0.41779974
v -0.74922097 3.546008 0.41779965
v 0.048787434 3.6032689 0.41779974
v 0.04271986 3.6409156 0.45588988
v 0.03665782 3.6784823 0.41779974
v 0.04271986 3.6409156 0.3797096
v -1.5276712 3.451962 0.41779974
v -0.74922097 3.546008 0.41779965
v -0.7433761 3.5033267 0.46057838
v -1.5242167 3.4087715 0.4605751
v -1.5242167 3.4087715 0.4605751
v -0.7433761 3.5033267 0.46057838
v -0.7376438 3.4612188 0.41779965
v -1.5208195 3.3665915 0.41779974
v -1.5208195 3.3665915 0.41779974
v -0.7376438 3.4612188 0.41779965
v -0.7433761 3.5033267 0.37502095
v -1.5242167 3.4087715 0.37502438
v -1.5242167 3.4087715 0.37502438
v -0.7433761 3.5033267 0.37502095
v -0.74922097 3.546008 0.41779965
v -1.5276712 3.451962 0.41779974
v -1.5242167 3.4934695 0.41779974
v -1.4811832 3.4682605 0.46083364
v -1.5242167 3.4682605 0.47865888
v -1.4633578 3.407401 0.4786589
v -1.5242167 3.4074016 0.50386757
v -1.4811832 3.3465424 0.46083373
v -1.5242167 3.3465424 0.4786589
v -1.5242167 3.3213334 0.41779977
v -1.4633578 3.3465421 0.41779983
v -1.5242167 3.3213334 0.41779977
v -1.4381489 3.407401 0.41779977
v -1.4633578 3.4682603 0.41779974
v -1.5242167 3.4934695 0.41779974
v -1.481183 3.3465421 0.37476587
v -1.5242167 3.3213334 0.41779977
v -1.4633578 3.407401 0.35694063
v -1.5242167 3.3465424 0.35694063
v -1.5242167 3.3213334 0.41779977
v -1.5242167 3.4074016 0.33173192
v -1.481183 3.4682603 0.37476584
v -1.5242167 3.4934695 0.41779974
v -1.5242167 3.4682605 0.3569406
v -1.5242167 3.4934695 0.41779974
v -1.4830854 3.1068282 0.42098373
v -1.5256755 3.1079807 0.46376348
v -1.5243415 3.3682883 0.46376404
v -1.4815753 3.368288 0.42098367
v -1.5256755 3.1079807 0.37820396
v -1.4830854 3.1068282 0.42098373
v -1.4815753 3.368288 0.42098367
v -1.5243415 3.3682883 0.3782033
v -1.5242169 3.170526 0.41779974
v -1.4811822 3.1453176 0.46083364
v -1.524216 3.1453176 0.47865888
v -1.463357 3.0844584 0.4786589
v -1.524216 3.0844584 0.50386757
v -1.4811822 3.0235991 0.46083373
v -1.524216 3.0235991 0.4786589
v -1.524216 2.9983904 0.41779977
v -1.463357 3.0235991 0.41779983
v -1.524216 2.9983904 0.41779977
v -1.438148 3.0844584 0.41779977
v -1.463357 3.1453176 0.41779974
v -1.5242169 3.170526 0.41779974
v -1.481182 3.0235991 0.37476587
v -1.524216 2.9983904 0.41779977
v -1.463357 3.0844584 0.35694063
v -1.524216 3.0235991 0.35694063
v -1.524216 2.9983904 0.41779977
v -1.524216 3.0844584 0.33173192
v -1.4811822 3.1453176 0.37476584
v -1.5242169 3.170526 0.41779974
v -1.524216 3.1453176 0.3569406
v -1.5242169 3.170526 0.41779974
vt 0.009122471 0.117852956
vt 0.015070198 0.115037374
vt 0.015070198 0.117852956
vt 0.00881559 0.092279755
vt 0.00881559 0.092279755
vt 0.017182581 0.092279755
vt 0.00881559 0.092279755
vt 0.017182581 0.092279755
vt 0.00881559 0.07664771
vt 0.00881559 0.092279755
vt 0.017182581 0.092279755
vt 0.017182581 0.07664771
vt 0.0028734806 0.07664771
vt 0.0028734806 0.092279755
vt 0.00881559 0.092279755
vt 0.00881559 0.07664771
vt 0.017182581 0.07664771
vt 0.017182581 0.092279755
vt 0.00881559 0.092279755
vt 0.00881559 0.07664771
vt 0.0058445353 0.07664771
vt 0.00881559 0.07664771
vt 0.00881559 0.092279755
vt 0.0058445353 0.092279755
vt 0.0028734806 0.092279755
vt 0.0028734806 0.07664771
vt 0.011227693 0.117852956
vt 0.0070309103 0.117852956
vt 0.0048034047 0.117852956
vt 0.009129287 0.117852956
vt 0.0070309103 0.117852956
vt 0.0025784895 0.117852956
vt 0.015150442 0.09532864
vt 0.027058382 0.09532864
vt 0.027058382 0.09814422
vt 0.015150442 0.09814422
vt 0.0025784895 0.09544091
vt 0.015070198 0.09532864
vt 0.015070198 0.09814422
vt 0.0025784895 0.10104392
vt 0.015070198 0.10095969
vt 0.0025784895 0.10384545
vt 0.015070198 0.09814422
vt 0.015103593 0.09544091
vt 0.026972933 0.09544091
vt 0.026972933 0.10104392
vt 0.015103593 0.10104392
vt 0.015150442 0.1122219
vt 0.027058382 0.10659079
vt 0.027058382 0.1122219
vt 0.015150442 0.10659079
vt 0.027058382 0.10377521
vt 0.015150442 0.10377521
vt 0.0025784895 0.11224995
vt 0.015070198 0.10659079
vt 0.015070198 0.1122219
vt 0.0025784895 0.10664693
vt 0.0025784895 0.10384545
vt 0.015070198 0.10377521
vt 0.015070198 0.10095969
vt 0.009122471 0.117852956
vt 0.0025784895 0.117852956
vt 0.015070198 0.1122219
vt 0.015070198 0.115037374
vt 0.015103593 0.11224995
vt 0.015103593 0.10664693
vt 0.026972933 0.10664693
vt 0.026972933 0.11224995
vt 0.015150442 0.115037374
vt 0.015150442 0.1122219
vt 0.027058382 0.1122219
vt 0.027058382 0.115037374
vt 0.015103593 0.117852956
vt 0.015103593 0.11224995
vt 0.026972933 0.11224995
vt 0.026972933 0.117852956
vt 0.015150442 0.10377521
vt 0.015150442 0.10095969
vt 0.027058382 0.10095969
vt 0.027058382 0.10377521
vt 0.015103593 0.10384545
vt 0.015103593 0.10104392
vt 0.026972933 0.10104392
vt 0.026972933 0.10384545
vt 0.015150442 0.117852956
vt 0.015150442 0.115037374
vt 0.027058382 0.115037374
vt 0.027058382 0.117852956
vt 0.015103593 0.10664693
vt 0.015103593 0.10384545
vt 0.026972933 0.10384545
vt 0.026972933 0.10664693
vt 0.015150442 0.10095969
vt 0.015150442 0.09814422
vt 0.027058382 0.09814422
vt 0.027058382 0.10095969
vt 0.3554892 0.48852327
vt 0.4517762 0.48852324
vt 0.4517762 0.49338245
vt 0.3554892 0.49338245
vt 0.3554892 0.49338245
vt 0.4517762 0.49338245
vt 0.4517762 0.48573452
vt 0.3554892 0.48573455
vt 0.3554892 0.48573467
vt 0.4517762 0.4857347
vt 0.4517762 0.49338263
vt 0.3554892 0.4933826
vt 0.3554892 0.4933826
vt 0.4517762 0.49338263
vt 0.4517762 0.48852342
vt 0.3554892 0.4885234
vt 0.4517762 0.48852324
vt 0.4517762 0.48852324
vt 0.4517762 0.48852324
vt 0.4517762 0.48852324
vt 0.3554892 0.48852327
vt 0.4517762 0.48852327
vt 0.4517762 0.49338245
vt 0.3554892 0.49338248
vt 0.3554892 0.49338248
vt 0.4517762 0.49338245
vt 0.4517762 0.48573455
vt 0.3554892 0.48573455
vt 0.3554892 0.48573467
vt 0.4517762 0.48573467
vt 0.4517762 0.4933826
vt 0.3554892 0.4933826
vt 0.3554892 0.4933826
vt 0.4517762 0.4933826
vt 0.4517762 0.4885234
vt 0.3554892 0.4885234
vt 0.42188227 0.4984721
vt 0.42352974 0.49517715
vt 0.42188227 0.49517715
vt 0.42352974 0.4918822
vt 0.42188227 0.4918822
vt 0.42352974 0.48858726
vt 0.42188227 0.48858726
vt 0.42188227 0.48529232
vt 0.42517722 0.48858726
vt 0.42352974 0.48529232
vt 0.42517722 0.4918822
vt 0.42517722 0.49517715
vt 0.42352974 0.4984721
vt 0.4268247 0.48858726
vt 0.42517722 0.48529232
vt 0.4268247 0.4918822
vt 0.42847216 0.48858726
vt 0.4268247 0.48529232
vt 0.42847216 0.4918822
vt 0.4268247 0.49517715
vt 0.42517722 0.4984721
vt 0.42847216 0.49517715
vt 0.4268247 0.4984721
vt 0.3554892 0.48573458
vt 0.3554892 0.4933825
vt 0.4517762 0.4933825
vt 0.4517762 0.48573458
vt 0.3554892 0.4933826
vt 0.3554892 0.48573464
vt 0.4517762 0.48573464
vt 0.4517762 0.49338257
vt 0.42188227 0.4984721
vt 0.42352974 0.49517715
vt 0.42188227 0.49517715
vt 0.42352974 0.4918822
vt 0.42188227 0.4918822
vt 0.42352974 0.48858726
vt 0.42188227 0.48858726
vt 0.42188227 0.48529232
vt 0.42517722 0.48858726
vt 0.42352974 0.48529232
vt 0.42517722 0.4918822
vt 0.42517722 0.49517715
vt 0.42352974 0.4984721
vt 0.4268247 0.48858726
vt 0.42517722 0.48529232
vt 0.4268247 0.4918822
vt 0.42847216 0.48858726
vt 0.4268247 0.48529232
vt 0.42847216 0.4918822
vt 0.4268247 0.49517715
vt 0.42517722 0.4984721
vt 0.42847216 0.49517715
vt 0.4268247 0.4984721
vn 0.00026748536 -6.296022E-05 1
vn 0.00026748536 -6.296022E-05 1
vn 0.00026748536 -6.296022E-05 1
vn -9.201295E-07 1 0
vn -9.2012954E-07 1 0
vn -9.201295E-07 1 0
vn -9.201295E-07 1 0
vn -9.2012954E-07 1 0
vn -0.95191497 0.3063624 -3.7727327E-07
vn -0.95191497 0.3063624 -3.7727327E-07
vn -0.95191497 0.3063624 -3.772733E-07
vn -0.95191497 0.30636236 -3.7727332E-07
vn 0.00019009633 0.3063633 0.95191467
vn 0.00019009631 0.30636328 0.95191467
vn 0.00019009631 0.30636328 0.95191467
vn 0.00019009631 0.3063633 0.95191467
vn 0.9519143 0.30636427 4.61434E-07
vn 0.9519143 0.30636427 4.61434E-07
vn 0.9519143 0.30636427 4.61434E-07
vn 0.9519143 0.30636427 4.614339E-07
vn -0.00019111362 0.3063634 -0.95191467
vn -0.00019111362 0.3063634 -0.95191467
vn -0.0001911136 0.30636337 -0.95191467
vn -0.00019111362 0.3063634 -0.95191467
vn -0.00019111647 0.30636337 -0.95191467
vn -0.0001911165 0.30636343 -0.95191467
vn -0.21071003 0.97750854 0.008845962
vn -0.21071005 0.97750854 0.008845961
vn 0.08512268 0.9960219 0.026353946
vn 0.075022206 0.9968483 0.02578756
vn 0.36391535 0.9305262 0.04106884
vn 0.36391538 0.9305262 0.041068844
vn -0.97466046 -0.05745774 0.21618392
vn -0.9746606 -0.057457745 0.21618393
vn -0.97466046 -0.05745774 0.21618392
vn -0.9746606 -0.057457745 0.21618393
vn 0.00017674075 1.4595341E-05 1
vn 0.00017674074 1.4595341E-05 1
vn 0.00017674075 1.459534E-05 1
vn 0.00017674075 1.4595341E-05 1
vn 0.00019750862 -3.1365926E-05 1
vn 0.0001975086 -3.1365926E-05 1
vn 0.00020681534 -1.1052548E-05 1
vn 0.9761791 0.11205109 0.18579264
vn 0.9761791 0.11205108 0.18579262
vn 0.9761791 0.11205108 0.18579264
vn 0.9761791 0.1120511 0.18579262
vn -0.9936538 0.00803607 0.11219486
vn -0.9936538 0.0080360705 0.112194866
vn -0.9936538 0.0080360705 0.112194866
vn -0.9936538 0.00803607 0.112194866
vn -0.99145037 0.052023295 0.11966473
vn -0.99145037 0.0520233 0.119664736
vn 0.00023180114 2.164699E-06 1
vn 0.00023180114 2.164699E-06 1
vn 0.00023180115 2.164699E-06 1
vn 0.00023180115 2.1646988E-06 1
vn 0.00020067202 -8.893409E-06 1
vn 0.000200672 -8.893408E-06 1
vn 0.00020119887 -3.5507066E-05 1
vn 0.00022704012 4.5430083E-06 1
vn 0.00022704012 4.5430083E-06 1
vn 0.00022704013 4.543009E-06 1
vn 0.00022704013 4.543009E-06 1
vn 0.9820046 0.034397464 0.18569805
vn 0.9820046 0.034397464 0.18569803
vn 0.9820046 0.034397464 0.18569803
vn 0.9820046 0.03439746 0.18569805
vn -0.9868574 -0.087357126 0.13594495
vn -0.9868574 -0.08735712 0.13594496
vn -0.9868574 -0.08735712 0.13594495
vn -0.9868574 -0.087357126 0.13594496
vn 0.9859388 -0.034607895 0.16348407
vn 0.9859388 -0.0346079 0.16348407
vn 0.9859388 -0.034607895 0.16348407
vn 0.9859388 -0.0346079 0.16348404
vn -0.9647517 0.2030299 0.16743046
vn -0.9647517 0.20302989 0.16743045
vn -0.9647517 0.20302989 0.16743045
vn -0.9647517 0.20302992 0.16743045
vn 0.9694865 -0.17681296 0.1698031
vn 0.9694865 -0.17681295 0.16980308
vn 0.9694865 -0.17681295 0.16980311
vn 0.9694865 -0.17681296 0.16980311
vn -0.95635754 0.26299107 0.12734221
vn -0.95635754 0.26299104 0.12734221
vn -0.95635754 0.26299107 0.12734221
vn -0.95635754 0.2629911 0.12734224
vn 0.973464 -0.055087462 0.22211082
vn 0.973464 -0.055087462 0.22211082
vn 0.973464 -0.055087462 0.22211081
vn 0.973464 -0.055087462 0.22211082
vn -0.97654414 0.05380891 0.2084851
vn -0.97654414 0.05380891 0.20848508
vn -0.97654414 0.053808913 0.2084851
vn -0.97654414 0.05380891 0.20848508
vn -0.14340068 0.98966473 0
vn 0.43786848 0.899039 0
vn 0.57159984 0.09585558 0.8149143
vn 0.005173684 -0.014350561 0.99988365
vn 0.005173684 -0.014350561 0.99988365
vn 0.57159984 0.09585558 0.8149143
vn 0.7053793 -0.70883006 0
vn 0.14885828 -0.98885846 0
vn 0.14885828 -0.98885846 0
vn 0.7053793 -0.70883006 0
vn 0.57159996 0.09585554 -0.8149143
vn 0.005173677 -0.014350562 -0.99988365
vn 0.005173677 -0.014350562 -0.99988365
vn 0.57159996 0.09585554 -0.8149143
vn 0.43786848 0.899039 0
vn -0.14340068 0.98966473 0
vn 0.7053793 -0.70883006 0
vn 0.57159984 0.09585558 0.8149143
vn 0.43786848 0.899039 0
vn 0.57159996 0.09585554 -0.8149143
vn -0.12008 0.9927642 0
vn -0.14340068 0.98966473 0
vn 0.005173684 -0.014350561 0.99988365
vn 0.0027452586 -0.02268724 0.9997389
vn 0.0027452586 -0.02268724 0.9997389
vn 0.005173684 -0.014350561 0.99988365
vn 0.14885828 -0.98885846 0
vn 0.12008197 -0.99276394 0
vn 0.12008197 -0.99276394 0
vn 0.14885828 -0.98885846 0
vn 0.005173677 -0.014350562 -0.99988365
vn 0.0027450568 -0.022687236 -0.9997389
vn 0.0027450568 -0.022687236 -0.9997389
vn 0.005173677 -0.014350562 -0.99988365
vn -0.14340068 0.98966473 0
vn -0.12008 0.9927642 0
vn 0.28109142 0.959681 -1.2685261E-06
vn 0.5293523 0.66300404 0.52935046
vn 0.29617718 0.6332564 0.71502835
vn 0.7071066 -9.853261E-07 0.7071069
vn 0.38268542 7.4571545E-07 0.9238787
vn 0.5293499 -0.6630036 0.5293533
vn 0.29617572 -0.6332569 0.71502846
vn 0.2810842 -0.95968306 1.5395764E-06
vn 0.7486142 -0.6630059 2.1858257E-06
vn 0.2810842 -0.95968306 1.5395764E-06
vn 1 -2.7923062E-07 5.821958E-07
vn 0.7486174 0.6630022 -8.858312E-07
vn 0.28109142 0.959681 -1.2685261E-06
vn 0.52934974 -0.66300523 -0.5293514
vn 0.2810842 -0.95968306 1.5395764E-06
vn 0.7071068 -7.306162E-07 -0.70710677
vn 0.29617286 -0.6332565 -0.71502995
vn 0.2810842 -0.95968306 1.5395764E-06
vn 0.3826856 1.0594773E-06 -0.9238786
vn 0.5293542 0.6630016 -0.52935135
vn 0.28109142 0.959681 -1.2685261E-06
vn 0.29617992 0.6332568 -0.7150268
vn 0.28109142 0.959681 -1.2685261E-06
vn 0.9999852 -0.005451995 0
vn 0.70791864 -0.0038595223 0.7062835
vn 0.7079185 -0.003859522 0.70628357
vn 0.9999852 -0.005451995 -1.07480446E-07
vn 0.70791864 -0.0038597295 -0.7062835
vn 0.9999852 -0.005451995 0
vn 0.9999852 -0.005451995 -1.07480446E-07
vn 0.7079186 -0.0038597295 -0.7062835
vn 0.28108004 0.9596844 0
vn 0.5293492 0.66300654 0.5293504
vn 0.2961737 0.63326067 0.7150259
vn 0.7071059 3.9738262E-07 0.70710766
vn 0.38268343 4.319534E-07 0.9238795
vn 0.5293505 -0.66300386 0.52935237
vn 0.29617473 -0.633257 0.71502876
vn 0.2810858 -0.95968264 3.4694693E-07
vn 0.7486155 -0.66300446 1.4092798E-06
vn 0.2810858 -0.95968264 3.4694693E-07
vn 1 7.39612E-07 5.821958E-07
vn 0.7486129 0.6630074 0
vn 0.28108004 0.9596844 0
vn 0.52935207 -0.66300344 -0.5293513
vn 0.2810858 -0.95968264 3.4694693E-07
vn 0.7071061 5.065437E-07 -0.70710737
vn 0.29617423 -0.63325727 -0.71502876
vn 0.2810858 -0.95968264 3.4694693E-07
vn 0.38268375 2.526613E-07 -0.92387944
vn 0.5293493 0.66300625 -0.5293505
vn 0.28108004 0.9596844 0
vn 0.29617408 0.6332604 -0.71502596
vn 0.28108004 0.9596844 0
g [fx]obj_light_R_0
f 3/3/3 2/2/2 1/1/1
f 6/6/6 5/5/5 4/4/4
f 4/4/4 7/7/7 6/6/6
f 7/7/7 8/8/8 6/6/6
f 11/11/11 10/10/10 9/9/9
f 12/12/12 11/11/11 9/9/9
f 15/15/15 14/14/14 13/13/13
f 16/16/16 15/15/15 13/13/13
f 19/19/19 18/18/18 17/17/17
f 20/20/20 19/19/19 17/17/17
f 23/23/23 22/22/22 21/21/21
f 24/24/24 23/23/23 21/21/21
f 25/25/25 24/24/24 21/21/21
f 26/26/26 25/25/25 21/21/21
f 29/29/29 28/28/28 27/27/27
f 30/30/30 29/29/29 27/27/27
f 29/29/29 30/30/30 31/31/31
f 32/32/32 29/29/29 31/31/31
f 35/35/35 34/34/34 33/33/33
f 36/36/36 35/35/35 33/33/33
f 39/39/39 38/38/38 37/37/37
f 40/40/40 39/39/39 37/37/37
f 42/42/42 41/41/41 40/40/40
f 41/41/41 43/43/43 40/40/40
f 46/46/46 45/45/45 44/44/44
f 47/47/47 46/46/46 44/44/44
f 50/50/50 49/49/49 48/48/48
f 49/49/49 51/51/51 48/48/48
f 49/49/49 52/52/52 51/51/51
f 52/52/52 53/53/53 51/51/51
f 56/56/56 55/55/55 54/54/54
f 55/55/55 57/57/57 54/54/54
f 57/57/57 55/55/55 58/58/58
f 55/55/55 59/59/59 58/58/58
f 59/59/59 60/60/60 58/58/58
f 54/54/54 62/62/62 61/61/61
f 61/61/61 63/63/63 54/54/54
f 61/61/61 64/64/64 63/63/63
f 67/67/67 66/66/66 65/65/65
f 68/68/68 67/67/67 65/65/65
f 71/71/71 70/70/70 69/69/69
f 72/72/72 71/71/71 69/69/69
f 75/75/75 74/74/74 73/73/73
f 76/76/76 75/75/75 73/73/73
f 79/79/79 78/78/78 77/77/77
f 80/80/80 79/79/79 77/77/77
f 83/83/83 82/82/82 81/81/81
f 84/84/84 83/83/83 81/81/81
f 87/87/87 86/86/86 85/85/85
f 88/88/88 87/87/87 85/85/85
f 91/91/91 90/90/90 89/89/89
f 92/92/92 91/91/91 89/89/89
f 95/95/95 94/94/94 93/93/93
f 96/96/96 95/95/95 93/93/93
f 99/99/99 98/98/98 97/97/97
f 100/100/100 99/99/99 97/97/97
f 103/103/103 102/102/102 101/101/101
f 104/104/104 103/103/103 101/101/101
f 107/107/107 106/106/106 105/105/105
f 108/108/108 107/107/107 105/105/105
f 111/111/111 110/110/110 109/109/109
f 112/112/112 111/111/111 109/109/109
f 115/115/115 114/114/114 113/113/113
f 116/116/116 115/115/115 113/113/113
f 119/119/119 118/118/118 117/117/117
f 120/120/120 119/119/119 117/117/117
f 123/123/123 122/122/122 121/121/121
f 124/124/124 123/123/123 121/121/121
f 127/127/127 126/126/126 125/125/125
f 128/128/128 127/127/127 125/125/125
f 131/131/131 130/130/130 129/129/129
f 132/132/132 131/131/131 129/129/129
f 135/135/135 134/134/134 133/133/133
f 136/136/136 134/134/134 135/135/135
f 137/137/137 136/136/136 135/135/135
f 138/138/138 136/136/136 137/137/137
f 139/139/139 138/138/138 137/137/137
f 138/138/138 139/139/139 140/140/140
f 138/138/138 141/141/141 136/136/136
f 141/141/141 138/138/138 142/142/142
f 136/136/136 143/143/143 134/134/134
f 141/141/141 143/143/143 136/136/136
f 143/143/143 144/144/144 134/134/134
f 134/134/134 144/144/144 145/145/145
f 141/141/141 146/146/146 143/143/143
f 146/146/146 141/141/141 147/147/147
f 143/143/143 148/148/148 144/144/144
f 146/146/146 148/148/148 143/143/143
f 146/146/146 149/149/149 148/148/148
f 149/149/149 146/146/146 150/150/150
f 149/149/149 151/151/151 148/148/148
f 148/148/148 152/152/152 144/144/144
f 148/148/148 151/151/151 152/152/152
f 144/144/144 152/152/152 153/153/153
f 151/151/151 154/154/154 152/152/152
f 152/152/152 154/154/154 155/155/155
f 158/158/158 157/157/157 156/156/156
f 159/159/159 158/158/158 156/156/156
f 162/162/162 161/161/161 160/160/160
f 163/163/163 162/162/162 160/160/160
f 166/166/166 165/165/165 164/164/164
f 167/167/167 165/165/165 166/166/166
f 168/168/168 167/167/167 166/166/166
f 169/169/169 167/167/167 168/168/168
f 170/170/170 169/169/169 168/168/168
f 169/169/169 170/170/170 171/171/171
f 169/169/169 172/172/172 167/167/167
f 172/172/172 169/169/169 173/173/173
f 167/167/167 174/174/174 165/165/165
f 172/172/172 174/174/174 167/167/167
f 174/174/174 175/175/175 165/165/165
f 165/165/165 175/175/175 176/176/176
f 172/172/172 177/177/177 174/174/174
f 177/177/177 172/172/172 178/178/178
f 174/174/174 179/179/179 175/175/175
f 177/177/177 179/179/179 174/174/174
f 177/177/177 180/180/180 179/179/179
f 180/180/180 177/177/177 181/181/181
f 180/180/180 182/182/182 179/179/179
f 179/179/179 183/183/183 175/175/175
f 179/179/179 182/182/182 183/183/183
f 175/175/175 183/183/183 184/184/184
f 182/182/182 185/185/185 183/183/183
f 183/183/183 185/185/185 186/186/186
