g [gimmick]charger_part4
v -0.090154156 0.31374574 -0.09015987
v 0.090140894 0.31374574 -0.0901554
v 6.302525E-06 0.5051779 1.5207368E-06
v 0.090140894 0.31374574 -0.0901554
v 0.09019471 0.31374574 0.09016729
v 6.302525E-06 0.5051779 1.5207368E-06
v -0.090154156 0.31374574 -0.09015987
v 6.302525E-06 0.5051779 1.5207368E-06
v -0.09016648 0.31374574 0.09016729
v -0.09016648 0.31374574 0.09016729
v -0.06349332 0.22260791 0.063473575
v -0.06349046 0.22260791 -0.06347057
v -0.09016648 0.31374574 0.09016729
v -0.06349046 0.22260791 -0.06347057
v -0.090154156 0.31374574 -0.09015987
v 6.302525E-06 0.5051779 1.5207368E-06
v 0.09019471 0.31374574 0.09016729
v -0.09016648 0.31374574 0.09016729
v -0.101671904 0.31243268 -0.09670317
v -0.0019161216 0.52423817 0.0030536545
v 0.09781105 0.31243268 -0.09669824
v 0.09781105 0.31243268 -0.09669824
v -0.0019161216 0.52423817 0.0030536545
v 0.097870596 0.31243268 0.10281532
v -0.101671904 0.31243268 -0.09670317
v -0.10170283 0.31243268 0.10281532
v -0.0019161216 0.52423817 0.0030536545
v -0.07217143 0.21159546 0.07328073
v -0.101701505 0.31243268 0.10281532
v -0.101671904 0.31243268 -0.09670317
v -0.101671904 0.31243268 -0.09670317
v -0.072170526 0.21159546 -0.067173466
v -0.101671904 0.31243268 -0.09670317
v 0.097870596 0.31243268 0.10281532
v -0.0019161216 0.52423817 0.0030536545
v -0.0019161216 0.52423817 0.0030536545
v -0.10170283 0.31243268 0.10281532
v -0.101671904 0.31243268 -0.09670317
v -0.10170283 0.31243268 0.10281532
v -0.101701505 0.31243268 0.10281532
v -0.101671904 0.31243268 -0.09670317
v -0.06349046 0.22260791 -0.06347057
v 0.06344656 0.22260791 -0.06346165
v 0.090140894 0.31374574 -0.0901554
v -0.090154156 0.31374574 -0.09015987
v 0.06344656 0.22260791 -0.06346165
v 0.063500375 0.22260791 0.063473575
v 0.09019471 0.31374574 0.09016729
v 0.090140894 0.31374574 -0.0901554
v 0.063500375 0.22260791 0.063473575
v -0.06349332 0.22260791 0.063473575
v -0.09016648 0.31374574 0.09016729
v 0.09019471 0.31374574 0.09016729
v -0.072170526 0.21159546 -0.067173466
v -0.101671904 0.31243268 -0.09670317
v 0.09781105 0.31243268 -0.09669824
v 0.068275765 0.21159546 -0.067163594
v 0.068275765 0.21159546 -0.067163594
v 0.09781105 0.31243268 -0.09669824
v 0.097870596 0.31243268 0.10281532
v 0.06833531 0.21159546 0.07328072
v 0.097870596 0.31243268 0.10281532
v -0.101701505 0.31243268 0.10281532
v -0.07217143 0.21159546 0.07328073
v 0.06833531 0.21159546 0.07328072
vt -4.117219 0.32253218
vt -3.1176617 0.32253218
vt -3.6173687 1.0000005
vt -3.1176617 0.32253218
vt -3.1173635 0.32253218
vt -3.6173687 1.0000005
vt -4.117219 0.32253218
vt -3.6173687 1.0000005
vt -4.117374 0.32253218
vt -3.1173635 0.32253218
vt -3.265357 4.7683716E-07
vt -3.265357 4.7683716E-07
vt -3.1173635 0.32253218
vt -3.265357 4.7683716E-07
vt -3.9693952 4.7683716E-07
vt -3.6173687 1.0000005
vt -3.1173635 0.32253218
vt -4.117374 0.32253218
vt -4.117219 0.32253218
vt -3.6173687 1.0000005
vt -3.1176617 0.32253218
vt -3.1176617 0.32253218
vt -3.6173687 1.0000005
vt -3.1173635 0.32253218
vt -4.117219 0.32253218
vt -4.117374 0.32253218
vt -3.6173687 1.0000005
vt -3.265357 4.7683716E-07
vt -3.265357 4.7683716E-07
vt -4.117219 0.32253218
vt -4.117219 0.32253218
vt -3.9693952 4.7683716E-07
vt -4.117219 0.32253218
vt -3.1173635 0.32253218
vt -3.6173687 1.0000005
vt -3.6173687 1.0000005
vt -4.117374 0.32253218
vt -4.117219 0.32253218
vt -4.117374 0.32253218
vt -3.1173635 0.32253218
vt -4.117219 0.32253218
vt -3.9693952 4.7683716E-07
vt -3.2656553 4.7683716E-07
vt -3.1176617 0.32253218
vt -4.117219 0.32253218
vt -3.2656553 4.7683716E-07
vt -3.265357 4.7683716E-07
vt -3.1173635 0.32253218
vt -3.1176617 0.32253218
vt -3.265357 4.7683716E-07
vt -3.265357 4.7683716E-07
vt -3.1173635 0.32253218
vt -3.1173635 0.32253218
vt -3.9693952 4.7683716E-07
vt -4.117219 0.32253218
vt -3.1176617 0.32253218
vt -3.2656553 4.7683716E-07
vt -3.2656553 4.7683716E-07
vt -3.1176617 0.32253218
vt -3.1173635 0.32253218
vt -3.265357 4.7683716E-07
vt -3.1173635 0.32253218
vt -3.1173635 0.32253218
vt -3.265357 4.7683716E-07
vt -3.265357 4.7683716E-07
vn 2.2407641E-05 0.42608118 -0.90468496
vn 2.2407643E-05 0.42608112 -0.90468496
vn 2.2407641E-05 0.42608112 -0.90468496
vn 0.90468067 0.4260902 -0.00027000552
vn 0.90468067 0.4260902 -0.00027000552
vn 0.90468067 0.4260902 -0.00027000552
vn -0.9046714 0.42610994 -6.181388E-05
vn -0.9046714 0.4261099 -6.181387E-05
vn -0.9046714 0.4261099 -6.1813866E-05
vn -0.9597545 -0.28084 -4.742339E-05
vn -0.9597545 -0.28084004 -4.7423393E-05
vn -0.9597545 -0.28084004 -4.7423393E-05
vn -0.9597545 -0.28084 -4.742339E-05
vn -0.9597545 -0.28084004 -4.7423393E-05
vn -0.9597545 -0.28084004 -4.742339E-05
vn -0 0.4261067 0.904673
vn -0 0.4261067 0.90467286
vn -0 0.4261067 0.90467286
vn -2.2386404E-05 -0.4260809 0.9046851
vn -2.2386403E-05 -0.4260809 0.9046851
vn -2.2386404E-05 -0.42608088 0.9046851
vn -0.9046807 -0.42608985 0.00026998777
vn -0.9046807 -0.42608988 0.0002699878
vn -0.9046807 -0.4260899 0.0002699878
vn 0.90465724 -0.42613986 0.00014025588
vn 0.90465724 -0.42613986 0.0001402559
vn 0.90465724 -0.42613986 0.0001402559
vn 0.9597313 0.2809198 8.6128806E-05
vn 0.9597313 0.2809198 8.61288E-05
vn 0.9597313 0.2809198 8.61288E-05
vn 0.9597313 0.2809198 8.61288E-05
vn 0.9597313 0.28091982 8.6128806E-05
vn -0 -0.42610183 -0.9046752
vn -0 -0.42610183 -0.9046752
vn -0 -0.42610183 -0.9046752
vn -0 -0.42610183 -0.9046752
vn -0 -0.42610183 -0.9046752
vn -0 -0.42610183 -0.9046752
vn -0 -0.42610183 -0.9046752
vn -0 -0.42610183 -0.9046752
vn -0 -0.42610183 -0.9046752
vn 4.183126E-05 -0.28106406 -0.959689
vn 4.183126E-05 -0.28106406 -0.959689
vn 4.183126E-05 -0.28106403 -0.959689
vn 4.183126E-05 -0.28106403 -0.959689
vn 0.959681 -0.2810912 -0.00033617177
vn 0.959681 -0.2810912 -0.00033617177
vn 0.959681 -0.28109124 -0.00033617177
vn 0.959681 -0.2810912 -0.00033617177
vn -0 -0.28108528 0.9596829
vn -0 -0.2810853 0.9596829
vn -0 -0.2810853 0.9596829
vn -0 -0.2810853 0.9596829
vn -4.1807638E-05 0.281064 0.959689
vn -4.1807638E-05 0.28106403 0.959689
vn -4.1807638E-05 0.281064 0.959689
vn -4.180764E-05 0.28106403 0.959689
vn -0.959681 0.28109118 0.00033616822
vn -0.959681 0.2810912 0.00033616825
vn -0.959681 0.28109118 0.00033616822
vn -0.959681 0.28109118 0.0003361682
vn -0 0.2810852 -0.9596829
vn -0 0.28108522 -0.9596829
vn -0 0.28108522 -0.9596829
vn -0 0.2810852 -0.9596829
g [gimmick]charger_part4_0
f 3/3/3 2/2/2 1/1/1
f 6/6/6 5/5/5 4/4/4
f 9/9/9 8/8/8 7/7/7
f 12/12/12 11/11/11 10/10/10
f 15/15/15 14/14/14 13/13/13
f 18/18/18 17/17/17 16/16/16
f 21/21/21 20/20/20 19/19/19
f 24/24/24 23/23/23 22/22/22
f 27/27/27 26/26/26 25/25/25
f 30/30/30 29/29/29 28/28/28
f 32/32/32 31/31/31 28/28/28
f 35/35/35 34/34/34 33/33/33
f 38/38/38 37/37/37 36/36/36
f 41/41/41 40/40/40 39/39/39
f 44/44/44 43/43/43 42/42/42
f 45/45/45 44/44/44 42/42/42
f 48/48/48 47/47/47 46/46/46
f 49/49/49 48/48/48 46/46/46
f 52/52/52 51/51/51 50/50/50
f 53/53/53 52/52/52 50/50/50
f 56/56/56 55/55/55 54/54/54
f 57/57/57 56/56/56 54/54/54
f 60/60/60 59/59/59 58/58/58
f 61/61/61 60/60/60 58/58/58
f 64/64/64 63/63/63 62/62/62
f 65/65/65 64/64/64 62/62/62
