g [gimmick]sealstone_boss_debris1
v 0.06757078 0.10060721 0.0027053647
v -0.0977779 0.10116115 0.020265248
v -0.10060924 0.10116113 -0.056395754
v 0.00041732148 0.07147636 -0.07236134
v 0.05152469 0.07147636 -0.05119197
v 0.06033752 -0.007728338 -0.08581335
v -0.06485968 0.013981284 -0.11095791
v -0.097318456 0.028206619 -0.08240003
v -0.03742993 -0.07307701 -0.096101776
v 0.05831619 -0.052192885 -0.0114037385
v -0.11024139 0.02001772 0.09593261
v -0.015677236 -0.0008003289 0.16123852
v -0.06234967 -0.07307702 0.040842094
v -0.001732647 -0.073077016 0.10293817
v -0.03742993 -0.07307701 -0.096101776
v -0.06234967 -0.07307702 0.040842094
v -0.001732647 -0.073077016 0.10293817
v 0.05831619 -0.052192885 -0.0114037385
v 0.06532533 -0.0057217367 0.058191694
v -0.015677236 -0.0008003289 0.16123852
v 0.0885324 -0.01119233 -0.023623161
v 0.06033752 -0.007728338 -0.08581335
v 0.05152469 0.07147636 -0.05119197
v 0.06757078 0.10060721 0.0027053647
v 0.046401422 0.10060721 0.05381269
v -0.0977779 0.10116115 0.020265248
v -0.11024139 0.02001772 0.09593261
v -0.0017326456 0.07147636 0.10293816
v -0.097318456 0.028206619 -0.08240003
v -0.10060924 0.10116113 -0.056395754
v -0.0977779 0.10116115 0.020265248
v -0.11024139 0.02001772 0.09593261
v -0.06234967 -0.07307702 0.040842094
v -0.06485968 0.013981284 -0.11095791
v -0.03742993 -0.07307701 -0.096101776
vt 0.9109218 0.21222578
vt 0.8993818 0.21222578
vt 0.9070752 0.21222578
vt 0.9109218 0.21222574
vt 0.91476846 0.21222578
vt 0.91510165 0.2036057
vt 0.9103644 0.2036057
vt 0.9070752 0.2036057
vt 0.90899855 0.194906
vt 0.91476846 0.194906
vt 0.8963733 0.2036057
vt 0.9017242 0.2036057
vt 0.8993818 0.194906
vt 0.9032285 0.194906
vt 0.90899855 0.194906
vt 0.9013052 0.19490598
vt 0.9032285 0.194906
vt 0.9128451 0.194906
vt 0.907744 0.2036057
vt 0.9017242 0.2036057
vt 0.9137639 0.2036057
vt 0.91777706 0.2036057
vt 0.91476846 0.21222578
vt 0.9109218 0.21222578
vt 0.90707517 0.21222578
vt 0.8993818 0.21222578
vt 0.8963733 0.2036057
vt 0.9032285 0.21222574
vt 0.9070752 0.2036057
vt 0.9070752 0.21222578
vt 0.9013052 0.21222578
vt 0.8963733 0.2036057
vt 0.8993818 0.194906
vt 0.9103644 0.2036057
vt 0.90899855 0.194906
vn 0.6838255 0.72677314 -0.06467991
vn -0.12846872 0.9470951 0.29411992
vn 0.009337441 0.84540457 -0.5340449
vn 0.2008055 0.63249564 -0.7480818
vn 0.5580327 0.5680884 -0.604876
vn 0.6404137 -0.123133406 -0.7580952
vn 0.024381181 0.26409638 -0.9641881
vn -0.574798 0.25161818 -0.7786498
vn 0.31831592 -0.6857411 -0.65454876
vn 0.6239726 -0.7801842 -0.044392474
vn -0.53467935 -0.61685747 0.57758534
vn -0.55512375 -0.6004035 0.5756329
vn -0.556466 -0.5992975 0.5754894
vn -0.5858067 -0.5742943 0.57185346
vn 0.31831592 -0.6857411 -0.65454876
vn 1.3277027E-07 -1 0
vn 0.5966085 -0.72250515 0.34934887
vn 0.6239726 -0.7801842 -0.044392474
vn 0.8751203 -0.1579789 0.45739168
vn 0.4301785 0.3404774 0.83607507
vn 0.9703728 -0.21333691 -0.11341947
vn 0.6404137 -0.123133406 -0.7580952
vn 0.5580327 0.5680884 -0.604876
vn 0.6838255 0.72677314 -0.06467991
vn 0.49813184 0.73441327 0.46097913
vn -0.12846872 0.9470951 0.29411992
vn -0.31438303 0.67279834 0.66970557
vn 0.17163238 0.6502258 0.7401005
vn -0.8839682 -0.41092813 -0.22302096
vn -0.9981641 0.04717285 -0.037988324
vn -0.9981641 0.04717285 -0.037988324
vn -0.97067195 -0.23080668 -0.06726223
vn -0.8914884 -0.42956752 -0.14394465
vn -0.78694993 -0.5407669 -0.29712114
vn -0.93132466 -0.32235563 -0.16947359
g [gimmick]sealstone_boss_debris1_0
f 3/3/3 2/2/2 1/1/1
f 1/1/1 4/4/4 3/3/3
f 1/1/1 5/5/5 4/4/4
f 6/6/6 4/4/4 5/5/5
f 4/4/4 7/7/7 3/3/3
f 6/6/6 7/7/7 4/4/4
f 8/8/8 3/3/3 7/7/7
f 6/6/6 9/9/9 7/7/7
f 10/10/10 9/9/9 6/6/6
f 13/13/13 12/12/12 11/11/11
f 14/14/14 12/12/12 13/13/13
f 17/17/17 16/16/16 15/15/15
f 18/18/18 17/17/17 15/15/15
f 18/18/18 19/19/19 17/17/17
f 17/17/17 19/19/19 20/20/20
f 18/18/18 21/21/21 19/19/19
f 22/22/22 21/21/21 18/18/18
f 22/22/22 23/23/23 21/21/21
f 21/21/21 23/23/23 24/24/24
f 19/19/19 21/21/21 24/24/24
f 24/24/24 25/25/25 19/19/19
f 26/26/26 25/25/25 24/24/24
f 27/27/27 20/20/20 26/26/26
f 19/19/19 25/25/25 28/28/28
f 28/28/28 25/25/25 26/26/26
f 20/20/20 28/28/28 26/26/26
f 20/20/20 19/19/19 28/28/28
f 31/31/31 30/30/30 29/29/29
f 32/32/32 31/31/31 29/29/29
f 33/33/33 32/32/32 29/29/29
f 34/34/34 33/33/33 29/29/29
f 35/35/35 33/33/33 34/34/34
