g [gimmick]wood
v 1.1840289 1.6210536 -0.15803255
v 1.1840289 1.6045434 -0.26154223
v 1.2845039 1.6045434 -0.15803231
v -0.18008491 1.6045434 -0.26154247
v -0.18008491 1.6210536 -0.15803277
v -0.28055987 1.6045434 -0.1580327
v 1.1840289 1.6210536 -0.15803255
v 1.1840287 1.6210538 1.2577844
v -0.18008538 1.6210538 1.2577844
v -0.18008491 1.6210536 -0.15803277
v 1.2753624 0.13273798 -0.34128165
v 1.1840289 1.6045434 -0.26154223
v -0.18008491 1.6045434 -0.26154247
v -0.27141842 0.13273798 -0.34128174
v -0.3853479 0.13273798 -0.22391146
v -0.28055987 1.6045434 -0.1580327
v -0.28056034 1.6045438 1.2577847
v -0.38534844 0.13273811 1.381497
v 1.3892912 0.13273811 1.381497
v 1.2845035 1.6045438 1.2577847
v 1.2845039 1.6045434 -0.15803231
v 1.3892918 0.13273798 -0.22391139
v 1.1840289 1.6045434 -0.26154223
v 1.1840289 1.6210536 -0.15803255
v -0.18008491 1.6210536 -0.15803277
v -0.18008491 1.6045434 -0.26154247
v -0.28055987 1.6045434 -0.1580327
v -0.18008491 1.6210536 -0.15803277
v -0.18008538 1.6210538 1.2577844
v -0.28056034 1.6045438 1.2577847
v 1.1840289 1.6210536 -0.15803255
v 1.2845039 1.6045434 -0.15803231
v 1.2845035 1.6045438 1.2577847
v 1.1840287 1.6210538 1.2577844
v -0.3853479 0.13273798 -0.22391146
v -0.27141842 0.13273798 -0.34128174
v -0.18008491 1.6045434 -0.26154247
v -0.28055987 1.6045434 -0.1580327
v 1.2753624 0.13273798 -0.34128165
v 1.3892918 0.13273798 -0.22391139
v 1.2845039 1.6045434 -0.15803231
v 1.1840289 1.6045434 -0.26154223
vt 0.12306099 0.806927
vt 0.12537825 0.806927
vt 0.12537825 0.80530494
vt 0.12537825 0.8586682
vt 0.12306099 0.8586682
vt 0.12537825 0.8602762
vt 0.12250775 0.80710596
vt 0.033036705 0.807106
vt 0.033036705 0.85857666
vt 0.12250775 0.85857666
vt 0.13686635 0.80710596
vt 0.12674364 0.80710596
vt 0.12674364 0.85857666
vt 0.13686635 0.85857666
vt 0.12250775 0.8628346
vt 0.12250775 0.8609002
vt 0.033036705 0.8609002
vt 0.033036705 0.8628346
vt 0.033036705 0.80286586
vt 0.033036705 0.8048005
vt 0.12250775 0.8048005
vt 0.12250775 0.80286586
vt 0.12537825 0.80710596
vt 0.12306099 0.80710596
vt 0.12306099 0.85857666
vt 0.12537825 0.85857666
vt 0.12250775 0.8602762
vt 0.12250775 0.8586682
vt 0.033036705 0.8586682
vt 0.033036705 0.8602762
vt 0.12250775 0.806927
vt 0.12250775 0.80530494
vt 0.033036705 0.80530494
vt 0.033036705 0.8069271
vt 0.13686635 0.8602762
vt 0.13686635 0.8586682
vt 0.12674364 0.8586682
vt 0.12674364 0.8602762
vt 0.13686635 0.806927
vt 0.13686635 0.80530494
vt 0.12674364 0.80530494
vt 0.12674364 0.806927
vn 0.4552235 0.5088893 -0.73061836
vn 0.4552235 0.50888926 -0.73061836
vn 0.4552235 0.5088893 -0.73061836
vn -0.4552235 0.50888926 -0.73061836
vn -0.4552235 0.5088893 -0.73061836
vn -0.4552235 0.5088893 -0.73061836
vn -0 1 0
vn -0 1 0
vn -0 1 0
vn -0 1 0
vn 1.3129942E-07 1.1228134E-07 -1
vn 1.3129942E-07 1.1228134E-07 -1
vn 1.3129942E-07 1.1228134E-07 -1
vn 1.3129942E-07 1.1228134E-07 -1
vn -1 0 -1.3218349E-07
vn -1 0 -1.3218347E-07
vn -1 0 -1.3218347E-07
vn -1 0 -1.3218347E-07
vn 1 0 1.3218347E-07
vn 1 0 1.3218347E-07
vn 1 0 1.3218347E-07
vn 1 0 1.3218347E-07
vn 1.4383332E-07 0.5715435 -0.82057184
vn 1.4383332E-07 0.5715435 -0.82057184
vn 1.4383332E-07 0.5715435 -0.82057184
vn 1.4383332E-07 0.5715435 -0.82057184
vn -0.666714 0.74531364 -1.1618985E-07
vn -0.666714 0.74531364 -1.1618986E-07
vn -0.666714 0.74531364 -1.1618984E-07
vn -0.666714 0.74531364 -1.1618984E-07
vn 0.666714 0.74531364 0
vn 0.666714 0.7453136 0
vn 0.66671395 0.74531364 0
vn 0.666714 0.74531364 0
vn -0.5288178 0 -0.8487354
vn -0.5288178 0 -0.8487354
vn -0.5288178 0 -0.8487354
vn -0.5288177 0 -0.8487354
vn 0.5288177 2.8760456E-07 -0.8487354
vn 0.5288177 2.876045E-07 -0.8487354
vn 0.5288177 2.876045E-07 -0.8487354
vn 0.5288178 2.8760454E-07 -0.8487354
g [gimmick]wood_0
f 3/3/3 2/2/2 1/1/1
f 6/6/6 5/5/5 4/4/4
f 9/9/9 8/8/8 7/7/7
f 10/10/10 9/9/9 7/7/7
f 13/13/13 12/12/12 11/11/11
f 14/14/14 13/13/13 11/11/11
f 17/17/17 16/16/16 15/15/15
f 18/18/18 17/17/17 15/15/15
f 21/21/21 20/20/20 19/19/19
f 22/22/22 21/21/21 19/19/19
f 25/25/25 24/24/24 23/23/23
f 26/26/26 25/25/25 23/23/23
f 29/29/29 28/28/28 27/27/27
f 30/30/30 29/29/29 27/27/27
f 33/33/33 32/32/32 31/31/31
f 34/34/34 33/33/33 31/31/31
f 37/37/37 36/36/36 35/35/35
f 38/38/38 37/37/37 35/35/35
f 41/41/41 40/40/40 39/39/39
f 42/42/42 41/41/41 39/39/39
