g [gimmick]door_mystery_center_block
v -8.4510805E-07 0.12628193 -0.42990047
v -0.42990175 0.12628198 2.6889802E-07
v -0.42990175 -0.45794755 3.45726E-07
v -8.4510805E-07 -0.45794764 -0.42990047
v 0.42989954 0.12628198 -2.6889802E-07
v -8.4510805E-07 0.12628193 -0.42990047
v 0.42989954 -0.45794755 -1.9207E-07
v -8.4510805E-07 -0.45794764 -0.42990047
v -1.229248E-06 0.12628196 0.4299001
v 0.42989954 0.12628198 -2.6889802E-07
v 0.42989954 -0.45794755 -1.9207E-07
v -1.229248E-06 -0.45794755 0.4299002
v -0.42990175 0.12628198 2.6889802E-07
v -1.229248E-06 0.12628196 0.4299001
v -0.42990175 -0.45794755 3.45726E-07
v -1.229248E-06 -0.45794755 0.4299002
v -8.4510805E-07 -0.45794764 -0.42990047
v -0.42990175 -0.45794755 3.45726E-07
v -1.229248E-06 -0.45794755 0.4299002
v 0.42989954 -0.45794755 -1.9207E-07
v -8.4510805E-07 0.12628193 -0.42990047
v -1.229248E-06 0.12628193 -3.8414E-08
v -0.42990175 0.12628198 2.6889802E-07
v 0.42989954 0.12628198 -2.6889802E-07
v -1.229248E-06 0.12628196 0.4299001
vt 0.7803899 0.72954077
vt 0.7281136 0.7295409
vt 0.7281136 0.67685646
vt 0.7803899 0.67685646
vt 0.7281136 0.729541
vt 0.78038985 0.7295409
vt 0.7281136 0.6768566
vt 0.78038985 0.67685646
vt 0.7803899 0.7295409
vt 0.7281136 0.729541
vt 0.7281136 0.67685646
vt 0.7803899 0.67685646
vt 0.7281136 0.7295409
vt 0.78038985 0.7295409
vt 0.7281136 0.67685646
vt 0.7803898 0.67685646
vt 0.7803899 0.67685646
vt 0.7281136 0.67685646
vt 0.7803899 0.67685646
vt 0.7281136 0.6768566
vt 0.78014565 0.7845836
vt 0.7541239 0.758562
vt 0.72810227 0.7845836
vt 0.7801456 0.7325404
vt 0.72810227 0.7325403
vn -0.7071066 0 -0.70710695
vn -0.7071066 0 -0.70710695
vn -0.7071066 0 -0.70710695
vn -0.7071066 0 -0.7071069
vn 0.7071066 0 -0.70710695
vn 0.7071066 0 -0.70710695
vn 0.7071066 0 -0.70710695
vn 0.70710665 0 -0.7071069
vn 0.7071064 0 0.70710707
vn 0.7071064 0 0.70710707
vn 0.7071064 0 0.70710707
vn 0.7071064 0 0.70710707
vn -0.7071062 0 0.7071073
vn -0.7071062 0 0.7071073
vn -0.7071062 0 0.7071073
vn -0.7071062 0 0.7071073
vn -0 -1 0
vn -0 -1 0
vn -0 -1 0
vn -0 -1 0
vn -0 1 0
vn -0 1 0
vn -0 1 0
vn -0 1 0
vn -0 1 0
g [gimmick]door_mystery_center_block_0
f 3/3/3 2/2/2 1/1/1
f 1/1/1 4/4/4 3/3/3
f 7/7/7 6/6/6 5/5/5
f 7/7/7 8/8/8 6/6/6
f 11/11/11 10/10/10 9/9/9
f 9/9/9 12/12/12 11/11/11
f 15/15/15 14/14/14 13/13/13
f 15/15/15 16/16/16 14/14/14
f 19/19/19 18/18/18 17/17/17
f 17/17/17 20/20/20 19/19/19
f 23/23/23 22/22/22 21/21/21
f 21/21/21 22/22/22 24/24/24
f 25/25/25 22/22/22 23/23/23
f 24/24/24 22/22/22 25/25/25
