g [GIMMICK]portal_part_3_light
v -1.018237 -0.20924625 -0.3014763
v -1.0100737 -0.23014311 -0.29935783
v -1.0085719 -0.21973842 -0.32492664
v -1.0286638 -0.004757377 -0.32433972
v -1.034737 -0.00474997 -0.30380777
v -1.0085719 -0.21973842 -0.32492664
v -1.0046294 0.17965527 -0.3260208
v -1.0134183 0.16883548 -0.30878362
v -0.99774283 0.19016819 -0.2975455
v -1.0074068 0.17004664 -0.2955969
v -0.9697433 -0.0042656274 -0.32433966
v -1.0046294 0.17965527 -0.3260208
v -0.9448237 0.16880032 -0.32415566
v -0.94760823 -0.19857964 -0.32411885
v -0.9634013 -0.0042232173 -0.30380785
v -0.94027084 -0.1883646 -0.30131763
v -0.9386215 -0.20853601 -0.29970556
v -0.9415465 0.15671854 -0.30820894
v -0.9448237 0.16880032 -0.32415566
v -0.9378649 0.15928566 -0.29523206
v -0.9406183 0.17859761 -0.29754105
v -0.9448237 0.16880032 -0.32415566
v -0.99774283 0.19016819 -0.2975455
v -1.0046294 0.17965527 -0.3260208
v -0.9406183 0.17859761 -0.29754105
v -0.94061846 0.17859773 0.25606966
v -0.9977431 0.19016825 0.2560739
v -0.94482386 0.16880076 0.2826846
v -1.0046295 0.17965578 0.2845499
v -0.9697366 -0.004630269 0.28286427
v -1.0046295 0.17965578 0.2845499
v -0.94482386 0.16880076 0.2826846
v -1.0286562 -0.0051765577 0.28286427
v -0.9550065 -0.16811998 0.28037572
v -1.0149921 -0.18030427 0.28053513
v -1.034737 -0.004749795 0.26233667
v -1.0212398 -0.1800447 0.26000544
v -1.0134188 0.16883603 0.26731282
v -1.0074068 0.17004664 0.25412592
v -0.9977431 0.19016825 0.2560739
v -1.0100737 -0.23014311 -0.29935783
v -0.9386215 -0.20853601 -0.29970556
v -0.94760823 -0.19857964 -0.32411885
v -1.0085719 -0.21973842 -0.32492664
v -1.0212398 -0.1800447 0.26000544
v -0.9550065 -0.16811998 0.28037572
v -0.94884336 -0.16784589 0.25984633
v -1.0149921 -0.18030427 0.28053513
v -0.9697366 -0.004630269 0.28286427
v -0.94884336 -0.16784589 0.25984633
v -0.9550065 -0.16811998 0.28037572
v -0.9634013 -0.0042231204 0.26233658
v -0.94482386 0.16880076 0.2826846
v -0.94154686 0.15671887 0.26673785
v -0.94061846 0.17859773 0.25606966
v -0.9378649 0.15928574 0.25376084
v -0.9378649 0.15928574 0.25376084
v -0.9406183 0.17859761 -0.29754105
v -0.9378649 0.15928566 -0.29523206
v -0.94061846 0.17859773 0.25606966
v -1.0074068 0.17004664 -0.2955969
v -0.9977431 0.19016825 0.2560739
v -1.0074068 0.17004664 0.25412592
v -0.99774283 0.19016819 -0.2975455
v -1.0100737 -0.23014311 -0.29935783
v -1.0100737 -0.23014301 -0.19793014
v -0.9386215 -0.20853591 -0.19827801
v -0.9386215 -0.20853601 -0.29970556
v -0.9386215 -0.20853601 -0.29970556
v -0.9386215 -0.20853591 -0.19827801
v -0.93957156 -0.18974885 -0.19345997
v -0.94027084 -0.1883646 -0.30131763
v -1.018237 -0.20924625 -0.3014763
v -1.0165948 -0.21060014 -0.19313438
v -1.0100737 -0.23014301 -0.19793014
v -1.0100737 -0.23014311 -0.29935783
vt 0.7381613 0.25197053
vt 0.7395713 0.25197053
vt 0.738912 0.24155752
vt 0.7270982 0.24155752
vt 0.7270982 0.25197053
vt 0.7387059 0.24155752
vt 0.71545386 0.24155752
vt 0.7161394 0.25197053
vt 0.7147877 0.25197053
vt 0.71606266 0.25197053
vt 0.7270982 0.20533653
vt 0.71524197 0.24155752
vt 0.7154312 0.20533653
vt 0.7382926 0.20533653
vt 0.7270982 0.19378763
vt 0.7376183 0.19378763
vt 0.73903894 0.19378763
vt 0.71632105 0.19378763
vt 0.7155249 0.20533653
vt 0.71615183 0.19378763
vt 0.71487933 0.19378763
vt 0.7089352 0.24155752
vt 0.71062136 0.20533653
vt 0.7088169 0.20533653
vt 0.7106217 0.24155752
vt 0.745203 0.24155752
vt 0.74520326 0.20533653
vt 0.7468896 0.24155752
vt 0.7470076 0.20533653
vt 0.72749 0.20533653
vt 0.73915815 0.24155752
vt 0.73897207 0.20533653
vt 0.72739506 0.24155752
vt 0.7167611 0.20533653
vt 0.7163402 0.24155752
vt 0.72750866 0.25197053
vt 0.7164006 0.25197053
vt 0.73850834 0.25197053
vt 0.738585 0.25197053
vt 0.7398601 0.25197053
vt 0.7552267 0.20533653
vt 0.75513476 0.24155752
vt 0.7761475 0.24155752
vt 0.7761475 0.20533653
vt 0.76703084 0.20533653
vt 0.7513778 0.24155752
vt 0.76703084 0.24155752
vt 0.7513778 0.20533653
vt 0.7282042 0.20533653
vt 0.7389599 0.19378763
vt 0.738978 0.20533653
vt 0.7281773 0.19378763
vt 0.71677506 0.20533653
vt 0.7175714 0.19378763
vt 0.7161296 0.19378763
vt 0.7174021 0.19378763
vt 0.74463844 0.25197053
vt 0.7113161 0.24155752
vt 0.7114577 0.25197053
vt 0.74478006 0.24155752
vt 0.7106493 0.19378763
vt 0.74510765 0.20533653
vt 0.7449842 0.19378763
vt 0.7105259 0.20533653
vt 0.7552267 0.20533653
vt 0.7552267 0.20533653
vt 0.75513476 0.24155752
vt 0.75513476 0.24155752
vt 0.73903894 0.19378763
vt 0.73903894 0.19378763
vt 0.73780096 0.19378763
vt 0.73770964 0.19378763
vt 0.73824704 0.25197053
vt 0.73833275 0.25197053
vt 0.7395713 0.25197053
vt 0.7395713 0.25197053
vn -0.93520254 -0.19459566 -0.2958526
vn -0.3270142 -0.8519622 -0.40892807
vn -0.38090953 -0.55182666 -0.74188626
vn -0.6204886 0.01233666 -0.7841184
vn -0.9576027 0.01839427 -0.28750446
vn -0.38090953 -0.55182666 -0.74188626
vn -0.43126127 0.57036346 -0.69907033
vn -0.9275356 0.34193084 -0.15086731
vn -0.3664721 0.9247976 -0.10221326
vn -0.8803242 0.43997824 0.17733715
vn 0.56505495 -0.009695156 -0.82499635
vn -0.43126127 0.57036346 -0.69907033
vn 0.5820311 0.37972733 -0.71905977
vn 0.5656088 -0.32744703 -0.7568786
vn 0.9546938 -0.013041069 -0.29730386
vn 0.936093 0.08787253 -0.34060007
vn 0.7009682 -0.5582098 -0.44389796
vn 0.9549546 -0.106688045 -0.2769104
vn 0.5820311 0.37972733 -0.71905977
vn 0.98929554 0.10009365 -0.10618657
vn 0.7058717 0.68734545 -0.17117687
vn 0.5820311 0.37972733 -0.71905977
vn -0.3664721 0.9247976 -0.10221326
vn -0.43126127 0.57036346 -0.69907033
vn 0.7058717 0.68734545 -0.17117687
vn 0.71139085 0.6792287 0.18047501
vn -0.39043486 0.9124744 0.12227422
vn 0.5934391 0.37991336 0.70957434
vn -0.44400936 0.58561116 0.6781705
vn 0.5638754 -0.023110434 0.8255364
vn -0.44400936 0.58561116 0.6781705
vn 0.5934391 0.37991336 0.70957434
vn -0.6202573 0.0028426612 0.78439325
vn 0.5546199 -0.51703364 0.65197617
vn -0.3867714 -0.6847447 0.61768323
vn -0.95853484 0.014937937 0.28458336
vn -0.66295075 -0.7191786 0.2080346
vn -0.85497564 0.50598264 0.114009626
vn -0.85859317 0.5095846 -0.056047373
vn -0.39043486 0.9124744 0.12227422
vn -0.3270142 -0.8519622 -0.40892807
vn 0.7009682 -0.5582098 -0.44389796
vn 0.5656088 -0.32744703 -0.7568786
vn -0.38090953 -0.55182666 -0.74188626
vn -0.66295075 -0.7191786 0.2080346
vn 0.5546199 -0.51703364 0.65197617
vn 0.8062217 -0.54280007 0.23531806
vn -0.3867714 -0.6847447 0.61768323
vn 0.5638754 -0.023110434 0.8255364
vn 0.8062217 -0.54280007 0.23531806
vn 0.5546199 -0.51703364 0.65197617
vn 0.9552324 -0.028345099 0.29449558
vn 0.5934391 0.37991336 0.70957434
vn 0.9653024 -0.03299764 0.25904134
vn 0.71139085 0.6792287 0.18047501
vn 0.98206884 0.122936554 0.14292477
vn 0.98206884 0.122936554 0.14292477
vn 0.7058717 0.68734545 -0.17117687
vn 0.98929554 0.10009365 -0.10618657
vn 0.71139085 0.6792287 0.18047501
vn -0.8803242 0.43997824 0.17733715
vn -0.39043486 0.9124744 0.12227422
vn -0.85859317 0.5095846 -0.056047373
vn -0.3664721 0.9247976 -0.10221326
vn 0.28945425 -0.95719194 1.0609917E-06
vn 0.28945425 -0.95719194 1.0609917E-06
vn 0.28945422 -0.95719194 1.0609915E-06
vn 0.28945425 -0.95719194 1.0609917E-06
vn 0.9977615 0.066810906 -0.0028919685
vn 0.9977615 0.066810906 -0.0028919685
vn 0.9977615 0.066810906 -0.0028919685
vn 0.9977615 0.066810906 -0.0028919685
vn -0.93982863 -0.34160727 0.0051532965
vn -0.93982863 -0.3416073 0.005153297
vn -0.93982863 -0.3416073 0.0051532974
vn -0.93982863 -0.3416073 0.005153297
g [GIMMICK]portal_part_3_light_0
f 3/3/3 2/2/2 1/1/1
f 5/5/5 4/4/4 1/1/1
f 6/6/6 1/1/1 4/4/4
f 4/4/4 5/5/5 7/7/7
f 8/8/8 7/7/7 5/5/5
f 7/7/7 8/8/8 9/9/9
f 10/10/10 9/9/9 8/8/8
f 4/4/4 11/11/11 6/6/6
f 4/4/4 12/12/12 11/11/11
f 12/12/12 13/13/13 11/11/11
f 11/11/11 14/14/14 6/6/6
f 11/11/11 15/15/15 14/14/14
f 16/16/16 14/14/14 15/15/15
f 14/14/14 16/16/16 17/17/17
f 15/15/15 11/11/11 18/18/18
f 19/19/19 18/18/18 11/11/11
f 18/18/18 19/19/19 20/20/20
f 21/21/21 20/20/20 19/19/19
f 24/24/24 23/23/23 22/22/22
f 25/25/25 22/22/22 23/23/23
f 25/25/25 23/23/23 26/26/26
f 27/27/27 26/26/26 23/23/23
f 26/26/26 27/27/27 28/28/28
f 29/29/29 28/28/28 27/27/27
f 32/32/32 31/31/31 30/30/30
f 33/33/33 30/30/30 31/31/31
f 30/30/30 33/33/33 34/34/34
f 35/35/35 34/34/34 33/33/33
f 33/33/33 36/36/36 35/35/35
f 37/37/37 35/35/35 36/36/36
f 36/36/36 33/33/33 38/38/38
f 31/31/31 38/38/38 33/33/33
f 38/38/38 31/31/31 39/39/39
f 40/40/40 39/39/39 31/31/31
f 43/43/43 42/42/42 41/41/41
f 44/44/44 43/43/43 41/41/41
f 47/47/47 46/46/46 45/45/45
f 48/48/48 45/45/45 46/46/46
f 51/51/51 50/50/50 49/49/49
f 52/52/52 49/49/49 50/50/50
f 49/49/49 52/52/52 53/53/53
f 54/54/54 53/53/53 52/52/52
f 53/53/53 54/54/54 55/55/55
f 56/56/56 55/55/55 54/54/54
f 59/59/59 58/58/58 57/57/57
f 60/60/60 57/57/57 58/58/58
f 63/63/63 62/62/62 61/61/61
f 64/64/64 61/61/61 62/62/62
f 67/67/67 66/66/66 65/65/65
f 68/68/68 67/67/67 65/65/65
f 71/71/71 70/70/70 69/69/69
f 72/72/72 71/71/71 69/69/69
f 75/75/75 74/74/74 73/73/73
f 76/76/76 75/75/75 73/73/73
