g [GIMMICK]stair_down
v -0.45082578 0.08924994 -0.517904
v -3.8414E-08 0.023851642 -0.5513768
v -0 0.08924997 -0.517904
v -0.48429832 0.023851637 -0.55137664
v -0.38916615 0.08924991 -0.3220878
v -0.3891661 0.08924984 5.4649768E-18
v -0.51790386 0.08924984 -7.6828E-08
v -0.5179039 0.08924992 -0.45082578
v -0.322088 0.08924992 -0.38916594
v -0.45082578 0.08924994 -0.517904
v -0.3516084 0.047831982 2.9288642E-18
v -0.3891661 0.08924984 5.4649768E-18
v -0.35160834 0.047843985 -0.2845302
v -0.38916615 0.08924991 -0.3220878
v -0.55137646 0.023851626 -0.4842986
v -0.5179039 0.08924992 -0.45082578
v -0.5513765 0.023851521 1.4604845E-18
v -0.51790386 0.08924984 -7.6828E-08
v -0.322088 0.08924992 -0.38916594
v -0.45082578 0.08924994 -0.517904
v -0 0.08924997 -0.517904
v -0 0.08924992 -0.38916633
v -0 0.08924992 -0.38916633
v -0.28453025 0.047843996 -0.35160857
v -0.322088 0.08924992 -0.38916594
v 7.6828E-08 0.047832035 -0.35160857
v -0.45082578 0.08924994 -0.517904
v -0.5179039 0.08924992 -0.45082578
v -0.55137646 0.023851626 -0.4842986
v -0.48429832 0.023851637 -0.55137664
v -0.322088 0.08924992 -0.38916594
v -0.28453025 0.047843996 -0.35160857
v -0.35160834 0.047843985 -0.2845302
v -0.38916615 0.08924991 -0.3220878
v -0.48429832 0.023851497 0.55137664
v -0.45082575 0.089249805 0.517904
v -0 0.023851503 0.55137676
v -7.6828E-08 0.089249834 0.51790404
v -0.51790386 0.08924984 -7.6828E-08
v -0.3891661 0.08924984 5.4649768E-18
v -0.38916615 0.08924982 0.32208776
v -0.5179039 0.08924981 0.45082584
v -0.322088 0.08924982 0.38916594
v -0.45082575 0.089249805 0.517904
v -0.3891661 0.08924984 5.4649768E-18
v -0.3516084 0.047843955 0.28453013
v -0.38916615 0.08924982 0.32208776
v -0.3516084 0.047831982 2.9288642E-18
v -0.5179039 0.08924981 0.45082584
v -0.5513765 0.023851521 1.4604845E-18
v -0.51790386 0.08924984 -7.6828E-08
v -0.55137646 0.023851503 0.48429856
v -0.322088 0.08924982 0.38916594
v -0 0.08924984 0.3891662
v -7.6828E-08 0.089249834 0.51790404
v -0.45082575 0.089249805 0.517904
v 7.6828E-08 0.047831982 0.35160843
v -0 0.08924984 0.3891662
v -0.28453025 0.04784395 0.35160843
v -0.322088 0.08924982 0.38916594
v -0.45082575 0.089249805 0.517904
v -0.48429832 0.023851497 0.55137664
v -0.55137646 0.023851503 0.48429856
v -0.5179039 0.08924981 0.45082584
v -0.28453025 0.04784395 0.35160843
v -0.322088 0.08924982 0.38916594
v -0.3516084 0.047843955 0.28453013
v -0.38916615 0.08924982 0.32208776
v 0.48429826 0.023851637 -0.5513768
v 0.4508257 0.08924994 -0.517904
v -3.8414E-08 0.023851642 -0.5513768
v -0 0.08924997 -0.517904
v 0.38916615 0.0892499 -0.3220878
v 0.5179038 0.08924984 -7.6828E-08
v 0.38916606 0.08924984 5.4649768E-18
v 0.517904 0.08924994 -0.45082578
v 0.322088 0.08924992 -0.38916594
v 0.4508257 0.08924994 -0.517904
v 0.38916606 0.08924984 5.4649768E-18
v 0.35160846 0.047843985 -0.2845302
v 0.38916615 0.0892499 -0.3220878
v 0.35160854 0.047831982 -7.6828E-08
v 0.517904 0.08924994 -0.45082578
v 0.55137646 0.023851521 1.4604845E-18
v 0.5179038 0.08924984 -7.6828E-08
v 0.55137634 0.023851626 -0.4842986
v -0 0.08924997 -0.517904
v 0.4508257 0.08924994 -0.517904
v 0.322088 0.08924992 -0.38916594
v -0 0.08924992 -0.38916633
v 7.6828E-08 0.047832035 -0.35160857
v -0 0.08924992 -0.38916633
v 0.28453025 0.047844004 -0.35160866
v 0.322088 0.08924992 -0.38916594
v 0.55137634 0.023851626 -0.4842986
v 0.517904 0.08924994 -0.45082578
v 0.4508257 0.08924994 -0.517904
v 0.48429826 0.023851637 -0.5513768
v 0.322088 0.08924992 -0.38916594
v 0.38916615 0.0892499 -0.3220878
v 0.35160846 0.047843985 -0.2845302
v 0.28453025 0.047844004 -0.35160866
v 0.4508259 0.089249805 0.517904
v -0 0.023851503 0.55137676
v -7.6828E-08 0.089249834 0.51790404
v 0.48429826 0.023851497 0.55137664
v 0.38916615 0.08924982 0.32208776
v 0.38916606 0.08924984 5.4649768E-18
v 0.5179038 0.08924984 -7.6828E-08
v 0.5179038 0.08924982 0.45082584
v 0.32208806 0.08924982 0.38916594
v 0.4508259 0.089249805 0.517904
v 0.35160854 0.047831982 -7.6828E-08
v 0.38916606 0.08924984 5.4649768E-18
v 0.35160854 0.04784395 0.28453013
v 0.38916615 0.08924982 0.32208776
v 0.55137646 0.023851503 0.48429856
v 0.5179038 0.08924982 0.45082584
v 0.55137646 0.023851521 1.4604845E-18
v 0.5179038 0.08924984 -7.6828E-08
v -7.6828E-08 0.089249834 0.51790404
v -0 0.08924984 0.3891662
v 0.32208806 0.08924982 0.38916594
v 0.4508259 0.089249805 0.517904
v 0.28453025 0.047843948 0.3516084
v 0.32208806 0.08924982 0.38916594
v -0 0.08924984 0.3891662
v 7.6828E-08 0.047831982 0.35160843
v 0.55137646 0.023851503 0.48429856
v 0.48429826 0.023851497 0.55137664
v 0.4508259 0.089249805 0.517904
v 0.5179038 0.08924982 0.45082584
v 0.32208806 0.08924982 0.38916594
v 0.35160854 0.04784395 0.28453013
v 0.38916615 0.08924982 0.32208776
v 0.28453025 0.047843948 0.3516084
v 0.28453025 0.047843948 0.3516084
v 7.6828E-08 0.047831982 -1.15242E-07
v 0.35160854 0.04784395 0.28453013
v 7.6828E-08 0.047831982 0.35160843
v 0.35160854 0.047831982 -7.6828E-08
v -0.28453025 0.04784395 0.35160843
v 0.35160846 0.047843985 -0.2845302
v -0.3516084 0.047843955 0.28453013
v 0.28453025 0.047844004 -0.35160866
v -0.3516084 0.047831982 2.9288642E-18
v 7.6828E-08 0.047832035 -0.35160857
v -0.35160834 0.047843985 -0.2845302
v -0.28453025 0.047843996 -0.35160857
vt 0.67718315 0.79475635
vt 0.6602175 0.78977287
vt 0.6602175 0.79475635
vt 0.67718315 0.78977287
vt 0.64254713 0.80221605
vt 0.6602175 0.80221605
vt 0.6602175 0.79475635
vt 0.64254713 0.79475635
vt 0.63854486 0.80221605
vt 0.63854486 0.79475635
vt 0.6602175 0.8053664
vt 0.6602175 0.80221605
vt 0.64254713 0.8053664
vt 0.64254713 0.80221605
vt 0.64254713 0.78977287
vt 0.64254713 0.79475635
vt 0.6602175 0.78977287
vt 0.6602175 0.79475635
vt 0.67718315 0.80221605
vt 0.67718315 0.79475635
vt 0.6602175 0.79475635
vt 0.6602175 0.80221605
vt 0.6602175 0.80221605
vt 0.67718315 0.8053664
vt 0.67718315 0.80221605
vt 0.6602175 0.8053664
vt 0.63854486 0.79475635
vt 0.64254713 0.79475635
vt 0.64254713 0.78977287
vt 0.63854486 0.78977287
vt 0.63854486 0.80221605
vt 0.63854486 0.8053664
vt 0.64254713 0.8053664
vt 0.64254713 0.80221605
vt 0.67718315 0.78977287
vt 0.67718315 0.79475635
vt 0.6602175 0.78977287
vt 0.6602175 0.79475635
vt 0.6602175 0.79475635
vt 0.6602175 0.80221605
vt 0.64254713 0.80221605
vt 0.64254713 0.79475635
vt 0.63854486 0.80221605
vt 0.63854486 0.79475635
vt 0.6602175 0.80221605
vt 0.64254713 0.8053664
vt 0.64254713 0.80221605
vt 0.6602175 0.8053664
vt 0.64254713 0.79475635
vt 0.6602175 0.78977287
vt 0.6602175 0.79475635
vt 0.64254713 0.78977287
vt 0.67718315 0.80221605
vt 0.6602175 0.80221605
vt 0.6602175 0.79475635
vt 0.67718315 0.79475635
vt 0.6602175 0.8053664
vt 0.6602175 0.80221605
vt 0.67718315 0.8053664
vt 0.67718315 0.80221605
vt 0.63854486 0.79475635
vt 0.63854486 0.78977287
vt 0.64254713 0.78977287
vt 0.64254713 0.79475635
vt 0.63854486 0.8053664
vt 0.63854486 0.80221605
vt 0.64254713 0.8053664
vt 0.64254713 0.80221605
vt 0.67718315 0.78977287
vt 0.67718315 0.79475635
vt 0.6602175 0.78977287
vt 0.6602175 0.79475635
vt 0.64254713 0.80221605
vt 0.6602175 0.79475635
vt 0.6602175 0.80221605
vt 0.64254713 0.79475635
vt 0.63854486 0.80221605
vt 0.63854486 0.79475635
vt 0.6602175 0.80221605
vt 0.64254713 0.8053664
vt 0.64254713 0.80221605
vt 0.6602175 0.8053664
vt 0.64254713 0.79475635
vt 0.6602175 0.78977287
vt 0.6602175 0.79475635
vt 0.64254713 0.78977287
vt 0.6602175 0.79475635
vt 0.67718315 0.79475635
vt 0.67718315 0.80221605
vt 0.6602175 0.80221605
vt 0.6602175 0.8053664
vt 0.6602175 0.80221605
vt 0.67718315 0.8053664
vt 0.67718315 0.80221605
vt 0.64254713 0.78977287
vt 0.64254713 0.79475635
vt 0.63854486 0.79475635
vt 0.63854486 0.78977287
vt 0.63854486 0.80221605
vt 0.64254713 0.80221605
vt 0.64254713 0.8053664
vt 0.63854486 0.8053664
vt 0.67718315 0.79475635
vt 0.6602175 0.78977287
vt 0.6602175 0.79475635
vt 0.67718315 0.78977287
vt 0.64254713 0.80221605
vt 0.6602175 0.80221605
vt 0.6602175 0.79475635
vt 0.64254713 0.79475635
vt 0.63854486 0.80221605
vt 0.63854486 0.79475635
vt 0.6602175 0.8053664
vt 0.6602175 0.80221605
vt 0.64254713 0.8053664
vt 0.64254713 0.80221605
vt 0.64254713 0.78977287
vt 0.64254713 0.79475635
vt 0.6602175 0.78977287
vt 0.6602175 0.79475635
vt 0.6602175 0.79475635
vt 0.6602175 0.80221605
vt 0.67718315 0.80221605
vt 0.67718315 0.79475635
vt 0.67718315 0.8053664
vt 0.67718315 0.80221605
vt 0.6602175 0.80221605
vt 0.6602175 0.8053664
vt 0.64254713 0.78977287
vt 0.63854486 0.78977287
vt 0.63854486 0.79475635
vt 0.64254713 0.79475635
vt 0.63854486 0.80221605
vt 0.64254713 0.8053664
vt 0.64254713 0.80221605
vt 0.63854486 0.8053664
vt 0.6905519 0.86567944
vt 0.71799207 0.8334923
vt 0.68450123 0.85994697
vt 0.71799207 0.8656652
vt 0.6845486 0.8334923
vt 0.7454632 0.8656534
vt 0.6845046 0.8070326
vt 0.75147545 0.85995585
vt 0.6905286 0.80132425
vt 0.7514355 0.8334923
vt 0.71799207 0.8013194
vt 0.7514758 0.8070364
vt 0.7454313 0.80131704
vn -1.6328903E-07 0.4556175 -0.8901757
vn -0 0.45561787 -0.8901755
vn -0 0.45561793 -0.8901755
vn -1.6328904E-07 0.4556175 -0.8901757
vn -0 1 1.7715537E-07
vn -0 1 1.2425063E-07
vn -0 1 1.2425068E-07
vn -0 1 1.7100828E-07
vn -0 1 2.3316663E-07
vn -0 1 2.0212575E-07
vn 0.4050886 0.91427743 0
vn 0.7407326 0.67179996 0
vn 0.3876551 0.9218045 2.2810074E-05
vn 0.74073267 0.6717999 1.336816E-05
vn -0.8901765 0.45561603 1.2457834E-07
vn -0.8901765 0.45561603 1.2457834E-07
vn -0.8901765 0.45561603 0
vn -0.8901765 0.45561603 0
vn -0 1 2.3316663E-07
vn -0 1 2.0212575E-07
vn -0 1 2.797281E-07
vn -0 1 2.797281E-07
vn -0 0.6717978 0.7407345
vn 2.2908287E-05 0.92180365 0.38765717
vn 1.3715357E-05 0.67179805 0.7407344
vn -0 0.91427684 0.40509
vn -0.5727986 0.5863479 -0.57279843
vn -0.5727986 0.5863479 -0.57279843
vn -0.5727986 0.5863479 -0.57279843
vn -0.5727985 0.5863479 -0.57279843
vn 0.43474084 0.7886707 0.43474
vn 0.43474087 0.78867066 0.43474
vn 0.43474084 0.7886707 0.43474
vn 0.43474087 0.78867066 0.43474
vn -1.6328904E-07 0.45561704 0.8901759
vn -1.6328904E-07 0.45561704 0.8901759
vn -0 0.4556171 0.8901759
vn -0 0.45561704 0.8901759
vn -0 1 1.2425068E-07
vn -0 1 1.2425063E-07
vn -0 1 0
vn -0 1 0
vn -0 1 0
vn -0 1 0
vn 0.7407326 0.67179996 0
vn 0.38765526 0.92180437 -2.2639428E-05
vn 0.74073267 0.6717999 -1.3194939E-05
vn 0.4050886 0.91427743 0
vn -0.8901765 0.45561597 0
vn -0.8901765 0.45561603 0
vn -0.8901765 0.45561603 0
vn -0.8901765 0.45561597 0
vn -0 1 0
vn -0 1 0
vn -0 1 0
vn -0 1 0
vn -0 0.91427726 -0.40508896
vn -0 0.67179936 -0.74073315
vn 2.2854454E-05 0.9218041 -0.38765615
vn 1.3564217E-05 0.67179924 -0.74073327
vn -0.5727983 0.58634776 0.5727987
vn -0.5727983 0.5863478 0.5727987
vn -0.5727983 0.58634776 0.5727987
vn -0.57279825 0.5863478 0.5727987
vn 0.43474013 0.78867143 -0.43473947
vn 0.43474016 0.78867143 -0.4347395
vn 0.43474013 0.78867143 -0.4347395
vn 0.43474016 0.78867143 -0.4347395
vn -0 0.45561826 -0.8901752
vn -0 0.45561826 -0.8901752
vn -0 0.45561787 -0.8901755
vn -0 0.45561793 -0.8901755
vn -0 1 1.9267273E-07
vn -0 1 1.2425068E-07
vn -0 1 1.2425062E-07
vn -0 1 1.8858718E-07
vn -0 1 2.4122895E-07
vn -0 1 2.1556295E-07
vn -0.7407341 0.6717983 1.07989116E-07
vn -0.38765603 0.9218041 2.2832946E-05
vn -0.74073404 0.6717984 1.3358206E-05
vn -0.4050896 0.91427696 0
vn 0.890177 0.45561486 0
vn 0.89017653 0.45561573 0
vn 0.89017653 0.45561573 0
vn 0.890177 0.45561486 0
vn -0 1 2.797281E-07
vn -0 1 2.1556295E-07
vn -0 1 2.4122895E-07
vn -0 1 2.797281E-07
vn -0 0.91427684 0.40509
vn -0 0.6717978 0.7407345
vn -2.2849199E-05 0.9218035 0.38765743
vn -1.3631961E-05 0.67179763 0.7407347
vn 0.5727987 0.5863478 -0.5727983
vn 0.5727987 0.58634776 -0.5727983
vn 0.5727987 0.58634776 -0.5727983
vn 0.5727987 0.58634776 -0.5727983
vn -0.43474096 0.7886704 0.43474045
vn -0.43474093 0.7886704 0.4347404
vn -0.43474093 0.7886704 0.4347404
vn -0.43474096 0.7886704 0.43474045
vn 1.63289E-07 0.4556171 0.8901759
vn -0 0.4556171 0.8901759
vn -0 0.45561704 0.8901759
vn 1.6328903E-07 0.4556171 0.8901759
vn -0 1 0
vn -0 1 1.2425062E-07
vn -0 1 1.2425068E-07
vn -0 1 0
vn -0 1 0
vn -0 1 0
vn -0.4050896 0.91427696 0
vn -0.7407341 0.6717983 1.07989116E-07
vn -0.38765657 0.9218039 -2.2605544E-05
vn -0.7407343 0.6717982 -1.3142209E-05
vn 0.89017606 0.45561656 0
vn 0.89017606 0.45561656 0
vn 0.89017653 0.45561573 0
vn 0.89017653 0.45561573 0
vn -0 1 0
vn -0 1 0
vn -0 1 0
vn -0 1 0
vn -2.2869772E-05 0.9218041 -0.38765594
vn -1.3605563E-05 0.6717995 -0.7407331
vn -0 0.67179936 -0.74073315
vn -0 0.91427726 -0.40508896
vn 0.57279897 0.5863474 0.57279855
vn 0.57279897 0.5863474 0.57279855
vn 0.57279897 0.5863474 0.57279855
vn 0.57279897 0.5863474 0.57279855
vn -0.43473995 0.7886713 -0.43473983
vn -0.43474 0.7886713 -0.43473977
vn -0.43474 0.7886713 -0.43473983
vn -0.43473995 0.7886713 -0.43473983
vn -2.2869772E-05 0.9218041 -0.38765594
vn -0 1 0
vn -0.38765657 0.9218039 -2.2605544E-05
vn -0 0.91427726 -0.40508896
vn -0.4050896 0.91427696 0
vn 2.2854454E-05 0.9218041 -0.38765615
vn -0.38765603 0.9218041 2.2832946E-05
vn 0.38765526 0.92180437 -2.2639428E-05
vn -2.2849199E-05 0.9218035 0.38765743
vn 0.4050886 0.91427743 0
vn -0 0.91427684 0.40509
vn 0.3876551 0.9218045 2.2810074E-05
vn 2.2908287E-05 0.92180365 0.38765717
g [GIMMICK]stair_down_0
f 3/3/3 2/2/2 1/1/1
f 2/2/2 4/4/4 1/1/1
f 7/7/7 6/6/6 5/5/5
f 7/7/7 5/5/5 8/8/8
f 8/8/8 5/5/5 9/9/9
f 9/9/9 10/10/10 8/8/8
f 13/13/13 12/12/12 11/11/11
f 12/12/12 13/13/13 14/14/14
f 17/17/17 16/16/16 15/15/15
f 16/16/16 17/17/17 18/18/18
f 21/21/21 20/20/20 19/19/19
f 19/19/19 22/22/22 21/21/21
f 25/25/25 24/24/24 23/23/23
f 24/24/24 26/26/26 23/23/23
f 29/29/29 28/28/28 27/27/27
f 27/27/27 30/30/30 29/29/29
f 33/33/33 32/32/32 31/31/31
f 31/31/31 34/34/34 33/33/33
f 37/37/37 36/36/36 35/35/35
f 36/36/36 37/37/37 38/38/38
f 41/41/41 40/40/40 39/39/39
f 42/42/42 41/41/41 39/39/39
f 43/43/43 41/41/41 42/42/42
f 42/42/42 44/44/44 43/43/43
f 47/47/47 46/46/46 45/45/45
f 46/46/46 48/48/48 45/45/45
f 51/51/51 50/50/50 49/49/49
f 52/52/52 49/49/49 50/50/50
f 55/55/55 54/54/54 53/53/53
f 53/53/53 56/56/56 55/55/55
f 59/59/59 58/58/58 57/57/57
f 58/58/58 59/59/59 60/60/60
f 63/63/63 62/62/62 61/61/61
f 61/61/61 64/64/64 63/63/63
f 67/67/67 66/66/66 65/65/65
f 67/67/67 68/68/68 66/66/66
f 71/71/71 70/70/70 69/69/69
f 70/70/70 71/71/71 72/72/72
f 75/75/75 74/74/74 73/73/73
f 76/76/76 73/73/73 74/74/74
f 77/77/77 73/73/73 76/76/76
f 76/76/76 78/78/78 77/77/77
f 81/81/81 80/80/80 79/79/79
f 80/80/80 82/82/82 79/79/79
f 85/85/85 84/84/84 83/83/83
f 86/86/86 83/83/83 84/84/84
f 89/89/89 88/88/88 87/87/87
f 87/87/87 90/90/90 89/89/89
f 93/93/93 92/92/92 91/91/91
f 92/92/92 93/93/93 94/94/94
f 97/97/97 96/96/96 95/95/95
f 95/95/95 98/98/98 97/97/97
f 101/101/101 100/100/100 99/99/99
f 99/99/99 102/102/102 101/101/101
f 105/105/105 104/104/104 103/103/103
f 104/104/104 106/106/106 103/103/103
f 109/109/109 108/108/108 107/107/107
f 109/109/109 107/107/107 110/110/110
f 110/110/110 107/107/107 111/111/111
f 111/111/111 112/112/112 110/110/110
f 115/115/115 114/114/114 113/113/113
f 114/114/114 115/115/115 116/116/116
f 119/119/119 118/118/118 117/117/117
f 118/118/118 119/119/119 120/120/120
f 123/123/123 122/122/122 121/121/121
f 121/121/121 124/124/124 123/123/123
f 127/127/127 126/126/126 125/125/125
f 125/125/125 128/128/128 127/127/127
f 131/131/131 130/130/130 129/129/129
f 129/129/129 132/132/132 131/131/131
f 135/135/135 134/134/134 133/133/133
f 134/134/134 136/136/136 133/133/133
f 139/139/139 138/138/138 137/137/137
f 137/137/137 138/138/138 140/140/140
f 141/141/141 138/138/138 139/139/139
f 140/140/140 138/138/138 142/142/142
f 141/141/141 143/143/143 138/138/138
f 142/142/142 138/138/138 144/144/144
f 138/138/138 143/143/143 145/145/145
f 144/144/144 138/138/138 146/146/146
f 147/147/147 138/138/138 145/145/145
f 146/146/146 138/138/138 148/148/148
f 149/149/149 138/138/138 147/147/147
f 148/148/148 138/138/138 149/149/149
