g [gimmick]doorbase_guild
v -1.5104997 -1.7563576E-07 -0.35036826
v -1.4341873 0.05501615 -0.27482054
v -1.4341877 0.055015936 1.1032344
v -1.5105 -3.0932316E-07 1.1788375
v -1.357368 -2.9440892E-07 1.3319696
v -1.2788515 0.05501592 1.2585694
v 0.27185127 0.05501592 1.2585696
v 0.3503676 -1.088533E-08 1.3319699
v 0.50349975 2.8402512E-08 1.1788378
v 0.42718634 0.055015936 1.1032348
v 0.42718652 0.05501615 -0.2748202
v 0.5035 1.6208993E-07 -0.35036796
v 0.35036796 1.4957655E-07 -0.5035
v 0.27185154 0.055016153 -0.43015522
v -1.2788525 0.05501607 -0.43015552
v -1.3573676 -1.3154619E-07 -0.5035003
v -1.5105 -3.0932316E-07 1.1788375
v -1.4341877 0.055015936 1.1032344
v -1.2788515 0.05501592 1.2585694
v -1.357368 -2.9440892E-07 1.3319696
v -1.4341873 0.05501615 -0.27482054
v -1.5104997 -1.7563576E-07 -0.35036826
v -1.3573676 -1.3154619E-07 -0.5035003
v -1.2788525 0.05501607 -0.43015552
v 0.3503676 -1.088533E-08 1.3319699
v 0.27185127 0.05501592 1.2585696
v 0.42718634 0.055015936 1.1032348
v 0.50349975 2.8402512E-08 1.1788378
v 0.5035 1.6208993E-07 -0.35036796
v 0.42718652 0.05501615 -0.2748202
v 0.27185154 0.055016153 -0.43015522
v 0.35036796 1.4957655E-07 -0.5035
v -1.24914 1.1292933E-07 -0.19679247
v -1.2491404 -2.6018304E-07 1.025254
v -1.3263401 0.055087205 1.0542996
v -1.3263397 0.055087328 -0.225886
v -1.1920067 -2.8840185E-07 1.0857385
v 0.18500702 -2.8840188E-07 1.0857387
v 0.22406366 0.054944675 1.1495767
v -1.2310625 0.05508721 1.1495771
v 0.24213947 -2.5778218E-07 1.0252541
v 0.24213968 1.129293E-07 -0.196792
v 0.3193403 0.05501612 -0.22588554
v 0.31934005 0.055087205 1.0543
v 0.18500604 1.4594916E-07 -0.25727284
v -1.1920065 1.459492E-07 -0.25727332
v -1.2310635 0.055087335 -0.32116348
v 0.22406395 0.055087414 -0.32116318
v -1.2491404 -2.6018304E-07 1.025254
v -1.1920067 -2.8840185E-07 1.0857385
v -1.2310625 0.05508721 1.1495771
v -1.3263401 0.055087205 1.0542996
v -1.3263397 0.055087328 -0.225886
v -1.2310635 0.055087335 -0.32116348
v -1.1920065 1.459492E-07 -0.25727332
v -1.24914 1.1292933E-07 -0.19679247
v 0.18500702 -2.8840188E-07 1.0857387
v 0.24213947 -2.5778218E-07 1.0252541
v 0.31934005 0.055087205 1.0543
v 0.22406366 0.054944675 1.1495767
v 0.24213968 1.129293E-07 -0.196792
v 0.18500604 1.4594916E-07 -0.25727284
v 0.22406395 0.055087414 -0.32116318
v 0.3193403 0.05501612 -0.22588554
v -1.2788515 0.05501592 1.2585694
v -1.2310625 0.05508721 1.1495771
v 0.22406366 0.054944675 1.1495767
v -1.4341877 0.055015936 1.1032344
v 0.27185127 0.05501592 1.2585696
v -1.3263401 0.055087205 1.0542996
v 0.31934005 0.055087205 1.0543
v -1.4341873 0.05501615 -0.27482054
v 0.42718634 0.055015936 1.1032348
v -1.3263397 0.055087328 -0.225886
v 0.3193403 0.055158667 -0.22588569
v -1.2788525 0.05501607 -0.43015552
v 0.42718652 0.05501615 -0.2748202
v -1.2310635 0.055087335 -0.32116348
v 0.22406395 0.055087414 -0.32116318
v 0.27185154 0.055016153 -0.43015522
vt 0.3612536 0.88550276
vt 0.3612536 0.9033191
vt 0.36734962 0.9033191
vt 0.36734962 0.88550276
vt 0.36784482 0.88550276
vt 0.36784482 0.9033191
vt 0.36540583 0.9033191
vt 0.36540583 0.88550276
vt 0.36734962 0.88550276
vt 0.36734962 0.9033191
vt 0.3612536 0.9033191
vt 0.3612536 0.88550276
vt 0.34573662 0.88550276
vt 0.34573662 0.9033191
vt 0.35348248 0.9033191
vt 0.35348248 0.88550276
vt 0.3707273 0.88550276
vt 0.3707273 0.9033191
vt 0.36784482 0.9033191
vt 0.36784482 0.88550276
vt 0.36116222 0.9033191
vt 0.36116222 0.88550276
vt 0.35348248 0.88550276
vt 0.35348248 0.9033191
vt 0.36784482 0.88550276
vt 0.36784482 0.9033191
vt 0.3707273 0.9033191
vt 0.3707273 0.88550276
vt 0.36116222 0.88550276
vt 0.36116222 0.9033191
vt 0.35348248 0.9033191
vt 0.35348248 0.88550276
vt 0.35725302 0.8713551
vt 0.36485064 0.8713551
vt 0.36485064 0.8831411
vt 0.35725302 0.8831411
vt 0.35400575 0.8713551
vt 0.34572864 0.8713551
vt 0.34572864 0.8831411
vt 0.35400575 0.8831411
vt 0.35725302 0.8713551
vt 0.36485064 0.8713551
vt 0.36485064 0.8831411
vt 0.35725302 0.8831411
vt 0.36430764 0.8713551
vt 0.36587417 0.8713551
vt 0.36587417 0.8831411
vt 0.36430764 0.8831411
vt 0.35725304 0.8713551
vt 0.3546276 0.8713551
vt 0.3546276 0.8831411
vt 0.35725304 0.8831411
vt 0.35725304 0.8831411
vt 0.3546276 0.8831411
vt 0.3546276 0.8713551
vt 0.35725304 0.8713551
vt 0.3546276 0.8713551
vt 0.35725302 0.8713551
vt 0.35725302 0.8831411
vt 0.3546276 0.8831411
vt 0.35725304 0.8713551
vt 0.3546276 0.8713551
vt 0.3546276 0.8831411
vt 0.35725304 0.8831411
vt 0.33824813 0.90606666
vt 0.33838683 0.90398294
vt 0.34261078 0.90398294
vt 0.33779722 0.903097
vt 0.3427495 0.90606666
vt 0.33811027 0.9021615
vt 0.34288734 0.9021615
vt 0.33779722 0.8767514
vt 0.34320042 0.903097
vt 0.33811027 0.877687
vt 0.34288734 0.877687
vt 0.33824813 0.87378174
vt 0.34320042 0.8767514
vt 0.33838683 0.87586546
vt 0.34261078 0.87586546
vt 0.3427495 0.87378174
vn -0.5848045 0.8111743 0
vn -0.5848045 0.8111743 0
vn -0.5848045 0.8111743 0
vn -0.5848045 0.8111744 0
vn -1.4009628E-07 0.8001786 0.59976184
vn -1.4009628E-07 0.8001786 0.59976184
vn -1.4009628E-07 0.8001786 0.59976184
vn -1.4009626E-07 0.8001786 0.59976184
vn 0.5847966 0.81117994 1.817416E-07
vn 0.5847966 0.81117994 1.8174163E-07
vn 0.5847966 0.81117994 1.817416E-07
vn 0.5847966 0.81117994 1.817416E-07
vn -0 0.7999606 -0.60005254
vn -0 0.7999606 -0.60005254
vn -0 0.7999606 -0.60005254
vn -0 0.7999606 -0.60005254
vn -0.32233286 0.8900575 0.3223339
vn -0.32233283 0.8900575 0.32233384
vn -0.32233283 0.8900575 0.32233387
vn -0.32233283 0.8900575 0.32233387
vn -0.3224278 0.88998914 -0.32242766
vn -0.32242778 0.88998914 -0.32242772
vn -0.3224278 0.88998914 -0.32242775
vn -0.3224278 0.88998914 -0.32242775
vn 0.32233092 0.8900591 0.3223314
vn 0.3223309 0.8900591 0.32233137
vn 0.32233092 0.8900591 0.3223314
vn 0.32233095 0.8900591 0.3223314
vn 0.32242453 0.8899915 -0.32242453
vn 0.3224245 0.8899915 -0.3224245
vn 0.32242447 0.8899915 -0.32242447
vn 0.32242453 0.8899915 -0.32242453
vn 0.58085203 0.81400913 3.0400727E-07
vn 0.58085203 0.81400913 3.0400727E-07
vn 0.58085203 0.81400913 3.0400727E-07
vn 0.58085203 0.8140092 3.0400727E-07
vn 3.8034887E-05 0.7575083 -0.65282553
vn 3.8034883E-05 0.7575083 -0.6528256
vn 3.8034883E-05 0.7575083 -0.6528256
vn 3.803488E-05 0.7575083 -0.65282553
vn -0.58059865 0.81418985 -2.3107783E-05
vn -0.58059865 0.81418985 -2.3107783E-05
vn -0.58059865 0.81418985 -2.3107783E-05
vn -0.58059865 0.81419 -2.3107785E-05
vn -1.991472E-07 0.7573547 0.6530038
vn -1.991472E-07 0.7573547 0.6530038
vn -1.9914722E-07 0.7573547 0.6530038
vn -1.9914722E-07 0.7573547 0.6530038
vn 0.42670175 0.80224764 -0.41752172
vn 0.42670175 0.80224764 -0.41752172
vn 0.42670175 0.80224764 -0.41752172
vn 0.42670175 0.8022476 -0.41752172
vn 0.42656633 0.80238485 0.41739637
vn 0.4265664 0.80238485 0.41739637
vn 0.4265664 0.80238485 0.41739637
vn 0.4265664 0.80238485 0.41739637
vn -0.42668912 0.8026446 -0.41677105
vn -0.42668912 0.8026445 -0.41677102
vn -0.42668912 0.8026446 -0.416771
vn -0.42668912 0.8026446 -0.41677105
vn -0.42621502 0.8025594 0.41741973
vn -0.42621496 0.8025594 0.41741973
vn -0.42621502 0.8025594 0.41741973
vn -0.42621502 0.8025594 0.41741973
vn -0.00020796563 1 0.00023136965
vn -0.00020097019 1 0.00022503686
vn -0.00011775363 1 0.00013980204
vn -0.00055460626 0.9999999 0.00023380229
vn -0.00012240214 1 0.00014373157
vn -0.0005592546 0.9999999 0.00022353664
vn 0.000363202 1 0.00015250556
vn -0.00055436214 0.9999999 -0.00023356108
vn 0.00033434195 1 0.00015827516
vn -0.0005590213 0.9999999 -0.00022329504
vn 0.00076872297 0.99999964 -0.0003907693
vn -0.00023104722 0.9999999 -0.00055238866
vn 0.00075849995 0.99999964 -0.0004099667
vn -0.0002247205 0.9999999 -0.0005551674
vn 0.0002664637 0.99999976 -0.00073748507
vn 0.00027396495 0.99999976 -0.00073983957
g [gimmick]doorbase_guild_0
f 3/3/3 2/2/2 1/1/1
f 4/4/4 3/3/3 1/1/1
f 7/7/7 6/6/6 5/5/5
f 8/8/8 7/7/7 5/5/5
f 11/11/11 10/10/10 9/9/9
f 12/12/12 11/11/11 9/9/9
f 15/15/15 14/14/14 13/13/13
f 16/16/16 15/15/15 13/13/13
f 19/19/19 18/18/18 17/17/17
f 20/20/20 19/19/19 17/17/17
f 23/23/23 22/22/22 21/21/21
f 24/24/24 23/23/23 21/21/21
f 27/27/27 26/26/26 25/25/25
f 28/28/28 27/27/27 25/25/25
f 31/31/31 30/30/30 29/29/29
f 32/32/32 31/31/31 29/29/29
f 35/35/35 34/34/34 33/33/33
f 36/36/36 35/35/35 33/33/33
f 39/39/39 38/38/38 37/37/37
f 40/40/40 39/39/39 37/37/37
f 43/43/43 42/42/42 41/41/41
f 44/44/44 43/43/43 41/41/41
f 47/47/47 46/46/46 45/45/45
f 48/48/48 47/47/47 45/45/45
f 51/51/51 50/50/50 49/49/49
f 52/52/52 51/51/51 49/49/49
f 55/55/55 54/54/54 53/53/53
f 56/56/56 55/55/55 53/53/53
f 59/59/59 58/58/58 57/57/57
f 60/60/60 59/59/59 57/57/57
f 63/63/63 62/62/62 61/61/61
f 64/64/64 63/63/63 61/61/61
f 67/67/67 66/66/66 65/65/65
f 65/65/65 66/66/66 68/68/68
f 69/69/69 67/67/67 65/65/65
f 66/66/66 70/70/70 68/68/68
f 71/71/71 67/67/67 69/69/69
f 68/68/68 70/70/70 72/72/72
f 73/73/73 71/71/71 69/69/69
f 70/70/70 74/74/74 72/72/72
f 75/75/75 71/71/71 73/73/73
f 72/72/72 74/74/74 76/76/76
f 77/77/77 75/75/75 73/73/73
f 74/74/74 78/78/78 76/76/76
f 79/79/79 75/75/75 77/77/77
f 76/76/76 78/78/78 80/80/80
f 80/80/80 79/79/79 77/77/77
f 78/78/78 79/79/79 80/80/80
