g [GIMMICK]ordeal_door2
v -0.23996894 0.047732815 0.422629
v 1.72863E-07 0 0.422629
v -0.15281782 -0.19733933 0.42262903
v 0.20343637 -0.13593152 0.422629
v 0.09176896 -0.3708483 0.42262903
v -0.15748467 -0.3802024 0.42262903
v -0.04083493 -0.49685222 0.42262903
v -0.23996873 -0.57933676 0.42262906
vt 0.30678686 0.7693644
vt 0.28223732 0.7644813
vt 0.29787096 0.744293
vt 0.26142523 0.75057507
vt 0.272849 0.7265424
vt 0.29834864 0.7255854
vt 0.28641495 0.7136517
vt 0.30678686 0.7052134
vn -0 1.4738418E-07 1
vn -0 1.4738418E-07 1
vn -0 1.4738418E-07 1
vn -0 1.4738418E-07 1
vn -0 0 1
vn -0 0 1
vn -0 0 1
vn -0 0 1
g [GIMMICK]ordeal_door2_0
f 3/3/3 2/2/2 1/1/1
f 4/4/4 2/2/2 3/3/3
f 3/3/3 5/5/5 4/4/4
f 6/6/6 5/5/5 3/3/3
f 6/6/6 7/7/7 5/5/5
f 8/8/8 7/7/7 6/6/6
