g [GIMMICK]stone_slab_piece2_light
v 0.23418723 1.9379507 -0.9453598
v 1.1960263 2.408596 -0.87188333
v 0.4960409 1.6478941 0.101189956
v 1.004532 1.9379178 0.15209047
v 0.4960409 1.6478941 0.101189956
v 0.4960406 1.0705653 -0.0008474993
v 0.23418723 1.9379507 -0.9453598
v 0.20634161 1.0691668 -1.108062
v 1.0742756 1.7549267 0.09971963
v 1.0742756 1.5541079 0.06430975
v 1.2765945 1.8302625 -1.0032372
v 1.2765945 2.1519365 -0.94651717
v 1.0742756 1.5541079 0.06430975
v 1.0045317 1.3653995 0.031035392
v 1.1558816 1.5279876 -1.0565363
v 1.2765945 1.8302625 -1.0032372
v 1.1558816 1.5279876 -1.0565363
v 1.0045317 1.3653995 0.031035392
v 0.8734565 1.2115637 0.0039097676
v 0.92901635 1.2815717 -1.0999864
v 0.6233623 1.1207349 -1.1283466
v 0.92901635 1.2815717 -1.0999864
v 0.6968595 1.1111546 -0.013795092
v 0.8734565 1.2115637 0.0039097676
v 0.20634158 1.0739777 -1.1270794
v 0.6233623 1.1207349 -1.1283466
v 0.4960406 1.0753765 -0.019865042
v 0.6968595 1.1111546 -0.013795092
v 1.004532 1.9427286 0.13307288
v 1.0742756 1.7549267 0.09971963
v 1.2765945 2.1519365 -0.94651717
v 1.1960263 2.413407 -0.8909009
vt 0 0.94553876
vt 1 0.94553876
vt 0 0.5219201
vt 1 0.5219201
vt 1 0.5219201
vt 0 0.5219201
vt 1 0.94553876
vt 0 0.94553876
vt 0.33006763 0.5219201
vt 0.64466906 0.5219201
vt 0.64466906 0.94553876
vt 0.33006763 0.94553876
vt 0.64466906 0.5219201
vt 1 0.5219201
vt 1 0.94553876
vt 0.64466906 0.94553876
vt 0 0.94553876
vt 0 0.5219201
vt 0.33006763 0.5219201
vt 0.33006763 0.94553876
vt 0.64466906 0.94553876
vt 0.33006763 0.94553876
vt 0.64466906 0.5219201
vt 0.33006763 0.5219201
vt 1 0.94553876
vt 0.64466906 0.94553876
vt 1 0.5219201
vt 0.64466906 0.5219201
vt 0 0.5219201
vt 0.33006763 0.5219201
vt 0.33006763 0.94553876
vt 0 0.94553876
vn -0.45650655 0.79891336 0.39158553
vn -0.45650655 0.79891336 0.39158553
vn -0.45650652 0.79891336 0.3915855
vn -0.45650655 0.79891336 0.3915855
vn -0.9692443 -0.04736368 0.24149984
vn -0.9692443 -0.047363687 0.24149984
vn -0.9692443 -0.04736368 0.24149981
vn -0.9692443 -0.04736368 0.24149984
vn -0.9834819 0.046847843 -0.17483863
vn -0.9834819 0.04684784 -0.17483862
vn -0.9834819 0.046847843 -0.17483863
vn -0.9834819 0.04684784 -0.17483863
vn -0.92502207 0.37743872 -0.043291755
vn -0.92502207 0.3774387 -0.043291755
vn -0.92502207 0.37743866 -0.04329175
vn -0.92502207 0.37743866 -0.043291755
vn -0.7454395 0.6640047 0.058460865
vn -0.7454395 0.6640047 0.05846086
vn -0.7454395 0.6640047 0.058460873
vn -0.7454395 0.6640047 0.058460873
vn -0.47863063 0.8708859 0.11167147
vn -0.47863063 0.8708859 0.11167147
vn -0.4786306 0.8708859 0.11167147
vn -0.47863063 0.8708859 0.111671485
vn -0.13256155 0.9848742 0.11158091
vn -0.13256153 0.9848742 0.11158091
vn -0.13256155 0.9848742 0.111580916
vn -0.13256153 0.9848742 0.111580916
vn -0.9251893 -0.22806391 -0.30333436
vn -0.9251893 -0.22806388 -0.30333433
vn -0.9251893 -0.22806388 -0.3033343
vn -0.9251893 -0.22806388 -0.30333433
g [GIMMICK]stone_slab_piece2_light_0
f 3/3/3 2/2/2 1/1/1
f 3/3/3 4/4/4 2/2/2
f 7/7/7 6/6/6 5/5/5
f 8/8/8 6/6/6 7/7/7
f 11/11/11 10/10/10 9/9/9
f 9/9/9 12/12/12 11/11/11
f 15/15/15 14/14/14 13/13/13
f 13/13/13 16/16/16 15/15/15
f 19/19/19 18/18/18 17/17/17
f 17/17/17 20/20/20 19/19/19
f 23/23/23 22/22/22 21/21/21
f 23/23/23 24/24/24 22/22/22
f 27/27/27 26/26/26 25/25/25
f 27/27/27 28/28/28 26/26/26
f 31/31/31 30/30/30 29/29/29
f 29/29/29 32/32/32 31/31/31
