g [gimmick]snow_entrance_wall
v -1.1238981 0.016404754 0.5617771
v -1.0615999 1.3708903 0.10862227
v -0.5182801 1.5243717 0.061533928
v -0.5183168 0.012586664 0.5625059
v 0.100367025 0.01640475 0.56177706
v 0.024965413 1.3708903 0.10862227
v -0.5004539 1.3776176 0.20353162
v -0.2236563 1.2446816 0.1835139
v -0.5004509 1.3033323 0.16236964
v -0.19038916 1.3097885 0.21912418
v -0.052534834 1.0403042 0.25574997
v -0.5006362 1.7975051 0.05642763
v -0.00679221 1.0684699 0.30249348
v -0.047576815 0.7069296 0.38142568
v -0.00894908 0.7244167 0.42766008
v -0.04506746 0.001260866 0.6718797
v -0.008948926 0.0013867307 0.724832
v 0.3560804 1.1891502 0.2587624
v 0.36372265 0.7213104 0.43233517
v 0.3637228 0.00056276337 0.71108896
v 0.48852006 -0.00026176736 0.49783674
v 0.487645 0.69815063 0.28790405
v 0.4671914 1.1839043 0.14287741
v 0.11717853 1.6443496 0.11217253
v 0.20440304 1.7036872 -0.015242906
v -0.50054526 1.8658162 -0.071341254
v -0.5361077 1.7975049 0.05642763
v -0.5362901 1.3776176 0.20353162
v -0.5004539 1.3776176 0.20353162
v -0.53619885 1.8658162 -0.071341254
v -0.50054526 1.8658162 -0.23560444
v -0.53619885 1.8658162 -0.23560444
v -0.84634525 1.3097885 0.21912418
v -0.5361077 1.7975049 0.05642763
v -0.5362901 1.3776176 0.20353162
v -1.1539131 1.6443496 0.11217261
v -0.53619885 1.8658162 -0.071341254
v -1.2411377 1.7036873 -0.015242906
v -1.5039259 1.1839043 0.14287739
v -1.392815 1.1891502 0.2587624
v -1.5243794 0.69815063 0.2879041
v -1.4004573 0.72131044 0.43233514
v -1.5252545 -0.00026176736 0.49783668
v -1.4004573 0.0005627634 0.7110889
v -1.0277855 0.0013867307 0.72483194
v -1.0277855 0.72441673 0.42766008
v -0.991667 0.001260866 0.67187965
v -0.9891577 0.7069297 0.38142565
v -1.0299424 1.0684696 0.30249348
v -0.98419976 1.040304 0.25574994
v -0.8130783 1.2446815 0.18351379
v -0.5362901 1.3776176 0.20353162
v -0.5362931 1.3033322 0.16236964
v -0.8130783 1.2446815 0.18351379
v -0.84634525 1.3097885 0.21912418
v -0.5362931 1.3033322 0.16236964
v -0.5362901 1.3776176 0.20353162
v -0.5004539 1.3776176 0.20353162
v -0.5004509 1.3033323 0.16236964
v -0.50054526 1.8658162 -0.071341254
v -0.50054526 1.8658162 -0.23560444
v 0.20440304 1.7036872 -0.1795061
v 0.20440304 1.7036872 -0.015242906
v 0.48852006 -0.00026176736 0.49783674
v 0.48852006 -0.00026175383 0.33357355
v 0.3637228 0.0005627605 0.54682577
v 0.3637228 0.00056276337 0.71108896
v -0.008948926 0.0013866957 0.56056887
v -0.008948926 0.0013867307 0.724832
v -0.04506746 0.0012608167 0.5076166
v -0.04506746 0.001260866 0.6718797
v -0.2236563 1.2446816 0.1835139
v -0.2236563 1.2446816 0.019250715
v -0.5004509 1.3033323 -0.0018935797
v -0.5004509 1.3033323 0.16236964
v -0.047576815 0.7069296 0.38142568
v -0.052534834 1.0403042 0.091486745
v -0.052534834 1.0403042 0.25574997
v -0.047577124 0.7069296 0.21716245
v -0.04506746 0.001260866 0.6718797
v -0.04506746 0.0012608167 0.5076166
v -0.052534834 1.0403042 0.25574997
v -0.052534834 1.0403042 0.091486745
v -0.2236563 1.2446816 0.019250715
v -0.2236563 1.2446816 0.1835139
v 0.20440304 1.7036872 -0.015242906
v 0.20440304 1.7036872 -0.1795061
v 0.4671914 1.1839043 -0.021385688
v 0.4671914 1.1839043 0.14287741
v 0.4671914 1.1839043 0.14287741
v 0.4671914 1.1839043 -0.021385688
v 0.487645 0.69815063 0.12364084
v 0.487645 0.69815063 0.28790405
v 0.48852006 -0.00026175383 0.33357355
v 0.48852006 -0.00026176736 0.49783674
v -1.2411377 1.7036873 -0.015242906
v -1.2411377 1.7036871 -0.17950617
v -0.53619885 1.8658162 -0.23560444
v -0.53619885 1.8658162 -0.071341254
v -1.4004573 0.0005627634 0.7110889
v -1.5252545 -0.00026175383 0.33357355
v -1.5252545 -0.00026176736 0.49783668
v -1.4004573 0.0005627606 0.5468257
v -1.0277855 0.0013867307 0.72483194
v -1.0277855 0.0013866957 0.56056875
v -0.991667 0.001260866 0.67187965
v -0.991667 0.0012608166 0.50761646
v -0.5362931 1.3033322 0.16236964
v -0.5362931 1.3033323 -0.0018935797
v -0.8130783 1.2446815 0.019250715
v -0.8130783 1.2446815 0.18351379
v -0.98419976 1.040304 0.25574994
v -0.98419976 1.0403042 0.09148671
v -0.9891576 0.7069297 0.21716242
v -0.9891577 0.7069297 0.38142565
v -0.991667 0.0012608166 0.50761646
v -0.991667 0.001260866 0.67187965
v -0.8130783 1.2446815 0.18351379
v -0.8130783 1.2446815 0.019250715
v -0.98419976 1.0403042 0.09148671
v -0.98419976 1.040304 0.25574994
v -1.5039259 1.1839043 0.14287739
v -1.5039259 1.1839042 -0.021385688
v -1.2411377 1.7036871 -0.17950617
v -1.2411377 1.7036873 -0.015242906
v -1.5243794 0.69815063 0.2879041
v -1.5039259 1.1839042 -0.021385688
v -1.5039259 1.1839043 0.14287739
v -1.5243794 0.69815063 0.12364084
v -1.5252545 -0.00026176736 0.49783668
v -1.5252545 -0.00026175383 0.33357355
v -0.5004509 1.3033323 0.16236964
v -0.5004509 1.3033323 -0.0018935797
v -0.5362931 1.3033323 -0.0018935797
v -0.5362931 1.3033322 0.16236964
vt 0.11953953 0.43136784
vt 0.11953953 0.38146925
vt 0.1021681 0.38146925
vt 0.1021681 0.43136784
vt 0.08479674 0.43136784
vt 0.084796704 0.38146925
vt 0.10488273 0.36507702
vt 0.103317045 0.33493787
vt 0.103317045 0.36507702
vt 0.10488273 0.33493787
vt 0.103317045 0.30113944
vt 0.13643362 0.36507702
vt 0.10488273 0.30113944
vt 0.103317045 0.26390225
vt 0.10488273 0.26390225
vt 0.103317045 0.18738225
vt 0.10488273 0.18738225
vt 0.13643362 0.30113944
vt 0.13643362 0.26390225
vt 0.13643362 0.18738225
vt 0.1683487 0.18738225
vt 0.1683487 0.26390225
vt 0.1683487 0.30113944
vt 0.13643362 0.33493787
vt 0.1683487 0.33493787
vt 0.1683487 0.36507702
vt 0.13638267 0.36546022
vt 0.104645476 0.36546022
vt 0.10473968 0.36507702
vt 0.16841707 0.36546022
vt 0.1683487 0.36507702
vt 0.16841707 0.36546022
vt 0.10488273 0.33493787
vt 0.13643362 0.36507702
vt 0.10488273 0.36507702
vt 0.13643362 0.33493787
vt 0.1683487 0.36507702
vt 0.1683487 0.33493787
vt 0.1683487 0.30113944
vt 0.13643362 0.30113944
vt 0.1683487 0.26390225
vt 0.13643362 0.26390225
vt 0.1683487 0.18738225
vt 0.13643362 0.18738225
vt 0.10488273 0.18738225
vt 0.10488273 0.26390225
vt 0.103317045 0.18738225
vt 0.103317045 0.26390225
vt 0.10488273 0.30113944
vt 0.103317045 0.30113944
vt 0.103317045 0.33493787
vt 0.10488273 0.36507702
vt 0.103317045 0.36507702
vt 0.103317045 0.33493787
vt 0.10488273 0.33493787
vt 0.10317397 0.36507702
vt 0.10473968 0.36507702
vt 0.10488273 0.36507702
vt 0.103317045 0.36507702
vt 0.1683487 0.36507702
vt 0.1683487 0.36507702
vt 0.1683487 0.33493787
vt 0.1683487 0.33493787
vt 0.1683487 0.18738225
vt 0.1683487 0.18738225
vt 0.13643362 0.18738225
vt 0.13643362 0.18738225
vt 0.10488273 0.18738225
vt 0.10488273 0.18738225
vt 0.103317045 0.18738225
vt 0.103317045 0.18738225
vt 0.103317045 0.33493787
vt 0.103317045 0.33493787
vt 0.103317045 0.36507702
vt 0.103317045 0.36507702
vt 0.103317045 0.26390225
vt 0.103317045 0.30113944
vt 0.103317045 0.30113944
vt 0.103317045 0.26390225
vt 0.103317045 0.18738225
vt 0.103317045 0.18738225
vt 0.103317045 0.30113944
vt 0.103317045 0.30113944
vt 0.103317045 0.33493787
vt 0.103317045 0.33493787
vt 0.1683487 0.33493787
vt 0.1683487 0.33493787
vt 0.1683487 0.30113944
vt 0.1683487 0.30113944
vt 0.1683487 0.30113944
vt 0.1683487 0.30113944
vt 0.1683487 0.26390225
vt 0.1683487 0.26390225
vt 0.1683487 0.18738225
vt 0.1683487 0.18738225
vt 0.1683487 0.33493787
vt 0.1683487 0.33493787
vt 0.1683487 0.36507702
vt 0.1683487 0.36507702
vt 0.13643362 0.18738225
vt 0.1683487 0.18738225
vt 0.1683487 0.18738225
vt 0.13643362 0.18738225
vt 0.10488273 0.18738225
vt 0.10488273 0.18738225
vt 0.103317045 0.18738225
vt 0.103317045 0.18738225
vt 0.103317045 0.36507702
vt 0.103317045 0.36507702
vt 0.103317045 0.33493787
vt 0.103317045 0.33493787
vt 0.103317045 0.30113944
vt 0.103317045 0.30113944
vt 0.103317045 0.26390225
vt 0.103317045 0.26390225
vt 0.103317045 0.18738225
vt 0.103317045 0.18738225
vt 0.103317045 0.33493787
vt 0.103317045 0.33493787
vt 0.103317045 0.30113944
vt 0.103317045 0.30113944
vt 0.1683487 0.30113944
vt 0.1683487 0.30113944
vt 0.1683487 0.33493787
vt 0.1683487 0.33493787
vt 0.1683487 0.26390225
vt 0.1683487 0.30113944
vt 0.1683487 0.30113944
vt 0.1683487 0.26390225
vt 0.1683487 0.18738225
vt 0.1683487 0.18738225
vt 0.103317045 0.36507702
vt 0.103317045 0.36507702
vt 0.10317397 0.36507702
vt 0.10317397 0.36507702
vn -0.0008093171 0.99999976 0
vn -0 1 0
vn -0 1 0
vn -0.0016185915 0.9999987 0
vn -0.0016185916 0.9999987 0.0004046479
vn -0 1 0
vn -0 1 0
vn -0 1 0
vn 0.00081037247 0.99999964 0
vn -0 1 0
vn -0 1 0
vn -0 1 0
vn -0 1 0
vn -0 1 -0.00040485832
vn -0 1 0
vn -0 1 0
vn -0.0016185812 0.9999987 0
vn 0.001618121 0.9999987 0.00040453026
vn 0.0016181209 0.9999987 0
vn -0 1 0
vn 0.003237158 0.99999475 -0.00040464476
vn -0 1 0.00040453073
vn 0.0016181209 0.9999987 0
vn -0 1 0
vn -0 1 0
vn -0 1 0
vn -0 1 0
vn -0 1 0.00040453073
vn -0 1 0.00040453073
vn -0 1 0
vn -0 1 0
vn -0 1 0
vn -0 1 0
vn -0 1 0
vn -0.00080906134 0.99999976 0
vn -0 1 0
vn -0 1 0
vn -0 1 0
vn -0 1 0.00040485832
vn -0 1 0.00040453073
vn -0 1 -0.00040453073
vn -0 1 0
vn -0 1 0
vn -0 1 0
vn -0 1 0
vn -0 1 0
vn -0.00040464711 1 0
vn -0 1 -0.00040453073
vn -0 1 0
vn -0 1 0
vn -0.00040453067 1 0
vn -0.00080906134 0.99999976 0
vn 0.00080906134 0.99999976 0
vn -0.00080906134 0.99999976 0
vn -0.00040453067 1 0
vn 0.00080906134 0.99999976 0
vn -0 1 0.00040453073
vn -0 1 0.00040453073
vn 0.00081037247 0.99999964 0
vn 0.2241358 0.97455794 0
vn 0.22413582 0.97455794 0
vn 0.2241358 0.97455794 0
vn 0.22413582 0.97455794 0
vn -0.006606808 -0.9999782 0
vn -0.006606808 -0.9999782 0
vn -0.002210921 -0.9999976 1.1561874E-07
vn -0.0022109204 -0.9999976 1.1561874E-07
vn -0.0022109207 -0.9999976 1.1561875E-07
vn -0.002210921 -0.9999976 1.15618725E-07
vn 0.0034845683 -0.9999939 2.566923E-07
vn 0.003484569 -0.9999939 2.566923E-07
vn -0.20729043 -0.9782794 0
vn -0.20729043 -0.9782794 0
vn -0.20729043 -0.9782794 0
vn -0.20729044 -0.9782794 0
vn -0.9998895 -0.014869757 9.3498403E-07
vn -0.9998895 -0.014869757 9.3498403E-07
vn -0.9998895 -0.01486976 9.3498414E-07
vn -0.9998895 -0.01486976 9.3498414E-07
vn -0.9999937 -0.0035558075 9.356521E-07
vn -0.9999937 -0.0035558078 9.356521E-07
vn -0.7667304 -0.6419693 0
vn -0.7667303 -0.64196926 0
vn -0.7667303 -0.64196926 0
vn -0.7667303 -0.6419693 0
vn 0.8924288 0.45118812 0
vn 0.8924288 0.45118806 0
vn 0.8924288 0.45118812 0
vn 0.8924288 0.45118812 0
vn 0.9991147 0.04206969 0
vn 0.9991147 0.042069685 0
vn 0.9991147 0.042069685 0
vn 0.9991147 0.042069685 0
vn 0.9999993 0.0012529421 0
vn 0.9999993 0.001252942 0
vn -0.22413872 0.9745573 -9.115753E-07
vn -0.22413872 0.9745573 -9.1157534E-07
vn -0.22413872 0.9745573 -9.1157534E-07
vn -0.22413872 0.9745573 -9.115753E-07
vn 0.0022109204 -0.9999976 1.15618725E-07
vn 0.006606808 -0.9999782 0
vn 0.006606808 -0.9999782 0
vn 0.0022109204 -0.9999976 1.15618725E-07
vn 0.0022109204 -0.9999976 1.15618725E-07
vn 0.0022109204 -0.9999976 1.15618725E-07
vn -0.0034845737 -0.9999939 2.5714616E-07
vn -0.0034845741 -0.9999939 2.5714618E-07
vn 0.20729718 -0.97827804 -4.5778447E-07
vn 0.20729719 -0.97827804 -4.5778447E-07
vn 0.20729719 -0.97827804 -4.5778447E-07
vn 0.20729718 -0.97827804 -4.5778447E-07
vn 0.9998895 -0.014870363 1.0947884E-07
vn 0.9998895 -0.014870363 1.0947884E-07
vn 0.9998895 -0.014870362 1.0947884E-07
vn 0.9998895 -0.014870364 1.0947885E-07
vn 0.9999937 -0.0035558988 1.1763432E-07
vn 0.9999937 -0.0035558988 1.17634336E-07
vn 0.7667303 -0.64196926 -3.0037765E-07
vn 0.7667303 -0.64196926 -3.0037765E-07
vn 0.7667304 -0.6419693 -3.0037768E-07
vn 0.7667303 -0.6419693 -3.003777E-07
vn -0.89242905 0.45118785 -6.307465E-07
vn -0.89242905 0.45118785 -6.307465E-07
vn -0.89242905 0.45118785 -6.3074646E-07
vn -0.89242905 0.45118785 -6.307465E-07
vn -0.9991147 0.042069055 0
vn -0.9991147 0.042069055 0
vn -0.9991147 0.042069048 0
vn -0.9991147 0.04206905 0
vn -0.9999993 0.001253052 0
vn -0.9999993 0.001253052 0
vn 2.1435078E-06 -1 -4.6771274E-07
vn 2.1435078E-06 -1 -4.6771274E-07
vn 2.1435078E-06 -1 -4.6771274E-07
vn 2.1435078E-06 -1 -4.6771274E-07
g [gimmick]snow_entrance_wall_0
f 3/3/3 2/2/2 1/1/1
f 4/4/4 3/3/3 1/1/1
f 3/3/3 4/4/4 5/5/5
f 6/6/6 3/3/3 5/5/5
f 9/9/9 8/8/8 7/7/7
f 8/8/8 10/10/10 7/7/7
f 8/8/8 11/11/11 10/10/10
f 12/12/12 7/7/7 10/10/10
f 11/11/11 13/13/13 10/10/10
f 11/11/11 14/14/14 13/13/13
f 14/14/14 15/15/15 13/13/13
f 14/14/14 16/16/16 15/15/15
f 16/16/16 17/17/17 15/15/15
f 13/13/13 18/18/18 10/10/10
f 13/13/13 15/15/15 18/18/18
f 15/15/15 17/17/17 19/19/19
f 15/15/15 19/19/19 18/18/18
f 17/17/17 20/20/20 19/19/19
f 20/20/20 21/21/21 19/19/19
f 21/21/21 22/22/22 19/19/19
f 19/19/19 22/22/22 18/18/18
f 22/22/22 23/23/23 18/18/18
f 18/18/18 24/24/24 10/10/10
f 18/18/18 23/23/23 24/24/24
f 24/24/24 12/12/12 10/10/10
f 23/23/23 25/25/25 24/24/24
f 25/25/25 26/26/26 24/24/24
f 26/26/26 12/12/12 24/24/24
f 12/12/12 26/26/26 27/27/27
f 12/12/12 27/27/27 28/28/28
f 29/29/29 12/12/12 28/28/28
f 26/26/26 30/30/30 27/27/27
f 26/26/26 31/31/31 30/30/30
f 31/31/31 32/32/32 30/30/30
f 35/35/35 34/34/34 33/33/33
f 34/34/34 36/36/36 33/33/33
f 36/36/36 34/34/34 37/37/37
f 38/38/38 36/36/36 37/37/37
f 38/38/38 39/39/39 36/36/36
f 39/39/39 40/40/40 36/36/36
f 36/36/36 40/40/40 33/33/33
f 40/40/40 39/39/39 41/41/41
f 42/42/42 40/40/40 41/41/41
f 42/42/42 41/41/41 43/43/43
f 44/44/44 42/42/42 43/43/43
f 44/44/44 45/45/45 42/42/42
f 45/45/45 46/46/46 42/42/42
f 42/42/42 46/46/46 40/40/40
f 45/45/45 47/47/47 46/46/46
f 47/47/47 48/48/48 46/46/46
f 46/46/46 49/49/49 40/40/40
f 46/46/46 48/48/48 49/49/49
f 40/40/40 49/49/49 33/33/33
f 48/48/48 50/50/50 49/49/49
f 49/49/49 50/50/50 33/33/33
f 50/50/50 51/51/51 33/33/33
f 54/54/54 53/53/53 52/52/52
f 55/55/55 54/54/54 52/52/52
f 58/58/58 57/57/57 56/56/56
f 59/59/59 58/58/58 56/56/56
f 62/62/62 61/61/61 60/60/60
f 63/63/63 62/62/62 60/60/60
f 66/66/66 65/65/65 64/64/64
f 67/67/67 66/66/66 64/64/64
f 68/68/68 66/66/66 67/67/67
f 69/69/69 68/68/68 67/67/67
f 70/70/70 68/68/68 69/69/69
f 71/71/71 70/70/70 69/69/69
f 74/74/74 73/73/73 72/72/72
f 75/75/75 74/74/74 72/72/72
f 78/78/78 77/77/77 76/76/76
f 77/77/77 79/79/79 76/76/76
f 76/76/76 79/79/79 80/80/80
f 79/79/79 81/81/81 80/80/80
f 84/84/84 83/83/83 82/82/82
f 85/85/85 84/84/84 82/82/82
f 88/88/88 87/87/87 86/86/86
f 89/89/89 88/88/88 86/86/86
f 92/92/92 91/91/91 90/90/90
f 93/93/93 92/92/92 90/90/90
f 94/94/94 92/92/92 93/93/93
f 95/95/95 94/94/94 93/93/93
f 98/98/98 97/97/97 96/96/96
f 99/99/99 98/98/98 96/96/96
f 102/102/102 101/101/101 100/100/100
f 101/101/101 103/103/103 100/100/100
f 100/100/100 103/103/103 104/104/104
f 103/103/103 105/105/105 104/104/104
f 104/104/104 105/105/105 106/106/106
f 105/105/105 107/107/107 106/106/106
f 110/110/110 109/109/109 108/108/108
f 111/111/111 110/110/110 108/108/108
f 114/114/114 113/113/113 112/112/112
f 115/115/115 114/114/114 112/112/112
f 116/116/116 114/114/114 115/115/115
f 117/117/117 116/116/116 115/115/115
f 120/120/120 119/119/119 118/118/118
f 121/121/121 120/120/120 118/118/118
f 124/124/124 123/123/123 122/122/122
f 125/125/125 124/124/124 122/122/122
f 128/128/128 127/127/127 126/126/126
f 127/127/127 129/129/129 126/126/126
f 126/126/126 129/129/129 130/130/130
f 129/129/129 131/131/131 130/130/130
f 134/134/134 133/133/133 132/132/132
f 135/135/135 134/134/134 132/132/132
