g [GIMMICK]linked_door_2_glow
v -0.3229567 1.1032653 -0.0612585
v -0.32296035 1.103262 0.0527497
v -0.3214489 0.45893338 0.05274973
v -0.32144916 0.4589333 -0.061258357
v -0.32624823 0.22584082 -0.06125834
v -0.32624793 0.22584091 0.05274977
v 0.044376098 1.1032627 -0.3298236
v -0.05329473 1.1032664 -0.32981995
v -0.05329552 0.4747353 -0.3283017
v 0.044375326 0.47478452 -0.32830146
v 0.044375375 0.24169214 -0.32830137
v -0.053295504 0.24164289 -0.32830164
v 0.32975328 1.103267 0.05274959
v 0.32975665 1.1032645 -0.061258707
v 0.32828486 0.4746878 -0.06125856
v 0.3282851 0.47483706 0.05274979
v 0.32828513 0.24174468 0.05274985
v 0.3282849 0.24159533 -0.061258506
v -0.053332344 1.1032652 0.33107835
v 0.05742165 1.1032665 0.3310749
v 0.053789522 0.474787 0.32950014
v -0.05696512 0.47472936 0.32948533
v -0.05696512 0.24163678 0.3294854
v 0.053789522 0.2416944 0.32950008
v -0.31464452 1.1262244 -0.06127927
v -0.3141543 1.1262248 0.05271629
v -0.32296035 1.103262 0.0527497
v -0.3229567 1.1032653 -0.0612585
v 0.044360436 1.1262248 -0.32095724
v -0.053684987 1.1262244 -0.3211948
v -0.05329473 1.1032664 -0.32981995
v 0.044376098 1.1032627 -0.3298236
v 0.32113275 1.1262249 0.052748896
v 0.3215761 1.1262248 -0.061290745
v 0.32975665 1.1032645 -0.061258707
v 0.32975328 1.103267 0.05274959
v -0.053338367 1.1262249 0.32224384
v 0.057352837 1.126225 0.3221889
v 0.05742165 1.1032665 0.3310749
v -0.053332344 1.1032652 0.33107835
v -0.3141543 1.1262248 0.05271629
v -0.31464452 1.1262244 -0.06127927
v -0.25115085 1.1262246 -0.061018985
v -0.25115737 1.1262246 0.05298068
v -0.16118492 1.1262246 0.0002738096
v -0.088623166 1.1262246 0.08051468
v -0.07647177 1.1262246 0.19941522
v 0.05538813 1.1262248 0.05543414
v -0.009609807 1.1262248 -0.00038844236
v -0.032662384 1.1262246 -0.12430555
v -0.053708173 1.1262246 -0.22449428
v 0.044344537 1.1262246 -0.22450694
v 0.029878424 1.1262248 -0.12432349
v 0.15873392 1.1262248 0.00027674466
v 0.044360436 1.1262248 -0.32095724
v -0.053684987 1.1262244 -0.3211948
v 0.24618874 1.1262246 -0.05970796
v 0.2461831 1.1262246 0.05432813
v 0.32113275 1.1262249 0.052748896
v 0.3215761 1.1262248 -0.061290745
v 0.057368483 1.1262249 0.2759778
v 0.035217304 1.1262248 0.13332939
v -0.053415973 1.1262246 0.21733996
v -0.053338367 1.1262249 0.32224384
v 0.057352837 1.126225 0.3221889
vt 0.6005055 0.6464167
vt 0.6005055 0.6464167
vt 0.6005055 0.6213338
vt 0.6005055 0.6213338
vt 0.6005055 0.6122598
vt 0.6005055 0.6122598
vt 0.6005055 0.6464167
vt 0.6005055 0.6464167
vt 0.6005055 0.621949
vt 0.6005055 0.6219508
vt 0.6005055 0.61287695
vt 0.6005055 0.61287504
vt 0.6005055 0.6464167
vt 0.6005055 0.6464167
vt 0.6005055 0.6219472
vt 0.6005055 0.62195295
vt 0.6005055 0.6128791
vt 0.6005055 0.61287314
vt 0.6005055 0.6464167
vt 0.6005055 0.6464167
vt 0.6005055 0.6219509
vt 0.6005055 0.6219488
vt 0.6005055 0.6128748
vt 0.6005055 0.6128771
vt 0.6005055 0.64731044
vt 0.6005055 0.64731055
vt 0.6005055 0.6464167
vt 0.6005055 0.6464167
vt 0.6145785 0.6482684
vt 0.61640215 0.648282
vt 0.6163949 0.6487767
vt 0.6145781 0.6487769
vt 0.6005055 0.64731055
vt 0.6005055 0.64731055
vt 0.6005055 0.6464167
vt 0.6005055 0.6464167
vt 0.6005055 0.64731055
vt 0.6005055 0.64731055
vt 0.6005055 0.6464167
vt 0.6005055 0.6464167
vt 0.6212472 0.62683827
vt 0.62125623 0.63337594
vt 0.6200752 0.633361
vt 0.62007535 0.62682307
vt 0.61840177 0.62984586
vt 0.6170521 0.62524396
vt 0.61682606 0.6184251
vt 0.6143733 0.62668234
vt 0.61558235 0.6298839
vt 0.61601114 0.6369905
vt 0.6164026 0.6427363
vt 0.6145787 0.642737
vt 0.6148479 0.6369915
vt 0.6124511 0.6298456
vt 0.6145785 0.6482684
vt 0.61640215 0.648282
vt 0.61082435 0.6332858
vt 0.61082447 0.6267458
vt 0.6094303 0.6268364
vt 0.6094221 0.6333766
vt 0.6143365 0.61403424
vt 0.6147486 0.62221515
vt 0.61639714 0.6173972
vt 0.6163957 0.61138093
vt 0.61433685 0.61138403
vn -0.99999726 -0.002342732 -1.4689914E-05
vn -0.99999726 -0.0023427322 -1.4689915E-05
vn -0.99999726 -0.002342732 -1.4689914E-05
vn -0.99999726 -0.0023427322 -1.4689915E-05
vn -0.9997881 0.020584214 2.5131817E-06
vn -0.9997881 0.020584214 2.513182E-06
vn -1.6936872E-05 -0.0024187737 -0.99999714
vn -1.693687E-05 -0.0024187737 -0.99999714
vn -1.6936872E-05 -0.0024187737 -0.99999714
vn -1.693687E-05 -0.0024187737 -0.99999714
vn 2.556578E-06 -2.4720205E-07 -1
vn 2.556578E-06 -2.4720205E-07 -1
vn 0.99999726 -0.0023388653 1.537242E-05
vn 0.99999726 -0.0023388653 1.537242E-05
vn 0.99999726 -0.0023388653 1.537242E-05
vn 0.99999726 -0.002338865 1.5372418E-05
vn 1 1.648011E-07 -2.0218572E-06
vn 1 1.648011E-07 -2.0218572E-06
vn -5.048821E-05 -0.0025198054 0.9999969
vn -5.0488205E-05 -0.0025198052 0.9999969
vn -5.048821E-05 -0.0025198054 0.9999969
vn -5.0488197E-05 -0.0025198052 0.9999969
vn -0.00013318607 0 1
vn -0.00013318605 0 1
vn -0.93701226 0.34929073 0.0020041813
vn -0.93701226 0.34929076 0.0020041815
vn -0.93701226 0.34929073 0.0020041813
vn -0.93701226 0.34929076 0.0020041813
vn 0.0011228358 0.35597017 -0.93449664
vn 0.0011228358 0.35597017 -0.93449664
vn 0.0011228358 0.35597014 -0.93449664
vn 0.0011228358 0.35597017 -0.93449664
vn 0.93910944 0.34361342 0.0018354265
vn 0.93910944 0.34361345 0.0018354265
vn 0.93910944 0.34361342 0.0018354263
vn 0.93910944 0.3436134 0.0018354265
vn 0.00024353644 0.36003542 0.93293864
vn 0.00024353647 0.36003545 0.93293864
vn 0.00024353647 0.36003545 0.93293864
vn 0.00024353644 0.36003542 0.93293864
vn -1.2063861E-06 1 -2.0192726E-06
vn -1.2063861E-06 1 -2.0192726E-06
vn -0 1 0
vn -0 1 -4.1575706E-07
vn -0 1 -4.1575706E-07
vn -0 1 -4.1575706E-07
vn -0 1 -4.1575709E-07
vn -4.953908E-07 1 2.1874077E-07
vn -4.953908E-07 1 2.1874077E-07
vn -0 1 0
vn -0 1 0
vn 5.3924435E-07 1 -6.162005E-07
vn 5.392443E-07 1 -6.162005E-07
vn 3.01304E-07 1 -1.6788545E-07
vn -1.9584609E-06 1 -3.9815802E-07
vn -1.9584609E-06 1 -3.9815805E-07
vn 5.3924435E-07 1 -6.162005E-07
vn 3.0130403E-07 1 -1.6788545E-07
vn -2.0584096E-06 1 -6.777582E-07
vn -2.0584096E-06 1 -6.777582E-07
vn 3.0130403E-07 1 -1.6788546E-07
vn 3.0130403E-07 1 -1.6788546E-07
vn -1.2005902E-06 1 -3.521491E-07
vn -8.497387E-07 1 -2.033282E-06
vn -8.4973874E-07 1 -2.0332823E-06
g [GIMMICK]linked_door_2_glow_0
f 3/3/3 2/2/2 1/1/1
f 4/4/4 3/3/3 1/1/1
f 4/4/4 5/5/5 3/3/3
f 5/5/5 6/6/6 3/3/3
f 9/9/9 8/8/8 7/7/7
f 10/10/10 9/9/9 7/7/7
f 10/10/10 11/11/11 9/9/9
f 11/11/11 12/12/12 9/9/9
f 15/15/15 14/14/14 13/13/13
f 16/16/16 15/15/15 13/13/13
f 16/16/16 17/17/17 15/15/15
f 17/17/17 18/18/18 15/15/15
f 21/21/21 20/20/20 19/19/19
f 22/22/22 21/21/21 19/19/19
f 22/22/22 23/23/23 21/21/21
f 23/23/23 24/24/24 21/21/21
f 27/27/27 26/26/26 25/25/25
f 28/28/28 27/27/27 25/25/25
f 31/31/31 30/30/30 29/29/29
f 32/32/32 31/31/31 29/29/29
f 35/35/35 34/34/34 33/33/33
f 36/36/36 35/35/35 33/33/33
f 39/39/39 38/38/38 37/37/37
f 40/40/40 39/39/39 37/37/37
f 43/43/43 42/42/42 41/41/41
f 44/44/44 43/43/43 41/41/41
f 45/45/45 43/43/43 44/44/44
f 45/45/45 44/44/44 46/46/46
f 44/44/44 47/47/47 46/46/46
f 47/47/47 48/48/48 46/46/46
f 48/48/48 49/49/49 46/46/46
f 43/43/43 45/45/45 50/50/50
f 51/51/51 43/43/43 50/50/50
f 51/51/51 50/50/50 52/52/52
f 50/50/50 53/53/53 52/52/52
f 53/53/53 54/54/54 52/52/52
f 51/51/51 52/52/52 55/55/55
f 56/56/56 51/51/51 55/55/55
f 54/54/54 57/57/57 52/52/52
f 58/58/58 57/57/57 54/54/54
f 57/57/57 58/58/58 59/59/59
f 60/60/60 57/57/57 59/59/59
f 61/61/61 58/58/58 54/54/54
f 62/62/62 61/61/61 54/54/54
f 61/61/61 62/62/62 63/63/63
f 61/61/61 63/63/63 64/64/64
f 65/65/65 61/61/61 64/64/64
