g [gimmick]keydoor_market_key
v -0.15814783 0.14103378 0.10322806
v -0.12797022 0.12360909 0.15670383
v -0.14608836 0.14103353 0.16789408
v -0.060588177 0.14103396 -0.052711397
v -0.07397641 0.12360936 -0.02204266
v -0.11192449 0.1410338 -0.016149784
v 0.1456678 0.14103353 0.16789408
v 0.1261386 0.12360909 0.15670379
v 0.15772742 0.14103378 0.103228025
v 0.11150405 0.1410338 -0.016149784
v 0.07214687 0.12360936 -0.02204262
v 0.060167696 0.14103396 -0.05271144
v 0.060167696 0.14103352 0.25910264
v -0.00021023983 0.14103352 0.27200964
v -0.0009147526 0.12360915 0.24909201
v -0.060588177 0.14103352 0.2591028
v -0.0009147526 0.12360915 0.24909201
v -0.00021023983 0.14103352 0.27200964
v -0.46534175 -0.00062388583 -0.46622714
v -0.44704458 0.16317236 -0.45071173
v -0.44704458 0.16317205 0.45019656
v -0.46534175 -0.0006241849 0.4658541
v -0.44130695 -0.00062419096 0.4912384
v -0.4239518 0.16317205 0.4752047
v 0.4239516 0.16317175 0.4752047
v 0.44130674 -0.00062442146 0.4912384
v 0.4653415 -0.0006244154 0.4658541
v 0.4470444 0.16317175 0.45019656
v 0.4470444 0.16317205 -0.45071173
v 0.4653415 -0.00062411634 -0.46622714
v -0.44704458 0.16317205 0.45019656
v -0.4239518 0.16317205 0.4752047
v -0.44130695 -0.00062419096 0.4912384
v -0.46534175 -0.0006241849 0.4658541
v 0.4239516 0.16317175 0.4752047
v 0.4470444 0.16317175 0.45019656
v 0.4653415 -0.0006244154 0.4658541
v 0.44130674 -0.00062442146 0.4912384
v -0.32164514 0.16317235 -0.39818594
v -0.2936031 0.13936597 -0.36352345
v -0.2936031 0.13936584 0.36315098
v -0.32164514 0.16317216 0.39781386
v 0.32164487 0.16317204 -0.39818594
v 0.29366133 0.13936573 -0.36352345
v -0.2936031 0.13936597 -0.36352345
v -0.32164514 0.16317235 -0.39818594
v 0.32164487 0.16317192 0.39781386
v 0.29366133 0.13936552 0.36315098
v 0.29366133 0.13936573 -0.36352345
v 0.32164487 0.16317204 -0.39818594
v -0.32164514 0.16317216 0.39781386
v -0.2936031 0.13936584 0.36315098
v 0.29366133 0.13936552 0.36315098
v 0.32164487 0.16317192 0.39781386
v 0.4470444 0.16317205 -0.45071173
v 0.4239492 0.16317129 -0.4757211
v 0.44224387 -0.00062587747 -0.49123818
v 0.4653415 -0.00062411634 -0.46622714
v 0.4239492 0.16317129 -0.4757211
v -0.4239506 0.16317329 -0.4757212
v -0.44224715 -0.00062341895 -0.49123648
v 0.44224387 -0.00062587747 -0.49123818
v -0.46534175 -0.00062388583 -0.46622714
v -0.44224715 -0.00062341895 -0.49123648
v -0.4239506 0.16317329 -0.4757212
v -0.44704458 0.16317236 -0.45071173
v -0.11180299 0.14103374 0.22247626
v -0.14608836 0.14103353 0.16789408
v -0.12797022 0.12360909 0.15670383
v -0.07471807 0.12360899 0.22230923
v -0.14615014 0.14103365 0.038627498
v -0.11192449 0.1410338 -0.016149784
v -0.07397641 0.12360936 -0.02204266
v -0.1280238 0.12360926 0.04370429
v -0.15814783 0.14103378 0.10322806
v -0.14615014 0.14103365 0.038627498
v -0.1280238 0.12360926 0.04370429
v -0.12797022 0.12360909 0.15670383
v -0.039303746 0.14103405 -0.06269819
v -0.0793052 0.14103372 -0.30335125
v -0.05615255 0.123609416 -0.2792214
v -0.024209732 0.12360938 -0.051685285
v -0.060588177 0.14103396 -0.052711397
v -0.039303746 0.14103405 -0.06269819
v -0.024209732 0.12360938 -0.051685285
v -0.07397641 0.12360936 -0.02204266
v -0.0793052 0.14103372 -0.30335125
v -7.90176E-05 0.14103372 -0.3033515
v -0.0010813157 0.123609416 -0.27921572
v -0.05615255 0.123609416 -0.2792214
v 0.1456678 0.14103353 0.16789408
v 0.11138255 0.14103374 0.22247611
v 0.07288846 0.12360899 0.22230923
v 0.1261386 0.12360909 0.15670379
v 0.11150405 0.1410338 -0.016149784
v 0.14572969 0.14103365 0.038627498
v 0.1261923 0.12360926 0.043704215
v 0.07214687 0.12360936 -0.02204262
v 0.14572969 0.14103365 0.038627498
v 0.15772742 0.14103378 0.103228025
v 0.1261386 0.12360909 0.15670379
v 0.1261923 0.12360926 0.043704215
v 0.038883306 0.14103405 -0.06269823
v 0.060167696 0.14103396 -0.05271144
v 0.07214687 0.12360936 -0.02204262
v 0.022378191 0.12360938 -0.051685248
v 0.07914713 0.14103372 -0.30335125
v 0.038883306 0.14103405 -0.06269823
v 0.022378191 0.12360938 -0.051685248
v 0.05398988 0.123609416 -0.2792214
v -7.90176E-05 0.14103372 -0.3033515
v 0.07914713 0.14103372 -0.30335125
v 0.05398988 0.123609416 -0.2792214
v -0.0010813157 0.123609416 -0.27921572
v -0.0009147526 0.12360915 0.24909201
v -0.07471807 0.12360899 0.22230923
v 0.07288846 0.12360899 0.22230923
v 0.1261386 0.12360909 0.15670379
v -0.12797022 0.12360909 0.15670383
v 0.1261923 0.12360926 0.043704215
v -0.1280238 0.12360926 0.04370429
v 0.07214687 0.12360936 -0.02204262
v -0.07397641 0.12360936 -0.02204266
v 0.022378191 0.12360938 -0.051685248
v -0.024209732 0.12360938 -0.051685285
v 0.05398988 0.123609416 -0.2792214
v -0.05615255 0.123609416 -0.2792214
v -0.0010813157 0.123609416 -0.27921572
v 0.05398988 0.123609416 -0.2792214
v 0.11138255 0.14103374 0.22247611
v 0.060167696 0.14103352 0.25910264
v -0.0009147526 0.12360915 0.24909201
v 0.07288846 0.12360899 0.22230923
v -0.07471807 0.12360899 0.22230923
v -0.0009147526 0.12360915 0.24909201
v -0.060588177 0.14103352 0.2591028
v -0.11180299 0.14103374 0.22247626
v 0.5505024 0.14596286 -0.33313164
v 0.5505024 0.14596312 0.30159682
v 0.44580534 0.14596324 0.36474878
v 0.44580534 0.1459631 -0.39958984
v 0.4477554 3.1276112E-08 0.38211694
v 0.44580534 0.14596324 0.36474878
v 0.5505024 0.14596312 0.30159682
v 0.5794735 -3.3612253E-08 0.30159676
v 0.5794735 -3.3612253E-08 0.30159676
v 0.5505024 0.14596312 0.30159682
v 0.5505024 0.14596286 -0.33313164
v 0.5794735 3.8414E-08 -0.3331321
v 0.5505024 0.14596286 -0.33313164
v 0.44580534 0.1459631 -0.39958984
v 0.45698482 -2.7836286E-08 -0.4109723
v 0.5794735 3.8414E-08 -0.3331321
v -0.54674244 0.14596295 -0.33313164
v -0.44214123 0.14596319 -0.39958993
v -0.44214123 0.14596324 0.36474878
v -0.5467424 0.14596318 0.30159682
v -0.4477596 1.0810411E-07 0.38211694
v -0.5795732 -3.3612253E-08 0.30159676
v -0.5467424 0.14596318 0.30159682
v -0.44214123 0.14596324 0.36474878
v -0.5795732 -3.3612253E-08 0.30159676
v -0.5795732 3.8414E-08 -0.3331321
v -0.54674244 0.14596295 -0.33313164
v -0.5467424 0.14596318 0.30159682
v -0.54674244 0.14596295 -0.33313164
v -0.5795732 3.8414E-08 -0.3331321
v -0.45698887 -2.7836286E-08 -0.4109723
v -0.44214123 0.14596319 -0.39958993
v -0.0793052 0.14103372 -0.30335125
v -0.039303746 0.14103405 -0.06269819
v -0.29360387 0.1393661 -0.36352333
v -0.060588177 0.14103396 -0.052711397
v -0.11192449 0.1410338 -0.016149784
v -0.14615014 0.14103365 0.038627498
v -0.0001013239 0.14103359 -0.36352322
v -7.90176E-05 0.14103372 -0.3033515
v 0.07914713 0.14103372 -0.30335125
v -0.29360387 0.13936585 0.36315086
v 0.2936595 0.13936579 -0.36352333
v -0.15814783 0.14103378 0.10322806
v 0.038883306 0.14103405 -0.06269823
v -0.14608836 0.14103353 0.16789408
v -0.11180299 0.14103374 0.22247626
v -0.060588177 0.14103352 0.2591028
v 0.060167696 0.14103396 -0.05271144
v 0.11150405 0.1410338 -0.016149784
v 0.14572969 0.14103365 0.038627498
v 0.006462782 0.13936476 0.36315152
v -0.00021023983 0.14103352 0.27200964
v 0.060167696 0.14103352 0.25910264
v 0.2936595 0.13936561 0.36315143
v 0.15772742 0.14103378 0.103228025
v 0.11138255 0.14103374 0.22247611
v 0.1456678 0.14103353 0.16789408
v -0.32164514 0.16317235 -0.39818594
v -0.44704458 0.16317205 0.45019656
v -0.44704458 0.16317236 -0.45071173
v -0.4239506 0.16317329 -0.4757212
v -0.32164514 0.16317216 0.39781386
v -0.4239518 0.16317205 0.4752047
v 0.32164487 0.16317204 -0.39818594
v 0.4239492 0.16317129 -0.4757211
v 0.4470444 0.16317205 -0.45071173
v 0.32164487 0.16317192 0.39781386
v 0.4239516 0.16317175 0.4752047
v 0.4470444 0.16317175 0.45019656
vt 0.17612994 0.9536449
vt 0.18077572 0.9556613
vt 0.17612994 0.9556613
vt 0.17612994 0.9487176
vt 0.18077572 0.9493158
vt 0.17612994 0.949914
vt 0.17612994 0.9556613
vt 0.18077572 0.9536449
vt 0.17612994 0.9536449
vt 0.17612994 0.949914
vt 0.18077572 0.9493158
vt 0.17612994 0.9487176
vt 0.17612994 0.95738316
vt 0.17612994 0.95738316
vt 0.18077572 0.95738316
vt 0.17612994 0.95738316
vt 0.18077572 0.95738316
vt 0.17612994 0.95738316
vt 0.16723233 0.9225825
vt 0.16585687 0.9227284
vt 0.16585687 0.9393194
vt 0.16723233 0.9393194
vt 0.16664024 0.94236135
vt 0.1666397 0.93977475
vt 0.14710815 0.9397749
vt 0.14711104 0.94236135
vt 0.14534412 0.9393194
vt 0.14668997 0.9393194
vt 0.14668997 0.9227284
vt 0.14534412 0.9225825
vt 0.16609845 0.9393835
vt 0.16609845 0.94032717
vt 0.16723233 0.94032717
vt 0.16723233 0.9393835
vt 0.1463838 0.94032717
vt 0.1463838 0.9393835
vt 0.14534412 0.9393835
vt 0.14534412 0.94032717
vt 0.14669287 0.93187463
vt 0.1449722 0.93187463
vt 0.1449722 0.92643136
vt 0.14669284 0.9264313
vt 0.14669284 0.93589
vt 0.1449722 0.93588996
vt 0.1449722 0.93229884
vt 0.14669287 0.9322988
vt 0.14669278 0.93187195
vt 0.14497218 0.93187195
vt 0.1449722 0.9264287
vt 0.14669284 0.92642874
vt 0.14669284 0.93588996
vt 0.1449722 0.93588996
vt 0.14497218 0.93229616
vt 0.14669278 0.93229616
vt 0.14668997 0.9227284
vt 0.1469471 0.9227284
vt 0.14560126 0.9225825
vt 0.14534412 0.9225825
vt 0.1469471 0.9227284
vt 0.1469471 0.9227284
vt 0.14560126 0.9225825
vt 0.14560126 0.9225825
vt 0.16723233 0.9225825
vt 0.16723233 0.9225825
vt 0.16585687 0.9227284
vt 0.16585687 0.9227284
vt 0.17612994 0.95738316
vt 0.17612994 0.9556613
vt 0.18077572 0.9556613
vt 0.18077572 0.95738316
vt 0.17612994 0.95163643
vt 0.17612994 0.949914
vt 0.18077572 0.9493158
vt 0.18077572 0.95163643
vt 0.17612994 0.9536449
vt 0.17612994 0.95163643
vt 0.18077572 0.95163643
vt 0.18077572 0.9556613
vt 0.17612994 0.94834566
vt 0.17612994 0.9438379
vt 0.18077572 0.9438379
vt 0.18077572 0.94834566
vt 0.17612994 0.9487176
vt 0.17612994 0.94834566
vt 0.18077572 0.94834566
vt 0.18077572 0.9493158
vt 0.17612994 0.9431637
vt 0.17612994 0.94296736
vt 0.18057923 0.94296736
vt 0.18057923 0.9431637
vt 0.17612994 0.9556613
vt 0.17612994 0.95738316
vt 0.18077572 0.95738316
vt 0.18077572 0.9536449
vt 0.17612994 0.949914
vt 0.17612994 0.95163643
vt 0.18077572 0.95163643
vt 0.18077572 0.9493158
vt 0.17612994 0.95163643
vt 0.17612994 0.9536449
vt 0.18077572 0.9536449
vt 0.18077572 0.95163643
vt 0.17612994 0.94834566
vt 0.17612994 0.9487176
vt 0.18077572 0.9493158
vt 0.18077572 0.94834566
vt 0.17612994 0.9438379
vt 0.17612994 0.94834566
vt 0.18077572 0.94834566
vt 0.18077572 0.9438379
vt 0.17612994 0.94296736
vt 0.17612994 0.9431637
vt 0.18057923 0.9431637
vt 0.18057923 0.94296736
vt 0.18114424 0.95890737
vt 0.18221587 0.9579494
vt 0.18114424 0.9579494
vt 0.18114424 0.9536449
vt 0.18221587 0.9556613
vt 0.18114424 0.95163643
vt 0.18221587 0.95163643
vt 0.18114424 0.9493158
vt 0.18221587 0.9493158
vt 0.18114424 0.94834566
vt 0.18221587 0.94834566
vt 0.18114424 0.9438379
vt 0.18221587 0.9438379
vt 0.18114424 0.9438379
vt 0.18114424 0.9438379
vt 0.17612994 0.95738316
vt 0.17612994 0.95738316
vt 0.18077572 0.95738316
vt 0.18077572 0.95738316
vt 0.18077572 0.95738316
vt 0.18077572 0.95738316
vt 0.17612994 0.95738316
vt 0.17612994 0.95738316
vt 0.1860914 0.94392747
vt 0.1860914 0.95552826
vt 0.19071074 0.95552826
vt 0.19071074 0.94392747
vt 0.191346 0.9588243
vt 0.191346 0.9564445
vt 0.18693097 0.9564445
vt 0.18693505 0.9588243
vt 0.18393335 0.95552826
vt 0.18543339 0.95552826
vt 0.18543339 0.94392747
vt 0.18393335 0.94392747
vt 0.18543339 0.9429893
vt 0.18543339 0.9428118
vt 0.18393335 0.9428118
vt 0.18393335 0.9429893
vt 0.1860914 0.94392747
vt 0.19071074 0.94392747
vt 0.19071074 0.95552826
vt 0.1860914 0.95552826
vt 0.191346 0.9588243
vt 0.18693505 0.9588243
vt 0.18693097 0.9564445
vt 0.191346 0.9564445
vt 0.18393335 0.95552826
vt 0.18393335 0.94392747
vt 0.18543339 0.94392747
vt 0.18543339 0.95552826
vt 0.18543339 0.9429893
vt 0.18393335 0.9429893
vt 0.18393335 0.9428118
vt 0.18543339 0.9428118
vt 0.13040115 0.9152541
vt 0.12959655 0.9211419
vt 0.1395881 0.91490257
vt 0.13062842 0.9214246
vt 0.1331174 0.9226234
vt 0.13477676 0.92434776
vt 0.12770109 0.9144261
vt 0.12770109 0.9152541
vt 0.12500109 0.9152541
vt 0.1395881 0.93538743
vt 0.11336038 0.91490257
vt 0.13535841 0.927062
vt 0.12580569 0.9211419
vt 0.13477375 0.929283
vt 0.13311143 0.9308386
vt 0.13062839 0.9318824
vt 0.12477378 0.9214246
vt 0.12228481 0.9226234
vt 0.12062547 0.9243344
vt 0.12770109 0.93538743
vt 0.12770109 0.93225026
vt 0.12477381 0.9318824
vt 0.11336038 0.93538743
vt 0.12004382 0.92704016
vt 0.12229074 0.9308386
vt 0.120628454 0.929283
vt 0.1501784 0.9248903
vt 0.14777797 0.93751836
vt 0.14777797 0.9241084
vt 0.14822008 0.9237361
vt 0.1501784 0.9367386
vt 0.14822008 0.93789065
vt 0.16249233 0.9248903
vt 0.16445068 0.9237361
vt 0.16489278 0.9241084
vt 0.16249233 0.9367386
vt 0.16445073 0.93789065
vt 0.16489278 0.93751836
vn 0.64828646 0.7517373 -0.12089499
vn 0.64828646 0.75173736 -0.120895
vn 0.64828646 0.75173736 -0.12089499
vn 0.41268298 0.70279914 0.5794532
vn 0.412683 0.70279914 0.57945323
vn 0.41268298 0.70279914 0.5794532
vn -0.6233266 0.77327347 -0.1162416
vn -0.6233266 0.7732735 -0.1162416
vn -0.62332654 0.7732735 -0.1162416
vn -0.40311664 0.71910864 0.56602097
vn -0.4031166 0.71910864 0.5660209
vn -0.40311664 0.71910864 0.56602097
vn -0.1277882 0.7914081 -0.59778196
vn -0.1277882 0.7914081 -0.597782
vn -0.1277882 0.7914081 -0.597782
vn 0.12883776 0.7874992 -0.6026989
vn 0.12883776 0.7874992 -0.6026989
vn 0.1288378 0.7874992 -0.6026989
vn -0.9938186 0.11101636 0
vn -0.9938186 0.111016355 0
vn -0.9938186 0.11101636 0
vn -0.9938186 0.11101638 0
vn -0 0.09742246 0.99524313
vn -0 0.09742246 0.99524313
vn -0 0.09742245 0.99524313
vn -0 0.09742246 0.99524313
vn 0.9938186 0.111016154 0
vn 0.9938186 0.11101616 0
vn 0.9938186 0.111016154 0
vn 0.9938186 0.11101617 0
vn -0.7227534 0.14404728 0.67592734
vn -0.7227534 0.14404728 0.67592734
vn -0.7227534 0.14404728 0.67592734
vn -0.7227534 0.14404728 0.67592734
vn 0.7227532 0.14404726 0.67592764
vn 0.72275317 0.14404726 0.67592764
vn 0.7227532 0.14404726 0.67592764
vn 0.7227532 0.14404726 0.67592764
vn 0.6471842 0.7623337 1.6359361E-07
vn 0.64718413 0.7623337 1.6359361E-07
vn 0.6471842 0.7623337 1.6359361E-07
vn 0.6471842 0.7623337 1.6359361E-07
vn 3.6069994E-07 0.82430965 0.56613916
vn 3.6069994E-07 0.82430965 0.56613916
vn 3.607E-07 0.82430965 0.56613916
vn 3.607E-07 0.82430965 0.56613916
vn -0.6479694 0.76166636 1.6335999E-07
vn -0.6479695 0.7616663 1.6335997E-07
vn -0.6479695 0.7616663 1.6335997E-07
vn -0.6479694 0.76166636 1.6335996E-07
vn 3.6069713E-07 0.8243123 -0.5661352
vn 3.6069716E-07 0.8243123 -0.5661352
vn 3.606972E-07 0.82431245 -0.5661352
vn 3.6069721E-07 0.82431245 -0.5661352
vn 0.726911 0.14478602 -0.6712954
vn 0.726911 0.14478603 -0.6712954
vn 0.726911 0.14478604 -0.6712954
vn 0.72691095 0.14478603 -0.67129546
vn -6.6262794E-07 0.09430587 -0.9955433
vn -6.62628E-07 0.09430588 -0.9955433
vn -6.62628E-07 0.09430588 -0.9955433
vn -6.62628E-07 0.09430587 -0.9955433
vn -0.7269368 0.14478691 -0.6712672
vn -0.72693676 0.1447869 -0.6712673
vn -0.7269368 0.14478688 -0.67126715
vn -0.72693676 0.14478691 -0.6712673
vn 0.45416752 0.8272305 -0.33078942
vn 0.4541675 0.82723045 -0.33078945
vn 0.45416754 0.82723045 -0.33078945
vn 0.4541675 0.82723045 -0.33078945
vn 0.49564183 0.78902465 0.36301416
vn 0.49564183 0.78902465 0.36301416
vn 0.49564183 0.78902465 0.36301416
vn 0.49564183 0.78902465 0.36301416
vn 0.55454785 0.8313157 0.037295077
vn 0.5545479 0.8313157 0.03729508
vn 0.5545479 0.8313157 0.037295077
vn 0.5545479 0.8313157 0.03729508
vn 0.7231983 0.68164086 -0.11113065
vn 0.72319824 0.68164086 -0.11113065
vn 0.72319824 0.68164086 -0.11113064
vn 0.7231982 0.6816409 -0.11113065
vn 0.3328671 0.7300926 0.59679514
vn 0.3328671 0.7300926 0.59679514
vn 0.3328671 0.7300926 0.59679514
vn 0.33286703 0.7300926 0.59679514
vn -2.3693487E-05 0.81075305 0.5853883
vn -2.3693487E-05 0.81075305 0.5853883
vn -2.3693487E-05 0.81075305 0.5853883
vn -2.3693485E-05 0.81075305 0.58538824
vn -0.4406801 0.8383238 -0.3209586
vn -0.44068012 0.8383237 -0.3209586
vn -0.4406801 0.8383238 -0.32095864
vn -0.44068012 0.8383237 -0.32095858
vn -0.48030132 0.8034723 0.35177118
vn -0.48030132 0.8034723 0.35177112
vn -0.48030138 0.8034723 0.35177118
vn -0.48030138 0.8034723 0.35177118
vn -0.5344345 0.8444453 0.035942174
vn -0.53443456 0.8444453 0.03594218
vn -0.53443456 0.8444453 0.03594218
vn -0.5344346 0.8444453 0.035942182
vn -0.32638535 0.7423105 0.58519024
vn -0.32638535 0.7423105 0.5851903
vn -0.3263854 0.7423105 0.5851903
vn -0.32638535 0.7423105 0.58519024
vn -0.6889801 0.71702075 -0.10577137
vn -0.68898016 0.71702075 -0.10577138
vn -0.68898016 0.71702075 -0.10577138
vn -0.68898004 0.7170208 -0.105771355
vn 2.3693552E-05 0.8107521 0.5853896
vn 2.3693548E-05 0.8107521 0.58538955
vn 2.3693552E-05 0.8107521 0.5853896
vn 2.3693552E-05 0.8107521 0.5853896
vn -0 1 -5.73712E-06
vn -0 1 -5.73712E-06
vn -0 1 -5.73712E-06
vn -0 1 1.4638271E-06
vn -0 1 1.463827E-06
vn -0 1 1.4606777E-06
vn -0 1 1.4606776E-06
vn -0 1 1.4606776E-06
vn -0 1 1.4606776E-06
vn -0 1 6.479521E-07
vn -0 1 6.4795205E-07
vn -0 1 1.6882917E-07
vn -0 1 1.6882841E-07
vn -0 1 1.6882841E-07
vn -0 1 1.6882917E-07
vn -0.24489672 0.8407691 -0.48283845
vn -0.2448967 0.8407691 -0.48283842
vn -0.2448967 0.8407691 -0.48283845
vn -0.24489672 0.8407691 -0.48283845
vn 0.2490278 0.8348175 -0.4909836
vn 0.24902779 0.8348175 -0.4909836
vn 0.2490278 0.8348175 -0.4909836
vn 0.24902783 0.8348175 -0.4909836
vn 1.6554136E-06 1 -2.745687E-07
vn 1.6554134E-06 1 -2.745687E-07
vn 1.6554134E-06 1 -2.745687E-07
vn 1.6554134E-06 1 -2.745687E-07
vn 0.51644784 0.10526285 0.8498243
vn 0.5164479 0.10526287 0.8498243
vn 0.51644784 0.10526285 0.8498243
vn 0.51644784 0.105262846 0.8498243
vn 0.98086584 0.19468477 0
vn 0.98086584 0.19468479 0
vn 0.98086584 0.19468479 0
vn 0.98086584 0.19468477 0
vn 0.5331263 0.106053315 -0.8393623
vn 0.53312624 0.106053315 -0.8393623
vn 0.5331263 0.10605333 -0.8393623
vn 0.5331263 0.106053315 -0.8393623
vn -1.4262107E-06 1 -1.9906226E-07
vn -1.4262109E-06 1 -1.9906226E-07
vn -1.4262109E-06 1 -1.9906226E-07
vn -1.4262109E-06 1 -1.9906226E-07
vn -0.5156804 0.118404426 0.8485601
vn -0.5156803 0.118404426 0.8485601
vn -0.5156804 0.118404426 0.8485601
vn -0.5156803 0.118404426 0.8485601
vn -0.97562534 0.21944304 0
vn -0.97562534 0.21944305 0
vn -0.97562534 0.21944304 0
vn -0.97562534 0.21944304 0
vn -0.53230095 0.11961516 -0.838062
vn -0.53230095 0.11961516 -0.838062
vn -0.532301 0.11961516 -0.838062
vn -0.53230095 0.11961516 -0.838062
vn -0.008162048 0.9999658 0.0013553425
vn -0.008162048 0.9999658 0.0013553425
vn -0.008162048 0.9999658 0.0013553425
vn -0.002493655 0.9999908 -0.0034966248
vn -0.0024936546 0.9999908 -0.0034966248
vn -0.0041849813 0.99998784 -0.0026120322
vn -0.004473601 0.9999727 -0.0058908
vn -0.0044736015 0.9999727 -0.0058908006
vn 0.004471328 0.9999727 -0.005891121
vn -0.0005847299 0.9998652 0.016412733
vn 0.004471328 0.9999727 -0.005891121
vn -0.01169995 0.9999316 -0.0001772547
vn 0.008157637 0.9999658 0.0013635037
vn -0.006175451 0.9999734 0.0038751925
vn -0.006175451 0.9999734 0.0038751927
vn -0.00058472983 0.9998652 0.016412733
vn 0.0018646431 0.99999046 -0.0039663236
vn 0.0024923424 0.9999908 -0.0034947789
vn 0.004180761 0.99998784 -0.0026093945
vn -0.0005847299 0.9998652 0.016412733
vn -0.0005847299 0.9998652 0.016412733
vn 0.0043991003 0.9999714 0.006157554
vn 0.0043991 0.9999714 0.006157554
vn 0.009040315 0.9999577 0.0016897959
vn 0.0043991003 0.9999714 0.0061575538
vn 0.00616543 0.99997354 0.0038688937
vn -3.065011E-07 1 2.942894E-07
vn -3.0650108E-07 1 2.9428938E-07
vn -3.0650108E-07 1 2.9428938E-07
vn -1.1023876E-05 1 2.6683929E-05
vn -3.0650108E-07 1 2.9428938E-07
vn 3.6064807E-07 1 1.7372728E-06
vn -9.3889375E-06 1 -2.2049375E-05
vn -9.3889375E-06 1 -2.2049375E-05
vn -9.3889375E-06 1 -2.2049375E-05
vn 3.6064807E-07 1 1.7372727E-06
vn 3.6064807E-07 1 1.7372728E-06
vn 9.947786E-07 1 9.185906E-07
g [gimmick]keydoor_market_key_0
f 3/3/3 2/2/2 1/1/1
f 6/6/6 5/5/5 4/4/4
f 9/9/9 8/8/8 7/7/7
f 12/12/12 11/11/11 10/10/10
f 15/15/15 14/14/14 13/13/13
f 18/18/18 17/17/17 16/16/16
f 21/21/21 20/20/20 19/19/19
f 22/22/22 21/21/21 19/19/19
f 25/25/25 24/24/24 23/23/23
f 26/26/26 25/25/25 23/23/23
f 29/29/29 28/28/28 27/27/27
f 30/30/30 29/29/29 27/27/27
f 33/33/33 32/32/32 31/31/31
f 34/34/34 33/33/33 31/31/31
f 37/37/37 36/36/36 35/35/35
f 38/38/38 37/37/37 35/35/35
f 41/41/41 40/40/40 39/39/39
f 42/42/42 41/41/41 39/39/39
f 45/45/45 44/44/44 43/43/43
f 46/46/46 45/45/45 43/43/43
f 49/49/49 48/48/48 47/47/47
f 50/50/50 49/49/49 47/47/47
f 53/53/53 52/52/52 51/51/51
f 54/54/54 53/53/53 51/51/51
f 57/57/57 56/56/56 55/55/55
f 58/58/58 57/57/57 55/55/55
f 61/61/61 60/60/60 59/59/59
f 62/62/62 61/61/61 59/59/59
f 65/65/65 64/64/64 63/63/63
f 66/66/66 65/65/65 63/63/63
f 69/69/69 68/68/68 67/67/67
f 70/70/70 69/69/69 67/67/67
f 73/73/73 72/72/72 71/71/71
f 74/74/74 73/73/73 71/71/71
f 77/77/77 76/76/76 75/75/75
f 78/78/78 77/77/77 75/75/75
f 81/81/81 80/80/80 79/79/79
f 82/82/82 81/81/81 79/79/79
f 85/85/85 84/84/84 83/83/83
f 86/86/86 85/85/85 83/83/83
f 89/89/89 88/88/88 87/87/87
f 90/90/90 89/89/89 87/87/87
f 93/93/93 92/92/92 91/91/91
f 94/94/94 93/93/93 91/91/91
f 97/97/97 96/96/96 95/95/95
f 98/98/98 97/97/97 95/95/95
f 101/101/101 100/100/100 99/99/99
f 102/102/102 101/101/101 99/99/99
f 105/105/105 104/104/104 103/103/103
f 106/106/106 105/105/105 103/103/103
f 109/109/109 108/108/108 107/107/107
f 110/110/110 109/109/109 107/107/107
f 113/113/113 112/112/112 111/111/111
f 114/114/114 113/113/113 111/111/111
f 117/117/117 116/116/116 115/115/115
f 116/116/116 117/117/117 118/118/118
f 119/119/119 116/116/116 118/118/118
f 119/119/119 118/118/118 120/120/120
f 121/121/121 119/119/119 120/120/120
f 121/121/121 120/120/120 122/122/122
f 123/123/123 121/121/121 122/122/122
f 123/123/123 122/122/122 124/124/124
f 125/125/125 123/123/123 124/124/124
f 124/124/124 126/126/126 125/125/125
f 128/128/128 127/127/127 125/125/125
f 129/129/129 128/128/128 125/125/125
f 132/132/132 131/131/131 130/130/130
f 133/133/133 132/132/132 130/130/130
f 136/136/136 135/135/135 134/134/134
f 137/137/137 136/136/136 134/134/134
f 140/140/140 139/139/139 138/138/138
f 141/141/141 140/140/140 138/138/138
f 144/144/144 143/143/143 142/142/142
f 145/145/145 144/144/144 142/142/142
f 148/148/148 147/147/147 146/146/146
f 149/149/149 148/148/148 146/146/146
f 152/152/152 151/151/151 150/150/150
f 153/153/153 152/152/152 150/150/150
f 156/156/156 155/155/155 154/154/154
f 157/157/157 156/156/156 154/154/154
f 160/160/160 159/159/159 158/158/158
f 161/161/161 160/160/160 158/158/158
f 164/164/164 163/163/163 162/162/162
f 165/165/165 164/164/164 162/162/162
f 168/168/168 167/167/167 166/166/166
f 169/169/169 168/168/168 166/166/166
f 172/172/172 171/171/171 170/170/170
f 173/173/173 171/171/171 172/172/172
f 174/174/174 173/173/173 172/172/172
f 175/175/175 174/174/174 172/172/172
f 176/176/176 172/172/172 170/170/170
f 177/177/177 176/176/176 170/170/170
f 177/177/177 178/178/178 176/176/176
f 175/175/175 172/172/172 179/179/179
f 178/178/178 180/180/180 176/176/176
f 181/181/181 175/175/175 179/179/179
f 178/178/178 182/182/182 180/180/180
f 183/183/183 181/181/181 179/179/179
f 184/184/184 183/183/183 179/179/179
f 185/185/185 184/184/184 179/179/179
f 182/182/182 186/186/186 180/180/180
f 186/186/186 187/187/187 180/180/180
f 187/187/187 188/188/188 180/180/180
f 185/185/185 179/179/179 189/189/189
f 190/190/190 185/185/185 189/189/189
f 190/190/190 189/189/189 191/191/191
f 180/180/180 188/188/188 192/192/192
f 189/189/189 192/192/192 191/191/191
f 188/188/188 193/193/193 192/192/192
f 192/192/192 194/194/194 191/191/191
f 193/193/193 195/195/195 192/192/192
f 195/195/195 194/194/194 192/192/192
f 198/198/198 197/197/197 196/196/196
f 198/198/198 196/196/196 199/199/199
f 197/197/197 200/200/200 196/196/196
f 197/197/197 201/201/201 200/200/200
f 196/196/196 202/202/202 199/199/199
f 202/202/202 203/203/203 199/199/199
f 203/203/203 202/202/202 204/204/204
f 200/200/200 201/201/201 205/205/205
f 202/202/202 205/205/205 204/204/204
f 201/201/201 206/206/206 205/205/205
f 205/205/205 207/207/207 204/204/204
f 207/207/207 205/205/205 206/206/206
