g [gimmick]melt_snow2
v -0.5707832 1.5613353 1.4448094
v -0.58075917 1.5723292 -0.4650372
v -0.5287586 1.9014815 -0.39118338
v -0.5080356 1.8956655 1.3882941
v -0.31990117 2.0845833 -0.27461773
v -0.29258177 2.0845833 1.2898417
v -0.3620926 1.9152901 1.5102386
v -0.38282165 1.5984309 1.5653094
v -0.6869757 -9.684029E-17 1.581522
v -0.6987647 3.3739112E-17 -0.5510015
v -0.4847087 -1.0388459E-16 1.6965642
v -0.58075917 1.5723292 -0.4650372
v 1.3616073 1.5586678 1.552542
v -0.56802106 3.904351E-17 -0.6376289
v 1.4788582 -1.03028985E-16 1.682591
v -0.4629806 1.6061205 -0.5393875
v -0.5287586 1.9014815 -0.39118338
v 1.5491697 1.5723288 1.3768848
v 1.6662897 -9.078241E-17 1.4825892
v 1.6401486 3.4534996E-17 -0.5639993
v 1.5210705 1.5558673 -0.4376102
v 1.3441014 1.8942542 1.5016521
v 1.4843959 1.9014814 1.366097
v -0.38282165 1.5984309 1.5653094
v -0.3620926 1.9152901 1.5102386
v 1.2709274 2.0845833 1.301093
v 1.4443798 1.5723286 -0.52312714
v 1.5001897 3.815087E-17 -0.623051
v 1.5210705 1.5558673 -0.4376102
v 1.6401486 3.4534996E-17 -0.5639993
v 1.4681112 1.8927728 -0.3728333
v 1.2664511 2.0845833 -0.26475328
v 1.5491697 1.5723288 1.3768848
v 1.4843959 1.9014814 1.366097
v 1.3845733 1.9014813 -0.47415546
v 1.2664511 2.0845833 -0.26475328
v -0.41795847 1.9193579 -0.48935425
v -0.31990117 2.0845833 -0.27461773
v 1.2664511 2.0845833 -0.26475328
v -0.31990117 2.0845833 -0.27461773
v 1.2664511 2.0845833 -0.26475328
v -0.29258177 2.0845833 1.2898417
v 1.2709274 2.0845833 1.301093
vt 0.1966444 0.6690861
vt 0.19596642 0.670966
vt 0.19603339 0.6767296
vt 0.1967168 0.67525905
vt 0.19610035 0.6824932
vt 0.1970889 0.68217224
vt 0.19705787 0.67529356
vt 0.19699311 0.6690861
vt 0.19665217 0.6529839
vt 0.19596791 0.6529839
vt 0.19699398 0.6529839
vt 0.19596669 0.6690861
vt 0.1975871 0.6690861
vt 0.19567575 0.6529839
vt 0.19759664 0.6529839
vt 0.19567312 0.6690861
vt 0.1959893 0.6750774
vt 0.19795853 0.6690861
vt 0.1979594 0.6529839
vt 0.19860816 0.6529839
vt 0.19860291 0.6690861
vt 0.19753554 0.6754563
vt 0.19809109 0.6752799
vt 0.19697292 0.67064077
vt 0.1970309 0.6764065
vt 0.19785383 0.6816501
vt 0.1950606 0.6690861
vt 0.19506297 0.6529839
vt 0.19474131 0.6690861
vt 0.19474657 0.6529839
vt 0.19857031 0.67526054
vt 0.19853769 0.68143505
vt 0.19782977 0.670894
vt 0.19788375 0.6766725
vt 0.19509733 0.675058
vt 0.19683588 0.68123245
vt 0.19565505 0.6750493
vt 0.19563697 0.6810125
vt 0.19513406 0.6810299
vt 0.3147464 0.95233625
vt 0.31692317 0.9529765
vt 0.31416738 0.9512227
vt 0.3177353 0.95160955
vn -0.8713705 0.1525904 0.4662936
vn -0.8759653 0.15140626 -0.45799682
vn -0.804286 0.49485335 -0.32900497
vn -0.79778737 0.48225498 0.3618915
vn -0.28654313 0.9216647 -0.26158574
vn -0.2894842 0.9159383 0.27794963
vn -0.29183632 0.501217 0.8146245
vn -0.28905332 0.14887306 0.94566643
vn -0.86138916 0.104578115 0.4970636
vn -0.87674046 0.09168487 -0.47214407
vn -0.2739066 0.099303596 0.9566159
vn -0.8759653 0.15140626 -0.45799682
vn 0.37047255 0.1323838 0.919361
vn -0.2912303 0.07815115 -0.95345545
vn 0.39109388 0.10178391 0.9147052
vn -0.3117288 0.1485437 -0.9384882
vn -0.804286 0.49485335 -0.32900497
vn 0.91829246 0.13704756 0.37142545
vn 0.9185183 0.09855463 0.38289827
vn 0.8726392 0.09379846 -0.47927305
vn 0.8964536 0.15264015 -0.41601917
vn 0.32969812 0.45944142 0.82475007
vn 0.8111236 0.46893388 0.349542
vn -0.28905332 0.14887306 0.94566643
vn -0.29183632 0.501217 0.8146245
vn 0.29150808 0.91078997 0.29237762
vn 0.37317955 0.14741477 -0.9159726
vn 0.29939404 0.0800789 -0.95076317
vn 0.8964536 0.15264015 -0.41601917
vn 0.8726392 0.09379846 -0.47927305
vn 0.8274008 0.48616916 -0.2811537
vn 0.2916899 0.91820735 -0.26797828
vn 0.91829246 0.13704756 0.37142545
vn 0.8111236 0.46893388 0.349542
vn 0.37215617 0.50612646 -0.7780333
vn 0.2916899 0.91820735 -0.26797828
vn -0.2997723 0.5192616 -0.8003149
vn -0.28654313 0.9216647 -0.26158574
vn 0.2916899 0.91820735 -0.26797828
vn -0.28654313 0.9216647 -0.26158574
vn 0.2916899 0.91820735 -0.26797828
vn -0.2894842 0.9159383 0.27794963
vn 0.29150808 0.91078997 0.29237762
g [gimmick]melt_snow2_0
f 3/3/3 2/2/2 1/1/1
f 4/4/4 3/3/3 1/1/1
f 5/5/5 3/3/3 4/4/4
f 6/6/6 5/5/5 4/4/4
f 6/6/6 4/4/4 7/7/7
f 7/7/7 4/4/4 8/8/8
f 4/4/4 1/1/1 8/8/8
f 8/8/8 1/1/1 9/9/9
f 10/10/10 9/9/9 1/1/1
f 11/11/11 8/8/8 9/9/9
f 12/12/12 10/10/10 1/1/1
f 8/8/8 11/11/11 13/13/13
f 14/14/14 10/10/10 12/12/12
f 11/11/11 15/15/15 13/13/13
f 16/16/16 14/14/14 12/12/12
f 16/16/16 12/12/12 17/17/17
f 18/18/18 13/13/13 15/15/15
f 19/19/19 18/18/18 15/15/15
f 19/19/19 20/20/20 18/18/18
f 20/20/20 21/21/21 18/18/18
f 22/22/22 13/13/13 18/18/18
f 23/23/23 22/22/22 18/18/18
f 24/24/24 13/13/13 22/22/22
f 25/25/25 24/24/24 22/22/22
f 6/6/6 25/25/25 22/22/22
f 26/26/26 22/22/22 23/23/23
f 26/26/26 6/6/6 22/22/22
f 14/14/14 16/16/16 27/27/27
f 28/28/28 14/14/14 27/27/27
f 27/27/27 29/29/29 28/28/28
f 29/29/29 30/30/30 28/28/28
f 31/31/31 21/21/21 27/27/27
f 32/32/32 26/26/26 31/31/31
f 33/33/33 21/21/21 31/31/31
f 26/26/26 34/34/34 31/31/31
f 34/34/34 33/33/33 31/31/31
f 35/35/35 31/31/31 27/27/27
f 35/35/35 27/27/27 16/16/16
f 36/36/36 31/31/31 35/35/35
f 37/37/37 35/35/35 16/16/16
f 37/37/37 16/16/16 17/17/17
f 38/38/38 37/37/37 17/17/17
f 35/35/35 37/37/37 38/38/38
f 39/39/39 35/35/35 38/38/38
f 42/42/42 41/41/41 40/40/40
f 43/43/43 41/41/41 42/42/42
