g [GIMMICK]chest_body
v -0.5466397 0.09727743 -0.31578642
v -0.5466395 0.09727743 -0.7620795
v 1.5163752E-07 0.09727743 -0.76207954
v -0.5041869 0.09727739 -0.262052
v -0.5466397 0.09727743 -0.31578642
v 1.5285974E-07 0.09727739 -0.2620523
v 1.4397922E-07 0.6279583 -0.20323925
v -0.5409684 0.6279583 -0.20323928
v -0.6777453 0.15873627 -1.0757521
v -0.7107381 0.6279584 -0.94505876
v -0.7954741 0.15873636 -1.0757523
v -0.4770826 0.44631863 -1.0015761
v -0.75467956 0.6279584 -0.8973984
v -0.8406914 0.15873641 -0.9236353
v -0.84069127 0.15873641 -1.0228397
v -0.75467956 0.6279583 -0.090671524
v -0.5409683 0.6279581 -0.7848307
v -0.10725868 0.6279582 -0.94505876
v -0.10720995 0.6279581 -0.7848302
v -0.7107381 0.6279584 -0.94505876
v -0.75467956 0.6279583 -0.090671524
v -0.5849098 0.6279581 -0.73717034
v -0.5849098 0.6279582 -0.2508996
v -0.75467956 0.6279584 -0.8973984
v -1.1038727E-07 0.6279583 -0.043010984
v -0.5409684 0.6279583 -0.20323928
v 1.4397922E-07 0.6279583 -0.20323925
v -0.7107383 0.6279583 -0.043011095
v -0.5849098 0.6279581 -0.73717034
v -0.5466397 0.09727743 -0.31578642
v -0.5849098 0.6279582 -0.2508996
v -0.5466395 0.09727743 -0.7620795
v -0.6777453 0.15873627 -1.0757521
v -0.7304881 -1.5747519E-08 -0.9671619
v -0.7087787 1.4263244E-07 -1.1302495
v -0.69921917 0.15873636 -0.92363536
v -0.8406914 0.15873641 -0.9236353
v -0.87511706 1.4263244E-07 -0.9671616
v -0.4770826 0.44631863 -1.0015761
v -0.10725868 0.6279582 -0.94505876
v -0.7107381 0.6279584 -0.94505876
v -0.076050244 0.4463189 -1.0015756
v -0.076050274 0.44631872 -0.83363795
v -0.10720995 0.6279581 -0.7848302
v -0.5416089 5.2129607E-08 -1.1302493
v -0.6777453 0.15873627 -1.0757521
v -0.7087787 1.4263244E-07 -1.1302495
v -0.4770826 0.44631863 -1.0015761
v -0.7954741 0.15873636 -1.0757523
v -0.75467956 0.6279584 -0.8973984
v -0.84069127 0.15873641 -1.0228397
v -0.7107381 0.6279584 -0.94505876
v -0.5849098 0.6279581 -0.73717034
v -0.7107381 0.6279584 -0.94505876
v -0.5409683 0.6279581 -0.7848307
v -0.75467956 0.6279584 -0.8973984
v -0.5849098 0.6279582 -0.2508996
v -0.7107383 0.6279583 -0.043011095
v -0.75467956 0.6279583 -0.090671524
v -0.5409684 0.6279583 -0.20323928
v -0.5409684 0.6279583 -0.20323928
v -0.5466397 0.09727743 -0.31578642
v -0.5041869 0.09727739 -0.262052
v -0.5849098 0.6279582 -0.2508996
v -0.8406914 0.15873641 -0.9236353
v -0.8751171 7.475531E-08 -0.0203848
v -0.87511706 1.4263244E-07 -0.9671616
v -0.75467956 0.6279583 -0.090671524
v 0.71073854 0.6279582 -0.94505894
v 0.67774546 0.15873618 -1.075752
v 0.79547405 0.15873636 -1.075752
v 0.47708258 0.44631863 -1.0015754
v 0.10725874 0.6279582 -0.945059
v 0.54160917 5.2129607E-08 -1.130249
v 0.70877826 1.4263244E-07 -1.1302495
v 0.076050475 0.4463189 -1.001576
v 0.076050065 0.44631872 -0.83363813
v 0.10720976 0.6279581 -0.78483063
v 0.10725874 0.6279582 -0.945059
v 0.54096836 0.6279581 -0.78483033
v 0.10720976 0.6279581 -0.78483063
v 0.71073854 0.6279582 -0.94505894
v 0.5849094 0.6279581 -0.73717004
v 0.7546794 0.6279581 -0.89739823
v 0.5849099 0.6279581 -0.2508995
v 0.75467944 0.6279583 -0.09067129
v 0.71073794 0.62795836 -0.043010972
v 0.5409684 0.6279583 -0.20323907
v -1.1038727E-07 0.6279583 -0.043010984
v 1.4397922E-07 0.6279583 -0.20323925
v 0.5849094 0.6279581 -0.73717004
v 0.54664034 0.09727743 -0.31578636
v 0.5466393 0.09727743 -0.76207936
v 0.5849099 0.6279581 -0.2508995
v 0.5409684 0.6279583 -0.20323907
v 0.5041869 0.09727739 -0.26205185
v 1.4397922E-07 0.6279583 -0.20323925
v 0.5041869 0.09727739 -0.26205185
v 0.5409684 0.6279583 -0.20323907
v 1.5285974E-07 0.09727739 -0.2620523
v 1.5163752E-07 0.09727743 -0.76207954
v 0.54664034 0.09727743 -0.31578636
v 0.5466393 0.09727743 -0.76207936
v 0.7304881 -1.5747519E-08 -0.9671614
v 0.67774546 0.15873618 -1.075752
v 0.70877826 1.4263244E-07 -1.1302495
v 0.6992187 0.15873636 -0.9236353
v 0.8406911 0.15873636 -0.92363524
v 0.8751168 1.4263244E-07 -0.96716166
v 0.79547405 0.15873636 -1.075752
v 0.7546794 0.6279581 -0.89739823
v 0.71073854 0.6279582 -0.94505894
v 0.84069157 0.15873641 -1.0228395
v 0.8406911 0.15873636 -0.92363524
v 0.75467944 0.6279583 -0.09067129
v 0.8751168 7.475531E-08 -0.020384535
v 0.8751168 1.4263244E-07 -0.96716166
v -0.4770826 0.44631863 -1.0015761
v -0.51735836 7.475531E-08 -1.0567672
v -0.45283195 0.44631854 -0.9330953
v -0.5416089 5.2129607E-08 -1.1302493
v 0.47708258 0.44631863 -1.0015754
v 0.5173942 5.2129607E-08 -1.0567666
v 0.54160917 5.2129607E-08 -1.130249
v 0.45286766 0.44631863 -0.9330948
v -0.577251 0.50372094 -1.0278653
v -0.63207746 0.56536144 -1.0060387
v -0.6451766 0.50372094 -1.027865
v -0.5644502 0.56536114 -1.0060387
v -0.6478765 0.5810473 -0.95575833
v -0.54590374 0.5810476 -0.95575845
v -0.63207746 0.56536144 -1.0060387
v -0.6638728 0.47487518 -0.9897116
v -0.6451766 0.50372094 -1.027865
v -0.6478765 0.5810473 -0.95575833
v -0.5613018 0.474875 -0.9897117
v -0.5644502 0.56536114 -1.0060387
v -0.577251 0.50372094 -1.0278653
v -0.54590374 0.5810476 -0.95575845
v 0.63354397 0.5629414 -1.0068951
v 0.57978547 0.5061407 -1.0270076
v 0.64237785 0.5061408 -1.0270078
v 0.5712267 0.5629413 -1.0068951
v 0.651865 0.5810476 -0.95575815
v 0.5498926 0.5810476 -0.9557581
v 0.63354397 0.5629414 -1.0068951
v 0.6638734 0.47487518 -0.9897112
v 0.651865 0.5810476 -0.95575815
v 0.64237785 0.5061408 -1.0270078
v 0.5712267 0.5629413 -1.0068951
v 0.5613028 0.47487527 -0.989711
v 0.57978547 0.5061407 -1.0270076
v 0.5498926 0.5810476 -0.9557581
v -0.07605049 0.44631863 -0.95604265
v -1.845541E-07 2.1050957E-07 -1.0761912
v 1.0420095E-07 0.44631863 -0.95604295
v -0.541609 1.2000673E-07 -1.0761914
v -0.47708288 0.44631863 -0.95604336
v -0.07605049 0.44631863 -0.95604265
v -2.221374E-07 0.44631863 -0.8272882
v -0.076050505 0.44631872 -0.8272881
v 1.0420095E-07 0.44631863 -0.95604295
v -1.845541E-07 2.1050957E-07 -1.0761912
v 0.076050386 0.44631863 -0.9560431
v 1.0420095E-07 0.44631863 -0.95604295
v 0.5416088 1.2000673E-07 -1.076191
v 0.47708258 0.44631863 -0.9560429
v 1.0420095E-07 0.44631863 -0.95604295
v 0.07605006 0.44631872 -0.8272884
v -2.221374E-07 0.44631863 -0.8272882
v 0.076050386 0.44631863 -0.9560431
v -0.20460542 0.51847446 -0.9770895
v -0.1700991 0.3581255 -1.1108013
v -0.1700992 0.531191 -1.0483421
v -0.20460561 0.31030083 -1.0514007
v -0.1700992 0.531191 -1.0483421
v -0.14530864 0.58252794 -0.9545511
v -0.20460542 0.51847446 -0.9770895
v -0.120802574 0.5844418 -1.0293497
v 0.14530943 0.58252794 -0.9545507
v 0.1208031 0.58444184 -1.0293496
v 0.17009966 0.35812563 -1.1108016
v -0.1331268 0.3181874 -1.125374
v 0.13312718 0.31818733 -1.1253741
v -0.1700992 0.531191 -1.0483421
v -0.1700991 0.3581255 -1.1108013
v 0.1208031 0.58444184 -1.0293496
v 0.17009974 0.5311911 -1.0483419
v -0.120802574 0.5844418 -1.0293497
v 0.20460615 0.51847464 -0.9770894
v 0.17009966 0.35812563 -1.1108016
v 0.20460607 0.310301 -1.0514005
v 0.17009974 0.5311911 -1.0483419
v 0.14530943 0.58252794 -0.9545507
v 0.17009974 0.5311911 -1.0483419
v 0.20460615 0.51847464 -0.9770894
v 0.1208031 0.58444184 -1.0293496
v 0.16763374 0.27036282 -1.065973
v 0.17009966 0.35812563 -1.1108016
v 0.13312718 0.31818733 -1.1253741
v 0.20460607 0.310301 -1.0514005
v -0.1331268 0.3181874 -1.125374
v -0.20460561 0.31030083 -1.0514007
v -0.16763327 0.2703627 -1.0659734
v -0.1700991 0.3581255 -1.1108013
v -0.16763327 0.2703627 -1.0659734
v 0.13312718 0.31818733 -1.1253741
v -0.1331268 0.3181874 -1.125374
v 0.16763374 0.27036282 -1.065973
vt 0.036361866 0.8868491
vt 0.036361866 0.8769304
vt 0.049102686 0.8769304
vt 0.036361866 0.8868491
vt 0.036361866 0.8868491
vt 0.049102686 0.8868491
vt 0.04910274 0.90428376
vt 0.036361866 0.90428376
vt 0.028365882 0.93258023
vt 0.022683302 0.95857507
vt 0.022683302 0.93258023
vt 0.036052883 0.9449396
vt 0.016816488 0.95857507
vt 0.013968159 0.93258023
vt 0.016816488 0.93258023
vt 0.0031867886 0.95857507
vt 0.016458465 0.90614593
vt 0.025555635 0.9188976
vt 0.025557194 0.90614593
vt 0.016458465 0.9188976
vt 0.011959125 0.9188976
vt 0.015373001 0.90614593
vt 0.011959125 0.90614593
vt 0.015373001 0.9188976
vt 0.0011955529 0.9188976
vt 0.010877812 0.90614593
vt 0.0011955529 0.90614593
vt 0.010877812 0.9188976
vt 0.027916418 0.90428376
vt 0.030004807 0.8901648
vt 0.030004807 0.90428376
vt 0.027916418 0.8901648
vt 0.08200747 0.9988273
vt 0.07107886 0.9873154
vt 0.08200747 0.9873154
vt 0.07107886 0.9988273
vt 0.060363334 0.9988273
vt 0.060363334 0.9873154
vt 0.036052883 0.9449396
vt 0.050263986 0.95857507
vt 0.022683302 0.95857507
vt 0.05026837 0.9449396
vt 0.05026837 0.9449396
vt 0.050263986 0.95857507
vt 0.036052883 0.92271787
vt 0.028365882 0.93258023
vt 0.028365882 0.92271787
vt 0.036052883 0.9449396
vt 0.02175303 0.93258023
vt 0.016816488 0.95857507
vt 0.016816488 0.93258023
vt 0.02175303 0.95857507
vt 0.015373001 0.90614593
vt 0.016458465 0.9188976
vt 0.016458465 0.90614593
vt 0.015373001 0.9188976
vt 0.011959125 0.90614593
vt 0.010877812 0.9188976
vt 0.011959125 0.9188976
vt 0.010877812 0.90614593
vt 0.030545026 0.90428376
vt 0.030004807 0.8901648
vt 0.030545026 0.8901648
vt 0.030004807 0.90428376
vt 0.013968159 0.93258023
vt 0.0031867886 0.92271787
vt 0.013968159 0.92271787
vt 0.0031867886 0.95857507
vt 0.022683302 0.95857507
vt 0.028365882 0.93258023
vt 0.022683302 0.93258023
vt 0.036052883 0.9449396
vt 0.050263986 0.95857507
vt 0.036052883 0.92271787
vt 0.028365882 0.92271787
vt 0.05026837 0.9449396
vt 0.05026837 0.9449396
vt 0.050263986 0.95857507
vt 0.025555635 0.9188976
vt 0.016458465 0.90614593
vt 0.025557194 0.90614593
vt 0.016458465 0.9188976
vt 0.015373001 0.90614593
vt 0.015373001 0.9188976
vt 0.011959125 0.90614593
vt 0.011959125 0.9188976
vt 0.010877812 0.9188976
vt 0.010877812 0.90614593
vt 0.0011955529 0.9188976
vt 0.0011955529 0.90614593
vt 0.027916418 0.90428376
vt 0.030004807 0.8901648
vt 0.027916418 0.8901648
vt 0.030004807 0.90428376
vt 0.030545026 0.90428376
vt 0.030545026 0.8901648
vt 0.04910274 0.90428376
vt 0.036361866 0.8868491
vt 0.036361866 0.90428376
vt 0.049102686 0.8868491
vt 0.049102686 0.8769304
vt 0.036361866 0.8868491
vt 0.036361866 0.8769304
vt 0.07107886 0.9873154
vt 0.08200747 0.9988273
vt 0.08200747 0.9873154
vt 0.07107886 0.9988273
vt 0.060363334 0.9988273
vt 0.060363334 0.9873154
vt 0.02175303 0.93258023
vt 0.016816488 0.95857507
vt 0.02175303 0.95857507
vt 0.016816488 0.93258023
vt 0.013968159 0.93258023
vt 0.0031867886 0.95857507
vt 0.0031867886 0.92271787
vt 0.013968159 0.92271787
vt 0.040458888 0.9777913
vt 0.03841002 0.967355
vt 0.03841002 0.9777913
vt 0.040458888 0.967355
vt 0.03841002 0.9777913
vt 0.040458888 0.967355
vt 0.03841002 0.967355
vt 0.040458888 0.9777913
vt 0.050223555 0.924426
vt 0.040280733 0.9367662
vt 0.040280733 0.924426
vt 0.050223555 0.9367662
vt 0.040280733 0.94040453
vt 0.050223555 0.94040453
vt 0.04056237 0.9367662
vt 0.036376663 0.924426
vt 0.04056237 0.924426
vt 0.036376663 0.9367662
vt 0.036376663 0.924426
vt 0.04056237 0.9367662
vt 0.04056237 0.924426
vt 0.036376663 0.9367662
vt 0.040280733 0.9367662
vt 0.050223555 0.924426
vt 0.040280733 0.924426
vt 0.050223555 0.9367662
vt 0.040280733 0.94040453
vt 0.050223555 0.94040453
vt 0.04056237 0.9367662
vt 0.036376663 0.924426
vt 0.036376663 0.9367662
vt 0.04056237 0.924426
vt 0.04056237 0.9367662
vt 0.036376663 0.924426
vt 0.04056237 0.924426
vt 0.036376663 0.9367662
vt 0.07986894 0.9051679
vt 0.08247737 0.87698823
vt 0.08247737 0.9051679
vt 0.05164764 0.87698823
vt 0.05164764 0.9051679
vt 0.032495096 0.99144
vt 0.027914992 0.9968524
vt 0.032495204 0.9968524
vt 0.027914992 0.99144
vt 0.08247737 0.87698823
vt 0.07986894 0.9051679
vt 0.08247737 0.9051679
vt 0.05164764 0.87698823
vt 0.05164764 0.9051679
vt 0.027914992 0.99144
vt 0.032495204 0.9968524
vt 0.027914992 0.9968524
vt 0.032495096 0.99144
vt 0.12416944 0.8980707
vt 0.114321776 0.8756535
vt 0.114321776 0.8980707
vt 0.12416944 0.8756535
vt 0.114321776 0.8980481
vt 0.12416944 0.9077543
vt 0.12416944 0.8980481
vt 0.114321776 0.9077543
vt 0.12416944 0.9224465
vt 0.114321776 0.9224465
vt 0.23917836 0.4685363
vt 0.20048651 0.46330512
vt 0.23446062 0.46330512
vt 0.19576885 0.4911761
vt 0.19576885 0.4685363
vt 0.23288809 0.4981329
vt 0.23917836 0.49117628
vt 0.20205912 0.4981329
vt 0.12416944 0.8980707
vt 0.114321776 0.8756535
vt 0.12416944 0.8756535
vt 0.114321776 0.8980707
vt 0.12416944 0.9077543
vt 0.114321776 0.8980481
vt 0.12416944 0.8980481
vt 0.114321776 0.9077543
vt 0.12416944 0.8756535
vt 0.114321776 0.8756535
vt 0.114321776 0.8756535
vt 0.12416944 0.8756535
vt 0.114321776 0.8756535
vt 0.12416944 0.8756535
vt 0.12416944 0.8756535
vt 0.114321776 0.8756535
vt 0.12416944 0.8756535
vt 0.114321776 0.8756535
vt 0.114321776 0.8756535
vt 0.12416944 0.8756535
vn -0 1 0
vn -0 1 0
vn -0 1 0
vn 0.28816727 0.67673594 -0.6774866
vn 0.731939 0.68137014 4.3747116E-07
vn 1.007183E-07 0.7450341 -0.66702634
vn 1.1173329E-07 0.7450339 -0.66702664
vn -0 0.8714651 -0.49045762
vn -0.007350973 0.26774514 -0.96346176
vn -0.016625261 0.26700127 -0.96355283
vn 9.481277E-07 0.2683183 -0.9633303
vn -0.02191094 0.26656687 -0.9635673
vn -0.977412 0.21134275 -2.1631871E-07
vn -0.977412 0.21134281 -1.2640709E-06
vn -0.977412 0.21134287 -2.042406E-06
vn -0.31702536 0.9484171 -2.2816077E-07
vn 3.3448026E-07 1 1.6328105E-06
vn -0 1 8.000928E-07
vn -0 1 5.6483583E-07
vn 3.2944965E-07 0.8287631 -0.55959946
vn 7.472929E-07 1 0
vn 1.4509392E-06 1 1.694614E-07
vn 0.52064925 0.8537706 -1.7718587E-07
vn 1.6282038E-06 1 2.2437051E-07
vn -0 1 0
vn -0 0.8714651 -0.49045762
vn 1.1173329E-07 0.7450339 -0.66702664
vn -0 1 0
vn 0.9964014 0.08475999 1.2776222E-07
vn 0.731939 0.68137014 4.3747116E-07
vn 0.52064925 0.8537706 -1.7718587E-07
vn 0.9964014 0.08476018 3.5251057E-07
vn -0.95118433 0.26745698 -0.15399691
vn -0.6096051 0.3408455 -0.7156858
vn -0.95104146 0.27059117 -0.1493335
vn -0.60833734 0.33823487 -0.7179992
vn -0.74607885 0.3406631 -0.5721144
vn -0.6591635 0.35099137 -0.6650628
vn 0.47682217 0.1798411 -0.8604056
vn 0.69258416 0.33844498 -0.6370103
vn 3.2944965E-07 0.8287631 -0.55959946
vn 0.64638764 0.34306276 -0.6815357
vn 0.9800923 0.19854192 -0.00015339594
vn 0.980116 0.1984252 -0.00035155565
vn 0.4624984 0.1882076 -0.8664139
vn -0.028332558 0.29882514 -0.9538872
vn 7.25935E-07 0.32471582 -0.9458117
vn -0.04457979 0.2837529 -0.9578606
vn -0.6638959 0.32423145 -0.6738816
vn -0.6416896 0.32912788 -0.69275486
vn -0.6663647 0.32366118 -0.67171526
vn -0.6390159 0.3296901 -0.69495547
vn 9.666181E-07 1 1.0512398E-06
vn 9.666201E-07 1 1.0512385E-06
vn 9.666177E-07 1 1.0512401E-06
vn 9.666203E-07 1 1.0512382E-06
vn -6.436258E-07 1 -8.948709E-07
vn -0 1 -3.8331788E-07
vn -0.31702536 0.9484171 -2.2816077E-07
vn -8.1241336E-07 1 -1.0153797E-06
vn 0.6745943 0.14500168 -0.72380733
vn 0.7204453 0.13517752 -0.68021005
vn 0.28816727 0.67673594 -0.6774866
vn 0.66960615 0.14600138 -0.72822475
vn -0.74607885 0.3406631 -0.5721144
vn -0.97468895 0.22351912 -0.0045387484
vn -0.6591635 0.35099137 -0.6650628
vn -0.97546244 0.22010519 -0.0051734783
vn 0.22912337 0.7512267 -0.61899984
vn 0.32742682 0.334975 -0.8835063
vn 0.37586522 0.3195735 -0.86982656
vn -0.30764696 0.21911599 -0.92592734
vn -0.5225988 0.70416635 -0.48066637
vn -0.46267888 0.18815602 -0.8663288
vn 0.5905189 0.38051555 -0.7116849
vn -0.6463855 0.34306297 -0.68153757
vn -0.9800923 0.19854212 -0.0001557833
vn -0.57511234 0.8180744 -0.00020688407
vn -0.5225988 0.70416635 -0.48066637
vn -0 1 4.5457676E-07
vn -0.57511234 0.8180744 -0.00020688407
vn 0.22912337 0.7512267 -0.61899984
vn -0.36538538 0.9308563 8.5700304E-07
vn 0.6346122 0.7329155 -0.24515766
vn -0.48899874 0.84257233 -0.225726
vn 0.5219052 0.85300136 -0.0019059731
vn 3.274126E-07 1 -1.3149474E-06
vn -0.20519418 0.83559364 -0.5095868
vn -0 1 0
vn 1.1173329E-07 0.7450339 -0.66702664
vn -0.36538538 0.9308563 8.5700304E-07
vn -0.68951577 0.6766254 -0.25835252
vn -0.66619605 0.7457767 1.7907583E-06
vn -0.48899874 0.84257233 -0.225726
vn -0.20519418 0.83559364 -0.5095868
vn -0.28816435 0.6767364 -0.6774874
vn 1.1173329E-07 0.7450339 -0.66702664
vn -0.28816435 0.6767364 -0.6774874
vn -0.20519418 0.83559364 -0.5095868
vn 1.007183E-07 0.7450341 -0.66702634
vn -0 1 0
vn -0.68951577 0.6766254 -0.25835252
vn -0.66619605 0.7457767 1.7907583E-06
vn 0.6096039 0.34084478 -0.715687
vn 0.32742682 0.334975 -0.8835063
vn 0.5905189 0.38051555 -0.7116849
vn 0.60833985 0.33823532 -0.7179969
vn 0.8982411 0.29604998 -0.32483444
vn 0.6591627 0.35099208 -0.66506314
vn 0.37586522 0.3195735 -0.86982656
vn 0.6346122 0.7329155 -0.24515766
vn 0.22912337 0.7512267 -0.61899984
vn 0.8690703 0.29423103 -0.39767447
vn 0.8982411 0.29604998 -0.32483444
vn 0.5219052 0.85300136 -0.0019059731
vn 0.97468895 0.22351892 -0.0045388625
vn 0.6591627 0.35099208 -0.66506314
vn 0.47682217 0.1798411 -0.8604056
vn 0.9297813 -0.053942304 -0.36413863
vn 0.92155457 -0.050492924 -0.38495147
vn 0.4624984 0.1882076 -0.8664139
vn -0.30764696 0.21911599 -0.92592734
vn -0.9299551 -0.054106787 -0.36367017
vn -0.46267888 0.18815602 -0.8663288
vn -0.92174786 -0.05066076 -0.3844663
vn 0.51614517 0.17075756 -0.8393069
vn -0.3882147 0.6503662 -0.65292656
vn -0.6419341 0.39386192 -0.6578705
vn 0.49763873 0.5447702 -0.6749675
vn -0.48257682 0.76921594 -0.41883957
vn 0.55371857 0.69549763 -0.45790696
vn -0.3882147 0.6503662 -0.65292656
vn -0.8901856 0.30847284 -0.33528218
vn -0.6419341 0.39386192 -0.6578705
vn -0.48257682 0.76921594 -0.41883957
vn 0.8972702 -0.042463735 -0.4394348
vn 0.49763873 0.5447702 -0.6749675
vn 0.51614517 0.17075756 -0.8393069
vn 0.55371857 0.69549763 -0.45790696
vn 0.38455823 0.6297268 -0.67495114
vn -0.5193427 0.20173258 -0.83041376
vn 0.6079308 0.3617902 -0.7067729
vn -0.45798784 0.5544866 -0.6948321
vn 0.47450095 0.74732566 -0.4651378
vn -0.52226746 0.6898893 -0.50128776
vn 0.38455823 0.6297268 -0.67495114
vn 0.87246794 0.27570608 -0.40346736
vn 0.47450095 0.74732566 -0.4651378
vn 0.6079308 0.3617902 -0.7067729
vn -0.45798784 0.5544866 -0.6948321
vn -0.8802624 0.024547204 -0.47385192
vn -0.5193427 0.20173258 -0.83041376
vn -0.52226746 0.6898893 -0.50128776
vn -4.662532E-07 0.6184459 -0.78582746
vn -0 0.25994444 -0.9656236
vn -1.5654756E-06 0.7937077 -0.6082993
vn 9.1544814E-07 0.25994432 -0.9656236
vn 1.4420652E-06 0.25994372 -0.96562374
vn -4.662532E-07 0.6184459 -0.78582746
vn -1.9541658E-07 1 -2.1530178E-07
vn 1.0088614E-06 1 -7.029095E-07
vn -1.5654756E-06 0.7937077 -0.6082993
vn -0 0.25994444 -0.9656236
vn -4.2495745E-07 0.61844426 -0.7858287
vn -1.5654756E-06 0.7937077 -0.6082993
vn 4.8592193E-07 0.25994396 -0.96562374
vn 5.1528536E-07 0.25994402 -0.96562374
vn -1.5654756E-06 0.7937077 -0.6082993
vn -6.1802666E-07 1 -2.7231044E-07
vn -1.9541658E-07 1 -2.1530178E-07
vn -4.2495745E-07 0.61844426 -0.7858287
vn -0.7972788 0.47723296 -0.369588
vn -0.8701569 0.1660124 -0.46396855
vn -0.78739506 0.49981165 -0.36082855
vn -0.8705854 0.16541198 -0.4633789
vn -0.78739506 0.49981165 -0.36082855
vn -0.3804928 0.91651833 -0.12336678
vn -0.7972788 0.47723296 -0.369588
vn -0.28996125 0.95301396 -0.08767514
vn 0.38049254 0.9165184 -0.12336697
vn 0.2899606 0.9530142 -0.08767445
vn 0.0002719133 0.34019038 -0.9403565
vn -0.00065045257 0.34010553 -0.94038707
vn -0 0.3427693 -0.9394197
vn -0.00025944697 0.33859113 -0.9409335
vn -0.0034296028 0.33946648 -0.94061196
vn 0.00055127905 0.338578 -0.9409382
vn 0.0036563862 0.33946833 -0.9406104
vn -0 0.33593246 -0.94188607
vn 0.79727745 0.47723457 -0.3695888
vn 0.8701578 0.16601147 -0.4639674
vn 0.8705867 0.16541027 -0.46337703
vn 0.7873938 0.4998127 -0.36082983
vn 0.38049254 0.9165184 -0.12336697
vn 0.7873938 0.4998127 -0.36082983
vn 0.79727745 0.47723457 -0.3695888
vn 0.2899606 0.9530142 -0.08767445
vn 0.58867764 -0.38310415 -0.71182144
vn 0.5886776 -0.38310412 -0.7118215
vn 0.5886765 -0.3831044 -0.7118222
vn 0.58867764 -0.38310412 -0.7118215
vn -0.58867806 -0.38309905 -0.7118239
vn -0.5886781 -0.38309905 -0.7118239
vn -0.5886783 -0.38309827 -0.7118241
vn -0.5886782 -0.38309905 -0.7118239
vn 9.3612556E-07 -0.77892196 -0.6271208
vn 9.361256E-07 -0.778922 -0.6271208
vn -1.9824753E-07 -0.77891874 -0.6271249
vn 9.361256E-07 -0.778922 -0.6271208
g [GIMMICK]chest_body_0
f 3/3/3 2/2/2 1/1/1
f 5/5/5 4/4/4 3/3/3
f 6/6/6 3/3/3 4/4/4
f 6/6/6 4/4/4 7/7/7
f 8/8/8 7/7/7 4/4/4
f 11/11/11 10/10/10 9/9/9
f 12/12/12 9/9/9 10/10/10
f 15/15/15 14/14/14 13/13/13
f 16/16/16 13/13/13 14/14/14
f 19/19/19 18/18/18 17/17/17
f 20/20/20 17/17/17 18/18/18
f 23/23/23 22/22/22 21/21/21
f 24/24/24 21/21/21 22/22/22
f 27/27/27 26/26/26 25/25/25
f 28/28/28 25/25/25 26/26/26
f 31/31/31 30/30/30 29/29/29
f 32/32/32 29/29/29 30/30/30
f 35/35/35 34/34/34 33/33/33
f 36/36/36 33/33/33 34/34/34
f 36/36/36 34/34/34 37/37/37
f 38/38/38 37/37/37 34/34/34
f 41/41/41 40/40/40 39/39/39
f 42/42/42 39/39/39 40/40/40
f 43/43/43 42/42/42 40/40/40
f 40/40/40 44/44/44 43/43/43
f 47/47/47 46/46/46 45/45/45
f 48/48/48 45/45/45 46/46/46
f 51/51/51 50/50/50 49/49/49
f 52/52/52 49/49/49 50/50/50
f 55/55/55 54/54/54 53/53/53
f 56/56/56 53/53/53 54/54/54
f 59/59/59 58/58/58 57/57/57
f 60/60/60 57/57/57 58/58/58
f 63/63/63 62/62/62 61/61/61
f 64/64/64 61/61/61 62/62/62
f 67/67/67 66/66/66 65/65/65
f 68/68/68 65/65/65 66/66/66
f 71/71/71 70/70/70 69/69/69
f 72/72/72 69/69/69 70/70/70
f 69/69/69 72/72/72 73/73/73
f 72/72/72 70/70/70 74/74/74
f 75/75/75 74/74/74 70/70/70
f 76/76/76 73/73/73 72/72/72
f 73/73/73 76/76/76 77/77/77
f 77/77/77 78/78/78 73/73/73
f 81/81/81 80/80/80 79/79/79
f 82/82/82 79/79/79 80/80/80
f 80/80/80 83/83/83 82/82/82
f 84/84/84 82/82/82 83/83/83
f 83/83/83 85/85/85 84/84/84
f 86/86/86 84/84/84 85/85/85
f 86/86/86 85/85/85 87/87/87
f 88/88/88 87/87/87 85/85/85
f 87/87/87 88/88/88 89/89/89
f 90/90/90 89/89/89 88/88/88
f 93/93/93 92/92/92 91/91/91
f 94/94/94 91/91/91 92/92/92
f 94/94/94 92/92/92 95/95/95
f 96/96/96 95/95/95 92/92/92
f 99/99/99 98/98/98 97/97/97
f 100/100/100 97/97/97 98/98/98
f 100/100/100 98/98/98 101/101/101
f 102/102/102 101/101/101 98/98/98
f 103/103/103 101/101/101 102/102/102
f 106/106/106 105/105/105 104/104/104
f 107/107/107 104/104/104 105/105/105
f 107/107/107 108/108/108 104/104/104
f 109/109/109 104/104/104 108/108/108
f 112/112/112 111/111/111 110/110/110
f 113/113/113 110/110/110 111/111/111
f 113/113/113 111/111/111 114/114/114
f 115/115/115 114/114/114 111/111/111
f 115/115/115 116/116/116 114/114/114
f 117/117/117 114/114/114 116/116/116
f 120/120/120 119/119/119 118/118/118
f 121/121/121 118/118/118 119/119/119
f 124/124/124 123/123/123 122/122/122
f 125/125/125 122/122/122 123/123/123
f 128/128/128 127/127/127 126/126/126
f 129/129/129 126/126/126 127/127/127
f 127/127/127 130/130/130 129/129/129
f 131/131/131 129/129/129 130/130/130
f 134/134/134 133/133/133 132/132/132
f 135/135/135 132/132/132 133/133/133
f 138/138/138 137/137/137 136/136/136
f 139/139/139 136/136/136 137/137/137
f 142/142/142 141/141/141 140/140/140
f 143/143/143 140/140/140 141/141/141
f 140/140/140 143/143/143 144/144/144
f 145/145/145 144/144/144 143/143/143
f 148/148/148 147/147/147 146/146/146
f 149/149/149 146/146/146 147/147/147
f 152/152/152 151/151/151 150/150/150
f 153/153/153 150/150/150 151/151/151
f 156/156/156 155/155/155 154/154/154
f 157/157/157 154/154/154 155/155/155
f 157/157/157 158/158/158 154/154/154
f 161/161/161 160/160/160 159/159/159
f 162/162/162 159/159/159 160/160/160
f 165/165/165 164/164/164 163/163/163
f 166/166/166 163/163/163 164/164/164
f 164/164/164 167/167/167 166/166/166
f 170/170/170 169/169/169 168/168/168
f 171/171/171 168/168/168 169/169/169
f 174/174/174 173/173/173 172/172/172
f 175/175/175 172/172/172 173/173/173
f 178/178/178 177/177/177 176/176/176
f 179/179/179 176/176/176 177/177/177
f 177/177/177 180/180/180 179/179/179
f 181/181/181 179/179/179 180/180/180
f 184/184/184 183/183/183 182/182/182
f 183/183/183 185/185/185 182/182/182
f 186/186/186 185/185/185 183/183/183
f 185/185/185 187/187/187 182/182/182
f 187/187/187 188/188/188 182/182/182
f 189/189/189 187/187/187 185/185/185
f 192/192/192 191/191/191 190/190/190
f 193/193/193 190/190/190 191/191/191
f 196/196/196 195/195/195 194/194/194
f 197/197/197 194/194/194 195/195/195
f 200/200/200 199/199/199 198/198/198
f 201/201/201 198/198/198 199/199/199
f 204/204/204 203/203/203 202/202/202
f 205/205/205 202/202/202 203/203/203
f 208/208/208 207/207/207 206/206/206
f 209/209/209 206/206/206 207/207/207
