g [gimmick]wood_easel
v -0.49136898 0.2829695 -0.26544166
v 0.49136898 0.3031411 -0.34072292
v -0.49136898 0.3031411 -0.34072292
v 0.4913689 0.28296953 -0.26544166
v -0.49136898 0.42246324 -0.22806448
v 0.49136898 0.44263473 -0.3033457
v 0.49136898 0.42246324 -0.22806448
v -0.49136898 0.44263473 -0.30334565
v -0.49136898 0.2829695 -0.26544166
v 0.5118335 0.30249026 -0.26021105
v 0.4913689 0.28296953 -0.26544166
v 0.49136898 0.42246324 -0.22806448
v 0.5118335 0.40294254 -0.23329507
v -0.5118335 0.40294254 -0.23329507
v -0.5118335 0.30249026 -0.26021105
v -0.49136898 0.42246324 -0.22806448
v 0.5118335 0.30249026 -0.26021105
v 0.5118335 0.423114 -0.30857623
v 0.5118335 0.32266173 -0.3354923
v 0.5118335 0.40294254 -0.23329507
v 0.49136898 0.3031411 -0.34072292
v -0.5118335 0.32266173 -0.3354923
v -0.49136898 0.3031411 -0.34072292
v -0.49136898 0.44263473 -0.30334565
v -0.5118335 0.423114 -0.30857623
v 0.5118335 0.423114 -0.30857623
v 0.5118335 0.32266173 -0.3354923
v 0.49136898 0.44263473 -0.3033457
v -0.5118335 0.32266173 -0.3354923
v -0.5118335 0.40294254 -0.23329507
v -0.5118335 0.30249026 -0.26021105
v -0.5118335 0.423114 -0.30857623
v -0.09816216 1.1190217 0.089508176
v 0.085237555 1.1072923 0.022987822
v 0.09816216 1.1190217 0.089508176
v -0.085237555 1.1072923 0.022987813
v -0.06054184 -0.007729181 0.28941196
v 0.09816216 1.1190217 0.089508176
v 0.06054181 -0.0077290926 0.28941205
v -0.09816216 1.1190217 0.089508176
v 0.06054181 -0.0077290926 0.28941205
v 0.085237555 1.1072923 0.022987822
v 0.052485812 -0.019818451 0.22080569
v 0.09816216 1.1190217 0.089508176
v 0.052485812 -0.019818451 0.22080569
v -0.085237555 1.1072923 0.022987813
v -0.052485973 -0.01981859 0.22080587
v 0.085237555 1.1072923 0.022987822
v -0.052485973 -0.01981859 0.22080587
v -0.09816216 1.1190217 0.089508176
v -0.06054184 -0.007729181 0.28941196
v -0.085237555 1.1072923 0.022987813
v -0.27713344 0.92029226 -0.0022768325
v 0.2771335 0.93898076 -0.07202366
v -0.27713344 0.93898076 -0.07202364
v 0.2771335 0.92029226 -0.0022768325
v -0.27713344 1.0597858 0.0351004
v 0.2771335 1.0784744 -0.034646474
v 0.2771335 1.0597858 0.0351004
v -0.27713344 1.0784744 -0.034646474
v -0.27713344 0.92029226 -0.0022768325
v 0.2771335 1.0597858 0.0351004
v 0.2771335 0.92029226 -0.0022768325
v -0.27713344 1.0597858 0.0351004
v 0.2771335 0.92029226 -0.0022768325
v 0.2771335 1.0784744 -0.034646474
v 0.2771335 0.93898076 -0.07202366
v 0.2771335 1.0597858 0.0351004
v 0.2771335 0.93898076 -0.07202366
v -0.27713344 1.0784744 -0.034646474
v -0.27713344 0.93898076 -0.07202364
v 0.2771335 1.0784744 -0.034646474
v -0.27713344 0.93898076 -0.07202364
v -0.27713344 1.0597858 0.0351004
v -0.27713344 0.92029226 -0.0022768325
v -0.27713344 1.0784744 -0.034646474
v -0.13950914 1.3613968 0.074273564
v -0.20589639 1.3916425 -0.004835531
v -0.13950914 1.3832003 -0.007097615
v -0.20589639 1.3698393 0.07653574
v -0.2930385 1.2868978 0.054311723
v -0.31382993 -0.023408465 -0.29678386
v -0.4689405 -0.0036836043 -0.29149866
v -0.12719786 1.3458993 0.07012109
v -0.20589639 1.3698393 0.07653574
v -0.13950914 1.3613968 0.074273564
v -0.4689405 -0.0036836043 -0.29149866
v -0.2930385 1.3087013 -0.027059592
v -0.2930385 1.2868978 0.054311723
v -0.4689405 0.018119747 -0.37286988
v -0.31382993 -0.0016051139 -0.3781551
v -0.2930385 1.3087013 -0.027059592
v -0.4689405 0.018119747 -0.37286988
v -0.12719786 1.3677027 -0.011250205
v -0.20589639 1.3916425 -0.004835531
v -0.13950914 1.3832003 -0.007097615
v -0.31382993 -0.0016051139 -0.3781551
v -0.12719786 1.3458993 0.07012109
v -0.12719786 1.3677027 -0.011250205
v -0.31382993 -0.023408465 -0.29678386
v -0.20589639 1.3698393 0.07653574
v -0.2930385 1.3087013 -0.027059592
v -0.20589639 1.3916425 -0.004835531
v -0.2930385 1.2868978 0.054311723
v -0.13950914 1.3832003 -0.007097615
v -0.12719786 1.3458993 0.07012109
v -0.13950914 1.3613968 0.074273564
v -0.12719786 1.3677027 -0.011250205
v 0.13950914 1.3613968 0.074273564
v 0.2058964 1.3916425 -0.004835531
v 0.2058964 1.369839 0.07653574
v 0.13950917 1.3832003 -0.007097615
v 0.31382984 -0.023408465 -0.29678386
v 0.29303846 1.2868978 0.054311723
v 0.46894047 -0.0036836043 -0.29149863
v 0.12719786 1.3458993 0.07012109
v 0.2058964 1.369839 0.07653574
v 0.13950914 1.3613968 0.074273564
v 0.46894047 -0.0036836043 -0.29149863
v 0.29303846 1.3087013 -0.027059592
v 0.46894038 0.018119747 -0.37286988
v 0.29303846 1.2868978 0.054311723
v 0.29303846 1.3087013 -0.027059592
v 0.3138299 -0.0016051139 -0.3781551
v 0.46894038 0.018119747 -0.37286988
v 0.12719786 1.3677027 -0.011250205
v 0.2058964 1.3916425 -0.004835531
v 0.13950917 1.3832003 -0.007097615
v 0.3138299 -0.0016051139 -0.3781551
v 0.12719786 1.3458993 0.07012109
v 0.31382984 -0.023408465 -0.29678386
v 0.12719786 1.3677027 -0.011250205
v 0.2058964 1.369839 0.07653574
v 0.29303846 1.3087013 -0.027059592
v 0.29303846 1.2868978 0.054311723
v 0.2058964 1.3916425 -0.004835531
v 0.13950917 1.3832003 -0.007097615
v 0.12719786 1.3458993 0.07012109
v 0.12719786 1.3677027 -0.011250205
v 0.13950914 1.3613968 0.074273564
v -0.49136898 0.2829695 -0.26544166
v -0.5118335 0.32266173 -0.3354923
v -0.5118335 0.30249026 -0.26021105
v -0.49136898 0.3031411 -0.34072292
v 0.49136898 0.3031411 -0.34072292
v 0.5118335 0.30249026 -0.26021105
v 0.5118335 0.32266173 -0.3354923
v 0.4913689 0.28296953 -0.26544166
v 0.49136898 0.42246324 -0.22806448
v 0.5118335 0.423114 -0.30857623
v 0.5118335 0.40294254 -0.23329507
v 0.49136898 0.44263473 -0.3033457
v -0.49136898 0.44263473 -0.30334565
v -0.5118335 0.40294254 -0.23329507
v -0.5118335 0.423114 -0.30857623
v -0.49136898 0.42246324 -0.22806448
vt 0.5296429 0.64969736
vt 0.43545562 0.6578672
vt 0.5296429 0.6578672
vt 0.43545562 0.64969736
vt 0.5296429 0.68280554
vt 0.43545562 0.6737783
vt 0.43545562 0.68280554
vt 0.5296429 0.6737783
vt 0.5296429 0.6987166
vt 0.43349427 0.69642997
vt 0.43545562 0.6987166
vt 0.43545562 0.68280554
vt 0.43349427 0.6846634
vt 0.53160423 0.6846634
vt 0.53160423 0.69642997
vt 0.5296429 0.68280554
vt 0.43066862 0.8318222
vt 0.42310396 0.84271723
vt 0.42310396 0.8318222
vt 0.43066862 0.84271723
vt 0.43545562 0.6578672
vt 0.53160423 0.6601538
vt 0.5296429 0.6578672
vt 0.5296429 0.6737783
vt 0.53160423 0.6719204
vt 0.43349427 0.6719204
vt 0.43349427 0.6601538
vt 0.43545562 0.6737783
vt 0.42310396 0.8318222
vt 0.43066862 0.84271723
vt 0.43066862 0.8318222
vt 0.42310396 0.84271723
vt 0.5290485 0.844287
vt 0.51282024 0.83554894
vt 0.5128208 0.84428674
vt 0.5290488 0.83554906
vt 0.48785204 0.74963856
vt 0.50408095 0.83554906
vt 0.50408095 0.74963844
vt 0.48785236 0.8355492
vt 0.50408095 0.74963844
vt 0.51282024 0.83554894
vt 0.5128198 0.7496383
vt 0.50408095 0.83554906
vt 0.5128198 0.7496383
vt 0.5290488 0.83554906
vt 0.5290489 0.7496387
vt 0.51282024 0.83554894
vt 0.5128201 0.74963856
vt 0.50408095 0.83554906
vt 0.50408095 0.74963856
vt 0.51282024 0.83554894
vt 0.5312533 0.7013046
vt 0.48522103 0.7088693
vt 0.5312533 0.7088693
vt 0.48522103 0.7013046
vt 0.5312533 0.7315633
vt 0.48522103 0.7239987
vt 0.48522103 0.7315633
vt 0.5312533 0.7239987
vt 0.5312533 0.7466927
vt 0.48522103 0.7315633
vt 0.48522103 0.7466927
vt 0.5312533 0.7315633
vt 0.4211796 0.82962865
vt 0.41361493 0.8447581
vt 0.41361493 0.82962865
vt 0.4211796 0.84475803
vt 0.48522103 0.7088693
vt 0.5312533 0.7239987
vt 0.5312533 0.7088693
vt 0.48522103 0.7239987
vt 0.41361493 0.82962865
vt 0.4211796 0.8447581
vt 0.4211796 0.82962865
vt 0.41361493 0.8447581
vt 0.47324166 0.8449215
vt 0.4662374 0.83694685
vt 0.47324166 0.8369467
vt 0.46623752 0.8449216
vt 0.44956023 0.8281167
vt 0.43319532 0.7002399
vt 0.44956023 0.7002399
vt 0.4331951 0.83559304
vt 0.44169524 0.8369467
vt 0.43469092 0.8369467
vt 0.44956023 0.7002399
vt 0.45848128 0.8281167
vt 0.44956023 0.8281167
vt 0.45848128 0.7002399
vt 0.47472718 0.7002398
vt 0.45848128 0.8281167
vt 0.45848128 0.7002399
vt 0.47472718 0.83559287
vt 0.4662374 0.83694685
vt 0.47324166 0.8369467
vt 0.47472718 0.7002398
vt 0.4835494 0.83559287
vt 0.47472718 0.83559287
vt 0.48354945 0.7002398
vt 0.46623752 0.8449216
vt 0.45848128 0.83694685
vt 0.4662374 0.83694685
vt 0.45848128 0.8449216
vt 0.47324166 0.8369467
vt 0.47472718 0.8449215
vt 0.47324166 0.8449215
vt 0.47472718 0.83694696
vt 0.47324166 0.8449215
vt 0.4662374 0.83694685
vt 0.46623752 0.8449216
vt 0.47324166 0.8369467
vt 0.43319532 0.7002399
vt 0.44956023 0.8281167
vt 0.44956023 0.7002399
vt 0.4331951 0.83559304
vt 0.44169524 0.8369467
vt 0.43469092 0.8369467
vt 0.44956023 0.7002399
vt 0.45848128 0.8281167
vt 0.45848128 0.7002399
vt 0.44956023 0.8281167
vt 0.45848128 0.8281167
vt 0.47472718 0.7002398
vt 0.45848128 0.7002399
vt 0.47472718 0.83559287
vt 0.4662374 0.83694685
vt 0.47324166 0.8369467
vt 0.47472718 0.7002398
vt 0.4835494 0.83559287
vt 0.48354945 0.7002398
vt 0.47472718 0.83559287
vt 0.46623752 0.8449216
vt 0.45848128 0.83694685
vt 0.45848128 0.8449216
vt 0.4662374 0.83694685
vt 0.47324166 0.8369467
vt 0.47472718 0.8449215
vt 0.47472718 0.83694696
vt 0.47324166 0.8449215
vt 0.5296429 0.64969736
vt 0.53155744 0.6578672
vt 0.53155744 0.64969736
vt 0.5296429 0.6578672
vt 0.43545562 0.6578672
vt 0.43345425 0.64969736
vt 0.43345425 0.6578672
vt 0.43545562 0.64969736
vt 0.43545562 0.68280554
vt 0.4334748 0.6737783
vt 0.4334748 0.68280554
vt 0.43545562 0.6737783
vt 0.5296429 0.6737783
vt 0.5316237 0.68280554
vt 0.5316237 0.6737783
vt 0.5296429 0.68280554
vn -0 -0.9659257 -0.25881943
vn -0 -0.9659258 -0.25881904
vn -0 -0.9659257 -0.25881946
vn -0 -0.9659258 -0.258819
vn -0 0.96592593 0.25881863
vn -0 0.96592593 0.2588185
vn -0 0.96592593 0.2588185
vn -0 0.96592593 0.2588187
vn 3.7884467E-07 -0.2588183 0.96592605
vn 1.6441949E-07 -0.25881892 0.9659258
vn -0 -0.25882012 0.96592563
vn 6.5274196E-07 -0.2588184 0.96592593
vn 2.5219385E-06 -0.25881806 0.96592605
vn -0 -0.25881898 0.9659258
vn 1.5449713E-06 -0.25881806 0.96592605
vn -0 -0.25882053 0.9659255
vn 1 0 0
vn 1 0 0
vn 1 0 0
vn 1 0 0
vn 7.926263E-07 0.25881925 -0.9659257
vn -0 0.25881994 -0.96592563
vn -0 0.25882187 -0.96592504
vn -0 0.25881898 -0.9659258
vn 1.8176131E-07 0.25881895 -0.9659258
vn 1.9839162E-07 0.25881872 -0.96592593
vn 2.9763414E-06 0.25881892 -0.9659258
vn -0 0.25881734 -0.9659263
vn -1 0 0
vn -1 0 0
vn -1 0 0
vn -1 0 0
vn -0 0.9848077 -0.17364812
vn -0 0.9848077 -0.17364813
vn -0 0.9848077 -0.17364813
vn -0 0.9848077 -0.17364812
vn -6.7200455E-07 0.17468828 0.98462385
vn -0 0.17468819 0.98462385
vn -7.520405E-07 0.17468828 0.98462385
vn -0 0.17468816 0.98462385
vn 0.9926489 -0.04848274 -0.11089489
vn 0.9822031 -0.06395086 -0.17659931
vn 0.9929807 -0.047838863 -0.10816942
vn 0.9816637 -0.06459449 -0.17934303
vn -1.2600874E-06 -0.17286672 -0.98494524
vn -0 -0.17286657 -0.98494524
vn -1.3946251E-06 -0.17286676 -0.98494524
vn -0 -0.17286654 -0.98494524
vn -0.9925236 -0.052510485 -0.11017985
vn -0.98233056 -0.05984334 -0.177329
vn -0.9928463 -0.052201025 -0.10738343
vn -0.98179793 -0.06014759 -0.18015322
vn -0 -0.9659262 -0.2588176
vn -0 -0.9659263 -0.25881755
vn -0 -0.9659262 -0.25881758
vn -0 -0.9659263 -0.25881755
vn -0 0.9659263 0.25881734
vn -0 0.9659263 0.25881734
vn -0 0.9659263 0.25881734
vn -0 0.9659263 0.25881734
vn -0 -0.25881925 0.9659257
vn -0 -0.25881925 0.9659257
vn -0 -0.25881925 0.9659257
vn -0 -0.25881925 0.9659257
vn 1 0 0
vn 1 0 0
vn 1 0 0
vn 1 0 0
vn -0 0.25881892 -0.9659258
vn -0 0.25881884 -0.9659258
vn -0 0.25881886 -0.9659258
vn -0 0.25881898 -0.9659258
vn -1 0 0
vn -1 0 0
vn -1 0 0
vn -1 0 0
vn 0.13052784 0.95766217 0.25660414
vn 0.1305272 0.95766217 0.25660476
vn 0.13052519 0.9576619 0.2566064
vn 0.13052985 0.95766234 0.25660256
vn 2.8016845E-07 -0.25881892 0.9659258
vn -3.8232844E-07 -0.2588191 0.9659258
vn -4.4400568E-07 -0.2588191 0.9659258
vn 3.5398597E-07 -0.25881794 0.9659262
vn -0 -0.25881782 0.9659262
vn 7.101391E-07 -0.25881565 0.9659267
vn -0.9914449 0.12607865 0.033782676
vn -0.9914449 0.12607862 0.03378281
vn -0.9914449 0.12607864 0.033782817
vn -0.9914449 0.12607865 0.03378267
vn 1.7915463E-07 0.25881907 -0.9659258
vn -0 0.25881913 -0.9659257
vn 1.944818E-07 0.25881904 -0.9659258
vn -0 0.25881958 -0.96592563
vn -2.1874007E-07 0.25881973 -0.96592563
vn -0 0.25882047 -0.9659255
vn 0.9914449 -0.12607858 -0.03378264
vn 0.9914449 -0.1260786 -0.033782586
vn 0.9914449 -0.1260786 -0.033782586
vn 0.9914449 -0.12607858 -0.033782642
vn -0.70187706 0.6880274 0.18435569
vn -0.7018773 0.6880269 0.18435618
vn -0.7018765 0.688028 0.18435489
vn -0.7018778 0.68802625 0.18435697
vn 0.79335153 0.5880206 0.15755954
vn 0.7933492 0.5880233 0.15756117
vn 0.7933488 0.58802396 0.15756151
vn 0.793352 0.58802015 0.1575592
vn -0.13052535 0.9576619 0.25660616
vn -0.1305253 0.9576619 0.2566062
vn -0.13052547 0.9576619 0.25660604
vn -0.1305252 0.9576619 0.2566063
vn 1.6136202E-07 -0.25881913 0.9659258
vn -3.8424736E-07 -0.2588192 0.9659257
vn 2.0549015E-07 -0.25881913 0.9659258
vn -8.517298E-07 -0.25881803 0.96592605
vn -6.1950755E-07 -0.25881904 0.9659258
vn -2.0451923E-06 -0.25881472 0.96592706
vn 0.9914449 0.1260788 0.03378181
vn 0.9914449 0.1260786 0.033782773
vn 0.9914449 0.1260788 0.033781767
vn 0.9914449 0.1260786 0.033782814
vn -0 0.25881913 -0.9659257
vn -1.7915471E-07 0.258819 -0.9659258
vn -1.944819E-07 0.25881904 -0.9659258
vn -0 0.25881955 -0.96592563
vn 2.1874003E-07 0.25881967 -0.96592563
vn -0 0.2588204 -0.9659255
vn -0.9914449 -0.1260783 -0.033783462
vn -0.9914449 -0.12607858 -0.033782616
vn -0.9914449 -0.12607828 -0.03378349
vn -0.9914449 -0.12607859 -0.033782583
vn 0.70187676 0.6880272 0.18435729
vn 0.7018767 0.6880272 0.18435726
vn 0.70187664 0.6880273 0.18435724
vn 0.70187676 0.6880272 0.18435729
vn -0.7933507 0.5880217 0.15755977
vn -0.7933491 0.5880236 0.15756091
vn -0.7933511 0.5880213 0.15755948
vn -0.7933488 0.588024 0.15756118
vn -0.7026571 -0.68728405 -0.18415675
vn -0.70265603 -0.6872848 -0.1841575
vn -0.7026575 -0.6872836 -0.18415643
vn -0.70265555 -0.6872852 -0.18415786
vn 0.7026556 -0.6872855 -0.18415691
vn 0.70265555 -0.6872855 -0.18415688
vn 0.7026556 -0.6872855 -0.18415691
vn 0.70265555 -0.6872855 -0.18415688
vn 0.7026562 0.68728477 0.18415684
vn 0.7026565 0.6872845 0.18415688
vn 0.7026561 0.6872849 0.18415684
vn 0.7026565 0.68728447 0.18415688
vn -0.7026566 0.68728447 0.18415678
vn -0.70265627 0.6872847 0.184157
vn -0.7026567 0.68728435 0.18415666
vn -0.7026562 0.6872848 0.18415709
g [gimmick]wood_easel_0
f 3/3/3 2/2/2 1/1/1
f 4/4/4 1/1/1 2/2/2
f 7/7/7 6/6/6 5/5/5
f 8/8/8 5/5/5 6/6/6
f 11/11/11 10/10/10 9/9/9
f 10/10/10 12/12/12 9/9/9
f 13/13/13 12/12/12 10/10/10
f 12/12/12 14/14/14 9/9/9
f 9/9/9 14/14/14 15/15/15
f 16/16/16 14/14/14 12/12/12
f 19/19/19 18/18/18 17/17/17
f 20/20/20 17/17/17 18/18/18
f 23/23/23 22/22/22 21/21/21
f 22/22/22 24/24/24 21/21/21
f 25/25/25 24/24/24 22/22/22
f 24/24/24 26/26/26 21/21/21
f 21/21/21 26/26/26 27/27/27
f 28/28/28 26/26/26 24/24/24
f 31/31/31 30/30/30 29/29/29
f 32/32/32 29/29/29 30/30/30
f 35/35/35 34/34/34 33/33/33
f 36/36/36 33/33/33 34/34/34
f 39/39/39 38/38/38 37/37/37
f 40/40/40 37/37/37 38/38/38
f 43/43/43 42/42/42 41/41/41
f 44/44/44 41/41/41 42/42/42
f 47/47/47 46/46/46 45/45/45
f 48/48/48 45/45/45 46/46/46
f 51/51/51 50/50/50 49/49/49
f 52/52/52 49/49/49 50/50/50
f 55/55/55 54/54/54 53/53/53
f 56/56/56 53/53/53 54/54/54
f 59/59/59 58/58/58 57/57/57
f 60/60/60 57/57/57 58/58/58
f 63/63/63 62/62/62 61/61/61
f 64/64/64 61/61/61 62/62/62
f 67/67/67 66/66/66 65/65/65
f 68/68/68 65/65/65 66/66/66
f 71/71/71 70/70/70 69/69/69
f 72/72/72 69/69/69 70/70/70
f 75/75/75 74/74/74 73/73/73
f 76/76/76 73/73/73 74/74/74
f 79/79/79 78/78/78 77/77/77
f 80/80/80 77/77/77 78/78/78
f 83/83/83 82/82/82 81/81/81
f 84/84/84 81/81/81 82/82/82
f 81/81/81 84/84/84 85/85/85
f 86/86/86 85/85/85 84/84/84
f 89/89/89 88/88/88 87/87/87
f 90/90/90 87/87/87 88/88/88
f 93/93/93 92/92/92 91/91/91
f 94/94/94 91/91/91 92/92/92
f 92/92/92 95/95/95 94/94/94
f 96/96/96 94/94/94 95/95/95
f 99/99/99 98/98/98 97/97/97
f 100/100/100 97/97/97 98/98/98
f 103/103/103 102/102/102 101/101/101
f 104/104/104 101/101/101 102/102/102
f 107/107/107 106/106/106 105/105/105
f 108/108/108 105/105/105 106/106/106
f 111/111/111 110/110/110 109/109/109
f 112/112/112 109/109/109 110/110/110
f 115/115/115 114/114/114 113/113/113
f 116/116/116 113/113/113 114/114/114
f 114/114/114 117/117/117 116/116/116
f 118/118/118 116/116/116 117/117/117
f 121/121/121 120/120/120 119/119/119
f 122/122/122 119/119/119 120/120/120
f 125/125/125 124/124/124 123/123/123
f 126/126/126 123/123/123 124/124/124
f 123/123/123 126/126/126 127/127/127
f 128/128/128 127/127/127 126/126/126
f 131/131/131 130/130/130 129/129/129
f 132/132/132 129/129/129 130/130/130
f 135/135/135 134/134/134 133/133/133
f 136/136/136 133/133/133 134/134/134
f 139/139/139 138/138/138 137/137/137
f 140/140/140 137/137/137 138/138/138
f 143/143/143 142/142/142 141/141/141
f 144/144/144 141/141/141 142/142/142
f 147/147/147 146/146/146 145/145/145
f 148/148/148 145/145/145 146/146/146
f 151/151/151 150/150/150 149/149/149
f 152/152/152 149/149/149 150/150/150
f 155/155/155 154/154/154 153/153/153
f 156/156/156 153/153/153 154/154/154
