g [gimmick]line2
v 0.19065593 8.734678 0.7724766
v 0.20123737 10.556947 0.8442547
v 0.21583132 8.731319 0.8570907
v 0.30175468 8.730583 0.8776154
v 0.28716084 10.556211 0.86477983
v 0.36250263 8.733208 0.8135266
v 0.3479088 10.558836 0.80069
v 0.33732694 8.736567 0.7289122
v 0.29625586 11.797514 0.83197075
v 0.2103326 11.798251 0.81144506
v 0.3570039 11.800139 0.76788104
v 0.32273316 10.562195 0.7160764
v 0.25140366 8.737302 0.70838773
v 0.3318284 11.803497 0.68326694
v 0.17606208 10.560305 0.7596414
v 0.18515728 11.801608 0.7268318
v 0.23680983 10.562928 0.6955514
v 0.24590506 11.804233 0.6627425
v 0.21583132 8.731319 0.8570907
v 0.22840239 7.5810666 0.86547333
v 0.20322792 7.5839477 0.78084046
v 0.19065593 8.734678 0.7724766
v 0.30175468 8.730583 0.8776154
v 0.26397565 7.586677 0.71675533
v 0.31432432 7.580915 0.886021
v 0.25140366 8.737302 0.70838773
v 0.36250263 8.733208 0.8135266
v 0.34989753 7.5865254 0.73730296
v 0.375072 7.583644 0.82193583
v 0.33732694 8.736567 0.7289122
vt 0.029856611 0.09543955
vt 0.50941753 0.13377294
vt 0.029856611 0.13377294
vt 0.029856611 0.09543955
vt 0.50941753 0.09543955
vt 0.029856611 0.057106137
vt 0.50941753 0.057106137
vt 0.029856611 0.01877284
vt 0.97508675 0.09543955
vt 0.97508675 0.13377294
vt 0.97508675 0.057106137
vt 0.50941753 0.01877284
vt 0.029856611 0.057106137
vt 0.97508675 0.01877284
vt 0.50941753 0.09543955
vt 0.97508675 0.09543955
vt 0.50941753 0.057106137
vt 0.97508675 0.057106137
vt 0.9484751 0.21657732
vt 0.7505816 0.21657732
vt 0.7505816 0.2549107
vt 0.9484751 0.2549107
vt 0.9484751 0.2549107
vt 0.7505816 0.29324412
vt 0.7505816 0.2549107
vt 0.9484751 0.29324412
vt 0.9484751 0.29324412
vt 0.7505816 0.33157742
vt 0.7505816 0.29324412
vt 0.9484751 0.33157742
vn -0.9724674 -0.010851617 -0.23278612
vn -0.68712115 0.011774936 0.72644746
vn -0.6878754 -0.0013315686 0.7258276
vn 0.28420278 0.009572505 0.95871633
vn 0.28164485 0.016075367 0.95938396
vn 0.9724348 0.01088546 0.2329205
vn 0.97171146 0.0044915588 0.23612845
vn 0.68733954 0.0012811673 -0.72633517
vn 0.29279375 0.023120249 0.955896
vn -0.6960197 0.024067532 0.71761924
vn 0.97729707 -0.0015608582 0.21186756
vn 0.68761575 -0.0120660635 -0.72597444
vn -0.2850419 -0.009543276 -0.9584676
vn 0.6777029 -0.024390759 -0.7349312
vn -0.9733791 -0.003938859 -0.22916728
vn -0.96743786 0.00039861625 -0.2531085
vn -0.2878071 -0.016184134 -0.9575516
vn -0.27640262 -0.023368804 -0.9607577
vn -0.6878754 -0.0013315686 0.7258276
vn -0.6799713 -0.002081893 0.7332358
vn -0.97538257 -0.012256996 -0.22017866
vn -0.9724674 -0.010851617 -0.23278612
vn 0.28420278 0.009572505 0.95871633
vn -0.28709817 -0.010107951 -0.95784783
vn 0.28194666 0.010091449 0.959377
vn -0.2850419 -0.009543276 -0.9584676
vn 0.9724348 0.01088546 0.2329205
vn 0.6951225 0.0023587064 -0.7188874
vn 0.969263 0.01239505 0.24571428
vn 0.68733954 0.0012811673 -0.72633517
g [gimmick]line2_0
f 3/3/3 2/2/2 1/1/1
f 2/2/2 3/3/3 4/4/4
f 5/5/5 2/2/2 4/4/4
f 5/5/5 4/4/4 6/6/6
f 7/7/7 5/5/5 6/6/6
f 7/7/7 6/6/6 8/8/8
f 2/2/2 5/5/5 9/9/9
f 9/9/9 5/5/5 7/7/7
f 10/10/10 2/2/2 9/9/9
f 11/11/11 9/9/9 7/7/7
f 12/12/12 7/7/7 8/8/8
f 11/11/11 7/7/7 12/12/12
f 12/12/12 8/8/8 13/13/13
f 14/14/14 11/11/11 12/12/12
f 15/15/15 2/2/2 10/10/10
f 2/2/2 15/15/15 1/1/1
f 16/16/16 15/15/15 10/10/10
f 17/17/17 13/13/13 1/1/1
f 17/17/17 12/12/12 13/13/13
f 14/14/14 12/12/12 17/17/17
f 15/15/15 17/17/17 1/1/1
f 17/17/17 15/15/15 16/16/16
f 18/18/18 14/14/14 17/17/17
f 18/18/18 17/17/17 16/16/16
f 21/21/21 20/20/20 19/19/19
f 22/22/22 21/21/21 19/19/19
f 19/19/19 20/20/20 23/23/23
f 24/24/24 21/21/21 22/22/22
f 20/20/20 25/25/25 23/23/23
f 26/26/26 24/24/24 22/22/22
f 23/23/23 25/25/25 27/27/27
f 28/28/28 24/24/24 26/26/26
f 25/25/25 29/29/29 27/27/27
f 30/30/30 28/28/28 26/26/26
f 27/27/27 29/29/29 30/30/30
f 29/29/29 28/28/28 30/30/30
