g [gimmick]portal_pedestal
v 0.2447961 0.75378424 -0.42402238
v 0.2737237 0.78606045 -0.38833722
v 0.2138265 0.78339463 -0.38833722
v -2.2587962 0.75378424 -0.42402238
v -2.2278264 0.78339463 -0.38833722
v -2.2877238 0.78606045 -0.38833722
v 0.5165166 0.6292038 0.26709852
v 0.51823896 0.5687585 0.26709852
v 0.46259922 0.5948323 0.3566653
v 0.21101464 0.7823816 0.26709852
v 0.27089 0.7850237 0.26709852
v 0.24420688 0.75274706 0.35666534
v -2.5306935 0.56594986 0.26709852
v -2.528971 0.62639517 0.26709852
v -2.475054 0.5920237 0.3566653
v -2.28489 0.7850237 0.26709852
v -2.2250144 0.7823816 0.26709852
v -2.2582066 0.75274706 0.35666534
v 0.5165166 0.6292038 0.26709852
v 0.27089 0.7850237 0.26709852
v 0.2737237 0.78606045 -0.38833722
v 0.5100278 0.62871206 -0.38833722
v -0.016870892 -3.8414E-08 -0.42402238
v 0.5117502 0.56826675 -0.42402238
v 0.2447961 0.75378424 -0.42402238
v -0.018149953 0.51860696 -0.42402238
v -0.30605745 0.40832615 -0.42402238
v -1.007 -3.8414E-08 -0.42402238
v -1.007 0.40699658 -0.42402238
v 0.5117502 0.56826675 -0.42402238
v -0.016870892 -3.8414E-08 -0.42402238
v -0.016870892 3.8414E-08 0.26709852
v 0.51823896 0.5687585 0.26709852
v 0.21101464 0.7823816 0.26709852
v -0.031301532 0.55725956 0.26709852
v -0.031768262 0.5630101 -0.38833722
v 0.2138265 0.78339463 -0.38833722
v -0.31710663 0.44498503 0.26709852
v -1.007 0.44498503 0.26709852
v -1.007 0.45319566 -0.38833722
v -0.3194955 0.45290932 -0.38833722
v 0.5117502 0.56826675 -0.42402238
v 0.51823896 0.5687585 0.26709852
v 0.5165166 0.6292038 0.26709852
v 0.5100278 0.62871206 -0.38833722
v -0.3194955 0.45290932 -0.38833722
v -1.007 0.45319566 -0.38833722
v -1.007 0.40699658 -0.42402238
v -0.30605745 0.40832615 -0.42402238
v 0.21101464 0.7823816 0.26709852
v 0.2138265 0.78339463 -0.38833722
v 0.2737237 0.78606045 -0.38833722
v 0.27089 0.7850237 0.26709852
v 0.2138265 0.78339463 -0.38833722
v -0.031768262 0.5630101 -0.38833722
v -0.018149953 0.51860696 -0.42402238
v 0.2447961 0.75378424 -0.42402238
v 0.5100278 0.62871206 -0.38833722
v 0.2737237 0.78606045 -0.38833722
v 0.2447961 0.75378424 -0.42402238
v 0.5117502 0.56826675 -0.42402238
v -2.528971 0.62639517 0.26709852
v -2.5240276 0.62871206 -0.38833722
v -2.2877238 0.78606045 -0.38833722
v -2.28489 0.7850237 0.26709852
v -2.5257502 0.56826675 -0.42402238
v -1.9958498 0.5186069 -0.42402238
v -2.2587962 0.75378424 -0.42402238
v -1.9971292 -3.8414E-08 -0.42402238
v -1.7079424 0.40832615 -0.42402238
v -1.007 -3.8414E-08 -0.42402238
v -1.007 0.40699658 -0.42402238
v -1.9971292 3.8414E-08 0.26709852
v -1.9971292 -3.8414E-08 -0.42402238
v -2.5257502 0.56826675 -0.42402238
v -2.5306935 0.56594986 0.26709852
v -1.9822314 0.56301004 -0.38833722
v -1.9826984 0.55725956 0.26709852
v -2.2250144 0.7823816 0.26709852
v -2.2278264 0.78339463 -0.38833722
v -1.007 0.45319566 -0.38833722
v -1.007 0.44498503 0.26709852
v -1.6968933 0.44498503 0.26709852
v -1.6945043 0.45290932 -0.38833722
v -2.5257502 0.56826675 -0.42402238
v -2.5240276 0.62871206 -0.38833722
v -2.528971 0.62639517 0.26709852
v -2.5306935 0.56594986 0.26709852
v -1.6945043 0.45290932 -0.38833722
v -1.7079424 0.40832615 -0.42402238
v -1.007 0.40699658 -0.42402238
v -1.007 0.45319566 -0.38833722
v -2.2250144 0.7823816 0.26709852
v -2.28489 0.7850237 0.26709852
v -2.2877238 0.78606045 -0.38833722
v -2.2278264 0.78339463 -0.38833722
v -2.2278264 0.78339463 -0.38833722
v -2.2587962 0.75378424 -0.42402238
v -1.9958498 0.5186069 -0.42402238
v -1.9822314 0.56301004 -0.38833722
v -1.7079424 0.40832615 -0.42402238
v -1.6945043 0.45290932 -0.38833722
v -2.5240276 0.62871206 -0.38833722
v -2.5257502 0.56826675 -0.42402238
v -2.2587962 0.75378424 -0.42402238
v -2.2877238 0.78606045 -0.38833722
v 0.51823896 0.5687585 0.26709852
v -0.016870892 3.8414E-08 0.26709852
v -0.08736089 3.8414E-08 0.3566653
v 0.46259922 0.5948323 0.3566653
v -2.475054 0.5920237 0.3566653
v -1.9266392 3.8414E-08 0.3566653
v -1.9971292 3.8414E-08 0.26709852
v -2.5306935 0.56594986 0.26709852
v -0.031301532 0.55725956 0.26709852
v 0.21101464 0.7823816 0.26709852
v 0.24420688 0.75274706 0.35666534
v -0.018916303 0.52435315 0.3566653
v -1.007 0.44498503 0.26709852
v -0.31710663 0.44498503 0.26709852
v -0.30844256 0.41564104 0.3566653
v -1.007 0.4131755 0.3566653
v 0.27089 0.7850237 0.26709852
v 0.5165166 0.6292038 0.26709852
v 0.46259922 0.5948323 0.3566653
v 0.24420688 0.75274706 0.35666534
v -2.528971 0.62639517 0.26709852
v -2.28489 0.7850237 0.26709852
v -2.2582066 0.75274706 0.35666534
v -2.475054 0.5920237 0.3566653
v -2.2250144 0.7823816 0.26709852
v -1.9826984 0.55725956 0.26709852
v -1.9950837 0.5243532 0.3566653
v -2.2582066 0.75274706 0.35666534
v -1.6968933 0.44498503 0.26709852
v -1.007 0.44498503 0.26709852
v -1.007 0.4131755 0.3566653
v -1.7055573 0.41564104 0.3566653
v -0.31710663 0.44498503 0.26709852
v -0.3194955 0.45290932 -0.38833722
v -0.031768262 0.5630101 -0.38833722
v -0.031301532 0.55725956 0.26709852
v -0.3194955 0.45290932 -0.38833722
v -0.30605745 0.40832615 -0.42402238
v -0.018149953 0.51860696 -0.42402238
v -0.031768262 0.5630101 -0.38833722
v -1.6945043 0.45290932 -0.38833722
v -1.6968933 0.44498503 0.26709852
v -1.9826984 0.55725956 0.26709852
v -1.9822314 0.56301004 -0.38833722
v -0.031301532 0.55725956 0.26709852
v -0.018916303 0.52435315 0.3566653
v -0.30844256 0.41564104 0.3566653
v -0.31710663 0.44498503 0.26709852
v -1.6968933 0.44498503 0.26709852
v -1.7055573 0.41564104 0.3566653
v -1.9950837 0.5243532 0.3566653
v -1.9826984 0.55725956 0.26709852
vt 0.99630296 0.4156514
vt 0.9920603 0.4175808
vt 0.9920603 0.41377017
vt 0.99630296 0.4156514
vt 0.9920603 0.41377017
vt 0.9920603 0.4175808
vt 0.9463386 0.44683555
vt 0.94615096 0.4506803
vt 0.94138753 0.44638354
vt 0.9463386 0.41377017
vt 0.9463386 0.4175808
vt 0.9415519 0.41776472
vt 0.94615096 0.4506803
vt 0.9463386 0.44683555
vt 0.9410132 0.44681227
vt 0.9463386 0.4175808
vt 0.9463386 0.41377017
vt 0.9410132 0.41771775
vt 0.9463386 0.44683555
vt 0.9463386 0.4175808
vt 0.9920603 0.4175808
vt 0.9920603 0.44683543
vt 0.93379766 0.37737104
vt 0.87668246 0.42948583
vt 0.8587188 0.4031591
vt 0.8819181 0.37707683
vt 0.89276594 0.3515007
vt 0.93379766 0.29464406
vt 0.89276594 0.29464424
vt 0.9920603 0.45068017
vt 0.9920603 0.46487105
vt 0.94615096 0.46487117
vt 0.94615096 0.4506803
vt 0.9463386 0.41377017
vt 0.9463386 0.3805788
vt 0.9920603 0.38060465
vt 0.9920603 0.41377017
vt 0.9463386 0.35063723
vt 0.9463386 0.29464406
vt 0.9920603 0.29464406
vt 0.9920603 0.3505997
vt 0.9920603 0.45068017
vt 0.94615096 0.4506803
vt 0.9463386 0.44683555
vt 0.9920603 0.44683543
vt 0.9920603 0.3505997
vt 0.9920603 0.29464406
vt 0.99690664 0.29464406
vt 0.99690664 0.35065642
vt 0.9463386 0.41377017
vt 0.9920603 0.41377017
vt 0.9920603 0.4175808
vt 0.9463386 0.4175808
vt 0.9920603 0.41377017
vt 0.9920603 0.38060465
vt 0.99682343 0.3798167
vt 0.99682343 0.4139888
vt 0.9920603 0.44683543
vt 0.9920603 0.4175808
vt 0.99698555 0.41718206
vt 0.99698555 0.44905177
vt 0.9463386 0.44683555
vt 0.9920603 0.44683543
vt 0.9920603 0.4175808
vt 0.9463386 0.4175808
vt 0.87668246 0.3285009
vt 0.8819181 0.38090986
vt 0.8587188 0.35482767
vt 0.93379766 0.3806155
vt 0.89276594 0.40648594
vt 0.93379766 0.4633421
vt 0.89276594 0.46334222
vt 0.94615096 0.46487117
vt 0.9920603 0.46487105
vt 0.9920603 0.45068017
vt 0.94615096 0.4506803
vt 0.9920603 0.38060465
vt 0.9463386 0.3805788
vt 0.9463386 0.41377017
vt 0.9920603 0.41377017
vt 0.9920603 0.29464406
vt 0.9463386 0.29464406
vt 0.9463386 0.35063723
vt 0.9920603 0.3505997
vt 0.9920603 0.45068017
vt 0.9920603 0.44683543
vt 0.9463386 0.44683555
vt 0.94615096 0.4506803
vt 0.9920603 0.3505997
vt 0.99690664 0.35065642
vt 0.99690664 0.29464406
vt 0.9920603 0.29464406
vt 0.9463386 0.41377017
vt 0.9463386 0.4175808
vt 0.9920603 0.4175808
vt 0.9920603 0.41377017
vt 0.9920603 0.41377017
vt 0.99682343 0.4139888
vt 0.99682343 0.3798167
vt 0.9920603 0.38060465
vt 0.98938346 0.35355923
vt 0.98461246 0.3540711
vt 0.9920603 0.44683543
vt 0.99698555 0.44905177
vt 0.99698555 0.41718206
vt 0.9920603 0.4175808
vt 0.94615096 0.4506803
vt 0.94615096 0.46487117
vt 0.94643354 0.4596469
vt 0.94138753 0.44638354
vt 0.9410132 0.44681227
vt 0.94066757 0.45952463
vt 0.94615096 0.46487117
vt 0.94615096 0.4506803
vt 0.9463386 0.3805788
vt 0.9463386 0.41377017
vt 0.9415519 0.41776472
vt 0.94118625 0.38418052
vt 0.9463386 0.29464406
vt 0.9463386 0.35063723
vt 0.9410131 0.35421398
vt 0.9410131 0.29464406
vt 0.9463386 0.4175808
vt 0.9463386 0.44683555
vt 0.94138753 0.44638354
vt 0.9415519 0.41776472
vt 0.9463386 0.44683555
vt 0.9463386 0.4175808
vt 0.9410132 0.41771775
vt 0.9410132 0.44681227
vt 0.9463386 0.41377017
vt 0.9463386 0.3805788
vt 0.94101316 0.3836588
vt 0.9410132 0.41771775
vt 0.9463386 0.35063723
vt 0.9463386 0.29464406
vt 0.9410131 0.29464406
vt 0.9410131 0.3536101
vt 0.9463386 0.35063723
vt 0.9920603 0.3505997
vt 0.9920603 0.38060465
vt 0.9463386 0.3805788
vt 0.9828501 0.3924667
vt 0.98759794 0.39245945
vt 0.99682343 0.3798167
vt 0.9920603 0.38060465
vt 0.9920603 0.3505997
vt 0.9463386 0.35063723
vt 0.9463386 0.3805788
vt 0.9920603 0.38060465
vt 0.9463386 0.3805788
vt 0.94118625 0.38418052
vt 0.9410131 0.35421398
vt 0.9463386 0.35063723
vt 0.9463386 0.35063723
vt 0.9410131 0.3536101
vt 0.94101316 0.3836588
vt 0.9463386 0.3805788
vn -0.0335859 0.7546177 -0.6553046
vn -0.033585902 0.75461775 -0.6553046
vn -0.0335859 0.7546177 -0.6553046
vn 0.033585858 0.75461763 -0.6553046
vn 0.033585858 0.75461763 -0.6553047
vn 0.03358586 0.75461763 -0.6553047
vn 0.8523454 0.02428676 0.52241504
vn 0.8523454 0.024286766 0.52241504
vn 0.8523454 0.024286764 0.52241504
vn -0.04164943 0.94385546 0.3277229
vn -0.041649424 0.94385535 0.3277229
vn -0.04164943 0.94385546 0.3277229
vn -0.8523469 0.024288978 0.52241254
vn -0.8523469 0.024288975 0.52241254
vn -0.8523469 0.024288975 0.52241254
vn 0.041649375 0.94385546 0.32772288
vn 0.04164937 0.94385546 0.32772285
vn 0.041649375 0.94385546 0.32772288
vn 0.54488194 0.838512 -0.0011706551
vn 0.544882 0.838512 -0.0011706551
vn 0.544882 0.838512 -0.0011706552
vn 0.544882 0.838512 -0.0011706552
vn -0 0 -1
vn -0 0 -1
vn -0 0 -1
vn -0 0 -1
vn -0 0 -1
vn -0 0 -1
vn -0 0 -1
vn 0.73024786 -0.68317497 -0.003184963
vn 0.73024786 -0.68317497 -0.003184963
vn 0.73024786 -0.68317497 -0.003184963
vn 0.73024774 -0.6831749 -0.0031849626
vn -0.6742857 0.7384659 0.0026038834
vn -0.6742857 0.7384659 0.0026038832
vn -0.67428577 0.7384659 0.0026038832
vn -0.67428577 0.7384659 0.0026038834
vn 0.00020786746 0.9999243 0.012307261
vn -0 0.9999243 0.012307261
vn -0 0.9999243 0.012307262
vn 0.00020786747 0.9999243 0.012307261
vn 0.99946254 0.03132947 -0.0096552875
vn 0.99946254 0.031329468 -0.0096552875
vn 0.99946254 0.03132947 -0.0096552875
vn 0.99946254 0.031329468 -0.0096552875
vn -0.10437409 0.59866375 -0.79417104
vn -0 0.61800057 -0.78617764
vn -0 0.61800057 -0.78617764
vn -0.116499744 0.59595174 -0.7945245
vn -0.044273585 0.99901855 0.0013715207
vn -0.044273585 0.99901855 0.0013715205
vn -0.04427358 0.99901855 0.0013715205
vn -0.044273585 0.99901855 0.0013715206
vn -0.42941898 0.47935766 -0.765386
vn -0.33808964 0.52268237 -0.78262293
vn -0.31123635 0.5340961 -0.78604925
vn -0.42941895 0.47935766 -0.765386
vn 0.34524262 0.5067467 -0.7899464
vn 0.34524262 0.5067467 -0.7899464
vn 0.34524265 0.5067467 -0.7899464
vn 0.34524262 0.5067467 -0.7899464
vn -0.5495362 0.8354689 0.0012530261
vn -0.5495362 0.8354689 0.0012530261
vn -0.5495362 0.8354689 0.0012530261
vn -0.5495362 0.8354689 0.0012530261
vn -0 0 -1
vn -0 0 -1
vn -0 0 -1
vn -0 0 -1
vn -0 0 -1
vn -0 0 -1
vn -0 0 -1
vn -0.7298989 -0.68354475 -0.0037561075
vn -0.7298989 -0.68354475 -0.0037561078
vn -0.7298989 -0.68354475 -0.0037561075
vn -0.7298989 -0.68354475 -0.0037561078
vn 0.67428565 0.738466 0.0026039649
vn 0.6742856 0.7384661 0.0026039649
vn 0.67428565 0.738466 0.0026039649
vn 0.67428565 0.738466 0.0026039649
vn -0 0.9999243 0.012307262
vn -0 0.9999243 0.012307261
vn -0.00020786753 0.9999243 0.012307264
vn -0.00020786752 0.9999243 0.012307262
vn -0.99950504 0.030617652 -0.007233319
vn -0.99950504 0.030617647 -0.0072333175
vn -0.99950504 0.030617647 -0.0072333175
vn -0.99950504 0.030617652 -0.007233318
vn 0.10437393 0.5986637 -0.7941712
vn 0.11649982 0.59595174 -0.7945246
vn -0 0.61800057 -0.78617764
vn -0 0.61800057 -0.78617764
vn 0.044273525 0.99901855 0.0013715184
vn 0.044273525 0.99901855 0.0013715184
vn 0.044273533 0.99901855 0.0013715185
vn 0.044273525 0.99901855 0.0013715184
vn 0.42941844 0.47935748 -0.7653864
vn 0.42941844 0.47935748 -0.7653864
vn 0.3112361 0.5340959 -0.78604937
vn 0.3380893 0.5226822 -0.7826232
vn 0.11649982 0.59595174 -0.7945246
vn 0.10437393 0.5986637 -0.7941712
vn -0.34524295 0.5067468 -0.78994614
vn -0.34524295 0.5067468 -0.7899462
vn -0.34524295 0.5067468 -0.78994614
vn -0.34524295 0.50674677 -0.78994614
vn 0.6231858 -0.58113235 0.5233782
vn 0.6231858 -0.58113235 0.5233782
vn 0.6231858 -0.58113235 0.5233782
vn 0.6231858 -0.58113235 0.52337813
vn -0.62271285 -0.5818461 0.52314794
vn -0.62271285 -0.5818461 0.523148
vn -0.62271285 -0.5818461 0.523148
vn -0.62271285 -0.5818461 0.523148
vn -0.6135746 0.6838234 0.3948567
vn -0.6135746 0.6838233 0.39485666
vn -0.6135746 0.6838234 0.3948567
vn -0.6135746 0.6838234 0.3948567
vn -0 0.9463477 0.32315016
vn -0.001680464 0.94634646 0.32314965
vn -0.001680464 0.94634634 0.32314968
vn -0 0.9463477 0.3231502
vn 0.48865187 0.7227245 0.4887625
vn 0.48865184 0.7227245 0.4887625
vn 0.48865184 0.7227245 0.48876247
vn 0.48865184 0.7227245 0.4887625
vn -0.49646023 0.7165529 0.48997888
vn -0.49646023 0.7165529 0.48997888
vn -0.49646017 0.7165529 0.48997882
vn -0.49646017 0.7165529 0.48997888
vn 0.61357486 0.6838233 0.3948565
vn 0.61357486 0.6838233 0.3948565
vn 0.61357486 0.6838233 0.3948565
vn 0.61357486 0.6838233 0.3948565
vn 0.0016804643 0.94634634 0.3231497
vn -0 0.9463477 0.32315016
vn -0 0.9463477 0.3231502
vn 0.001680464 0.94634634 0.32314968
vn -0.361487 0.93231785 0.010513251
vn -0.36148697 0.93231785 0.010513251
vn -0.36148697 0.93231785 0.010513251
vn -0.361487 0.93231785 0.010513252
vn -0.10437409 0.59866375 -0.79417104
vn -0.116499744 0.59595174 -0.7945245
vn -0.31123635 0.5340961 -0.78604925
vn -0.33808964 0.52268237 -0.78262293
vn 0.36148697 0.93231785 0.010513342
vn 0.36148697 0.93231785 0.010513343
vn 0.36148697 0.93231785 0.010513343
vn 0.36148694 0.93231785 0.010513342
vn -0.3366604 0.87648386 0.34414515
vn -0.33666036 0.87648386 0.3441451
vn -0.3366604 0.8764838 0.34414512
vn -0.3366604 0.87648386 0.34414515
vn 0.33666036 0.87648386 0.34414506
vn 0.3366604 0.87648386 0.3441451
vn 0.33666036 0.87648386 0.34414503
vn 0.33666036 0.87648386 0.34414503
g [gimmick]portal_pedestal_0
f 3/3/3 2/2/2 1/1/1
f 6/6/6 5/5/5 4/4/4
f 9/9/9 8/8/8 7/7/7
f 12/12/12 11/11/11 10/10/10
f 15/15/15 14/14/14 13/13/13
f 18/18/18 17/17/17 16/16/16
f 21/21/21 20/20/20 19/19/19
f 22/22/22 21/21/21 19/19/19
f 25/25/25 24/24/24 23/23/23
f 26/26/26 25/25/25 23/23/23
f 27/27/27 26/26/26 23/23/23
f 27/27/27 23/23/23 28/28/28
f 29/29/29 27/27/27 28/28/28
f 32/32/32 31/31/31 30/30/30
f 33/33/33 32/32/32 30/30/30
f 36/36/36 35/35/35 34/34/34
f 37/37/37 36/36/36 34/34/34
f 40/40/40 39/39/39 38/38/38
f 41/41/41 40/40/40 38/38/38
f 44/44/44 43/43/43 42/42/42
f 45/45/45 44/44/44 42/42/42
f 48/48/48 47/47/47 46/46/46
f 49/49/49 48/48/48 46/46/46
f 52/52/52 51/51/51 50/50/50
f 53/53/53 52/52/52 50/50/50
f 56/56/56 55/55/55 54/54/54
f 57/57/57 56/56/56 54/54/54
f 60/60/60 59/59/59 58/58/58
f 61/61/61 60/60/60 58/58/58
f 64/64/64 63/63/63 62/62/62
f 65/65/65 64/64/64 62/62/62
f 68/68/68 67/67/67 66/66/66
f 67/67/67 69/69/69 66/66/66
f 67/67/67 70/70/70 69/69/69
f 71/71/71 69/69/69 70/70/70
f 72/72/72 71/71/71 70/70/70
f 75/75/75 74/74/74 73/73/73
f 76/76/76 75/75/75 73/73/73
f 79/79/79 78/78/78 77/77/77
f 80/80/80 79/79/79 77/77/77
f 83/83/83 82/82/82 81/81/81
f 84/84/84 83/83/83 81/81/81
f 87/87/87 86/86/86 85/85/85
f 88/88/88 87/87/87 85/85/85
f 91/91/91 90/90/90 89/89/89
f 92/92/92 91/91/91 89/89/89
f 95/95/95 94/94/94 93/93/93
f 96/96/96 95/95/95 93/93/93
f 99/99/99 98/98/98 97/97/97
f 100/100/100 99/99/99 97/97/97
f 99/99/99 100/100/100 101/101/101
f 100/100/100 102/102/102 101/101/101
f 105/105/105 104/104/104 103/103/103
f 106/106/106 105/105/105 103/103/103
f 109/109/109 108/108/108 107/107/107
f 110/110/110 109/109/109 107/107/107
f 113/113/113 112/112/112 111/111/111
f 114/114/114 113/113/113 111/111/111
f 117/117/117 116/116/116 115/115/115
f 118/118/118 117/117/117 115/115/115
f 121/121/121 120/120/120 119/119/119
f 122/122/122 121/121/121 119/119/119
f 125/125/125 124/124/124 123/123/123
f 126/126/126 125/125/125 123/123/123
f 129/129/129 128/128/128 127/127/127
f 130/130/130 129/129/129 127/127/127
f 133/133/133 132/132/132 131/131/131
f 134/134/134 133/133/133 131/131/131
f 137/137/137 136/136/136 135/135/135
f 138/138/138 137/137/137 135/135/135
f 141/141/141 140/140/140 139/139/139
f 142/142/142 141/141/141 139/139/139
f 145/145/145 144/144/144 143/143/143
f 146/146/146 145/145/145 143/143/143
f 149/149/149 148/148/148 147/147/147
f 150/150/150 149/149/149 147/147/147
f 153/153/153 152/152/152 151/151/151
f 154/154/154 153/153/153 151/151/151
f 157/157/157 156/156/156 155/155/155
f 158/158/158 157/157/157 155/155/155
