g [GIMMICK]mystery_chest_bottom
v -0.93869567 0.047670722 -0.9386932
v -0.9386954 0.04767064 2.2212564E-07
v -0.97631717 -0.00045667044 2.2222846E-07
v -0.97631747 -0.0004565936 -0.9763149
v -1.117304E-06 -0.00045667283 -0.97631574
v -1.117304E-06 0.04767064 -0.9386938
v -0.93869567 0.047670722 -0.9386932
v -0.97631747 -0.0004565936 -0.9763149
v -1.117304E-06 0.04767064 -0.9386938
v -1.1063315E-06 0.047442198 -0.7834087
v -0.78340805 0.047442243 -0.7834087
v -0.93869567 0.047670722 -0.9386932
v -0.9386954 0.04767064 2.2212564E-07
v -0.78340805 0.04744221 1.9257715E-07
v -1.0643095E-06 0.047213774 -0.41654631
v -9.312708E-07 0.047213774 -1.331017E-07
v -0.20827438 0.047213774 -0.20827308
v -0.4165477 0.047213774 1.6623532E-07
v 0.9386928 0.047670722 -0.9386947
v -1.117304E-06 0.04767064 -0.9386938
v -1.117304E-06 -0.00045667283 -0.97631574
v 0.9763144 -0.0004565936 -0.97631603
v 0.9763145 -0.00045667044 -2.9918004E-07
v 0.938693 0.04767064 -2.9928285E-07
v 0.9386928 0.047670722 -0.9386947
v 0.9763144 -0.0004565936 -0.97631603
v 0.938693 0.04767064 -2.9928285E-07
v 0.7834082 0.04744221 -3.0796878E-07
v 0.7834082 0.047442243 -0.7834087
v 0.9386928 0.047670722 -0.9386947
v -1.117304E-06 0.04767064 -0.9386938
v -1.1063315E-06 0.047442198 -0.7834087
v 0.41654518 0.047213774 -2.9940003E-07
v -9.312708E-07 0.047213774 -1.331017E-07
v 0.20827205 0.047213774 -0.20827335
v -1.0643095E-06 0.047213774 -0.41654631
v 0.9386936 0.047670648 0.938693
v 0.938693 0.04767064 -2.9928285E-07
v 0.9763145 -0.00045667044 -2.9918004E-07
v 0.97631526 -0.00045651197 0.9763149
v -1.191791E-06 -0.0004565888 0.97631544
v -1.117304E-06 0.047670566 0.9386936
v 0.9386936 0.047670648 0.938693
v 0.97631526 -0.00045651197 0.9763149
v 0.7834082 0.047442216 0.7834096
v -1.117304E-06 0.047670566 0.9386936
v -1.2075307E-06 0.04744218 0.7834096
v 0.9386936 0.047670648 0.938693
v 0.938693 0.04767064 -2.9928285E-07
v 0.7834082 0.04744221 -3.0796878E-07
v -1.2638675E-06 0.047213774 0.41654623
v -9.312708E-07 0.047213774 -1.331017E-07
v 0.208272 0.047213774 0.20827292
v 0.41654518 0.047213774 -2.9940003E-07
v -0.93869495 0.047670648 0.9386943
v -1.117304E-06 0.047670566 0.9386936
v -1.191791E-06 -0.0004565888 0.97631544
v -0.97631675 -0.00045651197 0.9763162
v -0.97631717 -0.00045667044 2.2222846E-07
v -0.9386954 0.04767064 2.2212564E-07
v -0.93869495 0.047670648 0.9386943
v -0.97631675 -0.00045651197 0.9763162
v -0.78340805 0.047442216 0.7834096
v -0.9386954 0.04767064 2.2212564E-07
v -0.78340805 0.04744221 1.9257715E-07
v -0.93869495 0.047670648 0.9386943
v -1.117304E-06 0.047670566 0.9386936
v -1.2075307E-06 0.04744218 0.7834096
v -0.4165477 0.047213774 1.6623532E-07
v -9.312708E-07 0.047213774 -1.331017E-07
v -0.20827445 0.047213774 0.20827319
v -1.2638675E-06 0.047213774 0.41654623
v -0.70992213 0.012314638 -0.7099227
v -1.0025545E-06 0.0123146 -0.7099227
v -1.0643095E-06 0.012086168 -0.41654631
v -0.20827438 0.012086168 -0.20827308
v -0.70992213 0.012314606 2.1047536E-07
v -0.4165477 0.012086168 1.7391298E-07
v 0.70992225 0.012314638 -0.7099227
v 0.70992225 0.012314606 -2.431179E-07
v 0.41654518 0.012086168 -2.9172236E-07
v 0.20827205 0.012086168 -0.20827335
v -1.0025545E-06 0.0123146 -0.7099227
v -1.0643095E-06 0.012086168 -0.41654631
v -1.0942608E-06 0.0123145655 0.70992357
v -1.2638676E-06 0.012086168 0.41654623
v 0.208272 0.012086168 0.20827292
v 0.70992225 0.012314614 0.70992357
v 0.70992225 0.012314606 -2.431179E-07
v 0.41654518 0.012086168 -2.9172236E-07
v -0.70992213 0.012314606 2.1047536E-07
v -0.4165477 0.012086168 1.7391298E-07
v -0.20827445 0.012086168 0.20827319
v -0.70992213 0.012314614 0.70992357
v -1.2638676E-06 0.012086168 0.41654623
v -1.0942608E-06 0.0123145655 0.70992357
v -0.4165477 0.047213774 1.6623532E-07
v -0.4165477 0.012086168 1.7391298E-07
v -0.20827438 0.012086168 -0.20827308
v -0.20827438 0.047213774 -0.20827308
v -1.0643095E-06 0.012086168 -0.41654631
v -1.0643095E-06 0.047213774 -0.41654631
v -1.0643095E-06 0.047213774 -0.41654631
v -1.0643095E-06 0.012086168 -0.41654631
v 0.20827205 0.012086168 -0.20827335
v 0.20827205 0.047213774 -0.20827335
v 0.41654518 0.012086168 -2.9172236E-07
v 0.41654518 0.047213774 -2.9940003E-07
v 0.208272 0.047213774 0.20827292
v 0.41654518 0.047213774 -2.9940003E-07
v 0.41654518 0.012086168 -2.9172236E-07
v 0.208272 0.012086168 0.20827292
v -1.2638676E-06 0.012086168 0.41654623
v -1.2638675E-06 0.047213774 0.41654623
v -0.20827445 0.047213774 0.20827319
v -1.2638675E-06 0.047213774 0.41654623
v -1.2638676E-06 0.012086168 0.41654623
v -0.20827445 0.012086168 0.20827319
v -0.4165477 0.012086168 1.7391298E-07
v -0.4165477 0.047213774 1.6623532E-07
v -1.1063315E-06 0.047442198 -0.7834087
v -0.70992213 0.012314638 -0.7099227
v -0.78340805 0.047442243 -0.7834087
v -1.0025545E-06 0.0123146 -0.7099227
v -0.78340805 0.04744221 1.9257715E-07
v -0.78340805 0.047442243 -0.7834087
v -0.70992213 0.012314638 -0.7099227
v -0.70992213 0.012314606 2.1047536E-07
v -0.70992213 0.012314614 0.70992357
v -0.78340805 0.04744221 1.9257715E-07
v -0.70992213 0.012314606 2.1047536E-07
v -0.78340805 0.047442216 0.7834096
v -0.70992213 0.012314614 0.70992357
v -1.0942608E-06 0.0123145655 0.70992357
v -1.2075307E-06 0.04744218 0.7834096
v -0.78340805 0.047442216 0.7834096
v 0.70992225 0.012314614 0.70992357
v -1.2075307E-06 0.04744218 0.7834096
v -1.0942608E-06 0.0123145655 0.70992357
v 0.7834082 0.047442216 0.7834096
v 0.7834082 0.04744221 -3.0796878E-07
v 0.7834082 0.047442216 0.7834096
v 0.70992225 0.012314614 0.70992357
v 0.70992225 0.012314606 -2.431179E-07
v 0.7834082 0.04744221 -3.0796878E-07
v 0.70992225 0.012314638 -0.7099227
v 0.7834082 0.047442243 -0.7834087
v 0.70992225 0.012314606 -2.431179E-07
v -1.1063315E-06 0.047442198 -0.7834087
v 0.7834082 0.047442243 -0.7834087
v 0.70992225 0.012314638 -0.7099227
v -1.0025545E-06 0.0123146 -0.7099227
vt 0.65438753 0.5915069
vt 0.59899735 0.5915069
vt 0.59899735 0.587404
vt 0.65438753 0.587404
vt 0.65438753 0.587404
vt 0.65438753 0.5915069
vt 0.59899735 0.5915069
vt 0.59899735 0.587404
vt 0.59899735 0.59227043
vt 0.59899735 0.59728837
vt 0.6434935 0.60314494
vt 0.65438753 0.59227043
vt 0.65438753 0.6471591
vt 0.6494452 0.6471591
vt 0.5239836 0.8169202
vt 0.51227546 0.8318569
vt 0.5239836 0.8318569
vt 0.5239836 0.8467936
vt 0.65438753 0.5915069
vt 0.59899735 0.5915069
vt 0.59899735 0.587404
vt 0.65438753 0.587404
vt 0.65438753 0.587404
vt 0.65438753 0.5915069
vt 0.59899735 0.5915069
vt 0.59899735 0.587404
vt 0.65438753 0.6471591
vt 0.6494452 0.6471591
vt 0.6434935 0.60314494
vt 0.65438753 0.5922704
vt 0.59899735 0.5922704
vt 0.59899735 0.59728837
vt 0.5239836 0.8169202
vt 0.51227546 0.8318569
vt 0.5239836 0.8318569
vt 0.5239836 0.8467936
vt 0.65438753 0.5915069
vt 0.59899735 0.5915069
vt 0.59899735 0.587404
vt 0.65438753 0.587404
vt 0.65438753 0.587404
vt 0.65438753 0.5915069
vt 0.59899735 0.5915069
vt 0.59899735 0.587404
vt 0.6434935 0.60314494
vt 0.59899735 0.59227043
vt 0.59899735 0.59728837
vt 0.65438753 0.59227043
vt 0.65438753 0.6471591
vt 0.6494452 0.6471591
vt 0.5239836 0.8169202
vt 0.51227546 0.8318569
vt 0.5239836 0.8318569
vt 0.5239836 0.8467936
vt 0.65438753 0.5915069
vt 0.59899735 0.5915069
vt 0.59899735 0.587404
vt 0.65438753 0.587404
vt 0.65438753 0.587404
vt 0.65438753 0.5915069
vt 0.59899735 0.5915069
vt 0.59899735 0.587404
vt 0.6434935 0.60314494
vt 0.65438753 0.6471591
vt 0.6494452 0.6471591
vt 0.65438753 0.5922704
vt 0.59899735 0.5922704
vt 0.59899735 0.59728837
vt 0.5239836 0.8169202
vt 0.51227546 0.8318569
vt 0.5239836 0.8318569
vt 0.5239836 0.8467936
vt 0.6421566 0.6044748
vt 0.59899735 0.5983823
vt 0.59899735 0.62286454
vt 0.6115954 0.63506263
vt 0.648352 0.6471591
vt 0.6237936 0.6471591
vt 0.6421566 0.6044748
vt 0.648352 0.6471591
vt 0.6237934 0.6471591
vt 0.61159533 0.6350626
vt 0.59899735 0.5983823
vt 0.59899735 0.6228645
vt 0.59899735 0.5983823
vt 0.59899735 0.62286454
vt 0.6115954 0.63506263
vt 0.6421566 0.6044748
vt 0.648352 0.6471591
vt 0.62379354 0.6471591
vt 0.648352 0.6471591
vt 0.6237935 0.6471591
vt 0.61159533 0.6350626
vt 0.6421566 0.6044748
vt 0.59899735 0.6228644
vt 0.59899735 0.5983823
vt 0.62379557 0.6471591
vt 0.6237936 0.6471591
vt 0.6115954 0.63506263
vt 0.61159635 0.6350616
vt 0.59899735 0.62286454
vt 0.59899735 0.62286246
vt 0.59899735 0.6228624
vt 0.59899735 0.6228645
vt 0.61159533 0.6350626
vt 0.61159635 0.63506156
vt 0.6237934 0.6471591
vt 0.62379557 0.6471591
vt 0.61159635 0.6350616
vt 0.62379557 0.6471591
vt 0.62379354 0.6471591
vt 0.6115954 0.63506263
vt 0.59899735 0.62286454
vt 0.59899735 0.62286246
vt 0.61159635 0.63506156
vt 0.59899735 0.6228624
vt 0.59899735 0.6228644
vt 0.61159533 0.6350626
vt 0.6237935 0.6471591
vt 0.62379557 0.6471591
vt 0.59899735 0.5915069
vt 0.65438753 0.587404
vt 0.65438753 0.5915069
vt 0.59899735 0.587404
vt 0.65438753 0.5915069
vt 0.59899735 0.5915069
vt 0.59899735 0.587404
vt 0.65438753 0.587404
vt 0.59899735 0.587404
vt 0.65438753 0.5915069
vt 0.65438753 0.587404
vt 0.59899735 0.5915069
vt 0.65438753 0.587404
vt 0.59899735 0.587404
vt 0.59899735 0.5915069
vt 0.65438753 0.5915069
vt 0.65438753 0.587404
vt 0.59899735 0.5915069
vt 0.59899735 0.587404
vt 0.65438753 0.5915069
vt 0.65438753 0.5915069
vt 0.59899735 0.5915069
vt 0.59899735 0.587404
vt 0.65438753 0.587404
vt 0.65438753 0.5915069
vt 0.59899735 0.587404
vt 0.59899735 0.5915069
vt 0.65438753 0.587404
vt 0.59899735 0.5915069
vt 0.65438753 0.5915069
vt 0.65438753 0.587404
vt 0.59899735 0.587404
vn -0.7878468 0.6158713 3.0215224E-07
vn -0.7878466 0.6158714 2.9905226E-07
vn -0.7878466 0.6158715 2.990523E-07
vn -0.7878468 0.61587125 3.0215222E-07
vn -5.52637E-07 0.61586994 -0.7878478
vn -5.526371E-07 0.61586994 -0.7878478
vn -5.497429E-07 0.61587113 -0.7878469
vn -5.4974294E-07 0.6158711 -0.787847
vn -0 0.9999989 0.0014712042
vn -0 0.9999989 0.0014712042
vn 0.00073561387 0.9999995 0.0007356383
vn 0.00073562574 0.9999995 0.0007356264
vn 0.0014710916 0.9999989 0
vn 0.0014710916 0.9999989 0
vn -0 1 0
vn -0 1 0
vn -0 1 0
vn -0 1 0
vn -5.555313E-07 0.6158688 -0.7878487
vn -5.526371E-07 0.61586994 -0.7878478
vn -5.52637E-07 0.61586994 -0.7878478
vn -5.555313E-07 0.61586887 -0.7878487
vn 0.78784853 0.615869 -3.3315396E-07
vn 0.78784853 0.615869 -3.331539E-07
vn 0.78784895 0.61586857 0
vn 0.78784895 0.6158686 0
vn -0.0014711146 0.9999989 0
vn -0.0014711145 0.9999989 0
vn -0.00073563075 0.9999995 0.00073563063
vn -0.0007356254 0.9999995 0.0007356358
vn -0 0.9999989 0.0014712042
vn -0 0.9999989 0.0014712042
vn -0 1 0
vn -0 1 0
vn -0 1 0
vn -0 1 0
vn 0.78784823 0.6158694 -6.2166697E-07
vn 0.78784853 0.615869 -3.331539E-07
vn 0.78784853 0.615869 -3.3315396E-07
vn 0.78784823 0.6158694 -6.2166697E-07
vn 5.377571E-07 0.61587304 0.78784543
vn 5.3775693E-07 0.61587304 0.78784543
vn 4.2408783E-07 0.61587304 0.7878454
vn 4.2408783E-07 0.61587304 0.7878454
vn -0.00073555316 0.9999995 -0.00073544105
vn -0 0.9999989 -0.0014708677
vn -0 0.9999989 -0.0014708677
vn -0.00073556043 0.9999995 -0.00073543354
vn -0.0014711146 0.9999989 0
vn -0.0014711145 0.9999989 0
vn -0 1 0
vn -0 1 0
vn -0 1 0
vn -0 1 0
vn 6.514262E-07 0.6158728 0.7878456
vn 5.3775693E-07 0.61587304 0.78784543
vn 5.377571E-07 0.61587304 0.78784543
vn 6.514262E-07 0.61587286 0.7878456
vn -0.7878466 0.6158715 2.990523E-07
vn -0.7878466 0.6158714 2.9905226E-07
vn -0.7878465 0.61587167 2.9595225E-07
vn -0.7878465 0.61587167 2.959523E-07
vn 0.00073554245 0.9999995 -0.00073543884
vn 0.0014710916 0.9999989 0
vn 0.0014710916 0.9999989 0
vn 0.00073555205 0.9999995 -0.00073542923
vn -0 0.9999989 -0.0014708677
vn -0 0.9999989 -0.0014708677
vn -0 1 0
vn -0 1 0
vn -0 1 0
vn -0 1 0
vn 0.0003084039 0.9999999 0.00030839525
vn -0 0.9999999 0.0005027208
vn -0 0.9999999 0.0005027209
vn 0.0003084045 0.9999999 0.00030839458
vn 0.00050272903 0.9999999 0
vn 0.00050272903 0.9999999 0
vn -0.00030840302 0.9999999 0.00030839432
vn -0.00050272635 0.9999999 0
vn -0.0005027263 0.9999999 0
vn -0.00030840267 0.9999999 0.00030839466
vn -0 0.9999999 0.0005027208
vn -0 0.9999999 0.0005027209
vn -0 0.9999999 -0.00050265057
vn -0 0.9999999 -0.00050265057
vn -0.00030839414 0.9999999 -0.00030834472
vn -0.000308394 0.9999999 -0.00030834487
vn -0.00050272635 0.9999999 0
vn -0.0005027263 0.9999999 0
vn 0.00050272903 0.9999999 0
vn 0.00050272903 0.9999999 0
vn 0.00030839583 0.9999999 -0.00030834504
vn 0.0003083949 0.9999999 -0.00030834595
vn -0 0.9999999 -0.00050265057
vn -0 0.9999999 -0.00050265057
vn -0.70710677 0 -0.7071068
vn -0.70710677 0 -0.7071068
vn -0.70710677 0 -0.7071068
vn -0.70710677 0 -0.7071068
vn -0.7071066 0 -0.70710695
vn -0.7071066 0 -0.70710695
vn 0.7071065 0 -0.707107
vn 0.7071065 0 -0.707107
vn 0.7071065 0 -0.707107
vn 0.7071065 0 -0.707107
vn 0.7071066 0 -0.7071069
vn 0.7071066 0 -0.7071069
vn 0.7071069 1.4954851E-07 0.70710665
vn 0.7071068 1.495485E-07 0.70710665
vn 0.7071068 1.4954851E-07 0.70710677
vn 0.7071069 1.4954851E-07 0.70710665
vn 0.7071068 0 0.70710677
vn 0.7071068 0 0.70710677
vn -0.7071065 0 0.707107
vn -0.7071065 0 0.707107
vn -0.7071065 0 0.707107
vn -0.7071065 0 0.707107
vn -0.7071064 0 0.70710707
vn -0.7071064 0 0.70710707
vn -0 0.90221965 0.4312769
vn -0 0.90221965 0.4312769
vn -0 0.90221965 0.43127686
vn -0 0.90221965 0.4312769
vn 0.4312773 0.9022194 0
vn 0.4312773 0.9022194 0
vn 0.43127733 0.9022194 0
vn 0.43127733 0.9022194 0
vn 0.43127733 0.9022194 0
vn 0.43127733 0.9022194 0
vn 0.43127733 0.9022194 0
vn 0.43127736 0.9022194 0
vn -0 0.9022197 -0.43127662
vn -0 0.9022197 -0.43127662
vn -0 0.9022197 -0.43127665
vn -0 0.9022197 -0.43127665
vn -0 0.9022197 -0.43127665
vn -0 0.9022197 -0.4312766
vn -0 0.9022197 -0.43127662
vn -0 0.9022197 -0.43127662
vn -0.4312769 0.90221965 0
vn -0.4312769 0.90221965 0
vn -0.4312769 0.90221965 0
vn -0.4312769 0.90221965 0
vn -0.4312769 0.90221965 0
vn -0.4312769 0.90221965 0
vn -0.43127698 0.90221965 0
vn -0.43127698 0.90221965 0
vn -0 0.90221965 0.43127695
vn -0 0.90221965 0.43127698
vn -0 0.90221965 0.43127695
vn -0 0.90221965 0.43127695
g [GIMMICK]mystery_chest_bottom_0
f 3/3/3 2/2/2 1/1/1
f 1/1/1 4/4/4 3/3/3
f 7/7/7 6/6/6 5/5/5
f 5/5/5 8/8/8 7/7/7
f 11/11/11 10/10/10 9/9/9
f 9/9/9 12/12/12 11/11/11
f 13/13/13 11/11/11 12/12/12
f 13/13/13 14/14/14 11/11/11
f 17/17/17 16/16/16 15/15/15
f 18/18/18 16/16/16 17/17/17
f 21/21/21 20/20/20 19/19/19
f 19/19/19 22/22/22 21/21/21
f 25/25/25 24/24/24 23/23/23
f 23/23/23 26/26/26 25/25/25
f 29/29/29 28/28/28 27/27/27
f 30/30/30 29/29/29 27/27/27
f 31/31/31 29/29/29 30/30/30
f 29/29/29 31/31/31 32/32/32
f 35/35/35 34/34/34 33/33/33
f 36/36/36 34/34/34 35/35/35
f 39/39/39 38/38/38 37/37/37
f 37/37/37 40/40/40 39/39/39
f 43/43/43 42/42/42 41/41/41
f 41/41/41 44/44/44 43/43/43
f 47/47/47 46/46/46 45/45/45
f 48/48/48 45/45/45 46/46/46
f 49/49/49 45/45/45 48/48/48
f 45/45/45 49/49/49 50/50/50
f 53/53/53 52/52/52 51/51/51
f 54/54/54 52/52/52 53/53/53
f 57/57/57 56/56/56 55/55/55
f 55/55/55 58/58/58 57/57/57
f 61/61/61 60/60/60 59/59/59
f 59/59/59 62/62/62 61/61/61
f 65/65/65 64/64/64 63/63/63
f 66/66/66 63/63/63 64/64/64
f 63/63/63 66/66/66 67/67/67
f 67/67/67 68/68/68 63/63/63
f 71/71/71 70/70/70 69/69/69
f 72/72/72 70/70/70 71/71/71
f 75/75/75 74/74/74 73/73/73
f 73/73/73 76/76/76 75/75/75
f 73/73/73 77/77/77 76/76/76
f 77/77/77 78/78/78 76/76/76
f 81/81/81 80/80/80 79/79/79
f 79/79/79 82/82/82 81/81/81
f 79/79/79 83/83/83 82/82/82
f 83/83/83 84/84/84 82/82/82
f 87/87/87 86/86/86 85/85/85
f 85/85/85 88/88/88 87/87/87
f 89/89/89 87/87/87 88/88/88
f 89/89/89 90/90/90 87/87/87
f 93/93/93 92/92/92 91/91/91
f 94/94/94 93/93/93 91/91/91
f 95/95/95 93/93/93 94/94/94
f 94/94/94 96/96/96 95/95/95
f 99/99/99 98/98/98 97/97/97
f 97/97/97 100/100/100 99/99/99
f 101/101/101 99/99/99 100/100/100
f 100/100/100 102/102/102 101/101/101
f 105/105/105 104/104/104 103/103/103
f 106/106/106 105/105/105 103/103/103
f 107/107/107 105/105/105 106/106/106
f 108/108/108 107/107/107 106/106/106
f 111/111/111 110/110/110 109/109/109
f 109/109/109 112/112/112 111/111/111
f 113/113/113 112/112/112 109/109/109
f 114/114/114 113/113/113 109/109/109
f 117/117/117 116/116/116 115/115/115
f 115/115/115 118/118/118 117/117/117
f 119/119/119 118/118/118 115/115/115
f 120/120/120 119/119/119 115/115/115
f 123/123/123 122/122/122 121/121/121
f 122/122/122 124/124/124 121/121/121
f 127/127/127 126/126/126 125/125/125
f 125/125/125 128/128/128 127/127/127
f 131/131/131 130/130/130 129/129/129
f 132/132/132 129/129/129 130/130/130
f 135/135/135 134/134/134 133/133/133
f 133/133/133 136/136/136 135/135/135
f 139/139/139 138/138/138 137/137/137
f 140/140/140 137/137/137 138/138/138
f 143/143/143 142/142/142 141/141/141
f 141/141/141 144/144/144 143/143/143
f 147/147/147 146/146/146 145/145/145
f 146/146/146 148/148/148 145/145/145
f 151/151/151 150/150/150 149/149/149
f 149/149/149 152/152/152 151/151/151
