g [gimmick]rock
v -0.6912621 0.80840176 0.7842888
v -0 0.80691344 0.7855617
v -0 0.4179779 0.9858084
v -0.77473354 0.4179779 0.9858084
v -0.9858084 0.41797784 0.7230282
v -0.7842888 0.80840176 0.6395561
v -0.6912621 0.80840176 0.7842888
v -0.77473354 0.4179779 0.9858084
v -0.7842888 0.80840176 0.6395561
v -0.9858084 0.41797784 0.7230282
v -0.9858084 0.41797793 -0.78941226
v -0.7842888 0.80840176 -0.70594
v -0.77473354 0.4179779 0.9858084
v -0 0.4179779 0.9858084
v -0 6.346184E-10 1.0334964
v -0.794487 -6.3283426E-17 1.0334967
v -1.0334967 -4.5482245E-17 0.7427814
v -0.9858084 0.41797784 0.7230282
v -0.77473354 0.4179779 0.9858084
v -0.794487 -6.3283426E-17 1.0334967
v -0.9858084 0.41797793 -0.78941226
v -0.9858084 0.41797784 0.7230282
v -1.0334967 -4.5482245E-17 0.7427814
v -1.0334967 4.9547086E-17 -0.80916536
v -0.71096635 0.8494872 0.60918474
v -0.7842888 0.80840176 0.6395561
v -0.7842888 0.80840176 -0.70594
v -0.71096635 0.84948736 -0.675569
v -0.66089106 0.8494872 0.71096635
v -0.6912621 0.80840176 0.7842888
v -0.7842888 0.80840176 0.6395561
v -0.71096635 0.8494872 0.60918474
v -0.66089106 0.8494872 0.71096635
v -0 0.8494872 0.71096635
v -0 0.80691344 0.7855617
v -0.6912621 0.80840176 0.7842888
v -0.77473354 0.4179779 -0.9858083
v -0.6912621 0.80840176 -0.78428864
v -0.7842888 0.80840176 -0.70594
v -0.9858084 0.41797793 -0.78941226
v -0.71096635 0.84948736 -0.675569
v -0.66089106 0.8494872 -0.71096635
v -0 0.8494873 -0.71096647
v -0.71096635 0.8494872 0.60918474
v -0.66089106 0.8494872 0.71096635
v -0.71096635 0.8494872 0.60918474
v -0 0.8494872 0.71096635
v -0 0.4179779 -0.9858083
v -0 0.8069135 -0.78556186
v -0.6912621 0.80840176 -0.78428864
v -0.77473354 0.4179779 -0.9858083
v -0.794487 6.328342E-17 -1.0334966
v -0.77473354 0.4179779 -0.9858083
v -0.9858084 0.41797793 -0.78941226
v -1.0334967 4.9547086E-17 -0.80916536
v -0 6.3462086E-10 -1.0334966
v -0 0.4179779 -0.9858083
v -0.77473354 0.4179779 -0.9858083
v -0.794487 6.328342E-17 -1.0334966
v -0.66089106 0.8494872 -0.71096635
v -0.6912621 0.80840176 -0.78428864
v -0 0.8069135 -0.78556186
v -0 0.8494873 -0.71096647
v -0.71096635 0.84948736 -0.675569
v -0.7842888 0.80840176 -0.70594
v -0.6912621 0.80840176 -0.78428864
v -0.66089106 0.8494872 -0.71096635
v -0 0.4179779 0.9858084
v -0 0.80691344 0.7855617
v 0.6472507 0.80840176 0.7842888
v 0.7307222 0.4179779 0.9858084
v 0.6472507 0.80840176 0.7842888
v 0.7842885 0.80840176 0.6395561
v 0.9858084 0.41797784 0.7230282
v 0.7307222 0.4179779 0.9858084
v 0.6168797 0.8494872 0.71096635
v -0 0.8494872 0.71096635
v -0 0.8494873 -0.71096647
v 0.71096635 0.8494872 0.60918474
v 0.71096635 0.84948736 -0.675569
v 0.71096635 0.8494872 0.60918474
v 0.6168797 0.8494872 -0.71096635
v 0.7842885 0.80840176 0.6395561
v 0.7842885 0.80840176 -0.70594
v 0.9858084 0.41797793 -0.78941226
v 0.9858084 0.41797784 0.7230282
v 0.7307222 0.4179779 0.9858084
v 0.7504756 -6.3283426E-17 1.0334967
v -0 6.346184E-10 1.0334964
v -0 0.4179779 0.9858084
v 0.7307222 0.4179779 0.9858084
v 0.9858084 0.41797784 0.7230282
v 1.0334964 -4.5482245E-17 0.7427814
v 0.7504756 -6.3283426E-17 1.0334967
v 0.9858084 0.41797784 0.7230282
v 0.9858084 0.41797793 -0.78941226
v 1.0334964 4.9547086E-17 -0.80916536
v 1.0334964 -4.5482245E-17 0.7427814
v 0.7842885 0.80840176 -0.70594
v 0.7842885 0.80840176 0.6395561
v 0.71096635 0.8494872 0.60918474
v 0.71096635 0.84948736 -0.675569
v 0.6168797 0.8494872 0.71096635
v 0.71096635 0.8494872 0.60918474
v 0.7842885 0.80840176 0.6395561
v 0.6472507 0.80840176 0.7842888
v 0.6168797 0.8494872 0.71096635
v 0.6472507 0.80840176 0.7842888
v -0 0.80691344 0.7855617
v -0 0.8494872 0.71096635
v 0.7842885 0.80840176 -0.70594
v 0.6472507 0.80840176 -0.78428864
v 0.7307222 0.4179779 -0.9858083
v 0.9858084 0.41797793 -0.78941226
v 0.6472507 0.80840176 -0.78428864
v -0 0.8069135 -0.78556186
v -0 0.4179779 -0.9858083
v 0.7307222 0.4179779 -0.9858083
v 0.9858084 0.41797793 -0.78941226
v 0.7307222 0.4179779 -0.9858083
v 0.7504756 6.328342E-17 -1.0334966
v 1.0334964 4.9547086E-17 -0.80916536
v 0.7307222 0.4179779 -0.9858083
v -0 0.4179779 -0.9858083
v -0 6.3462086E-10 -1.0334966
v 0.7504756 6.328342E-17 -1.0334966
v -0 0.8069135 -0.78556186
v 0.6472507 0.80840176 -0.78428864
v 0.6168797 0.8494872 -0.71096635
v -0 0.8494873 -0.71096647
v 0.71096635 0.84948736 -0.675569
v 0.6168797 0.8494872 -0.71096635
v 0.6472507 0.80840176 -0.78428864
v 0.7842885 0.80840176 -0.70594
vt 0.50272685 0.061126597
vt 0.47028348 0.061126597
vt 0.47028348 0.034910984
vt 0.50272685 0.034910984
vt 0.555297 0.034910984
vt 0.555297 0.061126597
vt 0.50272685 0.061126597
vt 0.50272685 0.034910984
vt 0.5866376 0.061126597
vt 0.5866376 0.034910984
vt 0.555297 0.034910984
vt 0.555297 0.061126597
vt 0.50272685 0.034910984
vt 0.47028348 0.034910984
vt 0.47028348 0.0033373917
vt 0.50272685 0.0033373917
vt 0.555297 0.0033373917
vt 0.555297 0.034910984
vt 0.50272685 0.034910984
vt 0.50272685 0.0033373917
vt 0.555297 0.034910984
vt 0.5866376 0.034910984
vt 0.5866376 0.0033373917
vt 0.555297 0.0033373917
vt 0.5866376 0.06734187
vt 0.5866376 0.061126597
vt 0.555297 0.061126597
vt 0.555297 0.06734187
vt 0.50272685 0.06734187
vt 0.50272685 0.061126597
vt 0.555297 0.061126597
vt 0.555297 0.06734187
vt 0.50272685 0.06734187
vt 0.47028348 0.06734187
vt 0.47028348 0.061126597
vt 0.50272685 0.061126597
vt 0.50272685 0.034910984
vt 0.50272685 0.061126597
vt 0.555297 0.061126597
vt 0.555297 0.034910984
vt 0.49035618 0.069162674
vt 0.47386694 0.08938784
vt 0.47386694 0.12512733
vt 0.56553507 0.069162674
vt 0.585796 0.08938784
vt 0.56553507 0.069162674
vt 0.58579606 0.12512733
vt 0.47028348 0.034910984
vt 0.47028348 0.061126597
vt 0.50272685 0.061126597
vt 0.50272685 0.034910984
vt 0.50272685 0.0033373917
vt 0.50272685 0.034910984
vt 0.555297 0.034910984
vt 0.555297 0.0033373917
vt 0.47028348 0.0033373917
vt 0.47028348 0.034910984
vt 0.50272685 0.034910984
vt 0.50272685 0.0033373917
vt 0.50272685 0.06734187
vt 0.50272685 0.061126597
vt 0.47028348 0.061126597
vt 0.47028348 0.06734187
vt 0.555297 0.06734187
vt 0.555297 0.061126597
vt 0.50272685 0.061126597
vt 0.50272685 0.06734187
vt 0.47028348 0.034910984
vt 0.47028348 0.061126597
vt 0.50272685 0.061126597
vt 0.50272685 0.034910984
vt 0.50272685 0.061126597
vt 0.555297 0.061126597
vt 0.555297 0.034910984
vt 0.50272685 0.034910984
vt 0.585796 0.08938784
vt 0.58579606 0.12512733
vt 0.47386694 0.12512733
vt 0.56553507 0.069162674
vt 0.49035618 0.069162674
vt 0.56553507 0.069162674
vt 0.47386694 0.08938784
vt 0.5866376 0.061126597
vt 0.555297 0.061126597
vt 0.555297 0.034910984
vt 0.5866376 0.034910984
vt 0.50272685 0.034910984
vt 0.50272685 0.0033373917
vt 0.47028348 0.0033373917
vt 0.47028348 0.034910984
vt 0.50272685 0.034910984
vt 0.555297 0.034910984
vt 0.555297 0.0033373917
vt 0.50272685 0.0033373917
vt 0.5866376 0.034910984
vt 0.555297 0.034910984
vt 0.555297 0.0033373917
vt 0.5866376 0.0033373917
vt 0.555297 0.061126597
vt 0.5866376 0.061126597
vt 0.5866376 0.06734187
vt 0.555297 0.06734187
vt 0.50272685 0.06734187
vt 0.555297 0.06734187
vt 0.555297 0.061126597
vt 0.50272685 0.061126597
vt 0.50272685 0.06734187
vt 0.50272685 0.061126597
vt 0.47028348 0.061126597
vt 0.47028348 0.06734187
vt 0.555297 0.061126597
vt 0.50272685 0.061126597
vt 0.50272685 0.034910984
vt 0.555297 0.034910984
vt 0.50272685 0.061126597
vt 0.47028348 0.061126597
vt 0.47028348 0.034910984
vt 0.50272685 0.034910984
vt 0.555297 0.034910984
vt 0.50272685 0.034910984
vt 0.50272685 0.0033373917
vt 0.555297 0.0033373917
vt 0.50272685 0.034910984
vt 0.47028348 0.034910984
vt 0.47028348 0.0033373917
vt 0.50272685 0.0033373917
vt 0.47028348 0.061126597
vt 0.50272685 0.061126597
vt 0.50272685 0.06734187
vt 0.47028348 0.06734187
vt 0.555297 0.06734187
vt 0.50272685 0.06734187
vt 0.50272685 0.061126597
vt 0.555297 0.061126597
vn -0 0.45815742 0.8888711
vn -0 0.45815742 0.8888711
vn -0 0.45785618 0.88902634
vn -0 0.45785618 0.88902634
vn -0.62844884 0.45837104 0.62844884
vn -0.62844884 0.45837104 0.62844884
vn -0.62844884 0.45837104 0.62844884
vn -0.62844884 0.45837104 0.62844884
vn -0.888706 0.45847762 0
vn -0.888706 0.45847762 0
vn -0.8885504 0.45877904 0
vn -0.8885504 0.45877904 0
vn -0 0.11332061 0.99355847
vn -0 0.11332061 0.99355847
vn -0 0.11338056 0.9935516
vn -0 0.11338056 0.9935516
vn -0.7025406 0.1134606 0.7025406
vn -0.7025455 0.11340001 0.7025455
vn -0.7025455 0.11340001 0.7025455
vn -0.7025406 0.1134606 0.7025406
vn -0.99357796 0.113149025 0
vn -0.99357116 0.11320927 0
vn -0.99357116 0.11320927 0
vn -0.99357796 0.113149025 0
vn -0.49152905 0.87086123 0
vn -0.49152905 0.87086123 0
vn -0.49152905 0.87086123 0
vn -0.49152905 0.87086123 0
vn -0.3478293 0.87186164 0.34477818
vn -0.3478293 0.87186164 0.34477818
vn -0.34514308 0.8727844 0.34514308
vn -0.34514308 0.8727844 0.34514308
vn -0 0.8702075 0.49268535
vn -0 0.8702075 0.49268535
vn -0 0.8702075 0.49268535
vn -0 0.8702075 0.49268535
vn -0.58286726 0.45774913 -0.6713654
vn -0.58084697 0.45856342 -0.6725596
vn -0.58286726 0.45774913 -0.6713654
vn -0.58286726 0.45774913 -0.6713654
vn -0 1 0
vn -0 1 0
vn -0 1 0
vn -0 1 0
vn -0 1 0
vn -0 1 0
vn -0 1 0
vn -0 0.45816672 -0.8888663
vn -0 0.45815742 -0.8888711
vn -0 0.45877904 -0.8885504
vn -0 0.45816672 -0.8888663
vn -0.65970963 0.11326014 -0.74293697
vn -0.65970016 0.11338596 -0.74292624
vn -0.65970016 0.11338596 -0.74292624
vn -0.65989685 0.113292284 -0.74276584
vn -0 0.113381036 -0.9935516
vn -0 0.11332061 -0.99355847
vn -0 0.11332061 -0.99355847
vn -0 0.11338099 -0.9935516
vn -0 0.8705344 -0.49210754
vn -0 0.8705344 -0.49210754
vn -0 0.8702075 -0.49268535
vn -0 0.8705344 -0.49210754
vn -0.31424454 0.87103707 -0.3775511
vn -0.31424454 0.87103707 -0.3775511
vn -0.31158078 0.8721207 -0.3772571
vn -0.31158078 0.8721207 -0.3772571
vn -0 0.45785618 0.88902634
vn -0 0.45815742 0.8888711
vn -0 0.45815742 0.8888711
vn -0 0.45785618 0.88902634
vn 0.62844884 0.45837104 0.62844884
vn 0.62844884 0.45837104 0.62844884
vn 0.62844884 0.45837104 0.62844884
vn 0.62844884 0.45837104 0.62844884
vn -0 1 0
vn -0 1 0
vn -0 1 0
vn -0 1 0
vn -1.084462E-07 1 0
vn -1.0844619E-07 1 0
vn -1.0844619E-07 1 0
vn 0.8891905 0.45753723 0
vn 0.8893453 0.4572361 -0.00038071288
vn 0.8893453 0.4572361 0
vn 0.8893453 0.4572361 0
vn -0 0.11332061 0.99355847
vn -0 0.11338056 0.9935516
vn -0 0.11338056 0.9935516
vn -0 0.11332061 0.99355847
vn 0.7025455 0.11340001 0.7025455
vn 0.7025455 0.11340001 0.7025455
vn 0.70254064 0.11346038 0.70254064
vn 0.70254064 0.11346037 0.70254064
vn 0.99357796 0.113149025 0
vn 0.99357116 0.11320926 0
vn 0.99357116 0.11320927 0
vn 0.99357796 0.113149025 0
vn 0.4938392 0.86955327 0
vn 0.4938392 0.86955327 0
vn 0.493839 0.86955297 0.0007620972
vn 0.493839 0.86955297 0.0007620972
vn 0.3478293 0.87186164 0.34477818
vn 0.3478293 0.87186164 0.34477818
vn 0.3478293 0.87186164 0.34477818
vn 0.3478293 0.87186164 0.34477818
vn -0 0.8702075 0.49268535
vn -0 0.8702075 0.49268535
vn -0 0.8702075 0.49268535
vn -0 0.8702075 0.49268535
vn 0.58084697 0.45856342 -0.6725596
vn 0.58084697 0.45856342 -0.6725596
vn 0.58084697 0.45856342 -0.6725596
vn 0.58084697 0.45856342 -0.6725596
vn -0 0.45877904 -0.8885504
vn -0 0.45815742 -0.8888711
vn -0 0.45816672 -0.8888663
vn -0 0.45816672 -0.8888663
vn 0.65970016 0.11338596 -0.74292624
vn 0.65970016 0.11338596 -0.74292624
vn 0.65970963 0.11325992 -0.74293697
vn 0.65970963 0.11325992 -0.74293697
vn -0 0.11332061 -0.99355847
vn -0 0.11332061 -0.99355847
vn -0 0.113381036 -0.9935516
vn -0 0.113381006 -0.9935516
vn -0 0.8702075 -0.49268535
vn -0 0.8705344 -0.49210754
vn -0 0.8705344 -0.49210754
vn -0 0.8705344 -0.49210754
vn 0.31149095 0.8718693 -0.37791184
vn 0.31158078 0.8721207 -0.3772571
vn 0.31158078 0.8721207 -0.3772571
vn 0.31149095 0.8718693 -0.37791184
g [gimmick]rock_0
f 3/3/3 2/2/2 1/1/1
f 4/4/4 3/3/3 1/1/1
f 7/7/7 6/6/6 5/5/5
f 8/8/8 7/7/7 5/5/5
f 11/11/11 10/10/10 9/9/9
f 12/12/12 11/11/11 9/9/9
f 15/15/15 14/14/14 13/13/13
f 16/16/16 15/15/15 13/13/13
f 19/19/19 18/18/18 17/17/17
f 20/20/20 19/19/19 17/17/17
f 23/23/23 22/22/22 21/21/21
f 24/24/24 23/23/23 21/21/21
f 27/27/27 26/26/26 25/25/25
f 28/28/28 27/27/27 25/25/25
f 31/31/31 30/30/30 29/29/29
f 32/32/32 31/31/31 29/29/29
f 35/35/35 34/34/34 33/33/33
f 36/36/36 35/35/35 33/33/33
f 39/39/39 38/38/38 37/37/37
f 40/40/40 39/39/39 37/37/37
f 43/43/43 42/42/42 41/41/41
f 44/44/44 43/43/43 41/41/41
f 43/43/43 46/46/46 45/45/45
f 47/47/47 43/43/43 45/45/45
f 50/50/50 49/49/49 48/48/48
f 51/51/51 50/50/50 48/48/48
f 54/54/54 53/53/53 52/52/52
f 55/55/55 54/54/54 52/52/52
f 58/58/58 57/57/57 56/56/56
f 59/59/59 58/58/58 56/56/56
f 62/62/62 61/61/61 60/60/60
f 63/63/63 62/62/62 60/60/60
f 66/66/66 65/65/65 64/64/64
f 67/67/67 66/66/66 64/64/64
f 70/70/70 69/69/69 68/68/68
f 71/71/71 70/70/70 68/68/68
f 74/74/74 73/73/73 72/72/72
f 75/75/75 74/74/74 72/72/72
f 78/78/78 77/77/77 76/76/76
f 79/79/79 78/78/78 76/76/76
f 78/78/78 81/81/81 80/80/80
f 82/82/82 78/78/78 80/80/80
f 85/85/85 84/84/84 83/83/83
f 86/86/86 85/85/85 83/83/83
f 89/89/89 88/88/88 87/87/87
f 90/90/90 89/89/89 87/87/87
f 93/93/93 92/92/92 91/91/91
f 94/94/94 93/93/93 91/91/91
f 97/97/97 96/96/96 95/95/95
f 98/98/98 97/97/97 95/95/95
f 101/101/101 100/100/100 99/99/99
f 102/102/102 101/101/101 99/99/99
f 105/105/105 104/104/104 103/103/103
f 106/106/106 105/105/105 103/103/103
f 109/109/109 108/108/108 107/107/107
f 110/110/110 109/109/109 107/107/107
f 113/113/113 112/112/112 111/111/111
f 114/114/114 113/113/113 111/111/111
f 117/117/117 116/116/116 115/115/115
f 118/118/118 117/117/117 115/115/115
f 121/121/121 120/120/120 119/119/119
f 122/122/122 121/121/121 119/119/119
f 125/125/125 124/124/124 123/123/123
f 126/126/126 125/125/125 123/123/123
f 129/129/129 128/128/128 127/127/127
f 130/130/130 129/129/129 127/127/127
f 133/133/133 132/132/132 131/131/131
f 134/134/134 133/133/133 131/131/131
