g [gimmick]crystalsocket_part2
v -0.62872785 0.1573259 0.026983567
v -0.024550933 0.15732567 0.6522502
v 0.024549484 0.15732734 0.65224195
v 0.6287283 0.15732758 0.026822433
v 0.6287358 0.15732254 -0.026967391
v 0.024551848 0.15732247 -0.65224296
v 7.6293944E-08 0.3380223 8.392334E-05
v -0.02455078 0.15732384 -0.65223473
v -0.6287358 0.15732406 -0.026806258
v -0.020590361 0.095589675 0.68404555
v -0.65938216 0.09558975 0.022643814
v -0.37369108 -1.3288696 0.02260788
v -0.020590438 -1.3288695 0.38767043
v 0.6593857 0.0955896 0.022473907
v 0.020587845 0.09558952 0.68404156
v 0.020587768 -1.3288693 0.38766676
v 0.3736946 -1.3288693 0.022510376
v 0.020590058 0.095589675 -0.68404484
v 0.6593823 0.09558975 -0.022639694
v 0.37369123 -1.3288695 -0.022603149
v 0.020590287 -1.3288696 -0.3876693
v -0.6593854 0.0955896 -0.02246994
v -0.020588303 0.09558952 -0.684041
v -0.020588074 -1.3288696 -0.38766566
v -0.3736946 -1.3288695 -0.022505645
v -0.022758026 -1.3894371 0.3525688
v -0.33985594 -1.3894372 0.024976883
v -0.022758026 -1.7907107 0.024937743
v 0.33985808 -1.3894382 0.024888458
v 0.022755736 -1.3894382 0.35256332
v 0.02275566 -1.7907178 0.02492813
v 0.022757873 -1.3894377 -0.35256797
v 0.33985603 -1.3894372 -0.024972305
v 0.02275795 -1.7907107 -0.024932709
v -0.33985794 -1.3894382 -0.024883956
v -0.022755813 -1.3894387 -0.35256216
v -0.022755736 -1.7907178 -0.024923248
v -0.024551086 0.33802262 0.4179901
v -0.40236938 0.33802262 0.026983641
v 0.4023721 0.33802262 0.026879195
v 0.024549408 0.33802262 0.4179846
v 0.024551924 0.33802262 -0.4179208
v 0.4023729 0.33802262 -0.026910553
v -0.024550552 0.33802262 -0.41791508
v -0.40237516 0.33802262 -0.026806258
v -0.62872785 0.1573259 0.026983567
v -0.65938216 0.09558975 0.022643814
v -0.6593854 0.0955896 -0.02246994
v -0.020590361 0.095589675 0.68404555
v -0.024550933 0.15732567 0.6522502
v 0.024549484 0.15732734 0.65224195
v 0.020587845 0.09558952 0.68404156
v 0.6593857 0.0955896 0.022473907
v 0.6287283 0.15732758 0.026822433
v 0.6287358 0.15732254 -0.026967391
v 0.6593823 0.09558975 -0.022639694
v -0.020588303 0.09558952 -0.684041
v 0.020590058 0.095589675 -0.68404484
v 0.024551848 0.15732247 -0.65224296
v -0.3736946 -1.3288695 -0.022505645
v -0.37369108 -1.3288696 0.02260788
v -0.33985594 -1.3894372 0.024976883
v -0.33985794 -1.3894382 -0.024883956
v -0.020590438 -1.3288695 0.38767043
v 0.020587768 -1.3288693 0.38766676
v 0.022755736 -1.3894382 0.35256332
v -0.022758026 -1.3894371 0.3525688
v 0.3736946 -1.3288693 0.022510376
v 0.37369123 -1.3288695 -0.022603149
v 0.33985603 -1.3894372 -0.024972305
v 0.33985808 -1.3894382 0.024888458
v 0.020590287 -1.3288696 -0.3876693
v -0.020588074 -1.3288696 -0.38766566
v -0.022755813 -1.3894387 -0.35256216
v 0.022757873 -1.3894377 -0.35256797
v -0.022755736 -1.7907178 -0.024923248
v -0.022758026 -1.7907107 0.024937743
v 0.02275566 -1.7907178 0.02492813
v 0.02275795 -1.7907107 -0.024932709
v -0.40237516 0.33802262 -0.026806258
v -0.40236938 0.33802262 0.026983641
v -0.024551086 0.33802262 0.4179901
v 0.024549408 0.33802262 0.4179846
v 0.4023721 0.33802262 0.026879195
v 0.4023729 0.33802262 -0.026910553
v 0.024551924 0.33802262 -0.4179208
v -0.024550552 0.33802262 -0.41791508
v -0.02455078 0.15732384 -0.65223473
v -0.6287358 0.15732406 -0.026806258
v -0.65938216 0.09558975 0.022643814
v -0.6593854 0.0955896 -0.02246994
v 0.020587845 0.09558952 0.68404156
v -0.020590361 0.095589675 0.68404555
v 0.6593823 0.09558975 -0.022639694
v 0.6593857 0.0955896 0.022473907
v -0.020588303 0.09558952 -0.684041
v 0.020590058 0.095589675 -0.68404484
v -0.022758026 -1.7907107 0.024937743
v -0.022755736 -1.7907178 -0.024923248
v 0.02275566 -1.7907178 0.02492813
v -0.022758026 -1.7907107 0.024937743
v 0.02275795 -1.7907107 -0.024932709
v 0.02275566 -1.7907178 0.02492813
v -0.022755736 -1.7907178 -0.024923248
v 0.02275795 -1.7907107 -0.024932709
v -0.024551086 0.33802262 0.4179901
v -0.40236938 0.33802262 0.026983641
v 0.4023721 0.33802262 0.026879195
v 0.024549408 0.33802262 0.4179846
v 0.024551924 0.33802262 -0.4179208
v 0.4023729 0.33802262 -0.026910553
v -0.40236938 0.33802262 0.026983641
v -0.40237516 0.33802262 -0.026806258
v 7.6293944E-08 0.3380223 8.392334E-05
v 0.024549408 0.33802262 0.4179846
v -0.024551086 0.33802262 0.4179901
v 7.6293944E-08 0.3380223 8.392334E-05
v 0.4023729 0.33802262 -0.026910553
v 0.4023721 0.33802262 0.026879195
v -0.024550552 0.33802262 -0.41791508
v 0.024551924 0.33802262 -0.4179208
v -0.024550552 0.33802262 -0.41791508
v -0.40237516 0.33802262 -0.026806258
vt 0.31768873 0.11035509
vt 0.28026253 0.11035509
vt 0.27517614 0.11035509
vt 0.23774984 0.11035509
vt 0.31768873 0.11035509
vt 0.28026244 0.11035509
vt 0.19746801 0.019909265
vt 0.27517605 0.11035509
vt 0.23774984 0.11035509
vt 0.28026253 0.105696015
vt 0.31768873 0.105696015
vt 0.31768873 0.025221294
vt 0.28026253 0.025221294
vt 0.23774984 0.105696015
vt 0.27517614 0.105696015
vt 0.27517614 0.025221294
vt 0.23774984 0.025221294
vt 0.28026244 0.105696015
vt 0.31768873 0.105696015
vt 0.31768873 0.025221294
vt 0.28026244 0.025221294
vt 0.23774984 0.105696015
vt 0.27517605 0.105696015
vt 0.27517605 0.025221294
vt 0.23774984 0.025221294
vt 0.28026253 0.02038808
vt 0.31768873 0.02038808
vt 0.28026253 0.0068060886
vt 0.23774984 0.02038808
vt 0.27517614 0.02038808
vt 0.27517614 0.006805828
vt 0.28026244 0.02038808
vt 0.31768873 0.02038808
vt 0.28026244 0.0068060886
vt 0.23774984 0.02038808
vt 0.27517605 0.02038808
vt 0.27517605 0.006805828
vt 0.28026253 0.12469994
vt 0.30110726 0.124699935
vt 0.25433117 0.12469991
vt 0.27517614 0.12469992
vt 0.28026244 0.12470002
vt 0.30110714 0.12470002
vt 0.22212306 0.0015514735
vt 0.1731517 0.0015824384
vt 0.23241678 0.11035509
vt 0.23241678 0.105696015
vt 0.23774984 0.105696015
vt 0.28026253 0.105696015
vt 0.28026253 0.11035509
vt 0.27517614 0.11035509
vt 0.27517614 0.105696015
vt 0.32302195 0.105696015
vt 0.32302195 0.11035509
vt 0.31768873 0.11035509
vt 0.31768873 0.105696015
vt 0.27517605 0.105696015
vt 0.28026244 0.105696015
vt 0.28026244 0.11035509
vt 0.23774984 0.025221294
vt 0.23241678 0.025221294
vt 0.23241678 0.02038808
vt 0.23774984 0.02038808
vt 0.28026253 0.025221294
vt 0.27517614 0.025221294
vt 0.27517614 0.02038808
vt 0.28026253 0.02038808
vt 0.32302195 0.025221294
vt 0.31768873 0.025221294
vt 0.31768873 0.02038808
vt 0.32302195 0.02038808
vt 0.28026244 0.025221294
vt 0.27517605 0.025221294
vt 0.27517605 0.02038808
vt 0.28026244 0.02038808
vt 0.27517605 0.006805828
vt 0.27517605 0.0032926481
vt 0.28026244 0.0032923575
vt 0.28026244 0.0068060886
vt 0.25433123 0.12469997
vt 0.25136104 0.12625656
vt 0.28026253 0.12469994
vt 0.27517614 0.12469992
vt 0.3040778 0.12625651
vt 0.30110714 0.12470002
vt 0.28026244 0.12470002
vt 0.27517605 0.12469999
vt 0.27517605 0.11035509
vt 0.23774984 0.11035509
vt 0.23241678 0.105696015
vt 0.23774984 0.105696015
vt 0.27517614 0.105696015
vt 0.28026253 0.105696015
vt 0.31768873 0.105696015
vt 0.32302195 0.105696015
vt 0.27517605 0.105696015
vt 0.28026244 0.105696015
vt 0.27517605 0.0032926481
vt 0.27517605 0.006805828
vt 0.27517614 0.006805828
vt 0.28026253 0.0068060886
vt 0.28026244 0.0068060886
vt 0.28026244 0.0032923575
vt 0.27517605 0.006805828
vt 0.28026244 0.0068060886
vt 0.16803797 0.035282135
vt 0.16808186 0.0047453055
vt 0.22179013 0.03823247
vt 0.17281976 0.038263835
vt 0.22690502 0.004533071
vt 0.22686169 0.03507058
vt 0.16808186 0.0047453055
vt 0.1731517 0.0015824384
vt 0.19746801 0.019909265
vt 0.17281976 0.038263835
vt 0.16803797 0.035282135
vt 0.19746801 0.019909265
vt 0.22686169 0.03507058
vt 0.22179013 0.03823247
vt 0.22212306 0.0015514735
vt 0.22690502 0.004533071
vt 0.27517605 0.12469999
vt 0.25433123 0.12469997
vn -0.6485743 0.43212974 0.6265902
vn -0.6497961 0.4285682 0.62776935
vn 0.6498863 0.4285259 0.6277048
vn 0.6486649 0.43208662 0.6265263
vn 0.64854175 0.4322274 -0.62655646
vn 0.64977527 0.4286326 -0.62774694
vn -0 1 0
vn -9.609211E-05 0.6434042 -0.7655267
vn -0.77537704 0.6314985 8.081156E-05
vn -0.7179185 0.058700718 0.69364774
vn -0.7178891 0.059394527 0.69361913
vn -0.6995971 -0.23035958 0.6763862
vn -0.6997934 -0.22921772 0.6765712
vn 0.7179729 0.059388783 0.6935328
vn 0.7180023 0.058694955 0.69356155
vn 0.6998795 -0.22918907 0.6764918
vn 0.69968337 -0.23033047 0.67630696
vn 0.7179194 0.058721077 -0.69364524
vn 0.7178889 0.059439473 -0.69361544
vn 0.69960004 -0.23035838 -0.6763836
vn 0.69979626 -0.22921665 -0.67656857
vn -0.7179733 0.059435785 -0.6935285
vn -0.71800363 0.058717348 -0.6935582
vn -0.69988245 -0.22918959 -0.67648846
vn -0.69968647 -0.23033088 -0.6763037
vn -0.6573905 -0.40389615 0.6361649
vn -0.6570373 -0.4050043 0.6358249
vn -0.62480855 -0.49380064 0.6047936
vn 0.6571273 -0.4049607 0.63575983
vn 0.65748036 -0.40385273 0.6360994
vn 0.6249001 -0.49375355 0.6047374
vn 0.6573943 -0.40389517 -0.6361615
vn 0.6570411 -0.40500364 -0.63582164
vn 0.62481093 -0.4938035 -0.60478866
vn -0.65713054 -0.40496212 -0.63575554
vn -0.6574837 -0.40385404 -0.6360953
vn -0.62490284 -0.49375594 -0.6047327
vn -0.41558483 0.81610817 0.40156773
vn -0.4089711 0.82254344 0.39517707
vn 0.40906733 0.82249683 0.3951745
vn 0.41568002 0.8160622 0.4015626
vn 0.4155356 0.8161573 -0.40151897
vn 0.40888137 0.8226302 -0.39508918
vn -0.415631 0.8161112 -0.40151384
vn -0.40897784 0.8225836 -0.39508662
vn -0.7753537 0.6315271 8.0809354E-05
vn -0.89567554 0.44470805 9.196062E-05
vn -0.89567554 0.44470805 9.1960625E-05
vn 0.00011247534 0.45788404 0.8890119
vn 9.404888E-05 0.64328784 0.76562446
vn 9.4045274E-05 0.6433172 0.7655997
vn 0.00011247534 0.45788404 0.8890119
vn 0.89567566 0.44470778 1.570333E-05
vn 0.7753356 0.6315494 1.39554495E-05
vn 0.77539515 0.63147634 1.39563435E-05
vn 0.89567566 0.44470778 1.570333E-05
vn -0.00011250271 0.4579792 -0.8889628
vn -0.00011250272 0.4579792 -0.8889628
vn -9.6095224E-05 0.6433761 -0.7655503
vn -0.9375118 -0.3479536 6.495434E-05
vn -0.93751305 -0.34795016 6.495456E-05
vn -0.8309523 -0.5563437 5.1823034E-05
vn -0.83094853 -0.5563494 5.182273E-05
vn 8.977236E-05 -0.358597 0.9334925
vn 8.97723E-05 -0.35860226 0.9334905
vn 7.909498E-05 -0.5694019 0.82205933
vn 7.9095844E-05 -0.56939435 0.8220645
vn 0.937512 -0.3479529 -6.393234E-05
vn 0.9375132 -0.3479499 -6.393254E-05
vn 0.8309524 -0.5563435 -5.1050873E-05
vn 0.8309488 -0.55634874 -5.1050665E-05
vn -8.935169E-05 -0.35859507 -0.9334932
vn -8.93517E-05 -0.35860097 -0.93349093
vn -8.089452E-05 -0.5694032 -0.82205844
vn -8.089541E-05 -0.5693956 -0.8220637
vn -0 -1 0
vn -0 -1 0
vn -0 -1 0
vn -0 -1 0
vn -0.33769393 0.941256 3.5916968E-05
vn -0.33765528 0.9412698 3.5912864E-05
vn 3.8691986E-05 0.94440264 0.32879132
vn 3.868701E-05 0.9444173 0.32874903
vn 0.33762416 0.941281 6.2941235E-06
vn 0.33772495 0.9412449 6.2960025E-06
vn -4.078865E-05 0.9444228 -0.32873335
vn -4.078321E-05 0.94443804 -0.32868955
vn -0.6498649 0.42859283 -0.62768114
vn -0.64863175 0.43218672 -0.62649137
vn -0.98047477 -0.19664499 7.324152E-05
vn -0.98047477 -0.19664496 7.324152E-05
vn 9.076908E-05 -0.20369911 0.9790335
vn 9.076908E-05 -0.20369911 0.9790335
vn 0.98047465 -0.19664508 -7.291571E-05
vn 0.98047465 -0.19664508 -7.2915704E-05
vn -8.8120025E-05 -0.20369944 -0.9790335
vn -8.8120025E-05 -0.20369944 -0.9790335
vn -0.78459483 -0.6200088 4.8108013E-05
vn -0.7845948 -0.6200089 4.810801E-05
vn 7.131734E-05 -0.63244635 0.77460414
vn 7.1317336E-05 -0.63244635 0.77460414
vn 0.7845948 -0.620009 -4.8227776E-05
vn 0.7845947 -0.620009 -4.822778E-05
vn -7.3129166E-05 -0.6324515 -0.77459997
vn -7.3129166E-05 -0.6324515 -0.77459997
vn -0.41558483 0.81610817 0.40156773
vn -0.4089711 0.82254344 0.39517707
vn 0.40906733 0.82249683 0.3951745
vn 0.41568002 0.8160622 0.4015626
vn 0.4155356 0.8161573 -0.40151897
vn 0.40888137 0.8226302 -0.39508918
vn -0.33765528 0.9412698 3.5912864E-05
vn -0.33769393 0.941256 3.5916968E-05
vn -0 1 0
vn 3.868701E-05 0.9444173 0.32874903
vn 3.8691986E-05 0.94440264 0.32879132
vn -0 1 0
vn 0.33772495 0.9412449 6.2960025E-06
vn 0.33762416 0.941281 6.2941235E-06
vn -4.078321E-05 0.94443804 -0.32868955
vn -4.078865E-05 0.9444228 -0.32873335
vn -0.415631 0.8161112 -0.40151384
vn -0.40897784 0.8225836 -0.39508662
g [gimmick]crystalsocket_part2_0
f 38/38/38 39/39/39 1/1/1
f 2/2/2 38/38/38 1/1/1
f 41/41/41 3/3/3 4/4/4
f 40/40/40 41/41/41 4/4/4
f 42/42/42 43/43/43 5/5/5
f 6/6/6 42/42/42 5/5/5
f 44/44/44 45/45/45 7/7/7
f 12/12/12 13/13/13 10/10/10
f 11/11/11 12/12/12 10/10/10
f 16/16/16 17/17/17 14/14/14
f 15/15/15 16/16/16 14/14/14
f 20/20/20 21/21/21 18/18/18
f 19/19/19 20/20/20 18/18/18
f 24/24/24 25/25/25 22/22/22
f 23/23/23 24/24/24 22/22/22
f 27/27/27 28/28/28 26/26/26
f 30/30/30 31/31/31 29/29/29
f 33/33/33 34/34/34 32/32/32
f 36/36/36 37/37/37 35/35/35
f 48/48/48 47/47/47 46/46/46
f 9/9/9 48/48/48 46/46/46
f 51/51/51 50/50/50 49/49/49
f 52/52/52 51/51/51 49/49/49
f 55/55/55 54/54/54 53/53/53
f 56/56/56 55/55/55 53/53/53
f 58/58/58 57/57/57 8/8/8
f 59/59/59 58/58/58 8/8/8
f 62/62/62 61/61/61 60/60/60
f 63/63/63 62/62/62 60/60/60
f 66/66/66 65/65/65 64/64/64
f 67/67/67 66/66/66 64/64/64
f 70/70/70 69/69/69 68/68/68
f 71/71/71 70/70/70 68/68/68
f 74/74/74 73/73/73 72/72/72
f 75/75/75 74/74/74 72/72/72
f 78/78/78 77/77/77 76/76/76
f 79/79/79 78/78/78 76/76/76
f 80/80/80 9/9/9 46/46/46
f 81/81/81 80/80/80 46/46/46
f 10/10/10 2/2/2 1/1/1
f 11/11/11 10/10/10 1/1/1
f 82/82/82 50/50/50 51/51/51
f 83/83/83 82/82/82 51/51/51
f 14/14/14 4/4/4 3/3/3
f 15/15/15 14/14/14 3/3/3
f 84/84/84 54/54/54 55/55/55
f 85/85/85 84/84/84 55/55/55
f 18/18/18 6/6/6 5/5/5
f 19/19/19 18/18/18 5/5/5
f 86/86/86 59/59/59 8/8/8
f 87/87/87 86/86/86 8/8/8
f 22/22/22 89/89/89 88/88/88
f 23/23/23 22/22/22 88/88/88
f 60/60/60 61/61/61 90/90/90
f 91/91/91 60/60/60 90/90/90
f 64/64/64 65/65/65 92/92/92
f 93/93/93 64/64/64 92/92/92
f 68/68/68 69/69/69 94/94/94
f 95/95/95 68/68/68 94/94/94
f 72/72/72 73/73/73 96/96/96
f 97/97/97 72/72/72 96/96/96
f 26/26/26 13/13/13 12/12/12
f 27/27/27 26/26/26 12/12/12
f 29/29/29 17/17/17 16/16/16
f 30/30/30 29/29/29 16/16/16
f 32/32/32 21/21/21 20/20/20
f 33/33/33 32/32/32 20/20/20
f 35/35/35 25/25/25 24/24/24
f 36/36/36 35/35/35 24/24/24
f 99/99/99 98/98/98 62/62/62
f 63/63/63 99/99/99 62/62/62
f 101/101/101 100/100/100 66/66/66
f 67/67/67 101/101/101 66/66/66
f 103/103/103 102/102/102 70/70/70
f 71/71/71 103/103/103 70/70/70
f 105/105/105 104/104/104 74/74/74
f 75/75/75 105/105/105 74/74/74
f 7/7/7 107/107/107 106/106/106
f 7/7/7 109/109/109 108/108/108
f 7/7/7 111/111/111 110/110/110
f 114/114/114 113/113/113 112/112/112
f 117/117/117 116/116/116 115/115/115
f 114/114/114 119/119/119 118/118/118
f 117/117/117 121/121/121 120/120/120
f 89/89/89 123/123/123 122/122/122
f 88/88/88 89/89/89 122/122/122
