g [GIMMICK]metal_push_block1
v -0.36120972 0.6087248 0.36121047
v -0.3645975 0.585096 0.3851222
v -0.38878837 0.5850959 0.3645978
v -0.39265025 0.58509594 -0.36073574
v -0.36073533 0.58509594 -0.3926507
v -0.36120972 0.60872495 -0.36121023
v 0.3620238 0.585096 -0.3913634
v 0.3913642 0.585096 -0.36202303
v 0.36121097 0.60872495 -0.36121023
v 0.3887896 0.5850959 0.3645978
v 0.36459813 0.585096 0.3851222
v 0.36121097 0.6087248 0.36121047
v -0.36120972 0.6087248 0.36121047
v -0.36120972 0.60872495 -0.36121023
v 0.36121097 0.60872495 -0.36121023
v 0.36121097 0.6087248 0.36121047
v 0.3620238 0.585096 -0.3913634
v -0.36073533 0.58509594 -0.3926507
v -0.44593242 0.062385313 -0.49381864
v 0.44593364 0.062385302 -0.49381864
v 0.3887896 0.5850959 0.3645978
v 0.3913642 0.585096 -0.36202303
v 0.49381924 0.062385295 -0.44593304
v 0.49381924 0.06238515 0.44593304
v -0.39265025 0.58509594 -0.36073574
v -0.38878837 0.5850959 0.3645978
v -0.493818 0.062385157 0.44593304
v -0.493818 0.062385283 -0.44593304
v -0.36073533 0.58509594 -0.3926507
v -0.39265025 0.58509594 -0.36073574
v -0.493818 0.062385283 -0.44593304
v -0.44593242 0.062385313 -0.49381864
v 0.3913642 0.585096 -0.36202303
v 0.3620238 0.585096 -0.3913634
v 0.44593364 0.062385302 -0.49381864
v 0.49381924 0.062385295 -0.44593304
v -0.3645975 0.585096 0.3851222
v -0.36120972 0.6087248 0.36121047
v 0.36121097 0.6087248 0.36121047
v 0.36459813 0.585096 0.3851222
v 0.36121097 0.6087248 0.36121047
v 0.36121097 0.60872495 -0.36121023
v 0.3913642 0.585096 -0.36202303
v 0.3887896 0.5850959 0.3645978
v 0.36121097 0.60872495 -0.36121023
v -0.36120972 0.60872495 -0.36121023
v -0.36073533 0.58509594 -0.3926507
v 0.3620238 0.585096 -0.3913634
v 0.41010427 7.802864E-08 -0.46992946
v 0.44593364 0.062385302 -0.49381864
v -0.44593242 0.062385313 -0.49381864
v -0.41010302 7.802864E-08 -0.46992946
v -0.36120972 0.6087248 0.36121047
v -0.38878837 0.5850959 0.3645978
v -0.39265025 0.58509594 -0.36073574
v -0.36120972 0.60872495 -0.36121023
vt 0.97881734 0.23477393
vt 0.9770372 0.23292673
vt 0.97957057 0.2338503
vt 0.980468 0.17970407
vt 0.9788247 0.17970407
vt 0.97971475 0.18123776
vt 0.980468 0.17970407
vt 0.9788247 0.17970407
vt 0.97971475 0.18123776
vt 0.9770372 0.23292673
vt 0.97957057 0.2338503
vt 0.97881734 0.23477393
vt 0.9410986 0.23432958
vt 0.9410986 0.18123496
vt 0.9920685 0.18123507
vt 0.9920685 0.23432958
vt 0.98768115 0.17561072
vt 0.94343626 0.17758435
vt 0.939376 0.13946742
vt 0.9915811 0.13946742
vt 0.9970225 0.21494043
vt 0.9956801 0.21613747
vt 0.99555695 0.19301915
vt 0.99714077 0.19301915
vt 0.9956752 0.21494043
vt 0.9970176 0.21613747
vt 0.99714077 0.19301915
vt 0.99555695 0.19301915
vt 0.99575305 0.17770594
vt 0.9974398 0.17573082
vt 0.9974398 0.13940215
vt 0.99519163 0.13940215
vt 0.9968784 0.17770594
vt 0.99519163 0.17573082
vt 0.99519163 0.13940215
vt 0.9974398 0.13940215
vt 0.94503397 0.23289907
vt 0.94503397 0.2348209
vt 0.98526955 0.2348209
vt 0.98526955 0.23385996
vt 0.9925205 0.2338422
vt 0.9925205 0.18315774
vt 0.9922504 0.18315774
vt 0.9922504 0.2338422
vt 0.98616695 0.18131578
vt 0.9459314 0.18131566
vt 0.9459314 0.1797201
vt 0.98616695 0.1797201
vt 0.9920685 0.13492322
vt 0.9915811 0.13743514
vt 0.939376 0.13743514
vt 0.93888843 0.13492322
vt 0.99299675 0.20618916
vt 0.9919745 0.20630938
vt 0.9919745 0.18042356
vt 0.99299675 0.18054384
vn -0.48944446 0.65395683 0.57687473
vn -0.48944455 0.65395683 0.57687473
vn -0.4894445 0.65395683 0.57687473
vn -0.51865476 0.6797022 -0.51865417
vn -0.5186548 0.6797022 -0.51865417
vn -0.51865476 0.6797022 -0.5186541
vn 0.51865375 0.6797032 -0.51865375
vn 0.51865375 0.6797032 -0.51865375
vn 0.5186538 0.6797032 -0.5186538
vn 0.48943973 0.65395254 0.5768838
vn 0.48943973 0.6539525 0.5768838
vn 0.48943973 0.6539525 0.5768838
vn -0 1 2.1269601E-07
vn -0 1 2.1269601E-07
vn -0 1 2.1269601E-07
vn -0 1 2.1269601E-07
vn 0.00078255474 0.19118237 -0.98155427
vn 0.0007825547 0.19118237 -0.98155427
vn 0.0007825547 0.19118237 -0.98155427
vn 0.00078255456 0.19118239 -0.98155427
vn 0.9808678 0.1946689 0.0015603366
vn 0.9808678 0.1946689 0.0015603368
vn 0.9808678 0.19466893 0.0015603369
vn 0.9808678 0.19466892 0.0015603369
vn -0.9810972 0.19350158 0.002342883
vn -0.9810972 0.19350156 0.0023428828
vn -0.9810972 0.19350156 0.0023428828
vn -0.9810972 0.19350156 0.002342883
vn -0.685653 0.24445972 -0.6856527
vn -0.685653 0.24445972 -0.6856526
vn -0.685653 0.24445972 -0.6856526
vn -0.68565303 0.24445975 -0.68565255
vn 0.68565273 0.24445975 -0.6856528
vn 0.68565273 0.24445975 -0.6856528
vn 0.68565273 0.24445972 -0.6856528
vn 0.6856528 0.24445975 -0.6856528
vn -0 0.71130276 0.70288575
vn -0 0.71130276 0.70288575
vn -0 0.7113028 0.7028857
vn -0 0.71130276 0.70288575
vn 0.6333893 0.7738325 0.0011255381
vn 0.63338935 0.7738325 0.0011255383
vn 0.63338935 0.7738325 0.0011255383
vn 0.63338935 0.7738325 0.0011255383
vn 0.00054217153 0.7933872 -0.608717
vn 0.00054217153 0.7933872 -0.608717
vn 0.00054217153 0.7933872 -0.608717
vn 0.00054217165 0.7933872 -0.6087171
vn -0 -0.35760745 -0.933872
vn -0 -0.35760748 -0.933872
vn -0 -0.35760745 -0.933872
vn -0 -0.35760748 -0.933872
vn -0.62497103 0.78064615 0.0016672303
vn -0.62497103 0.7806461 0.00166723
vn -0.62497103 0.78064615 0.0016672303
vn -0.62497103 0.7806462 0.0016672302
g [GIMMICK]metal_push_block1_0
f 3/3/3 2/2/2 1/1/1
f 6/6/6 5/5/5 4/4/4
f 9/9/9 8/8/8 7/7/7
f 12/12/12 11/11/11 10/10/10
f 15/15/15 14/14/14 13/13/13
f 16/16/16 15/15/15 13/13/13
f 19/19/19 18/18/18 17/17/17
f 20/20/20 19/19/19 17/17/17
f 23/23/23 22/22/22 21/21/21
f 24/24/24 23/23/23 21/21/21
f 27/27/27 26/26/26 25/25/25
f 28/28/28 27/27/27 25/25/25
f 31/31/31 30/30/30 29/29/29
f 32/32/32 31/31/31 29/29/29
f 35/35/35 34/34/34 33/33/33
f 36/36/36 35/35/35 33/33/33
f 39/39/39 38/38/38 37/37/37
f 40/40/40 39/39/39 37/37/37
f 43/43/43 42/42/42 41/41/41
f 44/44/44 43/43/43 41/41/41
f 47/47/47 46/46/46 45/45/45
f 48/48/48 47/47/47 45/45/45
f 51/51/51 50/50/50 49/49/49
f 52/52/52 51/51/51 49/49/49
f 55/55/55 54/54/54 53/53/53
f 56/56/56 55/55/55 53/53/53
