g [GIMMICK]ordeal_door3
v -0.2475991 -0.031481348 0.42262903
v -0.13593213 0.20343596 0.422629
v -4.99382E-07 0 0.422629
v 0.047732506 -0.23996916 0.422629
v -0.19733952 -0.32711968 0.42262903
v -0.3802028 -0.15748513 0.42262903
v -0.38020283 -0.3224528 0.42262903
v -0.5793371 -0.23996933 0.42262906
vt 0.272849 0.7265423
vt 0.26142523 0.75057507
vt 0.247519 0.7297629
vt 0.24263586 0.7052134
vt 0.26770744 0.69629765
vt 0.28641495 0.7136517
vt 0.28641495 0.6967751
vt 0.30678686 0.7052134
vn 1.4936185E-07 0 1
vn 1.4299766E-07 0 1
vn 1.4936184E-07 0 1
vn 1.4936184E-07 0 1
vn 1.4936182E-07 0 1
vn 1.9290502E-07 0 1
vn 1.9290502E-07 0 1
vn 1.9290503E-07 0 1
g [GIMMICK]ordeal_door3_0
f 3/3/3 2/2/2 1/1/1
f 4/4/4 3/3/3 1/1/1
f 5/5/5 4/4/4 1/1/1
f 5/5/5 1/1/1 6/6/6
f 7/7/7 5/5/5 6/6/6
f 8/8/8 7/7/7 6/6/6
