g [GIMMICK]switch3
v -0.1962518 0.085963264 -0.08180142
v -0.21228856 0.08596323 -0.00051125546
v -0.23982373 0.00733028 -0.00051126606
v -0.22170691 0.007330318 -0.0923453
v -0.15011068 0.08596332 -0.15062195
v -0.16958101 0.0073303566 -0.17009231
v -0.091834016 0.007330371 -0.22221826
v -0.081290156 0.08596332 -0.19676307
v -0 0.007330395 -0.24033506
v 1.3758481E-09 0.08596332 -0.21279979
v -0.081290156 0.08596314 0.19574052
v -0 0.08596314 0.21177731
v -0 0.0073301643 0.23931241
v -0.09183401 0.007330184 0.22119558
v -0.15011068 0.08596315 0.14959943
v -0.16958101 0.007330198 0.16906969
v -0.22170691 0.007330241 0.09132273
v -0.1962518 0.08596319 0.08077888
v -0.23982373 0.00733028 -0.00051126606
v -0.21228856 0.08596323 -0.00051125546
v 0.23982373 0.00733028 -0.00051126606
v 0.21228856 0.08596323 -0.00051125546
v 0.1962518 0.085963264 -0.08180142
v 0.22170691 0.007330318 -0.0923453
v 0.15011068 0.08596332 -0.15062195
v 0.16958098 0.0073303566 -0.17009231
v 0.09183401 0.007330371 -0.22221826
v 0.081290156 0.08596332 -0.19676307
v -0 0.007330395 -0.24033506
v 1.3758481E-09 0.08596332 -0.21279979
v -0 0.0073301643 0.23931241
v -0 0.08596314 0.21177731
v 0.081290156 0.08596315 0.19574052
v 0.09183401 0.007330184 0.22119558
v 0.15011068 0.08596315 0.14959943
v 0.16958098 0.007330198 0.16906969
v 0.22170691 0.007330241 0.09132272
v 0.1962518 0.08596319 0.08077888
v 0.23982373 0.00733028 -0.00051126606
v 0.21228856 0.08596323 -0.00051125546
v -0.081290156 0.08596332 -0.19676307
v 1.3758481E-09 0.08596332 -0.21279979
v 2.0432192E-10 0.09698785 -0.00051129685
v -0.15011068 0.08596332 -0.15062195
v 0.081290156 0.08596332 -0.19676307
v -0.1962518 0.085963264 -0.08180142
v 0.15011068 0.08596332 -0.15062195
v -0.21228856 0.08596323 -0.00051125546
v 0.1962518 0.085963264 -0.08180142
v -0.1962518 0.08596319 0.08077888
v 0.21228856 0.08596323 -0.00051125546
v -0.15011068 0.08596315 0.14959943
v 0.1962518 0.08596319 0.08077888
v -0.081290156 0.08596314 0.19574052
v 0.15011068 0.08596315 0.14959943
v -0 0.08596314 0.21177731
v 0.081290156 0.08596315 0.19574052
vt 0.37838838 0.624906
vt 0.38512543 0.624906
vt 0.38512543 0.61970794
vt 0.37838838 0.61970794
vt 0.3715745 0.624906
vt 0.3715745 0.61970794
vt 0.3648517 0.61970794
vt 0.3648517 0.624906
vt 0.35884392 0.61970794
vt 0.35884392 0.624906
vt 0.3648517 0.624906
vt 0.35884392 0.624906
vt 0.35884392 0.61970794
vt 0.3648517 0.61970794
vt 0.3715745 0.624906
vt 0.3715745 0.61970794
vt 0.37838838 0.61970794
vt 0.37838838 0.624906
vt 0.38512543 0.61970794
vt 0.38512543 0.624906
vt 0.38512543 0.61970794
vt 0.38512543 0.624906
vt 0.37838838 0.624906
vt 0.37838838 0.61970794
vt 0.3715745 0.624906
vt 0.3715745 0.61970794
vt 0.3648517 0.61970794
vt 0.3648517 0.624906
vt 0.35884392 0.61970794
vt 0.35884392 0.624906
vt 0.35884392 0.61970794
vt 0.35884392 0.624906
vt 0.3648517 0.624906
vt 0.3648517 0.61970794
vt 0.3715745 0.624906
vt 0.3715745 0.61970794
vt 0.37838838 0.61970794
vt 0.37838838 0.624906
vt 0.38512543 0.61970794
vt 0.38512543 0.624906
vt 0.3553772 0.6312107
vt 0.36128336 0.6304235
vt 0.36128336 0.6447471
vt 0.3506059 0.63456106
vt 0.36718944 0.6312107
vt 0.3470246 0.6390247
vt 0.37196073 0.63456106
vt 0.34618312 0.6445502
vt 0.37554207 0.6390247
vt 0.3470246 0.6500755
vt 0.37638354 0.6445502
vt 0.3506059 0.65453917
vt 0.37554207 0.6500755
vt 0.3553772 0.65788954
vt 0.37196073 0.65453917
vt 0.36128336 0.6586767
vt 0.36718944 0.65788954
vn -0.5920274 0.7677031 -0.24522528
vn -0.63893837 0.769258 4.2708854E-07
vn -0.94380724 0.33049637 2.4142386E-07
vn -0.8719047 0.3306808 -0.36115444
vn -0.4517976 0.7692583 -0.4517971
vn -0.6673725 0.33049682 -0.6673722
vn -0.36115456 0.33068144 -0.87190443
vn -0.24522558 0.76770335 -0.59202695
vn -0 0.33049726 -0.94380695
vn -0 0.7692585 -0.63893765
vn -0.24522576 0.76770276 0.5920277
vn -0 0.76925755 0.63893884
vn -0 0.3304956 0.9438075
vn -0.36115468 0.33068 0.87190485
vn -0.45179757 0.7692577 0.45179796
vn -0.66737247 0.33049616 0.6673727
vn -0.8719045 0.33068052 0.36115485
vn -0.5920273 0.767703 0.24522609
vn -0.94380724 0.33049637 2.4142386E-07
vn -0.63893837 0.769258 4.2708854E-07
vn 0.94380724 0.33049637 2.4142386E-07
vn 0.63893837 0.769258 4.210732E-07
vn 0.59202754 0.7677031 -0.24522534
vn 0.8719046 0.33068073 -0.36115453
vn 0.4517976 0.7692583 -0.4517971
vn 0.6673726 0.33049676 -0.6673723
vn 0.36115462 0.33068135 -0.87190443
vn 0.24522558 0.76770335 -0.59202695
vn -0 0.33049726 -0.94380695
vn -0 0.7692585 -0.63893765
vn -0 0.3304956 0.9438075
vn -0 0.76925755 0.63893884
vn 0.2452258 0.7677027 0.5920278
vn 0.3611547 0.33067998 0.87190485
vn 0.45179763 0.76925766 0.45179808
vn 0.6673724 0.33049607 0.6673727
vn 0.8719045 0.3306805 0.36115488
vn 0.59202737 0.7677029 0.24522611
vn 0.94380724 0.33049637 2.4142386E-07
vn 0.63893837 0.769258 4.210732E-07
vn -0.24522558 0.76770335 -0.59202695
vn -0 0.7692585 -0.63893765
vn -0 1 4.6790308E-07
vn -0.4517976 0.7692583 -0.4517971
vn 0.24522558 0.76770335 -0.59202695
vn -0.5920274 0.7677031 -0.24522528
vn 0.4517976 0.7692583 -0.4517971
vn -0.63893837 0.769258 4.2708854E-07
vn 0.59202754 0.7677031 -0.24522534
vn -0.5920273 0.767703 0.24522609
vn 0.63893837 0.769258 4.210732E-07
vn -0.45179757 0.7692577 0.45179796
vn 0.59202737 0.7677029 0.24522611
vn -0.24522576 0.76770276 0.5920277
vn 0.45179763 0.76925766 0.45179808
vn -0 0.76925755 0.63893884
vn 0.2452258 0.7677027 0.5920278
g [GIMMICK]switch3_0
f 3/3/3 2/2/2 1/1/1
f 1/1/1 4/4/4 3/3/3
f 5/5/5 4/4/4 1/1/1
f 6/6/6 4/4/4 5/5/5
f 7/7/7 6/6/6 5/5/5
f 7/7/7 5/5/5 8/8/8
f 9/9/9 7/7/7 8/8/8
f 8/8/8 10/10/10 9/9/9
f 13/13/13 12/12/12 11/11/11
f 11/11/11 14/14/14 13/13/13
f 15/15/15 14/14/14 11/11/11
f 16/16/16 14/14/14 15/15/15
f 17/17/17 16/16/16 15/15/15
f 17/17/17 15/15/15 18/18/18
f 19/19/19 17/17/17 18/18/18
f 18/18/18 20/20/20 19/19/19
f 23/23/23 22/22/22 21/21/21
f 21/21/21 24/24/24 23/23/23
f 23/23/23 24/24/24 25/25/25
f 26/26/26 25/25/25 24/24/24
f 26/26/26 27/27/27 25/25/25
f 25/25/25 27/27/27 28/28/28
f 28/28/28 27/27/27 29/29/29
f 29/29/29 30/30/30 28/28/28
f 33/33/33 32/32/32 31/31/31
f 31/31/31 34/34/34 33/33/33
f 33/33/33 34/34/34 35/35/35
f 36/36/36 35/35/35 34/34/34
f 36/36/36 37/37/37 35/35/35
f 35/35/35 37/37/37 38/38/38
f 38/38/38 37/37/37 39/39/39
f 39/39/39 40/40/40 38/38/38
f 43/43/43 42/42/42 41/41/41
f 43/43/43 41/41/41 44/44/44
f 43/43/43 45/45/45 42/42/42
f 44/44/44 46/46/46 43/43/43
f 47/47/47 45/45/45 43/43/43
f 46/46/46 48/48/48 43/43/43
f 47/47/47 43/43/43 49/49/49
f 43/43/43 48/48/48 50/50/50
f 43/43/43 51/51/51 49/49/49
f 43/43/43 50/50/50 52/52/52
f 53/53/53 51/51/51 43/43/43
f 43/43/43 52/52/52 54/54/54
f 55/55/55 53/53/53 43/43/43
f 54/54/54 56/56/56 43/43/43
f 57/57/57 55/55/55 43/43/43
f 56/56/56 57/57/57 43/43/43
