g [gimmick]hole
v -1.141246 -0.17171422 -1.0615807
v -1.0626591 -0.17171437 0.172437
v -1.1412449 -0.17171444 0.09385139
v 0.13424441 -0.17171414 -1.0615805
v 0.13424441 -0.17171448 0.09385169
v 0.055658776 -0.17171414 -1.1401662
v 0.50349975 -2.4609173E-07 0.50350016
v 0.29439688 1.4445327E-07 -0.5034999
v 0.5034998 1.4445327E-07 -0.50349987
v -0.5035002 -1.836689E-07 0.5034999
v 0.29439685 -1.649953E-07 0.3469734
v -0.50350016 -1.1553452E-07 0.34697315
v 0.29439688 1.4445327E-07 -0.5034999
v 0.50349975 -2.4609173E-07 0.50350016
v 0.29439685 -1.649953E-07 0.3469734
v -1.5105011 1.444534E-07 -0.5035003
v -1.3013976 -6.607375E-08 0.346973
v -1.5105003 -1.2124607E-07 0.5034997
v -1.3013976 -6.607375E-08 0.346973
v -1.5105011 1.444534E-07 -0.5035003
v -1.3013983 1.4445344E-07 -0.50350046
v -0.50350016 -1.1553452E-07 0.34697315
v -1.5105003 -1.2124607E-07 0.5034997
v -0.5035002 -1.836689E-07 0.5034999
v 0.43880045 -0.0013182301 0.3463102
v 0.3717037 0.03139014 -1.2891555
v 0.43880066 -0.0013176623 -1.3511531
v 0.37170357 0.03138958 0.32142693
v -1.2902344 0.03138965 0.40989622
v 0.15478845 0.031389598 0.28145126
v 0.28323373 0.031389564 0.40989658
v -1.161789 0.03138966 0.28145102
v -1.3787043 0.03138964 0.32142645
v -1.2902344 0.03138965 0.40989622
v -1.2502588 0.031389687 0.19298118
v -1.3787055 0.031390045 -1.2891561
v -1.2502602 0.031390004 -1.1607106
v -1.290236 0.031390034 -1.3776256
v -1.1617905 0.031390026 -1.2491801
v 0.28323412 0.031390116 -1.3776253
v 0.1547886 0.031390093 -1.2491798
v 0.28323373 0.031389564 0.40989658
v -1.3522321 -0.0013181644 0.43987858
v -1.2902344 0.03138965 0.40989622
v 0.34523153 -0.0013182593 0.43987903
v -1.3787043 0.03138964 0.32142645
v -1.4458003 -0.001317756 -1.3511537
v -1.3787055 0.031390045 -1.2891561
v -1.4457991 -0.001318134 0.3463096
v -1.290236 0.031390034 -1.3776256
v 0.34523177 -0.0013176355 -1.4447219
v 0.28323412 0.031390116 -1.3776253
v -1.352234 -0.0013177303 -1.4447227
v 0.24325804 0.03138962 0.19298142
v 0.28323373 0.031389564 0.40989658
v 0.15478845 0.031389598 0.28145126
v 0.37170357 0.03138958 0.32142693
v 0.2432582 0.031390063 -1.1607102
v 0.3717037 0.03139014 -1.2891555
v 0.1547886 0.031390093 -1.2491798
v 0.28323412 0.031390116 -1.3776253
v 0.37170357 0.03138958 0.32142693
v 0.34523153 -0.0013182593 0.43987903
v 0.28323373 0.031389564 0.40989658
v 0.43880045 -0.0013182301 0.3463102
v 0.13424441 -0.17171448 0.09385169
v 0.15478845 0.031389598 0.28145126
v 0.055658698 -0.17171438 0.17243722
v 0.24325804 0.03138962 0.19298142
v -1.2902344 0.03138965 0.40989622
v -1.4457991 -0.001318134 0.3463096
v -1.3787043 0.03138964 0.32142645
v -1.3522321 -0.0013181644 0.43987858
v -1.0626591 -0.17171437 0.172437
v -1.2502588 0.031389687 0.19298118
v -1.1412449 -0.17171444 0.09385139
v -1.161789 0.03138966 0.28145102
v -1.3787055 0.031390045 -1.2891561
v -1.352234 -0.0013177303 -1.4447227
v -1.290236 0.031390034 -1.3776256
v -1.4458003 -0.001317756 -1.3511537
v -1.141246 -0.17171422 -1.0615807
v -1.1617905 0.031390026 -1.2491801
v -1.0626605 -0.17171422 -1.1401664
v -1.2502602 0.031390004 -1.1607106
v 0.28323412 0.031390116 -1.3776253
v 0.43880066 -0.0013176623 -1.3511531
v 0.3717037 0.03139014 -1.2891555
v 0.34523177 -0.0013176355 -1.4447219
v 0.13424441 -0.17171414 -1.0615805
v 0.24325804 0.03138962 0.19298142
v 0.13424441 -0.17171448 0.09385169
v 0.2432582 0.031390063 -1.1607102
v 0.055658698 -0.17171438 0.17243722
v -1.161789 0.03138966 0.28145102
v -1.0626591 -0.17171437 0.172437
v 0.15478845 0.031389598 0.28145126
v -1.1412449 -0.17171444 0.09385139
v -1.2502602 0.031390004 -1.1607106
v -1.141246 -0.17171422 -1.0615807
v -1.2502588 0.031389687 0.19298118
v -1.0626605 -0.17171422 -1.1401664
v 0.1547886 0.031390093 -1.2491798
v 0.055658776 -0.17171414 -1.1401662
v -1.1617905 0.031390026 -1.2491801
v 0.055658776 -0.17171414 -1.1401662
v 0.2432582 0.031390063 -1.1607102
v 0.13424441 -0.17171414 -1.0615805
v 0.1547886 0.031390093 -1.2491798
v 0.055658776 -0.17171414 -1.1401662
v -1.141246 -0.17171422 -1.0615807
v -1.0626605 -0.17171422 -1.1401664
v 0.13424441 -0.17171448 0.09385169
v -1.0626591 -0.17171437 0.172437
v 0.055658698 -0.17171438 0.17243722
v 0.294397 4.539017E-07 -1.3013967
v 0.5034998 1.4445327E-07 -0.50349987
v 0.29439688 1.4445327E-07 -0.5034999
v 0.5035 5.349981E-07 -1.5104995
v -0.5035012 4.044411E-07 -1.3013971
v -0.5035011 4.725755E-07 -1.5105
v -1.301399 3.5498053E-07 -1.3013972
v -0.5035011 4.725755E-07 -1.5105
v -0.5035012 4.044411E-07 -1.3013971
v -1.5105021 4.101528E-07 -1.5105001
v -1.3013983 1.4445344E-07 -0.50350046
v -1.5105011 1.444534E-07 -0.5035003
vt 0.40315267 0.6200675
vt 0.4042456 0.63299465
vt 0.40315267 0.63191104
vt 0.42089114 0.6200675
vt 0.42089114 0.63191104
vt 0.41979823 0.61897457
vt 0.12811811 0.99775326
vt 0.14231324 0.93890226
vt 0.12810047 0.93890226
vt 0.1869736 0.99775326
vt 0.14236322 0.9855978
vt 0.1869736 0.9855329
vt 0.14231324 0.93890226
vt 0.12811811 0.99775326
vt 0.14236322 0.9855978
vt 0.12376668 0.9370168
vt 0.111124285 0.9858025
vt 0.12376668 0.9985876
vt 0.111124285 0.9858025
vt 0.12376668 0.9370168
vt 0.11112428 0.9370168
vt 0.062883206 0.9858025
vt 0.12376668 0.9985876
vt 0.06288321 0.9985876
vt 0.38271436 0.6356098
vt 0.3919708 0.5919872
vt 0.38271436 0.5919872
vt 0.3919708 0.6356098
vt 0.3919708 0.6399626
vt 0.4019959 0.6496961
vt 0.39197075 0.6496961
vt 0.40199596 0.6399626
vt 0.39197066 0.6356098
vt 0.39197066 0.6399626
vt 0.40199587 0.6356098
vt 0.39197066 0.5919872
vt 0.40199587 0.5919872
vt 0.3919708 0.582949
vt 0.40199596 0.582949
vt 0.3919709 0.57317543
vt 0.40199596 0.57317543
vt 0.39197075 0.6496961
vt 0.38271436 0.6399626
vt 0.3919708 0.6399626
vt 0.38271427 0.6496961
vt 0.39197066 0.6356098
vt 0.38271424 0.5919872
vt 0.39197066 0.5919872
vt 0.38271424 0.6356098
vt 0.3919708 0.582949
vt 0.3827145 0.57317543
vt 0.3919709 0.57317543
vt 0.38271436 0.582949
vt 0.40199596 0.6356098
vt 0.3919708 0.6399626
vt 0.40199596 0.6399626
vt 0.3919708 0.6356098
vt 0.40199596 0.5919872
vt 0.3919708 0.5919872
vt 0.40199596 0.582949
vt 0.3919708 0.582949
vt 0.3919708 0.6356098
vt 0.38271436 0.6399626
vt 0.3919708 0.6399626
vt 0.38271436 0.6356098
vt 0.42561802 0.63299465
vt 0.41979823 0.64947534
vt 0.41979823 0.63299465
vt 0.42561802 0.64947534
vt 0.39197066 0.6399626
vt 0.38271424 0.6356098
vt 0.39197066 0.6356098
vt 0.38271424 0.6399626
vt 0.42271253 0.63299465
vt 0.42561802 0.64947534
vt 0.42561802 0.63299465
vt 0.42271253 0.64947534
vt 0.39197066 0.5919872
vt 0.38271424 0.582949
vt 0.39197066 0.582949
vt 0.38271424 0.5919872
vt 0.43591717 0.63299465
vt 0.43862358 0.6494753
vt 0.43862358 0.63299465
vt 0.43591717 0.6494753
vt 0.3919708 0.582949
vt 0.38271436 0.5919872
vt 0.3919708 0.5919872
vt 0.38271436 0.582949
vt 0.43591717 0.63299465
vt 0.42561802 0.6494753
vt 0.42561802 0.63299465
vt 0.43591717 0.6494753
vt 0.41979823 0.63299465
vt 0.4042456 0.64949405
vt 0.4042456 0.63299465
vt 0.41979823 0.64947534
vt 0.42561802 0.63299465
vt 0.43591717 0.6494753
vt 0.43591717 0.63299465
vt 0.42561802 0.6494753
vt 0.44196346 0.63299465
vt 0.43862358 0.6494753
vt 0.43862358 0.63299465
vt 0.44196346 0.6494753
vt 0.43862358 0.63299465
vt 0.43591717 0.6494753
vt 0.43591717 0.63299465
vt 0.43862358 0.6494753
vt 0.41979823 0.61897457
vt 0.40315267 0.6200675
vt 0.4042456 0.61897457
vt 0.42089114 0.63191104
vt 0.4042456 0.63299465
vt 0.41979823 0.63299465
vt 0.07552561 0.9498019
vt 0.06289174 0.9985876
vt 0.07546662 0.9985843
vt 0.06288321 0.9370168
vt 0.12376669 0.9498019
vt 0.12376668 0.9370168
vt 0.17475231 0.95112264
vt 0.12811811 0.93890226
vt 0.12811811 0.95112264
vt 0.1869736 0.93890226
vt 0.1747523 0.99775326
vt 0.1869736 0.99775326
vn -1.177112E-06 1 1.9947979E-07
vn -1.1771122E-06 1 1.9947981E-07
vn -1.1771122E-06 1 1.9947981E-07
vn -2.9921776E-07 1 2.9921793E-07
vn -2.9921776E-07 1 2.9921793E-07
vn -2.9921776E-07 1 2.9921796E-07
vn -0 1 3.878302E-07
vn -0 1 3.8783017E-07
vn -0 1 3.8783023E-07
vn -0 1 4.3528897E-07
vn -0 1 4.3528897E-07
vn -0 1 4.3528908E-07
vn 1.15462E-07 1 3.6385458E-07
vn 1.15462E-07 1 3.6385455E-07
vn 1.15462E-07 1 3.6385458E-07
vn -0 1 2.638526E-07
vn -0 1 2.638526E-07
vn -0 1 2.638526E-07
vn -0 1 2.4754115E-07
vn -0 1 2.4754115E-07
vn -0 1 2.4754115E-07
vn -0 1 4.352891E-07
vn -0 1 4.3528905E-07
vn -0 1 4.3528908E-07
vn 0.43818134 0.89888656 3.5423687E-07
vn 0.4381812 0.8988867 3.5997533E-07
vn 0.43818122 0.8988867 3.600979E-07
vn 0.43818134 0.89888656 3.5401473E-07
vn -0 1 0
vn -0 0.97473097 -0.22338168
vn -0 1 2.3409143E-07
vn -0 0.97473097 -0.2233817
vn -0 1 1.5752207E-07
vn -0 1 0
vn 0.22338209 0.97473097 0
vn 1.5014372E-07 1 1.4272273E-07
vn 0.22338165 0.9747311 0
vn -0 1 1.18693464E-07
vn -1.0919067E-07 0.97473085 0.22338219
vn -1.6981615E-07 1 0
vn -1.5276935E-07 0.97473085 0.22338228
vn -1.6222032E-07 0.6757277 0.7371513
vn -1.4370225E-07 0.6757271 0.73715174
vn -1.428471E-07 0.6757271 0.73715174
vn -1.6243108E-07 0.6757277 0.7371513
vn -0.4381918 0.89888144 5.1850833E-07
vn -0.4381926 0.8988811 5.586885E-07
vn -0.43819264 0.8988811 5.6089425E-07
vn -0.43819177 0.89888155 5.1748543E-07
vn 1.0703859E-07 0.8988869 -0.43818063
vn -0 0.8988864 -0.43818197
vn -0 0.89888626 -0.43818197
vn 1.0843857E-07 0.8988869 -0.4381806
vn -0.22338219 0.97473085 2.8613584E-07
vn -0 1 2.3409143E-07
vn -0 0.97473097 -0.22338168
vn -0 1 2.730868E-07
vn -0.22338226 0.97473085 3.4970572E-07
vn -2.1258538E-07 1 2.1667202E-07
vn -1.5276935E-07 0.97473085 0.22338228
vn -1.6981615E-07 1 0
vn 0.3176868 0.8933923 0.3176874
vn 0.31768668 0.8933923 0.3176874
vn 0.3176866 0.8933924 0.3176873
vn 0.3176869 0.8933923 0.31768742
vn -0.5725751 0.58678305 -0.57257605
vn -0.5725762 0.58678263 -0.5725755
vn -0.5725745 0.58678335 -0.5725766
vn -0.5725768 0.5867824 -0.57257515
vn -0.31769073 0.8933912 0.31768665
vn -0.31769168 0.89338994 0.31768945
vn -0.3176927 0.8933881 0.31769314
vn -0.31768963 0.8933928 0.3176831
vn 0.57257503 0.58678305 -0.5725763
vn 0.5725752 0.5867832 -0.5725758
vn 0.57257485 0.58678293 -0.57257646
vn 0.5725754 0.58678335 -0.5725757
vn -0.23851784 0.9413928 -0.238514
vn -0.23851651 0.9413931 -0.2385138
vn -0.2385134 0.94139403 -0.23851347
vn -0.2385208 0.94139194 -0.23851429
vn 0.5725761 0.58678293 0.5725752
vn 0.5725754 0.58678323 0.5725756
vn 0.57257664 0.5867827 0.5725749
vn 0.5725749 0.5867834 0.572576
vn 0.23851447 0.9413935 -0.23851418
vn 0.23851447 0.9413936 -0.23851413
vn 0.23851441 0.9413936 -0.23851384
vn 0.23851451 0.9413935 -0.23851447
vn -0.8811042 0.4729223 0
vn -0.22338219 0.97473085 2.8613584E-07
vn -0.8811044 0.47292194 1.4150672E-07
vn -0.22338226 0.97473085 3.4970572E-07
vn 1.7790616E-07 0.47292337 -0.88110363
vn -0 0.97473097 -0.2233817
vn 1.8971683E-07 0.47292343 -0.8811036
vn -0 0.97473097 -0.22338168
vn 0.88110363 0.47292325 -8.335957E-07
vn 0.22338165 0.9747311 0
vn 0.88110346 0.47292352 -7.8446845E-07
vn 0.22338209 0.97473097 0
vn -2.34053E-07 0.47292194 0.8811044
vn -1.5276935E-07 0.97473085 0.22338228
vn -2.7461527E-07 0.47292203 0.8811043
vn -1.0919067E-07 0.97473085 0.22338219
vn -0.5725758 0.5867824 0.5725761
vn -0.57257587 0.5867824 0.57257605
vn -0.5725758 0.58678234 0.5725761
vn -0.57257587 0.5867824 0.57257605
vn -0 1 0
vn -0 1 0
vn -0 1 0
vn -0 1 -1.2048691E-06
vn -0 1 -1.2048692E-06
vn -0 1 -1.2048692E-06
vn -0 1 3.878302E-07
vn -0 1 3.878302E-07
vn -0 1 3.878302E-07
vn -0 1 3.878302E-07
vn -0 1 3.258414E-07
vn -0 1 3.2584137E-07
vn -0 1 3.2584103E-07
vn -0 1 3.2584103E-07
vn -0 1 3.2584134E-07
vn -0 1 3.2584103E-07
vn -0 1 2.638525E-07
vn -0 1 2.638525E-07
g [gimmick]hole_0
f 3/3/3 2/2/2 1/1/1
f 6/6/6 5/5/5 4/4/4
f 9/9/9 8/8/8 7/7/7
f 7/7/7 11/11/11 10/10/10
f 12/12/12 10/10/10 11/11/11
f 15/15/15 14/14/14 13/13/13
f 18/18/18 17/17/17 16/16/16
f 21/21/21 20/20/20 19/19/19
f 19/19/19 23/23/23 22/22/22
f 24/24/24 22/22/22 23/23/23
f 27/27/27 26/26/26 25/25/25
f 28/28/28 25/25/25 26/26/26
f 31/31/31 30/30/30 29/29/29
f 32/32/32 29/29/29 30/30/30
f 34/34/34 32/32/32 33/33/33
f 35/35/35 33/33/33 32/32/32
f 33/33/33 35/35/35 36/36/36
f 37/37/37 36/36/36 35/35/35
f 36/36/36 37/37/37 38/38/38
f 39/39/39 38/38/38 37/37/37
f 38/38/38 39/39/39 40/40/40
f 41/41/41 40/40/40 39/39/39
f 44/44/44 43/43/43 42/42/42
f 45/45/45 42/42/42 43/43/43
f 48/48/48 47/47/47 46/46/46
f 49/49/49 46/46/46 47/47/47
f 52/52/52 51/51/51 50/50/50
f 53/53/53 50/50/50 51/51/51
f 56/56/56 55/55/55 54/54/54
f 57/57/57 54/54/54 55/55/55
f 54/54/54 57/57/57 58/58/58
f 59/59/59 58/58/58 57/57/57
f 58/58/58 59/59/59 60/60/60
f 61/61/61 60/60/60 59/59/59
f 64/64/64 63/63/63 62/62/62
f 65/65/65 62/62/62 63/63/63
f 68/68/68 67/67/67 66/66/66
f 69/69/69 66/66/66 67/67/67
f 72/72/72 71/71/71 70/70/70
f 73/73/73 70/70/70 71/71/71
f 76/76/76 75/75/75 74/74/74
f 77/77/77 74/74/74 75/75/75
f 80/80/80 79/79/79 78/78/78
f 81/81/81 78/78/78 79/79/79
f 84/84/84 83/83/83 82/82/82
f 85/85/85 82/82/82 83/83/83
f 88/88/88 87/87/87 86/86/86
f 89/89/89 86/86/86 87/87/87
f 92/92/92 91/91/91 90/90/90
f 93/93/93 90/90/90 91/91/91
f 96/96/96 95/95/95 94/94/94
f 97/97/97 94/94/94 95/95/95
f 100/100/100 99/99/99 98/98/98
f 101/101/101 98/98/98 99/99/99
f 104/104/104 103/103/103 102/102/102
f 105/105/105 102/102/102 103/103/103
f 108/108/108 107/107/107 106/106/106
f 109/109/109 106/106/106 107/107/107
f 112/112/112 111/111/111 110/110/110
f 111/111/111 113/113/113 110/110/110
f 114/114/114 113/113/113 111/111/111
f 115/115/115 113/113/113 114/114/114
f 118/118/118 117/117/117 116/116/116
f 119/119/119 116/116/116 117/117/117
f 116/116/116 119/119/119 120/120/120
f 121/121/121 120/120/120 119/119/119
f 124/124/124 123/123/123 122/122/122
f 125/125/125 122/122/122 123/123/123
f 122/122/122 125/125/125 126/126/126
f 127/127/127 126/126/126 125/125/125
