g [GIMMICK]chest_box1_glow2
v -0.24059686 0.29879314 -0.5039018
v -0.33722144 0.2191932 -0.67402273
v -0.21030496 0.26853853 -0.50540507
v 0.22178286 0.26853848 -0.50540507
v 0.36245468 0.21945018 -0.63877195
v 0.25207478 0.29876542 -0.5034225
v 0.2559614 0.64170957 0.42876622
v -0.39321882 0.8077111 0.67577064
v -0.23656006 0.6417095 0.42876613
v 0.44211626 0.8077111 0.6757707
v 0.4547407 0.786958 -0.3793843
v 0.5453993 0.786958 -0.4267916
v 0.5453993 0.8954674 -0.31781855
v 0.4547407 0.8485236 -0.31781852
v 0.4547407 0.84852356 0.31922233
v 0.62084424 0.9208211 0.3256676
v 0.55190194 1.0022417 0.41621524
v 0.39656144 0.88630736 0.31922233
v 0.4547407 0.8485236 0.027970174
v 0.62084424 0.9208211 0.3256676
v 0.4547407 0.84852356 0.31922233
v 0.6457945 0.94093233 0.02797017
v 0.4547407 0.8485236 -0.31781852
v 0.5453993 0.8954674 -0.31781855
v 0.59245163 0.5693612 -0.42679155
v 0.5453993 0.786958 -0.4267916
v 0.4547407 0.786958 -0.3793843
v 0.4547407 0.46056283 -0.37938437
v 0.6683508 0.35176447 -0.49434978
v 0.4547407 0.1341677 -0.3793844
v 0.6299847 0.1341677 -0.49434963
v 0.6299847 0.1341677 -0.49434963
v 0.4547407 0.1341677 -0.3793844
v 0.455617 0.035246536 -0.51486826
v 0.33542487 0.035246544 -0.37938446
v -0.4547407 0.786958 -0.3793843
v -0.4547407 0.8485236 -0.31781852
v -0.5381103 0.8954674 -0.31781852
v -0.5381103 0.786958 -0.42679155
v -0.4547407 0.84852356 0.31922233
v -0.5184319 1.0022417 0.41621524
v -0.61355525 0.9208211 0.3256676
v -0.39656144 0.88630736 0.31922233
v -0.4547407 0.84852356 0.31922233
v -0.61355525 0.9208211 0.3256676
v -0.6385055 0.94093233 0.14323303
v -0.4547407 0.8485236 0.027970174
v -0.6385055 0.94093233 -0.08729273
v -0.4547407 0.8485236 -0.31781852
v -0.5381103 0.8954674 -0.31781852
v -0.33542487 0.035246544 -0.37938446
v -0.4547407 0.1341677 -0.3793844
v -0.44832805 0.035246536 -0.51486826
v -0.6226957 0.1341677 -0.49434963
v -0.6610619 0.35176447 -0.49434978
v -0.6226957 0.1341677 -0.49434963
v -0.4547407 0.1341677 -0.3793844
v -0.4547407 0.46056283 -0.37938437
v -0.58516264 0.5693612 -0.42679155
v -0.4547407 0.786958 -0.3793843
v -0.5381103 0.786958 -0.42679155
v 0.37201446 1.1657542 0.0074731316
v 0.3374562 1.1657541 0.2703291
v 0.24374448 0.9619784 0.2098174
v 0.24379468 0.9619786 0.0073352302
v 0.24385183 0.9619787 -0.22004627
v 0.3346251 1.1082034 -0.2807681
v -0.363747 1.1541593 0.007797197
v -0.3325466 1.1082034 -0.2807681
v -0.23492856 0.9619787 -0.22004625
v -0.23489352 0.96197855 0.007591682
v -0.23486407 0.9619784 0.20058788
v -0.335666 1.112926 0.2617699
v -0.08659186 1.0768279 -0.28076813
v 0.24385183 0.9619787 -0.22004627
v 0.3346251 1.1082034 -0.2807681
v -0.062257882 0.9619787 -0.22004627
v -0.23492856 0.9619787 -0.22004627
v -0.33254656 1.1082034 -0.2807681
v 0.08472813 0.9619786 0.2055078
v 0.09614669 1.0671505 0.26576588
v 0.05691429 1.0671504 0.30056563
v 0.053398862 0.9619783 0.24030095
v -0.19482422 0.96197826 0.24057755
v -0.29331473 1.1022668 0.3009301
v -0.39481434 0.48125982 -0.6577664
v -0.33722144 0.2191932 -0.67402273
v -0.24059686 0.29879314 -0.5039018
v -0.24059686 0.48739067 -0.4945309
v -0.24059686 0.6780377 -0.4836568
v -0.35020292 0.7344112 -0.6284149
v -0.24059686 0.6780377 -0.4836568
v -0.35020292 0.7344112 -0.6284149
v -0.016493972 0.7344112 -0.57913077
v 0.25207478 0.6780375 -0.4836568
v 0.37741077 0.7344112 -0.62743825
v 0.2521354 0.6780375 -0.4836568
v 0.3774714 0.63072026 -0.633328
v 0.3774714 0.7344112 -0.62743825
v 0.2521354 0.5981337 -0.48829937
v 0.3075856 1.1561769 0.30035558
v 0.2031551 1.0880365 0.30045715
v 0.21344571 0.96197826 0.24015372
v 0.17155245 0.96197826 0.24021515
v 0.37741077 0.5013644 -0.6229725
v 0.25207478 0.49008137 -0.4908744
v 0.25207478 0.29876542 -0.5034225
v 0.36245468 0.21945018 -0.63877195
v -0.33722144 0.2191932 -0.67402273
v -0.0032431453 0.19044116 -0.6394727
v -0.21030496 0.26853853 -0.50540507
v 0.22178286 0.26853848 -0.50540507
v 0.36245468 0.21945018 -0.63877195
v -0.23486407 0.9619784 0.20058788
v -0.29331473 1.1022668 0.3009301
v -0.335666 1.112926 0.2617699
v -0.19482422 0.96197826 0.24057755
v 0.3374562 1.1657541 0.2703291
v 0.3075856 1.1561769 0.30035558
v 0.21344571 0.96197826 0.24015372
v 0.24374448 0.9619784 0.2098174
v 0.39656144 0.9979075 -0.321648
v 0.33499575 1.0337607 -0.36412612
v 0.33499575 0.8863075 -0.37938437
v 0.39656144 0.8863074 -0.3178185
v -0.39656144 0.9979075 -0.32164806
v -0.39656144 0.8863074 -0.31781855
v -0.3349954 0.98392785 -0.36439326
v -0.3349954 0.8863075 -0.37938437
v -0.3349954 0.8485238 -0.43560717
v -0.39656144 0.786958 -0.4356072
v -0.39656144 0.7495917 -0.515055
v -0.33204848 0.76721025 -0.5330548
v -0.11166503 0.76006836 -0.54806113
v 1.9207E-07 0.8485238 -0.43560717
v 0.11166536 0.7830274 -0.5493985
v 0.33499575 0.8485238 -0.43560717
v 0.33499575 0.81115746 -0.51505494
v 0.39656144 0.7495917 -0.515055
v 0.39656144 0.786958 -0.4356072
v 0.33499575 0.81115746 -0.51505494
v 0.33499575 0.8485238 -0.43560717
v -0.11166502 0.99678826 -0.3468847
v -0.3349954 0.98392785 -0.36439326
v -0.3349954 0.8863075 -0.37938437
v 1.53656E-07 0.8863075 -0.37938437
v 0.11166538 1.0492853 -0.3468847
v 0.33499575 0.8863075 -0.37938437
v 0.33499575 1.0337607 -0.36412612
v -0.49609217 0.64892465 0.26486343
v -0.643397 0.69846547 0.30889276
v -0.7208578 0.6984654 0.01839272
v -0.49609217 0.6489247 -0.24329427
v -0.7083034 0.6984654 -0.32411036
v 0.74390805 0.69846547 -0.359344
v 0.69257975 0.6984654 -0.01684089
v 0.49452862 0.6489247 -0.26331162
v 0.49452862 0.64892465 -0.009232767
v 0.49452862 0.64892465 0.24484608
v 0.74390805 0.69846547 0.32566223
v -0.49609217 0.6489247 -0.24329427
v -0.7083034 0.69846547 -0.32411036
v -0.68165606 0.5898874 -0.32411036
v -0.49609217 0.5632935 -0.24329427
v 0.49452862 0.264674 -0.2633115
v 0.6486476 0.31538525 -0.2982271
v 0.68609166 0.49947852 -0.35934392
v 0.49452862 0.6489247 -0.26331162
v 0.74390805 0.69846547 -0.359344
v -0.70546883 0.5119548 -0.32411033
v -0.7141215 0.38383338 -0.29585192
v -0.49609217 0.49195382 -0.24329425
v -0.49609217 0.2646739 -0.2432942
v -0.641465 0.21121386 -0.28625613
vt 0.016323246 0.7989126
vt 0.01806932 0.8913636
vt 0.02371382 0.7989126
vt 0.015787013 0.7989126
vt 0.01641085 0.8913636
vt 0.019260205 0.7989126
vt 0.009250633 0.7989126
vt 0.11156947 0.8913636
vt 0.11156947 0.7989126
vt 0.009250633 0.8913636
vt 0.07356871 0.7989126
vt 0.07356871 0.8913636
vt 0.061731108 0.8913636
vt 0.061731108 0.7989126
vt 0.020167299 0.7989126
vt 0.020167299 0.8913636
vt 0.015742995 0.8913636
vt 0.015742995 0.7989126
vt 0.040949203 0.7989126
vt 0.020167299 0.8913636
vt 0.020167299 0.7989126
vt 0.040949203 0.8913636
vt 0.061731108 0.7989126
vt 0.061731108 0.8913636
vt 0.08623559 0.8913636
vt 0.07356871 0.8913636
vt 0.07356871 0.7989126
vt 0.09256903 0.7989126
vt 0.09890247 0.8913636
vt 0.11156947 0.7989126
vt 0.11156947 0.8913636
vt 0.11156947 0.8913636
vt 0.11156947 0.7989126
vt 0.12423623 0.8913636
vt 0.12423623 0.7989126
vt 0.07356871 0.7989126
vt 0.061731108 0.7989126
vt 0.061731108 0.8913636
vt 0.07356871 0.8913636
vt 0.020167299 0.7989126
vt 0.015742995 0.8913636
vt 0.020167299 0.8913636
vt 0.015742995 0.7989126
vt 0.020167299 0.7989126
vt 0.020167299 0.8913636
vt 0.03402189 0.8913636
vt 0.040949203 0.7989126
vt 0.047876514 0.8913636
vt 0.061731108 0.7989126
vt 0.061731108 0.8913636
vt 0.12423623 0.7989126
vt 0.11156947 0.7989126
vt 0.12423623 0.8913636
vt 0.11156947 0.8913636
vt 0.09890247 0.8913636
vt 0.11156947 0.8913636
vt 0.11156947 0.7989126
vt 0.09256903 0.7989126
vt 0.08623559 0.8913636
vt 0.07356871 0.7989126
vt 0.07356871 0.8913636
vt 0.06040988 0.8913636
vt 0.10643787 0.8913636
vt 0.10537938 0.7989126
vt 0.06040988 0.7989126
vt 0.009250633 0.7989126
vt 0.009250633 0.8913636
vt 0.06040988 0.8913636
vt 0.11156947 0.8913636
vt 0.11156947 0.7989126
vt 0.06040988 0.7989126
vt 0.017423414 0.7989126
vt 0.015965872 0.8913636
vt 0.047620066 0.8913636
vt 0.11156947 0.7989126
vt 0.11156947 0.8913636
vt 0.047620066 0.7989126
vt 0.009250633 0.7989126
vt 0.009250633 0.8913636
vt 0.042480536 0.7989126
vt 0.042480536 0.8913636
vt 0.047489353 0.8913636
vt 0.047489353 0.7989126
vt 0.10266981 0.7989126
vt 0.10462222 0.8913636
vt 0.06040988 0.8913636
vt 0.01806932 0.8913636
vt 0.016323246 0.7989126
vt 0.06040988 0.7989126
vt 0.11156947 0.7989126
vt 0.11156947 0.8913636
vt 0.009250633 0.7989126
vt 0.009250633 0.8913636
vt 0.06040988 0.8913636
vt 0.11156947 0.7989126
vt 0.11156947 0.8913636
vt 0.009250633 0.7989126
vt 0.03109295 0.8913636
vt 0.009250633 0.8913636
vt 0.03109295 0.7989126
vt 0.014982067 0.8913636
vt 0.03036607 0.8913636
vt 0.0181114 0.7989126
vt 0.03036607 0.7989126
vt 0.043207325 0.8913636
vt 0.043207325 0.7989126
vt 0.10224227 0.7989126
vt 0.10413123 0.8913636
vt 0.10639397 0.8913636
vt 0.06041018 0.8913636
vt 0.104820676 0.7989126
vt 0.015787013 0.7989126
vt 0.01641085 0.8913636
vt 0.11259464 0.7989126
vt 0.10462222 0.8913636
vt 0.114127554 0.8913636
vt 0.10266981 0.7989126
vt 0.10643787 0.8913636
vt 0.10370178 0.8913636
vt 0.09836308 0.7989126
vt 0.10537938 0.7989126
vt 0.03909064 0.8913636
vt 0.044306047 0.8913636
vt 0.044306047 0.7989126
vt 0.03909064 0.7989126
vt 0.09016002 0.8913636
vt 0.09016002 0.7989126
vt 0.08544705 0.8913636
vt 0.08544705 0.7989126
vt 0.08544705 0.7989126
vt 0.09016002 0.7989126
vt 0.09016002 0.8913636
vt 0.08544705 0.8913636
vt 0.071701296 0.8913636
vt 0.06485764 0.7989126
vt 0.058013983 0.8913636
vt 0.044306047 0.7989126
vt 0.044306047 0.8913636
vt 0.03909064 0.8913636
vt 0.03909064 0.7989126
vt 0.044306047 0.8913636
vt 0.044306047 0.7989126
vt 0.071701296 0.8913636
vt 0.08544705 0.8913636
vt 0.08544705 0.7989126
vt 0.06485764 0.7989126
vt 0.058013983 0.8913636
vt 0.044306047 0.7989126
vt 0.044306047 0.8913636
vt 0.009250633 0.7989126
vt 0.009250633 0.8913636
vt 0.06040988 0.8913636
vt 0.11156947 0.7989126
vt 0.11156947 0.8913636
vt 0.009250633 0.8913636
vt 0.06040988 0.8913636
vt 0.009250633 0.7989126
vt 0.06040988 0.7989126
vt 0.11156947 0.7989126
vt 0.11156947 0.8913636
vt 0.009250633 0.7989126
vt 0.009250633 0.8913636
vt 0.03109295 0.8913636
vt 0.03109295 0.7989126
vt 0.009250633 0.7989126
vt 0.009250633 0.8913636
vt 0.06040988 0.8913636
vt 0.11156947 0.7989126
vt 0.11156947 0.8913636
vt 0.043207325 0.8913636
vt 0.077388324 0.8913636
vt 0.043207325 0.7989126
vt 0.11156947 0.7989126
vt 0.11156947 0.8913636
vn 0.69976056 0.3458393 -0.6250843
vn 0.7562314 0.19929017 -0.6232155
vn 0.55582905 0.5858202 -0.58980393
vn -0.48037603 0.52737254 -0.70079744
vn -0.48037603 0.5273725 -0.70079744
vn -0.48037603 0.52737254 -0.70079744
vn -0 0.82997894 -0.5577948
vn -0 0.8299789 -0.5577948
vn -0 0.82997894 -0.5577948
vn -0 0.8299789 -0.55779487
vn -0.34531662 0.66451293 -0.6627058
vn -0.34531662 0.66451293 -0.6627058
vn -0.34531662 0.66451293 -0.6627058
vn -0.34531668 0.66451293 -0.6627058
vn 0.1012375 0.48433468 -0.86900574
vn -0.24210615 0.6225801 -0.7441631
vn -0.12695178 0.5854651 -0.80069596
vn 0.25633636 0.39470544 -0.882326
vn -0.42720473 0.90413064 0.006628284
vn -0.4189344 0.9079197 0.0132557275
vn -0.41893435 0.9079197 0.0132557275
vn -0.42877144 0.90337193 0.008609728
vn -0.4512816 0.8923153 0.010877576
vn -0.4597555 0.88788766 0.0167428
vn -0.38984227 0.034606665 -0.92023116
vn -0.37019864 -0.032020207 -0.9284006
vn -0.37019864 -0.032020207 -0.9284006
vn -0.43528083 0.049398907 -0.8989385
vn -0.47791627 0.063548125 -0.8761037
vn -0.50131446 0.03535607 -0.86454254
vn -0.50131446 0.03535607 -0.86454254
vn -0.44841513 0.7205017 -0.5289622
vn -0.44841513 0.7205017 -0.5289622
vn -0.44841513 0.7205017 -0.52896225
vn -0.44841516 0.7205018 -0.5289622
vn 0.37148678 0.6573982 -0.6556105
vn 0.37148675 0.65739816 -0.6556105
vn 0.37148675 0.65739816 -0.6556105
vn 0.37148672 0.6573982 -0.65561056
vn 0.06293935 0.5510941 -0.83206606
vn 0.06293935 0.5510941 -0.83206606
vn 0.06293935 0.5510941 -0.83206606
vn 0.06293935 0.5510942 -0.83206606
vn 0.43761292 0.89903635 0.015120251
vn 0.43761295 0.89903635 0.015120251
vn 0.44178793 0.8970668 0.009726469
vn 0.44868883 0.89364815 0.008443456
vn 0.45525736 0.8903396 0.006008653
vn 0.45912412 0.8883169 0.0099018235
vn 0.45912412 0.8883169 0.009901823
vn 0.5634993 0.6796769 -0.46958283
vn 0.4693215 0.7235967 -0.5061078
vn 0.4579344 0.7281604 -0.5099789
vn 0.36757016 0.75929797 -0.53699046
vn 0.49260965 0.06176549 -0.86805576
vn 0.5620662 0.09910168 -0.8211337
vn 0.5237527 0.04722608 -0.85056037
vn 0.4270606 0.044815943 -0.9031117
vn 0.39524895 0.038239762 -0.9177778
vn 0.4396483 -0.06840031 -0.8955617
vn 0.49151006 -0.106282294 -0.86436206
vn -0.86142516 0.5067884 -0.033352654
vn -0.79954493 0.5047642 -0.32548586
vn -0.8009718 0.5047393 -0.32199764
vn -0.86070323 0.5081385 -0.0313894
vn -0.8475657 0.5306861 0.0021335995
vn -0.8475658 0.5306861 0.0021335995
vn 0.8309866 0.5562924 -0.0001433311
vn 0.8310114 0.556255 0.000650265
vn 0.8310114 0.556255 0.0006502651
vn 0.8309867 0.55629236 -0.0001435055
vn 0.8309613 0.5563295 -0.0009380873
vn 0.83096135 0.5563294 -0.00093808735
vn -0.010279587 -0.43044022 -0.90256053
vn 0.01835685 -0.4255364 -0.9047551
vn 0.018356849 -0.4255364 -0.9047551
vn -0.0040876903 -0.42941073 -0.90310013
vn -0.03252775 -0.43399885 -0.9003261
vn -0.03252775 -0.43399885 -0.9003261
vn -0.63847697 0.4162559 -0.6473625
vn -0.638477 0.4162559 -0.6473625
vn -0.28181523 0.4642102 -0.8396958
vn -0.36070448 0.46061525 -0.8110029
vn 0.025376353 0.44877183 -0.89328593
vn 0.025376355 0.44877186 -0.89328593
vn 0.7692553 0.06280188 -0.63584775
vn 0.7562314 0.19929017 -0.6232155
vn 0.69976056 0.3458393 -0.6250843
vn 0.76844186 0.055528685 -0.63750577
vn 0.7579748 -0.017090693 -0.6520599
vn 0.75797474 -0.017090693 -0.65205985
vn -0.04685069 0.90442413 0.4240544
vn -0.05920058 0.9142271 0.4008542
vn -0.0030529264 0.880081 0.47481388
vn 0.04074364 0.9063524 0.4205534
vn 0.04923801 0.9145381 0.401492
vn -0.76033163 0.037200987 -0.648469
vn -0.76033163 0.037200984 -0.648469
vn -0.76033163 0.037200984 -0.648469
vn -0.76033163 0.037200984 -0.648469
vn -0.5605037 0.48138714 -0.6738708
vn -0.19223802 0.41067728 -0.8912848
vn -0.4043333 0.4604067 -0.7902787
vn -0.19223802 0.41067728 -0.8912848
vn -0.74063206 0.06347609 -0.66890585
vn -0.7406321 0.06347609 -0.6689058
vn -0.7406321 0.0634761 -0.6689058
vn -0.74063206 0.06347609 -0.66890585
vn 0.116853304 0.9260136 -0.35894856
vn 0.013119943 0.88957983 -0.45659122
vn 0.0831909 0.9116106 -0.4025486
vn -0.053156752 0.8990923 -0.4345197
vn -0.07134604 0.90931547 -0.4099452
vn 0.5843261 0.61889976 -0.52490574
vn 0.5843261 0.61889976 -0.52490574
vn 0.5843261 0.61889976 -0.52490574
vn 0.5843261 0.61889976 -0.52490574
vn -0.79954493 0.5047642 -0.32548586
vn -0.5605037 0.48138714 -0.6738708
vn -0.4043333 0.4604067 -0.7902787
vn -0.8009718 0.5047393 -0.32199764
vn 0.650727 0.033466198 -0.758574
vn 0.650727 0.033466198 -0.758574
vn 0.65072685 0.033466198 -0.758574
vn 0.6507269 0.033466198 -0.75857395
vn -0.6431455 0.04079326 -0.7646566
vn -0.6431455 0.040793266 -0.7646566
vn -0.6431455 0.04079326 -0.7646566
vn -0.6431455 0.04079326 -0.7646566
vn -0.22767255 0.7766987 -0.5872855
vn -0.51396054 0.7083624 -0.4838051
vn -0.51396054 0.7083624 -0.4838051
vn -0.25736424 0.77326834 -0.57949966
vn -0.029901406 0.7928217 -0.6087196
vn -0.044662554 0.8285409 -0.55814445
vn -0.03734382 0.863487 -0.50298667
vn -0.014973444 0.8790149 -0.4765591
vn -0.014973444 0.8790149 -0.4765591
vn 0.6709745 0.6709734 -0.31557566
vn 0.6709745 0.6709734 -0.31557566
vn 0.6709745 0.6709734 -0.31557566
vn 0.6709745 0.6709734 -0.31557566
vn 0.000333923 0.23400685 -0.9722349
vn 0.02505229 0.23517844 -0.97162926
vn 0.02505229 0.23517843 -0.97162926
vn -0.02528827 0.21049148 -0.9772685
vn -0.033534985 0.17980286 -0.9831308
vn -0.025986252 0.16112854 -0.9865913
vn -0.025986252 0.16112855 -0.9865913
vn 0.26393417 0.9633926 -0.04704863
vn 0.29646507 0.9517665 -0.079051636
vn 0.23187043 0.9726743 -0.011865579
vn 0.2209487 0.9752719 0.0051436867
vn 0.22435848 0.9744719 0.008223818
vn -0.22035313 0.9752358 -0.01895832
vn -0.21978383 0.9755485 -0.00046386936
vn -0.22035316 0.9752358 -0.018958319
vn -0.21975556 0.9755549 0.00039491072
vn -0.21910888 0.97551835 0.018851392
vn -0.2191089 0.97551835 0.018851392
vn 0.38457665 0.05276752 -0.9215836
vn 0.38457662 0.05276751 -0.9215836
vn 0.38457665 0.052767515 -0.9215836
vn 0.38457662 0.05276752 -0.9215836
vn -0.31456208 -0.12804641 -0.94056094
vn -0.11935059 -0.29087672 -0.9492872
vn -0.3770917 -0.00021970506 -0.92617595
vn -0.41637915 0.0496409 -0.90783495
vn -0.37603763 0.10925873 -0.92014027
vn 0.33216223 -0.22449121 -0.91611785
vn 0.28414723 -0.07812037 -0.95559275
vn 0.26853225 -0.074666366 -0.9603725
vn 0.2471102 0.024893519 -0.96866757
vn 0.26348364 0.057371594 -0.9629563
g [GIMMICK]chest_box1_glow2_0
f 3/3/3 2/2/2 1/1/1
f 6/6/6 5/5/5 4/4/4
f 9/9/9 8/8/8 7/7/7
f 8/8/8 10/10/10 7/7/7
f 13/13/13 12/12/12 11/11/11
f 11/11/11 14/14/14 13/13/13
f 17/17/17 16/16/16 15/15/15
f 18/18/18 17/17/17 15/15/15
f 21/21/21 20/20/20 19/19/19
f 22/22/22 19/19/19 20/20/20
f 19/19/19 22/22/22 23/23/23
f 23/23/23 22/22/22 24/24/24
f 27/27/27 26/26/26 25/25/25
f 25/25/25 28/28/28 27/27/27
f 25/25/25 29/29/29 28/28/28
f 30/30/30 28/28/28 29/29/29
f 29/29/29 31/31/31 30/30/30
f 34/34/34 33/33/33 32/32/32
f 34/34/34 35/35/35 33/33/33
f 38/38/38 37/37/37 36/36/36
f 36/36/36 39/39/39 38/38/38
f 42/42/42 41/41/41 40/40/40
f 41/41/41 43/43/43 40/40/40
f 46/46/46 45/45/45 44/44/44
f 44/44/44 47/47/47 46/46/46
f 46/46/46 47/47/47 48/48/48
f 48/48/48 47/47/47 49/49/49
f 49/49/49 50/50/50 48/48/48
f 53/53/53 52/52/52 51/51/51
f 54/54/54 52/52/52 53/53/53
f 57/57/57 56/56/56 55/55/55
f 58/58/58 57/57/57 55/55/55
f 59/59/59 58/58/58 55/55/55
f 59/59/59 60/60/60 58/58/58
f 61/61/61 60/60/60 59/59/59
f 64/64/64 63/63/63 62/62/62
f 62/62/62 65/65/65 64/64/64
f 66/66/66 65/65/65 62/62/62
f 67/67/67 66/66/66 62/62/62
f 70/70/70 69/69/69 68/68/68
f 68/68/68 71/71/71 70/70/70
f 72/72/72 71/71/71 68/68/68
f 73/73/73 72/72/72 68/68/68
f 76/76/76 75/75/75 74/74/74
f 75/75/75 77/77/77 74/74/74
f 74/74/74 77/77/77 78/78/78
f 74/74/74 78/78/78 79/79/79
f 82/82/82 81/81/81 80/80/80
f 80/80/80 83/83/83 82/82/82
f 82/82/82 83/83/83 84/84/84
f 82/82/82 84/84/84 85/85/85
f 88/88/88 87/87/87 86/86/86
f 89/89/89 88/88/88 86/86/86
f 90/90/90 89/89/89 86/86/86
f 86/86/86 91/91/91 90/90/90
f 94/94/94 93/93/93 92/92/92
f 95/95/95 94/94/94 92/92/92
f 96/96/96 94/94/94 95/95/95
f 99/99/99 98/98/98 97/97/97
f 98/98/98 100/100/100 97/97/97
f 103/103/103 102/102/102 101/101/101
f 104/104/104 102/102/102 103/103/103
f 107/107/107 106/106/106 105/105/105
f 108/108/108 107/107/107 105/105/105
f 111/111/111 110/110/110 109/109/109
f 110/110/110 111/111/111 112/112/112
f 113/113/113 110/110/110 112/112/112
f 116/116/116 115/115/115 114/114/114
f 117/117/117 114/114/114 115/115/115
f 120/120/120 119/119/119 118/118/118
f 118/118/118 121/121/121 120/120/120
f 124/124/124 123/123/123 122/122/122
f 122/122/122 125/125/125 124/124/124
f 128/128/128 127/127/127 126/126/126
f 129/129/129 127/127/127 128/128/128
f 132/132/132 131/131/131 130/130/130
f 130/130/130 133/133/133 132/132/132
f 134/134/134 133/133/133 130/130/130
f 130/130/130 135/135/135 134/134/134
f 134/134/134 135/135/135 136/136/136
f 136/136/136 135/135/135 137/137/137
f 137/137/137 138/138/138 136/136/136
f 141/141/141 140/140/140 139/139/139
f 142/142/142 140/140/140 141/141/141
f 145/145/145 144/144/144 143/143/143
f 143/143/143 146/146/146 145/145/145
f 147/147/147 146/146/146 143/143/143
f 148/148/148 146/146/146 147/147/147
f 147/147/147 149/149/149 148/148/148
f 152/152/152 151/151/151 150/150/150
f 153/153/153 152/152/152 150/150/150
f 154/154/154 152/152/152 153/153/153
f 157/157/157 156/156/156 155/155/155
f 158/158/158 156/156/156 157/157/157
f 158/158/158 159/159/159 156/156/156
f 160/160/160 156/156/156 159/159/159
f 163/163/163 162/162/162 161/161/161
f 161/161/161 164/164/164 163/163/163
f 167/167/167 166/166/166 165/165/165
f 168/168/168 167/167/167 165/165/165
f 169/169/169 167/167/167 168/168/168
f 172/172/172 171/171/171 170/170/170
f 173/173/173 171/171/171 172/172/172
f 174/174/174 171/171/171 173/173/173
