g [GIMMICK]ice_cube_cactus
v -0.36121035 0.6087248 0.36121047
v -0.36798593 0.5614672 0.40903398
v -0.41636762 0.561467 0.36798516
v 0.41636762 0.56146693 0.36798516
v 0.36798468 0.5614672 0.40903398
v 0.36121035 0.6087248 0.36121047
v -0.41636762 0.5614671 -0.367985
v -0.36798507 0.5614672 -0.41636756
v -0.36121035 0.60872495 -0.36121023
v 0.36798507 0.5614671 -0.41636756
v 0.41636762 0.5614672 -0.367985
v 0.36121035 0.60872495 -0.36121023
v -0.36798507 0.5614672 -0.41636756
v -0.44593304 0.062385313 -0.49381864
v 0.36798507 0.5614671 -0.41636756
v 0.44593304 0.062385302 -0.49381864
v 0.41010365 7.802864E-08 -0.46992946
v -0.41010365 7.802864E-08 -0.46992946
v 0.41636762 0.5614672 -0.367985
v 0.49381864 0.062385295 -0.44593304
v 0.41636762 0.56146693 0.36798516
v 0.49381864 0.06238515 0.44593304
v -0.41636762 0.561467 0.36798516
v -0.49381864 0.062385157 0.44593304
v -0.41636762 0.5614671 -0.367985
v -0.49381864 0.062385283 -0.44593304
v 0.36798468 0.5614672 0.40903398
v -0.36798593 0.5614672 0.40903398
v -0.36121035 0.6087248 0.36121047
v 0.36121035 0.6087248 0.36121047
v 0.36121035 0.60872495 -0.36121023
v -0.36121035 0.60872495 -0.36121023
v -0.36798507 0.5614672 -0.41636756
v 0.36798507 0.5614671 -0.41636756
v 0.36121035 0.60872495 -0.36121023
v 0.41636762 0.5614672 -0.367985
v 0.41636762 0.56146693 0.36798516
v 0.36121035 0.6087248 0.36121047
v -0.41636762 0.5614671 -0.367985
v -0.36121035 0.60872495 -0.36121023
v -0.41636762 0.561467 0.36798516
v -0.36121035 0.6087248 0.36121047
v 0.44593304 0.062385302 -0.49381864
v 0.41636762 0.5614672 -0.367985
v 0.36798507 0.5614671 -0.41636756
v 0.49381864 0.062385295 -0.44593304
v 0.41010365 7.802864E-08 -0.46992946
v -0.49381864 0.062385283 -0.44593304
v -0.36798507 0.5614672 -0.41636756
v -0.41636762 0.5614671 -0.367985
v -0.44593304 0.062385313 -0.49381864
v -0.41010365 7.802864E-08 -0.46992946
v -0.09963189 0.6501267 -0.295003
v -0.001526142 0.7529305 -0.51895744
v 0.0012721475 0.69293225 -0.26288322
v -0.09527946 0.5703685 -0.35616943
v 0.0099685015 0.5334006 -0.38522124
v 0.0012721475 0.69293225 -0.26288322
v -0.001526142 0.7529305 -0.51895744
v 0.10651587 0.6558301 -0.29202
v 0.11087252 0.5760575 -0.35319385
v 0.0099685015 0.5334006 -0.38522124
v -0.09963189 0.4121326 -0.41823503
v -0.001526142 0.35788935 -0.65861636
v 0.0012721475 0.4656471 -0.41869256
v -0.09527946 0.3116209 -0.4184315
v 0.009972748 0.26460788 -0.41907912
v 0.0012721475 0.4656471 -0.41869256
v -0.001526142 0.35788935 -0.65861636
v 0.10651587 0.41847575 -0.41932738
v 0.11086829 0.31794867 -0.4195196
v 0.009972748 0.26460788 -0.41907912
v -0.09963189 0.15341863 -0.4518075
v -0.001526142 0.00039877088 -0.6449658
v 0.0012721475 0.20145318 -0.47540188
v -0.09527946 0.06274254 -0.40844354
v 0.009972748 0.020089122 -0.38866124
v 0.0012721475 0.20145318 -0.47540188
v -0.001526142 0.00039877088 -0.6449658
v 0.10651587 0.1586627 -0.45553887
v 0.11086829 0.0679748 -0.41216537
v 0.009972748 0.020089122 -0.38866124
v -0.3172205 0.65012664 -0.054446306
v -0.46211585 0.75293064 -0.2513839
v -0.23894905 0.69293225 -0.12577404
v -0.36801434 0.57036847 -0.088798605
v -0.34054524 0.53340065 -0.19447222
v -0.23894905 0.69293225 -0.12577404
v -0.46211585 0.75293064 -0.2513839
v -0.2115564 0.6558301 -0.23148693
v -0.26235875 0.5760574 -0.26584247
v -0.34054524 0.53340065 -0.19447222
v -0.43970993 0.41213268 -0.12516837
v -0.5988388 0.3578894 -0.3303215
v -0.38965914 0.4656472 -0.21278583
v -0.43770573 0.311621 -0.12903778
v -0.38564223 0.26460794 -0.22051083
v -0.38965914 0.4656472 -0.21278583
v -0.5988388 0.3578894 -0.3303215
v -0.33758295 0.41847572 -0.30424616
v -0.33557022 0.31794864 -0.30811238
v -0.38564223 0.26460794 -0.22051083
v -0.3980565 0.15341868 -0.10111879
v -0.5162811 0.0003988621 -0.28265625
v -0.36803547 0.20145318 -0.20030098
v -0.35832423 0.0627426 -0.08320381
v -0.2885665 0.020089153 -0.16446142
v -0.36803547 0.20145318 -0.20030098
v -0.5162811 0.0003988621 -0.28265625
v -0.29820985 0.15866278 -0.28151295
v -0.25847325 0.06797482 -0.26359475
v -0.2885665 0.020089153 -0.16446142
v -0.21768886 0.65012664 0.25426856
v -0.4606942 0.75293064 0.2812854
v -0.24032573 0.69293225 0.15082201
v -0.2728394 0.5703685 0.28108263
v -0.35062245 0.5334008 0.20445983
v -0.24032573 0.69293225 0.15082201
v -0.4606942 0.75293064 0.2812854
v -0.31818098 0.6558301 0.07424485
v -0.3733358 0.5760575 0.101062134
v -0.35062245 0.5334008 0.20445983
v -0.34018743 0.41213265 0.32499102
v -0.5974135 0.35788953 0.3602201
v -0.39103222 0.46564722 0.2378342
v -0.34253135 0.31162107 0.3213201
v -0.39571583 0.26460794 0.23049136
v -0.39103222 0.46564722 0.2378342
v -0.5974135 0.35788953 0.3602201
v -0.4442082 0.41847578 0.14700551
v -0.4465479 0.3179487 0.1433325
v -0.39571583 0.26460794 0.23049136
v -0.29852572 0.15341868 0.3009392
v -0.5148602 0.00039889943 0.31255588
v -0.36940867 0.20145325 0.22534922
v -0.2631458 0.06274263 0.27548805
v -0.2986404 0.020089107 0.17444503
v -0.36940867 0.20145325 0.22534922
v -0.5148602 0.00039889943 0.31255588
v -0.40483105 0.15866278 0.12427325
v -0.36944687 0.06797483 0.09881795
v -0.2986404 0.020089107 0.17444503
v 0.31702515 0.65012664 0.081871815
v 0.46192056 0.75293064 0.2788084
v 0.238758 0.69293225 0.15319741
v 0.36781904 0.57036847 0.11622201
v 0.3403542 0.5334008 0.2218957
v 0.238758 0.69293225 0.15319741
v 0.46192056 0.75293064 0.2788084
v 0.21136536 0.6558301 0.25891042
v 0.26216343 0.57605755 0.29326588
v 0.3403542 0.5334008 0.2218957
v 0.43951592 0.4121326 0.15259194
v 0.5986405 0.3578895 0.35774502
v 0.38946092 0.46564713 0.24020937
v 0.43751168 0.311621 0.15646031
v 0.38544402 0.26460806 0.24793343
v 0.38946092 0.46564713 0.24020937
v 0.5986405 0.3578895 0.35774502
v 0.3373847 0.41847584 0.33166975
v 0.33537626 0.31794873 0.33553597
v 0.38544402 0.26460806 0.24793343
v 0.39785862 0.15341868 0.12854235
v 0.51608735 0.00039889914 0.31007978
v 0.36784175 0.20145325 0.22772452
v 0.3581263 0.06274261 0.11062736
v 0.2883686 0.020089114 0.19188817
v 0.36784175 0.20145325 0.22772452
v 0.51608735 0.00039889914 0.31007978
v 0.2980119 0.15866281 0.30893755
v 0.25827113 0.067974865 0.29101935
v 0.2883686 0.020089114 0.19188817
v 0.21748844 0.65012676 -0.22684573
v 0.4604938 0.75293076 -0.25386053
v 0.24012527 0.69293225 -0.12339823
v 0.27263895 0.5703685 -0.25365883
v 0.35042205 0.53340065 -0.17703705
v 0.24012527 0.69293225 -0.12339823
v 0.4604938 0.75293076 -0.25386053
v 0.3179806 0.6558301 -0.046822105
v 0.37313536 0.5760576 -0.07364046
v 0.35042205 0.53340065 -0.17703705
v 0.33998626 0.4121326 -0.29756737
v 0.5972166 0.35788938 -0.33279657
v 0.3908311 0.4656472 -0.21040955
v 0.34233025 0.31162095 -0.29389542
v 0.39551473 0.2646079 -0.20306884
v 0.3908311 0.4656472 -0.21040955
v 0.5972166 0.35788938 -0.33279657
v 0.44400707 0.41847575 -0.11958193
v 0.4463468 0.31794876 -0.11590781
v 0.39551473 0.2646079 -0.20306884
v 0.2983228 0.15341868 -0.27351546
v 0.514653 0.0003988618 -0.2851332
v 0.36920992 0.20145318 -0.1979255
v 0.26294288 0.06274258 -0.24806434
v 0.2984374 0.02008916 -0.14702128
v 0.36920992 0.20145318 -0.1979255
v 0.514653 0.0003988618 -0.2851332
v 0.404628 0.15866277 -0.09684949
v 0.36923963 0.06797487 -0.07139313
v 0.2984374 0.02008916 -0.14702128
vt 0.48504457 0.5454022
vt 0.4823794 0.54266524
vt 0.48730096 0.54266524
vt 0.4823794 0.54266524
vt 0.48730096 0.54266524
vt 0.48504457 0.5454022
vt 0.48730096 0.54266524
vt 0.4823794 0.54266524
vt 0.48504457 0.5454022
vt 0.48730096 0.54266524
vt 0.4823794 0.54266524
vt 0.48504457 0.5454022
vt 0.43216965 0.5416327
vt 0.43216965 0.5054894
vt 0.48096237 0.5416327
vt 0.48096237 0.5054894
vt 0.48096237 0.5020507
vt 0.43216965 0.5020507
vt 0.4885734 0.5416327
vt 0.4885734 0.5054894
vt 0.49863693 0.5416327
vt 0.49863693 0.5054894
vt 0.49863693 0.5416327
vt 0.49863693 0.5054894
vt 0.4885734 0.5416327
vt 0.4885734 0.5054894
vt 0.48096237 0.59661657
vt 0.43216965 0.59661657
vt 0.43216965 0.59257746
vt 0.48096237 0.59257746
vt 0.48096237 0.5467206
vt 0.43216965 0.5467205
vt 0.43216965 0.54266524
vt 0.48096237 0.54266524
vt 0.4823794 0.5467206
vt 0.48672357 0.5467206
vt 0.48672357 0.59257734
vt 0.4823794 0.59257734
vt 0.48672357 0.5467206
vt 0.4823794 0.5467206
vt 0.48672357 0.59257734
vt 0.4823794 0.59257734
vt 0.4823794 0.5054894
vt 0.48730096 0.5416327
vt 0.4823794 0.5416327
vt 0.48730096 0.5054894
vt 0.4823794 0.5020507
vt 0.48730096 0.5054894
vt 0.4823794 0.5416327
vt 0.48730096 0.5416327
vt 0.4823794 0.5054894
vt 0.4823794 0.5020507
vt 0.35771546 0.6744551
vt 0.36235002 0.7064711
vt 0.3530809 0.6744551
vt 0.3669845 0.67445505
vt 0.37061885 0.67445505
vt 0.3530809 0.6744551
vt 0.36235002 0.7064711
vt 0.35771546 0.6744551
vt 0.36698452 0.67445505
vt 0.37061885 0.67445505
vt 0.35771546 0.6744551
vt 0.36235002 0.7064711
vt 0.3530809 0.6744551
vt 0.3669845 0.67445505
vt 0.37061885 0.67445505
vt 0.3530809 0.6744551
vt 0.36235002 0.7064711
vt 0.35771546 0.6744551
vt 0.36698452 0.67445505
vt 0.37061885 0.67445505
vt 0.35771546 0.6744551
vt 0.36235002 0.7064711
vt 0.3530809 0.6744551
vt 0.3669845 0.67445505
vt 0.37061885 0.67445505
vt 0.3530809 0.6744551
vt 0.36235002 0.7064711
vt 0.35771546 0.6744551
vt 0.36698452 0.67445505
vt 0.37061885 0.67445505
vt 0.35771546 0.6744551
vt 0.36235002 0.7064711
vt 0.3530809 0.6744551
vt 0.3669845 0.67445505
vt 0.37061885 0.67445505
vt 0.3530809 0.6744551
vt 0.36235002 0.7064711
vt 0.35771546 0.6744551
vt 0.36698452 0.67445505
vt 0.37061885 0.67445505
vt 0.35771546 0.6744551
vt 0.36235002 0.7064711
vt 0.3530809 0.6744551
vt 0.3669845 0.67445505
vt 0.37061885 0.67445505
vt 0.3530809 0.6744551
vt 0.36235002 0.7064711
vt 0.35771546 0.6744551
vt 0.36698452 0.67445505
vt 0.37061885 0.67445505
vt 0.35771546 0.6744551
vt 0.36235002 0.7064711
vt 0.3530809 0.6744551
vt 0.3669845 0.67445505
vt 0.37061885 0.67445505
vt 0.3530809 0.6744551
vt 0.36235002 0.7064711
vt 0.35771546 0.6744551
vt 0.36698452 0.67445505
vt 0.37061885 0.67445505
vt 0.35771546 0.6744551
vt 0.36235002 0.7064711
vt 0.3530809 0.6744551
vt 0.3669845 0.67445505
vt 0.37061885 0.67445505
vt 0.3530809 0.6744551
vt 0.36235002 0.7064711
vt 0.35771546 0.6744551
vt 0.36698452 0.67445505
vt 0.37061885 0.67445505
vt 0.35771546 0.6744551
vt 0.36235002 0.7064711
vt 0.3530809 0.6744551
vt 0.3669845 0.67445505
vt 0.37061885 0.67445505
vt 0.3530809 0.6744551
vt 0.36235002 0.7064711
vt 0.35771546 0.6744551
vt 0.36698452 0.67445505
vt 0.37061885 0.67445505
vt 0.35771546 0.6744551
vt 0.36235002 0.7064711
vt 0.3530809 0.6744551
vt 0.3669845 0.67445505
vt 0.37061885 0.67445505
vt 0.3530809 0.6744551
vt 0.36235002 0.7064711
vt 0.35771546 0.6744551
vt 0.36698452 0.67445505
vt 0.37061885 0.67445505
vt 0.35771546 0.6744551
vt 0.36235002 0.7064711
vt 0.3530809 0.6744551
vt 0.3669845 0.67445505
vt 0.37061885 0.67445505
vt 0.3530809 0.6744551
vt 0.36235002 0.7064711
vt 0.35771546 0.6744551
vt 0.36698452 0.67445505
vt 0.37061885 0.67445505
vt 0.35771546 0.6744551
vt 0.36235002 0.7064711
vt 0.3530809 0.6744551
vt 0.3669845 0.67445505
vt 0.37061885 0.67445505
vt 0.3530809 0.6744551
vt 0.36235002 0.7064711
vt 0.35771546 0.6744551
vt 0.36698452 0.67445505
vt 0.37061885 0.67445505
vt 0.35771546 0.6744551
vt 0.36235002 0.7064711
vt 0.3530809 0.6744551
vt 0.3669845 0.67445505
vt 0.37061885 0.67445505
vt 0.3530809 0.6744551
vt 0.36235002 0.7064711
vt 0.35771546 0.6744551
vt 0.36698452 0.67445505
vt 0.37061885 0.67445505
vt 0.35771546 0.6744551
vt 0.36235002 0.7064711
vt 0.3530809 0.6744551
vt 0.3669845 0.67445505
vt 0.37061885 0.67445505
vt 0.3530809 0.6744551
vt 0.36235002 0.7064711
vt 0.35771546 0.6744551
vt 0.36698452 0.67445505
vt 0.37061885 0.67445505
vt 0.35771546 0.6744551
vt 0.36235002 0.7064711
vt 0.3530809 0.6744551
vt 0.3669845 0.67445505
vt 0.37061885 0.67445505
vt 0.3530809 0.6744551
vt 0.36235002 0.7064711
vt 0.35771546 0.6744551
vt 0.36698452 0.67445505
vt 0.37061885 0.67445505
vt 0.35771546 0.6744551
vt 0.36235002 0.7064711
vt 0.3530809 0.6744551
vt 0.3669845 0.67445505
vt 0.37061885 0.67445505
vt 0.3530809 0.6744551
vt 0.36235002 0.7064711
vt 0.35771546 0.6744551
vt 0.36698452 0.67445505
vt 0.37061885 0.67445505
vn -0.29753107 0.89545166 0.3311216
vn -0.22517188 0.7087978 0.6685083
vn -0.8283548 0.538316 0.15506192
vn 0.8283551 0.53831506 0.15506348
vn 0.22516735 0.7087954 0.6685123
vn 0.29753193 0.89545095 0.33112264
vn -0.8243859 0.4704571 -0.31473467
vn -0.31473482 0.47045735 -0.82438576
vn -0.30178562 0.9043513 -0.30178523
vn 0.31473473 0.47045726 -0.8243859
vn 0.8243858 0.47045732 -0.31473482
vn 0.3017855 0.9043513 -0.30178535
vn -0.31473482 0.47045735 -0.82438576
vn -0.41456383 -0.15486848 -0.89674556
vn 0.31473473 0.47045726 -0.8243859
vn 0.41456392 -0.15486856 -0.89674556
vn 0.1523968 -0.42855188 -0.8905721
vn -0.1523968 -0.42855188 -0.8905721
vn 0.8243858 0.47045732 -0.31473482
vn 0.8852177 0.035533685 -0.46381772
vn 0.8283551 0.53831506 0.15506348
vn 0.98817164 0.15335138 0
vn -0.8283548 0.538316 0.15506192
vn -0.98817164 0.15335138 0
vn -0.8243859 0.4704571 -0.31473467
vn -0.8852177 0.035533622 -0.4638177
vn 0.22516735 0.7087954 0.6685123
vn -0.22517188 0.7087978 0.6685083
vn -0.29753107 0.89545166 0.3311216
vn 0.29753193 0.89545095 0.33112264
vn 0.3017855 0.9043513 -0.30178535
vn -0.30178562 0.9043513 -0.30178523
vn -0.31473482 0.47045735 -0.82438576
vn 0.31473473 0.47045726 -0.8243859
vn 0.3017855 0.9043513 -0.30178535
vn 0.8243858 0.47045732 -0.31473482
vn 0.8283551 0.53831506 0.15506348
vn 0.29753193 0.89545095 0.33112264
vn -0.8243859 0.4704571 -0.31473467
vn -0.30178562 0.9043513 -0.30178523
vn -0.8283548 0.538316 0.15506192
vn -0.29753107 0.89545166 0.3311216
vn 0.41456392 -0.15486856 -0.89674556
vn 0.8243858 0.47045732 -0.31473482
vn 0.31473473 0.47045726 -0.8243859
vn 0.8852177 0.035533685 -0.46381772
vn 0.1523968 -0.42855188 -0.8905721
vn -0.8852177 0.035533622 -0.4638177
vn -0.31473482 0.47045735 -0.82438576
vn -0.8243859 0.4704571 -0.31473467
vn -0.41456383 -0.15486848 -0.89674556
vn -0.1523968 -0.42855188 -0.8905721
vn -0.78771675 0.61272466 -0.063803546
vn -0.025630344 0.5859576 -0.8099363
vn -0.028162258 0.97317797 0.22832371
vn -0.76858646 -0.15806484 -0.61991155
vn 0.035178073 -0.5185909 -0.8542985
vn -0.028162258 0.97317797 0.22832371
vn -0.025630344 0.5859576 -0.8099363
vn 0.73892856 0.67065686 -0.06483835
vn 0.78759474 -0.07293281 -0.611862
vn 0.035178073 -0.5185909 -0.8542985
vn -0.7877162 0.44820696 -0.42262724
vn -0.025628183 -0.025976434 -0.9993339
vn -0.028164981 0.911978 -0.4092712
vn -0.7685866 -0.50190496 -0.39669403
vn 0.035205983 -0.9306859 -0.36412117
vn -0.028164981 0.911978 -0.4092712
vn -0.025628183 -0.025976434 -0.9993339
vn 0.7389374 0.49360165 -0.45861638
vn 0.7876002 -0.42936864 -0.44195986
vn 0.035205983 -0.9306859 -0.36412117
vn -0.7877174 0.22089005 -0.57507306
vn -0.025626646 -0.45631403 -0.88944966
vn -0.028161414 0.64467615 -0.76393694
vn -0.76858485 -0.6242145 -0.14012001
vn 0.035207573 -0.99656326 0.07498043
vn -0.028161414 0.64467615 -0.76393694
vn -0.025626646 -0.45631403 -0.88944966
vn 0.73893994 0.24621478 -0.627173
vn 0.7876013 -0.5784423 -0.2123414
vn 0.035207573 -0.99656326 0.07498043
vn -0.44911468 0.61272264 0.65028214
vn -0.7142458 0.58595467 -0.3827665
vn 0.18365756 0.97317773 0.13854645
vn -0.92115664 -0.15808606 0.35563922
vn -0.7222392 -0.5185975 -0.45763218
vn 0.18365756 0.97317773 0.13854645
vn -0.7142458 0.58595467 -0.3827665
vn 0.3132927 0.6706489 -0.6723673
vn -0.13610373 -0.07294809 -0.9880052
vn -0.7222392 -0.5185975 -0.45763218
vn -0.7598581 0.4482002 0.47088474
vn -0.8782684 -0.02597679 -0.4774617
vn -0.3685249 0.9119773 -0.1802408
vn -0.7278358 -0.50189865 0.46728238
vn -0.29773587 -0.930687 -0.21254382
vn -0.3685249 0.9119773 -0.1802408
vn -0.8782684 -0.02597679 -0.4774617
vn -0.027706897 0.49358836 -0.8692542
vn 0.011042669 -0.42936274 -0.9030646
vn -0.29773587 -0.930687 -0.21254382
vn -0.8918885 0.22089523 0.39463937
vn -0.7831007 -0.45631608 -0.42252666
vn -0.6756632 0.6446727 -0.35759822
vn -0.5056373 -0.6242159 0.5955547
vn 0.08253416 -0.9965636 0.0070087635
vn -0.6756632 0.6446727 -0.35759822
vn -0.7831007 -0.45631608 -0.42252666
vn -0.17368017 0.24620153 -0.95353025
vn 0.20990218 -0.5784484 -0.7882503
vn 0.08253416 -0.9965636 0.0070087635
vn 0.33860618 0.6127283 0.71407974
vn -0.68861055 0.585954 0.4271693
vn 0.21181315 0.97317827 -0.08977366
vn -0.15256515 -0.15807176 0.9755702
vn -0.7574394 -0.5185944 0.39666802
vn 0.21181315 0.97317827 -0.08977366
vn -0.68861055 0.585954 0.4271693
vn -0.42563018 0.67065215 -0.60750705
vn -0.9236845 -0.072940156 -0.37614703
vn -0.7574394 -0.5185944 0.39666802
vn 0.027853027 0.44821241 0.89349306
vn -0.85263056 -0.025977112 0.52186817
vn -0.34035194 0.9119783 0.2290329
vn 0.040744796 -0.50191474 0.86395687
vn -0.33293796 -0.9306871 0.15157127
vn -0.34035194 0.9119783 0.2290329
vn -0.85263056 -0.025977112 0.52186817
vn -0.7666526 0.49359375 -0.41062027
vn -0.776546 -0.42939 -0.4610862
vn -0.33293796 -0.9306871 0.15157127
vn -0.104176216 0.22089826 0.969717
vn -0.7574757 -0.45630863 0.46691862
vn -0.6475022 0.6446853 0.40635177
vn 0.26294014 -0.62421674 0.73567384
vn 0.04733436 -0.9965636 -0.06797378
vn -0.6475022 0.6446853 0.40635177
vn -0.7574757 -0.45630863 0.46691862
vn -0.91261685 0.24623115 -0.32634443
vn -0.5776976 -0.57844114 -0.5759092
vn 0.04733436 -0.9965636 -0.06797378
vn 0.44911632 0.6127187 -0.6502847
vn 0.7142415 0.58595824 0.38276893
vn -0.18365434 0.97317684 -0.13855678
vn 0.92115355 -0.1580677 -0.35565555
vn 0.72224814 -0.51858956 0.45762706
vn -0.18365434 0.97317684 -0.13855678
vn 0.7142415 0.58595824 0.38276893
vn -0.31329912 0.6706445 0.6723686
vn 0.13609403 -0.072943136 0.98800695
vn 0.72224814 -0.51858956 0.45762706
vn 0.759861 0.4482116 -0.47086892
vn 0.8782653 -0.02597634 0.4774676
vn 0.36851832 0.9119777 0.18025237
vn 0.72784096 -0.50190526 -0.4672673
vn 0.29773396 -0.93068725 0.212546
vn 0.36851832 0.9119777 0.18025237
vn 0.8782653 -0.02597634 0.4774676
vn 0.027708929 0.49359426 0.8692508
vn -0.011041578 -0.42936832 0.903062
vn 0.29773396 -0.93068725 0.212546
vn 0.8918807 0.22088794 -0.394661
vn 0.78310716 -0.45631328 0.42251787
vn 0.6756678 0.6446724 0.3575898
vn 0.5056297 -0.62421715 -0.5955598
vn -0.08253817 -0.9965634 -0.006997611
vn 0.6756678 0.6446724 0.3575898
vn 0.78310716 -0.45631328 0.42251787
vn 0.17367133 0.24618755 0.95353544
vn -0.20989232 -0.57844865 0.7882527
vn -0.08253817 -0.9965634 -0.006997611
vn -0.33860025 0.61272764 -0.7140831
vn 0.6886124 0.5859556 -0.427164
vn -0.21181263 0.97317815 0.089776196
vn 0.15256892 -0.15806976 -0.97556996
vn 0.75743824 -0.5185914 -0.39667407
vn -0.21181263 0.97317815 0.089776196
vn 0.6886124 0.5859556 -0.427164
vn 0.42562902 0.6706488 0.6075114
vn 0.923684 -0.07294693 0.37614688
vn 0.75743824 -0.5185914 -0.39667407
vn -0.027853526 0.44820958 -0.8934944
vn 0.8526337 -0.025976997 -0.5218629
vn 0.340348 0.91198075 -0.22902878
vn -0.040747922 -0.50191486 -0.8639567
vn 0.33292958 -0.9306894 -0.15157545
vn 0.340348 0.91198075 -0.22902878
vn 0.8526337 -0.025976997 -0.5218629
vn 0.7666448 0.49359947 0.41062793
vn 0.7765404 -0.42939025 0.46109533
vn 0.33292958 -0.9306894 -0.15157545
vn 0.10416906 0.22089206 -0.9697193
vn 0.7574672 -0.45631573 -0.4669254
vn 0.6475192 0.6446708 -0.4063476
vn -0.26294708 -0.6242157 -0.7356722
vn -0.047329642 -0.99656326 0.067982644
vn 0.6475192 0.6446708 -0.4063476
vn 0.7574672 -0.45631573 -0.4669254
vn 0.91262233 0.24619116 0.32635924
vn 0.57769334 -0.57845056 0.57590383
vn -0.047329642 -0.99656326 0.067982644
g [GIMMICK]ice_cube_cactus_0
f 3/3/3 2/2/2 1/1/1
f 6/6/6 5/5/5 4/4/4
f 9/9/9 8/8/8 7/7/7
f 12/12/12 11/11/11 10/10/10
f 15/15/15 14/14/14 13/13/13
f 16/16/16 14/14/14 15/15/15
f 14/14/14 16/16/16 17/17/17
f 17/17/17 18/18/18 14/14/14
f 21/21/21 20/20/20 19/19/19
f 22/22/22 20/20/20 21/21/21
f 25/25/25 24/24/24 23/23/23
f 26/26/26 24/24/24 25/25/25
f 29/29/29 28/28/28 27/27/27
f 27/27/27 30/30/30 29/29/29
f 29/29/29 30/30/30 31/31/31
f 29/29/29 31/31/31 32/32/32
f 31/31/31 33/33/33 32/32/32
f 33/33/33 31/31/31 34/34/34
f 37/37/37 36/36/36 35/35/35
f 35/35/35 38/38/38 37/37/37
f 41/41/41 40/40/40 39/39/39
f 41/41/41 42/42/42 40/40/40
f 45/45/45 44/44/44 43/43/43
f 46/46/46 43/43/43 44/44/44
f 47/47/47 43/43/43 46/46/46
f 50/50/50 49/49/49 48/48/48
f 51/51/51 48/48/48 49/49/49
f 52/52/52 48/48/48 51/51/51
f 55/55/55 54/54/54 53/53/53
f 53/53/53 54/54/54 56/56/56
f 56/56/56 54/54/54 57/57/57
f 60/60/60 59/59/59 58/58/58
f 61/61/61 59/59/59 60/60/60
f 62/62/62 59/59/59 61/61/61
f 65/65/65 64/64/64 63/63/63
f 63/63/63 64/64/64 66/66/66
f 66/66/66 64/64/64 67/67/67
f 70/70/70 69/69/69 68/68/68
f 71/71/71 69/69/69 70/70/70
f 72/72/72 69/69/69 71/71/71
f 75/75/75 74/74/74 73/73/73
f 73/73/73 74/74/74 76/76/76
f 76/76/76 74/74/74 77/77/77
f 80/80/80 79/79/79 78/78/78
f 81/81/81 79/79/79 80/80/80
f 82/82/82 79/79/79 81/81/81
f 85/85/85 84/84/84 83/83/83
f 83/83/83 84/84/84 86/86/86
f 86/86/86 84/84/84 87/87/87
f 90/90/90 89/89/89 88/88/88
f 91/91/91 89/89/89 90/90/90
f 92/92/92 89/89/89 91/91/91
f 95/95/95 94/94/94 93/93/93
f 93/93/93 94/94/94 96/96/96
f 96/96/96 94/94/94 97/97/97
f 100/100/100 99/99/99 98/98/98
f 101/101/101 99/99/99 100/100/100
f 102/102/102 99/99/99 101/101/101
f 105/105/105 104/104/104 103/103/103
f 103/103/103 104/104/104 106/106/106
f 106/106/106 104/104/104 107/107/107
f 110/110/110 109/109/109 108/108/108
f 111/111/111 109/109/109 110/110/110
f 112/112/112 109/109/109 111/111/111
f 115/115/115 114/114/114 113/113/113
f 113/113/113 114/114/114 116/116/116
f 116/116/116 114/114/114 117/117/117
f 120/120/120 119/119/119 118/118/118
f 121/121/121 119/119/119 120/120/120
f 122/122/122 119/119/119 121/121/121
f 125/125/125 124/124/124 123/123/123
f 123/123/123 124/124/124 126/126/126
f 126/126/126 124/124/124 127/127/127
f 130/130/130 129/129/129 128/128/128
f 131/131/131 129/129/129 130/130/130
f 132/132/132 129/129/129 131/131/131
f 135/135/135 134/134/134 133/133/133
f 133/133/133 134/134/134 136/136/136
f 136/136/136 134/134/134 137/137/137
f 140/140/140 139/139/139 138/138/138
f 141/141/141 139/139/139 140/140/140
f 142/142/142 139/139/139 141/141/141
f 145/145/145 144/144/144 143/143/143
f 143/143/143 144/144/144 146/146/146
f 146/146/146 144/144/144 147/147/147
f 150/150/150 149/149/149 148/148/148
f 151/151/151 149/149/149 150/150/150
f 152/152/152 149/149/149 151/151/151
f 155/155/155 154/154/154 153/153/153
f 153/153/153 154/154/154 156/156/156
f 156/156/156 154/154/154 157/157/157
f 160/160/160 159/159/159 158/158/158
f 161/161/161 159/159/159 160/160/160
f 162/162/162 159/159/159 161/161/161
f 165/165/165 164/164/164 163/163/163
f 163/163/163 164/164/164 166/166/166
f 166/166/166 164/164/164 167/167/167
f 170/170/170 169/169/169 168/168/168
f 171/171/171 169/169/169 170/170/170
f 172/172/172 169/169/169 171/171/171
f 175/175/175 174/174/174 173/173/173
f 173/173/173 174/174/174 176/176/176
f 176/176/176 174/174/174 177/177/177
f 180/180/180 179/179/179 178/178/178
f 181/181/181 179/179/179 180/180/180
f 182/182/182 179/179/179 181/181/181
f 185/185/185 184/184/184 183/183/183
f 183/183/183 184/184/184 186/186/186
f 186/186/186 184/184/184 187/187/187
f 190/190/190 189/189/189 188/188/188
f 191/191/191 189/189/189 190/190/190
f 192/192/192 189/189/189 191/191/191
f 195/195/195 194/194/194 193/193/193
f 193/193/193 194/194/194 196/196/196
f 196/196/196 194/194/194 197/197/197
f 200/200/200 199/199/199 198/198/198
f 201/201/201 199/199/199 200/200/200
f 202/202/202 199/199/199 201/201/201
