g [gimmick]giant_rock
v -0.7748246 1.1317588 1.1588982
v -0.26937383 1.0526551 1.3141822
v -0.43174455 0.9220162 1.3519013
v -0.91140246 0.9892784 1.2023302
v -0.9606833 0.6356844 1.3540177
v -1.080851 1.2108625 0.8392147
v -1.19373 0.64107484 1.1467105
v -1.0514972 0.24332418 1.3454212
v -1.1489844 1.0565405 0.9511087
v -1.381456 0.2539084 1.14354
v -1.1235075 -0.06477959 1.3913754
v -1.4616365 -0.0647796 1.1417258
v -1.2844402 0.6464653 0.92956233
v -1.4617833 0.2644926 0.9391389
v -1.5280994 -0.06477961 0.925841
v -1.5275521 -0.064779624 0.63792455
v -1.1993904 1.0596443 0.76019603
v -1.0657545 1.1758881 0.5972257
v -1.3209192 0.6362085 0.6809202
v -1.4739609 0.2644925 0.6415533
v -1.4753997 -0.06477963 0.3490347
v -1.1822833 1.0251368 0.5269643
v -0.9362921 1.1409136 0.35523665
v -1.0450747 0.9906292 0.26567972
v -1.3113595 0.636749 0.3979689
v -1.1874336 0.63728964 0.17372398
v -1.3456692 0.26417446 0.17656834
v -1.4669981 0.2643335 0.35084906
v -1.4232475 -0.06477964 0.17656837
v -0.1336357 0.8838997 1.3652157
v -0.26937383 1.0526551 1.3141822
v 0.25499266 0.98604524 0.9661664
v 0.34062254 0.8105872 1.0402824
v 0.09806126 0.6952159 1.3562939
v 0.35324225 0.8083814 0.9163904
v -0.020520337 0.95824057 0.4916681
v 0.060353428 0.79321146 0.40217015
v 0.3573945 0.66494894 0.9918359
v 0.2797335 0.27003202 1.3424231
v 0.40923825 0.66494906 0.7037616
v 0.14734228 0.6750632 0.2685923
v 0.2111895 0.26189902 0.24857034
v 0.46089056 0.2644926 0.9915941
v 0.28061542 -0.06477959 1.3310697
v 0.512442 -0.0647796 0.9758108
v 0.4859895 0.26449254 0.63847786
v 0.5578677 -0.064779624 0.5603556
v 0.2604115 -0.064929225 0.2157552
v -0.23893751 -0.064769484 1.5101826
v 0.2797335 0.27003202 1.3424231
v 0.28061542 -0.06477959 1.3310697
v -0.20316058 0.32776245 1.5197157
v -0.7826676 -0.064769484 1.5101826
v 0.09806126 0.6952159 1.3562939
v -0.748214 0.32776245 1.5144742
v -1.1235075 -0.06477959 1.3913754
v -1.0514972 0.24332418 1.3454212
v -0.9606833 0.6356844 1.3540177
v -0.5725907 0.6476553 1.4378452
v -0.43174455 0.9220162 1.3519013
v -0.23770522 0.6476553 1.4378452
v -0.1336357 0.8838997 1.3652157
v -0.2876401 0.89993876 1.3851407
v -0.26937383 1.0526551 1.3141822
v -0.7826676 -0.064779654 0.03896962
v -1.3456692 0.26417446 0.17656834
v -1.4232475 -0.06477964 0.17656837
v -0.8384011 0.32299864 0.03896962
v -1.1874336 0.63728964 0.17372398
v -0.4724591 0.32299864 -0.014935777
v -0.4437564 -0.064779684 -0.010218739
v -0.80182886 0.75120586 0.03684218
v -1.0450747 0.9906292 0.26567972
v -0.08388158 0.32299864 0.02924381
v -0.08388158 -0.064779654 0.03896962
v 0.2604115 -0.064929225 0.2157552
v 0.2111895 0.26189902 0.24857034
v 0.14734228 0.6750632 0.2685923
v -0.10622205 0.70629334 0.05952034
v 0.060353428 0.79321146 0.40217015
v -0.46445957 0.7294233 -0.0013472846
v -0.48813128 0.88201714 0.21745487
v -0.020520337 0.95824057 0.4916681
v -0.49214274 1.0523171 0.346127
v -0.9470952 0.97344995 0.23180395
v -0.9362921 1.1409136 0.35523665
v -1.1048247 0.8596594 0.114396855
v -0.7104071 0.8807643 0.28441808
v -1.0989714 0.70993996 0.2593962
v -1.2113582 0.62878335 0.07268192
v -1.0589068 0.6417024 -0.26196903
v -0.9352676 0.8395526 -0.18697077
v -1.2105609 -0.065447316 -0.2090052
v -1.3665575 -0.065447316 0.05215611
v -1.452126 -0.0654473 0.30599925
v -0.32022294 0.71390724 0.28554884
v -0.57598495 0.86284524 0.2763223
v -0.176598 0.8798192 0.13551657
v -0.105033636 0.6987178 0.06274684
v 0.023090119 -0.0654473 0.30599925
v 0.02464166 -0.06544731 0.04311791
v -0.176598 0.8798192 0.13551657
v -0.4165557 0.80684507 -0.18697074
v -0.28581187 0.6288406 -0.22783755
v -0.105033636 0.6987178 0.06274684
v -0.14450967 -0.065447316 -0.19912454
v 0.02464166 -0.06544731 0.04311791
v -0.28581187 0.6288406 -0.22783755
v -0.4401998 -0.065447874 -0.37293312
v -0.14450967 -0.065447316 -0.19912454
v -0.41559026 0.60093117 -0.27980295
v -0.4165557 0.80684507 -0.18697074
v -0.96685976 -0.06544732 -0.28613505
v -0.9376894 0.62739956 -0.27980295
v -0.9352676 0.8395526 -0.18697077
v -1.0589068 0.6417024 -0.26196903
v -1.2105609 -0.065447316 -0.2090052
v -0.06281004 0.3152719 0.16821486
v -0.10606025 0.24871445 0.044142332
v 0.046776805 0.28525218 -0.05416425
v 0.10251146 0.3540494 0.10901826
v 0.2733888 0.33037108 0.02553273
v 0.15781163 0.2502855 -0.0606112
v 0.1872073 0.27519545 0.2951507
v -0.034711678 0.24871452 0.29988775
v 0.10251146 0.3540494 0.10901826
v 0.31015942 0.25512484 0.22279605
v 0.2733888 0.33037108 0.02553273
v 0.1872073 0.27519545 0.2951507
v 0.02494901 -0.06487099 0.4134572
v -0.034711678 0.24871452 0.29988775
v 0.23897427 -0.06487099 0.4079391
v 0.31015942 0.25512484 0.22279605
v 0.43664756 -0.06487101 0.26310447
v 0.31015942 0.25512484 0.22279605
v 0.38945642 -0.06487101 -0.04800152
v 0.43664756 -0.06487101 0.26310447
v 0.2733888 0.33037108 0.02553273
v 0.20810638 -0.06487103 -0.21575665
v 0.15781163 0.2502855 -0.0606112
v 0.15781163 0.2502855 -0.0606112
v -0.037874706 -0.06487103 -0.18556617
v 0.20810638 -0.06487103 -0.21575665
v 0.046776805 0.28525218 -0.05416425
v -0.1872817 -0.06487101 -0.064380325
v -0.10606025 0.24871445 0.044142332
v -1.3437148 0.51069653 0.6553069
v -1.5282604 0.41707927 0.65127957
v -1.5362822 0.5112904 0.5070846
v -1.3217587 0.58422923 0.51161385
v -1.2690017 0.5842293 0.30372563
v -1.4838133 0.5112905 0.30328646
v -1.2295035 0.52680415 0.17309743
v -1.4198636 0.45520997 0.19740033
v -1.6946659 -0.0646189 0.7075214
v -1.3437148 0.51069653 0.6553069
v -1.3872604 -0.064613715 0.82408875
v -1.5282604 0.41707927 0.65127957
v -1.7007428 -0.06461896 0.49724364
v -1.5362822 0.5112904 0.5070846
v -1.646216 -0.064618915 0.2617209
v -1.4838133 0.5112905 0.30328646
v -1.5364145 -0.0646189 0.15519403
v -1.4198636 0.45520997 0.19740033
v -1.217518 -0.064618915 0.08790197
v -1.2295035 0.52680415 0.17309743
v -1.4198636 0.45520997 0.19740033
v -1.5364145 -0.0646189 0.15519403
v -0.33364344 1.2086824 0.77869457
v -0.7748246 1.1317588 1.1588982
v -1.080851 1.2108625 0.8392147
v -0.26937383 1.0526551 1.3141822
v -1.0657545 1.1758881 0.5972257
v 0.25499266 0.98604524 0.9661664
v -0.9362921 1.1409136 0.35523665
v -0.020520337 0.95824057 0.4916681
v -0.49214274 1.0523171 0.346127
v -0.7104071 0.8807643 0.28441808
v -0.6262016 0.94703543 0.08620979
v -0.57598495 0.86284524 0.2763223
v -1.1048247 0.8596594 0.114396855
v -0.176598 0.8798192 0.13551657
v -0.9352676 0.8395526 -0.18697077
v -0.4165557 0.80684507 -0.18697074
vt 0.015147697 0.14798649
vt 0.0046937927 0.14798649
vt 0.0046937927 0.13939764
vt 0.0145299 0.13939764
vt 0.0046937927 0.10981384
vt 0.025601601 0.14798649
vt 0.012401931 0.10981384
vt 0.0046937927 0.08510443
vt 0.024366006 0.13939764
vt 0.012401932 0.08510443
vt 0.0046937927 0.06349313
vt 0.012401932 0.06349313
vt 0.02011007 0.10981384
vt 0.02011007 0.08510443
vt 0.02011007 0.06349313
vt 0.037662655 0.06349313
vt 0.02836876 0.13939764
vt 0.039487515 0.14798649
vt 0.037900083 0.10981384
vt 0.037900083 0.08510443
vt 0.04551804 0.06349313
vt 0.04087109 0.13939764
vt 0.053373426 0.14798649
vt 0.053373426 0.13939764
vt 0.045636754 0.10981384
vt 0.053373426 0.10981384
vt 0.053373426 0.08510443
vt 0.045636754 0.08510443
vt 0.053373426 0.06349313
vt 0.17080925 0.13939764
vt 0.17080925 0.14798649
vt 0.15289176 0.14798649
vt 0.1535025 0.13939764
vt 0.17080925 0.10981384
vt 0.15086517 0.13939764
vt 0.12225862 0.14798649
vt 0.12225862 0.13939764
vt 0.15560621 0.10981384
vt 0.17080925 0.08510443
vt 0.14388469 0.10981384
vt 0.12225862 0.10981384
vt 0.12225862 0.08510443
vt 0.15560621 0.08510443
vt 0.17080925 0.06349313
vt 0.15560621 0.06349313
vt 0.14388469 0.08510443
vt 0.14388469 0.06349313
vt 0.12225862 0.06349313
vt 0.027583215 0.06359956
vt 0.03138459 0.093951374
vt 0.03138459 0.06359956
vt 0.02758466 0.093951374
vt 0.01750796 0.06359956
vt 0.03138459 0.12406154
vt 0.017839793 0.093951374
vt 0.011414279 0.06359956
vt 0.011414279 0.093951374
vt 0.011414279 0.12406154
vt 0.020754982 0.12406154
vt 0.019885395 0.13924865
vt 0.024073932 0.12406154
vt 0.024378557 0.13924865
vt 0.022733677 0.13924865
vt 0.022344653 0.14819114
vt 0.09528274 0.06349313
vt 0.11049923 0.08510443
vt 0.11049923 0.06349313
vt 0.09528274 0.08510443
vt 0.11049923 0.10981384
vt 0.08477062 0.08510443
vt 0.08477062 0.06349313
vt 0.09528274 0.10981384
vt 0.11049923 0.13939764
vt 0.07360826 0.08510443
vt 0.07360826 0.06349313
vt 0.06099588 0.06349313
vt 0.06099588 0.08510443
vt 0.06099588 0.10981384
vt 0.07360826 0.10981384
vt 0.06099588 0.13965027
vt 0.08477062 0.10981384
vt 0.08477062 0.13939764
vt 0.07360826 0.14798649
vt 0.08477062 0.14798649
vt 0.09528274 0.13939764
vt 0.09528274 0.14798649
vt 0.15110871 0.19367461
vt 0.17036489 0.19367461
vt 0.17036489 0.18386632
vt 0.15110871 0.18386632
vt 0.1221676 0.18386632
vt 0.123512976 0.19367461
vt 0.11768301 0.1541346
vt 0.15110871 0.1541346
vt 0.17036489 0.1541346
vt 0.006461217 0.18386632
vt 0.006461217 0.19367461
vt 0.028687604 0.19367461
vt 0.028687604 0.18386632
vt 0.006461217 0.1541346
vt 0.028687604 0.1541346
vt 0.028687604 0.19367461
vt 0.056200456 0.19367461
vt 0.057173446 0.18386632
vt 0.028687604 0.18386632
vt 0.05992169 0.1541346
vt 0.028687604 0.1541346
vt 0.06953494 0.18386632
vt 0.076745704 0.1541346
vt 0.06232418 0.1541346
vt 0.076745704 0.18386632
vt 0.076745704 0.19367461
vt 0.102061 0.1541346
vt 0.102061 0.18386632
vt 0.102061 0.19367461
vt 0.10855901 0.18386632
vt 0.11505702 0.1541346
vt 0.030235678 0.30822593
vt 0.033865213 0.2998567
vt 0.022738615 0.2942372
vt 0.01828987 0.3045845
vt 0.006118138 0.29947424
vt 0.012273136 0.2889616
vt 0.011968192 0.31647357
vt 0.02845828 0.3173533
vt 0.01828987 0.3045845
vt 0.0024846876 0.31232175
vt 0.006118138 0.29947424
vt 0.028807819 0.058756992
vt 0.0068517695 0.0028379578
vt 0.0068517695 0.058756992
vt 0.028807819 0.0028379578
vt 0.045573447 0.058756992
vt 0.045573447 0.0028379578
vt 0.003921002 0.05991559
vt 0.022024328 0.0037480628
vt 0.003921002 0.0037480628
vt 0.022024328 0.05991559
vt 0.047935296 0.0037480628
vt 0.047935296 0.05991559
vt 0.053739674 0.05991559
vt 0.082894176 0.0037480628
vt 0.053739674 0.0037480628
vt 0.082894176 0.05991559
vt 0.10217342 0.0037480628
vt 0.10217342 0.05991559
vt 0.004891783 0.31539878
vt 0.031246334 0.31539878
vt 0.031246334 0.3090491
vt 0.004891783 0.3090491
vt 0.004891783 0.29726797
vt 0.031246334 0.29726797
vt 0.004891783 0.29045045
vt 0.031246334 0.29045045
vt 0.028272681 0.004248483
vt 0.04767894 0.059019383
vt 0.04767894 0.004248483
vt 0.028272681 0.059019383
vt 0.021814518 0.004248483
vt 0.021814518 0.059019383
vt 0.011448947 0.004248483
vt 0.011448947 0.059019383
vt 0.0053823367 0.004248483
vt 0.0053823367 0.059019383
vt 0.09468292 0.004465072
vt 0.09468292 0.05979675
vt 0.05136735 0.05979675
vt 0.05136735 0.004465072
vt 0.046234384 0.2435197
vt 0.025040386 0.26520774
vt 0.0038521602 0.24798319
vt 0.046228614 0.2824323
vt 0.011036687 0.22496442
vt 0.08253522 0.2481046
vt 0.018221214 0.20194566
vt 0.06505719 0.20292199
vt 0.04093666 0.20241918
vt 0.15550624 0.28428292
vt 0.128075 0.24569756
vt 0.11026805 0.27964082
vt 0.17471315 0.24948278
vt 0.09059429 0.24421331
vt 0.14785609 0.20169413
vt 0.10542465 0.19886729
vn -4.2049824E-06 0.9999769 0.0067994236
vn 2.2153825E-05 0.9999769 0.006799621
vn -2.3236009E-05 0.9999769 0.006800445
vn -5.489707E-05 0.9999769 0.006800088
vn -5.838052E-05 0.9999769 0.0068009538
vn -3.2572654E-05 0.9999769 0.0067990846
vn -9.749167E-05 0.9999769 0.0068004285
vn -6.953698E-05 0.9999769 0.006801025
vn -9.134332E-05 0.9999769 0.006799644
vn -0.00010980077 0.9999769 0.006800346
vn -7.0352966E-05 0.9999769 0.006801043
vn -0.000114165676 0.9999769 0.0068003726
vn -0.00012857179 0.9999769 0.0067998352
vn -0.00013584303 0.9999769 0.0067998064
vn -0.00014079362 0.9999769 0.0067998944
vn -0.00014478569 0.9999769 0.0067998916
vn -0.000108686574 0.9999769 0.006799363
vn -2.3861427E-05 0.9999769 0.0067990976
vn -0.00013707201 0.9999769 0.006799691
vn -0.00014089713 0.9999769 0.006799762
vn -0.00014038902 0.9999769 0.006800024
vn -0.00010016367 0.9999769 0.0067994273
vn -1.5515545E-06 0.9999769 0.0067992574
vn -6.623975E-05 0.9999769 0.0067998664
vn -0.00013011548 0.9999769 0.0067997565
vn -8.699414E-05 0.9999769 0.006800618
vn -9.1155904E-05 0.9999769 0.006800784
vn -0.00013683726 0.9999769 0.0067998865
vn -9.717911E-05 0.9999769 0.0068008197
vn 5.2990275E-05 0.9999769 0.0068003875
vn 2.2153825E-05 0.9999769 0.006799621
vn 7.636386E-05 0.9999769 0.0067991912
vn 0.000108426364 0.9999769 0.006799793
vn 7.682163E-05 0.9999769 0.0068007833
vn 0.00011965659 0.9999769 0.0067994776
vn 5.7908466E-05 0.9999769 0.006799332
vn 8.556546E-05 0.9999769 0.0067995246
vn 0.00013012298 0.9999769 0.0067999763
vn 9.335018E-05 0.9999769 0.0068008187
vn 0.00013306967 0.9999769 0.0067997333
vn 0.00010453261 0.9999769 0.0068001896
vn 0.000103264014 0.9999769 0.006800616
vn 0.00013561992 0.9999769 0.006800024
vn 9.215389E-05 0.9999769 0.0068009715
vn 0.0001379035 0.9999769 0.006800065
vn 0.00013901397 0.9999769 0.0067998865
vn 0.00013602512 0.9999769 0.006799932
vn 9.861948E-05 0.9999769 0.0068006814
vn 2.2494261E-05 0.9999769 0.0068015885
vn 9.335018E-05 0.9999769 0.0068008187
vn 9.215389E-05 0.9999769 0.0068009715
vn 2.3702994E-05 0.9999769 0.0068014553
vn -3.272733E-05 0.9999769 0.0068014613
vn 7.682163E-05 0.9999769 0.0068007833
vn -3.1270403E-05 0.9999769 0.0068013575
vn -7.0352966E-05 0.9999769 0.006801043
vn -6.953698E-05 0.9999769 0.006801025
vn -5.838052E-05 0.9999769 0.0068009538
vn -1.9375379E-05 0.9999769 0.006801199
vn -2.3236009E-05 0.9999769 0.006800445
vn 1.7737819E-05 0.9999769 0.006801295
vn 5.2990275E-05 0.9999769 0.0068003875
vn 3.4270006E-06 0.9999769 0.006800748
vn 2.2153825E-05 0.9999769 0.006799621
vn -2.7677757E-05 0.9999769 0.0068015507
vn -9.1155904E-05 0.9999769 0.006800784
vn -9.717911E-05 0.9999769 0.0068008197
vn -3.127598E-05 0.9999769 0.006801504
vn -8.699414E-05 0.9999769 0.006800618
vn -9.4636584E-07 0.9999769 0.006801587
vn -6.35607E-07 0.9999769 0.0068016155
vn -2.5698539E-05 0.9999769 0.006801056
vn -6.623975E-05 0.9999769 0.0067998664
vn 5.5176628E-05 0.9999769 0.006801309
vn 5.014208E-05 0.9999769 0.0068013864
vn 9.861948E-05 0.9999769 0.0068006814
vn 0.000103264014 0.9999769 0.006800616
vn 0.00010453261 0.9999769 0.0068001896
vn 5.720309E-05 0.9999769 0.0068007032
vn 6.20376E-05 0.9999769 0.0067996583
vn 1.041257E-05 0.9999769 0.0068009873
vn 2.4669187E-05 0.9999769 0.0067997836
vn 5.7908466E-05 0.9999769 0.006799332
vn 3.30008E-05 0.9999769 0.006799401
vn -1.3145196E-05 0.9999769 0.0068001114
vn -1.5515545E-06 0.9999769 0.0067992574
vn -8.698724E-05 0.9999769 0.006799284
vn -1.6374084E-05 0.9999769 0.006799347
vn -0.000104875944 0.9999769 0.0067998404
vn -0.00013237655 0.9999769 0.006799648
vn -8.417169E-05 0.9999769 0.006800634
vn -4.325431E-05 0.9999769 0.0067998474
vn -9.832127E-05 0.9999769 0.0068007535
vn -0.00013778856 0.9999769 0.006799827
vn -0.00013813151 0.9999769 0.0067997035
vn 9.413893E-05 0.9999769 0.0068004853
vn 6.918819E-05 0.9999769 0.0068007773
vn 6.918818E-05 0.9999769 0.0068007773
vn 0.0001108529 0.9999769 0.006800259
vn 0.00012789037 0.9999769 0.006800016
vn 0.00012789037 0.9999769 0.006800016
vn 6.448427E-05 0.9999769 0.0067993845
vn 3.91E-05 0.9999769 0.0068000425
vn 8.8050314E-05 0.9999769 0.0068005826
vn 0.00010809619 0.9999769 0.0068001365
vn 0.00010096544 0.9999769 0.0068007014
vn 0.00012094486 0.9999769 0.006800339
vn 8.8050314E-05 0.9999769 0.0068005826
vn 2.8141392E-05 0.9999769 0.006801446
vn 0.00010096544 0.9999769 0.0068007014
vn 2.7458036E-05 0.9999769 0.0068012197
vn 3.91E-05 0.9999769 0.0068000425
vn -2.5234342E-05 0.9999769 0.006801511
vn -1.5359612E-05 0.9999769 0.006801279
vn -4.325431E-05 0.9999769 0.0067998474
vn -8.417169E-05 0.9999769 0.006800634
vn -9.832127E-05 0.9999769 0.0068007535
vn -5.2357762E-05 0.9999769 0.006799259
vn -7.3179894E-05 0.9999769 0.006799785
vn -3.8453127E-05 0.9999769 0.00680001
vn -2.6860092E-05 0.9999769 0.006799378
vn 8.918453E-05 0.9999769 0.006799831
vn 2.8135779E-05 0.9999769 0.006800391
vn 1.795577E-05 0.9999769 0.006799336
vn -1.1390025E-05 0.9999769 0.0067994706
vn 1.5067808E-05 0.9999769 0.006799348
vn 4.130943E-05 0.9999769 0.006799261
vn 4.130943E-05 0.9999769 0.006799261
vn 3.926712E-05 0.9999769 0.0068009766
vn 3.334182E-07 0.9999769 0.006801118
vn 3.334182E-07 0.9999769 0.006801118
vn 4.1783587E-05 0.9999769 0.006800961
vn 7.822744E-05 0.9999769 0.006800668
vn 7.822744E-05 0.9999769 0.006800668
vn 0.00013770463 0.9999769 0.0067997165
vn 0.00011790403 0.9999769 0.006799974
vn 0.00013770461 0.9999769 0.0067997165
vn 8.918453E-05 0.9999769 0.006799831
vn 3.8351936E-05 0.9999769 0.0068008155
vn 2.8135779E-05 0.9999769 0.006800391
vn 2.8135779E-05 0.9999769 0.006800391
vn -5.0184983E-05 0.9999769 0.0068007116
vn 3.8351936E-05 0.9999769 0.0068008155
vn -3.8453127E-05 0.9999769 0.00680001
vn -8.4535386E-05 0.9999769 0.006800406
vn -7.3179894E-05 0.9999769 0.006799785
vn -4.984692E-05 0.9999769 0.0068001156
vn -9.182495E-05 0.9999769 0.0068001747
vn -0.000104488594 0.9999769 0.0067993575
vn -5.0423452E-05 0.9999769 0.0067991577
vn -4.7886395E-05 0.9999769 0.006799299
vn -9.507373E-05 0.9999769 0.0067995684
vn -4.1670082E-05 0.9999769 0.006800506
vn -6.577472E-05 0.9999769 0.0068005743
vn -0.00010706702 0.9999769 0.006800271
vn -4.984692E-05 0.9999769 0.0068001156
vn -3.9471248E-05 0.9999769 0.006801143
vn -9.182495E-05 0.9999769 0.0068001747
vn -0.00013968693 0.9999769 0.0067997375
vn -0.000104488594 0.9999769 0.0067993575
vn -0.0001265209 0.9999769 0.006800047
vn -9.507373E-05 0.9999769 0.0067995684
vn -7.5730706E-05 0.9999769 0.006800915
vn -6.577472E-05 0.9999769 0.0068005743
vn -2.8839877E-05 0.9999769 0.006801378
vn -4.1670082E-05 0.9999769 0.006800506
vn -6.577472E-05 0.9999769 0.0068005743
vn -7.5730706E-05 0.9999769 0.006800915
vn 2.9899715E-05 0.9999769 0.00679906
vn -4.2049824E-06 0.9999769 0.0067994236
vn -3.2572654E-05 0.9999769 0.0067990846
vn 2.2153825E-05 0.9999769 0.006799621
vn -2.3861427E-05 0.9999769 0.0067990976
vn 7.636386E-05 0.9999769 0.0067991912
vn -1.5515545E-06 0.9999769 0.0067992574
vn 5.7908466E-05 0.9999769 0.006799332
vn 3.30008E-05 0.9999769 0.006799401
vn -1.6374084E-05 0.9999769 0.006799347
vn 3.7705495E-06 0.9999769 0.0067990334
vn 1.7233328E-05 0.9999769 0.006799364
vn -8.698724E-05 0.9999769 0.006799284
vn 6.448427E-05 0.9999769 0.0067993845
vn -4.325431E-05 0.9999769 0.0067998474
vn 3.91E-05 0.9999769 0.0068000425
g [gimmick]giant_rock_0
f 3/3/3 2/2/2 1/1/1
f 4/4/4 3/3/3 1/1/1
f 3/3/3 4/4/4 5/5/5
f 4/4/4 1/1/1 6/6/6
f 4/4/4 7/7/7 5/5/5
f 5/5/5 7/7/7 8/8/8
f 9/9/9 4/4/4 6/6/6
f 7/7/7 4/4/4 9/9/9
f 7/7/7 10/10/10 8/8/8
f 8/8/8 10/10/10 11/11/11
f 10/10/10 12/12/12 11/11/11
f 10/10/10 7/7/7 13/13/13
f 13/13/13 7/7/7 9/9/9
f 12/12/12 10/10/10 14/14/14
f 14/14/14 10/10/10 13/13/13
f 15/15/15 12/12/12 14/14/14
f 15/15/15 14/14/14 16/16/16
f 17/17/17 9/9/9 6/6/6
f 17/17/17 6/6/6 18/18/18
f 13/13/13 9/9/9 19/19/19
f 13/13/13 19/19/19 14/14/14
f 9/9/9 17/17/17 19/19/19
f 14/14/14 20/20/20 16/16/16
f 19/19/19 20/20/20 14/14/14
f 16/16/16 20/20/20 21/21/21
f 22/22/22 17/17/17 18/18/18
f 17/17/17 22/22/22 19/19/19
f 22/22/22 18/18/18 23/23/23
f 24/24/24 22/22/22 23/23/23
f 22/22/22 25/25/25 19/19/19
f 25/25/25 22/22/22 24/24/24
f 19/19/19 25/25/25 20/20/20
f 26/26/26 25/25/25 24/24/24
f 26/26/26 27/27/27 25/25/25
f 20/20/20 28/28/28 21/21/21
f 25/25/25 28/28/28 20/20/20
f 27/27/27 28/28/28 25/25/25
f 21/21/21 28/28/28 29/29/29
f 28/28/28 27/27/27 29/29/29
f 32/32/32 31/31/31 30/30/30
f 33/33/33 32/32/32 30/30/30
f 33/33/33 30/30/30 34/34/34
f 33/33/33 35/35/35 32/32/32
f 36/36/36 32/32/32 35/35/35
f 37/37/37 36/36/36 35/35/35
f 38/38/38 33/33/33 34/34/34
f 35/35/35 33/33/33 38/38/38
f 34/34/34 39/39/39 38/38/38
f 37/37/37 35/35/35 40/40/40
f 40/40/40 35/35/35 38/38/38
f 41/41/41 37/37/37 40/40/40
f 41/41/41 40/40/40 42/42/42
f 39/39/39 43/43/43 38/38/38
f 38/38/38 43/43/43 40/40/40
f 43/43/43 39/39/39 44/44/44
f 45/45/45 43/43/43 44/44/44
f 43/43/43 46/46/46 40/40/40
f 46/46/46 43/43/43 45/45/45
f 40/40/40 46/46/46 42/42/42
f 47/47/47 46/46/46 45/45/45
f 42/42/42 46/46/46 47/47/47
f 48/48/48 42/42/42 47/47/47
f 51/51/51 50/50/50 49/49/49
f 50/50/50 52/52/52 49/49/49
f 49/49/49 52/52/52 53/53/53
f 52/52/52 50/50/50 54/54/54
f 52/52/52 55/55/55 53/53/53
f 53/53/53 55/55/55 56/56/56
f 55/55/55 57/57/57 56/56/56
f 58/58/58 57/57/57 55/55/55
f 59/59/59 58/58/58 55/55/55
f 59/59/59 55/55/55 52/52/52
f 60/60/60 58/58/58 59/59/59
f 61/61/61 52/52/52 54/54/54
f 61/61/61 59/59/59 52/52/52
f 61/61/61 54/54/54 62/62/62
f 63/63/63 60/60/60 59/59/59
f 63/63/63 59/59/59 61/61/61
f 63/63/63 61/61/61 62/62/62
f 64/64/64 60/60/60 63/63/63
f 64/64/64 63/63/63 62/62/62
f 67/67/67 66/66/66 65/65/65
f 66/66/66 68/68/68 65/65/65
f 68/68/68 66/66/66 69/69/69
f 68/68/68 70/70/70 65/65/65
f 70/70/70 71/71/71 65/65/65
f 72/72/72 68/68/68 69/69/69
f 70/70/70 68/68/68 72/72/72
f 72/72/72 69/69/69 73/73/73
f 71/71/71 70/70/70 74/74/74
f 75/75/75 71/71/71 74/74/74
f 75/75/75 74/74/74 76/76/76
f 74/74/74 77/77/77 76/76/76
f 78/78/78 77/77/77 74/74/74
f 79/79/79 78/78/78 74/74/74
f 74/74/74 70/70/70 79/79/79
f 80/80/80 78/78/78 79/79/79
f 70/70/70 81/81/81 79/79/79
f 81/81/81 70/70/70 72/72/72
f 80/80/80 79/79/79 82/82/82
f 79/79/79 81/81/81 82/82/82
f 82/82/82 81/81/81 72/72/72
f 80/80/80 82/82/82 83/83/83
f 82/82/82 84/84/84 83/83/83
f 85/85/85 72/72/72 73/73/73
f 85/85/85 82/82/82 72/72/72
f 84/84/84 82/82/82 85/85/85
f 86/86/86 85/85/85 73/73/73
f 86/86/86 84/84/84 85/85/85
f 89/89/89 88/88/88 87/87/87
f 90/90/90 89/89/89 87/87/87
f 91/91/91 90/90/90 87/87/87
f 92/92/92 91/91/91 87/87/87
f 91/91/91 93/93/93 90/90/90
f 93/93/93 94/94/94 90/90/90
f 90/90/90 94/94/94 89/89/89
f 94/94/94 95/95/95 89/89/89
f 98/98/98 97/97/97 96/96/96
f 99/99/99 98/98/98 96/96/96
f 96/96/96 100/100/100 99/99/99
f 100/100/100 101/101/101 99/99/99
f 104/104/104 103/103/103 102/102/102
f 105/105/105 104/104/104 102/102/102
f 106/106/106 104/104/104 105/105/105
f 107/107/107 106/106/106 105/105/105
f 110/110/110 109/109/109 108/108/108
f 109/109/109 111/111/111 108/108/108
f 112/112/112 108/108/108 111/111/111
f 109/109/109 113/113/113 111/111/111
f 112/112/112 111/111/111 114/114/114
f 113/113/113 114/114/114 111/111/111
f 115/115/115 112/112/112 114/114/114
f 115/115/115 114/114/114 116/116/116
f 114/114/114 113/113/113 116/116/116
f 113/113/113 117/117/117 116/116/116
f 120/120/120 119/119/119 118/118/118
f 121/121/121 120/120/120 118/118/118
f 121/121/121 122/122/122 120/120/120
f 122/122/122 123/123/123 120/120/120
f 125/125/125 124/124/124 118/118/118
f 124/124/124 126/126/126 118/118/118
f 124/124/124 127/127/127 126/126/126
f 127/127/127 128/128/128 126/126/126
f 131/131/131 130/130/130 129/129/129
f 130/130/130 132/132/132 129/129/129
f 133/133/133 129/129/129 132/132/132
f 134/134/134 133/133/133 132/132/132
f 137/137/137 136/136/136 135/135/135
f 136/136/136 138/138/138 135/135/135
f 136/136/136 139/139/139 138/138/138
f 139/139/139 140/140/140 138/138/138
f 143/143/143 142/142/142 141/141/141
f 142/142/142 144/144/144 141/141/141
f 142/142/142 145/145/145 144/144/144
f 145/145/145 146/146/146 144/144/144
f 149/149/149 148/148/148 147/147/147
f 150/150/150 149/149/149 147/147/147
f 150/150/150 151/151/151 149/149/149
f 151/151/151 152/152/152 149/149/149
f 151/151/151 153/153/153 152/152/152
f 153/153/153 154/154/154 152/152/152
f 157/157/157 156/156/156 155/155/155
f 156/156/156 158/158/158 155/155/155
f 159/159/159 155/155/155 158/158/158
f 160/160/160 159/159/159 158/158/158
f 161/161/161 159/159/159 160/160/160
f 162/162/162 161/161/161 160/160/160
f 163/163/163 161/161/161 162/162/162
f 164/164/164 163/163/163 162/162/162
f 167/167/167 166/166/166 165/165/165
f 168/168/168 167/167/167 165/165/165
f 171/171/171 170/170/170 169/169/169
f 170/170/170 172/172/172 169/169/169
f 173/173/173 171/171/171 169/169/169
f 174/174/174 169/169/169 172/172/172
f 175/175/175 173/173/173 169/169/169
f 174/174/174 176/176/176 169/169/169
f 177/177/177 175/175/175 169/169/169
f 176/176/176 177/177/177 169/169/169
f 180/180/180 179/179/179 178/178/178
f 178/178/178 179/179/179 181/181/181
f 182/182/182 179/179/179 180/180/180
f 181/181/181 179/179/179 183/183/183
f 184/184/184 179/179/179 182/182/182
f 183/183/183 179/179/179 184/184/184
