g [gimmick]battlegate3
v -0.36453173 -0.23731852 -0.44439438
v 0.36453187 -0.23731852 -0.4443946
v 0.42512774 -0.23731847 -0.38379908
v -0.42512712 -0.23731847 -0.38379878
v 0.42512783 -0.23731878 0.34526432
v -0.42512706 -0.23731878 0.34526455
v 0.36453187 -0.23731878 0.40586016
v -0.36453128 -0.23731878 0.40586033
v -0.42512706 -0.23731878 0.34526455
v -0.42512706 -1.0070006 0.3452647
v -0.42512712 -1.0070001 -0.38379863
v -0.42512712 -0.23731847 -0.38379878
v 0.36453187 -0.23731878 0.40586016
v 0.36453205 -1.0070004 0.40586025
v -0.36453128 -1.0070004 0.4058604
v -0.36453128 -0.23731878 0.40586033
v 0.42512774 -0.23731847 -0.38379908
v 0.42512774 -1.0070001 -0.38379896
v 0.42512783 -1.0070006 0.34526455
v 0.42512783 -0.23731878 0.34526432
v -0.36453128 -0.23731878 0.40586033
v -0.36453128 -1.0070004 0.4058604
v -0.42512706 -1.0070006 0.3452647
v -0.42512706 -0.23731878 0.34526455
v 0.42512783 -0.23731878 0.34526432
v 0.42512783 -1.0070006 0.34526455
v 0.36453205 -1.0070004 0.40586025
v 0.36453187 -0.23731878 0.40586016
vt 0.3577109 0.88622385
vt 0.26798123 0.88622385
vt 0.26052344 0.8935346
vt 0.36516875 0.8935346
vt 0.26052344 0.9814951
vt 0.36516875 0.9814951
vt 0.26798126 0.9888058
vt 0.3577109 0.9888058
vt 0.5725896 0.49912792
vt 0.5725896 0.3765477
vt 0.46607384 0.37654787
vt 0.46607384 0.49912804
vt 0.44790426 0.4991569
vt 0.44790426 0.37657657
vt 0.34138867 0.3765767
vt 0.34138867 0.4991569
vt 0.5725895 0.49912792
vt 0.5725895 0.3765479
vt 0.46607372 0.37654778
vt 0.46607372 0.49912804
vt 0.58302104 0.49912792
vt 0.58302104 0.37654766
vt 0.5725896 0.3765477
vt 0.5725896 0.49912792
vt 0.4583358 0.4991569
vt 0.4583358 0.37657657
vt 0.44790426 0.37657657
vt 0.44790426 0.4991569
vn -0 1 3.2275423E-07
vn -0 1 3.2275423E-07
vn -0 1 3.2275426E-07
vn -0 1 3.2275426E-07
vn -0 1 3.2275423E-07
vn -0 1 3.2275423E-07
vn -0 1 3.2275426E-07
vn -0 1 3.2275423E-07
vn -1 0 1.05379044E-07
vn -1 0 1.05379044E-07
vn -1 0 1.05379044E-07
vn -1 0 1.05379044E-07
vn 2.1075815E-07 0 1
vn 2.1075816E-07 0 1
vn 2.1075813E-07 0 1
vn 2.1075813E-07 0 1
vn 1 0 -1.0537904E-07
vn 1 0 -1.0537904E-07
vn 1 0 -1.05379044E-07
vn 1 0 -1.0537904E-07
vn -0.7071066 1.05565746E-07 0.70710695
vn -0.7071066 1.05565746E-07 0.7071069
vn -0.7071066 1.0556577E-07 0.70710695
vn -0.70710653 1.05565746E-07 0.707107
vn 0.70710635 2.1113131E-07 0.7071072
vn 0.70710635 2.1113132E-07 0.7071072
vn 0.70710635 2.1113131E-07 0.7071072
vn 0.7071063 2.111313E-07 0.70710725
g [gimmick]battlegate3_0
f 3/3/3 2/2/2 1/1/1
f 1/1/1 4/4/4 3/3/3
f 4/4/4 5/5/5 3/3/3
f 4/4/4 6/6/6 5/5/5
f 6/6/6 7/7/7 5/5/5
f 6/6/6 8/8/8 7/7/7
f 11/11/11 10/10/10 9/9/9
f 12/12/12 11/11/11 9/9/9
f 15/15/15 14/14/14 13/13/13
f 16/16/16 15/15/15 13/13/13
f 19/19/19 18/18/18 17/17/17
f 20/20/20 19/19/19 17/17/17
f 23/23/23 22/22/22 21/21/21
f 24/24/24 23/23/23 21/21/21
f 27/27/27 26/26/26 25/25/25
f 28/28/28 27/27/27 25/25/25
