g [gimmick]cctv
v -0.31865075 2.1827955 0.037581537
v -0.5082796 2.2415266 0.01746078
v -0.30522087 2.2570252 0.037581533
v -0.5082796 2.2415266 0.01746078
v -0.31865075 2.1827955 0.037581537
v -0.50894004 2.2070389 0.017460775
v -0.30522087 2.2570252 0.037581533
v -0.5082796 2.2415266 -0.017460773
v -0.30522087 2.2570252 -0.037581533
v -0.5082796 2.2415266 -0.017460773
v -0.30522087 2.2570252 0.037581533
v -0.5082796 2.2415266 0.01746078
v -0.30522087 2.2570252 -0.037581533
v -0.50894004 2.2070389 -0.017460775
v -0.31865075 2.1827955 -0.03758153
v -0.50894004 2.2070389 -0.017460775
v -0.30522087 2.2570252 -0.037581533
v -0.5082796 2.2415266 -0.017460773
v -0.31865075 2.1827955 -0.03758153
v -0.50894004 2.2070389 0.017460775
v -0.31865075 2.1827955 0.037581537
v -0.50894004 2.2070389 0.017460775
v -0.31865075 2.1827955 -0.03758153
v -0.50894004 2.2070389 -0.017460775
v -0.3234392 2.1515822 0.07263068
v -0.32540232 2.2925098 -0.072630666
v -0.32540232 2.2925098 0.072630666
v -0.3234392 2.1515822 -0.07263065
v -0.30300865 2.1486657 0.07617058
v -0.32540232 2.2925098 0.072630666
v -0.3061492 2.2962708 0.07617056
v -0.3234392 2.1515822 0.07263068
v -0.3061492 2.2962708 0.07617056
v -0.32540232 2.2925098 -0.072630666
v -0.3061492 2.2962708 -0.07617056
v -0.32540232 2.2925098 0.072630666
v -0.3061492 2.2962708 -0.07617056
v -0.3234392 2.1515822 -0.07263065
v -0.30300865 2.1486657 -0.07617055
v -0.32540232 2.2925098 -0.072630666
v -0.30300865 2.1486657 -0.07617055
v -0.3234392 2.1515822 0.07263068
v -0.30300865 2.1486657 0.07617058
v -0.3234392 2.1515822 -0.07263065
v -0.50894004 2.2070389 0.017460775
v -0.5082796 2.2415266 -0.017460773
v -0.5082796 2.2415266 0.01746078
v -0.50894004 2.2070389 -0.017460775
v -0.4656563 2.2386367 0.01973141
v -0.67175126 2.2779894 0.019731406
v -0.46565628 2.276268 0.019731406
v -0.6717513 2.2413309 0.01973141
v -0.46565628 2.276268 0.019731406
v -0.6717513 2.2779894 -0.018221512
v -0.4656563 2.276268 -0.018221475
v -0.67175126 2.2779894 0.019731406
v -0.4656563 2.276268 -0.018221475
v -0.6717513 2.2413309 -0.018221505
v -0.4656563 2.2386367 -0.018221486
v -0.6717513 2.2779894 -0.018221512
v -0.4656563 2.2386367 -0.018221486
v -0.6717513 2.2413309 0.01973141
v -0.4656563 2.2386367 0.01973141
v -0.6717513 2.2413309 -0.018221505
v -0.5713625 2.4041798 0.1389221
v -0.5473965 2.2610388 0.0018314277
v -0.5541097 2.3047073 0.100431755
v -0.5968067 2.5389047 -0.006196321
v -0.58904797 2.5011876 0.09475499
v -0.5728408 2.3957636 -0.14328697
v -0.5551551 2.2987561 -0.09912021
v -0.59009343 2.4952364 -0.10479671
v -1.0448471 2.4145095 -0.10000699
v -0.5968067 2.5389047 -0.006196321
v -1.0515604 2.4581773 -0.001406513
v -0.59009343 2.4952364 -0.10479671
v -1.0275942 2.315037 -0.13849722
v -0.5728408 2.3957636 -0.14328697
v -1.0099087 2.2180293 -0.094330356
v -0.5551551 2.2987561 -0.09912021
v -1.0021499 2.1803126 0.0066210623
v -0.5473965 2.2610388 0.0018314277
v -1.0088633 2.2239804 0.10522157
v -0.5473965 2.2610388 0.0018314277
v -1.0021499 2.1803126 0.0066210623
v -0.5541097 2.3047073 0.100431755
v -1.0261159 2.323453 0.14371175
v -0.5713625 2.4041798 0.1389221
v -1.0438017 2.4204607 0.09954489
v -0.58904797 2.5011876 0.09475499
v -1.0515604 2.4581773 -0.001406513
v -0.5968067 2.5389047 -0.006196321
v -1.0515604 2.4581773 -0.001406513
v -1.0275942 2.315037 -0.13849722
v -1.0448471 2.4145095 -0.10000699
v -1.0261159 2.323453 0.14371175
v -1.0438017 2.4204607 0.09954489
v -1.0021499 2.1803126 0.0066210623
v -1.0099087 2.2180293 -0.094330356
v -1.0088633 2.2239804 0.10522157
v -0.4656563 2.2386367 -0.018221486
v -0.46565628 2.276268 0.019731406
v -0.4656563 2.276268 -0.018221475
v -0.4656563 2.2386367 0.01973141
vt 0.0010525623 0.010172715
vt 0.02237457 0.018311504
vt 0.0010525623 0.018311504
vt 0.02237457 0.018311504
vt 0.0010525623 0.010172715
vt 0.02237457 0.010172715
vt 0.0010525623 0.024213796
vt 0.022327464 0.019747164
vt 0.0010525623 0.019747164
vt 0.022327464 0.019747164
vt 0.0010525623 0.024213796
vt 0.022327464 0.024213796
vt 0.0010525623 0.018311504
vt 0.02237457 0.010172715
vt 0.0010525623 0.010172715
vt 0.02237457 0.010172715
vt 0.0010525623 0.018311504
vt 0.02237457 0.018311504
vt 0.0010525623 0.0072741467
vt 0.021439517 0.002690774
vt 0.0010525623 0.002690774
vt 0.021439517 0.002690774
vt 0.0010525623 0.0072741467
vt 0.021439517 0.0072741467
vt 0.06691693 0.0039182184
vt 0.051511906 0.018855983
vt 0.06691693 0.018855983
vt 0.051511906 0.0039182184
vt 0.04147037 0.011712303
vt 0.04337419 0.01743053
vt 0.04147037 0.01743053
vt 0.04337419 0.011712303
vt 0.06691693 0.024332745
vt 0.051511906 0.022482576
vt 0.051511906 0.024332745
vt 0.06691693 0.022482576
vt 0.041470416 0.01743053
vt 0.04337419 0.011712303
vt 0.041470416 0.011712303
vt 0.04337419 0.01743053
vt 0.038615547 0.0011512656
vt 0.043901168 0.0031221379
vt 0.043901168 0.0011512656
vt 0.038615547 0.0031221379
vt 0.030345647 0.007222929
vt 0.026321163 0.002218866
vt 0.026321163 0.007222929
vt 0.030345647 0.002218866
vt 0.02237457 0.010172715
vt 0.0010525623 0.018311504
vt 0.02237457 0.018311504
vt 0.0010525623 0.010172715
vt 0.022327464 0.019747164
vt 0.0010525623 0.024213796
vt 0.022327464 0.024213796
vt 0.0010525623 0.019747164
vt 0.02237457 0.018311504
vt 0.0010525623 0.010172715
vt 0.02237457 0.010172715
vt 0.0010525623 0.018311504
vt 0.021439517 0.002690774
vt 0.0010525623 0.0072741467
vt 0.021439517 0.0072741467
vt 0.0010525623 0.002690774
vt 0.040712673 0.04375573
vt 0.039964475 0.056225777
vt 0.04049353 0.052573364
vt 0.039964475 0.031285632
vt 0.04049353 0.03493805
vt 0.03921627 0.043755706
vt 0.03943541 0.052573364
vt 0.03943541 0.03493807
vt 0.03692329 0.052299753
vt 0.00067762483 0.060859114
vt 0.03692329 0.060859114
vt 0.00067762483 0.052299753
vt 0.03692329 0.043901734
vt 0.00067762483 0.043901734
vt 0.03692329 0.03550373
vt 0.00067762483 0.03550373
vt 0.03692329 0.026944377
vt 0.00067762483 0.026944377
vt 0.03692329 0.03550373
vt 0.00067762483 0.026944377
vt 0.03692329 0.026944377
vt 0.00067762483 0.03550373
vt 0.03692329 0.043901734
vt 0.00067762483 0.043901734
vt 0.03692329 0.052299753
vt 0.00067762483 0.052299753
vt 0.03692329 0.060859114
vt 0.00067762483 0.060859114
vt 0.055156704 0.05825489
vt 0.04423163 0.04702612
vt 0.047368616 0.054903187
vt 0.06638552 0.047329813
vt 0.06303379 0.05511789
vt 0.05546044 0.03610102
vt 0.04758336 0.039238036
vt 0.06324854 0.03945277
vt 0.030345647 0.007222929
vt 0.026321163 0.002218866
vt 0.026321163 0.007222929
vt 0.030345647 0.002218866
vn -0.09995609 0.018084424 0.99482745
vn -0.099956095 0.018084422 0.99482745
vn -0.09995609 0.018084424 0.99482745
vn -0.104898274 0.002008545 0.99448097
vn -0.10489829 0.0020085452 0.99448097
vn -0.10489829 0.0020085454 0.99448097
vn -0.076104656 0.9970999 0
vn -0.076104656 0.9970999 0
vn -0.076104656 0.9970999 0
vn -0.07610466 0.9970999 0
vn -0.07610466 0.9970999 0
vn -0.07610467 0.9970999 0
vn -0.10278996 0.01859707 -0.9945292
vn -0.10278995 0.01859707 -0.9945292
vn -0.10278996 0.01859707 -0.9945292
vn -0.09874822 0.0018909842 -0.9951107
vn -0.09874822 0.0018909842 -0.9951107
vn -0.09874823 0.0018909842 -0.9951107
vn -0.12638041 -0.9919818 0
vn -0.12638041 -0.9919818 0
vn -0.12638043 -0.9919818 0
vn -0.12638044 -0.9919818 0
vn -0.12638044 -0.9919818 0
vn -0.12638043 -0.9919818 0
vn -0.99990296 -0.013928575 0
vn -0.99990296 -0.013928575 0
vn -0.99990296 -0.013928576 0
vn -0.99990296 -0.013928576 0
vn -0.17192067 -0.0025217584 0.9851076
vn -0.17936629 -0.0037136811 0.9837753
vn -0.1801047 -0.0038319672 0.98364
vn -0.17105094 -0.0023826263 0.9852593
vn -0.1917233 0.98144907 0
vn -0.19172327 0.98144907 0
vn -0.19172327 0.98144907 0
vn -0.1917233 0.98144907 0
vn -0.17942892 -0.0026272065 -0.9837674
vn -0.1719406 -0.0035546697 -0.9851009
vn -0.17122498 -0.0036432273 -0.98522526
vn -0.18035482 -0.0025124298 -0.9835984
vn -0.1413286 -0.98996276 0
vn -0.14132859 -0.98996276 0
vn -0.14132859 -0.98996276 0
vn -0.1413286 -0.98996276 0
vn -0.9998167 0.019145692 0
vn -0.9998167 0.01914569 0
vn -0.9998167 0.019145692 0
vn -0.9998167 0.019145694 0
vn -0 0 1
vn -0 0 1
vn -0 0 1
vn -0 0 1
vn 0.008351464 0.9999652 0
vn 0.008351464 0.9999652 0
vn 0.008351464 0.9999652 0
vn 0.008351465 0.9999652 0
vn -0 2.8709997E-07 -1
vn -0 2.8709997E-07 -1
vn -0 2.8709994E-07 -1
vn 1.8447537E-07 -2.2922659E-07 -1
vn -0.0130715165 -0.9999145 0
vn -0.013071517 -0.9999145 0
vn -0.013071516 -0.9999145 0
vn -0.013071516 -0.9999145 0
vn 0.98455393 0.17477435 -0.010370115
vn 0.9845538 0.1747751 -0.010369822
vn 0.98455346 0.17477672 -0.010372066
vn 0.98455393 0.174774 -0.01037012
vn 0.98455423 0.17477258 -0.010371005
vn 0.9845538 0.1747747 -0.01036983
vn 0.98455346 0.17477687 -0.010367649
vn 0.98455393 0.17477451 -0.0103705
vn -0.12745002 0.6748266 -0.7268875
vn -0.17500517 0.9841569 -0.028432196
vn -0.17500515 0.9841569 -0.028432244
vn -0.12744953 0.6748258 -0.7268884
vn -0.0052362042 -0.02980935 -0.9995419
vn -0.005236081 -0.02980962 -0.9995419
vn 0.120044515 -0.7169827 -0.68667686
vn 0.1200438 -0.7169813 -0.6866784
vn 0.17500407 -0.98415715 0.02843212
vn 0.1750042 -0.984157 0.02843272
vn 0.12744926 -0.67482656 0.7268879
vn 0.1750042 -0.984157 0.02843272
vn 0.17500407 -0.98415715 0.02843212
vn 0.12744945 -0.6748249 0.72688925
vn 0.0052360985 0.029808935 0.9995419
vn 0.005236025 0.029810004 0.9995419
vn -0.12004466 0.71698254 0.686677
vn -0.120044746 0.71698266 0.6866769
vn -0.17500515 0.9841569 -0.028432244
vn -0.17500517 0.9841569 -0.028432196
vn -0.9845536 -0.17477643 0.010370219
vn -0.9845537 -0.17477545 0.010370381
vn -0.98455334 -0.17477757 0.010371329
vn -0.9845538 -0.17477503 0.010369558
vn -0.9845536 -0.17477596 0.01037022
vn -0.98455393 -0.17477405 0.010369717
vn -0.9845541 -0.17477323 0.010371278
vn -0.98455423 -0.1747724 0.010367449
vn 1 0 -1.0121497E-06
vn 1 0 -1.0121497E-06
vn 1 0 -1.0121497E-06
vn 1 -1.0207998E-06 0
g [gimmick]cctv_0
f 3/3/3 2/2/2 1/1/1
f 6/6/6 5/5/5 4/4/4
f 9/9/9 8/8/8 7/7/7
f 12/12/12 11/11/11 10/10/10
f 15/15/15 14/14/14 13/13/13
f 18/18/18 17/17/17 16/16/16
f 21/21/21 20/20/20 19/19/19
f 24/24/24 23/23/23 22/22/22
f 27/27/27 26/26/26 25/25/25
f 28/28/28 25/25/25 26/26/26
f 31/31/31 30/30/30 29/29/29
f 32/32/32 29/29/29 30/30/30
f 35/35/35 34/34/34 33/33/33
f 36/36/36 33/33/33 34/34/34
f 39/39/39 38/38/38 37/37/37
f 40/40/40 37/37/37 38/38/38
f 43/43/43 42/42/42 41/41/41
f 44/44/44 41/41/41 42/42/42
f 47/47/47 46/46/46 45/45/45
f 48/48/48 45/45/45 46/46/46
f 51/51/51 50/50/50 49/49/49
f 52/52/52 49/49/49 50/50/50
f 55/55/55 54/54/54 53/53/53
f 56/56/56 53/53/53 54/54/54
f 59/59/59 58/58/58 57/57/57
f 60/60/60 57/57/57 58/58/58
f 63/63/63 62/62/62 61/61/61
f 64/64/64 61/61/61 62/62/62
f 67/67/67 66/66/66 65/65/65
f 66/66/66 68/68/68 65/65/65
f 65/65/65 68/68/68 69/69/69
f 70/70/70 68/68/68 66/66/66
f 71/71/71 70/70/70 66/66/66
f 72/72/72 68/68/68 70/70/70
f 75/75/75 74/74/74 73/73/73
f 76/76/76 73/73/73 74/74/74
f 73/73/73 76/76/76 77/77/77
f 78/78/78 77/77/77 76/76/76
f 77/77/77 78/78/78 79/79/79
f 80/80/80 79/79/79 78/78/78
f 79/79/79 80/80/80 81/81/81
f 82/82/82 81/81/81 80/80/80
f 85/85/85 84/84/84 83/83/83
f 86/86/86 83/83/83 84/84/84
f 83/83/83 86/86/86 87/87/87
f 88/88/88 87/87/87 86/86/86
f 87/87/87 88/88/88 89/89/89
f 90/90/90 89/89/89 88/88/88
f 89/89/89 90/90/90 91/91/91
f 92/92/92 91/91/91 90/90/90
f 95/95/95 94/94/94 93/93/93
f 94/94/94 96/96/96 93/93/93
f 93/93/93 96/96/96 97/97/97
f 98/98/98 96/96/96 94/94/94
f 99/99/99 98/98/98 94/94/94
f 100/100/100 96/96/96 98/98/98
f 103/103/103 102/102/102 101/101/101
f 104/104/104 101/101/101 102/102/102
