g [gimmick]keydoor
v 1.2623976 0.7413655 0.32844254
v 1.2657235 0.4386965 0.32655662
v 0.5036739 0.43869627 0.32655656
v 0.50367415 0.7413654 0.32844248
v -0.2550493 0.74136525 0.3284424
v -0.2583753 0.43869618 0.3265565
v 1.3330331 0.7408923 -1.3295808
v 1.3393735 0.4377682 -1.3335216
v 1.3382707 0.4388715 0.24630946
v 1.3317829 0.74206984 0.24866499
v -0.32443643 0.74206984 0.24866492
v -0.33092433 0.43887112 0.24630938
v -0.33202672 0.43776786 -1.3335221
v -0.32568657 0.74089205 -1.3295809
v -0.2550493 0.74136525 0.3284424
v -0.2583753 0.43869618 0.3265565
v -0.33092433 0.43887112 0.24630938
v -0.32443643 0.74206984 0.24866492
v 1.3382707 0.4388715 0.24630946
v 1.2657235 0.4386965 0.32655662
v 1.2623976 0.7413655 0.32844254
v 1.3317829 0.74206984 0.24866499
v -0.28952274 0.40837634 0.39985397
v 0.5036739 0.029336974 0.41019565
v -0.2968834 0.029336909 0.41019565
v 0.5036742 0.40837634 0.39985397
v 1.2968713 0.4083765 0.39985397
v 1.304231 0.029337041 0.41019565
v 1.4160199 0.029336715 0.29840344
v 1.4117997 0.408376 0.27577496
v 1.4118001 0.40837625 -1.3642654
v 1.4160193 0.029336955 -1.3726991
v -0.40867174 0.029336741 -1.3726991
v -0.4044528 0.4083757 -1.3642657
v -0.40445337 0.40837556 0.2757753
v -0.4086726 0.029336484 0.29840407
v -0.4086726 0.029336484 0.29840407
v -0.40445337 0.40837556 0.2757753
v -0.28952274 0.40837634 0.39985397
v -0.2968834 0.029336909 0.41019565
v 1.2968713 0.4083765 0.39985397
v 1.4117997 0.408376 0.27577496
v 1.4160199 0.029336715 0.29840344
v 1.304231 0.029337041 0.41019565
v 0.5036742 0.40837634 0.39985397
v -0.28952274 0.40837634 0.39985397
v -0.2583753 0.43869618 0.3265565
v 0.5036739 0.43869627 0.32655656
v 1.2657235 0.4386965 0.32655662
v 1.2968713 0.4083765 0.39985397
v 1.2968713 0.4083765 0.39985397
v 1.2657235 0.4386965 0.32655662
v 1.3382707 0.4388715 0.24630946
v 1.4117997 0.408376 0.27577496
v 1.4117997 0.408376 0.27577496
v 1.3382707 0.4388715 0.24630946
v 1.3393735 0.4377682 -1.3335216
v 1.4118001 0.40837625 -1.3642654
v 1.301721 0.44672573 -1.4818904
v -0.4044528 0.4083757 -1.3642657
v -0.33092433 0.43887112 0.24630938
v -0.40445337 0.40837556 0.2757753
v -0.33202672 0.43776786 -1.3335221
v -0.29437166 0.44672555 -1.4818904
v -0.40445337 0.40837556 0.2757753
v -0.33092433 0.43887112 0.24630938
v -0.2583753 0.43869618 0.3265565
v -0.28952274 0.40837634 0.39985397
vt 0.6282307 0.076319695
vt 0.6285482 0.054882742
vt 0.5558096 0.05488269
vt 0.5558096 0.076319635
vt 0.6282307 0.076319635
vt 0.6285482 0.05488269
vt 0.5137362 0.061698776
vt 0.5137362 0.04612033
vt 0.54101586 0.04612033
vt 0.54101586 0.061698776
vt 0.54101586 0.061698776
vt 0.54101586 0.04612033
vt 0.5137362 0.04612033
vt 0.5137362 0.061698776
vt 0.55275816 0.061698776
vt 0.55275816 0.04612033
vt 0.54353064 0.04612033
vt 0.54353064 0.061698776
vt 0.54353064 0.04612033
vt 0.55275816 0.04612033
vt 0.55275816 0.061698776
vt 0.54353064 0.061698776
vt 0.6315211 0.043623086
vt 0.55580956 0.0070675253
vt 0.63222367 0.0070675253
vt 0.55580956 0.043623086
vt 0.63152117 0.043623086
vt 0.6322236 0.0070675253
vt 0.54101586 0.0042559234
vt 0.54101586 0.03678793
vt 0.5137362 0.03678793
vt 0.5137362 0.0042559234
vt 0.5137362 0.0042559234
vt 0.5137362 0.03678793
vt 0.54101586 0.03678793
vt 0.54101586 0.0042559234
vt 0.54128003 0.0042559234
vt 0.54128003 0.03678793
vt 0.55068314 0.03678793
vt 0.55068314 0.0042559234
vt 0.55068314 0.03678793
vt 0.54128003 0.03678793
vt 0.54128003 0.0042559234
vt 0.55068314 0.0042559234
vt 0.55580956 0.043623086
vt 0.63152117 0.043623086
vt 0.6285481 0.050257068
vt 0.5558096 0.050257027
vt 0.6285482 0.050257068
vt 0.6315213 0.043623127
vt 0.53363806 0.03791003
vt 0.53363806 0.04373655
vt 0.5342403 0.04373655
vt 0.5342403 0.03791003
vt 0.5342403 0.03791003
vt 0.5342403 0.04373655
vt 0.5137362 0.04373655
vt 0.5137362 0.03791003
vt 0.52343655 0.043036144
vt 0.5137362 0.03791003
vt 0.5342403 0.04373655
vt 0.5342403 0.03791003
vt 0.5137362 0.04373655
vt 0.52343655 0.043036338
vt 0.5342403 0.03791003
vt 0.5342403 0.04373655
vt 0.53363806 0.04373655
vt 0.53363806 0.03791003
vn -0 -0.0062308297 0.99998057
vn -0 -0.0062308297 0.99998057
vn -0 -0.0062307976 0.99998057
vn -0 -0.006230797 0.99998057
vn -0 -0.0062307655 0.99998057
vn -0 -0.006230766 0.99998057
vn 0.9997762 0.021144701 0.0007296148
vn 0.9997762 0.021144703 0.00072961475
vn 0.9997762 0.021144703 0.00072961475
vn 0.9997762 0.021144701 0.0007296148
vn -0.9997762 0.021144817 0.00072949193
vn -0.9997762 0.021144817 0.000729492
vn -0.9997762 0.021144817 0.0007294919
vn -0.9997762 0.021144815 0.000729492
vn -0.7480824 0.0074721687 0.66356367
vn -0.7480824 0.007472169 0.66356367
vn -0.7480824 0.0074721677 0.66356367
vn -0.74808246 0.00747217 0.66356367
vn 0.74809116 0.0074719167 0.66355395
vn 0.74809116 0.0074719167 0.6635539
vn 0.74809116 0.0074719163 0.66355383
vn 0.7480911 0.007471917 0.66355395
vn -0 0.02727373 0.99962795
vn -0 0.027273728 0.99962795
vn -0 0.027273728 0.99962795
vn -0 0.027273724 0.99962795
vn -0 0.02727373 0.99962795
vn -0 0.02727373 0.99962795
vn 0.999938 0.011132135 0
vn 0.999938 0.011132135 0
vn 0.999938 0.011132134 0
vn 0.999938 0.011132134 0
vn -0.99993813 0.011130311 -4.394714E-07
vn -0.99993813 0.0111303115 -4.394714E-07
vn -0.99993813 0.01113031 -4.3947136E-07
vn -0.99993813 0.011130311 -4.394714E-07
vn -0.72034335 0.04111731 0.69239783
vn -0.72034335 0.04111731 0.69239783
vn -0.7203433 0.041117307 0.6923979
vn -0.7203433 0.04111731 0.6923979
vn 0.72034866 0.041117135 0.6923924
vn 0.7203486 0.04111713 0.6923924
vn 0.7203486 0.04111713 0.6923924
vn 0.7203486 0.04111713 0.6923924
vn -1.5090488E-07 0.9240615 0.3822439
vn -0 0.9240617 0.3822433
vn -0 0.9240617 0.38224334
vn -1.5090448E-07 0.9240615 0.3822439
vn -2.3752791E-07 0.9240613 0.3822445
vn -2.3752791E-07 0.9240613 0.3822445
vn 0.28192592 0.923686 0.25946474
vn 0.2819259 0.923686 0.25946474
vn 0.28192592 0.923686 0.25946474
vn 0.2819259 0.923686 0.25946474
vn 0.37959933 0.92515105 -0.00018688239
vn 0.37959927 0.92515105 -0.00018688236
vn 0.37959927 0.92515105 -0.00018688236
vn 0.37959927 0.92515105 -0.00018688236
vn 0.3626974 0.9312182 -0.03582316
vn -0.37960225 0.9251498 -0.0001870488
vn -0.37960225 0.9251498 -0.00018704879
vn -0.37960225 0.9251498 -0.00018704879
vn -0.37960225 0.9251498 -0.00018704879
vn -0.36270025 0.93121684 -0.035829417
vn -0.28192306 0.92368644 0.25946656
vn -0.28192306 0.92368644 0.25946656
vn -0.28192306 0.92368644 0.25946656
vn -0.28192306 0.92368644 0.2594666
g [gimmick]keydoor_0
f 3/3/3 2/2/2 1/1/1
f 4/4/4 3/3/3 1/1/1
f 3/3/3 4/4/4 5/5/5
f 6/6/6 3/3/3 5/5/5
f 9/9/9 8/8/8 7/7/7
f 10/10/10 9/9/9 7/7/7
f 13/13/13 12/12/12 11/11/11
f 14/14/14 13/13/13 11/11/11
f 17/17/17 16/16/16 15/15/15
f 18/18/18 17/17/17 15/15/15
f 21/21/21 20/20/20 19/19/19
f 22/22/22 21/21/21 19/19/19
f 25/25/25 24/24/24 23/23/23
f 24/24/24 26/26/26 23/23/23
f 27/27/27 26/26/26 24/24/24
f 28/28/28 27/27/27 24/24/24
f 31/31/31 30/30/30 29/29/29
f 32/32/32 31/31/31 29/29/29
f 35/35/35 34/34/34 33/33/33
f 36/36/36 35/35/35 33/33/33
f 39/39/39 38/38/38 37/37/37
f 40/40/40 39/39/39 37/37/37
f 43/43/43 42/42/42 41/41/41
f 44/44/44 43/43/43 41/41/41
f 47/47/47 46/46/46 45/45/45
f 48/48/48 47/47/47 45/45/45
f 49/49/49 48/48/48 45/45/45
f 50/50/50 49/49/49 45/45/45
f 53/53/53 52/52/52 51/51/51
f 54/54/54 53/53/53 51/51/51
f 57/57/57 56/56/56 55/55/55
f 58/58/58 57/57/57 55/55/55
f 59/59/59 57/57/57 58/58/58
f 62/62/62 61/61/61 60/60/60
f 61/61/61 63/63/63 60/60/60
f 60/60/60 63/63/63 64/64/64
f 67/67/67 66/66/66 65/65/65
f 68/68/68 67/67/67 65/65/65
