g [GIMMICK]crystal_blue2
v -0.1500013 0.14937423 0.03567543
v 0.15000175 0.14937414 0.035675503
v 1.53656E-07 0 0.18460083
v 0.15000175 0.14937414 0.035675503
v 0.1500013 -0.14937392 0.035675503
v 1.53656E-07 0 0.18460083
v 0.1500013 -0.14937392 0.035675503
v -0.15000167 -0.14937423 0.03567558
v 1.53656E-07 0 0.18460083
v -0.15000167 -0.14937423 0.03567558
v -0.1500013 0.14937423 0.03567543
v 1.53656E-07 0 0.18460083
v -0.1500013 0.14937423 0.03567543
v 1.53656E-07 0 -0.18460083
v 0.15000175 0.14937414 0.035675503
v 0.15000175 0.14937414 0.035675503
v 1.53656E-07 0 -0.18460083
v 0.1500013 -0.14937392 0.035675503
v 0.1500013 -0.14937392 0.035675503
v 1.53656E-07 0 -0.18460083
v -0.15000167 -0.14937423 0.03567558
v -0.15000167 -0.14937423 0.03567558
v 1.53656E-07 0 -0.18460083
v -0.1500013 0.14937423 0.03567543
vt 0.11363466 0.7695259
vt 0.0074033597 0.7695259
vt 0.060547464 0.84188455
vt 0.11363466 0.7695259
vt 0.0074038757 0.7695259
vt 0.06054762 0.84188455
vt 0.0074033597 0.7695259
vt 0.11363466 0.7695259
vt 0.060547464 0.84188455
vt 0.11363466 0.7695259
vt 0.0074038757 0.7695259
vt 0.06054762 0.84188455
vt 0.11363466 0.7695259
vt 0.060547464 0.6613962
vt 0.0074033597 0.7695259
vt 0.11363466 0.7695259
vt 0.06054762 0.6613962
vt 0.0074038757 0.7695259
vt 0.0074033597 0.7695259
vt 0.060547464 0.6613962
vt 0.11363466 0.7695259
vt 0.11363466 0.7695259
vt 0.06054762 0.6613962
vt 0.0074038757 0.7695259
vn -0 0.70604205 0.70816994
vn -0 0.70604205 0.7081699
vn -0 0.70604205 0.70816994
vn 0.70455676 -1.0871305E-06 0.7096476
vn 0.7045568 -1.0871305E-06 0.7096476
vn 0.7045568 -1.0871305E-06 0.7096476
vn 9.045993E-07 -0.7060421 0.7081698
vn 9.0459935E-07 -0.7060421 0.7081698
vn 9.045993E-07 -0.70604205 0.7081699
vn -0.70455617 1.2709353E-06 0.7096482
vn -0.70455617 1.2709353E-06 0.7096482
vn -0.70455617 1.2709353E-06 0.7096482
vn 3.5568317E-07 0.8276486 -0.56124663
vn 3.556832E-07 0.8276486 -0.56124663
vn 3.556832E-07 0.8276486 -0.56124663
vn 0.8265538 -1.2753718E-06 -0.56285757
vn 0.8265538 -1.2753718E-06 -0.56285757
vn 0.8265538 -1.2753718E-06 -0.56285757
vn 7.0408294E-07 -0.8276489 -0.5612462
vn 7.0408294E-07 -0.8276489 -0.5612462
vn 7.0408294E-07 -0.8276489 -0.5612462
vn -0.82655334 7.7331174E-07 -0.56285834
vn -0.82655334 7.733116E-07 -0.56285834
vn -0.8265534 7.733117E-07 -0.5628583
g [GIMMICK]crystal_blue2_0
f 3/3/3 2/2/2 1/1/1
f 6/6/6 5/5/5 4/4/4
f 9/9/9 8/8/8 7/7/7
f 12/12/12 11/11/11 10/10/10
f 15/15/15 14/14/14 13/13/13
f 18/18/18 17/17/17 16/16/16
f 21/21/21 20/20/20 19/19/19
f 24/24/24 23/23/23 22/22/22
