g [GIMMICK]metal_push_block2_fx_c
v -0.9110951 0.7677062 0.9714902
v -0.9196402 0.7081063 1.0318038
v -0.9806579 0.708106 0.98003423
v -0.9903988 0.70810616 -0.8495062
v -0.9098984 0.70810616 -0.9300067
v -0.9110951 0.76770663 -0.850703
v 0.9131484 0.7081064 -0.9267597
v 0.98715496 0.7081064 -0.85275316
v 0.9110982 0.76770663 -0.850703
v 0.980661 0.708106 0.98003423
v 0.91964173 0.7081063 1.0318038
v 0.9110982 0.7677062 0.9714902
v -0.9110951 0.7677062 0.9714902
v -0.9110951 0.76770663 -0.850703
v 0.9110982 0.76770663 -0.850703
v 0.9110982 0.7677062 0.9714902
v 0.9131484 0.7081064 -0.9267597
v -0.9098984 0.70810616 -0.9300067
v -1.1247948 -0.6103496 -1.185187
v 1.1247979 -0.61034966 -1.185187
v 0.980661 0.708106 0.98003423
v 0.98715496 0.7081064 -0.85275316
v 1.2455817 -0.61034966 -1.064403
v 1.2455817 -0.6103501 1.1851896
v -0.9903988 0.70810616 -0.8495062
v -0.9806579 0.708106 0.98003423
v -1.2455786 -0.61035 1.1851896
v -1.2455786 -0.6103497 -1.064403
v -0.9098984 0.70810616 -0.9300067
v -0.9903988 0.70810616 -0.8495062
v -1.2455786 -0.6103497 -1.064403
v -1.1247948 -0.6103496 -1.185187
v 0.98715496 0.7081064 -0.85275316
v 0.9131484 0.7081064 -0.9267597
v 1.1247979 -0.61034966 -1.185187
v 1.2455817 -0.61034966 -1.064403
v -0.9196402 0.7081063 1.0318038
v -0.9110951 0.7677062 0.9714902
v 0.9110982 0.7677062 0.9714902
v 0.91964173 0.7081063 1.0318038
v 0.9110982 0.7677062 0.9714902
v 0.9110982 0.76770663 -0.850703
v 0.98715496 0.7081064 -0.85275316
v 0.980661 0.708106 0.98003423
v 0.9110982 0.76770663 -0.850703
v -0.9110951 0.76770663 -0.850703
v -0.9098984 0.70810616 -0.9300067
v 0.9131484 0.7081064 -0.9267597
v 1.0344238 -0.76770663 -1.1249303
v 1.1247979 -0.61034966 -1.185187
v -1.1247948 -0.6103496 -1.185187
v -1.0344207 -0.76770663 -1.1249303
v -0.9110951 0.7677062 0.9714902
v -0.9806579 0.708106 0.98003423
v -0.9903988 0.70810616 -0.8495062
v -0.9110951 0.76770663 -0.850703
vt 0.1342682 0.090153426
vt 0.130838 0.06470871
vt 0.10634434 0.086548954
vt 0.10243416 0.8583845
vt 0.13474855 0.89234555
vt 0.1342682 0.85888934
vt 0.86655414 0.8909757
vt 0.8962618 0.8597543
vt 0.8657311 0.85888934
vt 0.89365494 0.086548954
vt 0.8691607 0.06470871
vt 0.8657311 0.090153426
vt 0.1342682 0.090153426
vt 0.1342682 0.85888934
vt 0.8657311 0.85888934
vt 0.8657311 0.090153426
vt 0.86655414 0.96118295
vt 0.13474855 0.96118283
vt 0.04848504 0.10248512
vt 0.95151424 0.10248512
vt 0.086548954 0.9611824
vt 0.8597543 0.96118295
vt 0.949044 0.10248509
vt -7.1525574E-07 0.10248461
vt 0.8583845 0.96118283
vt 0.086548954 0.9611824
vt -7.1525574E-07 0.10248464
vt 0.949044 0.10248506
vt 0.89234555 0.96118283
vt 0.8583845 0.96118283
vt 0.949044 0.10248506
vt 0.9999995 0.10248512
vt 0.8597543 0.96118295
vt 0.8909757 0.96118295
vt 0.9999995 0.10248512
vt 0.949044 0.10248509
vt 0.130838 0.06470871
vt 0.1342682 0.090153426
vt 0.8657311 0.090153426
vt 0.8691607 0.06470871
vt 0.8657311 0.090153426
vt 0.8657311 0.85888934
vt 0.8962618 0.8597543
vt 0.89365494 0.086548954
vt 0.8657311 0.85888934
vt 0.1342682 0.85888934
vt 0.13474855 0.89234555
vt 0.86655414 0.8909757
vt 0.9152365 2.9802322E-08
vt 0.95151424 0.10248512
vt 0.04848504 0.10248512
vt 0.0847629 2.9802322E-08
vt 0.1342682 0.090153426
vt 0.10634434 0.086548954
vt 0.10243416 0.8583845
vt 0.1342682 0.85888934
vn -0.4894445 0.65395683 0.5768748
vn -0.48944455 0.65395683 0.5768748
vn -0.48944455 0.65395683 0.5768748
vn -0.51865476 0.6797022 -0.5186542
vn -0.5186548 0.6797022 -0.5186541
vn -0.51865476 0.6797022 -0.5186541
vn 0.51865375 0.6797032 -0.51865375
vn 0.51865375 0.6797032 -0.51865375
vn 0.5186538 0.6797032 -0.5186538
vn 0.48943973 0.65395254 0.5768838
vn 0.48943976 0.6539525 0.5768838
vn 0.48943976 0.6539525 0.5768838
vn -0 1 0
vn -0 1 0
vn -0 1 0
vn -0 1 0
vn 0.00078255474 0.19118237 -0.98155427
vn 0.0007825546 0.19118237 -0.98155427
vn 0.0007825547 0.19118237 -0.98155427
vn 0.0007825546 0.19118237 -0.98155427
vn 0.9808678 0.1946689 0.0015603366
vn 0.9808678 0.1946689 0.0015603368
vn 0.9808678 0.19466893 0.0015603368
vn 0.9808678 0.19466892 0.0015603368
vn -0.9810972 0.19350156 0.0023428833
vn -0.9810972 0.19350155 0.0023428826
vn -0.9810972 0.19350156 0.002342883
vn -0.9810972 0.19350156 0.0023428833
vn -0.685653 0.24445972 -0.6856527
vn -0.685653 0.24445975 -0.6856527
vn -0.685653 0.24445972 -0.6856526
vn -0.68565303 0.24445975 -0.68565255
vn 0.6856527 0.24445975 -0.68565285
vn 0.68565273 0.24445972 -0.6856528
vn 0.68565273 0.24445972 -0.6856528
vn 0.6856528 0.24445972 -0.6856528
vn -0 0.7113028 0.70288575
vn -0 0.7113028 0.70288575
vn -0 0.7113028 0.7028857
vn -0 0.71130276 0.70288575
vn 0.6333893 0.77383256 0.0011255383
vn 0.6333893 0.7738325 0.0011255383
vn 0.6333893 0.7738325 0.0011255383
vn 0.6333893 0.7738325 0.0011255383
vn 0.0005421716 0.7933872 -0.608717
vn 0.00054217153 0.7933872 -0.608717
vn 0.00054217153 0.7933872 -0.608717
vn 0.0005421716 0.7933872 -0.6087171
vn -0 -0.35760745 -0.933872
vn -0 -0.35760748 -0.933872
vn -0 -0.35760745 -0.933872
vn -0 -0.35760748 -0.933872
vn -0.62497103 0.7806461 0.00166723
vn -0.62497103 0.7806461 0.00166723
vn -0.62497103 0.78064615 0.0016672303
vn -0.62497103 0.78064615 0.00166723
g [GIMMICK]metal_push_block2_fx_c_0
f 3/3/3 2/2/2 1/1/1
f 6/6/6 5/5/5 4/4/4
f 9/9/9 8/8/8 7/7/7
f 12/12/12 11/11/11 10/10/10
f 15/15/15 14/14/14 13/13/13
f 16/16/16 15/15/15 13/13/13
f 19/19/19 18/18/18 17/17/17
f 20/20/20 19/19/19 17/17/17
f 23/23/23 22/22/22 21/21/21
f 24/24/24 23/23/23 21/21/21
f 27/27/27 26/26/26 25/25/25
f 28/28/28 27/27/27 25/25/25
f 31/31/31 30/30/30 29/29/29
f 32/32/32 31/31/31 29/29/29
f 35/35/35 34/34/34 33/33/33
f 36/36/36 35/35/35 33/33/33
f 39/39/39 38/38/38 37/37/37
f 40/40/40 39/39/39 37/37/37
f 43/43/43 42/42/42 41/41/41
f 44/44/44 43/43/43 41/41/41
f 47/47/47 46/46/46 45/45/45
f 48/48/48 47/47/47 45/45/45
f 51/51/51 50/50/50 49/49/49
f 52/52/52 51/51/51 49/49/49
f 55/55/55 54/54/54 53/53/53
f 56/56/56 55/55/55 53/53/53
