g [GIMMICK]waypoint_crystal
v -0.34554175 0.0046272543 -0.022543004
v -0.022146745 0.0046272543 -0.34594113
v -0.022142299 0.37686226 -0.022541938
v 0.02213477 0.0046272543 -0.3459413
v 0.34553948 0.0046272543 -0.022543024
v 0.022139218 0.37686256 -0.02254173
v 0.3455397 0.0046272543 0.021738296
v 0.02213966 0.0046284837 0.34513876
v 0.022139564 0.37686256 0.021739585
v -0.022141717 0.0046284837 0.34513873
v -0.34554148 0.0046272543 0.021738542
v -0.022141818 0.37686256 0.021739613
v -0.3437949 -0.042003714 -0.022878919
v -0.022479225 -0.3786534 -0.022878472
v -0.022482667 -0.042003714 -0.34419426
v 0.022470567 -0.042003714 -0.34419453
v 0.02247402 -0.3786538 -0.022878299
v 0.34379253 -0.042003714 -0.022878971
v 0.3437929 -0.042003714 0.022074087
v 0.022474408 -0.3786538 0.022074752
v 0.022475475 -0.042002656 0.3433919
v -0.022477718 -0.042002656 0.34339178
v -0.022478778 -0.3786538 0.022074742
v -0.34379473 -0.042003714 0.022074318
v -0.3855209 0.006638554 -0.025104849
v -0.024704007 0.4219413 -0.025103658
v -0.024708968 0.006638554 -0.38592026
v 0.024695935 0.006638554 -0.38592046
v 0.024700897 0.4219417 -0.025103426
v 0.3855187 0.006638554 -0.02510487
v 0.3855189 0.006638554 0.024299819
v 0.024701282 0.4219417 0.024301253
v 0.02470139 0.006639937 0.3851179
v -0.02470336 0.006639937 0.38511783
v -0.024703473 0.4219417 0.024301287
v -0.38552058 0.006638554 0.024300095
v -0.38357195 -0.045387622 -0.02547963
v -0.02508376 -0.045387622 -0.38397124
v -0.025079915 -0.42098778 -0.025479129
v 0.025070585 -0.045387622 -0.38397157
v 0.3835696 -0.045387622 -0.02547969
v 0.025074437 -0.42098826 -0.025478933
v 0.38357008 -0.045387622 0.024674455
v 0.02507606 -0.04538645 0.3831689
v 0.02507487 -0.42098826 0.024675202
v -0.025078235 -0.04538645 0.38316876
v -0.3835718 -0.045387622 0.024674712
v -0.025079418 -0.42098826 0.02467519
v -0.34554175 0.0046272543 -0.022543004
v -0.34554148 0.0046272543 0.021738542
v -0.34379473 -0.042003714 0.022074318
v -0.3437949 -0.042003714 -0.022878919
v -0.022141818 0.37686256 0.021739613
v -0.022142299 0.37686226 -0.022541938
v 0.022139218 0.37686256 -0.02254173
v 0.022139564 0.37686256 0.021739585
v -0.022146745 0.0046272543 -0.34594113
v -0.022482667 -0.042003714 -0.34419426
v 0.022470567 -0.042003714 -0.34419453
v 0.02213477 0.0046272543 -0.3459413
v 0.3455397 0.0046272543 0.021738296
v 0.34553948 0.0046272543 -0.022543024
v 0.34379253 -0.042003714 -0.022878971
v 0.3437929 -0.042003714 0.022074087
v -0.022477718 -0.042002656 0.34339178
v -0.022141717 0.0046284837 0.34513873
v 0.02213966 0.0046284837 0.34513876
v 0.022475475 -0.042002656 0.3433919
v -0.022479225 -0.3786534 -0.022878472
v -0.022478778 -0.3786538 0.022074742
v 0.022474408 -0.3786538 0.022074752
v 0.02247402 -0.3786538 -0.022878299
v -0.34554175 0.0046272543 -0.022543004
v -0.022142299 0.37686226 -0.022541938
v -0.022141818 0.37686256 0.021739613
v -0.34554148 0.0046272543 0.021738542
v -0.022142299 0.37686226 -0.022541938
v -0.022146745 0.0046272543 -0.34594113
v 0.02213477 0.0046272543 -0.3459413
v 0.022139218 0.37686256 -0.02254173
v -0.022146745 0.0046272543 -0.34594113
v -0.34554175 0.0046272543 -0.022543004
v -0.3437949 -0.042003714 -0.022878919
v -0.022482667 -0.042003714 -0.34419426
v 0.022139218 0.37686256 -0.02254173
v 0.34553948 0.0046272543 -0.022543024
v 0.3455397 0.0046272543 0.021738296
v 0.022139564 0.37686256 0.021739585
v 0.34553948 0.0046272543 -0.022543024
v 0.02213477 0.0046272543 -0.3459413
v 0.022470567 -0.042003714 -0.34419453
v 0.34379253 -0.042003714 -0.022878971
v 0.022139564 0.37686256 0.021739585
v 0.02213966 0.0046284837 0.34513876
v -0.022141717 0.0046284837 0.34513873
v -0.022141818 0.37686256 0.021739613
v 0.02213966 0.0046284837 0.34513876
v 0.3455397 0.0046272543 0.021738296
v 0.3437929 -0.042003714 0.022074087
v 0.022475475 -0.042002656 0.3433919
v -0.34554148 0.0046272543 0.021738542
v -0.022141717 0.0046284837 0.34513873
v -0.022477718 -0.042002656 0.34339178
v -0.34379473 -0.042003714 0.022074318
v -0.34379473 -0.042003714 0.022074318
v -0.022478778 -0.3786538 0.022074742
v -0.022479225 -0.3786534 -0.022878472
v -0.3437949 -0.042003714 -0.022878919
v -0.022482667 -0.042003714 -0.34419426
v -0.022479225 -0.3786534 -0.022878472
v 0.02247402 -0.3786538 -0.022878299
v 0.022470567 -0.042003714 -0.34419453
v 0.34379253 -0.042003714 -0.022878971
v 0.02247402 -0.3786538 -0.022878299
v 0.022474408 -0.3786538 0.022074752
v 0.3437929 -0.042003714 0.022074087
v 0.022475475 -0.042002656 0.3433919
v 0.022474408 -0.3786538 0.022074752
v -0.022478778 -0.3786538 0.022074742
v -0.022477718 -0.042002656 0.34339178
v -0.3855209 0.006638554 -0.025104849
v -0.38357195 -0.045387622 -0.02547963
v -0.3835718 -0.045387622 0.024674712
v -0.38552058 0.006638554 0.024300095
v -0.024703473 0.4219417 0.024301287
v 0.024701282 0.4219417 0.024301253
v 0.024700897 0.4219417 -0.025103426
v -0.024704007 0.4219413 -0.025103658
v -0.024708968 0.006638554 -0.38592026
v 0.024695935 0.006638554 -0.38592046
v 0.025070585 -0.045387622 -0.38397157
v -0.02508376 -0.045387622 -0.38397124
v 0.3855189 0.006638554 0.024299819
v 0.38357008 -0.045387622 0.024674455
v 0.3835696 -0.045387622 -0.02547969
v 0.3855187 0.006638554 -0.02510487
v -0.025078235 -0.04538645 0.38316876
v 0.02507606 -0.04538645 0.3831689
v 0.02470139 0.006639937 0.3851179
v -0.02470336 0.006639937 0.38511783
v -0.025079915 -0.42098778 -0.025479129
v 0.025074437 -0.42098826 -0.025478933
v 0.02507487 -0.42098826 0.024675202
v -0.025079418 -0.42098826 0.02467519
v -0.3855209 0.006638554 -0.025104849
v -0.38552058 0.006638554 0.024300095
v -0.024703473 0.4219417 0.024301287
v -0.024704007 0.4219413 -0.025103658
v -0.024704007 0.4219413 -0.025103658
v 0.024700897 0.4219417 -0.025103426
v 0.024695935 0.006638554 -0.38592046
v -0.024708968 0.006638554 -0.38592026
v -0.024708968 0.006638554 -0.38592026
v -0.02508376 -0.045387622 -0.38397124
v -0.38357195 -0.045387622 -0.02547963
v -0.3855209 0.006638554 -0.025104849
v 0.024700897 0.4219417 -0.025103426
v 0.024701282 0.4219417 0.024301253
v 0.3855189 0.006638554 0.024299819
v 0.3855187 0.006638554 -0.02510487
v 0.3855187 0.006638554 -0.02510487
v 0.3835696 -0.045387622 -0.02547969
v 0.025070585 -0.045387622 -0.38397157
v 0.024695935 0.006638554 -0.38592046
v 0.024701282 0.4219417 0.024301253
v -0.024703473 0.4219417 0.024301287
v -0.02470336 0.006639937 0.38511783
v 0.02470139 0.006639937 0.3851179
v 0.02470139 0.006639937 0.3851179
v 0.02507606 -0.04538645 0.3831689
v 0.38357008 -0.045387622 0.024674455
v 0.3855189 0.006638554 0.024299819
v -0.38552058 0.006638554 0.024300095
v -0.3835718 -0.045387622 0.024674712
v -0.025078235 -0.04538645 0.38316876
v -0.02470336 0.006639937 0.38511783
v -0.3835718 -0.045387622 0.024674712
v -0.38357195 -0.045387622 -0.02547963
v -0.025079915 -0.42098778 -0.025479129
v -0.025079418 -0.42098826 0.02467519
v -0.02508376 -0.045387622 -0.38397124
v 0.025070585 -0.045387622 -0.38397157
v 0.025074437 -0.42098826 -0.025478933
v -0.025079915 -0.42098778 -0.025479129
v 0.3835696 -0.045387622 -0.02547969
v 0.38357008 -0.045387622 0.024674455
v 0.02507487 -0.42098826 0.024675202
v 0.025074437 -0.42098826 -0.025478933
v 0.02507606 -0.04538645 0.3831689
v -0.025078235 -0.04538645 0.38316876
v -0.025079418 -0.42098826 0.02467519
v 0.02507487 -0.42098826 0.024675202
vt 0.3244531 0.6030075
vt 0.3119994 0.59033173
vt 0.31199935 0.60301405
vt 0.3103312 0.59033257
vt 0.29841912 0.6030213
vt 0.31033126 0.60301495
vt 0.29841912 0.60475767
vt 0.31033126 0.61743367
vt 0.31033126 0.6047514
vt 0.3119994 0.6174327
vt 0.3244531 0.6047441
vt 0.3119994 0.6047505
vt 0.324395 0.6029943
vt 0.31215605 0.6030008
vt 0.3120215 0.59040016
vt 0.31032807 0.5904011
vt 0.31046256 0.60300165
vt 0.29849264 0.60300803
vt 0.29849264 0.6047708
vt 0.31046262 0.6047645
vt 0.31032813 0.61736506
vt 0.3120215 0.6173643
vt 0.312156 0.6047637
vt 0.324395 0.60475725
vt 0.3244531 0.6030075
vt 0.31199935 0.60301405
vt 0.3119994 0.59033173
vt 0.3103312 0.59033257
vt 0.31033126 0.60301495
vt 0.29841912 0.6030213
vt 0.29841912 0.60475767
vt 0.31033126 0.6047514
vt 0.31033126 0.61743367
vt 0.3119994 0.6174327
vt 0.3119994 0.6047505
vt 0.3244531 0.6047441
vt 0.324395 0.6029943
vt 0.3120215 0.59040016
vt 0.31215605 0.6030008
vt 0.31032807 0.5904011
vt 0.29849264 0.60300803
vt 0.31046256 0.60300165
vt 0.29849264 0.6047708
vt 0.31032813 0.61736506
vt 0.31046262 0.6047645
vt 0.3120215 0.6173643
vt 0.324395 0.60475725
vt 0.312156 0.6047637
vt 0.3244531 0.6030075
vt 0.3244531 0.6047441
vt 0.324395 0.60475725
vt 0.324395 0.6029943
vt 0.3119994 0.6047505
vt 0.31199935 0.60301405
vt 0.31033126 0.60301495
vt 0.31033126 0.6047514
vt 0.3119994 0.59033173
vt 0.3120215 0.59040016
vt 0.31032807 0.5904011
vt 0.3103312 0.59033257
vt 0.29841912 0.60475767
vt 0.29841912 0.6030213
vt 0.29849264 0.60300803
vt 0.29849264 0.6047708
vt 0.3120215 0.6173643
vt 0.3119994 0.6174327
vt 0.31033126 0.61743367
vt 0.31032813 0.61736506
vt 0.31215605 0.6030008
vt 0.312156 0.6047637
vt 0.31046262 0.6047645
vt 0.31046256 0.60300165
vt 0.3244531 0.6030075
vt 0.31199935 0.60301405
vt 0.3119994 0.6047505
vt 0.3244531 0.6047441
vt 0.31199935 0.60301405
vt 0.3119994 0.59033173
vt 0.3103312 0.59033257
vt 0.31033126 0.60301495
vt 0.3119994 0.59033173
vt 0.3244531 0.6030075
vt 0.324395 0.6029943
vt 0.3120215 0.59040016
vt 0.31033126 0.60301495
vt 0.29841912 0.6030213
vt 0.29841912 0.60475767
vt 0.31033126 0.6047514
vt 0.29841912 0.6030213
vt 0.3103312 0.59033257
vt 0.31032807 0.5904011
vt 0.29849264 0.60300803
vt 0.31033126 0.6047514
vt 0.31033126 0.61743367
vt 0.3119994 0.6174327
vt 0.3119994 0.6047505
vt 0.31033126 0.61743367
vt 0.29841912 0.60475767
vt 0.29849264 0.6047708
vt 0.31032813 0.61736506
vt 0.3244531 0.6047441
vt 0.3119994 0.6174327
vt 0.3120215 0.6173643
vt 0.324395 0.60475725
vt 0.324395 0.60475725
vt 0.312156 0.6047637
vt 0.31215605 0.6030008
vt 0.324395 0.6029943
vt 0.3120215 0.59040016
vt 0.31215605 0.6030008
vt 0.31046256 0.60300165
vt 0.31032807 0.5904011
vt 0.29849264 0.60300803
vt 0.31046256 0.60300165
vt 0.31046262 0.6047645
vt 0.29849264 0.6047708
vt 0.31032813 0.61736506
vt 0.31046262 0.6047645
vt 0.312156 0.6047637
vt 0.3120215 0.6173643
vt 0.3244531 0.6030075
vt 0.324395 0.6029943
vt 0.324395 0.60475725
vt 0.3244531 0.6047441
vt 0.3119994 0.6047505
vt 0.31033126 0.6047514
vt 0.31033126 0.60301495
vt 0.31199935 0.60301405
vt 0.3119994 0.59033173
vt 0.3103312 0.59033257
vt 0.31032807 0.5904011
vt 0.3120215 0.59040016
vt 0.29841912 0.60475767
vt 0.29849264 0.6047708
vt 0.29849264 0.60300803
vt 0.29841912 0.6030213
vt 0.3120215 0.6173643
vt 0.31032813 0.61736506
vt 0.31033126 0.61743367
vt 0.3119994 0.6174327
vt 0.31215605 0.6030008
vt 0.31046256 0.60300165
vt 0.31046262 0.6047645
vt 0.312156 0.6047637
vt 0.3244531 0.6030075
vt 0.3244531 0.6047441
vt 0.3119994 0.6047505
vt 0.31199935 0.60301405
vt 0.31199935 0.60301405
vt 0.31033126 0.60301495
vt 0.3103312 0.59033257
vt 0.3119994 0.59033173
vt 0.3119994 0.59033173
vt 0.3120215 0.59040016
vt 0.324395 0.6029943
vt 0.3244531 0.6030075
vt 0.31033126 0.60301495
vt 0.31033126 0.6047514
vt 0.29841912 0.60475767
vt 0.29841912 0.6030213
vt 0.29841912 0.6030213
vt 0.29849264 0.60300803
vt 0.31032807 0.5904011
vt 0.3103312 0.59033257
vt 0.31033126 0.6047514
vt 0.3119994 0.6047505
vt 0.3119994 0.6174327
vt 0.31033126 0.61743367
vt 0.31033126 0.61743367
vt 0.31032813 0.61736506
vt 0.29849264 0.6047708
vt 0.29841912 0.60475767
vt 0.3244531 0.6047441
vt 0.324395 0.60475725
vt 0.3120215 0.6173643
vt 0.3119994 0.6174327
vt 0.324395 0.60475725
vt 0.324395 0.6029943
vt 0.31215605 0.6030008
vt 0.312156 0.6047637
vt 0.3120215 0.59040016
vt 0.31032807 0.5904011
vt 0.31046256 0.60300165
vt 0.31215605 0.6030008
vt 0.29849264 0.60300803
vt 0.29849264 0.6047708
vt 0.31046262 0.6047645
vt 0.31046256 0.60300165
vt 0.31032813 0.61736506
vt 0.3120215 0.6173643
vt 0.312156 0.6047637
vt 0.31046262 0.6047645
vn -0.60249627 0.52345324 -0.60249054
vn -0.60249627 0.52345324 -0.60249054
vn -0.60249627 0.5234533 -0.60249054
vn 0.6024895 0.5234486 -0.60250145
vn 0.6024895 0.52344865 -0.6025015
vn 0.60248953 0.5234486 -0.6025015
vn 0.60249627 0.5234501 0.6024934
vn 0.6024962 0.52345 0.6024934
vn 0.60249627 0.5234501 0.6024934
vn -0.6024964 0.5234498 0.6024935
vn -0.6024964 0.5234498 0.60249346
vn -0.6024964 0.5234498 0.6024936
vn -0.5861137 -0.55941767 -0.5861081
vn -0.5861137 -0.55941767 -0.5861081
vn -0.5861137 -0.55941767 -0.5861081
vn 0.58610624 -0.5594151 -0.5861179
vn 0.58610624 -0.5594151 -0.5861179
vn 0.58610624 -0.55941516 -0.5861179
vn 0.5861106 -0.55941695 0.5861118
vn 0.58611065 -0.559417 0.5861118
vn 0.58611065 -0.559417 0.5861118
vn -0.586112 -0.5594143 0.586113
vn -0.586112 -0.5594143 0.586113
vn -0.586112 -0.5594143 0.586113
vn 0.6024963 -0.5234533 0.6024906
vn 0.6024963 -0.5234533 0.6024905
vn 0.6024963 -0.5234533 0.6024906
vn -0.6024895 -0.5234485 0.6025015
vn -0.6024895 -0.52344847 0.60250145
vn -0.6024895 -0.5234485 0.6025015
vn -0.60249627 -0.52344996 -0.6024934
vn -0.6024963 -0.52345 -0.6024934
vn -0.60249627 -0.52345 -0.60249346
vn 0.6024965 -0.5234497 -0.6024936
vn 0.6024965 -0.52344966 -0.6024936
vn 0.60249645 -0.52344966 -0.6024936
vn 0.5861137 0.55941767 0.5861081
vn 0.58611363 0.5594176 0.586108
vn 0.58611363 0.5594176 0.586108
vn -0.58610624 0.5594151 0.5861179
vn -0.58610624 0.55941516 0.5861179
vn -0.58610624 0.5594151 0.5861179
vn -0.58611065 0.55941695 -0.5861117
vn -0.58611065 0.559417 -0.5861117
vn -0.5861106 0.559417 -0.58611166
vn 0.58611196 0.5594143 -0.586113
vn 0.58611196 0.5594143 -0.586113
vn 0.58611196 0.5594143 -0.586113
vn -0.99929917 -0.037433423 4.731988E-06
vn -0.99929917 -0.03743342 4.7319877E-06
vn -0.99929917 -0.03743342 4.7319877E-06
vn -0.99929917 -0.03743342 4.7319877E-06
vn -3.4699788E-06 1 -3.469955E-06
vn -3.4699792E-06 1 -3.4699551E-06
vn -3.4699792E-06 1 -3.469955E-06
vn -3.4699788E-06 1 -3.469955E-06
vn -5.162006E-06 -0.037434652 -0.99929905
vn -5.162005E-06 -0.037434652 -0.99929905
vn -5.162005E-06 -0.03743465 -0.99929905
vn -5.1620054E-06 -0.037434652 -0.99929905
vn 0.99929905 -0.037435472 -6.88246E-06
vn 0.99929905 -0.03743547 -6.8824593E-06
vn 0.99929905 -0.03743547 -6.8824593E-06
vn 0.99929905 -0.03743547 -6.8824593E-06
vn -1.720786E-06 -0.037436157 0.99929905
vn -1.720786E-06 -0.037436154 0.99929905
vn -1.7207861E-06 -0.037436154 0.99929905
vn -1.7207864E-06 -0.037436157 0.99929905
vn -4.2726556E-06 -1 -4.2726333E-06
vn -4.2726556E-06 -1 -4.2726333E-06
vn -4.2726556E-06 -1 -4.2726333E-06
vn -4.2726556E-06 -1 -4.2726333E-06
vn -0.7548898 0.65585166 4.110081E-06
vn -0.7548898 0.65585166 4.110081E-06
vn -0.7548898 0.65585166 4.110081E-06
vn -0.7548898 0.65585166 4.110081E-06
vn -2.1259061E-06 0.6558515 -0.75489
vn -2.1259063E-06 0.6558514 -0.75489
vn -2.1259063E-06 0.6558514 -0.7548901
vn -2.1259063E-06 0.6558514 -0.7548901
vn -0.7069484 -0.021390568 -0.70694155
vn -0.70694846 -0.02139057 -0.70694155
vn -0.70694846 -0.02139057 -0.70694155
vn -0.7069484 -0.02139057 -0.70694155
vn 0.75488925 0.6558522 -4.8187353E-06
vn 0.75488925 0.65585226 -4.8187358E-06
vn 0.75488925 0.6558522 -4.8187353E-06
vn 0.7548893 0.65585226 -4.8187358E-06
vn 0.70693797 -0.021391297 -0.706952
vn 0.70693797 -0.021391297 -0.706952
vn 0.70693797 -0.021391297 -0.706952
vn 0.70693797 -0.021391297 -0.706952
vn -2.8345553E-07 0.6558522 0.75488925
vn -2.8345553E-07 0.65585226 0.75488925
vn -2.8345556E-07 0.65585226 0.75488925
vn -2.8345556E-07 0.65585226 0.75488925
vn 0.7069453 -0.02139188 0.7069445
vn 0.7069453 -0.02139188 0.7069445
vn 0.7069453 -0.02139188 0.70694464
vn 0.7069453 -0.02139188 0.7069445
vn -0.7069454 -0.021390593 0.7069446
vn -0.7069454 -0.021390593 0.7069446
vn -0.7069455 -0.021390596 0.7069445
vn -0.7069454 -0.021390593 0.7069446
vn -0.7233896 -0.69043994 1.7751014E-06
vn -0.7233896 -0.69044 1.7751014E-06
vn -0.7233896 -0.69044 1.7751017E-06
vn -0.7233896 -0.69043994 1.7751014E-06
vn -3.8460516E-06 -0.6904402 -0.7233895
vn -3.8460507E-06 -0.6904402 -0.7233895
vn -3.846051E-06 -0.6904402 -0.7233895
vn -3.8460507E-06 -0.6904401 -0.7233895
vn 0.72338706 -0.69044274 -6.360778E-06
vn 0.72338706 -0.69044274 -6.360778E-06
vn 0.72338706 -0.69044274 -6.3607777E-06
vn 0.72338706 -0.69044274 -6.360778E-06
vn -1.0354727E-06 -0.69044006 0.72338957
vn -1.0354727E-06 -0.69044006 0.72338957
vn -1.0354727E-06 -0.69044006 0.72338957
vn -1.0354726E-06 -0.69044006 0.72338957
vn 0.99929917 0.03743329 -5.012133E-06
vn 0.99929917 0.037433285 -5.012133E-06
vn 0.99929917 0.03743329 -5.012132E-06
vn 0.99929917 0.03743329 -5.012133E-06
vn 3.887669E-06 -1 3.887642E-06
vn 3.887669E-06 -1 3.887642E-06
vn 3.887669E-06 -1 3.887642E-06
vn 3.887669E-06 -1 3.8876424E-06
vn 5.0127173E-06 0.03743476 0.99929905
vn 5.0127173E-06 0.03743476 0.99929905
vn 5.0127173E-06 0.037434757 0.99929905
vn 5.012717E-06 0.037434757 0.99929905
vn -0.99929905 0.037435133 6.939997E-06
vn -0.99929905 0.03743513 6.9399966E-06
vn -0.99929905 0.03743513 6.939996E-06
vn -0.99929905 0.037435133 6.939997E-06
vn 1.9281215E-06 0.037436087 -0.99929905
vn 1.9281213E-06 0.037436087 -0.99929905
vn 1.9281213E-06 0.037436087 -0.99929905
vn 1.9281213E-06 0.037436087 -0.99929905
vn 4.595487E-06 1 4.595463E-06
vn 4.595487E-06 1 4.595463E-06
vn 4.595487E-06 1 4.595463E-06
vn 4.595487E-06 1 4.595463E-06
vn 0.75488985 -0.65585154 -4.2126835E-06
vn 0.75488985 -0.65585154 -4.2126844E-06
vn 0.75488985 -0.65585154 -4.2126835E-06
vn 0.75488985 -0.6558515 -4.2126835E-06
vn 2.3340572E-06 -0.6558514 0.75488997
vn 2.334057E-06 -0.6558514 0.75488997
vn 2.3340572E-06 -0.6558515 0.75489
vn 2.3340574E-06 -0.6558515 0.75489
vn 0.70694846 0.021390539 0.70694155
vn 0.7069484 0.021390539 0.70694155
vn 0.7069484 0.021390539 0.70694155
vn 0.70694846 0.021390539 0.70694155
vn -0.75488937 -0.65585214 4.5542715E-06
vn -0.75488937 -0.65585214 4.5542715E-06
vn -0.75488937 -0.65585214 4.5542715E-06
vn -0.75488937 -0.65585214 4.554272E-06
vn -0.70693797 0.021391379 0.70695204
vn -0.70693797 0.021391379 0.70695204
vn -0.70693797 0.021391379 0.7069521
vn -0.70693797 0.021391379 0.70695204
vn -0 -0.6558522 -0.75488925
vn -0 -0.65585226 -0.75488925
vn -0 -0.65585226 -0.75488925
vn -0 -0.65585226 -0.75488925
vn -0.7069455 0.021391414 -0.70694447
vn -0.7069455 0.02139141 -0.70694447
vn -0.7069455 0.02139141 -0.70694447
vn -0.7069454 0.021391414 -0.70694447
vn 0.70694554 0.0213905 -0.70694447
vn 0.7069455 0.021390503 -0.70694447
vn 0.70694554 0.021390505 -0.70694447
vn 0.70694554 0.021390503 -0.70694447
vn 0.72338957 0.69044006 -1.5448635E-06
vn 0.7233896 0.69043994 -1.5448636E-06
vn 0.7233896 0.69044 -1.5448636E-06
vn 0.7233896 0.69044 -1.5448636E-06
vn 4.040411E-06 0.6904402 0.7233895
vn 4.0404107E-06 0.6904402 0.7233895
vn 4.04041E-06 0.6904402 0.7233895
vn 4.04041E-06 0.6904402 0.7233895
vn -0.72338706 0.6904428 6.535959E-06
vn -0.72338706 0.69044274 6.535959E-06
vn -0.72338706 0.6904428 6.535959E-06
vn -0.72338706 0.6904428 6.535959E-06
vn 1.1883529E-06 0.69044006 -0.72338957
vn 1.1883529E-06 0.69044006 -0.72338957
vn 1.1883529E-06 0.69044006 -0.72338957
vn 1.1883529E-06 0.69044006 -0.7233895
g [GIMMICK]waypoint_crystal_0
f 3/3/3 2/2/2 1/1/1
f 6/6/6 5/5/5 4/4/4
f 9/9/9 8/8/8 7/7/7
f 12/12/12 11/11/11 10/10/10
f 15/15/15 14/14/14 13/13/13
f 18/18/18 17/17/17 16/16/16
f 21/21/21 20/20/20 19/19/19
f 24/24/24 23/23/23 22/22/22
f 27/27/27 26/26/26 25/25/25
f 30/30/30 29/29/29 28/28/28
f 33/33/33 32/32/32 31/31/31
f 36/36/36 35/35/35 34/34/34
f 39/39/39 38/38/38 37/37/37
f 42/42/42 41/41/41 40/40/40
f 45/45/45 44/44/44 43/43/43
f 48/48/48 47/47/47 46/46/46
f 51/51/51 50/50/50 49/49/49
f 52/52/52 51/51/51 49/49/49
f 55/55/55 54/54/54 53/53/53
f 56/56/56 55/55/55 53/53/53
f 59/59/59 58/58/58 57/57/57
f 60/60/60 59/59/59 57/57/57
f 63/63/63 62/62/62 61/61/61
f 64/64/64 63/63/63 61/61/61
f 67/67/67 66/66/66 65/65/65
f 68/68/68 67/67/67 65/65/65
f 71/71/71 70/70/70 69/69/69
f 72/72/72 71/71/71 69/69/69
f 75/75/75 74/74/74 73/73/73
f 76/76/76 75/75/75 73/73/73
f 79/79/79 78/78/78 77/77/77
f 80/80/80 79/79/79 77/77/77
f 83/83/83 82/82/82 81/81/81
f 84/84/84 83/83/83 81/81/81
f 87/87/87 86/86/86 85/85/85
f 88/88/88 87/87/87 85/85/85
f 91/91/91 90/90/90 89/89/89
f 92/92/92 91/91/91 89/89/89
f 95/95/95 94/94/94 93/93/93
f 96/96/96 95/95/95 93/93/93
f 99/99/99 98/98/98 97/97/97
f 100/100/100 99/99/99 97/97/97
f 103/103/103 102/102/102 101/101/101
f 104/104/104 103/103/103 101/101/101
f 107/107/107 106/106/106 105/105/105
f 108/108/108 107/107/107 105/105/105
f 111/111/111 110/110/110 109/109/109
f 112/112/112 111/111/111 109/109/109
f 115/115/115 114/114/114 113/113/113
f 116/116/116 115/115/115 113/113/113
f 119/119/119 118/118/118 117/117/117
f 120/120/120 119/119/119 117/117/117
f 123/123/123 122/122/122 121/121/121
f 124/124/124 123/123/123 121/121/121
f 127/127/127 126/126/126 125/125/125
f 128/128/128 127/127/127 125/125/125
f 131/131/131 130/130/130 129/129/129
f 132/132/132 131/131/131 129/129/129
f 135/135/135 134/134/134 133/133/133
f 136/136/136 135/135/135 133/133/133
f 139/139/139 138/138/138 137/137/137
f 140/140/140 139/139/139 137/137/137
f 143/143/143 142/142/142 141/141/141
f 144/144/144 143/143/143 141/141/141
f 147/147/147 146/146/146 145/145/145
f 148/148/148 147/147/147 145/145/145
f 151/151/151 150/150/150 149/149/149
f 152/152/152 151/151/151 149/149/149
f 155/155/155 154/154/154 153/153/153
f 156/156/156 155/155/155 153/153/153
f 159/159/159 158/158/158 157/157/157
f 160/160/160 159/159/159 157/157/157
f 163/163/163 162/162/162 161/161/161
f 164/164/164 163/163/163 161/161/161
f 167/167/167 166/166/166 165/165/165
f 168/168/168 167/167/167 165/165/165
f 171/171/171 170/170/170 169/169/169
f 172/172/172 171/171/171 169/169/169
f 175/175/175 174/174/174 173/173/173
f 176/176/176 175/175/175 173/173/173
f 179/179/179 178/178/178 177/177/177
f 180/180/180 179/179/179 177/177/177
f 183/183/183 182/182/182 181/181/181
f 184/184/184 183/183/183 181/181/181
f 187/187/187 186/186/186 185/185/185
f 188/188/188 187/187/187 185/185/185
f 191/191/191 190/190/190 189/189/189
f 192/192/192 191/191/191 189/189/189
