g [GIMMICK]box1
v -0.24768917 0.58287555 0.17773159
v -0.24768917 0.58287543 -0.24392168
v 0.24769625 0.5828754 -0.24392183
v 0.24769625 0.5828758 0.17773159
v 0.4104914 2.30484E-07 -0.4107626
v 0.4104914 1.53656E-07 0.3445679
v 0.4104914 0.13799644 0.32971552
v 0.4104914 0.13799648 -0.3959099
v -0.34851855 2.6889802E-07 -0.47503
v 0.34852684 2.6889802E-07 -0.47503
v 0.34852684 0.13799654 -0.45787477
v -0.34851855 0.1379965 -0.45787492
v -0.41048342 1.53656E-07 0.3445679
v -0.41048342 2.30484E-07 -0.4107626
v -0.41048342 0.13799648 -0.3959099
v -0.41048342 0.13799644 0.32971552
v -0.32885826 0.60773844 0.30988622
v -0.3798441 0.6077383 0.258901
v -0.27150032 0.60773844 0.20154275
v -0.27150032 0.60773814 -0.26773238
v -0.3798441 0.60773826 -0.32509091
v -0.32885826 0.6077384 -0.37607646
v 0.37985116 0.6077383 0.258901
v 0.32886624 0.60773844 0.30988622
v 0.2715083 0.6077383 0.20154275
v 0.37985116 0.60773826 -0.32509091
v 0.2715083 0.6077381 -0.26773238
v 0.32886624 0.6077384 -0.37607646
v -0.27150032 0.60773844 0.20154275
v -0.24768917 0.58287555 0.17773159
v 0.24769625 0.5828758 0.17773159
v 0.2715083 0.6077383 0.20154275
v 0.2715083 0.6077383 0.20154275
v 0.24769625 0.5828758 0.17773159
v 0.24769625 0.5828754 -0.24392183
v 0.2715083 0.6077381 -0.26773238
v 0.2715083 0.6077381 -0.26773238
v 0.24769625 0.5828754 -0.24392183
v -0.24768917 0.58287543 -0.24392168
v -0.27150032 0.60773814 -0.26773238
v -0.27150032 0.60773814 -0.26773238
v -0.24768917 0.58287543 -0.24392168
v -0.24768917 0.58287555 0.17773159
v -0.27150032 0.60773844 0.20154275
v 0.4104914 2.30484E-07 -0.4107626
v 0.4104914 0.13799648 -0.3959099
v 0.34852684 0.13799654 -0.45787477
v 0.34852684 2.6889802E-07 -0.47503
v -0.34851855 2.6889802E-07 -0.47503
v -0.34851855 0.1379965 -0.45787492
v -0.41048342 0.13799648 -0.3959099
v -0.41048342 2.30484E-07 -0.4107626
v -0.32885826 0.6077384 -0.37607646
v 0.32886624 0.6077384 -0.37607646
v 0.2715083 0.6077381 -0.26773238
v -0.27150032 0.60773814 -0.26773238
v 0.32886624 0.60773844 0.30988622
v -0.32885826 0.60773844 0.30988622
v -0.27150032 0.60773844 0.20154275
v 0.2715083 0.6077383 0.20154275
v -0.32392222 0.58287555 0.15812309
v 0.22885586 0.5828754 -0.32092226
v 0.24113421 0.6006251 -0.30543524
v -0.3091359 0.60062516 0.17110196
v 0.30913684 0.600625 -0.23665313
v -0.24385239 0.6006253 0.24260224
v -0.3091359 0.60062516 0.17110196
v 0.24113421 0.6006251 -0.30543524
v 0.3212357 0.58287525 -0.22748326
v -0.23523536 0.58287555 0.25525504
v -0.24385239 0.6006253 0.24260224
v 0.30913684 0.600625 -0.23665313
v 0.37985116 0.60773826 -0.32509091
v 0.37985116 0.16139929 -0.3812768
v 0.37985116 0.16139923 0.29129538
v 0.37985116 0.6077383 0.258901
v -0.32885826 0.6077384 -0.37607646
v -0.32885858 0.16139932 -0.43912843
v 0.32886624 0.16139932 -0.43912843
v 0.32886624 0.6077384 -0.37607646
v -0.3798441 0.6077383 0.258901
v -0.3798441 0.16139923 0.29129553
v -0.3798441 0.16139929 -0.3812768
v -0.3798441 0.60773826 -0.32509091
v 0.32886624 0.16139932 -0.43912843
v 0.37985116 0.16139929 -0.3812768
v 0.37985116 0.60773826 -0.32509091
v 0.32886624 0.6077384 -0.37607646
v -0.3798441 0.16139929 -0.3812768
v -0.32885858 0.16139932 -0.43912843
v -0.32885826 0.6077384 -0.37607646
v -0.3798441 0.60773826 -0.32509091
v 0.37985116 0.16139929 -0.3812768
v 0.4104914 0.13799648 -0.3959099
v 0.4104914 0.13799644 0.32971552
v 0.37985116 0.16139923 0.29129538
v -0.32885858 0.16139932 -0.43912843
v -0.34851855 0.1379965 -0.45787492
v 0.34852684 0.13799654 -0.45787477
v 0.32886624 0.16139932 -0.43912843
v -0.3798441 0.16139923 0.29129553
v -0.41048342 0.13799644 0.32971552
v -0.41048342 0.13799648 -0.3959099
v -0.3798441 0.16139929 -0.3812768
v 0.34852684 0.13799654 -0.45787477
v 0.4104914 0.13799648 -0.3959099
v 0.37985116 0.16139929 -0.3812768
v 0.32886624 0.16139932 -0.43912843
v -0.41048342 0.13799648 -0.3959099
v -0.34851855 0.1379965 -0.45787492
v -0.32885858 0.16139932 -0.43912843
v -0.3798441 0.16139929 -0.3812768
v -0.3798441 0.16139923 0.29129553
v -0.35133138 0.13799644 0.37087935
v -0.41048342 0.13799644 0.32971552
v -0.3249388 0.16139923 0.33245936
v 0.32494557 0.16139923 0.33245918
v 0.35133937 0.13799644 0.37087935
v 0.37985116 0.16139923 0.29129538
v 0.4104914 0.13799644 0.32971552
vt 0.22789297 0.101738244
vt 0.22789297 0.064766616
vt 0.2648645 0.064766616
vt 0.2648645 0.101738244
vt 0.22948563 0.003332349
vt 0.2648645 0.003332349
vt 0.2648645 0.015777918
vt 0.22948563 0.015777918
vt 0.15392625 0.003332349
vt 0.2156083 0.003332349
vt 0.2156083 0.015777918
vt 0.15392625 0.015777918
vt 0.2648645 0.003332349
vt 0.22948563 0.003332349
vt 0.22948563 0.015777918
vt 0.2648645 0.015777918
vt 0.15135773 0.1027588
vt 0.15620524 0.1027588
vt 0.1616453 0.09191632
vt 0.21244708 0.09191629
vt 0.21788728 0.1027588
vt 0.22272313 0.1027588
vt 0.15619326 0.1027588
vt 0.15135759 0.1027588
vt 0.16163346 0.09191629
vt 0.2178753 0.1027588
vt 0.21243525 0.09191629
vt 0.22272293 0.1027588
vt 0.22403744 0.07580584
vt 0.22272393 0.07868606
vt 0.1745021 0.07868606
vt 0.17318854 0.07580584
vt 0.22403744 0.07580584
vt 0.22272393 0.07868606
vt 0.17450193 0.07868606
vt 0.17318854 0.07580584
vt 0.22403744 0.07580584
vt 0.22272393 0.07868606
vt 0.17450193 0.07868606
vt 0.17318854 0.07580584
vt 0.22403744 0.07580584
vt 0.22272399 0.07868606
vt 0.17450193 0.07868606
vt 0.17318854 0.07580584
vt 0.22665596 0.003332349
vt 0.22665596 0.015777918
vt 0.2177276 0.015777918
vt 0.2177276 0.003332349
vt 0.2177276 0.003332349
vt 0.2177276 0.015777918
vt 0.22665596 0.015777918
vt 0.22665596 0.003332349
vt 0.15392625 0.06274557
vt 0.2156083 0.06274557
vt 0.2101681 0.07302147
vt 0.15936631 0.0730215
vt 0.15502691 0.07749435
vt 0.16567859 0.07749435
vt 0.16473913 0.08777028
vt 0.15596634 0.08777028
vt 0.1714184 0.07641488
vt 0.2243689 0.076414764
vt 0.2243689 0.07916072
vt 0.1714184 0.07916087
vt 0.2243689 0.09003213
vt 0.1714184 0.09003228
vt 0.1714184 0.07916087
vt 0.2243689 0.07916072
vt 0.2243689 0.076414764
vt 0.1714184 0.07641488
vt 0.1714184 0.07916087
vt 0.2243689 0.07916072
vt 0.22948563 0.06274557
vt 0.22948563 0.01788858
vt 0.2648645 0.01788858
vt 0.2648645 0.06274557
vt 0.15392625 0.06274557
vt 0.15392625 0.01788858
vt 0.2156083 0.01788858
vt 0.2156083 0.06274557
vt 0.2648645 0.06274557
vt 0.2648645 0.01788858
vt 0.22948563 0.01788858
vt 0.22948563 0.06274557
vt 0.2177276 0.01788858
vt 0.22665596 0.01788858
vt 0.22665596 0.06274557
vt 0.2177276 0.06274557
vt 0.22665596 0.01788858
vt 0.2177276 0.01788858
vt 0.2177276 0.06274557
vt 0.22665596 0.06274557
vt 0.22948563 0.01788858
vt 0.22948563 0.015777918
vt 0.2648645 0.015777918
vt 0.2648645 0.01788858
vt 0.15392625 0.01788858
vt 0.15392625 0.015777918
vt 0.2156083 0.015777918
vt 0.2156083 0.01788858
vt 0.2648645 0.01788858
vt 0.2648645 0.015777918
vt 0.22948563 0.015777918
vt 0.22948563 0.01788858
vt 0.2177276 0.015777918
vt 0.22665596 0.015777918
vt 0.22665596 0.01788858
vt 0.2177276 0.01788858
vt 0.22665596 0.015777918
vt 0.2177276 0.015777918
vt 0.2177276 0.01788858
vt 0.22665596 0.01788858
vt 0.2648645 0.01788858
vt 0.2648645 0.015777918
vt 0.2648645 0.015777918
vt 0.2648645 0.01788858
vt 0.2648645 0.01788858
vt 0.2648645 0.015777918
vt 0.2648645 0.01788858
vt 0.2648645 0.015777918
vn 0.08384932 0.99309045 -0.08210246
vn 0.083934054 0.99321955 0.080436796
vn -0.08388569 0.9930843 0.08213807
vn -0.08388569 0.9930843 -0.08213807
vn 1 0 0
vn 1 0 0
vn 1 0 0
vn 1 0 0
vn 1.0575632E-07 0.123366475 -0.99236125
vn 1.0575632E-07 0.123366475 -0.99236125
vn 1.0575632E-07 0.123366475 -0.99236125
vn 1.0575632E-07 0.123366475 -0.99236125
vn -1 0 0
vn -1 0 0
vn -1 0 0
vn -1 0 0
vn -6.434115E-07 1 -8.7387133E-07
vn -6.7284293E-07 1 -7.1543803E-07
vn -1.2992085E-07 1 -5.973842E-07
vn -0 1 1.232854E-06
vn -3.129499E-07 1 1.1466185E-06
vn -2.835154E-07 1 2.456114E-06
vn -0 1 -9.658081E-07
vn 4.519219E-07 1 -1.1242372E-06
vn -1.8258096E-07 1 -6.561234E-07
vn -2.636174E-07 1 1.3969926E-06
vn -2.6701892E-07 1 1.2915908E-06
vn -0 1 2.7064764E-06
vn -0 0.6916688 -0.7222149
vn -0 0.6916688 -0.7222149
vn -0 0.6916688 -0.7222149
vn -0 0.6916688 -0.7222149
vn -0.7222004 0.6916839 -5.060597E-07
vn -0.7222004 0.6916839 -5.060597E-07
vn -0.7222004 0.6916839 -5.0605973E-07
vn -0.7222004 0.6916839 -5.060597E-07
vn 2.0966274E-07 0.691661 0.7222223
vn 2.0966274E-07 0.691661 0.7222223
vn 2.0966274E-07 0.691661 0.7222223
vn 2.0966274E-07 0.691661 0.7222223
vn 0.72221553 0.69166803 -2.9796507E-07
vn 0.7222156 0.691668 -2.9796504E-07
vn 0.7222156 0.691668 -2.9796504E-07
vn 0.72221553 0.69166803 -2.9796504E-07
vn 0.71124303 0.08098063 -0.6982661
vn 0.711243 0.080980636 -0.6982661
vn 0.71124303 0.08098063 -0.6982661
vn 0.711243 0.080980636 -0.6982661
vn -0.7112417 0.080980435 -0.69826746
vn -0.7112418 0.080980435 -0.69826746
vn -0.7112418 0.080980435 -0.69826746
vn -0.7112418 0.080980435 -0.6982674
vn -2.835154E-07 1 2.456114E-06
vn -0 1 2.7064764E-06
vn -2.6701892E-07 1 1.2915908E-06
vn -0 1 1.232854E-06
vn 4.519219E-07 1 -1.1242372E-06
vn -6.434115E-07 1 -8.7387133E-07
vn -1.2992085E-07 1 -5.973842E-07
vn -1.8258096E-07 1 -6.561234E-07
vn -0.4392964 0.7415385 -0.50708896
vn -0.43929645 0.7415385 -0.50708896
vn -0.43929645 0.7415385 -0.507089
vn -0.4392964 0.7415385 -0.50708896
vn 4.5122954E-07 1 1.18941266E-07
vn 4.5122954E-07 1 1.18941266E-07
vn 4.5122954E-07 1 1.18941266E-07
vn 4.5122954E-07 1 1.18941266E-07
vn 0.4999562 0.6462055 0.5765953
vn 0.49995622 0.64620554 0.57659537
vn 0.49995625 0.6462055 0.5765953
vn 0.49995622 0.64620554 0.57659537
vn 1 0 0
vn 1 0 0
vn 1 0 0
vn 1 0 0
vn -0 0.13987596 -0.99016905
vn -0 0.13987596 -0.99016905
vn -0 0.13987596 -0.99016905
vn -0 0.13987596 -0.99016905
vn -1 0 0
vn -1 0 0
vn -1 0 0
vn -1 0 0
vn 0.7267305 0.090946704 -0.6808755
vn 0.7267305 0.090946704 -0.6808755
vn 0.7267306 0.09094671 -0.6808755
vn 0.7267305 0.090946704 -0.6808755
vn -0.72672534 0.09094768 -0.68088096
vn -0.72672534 0.09094767 -0.68088096
vn -0.72672534 0.09094768 -0.68088096
vn -0.7267253 0.09094767 -0.680881
vn 0.5454181 0.81148964 -0.20977001
vn 0.53975594 0.8111779 -0.22506465
vn 0.6069922 0.7947078 0
vn 0.60699224 0.7947078 0
vn -0 0.62518644 -0.78047544
vn -0 0.62518644 -0.78047544
vn -0 0.62518644 -0.7804754
vn -0 0.62518644 -0.78047544
vn -0.60700375 0.79469895 0
vn -0.60700375 0.79469895 0
vn -0.5397635 0.8111714 -0.2250698
vn -0.5454269 0.8114832 -0.20977268
vn 0.44989848 0.78595144 -0.4241129
vn 0.53975594 0.8111779 -0.22506465
vn 0.5454181 0.81148964 -0.20977001
vn 0.44989848 0.78595144 -0.4241129
vn -0.5397635 0.8111714 -0.2250698
vn -0.44990197 0.7859459 -0.42411932
vn -0.44990197 0.7859459 -0.42411926
vn -0.5454269 0.8114832 -0.20977268
vn -0.2571756 0.89828503 0.35629287
vn -0.15629454 0.89082277 0.42662254
vn -0.2571756 0.89828503 0.3562929
vn -0.11280037 0.88357955 0.4544923
vn 0.11279743 0.8835804 0.45449132
vn 0.15629421 0.8908247 0.42661878
vn 0.2571719 0.8982878 0.35628873
vn 0.2571719 0.89828783 0.35628867
g [GIMMICK]box1_0
f 3/3/3 2/2/2 1/1/1
f 4/4/4 3/3/3 1/1/1
f 7/7/7 6/6/6 5/5/5
f 8/8/8 7/7/7 5/5/5
f 11/11/11 10/10/10 9/9/9
f 12/12/12 11/11/11 9/9/9
f 15/15/15 14/14/14 13/13/13
f 16/16/16 15/15/15 13/13/13
f 19/19/19 18/18/18 17/17/17
f 19/19/19 20/20/20 18/18/18
f 20/20/20 21/21/21 18/18/18
f 20/20/20 22/22/22 21/21/21
f 25/25/25 24/24/24 23/23/23
f 25/25/25 23/23/23 26/26/26
f 27/27/27 25/25/25 26/26/26
f 27/27/27 26/26/26 28/28/28
f 31/31/31 30/30/30 29/29/29
f 32/32/32 31/31/31 29/29/29
f 35/35/35 34/34/34 33/33/33
f 36/36/36 35/35/35 33/33/33
f 39/39/39 38/38/38 37/37/37
f 40/40/40 39/39/39 37/37/37
f 43/43/43 42/42/42 41/41/41
f 44/44/44 43/43/43 41/41/41
f 47/47/47 46/46/46 45/45/45
f 48/48/48 47/47/47 45/45/45
f 51/51/51 50/50/50 49/49/49
f 52/52/52 51/51/51 49/49/49
f 55/55/55 54/54/54 53/53/53
f 56/56/56 55/55/55 53/53/53
f 59/59/59 58/58/58 57/57/57
f 60/60/60 59/59/59 57/57/57
f 63/63/63 62/62/62 61/61/61
f 64/64/64 63/63/63 61/61/61
f 67/67/67 66/66/66 65/65/65
f 68/68/68 67/67/67 65/65/65
f 71/71/71 70/70/70 69/69/69
f 72/72/72 71/71/71 69/69/69
f 75/75/75 74/74/74 73/73/73
f 76/76/76 75/75/75 73/73/73
f 79/79/79 78/78/78 77/77/77
f 80/80/80 79/79/79 77/77/77
f 83/83/83 82/82/82 81/81/81
f 84/84/84 83/83/83 81/81/81
f 87/87/87 86/86/86 85/85/85
f 88/88/88 87/87/87 85/85/85
f 91/91/91 90/90/90 89/89/89
f 92/92/92 91/91/91 89/89/89
f 95/95/95 94/94/94 93/93/93
f 96/96/96 95/95/95 93/93/93
f 99/99/99 98/98/98 97/97/97
f 100/100/100 99/99/99 97/97/97
f 103/103/103 102/102/102 101/101/101
f 104/104/104 103/103/103 101/101/101
f 107/107/107 106/106/106 105/105/105
f 108/108/108 107/107/107 105/105/105
f 111/111/111 110/110/110 109/109/109
f 112/112/112 111/111/111 109/109/109
f 115/115/115 114/114/114 113/113/113
f 114/114/114 116/116/116 113/113/113
f 117/117/117 116/116/116 114/114/114
f 118/118/118 117/117/117 114/114/114
f 119/119/119 117/117/117 118/118/118
f 120/120/120 119/119/119 118/118/118
