g [gimmick]obj_brick_top
v 0.50350004 2.7306786 0.36469525
v 0.36469465 2.7306793 -0.5034996
v 0.50350004 2.730679 -0.36469424
v -0.36469495 2.7306786 0.5035007
v 0.36469457 2.7306786 0.5035007
v -0.5035005 2.730679 -0.36469424
v -0.3646951 2.7306793 -0.5034996
v -0.50350034 2.7306786 0.3646953
v 0.50350004 2.7306786 0.36469525
v 0.50350004 1.8604956 -0.36469436
v 0.50350004 1.8604953 0.36469537
v 0.50350004 2.730679 -0.36469424
v 0.36469465 2.7306793 -0.5034996
v -0.3646951 1.8604956 -0.50349975
v 0.36469465 1.8604956 -0.50349975
v -0.3646951 2.7306793 -0.5034996
v -0.5035005 2.730679 -0.36469424
v -0.50350034 1.8604953 0.36469537
v -0.5035005 1.8604956 -0.36469436
v -0.50350034 2.7306786 0.3646953
v 0.50350004 2.730679 -0.36469424
v 0.36469465 1.8604956 -0.50349975
v 0.50350004 1.8604956 -0.36469436
v 0.36469465 2.7306793 -0.5034996
v -0.3646951 2.7306793 -0.5034996
v -0.5035005 1.8604956 -0.36469436
v -0.3646951 1.8604956 -0.50349975
v -0.5035005 2.730679 -0.36469424
v -0.36469495 2.7306786 0.5035007
v 0.36469463 1.8604956 0.50350106
v -0.36469498 1.8604956 0.5035011
v 0.36469457 2.7306786 0.5035007
v -0.50350034 2.7306786 0.3646953
v -0.36469498 1.8604956 0.5035011
v -0.50350034 1.8604953 0.36469537
v -0.36469495 2.7306786 0.5035007
v 0.36469457 2.7306786 0.5035007
v 0.50350004 1.8604953 0.36469537
v 0.36469463 1.8604956 0.50350106
v 0.50350004 2.7306786 0.36469525
v 0.50350004 1.0368458 0.3646955
v 0.50350004 1.7704608 -0.3646944
v 0.50350004 1.0368462 -0.36469445
v 0.50350004 1.7704605 0.36469537
v 0.36469465 1.1243767 -0.5034999
v -0.3646951 1.7704608 -0.5034998
v -0.3646951 1.584328 -0.50349987
v 0.36469465 1.7704608 -0.50349987
v -0.5035005 1.6718583 -0.36469442
v -0.50350034 1.7704605 0.36469537
v -0.50350034 1.6718577 0.36469543
v -0.5035005 1.7704608 -0.36469442
v 0.50350004 1.0368462 -0.36469445
v 0.36469465 1.7704608 -0.50349987
v 0.36469465 1.1243767 -0.5034999
v 0.50350004 1.7704608 -0.3646944
v -0.3646951 1.584328 -0.50349987
v -0.5035005 1.7704608 -0.36469442
v -0.5035005 1.6718583 -0.36469442
v -0.3646951 1.7704608 -0.5034998
v -0.36469498 1.5843277 0.5035012
v 0.36469463 1.7704607 0.50350106
v 0.36469463 1.1243763 0.50350136
v -0.36469498 1.7704607 0.5035011
v -0.50350034 1.6718577 0.36469543
v -0.36469498 1.7704607 0.5035011
v -0.36469498 1.5843277 0.5035012
v -0.50350034 1.7704605 0.36469537
v 0.36469463 1.1243763 0.50350136
v 0.50350004 1.7704605 0.36469537
v 0.50350004 1.0368458 0.3646955
v 0.36469463 1.7704607 0.50350106
v -0.4360066 1.815478 0.3158084
v -0.5035005 1.8604956 -0.36469436
v -0.50350034 1.8604953 0.36469537
v -0.43600675 1.8154781 -0.3158073
v -0.50350034 1.7704605 0.36469537
v -0.3646951 1.8604956 -0.50349975
v -0.5035005 1.7704608 -0.36469442
v -0.3158081 1.8154782 -0.436006
v 0.36469465 1.8604956 -0.50349975
v -0.3646951 1.7704608 -0.5034998
v 0.31580764 1.8154782 -0.436006
v 0.36469465 1.7704608 -0.50349987
v 0.31580764 1.8154782 -0.436006
v 0.50350004 1.8604956 -0.36469436
v 0.36469465 1.8604956 -0.50349975
v 0.43600625 1.8154781 -0.31580734
v 0.50350004 1.8604953 0.36469537
v 0.36469465 1.7704608 -0.50349987
v 0.43600625 1.815478 0.3158084
v 0.50350004 1.7704608 -0.3646944
v 0.50350004 1.7704605 0.36469537
v -0.31580797 1.815478 0.4360073
v -0.50350034 1.8604953 0.36469537
v -0.36469498 1.8604956 0.5035011
v -0.4360066 1.815478 0.3158084
v -0.36469498 1.7704607 0.5035011
v -0.50350034 1.7704605 0.36469537
v 0.43600625 1.815478 0.3158084
v 0.36469463 1.8604956 0.50350106
v 0.50350004 1.8604953 0.36469537
v 0.3158076 1.815478 0.4360073
v -0.36469498 1.8604956 0.5035011
v 0.50350004 1.7704605 0.36469537
v -0.31580797 1.815478 0.4360073
v 0.36469463 1.7704607 0.50350106
v -0.36469498 1.7704607 0.5035011
v 0.36469463 1.1243763 0.50350136
v -0.50350034 1.6718577 0.36469543
v -0.36469498 1.5843277 0.5035012
v -0.3646951 1.584328 -0.50349987
v -0.5035005 1.6718583 -0.36469442
v 0.50350004 1.0368462 -0.36469445
v 0.50350004 1.0368458 0.3646955
v 0.36469465 1.1243767 -0.5034999
vt 0.0014911665 0.31373927
vt 0.009596465 0.26378864
vt 0.0014911665 0.27177465
vt 0.05218788 0.3217253
vt 0.009596465 0.3217253
vt 0.060293186 0.27177465
vt 0.052187894 0.26378864
vt 0.060293186 0.31373927
vt 0.09241763 0.3230294
vt 0.08435574 0.30639952
vt 0.09241763 0.30639952
vt 0.08435574 0.3230294
vt 0.06319057 0.3230294
vt 0.08030361 0.30639958
vt 0.06319057 0.30639958
vt 0.08030361 0.3230294
vt 0.08435581 0.3230294
vt 0.0924176 0.30639952
vt 0.08435578 0.30639952
vt 0.0924176 0.3230294
vt 0.08435574 0.3230294
vt 0.08030344 0.30639952
vt 0.08435574 0.30639952
vt 0.08030344 0.3230294
vt 0.08030361 0.3230294
vt 0.08435578 0.30639952
vt 0.08030361 0.30639958
vt 0.08435581 0.3230294
vt 0.06319057 0.3230294
vt 0.08030361 0.30639958
vt 0.06319057 0.30639958
vt 0.08030361 0.3230294
vt 0.08435574 0.3230294
vt 0.08030344 0.30639952
vt 0.08435574 0.30639952
vt 0.08030344 0.3230294
vt 0.08030361 0.3230294
vt 0.08435578 0.30639952
vt 0.08030361 0.30639958
vt 0.08435581 0.3230294
vt 0.092417605 0.28551108
vt 0.08435574 0.3029921
vt 0.08435574 0.28551108
vt 0.09241763 0.30299208
vt 0.06319057 0.28759688
vt 0.08030361 0.3029921
vt 0.08030363 0.29855686
vt 0.06319057 0.3029921
vt 0.08435581 0.30064255
vt 0.0924176 0.30299208
vt 0.0924176 0.30064252
vt 0.08435578 0.3029921
vt 0.08435574 0.28551108
vt 0.08030344 0.30299208
vt 0.08030344 0.28759682
vt 0.08435574 0.3029921
vt 0.08030363 0.29855686
vt 0.08435578 0.3029921
vt 0.08435581 0.30064255
vt 0.08030361 0.3029921
vt 0.06319057 0.29855686
vt 0.08030361 0.3029921
vt 0.08030359 0.28759688
vt 0.06319057 0.3029921
vt 0.08435574 0.30064255
vt 0.08030344 0.30299208
vt 0.08030344 0.2985568
vt 0.08435574 0.3029921
vt 0.08030359 0.28759688
vt 0.08435578 0.3029921
vt 0.08435573 0.28551108
vt 0.08030361 0.3029921
vt 0.0924176 0.30469576
vt 0.08435578 0.30639952
vt 0.0924176 0.30639952
vt 0.08435578 0.30469579
vt 0.0924176 0.30299208
vt 0.08030361 0.30639958
vt 0.08435578 0.3029921
vt 0.08030361 0.30469584
vt 0.06319057 0.30639958
vt 0.08030361 0.3029921
vt 0.06319057 0.30469584
vt 0.06319057 0.3029921
vt 0.08030344 0.30469576
vt 0.08435574 0.30639952
vt 0.08030344 0.30639952
vt 0.08435574 0.30469579
vt 0.09241763 0.30639952
vt 0.08030344 0.30299208
vt 0.09241763 0.30469576
vt 0.08435574 0.3029921
vt 0.09241763 0.30299208
vt 0.08030344 0.30469576
vt 0.08435574 0.30639952
vt 0.08030344 0.30639952
vt 0.08435574 0.30469579
vt 0.08030344 0.30299208
vt 0.08435574 0.3029921
vt 0.08435578 0.30469579
vt 0.08030361 0.30639958
vt 0.08435578 0.30639952
vt 0.08030361 0.30469584
vt 0.06319057 0.30639958
vt 0.08435578 0.3029921
vt 0.06319057 0.30469584
vt 0.08030361 0.3029921
vt 0.06319057 0.3029921
vt 0.058866356 0.2110858
vt 0.0506387 0.26082146
vt 0.05847955 0.2529152
vt 0.0021302016 0.2525236
vt 0.009823816 0.2605378
vt 0.010357808 0.20278795
vt 0.051172696 0.20307155
vt 0.0025169952 0.21069425
vn 1.9419305E-07 1 4.885416E-07
vn 4.1706448E-07 1 6.2459884E-07
vn 1.7926501E-06 1 4.2132774E-07
vn -1.7196064E-07 1 4.7563165E-07
vn -0 1 0
vn -2.2165779E-07 1 8.842578E-07
vn -0 1 2.213977E-06
vn -4.2132788E-07 1 4.213278E-07
vn 1 0 0
vn 1 0 0
vn 1 0 0
vn 1 0 0
vn -0 1.3243414E-07 -1
vn -0 1.3243414E-07 -1
vn -0 1.3243414E-07 -1
vn -0 1.3243414E-07 -1
vn -1 0 2.1066384E-07
vn -1 0 2.1066381E-07
vn -1 0 2.1066383E-07
vn -1 0 2.1066383E-07
vn 0.7071069 0 -0.70710665
vn 0.7071069 0 -0.70710665
vn 0.7071069 0 -0.70710665
vn 0.7071068 0 -0.70710665
vn -0.7071069 0 -0.70710665
vn -0.7071069 0 -0.70710665
vn -0.7071069 0 -0.70710665
vn -0.7071069 0 -0.70710665
vn -0 4.1690774E-07 1
vn -0 4.2184234E-07 1
vn -0 4.4144744E-07 1
vn -0 3.9730273E-07 1
vn -0.707107 3.0368392E-07 0.7071065
vn -0.70710766 1.0211144E-07 0.7071059
vn -0.7071077 0 0.70710576
vn -0.7071069 3.4336546E-07 0.70710665
vn 0.7071068 1.2450847E-07 0.70710665
vn 0.7071073 2.8128684E-07 0.7071062
vn 0.7071074 3.121502E-07 0.7071061
vn 0.70710677 0 0.70710677
vn 1 0 0
vn 1 0 0
vn 1 0 0
vn 1 0 0
vn -0 1.3299324E-07 -1
vn -0 1.6601467E-07 -1
vn -0 2.0637943E-07 -1
vn -0 1.1891329E-07 -1
vn -1 0 2.1066377E-07
vn -1 0 2.1066376E-07
vn -1 0 2.1066376E-07
vn -1 0 2.1066377E-07
vn 0.7071069 0 -0.7071066
vn 0.7071069 0 -0.7071066
vn 0.70710695 0 -0.7071066
vn 0.70710695 0 -0.7071066
vn -0.70710677 1.0291667E-07 -0.70710677
vn -0.70710677 0 -0.70710677
vn -0.7071068 0 -0.70710665
vn -0.70710677 1.4593229E-07 -0.70710677
vn -0 4.1406778E-07 1
vn -0 4.1564962E-07 1
vn -0 4.1619643E-07 1
vn -0 4.1275854E-07 1
vn -0.7071077 2.8276307E-07 0.70710576
vn -0.7071077 2.8700777E-07 0.70710576
vn -0.7071077 2.9186393E-07 0.70710576
vn -0.7071077 2.7547668E-07 0.70710576
vn 0.7071078 1.3823198E-07 0.7071057
vn 0.7071075 2.5988996E-07 0.707106
vn 0.7071079 1.11077775E-07 0.7071057
vn 0.7071074 2.9429498E-07 0.7071061
vn -0.94932276 -5.487702E-07 0.31430277
vn -0.4382821 -0.8759544 -0.20152573
vn -0.43828145 -0.87595487 0.2015254
vn -0.94932276 1.8722765E-06 -0.3143028
vn -0.43828264 0.87595433 0.20152494
vn -0.20152515 -0.8759549 -0.43828127
vn -0.4382802 0.87595576 -0.20152429
vn -0.31430343 0 -0.9493225
vn 0.20152524 -0.87595516 -0.43828103
vn -0.20152512 0.8759552 -0.43828085
vn 0.31430417 0 -0.94932234
vn 0.20152515 0.8759554 -0.43828037
vn 0.31430417 0 -0.94932234
vn 0.43828163 -0.87595457 -0.20152585
vn 0.20152524 -0.87595516 -0.43828103
vn 0.94932234 1.904558E-06 -0.31430402
vn 0.43828064 -0.8759552 0.20152557
vn 0.20152515 0.8759554 -0.43828037
vn 0.94932234 -4.5192857E-07 0.3143041
vn 0.43827987 0.8759559 -0.20152444
vn 0.43828195 0.8759547 0.20152514
vn -0.3143038 2.6147302E-06 0.94932246
vn -0.43828145 -0.87595487 0.2015254
vn -0.20152564 -0.87595385 0.4382833
vn -0.94932276 -5.487702E-07 0.31430277
vn -0.20152533 0.8759559 0.43827957
vn -0.43828264 0.87595433 0.20152494
vn 0.94932234 -4.5192857E-07 0.3143041
vn 0.20152575 -0.87595403 0.4382829
vn 0.43828064 -0.8759552 0.20152557
vn 0.31430498 2.6792895E-06 0.949322
vn -0.20152564 -0.87595385 0.4382833
vn 0.43828195 0.8759547 0.20152514
vn -0.3143038 2.6147302E-06 0.94932246
vn 0.2015255 0.87595594 0.43827912
vn -0.20152533 0.8759559 0.43827957
vn -0.53339964 -0.84586334 -1.914165E-07
vn -0.5333993 -0.84586364 1.3310593E-07
vn -0.5333995 -0.84586346 2.0166797E-06
vn -0.5333995 -0.84586346 -4.6113033E-07
vn -0.5333997 -0.8458633 -6.00403E-07
vn -0.5333996 -0.84586346 -4.4775976E-07
vn -0.5334005 -0.84586287 -3.555048E-07
vn -0.53339946 -0.8458635 -1.2410358E-06
g [gimmick]obj_brick_top_0
f 3/3/3 2/2/2 1/1/1
f 2/2/2 4/4/4 1/1/1
f 4/4/4 5/5/5 1/1/1
f 6/6/6 4/4/4 2/2/2
f 7/7/7 6/6/6 2/2/2
f 8/8/8 4/4/4 6/6/6
f 11/11/11 10/10/10 9/9/9
f 12/12/12 9/9/9 10/10/10
f 15/15/15 14/14/14 13/13/13
f 16/16/16 13/13/13 14/14/14
f 19/19/19 18/18/18 17/17/17
f 20/20/20 17/17/17 18/18/18
f 23/23/23 22/22/22 21/21/21
f 24/24/24 21/21/21 22/22/22
f 27/27/27 26/26/26 25/25/25
f 28/28/28 25/25/25 26/26/26
f 31/31/31 30/30/30 29/29/29
f 32/32/32 29/29/29 30/30/30
f 35/35/35 34/34/34 33/33/33
f 36/36/36 33/33/33 34/34/34
f 39/39/39 38/38/38 37/37/37
f 40/40/40 37/37/37 38/38/38
f 43/43/43 42/42/42 41/41/41
f 44/44/44 41/41/41 42/42/42
f 47/47/47 46/46/46 45/45/45
f 48/48/48 45/45/45 46/46/46
f 51/51/51 50/50/50 49/49/49
f 52/52/52 49/49/49 50/50/50
f 55/55/55 54/54/54 53/53/53
f 56/56/56 53/53/53 54/54/54
f 59/59/59 58/58/58 57/57/57
f 60/60/60 57/57/57 58/58/58
f 63/63/63 62/62/62 61/61/61
f 64/64/64 61/61/61 62/62/62
f 67/67/67 66/66/66 65/65/65
f 68/68/68 65/65/65 66/66/66
f 71/71/71 70/70/70 69/69/69
f 72/72/72 69/69/69 70/70/70
f 75/75/75 74/74/74 73/73/73
f 76/76/76 73/73/73 74/74/74
f 73/73/73 76/76/76 77/77/77
f 74/74/74 78/78/78 76/76/76
f 79/79/79 77/77/77 76/76/76
f 80/80/80 76/76/76 78/78/78
f 76/76/76 80/80/80 79/79/79
f 78/78/78 81/81/81 80/80/80
f 82/82/82 79/79/79 80/80/80
f 83/83/83 80/80/80 81/81/81
f 80/80/80 83/83/83 82/82/82
f 84/84/84 82/82/82 83/83/83
f 87/87/87 86/86/86 85/85/85
f 88/88/88 85/85/85 86/86/86
f 86/86/86 89/89/89 88/88/88
f 85/85/85 88/88/88 90/90/90
f 91/91/91 88/88/88 89/89/89
f 92/92/92 90/90/90 88/88/88
f 88/88/88 91/91/91 92/92/92
f 93/93/93 92/92/92 91/91/91
f 96/96/96 95/95/95 94/94/94
f 97/97/97 94/94/94 95/95/95
f 94/94/94 97/97/97 98/98/98
f 99/99/99 98/98/98 97/97/97
f 102/102/102 101/101/101 100/100/100
f 103/103/103 100/100/100 101/101/101
f 101/101/101 104/104/104 103/103/103
f 100/100/100 103/103/103 105/105/105
f 106/106/106 103/103/103 104/104/104
f 107/107/107 105/105/105 103/103/103
f 103/103/103 106/106/106 107/107/107
f 108/108/108 107/107/107 106/106/106
f 111/111/111 110/110/110 109/109/109
f 110/110/110 112/112/112 109/109/109
f 113/113/113 112/112/112 110/110/110
f 112/112/112 114/114/114 109/109/109
f 109/109/109 114/114/114 115/115/115
f 116/116/116 114/114/114 112/112/112
