g [gimmick]trap_crack2
v -0.30862916 -1.5845775E-07 -0.33903798
v 0.0046078363 -1.5651456E-07 -0.32259095
v 0.28695628 -1.15242E-07 -0.1509747
v -0.30862916 -1.1202814E-08 0.35438976
v 0.22083257 -1.1202685E-08 0.35439005
v 0.22083257 -1.1202685E-08 0.35439005
v 0.2357458 -0.1219328 0.35439005
v -0.30862916 -0.1219328 0.35438976
v -0.30862916 -1.1202814E-08 0.35438976
v 0.0046078363 -1.5651456E-07 -0.32259095
v 0.016423369 -0.12193296 -0.33687082
v 0.30862546 -0.121932894 -0.1631541
v 0.28695628 -1.15242E-07 -0.1509747
v -0.30862916 -1.1202814E-08 0.35438976
v -0.30862916 -0.1219328 0.35438976
v -0.30862916 -0.121932946 -0.35439005
v -0.30862916 -1.5845775E-07 -0.33903798
v -0.30862916 -1.5845775E-07 -0.33903798
v -0.30862916 -0.121932946 -0.35439005
v 0.016423369 -0.12193296 -0.33687082
v 0.0046078363 -1.5651456E-07 -0.32259095
v 0.28695628 -1.15242E-07 -0.1509747
v 0.30862546 -0.121932894 -0.1631541
v 0.2357458 -0.1219328 0.35439005
v 0.22083257 -1.1202685E-08 0.35439005
v 0.30862546 -0.121932894 -0.1631541
v 0.016423369 -0.12193296 -0.33687082
v -0.30862916 -0.121932946 -0.35439005
v -0.30862916 -0.1219328 0.35438976
v 0.2357458 -0.1219328 0.35439005
vt 0.56083786 0.95411474
vt 0.541565 0.9562058
vt 0.5235808 0.9681954
vt 0.56083786 0.9986281
vt 0.52856106 0.9986281
vt 0.8699606 0.6715544
vt 0.86980766 0.66559494
vt 0.845293 0.66559494
vt 0.845293 0.6715544
vt 0.8277202 0.6726668
vt 0.8277307 0.66559494
vt 0.8206957 0.66559494
vt 0.8206957 0.6726668
vt 0.87080467 0.6715544
vt 0.87080467 0.66559494
vt 0.86709934 0.66559494
vt 0.86709934 0.6715544
vt 0.8200459 0.67211056
vt 0.8200459 0.66559494
vt 0.8445607 0.66559494
vt 0.8445607 0.67211056
vt 0.8445607 0.67211056
vt 0.8445607 0.66559494
vt 0.8200459 0.66559494
vt 0.8200459 0.67211056
vt 0.5235808 0.9681954
vt 0.541565 0.9562058
vt 0.56083786 0.95411474
vt 0.56083786 0.9986281
vt 0.52856106 0.9986281
vn -0 1 -2.1657766E-07
vn -0 1 -2.1657766E-07
vn -0 1 -2.1260539E-07
vn -0 1 -2.117811E-07
vn -0 1 -2.0586981E-07
vn -5.723627E-07 0 1
vn -5.7236264E-07 0 1
vn -5.7236264E-07 0 1
vn -5.7236264E-07 0 1
vn 0.28084105 0.14585845 -0.9486061
vn 0.2975911 0.14727712 -0.9432651
vn 0.50838745 0.1615781 -0.8458338
vn 0.5083874 0.1615781 -0.8458338
vn -1 0 0
vn -1 0 0
vn -1 0 0
vn -1 0 0
vn 0.052736025 0.122971825 -0.991008
vn 0.052736036 0.12297185 -0.991008
vn 0.2975911 0.14727712 -0.9432651
vn 0.28084105 0.14585845 -0.9486061
vn 0.98106223 0.1405115 0.1333168
vn 0.98106223 0.1405115 0.1333168
vn 0.98106223 0.14051148 0.1333168
vn 0.98106223 0.14051147 0.13331679
vn -0 -1 2.1850263E-07
vn -0 -1 2.3807296E-07
vn -0 -1 2.3807297E-07
vn -0 -1 2.1474597E-07
vn -0 -1 1.8555903E-07
g [gimmick]trap_crack2_0
f 3/3/3 2/2/2 1/1/1
f 4/4/4 3/3/3 1/1/1
f 5/5/5 3/3/3 4/4/4
f 8/8/8 7/7/7 6/6/6
f 9/9/9 8/8/8 6/6/6
f 12/12/12 11/11/11 10/10/10
f 13/13/13 12/12/12 10/10/10
f 16/16/16 15/15/15 14/14/14
f 17/17/17 16/16/16 14/14/14
f 20/20/20 19/19/19 18/18/18
f 21/21/21 20/20/20 18/18/18
f 24/24/24 23/23/23 22/22/22
f 25/25/25 24/24/24 22/22/22
f 28/28/28 27/27/27 26/26/26
f 29/29/29 28/28/28 26/26/26
f 26/26/26 30/30/30 29/29/29
