g [gimmick]battlegate1
v -0.36453152 -0.23731878 -0.44472057
v 0.36453182 -0.23731878 -0.44472066
v 0.42512745 -0.23731878 -0.38412496
v -0.4251272 -0.23731878 -0.38412488
v 0.4251279 -0.23731832 0.3449384
v -0.42512712 -0.23731847 0.34493855
v 0.36453226 -0.23731847 0.40553403
v -0.36453152 -0.2373184 0.40553418
v 0.42512745 -0.23731878 -0.38412496
v 0.42512745 -1.0070006 -0.38412502
v 0.4251279 -1.0070001 0.3449384
v 0.4251279 -0.23731832 0.3449384
v 0.42512774 -1.0070001 0.40553403
v 0.36453226 -0.23731847 0.40553403
v -0.36453152 -0.23731878 -0.44472057
v -0.36453152 -1.0070006 -0.44472057
v 0.36453182 -1.0070006 -0.44472066
v 0.36453182 -0.23731878 -0.44472066
v -0.42512712 -0.23731847 0.34493855
v -0.4251272 -1.0070006 -0.38412496
v -0.4251272 -0.23731878 -0.38412488
v -0.4251272 -1.0070001 0.34493852
v -0.36453152 -0.2373184 0.40553418
v -0.4251272 -1.0070001 0.40553418
v 0.36453182 -0.23731878 -0.44472066
v 0.36453182 -1.0070006 -0.44472066
v 0.42512745 -1.0070006 -0.38412502
v 0.42512745 -0.23731878 -0.38412496
v -0.4251272 -0.23731878 -0.38412488
v -0.4251272 -1.0070006 -0.38412496
v -0.36453152 -1.0070006 -0.44472057
v -0.36453152 -0.23731878 -0.44472057
vt 0.39259547 0.9888058
vt 0.4823251 0.9888058
vt 0.48978296 0.9814951
vt 0.38513765 0.9814951
vt 0.48978296 0.8935346
vt 0.38513765 0.8935346
vt 0.4823251 0.88622385
vt 0.39259544 0.88622385
vt 0.5725896 0.49912792
vt 0.5725896 0.3765477
vt 0.46607384 0.37654787
vt 0.46607384 0.49912804
vt 0.4588697 0.3754074
vt 0.45549563 0.50037366
vt 0.44790426 0.4991569
vt 0.44790426 0.37657657
vt 0.34138867 0.3765767
vt 0.34138867 0.4991569
vt 0.5725895 0.49912792
vt 0.46607372 0.37654778
vt 0.46607372 0.49912804
vt 0.5725895 0.3765479
vt 0.58316773 0.50037354
vt 0.5797937 0.37540743
vt 0.58302104 0.49912792
vt 0.58302104 0.37654766
vt 0.5725896 0.3765477
vt 0.5725896 0.49912792
vt 0.4583358 0.4991569
vt 0.4583358 0.37657657
vt 0.44790426 0.37657657
vt 0.44790426 0.4991569
vn -0 1 -4.1404036E-07
vn -0 1 -4.1404033E-07
vn -0 1 -4.1404036E-07
vn -0 1 -4.1404033E-07
vn -0 1 -4.1404033E-07
vn -0 1 -4.1404036E-07
vn -0 1 -4.1404036E-07
vn -0 1 -4.1404036E-07
vn 1 0 -6.3227424E-07
vn 1 0 -6.3227435E-07
vn 0.9731067 0.018079408 0.2296443
vn 0.9731067 0.018079411 0.22964433
vn 0.89387286 0.03518639 0.4469376
vn 0.89387286 0.035186395 0.4469376
vn -1.0537905E-07 0 -1
vn -1.0537905E-07 0 -1
vn -1.0537905E-07 0 -1
vn -1.0537905E-07 0 -1
vn -0.9731067 0.018079543 0.22964427
vn -1 0 0
vn -1 0 0
vn -0.9731068 0.018079527 0.22964403
vn -0.89387345 0.035186585 0.44693655
vn -0.89387345 0.03518659 0.44693658
vn 0.70710695 0 -0.7071066
vn 0.70710695 0 -0.7071066
vn 0.70710695 0 -0.7071066
vn 0.70710695 0 -0.7071066
vn -0.7071066 0 -0.70710695
vn -0.7071066 0 -0.70710695
vn -0.7071066 0 -0.70710695
vn -0.7071066 0 -0.70710695
g [gimmick]battlegate1_0
f 3/3/3 2/2/2 1/1/1
f 1/1/1 4/4/4 3/3/3
f 4/4/4 5/5/5 3/3/3
f 4/4/4 6/6/6 5/5/5
f 6/6/6 7/7/7 5/5/5
f 6/6/6 8/8/8 7/7/7
f 11/11/11 10/10/10 9/9/9
f 12/12/12 11/11/11 9/9/9
f 13/13/13 11/11/11 12/12/12
f 14/14/14 13/13/13 12/12/12
f 17/17/17 16/16/16 15/15/15
f 18/18/18 17/17/17 15/15/15
f 21/21/21 20/20/20 19/19/19
f 20/20/20 22/22/22 19/19/19
f 23/23/23 19/19/19 22/22/22
f 24/24/24 23/23/23 22/22/22
f 27/27/27 26/26/26 25/25/25
f 28/28/28 27/27/27 25/25/25
f 31/31/31 30/30/30 29/29/29
f 32/32/32 31/31/31 29/29/29
