g [gimmick]battlegate_stone2
v -0.164781 0.07279931 -0.55043024
v 0.14037429 0.07279927 -0.8562052
v 0.1213884 0.20609057 -0.75679964
v 0.21100457 0.072799265 -0.8505153
v 0.17108013 0.20609057 -0.7581469
v 0.326222 0.07279926 -0.7102262
v 0.114045635 0.2060906 -0.49262822
v 0.24228725 0.20609055 -0.6576691
v 0.35162747 0.20609055 -0.5580708
v 0.5044359 0.07279923 -0.5566135
v 0.35372427 0.2060906 -0.5306881
v 0.49608254 0.07279922 -0.4760222
v 0.1379293 0.072799265 -0.40042543
v 0.07115149 0.07279928 -0.37087977
v 0.07697059 0.20609055 -0.469487
v -0.16792466 0.0727993 -0.46470654
v -0.06409545 0.20609057 -0.5167897
v -0.07185554 0.20609057 -0.54384637
vt 0.26624468 0.98114955
vt 0.29114565 0.9834532
vt 0.28630918 0.97357804
vt 0.29248396 0.9819689
vt 0.286968 0.9730765
vt 0.29696432 0.9769997
vt 0.27446976 0.9580351
vt 0.2890375 0.9710574
vt 0.29203796 0.96806055
vt 0.30278304 0.97054625
vt 0.2885379 0.95649475
vt 0.29495627 0.94587785
vt 0.27264875 0.94587785
vt 0.26507643 0.9509599
vt 0.27122805 0.95874155
vt 0.26129702 0.97409135
vt 0.27160293 0.9720565
vt 0.2725963 0.9735013
vn -0.7812054 0.5671696 -0.26083848
vn -0.2525867 0.5468798 -0.7981995
vn -0.26971626 0.8179982 -0.50806713
vn 0.35019022 0.61903125 -0.70297015
vn 0.24966775 0.8443335 -0.47409585
vn 0.5879494 0.58419126 -0.5594962
vn 0.13394228 0.9063068 0.40083355
vn 0.31638157 0.9022606 -0.2929652
vn 0.39987522 0.88659453 -0.23248641
vn 0.6505991 0.7252847 -0.22512849
vn 0.3235739 0.8627859 0.38845932
vn 0.52634066 0.7553679 0.39036497
vn 0.27019596 0.55665827 0.7855735
vn 0.034389686 0.5909051 0.80600774
vn 0.0438556 0.83963996 0.54136986
vn -0.62721026 0.64886606 0.43079004
vn -0.38764852 0.8612814 0.32851642
vn -0.5320733 0.81891376 -0.21512365
g [gimmick]battlegate_stone2_0
f 3/3/3 2/2/2 1/1/1
f 2/2/2 3/3/3 4/4/4
f 3/3/3 5/5/5 4/4/4
f 4/4/4 5/5/5 6/6/6
f 3/3/3 7/7/7 5/5/5
f 5/5/5 7/7/7 8/8/8
f 5/5/5 8/8/8 6/6/6
f 6/6/6 8/8/8 9/9/9
f 8/8/8 7/7/7 9/9/9
f 10/10/10 6/6/6 9/9/9
f 10/10/10 9/9/9 11/11/11
f 9/9/9 7/7/7 11/11/11
f 12/12/12 10/10/10 11/11/11
f 11/11/11 7/7/7 12/12/12
f 7/7/7 13/13/13 12/12/12
f 14/14/14 13/13/13 7/7/7
f 15/15/15 14/14/14 7/7/7
f 15/15/15 7/7/7 3/3/3
f 16/16/16 14/14/14 15/15/15
f 1/1/1 16/16/16 17/17/17
f 17/17/17 16/16/16 15/15/15
f 15/15/15 3/3/3 18/18/18
f 18/18/18 3/3/3 1/1/1
f 18/18/18 1/1/1 17/17/17
f 17/17/17 15/15/15 18/18/18
