g [gimmick]battlegate_3
v -0.071481235 0.13887344 0.073845424
v -0.151298 0.071719505 -0.0054656207
v -0.16876131 0.12731609 -0.025569357
v -0.10338007 0.2085095 0.041128047
v 0.035239775 0.16438326 0.034627877
v -0.1940746 0.18757726 -0.08501703
v -0.0026553294 0.24476954 -0.005680528
v 0.07445909 0.13209075 -0.07088198
v 0.03804369 0.20744315 -0.10802745
v -0.09014552 0.2768972 -0.16410503
v -0.16689515 0.2593639 -0.054393206
v -0.23767357 0.2819217 -0.16063069
v -0.11470759 0.30231142 -0.09582878
v -0.23767357 0.2819217 -0.16063069
v -0.23767357 0.2819217 -0.16063069
v -0.09014552 0.2768972 -0.16410503
v -0.12252837 0.20057099 -0.19248919
v 0.03804369 0.20744315 -0.10802745
v -0.1703704 0.1637161 -0.15090369
v -0.1940746 0.18757726 -0.08501703
v -0.16876131 0.12731609 -0.025569357
v -0.12784103 0.09080569 -0.12867616
v -0.151298 0.071719505 -0.0054656207
v -0.11227045 0.03981078 -0.11118485
v -0.004775782 0.06437857 -0.14975289
v -0.031112421 0.122032605 -0.17444171
v 0.07445909 0.13209075 -0.07088198
v 0.035239775 0.16438326 0.034627877
v 0.07445909 0.13209075 -0.07088198
v 0.13243365 0.09249887 -0.06803376
v 0.07819508 0.13993496 0.07824137
v 0.17131892 -0.03654467 -0.029422205
v -0.07053333 0.104736425 0.13172926
v -0.071481235 0.13887344 0.073845424
v -0.17745194 0.020562032 0.022944491
v -0.151298 0.071719505 -0.0054656207
v -0.1699861 -0.0758855 0.04536824
v -0.0425432 -0.018650651 0.17610553
v -0.1856143 -0.17785977 0.05496091
v -0.04443317 -0.17783342 0.20038088
v 0.13432346 -0.17790228 0.14785211
v 0.19340958 -0.17801398 -0.028067248
v 0.11805053 -0.0027417417 0.12835109
v 0.052566793 -0.17799817 -0.1740245
v -0.11692315 -0.10774394 -0.11382416
v -0.12687992 -0.17810223 -0.12152114
v -0.1856143 -0.17785977 0.05496091
v -0.1699861 -0.0758855 0.04536824
v -0.17745194 0.020562032 0.022944491
v 0.04475216 -0.09362028 -0.16093792
v 0.19340958 -0.17801398 -0.028067248
v 0.17131892 -0.03654467 -0.029422205
v 0.13243365 0.09249887 -0.06803376
v 0.025618143 0.008899935 -0.17654115
v 0.07445909 0.13209075 -0.07088198
v -0.004775782 0.06437857 -0.14975289
v -0.12307493 -0.025409278 -0.123727806
v -0.151298 0.071719505 -0.0054656207
v -0.11227045 0.03981078 -0.11118485
vt 0.98976797 0.17774938
vt 0.98733383 0.17774938
vt 0.98733383 0.18362914
vt 0.98976797 0.18362914
vt 0.99224955 0.17774938
vt 0.98910433 0.19695666
vt 0.99224955 0.18362914
vt 0.99463564 0.17774938
vt 0.99463564 0.18362914
vt 0.9927123 0.19695666
vt 0.9903045 0.19695666
vt 0.9908641 0.20288861
vt 0.991543 0.19695666
vt 0.9908641 0.20288861
vt 0.9908641 0.20288861
vt 0.9927123 0.19695666
vt 0.991543 0.19695666
vt 0.99463564 0.18362914
vt 0.9903045 0.19695666
vt 0.98910433 0.19695666
vt 0.98733383 0.18362914
vt 0.98976797 0.18362914
vt 0.98733383 0.17774938
vt 0.98976797 0.17774938
vt 0.99224955 0.17774938
vt 0.99224955 0.18362914
vt 0.99463564 0.17774938
vt 0.991765 0.1713967
vt 0.9942589 0.1713967
vt 0.9942589 0.16753061
vt 0.991765 0.16753061
vt 0.9942589 0.16400258
vt 0.989222 0.16753061
vt 0.989222 0.1713967
vt 0.98682684 0.16753061
vt 0.98682684 0.1713967
vt 0.98682684 0.16400258
vt 0.989222 0.16400258
vt 0.98682684 0.15959872
vt 0.989222 0.15959872
vt 0.991765 0.15959872
vt 0.9942589 0.15959872
vt 0.991765 0.16400258
vt 0.991765 0.15959872
vt 0.989222 0.16400258
vt 0.989222 0.15959872
vt 0.98682684 0.15959872
vt 0.98682684 0.16400258
vt 0.98682684 0.16753061
vt 0.991765 0.16400258
vt 0.9942589 0.15959872
vt 0.9942589 0.16400258
vt 0.9942589 0.16753061
vt 0.991765 0.16753061
vt 0.9942589 0.1713967
vt 0.991765 0.1713967
vt 0.989222 0.16753061
vt 0.98682684 0.1713967
vt 0.989222 0.1713967
vn -0.28947163 0.30936465 0.90581435
vn -0.94505864 -0.21168834 0.24910292
vn -0.93391174 -0.17538257 0.31152833
vn -0.36411947 0.46867386 0.8048366
vn 0.60078585 0.56271195 0.56781304
vn -0.9437891 -0.23556817 0.23188303
vn 0.45966092 0.7781096 0.42808563
vn 0.9060192 0.29005787 -0.30821374
vn 0.7714199 0.48084277 -0.4167753
vn 0.32738638 0.6886805 -0.64694464
vn -0.566207 0.5575927 0.60704195
vn -0.81762105 0.4495447 -0.3597296
vn 0.073983245 0.9881753 0.13429886
vn -0.81762105 0.4495447 -0.3597296
vn -0.81762105 0.4495447 -0.3597296
vn 0.32738638 0.6886805 -0.64694464
vn -0.043977145 -0.059314094 -0.99727017
vn 0.7714199 0.48084277 -0.4167753
vn -0.66036284 -0.50795066 -0.55308855
vn -0.9437891 -0.23556817 0.23188303
vn -0.93391174 -0.17538257 0.31152833
vn -0.6230959 -0.49621916 -0.60458076
vn -0.94505864 -0.21168834 0.24910292
vn -0.6437329 -0.4465986 -0.6214158
vn 0.28224283 -0.24761732 -0.9268359
vn 0.24260399 -0.16112064 -0.9566522
vn 0.9060192 0.29005787 -0.30821374
vn 0.2894586 0.92482454 0.24680617
vn 0.5005694 0.7474633 -0.43672523
vn 0.7938683 0.48226228 -0.3704
vn 0.5205739 0.70076144 0.48778695
vn 0.96186614 0.18170445 -0.20444335
vn -0.3659431 0.5377378 0.759555
vn -0.42124644 0.7827817 0.45804402
vn -0.9725433 0.18651843 0.1391778
vn -0.9028792 0.4284567 -0.035128366
vn -0.9685969 0.07104139 0.23827119
vn -0.23626824 0.21803361 0.9469101
vn -0.96186715 0.15805607 0.22322601
vn -0.25349373 0.15941046 0.95411175
vn 0.6859398 0.15294547 0.7114031
vn 0.96373236 0.15401235 -0.21794544
vn 0.67129326 0.28364107 0.6847723
vn 0.25837693 0.15121804 -0.9541354
vn -0.6957117 0.0058106137 -0.71829766
vn -0.6888112 0.1496594 -0.70932454
vn -0.96186715 0.15805607 0.22322601
vn -0.9685969 0.07104139 0.23827119
vn -0.9725433 0.18651843 0.1391778
vn 0.27405584 0.04039722 -0.960865
vn 0.96373236 0.15401235 -0.21794544
vn 0.96186614 0.18170445 -0.20444335
vn 0.7938683 0.48226228 -0.3704
vn 0.18117833 0.14180261 -0.97317344
vn 0.5005694 0.7474633 -0.43672523
vn -0.008609569 0.41270962 -0.9108219
vn -0.6954271 0.00827711 -0.7185489
vn -0.9028792 0.4284567 -0.035128366
vn -0.68262243 0.2461373 -0.68807197
g [gimmick]battlegate_3_0
f 3/3/3 2/2/2 1/1/1
f 4/4/4 3/3/3 1/1/1
f 4/4/4 1/1/1 5/5/5
f 6/6/6 3/3/3 4/4/4
f 7/7/7 4/4/4 5/5/5
f 7/7/7 5/5/5 8/8/8
f 9/9/9 7/7/7 8/8/8
f 9/9/9 10/10/10 7/7/7
f 11/11/11 6/6/6 4/4/4
f 11/11/11 4/4/4 7/7/7
f 12/12/12 6/6/6 11/11/11
f 10/10/10 13/13/13 7/7/7
f 13/13/13 11/11/11 7/7/7
f 10/10/10 14/14/14 13/13/13
f 15/15/15 11/11/11 13/13/13
f 17/17/17 12/12/12 16/16/16
f 17/17/17 16/16/16 18/18/18
f 19/19/19 15/15/15 17/17/17
f 14/14/14 19/19/19 20/20/20
f 20/20/20 19/19/19 21/21/21
f 19/19/19 22/22/22 21/21/21
f 19/19/19 17/17/17 22/22/22
f 21/21/21 22/22/22 23/23/23
f 22/22/22 24/24/24 23/23/23
f 25/25/25 24/24/24 22/22/22
f 26/26/26 17/17/17 18/18/18
f 17/17/17 26/26/26 22/22/22
f 26/26/26 25/25/25 22/22/22
f 18/18/18 27/27/27 26/26/26
f 27/27/27 25/25/25 26/26/26
f 30/30/30 29/29/29 28/28/28
f 31/31/31 30/30/30 28/28/28
f 32/32/32 30/30/30 31/31/31
f 33/33/33 31/31/31 28/28/28
f 34/34/34 33/33/33 28/28/28
f 35/35/35 33/33/33 34/34/34
f 36/36/36 35/35/35 34/34/34
f 33/33/33 35/35/35 37/37/37
f 38/38/38 33/33/33 37/37/37
f 31/31/31 33/33/33 38/38/38
f 38/38/38 37/37/37 39/39/39
f 40/40/40 38/38/38 39/39/39
f 40/40/40 41/41/41 38/38/38
f 42/42/42 32/32/32 41/41/41
f 43/43/43 32/32/32 31/31/31
f 43/43/43 31/31/31 38/38/38
f 32/32/32 43/43/43 41/41/41
f 41/41/41 43/43/43 38/38/38
f 46/46/46 45/45/45 44/44/44
f 46/46/46 47/47/47 45/45/45
f 47/47/47 48/48/48 45/45/45
f 48/48/48 49/49/49 45/45/45
f 45/45/45 50/50/50 44/44/44
f 44/44/44 50/50/50 51/51/51
f 50/50/50 52/52/52 51/51/51
f 52/52/52 50/50/50 53/53/53
f 50/50/50 54/54/54 53/53/53
f 50/50/50 45/45/45 54/54/54
f 53/53/53 54/54/54 55/55/55
f 54/54/54 56/56/56 55/55/55
f 49/49/49 57/57/57 45/45/45
f 45/45/45 57/57/57 54/54/54
f 54/54/54 57/57/57 56/56/56
f 57/57/57 49/49/49 58/58/58
f 57/57/57 59/59/59 56/56/56
f 59/59/59 57/57/57 58/58/58
