g [GIMMICK]stone_slab_piece3_light
v -0.27104887 2.3507555 -0.8728458
v 0.7031397 1.9239908 -0.92592233
v 0.4960409 1.6421528 0.09847155
v -0.012450132 1.9321764 0.14937198
v 0.4960406 1.0648242 -0.0035659429
v 0.4960409 1.6421528 0.09847155
v 0.7031397 1.9239908 -0.92592233
v 0.7515707 1.1171571 -1.090363
v 0.26940042 1.1589217 -1.1242893
v 0.7515707 1.1225529 -1.1085278
v 0.4960406 1.0702201 -0.021730656
v 0.2952219 1.1059984 -0.015660744
v -0.01951098 1.3070508 -1.0981697
v 0.26940042 1.1589217 -1.1242893
v 0.2952219 1.1059984 -0.015660744
v 0.118624896 1.2064077 0.0020441145
v 0.118624896 1.2064077 0.0020441145
v -0.01245017 1.3602438 0.029169738
v -0.23394887 1.5339972 -1.0581527
v -0.01951098 1.3070508 -1.0981697
v -0.01245017 1.3602438 0.029169738
v -0.08219382 1.5489517 0.0624441
v -0.23394887 1.5339972 -1.0581527
v -0.34804899 1.8123878 -1.0090648
v -0.08219382 1.5489517 0.0624441
v -0.082193784 1.7497705 0.09785397
v -0.34804899 1.8123878 -1.0090648
v -0.34804899 2.1086454 -0.9568265
v -0.082193784 1.7497705 0.09785397
v -0.012450141 1.9375721 0.13120724
v -0.34804899 2.1086454 -0.9568265
v -0.27104887 2.356151 -0.8910106
vt 0 0.94553876
vt 1 0.94553876
vt 1 0.5219201
vt 0 0.5219201
vt 1 0.5219201
vt 0 0.5219201
vt 0 0.94553876
vt 1 0.94553876
vt 0.64466906 0.94553876
vt 1 0.94553876
vt 1 0.5219201
vt 0.64466906 0.5219201
vt 0.33006763 0.94553876
vt 0.64466906 0.94553876
vt 0.64466906 0.5219201
vt 0.33006763 0.5219201
vt 0.33006763 0.5219201
vt 0 0.5219201
vt 0 0.94553876
vt 0.33006763 0.94553876
vt 1 0.5219201
vt 0.64466906 0.5219201
vt 1 0.94553876
vt 0.64466906 0.94553876
vt 0.64466906 0.5219201
vt 0.33006763 0.5219201
vt 0.64466906 0.94553876
vt 0.33006763 0.94553876
vt 0.33006763 0.5219201
vt 0 0.5219201
vt 0.33006763 0.94553876
vt 0 0.94553876
vn 0.43354037 0.828039 0.35551974
vn 0.43354037 0.828039 0.35551974
vn 0.4335403 0.828039 0.35551974
vn 0.4335404 0.82803893 0.35551974
vn 0.9770247 -0.025364297 0.2116115
vn 0.9770247 -0.025364297 0.21161151
vn 0.9770247 -0.025364295 0.21161148
vn 0.9770247 -0.025364295 0.21161148
vn 0.10404911 0.9839753 0.14479731
vn 0.104049094 0.9839753 0.14479728
vn 0.104049094 0.9839753 0.14479731
vn 0.10404911 0.9839753 0.14479731
vn 0.47273597 0.8751855 0.10281586
vn 0.47273597 0.8751855 0.10281586
vn 0.47273597 0.8751855 0.10281587
vn 0.4727359 0.8751855 0.10281585
vn 0.7368709 0.67565876 0.022506
vn 0.7368708 0.6756588 0.022506
vn 0.7368709 0.67565876 0.022506
vn 0.7368708 0.6756588 0.022506
vn 0.9147849 0.39257756 -0.09513839
vn 0.9147849 0.39257756 -0.09513839
vn 0.9147849 0.39257756 -0.09513841
vn 0.914785 0.39257756 -0.095138416
vn 0.9720615 0.060751624 -0.22672792
vn 0.9720615 0.060751624 -0.22672792
vn 0.9720615 0.06075162 -0.22672792
vn 0.9720615 0.060751624 -0.22672792
vn 0.91742045 -0.20753425 -0.33951312
vn 0.91742045 -0.20753427 -0.33951315
vn 0.91742045 -0.20753425 -0.33951312
vn 0.9174205 -0.20753424 -0.3395131
g [GIMMICK]stone_slab_piece3_light_0
f 3/3/3 2/2/2 1/1/1
f 1/1/1 4/4/4 3/3/3
f 7/7/7 6/6/6 5/5/5
f 5/5/5 8/8/8 7/7/7
f 11/11/11 10/10/10 9/9/9
f 9/9/9 12/12/12 11/11/11
f 15/15/15 14/14/14 13/13/13
f 13/13/13 16/16/16 15/15/15
f 19/19/19 18/18/18 17/17/17
f 17/17/17 20/20/20 19/19/19
f 23/23/23 22/22/22 21/21/21
f 23/23/23 24/24/24 22/22/22
f 27/27/27 26/26/26 25/25/25
f 27/27/27 28/28/28 26/26/26
f 31/31/31 30/30/30 29/29/29
f 31/31/31 32/32/32 30/30/30
