g [GIMMICK]push_block_outdoor1
v -0.36120972 0.6087248 0.36121047
v -0.3679853 0.5614672 0.40903398
v -0.41636702 0.561467 0.36798516
v 0.41636825 0.56146693 0.36798516
v 0.3679853 0.5614672 0.40903398
v 0.36121097 0.6087248 0.36121047
v -0.41636702 0.5614671 -0.367985
v -0.36798447 0.5614672 -0.41636756
v -0.36120972 0.60872495 -0.36121023
v 0.3679857 0.5614671 -0.41636756
v 0.41636825 0.5614672 -0.367985
v 0.36121097 0.60872495 -0.36121023
v -0.36120972 0.60872495 -0.36121023
v 0.36121097 0.60872495 -0.36121023
v -0.36120972 0.6087248 0.36121047
v 0.36121097 0.6087248 0.36121047
v -0.36798447 0.5614672 -0.41636756
v -0.44593242 0.062385313 -0.49381864
v 0.3679857 0.5614671 -0.41636756
v 0.44593364 0.062385302 -0.49381864
v 0.41636825 0.5614672 -0.367985
v 0.49381924 0.062385295 -0.44593304
v 0.41636825 0.56146693 0.36798516
v 0.49381924 0.06238515 0.44593304
v -0.41636702 0.561467 0.36798516
v -0.493818 0.062385157 0.44593304
v -0.41636702 0.5614671 -0.367985
v -0.493818 0.062385283 -0.44593304
v -0.36120972 0.6087248 0.36121047
v 0.36121097 0.6087248 0.36121047
v 0.3679853 0.5614672 0.40903398
v -0.3679853 0.5614672 0.40903398
v 0.36121097 0.60872495 -0.36121023
v 0.41636825 0.5614672 -0.367985
v 0.41636825 0.56146693 0.36798516
v 0.36121097 0.6087248 0.36121047
v -0.36120972 0.60872495 -0.36121023
v -0.36798447 0.5614672 -0.41636756
v 0.36121097 0.60872495 -0.36121023
v 0.3679857 0.5614671 -0.41636756
v -0.41636702 0.5614671 -0.367985
v -0.36120972 0.60872495 -0.36121023
v -0.41636702 0.561467 0.36798516
v -0.36120972 0.6087248 0.36121047
v 0.44593364 0.062385302 -0.49381864
v 0.41636825 0.5614672 -0.367985
v 0.3679857 0.5614671 -0.41636756
v 0.49381924 0.062385295 -0.44593304
v -0.493818 0.062385283 -0.44593304
v -0.36798447 0.5614672 -0.41636756
v -0.41636702 0.5614671 -0.367985
v -0.44593242 0.062385313 -0.49381864
v 0.41010427 7.802864E-08 -0.46992946
v 0.44593364 0.062385302 -0.49381864
v -0.44593242 0.062385313 -0.49381864
v -0.41010302 7.802864E-08 -0.46992946
vt 0.3537674 0.8739767
vt 0.35198718 0.8721295
vt 0.3552738 0.8721295
vt 0.35198718 0.8721295
vt 0.3552738 0.8721295
vt 0.3537674 0.8739767
vt 0.35547364 0.8164257
vt 0.352187 0.8164257
vt 0.35396722 0.82041705
vt 0.35547364 0.8164257
vt 0.352187 0.8164257
vt 0.35396722 0.82041705
vt 0.31542248 0.8186177
vt 0.36733532 0.8186178
vt 0.31542248 0.87353235
vt 0.36733532 0.87353235
vt 0.3182258 0.8148135
vt 0.314326 0.7786702
vt 0.36263114 0.8148135
vt 0.36653107 0.7786702
vt 0.3703718 0.85440034
vt 0.37022763 0.83157367
vt 0.37201327 0.85440034
vt 0.37215742 0.83157367
vt 0.37201327 0.85440034
vt 0.37215742 0.83157367
vt 0.3703718 0.85440034
vt 0.37022763 0.83157367
vt 0.319984 0.8740237
vt 0.36021957 0.8740237
vt 0.36021957 0.87210184
vt 0.319984 0.87210184
vt 0.36635453 0.8223605
vt 0.3647779 0.8223605
vt 0.3647779 0.87304497
vt 0.36635453 0.87304497
vt 0.3201838 0.82051843
vt 0.3201838 0.81636596
vt 0.3604194 0.82051855
vt 0.3604194 0.81636596
vt 0.3647779 0.8223605
vt 0.36635453 0.8223605
vt 0.3647779 0.87304497
vt 0.36635453 0.87304497
vt 0.37014166 0.7786049
vt 0.37238982 0.8149336
vt 0.37014166 0.8149336
vt 0.37238982 0.7786049
vt 0.37238982 0.7786049
vt 0.37014166 0.8149336
vt 0.37238982 0.8149336
vt 0.37014166 0.7786049
vt 0.36701852 0.774126
vt 0.36653107 0.7766379
vt 0.314326 0.7766379
vt 0.31383848 0.774126
vn -0.29753107 0.89545166 0.3311216
vn -0.22517188 0.7087978 0.6685083
vn -0.8283548 0.538316 0.15506192
vn 0.8283551 0.53831506 0.15506348
vn 0.22516735 0.7087954 0.6685123
vn 0.29753193 0.89545095 0.33112264
vn -0.8243859 0.4704571 -0.31473467
vn -0.31473482 0.47045735 -0.82438576
vn -0.30178562 0.9043513 -0.30178523
vn 0.31473473 0.47045726 -0.8243859
vn 0.8243858 0.47045732 -0.31473482
vn 0.3017855 0.9043513 -0.30178535
vn -0.30178562 0.9043513 -0.30178523
vn 0.3017855 0.9043513 -0.30178535
vn -0.29753107 0.89545166 0.3311216
vn 0.29753193 0.89545095 0.33112264
vn -0.31473482 0.47045735 -0.82438576
vn -0.2963525 0.04632195 -0.9539547
vn 0.31473473 0.47045726 -0.8243859
vn 0.29635245 0.04632193 -0.9539547
vn 0.8243858 0.47045732 -0.31473482
vn 0.89787006 0.20055044 -0.39192957
vn 0.8283551 0.53831506 0.15506348
vn 0.98817164 0.15335138 0
vn -0.8283548 0.538316 0.15506192
vn -0.98817164 0.15335138 0
vn -0.8243859 0.4704571 -0.31473467
vn -0.8978702 0.20055045 -0.39192948
vn -0.29753107 0.89545166 0.3311216
vn 0.29753193 0.89545095 0.33112264
vn 0.22516735 0.7087954 0.6685123
vn -0.22517188 0.7087978 0.6685083
vn 0.3017855 0.9043513 -0.30178535
vn 0.8243858 0.47045732 -0.31473482
vn 0.8283551 0.53831506 0.15506348
vn 0.29753193 0.89545095 0.33112264
vn -0.30178562 0.9043513 -0.30178523
vn -0.31473482 0.47045735 -0.82438576
vn 0.3017855 0.9043513 -0.30178535
vn 0.31473473 0.47045726 -0.8243859
vn -0.8243859 0.4704571 -0.31473467
vn -0.30178562 0.9043513 -0.30178523
vn -0.8283548 0.538316 0.15506192
vn -0.29753107 0.89545166 0.3311216
vn 0.29635245 0.04632193 -0.9539547
vn 0.8243858 0.47045732 -0.31473482
vn 0.31473473 0.47045726 -0.8243859
vn 0.89787006 0.20055044 -0.39192957
vn -0.8978702 0.20055045 -0.39192948
vn -0.31473482 0.47045735 -0.82438576
vn -0.8243859 0.4704571 -0.31473467
vn -0.2963525 0.04632195 -0.9539547
vn -0 -0.3576075 -0.933872
vn 0.29635245 0.04632193 -0.9539547
vn -0.2963525 0.04632195 -0.9539547
vn -0 -0.3576075 -0.933872
g [GIMMICK]push_block_outdoor1_0
f 3/3/3 2/2/2 1/1/1
f 6/6/6 5/5/5 4/4/4
f 9/9/9 8/8/8 7/7/7
f 12/12/12 11/11/11 10/10/10
f 15/15/15 14/14/14 13/13/13
f 15/15/15 16/16/16 14/14/14
f 19/19/19 18/18/18 17/17/17
f 20/20/20 18/18/18 19/19/19
f 23/23/23 22/22/22 21/21/21
f 24/24/24 22/22/22 23/23/23
f 27/27/27 26/26/26 25/25/25
f 28/28/28 26/26/26 27/27/27
f 31/31/31 30/30/30 29/29/29
f 29/29/29 32/32/32 31/31/31
f 35/35/35 34/34/34 33/33/33
f 33/33/33 36/36/36 35/35/35
f 39/39/39 38/38/38 37/37/37
f 38/38/38 39/39/39 40/40/40
f 43/43/43 42/42/42 41/41/41
f 43/43/43 44/44/44 42/42/42
f 47/47/47 46/46/46 45/45/45
f 48/48/48 45/45/45 46/46/46
f 51/51/51 50/50/50 49/49/49
f 52/52/52 49/49/49 50/50/50
f 55/55/55 54/54/54 53/53/53
f 53/53/53 56/56/56 55/55/55
