g [GIMMICK]mystery_chest_cover1
v 1.3303868E-07 0.37822893 0.5269293
v -0.52692944 0.37822947 1.6407999E-07
v -9.977901E-08 0.37822956 -0.5269293
v 0.52692944 0.37822947 -1.685167E-07
v 1.3303868E-07 0.37822893 0.5269293
v -0.52692944 -0.2663557 1.6786055E-07
v -0.52692944 0.37822947 1.6407999E-07
v 1.3303868E-07 -0.2663557 0.5269293
v 1.3303868E-07 0.37822893 0.5269293
v 0.52692944 0.37822947 -1.685167E-07
v 0.52692944 -0.2663557 -1.6473615E-07
v 1.3303868E-07 -0.2663557 0.5269293
v -9.977901E-08 0.37822956 -0.5269293
v -9.977901E-08 -0.26635575 -0.5269293
v 0.52692944 -0.2663557 -1.6473615E-07
v 0.52692944 0.37822947 -1.685167E-07
v -0.52692944 0.37822947 1.6407999E-07
v -0.52692944 -0.2663557 1.6786055E-07
v -9.977901E-08 -0.26635575 -0.5269293
v -9.977901E-08 0.37822956 -0.5269293
vt 0.5494015 0.61373353
vt 0.5182937 0.64484143
vt 0.5494015 0.67594934
vt 0.5805094 0.64484143
vt 0.6520139 0.78605765
vt 0.5990344 0.73297495
vt 0.5990344 0.7860578
vt 0.6520139 0.73297495
vt 0.6520139 0.78605765
vt 0.5990344 0.78605765
vt 0.5990344 0.73297495
vt 0.6520139 0.73297495
vt 0.6520139 0.7860578
vt 0.6520139 0.73297495
vt 0.5990344 0.73297495
vt 0.5990344 0.7860578
vt 0.5990344 0.7860578
vt 0.5990344 0.73297495
vt 0.6520139 0.73297495
vt 0.6520139 0.7860578
vn -0 1 5.832129E-07
vn -0 1 5.8321285E-07
vn -0 1 5.8321285E-07
vn -0 1 5.8321285E-07
vn -0.7071066 0 0.7071069
vn -0.70710653 0 0.707107
vn -0.7071066 0 0.70710695
vn -0.7071066 0 0.70710695
vn 0.7071069 0 0.70710665
vn 0.7071069 0 0.7071066
vn 0.70710695 0 0.7071066
vn 0.70710695 0 0.7071066
vn 0.7071065 0 -0.707107
vn 0.7071065 0 -0.707107
vn 0.7071065 0 -0.707107
vn 0.7071065 0 -0.707107
vn -0.70710695 0 -0.7071066
vn -0.70710695 0 -0.7071066
vn -0.7071069 0 -0.7071066
vn -0.7071069 0 -0.7071066
g [GIMMICK]mystery_chest_cover1_0
f 3/3/3 2/2/2 1/1/1
f 1/1/1 4/4/4 3/3/3
f 7/7/7 6/6/6 5/5/5
f 6/6/6 8/8/8 5/5/5
f 11/11/11 10/10/10 9/9/9
f 9/9/9 12/12/12 11/11/11
f 15/15/15 14/14/14 13/13/13
f 13/13/13 16/16/16 15/15/15
f 19/19/19 18/18/18 17/17/17
f 17/17/17 20/20/20 19/19/19
