g [GIMMICK]mouse_wheel_F
v -0.043598354 0.06008411 2.30484E-07
v 0.05050696 0.0520343 -0.029911254
v 0.050506998 0.06008405 2.6889802E-07
v -0.043598354 0.05203432 -0.029911254
v 0.05050696 0.030042015 -0.051808193
v -0.05045168 0.049179487 -0.02827017
v -0.05045168 0.05678755 2.30484E-07
v -0.05045168 0.028393824 -0.048965637
v -0.04359839 0.030042054 -0.051808193
v 0.05050696 -1.9207E-08 -0.059822816
v -0.05045168 0 -0.05654053
v -0.04359839 0 -0.05982289
v 0.05050696 -0.030042091 -0.051808156
v -0.05045168 -0.028393747 -0.048965637
v -0.04359839 -0.030042073 -0.051808156
v 0.05050696 -0.052034378 -0.029911254
v -0.05045168 -0.049179487 -0.028270323
v -0.043598432 -0.052034378 -0.029911254
v 0.05050696 -0.060084146 2.30484E-07
v -0.05045168 -0.05678759 2.30484E-07
v -0.04359839 -0.060084127 2.30484E-07
v -0.04359839 -0.060084127 2.30484E-07
v 0.05050696 -0.052034397 0.029911792
v 0.05050696 -0.060084146 2.30484E-07
v -0.04359839 -0.052034378 0.029911792
v 0.05050696 -0.030042112 0.05180854
v -0.05045168 -0.049179487 0.028270554
v -0.05045168 -0.05678759 2.30484E-07
v -0.05045168 -0.028393805 0.04896598
v -0.04359839 -0.030042091 0.05180854
v 0.05050696 -5.7621E-08 0.059823275
v -0.05045168 -3.8414E-08 0.05654107
v -0.04359839 -3.8414E-08 0.059823275
v 0.05050696 0.030041939 0.05180854
v -0.05045168 0.028393786 0.048966058
v -0.04359839 0.030041957 0.05180854
v 0.050506998 0.052034263 0.02991183
v -0.05045168 0.049179427 0.02827063
v -0.043598354 0.0520343 0.029911907
v 0.050506998 0.06008405 2.6889802E-07
v -0.05045168 0.05678755 2.30484E-07
v -0.043598354 0.06008411 2.30484E-07
v -0.050506882 0.015227828 2.30484E-07
v -0.050506882 0.0076138857 -0.013130251
v -0.050506882 0.013187641 -0.007580619
v -0.050506882 0.0076138857 0.013130635
v -0.050506882 0.01318768 0.007581003
v -0.050506882 -0.015227867 2.30484E-07
v -0.050506882 -0.007613924 -0.013130251
v -0.050506882 -3.8414E-08 -0.0151614295
v -0.050506882 -0.013187699 -0.007580542
v -0.050506882 -0.007613924 0.013130635
v -0.050506882 -0.013187699 0.00758108
v -0.050506882 -1.9207E-08 0.015161968
v -0.05045168 0.039835587 2.30484E-07
v -0.044837706 0.030803131 -0.017706664
v -0.05045168 0.034498617 -0.019831035
v -0.044837706 0.035568386 2.30484E-07
v -0.05045168 0.034498617 -0.019831035
v -0.044837706 0.017784165 -0.030669047
v -0.05045168 0.019917794 -0.03434857
v -0.044837706 0.030803131 -0.017706664
v -0.05045168 0.019917794 -0.03434857
v -0.044837706 -3.8414E-08 -0.035413597
v -0.05045168 0 -0.0396623
v -0.044837706 0.017784165 -0.030669047
v -0.05045168 0 -0.0396623
v -0.044837706 -0.017784223 -0.03066901
v -0.05045168 -0.019917812 -0.03434857
v -0.044837706 -3.8414E-08 -0.035413597
v -0.05045168 -0.019917812 -0.03434857
v -0.044837706 -0.030803131 -0.017706703
v -0.05045168 -0.034498617 -0.019831114
v -0.044837706 -0.017784223 -0.03066901
v -0.05045168 -0.034498617 -0.019831114
v -0.044837706 -0.03556841 1.9207E-07
v -0.05045168 -0.039835587 1.53656E-07
v -0.044837706 -0.030803131 -0.017706703
v -0.05045168 -0.039835587 1.53656E-07
v -0.044837706 -0.030803131 0.017707126
v -0.05045168 -0.034498654 0.019831497
v -0.044837706 -0.03556841 1.9207E-07
v -0.05045168 -0.034498654 0.019831497
v -0.044837706 -0.017784223 0.03066947
v -0.05045168 -0.019917833 0.034348916
v -0.044837706 -0.030803131 0.017707126
v -0.05045168 -0.019917833 0.034348916
v -0.044837706 0 0.03541402
v -0.05045168 -3.8414E-08 0.039662763
v -0.044837706 -0.017784223 0.03066947
v -0.05045168 -3.8414E-08 0.039662763
v -0.044837706 0.017784147 0.03066947
v -0.05045168 0.019917736 0.034348994
v -0.044837706 0 0.03541402
v -0.05045168 0.019917736 0.034348994
v -0.044837706 0.030803112 0.017707126
v -0.05045168 0.034498617 0.019831497
v -0.044837706 0.017784147 0.03066947
v -0.05045168 0.034498617 0.019831497
v -0.044837706 0.035568386 2.30484E-07
v -0.05045168 0.039835587 2.30484E-07
v -0.044837706 0.030803112 0.017707126
v -0.044837706 0.018616386 2.30484E-07
v -0.050506882 0.013187641 -0.007580619
v -0.044837706 0.01612228 -0.009267609
v -0.050506882 0.015227828 2.30484E-07
v -0.044837706 0.01612228 -0.009267609
v -0.050506882 0.0076138857 -0.013130251
v -0.044837706 0.009308173 -0.016052058
v -0.050506882 0.013187641 -0.007580619
v -0.044837706 0.009308173 -0.016052058
v -0.050506882 -3.8414E-08 -0.0151614295
v -0.044837706 -3.8414E-08 -0.018535217
v -0.050506882 0.0076138857 -0.013130251
v -0.044837706 -3.8414E-08 -0.018535217
v -0.050506882 -0.007613924 -0.013130251
v -0.044837706 -0.0093082115 -0.016051866
v -0.050506882 -3.8414E-08 -0.0151614295
v -0.044837706 -0.0093082115 -0.016051866
v -0.050506882 -0.013187699 -0.007580542
v -0.044837706 -0.016122298 -0.0092675695
v -0.050506882 -0.007613924 -0.013130251
v -0.044837706 -0.016122298 -0.0092675695
v -0.050506882 -0.015227867 2.30484E-07
v -0.044837706 -0.018616423 1.9207E-07
v -0.050506882 -0.013187699 -0.007580542
v -0.044837706 -0.018616423 1.9207E-07
v -0.050506882 -0.013187699 0.00758108
v -0.044837706 -0.016122298 0.0092680305
v -0.050506882 -0.015227867 2.30484E-07
v -0.044837706 -0.016122298 0.0092680305
v -0.050506882 -0.007613924 0.013130635
v -0.044837706 -0.0093082115 0.016052444
v -0.050506882 -0.013187699 0.00758108
v -0.044837706 -0.0093082115 0.016052444
v -0.050506882 -1.9207E-08 0.015161968
v -0.044837706 0 0.018535716
v -0.050506882 -0.007613924 0.013130635
v -0.044837706 0 0.018535716
v -0.050506882 0.0076138857 0.013130635
v -0.044837706 0.009308173 0.016052444
v -0.050506882 -1.9207E-08 0.015161968
v -0.044837706 0.009308173 0.016052444
v -0.050506882 0.01318768 0.007581003
v -0.044837706 0.01612224 0.0092680305
v -0.050506882 0.0076138857 0.013130635
v -0.044837706 0.01612224 0.0092680305
v -0.050506882 0.015227828 2.30484E-07
v -0.044837706 0.018616386 2.30484E-07
v -0.050506882 0.01318768 0.007581003
v -0.05045168 0.034498617 -0.019831035
v -0.05045168 0.05678755 2.30484E-07
v -0.05045168 0.039835587 2.30484E-07
v -0.05045168 0.049179487 -0.02827017
v -0.05045168 0.049179427 0.02827063
v -0.05045168 0.019917794 -0.03434857
v -0.05045168 0.034498617 0.019831497
v -0.05045168 0.028393824 -0.048965637
v -0.05045168 0.028393786 0.048966058
v -0.05045168 0 -0.0396623
v -0.05045168 0.019917736 0.034348994
v -0.05045168 0 -0.05654053
v -0.05045168 -3.8414E-08 0.05654107
v -0.05045168 -0.019917812 -0.03434857
v -0.05045168 -3.8414E-08 0.039662763
v -0.05045168 -0.028393747 -0.048965637
v -0.05045168 -0.028393805 0.04896598
v -0.05045168 -0.034498617 -0.019831114
v -0.05045168 -0.019917833 0.034348916
v -0.05045168 -0.049179487 -0.028270323
v -0.05045168 -0.049179487 0.028270554
v -0.05045168 -0.039835587 1.53656E-07
v -0.05045168 -0.034498654 0.019831497
v -0.05045168 -0.05678759 2.30484E-07
v -0.044837706 0.01612228 -0.009267609
v -0.044837706 0.035568386 2.30484E-07
v -0.044837706 0.018616386 2.30484E-07
v -0.044837706 0.030803131 -0.017706664
v -0.044837706 0.030803112 0.017707126
v -0.044837706 0.009308173 -0.016052058
v -0.044837706 0.01612224 0.0092680305
v -0.044837706 0.017784165 -0.030669047
v -0.044837706 0.017784147 0.03066947
v -0.044837706 -3.8414E-08 -0.018535217
v -0.044837706 0.009308173 0.016052444
v -0.044837706 -3.8414E-08 -0.035413597
v -0.044837706 0 0.03541402
v -0.044837706 -0.0093082115 -0.016051866
v -0.044837706 0 0.018535716
v -0.044837706 -0.017784223 -0.03066901
v -0.044837706 -0.017784223 0.03066947
v -0.044837706 -0.016122298 -0.0092675695
v -0.044837706 -0.0093082115 0.016052444
v -0.044837706 -0.030803131 -0.017706703
v -0.044837706 -0.030803131 0.017707126
v -0.044837706 -0.018616423 1.9207E-07
v -0.044837706 -0.016122298 0.0092680305
v -0.044837706 -0.03556841 1.9207E-07
vt 0.25288 0.74235296
vt 0.26430714 0.7432416
vt 0.26430714 0.74235296
vt 0.25288 0.7432416
vt 0.26430714 0.7456776
vt 0.25104797 0.7435612
vt 0.25104797 0.74271923
vt 0.25104797 0.7458647
vt 0.25288 0.7456776
vt 0.26430714 0.749014
vt 0.25104797 0.749014
vt 0.25288 0.749014
vt 0.26430714 0.7523349
vt 0.25104797 0.7521556
vt 0.25288 0.7523349
vt 0.26430714 0.75477093
vt 0.25104797 0.7544552
vt 0.25288 0.75477093
vt 0.26430714 0.7556674
vt 0.25104797 0.75530094
vt 0.25288 0.7556674
vt 0.25288 0.7556674
vt 0.26430714 0.75477093
vt 0.26430714 0.7556674
vt 0.25288 0.75477093
vt 0.26430714 0.7523349
vt 0.25104797 0.7544552
vt 0.25104797 0.75530094
vt 0.25104797 0.7521556
vt 0.25288 0.7523349
vt 0.26430714 0.749014
vt 0.25104797 0.749014
vt 0.25288 0.749014
vt 0.26430714 0.7456776
vt 0.25104797 0.7458647
vt 0.25288 0.7456776
vt 0.26430714 0.7432416
vt 0.25104797 0.7435612
vt 0.25288 0.7432416
vt 0.26430714 0.74235296
vt 0.25104797 0.74271923
vt 0.25288 0.74235296
vt 0.27340364 0.7348227
vt 0.2719562 0.733997
vt 0.27256796 0.73460144
vt 0.27485108 0.733997
vt 0.27423933 0.73460144
vt 0.27340364 0.73151994
vt 0.2719562 0.73234564
vt 0.27173227 0.73317134
vt 0.27256796 0.73174125
vt 0.27485108 0.73234564
vt 0.27423933 0.73174125
vt 0.27507502 0.73317134
vt 0.27339882 0.74213624
vt 0.27621484 0.7553696
vt 0.27655265 0.74213624
vt 0.27339882 0.7553696
vt 0.27655265 0.74213624
vt 0.27827626 0.7553696
vt 0.27886146 0.74213624
vt 0.27621484 0.7553696
vt 0.27886146 0.74213624
vt 0.2790308 0.7553696
vt 0.27970648 0.74213624
vt 0.27827626 0.7553696
vt 0.27970648 0.74213624
vt 0.27827626 0.7553696
vt 0.27886146 0.74213624
vt 0.2790308 0.7553696
vt 0.27886146 0.74213624
vt 0.27621484 0.7553696
vt 0.27655265 0.74213624
vt 0.27827626 0.7553696
vt 0.27655265 0.74213624
vt 0.27339882 0.75536966
vt 0.27339882 0.7421363
vt 0.27621484 0.7553696
vt 0.27339882 0.7421363
vt 0.27058282 0.75536966
vt 0.27024502 0.7421363
vt 0.27339882 0.75536966
vt 0.27024502 0.7421363
vt 0.26852137 0.75536966
vt 0.26793623 0.7421363
vt 0.27058282 0.75536966
vt 0.26793623 0.7421363
vt 0.26776683 0.75536966
vt 0.26709116 0.7421363
vt 0.26852137 0.75536966
vt 0.26709116 0.7421363
vt 0.26852137 0.75536966
vt 0.26793623 0.7421363
vt 0.26776683 0.75536966
vt 0.26793623 0.7421363
vt 0.27058282 0.75536966
vt 0.27024496 0.7421363
vt 0.26852137 0.75536966
vt 0.27024496 0.7421363
vt 0.27339882 0.7553696
vt 0.27339882 0.74213624
vt 0.27058282 0.75536966
vt 0.27339882 0.7553696
vt 0.2746044 0.7420062
vt 0.27487272 0.7553696
vt 0.27339882 0.7420062
vt 0.27487272 0.7553696
vt 0.275487 0.7420062
vt 0.27595162 0.7553696
vt 0.2746044 0.7420062
vt 0.27595162 0.7553696
vt 0.27581003 0.7420062
vt 0.27634656 0.75536966
vt 0.275487 0.7420062
vt 0.27634656 0.75536966
vt 0.275487 0.7420062
vt 0.27595162 0.75536966
vt 0.27581003 0.7420062
vt 0.27595162 0.75536966
vt 0.2746044 0.7420062
vt 0.27487272 0.7553696
vt 0.275487 0.7420062
vt 0.27487272 0.7553696
vt 0.27339882 0.7420062
vt 0.27339882 0.75536966
vt 0.2746044 0.7420062
vt 0.27339882 0.75536966
vt 0.2721932 0.7420062
vt 0.27192497 0.7553696
vt 0.27339882 0.7420062
vt 0.27192497 0.7553696
vt 0.27131066 0.7420062
vt 0.270846 0.75536966
vt 0.2721932 0.7420062
vt 0.270846 0.75536966
vt 0.27098763 0.7420062
vt 0.27045107 0.75536966
vt 0.27131066 0.7420062
vt 0.27045107 0.75536966
vt 0.27131066 0.7420062
vt 0.27084595 0.7553696
vt 0.27098763 0.7420062
vt 0.27084595 0.7553696
vt 0.2721932 0.7420062
vt 0.27192497 0.7553696
vt 0.27131066 0.7420062
vt 0.27192497 0.7553696
vt 0.27339882 0.7420062
vt 0.27339882 0.7553696
vt 0.2721932 0.7420062
vt 0.27121753 0.7369124
vt 0.27340364 0.73932946
vt 0.27340364 0.7374912
vt 0.27028722 0.73850447
vt 0.27652007 0.73850447
vt 0.26961717 0.73533124
vt 0.27558976 0.7369124
vt 0.26800585 0.7362504
vt 0.27880147 0.7362504
vt 0.26903138 0.73317134
vt 0.27719015 0.73533124
vt 0.2671708 0.73317134
vt 0.2796365 0.73317134
vt 0.26961717 0.7310114
vt 0.27777588 0.73317134
vt 0.26800585 0.7300922
vt 0.27880147 0.7300922
vt 0.27121753 0.7294302
vt 0.27719015 0.7310114
vt 0.27028722 0.7278382
vt 0.27652007 0.7278382
vt 0.27340364 0.7288515
vt 0.27558976 0.7294302
vt 0.27340364 0.7270132
vt 0.25604936 0.7357279
vt 0.2573528 0.73845094
vt 0.2573528 0.73607713
vt 0.2548625 0.7377837
vt 0.25984314 0.7377837
vt 0.2550952 0.73477376
vt 0.25865623 0.7357279
vt 0.25303945 0.7359606
vt 0.26166615 0.7359606
vt 0.25474593 0.7334703
vt 0.25961038 0.73477376
vt 0.25237218 0.7334703
vt 0.26233345 0.7334703
vt 0.2550952 0.7321668
vt 0.25995967 0.7334703
vt 0.25303945 0.7309799
vt 0.26166615 0.7309799
vt 0.25604936 0.7312127
vt 0.25961038 0.7321668
vt 0.2548625 0.72915685
vt 0.25984314 0.72915685
vt 0.2573528 0.73086345
vt 0.25865623 0.7312127
vt 0.2573528 0.72848964
vn -0.21471567 0.9766766 0
vn 3.831506E-07 0.8652084 -0.5014124
vn 6.623357E-07 1 5.992578E-07
vn -0.21453306 0.845114 -0.48965073
vn 1.4410612E-07 0.49858627 -0.8668401
vn -0.4330828 0.7797315 -0.4521703
vn -0.43347472 0.9011658 7.3765756E-07
vn -0.43232894 0.44936618 -0.7817683
vn -0.21418132 0.48710388 -0.84667355
vn 5.128237E-07 -2.4545383E-07 -1
vn -0.43195832 8.290111E-07 -0.9018936
vn -0.2140072 1.8603022E-07 -0.9768321
vn 2.2356012E-07 -0.49858648 -0.86683995
vn -0.4323321 -0.4493614 -0.7817693
vn -0.21418118 -0.4871039 -0.84667367
vn -0 -0.865208 -0.5014131
vn -0.43308464 -0.7797294 -0.4521723
vn -0.21453364 -0.8451147 -0.48964924
vn -1.227095E-07 -1 -5.4031426E-07
vn -0.43347427 -0.9011659 7.0123014E-07
vn -0.21471636 -0.9766764 0
vn -0.21471636 -0.9766764 0
vn -1.7658974E-07 -0.8652074 0.5014141
vn -1.227095E-07 -1 -5.4031426E-07
vn -0.21454056 -0.84511167 0.4896514
vn -1.01761884E-07 -0.4985858 0.8668403
vn -0.43309736 -0.77972656 0.45216495
vn -0.43347427 -0.9011659 7.0123014E-07
vn -0.43233302 -0.44936508 0.78176665
vn -0.2141824 -0.4871035 0.84667355
vn -0 1.9636325E-07 1
vn -0.43194324 -2.550809E-07 0.90190077
vn -0.21399945 1.522061E-07 0.97683376
vn 1.0176179E-07 0.49858528 0.8668406
vn -0.43231967 0.4493691 0.7817718
vn -0.2141767 0.48710284 0.84667534
vn 4.643247E-07 0.8652066 0.50141543
vn -0.43309474 0.7797269 0.45216683
vn -0.21453923 0.84511054 0.48965406
vn 6.623357E-07 1 5.992578E-07
vn -0.43347472 0.9011658 7.3765756E-07
vn -0.21471567 0.9766766 0
vn -1 0 0
vn -1 0 0
vn -1 0 0
vn -1 0 0
vn -1 0 0
vn -1 0 0
vn -1 0 0
vn -1 0 0
vn -1 0 0
vn -1 0 0
vn -1 0 0
vn -1 0 0
vn -0.5917062 -0.77845645 0.20949751
vn -0.5917062 -0.77845645 0.20949751
vn -0.5917062 -0.77845645 0.20949751
vn -0.5917069 -0.7784561 0.2094971
vn -0.5909872 -0.5691676 0.5716488
vn -0.5909872 -0.5691676 0.5716488
vn -0.5909872 -0.5691676 0.5716488
vn -0.59098184 -0.5691687 0.57165325
vn -0.5902618 -0.20807318 0.7799337
vn -0.5902618 -0.20807317 0.7799337
vn -0.5902618 -0.20807317 0.7799337
vn -0.5902642 -0.20807375 0.7799317
vn -0.59026664 0.2080721 0.7799303
vn -0.5902667 0.2080721 0.7799303
vn -0.59026664 0.2080721 0.77993035
vn -0.59025955 0.20807645 0.77993447
vn -0.59098446 0.56916785 0.5716514
vn -0.5909845 0.5691679 0.57165134
vn -0.59098446 0.56916785 0.57165134
vn -0.59098756 0.56916535 0.57165074
vn -0.59170604 0.7784566 0.20949754
vn -0.59170604 0.7784567 0.20949756
vn -0.59170604 0.7784566 0.20949756
vn -0.5917072 0.7784557 0.20949784
vn -0.59170943 0.7784549 -0.20949475
vn -0.59170943 0.7784549 -0.20949475
vn -0.59170943 0.7784549 -0.20949472
vn -0.5917042 0.77845794 -0.20949796
vn -0.59098125 0.5691684 -0.57165414
vn -0.59098125 0.56916845 -0.57165414
vn -0.59098125 0.5691685 -0.5716542
vn -0.59098446 0.56916773 -0.57165146
vn -0.59026474 0.20807686 -0.7799305
vn -0.59026474 0.20807686 -0.7799305
vn -0.5902647 0.20807683 -0.7799305
vn -0.5902568 0.20807497 -0.77993697
vn -0.5902633 -0.20807445 -0.77993214
vn -0.5902633 -0.20807445 -0.77993226
vn -0.5902633 -0.20807447 -0.77993214
vn -0.5902631 -0.20807461 -0.7799323
vn -0.59098303 -0.5691678 -0.57165277
vn -0.59098303 -0.5691678 -0.57165277
vn -0.59098303 -0.5691678 -0.57165277
vn -0.5909851 -0.5691662 -0.5716525
vn -0.5917068 -0.77845603 -0.20949739
vn -0.5917068 -0.7784561 -0.20949736
vn -0.5917069 -0.77845603 -0.20949739
vn -0.591708 -0.778455 -0.20949768
vn -0.49989796 0.83632916 -0.22506794
vn -0.49989802 0.83632916 -0.22506797
vn -0.49989796 0.83632916 -0.22506793
vn -0.49988893 0.83633214 -0.22507685
vn -0.49918094 0.61136883 -0.6140412
vn -0.49918094 0.6113688 -0.61404115
vn -0.4991809 0.6113688 -0.61404115
vn -0.499193 0.6113714 -0.6140289
vn -0.4984722 0.22345053 -0.8376129
vn -0.49847218 0.22345053 -0.8376129
vn -0.49847224 0.22345056 -0.83761287
vn -0.49847302 0.22345112 -0.83761215
vn -0.49845374 -0.22347026 -0.8376186
vn -0.49845368 -0.22347024 -0.8376186
vn -0.49845374 -0.22347029 -0.8376186
vn -0.49847198 -0.22345236 -0.8376125
vn -0.49919078 -0.61135876 -0.6140433
vn -0.49919075 -0.61135876 -0.6140433
vn -0.49919075 -0.61135876 -0.6140433
vn -0.49916363 -0.6113865 -0.6140377
vn -0.49989063 -0.8363323 -0.22507241
vn -0.49989063 -0.8363323 -0.22507241
vn -0.4998906 -0.8363323 -0.22507238
vn -0.4998958 -0.8363282 -0.22507598
vn -0.49989277 -0.83633155 0.22507034
vn -0.49989277 -0.83633155 0.22507031
vn -0.49989277 -0.83633155 0.22507034
vn -0.499888 -0.83633316 0.225075
vn -0.49918106 -0.61136794 0.61404204
vn -0.49918106 -0.6113679 0.61404204
vn -0.49918106 -0.61136794 0.61404204
vn -0.49918583 -0.6113689 0.6140371
vn -0.49846622 -0.22346109 0.8376136
vn -0.49846622 -0.2234611 0.8376136
vn -0.49846622 -0.22346106 0.8376136
vn -0.4984751 -0.22346716 0.83760667
vn -0.49847424 0.22346076 0.837609
vn -0.49847424 0.22346075 0.83760893
vn -0.49847424 0.22346076 0.837609
vn -0.4984665 0.22346842 0.8376115
vn -0.4991887 0.6113657 0.61403805
vn -0.49918872 0.6113657 0.614038
vn -0.49918863 0.6113657 0.614038
vn -0.49918008 0.6113744 0.61403626
vn -0.49988934 0.8363329 0.22507335
vn -0.49988934 0.8363329 0.22507335
vn -0.4998893 0.8363328 0.22507334
vn -0.4998913 0.8363313 0.22507466
vn -1 0 0
vn -1 0 0
vn -1 0 0
vn -1 0 0
vn -1 0 0
vn -1 0 0
vn -1 0 0
vn -1 0 0
vn -1 0 0
vn -1 0 0
vn -1 0 0
vn -1 0 0
vn -1 0 0
vn -1 0 0
vn -1 0 0
vn -1 0 0
vn -1 0 0
vn -1 0 0
vn -1 0 0
vn -1 0 0
vn -1 0 0
vn -1 0 0
vn -1 0 0
vn -1 0 0
vn -1 0 0
vn -1 0 0
vn -1 0 0
vn -1 0 0
vn -1 0 0
vn -1 0 0
vn -1 0 0
vn -1 0 0
vn -1 0 0
vn -1 0 0
vn -1 0 0
vn -1 0 0
vn -1 0 0
vn -1 0 0
vn -1 0 0
vn -1 0 0
vn -1 0 0
vn -1 0 0
vn -1 0 0
vn -1 0 0
vn -1 0 0
vn -1 0 0
vn -1 0 0
vn -1 0 0
g [GIMMICK]mouse_wheel_F_0
f 3/3/3 2/2/2 1/1/1
f 4/4/4 1/1/1 2/2/2
f 2/2/2 5/5/5 4/4/4
f 4/4/4 6/6/6 1/1/1
f 7/7/7 1/1/1 6/6/6
f 6/6/6 4/4/4 8/8/8
f 9/9/9 4/4/4 5/5/5
f 9/9/9 8/8/8 4/4/4
f 5/5/5 10/10/10 9/9/9
f 8/8/8 9/9/9 11/11/11
f 12/12/12 9/9/9 10/10/10
f 12/12/12 11/11/11 9/9/9
f 10/10/10 13/13/13 12/12/12
f 11/11/11 12/12/12 14/14/14
f 15/15/15 12/12/12 13/13/13
f 15/15/15 14/14/14 12/12/12
f 13/13/13 16/16/16 15/15/15
f 14/14/14 15/15/15 17/17/17
f 18/18/18 15/15/15 16/16/16
f 18/18/18 17/17/17 15/15/15
f 16/16/16 19/19/19 18/18/18
f 17/17/17 18/18/18 20/20/20
f 21/21/21 18/18/18 19/19/19
f 21/21/21 20/20/20 18/18/18
f 24/24/24 23/23/23 22/22/22
f 25/25/25 22/22/22 23/23/23
f 23/23/23 26/26/26 25/25/25
f 25/25/25 27/27/27 22/22/22
f 28/28/28 22/22/22 27/27/27
f 27/27/27 25/25/25 29/29/29
f 30/30/30 25/25/25 26/26/26
f 30/30/30 29/29/29 25/25/25
f 26/26/26 31/31/31 30/30/30
f 29/29/29 30/30/30 32/32/32
f 33/33/33 30/30/30 31/31/31
f 33/33/33 32/32/32 30/30/30
f 31/31/31 34/34/34 33/33/33
f 32/32/32 33/33/33 35/35/35
f 36/36/36 33/33/33 34/34/34
f 36/36/36 35/35/35 33/33/33
f 34/34/34 37/37/37 36/36/36
f 35/35/35 36/36/36 38/38/38
f 39/39/39 36/36/36 37/37/37
f 39/39/39 38/38/38 36/36/36
f 37/37/37 40/40/40 39/39/39
f 38/38/38 39/39/39 41/41/41
f 42/42/42 39/39/39 40/40/40
f 42/42/42 41/41/41 39/39/39
f 45/45/45 44/44/44 43/43/43
f 44/44/44 46/46/46 43/43/43
f 43/43/43 46/46/46 47/47/47
f 48/48/48 46/46/46 44/44/44
f 49/49/49 48/48/48 44/44/44
f 50/50/50 49/49/49 44/44/44
f 51/51/51 48/48/48 49/49/49
f 52/52/52 46/46/46 48/48/48
f 53/53/53 52/52/52 48/48/48
f 54/54/54 46/46/46 52/52/52
f 57/57/57 56/56/56 55/55/55
f 58/58/58 55/55/55 56/56/56
f 61/61/61 60/60/60 59/59/59
f 62/62/62 59/59/59 60/60/60
f 65/65/65 64/64/64 63/63/63
f 66/66/66 63/63/63 64/64/64
f 69/69/69 68/68/68 67/67/67
f 70/70/70 67/67/67 68/68/68
f 73/73/73 72/72/72 71/71/71
f 74/74/74 71/71/71 72/72/72
f 77/77/77 76/76/76 75/75/75
f 78/78/78 75/75/75 76/76/76
f 81/81/81 80/80/80 79/79/79
f 82/82/82 79/79/79 80/80/80
f 85/85/85 84/84/84 83/83/83
f 86/86/86 83/83/83 84/84/84
f 89/89/89 88/88/88 87/87/87
f 90/90/90 87/87/87 88/88/88
f 93/93/93 92/92/92 91/91/91
f 94/94/94 91/91/91 92/92/92
f 97/97/97 96/96/96 95/95/95
f 98/98/98 95/95/95 96/96/96
f 101/101/101 100/100/100 99/99/99
f 102/102/102 99/99/99 100/100/100
f 105/105/105 104/104/104 103/103/103
f 106/106/106 103/103/103 104/104/104
f 109/109/109 108/108/108 107/107/107
f 110/110/110 107/107/107 108/108/108
f 113/113/113 112/112/112 111/111/111
f 114/114/114 111/111/111 112/112/112
f 117/117/117 116/116/116 115/115/115
f 118/118/118 115/115/115 116/116/116
f 121/121/121 120/120/120 119/119/119
f 122/122/122 119/119/119 120/120/120
f 125/125/125 124/124/124 123/123/123
f 126/126/126 123/123/123 124/124/124
f 129/129/129 128/128/128 127/127/127
f 130/130/130 127/127/127 128/128/128
f 133/133/133 132/132/132 131/131/131
f 134/134/134 131/131/131 132/132/132
f 137/137/137 136/136/136 135/135/135
f 138/138/138 135/135/135 136/136/136
f 141/141/141 140/140/140 139/139/139
f 142/142/142 139/139/139 140/140/140
f 145/145/145 144/144/144 143/143/143
f 146/146/146 143/143/143 144/144/144
f 149/149/149 148/148/148 147/147/147
f 150/150/150 147/147/147 148/148/148
f 153/153/153 152/152/152 151/151/151
f 154/154/154 151/151/151 152/152/152
f 152/152/152 153/153/153 155/155/155
f 151/151/151 154/154/154 156/156/156
f 157/157/157 155/155/155 153/153/153
f 158/158/158 156/156/156 154/154/154
f 155/155/155 157/157/157 159/159/159
f 156/156/156 158/158/158 160/160/160
f 161/161/161 159/159/159 157/157/157
f 162/162/162 160/160/160 158/158/158
f 159/159/159 161/161/161 163/163/163
f 160/160/160 162/162/162 164/164/164
f 165/165/165 163/163/163 161/161/161
f 166/166/166 164/164/164 162/162/162
f 163/163/163 165/165/165 167/167/167
f 164/164/164 166/166/166 168/168/168
f 169/169/169 167/167/167 165/165/165
f 170/170/170 168/168/168 166/166/166
f 167/167/167 169/169/169 171/171/171
f 168/168/168 170/170/170 172/172/172
f 173/173/173 171/171/171 169/169/169
f 174/174/174 172/172/172 170/170/170
f 171/171/171 173/173/173 174/174/174
f 172/172/172 174/174/174 173/173/173
f 177/177/177 176/176/176 175/175/175
f 178/178/178 175/175/175 176/176/176
f 176/176/176 177/177/177 179/179/179
f 175/175/175 178/178/178 180/180/180
f 181/181/181 179/179/179 177/177/177
f 182/182/182 180/180/180 178/178/178
f 179/179/179 181/181/181 183/183/183
f 180/180/180 182/182/182 184/184/184
f 185/185/185 183/183/183 181/181/181
f 186/186/186 184/184/184 182/182/182
f 183/183/183 185/185/185 187/187/187
f 184/184/184 186/186/186 188/188/188
f 189/189/189 187/187/187 185/185/185
f 190/190/190 188/188/188 186/186/186
f 187/187/187 189/189/189 191/191/191
f 188/188/188 190/190/190 192/192/192
f 193/193/193 191/191/191 189/189/189
f 194/194/194 192/192/192 190/190/190
f 191/191/191 193/193/193 195/195/195
f 192/192/192 194/194/194 196/196/196
f 197/197/197 195/195/195 193/193/193
f 198/198/198 196/196/196 194/194/194
f 195/195/195 197/197/197 198/198/198
f 196/196/196 198/198/198 197/197/197
