g [inn]house_weathercock
v 0.0029696655 1.1044586 -0.0048061344
v 0.05894104 -0.12109373 -0.040998876
v 0.022572326 -0.13630715 0.029049924
v -0.03599884 -0.12109373 -0.040998876
v 0.0029696655 1.1044586 -0.0048061344
v 0.022572326 -0.13630715 0.029049924
v -0.041079406 0.9544329 0.049968995
v -0.06502686 0.97864705 0.073289335
v -0.050772093 1.0093765 0.049968928
v -0.093526915 1.0452374 0.049969103
v -0.12143371 1.0259589 0.07328932
v -0.14934021 1.0452374 0.049969103
v -0.19209503 1.0093765 0.049968928
v -0.17783965 0.97864705 0.073289335
v -0.2017871 0.9544329 0.049968958
v 0.05835968 1.1866937 0.049996037
v 0.04976959 1.2234132 -0.057444386
v 0.08623016 1.17427 -0.05744438
v 0.05894104 -0.12109373 -0.040998876
v 0.0029696655 1.1044586 -0.0048061344
v -0.03599884 -0.12109373 -0.040998876
v -0.050772093 1.0093765 0.049968928
v -0.06502686 0.97864705 0.073289335
v -0.12143371 1.0259589 0.07328932
v -0.093526915 1.0452374 0.049969103
v -0.14934021 1.0452374 0.049969103
v -0.12143371 1.0259589 0.07328932
v -0.17783965 0.97864705 0.073289335
v -0.19209503 1.0093765 0.049968928
v -0.2017871 0.9544329 0.049968958
v -0.17783965 0.97864705 0.073289335
v -0.16061279 0.9220301 0.073289216
v -0.17388153 0.90611607 0.049969096
v -0.17388153 0.90611607 0.049969096
v -0.16061279 0.9220301 0.073289216
v -0.12143341 0.9077763 0.07328942
v -0.12143341 0.8870344 0.04996906
v -0.12143341 0.8870344 0.04996906
v -0.12143341 0.9077763 0.07328942
v -0.082254335 0.9220301 0.07328925
v -0.06898621 0.90611607 0.049969096
v -0.06898621 0.90611607 0.049969096
v -0.082254335 0.9220301 0.07328925
v -0.06502686 0.97864705 0.073289335
v -0.041079406 0.9544329 0.049968995
v -0.17783965 0.97864705 0.073289335
v -0.12143341 0.9077763 0.07328942
v -0.16061279 0.9220301 0.073289216
v -0.12143371 1.0259589 0.07328932
v -0.06502686 0.97864705 0.073289335
v -0.082254335 0.9220301 0.07328925
v -0.041478574 1.2441444 0.049996022
v -0.05557739 1.274517 -0.05744439
v 0.04976959 1.2234132 -0.057444386
v 0.05835968 1.1866937 0.049996037
v 0.35310242 0.7552848 0.049996186
v 0.50878114 0.8395777 -0.0574444
v 0.48318326 0.7958402 0.049996126
v 0.34220153 0.7819329 -0.057444442
v 0.27024597 0.5425302 0.049996104
v 0.26992613 0.5892872 -0.057444423
v -0.30178922 0.83111304 0.049996193
v -0.28448424 0.75437003 0.049996067
v -0.31032377 0.7417605 -0.057444405
v -0.329451 0.8362774 -0.05744438
v -0.2910507 0.87759465 0.049996123
v -0.31788117 0.88559574 -0.057444442
v -0.2711386 0.9382016 -0.0574444
v -0.24766602 0.9271738 0.04999613
v 0.16865845 1.1898987 0.049996037
v 0.17039977 1.222107 -0.057444453
v 0.25917694 1.075231 -0.057444464
v 0.23649292 1.0563215 0.049996074
v 0.13745056 1.1116079 0.049996037
v 0.13677643 1.1390383 -0.057444423
v 0.17039977 1.222107 -0.057444453
v 0.16865845 1.1898987 0.049996037
v 0.09562988 1.0930939 0.04999618
v 0.10408264 1.1189864 -0.057444394
v 0.13677643 1.1390383 -0.057444423
v 0.13745056 1.1116079 0.049996037
v -0.045837097 1.1682713 0.04999614
v -0.061292112 1.1007053 0.049995992
v -0.07389618 1.1223229 -0.057444427
v -0.056408994 1.2095574 -0.05744438
v -0.041478574 1.2441444 0.049996022
v -0.05557739 1.274517 -0.05744439
v 0.2346704 0.6124217 0.04999602
v 0.24490386 0.63591754 -0.057444435
v 0.26992613 0.5892872 -0.057444423
v 0.27024597 0.5425302 0.049996104
v 0.24490386 0.63591754 -0.057444435
v 0.2346704 0.6124217 0.04999602
v 0.15692139 0.6082159 0.049996004
v 0.19341584 0.63443106 -0.057444442
v -0.25102204 0.31244874 0.049996175
v -0.28041688 0.32271513 -0.057444472
v -0.326911 0.467366 -0.05744448
v -0.29962096 0.47550794 0.049996022
v -0.28932434 0.6207813 -0.057444394
v -0.26924378 0.60859644 0.049996153
v -0.120857544 0.7898963 -0.05744446
v -0.108015746 0.77042633 0.049996108
v -0.24766602 0.9271738 0.04999613
v -0.2711386 0.9382016 -0.0574444
v -0.26223418 1.0083427 -0.057444446
v -0.23940124 0.993281 0.049996104
v -0.21771881 1.0762925 -0.05744444
v -0.1980838 1.0573225 0.049995974
v -0.15477936 1.1130391 -0.057444453
v -0.13966553 1.091956 0.049996093
v -0.13966553 1.091956 0.049996093
v -0.15477936 1.1130391 -0.057444453
v -0.07389618 1.1223229 -0.057444427
v -0.061292112 1.1007053 0.049995992
v 0.16352813 0.90915066 0.049996022
v 0.17321807 0.91907805 -0.057444412
v 0.23300354 0.7287857 -0.057444442
v 0.219252 0.7237653 0.04999611
v 0.05835968 1.1866937 0.049996037
v -0.045837097 1.1682713 0.04999614
v -0.041478574 1.2441444 0.049996022
v 0.09562988 1.0930939 0.04999618
v -0.061292112 1.1007053 0.049995992
v -0.108015746 0.77042633 0.049996108
v -0.13966553 1.091956 0.049996093
v 0.16352813 0.90915066 0.049996022
v 0.13745056 1.1116079 0.049996037
v 0.22869171 0.9790967 0.04999604
v 0.23649292 1.0563215 0.049996074
v 0.16865845 1.1898987 0.049996037
v 0.219252 0.7237653 0.04999611
v 0.21122986 0.667571 0.049995977
v 0.15692139 0.6082159 0.049996004
v -0.15295288 0.82594883 0.049996044
v -0.26924378 0.60859644 0.049996153
v -0.1980838 1.0573225 0.049995974
v -0.23940124 0.993281 0.049996104
v -0.24766602 0.9271738 0.04999613
v -0.29962096 0.47550794 0.049996022
v -0.22668914 0.8139424 0.049996
v -0.2910507 0.87759465 0.049996123
v -0.30178922 0.83111304 0.049996193
v -0.28448424 0.75437003 0.049996067
v -0.25102204 0.31244874 0.049996175
v -0.16163543 0.25214663 0.049996067
v 0.22385558 0.25754124 0.049996193
v 0.2346704 0.6124217 0.04999602
v 0.27024597 0.5425302 0.049996104
v 0.30897278 0.30302826 0.04999625
v 0.40320373 0.45825148 0.049996074
v 0.35310242 0.7552848 0.049996186
v 0.51122314 0.5330741 0.049996123
v 0.48318326 0.7958402 0.049996126
v 0.09562988 1.0930939 0.04999618
v 0.05835968 1.1866937 0.049996037
v 0.08623016 1.17427 -0.05744438
v 0.10408264 1.1189864 -0.057444394
v -0.31032377 0.7417605 -0.057444405
v -0.22668914 0.8140613 -0.057444435
v -0.329451 0.8362774 -0.05744438
v -0.31788117 0.88559574 -0.057444442
v -0.2711386 0.9382016 -0.0574444
v -0.15295288 0.8258846 -0.057444464
v -0.15295318 0.82588553 -0.05744442
v -0.26223418 1.0083427 -0.057444446
v -0.21771881 1.0762925 -0.05744444
v -0.15477936 1.1130391 -0.057444453
v -0.120857544 0.7898963 -0.05744446
v -0.07389618 1.1223229 -0.057444427
v 0.10408264 1.1189864 -0.057444394
v -0.056408994 1.2095574 -0.05744438
v 0.08623016 1.17427 -0.05744438
v 0.04976959 1.2234132 -0.057444386
v -0.05557739 1.274517 -0.05744439
v 0.17321807 0.91907805 -0.057444412
v 0.13677643 1.1390383 -0.057444423
v 0.24960601 0.9843501 -0.05744441
v 0.25917694 1.075231 -0.057444464
v 0.17039977 1.222107 -0.057444453
v 0.23300354 0.7287857 -0.057444442
v 0.22641388 0.6699949 -0.057444464
v 0.19341584 0.63443106 -0.057444442
v -0.28932434 0.6207813 -0.057444394
v -0.326911 0.467366 -0.05744448
v -0.28041688 0.32271513 -0.057444472
v -0.16163543 0.2577663 -0.057444446
v 0.22385558 0.2630793 -0.057444464
v 0.24490386 0.63591754 -0.057444435
v 0.26992613 0.5892872 -0.057444423
v 0.30897278 0.3078751 -0.057444435
v 0.40320373 0.46073976 -0.057444464
v 0.34220153 0.7819329 -0.057444442
v 0.5365857 0.54965466 -0.057444394
v 0.50878114 0.8395777 -0.0574444
v 0.48318326 0.7958402 0.049996126
v 0.50878114 0.8395777 -0.0574444
v 0.5365857 0.54965466 -0.057444394
v 0.51122314 0.5330741 0.049996123
v 0.23300354 0.7287857 -0.057444442
v 0.22641388 0.6699949 -0.057444464
v 0.21122986 0.667571 0.049995977
v 0.219252 0.7237653 0.04999611
v 0.25917694 1.075231 -0.057444464
v 0.24960601 0.9843501 -0.05744441
v 0.22869171 0.9790967 0.04999604
v 0.23649292 1.0563215 0.049996074
vt 0.06516822 0.92653453
vt 0.06550077 0.88307905
vt 0.06450303 0.88307905
vt 0.064170465 0.88307905
vt 0.064170465 0.92653453
vt 0.06450303 0.88307905
vt 0.048315864 0.9179161
vt 0.050497152 0.9198906
vt 0.049116146 0.9224996
vt 0.052646637 0.9254914
vt 0.054951005 0.92366487
vt 0.057255343 0.9254914
vt 0.060785875 0.9224996
vt 0.059404872 0.9198906
vt 0.06158614 0.9179161
vt 0.06326223 0.91243273
vt 0.06595933 0.91178346
vt 0.06595933 0.91308165
vt 0.06550077 0.88307905
vt 0.06516822 0.92653453
vt 0.06550077 0.88307905
vt 0.049116146 0.9224996
vt 0.050497152 0.9198906
vt 0.054951005 0.92366487
vt 0.052646637 0.9254914
vt 0.057255343 0.9254914
vt 0.054951005 0.92366487
vt 0.059404872 0.9198906
vt 0.060785875 0.9224996
vt 0.06158614 0.9179161
vt 0.059404872 0.9198906
vt 0.058044635 0.9153741
vt 0.059281796 0.9138852
vt 0.059281796 0.9138852
vt 0.058044635 0.9153741
vt 0.05495103 0.91423696
vt 0.054950975 0.91229326
vt 0.054950975 0.91229326
vt 0.05495103 0.91423696
vt 0.05185738 0.9153741
vt 0.05062022 0.9138852
vt 0.05062022 0.9138852
vt 0.05185738 0.9153741
vt 0.050497152 0.9198906
vt 0.048315864 0.9179161
vt 0.059404872 0.9198906
vt 0.05495103 0.91423696
vt 0.058044635 0.9153741
vt 0.054951005 0.92366487
vt 0.050497152 0.9198906
vt 0.05185738 0.9153741
vt 0.06326223 0.918134
vt 0.06595933 0.91813326
vt 0.06595933 0.91178346
vt 0.06326223 0.91243273
vt 0.06326223 0.925805
vt 0.06595933 0.92106664
vt 0.06326223 0.92106664
vt 0.06595933 0.92588544
vt 0.06326223 0.92773473
vt 0.06595933 0.92773473
vt 0.06595933 0.9079305
vt 0.06595933 0.9035306
vt 0.06326223 0.9035306
vt 0.06326223 0.9079175
vt 0.06595933 0.9123304
vt 0.06326223 0.9123045
vt 0.06326223 0.91850066
vt 0.06595933 0.9185263
vt 0.06595933 0.9188913
vt 0.06326223 0.91878927
vt 0.06326223 0.90671575
vt 0.06595933 0.90682435
vt 0.06326223 0.92280245
vt 0.06595933 0.92280245
vt 0.06595933 0.9286299
vt 0.06326223 0.9286299
vt 0.06326223 0.92822003
vt 0.06595933 0.92822003
vt 0.06595933 0.92373097
vt 0.06326223 0.92373097
vt 0.06326223 0.9115975
vt 0.06326223 0.9281738
vt 0.06595933 0.9281738
vt 0.06595933 0.9115975
vt 0.06326223 0.90721977
vt 0.06595933 0.90722
vt 0.06326223 0.92522633
vt 0.06595933 0.92522633
vt 0.06595933 0.92773473
vt 0.06326223 0.92773473
vt 0.06595933 0.90990984
vt 0.06326223 0.90990984
vt 0.06326223 0.9126017
vt 0.06595933 0.91260153
vt 0.06595933 0.91021574
vt 0.06326223 0.9102107
vt 0.06326223 0.9160011
vt 0.06595933 0.9160056
vt 0.06326223 0.92179143
vt 0.06595933 0.9217944
vt 0.06326223 0.92826223
vt 0.06595933 0.9282629
vt 0.06326223 0.9270928
vt 0.06595933 0.9270928
vt 0.06595933 0.9233755
vt 0.06326223 0.92336845
vt 0.06595933 0.92071855
vt 0.06326223 0.92071605
vt 0.06595933 0.9179182
vt 0.06326223 0.9179182
vt 0.06326223 0.9179182
vt 0.06595933 0.9179182
vt 0.06595933 0.9281738
vt 0.06326223 0.9281738
vt 0.06326223 0.9275116
vt 0.06595933 0.9274094
vt 0.06595933 0.92550015
vt 0.06326223 0.9254997
vt 0.020560889 0.9244929
vt 0.015546367 0.92369485
vt 0.015756115 0.92698133
vt 0.02235454 0.9204386
vt 0.01480259 0.92076826
vt 0.012553987 0.90646225
vt 0.011030837 0.9203893
vt 0.025622172 0.91247106
vt 0.024367161 0.9212405
vt 0.028758202 0.9155008
vt 0.029133637 0.9188458
vt 0.025869064 0.9246317
vt 0.028303904 0.9044411
vt 0.027917838 0.90200704
vt 0.025304211 0.8994361
vt 0.010391376 0.9088672
vt 0.004794812 0.8994526
vt 0.008219427 0.91888916
vt 0.0062310128 0.9161152
vt 0.0058332584 0.91325176
vt 0.0033328938 0.8936879
vt 0.0068427883 0.90834713
vt 0.0037453547 0.91110426
vt 0.0032285564 0.90909094
vt 0.0040613683 0.9057668
vt 0.0056717442 0.886625
vt 0.00997351 0.884013
vt 0.028525459 0.88424665
vt 0.029045915 0.89961827
vt 0.030758003 0.89659095
vt 0.03262175 0.88621694
vt 0.037156668 0.8929404
vt 0.034745507 0.9058064
vt 0.042355154 0.89618134
vt 0.04100572 0.90756303
vt 0.06326223 0.9070101
vt 0.06326223 0.91243273
vt 0.06595933 0.91308165
vt 0.06595933 0.9070101
vt 0.002817824 0.9052206
vt 0.0068427883 0.9083523
vt 0.0018973286 0.9093146
vt 0.0024541137 0.9114508
vt 0.004703631 0.9137294
vt 0.010391376 0.90886444
vt 0.010391357 0.9088645
vt 0.00513215 0.9167676
vt 0.0072744875 0.9197108
vt 0.010303475 0.9213025
vt 0.01193597 0.90730554
vt 0.014196021 0.92170465
vt 0.022761317 0.9215601
vt 0.015037598 0.9254832
vt 0.021902172 0.9239547
vt 0.020147474 0.9260834
vt 0.015077605 0.9282969
vt 0.02608849 0.9129011
vt 0.024334727 0.92242867
vt 0.029764708 0.91572833
vt 0.030225309 0.9196648
vt 0.025952872 0.92602676
vt 0.028965702 0.90465856
vt 0.02864858 0.90211207
vt 0.02706052 0.90057164
vt 0.0038284273 0.8999804
vt 0.0020195525 0.8933352
vt 0.0042571058 0.8870697
vt 0.00997351 0.88425636
vt 0.028525459 0.88448656
vt 0.029538406 0.900636
vt 0.030742623 0.8986162
vt 0.03262175 0.88642687
vt 0.037156668 0.89304817
vt 0.0342209 0.90696067
vt 0.04357573 0.8968996
vt 0.04223763 0.90945756
vt 0.04100572 0.90756303
vt 0.04223763 0.90945756
vt 0.04357573 0.8968996
vt 0.042355154 0.89618134
vt 0.06595933 0.92550015
vt 0.06595933 0.92550015
vt 0.06326223 0.9254997
vt 0.06326223 0.9254997
vt 0.06326223 0.90671575
vt 0.06326223 0.90671575
vt 0.06595933 0.90682435
vt 0.06595933 0.90682435
vn -0.0005438452 0.027267678 0.99962807
vn 0.88481396 0.026672142 0.46518034
vn 0.10011263 0.02871967 0.9945615
vn -0.7665684 0.0054108035 0.6421398
vn -0.0005438452 0.027267678 0.99962807
vn 0.10011263 0.02871967 0.9945615
vn 0.75744975 0.13362361 0.6390732
vn 0.75744975 0.13362359 0.6390732
vn 0.75744975 0.13362361 0.63907325
vn -0 0.77073306 0.6371581
vn -0 0.77073306 0.6371582
vn -0 0.77073306 0.6371581
vn -0.7574467 0.13361424 0.6390788
vn -0.7574467 0.13361424 0.6390788
vn -0.75744665 0.13361423 0.63907886
vn 0.8937797 0.41603115 0.16755855
vn 0.79540765 0.5901329 0.1380933
vn 0.87650895 0.4532899 0.16204996
vn -0 0.029518915 -0.99956423
vn -0 0.029518925 -0.99956423
vn -0 0.029518915 -0.99956423
vn 0.37309882 0.444821 0.81420606
vn 0.37309882 0.444821 0.81420606
vn -2.354617E-06 0.47943944 0.87757504
vn 0.37309885 0.444821 0.81420606
vn -0.3731001 0.44481835 0.81420696
vn -2.354617E-06 0.47943944 0.87757504
vn -0.53011364 0.12344405 0.83889276
vn -0.37310013 0.44481838 0.81420696
vn -0.62632495 -0.26938492 0.73153865
vn -0.53011364 0.12344405 0.83889276
vn -0.62632495 -0.26938498 0.73153865
vn -0.62632495 -0.26938492 0.73153865
vn -0.26232708 -0.7210422 0.6413132
vn -0.26232705 -0.7210422 0.6413133
vn -0.26232708 -0.7210422 0.6413132
vn -0.26232705 -0.7210422 0.6413132
vn 0.2623305 -0.721043 0.64131093
vn 0.26233053 -0.7210431 0.6413109
vn 0.26233053 -0.7210431 0.6413109
vn 0.2623305 -0.721043 0.6413109
vn 0.62632245 -0.26939481 0.73153704
vn 0.62632245 -0.2693948 0.73153704
vn 0.62632257 -0.26939481 0.73153704
vn 0.62632257 -0.26939481 0.73153704
vn -1.6560496E-06 -1.2713188E-07 1
vn -3.0037364E-07 -1.1854172E-06 1
vn -6.671519E-06 -4.1401513E-06 1
vn -0 8.034048E-07 1
vn 1.400996E-06 0 1
vn 5.3360764E-06 -3.0568413E-06 1
vn 0.45607933 0.8620607 0.22100402
vn 0.45607933 0.86206084 0.22100402
vn 0.45607933 0.8620607 0.22100402
vn 0.45607933 0.8620607 0.22100402
vn -0.6905286 0.68126166 0.2430079
vn -0.3018574 0.9119036 0.27805367
vn -0.3018574 0.9119036 0.27805367
vn -0.6529856 0.71505404 0.2496147
vn -0.9206144 0.3522854 0.16841629
vn -0.9206144 0.35228544 0.1684163
vn -0.9673621 0.0030818994 0.2533791
vn -0.9487434 -0.20182674 0.24321176
vn -0.9487434 -0.20182674 0.24321182
vn -0.96718365 0.014943595 0.25363874
vn -0.8579683 0.4504575 0.2469385
vn -0.86427516 0.43782496 0.2476646
vn -0.7302198 0.6440541 0.2279768
vn -0.7302198 0.6440541 0.2279768
vn 0.85354674 0.47664025 0.21040899
vn 0.85354674 0.47664022 0.21040897
vn 0.85354674 0.47664022 0.21040897
vn 0.85354674 0.47664022 0.21040897
vn -0.923404 0.37100643 0.09838436
vn -0.923404 0.37100643 0.09838436
vn -0.92340386 0.37100643 0.09838436
vn -0.92340386 0.37100643 0.09838436
vn -0.450395 0.8702224 0.19964297
vn -0.450395 0.8702224 0.19964297
vn -0.450395 0.8702224 0.19964297
vn -0.450395 0.8702224 0.19964297
vn -0.9787137 0.14020419 0.1498741
vn -0.9648282 0.20531936 0.16416615
vn -0.9648282 0.20531934 0.16416614
vn -0.9846287 0.102576494 0.14136627
vn -0.99135697 0.036534682 0.12600236
vn -0.99135697 0.036534682 0.12600236
vn 0.49416053 0.83621967 0.23778577
vn 0.4788091 0.84497225 0.23825154
vn 0.87131816 0.45313403 0.1883458
vn 0.87131816 0.4531341 0.18834582
vn 0.4788091 0.84497225 0.23825154
vn 0.49416053 0.83621967 0.23778577
vn -0.042960666 0.9753803 0.21630454
vn -0.04296067 0.9753803 0.21630454
vn -0.92708373 -0.28650084 0.24172884
vn -0.92708385 -0.2865009 0.24172883
vn -0.97076505 -0.042539608 0.23623203
vn -0.9717433 -0.021319142 0.23507549
vn -0.8517733 0.4760924 0.21867378
vn -0.85308087 0.47373152 0.21870372
vn -0.69296867 0.69035137 0.20786889
vn -0.6929687 0.6903514 0.20786887
vn -0.96712285 0.12187104 0.22320586
vn -0.96712285 0.121871024 0.22320586
vn -0.90901166 0.34078234 0.23992753
vn -0.9145981 0.32605544 0.23916152
vn -0.67071015 0.69963115 0.24630104
vn -0.6687162 0.7015559 0.24624777
vn -0.3165217 0.9210362 0.22694984
vn -0.29962125 0.92697847 0.22569448
vn -0.29962125 0.92697847 0.22569448
vn -0.3165217 0.9210362 0.22694984
vn -0.110068105 0.9720523 0.20736289
vn -0.1100681 0.9720523 0.20736289
vn 0.94849086 0.29163173 0.12375799
vn 0.94849086 0.29163176 0.123758
vn 0.94849086 0.29163176 0.123758
vn 0.94849086 0.29163173 0.12375799
vn 7.0356856E-07 1.7296171E-06 1
vn -0 2.2506282E-07 1
vn 7.3882705E-07 1.5284947E-06 1
vn 2.1896578E-07 1.07664576E-07 1
vn -7.488256E-07 -3.619284E-07 1
vn 1.7929635E-07 0 1
vn -5.023434E-07 0 1
vn 5.56355E-07 0 1
vn 2.8779937E-07 0 1
vn 6.12255E-07 0 1
vn -5.3741763E-07 -2.5920494E-07 1
vn -3.018122E-07 1.3701414E-07 1
vn -1.7631584E-07 -1.1664179E-06 1
vn -0 -1.2984908E-06 1
vn -0 1.7671394E-07 1
vn 1.8106239E-07 -1.9618125E-07 1
vn 3.5145112E-07 -7.3049904E-07 1
vn -8.4008695E-07 1.3701414E-07 1
vn 1.8049399E-06 6.022825E-07 1
vn 8.69869E-07 -2.5488035E-07 1
vn -0 0 1
vn 1.0158412E-06 -8.62572E-07 1
vn 1.6908641E-06 -2.7990538E-07 1
vn 2.619571E-06 0 1
vn 2.355283E-06 -1.1413929E-06 1
vn 3.2064926E-07 1.5168891E-07 1
vn 4.5687696E-07 -2.3588103E-07 1
vn -5.7325974E-07 4.702095E-07 1
vn -5.024067E-07 5.142339E-07 1
vn -5.429245E-07 3.3381198E-07 1
vn -5.7348717E-07 3.5713583E-07 1
vn 2.3819521E-07 0 1
vn 1.602453E-07 -1.03808006E-07 1
vn 1.1794924E-07 -1.6683168E-07 1
vn 1.1794923E-07 -1.6683168E-07 1
vn 0.9229095 0.341699 0.1774256
vn 0.8937797 0.41603115 0.16755855
vn 0.87650895 0.4532899 0.16204996
vn 0.9229095 0.341699 0.1774256
vn -4.723293E-07 1.2280735E-07 -1
vn -3.6181467E-07 0 -1
vn -6.17255E-07 -5.435834E-07 -1
vn -0 -1.9571326E-07 -1
vn -0 1.12457116E-07 -1
vn -0 0 -1
vn -5.257833E-07 -1.07664576E-07 -1
vn 1.3115903E-07 0 -1
vn -5.395401E-07 0 -1
vn -1.8536072E-07 0 -1
vn -0 0 -1
vn 2.0244839E-07 1.8150645E-07 -1
vn -0 1.03808006E-07 -1
vn -0 1.08132575E-07 -1
vn 1.0179199E-07 2.842299E-07 -1
vn -0 0 -1
vn -0 -1.4736439E-07 -1
vn -0 1.03808006E-07 -1
vn -3.3178506E-07 -1.8103847E-07 -1
vn -3.172234E-07 -2.3541308E-07 -1
vn -5.8322985E-07 -4.848843E-07 -1
vn -4.027515E-07 -1.5168891E-07 -1
vn 1.05122666E-07 3.0925494E-07 -1
vn -0 0 -1
vn -0 -1.5168891E-07 -1
vn -1.0261495E-07 2.989047E-07 -1
vn -0 2.1085602E-07 -1
vn 1.089795E-07 0 -1
vn -0 0 -1
vn 1.2557726E-07 0 -1
vn 2.7598287E-07 0 -1
vn 1.264308E-07 0 -1
vn 1.7209001E-07 0 -1
vn -1.109732E-07 0 -1
vn 1.8919216E-07 0 -1
vn 3.5751825E-07 0 -1
vn 3.5751822E-07 0 -1
vn 0.96193445 0.09719508 0.25541186
vn 0.96193445 0.097195074 0.2554119
vn 0.96193445 0.09719507 0.25541186
vn 0.96193445 0.097195074 0.2554119
vn 0.98384273 -0.12502274 0.12815158
vn 0.98384273 -0.12502274 0.12815155
vn 0.98384273 -0.12502274 0.12815155
vn 0.98384273 -0.12502275 0.12815158
vn 0.97717345 -0.10098161 0.18690874
vn 0.97717345 -0.10098161 0.18690875
vn 0.97717345 -0.10098161 0.18690875
vn 0.97717345 -0.10098161 0.18690875
g [inn]house_weathercock_0
f 3/3/3 2/2/2 1/1/1
f 6/6/6 5/5/5 4/4/4
f 9/9/9 8/8/8 7/7/7
f 12/12/12 11/11/11 10/10/10
f 15/15/15 14/14/14 13/13/13
f 18/18/18 17/17/17 16/16/16
f 21/21/21 20/20/20 19/19/19
f 24/24/24 23/23/23 22/22/22
f 25/25/25 24/24/24 22/22/22
f 28/28/28 27/27/27 26/26/26
f 29/29/29 28/28/28 26/26/26
f 32/32/32 31/31/31 30/30/30
f 33/33/33 32/32/32 30/30/30
f 36/36/36 35/35/35 34/34/34
f 37/37/37 36/36/36 34/34/34
f 40/40/40 39/39/39 38/38/38
f 41/41/41 40/40/40 38/38/38
f 44/44/44 43/43/43 42/42/42
f 45/45/45 44/44/44 42/42/42
f 48/48/48 47/47/47 46/46/46
f 46/46/46 47/47/47 49/49/49
f 49/49/49 47/47/47 50/50/50
f 50/50/50 47/47/47 51/51/51
f 54/54/54 53/53/53 52/52/52
f 55/55/55 54/54/54 52/52/52
f 58/58/58 57/57/57 56/56/56
f 57/57/57 59/59/59 56/56/56
f 56/56/56 59/59/59 60/60/60
f 59/59/59 61/61/61 60/60/60
f 64/64/64 63/63/63 62/62/62
f 65/65/65 64/64/64 62/62/62
f 65/65/65 62/62/62 66/66/66
f 67/67/67 65/65/65 66/66/66
f 68/68/68 67/67/67 66/66/66
f 69/69/69 68/68/68 66/66/66
f 72/72/72 71/71/71 70/70/70
f 73/73/73 72/72/72 70/70/70
f 76/76/76 75/75/75 74/74/74
f 77/77/77 76/76/76 74/74/74
f 80/80/80 79/79/79 78/78/78
f 81/81/81 80/80/80 78/78/78
f 84/84/84 83/83/83 82/82/82
f 85/85/85 84/84/84 82/82/82
f 85/85/85 82/82/82 86/86/86
f 87/87/87 85/85/85 86/86/86
f 90/90/90 89/89/89 88/88/88
f 91/91/91 90/90/90 88/88/88
f 94/94/94 93/93/93 92/92/92
f 95/95/95 94/94/94 92/92/92
f 98/98/98 97/97/97 96/96/96
f 99/99/99 98/98/98 96/96/96
f 100/100/100 98/98/98 99/99/99
f 101/101/101 100/100/100 99/99/99
f 102/102/102 100/100/100 101/101/101
f 103/103/103 102/102/102 101/101/101
f 106/106/106 105/105/105 104/104/104
f 107/107/107 106/106/106 104/104/104
f 108/108/108 106/106/106 107/107/107
f 109/109/109 108/108/108 107/107/107
f 110/110/110 108/108/108 109/109/109
f 111/111/111 110/110/110 109/109/109
f 114/114/114 113/113/113 112/112/112
f 115/115/115 114/114/114 112/112/112
f 118/118/118 117/117/117 116/116/116
f 119/119/119 118/118/118 116/116/116
f 122/122/122 121/121/121 120/120/120
f 123/123/123 120/120/120 121/121/121
f 124/124/124 123/123/123 121/121/121
f 123/123/123 124/124/124 125/125/125
f 124/124/124 126/126/126 125/125/125
f 127/127/127 123/123/123 125/125/125
f 128/128/128 123/123/123 127/127/127
f 129/129/129 128/128/128 127/127/127
f 128/128/128 129/129/129 130/130/130
f 128/128/128 130/130/130 131/131/131
f 127/127/127 125/125/125 132/132/132
f 133/133/133 132/132/132 125/125/125
f 134/134/134 133/133/133 125/125/125
f 126/126/126 135/135/135 125/125/125
f 136/136/136 134/134/134 125/125/125
f 126/126/126 137/137/137 135/135/135
f 138/138/138 135/135/135 137/137/137
f 139/139/139 135/135/135 138/138/138
f 140/140/140 134/134/134 136/136/136
f 135/135/135 139/139/139 141/141/141
f 142/142/142 141/141/141 139/139/139
f 142/142/142 143/143/143 141/141/141
f 144/144/144 141/141/141 143/143/143
f 145/145/145 134/134/134 140/140/140
f 146/146/146 134/134/134 145/145/145
f 147/147/147 134/134/134 146/146/146
f 134/134/134 147/147/147 148/148/148
f 148/148/148 147/147/147 149/149/149
f 147/147/147 150/150/150 149/149/149
f 149/149/149 150/150/150 151/151/151
f 152/152/152 149/149/149 151/151/151
f 152/152/152 151/151/151 153/153/153
f 154/154/154 152/152/152 153/153/153
f 157/157/157 156/156/156 155/155/155
f 158/158/158 157/157/157 155/155/155
f 161/161/161 160/160/160 159/159/159
f 162/162/162 160/160/160 161/161/161
f 160/160/160 162/162/162 163/163/163
f 163/163/163 164/164/164 160/160/160
f 165/165/165 164/164/164 163/163/163
f 166/166/166 165/165/165 163/163/163
f 167/167/167 165/165/165 166/166/166
f 167/167/167 168/168/168 165/165/165
f 168/168/168 164/164/164 165/165/165
f 169/169/169 164/164/164 168/168/168
f 170/170/170 169/169/169 168/168/168
f 170/170/170 171/171/171 169/169/169
f 171/171/171 170/170/170 172/172/172
f 173/173/173 171/171/171 172/172/172
f 174/174/174 173/173/173 172/172/172
f 172/172/172 175/175/175 174/174/174
f 171/171/171 176/176/176 169/169/169
f 171/171/171 177/177/177 176/176/176
f 177/177/177 178/178/178 176/176/176
f 178/178/178 177/177/177 179/179/179
f 177/177/177 180/180/180 179/179/179
f 169/169/169 176/176/176 181/181/181
f 181/181/181 182/182/182 169/169/169
f 183/183/183 169/169/169 182/182/182
f 183/183/183 184/184/184 169/169/169
f 183/183/183 185/185/185 184/184/184
f 183/183/183 186/186/186 185/185/185
f 183/183/183 187/187/187 186/186/186
f 183/183/183 188/188/188 187/187/187
f 183/183/183 189/189/189 188/188/188
f 189/189/189 190/190/190 188/188/188
f 191/191/191 188/188/188 190/190/190
f 192/192/192 191/191/191 190/190/190
f 193/193/193 192/192/192 190/190/190
f 194/194/194 192/192/192 193/193/193
f 195/195/195 194/194/194 193/193/193
f 198/198/198 197/197/197 196/196/196
f 199/199/199 198/198/198 196/196/196
f 202/202/202 201/201/201 200/200/200
f 203/203/203 202/202/202 200/200/200
f 206/206/206 205/205/205 204/204/204
f 207/207/207 206/206/206 204/204/204
