g [inn]grass2
v 0.2302499 0.105366096 -0.3028476
v 0.23245765 -0.0020008623 -0.2195726
v 0.23510164 0.12523265 -0.28283116
v 0.20958564 0.11734271 -0.4335246
v 0.20360634 0.14575091 -0.43105632
v 0.07895753 0.08834638 -0.44808665
v 0.08125538 0.122405745 -0.44315886
v 0.09296823 0.10536608 -0.2388321
v 0.0061465357 0.11734271 -0.3386594
v 0.011880808 0.14575091 -0.34165326
v 0.10518307 0.12523265 -0.22224912
v 0.15534145 -0.0020008646 -0.1836127
v 0.23245765 -0.0020008623 -0.2195726
v 0.23510164 0.12523265 -0.28283116
v 0.20360634 0.14575091 -0.43105632
v 0.08125538 0.122405745 -0.44315886
v 0.0061465357 0.11734271 -0.3386594
v 0.07895753 0.08834638 -0.44808665
v 0.011880808 0.14575091 -0.34165326
v 0.08627112 0.105366096 -0.16228396
v 0.15728551 -0.0020008653 -0.2058334
v 0.10118001 0.12523265 -0.17649388
v -0.01656638 0.11734273 -0.079049684
v -0.011439104 0.14575094 -0.07510559
v 0.036136582 0.088346384 0.041358564
v 0.039255213 0.12240575 0.036904793
v 0.21035099 0.1053661 -0.07540226
v 0.16730884 0.117342725 0.049701195
v 0.16184899 0.14575092 0.046232034
v 0.2186048 0.12523267 -0.094272114
v 0.22698577 -0.0020008606 -0.15702873
v 0.15728551 -0.0020008653 -0.2058334
v 0.10118001 0.12523265 -0.17649388
v -0.011439104 0.14575094 -0.07510559
v 0.039255213 0.12240575 0.036904793
v 0.16730884 0.117342725 0.049701195
v 0.036136582 0.088346384 0.041358564
v 0.16184899 0.14575092 0.046232034
v 0.27999222 0.1053661 -0.10787647
v 0.20677008 -0.002000861 -0.14760199
v 0.26023158 0.12523267 -0.11368299
v 0.40349394 0.117342725 -0.06043373
v 0.404346 0.14575092 -0.066846125
v 0.4814191 0.08834638 -0.16627999
v 0.4760026 0.122405745 -0.16675384
v 0.29319403 0.105366096 -0.25877365
v 0.42305782 0.11734271 -0.28404975
v 0.42278343 0.14575091 -0.27758682
v 0.2727253 0.12523265 -0.25648677
v 0.21418601 -0.0020008634 -0.23236653
v 0.20677008 -0.002000861 -0.14760199
v 0.26023158 0.12523267 -0.11368299
v 0.404346 0.14575092 -0.066846125
v 0.4760026 0.122405745 -0.16675384
v 0.42305782 0.11734271 -0.28404975
v 0.4814191 0.08834638 -0.16627999
v 0.42278343 0.14575091 -0.27758682
vt 0.3651216 0.6412722
vt 0.3651216 0.62856394
vt 0.3651216 0.6379138
vt 0.3651216 0.66242313
vt 0.3651216 0.6624714
vt 0.36187434 0.6733482
vt 0.36187434 0.6733482
vt 0.35839343 0.6412722
vt 0.35839343 0.66242313
vt 0.35839343 0.6624714
vt 0.35839343 0.6379138
vt 0.35839343 0.62856394
vt 0.3651216 0.62856394
vt 0.3651216 0.6379138
vt 0.3651216 0.6624714
vt 0.36187434 0.6733482
vt 0.35839343 0.66242313
vt 0.36187434 0.6733482
vt 0.35839343 0.6624714
vt 0.3651216 0.6412722
vt 0.3651216 0.62856394
vt 0.3651216 0.6379138
vt 0.3651216 0.66242313
vt 0.3651216 0.6624714
vt 0.36187434 0.6733482
vt 0.36187434 0.6733482
vt 0.35839343 0.6412722
vt 0.35839343 0.66242313
vt 0.35839343 0.6624714
vt 0.35839343 0.6379138
vt 0.35839343 0.62856394
vt 0.3651216 0.62856394
vt 0.3651216 0.6379138
vt 0.3651216 0.6624714
vt 0.36187434 0.6733482
vt 0.35839343 0.66242313
vt 0.36187434 0.6733482
vt 0.35839343 0.6624714
vt 0.3651216 0.6412722
vt 0.3651216 0.62856394
vt 0.3651216 0.6379138
vt 0.3651216 0.66242313
vt 0.3651216 0.6624714
vt 0.36187434 0.6733482
vt 0.36187434 0.6733482
vt 0.35839343 0.6412722
vt 0.35839343 0.66242313
vt 0.35839343 0.6624714
vt 0.35839343 0.6379138
vt 0.35839343 0.62856394
vt 0.3651216 0.62856394
vt 0.3651216 0.6379138
vt 0.3651216 0.6624714
vt 0.36187434 0.6733482
vt 0.35839343 0.66242313
vt 0.36187434 0.6733482
vt 0.35839343 0.6624714
vn 0.9866963 0.019461354 -0.16140555
vn 0.98485154 -0.093173884 -0.14623965
vn 0.9874586 -0.011203725 -0.15748018
vn 0.67012525 0.14137049 -0.7286607
vn 0.64815015 0.14178814 -0.7481962
vn 0.079083525 0.12180432 -0.9893986
vn 0.07908353 0.12180433 -0.9893986
vn -0.75788003 0.019461427 0.6521036
vn -0.9889347 0.14137055 0.044971988
vn -0.73759824 0.6751879 0.008383171
vn -0.2648357 0.618274 0.73999965
vn 0.293062 0.38172072 0.87658656
vn 0.3865691 0.4041329 0.82899994
vn 0.22824332 0.8416203 0.48946932
vn -0.0026222782 0.9999808 -0.005623502
vn -0.5500683 0.65131545 -0.52269787
vn -0.9889347 0.14137055 0.044971988
vn -0.80875725 0.12180413 -0.57539165
vn -0.73759824 0.6751879 0.008383171
vn -0.63312924 0.019461712 -0.7738014
vn -0.6190728 -0.09317359 -0.77978694
vn -0.630111 -0.011203296 -0.77642435
vn -0.96610135 0.14137006 -0.21601543
vn -0.972032 0.14178768 -0.18721658
vn -0.8963864 0.121803194 0.42621058
vn -0.8963864 0.121803194 0.42621052
vn 0.9436785 0.01946201 0.3302911
vn 0.5334137 0.14137033 0.8339571
vn 0.37605998 0.6751877 0.6345869
vn 0.77327615 0.61827403 -0.14064573
vn 0.612615 0.38172084 -0.69209254
vn 0.5246507 0.40413293 -0.7492784
vn 0.30977145 0.8416202 -0.44239923
vn -0.0035589 0.9999808 0.0050826897
vn -0.17763528 0.6513153 0.73772234
vn 0.5334137 0.14137033 0.8339571
vn -0.09392498 0.12180329 0.9881002
vn 0.37605998 0.6751877 0.6345869
vn -0.35356712 0.019461915 0.93520665
vn -0.36577913 -0.093173355 0.92602605
vn -0.35734785 -0.01120315 0.9339041
vn 0.29597583 0.14137049 0.9446759
vn 0.32388183 0.14178811 0.9354126
vn 0.81730247 0.12180371 0.5631878
vn 0.81730247 0.12180371 0.5631878
vn -0.18579808 0.019461287 -0.98239523
vn 0.45552075 0.14137033 -0.87892854
vn 0.36153898 0.67518777 -0.64297044
vn -0.5084407 0.61827385 -0.5993543
vn -0.9056773 0.38172075 -0.18449384
vn -0.91121954 0.40413287 -0.07972148
vn -0.53801465 0.8416202 -0.04707029
vn 0.006181331 0.9999808 0.0005407089
vn 0.7277037 0.6513155 -0.21502416
vn 0.45552075 0.14137033 -0.87892854
vn 0.90268236 0.12180399 -0.4127085
vn 0.36153898 0.67518777 -0.64297044
g [inn]grass2_0
f 3/3/3 2/2/2 1/1/1
f 3/3/3 1/1/1 4/4/4
f 5/5/5 3/3/3 4/4/4
f 5/5/5 4/4/4 6/6/6
f 7/7/7 5/5/5 6/6/6
f 10/10/10 9/9/9 8/8/8
f 11/11/11 10/10/10 8/8/8
f 12/12/12 11/11/11 8/8/8
f 12/12/12 13/13/13 11/11/11
f 13/13/13 14/14/14 11/11/11
f 11/11/11 14/14/14 15/15/15
f 10/10/10 11/11/11 15/15/15
f 16/16/16 10/10/10 15/15/15
f 16/16/16 18/18/18 17/17/17
f 19/19/19 16/16/16 17/17/17
f 22/22/22 21/21/21 20/20/20
f 22/22/22 20/20/20 23/23/23
f 24/24/24 22/22/22 23/23/23
f 24/24/24 23/23/23 25/25/25
f 26/26/26 24/24/24 25/25/25
f 29/29/29 28/28/28 27/27/27
f 30/30/30 29/29/29 27/27/27
f 31/31/31 30/30/30 27/27/27
f 31/31/31 32/32/32 30/30/30
f 32/32/32 33/33/33 30/30/30
f 30/30/30 33/33/33 34/34/34
f 29/29/29 30/30/30 34/34/34
f 35/35/35 29/29/29 34/34/34
f 35/35/35 37/37/37 36/36/36
f 38/38/38 35/35/35 36/36/36
f 41/41/41 40/40/40 39/39/39
f 41/41/41 39/39/39 42/42/42
f 43/43/43 41/41/41 42/42/42
f 43/43/43 42/42/42 44/44/44
f 45/45/45 43/43/43 44/44/44
f 48/48/48 47/47/47 46/46/46
f 49/49/49 48/48/48 46/46/46
f 50/50/50 49/49/49 46/46/46
f 50/50/50 51/51/51 49/49/49
f 51/51/51 52/52/52 49/49/49
f 49/49/49 52/52/52 53/53/53
f 48/48/48 49/49/49 53/53/53
f 54/54/54 48/48/48 53/53/53
f 54/54/54 56/56/56 55/55/55
f 57/57/57 54/54/54 55/55/55
