g [inn]stone_tile4
v 0.088607155 0.0006697035 0.0830944
v 0.08328585 0.026680887 0.060924914
v 0.11112955 0.0006697035 0.062195648
v -0.15739842 0.026680887 0.04862321
v -0.16283405 0.0006697035 0.07369434
v -0.18373308 0.0006697035 0.051172365
v 0.11971285 0.0006697035 -0.16740422
v 0.0918521 0.026680887 -0.16821614
v 0.09881387 0.0006697035 -0.18992619
v -0.15262732 0.0006697035 -0.19932626
v -0.14907895 0.026680887 -0.17391923
v -0.17514957 0.0006697035 -0.1784275
v 0.38480926 0.0006697035 -0.26942104
v 0.3735051 0.026680887 -0.27857772
v 0.38809487 0.0006697035 -0.28874853
v 0.24895439 0.026680887 -0.19022122
v 0.2538616 0.0006697035 -0.17652616
v 0.234534 0.0006697035 -0.17981164
v 0.3032694 0.0006697035 -0.40832117
v 0.288849 0.026680887 -0.39791188
v 0.28394178 0.0006697035 -0.41160694
v 0.1529942 0.0006697035 -0.31871206
v 0.16429842 0.026680887 -0.30955476
v 0.14970851 0.0006697035 -0.29938427
v -0.16283405 0.0006697035 0.07369434
v 0.08328585 0.026680887 0.060924914
v 0.088607155 0.0006697035 0.0830944
v -0.15739842 0.026680887 0.04862321
v 0.0918521 0.026680887 -0.16821614
v 0.11112955 0.0006697035 0.062195648
v 0.11971285 0.0006697035 -0.16740422
v -0.14907895 0.026680887 -0.17391923
v 0.09881387 0.0006697035 -0.18992619
v -0.15262732 0.0006697035 -0.19932626
v -0.17514957 0.0006697035 -0.1784275
v -0.18373308 0.0006697035 0.051172365
v 0.2538616 0.0006697035 -0.17652616
v 0.3735051 0.026680887 -0.27857772
v 0.38480926 0.0006697035 -0.26942104
v 0.24895439 0.026680887 -0.19022122
v 0.288849 0.026680887 -0.39791188
v 0.38809487 0.0006697035 -0.28874853
v 0.3032694 0.0006697035 -0.40832117
v 0.16429842 0.026680887 -0.30955476
v 0.28394178 0.0006697035 -0.41160694
v 0.1529942 0.0006697035 -0.31871206
v 0.14970851 0.0006697035 -0.29938427
v 0.234534 0.0006697035 -0.17981164
vt 0.1458368 0.5433706
vt 0.1427128 0.5479779
vt 0.14710453 0.5451486
vt 0.13218947 0.54795873
vt 0.1297671 0.543012
vt 0.12825978 0.54472816
vt 0.14583772 0.56362474
vt 0.14184679 0.5606084
vt 0.14433043 0.5653409
vt 0.12826072 0.5649824
vt 0.13135302 0.5601586
vt 0.12699299 0.5632043
vt 0.13130528 0.54354846
vt 0.13408782 0.5498564
vt 0.12979826 0.54539025
vt 0.14100121 0.54955053
vt 0.14569831 0.54291165
vt 0.1466768 0.5446435
vt 0.12700374 0.5642873
vt 0.13267939 0.5593804
vt 0.12798227 0.5660193
vt 0.14237528 0.5653825
vt 0.13959277 0.5590745
vt 0.14388227 0.5635406
vt 0.1297671 0.543012
vt 0.1427128 0.5479779
vt 0.1458368 0.5433706
vt 0.13218947 0.54795873
vt 0.14184679 0.5606084
vt 0.14710453 0.5451486
vt 0.14583772 0.56362474
vt 0.13135302 0.5601586
vt 0.14433043 0.5653409
vt 0.12826072 0.5649824
vt 0.12699299 0.5632043
vt 0.12825978 0.54472816
vt 0.14569831 0.54291165
vt 0.13408782 0.5498564
vt 0.13130528 0.54354846
vt 0.14100121 0.54955053
vt 0.13267939 0.5593804
vt 0.12979826 0.54539025
vt 0.12700374 0.5642873
vt 0.13959277 0.5590745
vt 0.12798227 0.5660193
vt 0.14237528 0.5653825
vt 0.14388227 0.5635406
vt 0.1466768 0.5446435
vn 0.5405191 0.607057 0.5825126
vn 0.5405191 0.607057 0.5825126
vn 0.5405191 0.607057 0.5825126
vn -0.5699407 0.62885904 0.52887034
vn -0.56994075 0.62885904 0.52887034
vn -0.56994075 0.62885904 0.52887034
vn 0.5825061 0.60705405 -0.5405293
vn 0.5825061 0.60705405 -0.5405293
vn 0.5825061 0.60705405 -0.5405293
vn -0.5288643 0.62885654 -0.569949
vn -0.52886444 0.62885666 -0.569949
vn -0.5288644 0.6288566 -0.569949
vn 0.886184 0.4381583 0.1506493
vn 0.886184 0.43815824 0.15064926
vn 0.886184 0.43815824 0.1506493
vn -0.15064101 0.4381616 0.88618374
vn -0.15064102 0.4381616 0.88618374
vn -0.15064101 0.43816158 0.88618374
vn 0.15065499 0.4381586 -0.8861829
vn 0.15065499 0.4381586 -0.88618296
vn 0.15065499 0.4381586 -0.88618296
vn -0.88618183 0.43816248 -0.15065005
vn -0.88618183 0.4381625 -0.15065007
vn -0.88618183 0.43816248 -0.15065008
vn -0.03262731 0.67194545 0.7398816
vn 0.24003418 0.917789 0.3163019
vn -0.032627318 0.67194545 0.7398816
vn -0.28807247 0.9150782 0.28221658
vn 0.2629802 0.9177887 -0.2974986
vn 0.6818085 0.73108655 0.02548869
vn 0.6818085 0.73108655 0.025488691
vn -0.26619735 0.915078 -0.3029376
vn 0.02270674 0.67194384 -0.7402539
vn 0.02270674 0.6719439 -0.74025387
vn -0.7037698 0.70994073 -0.02630982
vn -0.7037698 0.70994073 -0.026309816
vn 0.50941455 0.4741785 0.7180888
vn 0.504361 0.8546861 0.12301124
vn 0.5094146 0.4741785 0.7180888
vn -0.050566502 0.85468644 0.51667595
vn 0.050565798 0.85468763 -0.51667404
vn 0.673285 0.5644073 -0.47763136
vn 0.67328495 0.5644073 -0.4776314
vn -0.5043592 0.854688 -0.12300518
vn -0.5094139 0.47418535 -0.7180848
vn -0.5094139 0.47418535 -0.7180848
vn -0.673284 0.56440836 0.4776316
vn -0.673284 0.56440836 0.4776316
g [inn]stone_tile4_0
f 3/3/3 2/2/2 1/1/1
f 6/6/6 5/5/5 4/4/4
f 9/9/9 8/8/8 7/7/7
f 12/12/12 11/11/11 10/10/10
f 15/15/15 14/14/14 13/13/13
f 18/18/18 17/17/17 16/16/16
f 21/21/21 20/20/20 19/19/19
f 24/24/24 23/23/23 22/22/22
f 27/27/27 26/26/26 25/25/25
f 26/26/26 28/28/28 25/25/25
f 26/26/26 29/29/29 28/28/28
f 29/29/29 26/26/26 30/30/30
f 31/31/31 29/29/29 30/30/30
f 29/29/29 32/32/32 28/28/28
f 32/32/32 29/29/29 33/33/33
f 34/34/34 32/32/32 33/33/33
f 28/28/28 32/32/32 35/35/35
f 36/36/36 28/28/28 35/35/35
f 39/39/39 38/38/38 37/37/37
f 38/38/38 40/40/40 37/37/37
f 38/38/38 41/41/41 40/40/40
f 41/41/41 38/38/38 42/42/42
f 43/43/43 41/41/41 42/42/42
f 41/41/41 44/44/44 40/40/40
f 44/44/44 41/41/41 45/45/45
f 46/46/46 44/44/44 45/45/45
f 40/40/40 44/44/44 47/47/47
f 48/48/48 40/40/40 47/47/47
