g [inn]bucket1
v -0.15780996 0.43586466 0.24422164
v 6.1391125E-07 0.43226844 0.19593045
v 6.1394695E-07 0.44320804 0.2858678
v -0.11257346 0.42702994 0.16622087
v -0.2733444 0.4158024 0.13044281
v -0.19499323 0.41271794 0.085053325
v -0.31563276 0.38839686 -0.024982156
v -0.22516084 0.39316735 -0.025823293
v -0.19499323 0.37361684 -0.1367004
v -0.273344 0.36099115 -0.18040755
v 6.1394695E-07 0.33358544 -0.33583248
v 6.1391125E-07 0.35406622 -0.24757698
v -0.112573475 0.35930467 -0.21786791
v -0.15780976 0.34092876 -0.29418647
v -0.19499323 0.37361684 -0.1367004
v -0.273344 0.36099115 -0.18040755
v -0.102424204 0.07016919 -0.14903317
v 6.1391125E-07 0.35406622 -0.24757698
v 6.1394684E-07 0.065402985 -0.17606376
v -0.112573475 0.35930467 -0.21786791
v -0.17741325 0.08319086 -0.07518343
v -0.19499323 0.37361684 -0.1367004
v -0.20486104 0.10097888 0.120243944
v -0.22516084 0.39316735 -0.025823293
v -0.19499323 0.37361684 -0.1367004
v -0.17741325 0.08319086 -0.07518343
v 6.147955E-07 -0.0010269071 0.33877078
v -0.14844552 0.13221782 0.2812694
v 6.145179E-07 0.13912438 0.32044467
v -0.14587748 -0.007814985 0.30027363
v -0.2571246 0.11334893 0.17424087
v -0.2526767 -0.026360497 0.19509698
v -0.29690424 0.0875735 0.028037535
v -0.29176804 -0.05169414 0.05142273
v -0.2571251 0.061797947 -0.11816675
v -0.25267652 -0.07702771 -0.092251495
v 6.1394695E-07 0.44320804 0.2858678
v 6.143925E-07 0.2743498 0.302654
v -0.15247275 0.26725373 0.26241666
v -0.15780996 0.43586466 0.24422164
v -0.26409966 0.24786678 0.15248533
v -0.2733444 0.4158024 0.13044281
v -0.3049576 0.22138397 0.0023176991
v -0.31563276 0.38839686 -0.024982156
v -0.2640989 0.19490103 -0.14785044
v -0.273344 0.36099115 -0.18040755
v -0.16158436 0.24294405 0.27914205
v 6.1439243E-07 0.2504675 0.3217874
v 6.145179E-07 0.16733092 0.33129606
v -0.15765174 0.15999314 0.28969562
v -0.27307978 0.1399452 0.17603685
v -0.27987212 0.22239025 0.16263758
v -0.3153416 0.11255705 0.020763978
v -0.3231546 0.19431584 0.0035036162
v -0.2731043 0.08516627 -0.13452362
v -0.27984458 0.16624399 -0.15561555
v -0.29690424 0.0875735 0.028037535
v -0.3153416 0.11255705 0.020763978
v -0.27307978 0.1399452 0.17603685
v -0.2571246 0.11334893 0.17424087
v -0.2571246 0.11334893 0.17424087
v -0.27307978 0.1399452 0.17603685
v -0.15765174 0.15999314 0.28969562
v -0.14844552 0.13221782 0.2812694
v -0.14844552 0.13221782 0.2812694
v -0.15765174 0.15999314 0.28969562
v 6.145179E-07 0.16733092 0.33129606
v 6.145179E-07 0.13912438 0.32044467
v -0.2571251 0.061797947 -0.11816675
v -0.2731043 0.08516627 -0.13452362
v -0.3153416 0.11255705 0.020763978
v -0.29690424 0.0875735 0.028037535
v -0.26409966 0.24786678 0.15248533
v -0.27987212 0.22239025 0.16263758
v -0.3231546 0.19431584 0.0035036162
v -0.3049576 0.22138397 0.0023176991
v -0.3049576 0.22138397 0.0023176991
v -0.3231546 0.19431584 0.0035036162
v -0.27984458 0.16624399 -0.15561555
v -0.2640989 0.19490103 -0.14785044
v 6.143925E-07 0.2743498 0.302654
v 6.1439243E-07 0.2504675 0.3217874
v -0.16158436 0.24294405 0.27914205
v -0.15247275 0.26725373 0.26241666
v -0.15247275 0.26725373 0.26241666
v -0.16158436 0.24294405 0.27914205
v -0.27987212 0.22239025 0.16263758
v -0.26409966 0.24786678 0.15248533
v 0.15781116 0.43586472 0.24422167
v 6.1394695E-07 0.44320804 0.2858678
v 6.1391125E-07 0.43226844 0.19593045
v 0.11257473 0.42702994 0.16622093
v 0.27334547 0.4158024 0.13044292
v 0.19499426 0.41271794 0.08505338
v 0.31563377 0.38839686 -0.024982061
v 0.22516203 0.39316735 -0.025823224
v 0.19499426 0.37361684 -0.13670038
v 0.27334532 0.36099115 -0.18040751
v 6.1394695E-07 0.33358544 -0.33583248
v 0.112574704 0.35930467 -0.21786791
v 6.1391125E-07 0.35406622 -0.24757698
v 0.157811 0.34092876 -0.29418647
v 0.19499426 0.37361684 -0.13670038
v 0.27334532 0.36099115 -0.18040751
v 0.102425404 0.07016919 -0.14903313
v 6.1394684E-07 0.065402985 -0.17606376
v 6.1391125E-07 0.35406622 -0.24757698
v 0.112574704 0.35930467 -0.21786791
v 0.17741431 0.083190896 -0.07518336
v 0.19499426 0.37361684 -0.13670038
v 0.20486227 0.100978926 0.120244026
v 0.17741431 0.083190896 -0.07518336
v 0.19499426 0.37361684 -0.13670038
v 0.22516203 0.39316735 -0.025823224
v 0.14844672 0.13221782 0.28126946
v 6.147955E-07 -0.0010269071 0.33877078
v 6.145179E-07 0.13912438 0.32044467
v 0.1458787 -0.007814985 0.3002737
v 0.25712585 0.11334893 0.17424095
v 0.25267795 -0.026360497 0.19509703
v 0.29690546 0.08757352 0.02803763
v 0.2917691 -0.05169412 0.051422827
v 0.2571264 0.061797988 -0.11816663
v 0.25267774 -0.07702771 -0.092251435
v 0.15247397 0.2672538 0.26241672
v 6.143925E-07 0.2743498 0.302654
v 6.1394695E-07 0.44320804 0.2858678
v 0.15781116 0.43586472 0.24422167
v 0.26410088 0.24786684 0.15248543
v 0.27334547 0.4158024 0.13044292
v 0.30495885 0.221384 0.0023178048
v 0.31563377 0.38839686 -0.024982061
v 0.26410037 0.19490103 -0.14785029
v 0.27334532 0.36099115 -0.18040751
v 0.16158563 0.24294405 0.2791421
v 6.145179E-07 0.16733092 0.33129606
v 6.1439243E-07 0.2504675 0.3217874
v 0.15765294 0.15999314 0.28969568
v 0.2798733 0.22239025 0.1626377
v 0.27308083 0.13994521 0.17603688
v 0.3231557 0.19431588 0.0035037121
v 0.31534266 0.112557076 0.020764064
v 0.27984583 0.16624402 -0.15561545
v 0.2731056 0.08516633 -0.13452351
v 0.29690546 0.08757352 0.02803763
v 0.25712585 0.11334893 0.17424095
v 0.27308083 0.13994521 0.17603688
v 0.31534266 0.112557076 0.020764064
v 0.25712585 0.11334893 0.17424095
v 0.14844672 0.13221782 0.28126946
v 0.15765294 0.15999314 0.28969568
v 0.27308083 0.13994521 0.17603688
v 0.14844672 0.13221782 0.28126946
v 6.145179E-07 0.13912438 0.32044467
v 6.145179E-07 0.16733092 0.33129606
v 0.15765294 0.15999314 0.28969568
v 0.2571264 0.061797988 -0.11816663
v 0.29690546 0.08757352 0.02803763
v 0.31534266 0.112557076 0.020764064
v 0.2731056 0.08516633 -0.13452351
v 0.26410088 0.24786684 0.15248543
v 0.30495885 0.221384 0.0023178048
v 0.3231557 0.19431588 0.0035037121
v 0.2798733 0.22239025 0.1626377
v 0.30495885 0.221384 0.0023178048
v 0.26410037 0.19490103 -0.14785029
v 0.27984583 0.16624402 -0.15561545
v 0.3231557 0.19431588 0.0035037121
v 6.143925E-07 0.2743498 0.302654
v 0.15247397 0.2672538 0.26241672
v 0.16158563 0.24294405 0.2791421
v 6.1439243E-07 0.2504675 0.3217874
v 0.15247397 0.2672538 0.26241672
v 0.26410088 0.24786684 0.15248543
v 0.2798733 0.22239025 0.1626377
v 0.16158563 0.24294405 0.2791421
v 0.17741431 0.083190896 -0.07518336
v 0.20486227 0.100978926 0.120244026
v -0.20486104 0.10097888 0.120243944
v -0.17741325 0.08319086 -0.07518343
v 0.102425404 0.07016919 -0.14903313
v 0.17741431 0.083190896 -0.07518336
v -0.17741325 0.08319086 -0.07518343
v -0.102424204 0.07016919 -0.14903317
v 6.1394684E-07 0.065402985 -0.17606376
vt 0.026718624 0.70574224
vt 0.020812966 0.695223
vt 0.026718624 0.695223
vt 0.020812966 0.70574224
vt 0.026718624 0.7157227
vt 0.020812966 0.7157227
vt 0.026718624 0.72592986
vt 0.020812966 0.72592986
vt 0.020812966 0.73563254
vt 0.026718624 0.73563254
vt 0.026718624 0.7157227
vt 0.020812966 0.7157227
vt 0.020812966 0.72592986
vt 0.026718624 0.72592986
vt 0.020812966 0.73563254
vt 0.026718624 0.73563254
vt 0.00073837687 0.7280183
vt 0.02001483 0.73572767
vt 0.00073837687 0.73572767
vt 0.02001483 0.7280183
vt 0.00073837687 0.719975
vt 0.02001483 0.719975
vt 0.00073837687 0.7113602
vt 0.02001483 0.7113602
vt 0.02001483 0.719975
vt 0.00073837687 0.719975
vt 0.07406741 0.695223
vt 0.06046004 0.7057575
vt 0.06046004 0.695223
vt 0.07406741 0.7057575
vt 0.06046004 0.7157514
vt 0.07406741 0.7157514
vt 0.06046004 0.72592986
vt 0.07406741 0.72592986
vt 0.06046004 0.7356881
vt 0.07406741 0.7356881
vt 0.026718624 0.695223
vt 0.04629684 0.695223
vt 0.04629684 0.7057575
vt 0.026718624 0.7057575
vt 0.04629684 0.7157514
vt 0.026718624 0.7157514
vt 0.04629684 0.72592986
vt 0.026718624 0.72592986
vt 0.04629684 0.7356881
vt 0.026718624 0.7356881
vt 0.049289893 0.7057575
vt 0.049289893 0.695223
vt 0.056999825 0.695223
vt 0.056999825 0.7057575
vt 0.056999825 0.7157514
vt 0.049289893 0.7157514
vt 0.056999825 0.72592986
vt 0.049289893 0.72592986
vt 0.056999825 0.7356881
vt 0.049289893 0.7356881
vt 0.06046004 0.72592986
vt 0.056999825 0.72592986
vt 0.056999825 0.7157514
vt 0.06046004 0.7157514
vt 0.06046004 0.7157514
vt 0.056999825 0.7157514
vt 0.056999825 0.7057575
vt 0.06046004 0.7057575
vt 0.06046004 0.7057575
vt 0.056999825 0.7057575
vt 0.056999825 0.695223
vt 0.06046004 0.695223
vt 0.06046004 0.7356881
vt 0.056999825 0.7356881
vt 0.056999825 0.72592986
vt 0.06046004 0.72592986
vt 0.04629684 0.7157514
vt 0.049289893 0.7157514
vt 0.049289893 0.72592986
vt 0.04629684 0.72592986
vt 0.04629684 0.72592986
vt 0.049289893 0.72592986
vt 0.049289893 0.7356881
vt 0.04629684 0.7356881
vt 0.04629684 0.695223
vt 0.049289893 0.695223
vt 0.049289893 0.7057575
vt 0.04629684 0.7057575
vt 0.04629684 0.7057575
vt 0.049289893 0.7057575
vt 0.049289893 0.7157514
vt 0.04629684 0.7157514
vt 0.026718624 0.70574224
vt 0.026718624 0.695223
vt 0.020812966 0.695223
vt 0.020812966 0.70574224
vt 0.026718624 0.7157227
vt 0.020812966 0.7157227
vt 0.026718624 0.72592986
vt 0.020812966 0.72592986
vt 0.020812966 0.73563254
vt 0.026718624 0.73563254
vt 0.026718624 0.7157227
vt 0.020812966 0.72592986
vt 0.020812966 0.7157227
vt 0.026718624 0.72592986
vt 0.020812966 0.73563254
vt 0.026718624 0.73563254
vt 0.00073837687 0.7280183
vt 0.00073837687 0.73572767
vt 0.02001483 0.73572767
vt 0.02001483 0.7280183
vt 0.00073837687 0.719975
vt 0.02001483 0.719975
vt 0.00073837687 0.7113602
vt 0.00073837687 0.719975
vt 0.02001483 0.719975
vt 0.02001483 0.7113602
vt 0.06046004 0.7057575
vt 0.07406741 0.695223
vt 0.06046004 0.695223
vt 0.07406741 0.7057575
vt 0.06046004 0.7157514
vt 0.07406741 0.7157514
vt 0.06046004 0.72592986
vt 0.07406741 0.72592986
vt 0.06046004 0.7356881
vt 0.07406741 0.7356881
vt 0.04629684 0.7057575
vt 0.04629684 0.695223
vt 0.026718624 0.695223
vt 0.026718624 0.7057575
vt 0.04629684 0.7157514
vt 0.026718624 0.7157514
vt 0.04629684 0.72592986
vt 0.026718624 0.72592986
vt 0.04629684 0.7356881
vt 0.026718624 0.7356881
vt 0.049289893 0.7057575
vt 0.056999825 0.695223
vt 0.049289893 0.695223
vt 0.056999825 0.7057575
vt 0.049289893 0.7157514
vt 0.056999825 0.7157514
vt 0.049289893 0.72592986
vt 0.056999825 0.72592986
vt 0.049289893 0.7356881
vt 0.056999825 0.7356881
vt 0.06046004 0.72592986
vt 0.06046004 0.7157514
vt 0.056999825 0.7157514
vt 0.056999825 0.72592986
vt 0.06046004 0.7157514
vt 0.06046004 0.7057575
vt 0.056999825 0.7057575
vt 0.056999825 0.7157514
vt 0.06046004 0.7057575
vt 0.06046004 0.695223
vt 0.056999825 0.695223
vt 0.056999825 0.7057575
vt 0.06046004 0.7356881
vt 0.06046004 0.72592986
vt 0.056999825 0.72592986
vt 0.056999825 0.7356881
vt 0.04629684 0.7157514
vt 0.04629684 0.72592986
vt 0.049289893 0.72592986
vt 0.049289893 0.7157514
vt 0.04629684 0.72592986
vt 0.04629684 0.7356881
vt 0.049289893 0.7356881
vt 0.049289893 0.72592986
vt 0.04629684 0.695223
vt 0.04629684 0.7057575
vt 0.049289893 0.7057575
vt 0.049289893 0.695223
vt 0.04629684 0.7057575
vt 0.04629684 0.7157514
vt 0.049289893 0.7157514
vt 0.049289893 0.7057575
vt 0.0109198745 0.76833963
vt 0.018241163 0.7704667
vt 0.018241137 0.7387148
vt 0.0109198745 0.74084187
vt 0.005560341 0.7625283
vt 0.0109198745 0.76833963
vt 0.0109198745 0.74084187
vt 0.005560341 0.7466533
vt 0.0035986167 0.75459087
vn -0.026734065 0.9914397 -0.12779942
vn -1.7233016E-07 0.9926835 -0.120745555
vn -1.6859084E-07 0.9926835 -0.120745555
vn -0.026734073 0.9914397 -0.12779942
vn -0.046303492 0.9880413 -0.14707237
vn -0.046303444 0.9880413 -0.14707229
vn -0.05346651 0.98339915 -0.17339963
vn -0.0534665 0.98339915 -0.17339963
vn -0.046303287 0.97875684 -0.19972728
vn -0.04630332 0.97875684 -0.19972727
vn -0 0.97411466 -0.22605455
vn -0 0.97411466 -0.22605455
vn -0.02673407 0.9753584 -0.2190005
vn -0.026734022 0.9753584 -0.21900053
vn -0.046303287 0.97875684 -0.19972728
vn -0.04630332 0.97875684 -0.19972727
vn 0.49884573 0.21725653 0.83901876
vn -1.0924407E-07 0.24046981 0.97065663
vn -1.0681348E-07 0.24046981 0.97065663
vn 0.4988445 0.21725664 0.8390195
vn 0.7055673 0.18746397 0.6833975
vn 0.7055673 0.18746394 0.6833974
vn 0.9778445 0.12373639 0.16884752
vn 0.9778445 0.123736404 0.16884753
vn 0.9778445 0.123736404 0.16884753
vn 0.9778445 0.12373639 0.16884752
vn -1.0723829E-07 0.12965664 0.9915589
vn -0.49896434 0.10755178 0.8599228
vn -1.0882205E-07 0.12965666 0.9915589
vn -0.5001255 0.10744078 0.8592618
vn -0.8647425 0.04710991 0.50000083
vn -0.86590445 0.046776816 0.49801743
vn -0.99933785 -0.035576142 0.0076219533
vn -0.9993387 -0.036020685 0.0049747825
vn -0.9653997 -0.07741939 -0.24901761
vn -0.96539956 -0.07741939 -0.2490176
vn -0 0.09892311 0.99509513
vn -1.3578158E-07 0.09892311 0.99509513
vn -0.49955365 0.07729461 0.86282766
vn -0.49777576 0.0774601 0.86383975
vn -0.86485606 0.018240908 0.5016884
vn -0.86307514 0.018737897 0.5047278
vn -0.9980155 -0.06234122 0.008871058
vn -0.9980124 -0.061677888 0.012927861
vn -0.96432173 -0.10159695 -0.24446173
vn -0.96432173 -0.10159696 -0.24446173
vn -0.50128835 0.08582367 0.8610135
vn -1.9838197E-07 0.113676764 0.9935179
vn -1.8473048E-07 0.11367674 0.9935179
vn -0.49653718 0.08638962 0.8637058
vn -0.86104226 0.011708739 0.50839853
vn -0.8657718 0.010014784 0.500339
vn -0.99565375 -0.090580165 0.0216501
vn -0.99562186 -0.09282969 0.010945139
vn -0.9612392 -0.14162567 -0.23656127
vn -0.9612392 -0.14162567 -0.2365613
vn -0.80623704 -0.50483114 0.30842727
vn -0.806237 -0.5048312 0.3084273
vn -0.806237 -0.50483114 0.30842727
vn -0.806237 -0.50483114 0.3084273
vn -0.60360354 -0.4080979 0.6849225
vn -0.60360354 -0.4080979 0.6849225
vn -0.60360354 -0.4080979 0.6849225
vn -0.60360354 -0.40809792 0.6849225
vn -0.22375011 -0.3500289 0.9096239
vn -0.22375011 -0.35002884 0.909624
vn -0.22375014 -0.35002887 0.9096239
vn -0.22375011 -0.35002884 0.9096239
vn -0.7849385 -0.61045974 -0.10587984
vn -0.7849385 -0.61045974 -0.10587984
vn -0.7849385 -0.61045974 -0.10587986
vn -0.7849385 -0.61045974 -0.10587984
vn -0.8207047 0.5575297 0.12491748
vn -0.8207047 0.5575298 0.12491748
vn -0.8207047 0.5575298 0.12491748
vn -0.8207047 0.55752975 0.12491747
vn -0.79577523 0.52113366 -0.30848253
vn -0.7957753 0.52113366 -0.3084825
vn -0.79577523 0.5211337 -0.30848253
vn -0.79577523 0.5211336 -0.30848253
vn -0.22883917 0.6085949 0.7597664
vn -0.22883919 0.60859483 0.7597664
vn -0.22883919 0.6085949 0.7597664
vn -0.22883917 0.6085948 0.7597664
vn -0.61635935 0.5897674 0.52180046
vn -0.6163593 0.5897674 0.5218004
vn -0.6163593 0.5897674 0.5218004
vn -0.6163593 0.5897674 0.5218004
vn 0.026733877 0.9914396 -0.12779988
vn -1.6859084E-07 0.9926835 -0.120745555
vn -1.7233016E-07 0.9926835 -0.120745555
vn 0.026733894 0.9914396 -0.12779987
vn 0.046303518 0.9880413 -0.14707261
vn 0.04630347 0.9880413 -0.14707252
vn 0.05346656 0.98339915 -0.17339957
vn 0.05346656 0.98339915 -0.1733996
vn 0.046303306 0.97875684 -0.19972724
vn 0.046303343 0.97875684 -0.19972716
vn -0 0.97411466 -0.22605455
vn 0.026734078 0.9753584 -0.21900044
vn -0 0.97411466 -0.22605455
vn 0.02673403 0.9753584 -0.21900047
vn 0.046303306 0.97875684 -0.19972724
vn 0.046303343 0.97875684 -0.19972716
vn -0.49884638 0.21725652 0.83901834
vn -1.0681348E-07 0.24046981 0.97065663
vn -1.0924407E-07 0.24046981 0.97065663
vn -0.49884513 0.21725665 0.8390191
vn -0.70556825 0.18746388 0.6833965
vn -0.7055682 0.18746388 0.6833966
vn -0.97784424 0.123736665 0.16884859
vn -0.97784424 0.12373665 0.16884856
vn -0.97784424 0.123736665 0.16884859
vn -0.97784424 0.123736665 0.16884859
vn 0.49896404 0.10755175 0.859923
vn -1.0723829E-07 0.12965664 0.9915589
vn -1.0882205E-07 0.12965666 0.9915589
vn 0.50012535 0.107440755 0.859262
vn 0.86474264 0.0471095 0.50000083
vn 0.86590457 0.046776395 0.49801734
vn 0.99933785 -0.035576932 0.0076221027
vn 0.99933857 -0.036021467 0.0049749557
vn 0.9653998 -0.07742013 -0.24901675
vn 0.9653998 -0.07742014 -0.2490168
vn 0.49955353 0.07729484 0.8628277
vn -1.3578158E-07 0.09892311 0.99509513
vn -0 0.09892311 0.99509513
vn 0.49777573 0.077460326 0.86383986
vn 0.86485624 0.018241594 0.5016882
vn 0.86307514 0.018738613 0.5047278
vn 0.9980155 -0.062340107 0.008871437
vn 0.9980124 -0.061676785 0.012928232
vn 0.9643222 -0.10159584 -0.2444607
vn 0.9643222 -0.10159584 -0.2444607
vn 0.5012884 0.085822776 0.86101365
vn -1.8473048E-07 0.11367674 0.9935179
vn -1.9838197E-07 0.113676764 0.9935179
vn 0.4965371 0.08638877 0.86370593
vn 0.8657718 0.010013473 0.50033885
vn 0.8610424 0.011707432 0.5083986
vn 0.99562186 -0.092830226 0.010945628
vn 0.99565375 -0.090580724 0.021650555
vn 0.96123946 -0.14162563 -0.23656045
vn 0.96123946 -0.14162563 -0.23656042
vn 0.8062396 -0.50482696 0.30842724
vn 0.8062396 -0.50482696 0.3084273
vn 0.8062396 -0.50482696 0.3084273
vn 0.8062396 -0.50482696 0.30842724
vn 0.6036046 -0.4080956 0.68492305
vn 0.60360456 -0.4080956 0.68492305
vn 0.60360456 -0.40809557 0.68492305
vn 0.6036046 -0.4080956 0.68492305
vn 0.22374997 -0.3500288 0.909624
vn 0.22374997 -0.35002878 0.909624
vn 0.22374998 -0.3500288 0.909624
vn 0.22374997 -0.35002878 0.909624
vn 0.7849399 -0.61045784 -0.10588005
vn 0.7849399 -0.61045784 -0.10588005
vn 0.7849399 -0.61045784 -0.10588005
vn 0.7849399 -0.61045784 -0.10588005
vn 0.82070595 0.55752766 0.124918036
vn 0.82070595 0.55752766 0.12491802
vn 0.82070595 0.55752766 0.124918036
vn 0.82070595 0.55752766 0.124918036
vn 0.79577726 0.5211309 -0.3084818
vn 0.79577726 0.5211309 -0.3084818
vn 0.79577726 0.5211309 -0.30848184
vn 0.79577726 0.5211309 -0.3084818
vn 0.2288388 0.6085949 0.7597665
vn 0.2288388 0.60859483 0.7597665
vn 0.2288388 0.6085949 0.7597665
vn 0.2288388 0.6085949 0.7597665
vn 0.6163594 0.58976704 0.5218007
vn 0.61635935 0.589767 0.52180064
vn 0.61635935 0.589767 0.5218007
vn 0.6163594 0.58976704 0.5218007
vn -0 0.9958832 -0.09064645
vn -0 0.9958832 -0.09064645
vn -0 0.9958832 -0.09064645
vn -0 0.9958832 -0.09064645
vn -0 0.98480785 -0.17364804
vn -0 0.9848077 -0.17364803
vn -0 0.98480785 -0.17364803
vn -0 0.98480785 -0.17364804
vn -0 0.98480797 -0.17364721
g [inn]bucket1_0
f 3/3/3 2/2/2 1/1/1
f 2/2/2 4/4/4 1/1/1
f 1/1/1 4/4/4 5/5/5
f 4/4/4 6/6/6 5/5/5
f 5/5/5 6/6/6 7/7/7
f 6/6/6 8/8/8 7/7/7
f 8/8/8 9/9/9 7/7/7
f 9/9/9 10/10/10 7/7/7
f 13/13/13 12/12/12 11/11/11
f 14/14/14 13/13/13 11/11/11
f 15/15/15 13/13/13 14/14/14
f 16/16/16 15/15/15 14/14/14
f 19/19/19 18/18/18 17/17/17
f 18/18/18 20/20/20 17/17/17
f 17/17/17 20/20/20 21/21/21
f 20/20/20 22/22/22 21/21/21
f 25/25/25 24/24/24 23/23/23
f 26/26/26 25/25/25 23/23/23
f 29/29/29 28/28/28 27/27/27
f 28/28/28 30/30/30 27/27/27
f 28/28/28 31/31/31 30/30/30
f 31/31/31 32/32/32 30/30/30
f 31/31/31 33/33/33 32/32/32
f 33/33/33 34/34/34 32/32/32
f 33/33/33 35/35/35 34/34/34
f 35/35/35 36/36/36 34/34/34
f 39/39/39 38/38/38 37/37/37
f 40/40/40 39/39/39 37/37/37
f 41/41/41 39/39/39 40/40/40
f 42/42/42 41/41/41 40/40/40
f 43/43/43 41/41/41 42/42/42
f 44/44/44 43/43/43 42/42/42
f 45/45/45 43/43/43 44/44/44
f 46/46/46 45/45/45 44/44/44
f 49/49/49 48/48/48 47/47/47
f 50/50/50 49/49/49 47/47/47
f 51/51/51 50/50/50 47/47/47
f 52/52/52 51/51/51 47/47/47
f 53/53/53 51/51/51 52/52/52
f 54/54/54 53/53/53 52/52/52
f 55/55/55 53/53/53 54/54/54
f 56/56/56 55/55/55 54/54/54
f 59/59/59 58/58/58 57/57/57
f 60/60/60 59/59/59 57/57/57
f 63/63/63 62/62/62 61/61/61
f 64/64/64 63/63/63 61/61/61
f 67/67/67 66/66/66 65/65/65
f 68/68/68 67/67/67 65/65/65
f 71/71/71 70/70/70 69/69/69
f 72/72/72 71/71/71 69/69/69
f 75/75/75 74/74/74 73/73/73
f 76/76/76 75/75/75 73/73/73
f 79/79/79 78/78/78 77/77/77
f 80/80/80 79/79/79 77/77/77
f 83/83/83 82/82/82 81/81/81
f 84/84/84 83/83/83 81/81/81
f 87/87/87 86/86/86 85/85/85
f 88/88/88 87/87/87 85/85/85
f 91/91/91 90/90/90 89/89/89
f 92/92/92 91/91/91 89/89/89
f 92/92/92 89/89/89 93/93/93
f 94/94/94 92/92/92 93/93/93
f 94/94/94 93/93/93 95/95/95
f 96/96/96 94/94/94 95/95/95
f 96/96/96 95/95/95 97/97/97
f 95/95/95 98/98/98 97/97/97
f 101/101/101 100/100/100 99/99/99
f 100/100/100 102/102/102 99/99/99
f 100/100/100 103/103/103 102/102/102
f 103/103/103 104/104/104 102/102/102
f 107/107/107 106/106/106 105/105/105
f 108/108/108 107/107/107 105/105/105
f 108/108/108 105/105/105 109/109/109
f 110/110/110 108/108/108 109/109/109
f 113/113/113 112/112/112 111/111/111
f 114/114/114 113/113/113 111/111/111
f 117/117/117 116/116/116 115/115/115
f 116/116/116 118/118/118 115/115/115
f 115/115/115 118/118/118 119/119/119
f 118/118/118 120/120/120 119/119/119
f 119/119/119 120/120/120 121/121/121
f 120/120/120 122/122/122 121/121/121
f 121/121/121 122/122/122 123/123/123
f 122/122/122 124/124/124 123/123/123
f 127/127/127 126/126/126 125/125/125
f 128/128/128 127/127/127 125/125/125
f 128/128/128 125/125/125 129/129/129
f 130/130/130 128/128/128 129/129/129
f 130/130/130 129/129/129 131/131/131
f 132/132/132 130/130/130 131/131/131
f 132/132/132 131/131/131 133/133/133
f 134/134/134 132/132/132 133/133/133
f 137/137/137 136/136/136 135/135/135
f 136/136/136 138/138/138 135/135/135
f 135/135/135 138/138/138 139/139/139
f 138/138/138 140/140/140 139/139/139
f 139/139/139 140/140/140 141/141/141
f 140/140/140 142/142/142 141/141/141
f 141/141/141 142/142/142 143/143/143
f 142/142/142 144/144/144 143/143/143
f 147/147/147 146/146/146 145/145/145
f 148/148/148 147/147/147 145/145/145
f 151/151/151 150/150/150 149/149/149
f 152/152/152 151/151/151 149/149/149
f 155/155/155 154/154/154 153/153/153
f 156/156/156 155/155/155 153/153/153
f 159/159/159 158/158/158 157/157/157
f 160/160/160 159/159/159 157/157/157
f 163/163/163 162/162/162 161/161/161
f 164/164/164 163/163/163 161/161/161
f 167/167/167 166/166/166 165/165/165
f 168/168/168 167/167/167 165/165/165
f 171/171/171 170/170/170 169/169/169
f 172/172/172 171/171/171 169/169/169
f 175/175/175 174/174/174 173/173/173
f 176/176/176 175/175/175 173/173/173
f 179/179/179 178/178/178 177/177/177
f 180/180/180 179/179/179 177/177/177
f 183/183/183 182/182/182 181/181/181
f 184/184/184 183/183/183 181/181/181
f 185/185/185 184/184/184 181/181/181
