g [inn]grass3
v 0.33253804 0.1053661 -0.23188713
v 0.26778576 -0.0017957089 -0.23819576
v 0.23789985 -0.0017956997 -0.21466833
v 0.31309384 0.12523268 -0.22518253
v 0.42561886 0.117342755 -0.32499984
v 0.42474973 0.14575095 -0.327085
v 0.46540314 0.088346384 -0.39289844
v 0.4606944 0.122405775 -0.3901798
v 0.25953072 0.105366096 -0.35833958
v 0.3867091 0.117342755 -0.39239356
v 0.38808027 0.14575095 -0.39059833
v 0.24400227 0.12523268 -0.34485272
v 0.232618 -0.0017957095 -0.29910815
v 0.19729969 -0.0017957003 -0.28498992
v 0.23789985 -0.0017956997 -0.21466833
v 0.31309384 0.12523268 -0.22518253
v 0.40487665 0.15054102 -0.3579535
v 0.42474973 0.14575095 -0.327085
v 0.4606944 0.122405775 -0.3901798
v 0.3867091 0.117342755 -0.39239356
v 0.46540314 0.088346384 -0.39289844
v 0.38808027 0.14575095 -0.39059833
v 0.23892668 0.105366096 -0.3638604
v 0.232618 -0.0017957095 -0.29910815
v 0.25614545 -0.0017956997 -0.26922223
v 0.24563126 0.12523268 -0.3444162
v 0.14581394 0.117342755 -0.45694122
v 0.1437288 0.14575095 -0.45607215
v 0.077915356 0.088346384 -0.49672553
v 0.080633946 0.122405775 -0.4920168
v 0.11247419 0.1053661 -0.2908531
v 0.07842023 0.117342755 -0.41803154
v 0.08021547 0.14575095 -0.4194027
v 0.12596107 0.12523268 -0.2753246
v 0.17170562 -0.0017957102 -0.2639404
v 0.18582384 -0.0017957004 -0.22862205
v 0.25614545 -0.0017956997 -0.26922223
v 0.24563126 0.12523268 -0.3444162
v 0.112860315 0.15054102 -0.43619904
v 0.1437288 0.14575095 -0.45607215
v 0.080633946 0.122405775 -0.4920168
v 0.07842023 0.117342755 -0.41803154
v 0.077915356 0.088346384 -0.49672553
v 0.08021547 0.14575095 -0.4194027
v 0.10695337 0.1053661 -0.27024904
v 0.17170562 -0.0017957102 -0.2639404
v 0.20159152 -0.0017957003 -0.28746784
v 0.12639758 0.12523268 -0.27695367
v 0.013872538 0.117342755 -0.17713632
v 0.01474164 0.14575095 -0.17505115
v -0.02591175 0.0883464 -0.109237745
v -0.021203011 0.122405775 -0.11195632
v 0.17996067 0.10536611 -0.14379658
v 0.05278228 0.117342755 -0.10974259
v 0.051411074 0.14575095 -0.111537844
v 0.19548915 0.12523268 -0.15728346
v 0.20687339 -0.0017957097 -0.20302801
v 0.24219172 -0.0017956997 -0.21714622
v 0.20159152 -0.0017957003 -0.28746784
v 0.12639758 0.12523268 -0.27695367
v 0.034614746 0.15054102 -0.1441827
v 0.01474164 0.14575095 -0.17505115
v -0.021203011 0.122405775 -0.11195632
v 0.05278228 0.117342755 -0.10974259
v -0.02591175 0.0883464 -0.109237745
v 0.051411074 0.14575095 -0.111537844
v 0.20056474 0.10536611 -0.13827573
v 0.20687339 -0.0017957097 -0.20302801
v 0.18334594 -0.0017957004 -0.23291391
v 0.19386013 0.12523268 -0.15771995
v 0.29367748 0.117342755 -0.04519493
v 0.2957626 0.14575095 -0.04606401
v 0.36157608 0.0883464 -0.005410633
v 0.35885748 0.122405775 -0.010119362
v 0.32701722 0.1053661 -0.21128307
v 0.36107117 0.117342755 -0.08410465
v 0.35927597 0.14575095 -0.08273347
v 0.31353033 0.12523268 -0.22681151
v 0.26778576 -0.0017957089 -0.23819576
v 0.25366753 -0.0017956997 -0.2735141
v 0.18334594 -0.0017957004 -0.23291391
v 0.19386013 0.12523268 -0.15771995
v 0.32663107 0.15054102 -0.06593712
v 0.2957626 0.14575095 -0.04606401
v 0.35885748 0.122405775 -0.010119362
v 0.36107117 0.117342755 -0.08410465
v 0.36157608 0.0883464 -0.005410633
v 0.35927597 0.14575095 -0.08273347
vt 0.3564243 0.6412722
vt 0.3564243 0.6309196
vt 0.3564243 0.6262083
vt 0.3564243 0.6379138
vt 0.3564243 0.66242313
vt 0.3564243 0.6624714
vt 0.3527444 0.6733482
vt 0.3527444 0.6733482
vt 0.34881714 0.6412722
vt 0.34881714 0.66242313
vt 0.34881714 0.6624714
vt 0.34881714 0.6379138
vt 0.34881714 0.6309196
vt 0.34881714 0.6262083
vt 0.3564243 0.6262083
vt 0.3564243 0.6379138
vt 0.3527444 0.662176
vt 0.3564243 0.6624714
vt 0.3527444 0.6733482
vt 0.34881714 0.66242313
vt 0.3527444 0.6733482
vt 0.34881714 0.6624714
vt 0.3564243 0.6412722
vt 0.3564243 0.6309196
vt 0.3564243 0.6262083
vt 0.3564243 0.6379138
vt 0.3564243 0.66242313
vt 0.3564243 0.6624714
vt 0.3527444 0.6733482
vt 0.3527444 0.6733482
vt 0.34881714 0.6412722
vt 0.34881714 0.66242313
vt 0.34881714 0.6624714
vt 0.34881714 0.6379138
vt 0.34881714 0.6309196
vt 0.34881714 0.6262083
vt 0.3564243 0.6262083
vt 0.3564243 0.6379138
vt 0.3527444 0.662176
vt 0.3564243 0.6624714
vt 0.3527444 0.6733482
vt 0.34881714 0.66242313
vt 0.3527444 0.6733482
vt 0.34881714 0.6624714
vt 0.3564243 0.6412722
vt 0.3564243 0.6309196
vt 0.3564243 0.6262083
vt 0.3564243 0.6379138
vt 0.3564243 0.66242313
vt 0.3564243 0.6624714
vt 0.3527444 0.6733482
vt 0.3527444 0.6733482
vt 0.34881714 0.6412722
vt 0.34881714 0.66242313
vt 0.34881714 0.6624714
vt 0.34881714 0.6379138
vt 0.34881714 0.6309196
vt 0.34881714 0.6262083
vt 0.3564243 0.6262083
vt 0.3564243 0.6379138
vt 0.3527444 0.662176
vt 0.3564243 0.6624714
vt 0.3527444 0.6733482
vt 0.34881714 0.66242313
vt 0.3527444 0.6733482
vt 0.34881714 0.6624714
vt 0.3564243 0.6412722
vt 0.3564243 0.6309196
vt 0.3564243 0.6262083
vt 0.3564243 0.6379138
vt 0.3564243 0.66242313
vt 0.3564243 0.6624714
vt 0.3527444 0.6733482
vt 0.3527444 0.6733482
vt 0.34881714 0.6412722
vt 0.34881714 0.66242313
vt 0.34881714 0.6624714
vt 0.34881714 0.6379138
vt 0.34881714 0.6309196
vt 0.34881714 0.6262083
vt 0.3564243 0.6262083
vt 0.3564243 0.6379138
vt 0.3527444 0.662176
vt 0.3564243 0.6624714
vt 0.3527444 0.6733482
vt 0.34881714 0.66242313
vt 0.3527444 0.6733482
vt 0.34881714 0.6624714
vn 0.57540745 0.002267779 0.8178637
vn 0.43361098 -0.24353544 0.86756665
vn 0.43361098 -0.24353544 0.86756665
vn 0.54662776 -0.055052087 0.8355641
vn 0.784714 0.13907154 0.6040555
vn 0.7748954 0.14509928 0.6152099
vn 0.87582904 0.07336664 0.47701243
vn 0.87582904 0.07336664 0.47701243
vn -0.42058676 0.002267303 -0.90724945
vn -0.13076964 0.13907176 -0.98161006
vn -0.07388934 0.7182327 -0.6918686
vn -0.701086 0.58637154 -0.405767
vn -0.53452885 -0.24353573 -0.8093018
vn -0.95520526 0.28909898 -0.063283
vn -0.75753397 0.48462006 0.43736216
vn -0.49477857 0.8156725 0.29978728
vn 0.11383943 0.99132276 -0.06572529
vn 0.14628589 0.987478 0.05905455
vn 0.15985061 0.4291121 -0.8889941
vn -0.13076964 0.13907176 -0.98161006
vn 0.024810776 0.073367685 -0.9969963
vn -0.07388934 0.7182327 -0.6918686
vn 0.81786364 0.002267326 -0.57540756
vn 0.86756647 -0.24353573 -0.43361115
vn 0.8675666 -0.24353576 -0.43361115
vn 0.835564 -0.05505243 -0.546628
vn 0.60405546 0.13907145 -0.78471404
vn 0.6152098 0.14509909 -0.77489567
vn 0.47701237 0.07336685 -0.87582904
vn 0.47701234 0.07336685 -0.8758291
vn -0.9072496 0.002267541 0.4205864
vn -0.98161006 0.13907163 0.13076955
vn -0.69186854 0.71823275 0.07388934
vn -0.40576696 0.5863714 0.70108616
vn -0.8093019 -0.24353574 0.5345285
vn -0.06328318 0.28909892 0.95520526
vn 0.4373621 0.48462003 0.75753397
vn 0.29978722 0.8156725 0.49477863
vn -0.065725215 0.99132276 -0.113839254
vn 0.059054345 0.987478 -0.14628597
vn -0.8889942 0.429112 -0.15985033
vn -0.98161006 0.13907163 0.13076955
vn -0.9969964 0.073367395 -0.024810445
vn -0.69186854 0.71823275 0.07388934
vn -0.5754078 0.0022677635 -0.8178635
vn -0.43361148 -0.24353582 -0.8675664
vn -0.43361148 -0.24353582 -0.8675664
vn -0.54662806 -0.055052273 -0.8355639
vn -0.78471404 0.13907215 -0.60405535
vn -0.77489555 0.14509979 -0.6152096
vn -0.8758291 0.073367566 -0.47701204
vn -0.8758291 0.07336757 -0.47701204
vn 0.42058656 0.0022678177 0.9072496
vn 0.1307697 0.13907185 0.98161006
vn 0.07388917 0.71823275 0.69186854
vn 0.70108616 0.5863715 0.40576684
vn 0.5345286 -0.24353573 0.80930185
vn 0.95520526 0.28909886 0.0632831
vn 0.7575341 0.48461998 -0.43736222
vn 0.4947787 0.81567246 -0.2997873
vn -0.11383926 0.99132276 0.06572515
vn -0.14628603 0.987478 -0.059054427
vn -0.15985039 0.42911178 0.8889943
vn 0.1307697 0.13907185 0.98161006
vn -0.02481057 0.07336727 0.9969964
vn 0.07388917 0.71823275 0.69186854
vn -0.8178635 0.002267449 0.5754078
vn -0.8675664 -0.24353585 0.43361148
vn -0.8675664 -0.24353585 0.4336114
vn -0.83556384 -0.055052623 0.5466281
vn -0.60405535 0.13907142 0.78471416
vn -0.6152097 0.14509912 0.77489555
vn -0.47701225 0.07336682 0.8758291
vn -0.47701225 0.07336682 0.8758291
vn 0.90724945 0.0022672184 -0.42058674
vn 0.9816102 0.13907093 -0.13077004
vn 0.6918688 0.7182326 -0.073889464
vn 0.40576696 0.5863714 -0.70108616
vn 0.8093017 -0.2435356 -0.5345289
vn 0.06328288 0.28909892 -0.95520526
vn -0.43736216 0.4846201 -0.7575339
vn -0.29978728 0.8156725 -0.4947785
vn 0.06572509 0.99132276 0.11383929
vn -0.059054494 0.98747814 0.14628588
vn 0.8889946 0.42911148 0.15984991
vn 0.9816102 0.13907093 -0.13077004
vn 0.9969964 0.07336646 0.02480985
vn 0.6918688 0.7182326 -0.073889464
g [inn]grass3_0
f 3/3/3 2/2/2 1/1/1
f 4/4/4 3/3/3 1/1/1
f 4/4/4 1/1/1 5/5/5
f 6/6/6 4/4/4 5/5/5
f 6/6/6 5/5/5 7/7/7
f 8/8/8 6/6/6 7/7/7
f 11/11/11 10/10/10 9/9/9
f 12/12/12 11/11/11 9/9/9
f 12/12/12 9/9/9 13/13/13
f 14/14/14 12/12/12 13/13/13
f 14/14/14 15/15/15 12/12/12
f 15/15/15 16/16/16 12/12/12
f 12/12/12 17/17/17 11/11/11
f 17/17/17 12/12/12 16/16/16
f 18/18/18 17/17/17 16/16/16
f 19/19/19 11/11/11 17/17/17
f 19/19/19 17/17/17 18/18/18
f 19/19/19 21/21/21 20/20/20
f 22/22/22 19/19/19 20/20/20
f 25/25/25 24/24/24 23/23/23
f 26/26/26 25/25/25 23/23/23
f 26/26/26 23/23/23 27/27/27
f 28/28/28 26/26/26 27/27/27
f 28/28/28 27/27/27 29/29/29
f 30/30/30 28/28/28 29/29/29
f 33/33/33 32/32/32 31/31/31
f 34/34/34 33/33/33 31/31/31
f 34/34/34 31/31/31 35/35/35
f 36/36/36 34/34/34 35/35/35
f 36/36/36 37/37/37 34/34/34
f 37/37/37 38/38/38 34/34/34
f 34/34/34 39/39/39 33/33/33
f 39/39/39 34/34/34 38/38/38
f 40/40/40 39/39/39 38/38/38
f 41/41/41 33/33/33 39/39/39
f 41/41/41 39/39/39 40/40/40
f 41/41/41 43/43/43 42/42/42
f 44/44/44 41/41/41 42/42/42
f 47/47/47 46/46/46 45/45/45
f 48/48/48 47/47/47 45/45/45
f 48/48/48 45/45/45 49/49/49
f 50/50/50 48/48/48 49/49/49
f 50/50/50 49/49/49 51/51/51
f 52/52/52 50/50/50 51/51/51
f 55/55/55 54/54/54 53/53/53
f 56/56/56 55/55/55 53/53/53
f 56/56/56 53/53/53 57/57/57
f 58/58/58 56/56/56 57/57/57
f 58/58/58 59/59/59 56/56/56
f 59/59/59 60/60/60 56/56/56
f 56/56/56 61/61/61 55/55/55
f 61/61/61 56/56/56 60/60/60
f 62/62/62 61/61/61 60/60/60
f 63/63/63 55/55/55 61/61/61
f 63/63/63 61/61/61 62/62/62
f 63/63/63 65/65/65 64/64/64
f 66/66/66 63/63/63 64/64/64
f 69/69/69 68/68/68 67/67/67
f 70/70/70 69/69/69 67/67/67
f 70/70/70 67/67/67 71/71/71
f 72/72/72 70/70/70 71/71/71
f 72/72/72 71/71/71 73/73/73
f 74/74/74 72/72/72 73/73/73
f 77/77/77 76/76/76 75/75/75
f 78/78/78 77/77/77 75/75/75
f 78/78/78 75/75/75 79/79/79
f 80/80/80 78/78/78 79/79/79
f 80/80/80 81/81/81 78/78/78
f 81/81/81 82/82/82 78/78/78
f 78/78/78 83/83/83 77/77/77
f 83/83/83 78/78/78 82/82/82
f 84/84/84 83/83/83 82/82/82
f 85/85/85 77/77/77 83/83/83
f 85/85/85 83/83/83 84/84/84
f 85/85/85 87/87/87 86/86/86
f 88/88/88 85/85/85 86/86/86
