g [legacy]FX_keydoor_keyhole
v -0.64947075 0.9301196 0.34546033
v -0.63804954 1.2149712 0.37336457
v -0.64947075 0.92636925 0.39599088
v -0.63804954 1.210749 0.31344888
v -0.14099859 1.7208906 0.3192566
v -0.14099859 1.720891 0.26001608
v 0.14880763 1.720891 0.26001608
v -0.14099859 1.7208906 0.3192566
v -0.14099859 1.720891 0.26001608
v 0.14880763 1.7208906 0.3192566
v 0.6493423 0.9301196 0.34546033
v 0.6493423 0.92636925 0.39599088
v 0.63796914 1.2149712 0.37336457
v 0.6379691 1.210749 0.31344888
v 0.14880763 1.7208906 0.3192566
v 0.14880763 1.720891 0.26001608
vt 0.12794553 0.7201384
vt 0.12861247 0.7455159
vt 0.12794556 0.74821365
vt 0.12861244 0.7201384
vt 0.17875658 0.7455159
vt 0.17875658 0.7201384
vt 0.1956789 0.7201384
vt 0.17875658 0.7455159
vt 0.17875658 0.7201384
vt 0.1956789 0.7455159
vt 0.24773316 0.7201384
vt 0.24773316 0.7482136
vt 0.24706908 0.7455159
vt 0.24706908 0.7201384
vt 0.1956789 0.7455159
vt 0.1956789 0.7201384
vn -0.99919647 0.040079836 -0.00017086287
vn -0.92014474 0.3913562 -0.01318987
vn -0.99919647 0.040079832 -0.00017086287
vn -0.91519564 0.4027798 -0.013616355
vn -0.71587706 0.69778854 -0.024723293
vn -0.715877 0.69778854 -0.024723288
vn -0 1 5.187529E-06
vn -0 1 5.187529E-06
vn -0 1 5.187529E-06
vn -0 1 5.187529E-06
vn 0.99920326 0.039911527 -0.00017083943
vn 0.99920326 0.039911527 -0.00017083943
vn 0.9217263 0.38762093 -0.013061959
vn 0.9168628 0.3989745 -0.013485918
vn 0.72143686 0.692046 -0.024520315
vn 0.72143686 0.692046 -0.024520315
g [legacy]FX_keydoor_keyhole_0
f 3/3/3 2/2/2 1/1/1
f 1/1/1 2/2/2 4/4/4
f 4/4/4 2/2/2 5/5/5
f 5/5/5 6/6/6 4/4/4
f 9/9/9 8/8/8 7/7/7
f 8/8/8 10/10/10 7/7/7
f 13/13/13 12/12/12 11/11/11
f 11/11/11 14/14/14 13/13/13
f 15/15/15 13/13/13 14/14/14
f 14/14/14 16/16/16 15/15/15
