g [legacy]FX_keydoor_base
v -1.2724814 0.21690416 -1.7005316
v -1.2514023 0.30928954 -1.6741612
v -1.2724813 0.21690424 0.22898255
v -1.251402 0.3092896 0.21894844
v 1.2571633 0.30928954 -1.6741612
v 1.2793651 0.21690424 0.22898255
v 1.2571632 0.3092896 0.21894844
v 1.2793652 0.21690416 -1.7005316
v -1.251402 0.3092896 0.21894844
v -1.0235392 0.3092897 0.4434858
v -1.0352775 0.21690425 0.44548348
v -1.2724813 0.21690424 0.22898255
v 1.2571632 0.3092896 0.21894844
v 1.0416015 0.21690425 0.44548348
v 1.0299667 0.3092897 0.4434858
v 1.2793651 0.21690424 0.22898255
v -1.0235392 0.3092897 0.4434858
v 1.0299667 0.3092897 0.4434858
v 1.0416015 0.21690425 0.44548348
v -1.0352775 0.21690425 0.44548348
vt 0.13264632 0.72821206
vt 0.13426597 0.73314667
vt 0.13264632 0.72821206
vt 0.13426597 0.73314667
vt 0.13426597 0.73314667
vt 0.13264632 0.72821206
vt 0.13426597 0.73314667
vt 0.13264632 0.72821206
vt 0.13426597 0.73314667
vt 0.14523375 0.73314667
vt 0.14427887 0.72821206
vt 0.13264632 0.72821206
vt 0.13426597 0.73314667
vt 0.14427887 0.72821206
vt 0.14523375 0.73314667
vt 0.13264632 0.72821206
vt 0.14523375 0.73314667
vt 0.14523375 0.73314667
vt 0.14427887 0.72821206
vt 0.14427887 0.72821206
vn -0.9749443 0.22244929 0
vn -0.9749443 0.2224493 0
vn -0.9749443 0.2224493 0
vn -0.9749443 0.22244926 0
vn 0.9723169 0.2336657 0
vn 0.9723169 0.23366569 0
vn 0.9723169 0.23366569 0
vn 0.9723169 0.23366566 0
vn -0.67844033 0.16708447 0.7154029
vn -0.6784404 0.16708446 0.7154029
vn -0.67844045 0.16708447 0.71540284
vn -0.67844045 0.16708447 0.71540284
vn 0.6780927 0.17072849 0.71487206
vn 0.6780927 0.1707285 0.7148721
vn 0.6780927 0.1707285 0.7148721
vn 0.6780927 0.1707285 0.7148721
vn -0 0.021618284 0.9997663
vn -0 0.021618284 0.9997663
vn -0 0.021618286 0.9997663
vn -0 0.021618286 0.9997663
g [legacy]FX_keydoor_base_0
f 3/3/3 2/2/2 1/1/1
f 2/2/2 3/3/3 4/4/4
f 7/7/7 6/6/6 5/5/5
f 8/8/8 5/5/5 6/6/6
f 11/11/11 10/10/10 9/9/9
f 9/9/9 12/12/12 11/11/11
f 15/15/15 14/14/14 13/13/13
f 14/14/14 16/16/16 13/13/13
f 19/19/19 18/18/18 17/17/17
f 17/17/17 20/20/20 19/19/19
