g add_spear1
v 0.3841166 -0.45356816 -0.70934075
v 0.6899416 0.9296864 -0.8386717
v 0.5731107 0.9427831 -0.9125061
v 0.2103002 -0.43263942 -0.8273304
v 0.4736968 0.9685154 -0.83530015
v 0.06091189 -0.39151827 -0.7039534
v 0.38044664 -0.7759874 -0.6657977
v 0.1358599 -0.74690086 -0.82977897
v -0.0979698 -0.689751 -0.65831035
v 0.15672271 -0.68714374 -0.487333
v 0.22531149 -0.38964254 -0.58092993
v 0.4736968 0.9685154 -0.83530015
v 0.60896695 1.0947411 -1.0109733
v 0.39254877 1.1487168 -0.8490263
v 0.6899416 0.9296864 -0.8386717
v 0.8521606 2.0035129 -0.9383036
v 0.8357915 1.0672692 -0.8560982
v 0.3841166 -0.45356816 -0.70934075
v 0.22531149 -0.38964254 -0.58092993
v 0.6899416 0.9296864 -0.8386717
v 0.5825047 0.9696893 -0.75831586
v 0.4736968 0.9685154 -0.83530015
v 0.06091189 -0.39151827 -0.7039534
v 0.6899416 0.9296864 -0.8386717
v 0.62975836 1.1555369 -0.6959047
v 0.8357915 1.0672692 -0.8560982
v 0.4736968 0.9685154 -0.83530015
v 0.8521606 2.0035129 -0.9383036
v 0.39254877 1.1487168 -0.8490263
vt 0.42265087 0.50147754
vt 0.42265087 0.569221
vt 0.4281907 0.5692209
vt 0.4281907 0.5014775
vt 0.43373054 0.5692209
vt 0.43373054 0.5014775
vt 0.42265087 0.50147754
vt 0.4281907 0.5014775
vt 0.43373054 0.5014775
vt 0.4281907 0.5014775
vt 0.4281907 0.5014775
vt 0.43658447 0.5692209
vt 0.4281907 0.5888249
vt 0.43658447 0.5888249
vt 0.41979706 0.569221
vt 0.4281907 0.62147254
vt 0.41979706 0.5888249
vt 0.42265087 0.50147754
vt 0.4281907 0.5014775
vt 0.42265087 0.569221
vt 0.4281907 0.5692209
vt 0.43373054 0.5692209
vt 0.43373054 0.5014775
vt 0.41979706 0.569221
vt 0.4281907 0.5888249
vt 0.41979706 0.5888249
vt 0.43658447 0.5692209
vt 0.4281907 0.62147254
vt 0.43658447 0.5888249
vn 0.9918784 -0.11269218 -0.05897314
vn 0.83970404 -0.5423809 0.026836904
vn -0.08855466 -0.31548992 -0.94478786
vn -0.038741786 -0.009833567 -0.9992009
vn -0.9955384 -0.080837265 0.048667178
vn -0.9260909 0.3756104 -0.035672933
vn 0.9963541 -0.026207725 -0.08118945
vn -0.03870226 0.030906158 -0.9987727
vn -0.89787674 0.43617147 -0.059765458
vn 0.050598767 0.30219424 0.95190257
vn 0.038174924 0.21106069 0.9767272
vn -0.9955384 -0.080837265 0.048667178
vn -0.06551846 -0.2144265 -0.9745402
vn -0.99780697 0.058888275 0.030222856
vn 0.83970404 -0.5423809 0.026836904
vn 0.2525887 0.9629141 -0.09484398
vn 0.92277247 -0.3853363 0.0026116956
vn 0.9918784 -0.11269218 -0.05897314
vn 0.038174924 0.21106069 0.9767272
vn 0.83970404 -0.5423809 0.026836904
vn -0.018986395 -0.13635553 0.99047804
vn -0.9955384 -0.080837265 0.048667178
vn -0.9260909 0.3756104 -0.035672933
vn 0.83970404 -0.5423809 0.026836904
vn 0.011880098 0.0009916609 0.99992895
vn 0.92277247 -0.3853363 0.0026116956
vn -0.9955384 -0.080837265 0.048667178
vn 0.2525887 0.9629141 -0.09484398
vn -0.99780697 0.058888275 0.030222856
g add_spear1_0
f 3/3/3 2/2/2 1/1/1
f 1/1/1 4/4/4 3/3/3
f 5/5/5 3/3/3 4/4/4
f 4/4/4 6/6/6 5/5/5
f 4/4/4 1/1/1 7/7/7
f 7/7/7 8/8/8 4/4/4
f 6/6/6 4/4/4 8/8/8
f 8/8/8 9/9/9 6/6/6
f 1/1/1 10/10/10 7/7/7
f 6/6/6 9/9/9 10/10/10
f 10/10/10 1/1/1 11/11/11
f 10/10/10 11/11/11 6/6/6
f 13/13/13 3/3/3 12/12/12
f 12/12/12 14/14/14 13/13/13
f 15/15/15 3/3/3 13/13/13
f 14/14/14 16/16/16 13/13/13
f 13/13/13 17/17/17 15/15/15
f 13/13/13 16/16/16 17/17/17
f 20/20/20 19/19/19 18/18/18
f 19/19/19 20/20/20 21/21/21
f 21/21/21 22/22/22 19/19/19
f 23/23/23 19/19/19 22/22/22
f 25/25/25 21/21/21 24/24/24
f 25/25/25 24/24/24 26/26/26
f 27/27/27 21/21/21 25/25/25
f 28/28/28 25/25/25 26/26/26
f 25/25/25 29/29/29 27/27/27
f 25/25/25 28/28/28 29/29/29
