g ancient_glow_bg1
v 0.44724798 -0.21933478 -0.46668804
v 0.4472483 -0.21933493 0.42738593
v -0.44682583 -0.21933493 0.42738613
v -0.44682628 -0.21933486 -0.46668774
v 0.36315867 -0.23731875 0.4187832
v 0.36315867 -1.0070004 0.41878313
v -0.36273634 -1.0070004 0.41878337
v -0.36273634 -0.23731875 0.4187832
v -0.43610278 -0.2373188 0.34489447
v -0.43610263 -1.0070004 0.34489462
v -0.43610346 -1.0070003 -0.38419604
v -0.4361033 -0.23731856 -0.38419613
v 0.43613735 -0.23731856 -0.38419643
v 0.43613744 -1.0070003 -0.38419628
v 0.43613744 -1.0070004 0.34489453
v 0.4361375 -0.2373188 0.34489432
vt 0.510237 0.006814914
vt 0.510237 0.24106419
vt 0.74919796 0.24106419
vt 0.74919796 0.006814914
vt 0.73615146 0.23292223
vt 0.73615146 0.0132673085
vt 0.52742827 0.0132673085
vt 0.52742827 0.23292223
vt 0.73615146 0.23292223
vt 0.73615146 0.0132673085
vt 0.52742827 0.0132673085
vt 0.52742827 0.23292223
vt 0.73615146 0.23292223
vt 0.73615146 0.0132673085
vt 0.52742827 0.0132673085
vt 0.52742827 0.23292223
vn -0 1 1.2889541E-07
vn -0 1 1.2889541E-07
vn -0 1 1.2889541E-07
vn -0 1 1.2889541E-07
vn 1.587585E-07 0 1
vn 1.587585E-07 0 1
vn 1.587585E-07 0 1
vn 1.587585E-07 0 1
vn -1 0 9.4837594E-07
vn -1 0 9.4837594E-07
vn -1 0 9.48376E-07
vn -1 0 9.4837594E-07
vn 1 0 -1.0537507E-07
vn 1 0 -1.0537508E-07
vn 1 0 -1.0537507E-07
vn 1 0 -1.0537507E-07
g ancient_glow_bg1_0
f 3/3/3 2/2/2 1/1/1
f 4/4/4 3/3/3 1/1/1
f 7/7/7 6/6/6 5/5/5
f 8/8/8 7/7/7 5/5/5
f 11/11/11 10/10/10 9/9/9
f 12/12/12 11/11/11 9/9/9
f 15/15/15 14/14/14 13/13/13
f 16/16/16 15/15/15 13/13/13
