g ancient_glow16
v -0.19932921 1.2062604 -0.49785295
v 0.47275576 1.2062604 -0.49785262
v 0.47275546 1.2062603 -0.23949502
v -0.19932939 1.2062603 -0.2394954
v -0.49479032 1.2062603 -0.49002218
v -0.25450575 1.2062603 -0.49002194
v -0.25450596 1.2062604 -0.23203036
v -0.49479032 1.2062604 -0.23203067
v -0.49040696 1.2062603 0.4748581
v -0.49040672 1.2062603 -0.17009524
v -0.24007177 1.2062602 -0.17009492
v -0.24007206 1.2062602 0.47485816
vt 0.60541373 0.4828925
vt 0.60541373 0.74983007
vt 0.5024136 0.74982923
vt 0.5024136 0.4828925
vt 0.2258126 0.97920465
vt 0.01978183 0.97920465
vt 0.019782424 0.77051795
vt 0.2258126 0.77051795
vt 0.60541373 0.4828925
vt 0.60541373 0.75078434
vt 0.5024135 0.7507835
vt 0.5024136 0.4828925
vn -0 1 3.7171353E-07
vn -0 1 3.7171347E-07
vn -0 1 3.7171347E-07
vn -0 1 3.7171347E-07
vn -0 1 -4.4668909E-07
vn -0 1 -4.4668909E-07
vn -0 1 -4.4668914E-07
vn -0 1 -4.4668909E-07
vn 3.4526352E-07 1 0
vn 3.4526352E-07 1 0
vn 3.452635E-07 1 0
vn 3.4526352E-07 1 0
g ancient_glow16_0
f 3/3/3 2/2/2 1/1/1
f 4/4/4 3/3/3 1/1/1
f 7/7/7 6/6/6 5/5/5
f 8/8/8 7/7/7 5/5/5
f 11/11/11 10/10/10 9/9/9
f 12/12/12 11/11/11 9/9/9
