g ball_number_alpha16
v -1.2560481E-08 0.2816282 0.4644964
v -0.06992903 0.35155708 0.40145484
v -1.5918232E-08 0.3584446 0.40145484
v -0.05494289 0.2762165 0.4644964
v -0.13717072 0.33115944 0.40145478
v 0.05494229 0.2762168 0.4644964
v 0.069928266 0.35155737 0.40145484
v -0.10777434 0.2601905 0.4644964
v -0.19914103 0.29803562 0.4014548
v 0.10777382 0.2601905 0.4644964
v 0.13717005 0.33115974 0.40145478
v -0.1564641 0.23416512 0.4644964
v -0.25345847 0.25345862 0.4014548
v 0.15646364 0.23416542 0.4644964
v 0.19914043 0.29803595 0.4014548
v -0.19914104 0.199141 0.4644964
v -0.29803562 0.19914098 0.4014548
v 0.19914064 0.1991416 0.4644964
v 0.253458 0.25345892 0.4014548
v -0.23416512 0.15646431 0.4644964
v -0.33115947 0.13717078 0.40145484
v 0.23416482 0.1564646 0.4644964
v 0.29803526 0.19914159 0.4014548
v -0.26019034 0.10777443 0.4644964
v -0.35155696 0.06992896 0.4014548
v 0.26019013 0.107774734 0.4644964
v 0.3311592 0.13717139 0.40145484
v -0.27621657 0.054943006 0.4644964
v -0.35844436 6.540529E-08 0.4014548
v 0.27621648 0.054943312 0.4644964
v 0.3515569 0.06992957 0.4014548
v -0.28162798 7.567608E-08 0.4644964
v -0.35155693 -0.06992913 0.40145478
v 0.28162798 3.8085184E-07 0.4644964
v 0.35844436 6.757569E-07 0.4014548
v -0.27621654 -0.054942854 0.46449637
v -0.33115938 -0.13717096 0.40145472
v 0.27621663 -0.054942243 0.46449637
v 0.35155708 -0.06992852 0.40145478
v -0.26019025 -0.10777427 0.46449637
v -0.29803553 -0.19914117 0.40145478
v 0.26019046 -0.10777397 0.46449637
v 0.33115962 -0.13717003 0.40145472
v -0.23416501 -0.15646416 0.46449637
v -0.2534583 -0.2534585 0.40145478
v 0.2341653 -0.15646385 0.46449637
v 0.2980359 -0.19914056 0.40145478
v -0.1991409 -0.19914116 0.46449637
v -0.19914082 -0.29803583 0.40145478
v 0.1991413 -0.19914055 0.46449637
v 0.25345877 -0.2534582 0.40145478
v -0.15646395 -0.23416527 0.46449637
v -0.13717046 -0.3311596 0.4014548
v 0.1564644 -0.23416495 0.46449637
v 0.1991414 -0.2980352 0.40145478
v -0.10777415 -0.26019034 0.46449637
v -0.06992873 -0.35155693 0.40145478
v 0.107774645 -0.26019004 0.46449637
v 0.1371711 -0.3311593 0.4014548
v -0.05494265 -0.27621666 0.46449637
v 3.4586344E-07 -0.35844412 0.40145472
v 0.054943178 -0.27621636 0.46449637
v 0.069929406 -0.35155693 0.40145478
v 2.716896E-07 -0.28162804 0.46449637
v 0.10777456 -0.16129538 0.51134056
v 0.07423647 -0.17922203 0.51134056
v 0.03784552 -0.19026116 0.51134056
v 1.8706521E-07 -0.19398856 0.51134056
v -0.037845157 -0.19026116 0.51134056
v -0.07423613 -0.17922233 0.51134056
v 0.13717091 -0.13717063 0.51134056
v -0.10777424 -0.1612957 0.51134056
v 0.16129586 -0.10777396 0.51134056
v -0.13717066 -0.13717063 0.51134056
v 0.17922232 -0.074236065 0.51134056
v -0.16129565 -0.107774265 0.51134056
v 0.19026133 -0.037845068 0.51134056
v -0.17922217 -0.07423637 0.51134056
v 0.19398873 3.8848373E-07 0.51134056
v -0.19026126 -0.037845373 0.51134056
v 0.19026123 0.037845846 0.51134056
v -0.19398873 8.330796E-08 0.51134056
v 0.17922206 0.07423653 0.51134056
v -0.19026129 0.037845235 0.51134056
v 0.16129552 0.10777474 0.51134056
v -0.17922221 0.07423622 0.51134056
v 0.13717048 0.1371711 0.51134056
v -0.16129574 0.10777444 0.51134056
v 0.10777405 0.16129616 0.51134056
v -0.13717073 0.13717079 0.51134056
v 0.0742359 0.17922248 0.51134056
v -0.10777434 0.16129585 0.51134056
v 0.037844907 0.1902613 0.51134056
v -0.07423626 0.17922218 0.51134056
v -8.729651E-09 0.19398873 0.51134056
v -0.037845325 0.1902613 0.51134056
v 0.05494272 0.08222817 0.54018706
v 0.037845127 0.09136697 0.54018706
v -2.5013264E-10 8.9594536E-08 0.5499273
v 0.0699289 0.06992929 0.54018706
v 0.019293167 0.09699441 0.54018706
v 0.082227744 0.054943018 0.54018706
v -4.5729527E-09 0.09889474 0.54018706
v 0.09136661 0.037845545 0.54018706
v -0.019293375 0.09699441 0.54018706
v 0.09699432 0.019293606 0.54018706
v -0.037845317 0.09136666 0.54018706
v 0.09889458 3.9318343E-07 0.54018706
v -0.054942884 0.08222787 0.54018706
v 0.09699438 -0.019293124 0.540187
v -0.06992903 0.06992898 0.54018706
v 0.09136674 -0.037845064 0.540187
v -0.08222784 0.054943018 0.54018706
v 0.082227916 -0.05494254 0.540187
v -0.091366686 0.037845243 0.54018706
v 0.06992912 -0.06992881 0.540187
v -0.09699436 0.0192933 0.54018706
v 0.054942988 -0.08222769 0.540187
v -0.09889458 8.8007646E-08 0.54018706
v 0.03784542 -0.09136649 0.540187
v -0.09699435 -0.01929343 0.540187
v 0.01929348 -0.096994236 0.540187
v -0.09136666 -0.03784537 0.540187
v 9.524239E-08 -0.09889457 0.540187
v -0.08222781 -0.054942846 0.540187
v -0.019293291 -0.096994236 0.540187
v -0.06992899 -0.069929115 0.540187
v -0.037845246 -0.09136649 0.540187
v -0.054942835 -0.08222769 0.540187
vt 0.075641245 0.34661967
vt 0.060884356 0.36128068
vt 0.075641245 0.36272466
vt 0.06404683 0.3454851
vt 0.046694577 0.35700417
vt 0.08723554 0.34548515
vt 0.090397954 0.36128074
vt 0.05289799 0.34212518
vt 0.0336172 0.35005963
vt 0.09838438 0.34212518
vt 0.10458776 0.35700423
vt 0.042623162 0.3366688
vt 0.022154778 0.3407138
vt 0.10865921 0.33666885
vt 0.11766514 0.3500597
vt 0.0336172 0.3293258
vt 0.012747824 0.3293258
vt 0.1176652 0.3293259
vt 0.12912759 0.34071386
vt 0.026226193 0.32037842
vt 0.0057578087 0.3163334
vt 0.12505624 0.32037848
vt 0.1385346 0.3293259
vt 0.020734191 0.3101703
vt 0.0014533997 0.30223584
vt 0.13054827 0.31017035
vt 0.14552462 0.31633353
vt 0.017352223 0.2990939
vt 0 0.28757483
vt 0.13393024 0.29909396
vt 0.14982909 0.30223596
vt 0.016210258 0.28757483
vt 0.0014533997 0.2729138
vt 0.13507223 0.2875749
vt 0.15128252 0.28757495
vt 0.017352223 0.27605575
vt 0.0057578385 0.25881618
vt 0.13393027 0.27605587
vt 0.14982912 0.27291393
vt 0.020734191 0.26497936
vt 0.012747854 0.2458238
vt 0.13054833 0.26497942
vt 0.14552471 0.25881642
vt 0.026226223 0.2547713
vt 0.022154808 0.23443592
vt 0.12505633 0.25477135
vt 0.13853472 0.24582392
vt 0.03361723 0.2458238
vt 0.033617258 0.22509003
vt 0.11766535 0.24582392
vt 0.12912777 0.23443598
vt 0.042623192 0.2384808
vt 0.046694636 0.21814543
vt 0.10865939 0.23848087
vt 0.11766535 0.22509015
vt 0.05289805 0.23302454
vt 0.060884416 0.21386904
vt 0.09838456 0.2330246
vt 0.10458797 0.21814549
vt 0.06404689 0.2296645
vt 0.075641304 0.21242511
vt 0.08723572 0.22966456
vt 0.09039819 0.21386904
vt 0.075641304 0.22852999
vt 0.09838453 0.25375837
vt 0.0913071 0.25
vt 0.08362767 0.24768555
vt 0.075641274 0.24690408
vt 0.06765491 0.24768555
vt 0.059975445 0.24999988
vt 0.10458794 0.2588163
vt 0.05289802 0.2537583
vt 0.109678954 0.26497942
vt 0.046694607 0.2588163
vt 0.11346191 0.27201086
vt 0.041603595 0.26497936
vt 0.11579144 0.27964044
vt 0.037820607 0.2720108
vt 0.11657801 0.2875749
vt 0.03549108 0.27964032
vt 0.11579141 0.2955094
vt 0.034704477 0.28757483
vt 0.11346185 0.3031389
vt 0.03549108 0.29550928
vt 0.109678894 0.31017035
vt 0.037820607 0.30313885
vt 0.10458785 0.31633347
vt 0.041603565 0.3101703
vt 0.09838444 0.32139146
vt 0.046694577 0.3163334
vt 0.091306984 0.32514977
vt 0.05289799 0.32139134
vt 0.08362752 0.32746416
vt 0.059975415 0.32514971
vt 0.075641245 0.32824558
vt 0.06765488 0.32746416
vt 0.08723563 0.3048144
vt 0.08362758 0.3067304
vt 0.075641245 0.28757483
vt 0.0903981 0.3022359
vt 0.07971263 0.3079102
vt 0.0929935 0.2990939
vt 0.075641245 0.30830866
vt 0.094922036 0.29550934
vt 0.07156983 0.3079102
vt 0.09610963 0.29161984
vt 0.06765488 0.30673033
vt 0.09651062 0.2875749
vt 0.06404686 0.30481434
vt 0.09610963 0.28352994
vt 0.060884356 0.30223584
vt 0.094922066 0.27964044
vt 0.05828899 0.2990939
vt 0.09299353 0.2760558
vt 0.056360453 0.29550928
vt 0.09039816 0.27291387
vt 0.05517286 0.29161978
vt 0.08723569 0.27033538
vt 0.05477187 0.28757483
vt 0.08362764 0.26841933
vt 0.05517286 0.28352988
vt 0.07971269 0.26723945
vt 0.056360453 0.27964032
vt 0.075641274 0.26684105
vt 0.05828899 0.27605575
vt 0.07156986 0.26723945
vt 0.060884386 0.2729138
vt 0.06765491 0.26841933
vt 0.06404686 0.27033538
vn -9.016661E-07 0.55977464 0.8286449
vn -0.12376478 0.6222033 0.77301055
vn -1.153506E-06 0.6343926 0.7730109
vn -0.1092072 0.5490187 0.82864475
vn -0.24277204 0.58610314 0.7730102
vn 0.10920659 0.5490188 0.8286449
vn 0.12376408 0.62220305 0.77301085
vn -0.2142166 0.517165 0.82864445
vn -0.3524501 0.5274788 0.77301043
vn 0.2142161 0.5171651 0.8286445
vn 0.24277166 0.586103 0.77301043
vn -0.31099454 0.46543592 0.8286445
vn -0.44858342 0.44858396 0.7730107
vn 0.31099334 0.46543714 0.8286443
vn 0.35244882 0.52748 0.77301013
vn -0.39582056 0.39582092 0.82864463
vn -0.52747875 0.35245025 0.7730104
vn 0.3958201 0.39582196 0.8286443
vn 0.44858304 0.44858515 0.7730101
vn -0.46543592 0.31099468 0.8286445
vn -0.58610314 0.24277161 0.77301043
vn 0.46543562 0.31099504 0.8286445
vn 0.5274782 0.352451 0.7730104
vn -0.5171649 0.2142164 0.8286445
vn -0.62220377 0.123763636 0.7730104
vn 0.5171644 0.21421733 0.82864463
vn 0.58610237 0.24277261 0.7730107
vn -0.5490192 0.10920659 0.8286445
vn -0.63439345 -3.0210876E-07 0.7730104
vn 0.54901904 0.10920759 0.82864463
vn 0.6222033 0.12376478 0.77301055
vn -0.5597752 -3.3767574E-07 0.8286445
vn -0.6222035 -0.123764485 0.77301043
vn 0.5597752 4.4304974E-07 0.8286445
vn 0.6343933 7.440362E-07 0.77301043
vn -0.5490192 -0.10920719 0.8286445
vn -0.5861026 -0.24277192 0.7730107
vn 0.54901946 -0.10920613 0.8286445
vn 0.62220377 -0.12376354 0.77301043
vn -0.5171646 -0.21421677 0.82864463
vn -0.5274784 -0.3524502 0.7730107
vn 0.51716536 -0.2142159 0.82864445
vn 0.5861037 -0.24277079 0.7730103
vn -0.4654358 -0.31099454 0.82864463
vn -0.4485839 -0.44858384 0.7730104
vn 0.46543655 -0.310994 0.82864445
vn 0.52747935 -0.3524493 0.77301043
vn -0.3958207 -0.3958207 0.82864463
vn -0.35244983 -0.5274787 0.7730105
vn 0.39582115 -0.3958201 0.8286447
vn 0.4485841 -0.44858325 0.7730107
vn -0.31099436 -0.4654359 0.8286447
vn -0.24277085 -0.58610314 0.77301055
vn 0.31099498 -0.46543568 0.8286445
vn 0.3524508 -0.5274781 0.7730105
vn -0.21421587 -0.5171649 0.8286447
vn -0.12376291 -0.62220454 0.77300996
vn 0.21421699 -0.5171643 0.82864475
vn 0.2427722 -0.58610237 0.7730108
vn -0.109205775 -0.5490196 0.82864445
vn 7.5402244E-07 -0.63439417 0.77300966
vn 0.10920724 -0.549019 0.8286447
vn 0.12376424 -0.62220335 0.7730107
vn 7.663565E-07 -0.5597755 0.82864434
vn 0.21549855 -0.32251585 0.92170703
vn 0.14843833 -0.35836074 0.921707
vn 0.075673714 -0.3804338 0.921707
vn 4.1952654E-07 -0.38788664 0.92170703
vn -0.07567244 -0.38043347 0.92170703
vn -0.1484375 -0.35836095 0.921707
vn 0.27427804 -0.27427727 0.92170686
vn -0.21549834 -0.322516 0.92170703
vn 0.32251626 -0.21549794 0.92170703
vn -0.2742774 -0.2742774 0.92170703
vn 0.35836095 -0.14843763 0.921707
vn -0.32251605 -0.21549866 0.921707
vn 0.38043398 -0.07567291 0.921707
vn -0.3583608 -0.14843838 0.92170686
vn 0.3878869 1.0637568E-07 0.921707
vn -0.38043383 -0.07567367 0.92170686
vn 0.3804338 0.07567395 0.921707
vn -0.3878869 -4.6255494E-07 0.921707
vn 0.3583606 0.14843853 0.921707
vn -0.38043377 0.07567293 0.921707
vn 0.3225161 0.21549867 0.921707
vn -0.35836086 0.14843747 0.92170703
vn 0.2742772 0.27427775 0.921707
vn -0.32251608 0.21549848 0.92170703
vn 0.21549788 0.32251707 0.92170674
vn -0.27427736 0.2742777 0.921707
vn 0.1484366 0.35836175 0.92170686
vn -0.21549852 0.3225163 0.921707
vn 0.07567235 0.3804337 0.92170703
vn -0.14843759 0.35836077 0.92170703
vn -2.1514184E-07 0.3878868 0.92170703
vn -0.07567334 0.3804338 0.921707
vn 0.11165211 0.1670996 0.9795976
vn 0.07690628 0.1856716 0.9795976
vn -0 -2.0205715E-07 1
vn 0.14210647 0.14210622 0.9795976
vn 0.03920642 0.19710702 0.97959775
vn 0.16709916 0.11165221 0.9795976
vn 1.0739049E-07 0.20096911 0.9795975
vn 0.18567076 0.07690787 0.9795976
vn -0.039207555 0.19710709 0.9795976
vn 0.19710699 0.03920751 0.9795976
vn -0.07690734 0.18567076 0.9795976
vn 0.20096862 -3.943617E-07 0.9795976
vn -0.11165221 0.16709945 0.9795976
vn 0.19710726 -0.039207518 0.9795976
vn -0.14210609 0.14210625 0.97959775
vn 0.18567102 -0.07690745 0.9795976
vn -0.16709957 0.111652404 0.9795976
vn 0.16709957 -0.111651905 0.9795976
vn -0.18567088 0.076907024 0.9795976
vn 0.14210676 -0.14210603 0.9795976
vn -0.19710714 0.03920706 0.9795976
vn 0.111652456 -0.16709964 0.9795975
vn -0.20096868 -7.242892E-07 0.9795976
vn 0.076907724 -0.18567076 0.9795976
vn -0.19710729 -0.039207935 0.9795976
vn 0.039207548 -0.19710723 0.9795976
vn -0.18567094 -0.076907806 0.9795976
vn -0 -0.20096922 0.9795975
vn -0.16709939 -0.11165241 0.9795976
vn -0.03920714 -0.1971073 0.9795976
vn -0.14210656 -0.14210698 0.9795975
vn -0.07690721 -0.18567073 0.9795976
vn -0.1116519 -0.16709957 0.9795976
g ball_number_alpha16_0
f 3/3/3 2/2/2 1/1/1
f 2/2/2 4/4/4 1/1/1
f 2/2/2 5/5/5 4/4/4
f 3/3/3 1/1/1 6/6/6
f 7/7/7 3/3/3 6/6/6
f 5/5/5 8/8/8 4/4/4
f 5/5/5 9/9/9 8/8/8
f 7/7/7 6/6/6 10/10/10
f 11/11/11 7/7/7 10/10/10
f 9/9/9 12/12/12 8/8/8
f 9/9/9 13/13/13 12/12/12
f 11/11/11 10/10/10 14/14/14
f 15/15/15 11/11/11 14/14/14
f 13/13/13 16/16/16 12/12/12
f 13/13/13 17/17/17 16/16/16
f 15/15/15 14/14/14 18/18/18
f 19/19/19 15/15/15 18/18/18
f 17/17/17 20/20/20 16/16/16
f 17/17/17 21/21/21 20/20/20
f 19/19/19 18/18/18 22/22/22
f 23/23/23 19/19/19 22/22/22
f 21/21/21 24/24/24 20/20/20
f 21/21/21 25/25/25 24/24/24
f 23/23/23 22/22/22 26/26/26
f 27/27/27 23/23/23 26/26/26
f 25/25/25 28/28/28 24/24/24
f 25/25/25 29/29/29 28/28/28
f 27/27/27 26/26/26 30/30/30
f 31/31/31 27/27/27 30/30/30
f 29/29/29 32/32/32 28/28/28
f 29/29/29 33/33/33 32/32/32
f 31/31/31 30/30/30 34/34/34
f 35/35/35 31/31/31 34/34/34
f 33/33/33 36/36/36 32/32/32
f 33/33/33 37/37/37 36/36/36
f 35/35/35 34/34/34 38/38/38
f 39/39/39 35/35/35 38/38/38
f 37/37/37 40/40/40 36/36/36
f 37/37/37 41/41/41 40/40/40
f 39/39/39 38/38/38 42/42/42
f 43/43/43 39/39/39 42/42/42
f 41/41/41 44/44/44 40/40/40
f 41/41/41 45/45/45 44/44/44
f 43/43/43 42/42/42 46/46/46
f 47/47/47 43/43/43 46/46/46
f 45/45/45 48/48/48 44/44/44
f 45/45/45 49/49/49 48/48/48
f 47/47/47 46/46/46 50/50/50
f 51/51/51 47/47/47 50/50/50
f 49/49/49 52/52/52 48/48/48
f 49/49/49 53/53/53 52/52/52
f 51/51/51 50/50/50 54/54/54
f 55/55/55 51/51/51 54/54/54
f 53/53/53 56/56/56 52/52/52
f 53/53/53 57/57/57 56/56/56
f 55/55/55 54/54/54 58/58/58
f 59/59/59 55/55/55 58/58/58
f 57/57/57 60/60/60 56/56/56
f 57/57/57 61/61/61 60/60/60
f 59/59/59 58/58/58 62/62/62
f 63/63/63 59/59/59 62/62/62
f 61/61/61 63/63/63 64/64/64
f 61/61/61 64/64/64 60/60/60
f 63/63/63 62/62/62 64/64/64
f 54/54/54 50/50/50 65/65/65
f 58/58/58 54/54/54 66/66/66
f 54/54/54 65/65/65 66/66/66
f 62/62/62 58/58/58 67/67/67
f 58/58/58 66/66/66 67/67/67
f 64/64/64 62/62/62 68/68/68
f 62/62/62 67/67/67 68/68/68
f 60/60/60 64/64/64 69/69/69
f 64/64/64 68/68/68 69/69/69
f 56/56/56 60/60/60 70/70/70
f 60/60/60 69/69/69 70/70/70
f 50/50/50 71/71/71 65/65/65
f 50/50/50 46/46/46 71/71/71
f 56/56/56 70/70/70 72/72/72
f 52/52/52 56/56/56 72/72/72
f 46/46/46 73/73/73 71/71/71
f 46/46/46 42/42/42 73/73/73
f 52/52/52 72/72/72 74/74/74
f 48/48/48 52/52/52 74/74/74
f 42/42/42 75/75/75 73/73/73
f 42/42/42 38/38/38 75/75/75
f 48/48/48 74/74/74 76/76/76
f 44/44/44 48/48/48 76/76/76
f 38/38/38 77/77/77 75/75/75
f 38/38/38 34/34/34 77/77/77
f 44/44/44 76/76/76 78/78/78
f 40/40/40 44/44/44 78/78/78
f 34/34/34 79/79/79 77/77/77
f 34/34/34 30/30/30 79/79/79
f 40/40/40 78/78/78 80/80/80
f 36/36/36 40/40/40 80/80/80
f 30/30/30 81/81/81 79/79/79
f 30/30/30 26/26/26 81/81/81
f 36/36/36 80/80/80 82/82/82
f 32/32/32 36/36/36 82/82/82
f 26/26/26 83/83/83 81/81/81
f 26/26/26 22/22/22 83/83/83
f 32/32/32 82/82/82 84/84/84
f 28/28/28 32/32/32 84/84/84
f 22/22/22 85/85/85 83/83/83
f 22/22/22 18/18/18 85/85/85
f 28/28/28 84/84/84 86/86/86
f 24/24/24 28/28/28 86/86/86
f 18/18/18 87/87/87 85/85/85
f 18/18/18 14/14/14 87/87/87
f 24/24/24 86/86/86 88/88/88
f 20/20/20 24/24/24 88/88/88
f 14/14/14 89/89/89 87/87/87
f 14/14/14 10/10/10 89/89/89
f 20/20/20 88/88/88 90/90/90
f 16/16/16 20/20/20 90/90/90
f 10/10/10 91/91/91 89/89/89
f 10/10/10 6/6/6 91/91/91
f 16/16/16 90/90/90 92/92/92
f 12/12/12 16/16/16 92/92/92
f 6/6/6 93/93/93 91/91/91
f 6/6/6 1/1/1 93/93/93
f 12/12/12 92/92/92 94/94/94
f 8/8/8 12/12/12 94/94/94
f 1/1/1 95/95/95 93/93/93
f 1/1/1 4/4/4 95/95/95
f 4/4/4 8/8/8 96/96/96
f 8/8/8 94/94/94 96/96/96
f 4/4/4 96/96/96 95/95/95
f 89/89/89 91/91/91 97/97/97
f 91/91/91 93/93/93 98/98/98
f 91/91/91 98/98/98 97/97/97
f 97/97/97 98/98/98 99/99/99
f 89/89/89 97/97/97 100/100/100
f 100/100/100 97/97/97 99/99/99
f 87/87/87 89/89/89 100/100/100
f 93/93/93 101/101/101 98/98/98
f 93/93/93 95/95/95 101/101/101
f 98/98/98 101/101/101 99/99/99
f 87/87/87 100/100/100 102/102/102
f 102/102/102 100/100/100 99/99/99
f 85/85/85 87/87/87 102/102/102
f 95/95/95 103/103/103 101/101/101
f 95/95/95 96/96/96 103/103/103
f 101/101/101 103/103/103 99/99/99
f 85/85/85 102/102/102 104/104/104
f 104/104/104 102/102/102 99/99/99
f 83/83/83 85/85/85 104/104/104
f 96/96/96 105/105/105 103/103/103
f 103/103/103 105/105/105 99/99/99
f 106/106/106 104/104/104 99/99/99
f 83/83/83 104/104/104 106/106/106
f 105/105/105 107/107/107 99/99/99
f 96/96/96 94/94/94 105/105/105
f 94/94/94 107/107/107 105/105/105
f 81/81/81 83/83/83 106/106/106
f 94/94/94 92/92/92 107/107/107
f 81/81/81 106/106/106 108/108/108
f 108/108/108 106/106/106 99/99/99
f 79/79/79 81/81/81 108/108/108
f 92/92/92 109/109/109 107/107/107
f 107/107/107 109/109/109 99/99/99
f 92/92/92 90/90/90 109/109/109
f 79/79/79 108/108/108 110/110/110
f 110/110/110 108/108/108 99/99/99
f 77/77/77 79/79/79 110/110/110
f 90/90/90 111/111/111 109/109/109
f 109/109/109 111/111/111 99/99/99
f 90/90/90 88/88/88 111/111/111
f 77/77/77 110/110/110 112/112/112
f 112/112/112 110/110/110 99/99/99
f 75/75/75 77/77/77 112/112/112
f 111/111/111 113/113/113 99/99/99
f 88/88/88 113/113/113 111/111/111
f 114/114/114 112/112/112 99/99/99
f 75/75/75 112/112/112 114/114/114
f 113/113/113 115/115/115 99/99/99
f 88/88/88 86/86/86 113/113/113
f 86/86/86 115/115/115 113/113/113
f 73/73/73 75/75/75 114/114/114
f 86/86/86 84/84/84 115/115/115
f 73/73/73 114/114/114 116/116/116
f 116/116/116 114/114/114 99/99/99
f 71/71/71 73/73/73 116/116/116
f 84/84/84 117/117/117 115/115/115
f 115/115/115 117/117/117 99/99/99
f 84/84/84 82/82/82 117/117/117
f 71/71/71 116/116/116 118/118/118
f 118/118/118 116/116/116 99/99/99
f 65/65/65 71/71/71 118/118/118
f 82/82/82 119/119/119 117/117/117
f 117/117/117 119/119/119 99/99/99
f 82/82/82 80/80/80 119/119/119
f 65/65/65 118/118/118 120/120/120
f 120/120/120 118/118/118 99/99/99
f 66/66/66 65/65/65 120/120/120
f 119/119/119 121/121/121 99/99/99
f 80/80/80 121/121/121 119/119/119
f 122/122/122 120/120/120 99/99/99
f 66/66/66 120/120/120 122/122/122
f 121/121/121 123/123/123 99/99/99
f 80/80/80 78/78/78 121/121/121
f 78/78/78 123/123/123 121/121/121
f 67/67/67 66/66/66 122/122/122
f 78/78/78 76/76/76 123/123/123
f 67/67/67 122/122/122 124/124/124
f 124/124/124 122/122/122 99/99/99
f 68/68/68 67/67/67 124/124/124
f 76/76/76 125/125/125 123/123/123
f 123/123/123 125/125/125 99/99/99
f 76/76/76 74/74/74 125/125/125
f 68/68/68 124/124/124 126/126/126
f 126/126/126 124/124/124 99/99/99
f 69/69/69 68/68/68 126/126/126
f 74/74/74 127/127/127 125/125/125
f 125/125/125 127/127/127 99/99/99
f 74/74/74 72/72/72 127/127/127
f 69/69/69 126/126/126 128/128/128
f 128/128/128 126/126/126 99/99/99
f 70/70/70 69/69/69 128/128/128
f 127/127/127 129/129/129 99/99/99
f 72/72/72 129/129/129 127/127/127
f 129/129/129 128/128/128 99/99/99
f 70/70/70 128/128/128 129/129/129
f 72/72/72 70/70/70 129/129/129
