g ball_number_alpha24
v -0 0.2816282 0.4644966
v -0.06992889 0.35155708 0.401455
v -0 0.3584446 0.401455
v -0.054942932 0.2762165 0.4644966
v -0.13717072 0.33115944 0.40145496
v 0.05494232 0.2762168 0.4644966
v 0.06992828 0.35155737 0.401455
v -0.10777435 0.2601905 0.4644966
v -0.19914092 0.29803562 0.401455
v 0.10777374 0.2601905 0.4644966
v 0.1371701 0.33115974 0.40145496
v -0.15646423 0.23416512 0.4644966
v -0.25345856 0.25345862 0.401455
v 0.15646362 0.23416542 0.4644966
v 0.19914031 0.29803595 0.401455
v -0.19914092 0.199141 0.4644966
v -0.29803556 0.19914098 0.401455
v 0.19914062 0.1991416 0.4644966
v 0.25345793 0.25345892 0.401455
v -0.23416503 0.15646431 0.46449655
v -0.33115935 0.13717078 0.401455
v 0.23416473 0.1564646 0.46449655
v 0.29803526 0.19914159 0.401455
v -0.26019043 0.10777443 0.46449655
v -0.351557 0.06992896 0.40145496
v 0.26019013 0.107774734 0.46449655
v 0.33115906 0.13717139 0.401455
v -0.27621642 0.054943006 0.46449655
v -0.3584442 6.540532E-08 0.40145496
v 0.27621642 0.054943312 0.46449655
v 0.351557 0.06992957 0.40145496
v -0.2816281 7.56761E-08 0.46449655
v -0.351557 -0.06992913 0.40145493
v 0.2816281 3.8085187E-07 0.46449655
v 0.3584442 6.757569E-07 0.40145496
v -0.27621642 -0.054942854 0.46449652
v -0.33115935 -0.13717096 0.40145493
v 0.27621672 -0.054942243 0.46449652
v 0.351557 -0.06992852 0.40145493
v -0.26019013 -0.10777427 0.46449652
v -0.29803556 -0.19914117 0.40145496
v 0.26019043 -0.10777397 0.46449652
v 0.33115965 -0.13717003 0.40145493
v -0.23416503 -0.15646416 0.46449655
v -0.25345823 -0.2534585 0.40145496
v 0.23416534 -0.15646385 0.46449655
v 0.2980359 -0.19914056 0.40145496
v -0.19914092 -0.19914116 0.46449655
v -0.19914092 -0.29803583 0.40145493
v 0.19914123 -0.19914055 0.46449655
v 0.25345886 -0.2534582 0.40145496
v -0.15646392 -0.23416527 0.46449655
v -0.1371704 -0.3311596 0.40145496
v 0.15646453 -0.23416495 0.46449655
v 0.19914153 -0.2980352 0.40145493
v -0.10777405 -0.26019034 0.46449655
v -0.06992859 -0.35155693 0.40145493
v 0.10777465 -0.26019004 0.46449655
v 0.13717102 -0.3311593 0.40145496
v -0.054942627 -0.27621666 0.46449655
v 3.0517577E-07 -0.35844412 0.40145493
v 0.054943237 -0.27621636 0.46449655
v 0.0699295 -0.35155693 0.40145493
v 3.0517577E-07 -0.28162804 0.46449652
v 0.10777465 -0.16129538 0.51134074
v 0.074236445 -0.17922203 0.51134074
v 0.03784546 -0.19026116 0.51134074
v 3.0517577E-07 -0.19398856 0.51134074
v -0.037845153 -0.19026116 0.51134074
v -0.07423614 -0.17922233 0.51134074
v 0.13717102 -0.13717063 0.51134074
v -0.10777435 -0.1612957 0.51134074
v 0.16129577 -0.10777396 0.5113407
v -0.13717072 -0.13717063 0.51134074
v 0.1792224 -0.074236065 0.5113407
v -0.16129577 -0.107774265 0.5113407
v 0.19026123 -0.037845068 0.51134074
v -0.1792221 -0.07423637 0.5113407
v 0.19398864 3.8848373E-07 0.51134074
v -0.19026123 -0.037845373 0.51134074
v 0.19026123 0.037845846 0.51134074
v -0.19398864 8.330799E-08 0.51134074
v 0.1792221 0.07423653 0.51134074
v -0.19026123 0.037845235 0.51134074
v 0.16129547 0.10777474 0.51134074
v -0.1792221 0.07423622 0.51134074
v 0.1371704 0.1371711 0.51134074
v -0.16129577 0.10777444 0.51134074
v 0.10777405 0.16129616 0.51134074
v -0.13717072 0.13717079 0.51134074
v 0.07423584 0.17922248 0.51134074
v -0.10777435 0.16129585 0.51134074
v 0.037844848 0.1902613 0.5113408
v -0.07423614 0.17922218 0.51134074
v -0 0.19398873 0.5113408
v -0.03784546 0.1902613 0.5113408
v 0.054942627 0.08222817 0.54018724
v 0.037845153 0.09136697 0.54018724
v -0 8.959456E-08 0.5499275
v 0.06992889 0.06992929 0.54018724
v 0.019293213 0.09699441 0.54018724
v 0.08222778 0.054943018 0.54018724
v -0 0.09889474 0.54018724
v 0.091366574 0.037845545 0.54018724
v -0.019293517 0.09699441 0.54018724
v 0.09699432 0.019293606 0.54018724
v -0.03784546 0.09136666 0.54018724
v 0.09889465 3.9318343E-07 0.54018724
v -0.054942932 0.08222787 0.54018724
v 0.09699432 -0.019293124 0.54018724
v -0.06992889 0.06992898 0.54018724
v 0.09136688 -0.037845064 0.54018724
v -0.08222778 0.054943018 0.54018724
v 0.08222778 -0.05494254 0.5401872
v -0.091366574 0.037845243 0.54018724
v 0.0699292 -0.06992881 0.5401872
v -0.09699432 0.0192933 0.54018724
v 0.054942932 -0.08222769 0.5401872
v -0.09889465 8.8007674E-08 0.54018724
v 0.03784546 -0.09136649 0.5401872
v -0.09699432 -0.01929343 0.54018724
v 0.019293517 -0.096994236 0.5401872
v -0.091366574 -0.03784537 0.54018724
v -0 -0.09889457 0.5401872
v -0.08222778 -0.054942846 0.5401872
v -0.019293213 -0.096994236 0.5401872
v -0.06992889 -0.069929115 0.5401872
v -0.037845153 -0.09136649 0.5401872
v -0.054942932 -0.08222769 0.5401872
vt 0.71217936 0.13419455
vt 0.69742244 0.1488555
vt 0.7121793 0.15029955
vt 0.70058495 0.13305998
vt 0.68323267 0.14457905
vt 0.72377366 0.13306004
vt 0.72693604 0.14885557
vt 0.68943614 0.12970006
vt 0.6701553 0.13763446
vt 0.73492247 0.12970006
vt 0.7411258 0.14457911
vt 0.67916125 0.12424368
vt 0.65869284 0.12828869
vt 0.74519736 0.124243736
vt 0.7542032 0.13763452
vt 0.67015535 0.11690068
vt 0.6492859 0.11690068
vt 0.7542033 0.1169008
vt 0.76566565 0.12828875
vt 0.6627644 0.10795331
vt 0.6422959 0.1039083
vt 0.76159436 0.10795337
vt 0.7750727 0.1169008
vt 0.6572723 0.09774518
vt 0.6379915 0.08981067
vt 0.7670864 0.09774524
vt 0.78206265 0.10390842
vt 0.6538904 0.08666879
vt 0.6365381 0.075149715
vt 0.77046835 0.08666885
vt 0.7863672 0.08981079
vt 0.6527484 0.075149715
vt 0.6379915 0.0604887
vt 0.7716104 0.075149775
vt 0.7878206 0.075149834
vt 0.6538904 0.06363064
vt 0.6422959 0.04639107
vt 0.7704684 0.06363076
vt 0.7863672 0.06048882
vt 0.65727234 0.05255425
vt 0.6492859 0.033398688
vt 0.76708645 0.05255431
vt 0.78206277 0.04639125
vt 0.6627644 0.04234618
vt 0.6586929 0.022010803
vt 0.7615945 0.04234624
vt 0.7750728 0.033398807
vt 0.67015535 0.033398688
vt 0.6701553 0.012664914
vt 0.75420344 0.033398807
vt 0.7656659 0.022010863
vt 0.67916137 0.026055694
vt 0.6832327 0.0057203174
vt 0.74519753 0.026055753
vt 0.75420344 0.012665033
vt 0.6894362 0.020599425
vt 0.6974225 0.0014439225
vt 0.7349227 0.020599484
vt 0.74112606 0.005720377
vt 0.700585 0.017239392
vt 0.71217936 0
vt 0.72377384 0.017239451
vt 0.7269363 0.0014439225
vt 0.7121794 0.016104877
vt 0.7349227 0.04133326
vt 0.72784525 0.037574828
vt 0.7201658 0.03526044
vt 0.7121794 0.034478962
vt 0.70419306 0.03526044
vt 0.6965136 0.037574768
vt 0.7411261 0.04639113
vt 0.68943614 0.0413332
vt 0.7462171 0.05255431
vt 0.6832327 0.04639113
vt 0.75000006 0.05958569
vt 0.6781417 0.05255425
vt 0.7523295 0.067215264
vt 0.6743588 0.05958563
vt 0.75311613 0.075149775
vt 0.6720292 0.067215204
vt 0.7523295 0.083084285
vt 0.67124265 0.075149715
vt 0.75 0.0907138
vt 0.6720292 0.083084166
vt 0.746217 0.09774524
vt 0.6743588 0.09071374
vt 0.741126 0.10390836
vt 0.6781417 0.09774518
vt 0.7349226 0.10896629
vt 0.6832327 0.1039083
vt 0.72784513 0.11272466
vt 0.68943614 0.10896623
vt 0.72016567 0.11503899
vt 0.6965136 0.1127246
vt 0.71217936 0.11582047
vt 0.704193 0.11503899
vt 0.7237737 0.092389286
vt 0.7201657 0.09430528
vt 0.71217936 0.075149715
vt 0.7269362 0.08981073
vt 0.7162508 0.09548509
vt 0.72953165 0.08666879
vt 0.71217936 0.09588349
vt 0.73146015 0.083084226
vt 0.70810795 0.09548509
vt 0.7326478 0.079194725
vt 0.704193 0.09430522
vt 0.7330488 0.075149775
vt 0.70058495 0.092389226
vt 0.7326478 0.071104825
vt 0.6974225 0.08981067
vt 0.7314602 0.067215264
vt 0.69482714 0.08666879
vt 0.72953165 0.0636307
vt 0.69289863 0.083084166
vt 0.7269363 0.06048876
vt 0.691711 0.079194665
vt 0.7237738 0.057910204
vt 0.69131 0.075149715
vt 0.7201658 0.055994213
vt 0.691711 0.071104705
vt 0.71625084 0.05481434
vt 0.69289863 0.067215204
vt 0.71217936 0.05441594
vt 0.69482714 0.06363064
vt 0.708108 0.05481434
vt 0.6974225 0.0604887
vt 0.70419306 0.055994213
vt 0.70058495 0.057910204
vn -8.9208675E-07 0.5597749 0.82864475
vn -0.12376458 0.6222035 0.7730104
vn -1.1809707E-06 0.63439304 0.7730107
vn -0.10920731 0.5490188 0.82864475
vn -0.24277192 0.5861035 0.77301
vn 0.109206714 0.54901886 0.8286449
vn 0.12376403 0.62220323 0.77301073
vn -0.21421653 0.517165 0.82864445
vn -0.35245007 0.52747893 0.7730103
vn 0.21421607 0.51716495 0.8286445
vn 0.24277167 0.5861029 0.77301055
vn -0.31099463 0.46543586 0.82864463
vn -0.4485835 0.4485834 0.77301085
vn 0.31099328 0.4654371 0.82864434
vn 0.35244885 0.52748007 0.77301013
vn -0.3958206 0.39582047 0.82864475
vn -0.5274789 0.35245004 0.77301043
vn 0.3958202 0.39582172 0.82864445
vn 0.448583 0.4485851 0.77301013
vn -0.4654359 0.31099454 0.8286445
vn -0.5861032 0.24277164 0.7730103
vn 0.46543565 0.3109948 0.82864463
vn 0.5274783 0.35245046 0.7730105
vn -0.51716506 0.21421625 0.8286445
vn -0.622204 0.12376364 0.77301013
vn 0.51716435 0.2142176 0.8286445
vn 0.5861022 0.24277283 0.7730107
vn -0.5490191 0.10920667 0.82864463
vn -0.6343937 -1.7727017E-07 0.77301013
vn 0.549019 0.10920778 0.82864463
vn 0.62220335 0.12376506 0.77301043
vn -0.5597755 -1.3530982E-07 0.82864434
vn -0.6222032 -0.12376464 0.7730107
vn 0.5597755 4.5502412E-07 0.82864434
vn 0.634394 5.967262E-07 0.7730098
vn -0.549019 -0.10920759 0.82864463
vn -0.58610237 -0.24277127 0.77301115
vn 0.5490197 -0.10920609 0.8286443
vn 0.6222045 -0.12376352 0.7730099
vn -0.5171647 -0.21421619 0.8286447
vn -0.52747846 -0.3524497 0.7730108
vn 0.51716524 -0.2142158 0.8286445
vn 0.58610386 -0.24277046 0.77301013
vn -0.46543607 -0.31099394 0.8286447
vn -0.44858375 -0.44858405 0.7730103
vn 0.46543652 -0.31099367 0.8286445
vn 0.5274793 -0.352449 0.77301055
vn -0.39582074 -0.3958208 0.8286445
vn -0.3524497 -0.52747875 0.77301055
vn 0.39582133 -0.39581972 0.82864475
vn 0.4485842 -0.44858295 0.77301073
vn -0.31099418 -0.46543616 0.82864463
vn -0.24277067 -0.58610344 0.77301043
vn 0.310995 -0.46543577 0.8286445
vn 0.35245076 -0.5274783 0.77301043
vn -0.21421574 -0.51716506 0.82864463
vn -0.12376295 -0.6222046 0.7730098
vn 0.21421684 -0.51716447 0.8286447
vn 0.24277207 -0.58610284 0.77301043
vn -0.10920577 -0.5490197 0.8286443
vn 6.5165506E-07 -0.6343942 0.77300966
vn 0.10920727 -0.549019 0.82864463
vn 0.123764396 -0.62220347 0.77301043
vn 7.5677684E-07 -0.5597756 0.8286443
vn 0.21549837 -0.32251576 0.92170715
vn 0.14843805 -0.35836056 0.92170703
vn 0.07567356 -0.38043362 0.92170703
vn 4.8526437E-07 -0.38788658 0.92170703
vn -0.075672336 -0.38043332 0.92170715
vn -0.14843728 -0.35836098 0.92170703
vn 0.27427855 -0.27427664 0.921707
vn -0.21549821 -0.322516 0.92170703
vn 0.3225161 -0.21549778 0.92170703
vn -0.2742774 -0.27427706 0.92170703
vn 0.35836104 -0.14843805 0.92170686
vn -0.32251647 -0.21549809 0.921707
vn 0.38043386 -0.07567248 0.92170703
vn -0.35836107 -0.14843826 0.92170686
vn 0.3878867 3.1554134E-07 0.92170703
vn -0.38043392 -0.07567405 0.92170686
vn 0.38043377 0.07567396 0.92170686
vn -0.38788682 0 0.92170703
vn 0.35836065 0.14843874 0.921707
vn -0.38043368 0.0756733 0.921707
vn 0.3225161 0.21549882 0.921707
vn -0.35836074 0.14843717 0.92170703
vn 0.27427727 0.27427757 0.92170703
vn -0.32251614 0.2154984 0.921707
vn 0.21549785 0.32251698 0.92170686
vn -0.2742775 0.2742774 0.92170703
vn 0.14843678 0.35836148 0.921707
vn -0.21549858 0.32251593 0.92170703
vn 0.0756726 0.38043344 0.92170715
vn -0.14843771 0.3583604 0.92170715
vn -1.4820883E-07 0.38788652 0.92170715
vn -0.07567371 0.3804336 0.92170703
vn 0.111652 0.16709943 0.9795976
vn 0.076906584 0.18567158 0.9795976
vn -0 -2.2780051E-07 1
vn 0.14210641 0.14210637 0.9795976
vn 0.039206583 0.1971068 0.97959775
vn 0.1670993 0.111652344 0.9795976
vn 1.6227897E-07 0.20096892 0.9795976
vn 0.1856706 0.07690781 0.9795976
vn -0.039207745 0.19710691 0.9795976
vn 0.19710694 0.039207634 0.9795976
vn -0.07690769 0.18567075 0.9795976
vn 0.20096907 0 0.9795975
vn -0.111652605 0.16709934 0.9795976
vn 0.197107 -0.03920642 0.97959775
vn -0.14210592 0.14210594 0.97959775
vn 0.1856711 -0.07690846 0.9795975
vn -0.16709965 0.11165236 0.9795976
vn 0.16709879 -0.11165224 0.97959775
vn -0.18567082 0.07690694 0.97959775
vn 0.14210723 -0.14210567 0.9795976
vn -0.19710709 0.03920759 0.9795976
vn 0.11165205 -0.16709942 0.9795976
vn -0.20096909 1.217092E-07 0.9795975
vn 0.07690771 -0.18567063 0.9795976
vn -0.19710709 -0.039207656 0.9795976
vn 0.039207496 -0.19710706 0.9795976
vn -0.18567047 -0.07690831 0.9795976
vn -0 -0.20096907 0.9795975
vn -0.16709922 -0.1116527 0.9795976
vn -0.039207112 -0.19710706 0.9795976
vn -0.14210646 -0.1421064 0.9795976
vn -0.07690679 -0.18567054 0.97959775
vn -0.11165195 -0.1670995 0.9795976
g ball_number_alpha24_0
f 3/3/3 2/2/2 1/1/1
f 2/2/2 4/4/4 1/1/1
f 2/2/2 5/5/5 4/4/4
f 3/3/3 1/1/1 6/6/6
f 7/7/7 3/3/3 6/6/6
f 5/5/5 8/8/8 4/4/4
f 5/5/5 9/9/9 8/8/8
f 7/7/7 6/6/6 10/10/10
f 11/11/11 7/7/7 10/10/10
f 9/9/9 12/12/12 8/8/8
f 9/9/9 13/13/13 12/12/12
f 11/11/11 10/10/10 14/14/14
f 15/15/15 11/11/11 14/14/14
f 13/13/13 16/16/16 12/12/12
f 13/13/13 17/17/17 16/16/16
f 15/15/15 14/14/14 18/18/18
f 19/19/19 15/15/15 18/18/18
f 17/17/17 20/20/20 16/16/16
f 17/17/17 21/21/21 20/20/20
f 19/19/19 18/18/18 22/22/22
f 23/23/23 19/19/19 22/22/22
f 21/21/21 24/24/24 20/20/20
f 21/21/21 25/25/25 24/24/24
f 23/23/23 22/22/22 26/26/26
f 27/27/27 23/23/23 26/26/26
f 25/25/25 28/28/28 24/24/24
f 25/25/25 29/29/29 28/28/28
f 27/27/27 26/26/26 30/30/30
f 31/31/31 27/27/27 30/30/30
f 29/29/29 32/32/32 28/28/28
f 29/29/29 33/33/33 32/32/32
f 31/31/31 30/30/30 34/34/34
f 35/35/35 31/31/31 34/34/34
f 33/33/33 36/36/36 32/32/32
f 33/33/33 37/37/37 36/36/36
f 35/35/35 34/34/34 38/38/38
f 39/39/39 35/35/35 38/38/38
f 37/37/37 40/40/40 36/36/36
f 37/37/37 41/41/41 40/40/40
f 39/39/39 38/38/38 42/42/42
f 43/43/43 39/39/39 42/42/42
f 41/41/41 44/44/44 40/40/40
f 41/41/41 45/45/45 44/44/44
f 43/43/43 42/42/42 46/46/46
f 47/47/47 43/43/43 46/46/46
f 45/45/45 48/48/48 44/44/44
f 45/45/45 49/49/49 48/48/48
f 47/47/47 46/46/46 50/50/50
f 51/51/51 47/47/47 50/50/50
f 49/49/49 52/52/52 48/48/48
f 49/49/49 53/53/53 52/52/52
f 51/51/51 50/50/50 54/54/54
f 55/55/55 51/51/51 54/54/54
f 53/53/53 56/56/56 52/52/52
f 53/53/53 57/57/57 56/56/56
f 55/55/55 54/54/54 58/58/58
f 59/59/59 55/55/55 58/58/58
f 57/57/57 60/60/60 56/56/56
f 57/57/57 61/61/61 60/60/60
f 59/59/59 58/58/58 62/62/62
f 63/63/63 59/59/59 62/62/62
f 61/61/61 63/63/63 64/64/64
f 61/61/61 64/64/64 60/60/60
f 63/63/63 62/62/62 64/64/64
f 54/54/54 50/50/50 65/65/65
f 58/58/58 54/54/54 66/66/66
f 54/54/54 65/65/65 66/66/66
f 62/62/62 58/58/58 67/67/67
f 58/58/58 66/66/66 67/67/67
f 64/64/64 62/62/62 68/68/68
f 62/62/62 67/67/67 68/68/68
f 60/60/60 64/64/64 69/69/69
f 64/64/64 68/68/68 69/69/69
f 56/56/56 60/60/60 70/70/70
f 60/60/60 69/69/69 70/70/70
f 50/50/50 71/71/71 65/65/65
f 50/50/50 46/46/46 71/71/71
f 56/56/56 70/70/70 72/72/72
f 52/52/52 56/56/56 72/72/72
f 46/46/46 73/73/73 71/71/71
f 46/46/46 42/42/42 73/73/73
f 52/52/52 72/72/72 74/74/74
f 48/48/48 52/52/52 74/74/74
f 42/42/42 75/75/75 73/73/73
f 42/42/42 38/38/38 75/75/75
f 48/48/48 74/74/74 76/76/76
f 44/44/44 48/48/48 76/76/76
f 38/38/38 77/77/77 75/75/75
f 38/38/38 34/34/34 77/77/77
f 44/44/44 76/76/76 78/78/78
f 40/40/40 44/44/44 78/78/78
f 34/34/34 79/79/79 77/77/77
f 34/34/34 30/30/30 79/79/79
f 40/40/40 78/78/78 80/80/80
f 36/36/36 40/40/40 80/80/80
f 30/30/30 81/81/81 79/79/79
f 30/30/30 26/26/26 81/81/81
f 36/36/36 80/80/80 82/82/82
f 32/32/32 36/36/36 82/82/82
f 26/26/26 83/83/83 81/81/81
f 26/26/26 22/22/22 83/83/83
f 32/32/32 82/82/82 84/84/84
f 28/28/28 32/32/32 84/84/84
f 22/22/22 85/85/85 83/83/83
f 22/22/22 18/18/18 85/85/85
f 28/28/28 84/84/84 86/86/86
f 24/24/24 28/28/28 86/86/86
f 18/18/18 87/87/87 85/85/85
f 18/18/18 14/14/14 87/87/87
f 24/24/24 86/86/86 88/88/88
f 20/20/20 24/24/24 88/88/88
f 14/14/14 89/89/89 87/87/87
f 14/14/14 10/10/10 89/89/89
f 20/20/20 88/88/88 90/90/90
f 16/16/16 20/20/20 90/90/90
f 10/10/10 91/91/91 89/89/89
f 10/10/10 6/6/6 91/91/91
f 16/16/16 90/90/90 92/92/92
f 12/12/12 16/16/16 92/92/92
f 6/6/6 93/93/93 91/91/91
f 6/6/6 1/1/1 93/93/93
f 12/12/12 92/92/92 94/94/94
f 8/8/8 12/12/12 94/94/94
f 1/1/1 95/95/95 93/93/93
f 1/1/1 4/4/4 95/95/95
f 4/4/4 8/8/8 96/96/96
f 8/8/8 94/94/94 96/96/96
f 4/4/4 96/96/96 95/95/95
f 89/89/89 91/91/91 97/97/97
f 91/91/91 93/93/93 98/98/98
f 91/91/91 98/98/98 97/97/97
f 97/97/97 98/98/98 99/99/99
f 89/89/89 97/97/97 100/100/100
f 100/100/100 97/97/97 99/99/99
f 87/87/87 89/89/89 100/100/100
f 93/93/93 101/101/101 98/98/98
f 93/93/93 95/95/95 101/101/101
f 98/98/98 101/101/101 99/99/99
f 87/87/87 100/100/100 102/102/102
f 102/102/102 100/100/100 99/99/99
f 85/85/85 87/87/87 102/102/102
f 95/95/95 103/103/103 101/101/101
f 95/95/95 96/96/96 103/103/103
f 101/101/101 103/103/103 99/99/99
f 85/85/85 102/102/102 104/104/104
f 104/104/104 102/102/102 99/99/99
f 83/83/83 85/85/85 104/104/104
f 96/96/96 105/105/105 103/103/103
f 103/103/103 105/105/105 99/99/99
f 106/106/106 104/104/104 99/99/99
f 83/83/83 104/104/104 106/106/106
f 105/105/105 107/107/107 99/99/99
f 96/96/96 94/94/94 105/105/105
f 94/94/94 107/107/107 105/105/105
f 81/81/81 83/83/83 106/106/106
f 94/94/94 92/92/92 107/107/107
f 81/81/81 106/106/106 108/108/108
f 108/108/108 106/106/106 99/99/99
f 79/79/79 81/81/81 108/108/108
f 92/92/92 109/109/109 107/107/107
f 107/107/107 109/109/109 99/99/99
f 92/92/92 90/90/90 109/109/109
f 79/79/79 108/108/108 110/110/110
f 110/110/110 108/108/108 99/99/99
f 77/77/77 79/79/79 110/110/110
f 90/90/90 111/111/111 109/109/109
f 109/109/109 111/111/111 99/99/99
f 90/90/90 88/88/88 111/111/111
f 77/77/77 110/110/110 112/112/112
f 112/112/112 110/110/110 99/99/99
f 75/75/75 77/77/77 112/112/112
f 111/111/111 113/113/113 99/99/99
f 88/88/88 113/113/113 111/111/111
f 114/114/114 112/112/112 99/99/99
f 75/75/75 112/112/112 114/114/114
f 113/113/113 115/115/115 99/99/99
f 88/88/88 86/86/86 113/113/113
f 86/86/86 115/115/115 113/113/113
f 73/73/73 75/75/75 114/114/114
f 86/86/86 84/84/84 115/115/115
f 73/73/73 114/114/114 116/116/116
f 116/116/116 114/114/114 99/99/99
f 71/71/71 73/73/73 116/116/116
f 84/84/84 117/117/117 115/115/115
f 115/115/115 117/117/117 99/99/99
f 84/84/84 82/82/82 117/117/117
f 71/71/71 116/116/116 118/118/118
f 118/118/118 116/116/116 99/99/99
f 65/65/65 71/71/71 118/118/118
f 82/82/82 119/119/119 117/117/117
f 117/117/117 119/119/119 99/99/99
f 82/82/82 80/80/80 119/119/119
f 65/65/65 118/118/118 120/120/120
f 120/120/120 118/118/118 99/99/99
f 66/66/66 65/65/65 120/120/120
f 119/119/119 121/121/121 99/99/99
f 80/80/80 121/121/121 119/119/119
f 122/122/122 120/120/120 99/99/99
f 66/66/66 120/120/120 122/122/122
f 121/121/121 123/123/123 99/99/99
f 80/80/80 78/78/78 121/121/121
f 78/78/78 123/123/123 121/121/121
f 67/67/67 66/66/66 122/122/122
f 78/78/78 76/76/76 123/123/123
f 67/67/67 122/122/122 124/124/124
f 124/124/124 122/122/122 99/99/99
f 68/68/68 67/67/67 124/124/124
f 76/76/76 125/125/125 123/123/123
f 123/123/123 125/125/125 99/99/99
f 76/76/76 74/74/74 125/125/125
f 68/68/68 124/124/124 126/126/126
f 126/126/126 124/124/124 99/99/99
f 69/69/69 68/68/68 126/126/126
f 74/74/74 127/127/127 125/125/125
f 125/125/125 127/127/127 99/99/99
f 74/74/74 72/72/72 127/127/127
f 69/69/69 126/126/126 128/128/128
f 128/128/128 126/126/126 99/99/99
f 70/70/70 69/69/69 128/128/128
f 127/127/127 129/129/129 99/99/99
f 72/72/72 129/129/129 127/127/127
f 129/129/129 128/128/128 99/99/99
f 70/70/70 128/128/128 129/129/129
f 72/72/72 70/70/70 129/129/129
