g battlegate_B
v -1.4869047 -0.010512693 0.35661083
v 0.47990367 -0.01051276 -0.31846812
v 0.47990382 -0.010512822 0.28563374
v 0.37133154 -0.010512855 0.3928192
v -1.4869047 -0.010512806 0.39270473
v 0.47990382 -0.010512822 0.28563374
v 0.37133154 -0.061272655 0.3928192
v 0.37133154 -0.010512855 0.3928192
v 0.47990382 -0.06127265 0.28563374
v 0.47990367 -0.061266508 -0.34344772
v 0.47990367 -0.01051276 -0.31846812
v -1.4869047 -0.010512693 0.35661083
v -1.4869047 -0.010512806 0.39270473
v -1.4869047 -0.061272625 0.39270467
v -1.4869047 -0.06126646 0.32104585
v 0.47990367 -0.061266508 -0.34344772
v 0.47990367 -0.01051276 -0.31846812
vt 0.8731768 0.99587715
vt 0.99844545 0.93710196
vt 0.99844545 0.9896977
vt 0.99153036 0.9990297
vt 0.8731768 0.9990197
vt 0.8480841 0.93142647
vt 0.87072027 0.93498105
vt 0.8480841 0.93498105
vt 0.87072027 0.93142647
vt 0.8707185 0.93142647
vt 0.8480841 0.93142647
vt 0.8480842 0.99581873
vt 0.8480842 0.99581873
vt 0.87072027 0.99581873
vt 0.8707185 0.99581873
vt 0.8707185 0.93142647
vt 0.8480841 0.93142647
vn -0 1 2.813374E-07
vn -0 1 2.813374E-07
vn -0 1 2.8133738E-07
vn -0 1 2.813374E-07
vn -0 1 2.813374E-07
vn 0.922645 0 0.3856505
vn 0.70254713 0 0.71163714
vn 0.70254713 0 0.7116372
vn 0.9226444 0 0.38565174
vn 0.4609032 0.4546007 -0.76217216
vn 0.68488026 0.37325725 -0.6257939
vn -0.8884595 0.23510194 -0.39416596
vn -1 0 0
vn -1 0 0
vn -0.6529198 0.38799563 -0.65050364
vn 0.4609032 0.4546007 -0.76217216
vn 0.68488026 0.37325725 -0.6257939
g battlegate_B_0
f 3/3/3 2/2/2 1/1/1
f 1/1/1 4/4/4 3/3/3
f 1/1/1 5/5/5 4/4/4
f 8/8/8 7/7/7 6/6/6
f 7/7/7 9/9/9 6/6/6
f 9/9/9 10/10/10 6/6/6
f 10/10/10 11/11/11 6/6/6
f 14/14/14 13/13/13 12/12/12
f 15/15/15 14/14/14 12/12/12
f 16/16/16 15/15/15 12/12/12
f 17/17/17 16/16/16 12/12/12
