g battlegate_lock
v -0.27563885 0.95012903 0.24259028
v -0.27563936 1.1211396 0.14395702
v -0.13901633 1.12114 0.14395966
v -0.13900082 0.9501723 0.24260719
v -0.33798355 0.900669 0.29385623
v -0.3379832 0.7886458 0.31031072
v -0.3379832 0.78864586 0.2191337
v -0.33798358 0.90066904 0.17706662
v -0.33798456 1.1842312 0.1259994
v -0.3379845 1.184231 0.070583045
v -0.076643 0.78880054 0.3103016
v -0.076643 0.7888006 0.21912459
v -0.10347111 0.78877413 0.31030318
v -0.31115276 0.78867227 0.31030917
v -0.3379832 0.78864586 0.2191337
v -0.3379832 0.7886458 0.31031072
v -0.07668307 1.1842363 0.1260093
v -0.07668307 1.1842362 0.07059293
v -0.07665435 0.90075225 0.17707385
v -0.07665433 0.9007522 0.29386353
v -0.076643 0.7888006 0.21912459
v -0.076643 0.78880054 0.3103016
v -0.33798456 1.1842312 0.1259994
v -0.3379845 1.184231 0.070583045
v -0.07668307 1.1842362 0.07059293
v -0.07668307 1.1842363 0.1260093
v -0.33798355 0.900669 0.29385623
v -0.11320629 0.9371359 0.27231815
v -0.07665433 0.9007522 0.29386353
v -0.30143544 0.9370733 0.27230844
v -0.33798456 1.1842312 0.1259994
v -0.30143613 1.1478391 0.14754961
v -0.07668307 1.1842363 0.1260093
v -0.113227665 1.1478401 0.14755219
v -0.07665433 0.9007522 0.29386353
v -0.11320629 0.9371359 0.27231815
v -0.07668307 1.1842363 0.1260093
v -0.30143613 1.1478391 0.14754961
v -0.27563936 1.1211396 0.14395702
v -0.27563885 0.95012903 0.24259028
v -0.30143544 0.9370733 0.27230844
v -0.30143544 0.9370733 0.27230844
v -0.27563885 0.95012903 0.24259028
v -0.13900082 0.9501723 0.24260719
v -0.11320629 0.9371359 0.27231815
v -0.11320629 0.9371359 0.27231815
v -0.13900082 0.9501723 0.24260719
v -0.13901633 1.12114 0.14395966
v -0.113227665 1.1478401 0.14755219
v -0.113227665 1.1478401 0.14755219
v -0.13901633 1.12114 0.14395966
v -0.27563936 1.1211396 0.14395702
v -0.30143613 1.1478391 0.14754961
v -0.076643 0.78880054 0.3103016
v -0.1289619 0.8570968 0.30026782
v -0.07665433 0.9007522 0.29386353
v -0.10347111 0.78877413 0.31030318
v -0.28567392 0.8570571 0.3002679
v -0.1289619 0.8570968 0.30026782
v -0.07665433 0.9007522 0.29386353
v -0.33798355 0.900669 0.29385623
v -0.31115276 0.78867227 0.31030917
v -0.33798355 0.900669 0.29385623
v -0.28567392 0.8570571 0.3002679
v -0.3379832 0.7886458 0.31031072
vt 0.102623895 0.7296927
vt 0.102623895 0.7770603
vt 0.12765153 0.7770603
vt 0.12765153 0.7296927
vt 0.102623895 0.7296927
vt 0.102623895 0.68232507
vt 0.102623895 0.68232507
vt 0.102623895 0.7296927
vt 0.102623895 0.7770603
vt 0.102623895 0.7770603
vt 0.12765153 0.68232507
vt 0.12765153 0.68232507
vt 0.11930898 0.68232507
vt 0.11096644 0.68232507
vt 0.102623895 0.68232507
vt 0.102623895 0.68232507
vt 0.12765153 0.7770603
vt 0.12765153 0.7770603
vt 0.12765153 0.7296927
vt 0.11930898 0.7296927
vt 0.12765153 0.68232507
vt 0.12765153 0.68232507
vt 0.102623895 0.7770603
vt 0.102623895 0.7770603
vt 0.12765153 0.7770603
vt 0.12765153 0.7770603
vt 0.102623895 0.7296927
vt 0.12765153 0.7296927
vt 0.11930898 0.7296927
vt 0.102623895 0.7296927
vt 0.102623895 0.7770603
vt 0.102623895 0.7770603
vt 0.12765153 0.7770603
vt 0.12765153 0.7770603
vt 0.11930898 0.7296927
vt 0.12765153 0.7296927
vt 0.12765153 0.7770603
vt 0.102623895 0.7770603
vt 0.102623895 0.7770603
vt 0.102623895 0.7296927
vt 0.102623895 0.7296927
vt 0.102623895 0.7296927
vt 0.102623895 0.7296927
vt 0.12765153 0.7296927
vt 0.12765153 0.7296927
vt 0.12765153 0.7296927
vt 0.12765153 0.7296927
vt 0.12765153 0.7770603
vt 0.12765153 0.7770603
vt 0.12765153 0.7770603
vt 0.12765153 0.7770603
vt 0.102623895 0.7770603
vt 0.102623895 0.7770603
vt 0.12765153 0.68232507
vt 0.11930898 0.7060089
vt 0.11930898 0.7296927
vt 0.11930898 0.68232507
vt 0.11096644 0.7060089
vt 0.11930898 0.7060089
vt 0.11930898 0.7296927
vt 0.102623895 0.7296927
vt 0.11096644 0.68232507
vt 0.102623895 0.7296927
vt 0.11096644 0.7060089
vt 0.102623895 0.68232507
vn -0.00014178886 0.4996951 0.86620134
vn -0.00014178886 0.4996951 0.86620134
vn -0.00014178886 0.4996951 0.86620134
vn -0.00014178886 0.49969506 0.8662014
vn -1 -3.2094106E-06 1.8470998E-07
vn -1 -3.2094108E-06 1.8470998E-07
vn -1 -3.2094106E-06 1.8470998E-07
vn -1 -3.209411E-06 1.8470998E-07
vn -1 -3.3867364E-06 0
vn -1 -3.3867361E-06 0
vn 0.0009851166 -0.9999995 -8.4262393E-07
vn 0.0009851167 -0.9999995 -8.426241E-07
vn 0.0009851166 -0.9999995 -8.4262393E-07
vn 0.0009850307 -0.9999995 -8.4261586E-07
vn 0.0009850308 -0.9999995 -8.42616E-07
vn 0.0009850306 -0.9999995 -8.426158E-07
vn 1 0.0001012712 -1.1153895E-07
vn 1 0.000101271195 -1.1153895E-07
vn 1 0.00010127119 -1.1153895E-07
vn 1 0.000101271195 -1.1153896E-07
vn 1 0.00010128513 0
vn 1 0.00010128513 0
vn -1.9699324E-05 1 -1.3863838E-06
vn -1.9699324E-05 1 -1.3863837E-06
vn -1.9699324E-05 1 -1.3863838E-06
vn -1.9699324E-05 1 -1.3863838E-06
vn -0.00011416083 0.50939083 0.86053526
vn -0.0001978186 0.509448 0.86050147
vn -0.00019781859 0.50944793 0.86050147
vn -0.00011416083 0.50939083 0.86053526
vn -0.00011416083 0.50939083 0.86053526
vn -0.00011416083 0.5093909 0.86053526
vn -3.0915395E-05 0.50944704 0.860502
vn -0.00011536364 0.50950325 0.86046875
vn -0.00011536364 0.5095032 0.86046875
vn -0.00011536364 0.5095032 0.86046875
vn -0.00011536363 0.5095032 0.86046875
vn 0.5683745 0.4155273 0.71013206
vn 0.5683745 0.4155273 0.710132
vn 0.5683746 0.4155273 0.710132
vn 0.5683746 0.4155273 0.710132
vn -0.00033135744 0.9156365 0.40200734
vn -0.00033135744 0.9156365 0.40200734
vn -0.00033135744 0.9156365 0.40200734
vn -0.0003313574 0.91563636 0.4020073
vn -0.5684865 0.41556033 0.710023
vn -0.5684866 0.41556033 0.710023
vn -0.5684866 0.41556033 0.710023
vn -0.5684866 0.41556036 0.7100229
vn -1.5281652E-05 -0.13335238 0.9910687
vn -1.5281654E-05 -0.13335238 0.9910687
vn -1.5281654E-05 -0.13335238 0.9910687
vn -1.528165E-05 -0.13335237 0.9910687
vn -0.000102642 0.14527844 0.9893908
vn -0.000102641985 0.14527845 0.9893908
vn -0.000102642 0.14527845 0.9893908
vn -3.9980107E-05 0.1452997 0.98938775
vn -3.9980114E-05 0.1452997 0.98938775
vn -3.9980114E-05 0.14529969 0.98938775
vn -5.977224E-05 0.14530034 0.98938763
vn -5.9772232E-05 0.14530034 0.98938763
vn -3.9980114E-05 0.14529969 0.98938775
vn -0.00010347791 0.14532119 0.9893845
vn -0.00010347791 0.14532119 0.9893845
vn -0.00010347792 0.1453212 0.9893845
g battlegate_lock_0
f 3/3/3 2/2/2 1/1/1
f 4/4/4 3/3/3 1/1/1
f 7/7/7 6/6/6 5/5/5
f 8/8/8 7/7/7 5/5/5
f 8/8/8 5/5/5 9/9/9
f 10/10/10 8/8/8 9/9/9
f 13/13/13 12/12/12 11/11/11
f 12/12/12 13/13/13 14/14/14
f 15/15/15 12/12/12 14/14/14
f 16/16/16 15/15/15 14/14/14
f 19/19/19 18/18/18 17/17/17
f 20/20/20 19/19/19 17/17/17
f 21/21/21 19/19/19 20/20/20
f 22/22/22 21/21/21 20/20/20
f 25/25/25 24/24/24 23/23/23
f 26/26/26 25/25/25 23/23/23
f 29/29/29 28/28/28 27/27/27
f 28/28/28 30/30/30 27/27/27
f 27/27/27 30/30/30 31/31/31
f 30/30/30 32/32/32 31/31/31
f 31/31/31 32/32/32 33/33/33
f 32/32/32 34/34/34 33/33/33
f 34/34/34 36/36/36 35/35/35
f 37/37/37 34/34/34 35/35/35
f 40/40/40 39/39/39 38/38/38
f 41/41/41 40/40/40 38/38/38
f 44/44/44 43/43/43 42/42/42
f 45/45/45 44/44/44 42/42/42
f 48/48/48 47/47/47 46/46/46
f 49/49/49 48/48/48 46/46/46
f 52/52/52 51/51/51 50/50/50
f 53/53/53 52/52/52 50/50/50
f 56/56/56 55/55/55 54/54/54
f 55/55/55 57/57/57 54/54/54
f 59/59/59 58/58/58 57/57/57
f 58/58/58 59/59/59 60/60/60
f 61/61/61 58/58/58 60/60/60
f 58/58/58 62/62/62 57/57/57
f 62/62/62 64/64/64 63/63/63
f 65/65/65 62/62/62 63/63/63
