g book2_1
v 0.22399177 1.7791113 -0.29112715
v 0.22399116 1.5915273 -0.29112777
v 0.45380887 1.5915271 -0.012486087
v 0.45380887 1.7791122 -0.0124860965
v 0.20962732 1.7791111 0.19596545
v -0.020189157 1.7791111 -0.082676224
v 0.22399177 1.7791113 -0.29112715
v 0.45380887 1.7791122 -0.0124860965
v -0.020188542 1.5915271 -0.08267684
v 0.22399116 1.5915273 -0.29112777
v 0.22399177 1.7791113 -0.29112715
v -0.020189157 1.7791111 -0.082676224
v 0.005715989 1.593582 0.095953256
v 0.005715989 1.4223366 0.09595389
v 0.07367195 1.4223374 -0.29612827
v 0.07366949 1.593583 -0.2961289
v 0.44198847 1.593582 -0.23005615
v 0.37403494 1.5935825 0.16202603
v 0.005715989 1.593582 0.095953256
v 0.07366949 1.593583 -0.2961289
v 0.44198906 1.4223366 -0.23005554
v 0.44198847 1.593582 -0.23005615
v 0.07366949 1.593583 -0.2961289
v 0.07367195 1.4223374 -0.29612827
v 0.47323227 1.4239886 -0.2869445
v 0.47323287 1.2747743 -0.2869445
v 0.47323284 1.2747743 0.11118677
v 0.47323284 1.4239886 0.11118496
v 0.024605226 1.2747743 0.11118548
v 0.024605287 1.2747744 -0.2869446
v 0.024604673 1.4239882 -0.2869452
v 0.024605226 1.4239882 0.11118612
v 0.024605226 1.4239882 0.11118612
v 0.024604673 1.4239882 -0.2869452
v 0.47323227 1.4239886 -0.2869445
v 0.47323284 1.4239886 0.11118496
v 0.024605287 1.2747744 -0.2869446
v 0.47323287 1.2747743 -0.2869445
v 0.47323227 1.4239886 -0.2869445
v 0.024604673 1.4239882 -0.2869452
v 0.10727155 1.1308825 0.07704253
v 0.13638265 1.1308826 -0.26146227
v 0.13638265 1.2751353 -0.2614635
v 0.10727216 1.2751353 0.07704191
v 0.10727216 1.2751353 0.07704191
v 0.13638265 1.2751353 -0.2614635
v 0.4388551 1.2751353 -0.23454107
v 0.40974525 1.2751353 0.10396494
v 0.13638265 1.1308826 -0.26146227
v 0.4388551 1.1308825 -0.2345411
v 0.4388551 1.2751353 -0.23454107
v 0.13638265 1.2751353 -0.2614635
v 0.26637566 0.9684798 -0.32111645
v 0.49581596 0.9684801 -0.042932045
v 0.49581596 1.1320165 -0.042931426
v 0.26637566 1.1320162 -0.32111642
v 0.26637566 1.1320162 -0.32111642
v 0.49581596 1.1320165 -0.042931426
v 0.21361622 1.132016 0.19797412
v -0.015824098 1.132016 -0.08021029
v 0.26637566 0.9684798 -0.32111645
v 0.26637566 1.1320162 -0.32111642
v -0.015824098 1.132016 -0.08021029
v -0.015823483 0.96847963 -0.08020968
v 0.009507 0.80431974 0.02799671
v 0.07755393 0.80431974 -0.3642004
v 0.07755393 0.97102034 -0.36419976
v 0.009507 0.9710203 0.02799671
v 0.009507 0.9710203 0.02799671
v 0.07755393 0.97102034 -0.36419976
v 0.50150496 0.97102034 -0.28791136
v 0.43349862 0.9710202 0.1040565
v 0.07755393 0.80431974 -0.3642004
v 0.50150496 0.80431956 -0.28791136
v 0.50150496 0.97102034 -0.28791136
v 0.07755393 0.97102034 -0.36419976
v -0.034603268 0.97101974 -0.41736382
v -0.034603268 0.8043195 -0.41736448
v -0.00050583197 0.80431956 -0.020730682
v -0.0005064466 0.9710199 -0.020731296
v -0.431632 0.97101945 0.017664813
v -0.4657639 0.9710197 -0.37898648
v -0.034603268 0.97101974 -0.41736382
v -0.0005064466 0.9710199 -0.020731296
v -0.46576512 0.8043195 -0.3789871
v -0.034603268 0.8043195 -0.41736448
v -0.034603268 0.97101974 -0.41736382
v -0.4657639 0.9710197 -0.37898648
v -0.2246026 1.1348749 -0.45718417
v -0.2246032 0.9681745 -0.45718384
v 0.05213121 0.96817434 -0.17567493
v 0.052131824 1.1348748 -0.17567492
v -0.23348217 1.1348748 0.11483998
v -0.5101877 1.1348745 -0.1666394
v -0.2246026 1.1348749 -0.45718417
v 0.052131824 1.1348748 -0.17567492
v -0.5101871 0.96817404 -0.16664064
v -0.2246032 0.9681745 -0.45718384
v -0.2246026 1.1348749 -0.45718417
v -0.5101877 1.1348745 -0.1666394
v 0.041952442 1.2770058 -0.35370505
v 0.041951213 1.133728 -0.35370567
v 0.041953 1.1337284 0.044425618
v 0.041952386 1.277006 0.044425637
v -0.40667582 1.2770057 0.044424966
v -0.40667516 1.2770066 -0.35370573
v 0.041952442 1.2770058 -0.35370505
v 0.041952386 1.277006 0.044425637
v -0.4066758 1.1337285 -0.3537045
v 0.041951213 1.133728 -0.35370567
v 0.041952442 1.2770058 -0.35370505
v -0.40667516 1.2770066 -0.35370573
v -0.45233867 1.4415864 -0.3373678
v -0.45233867 1.2748859 -0.3373672
v -0.066950314 1.2748857 -0.4065022
v -0.0669497 1.4415861 -0.4065034
v 0.0031831379 1.4415861 -0.0018543014
v -0.38220578 1.4415864 0.067281626
v -0.45233867 1.4415864 -0.3373678
v -0.0669497 1.4415861 -0.4065034
v 0.0031819085 1.2748864 -0.0018537061
v 0.0031831379 1.4415861 -0.0018543014
v -0.0669497 1.4415861 -0.4065034
v -0.066950314 1.2748857 -0.4065022
v -0.43221098 1.4391426 0.028942596
v -0.398103 1.4391416 -0.36767307
v -0.39810362 1.6316679 -0.36767367
v -0.43221098 1.6316668 0.028941378
v -0.43221098 1.6316668 0.028941378
v -0.39810362 1.6316679 -0.36767367
v -0.07095583 1.6316674 -0.33855516
v -0.10506261 1.6316674 0.058060456
v -0.398103 1.4391416 -0.36767307
v -0.07095522 1.4391421 -0.33855456
v -0.07095583 1.6316674 -0.33855516
v -0.39810362 1.6316679 -0.36767367
v -0.44152007 1.6290882 0.0059359907
v -0.3402343 1.6290882 -0.37862808
v -0.34023368 1.8103716 -0.37862808
v -0.44151947 1.8103712 0.0059366343
v -0.44151947 1.8103712 0.0059366343
v -0.34023368 1.8103716 -0.37862808
v -0.0032304206 1.8103718 -0.28676018
v -0.104515605 1.8103716 0.097804524
v -0.3402343 1.6290882 -0.37862808
v -0.0032304206 1.6290888 -0.2867596
v -0.0032304206 1.8103718 -0.28676018
v -0.34023368 1.8103716 -0.37862808
vt 0.13800931 0.7827394
vt 0.12927836 0.7827394
vt 0.12927835 0.75285447
vt 0.13800932 0.75285447
vt 0.10829702 0.75056714
vt 0.10829702 0.78533983
vt 0.12885278 0.78533983
vt 0.12885278 0.75056714
vt 0.108687766 0.7955032
vt 0.13786839 0.7955032
vt 0.13786839 0.78573143
vt 0.108687766 0.78573143
vt 0.21219257 0.8287169
vt 0.20335245 0.8287169
vt 0.20335254 0.7987635
vt 0.21219257 0.7987635
vt 0.18245214 0.79643357
vt 0.18245214 0.8312063
vt 0.20300795 0.8312063
vt 0.20300795 0.79643357
vt 0.18282571 0.8414419
vt 0.18282571 0.8315111
vt 0.21201876 0.8315111
vt 0.21201876 0.8414419
vt 0.17507072 0.78276235
vt 0.1662526 0.78276235
vt 0.16625266 0.75287735
vt 0.1750707 0.75287735
vt 0.13896386 0.75058174
vt 0.13896386 0.7853545
vt 0.14537181 0.7853545
vt 0.14537181 0.75058174
vt 0.14537181 0.75058174
vt 0.14537181 0.7853545
vt 0.1659276 0.7853545
vt 0.1659276 0.75058174
vt 0.14584382 0.7954676
vt 0.17471518 0.7954676
vt 0.17471518 0.7856886
vt 0.14584382 0.7856886
vt 0.10188905 0.75056714
vt 0.10188905 0.78533983
vt 0.10829702 0.78533983
vt 0.10829702 0.75056714
vt 0.10829702 0.75056714
vt 0.10829702 0.78533983
vt 0.12885278 0.78533983
vt 0.12885278 0.75056714
vt 0.108552195 0.79553086
vt 0.13779685 0.79553086
vt 0.13779685 0.78560126
vt 0.108552195 0.78560126
vt 0.13896543 0.75057673
vt 0.13896543 0.7853495
vt 0.1453734 0.7853495
vt 0.1453734 0.75057673
vt 0.1453734 0.75057673
vt 0.1453734 0.7853495
vt 0.1659292 0.7853495
vt 0.1659292 0.75057673
vt 0.14550029 0.7956302
vt 0.14550029 0.78549916
vt 0.1747706 0.78549916
vt 0.1747706 0.7956302
vt 0.10188905 0.79643357
vt 0.10188905 0.8312063
vt 0.10829702 0.8312063
vt 0.10829702 0.79643357
vt 0.10829702 0.79643357
vt 0.10829702 0.8312063
vt 0.12885278 0.8312063
vt 0.12885278 0.79643357
vt 0.10842959 0.84128356
vt 0.13795443 0.84128356
vt 0.13795443 0.8313404
vt 0.10842959 0.8313435
vt 0.17477033 0.8286471
vt 0.16670746 0.8286471
vt 0.16670744 0.7986309
vt 0.17477028 0.7986309
vt 0.1453724 0.79643357
vt 0.1453724 0.8312063
vt 0.1659282 0.8312063
vt 0.1659282 0.79643357
vt 0.1457357 0.8410413
vt 0.17440705 0.84106433
vt 0.17440705 0.8318355
vt 0.1457357 0.8318356
vt 0.17493986 0.8288812
vt 0.16640654 0.8288812
vt 0.16640659 0.79853535
vt 0.17493981 0.79853535
vt 0.1453724 0.79643357
vt 0.1453724 0.8312063
vt 0.1659282 0.8312063
vt 0.1659282 0.79643357
vt 0.14542171 0.8416617
vt 0.17509288 0.8416842
vt 0.17509288 0.8312914
vt 0.14542171 0.8312916
vt 0.17514384 0.782743
vt 0.16625784 0.782743
vt 0.16625783 0.75284064
vt 0.17514384 0.75284064
vt 0.14537181 0.75058174
vt 0.14537181 0.7853545
vt 0.1659276 0.7853545
vt 0.1659276 0.75058174
vt 0.1453988 0.7957395
vt 0.17490074 0.79577
vt 0.17490074 0.78542393
vt 0.1453988 0.7854238
vt 0.18491937 0.83193797
vt 0.18491937 0.8412465
vt 0.2119354 0.8412465
vt 0.2119354 0.8319381
vt 0.18245214 0.79643357
vt 0.18245214 0.83070296
vt 0.20300795 0.83070296
vt 0.20300795 0.79643357
vt 0.2033944 0.796463
vt 0.21219763 0.796463
vt 0.21219769 0.8286796
vt 0.2033944 0.8286796
vt 0.10188905 0.75056714
vt 0.10188905 0.78533983
vt 0.10829702 0.78533983
vt 0.10829702 0.75056714
vt 0.10829702 0.75056714
vt 0.10829702 0.78533983
vt 0.12885278 0.78533983
vt 0.12885278 0.75056714
vt 0.1083093 0.79566073
vt 0.13776565 0.79566073
vt 0.13776565 0.78541255
vt 0.1083093 0.78541255
vt 0.17604363 0.7505759
vt 0.17604363 0.78534865
vt 0.1824516 0.78534865
vt 0.1824516 0.7505759
vt 0.1824516 0.7505759
vt 0.1824516 0.78534865
vt 0.20300741 0.78534865
vt 0.20300741 0.7505759
vt 0.18260488 0.79566574
vt 0.21179923 0.79566574
vt 0.21179923 0.7855445
vt 0.18260488 0.7855445
vn 0.77145714 -2.2837483E-07 -0.63628125
vn 0.77145714 -2.2837486E-07 -0.63628125
vn 0.77145714 -2.2837486E-07 -0.63628125
vn 0.77145714 -2.2837486E-07 -0.63628125
vn -2.3058344E-06 1 2.4745592E-07
vn -2.3058344E-06 1 2.4745592E-07
vn -2.3058344E-06 1 2.4745594E-07
vn -2.3058344E-06 1 2.4745592E-07
vn -0.64927024 2.4921646E-06 -0.7605579
vn -0.64927024 2.4921646E-06 -0.7605579
vn -0.64927024 2.4921646E-06 -0.7605579
vn -0.64927024 2.4921646E-06 -0.7605579
vn -0.9853107 -7.697604E-06 -0.17077166
vn -0.9853107 -7.697604E-06 -0.17077164
vn -0.9853107 -7.697604E-06 -0.17077164
vn -0.9853107 -7.697604E-06 -0.17077164
vn 5.046297E-07 1 6.753057E-07
vn 5.046298E-07 1 6.753057E-07
vn 5.046297E-07 1 6.7530567E-07
vn 5.046297E-07 1 6.753058E-07
vn 0.17657183 -1.949851E-06 -0.98428774
vn 0.1765718 -1.9498505E-06 -0.98428774
vn 0.17657182 -1.9498507E-06 -0.98428774
vn 0.17657182 -1.9498507E-06 -0.98428774
vn 1 2.059531E-06 -6.7540196E-07
vn 1 2.059531E-06 -6.754019E-07
vn 1 2.059531E-06 -6.754019E-07
vn 1 2.059531E-06 -6.754019E-07
vn -1 -2.0595403E-06 6.211277E-07
vn -1 -2.0595403E-06 6.211277E-07
vn -1 -2.0595405E-06 6.211277E-07
vn -1 -2.05954E-06 6.211277E-07
vn -6.850047E-07 1 0
vn -6.850047E-07 1 0
vn -6.8500475E-07 1 0
vn -6.850047E-07 1 0
vn 8.5625624E-07 -1.9308131E-06 -1
vn 8.562561E-07 -1.9308134E-06 -1
vn 8.562561E-07 -1.9308131E-06 -1
vn 8.5625624E-07 -1.9308134E-06 -1
vn -0.99632263 1.5805292E-06 -0.08568185
vn -0.99632263 1.5805292E-06 -0.08568184
vn -0.99632263 1.5805291E-06 -0.08568183
vn -0.99632263 1.5805292E-06 -0.08568183
vn -0 1 0
vn -0 1 0
vn -0 1 0
vn -0 1 0
vn 0.08865531 -4.1151134E-06 -0.99606234
vn 0.088655315 -4.1151134E-06 -0.99606234
vn 0.088655315 -4.1151134E-06 -0.99606234
vn 0.08865531 -4.115113E-06 -0.99606234
vn 0.7714578 1.2201031E-06 -0.63628054
vn 0.7714578 1.2201031E-06 -0.63628054
vn 0.7714578 1.220103E-06 -0.63628054
vn 0.7714578 1.2201028E-06 -0.63628054
vn -1.2352698E-06 1 4.6646946E-07
vn -1.2352697E-06 1 4.6646943E-07
vn -1.2352697E-06 1 4.6646946E-07
vn -1.2352697E-06 1 4.6646946E-07
vn -0.6492693 -2.6010066E-06 -0.76055855
vn -0.6492693 -2.6010066E-06 -0.76055855
vn -0.64926934 -2.601007E-06 -0.76055855
vn -0.64926934 -2.601007E-06 -0.76055855
vn -0.98528004 3.3811583E-07 -0.17094806
vn -0.98528004 3.3811583E-07 -0.17094807
vn -0.98528004 3.3811585E-07 -0.17094807
vn -0.98528004 3.3811583E-07 -0.17094806
vn -0 1 3.002826E-07
vn -0 1 3.002826E-07
vn -0 1 3.002826E-07
vn -0 1 3.002826E-07
vn 0.17710252 1.9824113E-06 -0.9841925
vn 0.17710252 1.9824113E-06 -0.9841925
vn 0.17710252 1.9824113E-06 -0.9841925
vn 0.1771025 1.982411E-06 -0.9841925
vn 0.9963252 1.8448814E-06 -0.08565049
vn 0.9963252 1.8448814E-06 -0.0856505
vn 0.9963252 1.8448814E-06 -0.085650496
vn 0.9963252 1.8448815E-06 -0.0856505
vn -6.103893E-07 1 1.4934636E-07
vn -6.1038924E-07 1 1.4934636E-07
vn -6.1038924E-07 1 1.4934636E-07
vn -6.103893E-07 1 1.4934638E-07
vn -0.08865877 4.2296706E-06 -0.9960621
vn -0.08865877 4.2296706E-06 -0.9960621
vn -0.088658765 4.2296706E-06 -0.9960621
vn -0.088658765 4.2296706E-06 -0.9960621
vn 0.7131286 -3.2331088E-06 -0.7010333
vn 0.7131286 -3.2331088E-06 -0.7010333
vn 0.7131286 -3.2331088E-06 -0.7010333
vn 0.71312857 -3.2331088E-06 -0.7010333
vn -5.4232686E-07 1 2.6019947E-07
vn -5.4232686E-07 1 2.6019944E-07
vn -5.423269E-07 1 2.6019947E-07
vn -5.4232686E-07 1 2.6019944E-07
vn -0.7131673 1.9707786E-06 -0.7009938
vn -0.7131673 1.9707784E-06 -0.70099384
vn -0.7131674 1.9707788E-06 -0.7009938
vn -0.7131673 1.9707786E-06 -0.7009938
vn 1 -2.1448652E-06 -2.17093E-06
vn 1 -2.1448652E-06 -2.17093E-06
vn 1 -2.1448654E-06 -2.1709302E-06
vn 1 -2.1448652E-06 -2.17093E-06
vn 5.137517E-07 1 9.648595E-07
vn 5.137517E-07 1 9.648595E-07
vn 5.137517E-07 1 9.648595E-07
vn 5.137517E-07 1 9.648595E-07
vn -5.137568E-07 -2.1448632E-06 -1
vn -5.137568E-07 -2.1448632E-06 -1
vn -5.137568E-07 -2.1448632E-06 -1
vn -5.137568E-07 -2.1448632E-06 -1
vn -0.17657241 -5.1146517E-06 -0.9842876
vn -0.17657246 -5.1146517E-06 -0.9842876
vn -0.17657243 -5.1146517E-06 -0.9842876
vn -0.17657243 -5.1146517E-06 -0.9842876
vn 3.8668114E-07 1 0
vn 3.8668114E-07 1 0
vn 3.8668114E-07 1 0
vn 3.866811E-07 1 0
vn 0.9853107 -6.384933E-06 -0.17077112
vn 0.9853107 -6.3849334E-06 -0.17077114
vn 0.9853107 -6.3849334E-06 -0.17077114
vn 0.9853107 -6.3849334E-06 -0.17077112
vn -0.99632263 -1.9936963E-06 -0.085680634
vn -0.99632263 -1.9936963E-06 -0.085680634
vn -0.99632263 -1.993696E-06 -0.08568063
vn -0.99632263 -1.9936963E-06 -0.085680634
vn -3.5283264E-07 1 1.3256218E-06
vn -3.5283264E-07 1 1.3256218E-06
vn -3.5283264E-07 1 1.3256218E-06
vn -3.5283261E-07 1 1.3256218E-06
vn 0.08865669 -2.6978096E-06 -0.9960622
vn 0.0886567 -2.6978096E-06 -0.9960622
vn 0.08865669 -2.6978094E-06 -0.9960622
vn 0.08865669 -2.6978094E-06 -0.9960622
vn -0.9670222 3.7399122E-06 -0.25469232
vn -0.9670222 3.7399122E-06 -0.2546923
vn -0.9670222 3.7399127E-06 -0.25469232
vn -0.9670222 3.7399122E-06 -0.2546923
vn -1.054058E-06 1 5.2150205E-07
vn -1.054058E-06 1 5.21502E-07
vn -1.0540581E-06 1 5.21502E-07
vn -1.054058E-06 1 5.21502E-07
vn 0.2630058 -2.0281477E-06 -0.9647942
vn 0.26300582 -2.0281477E-06 -0.9647942
vn 0.2630058 -2.0281477E-06 -0.9647942
vn 0.2630058 -2.0281477E-06 -0.9647942
g book2_1_0
f 3/3/3 2/2/2 1/1/1
f 4/4/4 3/3/3 1/1/1
f 7/7/7 6/6/6 5/5/5
f 8/8/8 7/7/7 5/5/5
f 11/11/11 10/10/10 9/9/9
f 12/12/12 11/11/11 9/9/9
f 15/15/15 14/14/14 13/13/13
f 16/16/16 15/15/15 13/13/13
f 19/19/19 18/18/18 17/17/17
f 20/20/20 19/19/19 17/17/17
f 23/23/23 22/22/22 21/21/21
f 24/24/24 23/23/23 21/21/21
f 27/27/27 26/26/26 25/25/25
f 28/28/28 27/27/27 25/25/25
f 31/31/31 30/30/30 29/29/29
f 32/32/32 31/31/31 29/29/29
f 35/35/35 34/34/34 33/33/33
f 36/36/36 35/35/35 33/33/33
f 39/39/39 38/38/38 37/37/37
f 40/40/40 39/39/39 37/37/37
f 43/43/43 42/42/42 41/41/41
f 44/44/44 43/43/43 41/41/41
f 47/47/47 46/46/46 45/45/45
f 48/48/48 47/47/47 45/45/45
f 51/51/51 50/50/50 49/49/49
f 52/52/52 51/51/51 49/49/49
f 55/55/55 54/54/54 53/53/53
f 56/56/56 55/55/55 53/53/53
f 59/59/59 58/58/58 57/57/57
f 60/60/60 59/59/59 57/57/57
f 63/63/63 62/62/62 61/61/61
f 64/64/64 63/63/63 61/61/61
f 67/67/67 66/66/66 65/65/65
f 68/68/68 67/67/67 65/65/65
f 71/71/71 70/70/70 69/69/69
f 72/72/72 71/71/71 69/69/69
f 75/75/75 74/74/74 73/73/73
f 76/76/76 75/75/75 73/73/73
f 79/79/79 78/78/78 77/77/77
f 80/80/80 79/79/79 77/77/77
f 83/83/83 82/82/82 81/81/81
f 84/84/84 83/83/83 81/81/81
f 87/87/87 86/86/86 85/85/85
f 88/88/88 87/87/87 85/85/85
f 91/91/91 90/90/90 89/89/89
f 92/92/92 91/91/91 89/89/89
f 95/95/95 94/94/94 93/93/93
f 96/96/96 95/95/95 93/93/93
f 99/99/99 98/98/98 97/97/97
f 100/100/100 99/99/99 97/97/97
f 103/103/103 102/102/102 101/101/101
f 104/104/104 103/103/103 101/101/101
f 107/107/107 106/106/106 105/105/105
f 108/108/108 107/107/107 105/105/105
f 111/111/111 110/110/110 109/109/109
f 112/112/112 111/111/111 109/109/109
f 115/115/115 114/114/114 113/113/113
f 116/116/116 115/115/115 113/113/113
f 119/119/119 118/118/118 117/117/117
f 120/120/120 119/119/119 117/117/117
f 123/123/123 122/122/122 121/121/121
f 124/124/124 123/123/123 121/121/121
f 127/127/127 126/126/126 125/125/125
f 128/128/128 127/127/127 125/125/125
f 131/131/131 130/130/130 129/129/129
f 132/132/132 131/131/131 129/129/129
f 135/135/135 134/134/134 133/133/133
f 136/136/136 135/135/135 133/133/133
f 139/139/139 138/138/138 137/137/137
f 140/140/140 139/139/139 137/137/137
f 143/143/143 142/142/142 141/141/141
f 144/144/144 143/143/143 141/141/141
f 147/147/147 146/146/146 145/145/145
f 148/148/148 147/147/147 145/145/145
