g book1_1
v -0.198319 0.72590536 -0.26843655
v 0.059368916 0.72590536 -0.36222723
v 0.22978902 0.72590536 0.105998285
v -0.25052765 0.72590536 -0.074137636
v -0.13644673 0.72590536 0.23929714
v -0.2543412 0.7331212 -0.24848773
v -0.2864756 0.73331565 -0.17158104
v -0.3045964 0.75480914 -0.22798787
v 0.31214315 0.72717404 -0.22916201
v 0.31214306 0.72717404 0.2691129
v -0.07759678 0.72717404 0.26911286
v -0.0775967 0.72717404 -0.22916207
v -0.18768689 0.9778584 -0.14332947
v -0.18768835 0.8513759 -0.14332972
v 0.16847242 0.85137534 -0.049336318
v 0.1684724 0.9778581 -0.049336307
v -0.26300138 0.8513753 0.1323246
v -0.18768835 0.8513759 -0.14332972
v -0.18768689 0.9778584 -0.14332947
v -0.26300114 0.9778578 0.13232447
v -0.044876464 0.7211136 -0.2471856
v 0.21820635 0.72111356 0.06363625
v 0.21820673 0.852491 0.06363631
v -0.044876006 0.8524906 -0.24718587
v -0.044876006 0.8524906 -0.24718587
v 0.21820673 0.852491 0.06363631
v -0.056783136 0.8524907 0.29235536
v -0.31986478 0.85249025 -0.018466318
v -0.31986478 0.85249025 -0.018466318
v -0.31986517 0.7211131 -0.018466368
v -0.044876464 0.7211136 -0.2471856
v -0.044876006 0.8524906 -0.24718587
v 0.09315818 0.9778585 0.22631751
v -0.26300114 0.9778578 0.13232447
v -0.18768689 0.9778584 -0.14332947
v 0.1684724 0.9778581 -0.049336307
v 0.09315818 0.9778585 0.22631751
v 0.09315818 0.8513755 0.22631751
v -0.26300138 0.8513753 0.1323246
v -0.26300114 0.9778578 0.13232447
v 0.1684724 0.9778581 -0.049336307
v 0.16847242 0.85137534 -0.049336318
v 0.09315818 0.8513755 0.22631751
v 0.09315818 0.9778585 0.22631751
v -0.056783136 0.8524907 0.29235536
v -0.056783136 0.72111315 0.2923554
v -0.31986517 0.7211131 -0.018466368
v -0.31986478 0.85249025 -0.018466318
v 0.21820673 0.852491 0.06363631
v 0.21820635 0.72111356 0.06363625
v -0.056783136 0.72111315 0.2923554
v -0.056783136 0.8524907 0.29235536
vt 0.73636603 0.18747179
vt 0.7654533 0.18747179
vt 0.7654533 0.14181326
vt 0.7245367 0.17137747
vt 0.7245367 0.14181326
vt 0.7308556 0.18747179
vt 0.7245367 0.18124889
vt 0.7245367 0.18747179
vt 0.80534977 0.18747179
vt 0.80534977 0.14181326
vt 0.7664174 0.14181326
vt 0.7664174 0.18747179
vt 0.6713374 0.07985074
vt 0.6647662 0.07985074
vt 0.6647662 0.049768813
vt 0.6713374 0.049768813
vt 0.7009361 0.05347837
vt 0.7009361 0.08220841
vt 0.6912095 0.08220841
vt 0.6912095 0.05347837
vt 0.664937 0.0025428087
vt 0.664937 0.037315562
vt 0.6701951 0.037315562
vt 0.6701951 0.0025428087
vt 0.6701951 0.0025428087
vt 0.6701951 0.037315562
vt 0.6907509 0.037315562
vt 0.6907509 0.0025428087
vt 0.691189 0.008722342
vt 0.70095307 0.008722342
vt 0.70095307 0.03745226
vt 0.691189 0.03745226
vt 0.6587438 0.07267712
vt 0.6587438 0.036910158
vt 0.63206184 0.036910158
vt 0.63206184 0.07267712
vt 0.6916416 0.07684389
vt 0.7007944 0.07684389
vt 0.7007944 0.052180916
vt 0.6916416 0.052180916
vt 0.6912095 0.08220841
vt 0.7009361 0.08220841
vt 0.7009361 0.05347837
vt 0.6912095 0.05347837
vt 0.6917811 0.032109637
vt 0.7003098 0.032109637
vt 0.7003098 0.005674379
vt 0.6917811 0.005674379
vt 0.70052284 0.037009932
vt 0.6909849 0.037009932
vt 0.6909848 0.011042751
vt 0.70052284 0.011042751
vn 0.038690582 0.99918133 0.011813281
vn -0 1 0
vn -0 1 0
vn 0.024698865 0.99966645 0.0075412444
vn -0 1 0
vn 0.21709916 0.97289294 0.0796704
vn 0.20832361 0.97512585 0.07570178
vn 0.45252436 0.87195116 0.1868768
vn -0 1 0
vn -0 1 0
vn -0 1 0
vn -0 1 0
vn 0.255171 -4.15138E-07 -0.966896
vn 0.25517103 -4.1513806E-07 -0.966896
vn 0.25517103 -4.1513803E-07 -0.966896
vn 0.255171 -4.1513803E-07 -0.966896
vn -0.9646436 6.5714185E-06 -0.26355788
vn -0.9646436 6.5714185E-06 -0.26355788
vn -0.9646436 6.571419E-06 -0.26355788
vn -0.9646436 6.571419E-06 -0.26355788
vn 0.76329 -2.9501014E-06 -0.64605606
vn 0.76329 -2.9501014E-06 -0.64605606
vn 0.76329 -2.9501014E-06 -0.64605606
vn 0.76329 -2.9501014E-06 -0.64605606
vn -1.3344948E-06 1 -2.608429E-07
vn -1.3344948E-06 1 -2.608429E-07
vn -1.3344948E-06 1 -2.608429E-07
vn -1.3344948E-06 1 -2.6084294E-07
vn -0.6394616 1.3994578E-06 -0.7688231
vn -0.63946164 1.3994578E-06 -0.768823
vn -0.6394616 1.3994577E-06 -0.768823
vn -0.6394616 1.3994577E-06 -0.768823
vn -6.6865454E-07 1 2.0924853E-07
vn -6.6865454E-07 1 2.0924855E-07
vn -6.686546E-07 1 2.0924855E-07
vn -6.6865454E-07 1 2.0924855E-07
vn -0.25517064 7.4724915E-07 0.966896
vn -0.25517064 7.4724915E-07 0.966896
vn -0.25517064 7.472492E-07 0.9668961
vn -0.25517064 7.472492E-07 0.9668961
vn 0.964643 0 0.26356015
vn 0.964643 0 0.26356015
vn 0.964643 0 0.26356015
vn 0.964643 0 0.26356015
vn -0.7632908 1.0556745E-06 0.64605504
vn -0.7632908 1.0556746E-06 0.64605504
vn -0.7632908 1.0556745E-06 0.646055
vn -0.7632908 1.0556747E-06 0.646055
vn 0.6394598 -1.0701688E-06 0.7688245
vn 0.63945985 -1.0701688E-06 0.7688245
vn 0.63945985 -1.0701689E-06 0.7688245
vn 0.63945985 -1.0701688E-06 0.7688245
g book1_1_0
f 3/3/3 2/2/2 1/1/1
f 1/1/1 4/4/4 3/3/3
f 4/4/4 5/5/5 3/3/3
f 1/1/1 6/6/6 4/4/4
f 6/6/6 7/7/7 4/4/4
f 7/7/7 6/6/6 8/8/8
f 11/11/11 10/10/10 9/9/9
f 12/12/12 11/11/11 9/9/9
f 15/15/15 14/14/14 13/13/13
f 16/16/16 15/15/15 13/13/13
f 19/19/19 18/18/18 17/17/17
f 20/20/20 19/19/19 17/17/17
f 23/23/23 22/22/22 21/21/21
f 24/24/24 23/23/23 21/21/21
f 27/27/27 26/26/26 25/25/25
f 28/28/28 27/27/27 25/25/25
f 31/31/31 30/30/30 29/29/29
f 32/32/32 31/31/31 29/29/29
f 35/35/35 34/34/34 33/33/33
f 36/36/36 35/35/35 33/33/33
f 39/39/39 38/38/38 37/37/37
f 40/40/40 39/39/39 37/37/37
f 43/43/43 42/42/42 41/41/41
f 44/44/44 43/43/43 41/41/41
f 47/47/47 46/46/46 45/45/45
f 48/48/48 47/47/47 45/45/45
f 51/51/51 50/50/50 49/49/49
f 52/52/52 51/51/51 49/49/49
