g boss_battlegate_base
v -0.5035 8.203058E-08 0.50350004
v -1.4594487 8.203058E-08 0.50350004
v -1.4395561 0.024466401 0.49311376
v -0.5035 0.024466401 0.49311376
v 0.5035 7.371327E-08 0.4524488
v 0.48254523 0.024466392 0.44311565
v 0.48254523 0.024466235 -0.44311565
v 0.5035 -7.371325E-08 -0.4524487
v -0.5034999 -8.203056E-08 -0.5035
v 0.4524488 -8.203056E-08 -0.5035
v 0.43255624 0.024466226 -0.49311376
v -0.5034999 0.024466226 -0.49311376
v -1.5105 -7.371325E-08 -0.4524487
v -1.4895451 0.024466235 -0.44311565
v -1.4895451 0.024466392 0.44311565
v -1.5105 7.371327E-08 0.4524488
v 0.4524488 8.203058E-08 0.50350004
v 0.43255624 0.024466401 0.49311376
v 0.48254523 0.024466392 0.44311565
v 0.5035 7.371327E-08 0.4524488
v -1.4395561 0.024466401 0.49311376
v -1.4594487 8.203058E-08 0.50350004
v -1.5105 7.371327E-08 0.4524488
v -1.4895451 0.024466392 0.44311565
v 0.5035 -7.371325E-08 -0.4524487
v 0.48254523 0.024466235 -0.44311565
v 0.43255624 0.024466226 -0.49311376
v 0.4524488 -8.203056E-08 -0.5035
v -1.4594487 -8.203056E-08 -0.5035
v -1.4395561 0.024466226 -0.49311376
v -1.4895451 0.024466235 -0.44311565
v -1.5105 -7.371325E-08 -0.4524487
v -1.4395561 0.024466401 0.49311376
v -1.4895451 0.024466392 0.44311565
v -1.3949796 0.02446637 0.38982153
v -1.3561296 0.024466377 0.42767745
v -0.5035 0.024466401 0.49311376
v -1.4395561 0.024466401 0.49311376
v -0.5035 0.024466377 0.42767745
v 0.43255624 0.024466401 0.49311376
v 0.38797972 0.02446637 0.38982153
v 0.48254523 0.024466392 0.44311565
v 0.3491298 0.024466377 0.42767745
v -0.5035 0.024466401 0.49311376
v -0.5035 0.024466377 0.42767745
v 0.43255624 0.024466401 0.49311376
v 0.48254523 0.024466235 -0.44311565
v 0.48254523 0.024466392 0.44311565
v 0.38797972 0.02446637 0.38982153
v 0.38797972 0.024466254 -0.38982126
v 0.43255624 0.024466226 -0.49311376
v 0.48254523 0.024466235 -0.44311565
v 0.3491298 0.024466246 -0.4276768
v -0.5034999 0.024466226 -0.49311376
v 0.3491298 0.024466246 -0.4276768
v -0.5035 0.024466246 -0.4276768
v -1.4395561 0.024466226 -0.49311376
v -1.3561296 0.024466246 -0.4276768
v -1.3949796 0.024466254 -0.38982126
v -1.4895451 0.024466235 -0.44311565
v -0.5034999 0.024466226 -0.49311376
v -1.3561296 0.024466246 -0.4276768
v -0.5035 0.024466246 -0.4276768
v -1.4895451 0.024466392 0.44311565
v -1.4895451 0.024466235 -0.44311565
v -1.3949796 0.02446637 0.38982153
v -1.3561296 0.024466377 0.42767745
v -1.3949796 0.02446637 0.38982153
v -1.3059422 0.0020140545 0.34610608
v -1.2714679 0.0020140617 0.37916285
v 0.26446795 0.0020140617 0.37916285
v 0.3491298 0.024466377 0.42767745
v -0.5035 0.024466377 0.42767745
v -0.5035 0.0020140617 0.37916285
v 0.2989422 0.0020140545 0.34610608
v 0.38797972 0.02446637 0.38982153
v 0.3491298 0.024466377 0.42767745
v 0.26446795 0.0020140617 0.37916285
v 0.2989422 0.002013943 -0.3461056
v 0.38797972 0.024466254 -0.38982126
v 0.38797972 0.02446637 0.38982153
v 0.2989422 0.0020140545 0.34610608
v 0.3491298 0.024466246 -0.4276768
v 0.38797972 0.024466254 -0.38982126
v 0.2989422 0.002013943 -0.3461056
v 0.26446795 0.002013938 -0.37916204
v -1.2714679 0.002013938 -0.37916204
v -1.3561296 0.024466246 -0.4276768
v -0.5035 0.024466246 -0.4276768
v -0.5035 0.002013938 -0.37916204
v -1.3059422 0.002013943 -0.3461056
v -1.3949796 0.024466254 -0.38982126
v -1.3561296 0.024466246 -0.4276768
v -1.2714679 0.002013938 -0.37916204
v -1.3059422 0.0020140545 0.34610608
v -1.3949796 0.02446637 0.38982153
v -1.3949796 0.024466254 -0.38982126
v -1.3059422 0.002013943 -0.3461056
v -0.5035 8.203058E-08 0.50350004
v -0.5035 0.024466401 0.49311376
v 0.43255624 0.024466401 0.49311376
v 0.4524488 8.203058E-08 0.50350004
v -0.5034999 -8.203056E-08 -0.5035
v -0.5034999 0.024466226 -0.49311376
v -1.4395561 0.024466226 -0.49311376
v -1.4594487 -8.203056E-08 -0.5035
v -1.2714679 0.0020140617 0.37916285
v -0.5035 0.0020140617 0.37916285
v -0.5035 0.024466377 0.42767745
v -1.3561296 0.024466377 0.42767745
v 0.26446795 0.002013938 -0.37916204
v -0.5035 0.002013938 -0.37916204
v -0.5035 0.024466246 -0.4276768
v 0.3491298 0.024466246 -0.4276768
v -1.3059422 0.0020140545 0.34610608
v -0.5035 0.0020139993 5.973501E-07
v -1.2714679 0.0020140617 0.37916285
v -1.3059422 0.002013943 -0.3461056
v -0.5035 0.0020140617 0.37916285
v -1.2714679 0.002013938 -0.37916204
v 0.26446795 0.0020140617 0.37916285
v -0.5035 0.002013938 -0.37916204
v 0.2989422 0.0020140545 0.34610608
v 0.26446795 0.002013938 -0.37916204
v 0.2989422 0.002013943 -0.3461056
vt 0.5290533 0.4816864
vt 0.5290533 0.47315603
vt 0.5241661 0.47315603
vt 0.5241661 0.4816864
vt 0.5290533 0.46904653
vt 0.5241661 0.46904653
vt 0.52416617 0.45379204
vt 0.5290533 0.45379204
vt 0.5290533 0.42596295
vt 0.52905333 0.44968265
vt 0.52416617 0.44968265
vt 0.52416617 0.42596295
vt 0.5290533 0.45379204
vt 0.52416617 0.45379204
vt 0.5241661 0.46904653
vt 0.5290533 0.46904653
vt 0.5290533 0.47315603
vt 0.5241661 0.47315603
vt 0.5241661 0.46904653
vt 0.5290533 0.46904653
vt 0.5241661 0.47315603
vt 0.5290533 0.47315603
vt 0.5290533 0.46904653
vt 0.5241661 0.46904653
vt 0.5290533 0.45379204
vt 0.52416617 0.45379204
vt 0.52416617 0.44968265
vt 0.52905333 0.44968265
vt 0.52905333 0.44968265
vt 0.52416617 0.44968265
vt 0.52416617 0.45379204
vt 0.5290533 0.45379204
vt 0.5241661 0.47315603
vt 0.5241661 0.46904653
vt 0.5155499 0.46904653
vt 0.5155499 0.47315603
vt 0.5241661 0.4816864
vt 0.5241661 0.47315603
vt 0.5155499 0.4816864
vt 0.5241661 0.47315603
vt 0.5155499 0.46904653
vt 0.5241661 0.46904653
vt 0.5155499 0.47315603
vt 0.5241661 0.4816864
vt 0.5155499 0.4816864
vt 0.5241661 0.47315603
vt 0.52416617 0.45379204
vt 0.5241661 0.46904653
vt 0.5155499 0.46904653
vt 0.5155499 0.45379204
vt 0.52416617 0.44968265
vt 0.52416617 0.45379204
vt 0.51554996 0.44968265
vt 0.52416617 0.42596295
vt 0.51554996 0.44968265
vt 0.5155499 0.42596295
vt 0.52416617 0.44968265
vt 0.51554996 0.44968265
vt 0.5155499 0.45379204
vt 0.52416617 0.45379204
vt 0.52416617 0.42596295
vt 0.51554996 0.44968265
vt 0.5155499 0.42596295
vt 0.5241661 0.46904653
vt 0.52416617 0.45379204
vt 0.5155499 0.46904653
vt 0.5155499 0.47315603
vt 0.5155499 0.46904653
vt 0.512146 0.46904653
vt 0.512146 0.47315603
vt 0.512146 0.47315603
vt 0.5155499 0.47315603
vt 0.5155499 0.4816864
vt 0.512146 0.4816864
vt 0.512146 0.46904653
vt 0.5155499 0.46904653
vt 0.5155499 0.47315603
vt 0.512146 0.47315603
vt 0.512146 0.45379204
vt 0.5155499 0.45379204
vt 0.5155499 0.46904653
vt 0.512146 0.46904653
vt 0.51554996 0.44968265
vt 0.5155499 0.45379204
vt 0.512146 0.45379204
vt 0.512146 0.44968265
vt 0.512146 0.44968265
vt 0.51554996 0.44968265
vt 0.5155499 0.42596295
vt 0.512146 0.42596295
vt 0.512146 0.45379204
vt 0.5155499 0.45379204
vt 0.51554996 0.44968265
vt 0.512146 0.44968265
vt 0.512146 0.46904653
vt 0.5155499 0.46904653
vt 0.5155499 0.45379204
vt 0.512146 0.45379204
vt 0.5290533 0.4816864
vt 0.5241661 0.4816864
vt 0.5241661 0.47315603
vt 0.5290533 0.47315603
vt 0.5290533 0.42596295
vt 0.52416617 0.42596295
vt 0.52416617 0.44968265
vt 0.52905333 0.44968265
vt 0.512146 0.47315603
vt 0.512146 0.4816864
vt 0.5155499 0.4816864
vt 0.5155499 0.47315603
vt 0.512146 0.44968265
vt 0.512146 0.42596295
vt 0.5155499 0.42596295
vt 0.51554996 0.44968265
vt 0.5084253 0.4284258
vt 0.50960404 0.4538536
vt 0.5084759 0.42599726
vt 0.5084253 0.47928143
vt 0.50960404 0.42599726
vt 0.5084759 0.48171043
vt 0.5107322 0.42599726
vt 0.50960404 0.48171043
vt 0.5107828 0.4284258
vt 0.5107322 0.48171043
vt 0.5107828 0.47928143
vn -0 0.39076185 0.92049176
vn -0 0.39076188 0.92049176
vn -0 0.3907619 0.92049176
vn -0 0.39076185 0.92049176
vn 0.75950754 0.65049857 -1.097835E-07
vn 0.75950754 0.6504985 -1.0978349E-07
vn 0.75950754 0.6504985 -1.0978349E-07
vn 0.75950754 0.6504985 -1.0978349E-07
vn -0 0.39075956 -0.92049277
vn -0 0.39075962 -0.92049277
vn -0 0.3907596 -0.92049277
vn -0 0.39075956 -0.92049277
vn -0.75950634 0.65049994 -1.0978333E-07
vn -0.75950634 0.65049994 -1.0978333E-07
vn -0.75950634 0.6504999 -1.09783315E-07
vn -0.75950634 0.65049994 -1.0978333E-07
vn 0.5321129 0.6586071 0.53206426
vn 0.5321129 0.6586071 0.5320643
vn 0.53211296 0.6586072 0.53206426
vn 0.5321129 0.6586072 0.53206426
vn -0.53211206 0.6586081 0.53206414
vn -0.53211206 0.6586081 0.53206414
vn -0.53211194 0.6586081 0.5320642
vn -0.53211206 0.6586081 0.53206414
vn 0.5321133 0.6586064 -0.5320649
vn 0.53211325 0.65860635 -0.53206486
vn 0.5321133 0.65860635 -0.5320649
vn 0.5321133 0.6586064 -0.5320649
vn -0.5321123 0.6586073 -0.5320648
vn -0.5321123 0.6586073 -0.5320648
vn -0.53211236 0.65860724 -0.53206474
vn -0.5321123 0.6586073 -0.5320648
vn -0 1 -2.690026E-07
vn -0 1 -2.690026E-07
vn -0 1 -2.6900264E-07
vn -0 1 -2.690026E-07
vn -0 1 -3.6690247E-07
vn -0 1 -3.6690247E-07
vn -0 1 -3.6690247E-07
vn -0 1 -2.690026E-07
vn -0 1 -2.690026E-07
vn -0 1 -2.6900264E-07
vn -0 1 -2.690026E-07
vn -0 1 -3.669025E-07
vn -0 1 -3.669025E-07
vn -0 1 -3.669025E-07
vn -0 1 -1.6285676E-07
vn -0 1 -1.6285678E-07
vn -0 1 -1.6285676E-07
vn -0 1 -1.6285676E-07
vn -0 1 -2.5271152E-07
vn -0 1 -2.5271152E-07
vn -0 1 -2.5271152E-07
vn -0 1 -3.302089E-07
vn -0 1 -3.302089E-07
vn -0 1 -3.302089E-07
vn -0 1 -2.527115E-07
vn -0 1 -2.5271152E-07
vn -0 1 -2.5271152E-07
vn -0 1 -2.5271152E-07
vn -0 1 -3.3020893E-07
vn -0 1 -3.3020893E-07
vn -0 1 -3.3020896E-07
vn -0 1 -1.628568E-07
vn -0 1 -1.628568E-07
vn -0 1 -1.628568E-07
vn 0.16228025 0.9723726 -0.167799
vn 0.16228026 0.9723726 -0.16779898
vn 0.16228026 0.9723726 -0.16779898
vn 0.16228025 0.9723726 -0.16779898
vn -0 0.90752494 -0.4199982
vn -0 0.90752494 -0.4199982
vn -0 0.90752494 -0.4199982
vn -0 0.90752494 -0.4199982
vn -0.16228008 0.9723727 -0.16779882
vn -0.16228007 0.9723727 -0.16779883
vn -0.16228008 0.9723727 -0.16779883
vn -0.16228007 0.9723727 -0.16779885
vn -0.24451265 0.9696461 -1.4883248E-07
vn -0.24451265 0.9696461 -1.4883247E-07
vn -0.24451265 0.9696461 -1.4883248E-07
vn -0.24451265 0.9696461 -1.4883248E-07
vn -0.16227937 0.9723727 0.16779944
vn -0.16227935 0.9723727 0.16779943
vn -0.16227937 0.9723727 0.16779943
vn -0.16227935 0.9723727 0.16779943
vn -0 0.9075254 0.41999698
vn -0 0.9075254 0.419997
vn -0 0.9075254 0.41999698
vn -0 0.9075254 0.41999698
vn 0.16227953 0.9723726 0.16779965
vn 0.16227953 0.9723726 0.16779962
vn 0.16227953 0.9723726 0.16779964
vn 0.16227953 0.9723726 0.16779965
vn 0.24451302 0.969646 -1.4954827E-07
vn 0.24451305 0.969646 -1.4954827E-07
vn 0.24451305 0.969646 -1.4954826E-07
vn 0.24451305 0.969646 -1.4954828E-07
vn -0 0.39076185 0.92049176
vn -0 0.39076185 0.92049176
vn -0 0.39076188 0.92049176
vn -0 0.39076194 0.92049176
vn -0 0.39075956 -0.92049277
vn -0 0.39075956 -0.92049277
vn -0 0.39075962 -0.92049277
vn -0 0.3907596 -0.92049277
vn -0 0.90752494 -0.4199982
vn -0 0.90752494 -0.4199982
vn -0 0.90752494 -0.4199982
vn -0 0.9075249 -0.41999823
vn -0 0.9075254 0.419997
vn -0 0.9075254 0.419997
vn -0 0.9075254 0.419997
vn -0 0.9075254 0.419997
vn -0 1 -1.9978643E-07
vn -0 1 -1.9978643E-07
vn -0 1 -1.9978643E-07
vn -0 1 -1.5076809E-07
vn -0 1 -1.6463335E-07
vn -0 1 -1.6146714E-07
vn -0 1 -1.6463335E-07
vn -0 1 -1.6146714E-07
vn -0 1 -1.9978643E-07
vn -0 1 -1.5076809E-07
vn -0 1 -1.6128112E-07
g boss_battlegate_base_0
f 3/3/3 2/2/2 1/1/1
f 4/4/4 3/3/3 1/1/1
f 7/7/7 6/6/6 5/5/5
f 8/8/8 7/7/7 5/5/5
f 11/11/11 10/10/10 9/9/9
f 12/12/12 11/11/11 9/9/9
f 15/15/15 14/14/14 13/13/13
f 16/16/16 15/15/15 13/13/13
f 19/19/19 18/18/18 17/17/17
f 20/20/20 19/19/19 17/17/17
f 23/23/23 22/22/22 21/21/21
f 24/24/24 23/23/23 21/21/21
f 27/27/27 26/26/26 25/25/25
f 28/28/28 27/27/27 25/25/25
f 31/31/31 30/30/30 29/29/29
f 32/32/32 31/31/31 29/29/29
f 35/35/35 34/34/34 33/33/33
f 36/36/36 35/35/35 33/33/33
f 36/36/36 38/38/38 37/37/37
f 39/39/39 36/36/36 37/37/37
f 42/42/42 41/41/41 40/40/40
f 41/41/41 43/43/43 40/40/40
f 43/43/43 45/45/45 44/44/44
f 46/46/46 43/43/43 44/44/44
f 49/49/49 48/48/48 47/47/47
f 50/50/50 49/49/49 47/47/47
f 50/50/50 52/52/52 51/51/51
f 53/53/53 50/50/50 51/51/51
f 55/55/55 51/51/51 54/54/54
f 56/56/56 55/55/55 54/54/54
f 59/59/59 58/58/58 57/57/57
f 60/60/60 59/59/59 57/57/57
f 57/57/57 62/62/62 61/61/61
f 62/62/62 63/63/63 61/61/61
f 59/59/59 65/65/65 64/64/64
f 66/66/66 59/59/59 64/64/64
f 69/69/69 68/68/68 67/67/67
f 70/70/70 69/69/69 67/67/67
f 73/73/73 72/72/72 71/71/71
f 74/74/74 73/73/73 71/71/71
f 77/77/77 76/76/76 75/75/75
f 78/78/78 77/77/77 75/75/75
f 81/81/81 80/80/80 79/79/79
f 82/82/82 81/81/81 79/79/79
f 85/85/85 84/84/84 83/83/83
f 86/86/86 85/85/85 83/83/83
f 89/89/89 88/88/88 87/87/87
f 90/90/90 89/89/89 87/87/87
f 93/93/93 92/92/92 91/91/91
f 94/94/94 93/93/93 91/91/91
f 97/97/97 96/96/96 95/95/95
f 98/98/98 97/97/97 95/95/95
f 101/101/101 100/100/100 99/99/99
f 102/102/102 101/101/101 99/99/99
f 105/105/105 104/104/104 103/103/103
f 106/106/106 105/105/105 103/103/103
f 109/109/109 108/108/108 107/107/107
f 110/110/110 109/109/109 107/107/107
f 113/113/113 112/112/112 111/111/111
f 114/114/114 113/113/113 111/111/111
f 117/117/117 116/116/116 115/115/115
f 115/115/115 116/116/116 118/118/118
f 119/119/119 116/116/116 117/117/117
f 118/118/118 116/116/116 120/120/120
f 121/121/121 116/116/116 119/119/119
f 120/120/120 116/116/116 122/122/122
f 123/123/123 116/116/116 121/121/121
f 122/122/122 116/116/116 124/124/124
f 125/125/125 116/116/116 123/123/123
f 124/124/124 116/116/116 125/125/125
