g Box001_Part_11
v 0.096861266 -0.64626867 -0.009924156
v -0.14549942 -0.28444296 0.034026194
v 0.09689018 -0.6463673 0.034026194
v -0.14775088 -0.2810256 -0.009924156
v 0.12472175 -0.6617163 0.034026194
v 0.12472183 0.103980936 -0.009924156
v 0.12472183 -0.6616336 -0.009924156
v 0.12472183 0.103980936 0.034026194
v 0.096861266 -0.64626867 -0.009924156
v 0.12472175 -0.6617163 0.034026194
v 0.12472183 -0.6616336 -0.009924156
v 0.09689018 -0.6463673 0.034026194
v 0.12472183 0.103980936 0.034026194
v -0.22466765 0.103980936 -0.009924156
v 0.12472183 0.103980936 -0.009924156
v -0.22309898 0.103980936 0.034026194
v -0.14775088 -0.2810256 -0.009924156
v 0.12472183 0.103980936 -0.009924156
v -0.22466765 0.103980936 -0.009924156
v 0.12472183 -0.6616336 -0.009924156
v 0.096861266 -0.64626867 -0.009924156
v 0.09689018 -0.6463673 0.034026194
v 0.12472183 0.103980936 0.034026194
v 0.12472175 -0.6617163 0.034026194
v -0.22309898 0.103980936 0.034026194
v -0.14549942 -0.28444296 0.034026194
v -0.14775088 -0.2810256 -0.009924156
v -0.22309898 0.103980936 0.034026194
v -0.14549942 -0.28444296 0.034026194
v -0.22466765 0.103980936 -0.009924156
vt 0.016336724 0.35258037
vt 0.53356194 1
vt 0.38871765 1
vt 0.15977103 0.18093412
vt 0.392867 1
vt 1 0
vt 0.39293253 0
vt 1 1
vt 0.016336724 0.35258037
vt 0.392867 1
vt 0 0.39293253
vt 0.98368025 0.40503743
vt 0 1
vt 0.20487304 0
vt 0 0
vt 0.2039532 1
vt 0.15977103 0.6947225
vt 0 1
vt 0.20487304 1
vt 0 0.39293253
vt 0.016336724 0.40511566
vt 0.98368025 0.40503743
vt 1 1
vt 1 0.392867
vt 0.79604685 1
vt 0.84154916 0.6920128
vt 0.15977103 0.6947225
vt 0.79604685 1
vt 0.53356194 1
vt 0.20487304 0
vn -0.8308757 -0.55645776 -0.0007024235
vn -0.8308757 -0.55645764 -0.00070347736
vn -0.8308756 -0.55645776 -0.0007023465
vn -0.8308757 -0.55645764 -0.0007035501
vn 1 0 1.6724721E-06
vn 1 0 0
vn 1 0 1.7359121E-06
vn 1 0 0
vn -0.48292214 -0.87566173 -0.0016482518
vn -0.4829223 -0.8756616 -0.0016480767
vn -0.4829217 -0.87566197 -0.0016485966
vn -0.4829227 -0.87566143 -0.0016477322
vn -0 1 0
vn -0 1 0
vn -0 1 0
vn -0 1 0
vn -0 0 -1
vn -0 0 -1
vn -0 0 -1
vn -0 0 -1
vn -0 0 -1
vn -0 0 1
vn -0 0 1
vn -0 0 1
vn -0 0 1
vn -0 0 1
vn -0.9800219 -0.19578937 0.034980495
vn -0.980022 -0.19578917 0.03497914
vn -0.9800219 -0.1957894 0.034980606
vn -0.980022 -0.1957892 0.03497903
g Box001_Part_11_0
f 3/3/3 2/2/2 1/1/1
f 4/4/4 1/1/1 2/2/2
f 7/7/7 6/6/6 5/5/5
f 8/8/8 5/5/5 6/6/6
f 11/11/11 10/10/10 9/9/9
f 12/12/12 9/9/9 10/10/10
f 15/15/15 14/14/14 13/13/13
f 16/16/16 13/13/13 14/14/14
f 19/19/19 18/18/18 17/17/17
f 18/18/18 20/20/20 17/17/17
f 20/20/20 21/21/21 17/17/17
f 24/24/24 23/23/23 22/22/22
f 23/23/23 25/25/25 22/22/22
f 25/25/25 26/26/26 22/22/22
f 29/29/29 28/28/28 27/27/27
f 30/30/30 27/27/27 28/28/28
