g Box001_Part_1_Part_1
v -0.14356288 -0.20918544 -0.030601991
v -0.30156702 0.11148784 0.01334836
v -0.13852258 -0.20959851 0.013348355
v -0.30156702 0.11148784 0.01334836
v -0.14356288 -0.20918544 -0.030601991
v -0.3034873 0.10575647 -0.030601991
v -0.27608788 0.26165062 -0.030601991
v 0.15870441 0.12264746 0.01334836
v -0.2756743 0.25880936 0.01334836
v 0.15956852 0.12508817 -0.030601991
v 0.15870441 0.12264746 0.01334836
v -0.30156702 0.11148784 0.01334836
v -0.2756743 0.25880936 0.01334836
v -0.02722904 -0.21657997 0.013348355
v -0.13852258 -0.20959851 0.013348355
v -0.30156702 0.11148784 0.01334836
v -0.27608788 0.26165062 -0.030601991
v -0.2756743 0.25880936 0.01334836
v -0.3034873 0.10575647 -0.030601991
v -0.027635688 -0.21645755 -0.030601991
v -0.13852258 -0.20959851 0.013348355
v -0.02722904 -0.21657997 0.013348355
v -0.14356288 -0.20918544 -0.030601991
v -0.3034873 0.10575647 -0.030601991
v 0.15956852 0.12508817 -0.030601991
v -0.27608788 0.26165062 -0.030601991
v -0.14356288 -0.20918544 -0.030601991
v -0.027635688 -0.21645755 -0.030601991
v -0.027635688 -0.21645755 -0.030601991
v 0.15870441 0.12264746 0.01334836
v 0.15956852 0.12508817 -0.030601991
v -0.02722904 -0.21657997 0.013348355
vt 0.3454495 0.43303216
vt 0.5619009 0.68729883
vt 0.5380332 0.5521774
vt 0.5619009 0.68729883
vt 0.3454495 0.43303216
vt 0.43922505 0.4030807
vt 0.42315876 0.8063652
vt 0.8317923 0.75117666
vt 0.57708377 0.9424695
vt 0.5462151 0.31956863
vt 0.8317923 0.69614744
vt 0.5619009 0.68729883
vt 0.57708377 0.8041123
vt 0.7227657 0.4271689
vt 0.657506 0.4327046
vt 0.5619009 0.96679616
vt 0.42315876 0.30062607
vt 0.57708377 0.9424695
vt 0.43922505 0.4030807
vt 0.27747273 0.14193563
vt 0.5380332 0.5521774
vt 0.5124279 0.63750666
vt 0.3454495 0.077800065
vt 0.43922505 0.6827544
vt 0.16770102 0.69808275
vt 0.42315876 0.8063652
vt 0.3454495 0.43303216
vt 0.27747273 0.42726597
vt 0.27747273 0.14193563
vt 0.8317923 0.75117666
vt 0.16770102 0.69808275
vt 0.7227657 0.4271689
vn -0.88738066 -0.45060316 0.09753138
vn -0.88738054 -0.4506031 0.097532175
vn -0.88738066 -0.4506031 0.0975313
vn -0.88738054 -0.4506031 0.097532175
vn -0.88738066 -0.45060316 0.09753138
vn -0.88738054 -0.45060316 0.09753226
vn 0.2985955 0.9525684 0.058770962
vn 0.2985956 0.95256853 0.058770254
vn 0.2985955 0.95256853 0.058771025
vn 0.2985956 0.95256853 0.058770195
vn -0 0 1
vn -0 0 1
vn -0 0 1
vn -0 0 1
vn -0 0 1
vn -0.9846977 0.17306702 0.020454131
vn -0.9846976 0.173067 0.020454207
vn -0.9846976 0.17306703 0.02045423
vn -0.9846977 0.173067 0.020454114
vn -0.06260683 -0.99803585 -0.002200492
vn -0.06260679 -0.99803585 -0.002200392
vn -0.06260684 -0.99803585 -0.0022005362
vn -0.06260676 -0.99803585 -0.00220035
vn -0 0 -1
vn -0 0 -1
vn -0 0 -1
vn -0 0 -1
vn -0 0 -1
vn 0.8768762 -0.4806233 -0.009451789
vn 0.8768761 -0.48062348 -0.009450621
vn 0.8768761 -0.48062348 -0.009450526
vn 0.8768762 -0.48062336 -0.009451886
g Box001_Part_1_Part_1_0
f 3/3/3 2/2/2 1/1/1
f 6/6/6 5/5/5 4/4/4
f 9/9/9 8/8/8 7/7/7
f 10/10/10 7/7/7 8/8/8
f 13/13/13 12/12/12 11/11/11
f 12/12/12 14/14/14 11/11/11
f 15/15/15 14/14/14 12/12/12
f 18/18/18 17/17/17 16/16/16
f 19/19/19 16/16/16 17/17/17
f 22/22/22 21/21/21 20/20/20
f 23/23/23 20/20/20 21/21/21
f 26/26/26 25/25/25 24/24/24
f 25/25/25 27/27/27 24/24/24
f 28/28/28 27/27/27 25/25/25
f 31/31/31 30/30/30 29/29/29
f 32/32/32 29/29/29 30/30/30
