g carpet2_3
v 0.50349814 0.0012118798 -6.14624E-07
v -0.50350124 0.0012119038 -6.14624E-07
v -0.50350124 0.0012119134 -0.5035003
v 0.50349754 0.0012119134 -0.5035003
v -0.50350124 0.0012118843 0.5034991
v -0.50350124 0.0012119038 -6.14624E-07
v 0.50349814 0.0012118798 -6.14624E-07
v 0.50349754 0.0012118843 0.5034991
vt 0.49909303 0.80747133
vt 0.48198763 0.80747133
vt 0.48198763 0.8329571
vt 0.49909303 0.8329571
vt 0.48198763 0.8329571
vt 0.48198763 0.80747133
vt 0.49909303 0.80747133
vt 0.49909303 0.8329571
vn -0 1 0
vn -0 1 0
vn -0 1 0
vn -0 1 0
vn -0 1 0
vn -0 1 0
vn -0 1 0
vn -0 1 0
g carpet2_3_0
f 3/3/3 2/2/2 1/1/1
f 4/4/4 3/3/3 1/1/1
f 7/7/7 6/6/6 5/5/5
f 8/8/8 7/7/7 5/5/5
