g center2_parts_3
v 0.07474704 -0.2679185 0.13820742
v 0.22396185 -0.055630557 0.13820793
v 0.22396177 -0.05563108 0.09513746
v 0.07474727 -0.26791826 0.09513757
v -0.83135253 0.41147852 0.13820884
v -0.83135265 0.41147882 0.095139064
v -0.6821367 0.623767 0.09513926
v -0.6821365 0.623767 0.1382091
v 0.07474704 -0.2679185 0.13820742
v -0.83135253 0.41147852 0.13820884
v -0.6821365 0.623767 0.1382091
v 0.22396185 -0.055630557 0.13820793
v 0.22396185 -0.055630557 0.13820793
v -0.6821365 0.623767 0.1382091
v -0.6821367 0.623767 0.09513926
v 0.22396177 -0.05563108 0.09513746
v 0.22396177 -0.05563108 0.09513746
v -0.6821367 0.623767 0.09513926
v -0.83135265 0.41147882 0.095139064
v 0.07474727 -0.26791826 0.09513757
v 0.07474727 -0.26791826 0.09513757
v -0.83135265 0.41147882 0.095139064
v -0.83135253 0.41147852 0.13820884
v 0.07474704 -0.2679185 0.13820742
vt 0.9017337 0.09867429
vt 0.90173376 0.106557004
vt 0.9100637 0.106556945
vt 0.9100635 0.09867429
vt 0.91006356 0.09867417
vt 0.90173364 0.09867417
vt 0.90173364 0.106557064
vt 0.91006356 0.106557064
vt 0.8850071 0.09908455
vt 0.8421701 0.09908455
vt 0.8421701 0.10661214
vt 0.8850071 0.10661214
vt 0.889177 0.098060004
vt 0.88918114 0.10673057
vt 0.89938134 0.10673057
vt 0.89937735 0.098060004
vt 0.84217006 0.10661214
vt 0.885007 0.10661214
vt 0.885007 0.09908455
vt 0.84217006 0.09908455
vt 0.7965226 0.06331761
vt 0.7965227 0.06648417
vt 0.7978092 0.06648417
vt 0.7978091 0.06331761
vn 0.8181198 -0.57504773 3.2315484E-06
vn 0.8181199 -0.5750477 3.2315486E-06
vn 0.8181198 -0.57504773 3.2315484E-06
vn 0.8181199 -0.5750477 3.2315486E-06
vn -0.81811845 0.5750497 5.663918E-06
vn -0.81811845 0.5750497 5.6639174E-06
vn -0.81811845 0.57504964 5.6639174E-06
vn -0.81811845 0.5750497 5.663917E-06
vn -0 -1.8571042E-06 1
vn -0 -1.8571044E-06 1
vn -0 -1.8571044E-06 1
vn -0 -1.8571044E-06 1
vn 0.59990054 0.8000745 -7.166732E-06
vn 0.59990054 0.8000745 -7.1667314E-06
vn 0.59990054 0.8000745 -7.1667314E-06
vn 0.5999006 0.8000745 -7.1667328E-06
vn -1.0959543E-06 9.662397E-07 -1
vn -1.0959543E-06 9.662396E-07 -1
vn -1.0959543E-06 9.662396E-07 -1
vn -1.0959544E-06 9.662397E-07 -1
vn -0.5998996 -0.8000753 -6.0295733E-06
vn -0.5998996 -0.80007523 -6.029573E-06
vn -0.5998996 -0.80007523 -6.029573E-06
vn -0.5998996 -0.80007523 -6.029573E-06
g center2_parts_3_0
f 3/3/3 2/2/2 1/1/1
f 4/4/4 3/3/3 1/1/1
f 7/7/7 6/6/6 5/5/5
f 8/8/8 7/7/7 5/5/5
f 11/11/11 10/10/10 9/9/9
f 12/12/12 11/11/11 9/9/9
f 15/15/15 14/14/14 13/13/13
f 16/16/16 15/15/15 13/13/13
f 19/19/19 18/18/18 17/17/17
f 20/20/20 19/19/19 17/17/17
f 23/23/23 22/22/22 21/21/21
f 24/24/24 23/23/23 21/21/21
