g center_parts_8
v 0.75631434 0.06807149 0.19344865
v 0.81774867 0.021520253 -0.17843132
v 0.75631434 0.068071455 -0.1934498
v 0.81774867 0.021520253 -0.17843132
v 0.75631434 0.06807149 0.19344865
v 0.81774867 0.021520484 0.17843036
v 0.75631434 0.068071455 -0.1934498
v 0.8535239 0.03765667 -0.21798138
v 0.811302 0.09287342 -0.2542393
v 0.8535239 0.03765667 -0.21798138
v 0.75631434 0.068071455 -0.1934498
v 0.81774867 0.021520253 -0.17843132
v 1.2169646 0.27584907 -0.19344994
v 1.2128037 0.19971108 0.17843023
v 1.2169646 0.27584913 0.19344853
v 1.2128037 0.19971108 0.17843023
v 1.2169646 0.27584907 -0.19344994
v 1.2128035 0.19971119 -0.1784315
v 1.1619769 0.25104687 0.25423858
v 0.8535239 0.0376569 0.21798015
v 0.811302 0.092873454 0.25423875
v 0.8535239 0.0376569 0.21798015
v 1.1619769 0.25104687 0.25423858
v 1.1770285 0.18357456 0.2179801
v 0.811302 0.092873454 0.25423875
v 0.81774867 0.021520484 0.17843036
v 0.75631434 0.06807149 0.19344865
v 0.81774867 0.021520484 0.17843036
v 0.811302 0.092873454 0.25423875
v 0.8535239 0.0376569 0.21798015
v 0.8855548 0.8809629 0.16357784
v 0.83490235 0.9193448 -0.1511956
v 0.8855548 0.880963 -0.16357857
v 0.83490235 0.9193448 -0.1511956
v 0.8855548 0.8809629 0.16357784
v 0.83490235 0.9193446 0.15119477
v 0.8855548 0.880963 -0.16357857
v 0.8054058 0.90604013 -0.183805
v 0.8402177 0.86051357 -0.21369994
v 0.8054058 0.90604013 -0.183805
v 0.8855548 0.880963 -0.16357857
v 0.83490235 0.9193448 -0.1511956
v 0.50574654 0.7096492 -0.1635785
v 0.5091773 0.77242553 0.15119481
v 0.50574654 0.7096493 0.16357796
v 0.5091773 0.77242553 0.15119481
v 0.50574654 0.7096492 -0.1635785
v 0.50917727 0.77242535 -0.15119557
v 0.81774867 0.021520484 0.17843036
v 0.8535239 0.03765667 -0.21798138
v 0.81774867 0.021520253 -0.17843132
v 1.2128035 0.19971119 -0.1784315
v 1.1770288 0.1835745 -0.21798152
v 1.1770285 0.18357456 0.2179801
v 0.8535239 0.0376569 0.21798015
v 1.2128037 0.19971108 0.17843023
v 0.5386742 0.7857301 0.1838042
v 0.83490235 0.9193446 0.15119477
v 0.8054058 0.90603983 0.18380412
v 0.8054058 0.90604013 -0.183805
v 0.83490235 0.9193448 -0.1511956
v 0.50917727 0.77242535 -0.15119557
v 0.5091773 0.77242553 0.15119481
v 0.53867406 0.78572994 -0.18380496
v 0.811302 0.092873454 0.25423875
v 0.84021753 0.86051327 0.21369901
v 1.1619769 0.25104687 0.25423858
v 0.5510841 0.7300988 0.21369909
v 1.2169646 0.27584913 0.19344853
v 0.8855548 0.880963 -0.16357857
v 1.2169646 0.27584907 -0.19344994
v 0.8855548 0.8809629 0.16357784
v 1.1619769 0.25104693 -0.2542394
v 0.5510841 0.73009896 -0.21369982
v 0.811302 0.09287342 -0.2542393
v 0.8402177 0.86051357 -0.21369994
v 0.75631434 0.068071455 -0.1934498
v 0.50574654 0.7096493 0.16357796
v 0.75631434 0.06807149 0.19344865
v 0.50574654 0.7096492 -0.1635785
v 1.1619769 0.25104687 0.25423858
v 0.8855548 0.8809629 0.16357784
v 1.2169646 0.27584913 0.19344853
v 0.84021753 0.86051327 0.21369901
v 0.5510841 0.7300988 0.21369909
v 0.75631434 0.06807149 0.19344865
v 0.50574654 0.7096493 0.16357796
v 0.811302 0.092873454 0.25423875
v 1.2169646 0.27584907 -0.19344994
v 0.8402177 0.86051357 -0.21369994
v 1.1619769 0.25104693 -0.2542394
v 0.8855548 0.880963 -0.16357857
v 0.811302 0.09287342 -0.2542393
v 0.50574654 0.7096492 -0.1635785
v 0.75631434 0.068071455 -0.1934498
v 0.5510841 0.73009896 -0.21369982
v 0.811302 0.09287342 -0.2542393
v 1.1770288 0.1835745 -0.21798152
v 1.1619769 0.25104693 -0.2542394
v 0.8535239 0.03765667 -0.21798138
v 1.1619769 0.25104693 -0.2542394
v 1.2128035 0.19971119 -0.1784315
v 1.2169646 0.27584907 -0.19344994
v 1.1770288 0.1835745 -0.21798152
v 1.2169646 0.27584913 0.19344853
v 1.1770285 0.18357456 0.2179801
v 1.1619769 0.25104687 0.25423858
v 1.2128037 0.19971108 0.17843023
v 0.5510841 0.7300988 0.21369909
v 0.8054058 0.90603983 0.18380412
v 0.84021753 0.86051327 0.21369901
v 0.5386742 0.7857301 0.1838042
v 0.84021753 0.86051327 0.21369901
v 0.83490235 0.9193446 0.15119477
v 0.8855548 0.8809629 0.16357784
v 0.8054058 0.90603983 0.18380412
v 0.8402177 0.86051357 -0.21369994
v 0.53867406 0.78572994 -0.18380496
v 0.5510841 0.73009896 -0.21369982
v 0.8054058 0.90604013 -0.183805
v 0.5510841 0.73009896 -0.21369982
v 0.50917727 0.77242535 -0.15119557
v 0.50574654 0.7096492 -0.1635785
v 0.53867406 0.78572994 -0.18380496
v 0.50574654 0.7096493 0.16357796
v 0.5386742 0.7857301 0.1838042
v 0.5510841 0.7300988 0.21369909
v 0.5091773 0.77242553 0.15119481
v -0.41311726 0.053809255 0.039979514
v -0.39260864 0.009875087 -0.115164936
v -0.41311726 0.053809255 -0.06641548
v -0.32218564 -0.14098091 -0.06641552
v -0.3426964 -0.09704579 -0.11516497
v -0.3426964 -0.09704571 0.08872879
v -0.39260864 0.009874933 0.08872883
v -0.32218564 -0.14098084 0.039979458
v 0.9753051 0.64976877 0.069517575
v 1.0324559 0.52734065 0.02995484
v 1.0158112 0.56299615 0.069517575
v 1.0158112 0.5629962 -0.095953844
v 1.0324559 0.5273407 -0.056391
v 0.95865965 0.6854243 -0.056390956
v 0.95865965 0.6854243 0.029954854
v 0.9753051 0.6497688 -0.09595384
v -0.39260864 0.009874933 0.08872883
v 1.0158112 0.56299615 0.069517575
v -0.3426964 -0.09704571 0.08872879
v 0.9753051 0.64976877 0.069517575
v -0.32218564 -0.14098084 0.039979458
v 1.0324559 0.5273407 -0.056391
v -0.32218564 -0.14098091 -0.06641552
v 1.0324559 0.52734065 0.02995484
v -0.3426964 -0.09704579 -0.11516497
v 0.9753051 0.6497688 -0.09595384
v -0.39260864 0.009875087 -0.115164936
v 1.0158112 0.5629962 -0.095953844
v -0.41311726 0.053809255 -0.06641548
v 0.95865965 0.6854243 0.029954854
v -0.41311726 0.053809255 0.039979514
v 0.95865965 0.6854243 -0.056390956
v -0.3426964 -0.09704571 0.08872879
v 1.0324559 0.52734065 0.02995484
v -0.32218564 -0.14098084 0.039979458
v 1.0158112 0.56299615 0.069517575
v 0.9753051 0.64976877 0.069517575
v -0.41311726 0.053809255 0.039979514
v 0.95865965 0.6854243 0.029954854
v -0.39260864 0.009874933 0.08872883
v -0.32218564 -0.14098091 -0.06641552
v 1.0158112 0.5629962 -0.095953844
v -0.3426964 -0.09704579 -0.11516497
v 1.0324559 0.5273407 -0.056391
v -0.39260864 0.009875087 -0.115164936
v 0.95865965 0.6854243 -0.056390956
v -0.41311726 0.053809255 -0.06641548
v 0.9753051 0.6497688 -0.09595384
vt 0.9255568 0.41837162
vt 0.9181467 0.42629445
vt 0.92555666 0.42629445
vt 0.9181467 0.42629445
vt 0.9255568 0.41837162
vt 0.91814685 0.41837162
vt 0.826361 0.37791052
vt 0.8221573 0.38302666
vt 0.826361 0.38302666
vt 0.8221573 0.38302666
vt 0.826361 0.37791052
vt 0.8221573 0.37791052
vt 0.74396825 0.38446152
vt 0.73674846 0.37828925
vt 0.74396825 0.37828928
vt 0.73674846 0.37828925
vt 0.74396825 0.38446152
vt 0.73674846 0.38446152
vt 0.84939396 0.37697247
vt 0.8321384 0.38465133
vt 0.84939396 0.38465133
vt 0.8321384 0.38465133
vt 0.84939396 0.37697247
vt 0.8321384 0.37697247
vt 0.8557122 0.39545134
vt 0.8467448 0.39033523
vt 0.8557122 0.39033523
vt 0.8467448 0.39033523
vt 0.8557122 0.39545134
vt 0.8467448 0.39545134
vt 0.7454951 0.38449514
vt 0.7546028 0.37810212
vt 0.7454951 0.37810215
vt 0.7546028 0.37810212
vt 0.7454951 0.38449514
vt 0.7546028 0.3844951
vt 0.80596215 0.42405763
vt 0.8135099 0.41743642
vt 0.8059621 0.41743642
vt 0.8135099 0.41743642
vt 0.80596215 0.42405763
vt 0.8135099 0.42405763
vt 0.91531 0.41846693
vt 0.9051539 0.42639744
vt 0.91531 0.42639744
vt 0.9051539 0.42639744
vt 0.91531 0.41846693
vt 0.9051539 0.41846693
vt 0.73085415 0.41316688
vt 0.7287665 0.42597914
vt 0.73085415 0.42403787
vt 0.71336627 0.42403787
vt 0.7154536 0.42597914
vt 0.7154536 0.41122562
vt 0.7287665 0.41122562
vt 0.71336627 0.41316688
vt 0.9354997 0.40324008
vt 0.9238518 0.40039885
vt 0.9254306 0.40324008
vt 0.9254306 0.38164657
vt 0.9238518 0.38448787
vt 0.93707865 0.38448787
vt 0.93707865 0.40039885
vt 0.9354997 0.38164657
vt 0.855496 0.40924916
vt 0.83404464 0.42396852
vt 0.83404464 0.40924916
vt 0.855496 0.42396852
vt 0.7873793 0.4256602
vt 0.73487544 0.41067177
vt 0.73487544 0.4256602
vt 0.7873793 0.41067177
vt 0.8301135 0.42396852
vt 0.84700197 0.4092492
vt 0.84700197 0.42396852
vt 0.8301135 0.4092492
vt 0.9373566 0.41890454
vt 0.9285487 0.42566335
vt 0.9373566 0.42566335
vt 0.9285487 0.41890454
vt 0.85035473 0.4231847
vt 0.8333596 0.42023626
vt 0.8333595 0.4231847
vt 0.85035473 0.42023626
vt 0.8683265 0.38726506
vt 0.8812277 0.39621153
vt 0.8812277 0.38726506
vt 0.8683265 0.39621153
vt 0.75920874 0.3891417
vt 0.76525927 0.3968456
vt 0.76525927 0.3891417
vt 0.7592087 0.3968456
vt 0.86832637 0.38726506
vt 0.88122743 0.39621153
vt 0.88122743 0.38726506
vt 0.86832637 0.39621153
vt 0.7881417 0.39331305
vt 0.7782588 0.38951394
vt 0.7782588 0.39331305
vt 0.7881417 0.38951394
vt 0.77323234 0.3977665
vt 0.7707262 0.38769615
vt 0.7707262 0.39776647
vt 0.77323234 0.38769618
vt 0.8020313 0.38656935
vt 0.81791747 0.37649888
vt 0.81791747 0.38656938
vt 0.8020313 0.37649882
vt 0.8493378 0.41452643
vt 0.84243995 0.4107812
vt 0.84243995 0.41452643
vt 0.8493378 0.4107812
vt 0.81792533 0.41589785
vt 0.8022561 0.41092435
vt 0.8022561 0.41589782
vt 0.81792533 0.4109244
vt 0.84366775 0.41480756
vt 0.8503644 0.41082573
vt 0.8503644 0.41480756
vt 0.84366775 0.41082573
vt 0.85984135 0.38934767
vt 0.8658919 0.3949365
vt 0.8658919 0.38934767
vt 0.85984135 0.3949365
vt 0.86522037 0.38858604
vt 0.85968643 0.3972776
vt 0.85968643 0.38858604
vt 0.86522037 0.3972776
vt 0.9693872 0.45959076
vt 0.9633957 0.45771825
vt 0.9652785 0.45959076
vt 0.9652785 0.45128882
vt 0.9633957 0.45316133
vt 0.97126997 0.45316133
vt 0.97126997 0.45771825
vt 0.9693872 0.45128882
vt -0.31235778 1.870047
vt 0.46209395 2.1091392
vt 0.23654568 1.870047
vt 0.23654568 2.8700469
vt 0.46209395 2.6309547
vt -0.53790605 2.6309547
vt -0.53790605 2.1091392
vt -0.31235778 2.8700469
vt 0.89885575 0.37954998
vt 0.9016519 0.4081351
vt 0.9016519 0.37954998
vt 0.89885575 0.4081351
vt 0.9050476 0.37954998
vt 0.90711606 0.4081351
vt 0.90711606 0.37954998
vt 0.9050476 0.4081351
vt 0.89885575 0.37954998
vt 0.9016519 0.4081351
vt 0.9016519 0.37954998
vt 0.89885575 0.4081351
vt 0.9049397 0.37954998
vt 0.9070087 0.4081351
vt 0.9070087 0.37954998
vt 0.9049397 0.4081351
vt 0.9170601 0.37954998
vt 0.91856253 0.4081351
vt 0.91856253 0.37954998
vt 0.9170601 0.4081351
vt 0.9183349 0.4081351
vt 0.916826 0.37954998
vt 0.916826 0.4081351
vt 0.9183349 0.37954998
vt 0.9166229 0.37954998
vt 0.91812533 0.4081351
vt 0.91812533 0.37954998
vt 0.9166229 0.4081351
vt 0.91652435 0.37954998
vt 0.91803324 0.4081351
vt 0.91803324 0.37954998
vt 0.91652435 0.4081351
vn -0.6039407 -0.7970292 0
vn -0.6039407 -0.7970292 0
vn -0.6039407 -0.7970292 0
vn -0.6039392 -0.7970305 5.147731E-07
vn -0.6039392 -0.7970305 5.147731E-07
vn -0.6039391 -0.7970305 5.1477303E-07
vn -0.37253696 -0.6913649 -0.61905634
vn -0.372537 -0.6913649 -0.6190564
vn -0.372537 -0.6913649 -0.6190564
vn -0.37253693 -0.69136417 -0.6190572
vn -0.37253693 -0.6913641 -0.6190572
vn -0.37253693 -0.6913641 -0.6190572
vn 0.99851006 -0.054567352 0
vn 0.99851006 -0.05456735 0
vn 0.99851006 -0.054567352 0
vn 0.9985098 -0.054571647 -8.7455396E-07
vn 0.9985098 -0.054571647 -8.7455396E-07
vn 0.9985098 -0.05457165 -8.74554E-07
vn 0.1941369 -0.430406 0.881511
vn 0.19413689 -0.430406 0.881511
vn 0.1941369 -0.430406 0.881511
vn 0.19413467 -0.4304031 0.8815128
vn 0.19413467 -0.43040308 0.8815129
vn 0.19413467 -0.43040305 0.8815129
vn -0.3725395 -0.69136655 0.6190531
vn -0.37253943 -0.69136643 0.6190531
vn -0.37253943 -0.6913665 0.6190531
vn -0.37252918 -0.6913691 0.61905634
vn -0.3725292 -0.6913691 0.6190564
vn -0.37252918 -0.6913691 0.6190564
vn 0.6039442 0.79702663 3.7434057E-07
vn 0.6039442 0.79702663 3.7434057E-07
vn 0.6039442 0.79702663 3.743406E-07
vn 0.6039441 0.7970267 4.0499944E-07
vn 0.603944 0.7970267 4.049994E-07
vn 0.603944 0.7970267 4.0499944E-07
vn 0.37253973 0.6913641 -0.61905545
vn 0.3725398 0.6913641 -0.6190555
vn 0.3725398 0.6913641 -0.6190555
vn 0.37253976 0.6913653 -0.6190543
vn 0.3725398 0.69136524 -0.6190543
vn 0.37253982 0.69136524 -0.61905426
vn -0.99850994 0.054570384 0
vn -0.99850994 0.054570377 0
vn -0.99850994 0.05457038 0
vn -0.99850994 0.054569118 2.2596173E-07
vn -0.99850994 0.054569118 2.2596173E-07
vn -0.99850994 0.054569114 2.2596174E-07
vn 0.41116273 -0.91156197 -6.5881875E-07
vn 0.41116267 -0.91156197 1.1859748E-06
vn 0.41116065 -0.91156286 5.887454E-07
vn 0.41116288 -0.91156197 2.941083E-06
vn 0.41116273 -0.91156197 9.7562015E-06
vn 0.41116232 -0.91156214 -6.596476E-07
vn 0.41116259 -0.91156197 -2.7284482E-06
vn 0.41116196 -0.91156226 -5.993831E-07
vn -0.41116253 0.9115621 1.9832154E-07
vn -0.41116235 0.91156214 2.4500391E-06
vn -0.41116172 0.91156244 8.027014E-06
vn -0.41116354 0.91156155 0
vn -0.41116554 0.91156065 4.631985E-07
vn -0.41116288 0.91156197 -3.2573914E-07
vn -0.41116217 0.91156214 -3.5827E-07
vn -0.4111629 0.91156185 -4.8648474E-07
vn -0.02418982 0.05363061 0.99826777
vn -0.024189908 0.053630613 0.99826777
vn -0.024189763 0.05363061 0.99826777
vn -0.024189975 0.053630613 0.99826777
vn 0.8770731 0.48035687 0
vn 0.87707305 0.4803569 1.2972889E-07
vn 0.8770731 0.48035687 0
vn 0.87707305 0.48035696 2.2560992E-07
vn -0.024190431 0.05363012 -0.99826777
vn -0.024190431 0.05363012 -0.99826777
vn -0.024190428 0.05363012 -0.99826777
vn -0.024190433 0.05363012 -0.99826777
vn -0.93148124 -0.3637895 0
vn -0.93148124 -0.3637895 1.2732336E-07
vn -0.93148124 -0.36378944 0
vn -0.93148124 -0.3637895 1.7086148E-07
vn 0.609635 0.3685298 0.7018055
vn 0.6096335 0.36852935 0.7018071
vn 0.6096352 0.36852983 0.7018053
vn 0.6096333 0.36852932 0.7018072
vn -0.67312884 -0.23016918 0.70279413
vn -0.6731327 -0.23017028 0.7027901
vn -0.67312855 -0.23016912 0.70279455
vn -0.673133 -0.23017037 0.7027898
vn 0.6096327 0.36852878 -0.7018081
vn 0.6096354 0.36853066 -0.70180464
vn 0.60963255 0.36852857 -0.7018084
vn 0.6096358 0.36853078 -0.7018044
vn -0.6731298 -0.230169 -0.7027935
vn -0.6731293 -0.23016876 -0.7027938
vn -0.6731298 -0.230169 -0.7027935
vn -0.6731293 -0.23016876 -0.70279384
vn 0.19413202 -0.43039656 -0.8815167
vn 0.19413202 -0.43039656 -0.8815167
vn 0.19413202 -0.43039656 -0.8815167
vn 0.1941326 -0.43039945 -0.8815151
vn 0.7639866 -0.16480656 -0.62382954
vn 0.7639866 -0.16480656 -0.62382954
vn 0.7639866 -0.16480656 -0.6238295
vn 0.76399225 -0.16479503 -0.6238256
vn 0.7639894 -0.16480523 0.6238265
vn 0.7639894 -0.16480523 0.62382644
vn 0.7639894 -0.16480523 0.62382644
vn 0.76398575 -0.16480225 0.6238317
vn -0.19413312 0.43040043 0.8815145
vn -0.19413312 0.43040043 0.8815145
vn -0.19413312 0.4304005 0.8815145
vn -0.19413179 0.43039873 0.88151556
vn 0.37253645 0.69136375 0.6190581
vn 0.37253642 0.6913637 0.6190581
vn 0.37253648 0.6913637 0.619058
vn 0.37253925 0.691363 0.6190572
vn -0.19413339 0.43039948 -0.88151485
vn -0.1941334 0.43039945 -0.8815149
vn -0.19413339 0.43039948 -0.88151485
vn -0.19413355 0.43040022 -0.8815145
vn -0.7639876 0.16480573 -0.6238286
vn -0.76398766 0.16480573 -0.6238286
vn -0.7639876 0.16480573 -0.6238286
vn -0.7639895 0.16480185 -0.6238272
vn -0.76398593 0.16480511 0.6238308
vn -0.76398593 0.16480511 0.6238308
vn -0.76398593 0.16480511 0.6238308
vn -0.76398987 0.16480839 0.62382495
vn -0.90613145 -0.42299613 -3.0814688E-06
vn -0.90613097 -0.4229971 5.7753496E-06
vn -0.9061357 -0.42298722 0
vn -0.9061299 -0.42299962 3.8620797E-06
vn -0.90613174 -0.4229956 2.2460761E-05
vn -0.9061299 -0.42299965 -6.037458E-06
vn -0.9061314 -0.42299625 -1.1364927E-05
vn -0.9061221 -0.42301634 3.0546084E-07
vn 0.9061301 0.4229992 -1.2399998E-06
vn 0.90613276 0.4229936 8.3669056E-07
vn 0.906134 0.42299086 8.066209E-06
vn 0.90613157 0.42299595 1.0693105E-06
vn 0.9061304 0.42299855 3.7637176E-07
vn 0.9061301 0.42299914 2.187225E-06
vn 0.90612334 0.4230135 0
vn 0.9061339 0.42299086 2.5679043E-05
vn 0.011526219 0.0053802733 0.99991906
vn 0.011526119 0.0053805276 0.99991906
vn 0.011526224 0.0053802626 0.99991906
vn 0.011526112 0.0053805406 0.99991906
vn 0.44244117 -0.8967975 5.9483193E-07
vn 0.4424411 -0.8967975 -7.334765E-07
vn 0.44244117 -0.8967975 6.47579E-07
vn 0.4424411 -0.8967976 -7.979443E-07
vn 0.011525883 0.0053807967 -0.9999192
vn 0.011526013 0.0053805658 -0.9999192
vn 0.011525877 0.0053808074 -0.9999192
vn 0.01152602 0.005380553 -0.9999192
vn -0.41823223 0.9083401 0
vn -0.41823226 0.9083401 0
vn -0.41823223 0.9083402 0
vn -0.41823223 0.9083401 0
vn 0.31794733 -0.6338816 0.7050558
vn 0.3179494 -0.6338869 0.7050501
vn 0.3179472 -0.6338814 0.7050559
vn 0.31794947 -0.63388705 0.70504993
vn -0.29228476 0.64599234 0.70516914
vn -0.29228818 0.646001 0.7051599
vn -0.29228467 0.64599216 0.7051693
vn -0.29228827 0.6460011 0.70515966
vn 0.31794736 -0.6338825 -0.70505494
vn 0.3179502 -0.6338874 -0.7050492
vn 0.31794733 -0.63388234 -0.7050551
vn 0.3179503 -0.6338876 -0.705049
vn -0.2922895 0.6460026 -0.7051578
vn -0.29228514 0.6459945 -0.705167
vn -0.2922896 0.64600277 -0.70515764
vn -0.29228503 0.6459943 -0.70516723
g center_parts_8_0
f 3/3/3 2/2/2 1/1/1
f 6/6/6 5/5/5 4/4/4
f 9/9/9 8/8/8 7/7/7
f 12/12/12 11/11/11 10/10/10
f 15/15/15 14/14/14 13/13/13
f 18/18/18 17/17/17 16/16/16
f 21/21/21 20/20/20 19/19/19
f 24/24/24 23/23/23 22/22/22
f 27/27/27 26/26/26 25/25/25
f 30/30/30 29/29/29 28/28/28
f 33/33/33 32/32/32 31/31/31
f 36/36/36 35/35/35 34/34/34
f 39/39/39 38/38/38 37/37/37
f 42/42/42 41/41/41 40/40/40
f 45/45/45 44/44/44 43/43/43
f 48/48/48 47/47/47 46/46/46
f 51/51/51 50/50/50 49/49/49
f 50/50/50 52/52/52 49/49/49
f 53/53/53 52/52/52 50/50/50
f 52/52/52 54/54/54 49/49/49
f 49/49/49 54/54/54 55/55/55
f 56/56/56 54/54/54 52/52/52
f 59/59/59 58/58/58 57/57/57
f 58/58/58 60/60/60 57/57/57
f 61/61/61 60/60/60 58/58/58
f 60/60/60 62/62/62 57/57/57
f 57/57/57 62/62/62 63/63/63
f 64/64/64 62/62/62 60/60/60
f 67/67/67 66/66/66 65/65/65
f 68/68/68 65/65/65 66/66/66
f 71/71/71 70/70/70 69/69/69
f 72/72/72 69/69/69 70/70/70
f 75/75/75 74/74/74 73/73/73
f 76/76/76 73/73/73 74/74/74
f 79/79/79 78/78/78 77/77/77
f 80/80/80 77/77/77 78/78/78
f 83/83/83 82/82/82 81/81/81
f 84/84/84 81/81/81 82/82/82
f 87/87/87 86/86/86 85/85/85
f 88/88/88 85/85/85 86/86/86
f 91/91/91 90/90/90 89/89/89
f 92/92/92 89/89/89 90/90/90
f 95/95/95 94/94/94 93/93/93
f 96/96/96 93/93/93 94/94/94
f 99/99/99 98/98/98 97/97/97
f 100/100/100 97/97/97 98/98/98
f 103/103/103 102/102/102 101/101/101
f 104/104/104 101/101/101 102/102/102
f 107/107/107 106/106/106 105/105/105
f 108/108/108 105/105/105 106/106/106
f 111/111/111 110/110/110 109/109/109
f 112/112/112 109/109/109 110/110/110
f 115/115/115 114/114/114 113/113/113
f 116/116/116 113/113/113 114/114/114
f 119/119/119 118/118/118 117/117/117
f 120/120/120 117/117/117 118/118/118
f 123/123/123 122/122/122 121/121/121
f 124/124/124 121/121/121 122/122/122
f 127/127/127 126/126/126 125/125/125
f 128/128/128 125/125/125 126/126/126
f 131/131/131 130/130/130 129/129/129
f 130/130/130 132/132/132 129/129/129
f 133/133/133 132/132/132 130/130/130
f 132/132/132 134/134/134 129/129/129
f 129/129/129 134/134/134 135/135/135
f 136/136/136 134/134/134 132/132/132
f 139/139/139 138/138/138 137/137/137
f 138/138/138 140/140/140 137/137/137
f 141/141/141 140/140/140 138/138/138
f 140/140/140 142/142/142 137/137/137
f 137/137/137 142/142/142 143/143/143
f 144/144/144 142/142/142 140/140/140
f 147/147/147 146/146/146 145/145/145
f 148/148/148 145/145/145 146/146/146
f 151/151/151 150/150/150 149/149/149
f 152/152/152 149/149/149 150/150/150
f 155/155/155 154/154/154 153/153/153
f 156/156/156 153/153/153 154/154/154
f 159/159/159 158/158/158 157/157/157
f 160/160/160 157/157/157 158/158/158
f 163/163/163 162/162/162 161/161/161
f 164/164/164 161/161/161 162/162/162
f 167/167/167 166/166/166 165/165/165
f 168/168/168 165/165/165 166/166/166
f 171/171/171 170/170/170 169/169/169
f 172/172/172 169/169/169 170/170/170
f 175/175/175 174/174/174 173/173/173
f 176/176/176 173/173/173 174/174/174
