g center_parts_5
v 0.34960443 0.29331455 0.13495535
v 0.34958813 -0.52042013 0.1311855
v 0.34435552 -0.5204441 0.24416323
v 0.34494844 0.2932995 0.24613944
v 0.34494844 0.2932995 0.24613944
v 0.34435552 -0.5204441 0.24416323
v 0.185397 -0.5210867 0.2442367
v 0.18537848 0.2928253 0.24621293
v 0.185397 -0.5210867 0.2442367
v 0.19112882 -0.52105904 0.1312541
v 0.19113566 0.29284254 0.13501808
v 0.18537848 0.2928253 0.24621293
v 0.19112882 -0.52105904 0.1312541
v 0.34958813 -0.52042013 0.1311855
v 0.34960443 0.29331455 0.13495535
v 0.19113566 0.29284254 0.13501808
vt 0.81748056 0.7505408
vt 0.81775767 0.7058647
vt 0.8094365 0.705863
vt 0.8092931 0.7505397
vt 0.81529754 0.7505872
vt 0.8152359 0.7054293
vt 0.7986916 0.70538545
vt 0.79868954 0.75055474
vt 0.8176124 0.705863
vt 0.8092912 0.70586485
vt 0.8095677 0.7505408
vt 0.81775767 0.7505396
vt 0.8152413 0.70538545
vt 0.7987486 0.7054291
vt 0.7987471 0.7505872
vt 0.81524074 0.750555
vn 0.9990282 -0.0005295843 0.044070743
vn 0.9990282 -0.00052958436 0.04407074
vn 0.9990282 -0.00052958424 0.04407074
vn 0.9990282 -0.00052958424 0.04407074
vn 0.00046986178 -0.0024284585 0.999997
vn 0.00046986178 -0.0024284583 0.999997
vn 0.00046986178 -0.0024284583 0.999997
vn 0.00046986178 -0.0024284583 0.999997
vn -0.99868935 0.0001733211 -0.05118243
vn -0.99868935 0.00017332108 -0.05118243
vn -0.99868935 0.00017332111 -0.051182427
vn -0.99868935 0.00017332111 -0.05118243
vn -0.00043062793 0.004628639 -0.9999893
vn -0.00043062796 0.004628639 -0.9999893
vn -0.00043062793 0.0046286387 -0.9999893
vn -0.00043062793 0.0046286387 -0.9999893
g center_parts_5_0
f 3/3/3 2/2/2 1/1/1
f 4/4/4 3/3/3 1/1/1
f 7/7/7 6/6/6 5/5/5
f 8/8/8 7/7/7 5/5/5
f 11/11/11 10/10/10 9/9/9
f 12/12/12 11/11/11 9/9/9
f 15/15/15 14/14/14 13/13/13
f 16/16/16 15/15/15 13/13/13
