g chair1_4
v 0.31660408 0.13858272 -0.26420963
v 0.31548035 0.17798723 -0.049923804
v 0.35385725 0.24459009 -0.21375705
v 0.27798408 0.07128794 -0.10070561
v 0.239208 0.058217496 -0.31458575
v 0.20008272 -0.009601964 -0.15141073
v -0.23944874 0.25392833 -0.3565062
v -0.22828008 0.07925611 -0.2225126
v -0.1863765 0.14649928 -0.38522652
v -0.28169894 0.18738633 -0.19360484
v -0.24801028 0.3694393 -0.31365818
v -0.2903162 0.30365154 -0.1504771
v -0.2107569 0.4754467 -0.26320577
v -0.2903162 0.30365154 -0.1504771
v -0.24801028 0.3694393 -0.31365818
v -0.2528198 0.41035104 -0.099695206
v -0.13336077 0.55581194 -0.21282956
v -0.17491832 0.49124074 -0.04899024
v -0.027604723 0.5982999 -0.17019928
v -0.06847153 0.5340061 -0.0060814936
v 0.09041143 0.5964425 -0.14180455
v 0.05031469 0.5321364 0.02249835
v 0.20272012 0.5505223 -0.13196869
v 0.1633567 0.48591644 0.03239862
v 0.29222372 0.46753016 -0.14218879
v 0.2534444 0.40238255 0.022111617
v 0.34529608 0.360101 -0.17090906
v 0.30686322 0.29425216 -0.006796147
v 0.35385725 0.24459009 -0.21375705
v 0.31548035 0.17798723 -0.049923804
v 0.09041143 0.5964425 -0.14180455
v 0.29222372 0.46753016 -0.14218879
v 0.20272012 0.5505223 -0.13196869
v -0.13336077 0.55581194 -0.21282956
v -0.027604723 0.5982999 -0.17019928
v -0.1863765 0.14649928 -0.38522652
v -0.24801028 0.3694393 -0.31365818
v -0.2107569 0.4754467 -0.26320577
v -0.23944874 0.25392833 -0.3565062
v 0.239208 0.058217496 -0.31458575
v 0.35385725 0.24459009 -0.21375705
v 0.34529608 0.360101 -0.17090906
v 0.31660408 0.13858272 -0.26420963
v 0.015435852 0.017587159 -0.38561064
v 0.13345182 0.015729612 -0.35721618
v -0.09687308 0.06350733 -0.39544663
v 0.06539833 -0.043578763 0.06105355
v 0.11369443 0.13233946 -0.1198754
v 0.060779754 0.045513336 0.09459125
v 0.118313 0.04324714 -0.15341331
v 0.11369443 0.13233946 -0.1198754
v 0.1766005 0.04122352 0.12149755
v 0.060779754 0.045513336 0.09459125
v 0.22951496 0.12804973 -0.09296918
v 0.1766005 0.04122352 0.12149755
v 0.23413377 0.038957562 -0.12650695
v 0.18121909 -0.04786855 0.087959774
v 0.22951496 0.12804973 -0.09296918
v -0.109860174 0.17871265 -0.15698232
v -0.18962649 0.009322444 0.018723119
v -0.16277458 0.091886476 0.057484478
v -0.13671255 0.09614867 -0.19574377
v -0.22070207 0.22144093 -0.16769873
v -0.16277458 0.091886476 0.057484478
v -0.27361652 0.13461478 0.046768058
v -0.109860174 0.17871265 -0.15698232
v -0.24755438 0.13887706 -0.20646016
v -0.27361652 0.13461478 0.046768058
v -0.3004689 0.052050855 0.008006626
v -0.22070207 0.22144093 -0.16769873
v 0.16284801 0.38708383 -0.0085939225
v 0.2207753 0.2575291 0.21658905
v 0.10993334 0.3002577 0.20587273
v 0.27369007 0.34435552 0.0021225272
v 0.13599591 0.3045199 -0.047355358
v 0.10993334 0.3002577 0.20587273
v 0.08308121 0.21769376 0.16711126
v 0.16284801 0.38708383 -0.0085939225
v 0.27369007 0.34435552 0.0021225272
v 0.19392323 0.17496517 0.17782764
v 0.2207753 0.2575291 0.21658905
v 0.24683774 0.26179153 -0.036638938
v -0.2079981 0.44427496 -0.077830754
v -0.14509152 0.3531589 0.16354229
v -0.26091254 0.35744873 0.13663603
v -0.09217697 0.43998528 -0.05092431
v -0.14509152 0.3531589 0.16354229
v -0.087558724 0.35089335 -0.08446211
v -0.14047313 0.26406687 0.13000448
v -0.09217697 0.43998528 -0.05092431
v -0.2562937 0.2683566 0.10309828
v -0.2079981 0.44427496 -0.077830754
v -0.26091254 0.35744873 0.13663603
v -0.20337935 0.3551828 -0.11136843
v -0.16394223 0.02577733 0.0888383
v -0.20115572 0.02577733 -0.467592
v 0.04253635 0.02577733 -0.35395652
v -0.51028657 0.02577733 -0.07266478
v -0.37206784 0.02577733 -0.36907598
v -0.25382903 0.03299317 -0.49260294
v -0.32943094 0.033187624 -0.46156073
v -0.30288592 0.054681025 -0.51323324
v -0.10625202 0.05519823 -0.064729184
v 0.4835558 0.05519823 0.1272725
v 0.024450444 0.05519823 0.29437307
v 0.35285342 0.05519823 -0.23182976
vt 0.12498904 0.55250746
vt 0.13082954 0.5325052
vt 0.13067263 0.5525074
vt 0.124832116 0.5325052
vt 0.11929089 0.55250746
vt 0.119142 0.5325052
vt 0.08992014 0.5525074
vt 0.09546137 0.5325052
vt 0.0953125 0.5525074
vt 0.089771256 0.5325052
vt 0.08393074 0.5525074
vt 0.08377382 0.5325052
vt 0.089614324 0.55250746
vt 0.08377382 0.5325052
vt 0.08393074 0.5525074
vt 0.089771256 0.5325052
vt 0.09531248 0.5525074
vt 0.09546137 0.5325052
vt 0.101405315 0.5525421
vt 0.101405315 0.5325052
vt 0.10730168 0.5525421
vt 0.10730168 0.5325052
vt 0.11319806 0.5525421
vt 0.11319806 0.5325052
vt 0.119142 0.5525421
vt 0.119142 0.5325052
vt 0.12468323 0.5525074
vt 0.124832116 0.5325052
vt 0.13067263 0.5525074
vt 0.13082954 0.5325052
vt 0.107319355 0.5550765
vt 0.11465871 0.5550765
vt 0.11097429 0.5550765
vt 0.09998002 0.5550765
vt 0.10366443 0.5550765
vt 0.09998002 0.5550765
vt 0.092735365 0.5550765
vt 0.09645294 0.5550765
vt 0.09645294 0.5550765
vt 0.11465871 0.5550765
vt 0.12190336 0.5550765
vt 0.11818577 0.5550765
vt 0.11818577 0.5550765
vt 0.10731936 0.5550765
vt 0.11097429 0.5550765
vt 0.10366443 0.5550765
vt 0.15043096 0.6883854
vt 0.15272754 0.7094594
vt 0.15272754 0.6883854
vt 0.15043096 0.7094594
vt 0.14908111 0.7094594
vt 0.13958523 0.6883854
vt 0.14908111 0.6883854
vt 0.13958524 0.7094594
vt 0.13627753 0.6883854
vt 0.138382 0.7094594
vt 0.138382 0.6883854
vt 0.13627753 0.7094594
vt 0.15272754 0.7094594
vt 0.15043096 0.6883854
vt 0.15272754 0.6883854
vt 0.15043096 0.7094594
vt 0.13958524 0.7094594
vt 0.14908111 0.6883854
vt 0.13958524 0.6883854
vt 0.14908111 0.7094594
vt 0.138382 0.7094594
vt 0.13627753 0.6883854
vt 0.138382 0.6883854
vt 0.13627753 0.7094594
vt 0.14921542 0.7094594
vt 0.13971953 0.6883854
vt 0.14921542 0.6883854
vt 0.13971953 0.7094594
vt 0.15272754 0.7094594
vt 0.15043096 0.6883854
vt 0.15272754 0.6883854
vt 0.15043096 0.7094594
vt 0.138382 0.7094594
vt 0.13627753 0.6883854
vt 0.138382 0.6883854
vt 0.13627753 0.7094594
vt 0.13971953 0.7094594
vt 0.14921544 0.6883854
vt 0.13971953 0.6883854
vt 0.14921544 0.7094594
vt 0.15043096 0.6883854
vt 0.15272754 0.7094594
vt 0.15272754 0.6883854
vt 0.15043096 0.7094594
vt 0.13627753 0.6883854
vt 0.138382 0.7094594
vt 0.138382 0.6883854
vt 0.13627753 0.7094594
vt 0.17322667 0.50103396
vt 0.14413944 0.5466925
vt 0.17322667 0.5466925
vt 0.1323101 0.50103396
vt 0.1323101 0.53059816
vt 0.138629 0.5466925
vt 0.1323101 0.5404696
vt 0.1323101 0.5466925
vt 0.1741908 0.50103396
vt 0.2131232 0.5466925
vt 0.2131232 0.50103396
vt 0.1741908 0.5466925
vn 0.85490036 -0.5186638 -0.011541668
vn 0.9701579 -0.19073373 0.14971459
vn 0.9705265 -0.18784119 0.15097713
vn 0.8536033 -0.52076846 -0.012714434
vn 0.746117 -0.659003 -0.094997324
vn 0.74611706 -0.659003 -0.09499733
vn -0.93796855 -0.15888481 -0.30817303
vn -0.8705712 -0.3333186 -0.36194548
vn -0.87057173 -0.33331802 -0.36194465
vn -0.9371451 -0.1618103 -0.3091545
vn -0.965185 0.19867659 -0.17013364
vn -0.9655487 0.19581693 -0.17138086
vn -0.8487053 0.52880865 -0.007802532
vn -0.9655487 0.19581693 -0.17138086
vn -0.965185 0.19867659 -0.17013364
vn -0.8499618 0.52676857 -0.008937967
vn -0.60231566 0.78291047 0.15577851
vn -0.60366535 0.782009 0.1550814
vn -0.2601012 0.9192954 0.29536986
vn -0.26065347 0.91919553 0.29519388
vn 0.124433175 0.9132975 0.38781965
vn 0.1251036 0.91315925 0.38792938
vn 0.48828912 0.7660413 0.41803646
vn 0.4898541 0.76504964 0.4180215
vn 0.7743394 0.503995 0.38260627
vn 0.7759486 0.5018672 0.38214278
vn 0.94223064 0.16974922 0.2887672
vn 0.943045 0.16685271 0.2877955
vn 0.9705265 -0.18784119 0.15097713
vn 0.9701579 -0.19073373 0.14971459
vn 0.22407646 0.35349855 -0.9082006
vn 0.22407646 0.35349846 -0.90820074
vn 0.22407514 0.35349667 -0.90820175
vn 0.22407667 0.35349825 -0.90820074
vn 0.22407709 0.35349697 -0.90820116
vn 0.22407643 0.35349864 -0.9082006
vn 0.22407599 0.35349855 -0.90820086
vn 0.22408028 0.3534959 -0.90820086
vn 0.2240773 0.3534991 -0.90820026
vn 0.2240764 0.35349897 -0.90820056
vn 0.22407664 0.3534986 -0.9082006
vn 0.22407632 0.35349843 -0.90820074
vn 0.2240753 0.35349944 -0.9082006
vn 0.22407648 0.35349908 -0.90820056
vn 0.2240756 0.35350227 -0.9081995
vn 0.22407605 0.35349807 -0.9082009
vn -0.9734759 0.034665626 -0.22614828
vn -0.9734759 0.034665797 -0.2261481
vn -0.9734759 0.03466555 -0.22614835
vn -0.9734759 0.034665883 -0.22614805
vn -0.0501466 0.9299957 0.36413342
vn -0.050146375 0.92999583 0.36413342
vn -0.050146207 0.92999583 0.3641334
vn -0.05014677 0.9299957 0.36413345
vn 0.9734759 -0.034664944 0.22614828
vn 0.9734759 -0.034663737 0.22614832
vn 0.9734759 -0.03466552 0.22614828
vn 0.973476 -0.034663167 0.22614832
vn 0.9338436 -0.3460995 0.0902841
vn 0.93384415 -0.3460977 0.090286076
vn 0.9338443 -0.34609678 0.090287
vn 0.93384343 -0.3461004 0.090283185
vn 0.2908335 0.85974735 0.4198219
vn 0.2908335 0.85974735 0.4198219
vn 0.29083356 0.85974735 0.4198219
vn 0.2908335 0.85974735 0.41982192
vn -0.933843 0.34610102 -0.09028528
vn -0.9338429 0.3461012 -0.090285264
vn -0.9338429 0.3461013 -0.090285264
vn -0.933843 0.3461009 -0.090285264
vn 0.29083365 0.85974663 0.41982314
vn 0.29083478 0.85974646 0.41982275
vn 0.29083562 0.85974634 0.4198224
vn 0.29083288 0.8597468 0.4198235
vn -0.93384343 0.34609926 -0.09028707
vn -0.9338433 0.34609947 -0.09028705
vn -0.9338433 0.3460996 -0.09028705
vn -0.93384343 0.34609914 -0.09028708
vn 0.9338431 -0.3461004 0.090285674
vn 0.93384343 -0.3460995 0.09028673
vn 0.9338435 -0.346099 0.09028721
vn 0.9338431 -0.34610084 0.09028519
vn -0.05014713 0.92999554 0.36413407
vn -0.05014636 0.92999566 0.36413386
vn -0.050145805 0.9299957 0.3641338
vn -0.050147682 0.9299954 0.3641342
vn 0.97347623 -0.034667626 0.22614658
vn 0.97347623 -0.034668397 0.22614658
vn 0.97347623 -0.034667265 0.22614656
vn 0.9734761 -0.03466876 0.22614656
vn -0.973476 0.034663133 -0.22614801
vn -0.9734761 0.03466329 -0.22614788
vn -0.973476 0.03466306 -0.2261481
vn -0.9734761 0.034663368 -0.22614783
vn -0 1 0
vn 0.022933895 0.99894494 0.03978724
vn -0 1 0
vn -0 1 0
vn 0.011382324 0.99968636 0.022308622
vn 0.10324495 0.9705483 0.2176616
vn 0.08089343 0.9782737 0.19088434
vn 0.19065852 0.867788 0.45890447
vn -0 1 0
vn -0 1 0
vn -0 1 0
vn -0 1 0
g chair1_4_0
f 3/3/3 2/2/2 1/1/1
f 4/4/4 1/1/1 2/2/2
f 1/1/1 4/4/4 5/5/5
f 6/6/6 5/5/5 4/4/4
f 9/9/9 8/8/8 7/7/7
f 10/10/10 7/7/7 8/8/8
f 7/7/7 10/10/10 11/11/11
f 12/12/12 11/11/11 10/10/10
f 15/15/15 14/14/14 13/13/13
f 16/16/16 13/13/13 14/14/14
f 13/13/13 16/16/16 17/17/17
f 18/18/18 17/17/17 16/16/16
f 17/17/17 18/18/18 19/19/19
f 20/20/20 19/19/19 18/18/18
f 19/19/19 20/20/20 21/21/21
f 22/22/22 21/21/21 20/20/20
f 21/21/21 22/22/22 23/23/23
f 24/24/24 23/23/23 22/22/22
f 23/23/23 24/24/24 25/25/25
f 26/26/26 25/25/25 24/24/24
f 25/25/25 26/26/26 27/27/27
f 28/28/28 27/27/27 26/26/26
f 27/27/27 28/28/28 29/29/29
f 30/30/30 29/29/29 28/28/28
f 33/33/33 32/32/32 31/31/31
f 32/32/32 34/34/34 31/31/31
f 34/34/34 35/35/35 31/31/31
f 36/36/36 34/34/34 32/32/32
f 37/37/37 34/34/34 36/36/36
f 38/38/38 34/34/34 37/37/37
f 39/39/39 37/37/37 36/36/36
f 40/40/40 36/36/36 32/32/32
f 41/41/41 40/40/40 32/32/32
f 42/42/42 41/41/41 32/32/32
f 43/43/43 40/40/40 41/41/41
f 44/44/44 36/36/36 40/40/40
f 45/45/45 44/44/44 40/40/40
f 46/46/46 36/36/36 44/44/44
f 49/49/49 48/48/48 47/47/47
f 50/50/50 47/47/47 48/48/48
f 53/53/53 52/52/52 51/51/51
f 54/54/54 51/51/51 52/52/52
f 57/57/57 56/56/56 55/55/55
f 58/58/58 55/55/55 56/56/56
f 61/61/61 60/60/60 59/59/59
f 62/62/62 59/59/59 60/60/60
f 65/65/65 64/64/64 63/63/63
f 66/66/66 63/63/63 64/64/64
f 69/69/69 68/68/68 67/67/67
f 70/70/70 67/67/67 68/68/68
f 73/73/73 72/72/72 71/71/71
f 74/74/74 71/71/71 72/72/72
f 77/77/77 76/76/76 75/75/75
f 78/78/78 75/75/75 76/76/76
f 81/81/81 80/80/80 79/79/79
f 82/82/82 79/79/79 80/80/80
f 85/85/85 84/84/84 83/83/83
f 86/86/86 83/83/83 84/84/84
f 89/89/89 88/88/88 87/87/87
f 90/90/90 87/87/87 88/88/88
f 93/93/93 92/92/92 91/91/91
f 94/94/94 91/91/91 92/92/92
f 97/97/97 96/96/96 95/95/95
f 96/96/96 98/98/98 95/95/95
f 99/99/99 98/98/98 96/96/96
f 96/96/96 100/100/100 99/99/99
f 101/101/101 99/99/99 100/100/100
f 101/101/101 100/100/100 102/102/102
f 105/105/105 104/104/104 103/103/103
f 106/106/106 103/103/103 104/104/104
