g chair1_2
v -0.35582727 0.33622313 -0.3445318
v -0.29815033 0.5411525 -0.33333582
v -0.31568667 0.5411525 -0.3094571
v -0.29815033 0.5411525 -0.33333582
v -0.35582727 0.33622313 -0.3445318
v -0.3359811 0.33622307 -0.36882785
v 0.33595067 0.33622307 -0.36882776
v 0.31565645 0.5411525 -0.30945697
v 0.29811993 0.5411525 -0.3333356
v 0.31565645 0.5411525 -0.30945697
v 0.33595067 0.33622307 -0.36882776
v 0.35579693 0.33622313 -0.34453171
v -0.3156867 0.5411527 0.24231629
v 0.31565645 0.5411525 -0.30945697
v 0.3156563 0.5411527 0.24231637
v 0.29811993 0.5411525 -0.3333356
v -0.31568667 0.5411525 -0.3094571
v -0.29815033 0.5411525 -0.33333582
v -0.29815033 0.5411525 -0.33333582
v 0.33595067 0.33622307 -0.36882776
v 0.29811993 0.5411525 -0.3333356
v -0.3359811 0.33622307 -0.36882785
v -0.3156867 0.5411527 0.24231629
v -0.35582727 0.33622313 -0.3445318
v -0.31568667 0.5411525 -0.3094571
v -0.3558274 0.33622319 0.24844053
v 0.31565645 0.5411525 -0.30945697
v 0.35579684 0.33622319 0.24844061
v 0.3156563 0.5411527 0.24231637
v 0.35579693 0.33622313 -0.34453171
v -0.15482607 0.3427425 -0.34278792
v -0.3352531 1.9207E-08 -0.34278792
v -0.15482607 1.9207E-08 -0.34278792
v -0.33525333 0.34274253 -0.34278792
v -0.15482609 0.3427425 -0.1991458
v -0.15482607 1.9207E-08 -0.34278792
v -0.15482609 3.8414E-08 -0.199146
v -0.15482607 0.3427425 -0.34278792
v -0.33525333 0.34274253 -0.34278792
v -0.33525312 3.8414E-08 -0.19914602
v -0.3352531 1.9207E-08 -0.34278792
v -0.33525312 0.3427425 -0.19914582
v 0.33525005 0.34274253 -0.34278783
v 0.15482277 1.9207E-08 -0.34278783
v 0.3352498 1.9207E-08 -0.34278783
v 0.15482277 0.3427425 -0.34278783
v 0.15482277 1.9207E-08 -0.34278783
v 0.15482277 0.3427425 -0.19914575
v 0.15482277 3.8414E-08 -0.19914594
v 0.15482277 0.3427425 -0.34278783
v 0.33524978 3.8414E-08 -0.19914593
v 0.33525005 0.34274253 -0.34278783
v 0.3352498 1.9207E-08 -0.34278783
v 0.33524978 0.3427425 -0.1991457
v 0.30705324 1.0608137 0.38509133
v -0.2983496 1.290333 0.4334419
v -0.3055814 1.0608137 0.38509125
v -0.2938087 1.2933984 0.43490234
v 0.3035511 1.290333 0.433442
v 0.2978406 1.2933984 0.4349025
v 0.2978406 1.2933984 0.4349025
v -0.29615247 1.2939482 0.527618
v -0.2938087 1.2933984 0.43490234
v 0.30270323 1.2939482 0.527618
v 0.30705324 1.0608137 0.38509133
v 0.30900893 1.2908292 0.52601475
v 0.3035511 1.290333 0.433442
v 0.31523925 1.0608137 0.47898924
v -0.2983496 1.290333 0.4334419
v -0.31046036 1.0608137 0.4789892
v -0.3055814 1.0608137 0.38509125
v -0.30116662 1.2908292 0.52601475
v 0.30900893 1.2908292 0.52601475
v 0.2978406 1.2933984 0.4349025
v 0.3035511 1.290333 0.433442
v 0.30270323 1.2939482 0.527618
v -0.29615247 1.2939482 0.527618
v -0.2983496 1.290333 0.4334419
v -0.2938087 1.2933984 0.43490234
v -0.30116662 1.2908292 0.52601475
v 0.31588882 0.48477417 0.15400596
v 0.22993991 1.0707256 0.39542353
v 0.21807124 0.48477417 0.15400589
v 0.30402017 1.0707257 0.39542365
v 0.31588882 0.48477417 0.15400596
v 0.30992296 1.0631384 0.4839128
v 0.30402017 1.0707257 0.39542365
v 0.32210806 0.44969192 0.23248796
v 0.22993991 1.0707256 0.39542353
v 0.211852 0.44969186 0.23248789
v 0.21807124 0.48477417 0.15400589
v 0.2240371 1.0631382 0.4839128
v 0.13658087 0.48477417 0.15400596
v 0.05063193 1.0707256 0.39542353
v 0.038763262 0.48477417 0.15400589
v 0.124712184 1.0707257 0.39542365
v 0.13658087 0.48477417 0.15400596
v 0.13061498 1.0631384 0.4839128
v 0.124712184 1.0707257 0.39542365
v 0.1428001 0.44969192 0.23248796
v 0.05063193 1.0707256 0.39542353
v 0.032544035 0.44969186 0.23248789
v 0.038763262 0.48477417 0.15400589
v 0.04472913 1.0631382 0.4839128
v -0.03792421 0.48477417 0.15400596
v -0.12387316 1.0707256 0.39542353
v -0.13574183 0.48477417 0.15400589
v -0.04979289 1.0707257 0.39542365
v -0.03792421 0.48477417 0.15400596
v -0.0438901 1.0631384 0.4839128
v -0.04979289 1.0707257 0.39542365
v -0.031704985 0.44969192 0.23248796
v -0.12387316 1.0707256 0.39542353
v -0.14196105 0.44969186 0.23248789
v -0.13574183 0.48477417 0.15400589
v -0.12977596 1.0631382 0.4839128
v -0.21640341 0.48477417 0.15400596
v -0.30235234 1.0707256 0.39542353
v -0.31422102 0.48477417 0.15400589
v -0.2282721 1.0707257 0.39542365
v -0.21640341 0.48477417 0.15400596
v -0.2223693 1.0631384 0.4839128
v -0.2282721 1.0707257 0.39542365
v -0.21018419 0.44969192 0.23248796
v -0.30235234 1.0707256 0.39542353
v -0.32044023 0.44969186 0.23248789
v -0.31422102 0.48477417 0.15400589
v -0.30825514 1.0631382 0.4839128
v -0.15482607 0.3427425 0.084647134
v -0.3352531 3.8414E-08 0.084647134
v -0.15482607 3.8414E-08 0.084647134
v -0.33525333 0.34274253 0.084647134
v -0.15482609 0.3427425 0.22828926
v -0.15482607 3.8414E-08 0.084647134
v -0.15482609 3.8414E-08 0.22828905
v -0.15482607 0.3427425 0.084647134
v -0.33525333 0.34274253 0.084647134
v -0.33525312 3.8414E-08 0.22828902
v -0.3352531 3.8414E-08 0.084647134
v -0.33525312 0.3427425 0.22828926
v 0.33525005 0.34274253 0.08464721
v 0.15482277 3.8414E-08 0.08464721
v 0.3352498 3.8414E-08 0.08464721
v 0.15482277 0.3427425 0.08464721
v 0.15482277 3.8414E-08 0.08464721
v 0.15482277 0.3427425 0.22828934
v 0.15482277 3.8414E-08 0.22828911
v 0.15482277 0.3427425 0.08464721
v 0.33524978 3.8414E-08 0.22828913
v 0.33525005 0.34274253 0.08464721
v 0.3352498 3.8414E-08 0.08464721
v 0.33524978 0.3427425 0.22828934
vt 0.083917044 0.82868654
vt 0.08098807 0.8354773
vt 0.083917044 0.8354773
vt 0.08098807 0.8354773
vt 0.083917044 0.82868654
vt 0.08098807 0.82868654
vt 0.020489639 0.82868654
vt 0.017571615 0.8354773
vt 0.020489639 0.8354773
vt 0.017571615 0.8354773
vt 0.020489639 0.82868654
vt 0.017571615 0.82868654
vt 0.06562996 0.49908578
vt 0.12420664 0.48118302
vt 0.12420664 0.49908543
vt 0.12258851 0.48055372
vt 0.06562996 0.4811834
vt 0.06729522 0.48055413
vt 0.080644205 0.8354773
vt 0.020833503 0.82868654
vt 0.020833503 0.8354773
vt 0.080644205 0.82868654
vt 0.09790697 0.8354773
vt 0.08426821 0.82868654
vt 0.08426821 0.8354773
vt 0.09790697 0.82868654
vt 0.017220436 0.8354773
vt 0.0010013643 0.82868654
vt 0.0010013643 0.8354773
vt 0.017220436 0.82868654
vt 0.24054137 0.9292086
vt 0.21317144 0.90223664
vt 0.24054137 0.90223664
vt 0.21317144 0.9292086
vt 0.24864887 0.9292086
vt 0.24109334 0.90223664
vt 0.24864887 0.90223664
vt 0.24109334 0.9292086
vt 0.21262716 0.9292086
vt 0.20507164 0.90223664
vt 0.21262719 0.90223664
vt 0.20507164 0.9292086
vt 0.21317144 0.9292086
vt 0.24054137 0.90223664
vt 0.21317144 0.90223664
vt 0.24054137 0.9292086
vt 0.24109334 0.90223664
vt 0.24864887 0.9292086
vt 0.24864887 0.90223664
vt 0.24109334 0.9292086
vt 0.20507164 0.90223664
vt 0.21262716 0.9292086
vt 0.21262719 0.90223664
vt 0.20507164 0.9292086
vt 0.06562996 0.49908578
vt 0.12420664 0.49113363
vt 0.12420664 0.49908563
vt 0.12258851 0.49085408
vt 0.06562996 0.49113378
vt 0.06729522 0.49085426
vt 0.080644205 0.8354773
vt 0.020833503 0.82868654
vt 0.020833503 0.8354773
vt 0.080644205 0.82868654
vt 0.09790697 0.8354773
vt 0.08426821 0.82868654
vt 0.08426821 0.8354773
vt 0.09790697 0.82868654
vt 0.017220436 0.8354773
vt 0.0010013643 0.82868654
vt 0.0010013643 0.8354773
vt 0.017220436 0.82868654
vt 0.083917044 0.82868654
vt 0.08098807 0.8354773
vt 0.083917044 0.8354773
vt 0.08098807 0.82868654
vt 0.020489639 0.82868654
vt 0.017571615 0.8354773
vt 0.020489639 0.8354773
vt 0.017571615 0.82868654
vt 0.06562996 0.49908578
vt 0.123397574 0.49099386
vt 0.12420664 0.49908563
vt 0.06646259 0.49099404
vt 0.09790697 0.8354773
vt 0.08426821 0.82868654
vt 0.08426821 0.8354773
vt 0.09790697 0.82868654
vt 0.017220436 0.8354773
vt 0.0010013643 0.82868654
vt 0.0010013643 0.8354773
vt 0.017220436 0.82868654
vt 0.06562996 0.49908578
vt 0.123397574 0.49099386
vt 0.12420664 0.49908563
vt 0.06646259 0.49099404
vt 0.09790697 0.8354773
vt 0.08426821 0.82868654
vt 0.08426821 0.8354773
vt 0.09790697 0.82868654
vt 0.017220436 0.8354773
vt 0.0010013643 0.82868654
vt 0.0010013643 0.8354773
vt 0.017220436 0.82868654
vt 0.06562996 0.49908578
vt 0.123397574 0.49099386
vt 0.12420664 0.49908563
vt 0.06646259 0.49099404
vt 0.09790697 0.8354773
vt 0.08426821 0.82868654
vt 0.08426821 0.8354773
vt 0.09790697 0.82868654
vt 0.017220436 0.8354773
vt 0.0010013643 0.82868654
vt 0.0010013643 0.8354773
vt 0.017220436 0.82868654
vt 0.06562996 0.49908578
vt 0.123397574 0.49099386
vt 0.12420664 0.49908563
vt 0.06646259 0.49099404
vt 0.09790697 0.8354773
vt 0.08426821 0.82868654
vt 0.08426821 0.8354773
vt 0.09790697 0.82868654
vt 0.017220436 0.8354773
vt 0.0010013643 0.82868654
vt 0.0010013643 0.8354773
vt 0.017220436 0.82868654
vt 0.24054137 0.9292086
vt 0.21317144 0.90223664
vt 0.24054137 0.90223664
vt 0.21317144 0.9292086
vt 0.24864887 0.9292086
vt 0.24109334 0.90223664
vt 0.24864887 0.90223664
vt 0.24109334 0.9292086
vt 0.21262716 0.9292086
vt 0.20507164 0.90223664
vt 0.21262719 0.90223664
vt 0.20507164 0.9292086
vt 0.21317144 0.9292086
vt 0.24054137 0.90223664
vt 0.21317144 0.90223664
vt 0.24054137 0.9292086
vt 0.24109334 0.90223664
vt 0.24864887 0.9292086
vt 0.24864887 0.90223664
vt 0.24109334 0.9292086
vt 0.20507164 0.90223664
vt 0.21262716 0.9292086
vt 0.21262719 0.90223664
vt 0.20507164 0.9292086
vn -0.7802171 0.25089473 -0.57298625
vn -0.7802171 0.25089473 -0.57298625
vn -0.7802171 0.25089473 -0.57298625
vn -0.7508901 0.24484658 -0.61336315
vn -0.75088996 0.24484655 -0.61336315
vn -0.75088996 0.24484655 -0.61336315
vn 0.7816882 0.2437276 -0.5740735
vn 0.7816883 0.24372758 -0.5740735
vn 0.7816882 0.2437276 -0.5740735
vn 0.7495465 0.25161007 -0.6122681
vn 0.74954665 0.2516101 -0.61226815
vn 0.74954665 0.25161013 -0.61226815
vn -0 1 -4.120324E-07
vn 1.4677265E-07 1 -2.4977675E-07
vn -0 1 -4.1771509E-07
vn 1.4109368E-07 1 -2.4287948E-07
vn -0 1 -2.6808038E-07
vn -0 1 0
vn 1.4972474E-07 0.1706512 -0.98533154
vn 2.707419E-07 0.17065157 -0.98533154
vn 3.1739404E-07 0.17065169 -0.9853314
vn 1.12661816E-07 0.17065106 -0.98533154
vn -0.9813514 0.19222268 -1.940115E-07
vn -0.9813514 0.19222257 -1.3908293E-07
vn -0.9813514 0.19222248 -1.1445465E-07
vn -0.9813514 0.19222276 -2.1562722E-07
vn 0.98135144 0.19222194 1.13909344E-07
vn 0.98135144 0.19222204 1.4568128E-07
vn 0.98135144 0.19222207 1.58829E-07
vn 0.98135144 0.19222192 1.0224297E-07
vn -0 0 -1
vn -0 0 -1
vn -0 0 -1
vn -0 0 -1
vn 1 0 0
vn 1 0 0
vn 1 0 0
vn 1 0 0
vn -1 -1.6989895E-07 9.317506E-07
vn -1 -5.025714E-07 1.3796391E-07
vn -1 -6.724698E-07 -2.6742887E-07
vn -1 0 1.337143E-06
vn -0 0 -1
vn -0 0 -1
vn -0 0 -1
vn -0 0 -1
vn -1 0 0
vn -1 0 0
vn -1 0 0
vn -1 0 0
vn 1 -5.0257154E-07 6.7282156E-07
vn 1 -1.6989925E-07 1.4666077E-06
vn 1 -6.724698E-07 2.6742902E-07
vn 1 0 1.8719998E-06
vn -0.00072501815 0.206844 -0.97837365
vn 0.02712813 0.2740691 -0.96132725
vn 1.2271259E-07 0.20613617 -0.97852325
vn 0.05102893 0.3339384 -0.9412126
vn -0.0010059559 0.26353368 -0.9646497
vn 2.3445497E-07 0.43013594 -0.90276414
vn -0 0.9999825 -0.005929662
vn -0 0.9999825 -0.0059296526
vn -0 0.9999825 -0.005929652
vn -0 0.9999825 -0.005929662
vn 0.9959912 0.040421057 -0.07979745
vn 0.9972994 0.03201678 -0.06609812
vn 0.99787617 0.027650895 -0.05898011
vn 0.9952258 0.044695646 -0.08676382
vn -0.998329 0.045645084 -0.03543771
vn -0.99795145 0.043313954 -0.04708425
vn -0.9977564 0.042359173 -0.051843684
vn -0.99844366 0.046604633 -0.030632878
vn 0.46629307 0.884043 -0.032229442
vn 0.46629313 0.884043 -0.032229442
vn 0.46629313 0.884043 -0.032229442
vn 0.4373887 0.8988281 -0.028269505
vn -0.555197 0.8315027 -0.018965514
vn -0.555197 0.8315027 -0.018965516
vn -0.5551969 0.8315027 -0.018965514
vn -0.5233351 0.8518805 -0.020491078
vn 7.203652E-07 0.3809435 -0.92459834
vn 6.557273E-07 0.3809435 -0.92459834
vn 7.261989E-07 0.38094348 -0.92459834
vn 6.48193E-07 0.38094348 -0.92459834
vn 0.99724245 0.044264454 -0.059566926
vn 0.9970112 0.04578144 -0.06223057
vn 0.9969817 0.045970965 -0.06256337
vn 0.9972645 0.04411629 -0.05930678
vn -0.9970208 0.0453989 -0.062357277
vn -0.99723524 0.04463251 -0.059412334
vn -0.9972567 0.044553936 -0.059110485
vn -0.99700207 0.045464225 -0.06260836
vn 7.203652E-07 0.3809435 -0.92459834
vn 6.5572726E-07 0.38094348 -0.92459834
vn 7.261989E-07 0.38094348 -0.92459834
vn 6.48193E-07 0.38094348 -0.92459834
vn 0.99724245 0.044264454 -0.059566926
vn 0.9970112 0.04578144 -0.06223057
vn 0.9969817 0.045970965 -0.06256337
vn 0.9972645 0.04411629 -0.05930678
vn -0.9970208 0.04539885 -0.06235718
vn -0.99723524 0.044632483 -0.059412334
vn -0.9972567 0.04455392 -0.059110496
vn -0.99700207 0.045464184 -0.06260825
vn 7.2036516E-07 0.3809435 -0.92459834
vn 6.557271E-07 0.38094348 -0.92459834
vn 7.2619883E-07 0.38094348 -0.92459834
vn 6.4819295E-07 0.38094348 -0.92459834
vn 0.99724245 0.044264454 -0.059566926
vn 0.9970112 0.04578144 -0.06223057
vn 0.9969817 0.045970965 -0.06256337
vn 0.9972645 0.04411629 -0.05930678
vn -0.9970208 0.04539885 -0.06235718
vn -0.99723524 0.044632483 -0.059412334
vn -0.9972567 0.04455392 -0.059110496
vn -0.99700207 0.045464184 -0.06260825
vn 7.203652E-07 0.3809435 -0.92459834
vn 6.557273E-07 0.3809435 -0.92459834
vn 7.261989E-07 0.38094348 -0.92459834
vn 6.48193E-07 0.38094348 -0.92459834
vn 0.99724245 0.044264454 -0.059566926
vn 0.9970112 0.04578144 -0.06223057
vn 0.9969817 0.045970965 -0.06256337
vn 0.9972645 0.04411629 -0.05930678
vn -0.9970208 0.0453989 -0.062357277
vn -0.99723524 0.04463251 -0.059412334
vn -0.9972567 0.044553936 -0.059110485
vn -0.99700207 0.045464225 -0.06260836
vn -0 0 -1
vn -0 0 -1
vn -0 0 -1
vn -0 0 -1
vn 1 0 0
vn 1 0 0
vn 1 0 0
vn 1 0 0
vn -1 -1.6989911E-07 9.317504E-07
vn -1 -5.0257154E-07 1.3796378E-07
vn -1 -6.724699E-07 -2.6742896E-07
vn -1 0 1.3371426E-06
vn -0 0 -1
vn -0 0 -1
vn -0 0 -1
vn -0 0 -1
vn -1 0 0
vn -1 0 0
vn -1 0 0
vn -1 0 0
vn 1 -5.025716E-07 6.728215E-07
vn 1 -1.698993E-07 1.4666077E-06
vn 1 -6.724698E-07 2.6742893E-07
vn 1 0 1.8719998E-06
g chair1_2_0
f 3/3/3 2/2/2 1/1/1
f 6/6/6 5/5/5 4/4/4
f 9/9/9 8/8/8 7/7/7
f 12/12/12 11/11/11 10/10/10
f 15/15/15 14/14/14 13/13/13
f 14/14/14 16/16/16 13/13/13
f 16/16/16 17/17/17 13/13/13
f 18/18/18 17/17/17 16/16/16
f 21/21/21 20/20/20 19/19/19
f 22/22/22 19/19/19 20/20/20
f 25/25/25 24/24/24 23/23/23
f 26/26/26 23/23/23 24/24/24
f 29/29/29 28/28/28 27/27/27
f 30/30/30 27/27/27 28/28/28
f 33/33/33 32/32/32 31/31/31
f 34/34/34 31/31/31 32/32/32
f 37/37/37 36/36/36 35/35/35
f 38/38/38 35/35/35 36/36/36
f 41/41/41 40/40/40 39/39/39
f 42/42/42 39/39/39 40/40/40
f 45/45/45 44/44/44 43/43/43
f 46/46/46 43/43/43 44/44/44
f 49/49/49 48/48/48 47/47/47
f 50/50/50 47/47/47 48/48/48
f 53/53/53 52/52/52 51/51/51
f 54/54/54 51/51/51 52/52/52
f 57/57/57 56/56/56 55/55/55
f 56/56/56 58/58/58 55/55/55
f 58/58/58 59/59/59 55/55/55
f 60/60/60 59/59/59 58/58/58
f 63/63/63 62/62/62 61/61/61
f 64/64/64 61/61/61 62/62/62
f 67/67/67 66/66/66 65/65/65
f 68/68/68 65/65/65 66/66/66
f 71/71/71 70/70/70 69/69/69
f 72/72/72 69/69/69 70/70/70
f 75/75/75 74/74/74 73/73/73
f 76/76/76 73/73/73 74/74/74
f 79/79/79 78/78/78 77/77/77
f 80/80/80 77/77/77 78/78/78
f 83/83/83 82/82/82 81/81/81
f 84/84/84 81/81/81 82/82/82
f 87/87/87 86/86/86 85/85/85
f 88/88/88 85/85/85 86/86/86
f 91/91/91 90/90/90 89/89/89
f 92/92/92 89/89/89 90/90/90
f 95/95/95 94/94/94 93/93/93
f 96/96/96 93/93/93 94/94/94
f 99/99/99 98/98/98 97/97/97
f 100/100/100 97/97/97 98/98/98
f 103/103/103 102/102/102 101/101/101
f 104/104/104 101/101/101 102/102/102
f 107/107/107 106/106/106 105/105/105
f 108/108/108 105/105/105 106/106/106
f 111/111/111 110/110/110 109/109/109
f 112/112/112 109/109/109 110/110/110
f 115/115/115 114/114/114 113/113/113
f 116/116/116 113/113/113 114/114/114
f 119/119/119 118/118/118 117/117/117
f 120/120/120 117/117/117 118/118/118
f 123/123/123 122/122/122 121/121/121
f 124/124/124 121/121/121 122/122/122
f 127/127/127 126/126/126 125/125/125
f 128/128/128 125/125/125 126/126/126
f 131/131/131 130/130/130 129/129/129
f 132/132/132 129/129/129 130/130/130
f 135/135/135 134/134/134 133/133/133
f 136/136/136 133/133/133 134/134/134
f 139/139/139 138/138/138 137/137/137
f 140/140/140 137/137/137 138/138/138
f 143/143/143 142/142/142 141/141/141
f 144/144/144 141/141/141 142/142/142
f 147/147/147 146/146/146 145/145/145
f 148/148/148 145/145/145 146/146/146
f 151/151/151 150/150/150 149/149/149
f 152/152/152 149/149/149 150/150/150
