g cliff_outdoor_stone_1
v -0.58668506 -1.7193363 -0.4697032
v -0.5403949 -1.7783679 -0.48276427
v -0.5383539 -1.721328 -0.5048112
v 0.25023392 -1.8472761 -0.49098414
v 0.30527472 -1.7970757 -0.4789766
v 0.24715176 -1.7897891 -0.5129779
v -0.52094 -0.94816774 -0.28355256
v -0.47230348 -0.95070565 -0.31057027
v -0.46582353 -0.89797395 -0.27154553
v 0.30918637 -1.0188168 -0.31869513
v 0.36515778 -1.0253965 -0.292765
v 0.31870756 -0.9663503 -0.27970225
v -1.3020798 -1.0630175 -0.25863805
v -1.2650684 -1.0874761 -0.27088103
v -1.2596157 -1.0577686 -0.31863314
v -0.37046185 -1.0874761 -0.27088115
v -0.33341435 -1.0630175 -0.25863805
v -0.37441757 -1.0577686 -0.31863314
v -1.2983884 -0.65544754 -0.029098019
v -1.2588739 -0.6518332 -0.07040679
v -1.2611822 -0.63079 -0.019127993
v -0.3749556 -0.6518334 -0.07040679
v -0.3361616 -0.6554475 -0.029098019
v -0.37328106 -0.63078994 -0.019127917
v -1.2064096 -2.8799787 -0.81778675
v -1.1652644 -2.8888476 -0.8227865
v -1.1633822 -2.8527834 -0.88183326
v -0.7757328 -2.7492235 -0.7981669
v -0.7493865 -2.7161636 -0.7889015
v -0.7774472 -2.7144485 -0.85744107
v -1.3436987 -2.4702647 -0.6920689
v -1.3035986 -2.4512818 -0.74158245
v -1.3175886 -2.4366076 -0.6857277
v -0.5104614 -1.8143348 0.036799576
v 0.335224 -1.8880417 0.028007245
v 0.25023392 -1.8472761 -0.49098414
v -0.5403949 -1.7783679 -0.48276427
v 0.38001385 -0.9982896 0.13414466
v -0.44423088 -0.9264523 0.14271417
v -0.46582353 -0.89797395 -0.27154553
v 0.31870756 -0.9663503 -0.27970225
v 0.39236838 -1.837641 0.034019362
v 0.4303976 -1.0580615 0.12701449
v 0.36515778 -1.0253965 -0.292765
v 0.30527472 -1.7970757 -0.4789766
v 0.24715176 -1.7897891 -0.5129779
v 0.30918637 -1.0188168 -0.31869513
v -0.47230348 -0.95070565 -0.31057027
v -0.5383539 -1.721328 -0.5048112
v -0.58668506 -1.7193363 -0.4697032
v -0.52094 -0.94816774 -0.28355256
v -0.5014942 -0.97684175 0.1367032
v -0.5607254 -1.7545733 0.043928638
v -0.5104614 -1.8143348 0.036799576
v -0.5403949 -1.7783679 -0.48276427
v -0.58668506 -1.7193363 -0.4697032
v -0.5607254 -1.7545733 0.043928638
v -0.5403949 -1.7783679 -0.48276427
v 0.25023392 -1.8472761 -0.49098414
v 0.24715176 -1.7897891 -0.5129779
v -0.5383539 -1.721328 -0.5048112
v 0.25023392 -1.8472761 -0.49098414
v 0.335224 -1.8880417 0.028007245
v 0.39236838 -1.837641 0.034019362
v 0.30527472 -1.7970757 -0.4789766
v 0.38001385 -0.9982896 0.13414466
v 0.31870756 -0.9663503 -0.27970225
v 0.36515778 -1.0253965 -0.292765
v 0.4303976 -1.0580615 0.12701449
v 0.30918637 -1.0188168 -0.31869513
v 0.31870756 -0.9663503 -0.27970225
v -0.46582353 -0.89797395 -0.27154553
v -0.47230348 -0.95070565 -0.31057027
v -0.46582353 -0.89797395 -0.27154553
v -0.44423088 -0.9264523 0.14271417
v -0.5014942 -0.97684175 0.1367032
v -0.52094 -0.94816774 -0.28355256
v 0.24715176 -1.7897891 -0.5129779
v 0.30527472 -1.7970757 -0.4789766
v 0.36515778 -1.0253965 -0.292765
v 0.30918637 -1.0188168 -0.31869513
v -0.5383539 -1.721328 -0.5048112
v -0.47230348 -0.95070565 -0.31057027
v -0.52094 -0.94816774 -0.28355256
v -0.58668506 -1.7193363 -0.4697032
v -1.2901646 -1.1335033 0.25521106
v -0.35225546 -1.1335033 0.25521114
v -0.37046185 -1.0874761 -0.27088115
v -1.2650684 -1.0874761 -0.27088103
v -1.272706 -0.6584277 0.29677498
v -1.2611822 -0.63079 -0.019127993
v -0.37328106 -0.63078994 -0.019127917
v -0.36492106 -0.65842813 0.2967749
v -0.31391576 -1.1081674 0.25742754
v -0.32654414 -0.68376386 0.2945585
v -0.3361616 -0.6554475 -0.029098019
v -0.33341435 -1.0630175 -0.25863805
v -0.37441757 -1.0577686 -0.31863314
v -0.3749556 -0.6518334 -0.07040679
v -1.2588739 -0.6518332 -0.07040679
v -1.2596157 -1.0577686 -0.31863314
v -1.3020798 -1.0630175 -0.25863805
v -1.2983884 -0.65544754 -0.029098019
v -1.3113098 -0.6837637 0.2945585
v -1.3282769 -1.1081674 0.25742754
v -1.2901646 -1.1335033 0.25521106
v -1.2650684 -1.0874761 -0.27088103
v -1.3020798 -1.0630175 -0.25863805
v -1.3282769 -1.1081674 0.25742754
v -1.2650684 -1.0874761 -0.27088103
v -0.37046185 -1.0874761 -0.27088115
v -0.37441757 -1.0577686 -0.31863314
v -1.2596157 -1.0577686 -0.31863314
v -0.37046185 -1.0874761 -0.27088115
v -0.35225546 -1.1335033 0.25521114
v -0.31391576 -1.1081674 0.25742754
v -0.33341435 -1.0630175 -0.25863805
v -0.36492106 -0.65842813 0.2967749
v -0.37328106 -0.63078994 -0.019127917
v -0.3361616 -0.6554475 -0.029098019
v -0.32654414 -0.68376386 0.2945585
v -0.37328106 -0.63078994 -0.019127917
v -1.2611822 -0.63079 -0.019127993
v -1.2588739 -0.6518332 -0.07040679
v -0.3749556 -0.6518334 -0.07040679
v -1.2611822 -0.63079 -0.019127993
v -1.272706 -0.6584277 0.29677498
v -1.3113098 -0.6837637 0.2945585
v -1.2983884 -0.65544754 -0.029098019
v -0.33341435 -1.0630175 -0.25863805
v -0.3361616 -0.6554475 -0.029098019
v -0.3749556 -0.6518334 -0.07040679
v -0.37441757 -1.0577686 -0.31863314
v -1.2596157 -1.0577686 -0.31863314
v -1.2588739 -0.6518332 -0.07040679
v -1.2983884 -0.65544754 -0.029098019
v -1.3020798 -1.0630175 -0.25863805
v -1.1652644 -2.8888476 -0.8227865
v -1.2022313 -2.9189286 -0.6000395
v -1.0510594 -2.8647425 -0.59048504
v -1.0191901 -2.836489 -0.81355417
v -0.79910636 -2.7744322 -0.5745609
v -0.7757328 -2.7492235 -0.7981669
v -1.3362722 -2.457635 -0.5187009
v -1.3175886 -2.4366076 -0.6857277
v -1.1735187 -2.3841035 -0.6823619
v -1.1762059 -2.4028766 -0.50686353
v -1.0166484 -2.4585688 -0.6926705
v -1.033354 -2.48106 -0.5170128
v -0.84922916 -2.5102146 -0.52506274
v -0.8302569 -2.4848225 -0.72859144
v -0.77101004 -2.7401562 -0.56851715
v -0.84922916 -2.5102146 -0.52506274
v -0.8302569 -2.4848225 -0.72859144
v -0.7493865 -2.7161636 -0.7889015
v -1.244305 -2.9098046 -0.5984307
v -1.2064096 -2.8799787 -0.81778675
v -1.2750542 -2.6750858 -0.74355114
v -1.3079001 -2.7026336 -0.561901
v -1.3436987 -2.4702647 -0.6920689
v -1.3714951 -2.4954631 -0.525371
v -1.2022313 -2.9189286 -0.6000395
v -1.1652644 -2.8888476 -0.8227865
v -1.2064096 -2.8799787 -0.81778675
v -1.244305 -2.9098046 -0.5984307
v -1.1633822 -2.8527834 -0.88183326
v -1.1652644 -2.8888476 -0.8227865
v -1.0191901 -2.836489 -0.81355417
v -1.0186566 -2.800908 -0.87268615
v -0.7757328 -2.7492235 -0.7981669
v -0.7774472 -2.7144485 -0.85744107
v -0.7757328 -2.7492235 -0.7981669
v -0.79910636 -2.7744322 -0.5745609
v -0.77101004 -2.7401562 -0.56851715
v -0.7493865 -2.7161636 -0.7889015
v -1.0166484 -2.4585688 -0.6926705
v -1.1602409 -2.3992505 -0.7388522
v -1.0267273 -2.4788728 -0.7488542
v -1.1735187 -2.3841035 -0.6823619
v -1.3035986 -2.4512818 -0.74158245
v -1.3175886 -2.4366076 -0.6857277
v -1.3175886 -2.4366076 -0.6857277
v -1.3362722 -2.457635 -0.5187009
v -1.3714951 -2.4954631 -0.525371
v -1.3436987 -2.4702647 -0.6920689
v -0.7493865 -2.7161636 -0.7889015
v -0.8302569 -2.4848225 -0.72859144
v -0.8592705 -2.4901018 -0.78941077
v -0.7774472 -2.7144485 -0.85744107
v -1.2064096 -2.8799787 -0.81778675
v -1.1633822 -2.8527834 -0.88183326
v -1.2334901 -2.6548398 -0.8013946
v -1.2750542 -2.6750858 -0.74355114
v -1.3035986 -2.4512818 -0.74158245
v -1.3436987 -2.4702647 -0.6920689
v -1.0267273 -2.4788728 -0.7488542
v -0.8592705 -2.4901018 -0.78941077
v -0.8302569 -2.4848225 -0.72859144
v -1.0166484 -2.4585688 -0.6926705
v -1.0186566 -2.800908 -0.87268615
v -1.2334901 -2.6548398 -0.8013946
v -1.1633822 -2.8527834 -0.88183326
v -1.0894487 -2.6025863 -0.7977337
v -0.7774472 -2.7144485 -0.85744107
v -1.3035986 -2.4512818 -0.74158245
v -0.8592705 -2.4901018 -0.78941077
v -1.1602409 -2.3992505 -0.7388522
v -1.0267273 -2.4788728 -0.7488542
vt 0.5259226 0.9498131
vt 0.5202714 0.9441807
vt 0.5202714 0.9498131
vt 0.5202714 0.9441807
vt 0.5259226 0.9498131
vt 0.5202714 0.9498131
vt 0.5259226 0.9882307
vt 0.5202714 0.9882307
vt 0.5202714 0.9974786
vt 0.5202714 0.9882307
vt 0.5259226 0.9882307
vt 0.5202714 0.9974786
vt 0.5259226 0.94970214
vt 0.5202714 0.94406974
vt 0.5202714 0.94970214
vt 0.5202714 0.94406974
vt 0.5259226 0.94970214
vt 0.5202714 0.94970214
vt 0.5259226 0.9881197
vt 0.5202714 0.9881197
vt 0.5202714 0.9973676
vt 0.5202714 0.9881197
vt 0.5259226 0.9881197
vt 0.5202714 0.9973676
vt 0.5258872 0.89266783
vt 0.52115595 0.8870354
vt 0.520236 0.89266783
vt 0.5202714 0.8870354
vt 0.5259226 0.89266783
vt 0.5202714 0.89266783
vt 0.5258872 0.9310854
vt 0.520236 0.9310854
vt 0.52115595 0.9403333
vt 0.001244666 0.79151374
vt 0.02770414 0.7915136
vt 0.027704103 0.7398747
vt 0.001244666 0.73987484
vt 0.02770414 0.7915136
vt 0.001244666 0.79151374
vt 0.001244666 0.74611896
vt 0.027704103 0.74611884
vt 0.5588422 0.9498131
vt 0.5588422 0.9882307
vt 0.5259226 0.9882307
vt 0.5259226 0.9498131
vt 0.5202714 0.9498131
vt 0.5202714 0.9882307
vt 0.46503317 0.9882307
vt 0.46503317 0.9498131
vt 0.5259226 0.9498131
vt 0.5259226 0.9882307
vt 0.5588422 0.9882307
vt 0.5588422 0.9498131
vt 0.5588422 0.9441807
vt 0.5259226 0.9441807
vt 0.5259226 0.9498131
vt 0.5588422 0.9498131
vt 0.46503317 0.9441807
vt 0.5202714 0.9441807
vt 0.5202714 0.9498131
vt 0.46503317 0.9498131
vt 0.5259226 0.9441807
vt 0.5588422 0.9441807
vt 0.5588422 0.9498131
vt 0.5259226 0.9498131
vt 0.5588422 0.9974786
vt 0.5259226 0.9974786
vt 0.5259226 0.9882307
vt 0.5588422 0.9882307
vt 0.5202714 0.9882307
vt 0.5202714 0.9974786
vt 0.46503317 0.9974786
vt 0.46503317 0.9882307
vt 0.5259226 0.9974786
vt 0.5588422 0.9974786
vt 0.5588422 0.9882307
vt 0.5259226 0.9882307
vt 0.5202714 0.9498131
vt 0.5259226 0.9498131
vt 0.5259226 0.9882307
vt 0.5202714 0.9882307
vt 0.5202714 0.9498131
vt 0.5202714 0.9882307
vt 0.5259226 0.9882307
vt 0.5259226 0.9498131
vt 0.0016978082 0.7913967
vt 0.027374102 0.7913967
vt 0.027374076 0.7396898
vt 0.0016978082 0.73969
vt 0.0016978082 0.7913967
vt 0.0016978082 0.7511671
vt 0.027374076 0.75116694
vt 0.027374102 0.7913967
vt 0.5588422 0.94970214
vt 0.5588422 0.9881197
vt 0.5259226 0.9881197
vt 0.5259226 0.94970214
vt 0.5202714 0.94970214
vt 0.5202714 0.9881197
vt 0.46503317 0.9881197
vt 0.46503317 0.94970214
vt 0.5259226 0.94970214
vt 0.5259226 0.9881197
vt 0.5588422 0.9881197
vt 0.5588422 0.94970214
vt 0.5588422 0.94406974
vt 0.5259226 0.94406974
vt 0.5259226 0.94970214
vt 0.5588422 0.94970214
vt 0.46503317 0.94406974
vt 0.5202714 0.94406974
vt 0.5202714 0.94970214
vt 0.46503317 0.94970214
vt 0.5259226 0.94406974
vt 0.5588422 0.94406974
vt 0.5588422 0.94970214
vt 0.5259226 0.94970214
vt 0.5588422 0.9973676
vt 0.5259226 0.9973676
vt 0.5259226 0.9881197
vt 0.5588422 0.9881197
vt 0.5202714 0.9973676
vt 0.46503317 0.9973676
vt 0.46503317 0.9881197
vt 0.5202714 0.9881197
vt 0.5259226 0.9973676
vt 0.5588422 0.9973676
vt 0.5588422 0.9881197
vt 0.5259226 0.9881197
vt 0.5259226 0.94970214
vt 0.5259226 0.9881197
vt 0.5202714 0.9881197
vt 0.5202714 0.94970214
vt 0.5202714 0.94970214
vt 0.5202714 0.9881197
vt 0.5259226 0.9881197
vt 0.5259226 0.94970214
vt 0.001244666 0.73987484
vt 0.001244666 0.79151374
vt 0.011166969 0.7915137
vt 0.011166954 0.7398748
vt 0.02770414 0.7915136
vt 0.027704103 0.7398747
vt 0.38936555 0.5540783
vt 0.38936555 0.513229
vt 0.37931573 0.513229
vt 0.37931573 0.5540783
vt 0.36982828 0.513229
vt 0.36982828 0.5540783
vt 0.35770172 0.5540783
vt 0.35770172 0.513229
vt 0.5588422 0.89266783
vt 0.5588422 0.9118766
vt 0.5259226 0.9118766
vt 0.5259226 0.89266783
vt 0.5588422 0.89266783
vt 0.52500266 0.89266783
vt 0.52500266 0.9118766
vt 0.5588422 0.9118766
vt 0.52500266 0.9310854
vt 0.5588422 0.9310854
vt 0.5588422 0.8870354
vt 0.5259226 0.8870354
vt 0.52500266 0.89266783
vt 0.5588422 0.89266783
vt 0.46503317 0.89266783
vt 0.46503317 0.8870354
vt 0.48574752 0.8870354
vt 0.48574752 0.89266783
vt 0.5202714 0.8870354
vt 0.5202714 0.89266783
vt 0.5259226 0.8870354
vt 0.5588422 0.8870354
vt 0.5588422 0.89266783
vt 0.5259226 0.89266783
vt 0.36982828 0.513229
vt 0.37931573 0.5062327
vt 0.3699426 0.5062327
vt 0.37931573 0.513229
vt 0.38936555 0.5062327
vt 0.38936555 0.513229
vt 0.5259226 0.9403333
vt 0.5588422 0.9403333
vt 0.5588422 0.9310854
vt 0.52500266 0.9310854
vt 0.5259226 0.89266783
vt 0.5259226 0.9118766
vt 0.5202714 0.9118766
vt 0.5202714 0.89266783
vt 0.5258872 0.89266783
vt 0.520236 0.89266783
vt 0.520236 0.9118766
vt 0.5258872 0.9118766
vt 0.520236 0.9310854
vt 0.5258872 0.9310854
vt 0.3699426 0.5062327
vt 0.35770172 0.5062327
vt 0.35770172 0.513229
vt 0.36982828 0.513229
vt 0.48574752 0.89266783
vt 0.46503317 0.9118766
vt 0.46503317 0.89266783
vt 0.48574752 0.9118766
vt 0.5202714 0.89266783
vt 0.46503317 0.9310854
vt 0.5202714 0.9118766
vt 0.48574752 0.9310854
vt 0.5202714 0.9310854
vn -0.572044 -0.27782202 -0.7717386
vn -0.572044 -0.277822 -0.7717386
vn -0.572044 -0.277822 -0.7717386
vn 0.45413625 -0.297012 -0.8399668
vn 0.4541362 -0.297012 -0.8399668
vn 0.4541362 -0.297012 -0.8399668
vn -0.37173206 0.58132976 -0.7237894
vn -0.37173206 0.5813297 -0.7237894
vn -0.37173206 0.58132976 -0.7237894
vn 0.412633 0.49392772 -0.7653558
vn 0.412633 0.49392772 -0.7653558
vn 0.412633 0.49392766 -0.7653558
vn -0.58918387 -0.6541763 -0.47425276
vn -0.58918387 -0.6541763 -0.47425276
vn -0.5891839 -0.65417635 -0.47425276
vn 0.5899605 -0.6627609 -0.4611883
vn 0.5899605 -0.6627609 -0.46118823
vn 0.5899605 -0.6627609 -0.46118823
vn -0.44782147 0.8199222 -0.35662794
vn -0.4478214 0.8199222 -0.3566279
vn -0.4478214 0.8199222 -0.3566279
vn 0.45069093 0.8205803 -0.3514622
vn 0.45069087 0.8205803 -0.3514622
vn 0.45069087 0.8205803 -0.3514622
vn -0.23999894 -0.825047 -0.51156414
vn -0.23999892 -0.825047 -0.51156414
vn -0.23999892 -0.825047 -0.51156414
vn 0.7807005 -0.5288768 -0.33286047
vn 0.78070056 -0.5288768 -0.33286047
vn 0.78070056 -0.52887666 -0.33286044
vn -0.71101636 0.61561126 -0.3398214
vn -0.7110164 0.61561114 -0.33982137
vn -0.7110164 0.6156112 -0.33982143
vn -0.08730855 -0.9941368 -0.0637893
vn -0.08730855 -0.9941368 -0.0637893
vn -0.08730854 -0.9941368 -0.0637893
vn -0.08730855 -0.9941368 -0.06378931
vn 0.0873077 0.9941368 0.06379089
vn 0.08730771 0.9941368 0.063790895
vn 0.0873077 0.9941368 0.06379089
vn 0.08730771 0.9941368 0.063790895
vn 0.9859823 -0.032787833 -0.1635969
vn 0.9859823 -0.032787837 -0.1635969
vn 0.9859823 -0.032787833 -0.16359688
vn 0.9859823 -0.032787837 -0.1635969
vn 0.011139251 0.24349977 -0.969837
vn 0.011139251 0.24349977 -0.969837
vn 0.011139252 0.24349977 -0.969837
vn 0.011139251 0.2434998 -0.969837
vn -0.9960686 0.07077661 0.05327232
vn -0.9960686 0.070776604 0.05327232
vn -0.9960686 0.07077661 0.05327232
vn -0.9960686 0.07077661 0.05327232
vn -0.77612436 -0.6305782 -0.0014707473
vn -0.77612436 -0.63057816 -0.0014707473
vn -0.77612436 -0.6305783 -0.0014707473
vn -0.77612436 -0.6305783 -0.0014707473
vn -0.04097862 -0.35894477 -0.93245876
vn -0.040978614 -0.35894474 -0.93245876
vn -0.04097862 -0.35894474 -0.93245876
vn -0.04097862 -0.35894474 -0.93245876
vn 0.67292887 -0.7201509 -0.16896576
vn 0.6729288 -0.7201509 -0.16896576
vn 0.6729288 -0.7201509 -0.16896573
vn 0.67292887 -0.7201509 -0.16896576
vn 0.7678012 0.6371567 -0.06717538
vn 0.7678012 0.6371567 -0.06717539
vn 0.7678012 0.6371567 -0.06717539
vn 0.7678012 0.6371567 -0.067175396
vn 0.0431239 0.5908918 -0.8055974
vn 0.043123905 0.5908918 -0.8055974
vn 0.0431239 0.5908918 -0.8055974
vn 0.043123905 0.5908918 -0.8055974
vn -0.671985 0.73584914 0.08344091
vn -0.671985 0.7358491 0.083440915
vn -0.671985 0.735849 0.08344091
vn -0.671985 0.7358491 0.0834409
vn 0.4744405 0.17527927 -0.86266065
vn 0.47444043 0.17527927 -0.86266065
vn 0.4744405 0.1752793 -0.86266065
vn 0.4744405 0.17527929 -0.86266065
vn -0.5146102 0.24659646 -0.8211982
vn -0.5146102 0.2465965 -0.8211983
vn -0.5146102 0.24659646 -0.8211982
vn -0.5146102 0.2465965 -0.8211983
vn -0 -0.9961947 -0.08715592
vn -0 -0.9961947 -0.08715591
vn -0 -0.9961947 -0.08715592
vn -0 -0.9961947 -0.08715592
vn 1.705112E-07 0.9961947 0.08715583
vn 1.7051123E-07 0.9961947 0.08715584
vn 1.7051123E-07 0.9961947 0.08715585
vn 1.705112E-07 0.9961947 0.08715584
vn 0.99907 0.028760685 -0.032124996
vn 0.99907 0.028760685 -0.032124996
vn 0.99907 0.028760685 -0.032124996
vn 0.99907 0.028760683 -0.032124996
vn -0 0.52168685 -0.853137
vn -0 0.5216869 -0.853137
vn -0 0.5216869 -0.853137
vn -0 0.5216869 -0.853137
vn -0.998323 0.038613036 -0.04312894
vn -0.998323 0.038613036 -0.04312894
vn -0.998323 0.03861304 -0.04312894
vn -0.998323 0.038613033 -0.04312894
vn -0.5629789 -0.82046115 -0.099490054
vn -0.5629789 -0.82046115 -0.099490054
vn -0.5629789 -0.82046115 -0.09949006
vn -0.5629789 -0.82046115 -0.09949008
vn -0 -0.8490959 -0.5282388
vn -0 -0.8490959 -0.5282387
vn -0 -0.8490959 -0.5282388
vn -0 -0.8490959 -0.5282387
vn 0.5610523 -0.8226218 -0.092268884
vn 0.5610524 -0.82262194 -0.092268884
vn 0.5610523 -0.8226218 -0.092268884
vn 0.56105226 -0.82262194 -0.092268884
vn 0.557581 0.8281782 0.056783494
vn 0.557581 0.8281782 0.056783494
vn 0.55758095 0.8281781 0.056783486
vn 0.55758095 0.8281781 0.056783486
vn -0 0.92513144 -0.3796471
vn -0 0.92513144 -0.3796471
vn -0 0.92513144 -0.37964708
vn -0 0.92513144 -0.3796471
vn -0.55554247 0.8298996 0.051372275
vn -0.55554247 0.8298996 0.05137228
vn -0.55554247 0.8298996 0.051372275
vn -0.55554247 0.8298996 0.05137228
vn 0.7542489 0.3347696 -0.56483436
vn 0.7542489 0.3347696 -0.5648344
vn 0.7542489 0.3347696 -0.5648344
vn 0.7542489 0.3347696 -0.5648344
vn -0.7451989 0.34071484 -0.57322943
vn -0.7451989 0.34071478 -0.57322943
vn -0.7451989 0.34071484 -0.57322943
vn -0.7451989 0.34071484 -0.57322943
vn 0.34051207 -0.9376224 -0.07011091
vn 0.3405121 -0.9376224 -0.07011091
vn 0.34051314 -0.93762213 -0.07011069
vn 0.34051335 -0.937622 -0.070110664
vn 0.34051442 -0.9376217 -0.070110455
vn 0.34051442 -0.9376217 -0.07011045
vn -0.3352198 0.93801373 0.08807936
vn -0.33521986 0.93801373 0.08807937
vn 0.07407367 0.9901869 0.11850271
vn 0.06588232 0.9908153 0.118086524
vn 0.29773554 0.94493836 0.1358128
vn 0.3230953 0.9366931 0.13496467
vn 0.6185027 0.77039367 0.15475126
vn 0.7084534 0.6890213 0.15278535
vn 0.94625217 0.29815075 0.12535109
vn 0.6185027 0.77039367 0.15475126
vn 0.7084534 0.6890213 0.15278535
vn 0.94625217 0.29815075 0.12535109
vn -0.9469426 -0.24939784 -0.202732
vn -0.9469426 -0.24939784 -0.202732
vn -0.94567084 -0.2538576 -0.20313296
vn -0.94543004 -0.2546935 -0.20320769
vn -0.94402766 -0.2595082 -0.20363538
vn -0.94402766 -0.2595082 -0.20363538
vn -0.22103576 -0.9607541 -0.16761532
vn -0.22103576 -0.9607541 -0.16761531
vn -0.22103575 -0.9607541 -0.16761531
vn -0.22103576 -0.9607541 -0.16761531
vn 0.32194915 -0.8125026 -0.48599207
vn 0.32194912 -0.8125026 -0.48599207
vn 0.32195005 -0.8125024 -0.48599178
vn 0.32195017 -0.8125023 -0.48599175
vn 0.32195118 -0.81250215 -0.48599148
vn 0.32195118 -0.81250215 -0.48599148
vn 0.7766035 -0.6299268 0.008900412
vn 0.7766035 -0.6299268 0.008900412
vn 0.7766035 -0.6299268 0.008900412
vn 0.7766035 -0.6299268 0.008900412
vn 0.43865466 0.8607169 -0.25835723
vn 0.12378349 0.9443328 -0.3048167
vn 0.43865466 0.8607169 -0.25835723
vn -0.0025191656 0.94940615 -0.31404093
vn -0.31852666 0.8941645 -0.31465954
vn -0.3185267 0.8941645 -0.31465954
vn -0.75749505 0.6526663 -0.015097227
vn -0.75749516 0.6526663 -0.015097228
vn -0.75749516 0.6526663 -0.01509723
vn -0.75749516 0.6526663 -0.015097231
vn 0.83277917 0.40394413 -0.37856033
vn 0.52212095 0.77708864 -0.3514585
vn 0.50433624 0.7902281 -0.34811568
vn 0.83277917 0.40394408 -0.3785603
vn -0.8101542 -0.05495471 -0.5836353
vn -0.8101542 -0.05495471 -0.58363533
vn -0.79522127 -0.07213269 -0.60201323
vn -0.7917577 -0.07600026 -0.6060888
vn -0.77567226 -0.09343991 -0.6241807
vn -0.7756722 -0.09343991 -0.6241808
vn 0.05316923 0.9716826 -0.23023014
vn 0.50433624 0.7902281 -0.34811568
vn 0.52212095 0.77708864 -0.3514585
vn 0.05316923 0.9716826 -0.23023014
vn -0.07870738 0.3171121 -0.94511646
vn -0.076241665 0.29842684 -0.9513825
vn -0.08063278 0.33890456 -0.93735915
vn -0.06503858 0.31587446 -0.9465693
vn -0.07668524 0.2945467 -0.9525553
vn -0.071596906 0.25638863 -0.96391845
vn -0.10753161 0.33741698 -0.93519336
vn -0.0123630725 0.2755432 -0.9612092
vn -0.042595413 0.38573238 -0.92162687
g cliff_outdoor_stone_1_0
f 3/3/3 2/2/2 1/1/1
f 6/6/6 5/5/5 4/4/4
f 9/9/9 8/8/8 7/7/7
f 12/12/12 11/11/11 10/10/10
f 15/15/15 14/14/14 13/13/13
f 18/18/18 17/17/17 16/16/16
f 21/21/21 20/20/20 19/19/19
f 24/24/24 23/23/23 22/22/22
f 27/27/27 26/26/26 25/25/25
f 30/30/30 29/29/29 28/28/28
f 33/33/33 32/32/32 31/31/31
f 36/36/36 35/35/35 34/34/34
f 37/37/37 36/36/36 34/34/34
f 40/40/40 39/39/39 38/38/38
f 41/41/41 40/40/40 38/38/38
f 44/44/44 43/43/43 42/42/42
f 45/45/45 44/44/44 42/42/42
f 48/48/48 47/47/47 46/46/46
f 49/49/49 48/48/48 46/46/46
f 52/52/52 51/51/51 50/50/50
f 53/53/53 52/52/52 50/50/50
f 56/56/56 55/55/55 54/54/54
f 57/57/57 56/56/56 54/54/54
f 60/60/60 59/59/59 58/58/58
f 61/61/61 60/60/60 58/58/58
f 64/64/64 63/63/63 62/62/62
f 65/65/65 64/64/64 62/62/62
f 68/68/68 67/67/67 66/66/66
f 69/69/69 68/68/68 66/66/66
f 72/72/72 71/71/71 70/70/70
f 73/73/73 72/72/72 70/70/70
f 76/76/76 75/75/75 74/74/74
f 77/77/77 76/76/76 74/74/74
f 80/80/80 79/79/79 78/78/78
f 81/81/81 80/80/80 78/78/78
f 84/84/84 83/83/83 82/82/82
f 85/85/85 84/84/84 82/82/82
f 88/88/88 87/87/87 86/86/86
f 89/89/89 88/88/88 86/86/86
f 92/92/92 91/91/91 90/90/90
f 93/93/93 92/92/92 90/90/90
f 96/96/96 95/95/95 94/94/94
f 97/97/97 96/96/96 94/94/94
f 100/100/100 99/99/99 98/98/98
f 101/101/101 100/100/100 98/98/98
f 104/104/104 103/103/103 102/102/102
f 105/105/105 104/104/104 102/102/102
f 108/108/108 107/107/107 106/106/106
f 109/109/109 108/108/108 106/106/106
f 112/112/112 111/111/111 110/110/110
f 113/113/113 112/112/112 110/110/110
f 116/116/116 115/115/115 114/114/114
f 117/117/117 116/116/116 114/114/114
f 120/120/120 119/119/119 118/118/118
f 121/121/121 120/120/120 118/118/118
f 124/124/124 123/123/123 122/122/122
f 125/125/125 124/124/124 122/122/122
f 128/128/128 127/127/127 126/126/126
f 129/129/129 128/128/128 126/126/126
f 132/132/132 131/131/131 130/130/130
f 133/133/133 132/132/132 130/130/130
f 136/136/136 135/135/135 134/134/134
f 137/137/137 136/136/136 134/134/134
f 140/140/140 139/139/139 138/138/138
f 141/141/141 140/140/140 138/138/138
f 142/142/142 140/140/140 141/141/141
f 143/143/143 142/142/142 141/141/141
f 146/146/146 145/145/145 144/144/144
f 147/147/147 146/146/146 144/144/144
f 148/148/148 146/146/146 147/147/147
f 149/149/149 148/148/148 147/147/147
f 149/149/149 150/150/150 148/148/148
f 150/150/150 151/151/151 148/148/148
f 154/154/154 153/153/153 152/152/152
f 155/155/155 154/154/154 152/152/152
f 158/158/158 157/157/157 156/156/156
f 159/159/159 158/158/158 156/156/156
f 160/160/160 158/158/158 159/159/159
f 161/161/161 160/160/160 159/159/159
f 164/164/164 163/163/163 162/162/162
f 165/165/165 164/164/164 162/162/162
f 168/168/168 167/167/167 166/166/166
f 169/169/169 168/168/168 166/166/166
f 170/170/170 168/168/168 169/169/169
f 171/171/171 170/170/170 169/169/169
f 174/174/174 173/173/173 172/172/172
f 175/175/175 174/174/174 172/172/172
f 178/178/178 177/177/177 176/176/176
f 177/177/177 179/179/179 176/176/176
f 179/179/179 177/177/177 180/180/180
f 181/181/181 179/179/179 180/180/180
f 184/184/184 183/183/183 182/182/182
f 185/185/185 184/184/184 182/182/182
f 188/188/188 187/187/187 186/186/186
f 189/189/189 188/188/188 186/186/186
f 192/192/192 191/191/191 190/190/190
f 193/193/193 192/192/192 190/190/190
f 194/194/194 192/192/192 193/193/193
f 195/195/195 194/194/194 193/193/193
f 198/198/198 197/197/197 196/196/196
f 199/199/199 198/198/198 196/196/196
f 202/202/202 201/201/201 200/200/200
f 201/201/201 203/203/203 200/200/200
f 200/200/200 203/203/203 204/204/204
f 203/203/203 201/201/201 205/205/205
f 203/203/203 206/206/206 204/204/204
f 207/207/207 203/203/203 205/205/205
f 206/206/206 203/203/203 208/208/208
f 208/208/208 203/203/203 207/207/207
