g cliff_outdoor_1_S3
v -0 -3.0845072E-17 0.5037382
v -0.5035 -3.0845072E-17 0.5037382
v -0.50350016 -2.9290675E-07 0.34758568
v -0.42611468 -2.7369975E-07 0.3448326
v -0.50349987 -0.084945954 0.24152166
v -0.42611438 -0.084945954 0.23876859
v -0.5034999 -1.1524029 -0.14601158
v -0.19395824 -2.2088051E-07 0.27632248
v -0.19395801 -0.084945954 0.17025846
v -7.6828E-08 -1.4885426E-07 0.2595647
v 0.32956877 -5.7621E-08 0.36383015
v 0.5035 -3.0845072E-17 0.5037382
v 0.5035 1.440525E-08 0.34758562
v 7.6828E-08 -0.084945954 0.15350075
v 0.32956877 -0.084945954 0.25776622
v 0.5035 -0.084945954 0.24152169
v 0.5034999 -1.152403 -0.14601158
v -0 -1.152403 -0.22658324
v 0.50349987 -1.3410318 -0.34358203
v -7.6828E-08 -1.3410318 -0.39370674
v -0.5034999 -1.3410318 -0.34358197
v -0.5035 -1.9593166 -0.41241315
v 0.50349987 -1.9593166 -0.41241318
v -7.6828E-08 -1.9593166 -0.41241318
v -0.5035 -2.0304947 -0.63341284
v 0.17290181 -2.0304947 -0.63341284
v 0.50349987 -2.0304947 -0.63341284
v -0.17290196 -2.0304947 -0.63341284
v -0.2456336 -3.384064 -0.8876406
v -0.50350004 -3.384064 -0.8606365
v -0.19743678 -3.384064 -0.8539783
v 0.10654803 -3.384064 -0.82443154
v 0.2972422 -3.384064 -0.9040505
v 0.5034997 -3.384064 -0.8606366
vt 0.15883026 0.99876267
vt 0.1398823 0.99876267
vt 0.1398823 0.98252743
vt 0.14225079 0.98252743
vt 0.1398823 0.9740724
vt 0.14225079 0.9740724
vt 0.1398823 0.9293688
vt 0.14935628 0.98252743
vt 0.14935628 0.9740724
vt 0.15883026 0.98252743
vt 0.17123272 0.98252743
vt 0.1777782 0.99876267
vt 0.1777782 0.98252743
vt 0.15883026 0.9740724
vt 0.17123275 0.9740724
vt 0.1777782 0.9740724
vt 0.1777782 0.9293688
vt 0.15883026 0.9293688
vt 0.1777782 0.9199985
vt 0.15883026 0.9199985
vt 0.1398823 0.9199985
vt 0.1398823 0.89801776
vt 0.1777782 0.89801776
vt 0.15883024 0.89801776
vt 0.1398823 0.88757825
vt 0.16533697 0.88757825
vt 0.1777782 0.88757825
vt 0.15232351 0.88757825
vt 0.14958644 0.86205286
vt 0.1398823 0.86205286
vt 0.15232351 0.86205286
vt 0.16533697 0.86205286
vt 0.16807404 0.86205286
vt 0.1777782 0.86205286
vn -2.1205484E-07 1 -6.9697256E-07
vn -0 1 -1.742529E-06
vn -0.011545597 0.94580376 -0.32453337
vn -0.046926815 0.9508039 -0.30621845
vn -0.02882896 0.5852347 -0.81035125
vn -0.11397345 0.58737737 -0.80124766
vn -0.14277709 0.51265734 -0.8466387
vn -0.06923676 0.9350529 -0.3476814
vn -0.1324643 0.5669775 -0.8130128
vn 0.045098197 0.92945427 -0.3661708
vn 0.028583532 0.95587415 -0.29238263
vn -1.1283485E-07 1 -2.715747E-07
vn -0.032533232 0.9368056 -0.3483343
vn 0.06628411 0.568267 -0.8201701
vn 0.07464153 0.60096294 -0.795784
vn -0.076183684 0.57343155 -0.81570363
vn 0.13976365 0.52368766 -0.84036744
vn 0.006624288 0.542433 -0.84007305
vn 0.076402985 0.41419855 -0.9069741
vn -0 0.39941993 -0.91676813
vn -0.07640305 0.4141985 -0.9069742
vn -0.029931156 0.617065 -0.7863428
vn 0.029931074 0.61706495 -0.7863427
vn -0 0.61734164 -0.7866952
vn -0.026325474 0.6580376 -0.7525247
vn 0.023986949 0.6544299 -0.755742
vn 0.046124533 0.66113985 -0.7488436
vn 0.0050293654 0.6528514 -0.7574693
vn 0.25645828 0.15911673 -0.95336825
vn -0.045124542 0.17609434 -0.9833385
vn 0.3308697 0.14035626 -0.9331802
vn -0.16856813 0.15168281 -0.9739492
vn -0.13907553 0.17160343 -0.97530013
vn 0.07923044 0.18382387 -0.9797609
g cliff_outdoor_1_S3_0
f 3/3/3 2/2/2 1/1/1
f 4/4/4 3/3/3 1/1/1
f 3/3/3 4/4/4 5/5/5
f 4/4/4 6/6/6 5/5/5
f 5/5/5 6/6/6 7/7/7
f 4/4/4 8/8/8 6/6/6
f 8/8/8 4/4/4 1/1/1
f 8/8/8 9/9/9 6/6/6
f 6/6/6 9/9/9 7/7/7
f 10/10/10 8/8/8 1/1/1
f 8/8/8 10/10/10 9/9/9
f 11/11/11 10/10/10 1/1/1
f 11/11/11 1/1/1 12/12/12
f 13/13/13 11/11/11 12/12/12
f 10/10/10 14/14/14 9/9/9
f 10/10/10 11/11/11 14/14/14
f 15/15/15 11/11/11 13/13/13
f 11/11/11 15/15/15 14/14/14
f 16/16/16 15/15/15 13/13/13
f 17/17/17 15/15/15 16/16/16
f 9/9/9 14/14/14 18/18/18
f 14/14/14 15/15/15 18/18/18
f 15/15/15 17/17/17 18/18/18
f 9/9/9 18/18/18 7/7/7
f 18/18/18 17/17/17 19/19/19
f 7/7/7 18/18/18 20/20/20
f 20/20/20 18/18/18 19/19/19
f 21/21/21 7/7/7 20/20/20
f 21/21/21 20/20/20 22/22/22
f 20/20/20 19/19/19 23/23/23
f 20/20/20 24/24/24 22/22/22
f 24/24/24 20/20/20 23/23/23
f 22/22/22 24/24/24 25/25/25
f 24/24/24 23/23/23 26/26/26
f 23/23/23 27/27/27 26/26/26
f 24/24/24 28/28/28 25/25/25
f 28/28/28 24/24/24 26/26/26
f 25/25/25 28/28/28 29/29/29
f 30/30/30 25/25/25 29/29/29
f 29/29/29 28/28/28 31/31/31
f 28/28/28 26/26/26 31/31/31
f 26/26/26 32/32/32 31/31/31
f 33/33/33 32/32/32 26/26/26
f 33/33/33 26/26/26 27/27/27
f 34/34/34 33/33/33 27/27/27
