g crash_box
v -0.102475636 0.055183556 0.08193338
v -0.090381995 0.038685974 -0.15138873
v 0.09531712 0.038685974 -0.14962345
v 0.07331101 0.055183556 0.046384137
v 0.09531681 0.008231967 -0.14962323
v -0.09038231 0.008231967 -0.1513885
v -0.10247595 -0.0082656965 0.08193322
v 0.07331101 -0.0082656965 0.04638383
v 0.07331101 0.055183556 0.046384137
v 0.07331101 -0.0082656965 0.04638383
v -0.10247595 -0.0082656965 0.08193322
v -0.102475636 0.055183556 0.08193338
v 0.09531712 0.038685974 -0.14962345
v 0.09531681 0.008231967 -0.14962323
v 0.07331101 -0.0082656965 0.04638383
v 0.07331101 0.055183556 0.046384137
v -0.090381995 0.038685974 -0.15138873
v -0.09038231 0.008231967 -0.1513885
v 0.09531681 0.008231967 -0.14962323
v 0.09531712 0.038685974 -0.14962345
v -0.102475636 0.055183556 0.08193338
v -0.10247595 -0.0082656965 0.08193322
v -0.09038231 0.008231967 -0.1513885
v -0.090381995 0.038685974 -0.15138873
vt 0.35572028 0.8814703
vt 0.35572028 0.88606787
vt 0.36813354 0.88606787
vt 0.36813354 0.8814703
vt 0.35572028 0.88606787
vt 0.36813354 0.88606787
vt 0.36813354 0.8814703
vt 0.35572028 0.8814703
vt 0.34679765 0.8777505
vt 0.34679765 0.8757957
vt 0.34155864 0.8757957
vt 0.34155864 0.8777505
vt 0.37085795 0.88606787
vt 0.36813354 0.88606787
vt 0.36813354 0.8814703
vt 0.37085795 0.8814703
vt 0.3417923 0.8763335
vt 0.3417923 0.8775363
vt 0.3470313 0.8775364
vt 0.3470313 0.8763335
vt 0.35572028 0.8814703
vt 0.35299587 0.8814703
vt 0.35299587 0.88606787
vt 0.35572028 0.88606787
vn -0.007214486 0.99698997 -0.07719443
vn -0.007214485 0.99698997 -0.07719444
vn -0.007214486 0.99698997 -0.07719444
vn -0.007214486 0.99698997 -0.07719443
vn -0.0072145606 -0.99698985 -0.07719497
vn -0.0072145606 -0.99698985 -0.077194974
vn -0.0072145606 -0.99698985 -0.07719497
vn -0.0072145606 -0.99698985 -0.077194974
vn 0.19821708 -4.041037E-06 0.98015815
vn 0.1982171 -4.041037E-06 0.98015815
vn 0.1982171 -4.041037E-06 0.98015815
vn 0.1982171 -4.041037E-06 0.98015815
vn 0.99375653 -3.3416889E-06 0.11157015
vn 0.99375653 -3.3416893E-06 0.11157016
vn 0.99375653 -3.341689E-06 0.11157015
vn 0.99375653 -3.341689E-06 0.11157015
vn 0.0095056845 -7.664881E-06 -0.9999548
vn 0.0095056845 -7.664881E-06 -0.9999548
vn 0.0095056845 -7.664881E-06 -0.9999548
vn 0.0095056845 -7.664881E-06 -0.9999548
vn -0.9986594 6.497372E-06 -0.05176294
vn -0.9986594 6.497372E-06 -0.051762942
vn -0.9986594 6.497371E-06 -0.051762935
vn -0.9986594 6.4973715E-06 -0.051762942
g crash_box_0
f 3/3/3 2/2/2 1/1/1
f 4/4/4 3/3/3 1/1/1
f 7/7/7 6/6/6 5/5/5
f 8/8/8 7/7/7 5/5/5
f 11/11/11 10/10/10 9/9/9
f 12/12/12 11/11/11 9/9/9
f 15/15/15 14/14/14 13/13/13
f 16/16/16 15/15/15 13/13/13
f 19/19/19 18/18/18 17/17/17
f 20/20/20 19/19/19 17/17/17
f 23/23/23 22/22/22 21/21/21
f 24/24/24 23/23/23 21/21/21
