g crash_cave_rock
v -0.084361106 0.04879043 0.17173778
v 0.14753507 0.07308761 0.1229079
v 0.1696774 0.08532891 -0.0007198015
v -0.14859845 0.042620268 0.04814012
v 0.0018616193 0.061719947 0.0020838827
v -0.182593 0.011153256 -0.081456505
v 0.038885992 0.031459108 -0.1999461
v 0.12929292 0.06985573 -0.120723374
v -0.17965923 -0.084295206 0.07140125
v 0.17429435 -0.084295236 -0.10984722
v -0.084361106 -0.21738079 0.17173778
v 0.0018616193 -0.23031038 0.0020838827
v -0.14859845 -0.21121068 0.04814012
v -0.10711406 -0.08429518 0.21145724
v 0.1722677 -0.08429519 0.15650378
v 0.14753507 -0.241678 0.1229079
v 0.2147582 -0.08429522 -0.0007199552
v 0.1696774 -0.25391933 -0.0007198015
v 0.12929292 -0.23844619 -0.120723374
v -0.182593 -0.17974372 -0.081456505
v 0.038885992 -0.20004962 -0.1999461
v 0.047336653 -0.08429525 -0.20328727
v -0.20699438 -0.084295236 -0.076253556
v -0.084361106 0.04879043 0.17173778
v 0.14753507 0.07308761 0.1229079
v 0.1722677 -0.08429519 0.15650378
v 0.1696774 0.08532891 -0.0007198015
v 0.12929292 0.06985573 -0.120723374
v -0.182593 0.011153256 -0.081456505
v 0.038885992 0.031459108 -0.1999461
v 0.038885992 0.031459108 -0.1999461
v 0.047336653 -0.08429525 -0.20328727
v 0.14753507 0.07308761 0.1229079
v -0.084361106 0.04879043 0.17173778
v -0.10711406 -0.08429518 0.21145724
v -0.14859845 0.042620268 0.04814012
v -0.20699438 -0.084295236 -0.076253556
v -0.182593 0.011153256 -0.081456505
v -0.084361106 -0.21738079 0.17173778
v -0.10711406 -0.08429518 0.21145724
v 0.1722677 -0.08429519 0.15650378
v 0.14753507 -0.241678 0.1229079
v 0.1722677 -0.08429519 0.15650378
v 0.2147582 -0.08429522 -0.0007199552
v 0.1696774 -0.25391933 -0.0007198015
v 0.17429435 -0.084295236 -0.10984722
v 0.12929292 -0.23844619 -0.120723374
v -0.182593 -0.17974372 -0.081456505
v 0.038885992 -0.20004962 -0.1999461
v 0.047336653 -0.08429525 -0.20328727
v -0.20699438 -0.084295236 -0.076253556
v 0.047336653 -0.08429525 -0.20328727
v 0.038885992 -0.20004962 -0.1999461
v 0.14753507 -0.241678 0.1229079
v -0.17965923 -0.084295206 0.07140125
v -0.10711406 -0.08429518 0.21145724
v -0.084361106 -0.21738079 0.17173778
v -0.14859845 -0.21121068 0.04814012
v -0.182593 -0.17974372 -0.081456505
v -0.20699438 -0.084295236 -0.076253556
vt 0.96464276 0.9863167
vt 0.9718837 0.98538196
vt 0.9739619 0.98841864
vt 0.9641369 0.99017876
vt 0.9692114 0.98995
vt 0.96448314 0.99390924
vt 0.9709651 0.99469525
vt 0.9740485 0.9919583
vt 0.9618277 0.9910124
vt 0.97695875 0.9926301
vt 0.96464276 0.9863167
vt 0.9692114 0.98995
vt 0.9641369 0.99017876
vt 0.9625486 0.98380655
vt 0.9725909 0.9822348
vt 0.9718837 0.98538196
vt 0.9771226 0.988627
vt 0.9739619 0.98841864
vt 0.9740485 0.9919583
vt 0.96448314 0.99390924
vt 0.9709651 0.99469525
vt 0.9723445 0.99666023
vt 0.9629851 0.99559504
vt 0.96464276 0.9863167
vt 0.9718837 0.98538196
vt 0.9725909 0.9822348
vt 0.9739619 0.98841864
vt 0.9740485 0.9919583
vt 0.96448314 0.99390924
vt 0.9709651 0.99469525
vt 0.9709651 0.99469525
vt 0.9723445 0.99666023
vt 0.9718837 0.98538196
vt 0.96464276 0.9863167
vt 0.9625486 0.98380655
vt 0.9641369 0.99017876
vt 0.9629851 0.99559504
vt 0.96448314 0.99390924
vt 0.96464276 0.9863167
vt 0.9625486 0.98380655
vt 0.9725909 0.9822348
vt 0.9718837 0.98538196
vt 0.9725909 0.9822348
vt 0.9771226 0.988627
vt 0.9739619 0.98841864
vt 0.97695875 0.9926301
vt 0.9740485 0.9919583
vt 0.96448314 0.99390924
vt 0.9709651 0.99469525
vt 0.9723445 0.99666023
vt 0.9629851 0.99559504
vt 0.9723445 0.99666023
vt 0.9709651 0.99469525
vt 0.9718837 0.98538196
vt 0.9618277 0.9910124
vt 0.9625486 0.98380655
vt 0.96464276 0.9863167
vt 0.9641369 0.99017876
vt 0.96448314 0.99390924
vt 0.9629851 0.99559504
vn -0.11773744 0.99264985 0.028003532
vn 0.18197803 0.24180809 0.9531069
vn 0.9680867 0.24373083 -0.058337897
vn -0.15342247 0.98375124 -0.093247354
vn -0.15430704 0.9854106 -0.071801126
vn -0.19229983 0.96387476 -0.18429919
vn -0.2039166 0.962023 -0.18146569
vn -0.17648932 0.97464085 -0.13757403
vn -0.94340813 0 0.33163396
vn 0.8269525 0 -0.5622718
vn -0.11773741 -0.99264985 0.02800388
vn -0.15430701 -0.9854106 -0.07180076
vn -0.15342245 -0.98375124 -0.093247004
vn 0.18754357 0 0.9822563
vn 0.18754356 0 0.9822563
vn 0.18197803 -0.24180812 0.9531069
vn 0.9983966 0 -0.05660523
vn 0.9680867 -0.24373089 -0.05833788
vn -0.1764893 -0.97464097 -0.13757364
vn -0.19229978 -0.9638749 -0.1842988
vn -0.20391653 -0.962023 -0.18146522
vn -0.45946562 0 -0.8881955
vn -0.45946562 0 -0.88819563
vn 0.18197805 0.24180812 0.9531069
vn 0.9472029 0.2256255 0.2278156
vn 0.97227377 0 0.23384553
vn -0.1264356 0.99185055 -0.015698746
vn 0.7913699 0.17754832 -0.5849874
vn -0.45929986 0.02686112 -0.8878751
vn -0.45929986 0.026861116 -0.8878751
vn 0.60824627 0.09846918 -0.78761685
vn 0.6112168 0 -0.79146326
vn -0.11337239 0.9926086 0.043300226
vn -0.85417503 0.28253463 0.43653077
vn -0.8904547 0 0.4550718
vn -0.9083227 0.27410614 0.31593624
vn -0.98240006 0 0.18678905
vn -0.94869 0.2597126 0.18037952
vn 0.18197803 -0.24180812 0.9531069
vn 0.18754357 0 0.9822563
vn 0.18754356 0 0.9822563
vn 0.9472028 -0.22562551 0.22781567
vn 0.97227377 0 0.23384553
vn 0.9983966 0 -0.05660523
vn -0.1264356 -0.99185055 -0.015698422
vn 0.8269525 0 -0.5622718
vn 0.7913699 -0.17754832 -0.5849874
vn -0.45929986 -0.02686112 -0.8878751
vn -0.45929986 -0.02686112 -0.8878751
vn -0.45946562 0 -0.8881955
vn -0.45946562 0 -0.88819563
vn 0.6112168 0 -0.79146326
vn 0.6082464 -0.09846917 -0.7876167
vn -0.1133724 -0.9926086 0.04330055
vn -0.94340813 0 0.33163396
vn -0.8904547 0 0.4550718
vn -0.854175 -0.2825347 0.4365309
vn -0.9083227 -0.27410617 0.31593633
vn -0.9486899 -0.25971264 0.18037961
vn -0.98240006 0 0.18678905
g crash_cave_rock_0
f 5/5/5 4/4/4 1/1/1
f 15/15/15 2/2/2 24/24/24
f 14/14/14 15/15/15 24/24/24
f 17/17/17 3/3/3 25/25/25
f 26/26/26 17/17/17 25/25/25
f 27/27/27 8/8/8 5/5/5
f 10/10/10 28/28/28 3/3/3
f 17/17/17 10/10/10 3/3/3
f 7/7/7 6/6/6 5/5/5
f 8/8/8 7/7/7 5/5/5
f 22/22/22 23/23/23 29/29/29
f 30/30/30 22/22/22 29/29/29
f 32/32/32 31/31/31 28/28/28
f 10/10/10 32/32/32 28/28/28
f 5/5/5 1/1/1 33/33/33
f 27/27/27 5/5/5 33/33/33
f 4/4/4 5/5/5 6/6/6
f 9/9/9 35/35/35 34/34/34
f 36/36/36 9/9/9 34/34/34
f 38/38/38 37/37/37 9/9/9
f 36/36/36 38/38/38 9/9/9
f 13/13/13 12/12/12 11/11/11
f 41/41/41 40/40/40 39/39/39
f 16/16/16 41/41/41 39/39/39
f 44/44/44 43/43/43 42/42/42
f 18/18/18 44/44/44 42/42/42
f 19/19/19 45/45/45 12/12/12
f 46/46/46 44/44/44 18/18/18
f 47/47/47 46/46/46 18/18/18
f 12/12/12 20/20/20 21/21/21
f 19/19/19 12/12/12 21/21/21
f 50/50/50 49/49/49 48/48/48
f 51/51/51 50/50/50 48/48/48
f 47/47/47 53/53/53 52/52/52
f 46/46/46 47/47/47 52/52/52
f 54/54/54 11/11/11 12/12/12
f 45/45/45 54/54/54 12/12/12
f 12/12/12 13/13/13 20/20/20
f 57/57/57 56/56/56 55/55/55
f 58/58/58 57/57/57 55/55/55
f 59/59/59 58/58/58 55/55/55
f 60/60/60 59/59/59 55/55/55
