g crash_cave_ammonite
v -0.17274445 -0.10380136 0.007937053
v -0.02216075 0.10382464 -0.044388156
v -0.1331762 -0.09319905 0.18569492
v 0.014758755 0.10354555 -0.13342565
v 0.0098642735 0.103710495 0.12347723
v -0.1304427 0.102626875 0.17937833
v 0.13787936 0.1041167 -0.04341667
v 0.19708492 0.07678954 0.080591135
v 0.16212648 0.075166546 -0.036593944
v -0.1702109 -0.0118334135 0.19598785
v -0.14966956 -0.097618476 -0.17112763
v -0.14823179 0.10264695 -0.17454468
v -0.19376233 -0.0117709385 -0.19598846
v -0.17157283 0.10262655 0.005877313
v -0.22308327 -0.011821621 0.0027164365
v -0.005181511 -0.058903 -0.1566625
v -0.026050378 -0.064494774 0.14641765
v 0.10496166 -0.029390216 -0.037361614
v 0.2037501 -0.0029199251 0.07070201
v 0.1651532 -0.013261944 -0.033928588
v -0.02216075 0.10382464 -0.044388156
v 0.13787936 0.1041167 -0.04341667
v 0.0098642735 0.103710495 0.12347723
v -0.17157283 0.10262655 0.005877313
v -0.22308327 -0.011821621 0.0027164365
v -0.17157283 0.10262655 0.005877313
v -0.19376233 -0.0117709385 -0.19598846
v -0.22308327 -0.011821621 0.0027164365
v -0.14823179 0.10264695 -0.17454468
v -0.17274445 -0.10380136 0.007937053
v -0.22308327 -0.011821621 0.0027164365
v -0.1702109 -0.0118334135 0.19598785
v -0.1304427 0.102626875 0.17937833
v 0.13787936 0.1041167 -0.04341667
v 0.014758755 0.10354555 -0.13342565
v 0.0098642735 0.103710495 0.12347723
v 0.19708492 0.07678954 0.080591135
v 0.2037501 -0.0029199251 0.07070201
v 0.19708492 0.07678954 0.080591135
v 0.16212648 0.075166546 -0.036593944
v 0.13787936 0.1041167 -0.04341667
v 0.10496166 -0.029390216 -0.037361614
v 0.1651532 -0.013261944 -0.033928588
v -0.19376233 -0.0117709385 -0.19598846
v -0.005181511 -0.058903 -0.1566625
v -0.14823179 0.10264695 -0.17454468
v -0.1304427 0.102626875 0.17937833
v -0.026050378 -0.064494774 0.14641765
v -0.1702109 -0.0118334135 0.19598785
v -0.14966956 -0.097618476 -0.17112763
v -0.005181511 -0.058903 -0.1566625
v -0.19376233 -0.0117709385 -0.19598846
v -0.14823179 0.10264695 -0.17454468
v -0.005181511 -0.058903 -0.1566625
v 0.014758755 0.10354555 -0.13342565
v -0.1331762 -0.09319905 0.18569492
v 0.0098642735 0.103710495 0.12347723
v 0.19708492 0.07678954 0.080591135
v 0.13787936 0.1041167 -0.04341667
v 0.16212648 0.075166546 -0.036593944
v -0.005181511 -0.058903 -0.1566625
v -0.14966956 -0.097618476 -0.17112763
v -0.17274445 -0.10380136 0.007937053
v 0.10496166 -0.029390216 -0.037361614
v -0.026050378 -0.064494774 0.14641765
v 0.2037501 -0.0029199251 0.07070201
v 0.1651532 -0.013261944 -0.033928588
v -0.1331762 -0.09319905 0.18569492
vt 0.9273646 0.9258302
vt 0.91814744 0.9195753
vt 0.9214792 0.9371119
vt 0.9172659 0.91289836
vt 0.9129503 0.9303258
vt 0.921409 0.9366364
vt 0.90732837 0.9167468
vt 0.9010898 0.9240456
vt 0.9055685 0.9167685
vt 0.92379284 0.9384764
vt 0.92904544 0.9133274
vt 0.9290103 0.91307086
vt 0.9324709 0.9124468
vt 0.9273226 0.92566997
vt 0.93085635 0.9263882
vt 0.9190321 0.91169053
vt 0.91495943 0.93252367
vt 0.90944064 0.91775066
vt 0.9008188 0.92325765
vt 0.9053161 0.9168938
vt 0.91814744 0.9195753
vt 0.90732837 0.9167468
vt 0.9129503 0.9303258
vt 0.9273226 0.92566997
vt 0.93085635 0.9263882
vt 0.9273226 0.92566997
vt 0.9324709 0.9124468
vt 0.93085635 0.9263882
vt 0.9290103 0.91307086
vt 0.9273646 0.9258302
vt 0.93085635 0.9263882
vt 0.92379284 0.9384764
vt 0.921409 0.9366364
vt 0.90732837 0.9167468
vt 0.9172659 0.91289836
vt 0.9129503 0.9303258
vt 0.9010898 0.9240456
vt 0.9008188 0.92325765
vt 0.9010898 0.9240456
vt 0.9055685 0.9167685
vt 0.90732837 0.9167468
vt 0.90944064 0.91775066
vt 0.9053161 0.9168938
vt 0.9324709 0.9124468
vt 0.9190321 0.91169053
vt 0.9290103 0.91307086
vt 0.921409 0.9366364
vt 0.91495943 0.93252367
vt 0.92379284 0.9384764
vt 0.92904544 0.9133274
vt 0.9190321 0.91169053
vt 0.9324709 0.9124468
vt 0.9290103 0.91307086
vt 0.9190321 0.91169053
vt 0.9172659 0.91289836
vt 0.9214792 0.9371119
vt 0.9129503 0.9303258
vt 0.9010898 0.9240456
vt 0.90732837 0.9167468
vt 0.9055685 0.9167685
vt 0.9190321 0.91169053
vt 0.92904544 0.9133274
vt 0.9273646 0.9258302
vt 0.90944064 0.91775066
vt 0.91495943 0.93252367
vt 0.9008188 0.92325765
vt 0.9053161 0.9168938
vt 0.9214792 0.9371119
vn -0.8667674 -0.481961 -0.12817167
vn -0.0073199277 0.99997103 0.0020764542
vn -0.86663276 -0.44350865 0.22857781
vn -0.0018013496 0.9999908 -0.003881503
vn -0.0073199277 0.99997103 0.002076454
vn -0.8991376 0.37207636 0.23045754
vn -0.0018013496 0.9999908 -0.003881503
vn 0.08433616 0.9941749 0.067109376
vn 0.9458629 0.068155564 -0.3173299
vn -0.8991376 0.37207636 0.23045754
vn -0.86676735 -0.481961 -0.12817167
vn -0.9083658 0.39871082 -0.12610026
vn -0.9083658 0.39871082 -0.12610027
vn -0.0073199277 0.99997103 0.0020764542
vn -0.9083658 0.39871085 -0.12610027
vn 0.67135996 -0.07711254 -0.7371088
vn 0.27208075 0.018548213 0.9620956
vn 0.67136 -0.07711255 -0.7371088
vn 0.27208075 0.018548213 0.9620956
vn 0.9458629 0.06815555 -0.3173299
vn 0.08433616 0.9941749 0.06710937
vn 0.08433617 0.9941749 0.06710938
vn 0.08433616 0.9941749 0.067109376
vn -0.9083658 0.3987108 -0.12610024
vn -0.8991376 0.37207633 0.23045751
vn -0.8991376 0.37207636 0.23045754
vn -0.8667674 -0.48196095 -0.12817165
vn -0.8667674 -0.481961 -0.12817167
vn -0.008343541 0.9999647 -0.0009663445
vn -0.86663276 -0.4435087 0.22857784
vn -0.86663276 -0.44350865 0.22857787
vn -0.86663276 -0.4435087 0.22857781
vn -0.007057211 0.9999738 0.0016710999
vn 0.67135996 -0.07711254 -0.7371088
vn 0.67136 -0.07711254 -0.7371088
vn 0.27208078 0.018548211 0.9620956
vn 0.2720808 0.018548215 0.9620956
vn 0.9458629 0.068155564 -0.3173299
vn 0.9458629 0.068155564 -0.31732994
vn 0.11229422 -0.05411025 -0.9922007
vn 0.11229421 -0.05411025 -0.9922007
vn 0.11229421 -0.05411025 -0.9922007
vn 0.11229421 -0.05411025 -0.9922007
vn 0.22529085 0.09212959 -0.9699258
vn 0.22529086 0.09212961 -0.9699258
vn 0.22529085 0.092129596 -0.9699258
vn 0.33209375 0.021457622 0.9430023
vn 0.33209375 0.021457622 0.9430023
vn 0.33209375 0.021457622 0.9430023
vn 0.15113966 -0.20256342 -0.9675355
vn 0.15113966 -0.20256342 -0.9675355
vn 0.15113965 -0.20256342 -0.9675355
vn 0.24261995 0.108121656 -0.9640774
vn 0.24261995 0.10812166 -0.9640774
vn 0.24261995 0.108121656 -0.9640774
vn 0.33602577 0.03387746 0.9412433
vn 0.36938575 0.04770078 0.9280512
vn 0.7714568 0.5899684 -0.23831049
vn 0.7714568 0.5899684 -0.23831047
vn 0.7714568 0.5899684 -0.23831049
vn 0.25881913 -0.9659258 0
vn 0.25881913 -0.9659258 0
vn 0.2588191 -0.9659258 0
vn 0.2588191 -0.9659258 0
vn 0.2588191 -0.9659258 0
vn 0.25881907 -0.9659258 0
vn 0.25881904 -0.9659258 0
vn 0.25881904 -0.9659258 1.2698881E-07
g crash_cave_ammonite_0
f 14/14/14 5/5/5 2/2/2
f 2/2/2 7/7/7 4/4/4
f 8/8/8 22/22/22 21/21/21
f 23/23/23 8/8/8 21/21/21
f 13/13/13 15/15/15 24/24/24
f 12/12/12 13/13/13 24/24/24
f 25/25/25 10/10/10 6/6/6
f 26/26/26 25/25/25 6/6/6
f 27/27/27 11/11/11 1/1/1
f 28/28/28 27/27/27 1/1/1
f 14/14/14 2/2/2 29/29/29
f 2/2/2 4/4/4 29/29/29
f 32/32/32 31/31/31 30/30/30
f 3/3/3 32/32/32 30/30/30
f 33/33/33 5/5/5 14/14/14
f 35/35/35 34/34/34 18/18/18
f 16/16/16 35/35/35 18/18/18
f 37/37/37 36/36/36 17/17/17
f 19/19/19 37/37/37 17/17/17
f 38/38/38 20/20/20 9/9/9
f 39/39/39 38/38/38 9/9/9
f 42/42/42 41/41/41 40/40/40
f 43/43/43 42/42/42 40/40/40
f 46/46/46 45/45/45 44/44/44
f 49/49/49 48/48/48 47/47/47
f 52/52/52 51/51/51 50/50/50
f 55/55/55 54/54/54 53/53/53
f 56/56/56 48/48/48 49/49/49
f 47/47/47 48/48/48 57/57/57
f 60/60/60 59/59/59 58/58/58
f 63/63/63 62/62/62 61/61/61
f 64/64/64 63/63/63 61/61/61
f 66/66/66 65/65/65 64/64/64
f 67/67/67 66/66/66 64/64/64
f 68/68/68 63/63/63 65/65/65
f 65/65/65 63/63/63 64/64/64
