g cyc_bg2
v 0.22696023 0.39310676 -0.6404898
v 0.07882245 0.44702446 -0.6404898
v 0.07807095 0.44276267 0.671678
v 0.22479644 0.38935897 0.671678
v 0.34772328 0.29177448 -0.6404898
v 0.34440818 0.28899285 0.671678
v 0.4265457 0.15524997 -0.6404898
v 0.42247915 0.15376987 0.671678
v 0.45392045 3.2425557E-08 -0.6404898
v 0.4495929 2.4225935E-08 0.671678
v 0.4265456 -0.1552502 -0.6404898
v 0.42247903 -0.1537701 0.671678
v 0.34772307 -0.29177466 -0.6404898
v 0.34440798 -0.28899294 0.671678
v 0.22696 -0.39310673 -0.6404898
v 0.22479624 -0.38935897 0.671678
v 0.078822255 -0.44702438 -0.6404898
v 0.07807077 -0.44276258 0.671678
v -0.07882263 -0.44702426 -0.6404898
v -0.078071184 -0.44276252 0.671678
v -0.22696035 -0.3931065 -0.6404898
v -0.2247966 -0.3893588 0.671678
v -0.34772334 -0.29177433 -0.6404898
v -0.3444082 -0.2889926 0.671678
v -0.42654574 -0.15524983 -0.6404898
v -0.4224792 -0.15376973 0.671678
v -0.45392045 1.0096564E-07 -0.6404898
v -0.449593 9.2112565E-08 0.671678
v -0.4265457 0.15525 -0.6404898
v -0.42247915 0.15376991 0.671678
v -0.34772328 0.29177448 -0.6404898
v -0.34440818 0.28899285 0.671678
v -0.22696023 0.39310673 -0.6404898
v -0.2247965 0.38935897 0.671678
v -0.0788225 0.44702446 -0.6404898
v -0.07807106 0.44276267 0.671678
v 0.07882245 0.44702446 -0.6404898
v 0.07807095 0.44276267 0.671678
vt 0.9166667 0
vt 0.9722222 0
vt 0.9722222 1
vt 0.9166667 1
vt 0.8611111 0
vt 0.8611111 1
vt 0.8055556 0
vt 0.8055556 1
vt 0.75 0
vt 0.75 1
vt 0.69444436 0
vt 0.69444436 1
vt 0.6388888 0
vt 0.6388888 1
vt 0.58333325 0
vt 0.58333325 1
vt 0.5277777 0
vt 0.5277777 1
vt 0.47222215 0
vt 0.47222215 1
vt 0.41666663 0
vt 0.41666663 1
vt 0.36111107 0
vt 0.36111107 1
vt 0.30555552 0
vt 0.30555552 1
vt 0.24999997 0
vt 0.24999997 1
vt 0.19444445 0
vt 0.19444445 1
vt 0.1388889 0
vt 0.1388889 1
vt 0.08333334 0
vt 0.08333334 1
vt 0.02777782 0
vt 0.02777782 1
vt -0.027777791 0
vt -0.027777791 1
vn -0.49999723 -0.8660208 -0.0032979976
vn -0.17364717 -0.9848024 -0.00329799
vn -0.17364715 -0.9848024 -0.0032979895
vn -0.4999972 -0.8660207 -0.0032979974
vn -0.7660404 -0.642784 -0.003297986
vn -0.7660403 -0.642784 -0.0032979858
vn -0.9396876 -0.34201813 -0.0032979904
vn -0.9396876 -0.34201822 -0.0032979907
vn -0.99999464 1.9272458E-07 -0.0032980014
vn -0.99999464 1.9258411E-07 -0.0032980014
vn -0.9396874 0.34201875 -0.0032979955
vn -0.9396874 0.3420187 -0.003297995
vn -0.76603985 0.64278466 -0.0032979923
vn -0.76603985 0.64278466 -0.0032979923
vn -0.49999675 0.86602104 -0.0032979893
vn -0.49999675 0.866021 -0.003297989
vn -0.17364672 0.98480254 -0.003297973
vn -0.17364672 0.98480254 -0.0032979737
vn 0.17364767 0.9848023 -0.0032979548
vn 0.17364767 0.9848023 -0.003297955
vn 0.4999975 0.8660206 -0.0032979648
vn 0.4999975 0.8660206 -0.0032979648
vn 0.7660403 0.642784 -0.0032979904
vn 0.7660403 0.642784 -0.0032979902
vn 0.9396876 0.3420183 -0.0032979778
vn 0.9396876 0.3420183 -0.0032979778
vn 0.99999464 -1.2527099E-07 -0.0032979578
vn 0.99999464 -1.3480887E-07 -0.0032979578
vn 0.9396875 -0.34201834 -0.0032979667
vn 0.9396875 -0.3420184 -0.0032979667
vn 0.7660403 -0.642784 -0.0032979727
vn 0.7660403 -0.6427841 -0.003297973
vn 0.49999732 -0.8660207 -0.003297971
vn 0.49999732 -0.8660207 -0.003297971
vn 0.17364725 -0.9848024 -0.0032979758
vn 0.17364727 -0.9848024 -0.003297976
vn -0.17364717 -0.9848024 -0.00329799
vn -0.17364715 -0.9848024 -0.0032979895
g cyc_bg2_0
f 3/3/3 2/2/2 1/1/1
f 4/4/4 3/3/3 1/1/1
f 4/4/4 1/1/1 5/5/5
f 6/6/6 4/4/4 5/5/5
f 6/6/6 5/5/5 7/7/7
f 8/8/8 6/6/6 7/7/7
f 8/8/8 7/7/7 9/9/9
f 10/10/10 8/8/8 9/9/9
f 10/10/10 9/9/9 11/11/11
f 12/12/12 10/10/10 11/11/11
f 12/12/12 11/11/11 13/13/13
f 14/14/14 12/12/12 13/13/13
f 14/14/14 13/13/13 15/15/15
f 16/16/16 14/14/14 15/15/15
f 16/16/16 15/15/15 17/17/17
f 18/18/18 16/16/16 17/17/17
f 18/18/18 17/17/17 19/19/19
f 20/20/20 18/18/18 19/19/19
f 20/20/20 19/19/19 21/21/21
f 22/22/22 20/20/20 21/21/21
f 22/22/22 21/21/21 23/23/23
f 24/24/24 22/22/22 23/23/23
f 24/24/24 23/23/23 25/25/25
f 26/26/26 24/24/24 25/25/25
f 26/26/26 25/25/25 27/27/27
f 28/28/28 26/26/26 27/27/27
f 28/28/28 27/27/27 29/29/29
f 30/30/30 28/28/28 29/29/29
f 30/30/30 29/29/29 31/31/31
f 32/32/32 30/30/30 31/31/31
f 32/32/32 31/31/31 33/33/33
f 34/34/34 32/32/32 33/33/33
f 34/34/34 33/33/33 35/35/35
f 36/36/36 34/34/34 35/35/35
f 36/36/36 35/35/35 37/37/37
f 38/38/38 36/36/36 37/37/37
