g desert_wall_S2
v -0.0030379328 1.7453789 0.00044350885
v 0.5035103 1.6997691 -0.01796715
v -0.0030379328 1.699769 -0.021241348
v 0.5035103 1.7453793 0.016238827
v 0.50351334 1.838103 -0.027393062
v -0.0030353975 1.8241363 -0.050196458
v 0.0681784 1.8687599 -0.15730844
v 0.35690817 1.8839681 -0.20844291
v 0.50351226 1.8839685 -0.20844296
v -0.50348526 1.8839685 -0.20844261
v -0.058033414 1.8839682 -0.20844272
v -0.50348514 1.8381028 -0.027392775
v 0.0681784 1.8687599 -0.15730844
v -0.0030353975 1.8241363 -0.050196458
v -0.0030379328 1.7453789 0.00044350885
v -0.50348717 1.7453793 0.016238827
v -0.0030379328 1.699769 -0.021241348
v -0.50348717 1.6997691 -0.01796715
v 0.5034988 1.7962971 -0.45960107
v -0.0030430034 1.8681972 -0.373063
v -0.0030460765 1.7962971 -0.45364484
v 0.50350124 1.8671696 -0.380874
v -0.0030402376 1.8694586 -0.26143464
v 0.35690817 1.8839681 -0.20844291
v 0.50351226 1.8839685 -0.20844296
v -0.5034917 1.7962974 -0.45960182
v -0.50349367 -8.8352203E-07 -0.45960197
v -0.0030466912 -8.8352203E-07 -0.45960167
v -0.0030460765 1.7962971 -0.45364484
v 0.5034988 1.7962971 -0.45960107
v 0.5034991 -8.8352203E-07 -0.4596013
v -0.5034917 1.7962974 -0.45960182
v -0.0030460765 1.7962971 -0.45364484
v -0.0030430034 1.8681972 -0.373063
v -0.5034886 1.8671699 -0.38087454
v -0.058033414 1.8839682 -0.20844272
v -0.0030402376 1.8694586 -0.26143464
v -0.50348526 1.8839685 -0.20844261
v -0.5034983 0.73366004 0.32935676
v 0.5034989 0.7336599 0.32935676
v 0.5034989 0.7771832 0.2539725
v -0.5034983 0.77718323 0.2539725
v 0.5034989 0.86422944 0.25397247
v -0.5034983 0.8642295 0.25397247
v 0.5034989 0.9077525 0.32935676
v -0.5034983 0.9077526 0.32935676
v -0.5034983 0.9077526 0.32935676
v 0.5034989 0.9077525 0.32935676
v 0.5034989 0.86422944 0.40474105
v -0.5034983 0.86422944 0.40474105
v 0.5034989 0.7771832 0.40474102
v -0.5034983 0.7771832 0.40474102
v 0.5034989 0.7336599 0.32935676
v -0.5034983 0.73366004 0.32935676
v 0.0681784 1.8687599 -0.15730844
v 0.07849333 1.8578873 -0.22722042
v 0.35690817 1.8839681 -0.20844291
v -0.058033414 1.8839682 -0.20844272
v 0.35690817 1.8839681 -0.20844291
v 0.07849333 1.8578873 -0.22722042
v -0.0030402376 1.8694586 -0.26143464
v -0.058033414 1.8839682 -0.20844272
v -0.08612465 0.83042055 0.119687125
v -0.17144999 0.9459041 0.31350613
v -0.20743376 0.9263127 0.3135061
v -0.12506108 0.8070613 0.13464074
v -0.22963136 0.8518691 0.3297122
v -0.14233309 0.7708885 0.1832833
v -0.01853199 0.8159483 0.18328315
v -0.105830416 0.89692897 0.32971224
v -0.12365528 0.9449249 0.31350616
v -0.041282758 0.83755416 0.1346408
v -0.17144999 0.9459041 0.31350613
v -0.08612465 0.83042055 0.119687125
v -0.20743376 0.9263127 0.3135061
v -0.21888897 0.8223546 0.38411346
v -0.22963136 0.8518691 0.3297122
v -0.2016171 0.8585275 0.43275625
v -0.17144999 0.9459041 0.31350613
v -0.19740433 0.76332575 0.38411334
v -0.16268069 0.88188666 0.44770965
v -0.16092178 0.7467183 0.43275604
v -0.110105745 0.73381114 0.23768447
v -0.11607989 0.75385195 0.44770962
v -0.06401816 0.66282606 0.23768443
v -0.027856758 0.6618469 0.2376844
v -0.12365528 0.9449249 0.31350616
v -0.16268069 0.88188666 0.44770965
v -0.17144999 0.9459041 0.31350613
v -0.117838636 0.8890202 0.4327562
v -0.105830416 0.89692897 0.32971224
v -0.11607989 0.75385195 0.44770962
v -0.09508802 0.8674145 0.38411343
v -0.07714346 0.7772111 0.43275604
v -0.027856758 0.6618469 0.2376844
v -0.07360338 0.8083856 0.38411346
v 0.004073267 0.6933186 0.23768443
v -0.0019916892 0.77887094 0.23768437
v -0.5035024 -5.2859286E-07 0.5034988
v -0.50350183 -1.3167353E-07 -0.048660547
v 0.50349814 -1.3167363E-07 -0.048660085
v 0.50349754 -5.285929E-07 0.50349927
v 0.5034993 -1.0418461E-06 0.50350004
v 1.1101646E-05 1.6846635 -0.05295984
v 0.50350964 1.6846635 -0.052959833
v 0.30210072 -1.0292189E-06 0.50349987
v 0.10070207 -1.0196964E-06 0.46106353
v -0.10069658 -1.0039672E-06 0.4750018
v -0.3020952 -9.913372E-07 0.5034994
v -0.50348747 1.6846635 -0.05295985
v -0.5034938 -9.7871E-07 0.50349927
vt 0.68205523 0.98363125
vt 0.6370836 0.97832686
vt 0.68205523 0.97832686
vt 0.6370836 0.98363125
vt 0.6370836 0.98563695
vt 0.68205523 0.98563695
vt 0.68205523 0.9942427
vt 0.67871547 0.9982862
vt 0.6370836 0.9982994
vt 0.6370836 0.9982994
vt 0.67871547 0.9982862
vt 0.6370836 0.98563695
vt 0.68205523 0.9942427
vt 0.68205523 0.98563695
vt 0.68205523 0.98363125
vt 0.6370836 0.98363125
vt 0.68205523 0.97832686
vt 0.6370836 0.97832686
vt 0.6370836 0.9741631
vt 0.68205523 0.9870402
vt 0.68205523 0.9741631
vt 0.6370836 0.9870402
vt 0.68205523 0.9942427
vt 0.67871547 0.9982862
vt 0.6370836 0.9982994
vt 0.6903889 0.98382974
vt 0.6903889 0.9847708
vt 0.6908896 0.9847708
vt 0.6908896 0.98382974
vt 0.6913903 0.98382974
vt 0.6913903 0.9847708
vt 0.6370836 0.9741631
vt 0.68205523 0.9741631
vt 0.68205523 0.9870402
vt 0.6370836 0.9870402
vt 0.67871547 0.9982862
vt 0.68205523 0.9942427
vt 0.6370836 0.9982994
vt 0.50447553 0.82851523
vt 0.5938876 0.8285154
vt 0.5938876 0.8337421
vt 0.50447553 0.8337421
vt 0.5938876 0.83896893
vt 0.50447553 0.83896893
vt 0.5938876 0.84419554
vt 0.50447553 0.84419554
vt 0.50447553 0.84419554
vt 0.5938876 0.84419554
vt 0.5938876 0.83896893
vt 0.50447553 0.8389688
vt 0.5938876 0.8337421
vt 0.50447553 0.8337421
vt 0.5938876 0.8285154
vt 0.50447553 0.82851523
vt 0.58571327 0.9877301
vt 0.5877012 0.98006946
vt 0.59128684 0.9876053
vt 0.5790385 0.99071234
vt 0.5970837 0.9829995
vt 0.5877012 0.98006946
vt 0.59724766 0.9877913
vt 0.5911729 0.9829995
vt 0.60940087 0.9499394
vt 0.60940087 0.969457
vt 0.59493107 0.969457
vt 0.59493107 0.9499394
vt 0.58852243 0.969457
vt 0.58852243 0.9499394
vt 0.58852243 0.9499394
vt 0.58852243 0.969457
vt 0.59493107 0.969457
vt 0.59493107 0.9499394
vt 0.60940087 0.969457
vt 0.60940087 0.9499394
vt 0.59493107 0.969457
vt 0.58852243 0.9499394
vt 0.58852243 0.969457
vt 0.59493107 0.9499394
vt 0.60940087 0.969457
vt 0.58852243 0.9426292
vt 0.60940087 0.9499394
vt 0.59493107 0.9426292
vt 0.58852243 0.94109064
vt 0.60940087 0.9426292
vt 0.59493107 0.94109064
vt 0.60940087 0.94109064
vt 0.59493107 0.969457
vt 0.60940087 0.9499394
vt 0.60940087 0.969457
vt 0.59493107 0.9499394
vt 0.58852243 0.969457
vt 0.60940087 0.9426292
vt 0.58852243 0.9499394
vt 0.59493107 0.9426292
vt 0.60940087 0.94109064
vt 0.58852243 0.9426292
vt 0.59493107 0.94109064
vt 0.58852243 0.94109064
vt 0.63867146 0.9505867
vt 0.63867146 0.9670188
vt 0.6693564 0.9670188
vt 0.6693564 0.9505867
vt 0.5778718 0.8466565
vt 0.54111177 0.9702543
vt 0.57787263 0.9702543
vt 0.5631675 0.8466565
vt 0.5484633 0.8466565
vt 0.533759 0.8466565
vt 0.51905465 0.8466565
vt 0.5043508 0.9702543
vt 0.5043504 0.8466565
vn 0.00019984652 -0.0230841 0.9997335
vn -0.016047562 -0.522371 0.8525674
vn 9.759942E-05 -0.5224383 0.85267717
vn -0.03242796 -0.022688644 0.99921656
vn -0.0322744 0.7724814 0.63421667
vn 0.006851983 0.7664155 0.64230865
vn -0.0014462237 0.94947577 0.3138372
vn -0.018323645 0.9955277 0.09267601
vn -0.010013969 0.99486935 0.10067165
vn 3.6350326E-07 0.99715143 0.075425304
vn 0.019945025 0.9901215 0.13878685
vn 0.025733965 0.78079313 0.6242594
vn -0.0014462237 0.94947577 0.3138372
vn 0.006851983 0.7664155 0.64230865
vn 0.00019984652 -0.0230841 0.9997335
vn 0.032822788 -0.022691458 0.9992036
vn 9.759942E-05 -0.5224383 0.85267717
vn 0.01624308 -0.5223693 0.8525646
vn -0.007765392 0.4074084 -0.9132131
vn 0.0050394307 0.9258088 -0.3779585
vn 4.8303285E-05 0.40969697 -0.91222167
vn -0.009186753 0.91511434 -0.40308982
vn 0.008161565 0.99776506 -0.06631979
vn -0.018323645 0.9955277 0.09267601
vn -0.010013969 0.99486935 0.10067165
vn 0.00786136 0.4073874 -0.9132216
vn 0.0059518563 0.0016580895 -0.9999809
vn 3.6515477E-05 0.0016581321 -0.9999987
vn 4.8303285E-05 0.40969697 -0.91222167
vn -0.007765392 0.4074084 -0.9132131
vn -0.0058788303 0.0016581164 -0.9999814
vn 0.00786136 0.4073874 -0.9132216
vn 4.8303285E-05 0.40969697 -0.91222167
vn 0.0050394307 0.9258088 -0.3779585
vn 0.0064801187 0.9146526 -0.4041889
vn 0.019945025 0.9901215 0.13878685
vn 0.008161565 0.99776506 -0.06631979
vn 3.6350326E-07 0.99715143 0.075425304
vn -0 -1 -1.5335496E-07
vn -0 -1 -1.5335496E-07
vn -0 -0.49999973 -0.8660255
vn -0 -0.49999976 -0.8660256
vn -0 0.50000024 -0.86602527
vn -0 0.5000003 -0.86602527
vn -0 1 1.9717051E-07
vn -0 1 1.9717052E-07
vn -0 1 1.9717052E-07
vn -0 1 1.9717051E-07
vn -0 0.49999997 0.86602545
vn -0 0.49999997 0.86602545
vn -0 -0.49999997 0.86602545
vn -0 -0.49999997 0.86602545
vn -0 -1 -1.5335496E-07
vn -0 -1 -1.5335496E-07
vn 0.048943914 0.9880093 -0.14643162
vn -0.024346652 0.98308945 0.1815004
vn -0.095703244 0.9947067 0.037409514
vn 0.1726467 0.97936934 -0.10501812
vn -0.095703244 0.9947067 0.037409514
vn -0.024346652 0.98308945 0.1815004
vn 0.14143556 0.9899449 -0.0022468925
vn 0.1726467 0.97936934 -0.10501812
vn -0.20880859 0.79043096 -0.57586277
vn -0.31207693 0.9466583 -0.08028659
vn -0.81177914 0.56801945 -0.13553081
vn -0.6777008 0.4263515 -0.599121
vn -0.98107386 0.1759429 -0.08085893
vn -0.87770736 0.032914374 -0.47806546
vn 0.8174731 0.5676152 0.09772789
vn 0.8558741 0.5030079 0.120260246
vn 0.3957682 0.91826946 -0.012197699
vn 0.43579292 0.85544163 -0.2798288
vn -0.31207693 0.9466583 -0.08028659
vn -0.20880859 0.79043096 -0.57586277
vn -0.81177914 0.56801945 -0.13553081
vn -0.91975754 -0.016219215 0.3921519
vn -0.98107386 0.1759429 -0.08085893
vn -0.70760113 0.21446133 0.6732807
vn -0.31207693 0.9466583 -0.08028659
vn -0.8128092 -0.5408684 0.21633913
vn -0.16431801 0.5021887 0.8490031
vn -0.5104516 -0.6233274 0.59237
vn -0.6841493 -0.7175274 -0.13074432
vn 0.153779 -0.48619223 0.8602146
vn -0.25527918 -0.9361123 0.2419221
vn 0.35317573 -0.7951651 0.49292925
vn 0.3957682 0.91826946 -0.012197699
vn -0.16431801 0.5021887 0.8490031
vn -0.31207693 0.9466583 -0.08028659
vn 0.51088196 0.5830848 0.6316737
vn 0.8558741 0.5030079 0.120260246
vn 0.153779 -0.48619223 0.8602146
vn 0.8965476 0.39119133 0.20777774
vn 0.7267683 -0.104148865 0.6789409
vn 0.35317573 -0.7951651 0.49292925
vn 0.9153684 0.2451318 0.31939194
vn 0.80857146 -0.31615496 0.49624413
vn 0.9193895 0.16808459 0.3556269
vn -0 1 7.1884926E-07
vn -0 1 7.188492E-07
vn -0 1 7.1884926E-07
vn -0 1 7.188492E-07
vn -1.979583E-07 0.31364202 0.94954133
vn 3.0216424E-05 0.3110428 0.95039594
vn -1.979583E-07 0.31364202 0.94954133
vn -0.086718954 0.29840568 0.9504915
vn -0.073042184 0.2870608 0.9551235
vn 0.102003366 0.29193372 0.9509837
vn 0.058979392 0.3035437 0.9509904
vn -1.9795829E-07 0.3136417 0.94954145
vn -1.9795827E-07 0.3136417 0.94954145
g desert_wall_S2_0
f 3/3/3 2/2/2 1/1/1
f 2/2/2 4/4/4 1/1/1
f 1/1/1 4/4/4 5/5/5
f 6/6/6 1/1/1 5/5/5
f 7/7/7 6/6/6 5/5/5
f 8/8/8 7/7/7 5/5/5
f 5/5/5 9/9/9 8/8/8
f 12/12/12 11/11/11 10/10/10
f 13/13/13 11/11/11 12/12/12
f 14/14/14 13/13/13 12/12/12
f 15/15/15 14/14/14 12/12/12
f 16/16/16 15/15/15 12/12/12
f 17/17/17 15/15/15 16/16/16
f 18/18/18 17/17/17 16/16/16
f 21/21/21 20/20/20 19/19/19
f 20/20/20 22/22/22 19/19/19
f 20/20/20 23/23/23 22/22/22
f 22/22/22 23/23/23 24/24/24
f 25/25/25 22/22/22 24/24/24
f 28/28/28 27/27/27 26/26/26
f 29/29/29 28/28/28 26/26/26
f 28/28/28 29/29/29 30/30/30
f 31/31/31 28/28/28 30/30/30
f 34/34/34 33/33/33 32/32/32
f 35/35/35 34/34/34 32/32/32
f 35/35/35 36/36/36 34/34/34
f 36/36/36 37/37/37 34/34/34
f 38/38/38 36/36/36 35/35/35
f 41/41/41 40/40/40 39/39/39
f 42/42/42 41/41/41 39/39/39
f 43/43/43 41/41/41 42/42/42
f 44/44/44 43/43/43 42/42/42
f 45/45/45 43/43/43 44/44/44
f 46/46/46 45/45/45 44/44/44
f 49/49/49 48/48/48 47/47/47
f 50/50/50 49/49/49 47/47/47
f 51/51/51 49/49/49 50/50/50
f 52/52/52 51/51/51 50/50/50
f 53/53/53 51/51/51 52/52/52
f 54/54/54 53/53/53 52/52/52
f 57/57/57 56/56/56 55/55/55
f 55/55/55 56/56/56 58/58/58
f 61/61/61 60/60/60 59/59/59
f 62/62/62 60/60/60 61/61/61
f 65/65/65 64/64/64 63/63/63
f 66/66/66 65/65/65 63/63/63
f 67/67/67 65/65/65 66/66/66
f 68/68/68 67/67/67 66/66/66
f 71/71/71 70/70/70 69/69/69
f 72/72/72 71/71/71 69/69/69
f 73/73/73 71/71/71 72/72/72
f 74/74/74 73/73/73 72/72/72
f 77/77/77 76/76/76 75/75/75
f 76/76/76 78/78/78 75/75/75
f 75/75/75 78/78/78 79/79/79
f 76/76/76 80/80/80 78/78/78
f 78/78/78 81/81/81 79/79/79
f 80/80/80 82/82/82 78/78/78
f 78/78/78 82/82/82 81/81/81
f 80/80/80 83/83/83 82/82/82
f 82/82/82 84/84/84 81/81/81
f 83/83/83 85/85/85 82/82/82
f 82/82/82 85/85/85 84/84/84
f 85/85/85 86/86/86 84/84/84
f 89/89/89 88/88/88 87/87/87
f 88/88/88 90/90/90 87/87/87
f 87/87/87 90/90/90 91/91/91
f 88/88/88 92/92/92 90/90/90
f 90/90/90 93/93/93 91/91/91
f 92/92/92 94/94/94 90/90/90
f 90/90/90 94/94/94 93/93/93
f 92/92/92 95/95/95 94/94/94
f 94/94/94 96/96/96 93/93/93
f 95/95/95 97/97/97 94/94/94
f 94/94/94 97/97/97 96/96/96
f 97/97/97 98/98/98 96/96/96
f 101/101/101 100/100/100 99/99/99
f 102/102/102 101/101/101 99/99/99
f 105/105/105 104/104/104 103/103/103
f 104/104/104 106/106/106 103/103/103
f 106/106/106 104/104/104 107/107/107
f 107/107/107 104/104/104 108/108/108
f 109/109/109 108/108/108 104/104/104
f 109/109/109 104/104/104 110/110/110
f 111/111/111 109/109/109 110/110/110
