g dodgeLine_C
v -0.12089803 0.03704656 0.088622585
v -0.12089584 0.037046414 -0.50352937
v 0.12090045 0.037046414 -0.50352937
v 0.120898195 0.03704656 -0.15249203
v 0.15280244 0.03704658 -0.12058759
v -0.088993706 0.037046574 0.12052703
v 0.50308824 0.03704667 0.12052703
v 0.50308824 0.03704666 -0.12058759
v -0.14333266 0.0056347 -0.5035301
v -0.12089584 0.037046414 -0.50352937
v -0.12089803 0.03704656 0.088622585
v -0.14333498 0.005634855 0.11105956
v -0.111430675 0.005634868 0.142964
v -0.088993706 0.037046574 0.12052703
v 0.50308824 0.03704667 0.12052703
v 0.50308836 0.0056349733 0.142964
v 0.50308836 0.0056349607 -0.14302455
v 0.50308824 0.03704666 -0.12058759
v 0.15280244 0.03704658 -0.12058759
v 0.17523956 0.0056348755 -0.14302455
v 0.14333533 0.0056348518 -0.174929
v 0.120898195 0.03704656 -0.15249203
v 0.12090045 0.037046414 -0.50352937
v 0.14333758 0.0056347 -0.5035301
v -0.14333498 0.005634855 0.11105956
v -0.12089803 0.03704656 0.088622585
v -0.088993706 0.037046574 0.12052703
v -0.111430675 0.005634868 0.142964
v 0.17523956 0.0056348755 -0.14302455
v 0.15280244 0.03704658 -0.12058759
v 0.120898195 0.03704656 -0.15249203
v 0.14333533 0.0056348518 -0.174929
vt 0.40095702 0.37513345
vt 0.40095702 0.38813758
vt 0.4146618 0.38813758
vt 0.4146618 0.38185608
vt 0.4146618 0.3812852
vt 0.40165773 0.3744328
vt 0.4146618 0.3744328
vt 0.4146618 0.3812852
vt 0.40095702 0.38813758
vt 0.40095702 0.38813758
vt 0.40095702 0.37513345
vt 0.40095702 0.37510914
vt 0.4016334 0.3744328
vt 0.40165773 0.3744328
vt 0.4146618 0.3744328
vt 0.4146618 0.3744328
vt 0.4146618 0.3812852
vt 0.4146618 0.3812852
vt 0.4146618 0.3812852
vt 0.4146618 0.3812852
vt 0.4146618 0.3818916
vt 0.4146618 0.38185608
vt 0.4146618 0.38813758
vt 0.4146618 0.38813758
vt 0.40095702 0.37510914
vt 0.40095702 0.37513345
vt 0.40165773 0.3744328
vt 0.4016334 0.3744328
vt 0.4146618 0.3812852
vt 0.4146618 0.3812852
vt 0.4146618 0.38185608
vt 0.4146618 0.3818916
vn -2.1934264E-07 1 -2.6186535E-07
vn -1.5483725E-07 1 -3.1054998E-07
vn -1.5483725E-07 1 -3.1054998E-07
vn -1.9360994E-07 1 -2.8128682E-07
vn -2.1376832E-07 1 -1.5762865E-07
vn -2.3066933E-07 1 -1.9321426E-07
vn -1.8853018E-07 1 -1.0448894E-07
vn -1.8853018E-07 1 -1.0448894E-07
vn -0.81373465 0.58123654 -3.1952864E-06
vn -0.81373465 0.5812366 -3.1952864E-06
vn -0.81373465 0.5812366 -3.1952864E-06
vn -0.81373465 0.5812366 -3.1952864E-06
vn -0 0.581239 0.81373286
vn -0 0.581239 0.81373286
vn -0 0.581239 0.81373286
vn -0 0.581239 0.81373286
vn -1.4130748E-07 0.5812386 -0.8137332
vn -1.4130748E-07 0.5812386 -0.8137332
vn -1.4130747E-07 0.58123857 -0.8137331
vn -1.4130747E-07 0.58123857 -0.8137331
vn 0.813732 0.5812403 5.1264888E-06
vn 0.813732 0.5812403 5.126488E-06
vn 0.813732 0.58124024 5.126488E-06
vn 0.813732 0.5812403 5.126488E-06
vn -0.49746895 0.71066964 0.4974668
vn -0.49746895 0.7106697 0.4974668
vn -0.49746898 0.71066964 0.4974668
vn -0.49746895 0.7106697 0.4974668
vn 0.49746847 0.71067077 -0.49746567
vn 0.4974685 0.71067077 -0.49746567
vn 0.49746847 0.71067077 -0.49746567
vn 0.4974685 0.71067077 -0.49746567
g dodgeLine_C_0
f 3/3/3 2/2/2 1/1/1
f 4/4/4 3/3/3 1/1/1
f 5/5/5 4/4/4 1/1/1
f 6/6/6 5/5/5 1/1/1
f 5/5/5 6/6/6 7/7/7
f 8/8/8 5/5/5 7/7/7
f 11/11/11 10/10/10 9/9/9
f 12/12/12 11/11/11 9/9/9
f 15/15/15 14/14/14 13/13/13
f 16/16/16 15/15/15 13/13/13
f 19/19/19 18/18/18 17/17/17
f 20/20/20 19/19/19 17/17/17
f 23/23/23 22/22/22 21/21/21
f 24/24/24 23/23/23 21/21/21
f 27/27/27 26/26/26 25/25/25
f 28/28/28 27/27/27 25/25/25
f 31/31/31 30/30/30 29/29/29
f 32/32/32 31/31/31 29/29/29
