g equip_cube_6
v -1.0040396 1.9695735 1.0140085
v -1.0040395 3.3668776 1.0140083
v 0.9948848 3.3668773 1.0140089
v 0.9948846 1.9695734 1.0140086
v 1.06474 1.9695731 0.94415337
v 1.06474 3.3668773 0.94415325
v 1.06474 3.3668776 -0.944153
v 1.0647401 1.9695741 -0.94415295
v -1.0738947 1.9695742 -0.94415313
v -1.0738947 3.3668776 -0.9441532
v -1.0738947 3.3668776 0.9441534
v -1.0738949 1.9695735 0.94415325
v 0.9948846 1.9695734 1.0140086
v 0.9948848 3.3668773 1.0140089
v 1.06474 3.3668773 0.94415325
v 1.06474 1.9695731 0.94415337
v -1.0738949 1.9695735 0.94415325
v -1.0738947 3.3668776 0.9441534
v -1.0040395 3.3668776 1.0140083
v -1.0040396 1.9695735 1.0140085
v 1.0647401 1.9695741 -0.94415295
v 1.06474 3.3668776 -0.944153
v 1.0004222 3.3724153 -1.0140082
v 1.0004222 1.9751112 -1.0140082
v 1.06474 0.081267156 -0.944153
v 1.0647401 1.9695741 -0.94415295
v 1.0004222 0.07572944 -1.0140082
v 1.06474 0.081267156 0.9441534
v 1.06474 1.9695731 0.94415337
v 0.99488467 0.011411961 -0.94415295
v 0.99488467 0.081267156 1.0140086
v 0.9948846 1.9695734 1.0140086
v 0.99488467 0.011411808 0.94415355
v -1.0040394 0.08126725 1.0140085
v -1.0040396 1.9695735 1.0140085
v -1.0040394 0.011412059 -0.9441532
v -1.009577 0.075729534 -1.0140084
v -1.0040394 0.011411906 0.94415325
v -1.0738947 0.08126726 0.94415325
v -1.0738949 1.9695735 0.94415325
v -1.0738946 0.0812671 -0.94415325
v -1.0738947 1.9695742 -0.94415313
v -1.0095768 1.9751114 -1.0140085
v -1.009577 3.3724158 -1.0140086
v -1.0738947 3.3668776 -0.9441532
v -1.0738947 1.9695742 -0.94415313
vt 0.6115501 0.20773834
vt 0.6115501 0.20773834
vt 0.63942164 0.20790453
vt 0.63942164 0.20790453
vt 0.6412504 0.20769556
vt 0.6412504 0.20769556
vt 0.6472953 0.20125446
vt 0.6472953 0.20125446
vt 0.61594665 0.20125446
vt 0.61594665 0.20125446
vt 0.6114762 0.20745069
vt 0.6114762 0.20745069
vt 0.63942164 0.20790453
vt 0.63942164 0.20790453
vt 0.6412504 0.20769556
vt 0.6412504 0.20769556
vt 0.6114762 0.20745069
vt 0.6114762 0.20745069
vt 0.6115501 0.20773834
vt 0.6115501 0.20773834
vt 0.6472953 0.20125446
vt 0.6472953 0.20125446
vt 0.6464993 0.20125446
vt 0.6464993 0.20125446
vt 0.6472953 0.17827861
vt 0.6472953 0.20125446
vt 0.6464993 0.17789154
vt 0.6412504 0.18322189
vt 0.6412504 0.20769556
vt 0.64625114 0.17694588
vt 0.63942164 0.18343087
vt 0.63942164 0.20790453
vt 0.63994086 0.1816238
vt 0.6115501 0.18340266
vt 0.6115501 0.20773834
vt 0.6161859 0.17691764
vt 0.6162685 0.17785707
vt 0.61171544 0.18159556
vt 0.6114762 0.183115
vt 0.6114762 0.20745069
vt 0.61594665 0.17817172
vt 0.61594665 0.20125446
vt 0.6170734 0.20125446
vt 0.6170734 0.20125446
vt 0.61594665 0.20125446
vt 0.61594665 0.20125446
vn -1.8863376E-07 0 1
vn -1.8863376E-07 0 1
vn -1.8863376E-07 0 1
vn -1.8863376E-07 0 1
vn 1 0 0
vn 1 0 0
vn 1 0 0
vn 1 0 0
vn -1 0 0
vn -1 0 0
vn -1 0 0
vn -1 0 0
vn 0.70710796 0 0.7071055
vn 0.7071081 0 0.70710546
vn 0.7071081 0 0.70710546
vn 0.707108 0 0.7071055
vn -0.7071059 0 0.70710766
vn -0.7071058 0 0.7071077
vn -0.7071059 0 0.70710766
vn -0.7071059 0 0.70710766
vn 0.73566324 0 -0.67734754
vn 0.73566324 0 -0.67734754
vn 0.7356633 0 -0.6773475
vn 0.7356634 0 -0.6773473
vn 0.8842825 -0.34043136 -0.31961054
vn 0.92896885 0 -0.37015802
vn 0.4906071 -0.4906084 -0.7201444
vn 0.8755788 -0.34158576 0.34158596
vn 0.9238795 0 0.38268352
vn 0.34043127 -0.8842829 -0.31960976
vn 0.34158605 -0.3415855 0.8755788
vn 0.38268328 0 0.9238795
vn 0.34158608 -0.87557846 0.34158653
vn -0.34158605 -0.3415856 0.8755788
vn -0.38268346 0 0.9238795
vn -0.3404311 -0.8842829 -0.31960982
vn -0.4906072 -0.4906082 -0.72014445
vn -0.34158584 -0.87557864 0.3415863
vn -0.87557864 -0.34158608 0.34158602
vn -0.9238795 0 0.3826834
vn -0.8842825 -0.3404317 -0.31961045
vn -0.9289689 0 -0.37015763
vn -0.73566383 0 -0.67734677
vn -0.73566455 -1.3921357E-07 -0.67734593
vn -0.73566455 -1.3921357E-07 -0.67734593
vn -0.73566455 -1.3921357E-07 -0.677346
g equip_cube_6_0
f 3/3/3 2/2/2 1/1/1
f 4/4/4 3/3/3 1/1/1
f 7/7/7 6/6/6 5/5/5
f 8/8/8 7/7/7 5/5/5
f 11/11/11 10/10/10 9/9/9
f 12/12/12 11/11/11 9/9/9
f 15/15/15 14/14/14 13/13/13
f 16/16/16 15/15/15 13/13/13
f 19/19/19 18/18/18 17/17/17
f 20/20/20 19/19/19 17/17/17
f 23/23/23 22/22/22 21/21/21
f 24/24/24 23/23/23 21/21/21
f 26/26/26 25/25/25 24/24/24
f 25/25/25 27/27/27 24/24/24
f 28/28/28 25/25/25 26/26/26
f 29/29/29 28/28/28 26/26/26
f 30/30/30 27/27/27 25/25/25
f 30/30/30 25/25/25 28/28/28
f 31/31/31 28/28/28 29/29/29
f 32/32/32 31/31/31 29/29/29
f 28/28/28 31/31/31 33/33/33
f 33/33/33 30/30/30 28/28/28
f 34/34/34 31/31/31 32/32/32
f 33/33/33 31/31/31 34/34/34
f 35/35/35 34/34/34 32/32/32
f 30/30/30 36/36/36 27/27/27
f 36/36/36 37/37/37 27/27/27
f 33/33/33 38/38/38 30/30/30
f 38/38/38 33/33/33 34/34/34
f 38/38/38 36/36/36 30/30/30
f 34/34/34 35/35/35 39/39/39
f 39/39/39 38/38/38 34/34/34
f 35/35/35 40/40/40 39/39/39
f 36/36/36 38/38/38 41/41/41
f 38/38/38 39/39/39 41/41/41
f 41/41/41 39/39/39 40/40/40
f 41/41/41 37/37/37 36/36/36
f 42/42/42 41/41/41 40/40/40
f 41/41/41 42/42/42 37/37/37
f 42/42/42 43/43/43 37/37/37
f 45/45/45 44/44/44 43/43/43
f 46/46/46 45/45/45 43/43/43
