g equip_background
v 26.718819 12.926175 -32.571007
v 22.87977 19.230099 -32.571007
v 26.718819 19.230099 -32.571007
v 22.87977 12.926175 -32.571007
v 22.87977 -12.665237 -32.571007
v 26.718819 -12.665237 -32.571007
v -1.2302661 12.926175 -32.571007
v -1.2302661 19.230099 -32.571007
v -22.495243 12.926175 -32.571007
v -22.495243 19.230099 -32.571007
v -28.629032 19.230099 -32.571007
v -28.629032 12.926175 -32.571007
v -28.629032 -12.665237 -32.571007
v -1.2302661 -12.665237 -32.571007
v -22.495243 -12.665237 -32.571007
v -28.629032 -16.309181 -32.506172
v -22.495243 -16.309181 -32.506172
v -1.2302661 -16.309181 -32.506172
v 22.87977 -16.309181 -32.506172
v 26.718819 -16.309181 -32.506172
vt 0.9975967 0.26582038
vt 0.9975967 0.2824941
vt 0.9975967 0.2824941
vt 0.9975967 0.26582038
vt 0.9975967 0.018236138
vt 0.9975967 0.018236138
vt 0.7284739 0.26582038
vt 0.7284739 0.2824941
vt 0.5021388 0.26582038
vt 0.5021388 0.2824941
vt 0.5021388 0.2824941
vt 0.5021388 0.26582038
vt 0.5021388 0.018236138
vt 0.7284739 0.018236138
vt 0.5021388 0.018236138
vt 0.5021388 0.002827554
vt 0.5021388 0.002827554
vt 0.7284739 0.002827554
vt 0.9975967 0.002827554
vt 0.9975967 0.002827554
vn -0 0 1
vn -0 0 1
vn -0 0 1
vn -0 0 1
vn -0 0.008895071 0.9999604
vn -0 0.008895071 0.9999604
vn -0 0 1
vn -0 0 1
vn -0 0 1
vn -0 0 1
vn -0 0 1
vn -0 0 1
vn -0 0.008895072 0.9999604
vn -0 0.008895072 0.9999604
vn -0 0.008895072 0.9999604
vn -0 0.017789438 0.9998417
vn -0 0.017789438 0.9998417
vn -0 0.017789438 0.9998417
vn -0 0.017789438 0.9998417
vn -0 0.017789437 0.9998417
g equip_background_0
f 3/3/3 2/2/2 1/1/1
f 2/2/2 4/4/4 1/1/1
f 4/4/4 5/5/5 1/1/1
f 5/5/5 6/6/6 1/1/1
f 7/7/7 4/4/4 2/2/2
f 8/8/8 7/7/7 2/2/2
f 9/9/9 7/7/7 8/8/8
f 10/10/10 9/9/9 8/8/8
f 9/9/9 10/10/10 11/11/11
f 12/12/12 9/9/9 11/11/11
f 9/9/9 12/12/12 13/13/13
f 7/7/7 14/14/14 4/4/4
f 7/7/7 9/9/9 14/14/14
f 14/14/14 5/5/5 4/4/4
f 15/15/15 9/9/9 13/13/13
f 9/9/9 15/15/15 14/14/14
f 15/15/15 13/13/13 16/16/16
f 17/17/17 15/15/15 16/16/16
f 14/14/14 15/15/15 17/17/17
f 18/18/18 14/14/14 17/17/17
f 5/5/5 14/14/14 18/18/18
f 19/19/19 5/5/5 18/18/18
f 6/6/6 5/5/5 19/19/19
f 20/20/20 6/6/6 19/19/19
