g ex_glow1
v -3.9999962 -3.9999993 12.037808
v -3.9999962 4.0000005 12.0378065
v 4.0000033 4.0000005 12.0378065
v 4.0000033 -3.9999993 12.037808
v 16.532736 2.80682E-18 -0.04583885
v 2.8546651E-06 1.9552903 14.393577
v 2.8546651E-06 1.8596648E-07 11.630781
v 10.855135 1.8596648E-07 -0.045838926
v 2.8546651E-06 1.8596648E-07 11.630781
v 2.8546651E-06 -1.5988739 14.418972
v 16.445086 2.8068387E-18 -0.045839157
v 10.855135 1.8596648E-07 -0.045838926
v 2.8546651E-06 1.8596648E-07 11.630781
v 2.8546651E-06 1.9552903 14.393577
v -16.426903 1.1819571E-18 -0.019302826
v -10.87161 1.8596648E-07 -0.019301757
v 2.8546651E-06 1.8596648E-07 11.630781
v -10.87161 1.8596648E-07 -0.019301757
v -16.4523 1.1819012E-18 -0.01930191
v 2.8546651E-06 -1.5988739 14.418972
v -16.426903 1.1819571E-18 -0.019302826
v -16.634394 1 -6.6400604
v -7.144231 9.56033E-08 -4.025025
v -10.87161 1.8596648E-07 -0.019301757
v 10.855135 1.8596648E-07 -0.045838926
v 7.473758 9.5603276E-08 -3.6901093
v 16.867853 0.69697267 -6.1181273
v 16.532736 2.80682E-18 -0.04583885
v 16.445086 2.8068387E-18 -0.045839157
v 16.867853 -0.6386743 -6.1181273
v 7.473758 9.5603276E-08 -3.6901093
v 10.855135 1.8596648E-07 -0.045838926
v -10.87161 1.8596648E-07 -0.019301757
v -7.144231 9.56033E-08 -4.025025
v -16.626493 -1 -6.6414537
v -16.4523 1.1819012E-18 -0.01930191
v 1.2496728 -67.47681 -0.80956846
v -1.2496732 -67.47681 -0.80956846
v -1.8442743 -2.7673577E-06 11.818522
v 1.8442734 -2.7673577E-06 11.818522
v 1.2496728 67.476814 -0.8095721
v -1.2496732 67.476814 -0.8095721
v -394.7321 -2.9369795 0.59715694
v -394.7321 2.9369822 0.5971545
v 394.73203 2.9369822 0.5971545
v 394.73203 -2.9369795 0.59715694
vt 0.01 0.01
vt 0.01 0.99
vt 0.99 0.99
vt 0.99 0.01
vt 0.0038868785 0.8162843
vt 0.003885746 0.49489453
vt 0.5601014 0.49489447
vt 0.5601021 0.8162843
vt 0.5601014 0.49489447
vt 1.0038859 0.49489444
vt 1.0038868 0.81628424
vt 0.5601021 0.8162843
vt 0.5601014 0.49489447
vt 0.003885746 0.49489453
vt 0.0038866997 0.17468008
vt 0.5601021 0.17468002
vt 0.5601014 0.49489447
vt 0.5601021 0.17468002
vt 1.0038868 0.17468
vt 1.0038859 0.49489444
vt 0.0038866997 0.17468008
vt 0.0038872957 0.012300106
vt 0.56010234 0.012300063
vt 0.5601021 0.17468002
vt 0.5601021 0.8162843
vt 0.56010246 0.98769987
vt 0.0038874745 0.98769987
vt 0.0038868785 0.8162843
vt 1.0038868 0.81628424
vt 1.0038874 0.9876998
vt 0.56010246 0.98769987
vt 0.5601021 0.8162843
vt 0.5601021 0.17468002
vt 0.56010234 0.012300063
vt 1.0038874 0.012300029
vt 1.0038868 0.17468
vt 0.99 0.01
vt 0.01 0.01
vt 0.01 0.5
vt 0.99 0.5
vt 0.99 0.99
vt 0.01 0.99
vt 0.01 0.01
vt 0.01 0.99
vt 0.99 0.99
vt 0.99 0.01
vn -0 3.0517577E-07 1
vn -0 3.0517577E-07 1
vn -0 3.0517577E-07 1
vn -0 3.0517577E-07 1
vn -0.19224645 0.942841 -0.2721986
vn -0.19224645 0.942841 -0.2721986
vn -0.19224645 0.942841 -0.2721986
vn -0.19224645 0.942841 -0.2721986
vn -0.1613494 -0.9603791 -0.22724079
vn -0.16134942 -0.9603791 -0.2272408
vn -0.16134942 -0.9603791 -0.22724079
vn -0.16134942 -0.9603791 -0.2272408
vn 0.19480588 0.9415949 -0.27468112
vn 0.19480588 0.9415949 -0.2746811
vn 0.19480588 0.9415949 -0.27468112
vn 0.19480588 0.9415949 -0.27468112
vn 0.16130465 -0.9602552 -0.22779517
vn 0.16130465 -0.9602552 -0.22779517
vn 0.16130465 -0.9602552 -0.22779518
vn 0.16130465 -0.9602552 -0.22779518
vn 0.047045995 0.9929254 0.10902217
vn 0.047045983 0.9929254 0.10902217
vn 0.047045987 0.9929254 0.10902217
vn 0.04704599 0.9929254 0.10902217
vn -0.03289195 0.99610895 0.08176331
vn -0.03289196 0.99610895 0.08176332
vn -0.03289195 0.99610895 0.08176331
vn -0.032891955 0.99610895 0.081763305
vn -0.030369937 -0.99673873 0.07476353
vn -0.030369937 -0.99673873 0.074763544
vn -0.030369937 -0.99673873 0.07476353
vn -0.030369936 -0.99673873 0.07476353
vn 0.04696264 -0.99291784 0.109126695
vn 0.04696264 -0.99291784 0.109126695
vn 0.046962645 -0.99291784 0.109126695
vn 0.046962645 -0.99291784 0.109126695
vn -0 -0.1839535 0.982935
vn -0 -0.1839535 0.982935
vn -0 0 1
vn -0 0 1
vn -0 0.18395351 0.982935
vn -0 0.18395351 0.982935
vn -0 4.1563197E-07 1
vn -0 4.1563197E-07 1
vn -0 4.1563197E-07 1
vn -0 4.1563197E-07 1
g ex_glow1_0
f 3/3/3 2/2/2 1/1/1
f 4/4/4 3/3/3 1/1/1
f 7/7/7 6/6/6 5/5/5
f 8/8/8 7/7/7 5/5/5
f 11/11/11 10/10/10 9/9/9
f 12/12/12 11/11/11 9/9/9
f 15/15/15 14/14/14 13/13/13
f 16/16/16 15/15/15 13/13/13
f 19/19/19 18/18/18 17/17/17
f 20/20/20 19/19/19 17/17/17
f 23/23/23 22/22/22 21/21/21
f 24/24/24 23/23/23 21/21/21
f 27/27/27 26/26/26 25/25/25
f 28/28/28 27/27/27 25/25/25
f 31/31/31 30/30/30 29/29/29
f 32/32/32 31/31/31 29/29/29
f 35/35/35 34/34/34 33/33/33
f 36/36/36 35/35/35 33/33/33
f 39/39/39 38/38/38 37/37/37
f 40/40/40 39/39/39 37/37/37
f 39/39/39 40/40/40 41/41/41
f 42/42/42 39/39/39 41/41/41
f 45/45/45 44/44/44 43/43/43
f 46/46/46 45/45/45 43/43/43
