g fence2
v 0.49198332 0.5458691 0.086448915
v 0.2893533 0.61839736 0.074807994
v 0.46736348 0.61853087 0.074807994
v 0.26132384 0.13722593 -0.080529824
v 0.2822301 -0.00018699936 -0.08052979
v 0.2893533 0.61839736 -0.057247408
v -0.25175 0.07776467 -0.08052979
v -0.22454582 -0.00018699936 -0.08052979
v -0.25658587 0.57597804 -0.057247408
v 0.5035 -0.00018715301 0.09808994
v 0.2822301 -0.00018715301 0.09808994
v 0.49198332 0.5458691 0.086448915
v 0.2893533 0.61839736 0.074807994
v 0.26132384 0.13722588 0.09808993
v 0.22126988 -0.00018715301 0.09808994
v -0 -0.00018715301 0.09808994
v 0.031422038 0.69242996 0.07480798
v 0.059019577 0.8104222 0.059379324
v 0.26031846 0.7894248 0.059379343
v -0.25175 0.077764384 0.09808994
v -0.22454582 -0.00018715301 0.09808994
v -0.25658587 0.57597804 0.07480796
v -0.27895418 -0.00018715301 0.09808994
v -0.5035 -0.00018715301 0.09808994
v -0.22652476 0.75251275 0.06373526
v 0.016142178 0.78230375 0.06373526
v -0.44932428 0.6017142 0.074807994
v -0.49845302 0.553721 0.076813295
v -0.49845302 0.553721 -0.05925279
v -0.25658587 0.57597804 -0.057247408
v -0.44932428 0.6017142 -0.057247385
v -0.25175 0.07776467 -0.08052979
v -0.5035 -0.00018699936 -0.08052979
v -0.27895418 -0.00018699936 -0.08052979
v -0 -0.00018699936 -0.08052979
v 0.22126988 -0.00018699936 -0.08052979
v 0.26132384 0.13722593 -0.080529824
v 0.031422038 0.7220044 -0.057247408
v 0.2893533 0.61839736 -0.057247408
v 0.26031846 0.7894248 -0.041818902
v 0.059019577 0.8104222 -0.041818902
v -0.25658587 0.57597804 -0.057247408
v -0.22454582 -0.00018699936 -0.08052979
v 0.016142178 0.78230375 -0.046174783
v -0.22652476 0.75251275 -0.04617476
v 0.2893533 0.61839736 -0.057247408
v 0.49198332 0.5458691 -0.068888575
v 0.46736348 0.6185309 -0.057247385
v 0.5035 -0.00018699936 -0.08052979
v 0.2822301 -0.00018699936 -0.08052979
v 0.49198332 0.5458691 0.086448915
v 0.46736348 0.6185309 -0.057247385
v 0.49198332 0.5458691 -0.068888575
v 0.46736348 0.61853087 0.074807994
v 0.26031846 0.7894248 -0.041818902
v 0.059019577 0.8104222 0.059379324
v 0.059019577 0.8104222 -0.041818902
v 0.26031846 0.7894248 0.059379343
v 0.016142178 0.78230375 -0.046174783
v -0.22652476 0.75251275 0.06373526
v -0.22652476 0.75251275 -0.04617476
v 0.016142178 0.78230375 0.06373526
v -0.25658587 0.57597804 -0.057247408
v -0.44932428 0.6017142 0.074807994
v -0.44932428 0.6017142 -0.057247385
v -0.25658587 0.57597804 0.07480796
v 0.031422038 0.69242996 0.07480798
v 0.059019577 0.8104222 -0.041818902
v 0.059019577 0.8104222 0.059379324
v 0.031422038 0.7220044 -0.057247408
v 0.2893533 0.61839736 -0.057247408
v 0.26031846 0.7894248 0.059379343
v 0.26031846 0.7894248 -0.041818902
v 0.2893533 0.61839736 0.074807994
v -0.25658587 0.57597804 0.07480796
v -0.22652476 0.75251275 -0.04617476
v -0.22652476 0.75251275 0.06373526
v -0.25658587 0.57597804 -0.057247408
v 0.031422038 0.7220044 -0.057247408
v 0.016142178 0.78230375 0.06373526
v 0.016142178 0.78230375 -0.046174783
v 0.031422038 0.69242996 0.07480798
v 0.5035 0.3826487 0.10681293
v 0.32745215 0.349959 0.10681293
v 0.5035 0.47279915 0.1068131
v -0 0.49337184 0.106813096
v -0.5035 0.3826487 0.10681293
v -0.5035 0.47279915 0.1068131
v 0.32745215 0.32695463 0.08045622
v 0.5035 0.3826487 0.10681293
v 0.5035 0.35964423 0.08045618
v 0.32745215 0.349959 0.10681293
v -0.5035 0.35964423 0.08045618
v -0.5035 0.3826487 0.10681293
v -0 0.5163774 0.0804564
v -0.5035 0.47279915 0.1068131
v -0.5035 0.49580467 0.0804564
v -0 0.49337184 0.106813096
v 0.5035 0.47279915 0.1068131
v 0.5035 0.49580467 0.0804564
v 0.5035 0.11465742 0.106812924
v -0.28793707 0.24853244 0.10681315
v 0.5035 0.20480794 0.106813155
v -0.5035 0.11465742 0.106812924
v -0.5035 0.20480794 0.106813155
v 0.5035 0.09165297 0.0804562
v -0.5035 0.11465742 0.106812924
v 0.5035 0.11465742 0.106812924
v -0.5035 0.09165297 0.0804562
v -0.28793707 0.27153796 0.08045641
v -0.5035 0.20480794 0.106813155
v -0.5035 0.2278134 0.080456436
v -0.28793707 0.24853244 0.10681315
v 0.5035 0.2278134 0.080456436
v 0.5035 0.20480794 0.106813155
v 0.2893533 0.61839736 0.074807994
v 0.46736348 0.6185309 -0.057247385
v 0.46736348 0.61853087 0.074807994
v 0.2893533 0.61839736 -0.057247408
v -0.44932428 0.6017142 0.074807994
v -0.49845302 0.553721 -0.05925279
v -0.44932428 0.6017142 -0.057247385
v -0.49845302 0.553721 0.076813295
v 0.49198332 0.5458691 0.086448915
v 0.5035 -0.00018699936 -0.08052979
v 0.5035 -0.00018715301 0.09808994
v 0.49198332 0.5458691 -0.068888575
v -0.5035 -0.00018715301 0.09808994
v -0.49845302 0.553721 -0.05925279
v -0.49845302 0.553721 0.076813295
v -0.5035 -0.00018699936 -0.08052979
vt 0.70833933 0.45328048
vt 0.6824447 0.4545598
vt 0.6969164 0.45382017
vt 0.76032585 0.40126443
vt 0.7602855 0.39224476
vt 0.76032585 0.43046862
vt 0.7271734 0.3972386
vt 0.7269023 0.39212197
vt 0.7271734 0.4300719
vt 0.70833933 0.39212194
vt 0.68476135 0.3923219
vt 0.70833933 0.45328048
vt 0.6824447 0.4545598
vt 0.6825903 0.40700814
vt 0.67843086 0.3923219
vt 0.6548528 0.39212194
vt 0.6548528 0.45856267
vt 0.66026497 0.4713294
vt 0.68086654 0.4713294
vt 0.62690973 0.40045315
vt 0.62973475 0.39212194
vt 0.62690973 0.45391387
vt 0.62408465 0.39212194
vt 0.6036835 0.39212194
vt 0.6309021 0.4713294
vt 0.6523091 0.4713294
vt 0.60946155 0.45758775
vt 0.6036835 0.45283982
vt 0.7110977 0.42941225
vt 0.7271734 0.4300719
vt 0.7146031 0.43232822
vt 0.7271734 0.3972386
vt 0.7110977 0.39212197
vt 0.72347456 0.39212197
vt 0.74214077 0.39212197
vt 0.75644493 0.39224476
vt 0.76032585 0.40126443
vt 0.74214077 0.43292698
vt 0.76032585 0.43046862
vt 0.75846887 0.4419756
vt 0.7454242 0.4419756
vt 0.7271734 0.4300719
vt 0.7269023 0.39212197
vt 0.7405976 0.4419756
vt 0.7276106 0.4419756
vt 0.76032585 0.43046862
vt 0.7745896 0.41090244
vt 0.76765966 0.43001437
vt 0.7745896 0.39212197
vt 0.7602855 0.39224476
vt 0.70833933 0.4713294
vt 0.6969164 0.49737576
vt 0.70833933 0.49737576
vt 0.6969164 0.4713294
vt 0.68098456 0.49737576
vt 0.66026497 0.4713294
vt 0.66026497 0.49737576
vt 0.68098456 0.4713294
vt 0.65253735 0.49737576
vt 0.6309021 0.4713294
vt 0.6309021 0.49737576
vt 0.65253735 0.4713294
vt 0.6245045 0.49737576
vt 0.60946155 0.4713294
vt 0.60946155 0.49737576
vt 0.6245045 0.4713294
vt 0.65627736 0.4713294
vt 0.66026497 0.49737576
vt 0.66026497 0.4713294
vt 0.65627736 0.49737576
vt 0.6855427 0.49737576
vt 0.68098456 0.4713294
vt 0.68098456 0.49737576
vt 0.6855427 0.4713294
vt 0.6245045 0.4713294
vt 0.6309021 0.49737576
vt 0.6309021 0.4713294
vt 0.6245045 0.49737576
vt 0.65627736 0.49737576
vt 0.65253735 0.4713294
vt 0.65253735 0.49737576
vt 0.65627736 0.4713294
vt 0.77406615 0.47797355
vt 0.76309115 0.47797355
vt 0.77406615 0.49132788
vt 0.74369514 0.49132788
vt 0.7133242 0.47797355
vt 0.7133242 0.49132788
vt 0.7631301 0.47236174
vt 0.77406615 0.47797355
vt 0.77406615 0.47236174
vt 0.76309115 0.47797355
vt 0.7133242 0.47236174
vt 0.7133242 0.47797355
vt 0.74369514 0.49641952
vt 0.7133242 0.49132788
vt 0.7133242 0.49641952
vt 0.74369514 0.49132788
vt 0.77406615 0.49132788
vt 0.77406615 0.49641952
vt 0.77406615 0.4507606
vt 0.7263264 0.46213782
vt 0.77406615 0.46213782
vt 0.7133242 0.4507606
vt 0.7133242 0.46213782
vt 0.77406615 0.4445735
vt 0.7133242 0.4507606
vt 0.77406615 0.4507606
vt 0.7133242 0.4445735
vt 0.7262055 0.46714443
vt 0.7133242 0.46213782
vt 0.7133242 0.46714443
vt 0.7263264 0.46213782
vt 0.77406615 0.46714443
vt 0.77406615 0.46213782
vt 0.6855427 0.4713294
vt 0.6969164 0.49737576
vt 0.6969164 0.4713294
vt 0.6855427 0.49737576
vt 0.60946155 0.4713294
vt 0.6036835 0.49737576
vt 0.60946155 0.49737576
vt 0.6036835 0.4713294
vt 0.70833933 0.45328048
vt 0.70833933 0.39212194
vt 0.70833933 0.39212194
vt 0.70833933 0.45328048
vt 0.6036835 0.39212194
vt 0.6036835 0.45283982
vt 0.6036835 0.45283982
vt 0.6036835 0.39212194
vn -0.023956379 0.07402909 0.9969683
vn -0.0042434433 0.06197587 0.99806863
vn -0.0001186302 0.15815057 0.987415
vn 0.10938931 0.030258318 -0.9935383
vn 0.021689707 0.03735328 -0.99906677
vn 0.009111526 0.060672175 -0.99811614
vn 0.065896 0.037412617 -0.99712485
vn 0.020227684 0.041490994 -0.9989341
vn -0.0073510953 0.048176233 -0.99881184
vn -0 0.021313522 0.99977285
vn 0.012665463 0.026066568 0.99957997
vn -0.023956379 0.07402909 0.9969683
vn -0.0042434433 0.06197587 0.99806863
vn 0.011454844 0.047660515 0.9987979
vn -0.019452171 0.03974157 0.9990207
vn 0.0054846643 0.03158599 0.99948597
vn 0.0042682705 0.08009261 0.9967783
vn 0.026029706 0.11104555 0.9934743
vn 0.009538889 0.09144879 0.995764
vn -0.06326552 0.034670904 0.9973943
vn -0 0 1
vn -0.013669446 0.04821094 0.9987437
vn -0.020276198 0.04115315 0.9989471
vn 0.0011996763 0.039831217 0.99920577
vn -0.024805613 0.077189155 0.9967078
vn -0.014707453 0.11980178 0.99268883
vn 0.0045371 0.038243596 0.9992581
vn 0.003320461 0.038353123 0.9992587
vn 0.0009611469 0.04212532 -0.99911183
vn -0.0073510953 0.048176233 -0.99881184
vn 0.0049051177 0.036735244 -0.999313
vn 0.065896 0.037412617 -0.99712485
vn -0.0096279895 0.031094203 -0.99947006
vn -0 0 -1
vn -0.008216208 0.030606005 -0.9994978
vn -0 -2.7955156E-07 -1
vn 0.10938931 0.030258318 -0.9935383
vn -0.019537149 0.10521215 -0.9942578
vn 0.009111526 0.060672175 -0.99811614
vn 0.034123886 0.11142843 -0.99318635
vn 0.017378569 0.16660571 -0.9858704
vn -0.0073510953 0.048176233 -0.99881184
vn 0.020227684 0.041490994 -0.9989341
vn -0.058531508 0.130483 -0.98972124
vn -0.00784824 0.06392839 -0.9979236
vn 0.009111526 0.060672175 -0.99811614
vn -0.0343355 0.06415308 -0.99734926
vn -0.00011859444 0.15815392 -0.9874144
vn -0.010103596 0.03411658 -0.9993668
vn 0.021689707 0.03735328 -0.99906677
vn 0.9471106 0.3209074 1.2223228E-07
vn 0.9471106 0.32090732 0
vn 0.9471106 0.32090724 0
vn 0.94711053 0.32090753 1.8669958E-07
vn 0.10374668 0.9946037 0
vn 0.10374668 0.9946037 0
vn 0.10374669 0.9946037 0
vn 0.10374668 0.9946037 0
vn -0.1218501 0.9925485 0
vn -0.121850125 0.9925485 0
vn -0.12185013 0.9925485 0
vn -0.1218501 0.9925485 0
vn 0.13235421 0.9912025 0
vn 0.1323542 0.9912025 0
vn 0.13235418 0.9912025 0
vn 0.1323542 0.9912025 0
vn -0.96604407 0.2565197 0.030926727
vn -0.9650213 0.25988233 0.034570727
vn -0.9737205 0.2277463 0
vn -0.95574236 0.2870934 0.064296015
vn 0.9858937 0.16737238 0
vn 0.9858937 0.16737236 0
vn 0.9858937 0.16737235 0
vn 0.9858937 0.16737236 0
vn -0.9858095 0.16786803 0
vn -0.9858095 0.16786802 0
vn -0.9858095 0.16786802 0
vn -0.9858095 0.16786797 0
vn 0.97663 0.21429011 0.016541429
vn 0.9808332 0.19286314 0.027751742
vn 0.9693619 0.24563657 0
vn 0.9843255 0.1720983 0.03854229
vn 3.560529E-07 -1.917495E-06 1
vn -0 -1.386324E-06 1
vn 1.8325981E-07 -1.6698574E-06 1
vn -0 -1.2954245E-06 1
vn -0 -1.8115742E-06 1
vn -0 -1.9174952E-06 1
vn 0.051992275 -0.75237507 0.6566799
vn 0.13854569 -0.74612784 0.6512283
vn 0.13854563 -0.7461278 0.6512283
vn 0.057079326 -0.75216585 0.6564972
vn -0.02962553 -0.7530628 0.65728134
vn -0.02962553 -0.7530628 0.65728134
vn -0 0.7533777 0.65758806
vn -0.030767972 0.7530211 0.6572766
vn -0.030767974 0.75302106 0.65727663
vn -0 0.7533777 0.6575881
vn 0.030767972 0.7530211 0.6572766
vn 0.030767974 0.75302106 0.65727663
vn -1.3701951E-07 -2.4599274E-06 1
vn -0 -1.7969305E-06 1
vn -1.5338188E-07 -2.5566578E-06 1
vn 3.638993E-07 -2.2358445E-06 1
vn 5.6314E-07 -2.5566578E-06 1
vn -0 -0.75339323 0.6575702
vn -0 -0.75339323 0.6575702
vn -0 -0.7533933 0.6575702
vn -0 -0.7533933 0.6575702
vn -0.0519085 0.75236243 0.656701
vn -0.15106094 0.7447334 0.6500405
vn -0.151061 0.7447335 0.65004045
vn -0.057766598 0.75211996 0.6564896
vn 0.041585904 0.75272727 0.65701777
vn 0.0415859 0.75272727 0.6570177
vn -0.0007503652 0.99999976 2.3639626E-07
vn -0.0007502844 0.99999976 3.4538982E-07
vn -0.0007501091 0.99999976 5.8178614E-07
vn -0.0007505406 0.99999976 0
vn -0.6987918 0.7153251 0
vn -0.69879174 0.7153252 0
vn -0.6987918 0.71532524 0
vn -0.6987918 0.7153251 0
vn 0.99977773 0.021085946 0
vn 0.99977773 0.021085946 0
vn 0.99977773 0.021085946 0
vn 0.99977773 0.021085946 0
vn -0.9999585 0.009111215 0
vn -0.9999585 0.009111214 0
vn -0.9999585 0.009111215 0
vn -0.9999585 0.009111216 0
g fence2_0
f 3/3/3 2/2/2 1/1/1
f 6/6/6 5/5/5 4/4/4
f 9/9/9 8/8/8 7/7/7
f 12/12/12 11/11/11 10/10/10
f 13/13/13 11/11/11 12/12/12
f 14/14/14 11/11/11 13/13/13
f 13/13/13 15/15/15 14/14/14
f 16/16/16 15/15/15 13/13/13
f 17/17/17 16/16/16 13/13/13
f 17/17/17 13/13/13 18/18/18
f 19/19/19 18/18/18 13/13/13
f 17/17/17 20/20/20 16/16/16
f 20/20/20 21/21/21 16/16/16
f 22/22/22 20/20/20 17/17/17
f 22/22/22 23/23/23 20/20/20
f 24/24/24 23/23/23 22/22/22
f 22/22/22 17/17/17 25/25/25
f 26/26/26 25/25/25 17/17/17
f 27/27/27 24/24/24 22/22/22
f 28/28/28 24/24/24 27/27/27
f 31/31/31 30/30/30 29/29/29
f 30/30/30 32/32/32 29/29/29
f 29/29/29 32/32/32 33/33/33
f 32/32/32 34/34/34 33/33/33
f 37/37/37 36/36/36 35/35/35
f 38/38/38 37/37/37 35/35/35
f 39/39/39 37/37/37 38/38/38
f 39/39/39 38/38/38 40/40/40
f 41/41/41 40/40/40 38/38/38
f 38/38/38 35/35/35 42/42/42
f 35/35/35 43/43/43 42/42/42
f 38/38/38 42/42/42 44/44/44
f 45/45/45 44/44/44 42/42/42
f 48/48/48 47/47/47 46/46/46
f 47/47/47 49/49/49 46/46/46
f 49/49/49 50/50/50 46/46/46
f 53/53/53 52/52/52 51/51/51
f 54/54/54 51/51/51 52/52/52
f 57/57/57 56/56/56 55/55/55
f 58/58/58 55/55/55 56/56/56
f 61/61/61 60/60/60 59/59/59
f 62/62/62 59/59/59 60/60/60
f 65/65/65 64/64/64 63/63/63
f 66/66/66 63/63/63 64/64/64
f 69/69/69 68/68/68 67/67/67
f 70/70/70 67/67/67 68/68/68
f 73/73/73 72/72/72 71/71/71
f 74/74/74 71/71/71 72/72/72
f 77/77/77 76/76/76 75/75/75
f 78/78/78 75/75/75 76/76/76
f 81/81/81 80/80/80 79/79/79
f 82/82/82 79/79/79 80/80/80
f 85/85/85 84/84/84 83/83/83
f 85/85/85 86/86/86 84/84/84
f 86/86/86 87/87/87 84/84/84
f 88/88/88 87/87/87 86/86/86
f 91/91/91 90/90/90 89/89/89
f 92/92/92 89/89/89 90/90/90
f 89/89/89 92/92/92 93/93/93
f 94/94/94 93/93/93 92/92/92
f 97/97/97 96/96/96 95/95/95
f 98/98/98 95/95/95 96/96/96
f 98/98/98 99/99/99 95/95/95
f 100/100/100 95/95/95 99/99/99
f 103/103/103 102/102/102 101/101/101
f 102/102/102 104/104/104 101/101/101
f 102/102/102 105/105/105 104/104/104
f 108/108/108 107/107/107 106/106/106
f 109/109/109 106/106/106 107/107/107
f 112/112/112 111/111/111 110/110/110
f 113/113/113 110/110/110 111/111/111
f 110/110/110 113/113/113 114/114/114
f 115/115/115 114/114/114 113/113/113
f 118/118/118 117/117/117 116/116/116
f 119/119/119 116/116/116 117/117/117
f 122/122/122 121/121/121 120/120/120
f 123/123/123 120/120/120 121/121/121
f 126/126/126 125/125/125 124/124/124
f 127/127/127 124/124/124 125/125/125
f 130/130/130 129/129/129 128/128/128
f 131/131/131 128/128/128 129/129/129
