g floor_water_edge2
v -0.5053681 -0.15709253 0.6304969
v 0.11059145 -0.6315281 0.93200946
v -0.5053681 -0.63152796 0.9002423
v 0.12813528 -0.15709276 0.6497404
v 0.5051261 -0.63152844 0.9002428
v -0.5053681 2.7026945E-06 0.61821747
v 0.5051261 -0.157093 0.6304977
v 0.13394439 2.3741652E-06 0.633314
v -0.5053681 3.0057158E-06 -0.5034993
v 0.5051261 2.2225192E-06 0.6182184
v 0.5051262 2.4871272E-06 -0.5035005
vt 0.9663984 0.94737834
vt 0.9680036 0.93865013
vt 0.96658415 0.93865013
vt 0.9678596 0.94737834
vt 0.9688268 0.93865013
vt 0.96628815 0.9713659
vt 0.9686968 0.94737834
vt 0.968355 0.9713659
vt 0.9671749 0.9976262
vt 0.96921027 0.9713659
vt 0.9695053 0.9976262
vn -0 1 3.2786525E-07
vn -0 1 3.2786525E-07
vn -0 1 3.2786525E-07
vn -0 1 3.2786525E-07
vn -0 1 3.2786525E-07
vn -0 1 3.2786525E-07
vn -0 1 3.2786525E-07
vn -0 1 3.2786525E-07
vn -0 1 3.2786525E-07
vn -0 1 3.2786525E-07
vn -0 1 3.2786525E-07
g floor_water_edge2_0
f 3/3/3 2/2/2 1/1/1
f 1/1/1 2/2/2 4/4/4
f 2/2/2 5/5/5 4/4/4
f 4/4/4 6/6/6 1/1/1
f 4/4/4 5/5/5 7/7/7
f 6/6/6 4/4/4 8/8/8
f 7/7/7 8/8/8 4/4/4
f 6/6/6 8/8/8 9/9/9
f 8/8/8 7/7/7 10/10/10
f 9/9/9 8/8/8 11/11/11
f 11/11/11 8/8/8 10/10/10
