g floor_driftSand_C
v -0.5034991 1.9304177E-06 -0.5034996
v -0.36902332 2.3153134E-06 0.42249477
v -0.5035 2.2628874E-06 0.45930123
v -0.5034991 1.9304177E-06 -0.5034996
v 0.4534074 2.1904077E-06 -0.031330153
v 0.4528589 2.1641797E-06 0.11103352
v -0.5034991 1.9304177E-06 -0.5034996
v 0.4591635 2.2566433E-06 -0.5035016
v 0.48681042 2.2363834E-06 -0.42375225
v 0.50257945 2.2278778E-06 -0.3361098
v 0.4956921 2.221533E-06 -0.23212136
v -0.5034991 1.9304177E-06 -0.5034996
v 0.46536818 2.2020172E-06 -0.1365977
v 0.4534074 2.1904077E-06 -0.031330153
v 0.4956921 2.221533E-06 -0.23212136
v 0.14483625 2.2402892E-06 0.4661121
v -0.012899824 2.298216E-06 0.45533407
v -0.503499 1.9304177E-06 -0.5034995
v -0.5034991 1.9304177E-06 -0.5034996
v -0.36902332 2.3153134E-06 0.42249477
v -0.26190424 2.306287E-06 0.41409886
v -0.14632761 2.3026644E-06 0.4252556
v -0.012899824 2.298216E-06 0.45533407
v 0.428179 2.199678E-06 0.25153607
v -0.5034991 1.9304177E-06 -0.5034996
v 0.4528589 2.1641797E-06 0.11103352
v 0.35423678 2.2192928E-06 0.3638431
v 0.25546753 2.2328093E-06 0.43673652
v 0.14483625 2.2402892E-06 0.4661121
vt 0.9889693 0.99646616
vt 0.9878089 0.9393637
vt 0.98743486 0.9393637
vt 0.98889565 0.99646616
vt 0.98763824 0.9393637
vt 0.98782253 0.9393637
vt 0.98889565 0.99646616
vt 0.98988557 0.9393637
vt 0.98956954 0.9393637
vt 0.9893811 0.9393637
vt 0.98920065 0.9393637
vt 0.98889565 0.99646616
vt 0.9886149 0.9393637
vt 0.9880563 0.9393637
vt 0.9893606 0.9393637
vt 0.9885565 0.9393637
vt 0.9895944 0.9393637
vt 0.98889565 0.99646616
vt 0.98889565 0.99646616
vt 0.9906248 0.9393637
vt 0.9902098 0.9393637
vt 0.98997813 0.93936366
vt 0.9896203 0.9393637
vt 0.9881818 0.9393637
vt 0.98889565 0.99646616
vt 0.9877913 0.9393637
vt 0.98834485 0.9393637
vt 0.988464 0.9393637
vt 0.9885466 0.9393637
vn -1.6500717E-07 1 -1.6799693E-07
vn -2.2120709E-07 1 -3.8353218E-07
vn -4.8436596E-07 1 -3.4531539E-07
vn -1.6500717E-07 1 -1.6799693E-07
vn -3.4189327E-07 1 1.4225846E-07
vn -1.7106962E-07 1 -1.1416495E-07
vn -1.6500717E-07 1 -1.6799693E-07
vn -3.3887756E-07 1 3.7152557E-07
vn -3.2819023E-07 1 2.3880997E-07
vn -3.1051212E-07 1 0
vn -3.1134977E-07 1 0
vn -1.6500717E-07 1 -1.6799693E-07
vn -3.1357817E-07 1 0
vn -3.4189327E-07 1 1.4225846E-07
vn -3.1134977E-07 1 0
vn 1.2242191E-07 1 -4.0144067E-07
vn 3.278707E-07 1 -5.513483E-07
vn 2.3127166E-07 1 -5.082614E-07
vn -1.6500717E-07 1 -1.6799693E-07
vn -2.2120709E-07 1 -3.8353218E-07
vn -0 1 -4.263831E-07
vn 1.1417848E-07 1 -4.4471105E-07
vn 3.278707E-07 1 -5.513483E-07
vn -0 1 -2.4872085E-07
vn -1.6500717E-07 1 -1.6799693E-07
vn -1.7106962E-07 1 -1.1416495E-07
vn -0 1 -2.5474782E-07
vn -0 1 -2.870141E-07
vn 1.2242191E-07 1 -4.0144067E-07
g floor_driftSand_C_0
f 3/3/3 2/2/2 1/1/1
f 6/6/6 5/5/5 4/4/4
f 9/9/9 8/8/8 7/7/7
f 10/10/10 9/9/9 7/7/7
f 11/11/11 10/10/10 7/7/7
f 14/14/14 13/13/13 12/12/12
f 15/15/15 12/12/12 13/13/13
f 18/18/18 17/17/17 16/16/16
f 19/19/19 18/18/18 16/16/16
f 20/20/20 18/18/18 19/19/19
f 20/20/20 21/21/21 18/18/18
f 21/21/21 22/22/22 18/18/18
f 23/23/23 18/18/18 22/22/22
f 26/26/26 25/25/25 24/24/24
f 24/24/24 25/25/25 27/27/27
f 27/27/27 25/25/25 28/28/28
f 29/29/29 28/28/28 25/25/25
