g floor_3_SC1
v -0.50346637 -1.05638506E-07 -0.50350165
v 0.5034685 -2.88105E-07 -0.5035019
v -0.50346637 -1.0083675E-07 0.50350124
v 0.44799638 -2.88105E-07 0.44975573
v 0.4356435 -2.7850152E-07 0.47755733
v 0.43651766 -2.5449276E-07 0.50350094
v 0.50346804 -0.053320915 0.50350094
v 0.47241354 -3.07312E-07 0.4353477
v 0.50346804 -2.7850152E-07 0.43651688
vt 0.5654257 0.9359788
vt 0.624577 0.9359788
vt 0.5654257 0.87522024
vt 0.6217879 0.8785282
vt 0.620989 0.87709755
vt 0.6207813 0.87522024
vt 0.624577 0.87522024
vt 0.62295777 0.879651
vt 0.624577 0.8800574
vn 1.8120987E-07 1 0
vn 1.757572E-07 1 0
vn 1.8845888E-07 1 0
vn 0.18016657 0.97015184 0.16231242
vn 0.31098086 0.9481191 0.06603801
vn 0.33622935 0.94171196 -0.011329683
vn 0.37224224 0.8508888 0.37070736
vn 0.08288989 0.95025384 0.30024463
vn -0.012682119 0.9414771 0.3368384
g floor_3_SC1_0
f 3/3/3 2/2/2 1/1/1
f 4/4/4 2/2/2 3/3/3
f 5/5/5 4/4/4 3/3/3
f 6/6/6 5/5/5 3/3/3
f 7/7/7 5/5/5 6/6/6
f 4/4/4 5/5/5 7/7/7
f 2/2/2 4/4/4 8/8/8
f 8/8/8 4/4/4 7/7/7
f 9/9/9 2/2/2 8/8/8
f 9/9/9 8/8/8 7/7/7
