g floor_chair_side2
v 0.40280044 -0.043842424 -1.4330627
v 0.40280023 -0.04384231 2.355059
v -1.4098002 -0.043842 2.3550584
v -1.4097993 -0.043842424 -1.433063
v 0.5035 -0.23993218 2.4557588
v 0.40280044 -0.043842424 -1.4330627
v 0.50350046 -0.23993252 -1.5337627
v 0.40280023 -0.04384231 2.355059
v -1.5105003 -0.23993233 2.4557588
v -1.4098002 -0.043842 2.3550584
v -1.5105006 -2.2473645 2.7570899
v 0.5035006 -2.2473648 2.757091
v -1.5104994 -0.23993252 -1.533763
v -1.4097993 -0.043842424 -1.433063
v -1.4098002 -0.043842 2.3550584
v -1.5105003 -0.23993233 2.4557588
v 0.50350046 -0.23993252 -1.5337627
v 0.40280044 -0.043842424 -1.4330627
v -1.4097993 -0.043842424 -1.433063
v -1.5104994 -0.23993252 -1.533763
v -0.5153078 -0.034299627 1.3117149
v -0.3964812 -0.03429959 2.3593035
v -0.60643613 -0.034299597 2.3584976
v -0.59219795 -0.03429963 1.5580605
vt 0.0044359113 0.6865297
vt 0.11257066 0.68652964
vt 0.11257073 0.6056585
vt 0.0044359113 0.6056585
vt 0.86762285 0.48834646
vt 0.83434707 0.49861732
vt 0.83434707 0.48834646
vt 0.86762285 0.49861732
vt 0.7433645 0.4883465
vt 0.7433645 0.49861732
vt 0.7433645 0.40874776
vt 0.86760074 0.40874776
vt 0.83434707 0.48834646
vt 0.83434707 0.49861732
vt 0.86762285 0.49861732
vt 0.86762285 0.48834646
vt 0.8480513 0.48834646
vt 0.8480513 0.49861732
vt 0.86762285 0.49861732
vt 0.86762285 0.48834646
vt 0.45474184 0.7183015
vt 0.4446809 0.7158394
vt 0.4446809 0.72233665
vt 0.45474184 0.72233665
vn -0 1 0
vn -0 1 0
vn -0 1 0
vn -0 1 0
vn -0 1 0
vn -0 1 0
vn -0 1 0
vn -0 1 0
vn -0 1 0
vn -0 1 0
vn -0 1 0
vn -0 1 0
vn -0 1 0
vn -0 1 0
vn -0 1 0
vn -0 1 0
vn -0 1 0
vn -0 1 0
vn -0 1 0
vn -0 1 0
vn -0 1 0
vn -0 1 0
vn -0 1 0
vn -0 1 0
g floor_chair_side2_0
f 3/3/3 2/2/2 1/1/1
f 4/4/4 3/3/3 1/1/1
f 7/7/7 6/6/6 5/5/5
f 6/6/6 8/8/8 5/5/5
f 5/5/5 8/8/8 9/9/9
f 8/8/8 10/10/10 9/9/9
f 5/5/5 9/9/9 11/11/11
f 12/12/12 5/5/5 11/11/11
f 15/15/15 14/14/14 13/13/13
f 16/16/16 15/15/15 13/13/13
f 19/19/19 18/18/18 17/17/17
f 20/20/20 19/19/19 17/17/17
f 23/23/23 22/22/22 21/21/21
f 24/24/24 23/23/23 21/21/21
