g floor_table_center2_head
v 1.3896639 -2.1573503E-06 -1.389662
v 1.5105021 -0.19503358 -1.5105
v 1.5105046 -0.19503218 1.5104969
v 1.3896631 -1.8596419E-06 1.3896585
v 1.3896631 -1.8596419E-06 1.3896585
v -2.517499 -1.8534755E-06 1.389658
v -2.517499 -1.8068226E-06 -1.3896621
v 1.3896639 -2.1573503E-06 -1.389662
v -2.5174994 -0.19503242 1.5104971
v -2.517499 -1.8534755E-06 1.389658
v 1.3896631 -1.8596419E-06 1.3896585
v 1.5105046 -0.19503218 1.5104969
v 1.3896639 -2.1573503E-06 -1.389662
v -2.517499 -1.8068226E-06 -1.3896621
v -2.5174985 -0.19503364 -1.5104995
v 1.5105021 -0.19503358 -1.5105
vt 0.8848381 0.49862742
vt 0.8848381 0.4883329
vt 0.7972123 0.4883329
vt 0.7972123 0.49862742
vt 0.0043925545 0.6870867
vt 0.08070443 0.6870867
vt 0.08070443 0.6056089
vt 0.0043925415 0.60560894
vt 0.8012501 0.4883329
vt 0.8012501 0.49862742
vt 0.73473305 0.49862742
vt 0.73473305 0.4883329
vt 0.73473305 0.49862742
vt 0.8012501 0.49862742
vt 0.8012501 0.4883329
vt 0.73473305 0.4883329
vn -0 1 0
vn -0 1 0
vn -0 1 0
vn -0 1 0
vn -0 1 0
vn -0 1 0
vn -0 1 0
vn -0 1 0
vn -0 1 0
vn -0 1 0
vn -0 1 0
vn -0 1 0
vn -0 1 0
vn -0 1 0
vn -0 1 0
vn -0 1 0
g floor_table_center2_head_0
f 3/3/3 2/2/2 1/1/1
f 4/4/4 3/3/3 1/1/1
f 7/7/7 6/6/6 5/5/5
f 8/8/8 7/7/7 5/5/5
f 11/11/11 10/10/10 9/9/9
f 12/12/12 11/11/11 9/9/9
f 15/15/15 14/14/14 13/13/13
f 16/16/16 15/15/15 13/13/13
