g floor_table_center2_foot
v -2.396662 -1.8596419E-06 1.3896569
v -2.5175037 -0.19503291 1.5104976
v -2.517501 -0.19503377 -1.5104988
v -2.3966606 -1.105767E-06 -1.3896624
v 1.5104966 -0.19503371 -1.5104992
v 1.510496 -1.4562949E-06 -1.3896623
v -2.3966606 -1.105767E-06 -1.3896624
v 1.510496 -1.4562949E-06 -1.3896623
v 1.5104966 -1.8596419E-06 1.3896574
v -2.396662 -1.8596419E-06 1.3896569
v 1.5104957 -0.19503267 1.5104973
v -2.5175037 -0.19503291 1.5104976
v -2.396662 -1.8596419E-06 1.3896569
v 1.5104966 -1.8596419E-06 1.3896574
vt 0.7972123 0.49862742
vt 0.7972123 0.4883329
vt 0.8848381 0.4883329
vt 0.8848381 0.49862742
vt 0.81866425 0.4883329
vt 0.81866425 0.49862742
vt 0.15701632 0.6056089
vt 0.08070443 0.6056089
vt 0.08070443 0.6870866
vt 0.15701635 0.6870866
vt 0.81866425 0.4883329
vt 0.8848381 0.4883329
vt 0.8848381 0.49862742
vt 0.8186315 0.49862742
vn -0 1 0
vn -0 1 0
vn -0 1 0
vn -0 1 0
vn -0 1 0
vn -0 1 0
vn -0 1 0
vn -0 1 0
vn -0 1 0
vn -0 1 0
vn -0 1 0
vn -0 1 0
vn -0 1 0
vn -0 1 0
g floor_table_center2_foot_0
f 3/3/3 2/2/2 1/1/1
f 4/4/4 3/3/3 1/1/1
f 3/3/3 4/4/4 5/5/5
f 4/4/4 6/6/6 5/5/5
f 9/9/9 8/8/8 7/7/7
f 10/10/10 9/9/9 7/7/7
f 13/13/13 12/12/12 11/11/11
f 14/14/14 13/13/13 11/11/11
