g floor_4_1
v 0.5035 -0.053371 -0.5035
v -0.5035 -0.053371 0.5035
v -0.5035 -0.053371 -0.5035
v 0.5035 -0.053371 0.5035
v 0.2847617 -0.053296402 0.087416664
v 0.27029964 -0.04532813 0.1592961
v 0.25233504 -0.05329639 0.15695561
v 0.36849782 -0.053296372 0.34568512
v 0.2975231 -0.04532812 0.10091512
v 0.53304 -0.05329639 -0.007634089
v 0.5319406 -0.04532813 0.010908963
v 0.5929941 -0.053296387 0.010989172
v 0.58073694 -0.04532813 0.024329586
v 0.67050046 -0.053296372 0.12096193
v 0.65311146 -0.045328114 0.12020302
v 0.6222769 -0.053296354 0.31105384
v 0.61009115 -0.04532809 0.29913673
v 0.5177384 -0.05329637 0.3550716
v 0.5194132 -0.04532809 0.33810958
v 0.3813304 -0.045328103 0.33392623
v 0.24401495 -0.05318432 -0.26697215
v 0.23573136 -0.04722717 -0.20099027
v 0.22248775 -0.05318432 -0.20271038
v 0.27101645 -0.053184308 -0.11355117
v 0.25307298 -0.047227178 -0.25627592
v 0.33935297 -0.0531843 -0.28113362
v 0.33928975 -0.047227155 -0.26711744
v 0.38334653 -0.05318429 -0.26352558
v 0.37430704 -0.047227155 -0.25369504
v 0.41837803 -0.053184282 -0.17065504
v 0.40603045 -0.047227144 -0.16991335
v 0.38841242 -0.053184282 -0.10639341
v 0.38025028 -0.047227144 -0.11462769
v 0.33527824 -0.0531843 -0.083585255
v 0.3362376 -0.04722715 -0.09513957
v 0.280952 -0.047227163 -0.12091967
vt 0.7314437 0.7342184
vt 0.67502284 0.67779756
vt 0.67502284 0.7342184
vt 0.7314437 0.67779756
vt 0.66076934 0.632604
vt 0.65067756 0.62801105
vt 0.6526903 0.6234634
vt 0.63009083 0.6236403
vt 0.6560533 0.63503027
vt 0.66059244 0.6542417
vt 0.65631866 0.6510868
vt 0.65463626 0.6612467
vt 0.65165055 0.656426
vt 0.6348673 0.66115826
vt 0.6359011 0.6566914
vt 0.62586236 0.6534456
vt 0.63009524 0.6505561
vt 0.62586236 0.6314541
vt 0.63027215 0.63467646
vt 0.6330706 0.6282764
vt 0.66076934 0.632604
vt 0.65067756 0.62801105
vt 0.6526903 0.6234634
vt 0.63009083 0.6236403
vt 0.6560533 0.63503027
vt 0.66059244 0.6542417
vt 0.65631866 0.6510868
vt 0.65463626 0.6612467
vt 0.65165055 0.656426
vt 0.6348673 0.66115826
vt 0.6359011 0.6566914
vt 0.62586236 0.6534456
vt 0.63009524 0.6505561
vt 0.62586236 0.6314541
vt 0.63027215 0.63467646
vt 0.6330706 0.6282764
vn -0 1 0
vn -0 1 0
vn -0 1 0
vn -0 1 0
vn -0 1 0
vn -0 1 0
vn -0 1 0
vn -0 1 0
vn -0 1 0
vn -0 1 0
vn -0 1 0
vn -0 1 0
vn -0 1 0
vn -0 1 0
vn -0 1 0
vn -0 1 0
vn -0 1 0
vn -0 1 0
vn -0 1 0
vn -0 1 0
vn -0 1 0
vn -0 1 0
vn -0 1 0
vn -0 1 0
vn -0 1 0
vn -0 1 0
vn -0 1 0
vn -0 1 0
vn -0 1 0
vn -0 1 0
vn -0 1 0
vn -0 1 0
vn -0 1 0
vn -0 1 0
vn -0 1 0
vn -0 1 0
g floor_4_1_0
f 3/3/3 2/2/2 1/1/1
f 4/4/4 1/1/1 2/2/2
f 7/7/7 6/6/6 5/5/5
f 7/7/7 8/8/8 6/6/6
f 9/9/9 5/5/5 6/6/6
f 5/5/5 9/9/9 10/10/10
f 11/11/11 10/10/10 9/9/9
f 9/9/9 6/6/6 11/11/11
f 10/10/10 11/11/11 12/12/12
f 13/13/13 12/12/12 11/11/11
f 12/12/12 13/13/13 14/14/14
f 13/13/13 11/11/11 15/15/15
f 15/15/15 14/14/14 13/13/13
f 11/11/11 6/6/6 15/15/15
f 14/14/14 15/15/15 16/16/16
f 17/17/17 16/16/16 15/15/15
f 16/16/16 17/17/17 18/18/18
f 19/19/19 17/17/17 15/15/15
f 19/19/19 18/18/18 17/17/17
f 18/18/18 19/19/19 8/8/8
f 6/6/6 19/19/19 15/15/15
f 20/20/20 8/8/8 19/19/19
f 20/20/20 6/6/6 8/8/8
f 20/20/20 19/19/19 6/6/6
f 23/23/23 22/22/22 21/21/21
f 23/23/23 24/24/24 22/22/22
f 25/25/25 21/21/21 22/22/22
f 21/21/21 25/25/25 26/26/26
f 27/27/27 26/26/26 25/25/25
f 25/25/25 22/22/22 27/27/27
f 26/26/26 27/27/27 28/28/28
f 29/29/29 28/28/28 27/27/27
f 28/28/28 29/29/29 30/30/30
f 29/29/29 27/27/27 31/31/31
f 31/31/31 30/30/30 29/29/29
f 27/27/27 22/22/22 31/31/31
f 30/30/30 31/31/31 32/32/32
f 33/33/33 32/32/32 31/31/31
f 32/32/32 33/33/33 34/34/34
f 35/35/35 33/33/33 31/31/31
f 35/35/35 34/34/34 33/33/33
f 34/34/34 35/35/35 24/24/24
f 22/22/22 35/35/35 31/31/31
f 36/36/36 24/24/24 35/35/35
f 36/36/36 22/22/22 24/24/24
f 36/36/36 35/35/35 22/22/22
