g floor_house1_broken1
v -0.22459063 -0.016813349 0.5021948
v -0.11671267 -0.016813355 0.4907487
v -0.11727178 -0.016813353 0.49819717
v 0.39363265 -1.8214295E-06 -0.04250194
v 0.47263327 -1.8187953E-06 0.056240287
v 0.39874747 -1.8232944E-06 0.05370066
v -1.402111E-06 -1.882062E-06 0.38555947
v 0.25174785 -1.9057535E-06 0.5037385
v -1.363697E-06 -1.8913482E-06 0.50373846
v 0.25174794 -1.8624354E-06 0.26119992
v -1.2868691E-06 -1.8210105E-06 0.034543253
v 0.25174809 -1.7472958E-06 -0.50326174
v -1.171627E-06 -1.7437085E-06 -0.45279312
v -1.171627E-06 -1.7472958E-06 -0.50326174
v 0.3778414 -1.8223059E-06 -0.07543031
v 0.44055995 -1.7953087E-06 -0.50315726
v 0.4447454 -1.7957595E-06 -0.42902732
v 0.45730177 -1.7970987E-06 -0.2063239
v 0.47263327 -1.8187953E-06 0.056240287
v 0.39363265 -1.8214295E-06 -0.04250194
v 0.37378445 -1.8741772E-06 0.2791378
v 0.4460202 -1.8974089E-06 0.43373862
v 0.45903778 -1.8727131E-06 0.2668558
v 0.44055972 -1.9105553E-06 0.5037385
v 0.5035006 -1.9105553E-06 0.5037385
v 0.50349885 -1.9350034E-06 0.42686445
v -0.45595816 -0.016813263 -0.056437656
v -0.4318963 -0.01681327 -0.016271863
v -0.49553522 -0.016813265 -0.01856829
v -0.47296992 -0.016813265 -0.05415556
v -0.49776116 -0.016813228 -0.29319808
v -1.402111E-06 -1.882062E-06 0.38555947
v -0.052449036 -1.8844667E-06 0.44601238
v -0.11990598 -1.884525E-06 0.48678145
v -0.25175056 -1.8817448E-06 0.50373846
v -0.032627027 -1.8192948E-06 -0.020129858
v -1.2868691E-06 -1.8210105E-06 0.034543253
v -0.067259826 -1.7758297E-06 -0.26390073
v -0.2517504 -1.7328905E-06 -0.50326174
v -0.031990852 -1.7658828E-06 -0.34734187
v -0.027650686 -1.7511201E-06 -0.430901
v -0.023892146 -1.7472958E-06 -0.5032617
v -1.171627E-06 -1.7437085E-06 -0.45279312
v -0.027650686 -1.7511201E-06 -0.430901
v -1.171627E-06 -1.7472958E-06 -0.50326174
v -0.5034996 -1.7477623E-06 -0.37850744
v -0.50349957 -1.7328905E-06 -0.5032618
v -0.4514116 -1.8000196E-06 -0.06098115
v -0.46643648 -1.79549E-06 -0.05869917
v -0.41830128 -1.8110713E-06 -0.008553108
v -0.25175056 -1.8817448E-06 0.50373846
v -0.50349975 -1.876943E-06 0.50373846
v -0.5034996 -1.8059958E-06 -0.010849574
v 0.49510384 -0.01681343 0.4160019
v 0.45565152 -0.016813427 0.42190373
v 0.46858743 -0.016813379 0.25767657
v 0.47970635 -0.016813323 0.06484494
v 0.49510399 -0.016813261 -0.42520922
v 0.46437487 -0.016813323 -0.2063239
v 0.45367587 -0.016813269 -0.4233149
v 0.3795711 -0.016813379 0.2699586
v 0.382409 -0.016813282 -0.040052935
v 0.39007205 -0.016813288 -0.024381366
v 0.39629996 -0.016813304 0.062305357
v 0.46858743 -0.016813379 0.25767657
v 0.47970635 -0.016813323 0.06484494
v -0.05171794 -0.016813353 0.45131895
v -0.011963023 -0.016813345 0.4054962
v -0.011963023 -0.016813358 0.49507496
v -0.11671267 -0.016813355 0.4907487
v -0.11727178 -0.016813353 0.49819717
v 0.46437487 -0.016813323 -0.2063239
v 0.47263327 -1.8187953E-06 0.056240287
v 0.45730177 -1.7970987E-06 -0.2063239
v 0.47970635 -0.016813323 0.06484494
v 0.39874747 -1.8232944E-06 0.05370066
v 0.39629996 -0.016813304 0.062305357
v 0.39363265 -1.8214295E-06 -0.04250194
v 0.39007205 -0.016813288 -0.024381366
v 0.3778414 -1.8223059E-06 -0.07543031
v 0.382409 -0.016813282 -0.040052935
v 0.3795711 -0.016813379 0.2699586
v 0.37378445 -1.8741772E-06 0.2791378
v 0.46858743 -0.016813379 0.25767657
v 0.45903778 -1.8727131E-06 0.2668558
v 0.4460202 -1.8974089E-06 0.43373862
v 0.45565152 -0.016813427 0.42190373
v 0.50349885 -1.9350034E-06 0.42686445
v 0.49510384 -0.01681343 0.4160019
v 0.45367587 -0.016813269 -0.4233149
v 0.45730177 -1.7970987E-06 -0.2063239
v 0.4447454 -1.7957595E-06 -0.42902732
v -0.025218273 -0.016813233 -0.33011946
v -0.021620955 -0.01681322 -0.4237098
v -0.010379137 -0.01681322 -0.42948496
v -0.010379252 -0.016813282 -0.012511401
v -0.05809893 -0.016813241 -0.2604615
v -0.025966693 -0.016813274 -0.03817714
v 0.49510384 -0.01681343 0.4160019
v 0.49510399 -0.016813261 -0.42520922
v 0.50349754 -2.595346E-06 -0.43166673
v 0.50349885 -1.9350034E-06 0.42686445
v 0.44055995 -1.7953087E-06 -0.50315726
v 0.5034978 -2.5947795E-06 -0.50315726
v 0.50349754 -2.595346E-06 -0.43166673
v 0.4447454 -1.7957595E-06 -0.42902732
v 0.4447454 -1.7957595E-06 -0.42902732
v 0.50349754 -2.595346E-06 -0.43166673
v 0.49510399 -0.016813261 -0.42520922
v 0.45367587 -0.016813269 -0.4233149
v -1.171627E-06 -1.7437085E-06 -0.45279312
v -0.010379252 -0.016813282 -0.012511401
v -0.010379137 -0.01681322 -0.42948496
v -0.021620955 -0.01681322 -0.4237098
v -1.2868691E-06 -1.8210105E-06 0.034543253
v -0.027650686 -1.7511201E-06 -0.430901
v -0.032627027 -1.8192948E-06 -0.020129858
v -0.025218273 -0.016813233 -0.33011946
v -0.025966693 -0.016813274 -0.03817714
v -0.031990852 -1.7658828E-06 -0.34734187
v -0.067259826 -1.7758297E-06 -0.26390073
v -0.05809893 -0.016813241 -0.2604615
v -0.25175056 -1.8817448E-06 0.50373846
v -0.11727178 -0.016813353 0.49819717
v -0.121178865 -1.8865464E-06 0.50373846
v -0.22459063 -0.016813349 0.5021948
v -0.011963023 -0.016813358 0.49507496
v -0.11990598 -1.884525E-06 0.48678145
v -1.363697E-06 -1.8913482E-06 0.50373846
v -0.11671267 -0.016813355 0.4907487
v -0.011963023 -0.016813345 0.4054962
v -0.052449036 -1.8844667E-06 0.44601238
v -1.402111E-06 -1.882062E-06 0.38555947
v -0.05171794 -0.016813353 0.45131895
v -0.5034996 -1.7477623E-06 -0.37850744
v -0.49776116 -0.016813228 -0.29319808
v -0.49553522 -0.016813265 -0.01856829
v -0.5034996 -1.8059958E-06 -0.010849574
v -0.46643648 -1.79549E-06 -0.05869917
v -0.4318963 -0.01681327 -0.016271863
v -0.47296992 -0.016813265 -0.05415556
v -0.41830128 -1.8110713E-06 -0.008553108
v -0.4514116 -1.8000196E-06 -0.06098115
v -0.45595816 -0.016813263 -0.056437656
vt 0.04693398 0.99742466
vt 0.03892352 0.99642676
vt 0.039000854 0.99742466
vt 0.007964178 0.96490395
vt 0.0077490155 0.96750826
vt 0.0071371007 0.9673875
vt 0.031638496 0.992161
vt 0.01634302 0.9993406
vt 0.031638496 0.9993406
vt 0.016343016 0.98460585
vt 0.031638496 0.9708359
vt 0.016343016 0.9381631
vt 0.031638496 0.94122916
vt 0.031638496 0.9381631
vt 0.008681979 0.96415484
vt 0.0037660964 0.93814754
vt 0.0034076476 0.9407186
vt 0.0015134944 0.95620275
vt 0.0077490155 0.96750826
vt 0.007964178 0.96490395
vt 0.009934856 0.9855096
vt 0.0045746113 0.9956618
vt 0.0035263314 0.9849494
vt 0.0047551175 0.9993406
vt 0.001216154 0.9993406
vt 0.001216154 0.9957223
vt 0.10053615 0.99204063
vt 0.103721306 0.9940523
vt 0.10358173 0.9888759
vt 0.10067476 0.9911277
vt 0.081245676 0.9888759
vt 0.031638496 0.99047005
vt 0.03482505 0.99402744
vt 0.03892352 0.99642676
vt 0.04693398 0.9974674
vt 0.033620734 0.9666386
vt 0.031638496 0.96981335
vt 0.035724916 0.95229316
vt 0.046933975 0.9382072
vt 0.033582088 0.94763553
vt 0.033318393 0.9425591
vt 0.033090036 0.9381631
vt 0.007964178 0.96490395
vt 0.008310489 0.9653916
vt 0.031638496 0.9381631
vt 0.06222946 0.9457422
vt 0.06222946 0.9381631
vt 0.05906476 0.9650327
vt 0.05997762 0.9651713
vt 0.057053078 0.9682178
vt 0.04693398 0.9993847
vt 0.06222946 0.9993406
vt 0.06222946 0.96807826
vt 0.11547501 0.99519277
vt 0.116118714 0.992038
vt 0.10737051 0.992038
vt 0.096814424 0.99160355
vt 0.07222007 0.99519277
vt 0.08365451 0.992038
vt 0.072492644 0.99203795
vt 0.10798609 0.9886909
vt 0.09021499 0.9888943
vt 0.09143954 0.9923161
vt 0.09668722 0.98994225
vt 0.10737051 0.992038
vt 0.096814424 0.99160355
vt 0.08185341 0.9909752
vt 0.07866686 0.98730266
vt 0.07866686 0.9944823
vt 0.08595188 0.9934521
vt 0.08602922 0.9944823
vt 0.12647802 0.9658554
vt 0.12647802 0.9785671
vt 0.12647802 0.9785671
vt 0.12647802 0.9658554
vt 0.12647802 0.9785671
vt 0.12647802 0.9658554
vt 0.12647802 0.9785671
vt 0.12647802 0.9658554
vt 0.12647802 0.9785671
vt 0.12647802 0.9658554
vt 0.12647802 0.9658554
vt 0.12647802 0.9785671
vt 0.12647802 0.9658554
vt 0.12647802 0.9785671
vt 0.12647802 0.9785671
vt 0.12647802 0.9658554
vt 0.12647802 0.9785671
vt 0.12647802 0.9658554
vt 0.12647802 0.9658554
vt 0.12647802 0.9785671
vt 0.12647802 0.9785671
vt 0.08504199 0.99205345
vt 0.0796133 0.9923355
vt 0.0783104 0.9939971
vt 0.108242445 0.99399704
vt 0.09011125 0.98991066
vt 0.1049208 0.9920148
vt 0.12647802 0.9658554
vt 0.12647802 0.9658554
vt 0.12647802 0.9785671
vt 0.12647802 0.9785671
vt 0.0037660964 0.93814754
vt 0.0013128018 0.93814754
vt 0.0013128018 0.94045573
vt 0.0034076476 0.9407186
vt 0.12647802 0.9785671
vt 0.12647802 0.9785671
vt 0.12647802 0.9658554
vt 0.12647802 0.9658554
vt 0.12647802 0.9785671
vt 0.12647802 0.9658554
vt 0.12647802 0.9658554
vt 0.12647802 0.9658554
vt 0.12647802 0.9785671
vt 0.12647802 0.9785671
vt 0.12647802 0.9785671
vt 0.12647802 0.9658554
vt 0.12647802 0.9658554
vt 0.12647802 0.9785671
vt 0.12647802 0.9785671
vt 0.12647802 0.9658554
vt 0.12647802 0.9785671
vt 0.12647802 0.9658554
vt 0.12647802 0.9785671
vt 0.12647802 0.9658554
vt 0.12647802 0.9658554
vt 0.12647802 0.9785671
vt 0.12647802 0.9785671
vt 0.12647802 0.9658554
vt 0.12647802 0.9658554
vt 0.12647802 0.9785671
vt 0.12647802 0.9785671
vt 0.12647802 0.9658554
vt 0.12647802 0.9785671
vt 0.12647802 0.9658554
vt 0.12647802 0.9658554
vt 0.12647802 0.9785671
vt 0.12647802 0.9785671
vt 0.12647802 0.9658554
vt 0.12647802 0.9658554
vt 0.12647802 0.9785671
vt 0.12647802 0.9785671
vt 0.12647802 0.9658554
vn -0 1 0
vn -0 1 0
vn -0 1 0
vn -0 1 0
vn -0 1 0
vn -0 1 0
vn -0 1 0
vn -0 1 0
vn -0 1 0
vn -0 1 0
vn -0 1 0
vn -0 1 0
vn -0 1 0
vn -0 1 0
vn -0 1 0
vn -0 1 0
vn 1.2470426E-07 1 0
vn -0 1 0
vn -0 1 0
vn -0 1 0
vn -0 1 0
vn -0 1 0
vn -0 1 0
vn -0 1 0
vn -0 1 0
vn -0 1 0
vn -0 1 0
vn -0 1 0
vn -0 1 0
vn -0 1 0
vn -0 1 0
vn -0 1 0
vn -0 1 0
vn -0 1 0
vn -0 1 0
vn -0 1 0
vn -0 1 0
vn -0 1 0
vn -0 1 0
vn -0 1 0
vn -0 1 0
vn -0 1 0
vn -0 1 0
vn -0 1 0
vn -0 1 0
vn -0 1 0
vn -0 1 0
vn -0 1 0
vn -0 1 0
vn -0 1 0
vn -0 1 0
vn -0 1 0
vn -0 1 0
vn -0 1 0
vn -0 1 0
vn -0 1 0
vn -0 1 0
vn -0 1 0
vn -0 1 0
vn -1.6210966E-07 1 2.5694197E-07
vn -0 1 0
vn -0 1 0
vn -0 1 0
vn -0 1 0
vn -0 1 0
vn -0 1 0
vn -0 1 0
vn -0 1 0
vn -0 1 0
vn -0 1 0
vn -0 1 0
vn -0 1 0
vn -0 1 0
vn -0 1 0
vn -0 1 0
vn -0 1 0
vn -0 1 0
vn -0 1 0
vn -0 1 0
vn -0 1 0
vn -0 1 0
vn -0 1 0
vn -0 1 0
vn -0 1 0
vn -0 1 0
vn -0 1 0
vn -0 1 0
vn -0 1 0
vn -0 1 0
vn -0 1 0
vn 0.90503377 0.42263767 -0.04786705
vn 0.90503377 0.42263764 -0.047867052
vn -0 1 0
vn -0 1 0
vn -0 1 0
vn -0 1 0
vn -0 1 0
vn -0 1 0
vn -0.8946671 0.4467335 4.772731E-07
vn -0.8946671 0.4467335 4.7727303E-07
vn -0.8946671 0.4467335 4.772731E-07
vn -0.8946671 0.4467335 4.772731E-07
vn 1.3132385E-05 1 -3.704446E-07
vn 1.3132385E-05 1 -3.704446E-07
vn 1.3132387E-05 1 -3.7044464E-07
vn 1.3132384E-05 1 -3.704446E-07
vn 0.04250832 0.34064376 0.939231
vn 0.04250832 0.34064376 0.939231
vn 0.042508323 0.34064382 0.939231
vn 0.042508323 0.34064382 0.939231
vn -0 1 0
vn -0 1 0
vn -0 1 0
vn -0 1 0
vn -0 1 0
vn -0 1 0
vn -0 1 0
vn -0 1 0
vn -0 1 0
vn -0 1 0
vn -0 1 0
vn -0 1 0
vn -0 1 0
vn -0 1 0
vn -0 1 0
vn -0 1 0
vn -0 1 0
vn -0 1 0
vn -0 1 0
vn -0 1 0
vn -0 1 0
vn -0 1 0
vn -0 1 0
vn -0 1 0
vn -0 1 0
vn -0 1 0
vn -0 1 0
vn -0 1 0
vn -0 1 0
vn -0 1 0
vn -0 1 0
vn -0 1 0
vn -0 1 0
vn -0 1 0
g floor_house1_broken1_0
f 3/3/3 2/2/2 1/1/1
f 6/6/6 5/5/5 4/4/4
f 9/9/9 8/8/8 7/7/7
f 8/8/8 10/10/10 7/7/7
f 11/11/11 7/7/7 10/10/10
f 11/11/11 10/10/10 12/12/12
f 13/13/13 11/11/11 12/12/12
f 14/14/14 13/13/13 12/12/12
f 12/12/12 10/10/10 15/15/15
f 16/16/16 12/12/12 15/15/15
f 15/15/15 17/17/17 16/16/16
f 15/15/15 18/18/18 17/17/17
f 19/19/19 18/18/18 15/15/15
f 20/20/20 19/19/19 15/15/15
f 10/10/10 21/21/21 15/15/15
f 8/8/8 21/21/21 10/10/10
f 21/21/21 8/8/8 22/22/22
f 22/22/22 23/23/23 21/21/21
f 8/8/8 24/24/24 22/22/22
f 24/24/24 25/25/25 22/22/22
f 25/25/25 26/26/26 22/22/22
f 29/29/29 28/28/28 27/27/27
f 30/30/30 29/29/29 27/27/27
f 31/31/31 29/29/29 30/30/30
f 34/34/34 33/33/33 32/32/32
f 35/35/35 34/34/34 32/32/32
f 36/36/36 35/35/35 32/32/32
f 37/37/37 36/36/36 32/32/32
f 35/35/35 36/36/36 38/38/38
f 39/39/39 35/35/35 38/38/38
f 39/39/39 38/38/38 40/40/40
f 41/41/41 39/39/39 40/40/40
f 42/42/42 39/39/39 41/41/41
f 42/42/42 44/44/44 43/43/43
f 45/45/45 42/42/42 43/43/43
f 47/47/47 46/46/46 39/39/39
f 48/48/48 39/39/39 46/46/46
f 49/49/49 48/48/48 46/46/46
f 39/39/39 48/48/48 50/50/50
f 39/39/39 50/50/50 51/51/51
f 51/51/51 50/50/50 52/52/52
f 50/50/50 53/53/53 52/52/52
f 56/56/56 55/55/55 54/54/54
f 57/57/57 56/56/56 54/54/54
f 57/57/57 54/54/54 58/58/58
f 58/58/58 59/59/59 57/57/57
f 60/60/60 59/59/59 58/58/58
f 63/63/63 62/62/62 61/61/61
f 64/64/64 63/63/63 61/61/61
f 64/64/64 61/61/61 65/65/65
f 66/66/66 64/64/64 65/65/65
f 69/69/69 68/68/68 67/67/67
f 69/69/69 67/67/67 70/70/70
f 71/71/71 69/69/69 70/70/70
f 74/74/74 73/73/73 72/72/72
f 73/73/73 75/75/75 72/72/72
f 76/76/76 75/75/75 73/73/73
f 77/77/77 75/75/75 76/76/76
f 77/77/77 76/76/76 78/78/78
f 79/79/79 77/77/77 78/78/78
f 79/79/79 78/78/78 80/80/80
f 81/81/81 79/79/79 80/80/80
f 82/82/82 81/81/81 80/80/80
f 83/83/83 82/82/82 80/80/80
f 84/84/84 82/82/82 83/83/83
f 85/85/85 84/84/84 83/83/83
f 84/84/84 85/85/85 86/86/86
f 87/87/87 84/84/84 86/86/86
f 87/87/87 86/86/86 88/88/88
f 89/89/89 87/87/87 88/88/88
f 92/92/92 91/91/91 90/90/90
f 91/91/91 72/72/72 90/90/90
f 95/95/95 94/94/94 93/93/93
f 96/96/96 95/95/95 93/93/93
f 96/96/96 93/93/93 97/97/97
f 98/98/98 96/96/96 97/97/97
f 101/101/101 100/100/100 99/99/99
f 102/102/102 101/101/101 99/99/99
f 105/105/105 104/104/104 103/103/103
f 106/106/106 105/105/105 103/103/103
f 109/109/109 108/108/108 107/107/107
f 110/110/110 109/109/109 107/107/107
f 113/113/113 112/112/112 111/111/111
f 113/113/113 111/111/111 114/114/114
f 112/112/112 115/115/115 111/111/111
f 111/111/111 116/116/116 114/114/114
f 115/115/115 112/112/112 117/117/117
f 118/118/118 114/114/114 116/116/116
f 112/112/112 119/119/119 117/117/117
f 120/120/120 118/118/118 116/116/116
f 117/117/117 119/119/119 121/121/121
f 122/122/122 118/118/118 120/120/120
f 121/121/121 122/122/122 120/120/120
f 119/119/119 122/122/122 121/121/121
f 125/125/125 124/124/124 123/123/123
f 124/124/124 126/126/126 123/123/123
f 127/127/127 124/124/124 125/125/125
f 123/123/123 126/126/126 128/128/128
f 129/129/129 127/127/127 125/125/125
f 126/126/126 130/130/130 128/128/128
f 131/131/131 127/127/127 129/129/129
f 128/128/128 130/130/130 132/132/132
f 133/133/133 131/131/131 129/129/129
f 130/130/130 134/134/134 132/132/132
f 134/134/134 131/131/131 133/133/133
f 132/132/132 134/134/134 133/133/133
f 137/137/137 136/136/136 135/135/135
f 138/138/138 137/137/137 135/135/135
f 135/135/135 136/136/136 139/139/139
f 140/140/140 137/137/137 138/138/138
f 136/136/136 141/141/141 139/139/139
f 142/142/142 140/140/140 138/138/138
f 139/139/139 141/141/141 143/143/143
f 144/144/144 140/140/140 142/142/142
f 143/143/143 144/144/144 142/142/142
f 141/141/141 144/144/144 143/143/143
