g floor_over_2
v 0.47328988 -5.8332496E-08 -0.5034999
v 0.4732898 -5.833249E-08 0.50350004
v -0.50350016 -3.0709856E-08 0.5034999
v -0.50350004 -3.0709867E-08 -0.50350004
v 0.47328988 -5.8332496E-08 -0.5034999
v 0.5034998 -0.100700155 0.5035
v 0.4732898 -5.833249E-08 0.50350004
v 0.50349987 -0.100700155 -0.50350004
vt 0.68249094 0.99907446
vt 0.7438166 0.99907446
vt 0.7438166 0.9423722
vt 0.68249094 0.9423722
vt 0.68249094 0.94174016
vt 0.7438166 0.93843246
vt 0.7438166 0.94174016
vt 0.68249094 0.93843246
vn 0.59697545 0.80225956 0
vn 0.5969754 0.8022596 0
vn -0 1 0
vn -0 1 0
vn 0.59697545 0.80225956 0
vn 0.9578315 0.28733036 0
vn 0.5969754 0.8022596 0
vn 0.9578315 0.28733036 0
g floor_over_2_0
f 3/3/3 2/2/2 1/1/1
f 1/1/1 4/4/4 3/3/3
f 7/7/7 6/6/6 5/5/5
f 6/6/6 8/8/8 5/5/5
