g floor_lava_S
v 1.5104989 9.545105E-08 5.8446914E-24
v 1.0069988 -1.6856191 -0.5034997
v 1.5104988 -1.6341724 -0.5034997
v 1.0069988 -0.023451213 -0.0007710458
v 1.5104989 -3.932291E-06 0.5035003
v 0.50349885 -1.7179619 -0.5034997
v 1.0069988 -0.00088821864 0.5035003
v 0.50349885 -0.03312259 -0.0036121453
v -1.1676174E-06 -1.7161084 -0.5034997
v 0.50349885 -0.0024874867 0.5035003
v -1.1443645E-06 -0.028867668 -0.0018927347
v -0.5035011 -1.699791 -0.5034997
v -1.1192528E-06 -0.0011033439 0.5035003
v -0.5035011 -0.02563441 -1.5696548E-18
v -1.0070012 -1.6671442 -0.5034997
v -0.5035011 -0.00046827953 0.5035003
v -1.0070012 -0.016197322 -9.918E-19
v -1.5105011 -1.6341722 -0.5034997
v -1.007001 -2.454691E-07 0.5035003
v -1.510501 8.889442E-07 5.4432135E-23
v -1.5105009 -1.3643638E-06 0.5035003
vt 0.8 1.1000001
vt 0.7000001 1.2
vt 0.8 1.2
vt 0.7000001 1.1000001
vt 0.8 1.0000001
vt 0.6000001 1.2000002
vt 0.7000001 1.0000001
vt 0.6000001 1.1000001
vt 0.50000006 1.2000002
vt 0.6000001 1.0000001
vt 0.50000006 1.1000001
vt 0.40000004 1.2000002
vt 0.50000006 1.0000001
vt 0.40000004 1.1000001
vt 0.3 1.2000002
vt 0.40000004 1.0000001
vt 0.3 1.1000001
vt 0.19999999 1.2000002
vt 0.3 1.0000001
vt 0.19999999 1.1000001
vt 0.19999999 1.0000001
vn -0.027860643 0.80319357 -0.59506625
vn -0.014824558 0.2892983 -0.95712423
vn -0.020977989 0.2918924 -0.95622104
vn -0.020145483 0.789923 -0.6128749
vn -0.024136204 0.99945825 -0.022372872
vn -0.004501492 0.28580734 -0.9582765
vn -0.017584933 0.9991437 -0.0374522
vn -0.0045098234 0.78229016 -0.62289786
vn 0.0019053066 0.285583 -0.9583521
vn -0.002768076 0.99847955 -0.055054575
vn 0.004006101 0.7851074 -0.6193467
vn 0.0078119193 0.28810564 -0.9575667
vn 0.00461487 0.99847645 -0.05498654
vn 0.009034496 0.78783405 -0.61582136
vn 0.013167051 0.29137155 -0.95651925
vn 0.0067828284 0.9988852 -0.046716034
vn 0.016120827 0.7939563 -0.6077611
vn 0.014308863 0.2930436 -0.955992
vn 0.01295503 0.99950814 -0.028560823
vn 0.018795118 0.8034169 -0.5951201
vn 0.016080348 0.9997414 -0.016078083
g floor_lava_S_0
f 3/3/3 2/2/2 1/1/1
f 2/2/2 4/4/4 1/1/1
f 1/1/1 4/4/4 5/5/5
f 2/2/2 6/6/6 4/4/4
f 4/4/4 7/7/7 5/5/5
f 6/6/6 8/8/8 4/4/4
f 4/4/4 8/8/8 7/7/7
f 6/6/6 9/9/9 8/8/8
f 8/8/8 10/10/10 7/7/7
f 9/9/9 11/11/11 8/8/8
f 8/8/8 11/11/11 10/10/10
f 9/9/9 12/12/12 11/11/11
f 11/11/11 13/13/13 10/10/10
f 12/12/12 14/14/14 11/11/11
f 11/11/11 14/14/14 13/13/13
f 12/12/12 15/15/15 14/14/14
f 14/14/14 16/16/16 13/13/13
f 15/15/15 17/17/17 14/14/14
f 14/14/14 17/17/17 16/16/16
f 15/15/15 18/18/18 17/17/17
f 17/17/17 19/19/19 16/16/16
f 18/18/18 20/20/20 17/17/17
f 17/17/17 20/20/20 19/19/19
f 20/20/20 21/21/21 19/19/19
