g floor_over_carpet
v -1.5604296 -0.050125588 -1.5135443
v -1.5509131 0.022153942 -1.5074562
v -1.5604296 -0.050125588 -1.097627
v -1.5509131 0.022153921 -1.094522
v -1.5604419 -0.050125588 -6.14624E-07
v -1.5509096 0.022153873 -6.14624E-07
v -1.5509063 0.022153825 1.0934951
v -1.5604539 -0.050125588 1.0966002
v -1.5509063 0.022153808 1.5074555
v -1.5604539 -0.050125588 1.5135436
v -1.5604296 -0.050125588 -1.5135443
v -1.160817 -0.050125588 -1.5135441
v -1.1536235 0.022153942 -1.507456
v -1.5509131 0.022153921 -1.094522
v -1.1536238 0.0100699235 -1.094522
v -1.5509096 0.022153873 -6.14624E-07
v -1.1536145 0.010069876 -3.07312E-07
v 0.0011660954 0.0100699235 -1.0945218
v 0.0011753148 0.010069876 -1.53656E-07
v 0.001166249 0.022153942 -1.5074557
v -1.1536235 0.022153942 -1.507456
v 0.0012022046 -0.050125588 -1.5135438
v 1.1632215 -0.050125588 -1.5135438
v 1.5808209 -0.050125588 -1.5135437
v 1.5712733 0.02215394 -1.5074555
v 1.1559559 0.022153942 -1.5074557
v 0.0012022046 -0.050125588 -1.5135438
v 0.001166249 0.022153942 -1.5074557
v 1.1559559 0.0100699235 -1.0945215
v 1.1559559 0.022153942 -1.5074557
v 0.0011660954 0.0100699235 -1.0945218
v 0.0011753148 0.010069876 -1.53656E-07
v 1.5712733 0.022153921 -1.0945215
v 1.1559652 0.010069876 6.166021E-19
v 1.5712764 0.022153873 3.07312E-07
v 1.5712733 0.02215394 -1.5074555
v 1.5808209 -0.050125588 -1.5135437
v 1.5808209 -0.050125588 -1.0976266
v 1.5712733 0.022153921 -1.0945215
v 1.5808086 -0.050125588 3.07312E-07
v 1.5712764 0.022153873 3.07312E-07
v 1.5712795 0.022153825 1.0934963
v 1.5807964 -0.050125588 1.0966011
v 1.5712795 0.022153806 1.5074563
v 1.5807964 -0.050125588 1.5135446
v 1.5712795 0.022153806 1.5074563
v 1.5807964 -0.050125588 1.5135446
v 1.1631674 -0.0501256 1.5135446
v 1.1559738 0.022153808 1.5074563
v 1.5712795 0.022153825 1.0934963
v 1.1559738 0.0100698285 1.093496
v 1.5712764 0.022153873 3.07312E-07
v 0.0011842268 0.022153808 1.507456
v 1.1559652 0.010069876 6.166021E-19
v 0.0011842268 0.0100698285 1.0934957
v 0.0011753148 0.010069876 -1.53656E-07
v 1.1559738 0.022153808 1.5074563
v 0.0011482713 -0.0501256 1.5135442
v -1.1608708 -0.0501256 1.5135438
v -1.5604539 -0.050125588 1.5135436
v -1.5509063 0.022153808 1.5074555
v -1.1536053 0.022153808 1.5074555
v 0.0011482713 -0.0501256 1.5135442
v 0.0011842268 0.022153808 1.507456
v -1.1536053 0.0100698285 1.0934954
v -1.5509063 0.022153825 1.0934951
v -1.1536145 0.010069876 -3.07312E-07
v -1.5509096 0.022153873 -6.14624E-07
v 0.0011753148 0.010069876 -1.53656E-07
v 0.0011842268 0.0100698285 1.0934957
v -1.1536053 0.022153808 1.5074555
vt 0.49230456 0.90860415
vt 0.49230456 0.91055346
vt 0.49230456 0.9296322
vt 0.49230456 0.9297211
vt 0.49230456 0.93772674
vt 0.49230456 0.93772674
vt 0.49230456 0.92975044
vt 0.49230456 0.92966163
vt 0.49230456 0.91055346
vt 0.49230456 0.90860415
vt 0.49230456 0.90860415
vt 0.47019416 0.90860415
vt 0.47001836 0.91055346
vt 0.49230456 0.9297211
vt 0.47001836 0.9297211
vt 0.49230456 0.93772674
vt 0.47001815 0.93772674
vt 0.45584956 0.9297211
vt 0.45584956 0.93772674
vt 0.45584956 0.91055346
vt 0.47001836 0.91055346
vt 0.45584956 0.90860415
vt 0.47019547 0.90860415
vt 0.49230456 0.90860415
vt 0.49230456 0.91055346
vt 0.47001794 0.91055346
vt 0.45584956 0.90860415
vt 0.45584956 0.91055346
vt 0.47001794 0.9297211
vt 0.47001794 0.91055346
vt 0.45584956 0.9297211
vt 0.45584956 0.93772674
vt 0.49230456 0.9297211
vt 0.47001815 0.93772674
vt 0.49230456 0.93772674
vt 0.49230456 0.91055346
vt 0.49230456 0.90860415
vt 0.49230456 0.9296323
vt 0.49230456 0.9297211
vt 0.49230456 0.93772674
vt 0.49230456 0.93772674
vt 0.49230456 0.92975044
vt 0.49230456 0.92966163
vt 0.49230456 0.91055346
vt 0.49230456 0.90860415
vt 0.49230456 0.91055346
vt 0.49230456 0.90860415
vt 0.47019422 0.90860415
vt 0.47001836 0.91055346
vt 0.49230456 0.92975044
vt 0.47001836 0.92975044
vt 0.49230456 0.93772674
vt 0.45584956 0.91055346
vt 0.47001815 0.93772674
vt 0.45584956 0.92975044
vt 0.45584956 0.93772674
vt 0.47001836 0.91055346
vt 0.45584956 0.90860415
vt 0.47019547 0.90860415
vt 0.49230456 0.90860415
vt 0.49230456 0.91055346
vt 0.47001794 0.91055346
vt 0.45584956 0.90860415
vt 0.45584956 0.91055346
vt 0.47001794 0.92975044
vt 0.49230456 0.92975044
vt 0.47001815 0.93772674
vt 0.49230456 0.93772674
vt 0.45584956 0.93772674
vt 0.45584956 0.92975044
vt 0.47001794 0.91055346
vn -0.7083825 0.15133753 -0.68941367
vn -0.5348476 0.63846445 -0.5534449
vn -0.9914368 0.13058782 -1.9576737E-06
vn -0.65072536 0.7592973 0.004912321
vn -0.9914158 0.1307467 -3.960035E-06
vn -0.64775497 0.7618487 -2.7579345E-06
vn -0.6506056 0.7594 -0.0049022306
vn -0.99139494 0.13090454 -1.8921801E-06
vn -0.53469616 0.6385629 0.5534776
vn -0.70843226 0.15164009 0.689296
vn -0.7083825 0.15133753 -0.68941367
vn 4.3952363E-07 0.083933465 -0.9964714
vn 0.0052166833 0.7435284 -0.66868407
vn -0.65072536 0.7592973 0.004912321
vn 0.011402871 0.99987483 0.010971125
vn -0.64775497 0.7618487 -2.7579345E-06
vn 0.015202561 0.9998845 0
vn -0.010908197 0.9998803 0.010971192
vn -0.0145435035 0.99989426 1.2311479E-07
vn -0.004989823 0.7435308 -0.6686831
vn 1.3214097E-07 0.08393352 -0.9964714
vn 1.32141E-07 0.08393352 -0.9964714
vn 3.2417748E-07 0.08393412 -0.9964714
vn 0.7084318 0.15163912 -0.6892968
vn 0.5349454 0.6384549 -0.55336124
vn -0.004989823 0.7435308 -0.6686831
vn 4.3952363E-07 0.083933465 -0.9964714
vn 0.0052166833 0.7435284 -0.66868407
vn -0.010908197 0.9998803 0.010971192
vn -0 0.9995721 0.029251277
vn -0 0.99989307 0.014627265
vn -0 1 0
vn 0.6509802 0.7590788 0.004912427
vn -0.0145435035 0.99989426 1.2311479E-07
vn 0.64825666 0.7614219 2.9486398E-06
vn 0.5349454 0.6384549 -0.55336124
vn 0.7084318 0.15163912 -0.6892968
vn 0.99139494 0.13090439 2.0310874E-06
vn 0.6509802 0.7590788 0.004912427
vn 0.9914157 0.13074774 4.1743724E-06
vn 0.64825666 0.7614219 2.9486398E-06
vn 0.65109855 0.75897735 -0.0048978967
vn 0.9914363 0.13059108 2.0330474E-06
vn 0.5350836 0.638345 0.5533545
vn 0.70838314 0.15134077 0.68941224
vn 0.5350836 0.638345 0.5533545
vn 0.70838314 0.15134077 0.68941224
vn -1.5522414E-07 0.08393464 0.9964713
vn -0.0049901516 0.7435129 0.66870296
vn 0.65109855 0.75897735 -0.0048978967
vn -0.010908473 0.9998807 -0.010943842
vn 0.64825666 0.7614219 2.9486398E-06
vn 0.005215888 0.7435109 0.66870356
vn -0.0145435035 0.99989426 1.2311479E-07
vn 0.011402569 0.99987507 -0.010943944
vn 0.015202561 0.9998845 0
vn -3.3038899E-07 0.08393471 0.9964713
vn -3.3038896E-07 0.08393471 0.9964713
vn -3.5854825E-07 0.08393579 0.99647117
vn -0.70843226 0.15164009 0.689296
vn -0.53469616 0.6385629 0.5534776
vn 0.005215888 0.7435109 0.66870356
vn -1.5522414E-07 0.08393464 0.9964713
vn -0.0049901516 0.7435129 0.66870296
vn 0.011402569 0.99987507 -0.010943944
vn -0.6506056 0.7594 -0.0049022306
vn 0.015202561 0.9998845 0
vn -0.64775497 0.7618487 -2.7579345E-06
vn -0 1 0
vn -0 0.99989355 -0.014590939
vn -0 0.99957424 -0.029178739
g floor_over_carpet_0
f 3/3/3 2/2/2 1/1/1
f 2/2/2 3/3/3 4/4/4
f 5/5/5 4/4/4 3/3/3
f 4/4/4 5/5/5 6/6/6
f 6/6/6 5/5/5 7/7/7
f 5/5/5 8/8/8 7/7/7
f 7/7/7 8/8/8 9/9/9
f 8/8/8 10/10/10 9/9/9
f 12/12/12 11/11/11 2/2/2
f 13/13/13 12/12/12 2/2/2
f 2/2/2 14/14/14 13/13/13
f 14/14/14 15/15/15 13/13/13
f 16/16/16 15/15/15 14/14/14
f 16/16/16 17/17/17 15/15/15
f 13/13/13 15/15/15 18/18/18
f 18/18/18 15/15/15 17/17/17
f 17/17/17 19/19/19 18/18/18
f 18/18/18 20/20/20 13/13/13
f 22/22/22 12/12/12 21/21/21
f 20/20/20 22/22/22 21/21/21
f 25/25/25 24/24/24 23/23/23
f 23/23/23 26/26/26 25/25/25
f 27/27/27 26/26/26 23/23/23
f 26/26/26 27/27/27 28/28/28
f 29/29/29 25/25/25 26/26/26
f 29/29/29 30/30/30 28/28/28
f 28/28/28 31/31/31 29/29/29
f 29/29/29 31/31/31 32/32/32
f 29/29/29 33/33/33 25/25/25
f 32/32/32 34/34/34 29/29/29
f 34/34/34 33/33/33 29/29/29
f 34/34/34 35/35/35 33/33/33
f 38/38/38 37/37/37 36/36/36
f 39/39/39 38/38/38 36/36/36
f 40/40/40 38/38/38 39/39/39
f 41/41/41 40/40/40 39/39/39
f 42/42/42 40/40/40 41/41/41
f 40/40/40 42/42/42 43/43/43
f 44/44/44 43/43/43 42/42/42
f 43/43/43 44/44/44 45/45/45
f 48/48/48 47/47/47 46/46/46
f 49/49/49 48/48/48 46/46/46
f 49/49/49 46/46/46 50/50/50
f 49/49/49 50/50/50 51/51/51
f 51/51/51 50/50/50 52/52/52
f 53/53/53 49/49/49 51/51/51
f 51/51/51 52/52/52 54/54/54
f 51/51/51 55/55/55 53/53/53
f 55/55/55 51/51/51 54/54/54
f 54/54/54 56/56/56 55/55/55
f 58/58/58 48/48/48 57/57/57
f 53/53/53 58/58/58 57/57/57
f 61/61/61 60/60/60 59/59/59
f 59/59/59 62/62/62 61/61/61
f 63/63/63 62/62/62 59/59/59
f 62/62/62 63/63/63 64/64/64
f 61/61/61 62/62/62 65/65/65
f 66/66/66 61/61/61 65/65/65
f 66/66/66 65/65/65 67/67/67
f 66/66/66 67/67/67 68/68/68
f 69/69/69 67/67/67 65/65/65
f 65/65/65 70/70/70 69/69/69
f 71/71/71 64/64/64 70/70/70
f 70/70/70 65/65/65 71/71/71
