g floor_house_carpet_S1
v -0.5126493 0.004738731 -0.512676
v 0.51500386 0.0047387118 -0.51267576
v 0.51500404 0.004738673 0.5149777
v -0.5126496 0.0047387118 0.51497746
v 0.51500404 0.004738673 0.5149777
v 0.51499456 -0.022727208 0.5149777
v -0.51264 -0.022727171 0.51497746
v -0.5126496 0.0047387118 0.51497746
vt 0.7432444 0.9366587
vt 0.6820625 0.9366587
vt 0.6820625 0.9978362
vt 0.7432444 0.9978362
vt 0.6820625 0.9978362
vt 0.6820625 0.9978362
vt 0.7432444 0.9978362
vt 0.7432444 0.9978362
vn -0 1 0
vn -0 1 0
vn -0 1 0
vn -0 1 0
vn -2.242839E-07 0 1
vn -2.242839E-07 0 1
vn -2.242839E-07 0 1
vn -2.242839E-07 0 1
g floor_house_carpet_S1_0
f 3/3/3 2/2/2 1/1/1
f 4/4/4 3/3/3 1/1/1
f 7/7/7 6/6/6 5/5/5
f 8/8/8 7/7/7 5/5/5
