g floor_twoBridge_M2
v 0.15665239 -2.1053734 -0.7562698
v 0.26209995 -2.284973 -0.743328
v 0.41237828 -2.284973 -0.6734421
v 0.30015418 -2.0146034 -0.49803442
v 0.18209243 -2.024097 -0.43762502
v 0.15665239 -2.1053734 -0.7562698
v 0.354241 -0.052475438 -0.5035
v 0.354241 -0.05247595 0.50349987
v -0.07155791 -0.05247595 0.50349987
v -0.07155791 -0.05247544 -0.5035
v -0.07155791 -0.05247544 -0.5035
v -0.07155791 -0.05247595 0.50349987
v -0.07155791 -0.19569102 0.50349987
v -0.07155791 -0.19569063 -0.5035
v 0.354241 -0.19569102 0.50349987
v 0.354241 -0.05247595 0.50349987
v 0.354241 -0.052475438 -0.5035
v 0.354241 -0.19569063 -0.5035
v -0.29278323 0.06287559 -0.5035
v -0.2927826 0.06287503 0.50349987
v -0.72337157 0.06287504 0.50349987
v -0.7233707 0.06287559 -0.5035
v -0.7233707 0.06287559 -0.5035
v -0.72337157 0.06287504 0.50349987
v -0.72337157 -0.08034011 0.5034999
v -0.7233707 -0.08033958 -0.5035
v -0.2927826 -0.08034012 0.5035
v -0.2927826 0.06287503 0.50349987
v -0.29278323 0.06287559 -0.5035
v -0.29278323 -0.08033958 -0.5035
v -0.68879455 -0.5619538 0.5699472
v -0.85110897 -0.10739808 0.56958765
v -0.53317255 -0.107398555 0.49748498
v -0.38511246 -0.49059504 0.4975452
v -0.6204935 -0.7532283 0.57009846
v -0.46978015 -0.089947246 -0.5075589
v -0.29398346 -0.72644734 0.49758232
v -0.40621093 -1.3533187 0.5705731
v -0.11927217 -1.1786201 0.49765345
v -0.06934254 -2.284973 0.56047606
v 0.24174002 -2.2849731 0.4978294
v 0.35286137 -2.2849731 0.39239544
v 0.37168276 -2.284973 0.31756598
v 0.20601456 -1.7524209 0.12333733
v 0.37277272 -2.284973 0.1492661
v -0.16446613 -1.2288883 0.15491645
v -0.16805038 -0.99142075 0.12831695
v 0.21146147 -1.7554567 -0.2056472
v 0.37635672 -2.284973 -0.27234092
v 0.11900035 -1.641729 -0.46980745
v 0.3648393 -2.2849731 -0.32856673
v 0.33928886 -2.2849731 -0.4747921
v 0.16257377 -2.2849731 -0.5590241
v -0.08799817 -1.1993016 -0.3570262
v -0.1095469 -0.9910322 -0.34265956
v -0.02439656 -1.4624345 -0.50267965
v 0.14173706 -2.2849731 -0.5681905
v -0.25143665 -1.1785579 -0.5547261
v -0.15345429 -1.1881984 -0.47793886
v -0.17934167 -0.983367 -0.44507602
v -0.31994158 -0.9836873 -0.55238014
v -0.63412756 -0.089947246 -0.5416206
v 0.4338655 -2.0559633 -0.5233941
v 0.15665239 -2.1053734 -0.7562698
v 0.41237828 -2.284973 -0.6734421
v 0.50484824 -2.2849724 -0.60542274
v 0.30015418 -2.0146034 -0.49803442
v 0.15665239 -2.1053734 -0.7562698
v 0.4338655 -2.0559633 -0.5233941
v 0.39652166 -1.9979975 -0.07770121
v 0.18209243 -2.024097 -0.43762502
v 0.28222737 -1.9979972 -0.012347483
v 0.5043636 -2.284972 -0.2097437
v 0.46954244 -2.2849724 -0.06347415
v 0.39652166 -1.9979975 -0.07770121
v 0.5085035 -2.2849724 -0.47491175
v 0.4338655 -2.0559633 -0.5233941
v 0.50484824 -2.2849724 -0.60542274
v 0.39652166 -1.9979975 -0.07770121
v 0.46954244 -2.2849724 -0.06347415
v 0.35524812 -2.2849724 0.0018794257
v 0.28222737 -1.9979972 -0.012347483
vt 0.900481 0.73238283
vt 0.900481 0.6935141
vt 0.8911139 0.6935141
vt 0.88378114 0.74328965
vt 0.88183165 0.7595911
vt 0.9002327 0.73349416
vt 0.44059396 0.66547966
vt 0.44059396 0.66547966
vt 0.46356913 0.66547966
vt 0.46356913 0.66547966
vt 0.47356287 0.629348
vt 0.47356287 0.629348
vt 0.47356287 0.61927336
vt 0.47356287 0.61927336
vt 0.46723965 0.61927336
vt 0.46723965 0.629348
vt 0.47356287 0.629348
vt 0.47356287 0.61927336
vt 0.44059396 0.66547966
vt 0.44059396 0.66547966
vt 0.46356913 0.66547966
vt 0.46356913 0.66547966
vt 0.47356287 0.629348
vt 0.47356287 0.629348
vt 0.47356287 0.61927336
vt 0.47356287 0.61927336
vt 0.46723965 0.61927336
vt 0.46723965 0.629348
vt 0.47356287 0.629348
vt 0.47356287 0.61927336
vt 0.6696509 0.7159984
vt 0.6696509 0.7449316
vt 0.6798429 0.7449316
vt 0.6798429 0.7205405
vt 0.6696509 0.70382345
vt 0.7249317 0.7449316
vt 0.6798429 0.7055282
vt 0.6696509 0.66562676
vt 0.6798429 0.67674667
vt 0.6696509 0.6054603
vt 0.6798429 0.6054603
vt 0.68539 0.6054603
vt 0.6880501 0.6054603
vt 0.69408566 0.64079154
vt 0.693774 0.6054603
vt 0.69313943 0.67345804
vt 0.694191 0.68853056
vt 0.7071673 0.6398438
vt 0.7152552 0.6054603
vt 0.7249317 0.64688504
vt 0.7179329 0.6054603
vt 0.7249317 0.6054603
vt 0.73301333 0.6054603
vt 0.7212145 0.67422193
vt 0.719899 0.6881076
vt 0.7284125 0.6582135
vt 0.7339235 0.6054603
vt 0.73392355 0.67614967
vt 0.728017 0.67525375
vt 0.7249317 0.68712777
vt 0.73392355 0.68846226
vt 0.7339235 0.7449316
vt 0.88363224 0.73238283
vt 0.900481 0.73238283
vt 0.8911139 0.6935141
vt 0.88363224 0.6935141
vt 0.88378114 0.74328965
vt 0.9002327 0.73349416
vt 0.88378114 0.73349416
vt 0.8634406 0.73349416
vt 0.88183165 0.7595911
vt 0.8490885 0.73349416
vt 0.8728886 0.6935141
vt 0.8561808 0.6935141
vt 0.8561808 0.73238283
vt 0.8781842 0.6935141
vt 0.88225925 0.73238283
vt 0.88225925 0.6935141
vt 0.8552127 0.73238283
vt 0.8552127 0.6935141
vt 0.8488284 0.6935141
vt 0.8488284 0.73238283
vn 0.41484347 0.17928462 -0.8920549
vn 0.41484353 0.17928463 -0.89205486
vn 0.41484347 0.17928462 -0.8920549
vn -0.19337921 0.9542724 -0.22796647
vn -0.19337921 0.9542724 -0.22796647
vn -0.19337918 0.9542724 -0.22796647
vn -0 1 5.078317E-07
vn -0 1 5.078317E-07
vn -0 1 5.078317E-07
vn -0 1 5.078317E-07
vn -1 0 0
vn -1 0 0
vn -1 0 0
vn -1 0 0
vn 1 0 0
vn 1 0 0
vn 1 0 0
vn 1 0 0
vn -0 1 5.555153E-07
vn -0 1 5.555153E-07
vn -0 1 5.555153E-07
vn -0 1 5.555153E-07
vn -1 0 -9.155274E-07
vn -1 0 -9.155274E-07
vn -1 0 -9.155274E-07
vn -1 0 -9.1552744E-07
vn 1 0 -6.103516E-07
vn 1 0 -6.1035155E-07
vn 1 0 -6.103515E-07
vn 1 0 -6.1035155E-07
vn 0.2144381 0.08018008 0.97344106
vn 0.21687354 0.08083586 0.97284704
vn 0.659571 0.25743338 0.70618284
vn 0.70646656 0.25577694 0.6599115
vn 0.20931348 0.07828051 0.9747103
vn 0.7689629 0.26694387 -0.5808933
vn 0.71595865 0.19057874 0.67162716
vn 0.20414378 0.06990638 0.97644174
vn 0.7373201 0.33768153 0.5850899
vn 0.20262513 0.06462884 0.9771213
vn 0.4976062 0.16180256 0.8521784
vn 0.8398146 0.3164207 0.44112295
vn 0.9301381 0.33997014 0.13879248
vn 0.90965575 0.40531865 0.09079242
vn 0.95440084 0.29841623 0.00817292
vn 0.9183934 0.3953996 0.0145867895
vn 0.9651805 0.22414269 0.13485761
vn 0.92381656 0.37650952 -0.06930716
vn 0.9465646 0.30773807 -0.09650222
vn 0.7551433 0.3257619 -0.5688917
vn 0.9314709 0.31666338 -0.17912653
vn 0.790332 0.27680734 -0.546583
vn 0.4067546 0.1524818 -0.9007219
vn 0.9273617 0.320762 -0.1926447
vn 0.95718473 0.21727306 -0.19128433
vn 0.5997918 0.30930215 -0.73795795
vn 0.39797032 0.15243098 -0.90464604
vn 0.5812401 0.24333625 -0.7764968
vn 0.71319544 0.29288858 -0.6368425
vn 0.69838333 0.19567113 -0.6884574
vn 0.49854454 0.15601943 -0.85270816
vn 0.41767955 0.115223706 -0.9012587
vn 0.659656 0.6811947 -0.3175339
vn 0.44605625 0.6051826 -0.6593845
vn 0.53580827 0.42698848 -0.72841626
vn 0.7922472 0.40806583 -0.4536811
vn 0.1528903 0.9657567 -0.20961519
vn 0.44605625 0.6051826 -0.6593845
vn 0.659656 0.6811947 -0.3175339
vn 0.4645738 0.8854632 0.011229021
vn -0.060421564 0.9975114 -0.036336288
vn -0.060421564 0.9975114 -0.036336288
vn 0.94793814 0.3028782 0.098376855
vn 0.9417366 0.2507394 0.22419195
vn 0.4645738 0.8854632 0.011229021
vn 0.9478606 0.31865615 0.0043048775
vn 0.659656 0.6811947 -0.3175339
vn 0.7922472 0.40806583 -0.4536811
vn 0.4894153 0.16696429 0.855918
vn 0.48941532 0.16696432 0.855918
vn 0.48941538 0.16696432 0.855918
vn 0.48941532 0.16696432 0.855918
g floor_twoBridge_M2_0
f 3/3/3 2/2/2 1/1/1
f 6/6/6 5/5/5 4/4/4
f 9/9/9 8/8/8 7/7/7
f 10/10/10 9/9/9 7/7/7
f 13/13/13 12/12/12 11/11/11
f 14/14/14 13/13/13 11/11/11
f 17/17/17 16/16/16 15/15/15
f 18/18/18 17/17/17 15/15/15
f 21/21/21 20/20/20 19/19/19
f 22/22/22 21/21/21 19/19/19
f 25/25/25 24/24/24 23/23/23
f 26/26/26 25/25/25 23/23/23
f 29/29/29 28/28/28 27/27/27
f 30/30/30 29/29/29 27/27/27
f 33/33/33 32/32/32 31/31/31
f 34/34/34 33/33/33 31/31/31
f 31/31/31 35/35/35 34/34/34
f 36/36/36 33/33/33 34/34/34
f 35/35/35 37/37/37 34/34/34
f 37/37/37 35/35/35 38/38/38
f 39/39/39 37/37/37 38/38/38
f 39/39/39 38/38/38 40/40/40
f 41/41/41 39/39/39 40/40/40
f 41/41/41 42/42/42 39/39/39
f 39/39/39 42/42/42 43/43/43
f 44/44/44 39/39/39 43/43/43
f 43/43/43 45/45/45 44/44/44
f 39/39/39 46/46/46 37/37/37
f 44/44/44 46/46/46 39/39/39
f 34/34/34 37/37/37 47/47/47
f 37/37/37 46/46/46 47/47/47
f 44/44/44 45/45/45 48/48/48
f 45/45/45 49/49/49 48/48/48
f 48/48/48 49/49/49 50/50/50
f 49/49/49 51/51/51 50/50/50
f 50/50/50 51/51/51 52/52/52
f 52/52/52 53/53/53 50/50/50
f 44/44/44 54/54/54 46/46/46
f 48/48/48 54/54/54 44/44/44
f 47/47/47 46/46/46 54/54/54
f 48/48/48 50/50/50 54/54/54
f 34/34/34 47/47/47 55/55/55
f 55/55/55 47/47/47 54/54/54
f 55/55/55 36/36/36 34/34/34
f 53/53/53 56/56/56 50/50/50
f 53/53/53 57/57/57 56/56/56
f 57/57/57 58/58/58 56/56/56
f 54/54/54 50/50/50 59/59/59
f 50/50/50 56/56/56 59/59/59
f 54/54/54 59/59/59 55/55/55
f 58/58/58 59/59/59 56/56/56
f 55/55/55 59/59/59 60/60/60
f 59/59/59 58/58/58 60/60/60
f 60/60/60 36/36/36 55/55/55
f 58/58/58 61/61/61 60/60/60
f 36/36/36 60/60/60 61/61/61
f 62/62/62 36/36/36 61/61/61
f 65/65/65 64/64/64 63/63/63
f 66/66/66 65/65/65 63/63/63
f 69/69/69 68/68/68 67/67/67
f 69/69/69 67/67/67 70/70/70
f 67/67/67 71/71/71 70/70/70
f 71/71/71 72/72/72 70/70/70
f 75/75/75 74/74/74 73/73/73
f 75/75/75 73/73/73 76/76/76
f 77/77/77 75/75/75 76/76/76
f 77/77/77 76/76/76 78/78/78
f 81/81/81 80/80/80 79/79/79
f 82/82/82 81/81/81 79/79/79
