g floor_break_2
v -0.50000006 -3.4093856E-07 -0.4999999
v -0.4999999 -3.4093856E-07 0.4999999
v -0.07920166 1.0728836E-07 -0.4610121
v -0.07920166 -0.08175771 -0.46101207
v -0.09049179 -0.07701451 -0.49999988
v -0.09049179 -3.4093856E-07 -0.4999999
v 0.5000013 -3.4093856E-07 0.4999999
v 0.5000012 -3.695488E-07 -0.4189061
v 0.5000012 -0.081758186 -0.41890606
v -0.09049179 -3.4093856E-07 -0.4999999
v -0.07920166 1.0728836E-07 -0.4610121
v -0.07920166 1.0728836E-07 -0.4610121
v -0.07920166 -0.08175771 -0.46101207
v 0.5000012 -3.695488E-07 -0.4189061
vt 0.06136343 0.93865424
vt 0.06136343 0.9990007
vt 0.035969872 0.95008475
vt 0.36436847 0.24997343
vt 0.36776674 0.24997343
vt 0.036651183 0.93865424
vt 0.0010172145 0.9990007
vt 0.0010172145 0.95108074
vt 0.31574875 0.24997343
vt 0.36776674 0.25757882
vt 0.36436847 0.25757888
vt 0.36436847 0.25757888
vt 0.36436847 0.24997343
vt 0.31574875 0.25757882
vn -1.0262444E-06 1 -4.2025553E-07
vn -0 1 1.026991E-07
vn -4.4721557E-07 1 -1.0921721E-07
vn 0.9605367 -1.3318456E-07 -0.27815327
vn 0.9605367 -1.3318456E-07 -0.27815327
vn -1.0262444E-06 1 -4.2025553E-07
vn 2.9424032E-07 1 2.8907243E-07
vn 2.9424032E-07 1 2.8907243E-07
vn 0.07250516 -4.659975E-07 -0.99736804
vn 0.9605367 -1.3318456E-07 -0.27815327
vn 0.9605367 -1.3318456E-07 -0.2781533
vn 0.07250516 -4.659975E-07 -0.99736804
vn 0.07250516 -4.659975E-07 -0.99736804
vn 0.07250516 -4.659975E-07 -0.99736804
g floor_break_2_0
f 2/2/2 3/3/3 6/6/6
f 1/1/1 2/2/2 6/6/6
f 7/7/7 8/8/8 3/3/3
f 2/2/2 7/7/7 3/3/3
f 4/4/4 5/5/5 10/10/10
f 11/11/11 4/4/4 10/10/10
f 9/9/9 13/13/13 12/12/12
f 14/14/14 9/9/9 12/12/12
