g floor_table_side2
v 1.3896612 -1.5850045E-06 -1.3896626
v 1.389662 -1.6858414E-06 1.3896573
v -1.389658 -4.5466814E-07 1.3896573
v -1.389659 -1.6042115E-06 -1.3896629
v 1.5105003 -0.19503236 1.5104969
v -1.389658 -4.5466814E-07 1.3896573
v 1.389662 -1.6858414E-06 1.3896573
v -1.5105 -0.19503176 1.5104955
v 1.5104978 -2.209034 1.5104988
v -1.389659 -1.6042115E-06 -1.3896629
v -1.8629488 -2.209033 1.5104973
v -1.5105 -0.19502985 -1.5105046
v 1.3896612 -1.5850045E-06 -1.3896626
v -1.8629503 -2.2090313 -1.5105027
v 1.5104997 -0.19503297 -1.510503
v 1.5104997 -2.2090352 -1.5105034
v 1.5104997 -0.19503297 -1.510503
v 1.5105003 -0.19503236 1.5104969
v 1.389662 -1.6858414E-06 1.3896573
v 1.3896612 -1.5850045E-06 -1.3896626
vt 0.31513625 0.81685627
vt 0.31513625 0.90042883
vt 0.37414798 0.90042883
vt 0.37414798 0.81685627
vt 0.8839523 0.4883465
vt 0.8375491 0.49861008
vt 0.8839523 0.49861008
vt 0.8375491 0.4883465
vt 0.8839523 0.40874776
vt 0.7877066 0.49861008
vt 0.8375491 0.40874776
vt 0.7877066 0.4883465
vt 0.7381681 0.49861008
vt 0.7877066 0.40874776
vt 0.7381681 0.4883465
vt 0.7381681 0.40874776
vt 0.8839523 0.4883465
vt 0.8680746 0.4883465
vt 0.8680746 0.4985892
vt 0.8839523 0.4985892
vn -0 1 0
vn -0 1 0
vn -0 1 0
vn -0 1 0
vn -0 1 0
vn -0 1 0
vn -0 1 0
vn -0 1 0
vn -0 1 0
vn -0 1 0
vn -0 1 0
vn -0 1 0
vn -0 1 0
vn -0 1 0
vn -0 1 0
vn -0 1 0
vn -0 1 0
vn -0 1 0
vn -0 1 0
vn -0 1 0
g floor_table_side2_0
f 3/3/3 2/2/2 1/1/1
f 4/4/4 3/3/3 1/1/1
f 7/7/7 6/6/6 5/5/5
f 6/6/6 8/8/8 5/5/5
f 5/5/5 8/8/8 9/9/9
f 6/6/6 10/10/10 8/8/8
f 8/8/8 11/11/11 9/9/9
f 10/10/10 12/12/12 8/8/8
f 8/8/8 12/12/12 11/11/11
f 10/10/10 13/13/13 12/12/12
f 12/12/12 14/14/14 11/11/11
f 13/13/13 15/15/15 12/12/12
f 12/12/12 15/15/15 14/14/14
f 15/15/15 16/16/16 14/14/14
f 19/19/19 18/18/18 17/17/17
f 20/20/20 19/19/19 17/17/17
