g fog_CS
v -0.5035 -7.2926626 1.5105011
v 1.5105 -7.292664 -0.5034988
v 1.5105 -7.2926626 0.50350124
v 1.5105 -7.2926626 1.5105011
v 0.5035 -7.2926626 1.5105011
v -0.5035 -7.2926626 0.50350124
v -0.5035 -7.292664 -0.5034988
v 0.5035 -7.292664 -0.5034988
v 1.5105 -7.292664 -0.5034988
v -0.5035 -7.2926626 1.5105011
vt 2.3841858E-07 0.011096583
vt 1 0.96195436
vt 1 0.4999998
vt 1 0.011096583
vt 0.50000024 0.011096583
vt 0.51791024 -0.010145959
vt 0.017910356 -0.010146019
vt 0.017910317 0.4787573
vt 0.01791028 0.940712
vt 1.0179102 -0.010145959
vn -0 1 -1.6292068E-07
vn -0 1 -1.6292068E-07
vn -0 1 -1.6292068E-07
vn -0 1 -1.6292068E-07
vn -0 1 -1.6292068E-07
vn -0 1 -1.6292068E-07
vn -0 1 -1.6292068E-07
vn -0 1 -1.6292068E-07
vn -0 1 -1.6292068E-07
vn -0 1 -1.6292068E-07
g fog_CS_0
f 3/3/3 2/2/2 1/1/1
f 1/1/1 4/4/4 3/3/3
f 1/1/1 5/5/5 4/4/4
f 8/8/8 7/7/7 6/6/6
f 6/6/6 9/9/9 8/8/8
f 6/6/6 10/10/10 9/9/9
