g forge_cube1
v -0.15534015 0.16016378 -0.2218895
v 0.21965513 0.16016354 -0.22188947
v 0.220337 0.16093655 0.15446796
v -0.15602194 0.16093656 0.15446793
v -0.1560221 -0.2216562 0.15446793
v 0.22033714 -0.22165638 0.15446796
v 0.21965511 -0.22088337 -0.22188947
v -0.15534046 -0.22088319 -0.2218895
v -0.15534046 -0.22088319 -0.2218895
v -0.15534015 0.16016378 -0.2218895
v -0.15602194 0.16093656 0.15446793
v -0.1560221 -0.2216562 0.15446793
v 0.22033714 -0.22165638 0.15446796
v 0.220337 0.16093655 0.15446796
v 0.21965513 0.16016354 -0.22188947
v 0.21965511 -0.22088337 -0.22188947
v 0.21965511 -0.22088337 -0.22188947
v 0.21965513 0.16016354 -0.22188947
v -0.15534015 0.16016378 -0.2218895
v -0.15534046 -0.22088319 -0.2218895
vt 0.22397462 0.18873563
vt 0.22589669 0.18879472
vt 0.22665824 0.18823092
vt 0.2246227 0.18818864
vt 0.22447692 0.18611734
vt 0.22637871 0.18611369
vt 0.22453405 0.18612151
vt 0.22384897 0.18667291
vt 0.22384897 0.18667291
vt 0.22397462 0.18873563
vt 0.2246227 0.18818864
vt 0.22447692 0.18611734
vt 0.22637871 0.18611369
vt 0.22665824 0.18823092
vt 0.2263972 0.18827628
vt 0.22624627 0.18611182
vt 0.22624627 0.18611182
vt 0.22589669 0.18879472
vt 0.22397462 0.18873563
vt 0.22384897 0.18667291
vn 3.5393538E-07 0.999998 -0.0020536177
vn 3.5393532E-07 0.999998 -0.002053618
vn 1.9787991E-07 0.7074238 0.7067896
vn 1.9787997E-07 0.7074239 0.70678955
vn -3.745425E-07 -0.70742416 0.70678926
vn -3.745425E-07 -0.7074241 0.7067893
vn -4.5522756E-07 -0.999998 -0.0020539216
vn -4.5522756E-07 -0.999998 -0.0020539216
vn -0.99999833 6.485627E-07 -0.0018113452
vn -0.99999833 6.485627E-07 -0.0018113451
vn -0.99999833 6.485627E-07 -0.0018113451
vn -0.99999833 6.485627E-07 -0.001811345
vn 0.99999833 1.5064E-07 -0.0018120074
vn 0.99999833 1.5064E-07 -0.0018120074
vn 0.99999833 1.5064E-07 -0.0018120074
vn 0.99999833 1.5064E-07 -0.0018120074
vn -0 0 -1
vn -0 0 -1
vn -0 0 -1
vn -0 0 -1
g forge_cube1_0
f 3/3/3 2/2/2 1/1/1
f 4/4/4 3/3/3 1/1/1
f 3/3/3 4/4/4 5/5/5
f 6/6/6 3/3/3 5/5/5
f 6/6/6 5/5/5 7/7/7
f 5/5/5 8/8/8 7/7/7
f 11/11/11 10/10/10 9/9/9
f 12/12/12 11/11/11 9/9/9
f 15/15/15 14/14/14 13/13/13
f 16/16/16 15/15/15 13/13/13
f 19/19/19 18/18/18 17/17/17
f 20/20/20 19/19/19 17/17/17
