g fragment_1
v -0.17016482 0.7050618 0.253587
v 1.3266455E-07 0.81425 -0.041146982
v 0.17016478 0.81425 0.25358722
v -0.4631808 -0.41652143 0.57138115
v 0.20588334 -0.77463937 0.15534237
v -0.57308686 -0.41652143 0.41190383
v 0.5087322 -0.20565192 0.5233695
v 0.20588334 -0.77463937 0.15534237
v -0.4631808 -0.41652143 0.57138115
v 0.5918906 -0.20565192 0.34844935
v 0.20588334 -0.77463937 0.15534237
v 0.5087322 -0.20565192 0.5233695
v 0.06435478 -0.38606277 -0.4692462
v 0.20588334 -0.77463937 0.15534237
v 0.5918906 -0.20565192 0.34844935
v -0.12870976 -0.38606277 -0.45380333
v 0.20588334 -0.77463937 0.15534237
v 0.06435478 -0.38606277 -0.4692462
v -0.57308686 -0.41652143 0.41190383
v 0.20588334 -0.77463937 0.15534237
v -0.12870976 -0.38606277 -0.45380333
v 0.5087322 -0.20565192 0.5233695
v -0.17016482 0.7050618 0.253587
v 0.17016478 0.81425 0.25358722
v -0.4631808 -0.41652143 0.57138115
v -0.57308686 -0.41652143 0.41190383
v 0.5918906 -0.20565192 0.34844935
v 0.5087322 -0.20565192 0.5233695
v 0.17016478 0.81425 0.25358722
v 0.06435478 -0.38606277 -0.4692462
v 1.3266455E-07 0.81425 -0.041146982
v -0.12870976 -0.38606277 -0.45380333
v -0.57308686 -0.41652143 0.41190383
v -0.17016482 0.7050618 0.253587
vt 0.39416456 0.19791093
vt 0.40366217 0.19382991
vt 0.3974775 0.18554686
vt 0.45515996 0.009964926
vt 0.46981567 0.02297615
vt 0.446583 0.007666742
vt 0.5077041 0.05129678
vt 0.46981567 0.02297615
vt 0.45515996 0.009964926
vt 0.382969 0.014440676
vt 0.4326044 0.019677514
vt 0.37389165 0.015898844
vt 0.4432973 0.0067863404
vt 0.4326044 0.019677514
vt 0.382969 0.014440676
vt 0.45515996 0.009964926
vt 0.4326044 0.019677514
vt 0.4432973 0.0067863404
vt 0.5077041 0.05129678
vt 0.4326044 0.019677514
vt 0.45515996 0.009964926
vt 0.5077041 0.05129678
vt 0.399199 0.18450618
vt 0.40624034 0.19051585
vt 0.45515996 0.009964926
vt 0.446583 0.007666742
vt 0.382969 0.014440676
vt 0.37389165 0.015898844
vt 0.39012894 0.18640248
vt 0.4432973 0.0067863404
vt 0.399199 0.18450618
vt 0.45515996 0.009964926
vt 0.5077041 0.05129678
vt 0.40624034 0.19051585
vn -0.30084968 0.93772024 0.17369537
vn -0.30084968 0.93772024 0.17369537
vn -0.30084968 0.93772024 0.17369537
vn -0.34103668 -0.910195 0.23503022
vn -0.34103668 -0.910195 0.23503019
vn -0.3410367 -0.910195 0.23503022
vn 0.16826566 -0.5969444 0.7844387
vn 0.16826566 -0.5969444 0.7844387
vn 0.16826566 -0.5969444 0.7844387
vn 0.719591 -0.6042823 0.342099
vn 0.719591 -0.6042823 0.342099
vn 0.71959096 -0.6042823 0.34209904
vn 0.80753046 -0.40105534 -0.43249172
vn 0.80753046 -0.40105534 -0.43249172
vn 0.80753046 -0.40105534 -0.43249172
vn -0.041670922 -0.8525613 -0.52096325
vn -0.041670926 -0.8525613 -0.52096325
vn -0.041670926 -0.8525613 -0.5209633
vn -0.4746235 -0.836759 -0.27306968
vn -0.4746235 -0.836759 -0.27306965
vn -0.4746235 -0.83675885 -0.27306968
vn 0.47204813 0.37819082 0.7963305
vn -0.7792783 0.4334555 0.45259443
vn 0.8127018 0.49467942 0.30790904
vn -0.5030851 0.34767845 0.7912175
vn -0.9324594 0.34660006 0.10192116
vn 0.9283202 0.36318344 -0.079494156
vn 0.47204813 0.37819082 0.7963305
vn 0.8127018 0.49467942 0.30790904
vn 0.34430447 0.34036064 -0.87499094
vn 0.077184945 0.4449442 -0.892226
vn -0.5136276 0.33001715 -0.7920072
vn -0.9324594 0.34660006 0.10192116
vn -0.7792783 0.4334555 0.45259443
g fragment_1_0
f 3/3/3 2/2/2 1/1/1
f 6/6/6 5/5/5 4/4/4
f 9/9/9 8/8/8 7/7/7
f 12/12/12 11/11/11 10/10/10
f 15/15/15 14/14/14 13/13/13
f 18/18/18 17/17/17 16/16/16
f 21/21/21 20/20/20 19/19/19
f 24/24/24 23/23/23 22/22/22
f 23/23/23 25/25/25 22/22/22
f 23/23/23 26/26/26 25/25/25
f 29/29/29 28/28/28 27/27/27
f 29/29/29 27/27/27 30/30/30
f 31/31/31 29/29/29 30/30/30
f 31/31/31 30/30/30 32/32/32
f 31/31/31 32/32/32 33/33/33
f 34/34/34 31/31/31 33/33/33
