g frame4
v 0.038064934 0.69333863 0.2005196
v 0.9689555 0.69333863 0.2005196
v 0.94377387 0.7443843 0.31916875
v 0.06324592 0.7443843 0.31916875
v 1.0041243 0.66565824 0.21049137
v 1.0041229 0.55652523 0.24980634
v 0.9789414 0.6075708 0.3684554
v 0.97894263 0.7167039 0.32914042
v 0.028076496 0.7167039 0.32914042
v 0.028075669 0.6075708 0.36845535
v 0.0028945429 0.55652547 0.24980623
v 0.0028953785 0.66565824 0.21049137
v 0.5035106 0.693338 0.25971052
v 0.5035106 1.1292219 0.103222184
v 0.7986375 1.1292218 0.10322218
v 0.81900924 0.69333786 0.25971052
v 0.18801132 0.69333786 0.25971052
v 0.208383 1.1292218 0.10322218
v 0.5035106 1.1292219 0.103222184
v 0.5035106 0.693338 0.25971052
v 1.0041243 0.66565824 0.21049137
v 0.97894263 0.7167039 0.32914042
v 0.94377387 0.7443843 0.31916875
v 0.9689555 0.69333863 0.2005196
v 0.038064934 0.69333863 0.2005196
v 0.06324592 0.7443843 0.31916875
v 0.028076496 0.7167039 0.32914042
v 0.0028953785 0.66565824 0.21049137
v 0.9789414 0.6075708 0.3684554
v 1.0041229 0.55652523 0.24980634
v 0.9689533 0.52884483 0.25977814
v 0.9437718 0.57989043 0.37842715
v 0.0028945429 0.55652547 0.24980623
v 0.028075669 0.6075708 0.36845535
v 0.063244775 0.57989043 0.3784271
v 0.03806355 0.5288451 0.25977802
v 0.028076496 0.7167039 0.32914042
v 0.063244775 0.57989043 0.3784271
v 0.028075669 0.6075708 0.36845535
v 0.06324592 0.7443843 0.31916875
v 0.94377387 0.7443843 0.31916875
v 0.9437718 0.57989043 0.37842715
v 0.9789414 0.6075708 0.3684554
v 0.97894263 0.7167039 0.32914042
v 0.075225696 0.7355155 0.30763957
v 0.20989703 1.0651655 0.17965679
v 0.20989484 0.73551536 0.3076396
v 0.07522708 1.0651655 0.17965674
v 0.31345564 1.153412 0.14539622
v 0.25645864 1.2382132 0.112473026
v 0.5035112 1.1534119 0.14539623
v 0.5035112 1.2382132 0.11247306
v 0.7505637 1.2382132 0.112473026
v 0.6935667 1.153412 0.14539622
v 0.9317953 1.0651655 0.17965674
v 0.7971254 1.0651655 0.17965679
v 0.93179667 0.7355155 0.30763957
v 0.79712754 0.73551536 0.3076396
v 0.20989703 1.0651655 0.17965679
v 0.23114806 1.017389 0.095582485
v 0.23114565 0.6979664 0.21959448
v 0.20989484 0.73551536 0.3076396
v 0.053974792 0.69796664 0.21959442
v 0.07522708 1.0651655 0.17965674
v 0.075225696 0.7355155 0.30763957
v 0.05397627 1.0805336 0.071576215
v 0.25645864 1.2382132 0.112473026
v 0.2496103 1.2633104 0.00061527704
v 0.5035112 1.2382132 0.11247306
v 0.5035112 1.2633104 0.00061529625
v 0.757412 1.2633104 0.00061529625
v 0.7505637 1.2382132 0.112473026
v 0.9530461 1.0805336 0.071576215
v 0.9317953 1.0651655 0.17965674
v 0.93179667 0.7355155 0.30763957
v 0.9530475 0.69796664 0.21959442
v 0.23114806 1.017389 0.095582485
v 0.20989703 1.0651655 0.17965679
v 0.31345564 1.153412 0.14539622
v 0.32313344 1.0898663 0.067444034
v 0.5035112 1.0898663 0.067444034
v 0.5035112 1.1534119 0.14539623
v 0.6935667 1.153412 0.14539622
v 0.6838889 1.0898663 0.067444034
v 0.77587426 1.017389 0.095582485
v 0.7971254 1.0651655 0.17965679
v 0.7758767 0.6979664 0.21959448
v 0.77587426 1.017389 0.095582485
v 0.7971254 1.0651655 0.17965679
v 0.79712754 0.73551536 0.3076396
vt 0.93340844 0.8618019
vt 0.9963256 0.8618019
vt 0.9963256 0.85033464
vt 0.93340844 0.85033464
vt 0.9167192 0.84666383
vt 0.9167192 0.83799934
vt 0.9283193 0.83799934
vt 0.9283193 0.84666383
vt 0.9283193 0.84666383
vt 0.9283193 0.83799934
vt 0.9167192 0.83799934
vt 0.9167192 0.84666383
vt 0.8235758 0.8292498
vt 0.8235758 0.87244654
vt 0.80118334 0.87244654
vt 0.7996376 0.8292498
vt 0.7996374 0.8292498
vt 0.80118334 0.87244654
vt 0.8235758 0.87244654
vt 0.8235758 0.8292498
vt 0.9167192 0.84666383
vt 0.9283193 0.84666383
vt 0.9283193 0.8507305
vt 0.9167192 0.8507305
vt 0.9167192 0.85074943
vt 0.9283193 0.8507305
vt 0.9283193 0.84666383
vt 0.9167192 0.84666383
vt 0.9283193 0.83799934
vt 0.9167192 0.83799934
vt 0.9167192 0.833276
vt 0.9283193 0.833276
vt 0.9167192 0.83799934
vt 0.9283193 0.83799934
vt 0.9283193 0.833276
vt 0.9167192 0.833276
vt 0.93111086 0.84452915
vt 0.93340844 0.8312379
vt 0.93111086 0.8334357
vt 0.93340844 0.846727
vt 0.9963256 0.846727
vt 0.9963256 0.8312379
vt 0.9985621 0.8334357
vt 0.9985621 0.84452915
vt 0.84125745 0.8271085
vt 0.858479 0.8587493
vt 0.858479 0.8271085
vt 0.84125745 0.8587493
vt 0.858479 0.87457013
vt 0.84125745 0.87457013
vt 0.858479 0.87457013
vt 0.84125745 0.87457013
vt 0.84125745 0.87457013
vt 0.858479 0.87457013
vt 0.84125745 0.8587493
vt 0.858479 0.8587493
vt 0.84125745 0.8271085
vt 0.858479 0.8271085
vt 0.858479 0.8587493
vt 0.8706517 0.8587493
vt 0.8706517 0.8271085
vt 0.858479 0.8271085
vt 0.8285831 0.8271085
vt 0.8407559 0.8587493
vt 0.8407559 0.8271085
vt 0.8285831 0.8587493
vt 0.8407559 0.87457013
vt 0.8285831 0.87457013
vt 0.8407559 0.87457013
vt 0.8285831 0.87457013
vt 0.8285831 0.87457013
vt 0.8407559 0.87457013
vt 0.8285831 0.8587493
vt 0.8407559 0.8587493
vt 0.8407559 0.8271085
vt 0.8285831 0.8271085
vt 0.8706517 0.8587493
vt 0.858479 0.8587493
vt 0.858479 0.87457013
vt 0.8706517 0.87457013
vt 0.8706517 0.87457013
vt 0.858479 0.87457013
vt 0.858479 0.87457013
vt 0.8706517 0.87457013
vt 0.8706517 0.8587493
vt 0.858479 0.8587493
vt 0.8706517 0.8271085
vt 0.8706517 0.8587493
vt 0.858479 0.8587493
vt 0.858479 0.8271085
vn -0.38188446 0.875638 -0.29567248
vn 0.38189068 0.87563664 -0.29566863
vn 0.29979104 0.8977959 -0.3226266
vn -0.29978767 0.89779615 -0.32262895
vn 0.9814547 0.064959794 0.18035215
vn 0.9814547 0.064959794 0.18035217
vn 0.9814547 0.064959794 0.18035215
vn 0.9814547 0.064959794 0.18035218
vn -0.9814555 0.06497536 0.18034229
vn -0.9814555 0.064975366 0.18034232
vn -0.9814555 0.064975366 0.18034232
vn -0.9814555 0.064975366 0.18034233
vn -0 0.33789757 0.9411829
vn -0 0.3378975 0.9411829
vn 1.860313E-07 0.33789757 0.9411829
vn 1.860313E-07 0.33789754 0.9411829
vn -1.9697389E-07 0.3378975 0.9411829
vn -1.9697391E-07 0.33789754 0.9411829
vn -0 0.3378975 0.9411829
vn -0 0.33789757 0.9411829
vn 0.6396703 0.74600726 -0.1851889
vn 0.6396704 0.7460074 -0.18518893
vn 0.29979104 0.8977959 -0.3226266
vn 0.38189068 0.87563664 -0.29566863
vn -0.38188446 0.875638 -0.29567248
vn -0.29978767 0.89779615 -0.32262895
vn -0.6396626 0.7460122 -0.18519586
vn -0.63966256 0.7460123 -0.18519586
vn 0.6323832 -0.6538011 0.41549444
vn 0.6323832 -0.6538011 0.4154944
vn 0.6323833 -0.653801 0.4154944
vn 0.6323832 -0.6538011 0.41549444
vn -0.6323891 -0.6537975 0.41549113
vn -0.63238907 -0.65379745 0.4154911
vn -0.6323891 -0.6537975 0.4154911
vn -0.6323891 -0.6537975 0.41549113
vn -1.0210904E-06 0.33892512 0.94081336
vn -3.917111E-07 0.33892497 0.94081336
vn -1.0210903E-06 0.33892512 0.94081336
vn -3.9170712E-07 0.338925 0.94081336
vn 3.4182182E-07 0.3389251 0.94081336
vn 3.418147E-07 0.33892512 0.94081336
vn 1.0305463E-06 0.33892557 0.94081324
vn 1.0305463E-06 0.33892554 0.94081324
vn -0 0.3619194 0.93220943
vn -3.9075894E-07 0.36191955 0.9322094
vn -0 0.3619194 0.93220943
vn -2.3923943E-07 0.36191943 0.9322094
vn -2.7460004E-07 0.36191988 0.93220925
vn -3.4737047E-07 0.36191982 0.93220925
vn -0 0.3619201 0.93220913
vn -0 0.3619201 0.93220913
vn 3.4789505E-07 0.36191982 0.93220925
vn 2.7526747E-07 0.36191982 0.93220925
vn 2.392395E-07 0.36191952 0.9322094
vn 3.9075897E-07 0.36191952 0.9322094
vn -0 0.36191943 0.9322094
vn -0 0.36191943 0.9322094
vn 0.9762047 0.0784766 0.2021531
vn 0.9762047 0.07847659 0.20215309
vn 0.9762047 0.07847659 0.20215307
vn 0.9762047 0.07847659 0.20215309
vn -0.97609806 0.07853371 0.20264511
vn -0.90150785 0.3699714 0.22451012
vn -0.97609806 0.07853371 0.20264508
vn -0.81452674 0.53350097 0.22786598
vn -0.36057514 0.90356743 0.23141202
vn -0.2955401 0.9268654 0.2314663
vn -0 0.97574174 0.21892479
vn -0 0.97574174 0.21892479
vn 0.29554 0.9268654 0.23146619
vn 0.36057514 0.90356743 0.23141189
vn 0.8145268 0.5335009 0.22786568
vn 0.9015079 0.36997125 0.2245098
vn 0.9760982 0.078533545 0.20264475
vn 0.9760982 0.07853353 0.20264474
vn 0.6362135 -0.57383156 0.5157031
vn 0.6362135 -0.57383156 0.5157031
vn 0.33331722 -0.71831787 0.610671
vn 0.34104496 -0.7158798 0.60926545
vn -0 -0.7750934 0.6318466
vn -0 -0.7750935 0.6318466
vn -0.33331716 -0.7183178 0.61067116
vn -0.3410449 -0.7158797 0.6092657
vn -0.63621336 -0.57383144 0.51570344
vn -0.63621336 -0.57383144 0.51570344
vn -0.97620445 0.078476846 0.20215373
vn -0.97620445 0.07847685 0.20215374
vn -0.97620445 0.07847685 0.20215376
vn -0.97620445 0.078476846 0.20215373
g frame4_0
f 3/3/3 2/2/2 1/1/1
f 4/4/4 3/3/3 1/1/1
f 7/7/7 6/6/6 5/5/5
f 8/8/8 7/7/7 5/5/5
f 11/11/11 10/10/10 9/9/9
f 12/12/12 11/11/11 9/9/9
f 15/15/15 14/14/14 13/13/13
f 16/16/16 15/15/15 13/13/13
f 19/19/19 18/18/18 17/17/17
f 20/20/20 19/19/19 17/17/17
f 23/23/23 22/22/22 21/21/21
f 24/24/24 23/23/23 21/21/21
f 27/27/27 26/26/26 25/25/25
f 28/28/28 27/27/27 25/25/25
f 31/31/31 30/30/30 29/29/29
f 32/32/32 31/31/31 29/29/29
f 35/35/35 34/34/34 33/33/33
f 36/36/36 35/35/35 33/33/33
f 39/39/39 38/38/38 37/37/37
f 38/38/38 40/40/40 37/37/37
f 40/40/40 38/38/38 41/41/41
f 38/38/38 42/42/42 41/41/41
f 41/41/41 42/42/42 43/43/43
f 44/44/44 41/41/41 43/43/43
f 47/47/47 46/46/46 45/45/45
f 46/46/46 48/48/48 45/45/45
f 48/48/48 46/46/46 49/49/49
f 50/50/50 48/48/48 49/49/49
f 49/49/49 51/51/51 50/50/50
f 51/51/51 52/52/52 50/50/50
f 52/52/52 51/51/51 53/53/53
f 51/51/51 54/54/54 53/53/53
f 53/53/53 54/54/54 55/55/55
f 54/54/54 56/56/56 55/55/55
f 57/57/57 55/55/55 56/56/56
f 58/58/58 57/57/57 56/56/56
f 61/61/61 60/60/60 59/59/59
f 62/62/62 61/61/61 59/59/59
f 65/65/65 64/64/64 63/63/63
f 64/64/64 66/66/66 63/63/63
f 66/66/66 64/64/64 67/67/67
f 68/68/68 66/66/66 67/67/67
f 67/67/67 69/69/69 68/68/68
f 69/69/69 70/70/70 68/68/68
f 70/70/70 69/69/69 71/71/71
f 69/69/69 72/72/72 71/71/71
f 71/71/71 72/72/72 73/73/73
f 72/72/72 74/74/74 73/73/73
f 74/74/74 75/75/75 73/73/73
f 75/75/75 76/76/76 73/73/73
f 79/79/79 78/78/78 77/77/77
f 80/80/80 79/79/79 77/77/77
f 80/80/80 81/81/81 79/79/79
f 81/81/81 82/82/82 79/79/79
f 82/82/82 81/81/81 83/83/83
f 81/81/81 84/84/84 83/83/83
f 83/83/83 84/84/84 85/85/85
f 86/86/86 83/83/83 85/85/85
f 89/89/89 88/88/88 87/87/87
f 90/90/90 89/89/89 87/87/87
