g futurecastle_obj_wood2
v 0.384522 0.5927666 0.39399067
v -1.3142439 0.5927666 0.372677
v -1.2772073 0.5927665 0.1999891
v 0.18903491 0.5927665 0.057144802
v 0.45940456 0.5927665 0.1323983
v -1.3142439 0.59276646 -0.0032303967
v 0.3603377 0.59276646 -0.104295306
v 0.3603377 0.59276646 0.01688418
v 0.45940456 0.5927665 0.1323983
v 0.5148542 0.43861535 0.13201763
v 0.433451 0.43861535 0.417563
v 0.384522 0.5927666 0.39399067
v -1.2772073 0.5927665 0.1999891
v -1.3729732 0.43861535 0.20507547
v -1.4132348 0.43861532 -0.013655314
v -1.3142439 0.59276646 -0.0032303967
v 0.384522 0.5927666 0.39399067
v 0.433451 0.43861535 0.417563
v -1.4132348 0.43861535 0.39093772
v -1.3142439 0.5927666 0.372677
v -1.3142439 0.59276646 -0.0032303967
v -1.4132348 0.43861532 -0.013655314
v 0.40716115 0.43861532 -0.12633754
v 0.3603377 0.59276646 -0.104295306
v 0.3603377 0.59276646 -0.104295306
v 0.40716115 0.43861532 -0.12633754
v 0.40716115 0.43861532 0.0059220945
v 0.3603377 0.59276646 0.01688418
v 0.18903491 0.5927665 0.057144802
v 0.3603377 0.59276646 0.01688418
v 0.40716115 0.43861532 0.0059220945
v 0.2209422 0.43861532 0.049940795
v 0.18903491 0.5927665 0.057144802
v 0.2209422 0.43861532 0.049940795
v 0.5148542 0.43861535 0.13201763
v 0.45940456 0.5927665 0.1323983
v -1.3142439 0.5927666 0.372677
v -1.4132348 0.43861535 0.39093772
v -1.3729732 0.43861535 0.20507547
v -1.2772073 0.5927665 0.1999891
v -0.29174703 0.59276646 -0.31536216
v -0.46304974 0.59276646 -0.38101307
v -0.29174703 0.59276646 -0.3697297
v -0.46304974 0.59276646 -0.22287545
v -1.3413985 0.59276646 -0.3872189
v -1.3766689 0.5927665 -0.16885832
v -0.46304974 0.59276646 -0.38101307
v -0.43114245 0.4386153 -0.39904338
v -0.24492352 0.4386153 -0.38677737
v -0.29174703 0.59276646 -0.3697297
v -1.3766689 0.5927665 -0.16885832
v -1.4724348 0.43861508 -0.171584
v -1.4403892 0.4386153 -0.41117367
v -1.3413985 0.59276646 -0.3872189
v -1.3413985 0.59276646 -0.3872189
v -1.4403892 0.4386153 -0.41117367
v -0.43114245 0.4386153 -0.39904338
v -0.46304974 0.59276646 -0.38101307
v -0.29174703 0.59276646 -0.3697297
v -0.24492352 0.4386153 -0.38677737
v -0.24492337 0.4386153 -0.32171845
v -0.29174703 0.59276646 -0.31536216
v -0.29174703 0.59276646 -0.31536216
v -0.24492337 0.4386153 -0.32171845
v -0.44709626 0.4386152 -0.22500573
v -0.46304974 0.59276646 -0.22287545
v -0.46304974 0.59276646 -0.22287545
v -0.44709626 0.4386152 -0.22500573
v -1.4724348 0.43861508 -0.171584
v -1.3766689 0.5927665 -0.16885832
vt 0.97287685 0.40745175
vt 0.77078444 0.40745175
vt 0.77078444 0.4296124
vt 0.9485815 0.45060742
vt 0.9814449 0.44139957
vt 0.77078444 0.45570886
vt 0.969008 0.47169554
vt 0.969237 0.4560951
vt 0.88016826 0.40163875
vt 0.88016826 0.37417436
vt 0.8581788 0.37417436
vt 0.8581788 0.40163875
vt 0.86960894 0.40163875
vt 0.86960894 0.37417436
vt 0.8581788 0.37417436
vt 0.8581788 0.40163875
vt 0.8398225 0.40163875
vt 0.8398225 0.37417436
vt 0.7703877 0.37417436
vt 0.7703877 0.40163875
vt 0.7703877 0.40163875
vt 0.7703877 0.37417436
vt 0.8398225 0.37417436
vt 0.8398225 0.40163875
vt 0.88016826 0.40163875
vt 0.88016826 0.37417436
vt 0.8581788 0.37417436
vt 0.8581788 0.40163875
vt 0.8970522 0.40163875
vt 0.88468236 0.40163875
vt 0.88468236 0.37417436
vt 0.8970522 0.37417436
vt 0.8970522 0.40163875
vt 0.8970522 0.37417436
vt 0.88468236 0.37417436
vt 0.88468236 0.40163875
vt 0.88016826 0.40163875
vt 0.88016826 0.37417436
vt 0.86960894 0.37417436
vt 0.86960894 0.40163875
vt 0.91482395 0.48127067
vt 0.89197916 0.4899261
vt 0.9147926 0.4899261
vt 0.89207 0.4680797
vt 0.77078444 0.4899261
vt 0.77078444 0.45993638
vt 0.8398225 0.40163875
vt 0.8398225 0.37417436
vt 0.8533154 0.37417436
vt 0.8533154 0.40163875
vt 0.88016826 0.40163875
vt 0.88016826 0.37417436
vt 0.8581788 0.37417436
vt 0.8581788 0.40163875
vt 0.7703877 0.40163875
vt 0.7703877 0.37417436
vt 0.8398225 0.37417436
vt 0.8398225 0.40163875
vt 0.88016826 0.40163875
vt 0.88016826 0.37417436
vt 0.8581788 0.37417436
vt 0.8581788 0.40163875
vt 0.8533154 0.40163875
vt 0.8533154 0.37417436
vt 0.8398225 0.37417436
vt 0.8398225 0.40163875
vt 0.8398225 0.40163875
vt 0.8398225 0.37417436
vt 0.7703877 0.37417436
vt 0.7703877 0.40163875
vn -0 1 -1.490018E-07
vn -0 1 -1.490018E-07
vn -0 1 -1.4900179E-07
vn -0 1 -1.4900179E-07
vn -0 1 -1.3601014E-07
vn -0 1 -2.1688562E-07
vn -0 1 -2.1688562E-07
vn 2.2424621E-07 1 0
vn 0.90863115 0.32714924 0.2595436
vn 0.90863115 0.32714924 0.2595436
vn 0.90863115 0.32714927 0.2595436
vn 0.90863115 0.32714924 0.2595436
vn -0.836647 0.5258621 0.15326749
vn -0.836647 0.5258621 0.15326749
vn -0.836647 0.5258621 0.15326749
vn -0.83664703 0.5258621 0.15326749
vn -0.01339332 0.13657932 0.9905386
vn -0.01339332 0.13657932 0.9905386
vn -0.01339332 0.13657932 0.9905386
vn -0.013393319 0.13657932 0.9905386
vn -0.060641572 0.11468065 -0.99154973
vn -0.060641572 0.11468065 -0.99154973
vn -0.060641572 0.11468064 -0.99154973
vn -0.060641572 0.11468065 -0.99154973
vn 0.95683306 0.29063818 0
vn 0.95683306 0.29063818 0
vn 0.95683306 0.29063818 0
vn 0.95683306 0.29063818 0
vn 0.22944301 0.0012415337 0.9733213
vn 0.22944301 0.0012415338 0.9733213
vn 0.22944301 0.0012415339 0.9733213
vn 0.22944301 0.0012415338 0.9733213
vn 0.26724404 0.09930354 -0.9584985
vn 0.267244 0.09930356 -0.9584986
vn 0.267244 0.09930355 -0.9584986
vn 0.267244 0.09930355 -0.9584985
vn -0.8376574 0.51547885 -0.18058681
vn -0.8376574 0.5154788 -0.1805868
vn -0.8376574 0.5154788 -0.1805868
vn -0.8376574 0.51547885 -0.18058681
vn -0 1 0
vn -0 1 0
vn -0 1 0
vn -0 1 0
vn -0 1 -2.0054426E-07
vn -0 1 -2.0054426E-07
vn 0.065174945 0.12922357 -0.9894713
vn 0.06517494 0.12922357 -0.9894713
vn 0.06517494 0.12922357 -0.9894713
vn 0.06517494 0.12922357 -0.9894713
vn -0.8342338 0.5376024 -0.1226275
vn -0.8342338 0.5376024 -0.1226275
vn -0.8342338 0.5376024 -0.1226275
vn -0.8342338 0.5376025 -0.1226275
vn 0.009627419 0.13287282 -0.9910863
vn 0.0096274195 0.13287282 -0.9910863
vn 0.009627419 0.13287282 -0.9910863
vn 0.009627419 0.13287279 -0.9910863
vn 0.9568327 0.2906391 -1.2364677E-06
vn 0.9568327 0.2906391 -1.2364677E-06
vn 0.9568327 0.29063913 -1.2364678E-06
vn 0.9568327 0.2906391 -1.2364677E-06
vn 0.45088634 0.06731033 0.8900398
vn 0.4508864 0.06731034 0.8900398
vn 0.45088634 0.06731033 0.8900398
vn 0.45088628 0.06731033 0.8900398
vn 0.055300795 -0.030035457 0.9980179
vn 0.055300795 -0.03003546 0.9980179
vn 0.055300787 -0.03003546 0.9980179
vn 0.055300795 -0.03003546 0.9980179
g futurecastle_obj_wood2_0
f 3/3/3 2/2/2 1/1/1
f 4/4/4 3/3/3 1/1/1
f 5/5/5 4/4/4 1/1/1
f 6/6/6 3/3/3 4/4/4
f 7/7/7 6/6/6 4/4/4
f 8/8/8 7/7/7 4/4/4
f 11/11/11 10/10/10 9/9/9
f 12/12/12 11/11/11 9/9/9
f 15/15/15 14/14/14 13/13/13
f 16/16/16 15/15/15 13/13/13
f 19/19/19 18/18/18 17/17/17
f 20/20/20 19/19/19 17/17/17
f 23/23/23 22/22/22 21/21/21
f 24/24/24 23/23/23 21/21/21
f 27/27/27 26/26/26 25/25/25
f 28/28/28 27/27/27 25/25/25
f 31/31/31 30/30/30 29/29/29
f 32/32/32 31/31/31 29/29/29
f 35/35/35 34/34/34 33/33/33
f 36/36/36 35/35/35 33/33/33
f 39/39/39 38/38/38 37/37/37
f 40/40/40 39/39/39 37/37/37
f 43/43/43 42/42/42 41/41/41
f 42/42/42 44/44/44 41/41/41
f 42/42/42 45/45/45 44/44/44
f 45/45/45 46/46/46 44/44/44
f 49/49/49 48/48/48 47/47/47
f 50/50/50 49/49/49 47/47/47
f 53/53/53 52/52/52 51/51/51
f 54/54/54 53/53/53 51/51/51
f 57/57/57 56/56/56 55/55/55
f 58/58/58 57/57/57 55/55/55
f 61/61/61 60/60/60 59/59/59
f 62/62/62 61/61/61 59/59/59
f 65/65/65 64/64/64 63/63/63
f 66/66/66 65/65/65 63/63/63
f 69/69/69 68/68/68 67/67/67
f 70/70/70 69/69/69 67/67/67
