g futurecastle_obj_wall_end_R
v 0.46302223 1.2011421 0.008189149
v 0.4604098 1.2457504 -0.03109913
v 0.52203447 1.2011421 -0.029401356
v 0.48473975 1.2011417 -0.5159763
v 0.42311507 1.2457503 -0.50720674
v 0.42050254 1.2011418 -0.5465524
v 0.42311507 1.2457503 -0.50720674
v 0.4604098 1.2457504 -0.03109913
v 0.34181973 1.2251015 -0.022018434
v 0.30452496 1.2251011 -0.50297135
v 0.463022 0.8759531 0.051478256
v 0.24592236 0.875953 0.06577157
v 0.30213648 1.1804929 0.020185621
v 0.46302223 1.2011421 0.008189149
v 0.48473966 0.8759529 -0.55489117
v 0.52203435 0.8759531 0.007992667
v 0.52203447 1.2011421 -0.029401356
v 0.48473975 1.2011417 -0.5159763
v 0.34181973 1.2251015 -0.022018434
v 0.4604098 1.2457504 -0.03109913
v 0.46302223 1.2011421 0.008189149
v 0.30213648 1.1804929 0.020185621
v 0.42311507 1.2457503 -0.50720674
v 0.48473975 1.2011417 -0.5159763
v 0.52203447 1.2011421 -0.029401356
v 0.4604098 1.2457504 -0.03109913
v 0.46302223 1.2011421 0.008189149
v 0.52203447 1.2011421 -0.029401356
v 0.52203435 0.8759531 0.007992667
v 0.463022 0.8759531 0.051478256
v 0.42050284 0.8759531 -0.59026235
v 0.48473966 0.8759529 -0.55489117
v 0.48473975 1.2011417 -0.5159763
v 0.42050254 1.2011418 -0.5465524
v 0.25961712 1.1804926 -0.54008037
v 0.20340294 0.8759531 -0.5759688
v 0.42050284 0.8759531 -0.59026235
v 0.42050254 1.2011418 -0.5465524
v 0.30452496 1.2251011 -0.50297135
v 0.25961712 1.1804926 -0.54008037
v 0.42050254 1.2011418 -0.5465524
v 0.42311507 1.2457503 -0.50720674
v 0.20340294 0.8759531 -0.5759688
v 0.25961712 1.1804926 -0.54008037
v 0.30213648 1.1804929 0.020185621
v 0.24592236 0.875953 0.06577157
v 0.30452496 1.2251011 -0.50297135
v 0.34181973 1.2251015 -0.022018434
v 0.30213648 1.1804929 0.020185621
v 0.25961712 1.1804926 -0.54008037
v 0.08463 0.87628525 0.07483802
v 0.5035204 0.87628514 0.07483759
v 0.50352037 0.557509 0.120383695
v -0.11150019 0.55750906 0.120383814
v -0.07775428 0.6859037 0.1020394
v 0.50352037 0.5129004 -0.6100786
v 0.50352037 0.55750895 -0.6532152
v -0.11149988 0.55750906 -0.65321493
v -0.12094452 0.51290053 -0.6100782
v -0.28197014 0.55750906 -0.6532147
v -0.28296307 0.51290053 -0.6100784
v -0.25566852 0.67049336 -0.6371906
v -0.28197014 0.55750906 -0.6532147
v -0.11149988 0.55750906 -0.65321493
v -0.07775397 0.6859038 -0.6350045
v -0.28197014 0.55750906 0.12038382
v -0.12094452 0.51290053 0.0772942
v -0.28296307 0.51290053 0.07729411
v -0.11150019 0.55750906 0.120383814
v 0.50352037 0.51290035 0.07729386
v 0.50352037 0.557509 0.120383695
v -0.28197014 0.55750906 0.12038382
v -0.28197014 0.55750906 -0.6532147
v -0.25566852 0.67049336 -0.6371906
v -0.25566852 0.6704934 0.10424119
v -0.28296307 0.51290053 -0.6100784
v -0.28197014 0.55750906 -0.6532147
v -0.28197014 0.55750906 0.12038382
v -0.28296307 0.51290053 0.07729411
v 0.5035204 0.87628496 -0.60800356
v 0.5035204 0.87628514 0.07483759
v 0.08463 0.87628525 0.07483802
v 0.08462996 0.87628514 -0.6080031
v -0.11150019 0.55750906 0.120383814
v -0.28197014 0.55750906 0.12038382
v -0.25566852 0.6704934 0.10424119
v -0.07775428 0.6859037 0.1020394
v 0.50352037 0.55750895 -0.6532152
v 0.5035204 0.87628496 -0.60800356
v 0.08462996 0.87628514 -0.6080031
v -0.11149988 0.55750906 -0.65321493
v -0.07775397 0.6859038 -0.6350045
v 0.08462996 0.87628514 -0.6080031
v 0.08463 0.87628525 0.07483802
v -0.07775428 0.6859037 0.1020394
v -0.07775397 0.6859038 -0.6350045
v -0.07775397 0.6859038 -0.6350045
v -0.07775428 0.6859037 0.1020394
v -0.25566852 0.6704934 0.10424119
v -0.25566852 0.67049336 -0.6371906
vt 0.73221236 0.036714938
vt 0.73221236 0.044910725
vt 0.7269398 0.036714938
vt 0.7269398 0.03671489
vt 0.73221236 0.044910677
vt 0.73221236 0.03671489
vt 0.73523384 0.05886919
vt 0.73523384 0.087614216
vt 0.7387646 0.087614216
vt 0.7387646 0.05886919
vt 0.73221236 0.0035192526
vt 0.74938226 0.0035192526
vt 0.74248147 0.036714938
vt 0.73221236 0.036714938
vt 0.7269398 0.0035192526
vt 0.7269398 0.0035192526
vt 0.7269398 0.036714938
vt 0.7269398 0.03671489
vt 0.74084866 0.044910725
vt 0.73221236 0.044910725
vt 0.73221236 0.036714938
vt 0.74248147 0.036714938
vt 0.73221236 0.044910677
vt 0.7269398 0.03671489
vt 0.7269398 0.036714938
vt 0.73221236 0.044910725
vt 0.73221236 0.036714938
vt 0.7269398 0.036714938
vt 0.7269398 0.0035192526
vt 0.73221236 0.0035192526
vt 0.73221236 0.0035192526
vt 0.7269398 0.0035192526
vt 0.7269398 0.03671489
vt 0.73221236 0.03671489
vt 0.74248147 0.03671489
vt 0.74938226 0.0035192526
vt 0.73221236 0.0035192526
vt 0.73221236 0.03671489
vt 0.74084866 0.044910677
vt 0.74248147 0.03671489
vt 0.73221236 0.03671489
vt 0.73221236 0.044910677
vt 0.74938226 0.0035192526
vt 0.74248147 0.03671489
vt 0.74248147 0.03671489
vt 0.74938226 0.0035192526
vt 0.74084866 0.044910677
vt 0.74084866 0.044910725
vt 0.74248147 0.036714938
vt 0.74248147 0.03671489
vt 0.63331324 0.03501101
vt 0.6218851 0.03501101
vt 0.6218851 0.00569488
vt 0.6397952 0.00569488
vt 0.63655424 0.020693617
vt 0.6218851 0.0014971595
vt 0.6218851 0.00569488
vt 0.6397952 0.00569488
vt 0.6407022 0.0014971595
vt 0.66001946 0.00569488
vt 0.66183364 0.0014971595
vt 0.6535375 0.020693617
vt 0.66001946 0.00569488
vt 0.6397952 0.00569488
vt 0.63655424 0.020693617
vt 0.66001946 0.00569488
vt 0.6407022 0.0014971595
vt 0.66183364 0.0014971595
vt 0.6397952 0.00569488
vt 0.6218851 0.0014971595
vt 0.6218851 0.00569488
vt 0.66001946 0.00569488
vt 0.66001946 0.00569488
vt 0.6535375 0.020693617
vt 0.6535375 0.020693617
vt 0.66183364 0.0014971595
vt 0.66001946 0.00569488
vt 0.66001946 0.00569488
vt 0.66183364 0.0014971595
vt 0.6218851 0.03501101
vt 0.6218851 0.03501101
vt 0.63331324 0.03501101
vt 0.63331324 0.03501101
vt 0.6397952 0.00569488
vt 0.66001946 0.00569488
vt 0.6535375 0.020693617
vt 0.63655424 0.020693617
vt 0.6218851 0.00569488
vt 0.6218851 0.03501101
vt 0.63331324 0.03501101
vt 0.6397952 0.00569488
vt 0.63655424 0.020693617
vt 0.63331324 0.03501101
vt 0.63331324 0.03501101
vt 0.63655424 0.020693617
vt 0.63655424 0.020693617
vt 0.63655424 0.020693617
vt 0.63655424 0.020693617
vt 0.6535375 0.020693617
vt 0.6535375 0.020693617
vn 0.42479914 0.61222345 0.66687936
vn 0.42479917 0.6122235 0.66687936
vn 0.42479917 0.61222345 0.6668795
vn 0.34032884 0.6107081 -0.71499085
vn 0.34032884 0.6107081 -0.71499085
vn 0.34032884 0.6107081 -0.71499085
vn -0.17079975 0.9852158 0.0133109735
vn -0.17079976 0.9852158 0.0133109735
vn -0.17079976 0.9852158 0.013310975
vn -0.17079973 0.9852158 0.013310973
vn 0.061465524 0.13410138 0.98905957
vn 0.06146553 0.13410138 0.98905957
vn 0.061465524 0.13410135 0.98905957
vn 0.061465524 0.13410135 0.98905957
vn 0.99748373 0.00016554809 -0.070895314
vn 0.99748373 0.00016554809 -0.07089531
vn 0.99748373 0.0001655481 -0.07089531
vn 0.99748373 0.00016554809 -0.070895314
vn -0.046190828 0.6840951 0.7279288
vn -0.046190828 0.6840951 0.72792876
vn -0.046190824 0.6840951 0.72792876
vn -0.04619082 0.6840951 0.7279288
vn 0.58406377 0.8104453 -0.0452541
vn 0.5840637 0.8104453 -0.045254096
vn 0.5840637 0.8104453 -0.045254096
vn 0.5840637 0.81044537 -0.045254104
vn 0.56327975 0.10172307 0.81998074
vn 0.56327975 0.10172307 0.81998074
vn 0.56327975 0.10172307 0.81998074
vn 0.5632797 0.10172306 0.81998074
vn 0.45377454 0.11230607 -0.8840112
vn 0.45377454 0.11230606 -0.8840112
vn 0.45377454 0.112306066 -0.8840113
vn 0.4537746 0.11230606 -0.8840112
vn -0.06149528 0.13056721 -0.98953044
vn -0.06149529 0.13056721 -0.98953044
vn -0.061495274 0.1305672 -0.98953044
vn -0.061495278 0.13056721 -0.98953044
vn -0.12857556 0.6839062 -0.7181509
vn -0.12857556 0.68390626 -0.71815085
vn -0.12857556 0.6839062 -0.7181509
vn -0.12857556 0.6839062 -0.7181509
vn -0.9808189 0.18215147 0.06939035
vn -0.9808189 0.18215145 0.06939035
vn -0.9808189 0.18215144 0.06939034
vn -0.9808189 0.18215145 0.06939036
vn -0.72297263 0.6886503 0.055418827
vn -0.72297263 0.6886503 0.05541883
vn -0.7229727 0.6886503 0.05541883
vn -0.72297275 0.68865025 0.05541883
vn 7.444276E-07 0.14144082 0.9899468
vn 7.4442755E-07 0.14144082 0.9899468
vn 7.4442767E-07 0.14144084 0.9899468
vn 7.444276E-07 0.14144084 0.9899468
vn 7.444276E-07 0.14144082 0.9899468
vn -4.872141E-07 -0.695148 -0.71886665
vn -4.8721415E-07 -0.695148 -0.7188667
vn -4.872141E-07 -0.695148 -0.7188667
vn -4.872141E-07 -0.695148 -0.71886665
vn -1.6639551E-07 -0.69514674 -0.7188679
vn -1.6639552E-07 -0.6951467 -0.71886796
vn 5.2268126E-07 0.1404236 -0.99009156
vn 5.2268126E-07 0.14042361 -0.99009156
vn 5.2268126E-07 0.14042361 -0.99009156
vn 5.2268126E-07 0.1404236 -0.99009156
vn -1.6413817E-07 -0.69475573 0.71924585
vn -1.6413817E-07 -0.6947558 0.7192458
vn -1.6413814E-07 -0.69475573 0.71924585
vn -1.6413817E-07 -0.6947558 0.7192458
vn 1.3586258E-07 -0.694756 0.7192455
vn 1.3586258E-07 -0.694756 0.71924543
vn -0.97395813 0.22672777 0
vn -0.97395813 0.22672775 0
vn -0.97395813 0.22672778 0
vn -0.97395813 0.22672775 0
vn -0.99975234 0.022253115 0
vn -0.99975234 0.022253115 0
vn -0.99975234 0.022253115 0
vn -0.99975234 0.022253117 0
vn 3.6681644E-07 1 -2.2502451E-07
vn 3.668165E-07 1 -2.2502454E-07
vn 3.6681647E-07 1 -2.2502454E-07
vn 3.668165E-07 1 -2.2502454E-07
vn 1.5540047E-07 0.14143872 0.989947
vn 1.5540047E-07 0.14143874 0.989947
vn 1.5540046E-07 0.14143874 0.989947
vn 1.5540047E-07 0.14143874 0.989947
vn -9.139017E-07 0.14042433 -0.99009144
vn -9.139017E-07 0.14042431 -0.99009144
vn -9.139017E-07 0.14042431 -0.99009144
vn -9.139017E-07 0.14042431 -0.99009144
vn -9.139017E-07 0.14042433 -0.99009144
vn -0.76083416 0.64894646 -1.8073375E-07
vn -0.7608341 0.64894646 -1.8073376E-07
vn -0.76083416 0.64894646 -1.8073375E-07
vn -0.7608341 0.64894646 -1.8073376E-07
vn -0.08629379 0.9962697 0
vn -0.08629377 0.9962697 0
vn -0.08629378 0.9962697 0
vn -0.08629378 0.9962697 0
g futurecastle_obj_wall_end_R_0
f 3/3/3 2/2/2 1/1/1
f 6/6/6 5/5/5 4/4/4
f 9/9/9 8/8/8 7/7/7
f 10/10/10 9/9/9 7/7/7
f 13/13/13 12/12/12 11/11/11
f 14/14/14 13/13/13 11/11/11
f 17/17/17 16/16/16 15/15/15
f 18/18/18 17/17/17 15/15/15
f 21/21/21 20/20/20 19/19/19
f 22/22/22 21/21/21 19/19/19
f 25/25/25 24/24/24 23/23/23
f 26/26/26 25/25/25 23/23/23
f 29/29/29 28/28/28 27/27/27
f 30/30/30 29/29/29 27/27/27
f 33/33/33 32/32/32 31/31/31
f 34/34/34 33/33/33 31/31/31
f 37/37/37 36/36/36 35/35/35
f 38/38/38 37/37/37 35/35/35
f 41/41/41 40/40/40 39/39/39
f 42/42/42 41/41/41 39/39/39
f 45/45/45 44/44/44 43/43/43
f 46/46/46 45/45/45 43/43/43
f 49/49/49 48/48/48 47/47/47
f 50/50/50 49/49/49 47/47/47
f 53/53/53 52/52/52 51/51/51
f 51/51/51 54/54/54 53/53/53
f 51/51/51 55/55/55 54/54/54
f 58/58/58 57/57/57 56/56/56
f 59/59/59 58/58/58 56/56/56
f 60/60/60 58/58/58 59/59/59
f 61/61/61 60/60/60 59/59/59
f 64/64/64 63/63/63 62/62/62
f 65/65/65 64/64/64 62/62/62
f 68/68/68 67/67/67 66/66/66
f 67/67/67 69/69/69 66/66/66
f 67/67/67 70/70/70 69/69/69
f 70/70/70 71/71/71 69/69/69
f 74/74/74 73/73/73 72/72/72
f 75/75/75 74/74/74 72/72/72
f 78/78/78 77/77/77 76/76/76
f 79/79/79 78/78/78 76/76/76
f 82/82/82 81/81/81 80/80/80
f 83/83/83 82/82/82 80/80/80
f 86/86/86 85/85/85 84/84/84
f 87/87/87 86/86/86 84/84/84
f 90/90/90 89/89/89 88/88/88
f 88/88/88 91/91/91 90/90/90
f 91/91/91 92/92/92 90/90/90
f 95/95/95 94/94/94 93/93/93
f 96/96/96 95/95/95 93/93/93
f 99/99/99 98/98/98 97/97/97
f 100/100/100 99/99/99 97/97/97
