g futurecastle_obj_wall1_end2
v -0.410561 0.78292733 0.044705976
v -0.45074904 0.7829273 -0.23678194
v -0.32810396 0.66860336 0.14692767
v -0.41983292 0.78292733 0.23678201
v -0.32810396 0.6629292 0.23678201
v -0.32810396 0.36360803 0.23678198
v -0.5035 0.363608 0.23678195
v -0.5035 0.78292733 0.23678195
v -0.40788025 1.0515183 0.31062603
v -0.36924845 0.79159975 0.31062603
v -0.5035 0.79159975 0.31062603
v -0.5035 1.0515183 0.31062606
v -0.36924845 0.79159975 0.31062603
v -0.3335581 0.74666107 0.28290185
v -0.5035 0.74666107 0.28290185
v -0.5035 0.79159975 0.31062603
v -0.44089386 1.0964568 0.28290188
v -0.40788025 1.0515183 0.31062603
v -0.5035 1.0515183 0.31062606
v -0.5035 1.0964569 0.28290188
v -0.32810396 0.66860336 0.14692767
v -0.32810396 0.6629292 0.23678201
v -0.41983292 0.78292733 0.23678201
v -0.410561 0.78292733 0.044705976
v -0.36924845 0.79159975 0.31062603
v -0.3560376 0.79159975 0.03695157
v -0.3236252 0.74666107 0.07713313
v -0.3335581 0.74666107 0.28290185
v -0.44089386 1.0964568 0.28290188
v -0.415863 1.0964568 -0.23563315
v -0.38345075 1.0515183 -0.19545183
v -0.40788025 1.0515183 0.31062603
v -0.40788025 1.0515183 0.31062603
v -0.38345075 1.0515183 -0.19545183
v -0.3560376 0.79159975 0.03695157
v -0.36924845 0.79159975 0.31062603
v -0.5035 0.363608 -0.23678195
v -0.41502705 0.36360794 -0.23678194
v -0.45074904 0.7829273 -0.23678194
v -0.5035 0.78292733 -0.23678195
v -0.32810396 0.66860336 0.14692767
v -0.32810396 0.363608 0.11040297
v -0.32810396 0.36360803 0.23678198
v -0.32810396 0.6629292 0.23678201
v -0.5035 0.78292733 0.23678195
v -0.5035 0.78292733 -0.23678195
v -0.45074904 0.7829273 -0.23678194
v -0.410561 0.78292733 0.044705976
v -0.41983292 0.78292733 0.23678201
v -0.5035 1.0964569 -0.28290161
v -0.44948852 1.096457 -0.28290164
v -0.415863 1.0964568 -0.23563315
v -0.5035 1.0964569 0.28290188
v -0.44089386 1.0964568 0.28290188
v -0.5035 0.79159975 -0.31062582
v -0.44323987 0.79159975 -0.31062582
v -0.46538243 1.0515183 -0.3106258
v -0.5035 1.0515183 -0.3106258
v -0.5035 0.74666107 -0.28290164
v -0.41968933 0.74666107 -0.28290164
v -0.44323987 0.79159975 -0.31062582
v -0.5035 0.79159975 -0.31062582
v -0.46538243 1.0515183 -0.3106258
v -0.44948852 1.096457 -0.28290164
v -0.5035 1.0964569 -0.28290161
v -0.5035 1.0515183 -0.3106258
v -0.3560376 0.79159975 0.03695157
v -0.44323987 0.79159975 -0.31062582
v -0.41968933 0.74666107 -0.28290164
v -0.3236252 0.74666107 0.07713313
v -0.32810396 0.66860336 0.14692767
v -0.45074904 0.7829273 -0.23678194
v -0.41502705 0.36360794 -0.23678194
v -0.32810396 0.363608 0.11040297
v -0.415863 1.0964568 -0.23563315
v -0.44948852 1.096457 -0.28290164
v -0.46538243 1.0515183 -0.3106258
v -0.38345075 1.0515183 -0.19545183
v -0.38345075 1.0515183 -0.19545183
v -0.46538243 1.0515183 -0.3106258
v -0.44323987 0.79159975 -0.31062582
v -0.3560376 0.79159975 0.03695157
vt 0.17813495 0.17674617
vt 0.1407512 0.17674617
vt 0.17813495 0.1693011
vt 0.107390344 0.21261364
vt 0.12693426 0.1908923
vt 0.12693426 0.13671121
vt 0.019657446 0.13671121
vt 0.019657446 0.21261364
vt 0.07716705 0.27507842
vt 0.03988564 0.23256226
vt 0.11523744 0.23256226
vt 0.11523744 0.27507856
vt 0.03988564 0.22879952
vt 0.033188716 0.21982375
vt 0.11523744 0.21982375
vt 0.11523744 0.22879952
vt 0.08336184 0.28730202
vt 0.07716705 0.2783262
vt 0.11523744 0.27832636
vt 0.11523744 0.28730202
vt 0.17813495 0.1693011
vt 0.18857503 0.1693011
vt 0.18857503 0.17674617
vt 0.17813495 0.17674617
vt 0.1407512 0.1890107
vt 0.1644351 0.1890107
vt 0.15990229 0.18329002
vt 0.1407512 0.18329002
vt 0.1407512 0.22362241
vt 0.18275413 0.22362241
vt 0.17819683 0.2181245
vt 0.1407512 0.2181245
vt 0.1407512 0.2181245
vt 0.17819683 0.2181245
vt 0.1644351 0.1890107
vt 0.1407512 0.1890107
vt 0.12693426 0.13671121
vt 0.0865254 0.13671121
vt 0.09481923 0.21261352
vt 0.12693426 0.21261364
vt 0.17813495 0.1693011
vt 0.17813495 0.13330752
vt 0.18857503 0.13330752
vt 0.18857503 0.1693011
vt 0.019657446 0.13671121
vt 0.019657446 0.21261364
vt 0.051772594 0.21261352
vt 0.10936584 0.167497
vt 0.107390344 0.13671121
vt 0.11523744 0.35216495
vt 0.09301232 0.35216495
vt 0.07866501 0.3469552
vt 0.11523744 0.28980485
vt 0.08336184 0.28980485
vt 0.11523744 0.23256226
vt 0.100190096 0.23256226
vt 0.101976894 0.27507856
vt 0.11523744 0.27507856
vt 0.11523744 0.21982375
vt 0.09478994 0.21982375
vt 0.100190096 0.22879952
vt 0.11523744 0.22879952
vt 0.101976894 0.27832636
vt 0.09301232 0.28730202
vt 0.11523744 0.28730202
vt 0.11523744 0.27832636
vt 0.1644351 0.1890107
vt 0.18857503 0.1890107
vt 0.18857503 0.18329002
vt 0.15990229 0.18329002
vt 0.17813495 0.1693011
vt 0.1407512 0.17674617
vt 0.1407512 0.13330752
vt 0.17813495 0.13330752
vt 0.18275413 0.22362241
vt 0.18857503 0.22362241
vt 0.18857503 0.2181245
vt 0.17819683 0.2181245
vt 0.17819683 0.2181245
vt 0.18857503 0.2181245
vt 0.18857503 0.1890107
vt 0.1644351 0.1890107
vn 0.85350287 0.50664014 -0.12185475
vn 0.85350287 0.50664014 -0.12185475
vn 0.85350287 0.50664014 -0.12185475
vn -2.7060034E-07 0 1
vn -2.7060034E-07 0 1
vn -2.7060037E-07 0 1
vn -2.7060034E-07 0 1
vn -2.7060034E-07 0 1
vn 1.6711093E-07 0 1
vn 1.6711091E-07 0 1
vn 1.6711091E-07 0 1
vn 1.6711091E-07 0 1
vn -0 -0.525053 0.85106957
vn -0 -0.525053 0.85106957
vn -0 -0.525053 0.85106945
vn -0 -0.525053 0.85106945
vn 5.6428894E-07 0.52505404 0.85106885
vn 5.642889E-07 0.525054 0.85106885
vn 5.6428894E-07 0.525054 0.85106885
vn 5.64289E-07 0.525054 0.851069
vn 0.79388404 0.6068604 0.03832249
vn 0.79388404 0.6068604 0.03832249
vn 0.79388404 0.6068604 0.03832249
vn 0.79388404 0.60686046 0.038322497
vn 0.79388386 0.6068606 0.038322464
vn 0.79388386 0.6068606 0.038322464
vn 0.79388386 0.6068606 0.038322464
vn 0.79388386 0.6068606 0.038322464
vn 0.7938838 0.6068607 0.03832253
vn 0.79388386 0.60686064 0.038322534
vn 0.79388386 0.60686064 0.038322534
vn 0.79388386 0.60686064 0.03832253
vn 0.9880086 0.14684811 0.047693327
vn 0.9880086 0.14684811 0.04769333
vn 0.9880086 0.14684811 0.047693323
vn 0.9880086 0.14684811 0.04769333
vn 2.720078E-07 0 -1
vn 2.720078E-07 0 -1
vn 2.7200784E-07 0 -1
vn 2.720078E-07 0 -1
vn 1 0 0
vn 1 0 0
vn 1 0 0
vn 1 0 0
vn 2.886114E-07 1 0
vn 2.886114E-07 1 0
vn 2.8861143E-07 1 0
vn 2.886114E-07 1 0
vn 2.886114E-07 1 0
vn 9.417767E-07 1 1.513636E-07
vn 9.4177676E-07 1 1.513636E-07
vn 9.4177665E-07 1 1.513636E-07
vn 9.417767E-07 1 1.513636E-07
vn 9.417767E-07 1 1.513636E-07
vn -0 1.4779249E-07 -1
vn -0 1.4779249E-07 -1
vn -0 1.4779249E-07 -1
vn -0 1.4779249E-07 -1
vn -0 -0.525053 -0.85106945
vn -0 -0.525053 -0.85106957
vn -0 -0.525053 -0.85106945
vn -0 -0.525053 -0.85106945
vn -6.1626736E-07 0.52505326 -0.8510694
vn -6.162674E-07 0.52505326 -0.8510694
vn -6.1626736E-07 0.52505326 -0.8510694
vn -6.1626736E-07 0.52505326 -0.8510694
vn 0.8946458 0.38199592 -0.23170674
vn 0.8946458 0.38199595 -0.23170677
vn 0.8946458 0.38199592 -0.23170674
vn 0.8946458 0.38199592 -0.23170674
vn 0.9619658 0.060871206 -0.2663016
vn 0.9619658 0.06087121 -0.2663016
vn 0.9619658 0.060871206 -0.2663016
vn 0.9619658 0.0608712 -0.26630157
vn 0.8128983 0.06925102 -0.5782739
vn 0.8128983 0.06925102 -0.5782739
vn 0.8128983 0.06925102 -0.5782739
vn 0.8128983 0.069251016 -0.5782739
vn 0.93731713 -0.06380602 -0.34258607
vn 0.93731713 -0.06380602 -0.34258607
vn 0.93731725 -0.06380603 -0.34258607
vn 0.93731725 -0.06380601 -0.342586
g futurecastle_obj_wall1_end2_0
f 3/3/3 2/2/2 1/1/1
f 6/6/6 5/5/5 4/4/4
f 4/4/4 7/7/7 6/6/6
f 4/4/4 8/8/8 7/7/7
f 11/11/11 10/10/10 9/9/9
f 12/12/12 11/11/11 9/9/9
f 15/15/15 14/14/14 13/13/13
f 16/16/16 15/15/15 13/13/13
f 19/19/19 18/18/18 17/17/17
f 20/20/20 19/19/19 17/17/17
f 23/23/23 22/22/22 21/21/21
f 24/24/24 23/23/23 21/21/21
f 27/27/27 26/26/26 25/25/25
f 28/28/28 27/27/27 25/25/25
f 31/31/31 30/30/30 29/29/29
f 32/32/32 31/31/31 29/29/29
f 35/35/35 34/34/34 33/33/33
f 36/36/36 35/35/35 33/33/33
f 39/39/39 38/38/38 37/37/37
f 40/40/40 39/39/39 37/37/37
f 43/43/43 42/42/42 41/41/41
f 44/44/44 43/43/43 41/41/41
f 47/47/47 46/46/46 45/45/45
f 45/45/45 48/48/48 47/47/47
f 45/45/45 49/49/49 48/48/48
f 52/52/52 51/51/51 50/50/50
f 50/50/50 53/53/53 52/52/52
f 53/53/53 54/54/54 52/52/52
f 57/57/57 56/56/56 55/55/55
f 58/58/58 57/57/57 55/55/55
f 61/61/61 60/60/60 59/59/59
f 62/62/62 61/61/61 59/59/59
f 65/65/65 64/64/64 63/63/63
f 66/66/66 65/65/65 63/63/63
f 69/69/69 68/68/68 67/67/67
f 70/70/70 69/69/69 67/67/67
f 73/73/73 72/72/72 71/71/71
f 74/74/74 73/73/73 71/71/71
f 77/77/77 76/76/76 75/75/75
f 78/78/78 77/77/77 75/75/75
f 81/81/81 80/80/80 79/79/79
f 82/82/82 81/81/81 79/79/79
