g futurecastle_crash_pool
v 0.12864204 0.094283246 -0.11870526
v -0.15705195 0.09428278 -0.093710184
v -0.024844946 0.12621243 -0.20880668
v -0.1914434 0.041572783 0.07179853
v -0.15705195 0.09428278 -0.093710184
v 0.12864204 0.094283246 -0.11870526
v 0.1914434 0.041573092 0.03830045
v -0.1914434 0.041572783 0.07179853
v 0.1914434 0.041573092 0.03830045
v 0.13257624 -0.048728622 0.15946451
v -0.112653054 -0.04872885 0.18091919
v 0.013249757 -0.12621254 0.20880653
vt 0.69269973 0.9698952
vt 0.7108318 0.9698952
vt 0.70142657 0.96989673
vt 0.71007353 0.9950284
vt 0.7108318 0.9698952
vt 0.69269973 0.9698952
vt 0.69437057 0.9950284
vt 0.71007353 0.9950284
vt 0.69437057 0.9950284
vt 0.6975681 0.9810706
vt 0.7066342 0.9810706
vt 0.7015752 0.9701862
vn 0.026672937 0.95201504 0.30488697
vn 0.026668817 0.9520301 0.3048399
vn 0.025773814 0.95526916 0.29461262
vn 0.040038493 0.8882285 0.4576541
vn 0.026668817 0.9520301 0.3048399
vn 0.026672937 0.95201504 0.30488697
vn 0.040036507 0.8882401 0.45763144
vn 0.040038493 0.8882285 0.4576541
vn 0.040036507 0.8882401 0.45763144
vn 0.06038876 0.7210398 0.6902571
vn 0.060397465 0.72094375 0.6903566
vn 0.07794869 0.44732818 0.8909666
g futurecastle_crash_pool_0
f 3/3/3 2/2/2 1/1/1
f 6/6/6 5/5/5 4/4/4
f 4/4/4 7/7/7 6/6/6
f 10/10/10 9/9/9 8/8/8
f 8/8/8 11/11/11 10/10/10
f 12/12/12 10/10/10 11/11/11
