g future_light2
v -0.50310045 0.009795708 -1.8763179
v 1.8028226 0.009293867 -1.876216
v 1.4761226 0.025370758 -1.3237097
v -0.50322694 0.025841406 -1.3238055
v -2.484797 0.025370603 -1.3237096
v -2.8117776 0.009293867 -1.876216
v -2.1487947 0.07395457 -0.7190711
v -0.50336426 0.074394025 -0.7191605
v 1.1403427 0.073954724 -0.71907127
v -1.8853681 0.2776239 -0.34086967
v -0.50346696 0.2780224 -0.34095263
v 0.8770881 0.27762428 -0.3408698
v -1.6399151 0.5628464 -0.11413838
v -0.5035477 0.5632118 -0.11421535
v 0.6317961 0.56284684 -0.11413886
v -1.6337992 2.12557 0.25063184
v -0.5035471 2.1258092 0.25058696
v 0.6260195 2.1255708 0.25063172
v -0.5035465 3.3011339 0.5150261
v -1.6215669 3.3011303 0.5150258
v 0.614467 3.3011315 0.51502585
v 0.54162765 3.5396779 0.5644194
v 0.26868507 4.073333 0.6755254
v -0.1838857 4.4380546 0.7518559
v -0.50355357 4.613425 0.78864604
v -1.5487262 3.539679 0.56441945
v -0.82322365 4.438054 0.7518558
v -1.2757847 4.073333 0.6755259
vt 0.5897801 0.018333336
vt 0.93491614 0.018333336
vt 0.93581355 0.07579299
vt 0.5897801 0.07579299
vt 0.24374749 0.07579299
vt 0.24464491 0.018333336
vt 0.24285007 0.1447347
vt 0.5897801 0.1447347
vt 0.93671095 0.1447347
vt 0.24195264 0.2067871
vt 0.5897801 0.2067871
vt 0.93760836 0.2067871
vt 0.24105522 0.25965402
vt 0.5897801 0.25965402
vt 0.93850565 0.25965402
vt 0.23984304 0.44018108
vt 0.5897801 0.44018108
vt 0.93971765 0.44018108
vt 0.5897801 0.72091883
vt 0.23979752 0.7209182
vt 0.93976307 0.7209183
vt 0.9198872 0.7692467
vt 0.8400614 0.87803406
vt 0.69282603 0.9528195
vt 0.5897801 0.96726424
vt 0.25967383 0.769247
vt 0.48673114 0.9528194
vt 0.33949915 0.87803406
vn 1.4709792E-07 0.9995797 -0.02898998
vn 0.00022817883 0.9995797 -0.02899002
vn 0.00023707104 0.9989347 -0.046145126
vn 1.04564464E-07 0.99851316 -0.054511026
vn -0.00023685549 0.9989349 -0.046140056
vn -0.00022795111 0.9995797 -0.02898994
vn -0.0002646584 0.97686315 -0.2138652
vn -0 0.9591047 -0.2830514
vn 0.0002648059 0.9768548 -0.21390313
vn -0.0002652337 0.81340486 -0.5816979
vn -0 0.767113 -0.6415121
vn 0.00026521343 0.8133817 -0.5817303
vn -0.00019031207 0.46755853 -0.88396204
vn -1.3765123E-07 0.43542257 -0.90022624
vn 0.00019007143 0.46753177 -0.8839763
vn -7.817936E-05 0.22341692 -0.9747229
vn -1.1388835E-07 0.22339848 -0.9747273
vn 7.794263E-05 0.22341599 -0.97472316
vn -0 0.21163303 -0.9773492
vn -2.3948076E-05 0.2119981 -0.9772701
vn 2.3795972E-05 0.21199714 -0.9772702
vn -0.00022203896 0.20330021 -0.9791165
vn -0.0004937185 0.20396093 -0.97897893
vn -0.0004937185 0.20396091 -0.97897893
vn -0 0.2039611 -0.97897905
vn 0.00022189063 0.20329964 -0.9791166
vn 0.0004935382 0.20396118 -0.9789788
vn 0.0004935382 0.20396118 -0.9789788
g future_light2_0
f 3/3/3 2/2/2 1/1/1
f 4/4/4 3/3/3 1/1/1
f 5/5/5 4/4/4 1/1/1
f 6/6/6 5/5/5 1/1/1
f 5/5/5 7/7/7 4/4/4
f 3/3/3 4/4/4 8/8/8
f 7/7/7 8/8/8 4/4/4
f 9/9/9 3/3/3 8/8/8
f 7/7/7 10/10/10 8/8/8
f 9/9/9 8/8/8 11/11/11
f 10/10/10 11/11/11 8/8/8
f 12/12/12 9/9/9 11/11/11
f 10/10/10 13/13/13 11/11/11
f 12/12/12 11/11/11 14/14/14
f 13/13/13 14/14/14 11/11/11
f 15/15/15 12/12/12 14/14/14
f 13/13/13 16/16/16 14/14/14
f 15/15/15 14/14/14 17/17/17
f 16/16/16 17/17/17 14/14/14
f 18/18/18 15/15/15 17/17/17
f 17/17/17 16/16/16 19/19/19
f 18/18/18 17/17/17 19/19/19
f 16/16/16 20/20/20 19/19/19
f 21/21/21 18/18/18 19/19/19
f 22/22/22 21/21/21 19/19/19
f 23/23/23 22/22/22 19/19/19
f 19/19/19 24/24/24 23/23/23
f 19/19/19 25/25/25 24/24/24
f 26/26/26 19/19/19 20/20/20
f 25/25/25 19/19/19 26/26/26
f 26/26/26 27/27/27 25/25/25
f 26/26/26 28/28/28 27/27/27
