g fx_android_magnetic_02
v 0.021076059 -1.2458739E-05 -0.2166439
v 0.026403276 1.2458739E-05 -0.22180764
v 0.039010625 1.2458739E-05 -0.20315968
v 0.032156665 -1.2458739E-05 -0.20025414
v 0.039010637 1.2458739E-05 -0.12696454
v 0.032156654 -1.2458739E-05 -0.1302324
v 0.0012919899 1.2458739E-05 -0.07924393
v -0.0055619916 -1.2458739E-05 -0.082511775
v 0.0012919846 1.2458739E-05 0.027945843
v -0.005561981 -1.2458739E-05 0.030335736
v 0.011255396 1.2458739E-05 0.04669321
v 0.004401429 -1.2458739E-05 0.049083102
v 0.011255403 1.2458739E-05 0.10143071
v 0.0044014114 -1.2458739E-05 0.098108634
v -0.03215662 1.2458739E-05 0.15511638
v -0.039010614 -1.2458739E-05 0.1517943
v -0.03215663 1.2458739E-05 0.19749273
v -0.03901059 -1.2458739E-05 0.19997764
v -0.021153588 1.2458739E-05 0.2172552
v -0.026856402 -1.2458739E-05 0.22180764
vt 0.12982798 0.016066432
vt 0.129828 0.99238276
vt 0.21292002 0.99238276
vt 0.21291998 0.016066432
vt 0.29601204 0.99238276
vt 0.29601198 0.016066432
vt 0.37910405 0.99238276
vt 0.379104 0.016066432
vt 0.46219608 0.99238276
vt 0.462196 0.016066387
vt 0.54528797 0.99238276
vt 0.54528797 0.016066387
vt 0.62838006 0.9923825
vt 0.62838006 0.016066387
vt 0.71147203 0.9923825
vt 0.7114719 0.016066387
vt 0.794564 0.9923825
vt 0.7945639 0.016066343
vt 0.877656 0.9923825
vt 0.877656 0.016066343
vn -0.002825644 0.99999416 0.0019103333
vn -0.002825644 0.99999416 0.001910333
vn -0.0031975782 0.9999944 0.0010329505
vn -0.003253031 0.9999943 0.000902137
vn -0.003093483 0.99999464 -0.001136735
vn -0.0031667831 0.9999945 -0.0009829954
vn -0.003166783 0.9999945 -0.0009829953
vn -0.0030934827 0.99999464 -0.001136735
vn -0.0033655625 0.99999404 0.0007740357
vn -0.0033317255 0.99999416 0.00087108026
vn -0.0033317236 0.99999416 0.0008710799
vn -0.0033655614 0.99999404 0.0007740354
vn -0.003077324 0.99999464 -0.0011515118
vn -0.003153445 0.9999945 -0.0009944619
vn -0.0031534454 0.9999945 -0.0009944616
vn -0.0030773245 0.99999464 -0.0011515116
vn -0.0033458606 0.99999416 0.00079878833
vn -0.0033084205 0.99999416 0.0009020582
vn -0.0030248791 0.99999404 0.0016841462
vn -0.0030248791 0.99999404 0.0016841461
g fx_android_magnetic_02_0
f 3/3/3 2/2/2 1/1/1
f 4/4/4 3/3/3 1/1/1
f 5/5/5 3/3/3 4/4/4
f 6/6/6 5/5/5 4/4/4
f 7/7/7 5/5/5 6/6/6
f 8/8/8 7/7/7 6/6/6
f 9/9/9 7/7/7 8/8/8
f 10/10/10 9/9/9 8/8/8
f 11/11/11 9/9/9 10/10/10
f 12/12/12 11/11/11 10/10/10
f 13/13/13 11/11/11 12/12/12
f 14/14/14 13/13/13 12/12/12
f 15/15/15 13/13/13 14/14/14
f 16/16/16 15/15/15 14/14/14
f 17/17/17 15/15/15 16/16/16
f 18/18/18 17/17/17 16/16/16
f 19/19/19 17/17/17 18/18/18
f 20/20/20 19/19/19 18/18/18
