g fx_android_magnetic_03
v -0.026062608 -1.847783E-05 -0.12004499
v -0.015787609 1.847783E-05 -0.12004499
v -0.015787605 1.847783E-05 -0.06744774
v -0.026062615 -1.847783E-05 -0.06334521
v 0.0260626 1.847783E-05 -0.023394886
v 0.015787588 -1.847783E-05 -0.019292358
v 0.026062587 1.847783E-05 0.05428119
v 0.015787609 -1.847783E-05 0.050025094
v 0.008441513 1.8475006E-05 0.0719044
v -0.0018335258 -1.847219E-05 0.06764623
v 0.0084422445 1.8475006E-05 0.120045
v -0.0018335396 -1.847219E-05 0.120043084
vt 0.88936305 0.9887093
vt 0.8893629 0.021901488
vt 0.79175544 0.021901548
vt 0.7917563 0.98870933
vt 0.69414794 0.021901548
vt 0.6941496 0.98870933
vt 0.5965405 0.021901608
vt 0.59654295 0.9887094
vt 0.49893305 0.021901667
vt 0.49893627 0.98870945
vt 0.40132558 0.021901727
vt 0.40132958 0.98870945
vn -0.0035966327 0.99999356 0
vn -0.0035966327 0.99999356 0
vn -0.0031020981 0.9999944 0.0012385932
vn -0.0031021 0.9999944 0.0012385896
vn -0.0031021014 0.9999944 0.0012385895
vn -0.0031020998 0.9999944 0.0012385937
vn -0.0030696767 0.9999945 -0.0012713738
vn -0.003069694 0.9999945 -0.0012713326
vn -0.0030692676 0.9999945 -0.0012711855
vn -0.0030691323 0.9999945 -0.0012715118
vn -0.0035956723 0.99999356 0
vn -0.0035956725 0.99999356 0
g fx_android_magnetic_03_0
f 3/3/3 2/2/2 1/1/1
f 4/4/4 3/3/3 1/1/1
f 5/5/5 3/3/3 4/4/4
f 6/6/6 5/5/5 4/4/4
f 7/7/7 5/5/5 6/6/6
f 8/8/8 7/7/7 6/6/6
f 9/9/9 7/7/7 8/8/8
f 10/10/10 9/9/9 8/8/8
f 11/11/11 9/9/9 10/10/10
f 12/12/12 11/11/11 10/10/10
