g fx_archaic_tunnel_aura
v -0.68893445 6.5567086E-08 0.18750003
v -0.36289927 6.556708E-08 0
v -0.69236445 6.5567086E-08 9.0238926E-17
v -0.36114222 6.556707E-08 0.18750003
v -0.7316111 6.556709E-08 0.3750001
v 1.13246855E-07 6.5567086E-08 -4.8446655E-08
v -0.38347012 6.5567086E-08 0.37500003
v -0.8413625 6.55671E-08 0.5625001
v 1.616935E-07 6.556708E-08 0.18750003
v -0.4409957 6.556709E-08 0.56250006
v -1.0119013 6.5567136E-08 0.75000024
v 0.3611425 6.556707E-08 0.18749999
v 0.36289954 6.556708E-08 0
v 1.13246855E-07 6.5567086E-08 0.37500003
v -0.5303829 6.556713E-08 0.75000024
v -1.2182573 6.5567136E-08 0.9375004
v 0.6889347 6.556707E-08 0.18750003
v 0.69236463 6.556707E-08 -9.0238926E-17
v 0.73161113 6.556708E-08 0.3750001
v 0.38347036 6.556708E-08 0.37499997
v 0.84136266 6.556709E-08 0.56250006
v 0.44099614 6.556709E-08 0.56250006
v 1.0119015 6.556712E-08 0.7500002
v 2.1014016E-07 6.556709E-08 0.56250006
v 0.5303833 6.556712E-08 0.75000024
v 1.2182574 6.556712E-08 0.9375003
v 2.1014016E-07 6.556713E-08 0.75000024
v 0.63854355 6.5567136E-08 0.9375003
v 1.5113795 6.556712E-08 1.1250004
v -0.63854325 6.556715E-08 0.9375003
v -1.5113791 6.556714E-08 1.1250004
v 0.792182 6.556713E-08 1.1250004
v 2.0281327 6.5567214E-08 1.3135102
v 2.1014016E-07 6.5567136E-08 0.93750054
v -0.79218173 6.556714E-08 1.1250005
v -2.0281317 6.556724E-08 1.3135103
v 1.0633749 6.556722E-08 1.3135056
v 2.7734888 6.556712E-08 1.5000002
v 1.4537104 6.556712E-08 1.5000002
v 2.1014016E-07 6.5567136E-08 1.1250005
v -1.0633742 6.5567235E-08 1.3135059
v -2.773488 6.556716E-08 1.5000004
v -1.4537098 6.5567136E-08 1.5000006
v 4.5237343E-07 6.556723E-08 1.3135039
v 2.5858682E-07 6.5567136E-08 1.5000002
v -0.29212502 1.6999997 -1.4533997E-07
v -0.54160213 1.69729 0.18749999
v -0.54426634 1.6999995 0
v -0.29071492 1.6972905 0.18749999
v -0.5751181 1.7339759 0.37500015
v 1.6353557E-08 1.6972904 0.18749999
v 1.1324687E-07 1.6999999 -4.8446655E-08
v 0.2921252 1.6999993 -1.4533997E-07
v -0.308684 1.7339764 0.37500006
v -0.6613933 1.79331 0.56250006
v 1.1324687E-07 1.7339764 0.37500006
v 0.2907152 1.6972904 0.18749999
v -0.35499057 1.7933105 0.56249994
v -0.7954536 1.888591 0.75000024
v 0.54160255 1.69729 0.18750003
v 0.54426664 1.6999995 -1.8047785E-16
v 0.5751183 1.7339759 0.37500018
v 0.3086843 1.7339761 0.37500003
v 0.6613939 1.7933097 0.56249994
v 2.5858685E-07 1.7933105 0.56249994
v 0.3549911 1.79331 0.56249994
v 0.7954541 1.8885915 0.7500002
v -0.42694512 1.8885913 0.75000024
v -0.95766956 2.0181532 0.93750054
v 2.5858685E-07 1.8885915 0.75000024
v 0.4269456 1.888591 0.7500002
v 0.9576701 2.0181527 0.9375003
v -0.5140116 2.0181534 0.93750054
v -1.1880924 2.158277 1.1250007
v 2.5858685E-07 2.0181534 0.9375004
v 0.51401186 2.0181527 0.93750024
v 1.1880928 2.1582768 1.1250006
v -0.6376868 2.1582768 1.1250008
v -1.5946757 2.315038 1.3135407
v 1.6353562E-08 2.158277 1.1250006
v 0.63768697 2.1582768 1.1250005
v 1.5946773 2.3150382 1.3135407
v -0.8560802 2.3150368 1.3135396
v -2.1802335 2.592314 1.5000014
v -1.1702006 2.5923147 1.5000014
v 2.5858685E-07 2.5923147 1.5000013
v 5.008201E-07 2.315036 1.313539
v 0.8560815 2.3150363 1.3135394
v 2.180235 2.592314 1.5000015
v 1.170201 2.5923145 1.5000012
v -2.0281317 6.556724E-08 1.3135103
v -2.683407 0.66975945 1.5000004
v -2.773488 6.556716E-08 1.5000004
v -1.9623926 0.61615795 1.3135135
v -2.3874016 2.025648 1.5000011
v -1.5113791 6.556714E-08 1.1250004
v -1.7461079 1.7483723 1.3135401
v -2.1802335 2.592314 1.5000014
v -1.5946757 2.315038 1.3135407
v -1.4622906 0.57390714 1.125
v -1.2182573 6.5567136E-08 0.9375004
v -1.3009862 1.591611 1.1250007
v -1.1880924 2.158277 1.1250007
v -1.1786894 0.5647936 0.93749994
v -1.0119013 6.5567136E-08 0.75000024
v -1.0486684 1.4514871 0.9375009
v -0.95766956 2.0181532 0.93750054
v -0.9790355 0.56666666 0.75
v -0.8413625 6.55671E-08 0.5625001
v -0.8710384 1.3219252 0.75000066
v -0.7954536 1.888591 0.75000024
v -0.81403565 0.56666666 0.5625001
v -0.7316111 6.556709E-08 0.3750001
v -0.72423947 1.226644 0.5625004
v -0.6613933 1.79331 0.56250006
v -0.7078489 0.5666667 0.37500015
v -0.68893445 6.5567086E-08 0.18750003
v -0.62976635 1.16731 0.3750001
v -0.5751181 1.7339759 0.37500015
v -0.6665725 0.56666666 0.18750003
v -0.69236445 6.5567086E-08 9.0238926E-17
v -0.66987705 0.5666667 9.0238926E-17
v -0.5930544 1.1306237 0.18749999
v -0.54160213 1.69729 0.18749999
v -0.595983 1.1333333 0
v -0.54426634 1.6999995 0
v 2.6834078 0.66975945 1.5000001
v 2.0281327 6.5567214E-08 1.3135102
v 2.7734888 6.556712E-08 1.5000002
v 1.9623935 0.61615795 1.3135135
v 1.5113795 6.556712E-08 1.1250004
v 2.3874028 2.025648 1.500001
v 1.4622909 0.57390714 1.1249999
v 1.2182574 6.556712E-08 0.9375003
v 1.7461095 1.7483726 1.3135401
v 2.180235 2.592314 1.5000015
v 1.5946773 2.3150382 1.3135407
v 1.3009864 1.5916109 1.1250007
v 1.1880928 2.1582768 1.1250006
v 1.1786894 0.5647936 0.93749976
v 1.0119015 6.556712E-08 0.7500002
v 1.0486689 1.4514872 0.9375007
v 0.9576701 2.0181527 0.9375003
v 0.9790357 0.5666666 0.75
v 0.84136266 6.556709E-08 0.56250006
v 0.871039 1.321925 0.75000066
v 0.7954541 1.8885915 0.7500002
v 0.8140359 0.56666666 0.5625
v 0.73161113 6.556708E-08 0.3750001
v 0.7242401 1.226644 0.56250036
v 0.6613939 1.7933097 0.56249994
v 0.7078489 0.5666667 0.37500015
v 0.6889347 6.556707E-08 0.18750003
v 0.6297666 1.1673099 0.37500015
v 0.5751183 1.7339759 0.37500018
v 0.66657287 0.56666666 0.18750003
v 0.69236463 6.556707E-08 -9.0238926E-17
v 0.6698771 0.5666667 -9.0238926E-17
v 0.59305483 1.1306237 0.18749999
v 0.54160255 1.69729 0.18750003
v 0.5959834 1.1333333 -1.8047785E-16
v 0.54426664 1.6999995 -1.8047785E-16
vt 0.0005 0.12466904
vt 0.30765912 0.0005
vt 0.0005 0.0005
vt 0.30765912 0.12466904
vt 0.0005 0.2488381
vt 0.5 0.0005
vt 0.30765912 0.2488381
vt 0.0005 0.37300715
vt 0.5 0.12466904
vt 0.30765912 0.37300715
vt 0.0005 0.49717623
vt 0.69234097 0.12466904
vt 0.69234097 0.0005
vt 0.5 0.2488381
vt 0.30765912 0.49717623
vt 0.0005 0.62134534
vt 0.99950004 0.12466904
vt 0.99950004 0.0005
vt 0.99950004 0.2488381
vt 0.69234097 0.2488381
vt 0.99950004 0.37300715
vt 0.69234097 0.37300715
vt 0.99950004 0.49717623
vt 0.5 0.37300715
vt 0.69234097 0.49717623
vt 0.99950004 0.62134534
vt 0.5 0.49717623
vt 0.69234097 0.62134534
vt 0.99950004 0.7455144
vt 0.30765912 0.62134534
vt 0.0005 0.7455144
vt 0.69234097 0.7455144
vt 0.99950004 0.86968344
vt 0.5 0.62134534
vt 0.30765912 0.7455144
vt 0.0005 0.86968344
vt 0.69234097 0.86968344
vt 0.99950004 0.99385256
vt 0.69234097 0.99385256
vt 0.5 0.7455144
vt 0.30765912 0.86968344
vt 0.0005 0.99385256
vt 0.30765912 0.99385256
vt 0.5 0.86968344
vt 0.5 0.99385256
vt 0.31794196 0.0005
vt 0.0005 0.12533493
vt 0.0005 0.0005
vt 0.31794196 0.12533493
vt 0.0005 0.2501697
vt 0.49999964 0.12533493
vt 0.49999964 0.0005
vt 0.6820581 0.0005
vt 0.31794196 0.2501697
vt 0.0005 0.3750044
vt 0.49999964 0.2501697
vt 0.6820581 0.12533493
vt 0.31794196 0.3750044
vt 0.0005 0.4998394
vt 0.99950004 0.12533493
vt 0.99950004 0.0005
vt 0.99950004 0.2501697
vt 0.6820581 0.2501697
vt 0.99950004 0.3750044
vt 0.49999964 0.3750044
vt 0.6820581 0.3750044
vt 0.99950004 0.4998394
vt 0.31794196 0.4998394
vt 0.0005 0.6246744
vt 0.49999964 0.4998394
vt 0.6820581 0.4998394
vt 0.99950004 0.6246744
vt 0.31794196 0.6246744
vt 0.0005 0.74950933
vt 0.49999964 0.6246744
vt 0.6820581 0.6246744
vt 0.99950004 0.74950933
vt 0.31794196 0.74950933
vt 0.0005 0.8743445
vt 0.49999964 0.74950933
vt 0.6820581 0.74950933
vt 0.99950004 0.8743445
vt 0.31794196 0.8743445
vt 0.0005 0.9991793
vt 0.31794196 0.9991793
vt 0.49999964 0.9991793
vt 0.49999964 0.8743445
vt 0.6820581 0.8743445
vt 0.99950004 0.9991793
vt 0.6820581 0.9991793
vt 0.9994999 0.8710934
vt 0.66650003 0.99596846
vt 0.9995001 0.99596846
vt 0.6664999 0.8710934
vt 0.33349997 0.99596846
vt 0.9994999 0.7462183
vt 0.33349997 0.8710934
vt 0.00049999356 0.99596846
vt 0.00049999356 0.8710934
vt 0.6664999 0.7462183
vt 0.9994999 0.6213435
vt 0.33349997 0.74621856
vt 0.00049999356 0.74621856
vt 0.6664999 0.6213435
vt 0.9994999 0.49646842
vt 0.33349997 0.6213435
vt 0.00049999356 0.6213435
vt 0.6664999 0.49646842
vt 0.9994999 0.37159348
vt 0.33349997 0.49646866
vt 0.00049999356 0.49646866
vt 0.6664999 0.37159348
vt 0.9994999 0.24671853
vt 0.3334999 0.3715936
vt 0.00049996376 0.3715936
vt 0.6664999 0.24671853
vt 0.9994999 0.12184358
vt 0.3334999 0.24671853
vt 0.00049996376 0.24671865
vt 0.6664999 0.12184358
vt 0.9994999 -0.0030314922
vt 0.6664999 -0.0030314922
vt 0.3334999 0.12184358
vt 0.00049996376 0.121843696
vt 0.3334999 -0.0030314922
vt 0.00049996376 -0.003031373
vt 0.33350015 0.99596846
vt 0.0005001128 0.87109363
vt 0.0005001128 0.99596846
vt 0.33350015 0.87109363
vt 0.00049999356 0.74621856
vt 0.6665002 0.99596846
vt 0.33350003 0.74621856
vt 0.00049999356 0.62134373
vt 0.6665002 0.87109363
vt 0.99950004 0.99596846
vt 0.99950004 0.87109363
vt 0.6665001 0.74621856
vt 0.99950004 0.74621856
vt 0.33350003 0.62134373
vt 0.00049999356 0.49646866
vt 0.6665001 0.62134373
vt 0.99950004 0.6213435
vt 0.33350003 0.49646866
vt 0.00049999356 0.3715936
vt 0.6665001 0.49646866
vt 0.99950004 0.49646866
vt 0.33350003 0.3715936
vt 0.00049999356 0.24671876
vt 0.6665001 0.3715936
vt 0.99950004 0.3715936
vt 0.33350003 0.24671853
vt 0.00049999356 0.121843815
vt 0.6665001 0.24671853
vt 0.99950004 0.24671853
vt 0.33350003 0.12184358
vt 0.00049999356 -0.0030312538
vt 0.33350003 -0.0030314922
vt 0.6665001 0.12184358
vt 0.99950004 0.12184358
vt 0.6665001 -0.0030314922
vt 0.99950004 -0.0030314922
vn -0.6886984 -0.7215911 -0.070715494
vn -0 -1 0
vn -0.72485006 -0.6887809 0.013161369
vn -0 -1 0
vn -0.6363686 -0.7291972 -0.25160784
vn -0 -1 0
vn -0 -1 0
vn -0.56182915 -0.71697366 -0.41267037
vn -0 -1 0
vn -0 -1 0
vn -0.50373083 -0.7024772 -0.5027733
vn -0 -1 0
vn -0 -1 0
vn -0 -1 0
vn -0 -1 0
vn -0.42727256 -0.710761 -0.55879956
vn 0.68869865 -0.721591 -0.070715226
vn 0.72485 -0.68878096 0.013160988
vn 0.63636845 -0.7291974 -0.25160766
vn -0 -1 0
vn 0.56182903 -0.71697366 -0.4126706
vn -0 -1 0
vn 0.503731 -0.70247716 -0.5027732
vn -0 -1 0
vn -0 -1 0
vn 0.42727256 -0.71076113 -0.5587995
vn -0 -1 0
vn -0 -1 0
vn 0.306138 -0.7189233 -0.6240424
vn -0 -1 0
vn -0.3061382 -0.7189233 -0.6240423
vn -0 -1 0
vn 0.20599756 -0.70757794 -0.67594266
vn -0 -1 0
vn -0 -1 0
vn -0.20599763 -0.707578 -0.67594254
vn -0 -1 0
vn 0.24045593 -0.13628638 -0.9610448
vn -0 -1 0
vn -0 -1 0
vn -0 -1 0
vn -0.24045585 -0.13628581 -0.9610448
vn -0 -1 0
vn -0 -1 0
vn -0 -1 0
vn -7.553911E-07 0.9998957 0.0144480225
vn -0.66875106 0.73259854 -0.12677287
vn -0.6743049 0.73817533 0.02024839
vn -7.778263E-07 0.9960078 -0.089265585
vn -0.5942702 0.7059481 -0.38533127
vn 4.3759997E-07 0.9960078 -0.08926527
vn 6.633E-07 0.9998956 0.014449286
vn 6.6123715E-07 0.9998957 0.014447383
vn -6.910667E-07 0.9689501 -0.24725628
vn -0.5124329 0.6282095 -0.58546174
vn 3.028262E-07 0.9689501 -0.24725646
vn 7.553383E-07 0.9960078 -0.08926609
vn -6.1271385E-07 0.9255472 -0.37863237
vn -0.4414604 0.55324185 -0.7064248
vn 0.668751 0.73259866 -0.12677275
vn 0.67430425 0.7381761 0.020248039
vn 0.5942692 0.7059491 -0.38533095
vn 8.499667E-07 0.9689502 -0.2472559
vn 0.5124331 0.6282081 -0.5854629
vn 4.1132319E-07 0.9255472 -0.37863237
vn 7.8392526E-07 0.92554706 -0.37863237
vn 0.4414593 0.5532434 -0.7064243
vn -4.126632E-07 0.85903865 -0.5119108
vn -0.3525077 0.5317513 -0.7700512
vn 2.5816183E-07 0.8590384 -0.51191103
vn -0 0.8590388 -0.51191056
vn 0.35250807 0.53175133 -0.77005106
vn -3.692348E-07 0.81200194 -0.5836547
vn -0.24776788 0.50398695 -0.8274106
vn 2.791309E-07 0.8120018 -0.5836548
vn 4.2432046E-07 0.8120018 -0.583655
vn 0.2477678 0.50398576 -0.82741123
vn -0 0.7852449 -0.61918527
vn -0.17057574 0.35348642 -0.9197561
vn -0 0.7852452 -0.6191849
vn -0 0.7852446 -0.61918557
vn 0.17057547 0.3534872 -0.9197558
vn -0 0.6702843 -0.7421044
vn -0.19480188 0.2115131 -0.95776534
vn -2.9297428E-07 0.55803096 -0.82982016
vn -0 0.55803126 -0.8298199
vn -0 0.6702853 -0.7421036
vn -3.5980352E-07 0.67028534 -0.7421035
vn 0.19480215 0.2115132 -0.9577652
vn 3.8248393E-07 0.5580304 -0.8298205
vn -0.20599763 -0.707578 -0.67594254
vn -0.24569766 0.041124888 -0.9684738
vn -0.24045585 -0.13628581 -0.9610448
vn -0.29724973 0.04453999 -0.9537603
vn -0.24797907 0.07142073 -0.96612906
vn -0.3061382 -0.7189233 -0.6240423
vn -0.3093827 0.071418405 -0.948252
vn -0.19480188 0.2115131 -0.95776534
vn -0.17057574 0.35348642 -0.9197561
vn -0.4501746 0.055405002 -0.89122
vn -0.42727256 -0.710761 -0.55879956
vn -0.4659812 0.08612732 -0.8805928
vn -0.24776788 0.50398695 -0.8274106
vn -0.616956 0.06644105 -0.7841881
vn -0.50373083 -0.7024772 -0.5027733
vn -0.62630296 0.09890852 -0.77327985
vn -0.3525077 0.5317513 -0.7700512
vn -0.71569115 0.07113232 -0.6947851
vn -0.56182915 -0.71697366 -0.41267037
vn -0.7241424 0.1017797 -0.68209875
vn -0.4414604 0.55324185 -0.7064248
vn -0.81149524 0.07483708 -0.5795472
vn -0.6363686 -0.7291972 -0.25160784
vn -0.82172775 0.10318792 -0.5604602
vn -0.5124329 0.6282095 -0.58546174
vn -0.93034136 0.08074797 -0.3576935
vn -0.6886984 -0.7215911 -0.070715494
vn -0.9328244 0.1078723 -0.34380564
vn -0.5942702 0.7059481 -0.38533127
vn -0.9914756 0.084268995 -0.09937282
vn -0.72485006 -0.6887809 0.013161369
vn -0.99626946 0.08449393 0.017546382
vn -0.9890209 0.11139814 -0.09709844
vn -0.66875106 0.73259854 -0.12677287
vn -0.99381316 0.10976184 0.0169659
vn -0.6743049 0.73817533 0.02024839
vn 0.24569747 0.04112484 -0.9684739
vn 0.20599756 -0.70757794 -0.67594266
vn 0.24045593 -0.13628638 -0.9610448
vn 0.29724947 0.044539966 -0.9537604
vn 0.306138 -0.7189233 -0.6240424
vn 0.24797916 0.071420826 -0.96612906
vn 0.4501746 0.05540493 -0.89122
vn 0.42727256 -0.71076113 -0.5587995
vn 0.3093826 0.07141821 -0.948252
vn 0.19480215 0.2115132 -0.9577652
vn 0.17057547 0.3534872 -0.9197558
vn 0.4659809 0.086127125 -0.8805929
vn 0.2477678 0.50398576 -0.82741123
vn 0.6169562 0.06644094 -0.7841879
vn 0.503731 -0.70247716 -0.5027732
vn 0.6263032 0.098908335 -0.7732797
vn 0.35250807 0.53175133 -0.77005106
vn 0.7156912 0.071132176 -0.69478506
vn 0.56182903 -0.71697366 -0.4126706
vn 0.7241426 0.10177952 -0.68209857
vn 0.4414593 0.5532434 -0.7064243
vn 0.81149507 0.074836805 -0.5795473
vn 0.63636845 -0.7291974 -0.25160766
vn 0.8217274 0.1031877 -0.56046087
vn 0.5124331 0.6282081 -0.5854629
vn 0.9303415 0.08074775 -0.35769328
vn 0.68869865 -0.721591 -0.070715226
vn 0.9328241 0.10787227 -0.34380627
vn 0.5942692 0.7059491 -0.38533095
vn 0.9914756 0.08426892 -0.099372804
vn 0.72485 -0.68878096 0.013160988
vn 0.99626946 0.08449399 0.017544966
vn 0.9890209 0.11139806 -0.097098194
vn 0.668751 0.73259866 -0.12677275
vn 0.99381316 0.10976161 0.016965613
vn 0.67430425 0.7381761 0.020248039
g fx_archaic_tunnel_aura_0
f 3/3/3 2/2/2 1/1/1
f 4/4/4 1/1/1 2/2/2
f 1/1/1 4/4/4 5/5/5
f 2/2/2 6/6/6 4/4/4
f 7/7/7 5/5/5 4/4/4
f 5/5/5 7/7/7 8/8/8
f 9/9/9 4/4/4 6/6/6
f 4/4/4 9/9/9 7/7/7
f 10/10/10 8/8/8 7/7/7
f 8/8/8 10/10/10 11/11/11
f 9/9/9 6/6/6 12/12/12
f 13/13/13 12/12/12 6/6/6
f 14/14/14 7/7/7 9/9/9
f 7/7/7 14/14/14 10/10/10
f 15/15/15 11/11/11 10/10/10
f 11/11/11 15/15/15 16/16/16
f 12/12/12 13/13/13 17/17/17
f 18/18/18 17/17/17 13/13/13
f 17/17/17 19/19/19 12/12/12
f 12/12/12 20/20/20 9/9/9
f 20/20/20 12/12/12 19/19/19
f 14/14/14 9/9/9 20/20/20
f 19/19/19 21/21/21 20/20/20
f 22/22/22 20/20/20 21/21/21
f 20/20/20 22/22/22 14/14/14
f 21/21/21 23/23/23 22/22/22
f 24/24/24 10/10/10 14/14/14
f 24/24/24 14/14/14 22/22/22
f 10/10/10 24/24/24 15/15/15
f 25/25/25 22/22/22 23/23/23
f 22/22/22 25/25/25 24/24/24
f 23/23/23 26/26/26 25/25/25
f 27/27/27 15/15/15 24/24/24
f 27/27/27 24/24/24 25/25/25
f 28/28/28 25/25/25 26/26/26
f 25/25/25 28/28/28 27/27/27
f 26/26/26 29/29/29 28/28/28
f 15/15/15 27/27/27 30/30/30
f 30/30/30 16/16/16 15/15/15
f 16/16/16 30/30/30 31/31/31
f 32/32/32 28/28/28 29/29/29
f 29/29/29 33/33/33 32/32/32
f 34/34/34 27/27/27 28/28/28
f 34/34/34 30/30/30 27/27/27
f 28/28/28 32/32/32 34/34/34
f 35/35/35 31/31/31 30/30/30
f 30/30/30 34/34/34 35/35/35
f 31/31/31 35/35/35 36/36/36
f 37/37/37 32/32/32 33/33/33
f 33/33/33 38/38/38 37/37/37
f 39/39/39 37/37/37 38/38/38
f 40/40/40 34/34/34 32/32/32
f 40/40/40 35/35/35 34/34/34
f 32/32/32 37/37/37 40/40/40
f 41/41/41 36/36/36 35/35/35
f 35/35/35 40/40/40 41/41/41
f 36/36/36 41/41/41 42/42/42
f 43/43/43 42/42/42 41/41/41
f 37/37/37 39/39/39 44/44/44
f 44/44/44 40/40/40 37/37/37
f 44/44/44 41/41/41 40/40/40
f 41/41/41 44/44/44 43/43/43
f 45/45/45 44/44/44 39/39/39
f 45/45/45 43/43/43 44/44/44
f 48/48/48 47/47/47 46/46/46
f 49/49/49 46/46/46 47/47/47
f 47/47/47 50/50/50 49/49/49
f 49/49/49 51/51/51 46/46/46
f 52/52/52 46/46/46 51/51/51
f 52/52/52 51/51/51 53/53/53
f 54/54/54 49/49/49 50/50/50
f 50/50/50 55/55/55 54/54/54
f 51/51/51 49/49/49 56/56/56
f 54/54/54 56/56/56 49/49/49
f 57/57/57 53/53/53 51/51/51
f 51/51/51 56/56/56 57/57/57
f 58/58/58 54/54/54 55/55/55
f 55/55/55 59/59/59 58/58/58
f 57/57/57 60/60/60 53/53/53
f 61/61/61 53/53/53 60/60/60
f 60/60/60 57/57/57 62/62/62
f 63/63/63 62/62/62 57/57/57
f 63/63/63 57/57/57 56/56/56
f 62/62/62 63/63/63 64/64/64
f 56/56/56 54/54/54 65/65/65
f 56/56/56 65/65/65 63/63/63
f 58/58/58 65/65/65 54/54/54
f 66/66/66 64/64/64 63/63/63
f 66/66/66 63/63/63 65/65/65
f 64/64/64 66/66/66 67/67/67
f 68/68/68 58/58/58 59/59/59
f 59/59/59 69/69/69 68/68/68
f 65/65/65 58/58/58 70/70/70
f 65/65/65 70/70/70 66/66/66
f 68/68/68 70/70/70 58/58/58
f 71/71/71 67/67/67 66/66/66
f 71/71/71 66/66/66 70/70/70
f 67/67/67 71/71/71 72/72/72
f 73/73/73 68/68/68 69/69/69
f 69/69/69 74/74/74 73/73/73
f 70/70/70 68/68/68 75/75/75
f 70/70/70 75/75/75 71/71/71
f 73/73/73 75/75/75 68/68/68
f 76/76/76 72/72/72 71/71/71
f 76/76/76 71/71/71 75/75/75
f 72/72/72 76/76/76 77/77/77
f 78/78/78 73/73/73 74/74/74
f 74/74/74 79/79/79 78/78/78
f 75/75/75 73/73/73 80/80/80
f 75/75/75 80/80/80 76/76/76
f 78/78/78 80/80/80 73/73/73
f 81/81/81 77/77/77 76/76/76
f 81/81/81 76/76/76 80/80/80
f 77/77/77 81/81/81 82/82/82
f 83/83/83 78/78/78 79/79/79
f 79/79/79 84/84/84 83/83/83
f 85/85/85 83/83/83 84/84/84
f 85/85/85 86/86/86 83/83/83
f 80/80/80 78/78/78 87/87/87
f 83/83/83 87/87/87 78/78/78
f 80/80/80 87/87/87 81/81/81
f 87/87/87 83/83/83 86/86/86
f 88/88/88 82/82/82 81/81/81
f 88/88/88 81/81/81 87/87/87
f 87/87/87 86/86/86 88/88/88
f 82/82/82 88/88/88 89/89/89
f 90/90/90 88/88/88 86/86/86
f 90/90/90 89/89/89 88/88/88
f 93/93/93 92/92/92 91/91/91
f 94/94/94 91/91/91 92/92/92
f 92/92/92 95/95/95 94/94/94
f 91/91/91 94/94/94 96/96/96
f 97/97/97 94/94/94 95/95/95
f 95/95/95 98/98/98 97/97/97
f 99/99/99 97/97/97 98/98/98
f 100/100/100 96/96/96 94/94/94
f 94/94/94 97/97/97 100/100/100
f 96/96/96 100/100/100 101/101/101
f 97/97/97 99/99/99 102/102/102
f 102/102/102 100/100/100 97/97/97
f 103/103/103 102/102/102 99/99/99
f 104/104/104 101/101/101 100/100/100
f 100/100/100 102/102/102 104/104/104
f 101/101/101 104/104/104 105/105/105
f 102/102/102 103/103/103 106/106/106
f 106/106/106 104/104/104 102/102/102
f 107/107/107 106/106/106 103/103/103
f 108/108/108 105/105/105 104/104/104
f 104/104/104 106/106/106 108/108/108
f 105/105/105 108/108/108 109/109/109
f 106/106/106 107/107/107 110/110/110
f 110/110/110 108/108/108 106/106/106
f 111/111/111 110/110/110 107/107/107
f 112/112/112 109/109/109 108/108/108
f 108/108/108 110/110/110 112/112/112
f 109/109/109 112/112/112 113/113/113
f 110/110/110 111/111/111 114/114/114
f 114/114/114 112/112/112 110/110/110
f 115/115/115 114/114/114 111/111/111
f 116/116/116 113/113/113 112/112/112
f 112/112/112 114/114/114 116/116/116
f 113/113/113 116/116/116 117/117/117
f 114/114/114 115/115/115 118/118/118
f 118/118/118 116/116/116 114/114/114
f 119/119/119 118/118/118 115/115/115
f 120/120/120 117/117/117 116/116/116
f 116/116/116 118/118/118 120/120/120
f 117/117/117 120/120/120 121/121/121
f 122/122/122 121/121/121 120/120/120
f 118/118/118 119/119/119 123/123/123
f 123/123/123 120/120/120 118/118/118
f 120/120/120 123/123/123 122/122/122
f 124/124/124 123/123/123 119/119/119
f 125/125/125 122/122/122 123/123/123
f 123/123/123 124/124/124 125/125/125
f 126/126/126 125/125/125 124/124/124
f 129/129/129 128/128/128 127/127/127
f 130/130/130 127/127/127 128/128/128
f 128/128/128 131/131/131 130/130/130
f 127/127/127 130/130/130 132/132/132
f 133/133/133 130/130/130 131/131/131
f 131/131/131 134/134/134 133/133/133
f 135/135/135 132/132/132 130/130/130
f 130/130/130 133/133/133 135/135/135
f 132/132/132 135/135/135 136/136/136
f 137/137/137 136/136/136 135/135/135
f 135/135/135 138/138/138 137/137/137
f 138/138/138 135/135/135 133/133/133
f 139/139/139 137/137/137 138/138/138
f 140/140/140 133/133/133 134/134/134
f 133/133/133 140/140/140 138/138/138
f 134/134/134 141/141/141 140/140/140
f 138/138/138 142/142/142 139/139/139
f 142/142/142 138/138/138 140/140/140
f 143/143/143 139/139/139 142/142/142
f 144/144/144 140/140/140 141/141/141
f 140/140/140 144/144/144 142/142/142
f 141/141/141 145/145/145 144/144/144
f 142/142/142 146/146/146 143/143/143
f 146/146/146 142/142/142 144/144/144
f 147/147/147 143/143/143 146/146/146
f 148/148/148 144/144/144 145/145/145
f 144/144/144 148/148/148 146/146/146
f 145/145/145 149/149/149 148/148/148
f 146/146/146 150/150/150 147/147/147
f 150/150/150 146/146/146 148/148/148
f 151/151/151 147/147/147 150/150/150
f 152/152/152 148/148/148 149/149/149
f 148/148/148 152/152/152 150/150/150
f 149/149/149 153/153/153 152/152/152
f 150/150/150 154/154/154 151/151/151
f 154/154/154 150/150/150 152/152/152
f 155/155/155 151/151/151 154/154/154
f 156/156/156 152/152/152 153/153/153
f 152/152/152 156/156/156 154/154/154
f 153/153/153 157/157/157 156/156/156
f 158/158/158 156/156/156 157/157/157
f 154/154/154 159/159/159 155/155/155
f 159/159/159 154/154/154 156/156/156
f 156/156/156 158/158/158 159/159/159
f 160/160/160 155/155/155 159/159/159
f 161/161/161 159/159/159 158/158/158
f 159/159/159 161/161/161 160/160/160
f 162/162/162 160/160/160 161/161/161
