g fx_billboard_tv2
v 0.081866995 2.6621597 0.45426965
v 0.08186746 1.0472387 0.45426872
v -0.5041302 1.0472387 0.45426872
v -1.090128 2.6621597 0.45426974
v -1.090128 1.0472392 0.45426872
vt -0.18593758 -0.17609286
vt -0.18593729 0.31184447
vt -0.052135408 0.31184435
vt 0.08166653 -0.17609304
vt 0.08166665 0.31184426
vn -0 -5.9467305E-07 1
vn -0 -5.9467305E-07 1
vn -0 -5.9467305E-07 1
vn -0 -5.9467305E-07 1
vn -0 -5.9467305E-07 1
g fx_billboard_tv2_0
f 3/3/3 2/2/2 1/1/1
f 1/1/1 4/4/4 3/3/3
f 4/4/4 5/5/5 3/3/3
