g FX_box_2
v -0.09802944 -0.018661967 -0.15729652
v -0.098029405 0.018661946 -0.15729652
v -0.124421425 -1.9073486E-08 -0.13863456
v 0.09802946 -0.15729652 -0.01866188
v 0.09802944 -0.018661967 -0.15729652
v -0.098029405 -0.15729652 -0.01866188
v -0.124421425 -0.13863458 7.6293944E-08
v -0.098029405 -0.1572965 0.018662032
v 0.09802944 0.018661927 -0.15729652
v 0.09802944 -0.018661967 -0.15729652
v 0.124421425 -1.9073486E-08 -0.13863456
v 0.09802944 0.15729652 -0.018661957
v -0.098029405 0.018661946 -0.15729652
v -0.098029405 0.15729652 -0.018661957
v 0.12442146 0.13863458 0
v 0.09802944 0.15729652 0.018661957
v -0.124421425 0.13863458 0
v -0.098029405 0.15729652 -0.018661957
v -0.098029405 0.15729652 0.018661957
v -0.124421425 -0.13863458 7.6293944E-08
v -0.124421425 -1.9073486E-08 -0.13863456
v -0.124421425 0 0.13863456
v -0.098029405 0.018661985 0.15729652
v -0.098029405 -0.018661927 0.15729652
v 0.124421425 -0.13863458 7.6293944E-08
v 0.09802946 -0.15729652 -0.01866188
v 0.09802946 -0.1572965 0.018662032
v 0.124421425 0 0.13863456
v 0.124421425 -1.9073486E-08 -0.13863456
v 0.12442146 0.13863458 0
v 0.09802944 0.018661985 0.15729652
v 0.124421425 0 0.13863456
v 0.09802944 -0.018661937 0.15729652
v -0.098029405 0.018661985 0.15729652
v 0.09802944 0.15729652 0.018661957
v -0.098029405 0.15729652 0.018661957
v 0.012828521 -0.06738693 -0.108127974
v -0.012828521 -0.0673869 -0.108127974
v -0 -0.085529186 -0.09529945
v 0.10812801 0.06738694 -0.012828445
v 0.012828521 0.06738692 -0.108127974
v 0.10812801 -0.0673869 -0.012828445
v 0.09529949 -0.085529186 7.6293944E-08
v 0.108127974 -0.0673869 0.012828521
v -0.012828521 0.06738692 -0.108127974
v 0.012828521 0.06738692 -0.108127974
v -0 0.085529186 -0.09529945
v -0.10812801 0.06738692 -0.012828445
v -0.012828521 -0.0673869 -0.108127974
v -0.10812801 -0.0673869 -0.012828445
v -0.09529949 0.085529186 7.6293944E-08
v -0.10812801 0.06738692 0.012828598
v -0.09529949 -0.085529186 7.6293944E-08
v -0.10812801 -0.0673869 -0.012828445
v -0.10812801 -0.0673869 0.012828598
v 0.09529949 -0.085529186 7.6293944E-08
v -0 -0.085529186 -0.09529945
v -1.9073486E-08 -0.085529186 0.09529953
v -0.012828521 -0.06738691 0.10812805
v 0.012828483 -0.06738691 0.10812805
v 0.09529949 0.085529186 7.6293944E-08
v 0.10812801 0.06738694 -0.012828445
v 0.108127974 0.06738694 0.012828521
v -1.9073486E-08 0.085529186 0.09529953
v -0 0.085529186 -0.09529945
v -0.09529949 0.085529186 7.6293944E-08
v -0.012828521 0.06738692 0.10812805
v -1.9073486E-08 0.085529186 0.09529953
v 0.012828483 0.06738692 0.10812805
v -0.012828521 -0.06738691 0.10812805
v -0.10812801 0.06738692 0.012828598
v -0.10812801 -0.0673869 0.012828598
v 0.09802944 -0.018661937 0.15729652
v -0.098029405 -0.1572965 0.018662032
v -0.098029405 -0.018661927 0.15729652
v 0.09802946 -0.1572965 0.018662032
v -0.124421425 0.13863458 0
v -0.098029405 0.018661946 -0.15729652
v -0.098029405 0.15729652 -0.018661957
v -0.124421425 -1.9073486E-08 -0.13863456
v 0.09802944 0.15729652 0.018661957
v -0.098029405 0.15729652 -0.018661957
v 0.09802944 0.15729652 -0.018661957
v -0.098029405 0.15729652 0.018661957
v 0.124421425 -1.9073486E-08 -0.13863456
v 0.09802944 0.15729652 -0.018661957
v 0.09802944 0.018661927 -0.15729652
v 0.12442146 0.13863458 0
v -0.09802944 -0.018661967 -0.15729652
v 0.09802944 0.018661927 -0.15729652
v -0.098029405 0.018661946 -0.15729652
v 0.09802944 -0.018661967 -0.15729652
v 0.09802946 -0.15729652 -0.01866188
v -0.098029405 -0.1572965 0.018662032
v 0.09802946 -0.1572965 0.018662032
v -0.098029405 -0.15729652 -0.01866188
v 0.124421425 0 0.13863456
v 0.09802946 -0.1572965 0.018662032
v 0.09802944 -0.018661937 0.15729652
v 0.124421425 -0.13863458 7.6293944E-08
v -0.098029405 0.018661985 0.15729652
v 0.09802944 -0.018661937 0.15729652
v -0.098029405 -0.018661927 0.15729652
v 0.09802944 0.018661985 0.15729652
v -0.124421425 -0.13863458 7.6293944E-08
v -0.098029405 -0.018661927 0.15729652
v -0.098029405 -0.1572965 0.018662032
v -0.124421425 0 0.13863456
v 0.124421425 -0.13863458 7.6293944E-08
v 0.09802944 -0.018661967 -0.15729652
v 0.09802946 -0.15729652 -0.01866188
v 0.124421425 -1.9073486E-08 -0.13863456
v -0.124421425 -1.9073486E-08 -0.13863456
v -0.098029405 -0.15729652 -0.01866188
v -0.09802944 -0.018661967 -0.15729652
v -0.124421425 -0.13863458 7.6293944E-08
v 0.09802944 0.018661985 0.15729652
v 0.12442146 0.13863458 0
v 0.124421425 0 0.13863456
v 0.09802944 0.15729652 0.018661957
v -0.124421425 0 0.13863456
v -0.098029405 0.15729652 0.018661957
v -0.098029405 0.018661985 0.15729652
v -0.124421425 0.13863458 0
v 0.012828483 0.06738692 0.10812805
v 0.108127974 -0.0673869 0.012828521
v 0.012828483 -0.06738691 0.10812805
v 0.108127974 0.06738694 0.012828521
v -0.09529949 -0.085529186 7.6293944E-08
v -0.012828521 -0.0673869 -0.108127974
v -0.10812801 -0.0673869 -0.012828445
v -0 -0.085529186 -0.09529945
v -0.10812801 0.06738692 0.012828598
v -0.10812801 -0.0673869 -0.012828445
v -0.10812801 0.06738692 -0.012828445
v -0.10812801 -0.0673869 0.012828598
v -0 0.085529186 -0.09529945
v -0.10812801 0.06738692 -0.012828445
v -0.012828521 0.06738692 -0.108127974
v -0.09529949 0.085529186 7.6293944E-08
v 0.012828521 -0.06738693 -0.108127974
v -0.012828521 0.06738692 -0.108127974
v -0.012828521 -0.0673869 -0.108127974
v 0.012828521 0.06738692 -0.108127974
v 0.10812801 0.06738694 -0.012828445
v 0.108127974 -0.0673869 0.012828521
v 0.108127974 0.06738694 0.012828521
v 0.10812801 -0.0673869 -0.012828445
v -1.9073486E-08 0.085529186 0.09529953
v 0.108127974 0.06738694 0.012828521
v 0.012828483 0.06738692 0.10812805
v 0.09529949 0.085529186 7.6293944E-08
v -0.012828521 -0.06738691 0.10812805
v 0.012828483 0.06738692 0.10812805
v 0.012828483 -0.06738691 0.10812805
v -0.012828521 0.06738692 0.10812805
v 0.09529949 -0.085529186 7.6293944E-08
v 0.012828483 -0.06738691 0.10812805
v 0.108127974 -0.0673869 0.012828521
v -1.9073486E-08 -0.085529186 0.09529953
v 0.09529949 0.085529186 7.6293944E-08
v 0.012828521 0.06738692 -0.108127974
v 0.10812801 0.06738694 -0.012828445
v -0 0.085529186 -0.09529945
v -0 -0.085529186 -0.09529945
v 0.10812801 -0.0673869 -0.012828445
v 0.012828521 -0.06738693 -0.108127974
v 0.09529949 -0.085529186 7.6293944E-08
v -0.012828521 0.06738692 0.10812805
v -0.09529949 0.085529186 7.6293944E-08
v -1.9073486E-08 0.085529186 0.09529953
v -0.10812801 0.06738692 0.012828598
v -1.9073486E-08 -0.085529186 0.09529953
v -0.10812801 -0.0673869 0.012828598
v -0.012828521 -0.06738691 0.10812805
v -0.09529949 -0.085529186 7.6293944E-08
vt 0.10605887 0.10605887
vt -0.023836173 0.031063935
vt -0.023836173 0.18105383
vt 0.8939412 0.8939412
vt 0.8939412 0.10605887
vt 0.10605888 0.8939412
vt -0.023836158 0.81894624
vt -0.023836164 0.96893615
vt 0.10605888 0.10605888
vt -0.023836158 0.031063946
vt -0.023836158 0.18105383
vt 0.10605888 0.8939412
vt 0.8939412 0.10605888
vt 0.8939412 0.8939412
vt -0.023836158 0.81894624
vt -0.023836158 0.96893615
vt 0.10605887 0.10605887
vt -0.023836173 0.031063935
vt -0.023836173 0.18105383
vt 0.8939412 0.8939412
vt 0.8939412 0.10605887
vt 0.10605888 0.8939412
vt -0.023836158 0.81894624
vt -0.023836164 0.96893615
vt 0.10605888 0.8939412
vt -0.023836158 0.81894624
vt -0.023836164 0.96893615
vt 0.8939412 0.8939412
vt 0.10605887 0.10605887
vt 0.8939412 0.10605887
vt 0.10605888 0.8939412
vt -0.023836158 0.81894624
vt -0.023836164 0.96893615
vt 0.8939412 0.8939412
vt 0.10605887 0.10605887
vt 0.8939412 0.10605887
vt 0.10605887 0.10605887
vt -0.023836173 0.031063935
vt -0.023836173 0.18105383
vt 0.8939412 0.8939412
vt 0.8939412 0.10605887
vt 0.10605888 0.8939412
vt -0.023836158 0.81894624
vt -0.023836164 0.96893615
vt 0.10605888 0.10605888
vt -0.023836158 0.031063946
vt -0.023836158 0.18105383
vt 0.10605888 0.8939412
vt 0.8939412 0.10605888
vt 0.8939412 0.8939412
vt -0.023836158 0.81894624
vt -0.023836158 0.96893615
vt 0.10605887 0.10605887
vt -0.023836173 0.031063935
vt -0.023836173 0.18105383
vt 0.8939412 0.8939412
vt 0.8939412 0.10605887
vt 0.10605888 0.8939412
vt -0.023836158 0.81894624
vt -0.023836164 0.96893615
vt 0.10605888 0.8939412
vt -0.023836158 0.81894624
vt -0.023836164 0.96893615
vt 0.8939412 0.8939412
vt 0.10605887 0.10605887
vt 0.8939412 0.10605887
vt 0.10605888 0.8939412
vt -0.023836158 0.81894624
vt -0.023836164 0.96893615
vt 0.8939412 0.8939412
vt 0.10605887 0.10605887
vt 0.8939412 0.10605887
vt 0.8939412 0.8939412
vt 0.10605888 0.10605888
vt 0.10605888 0.8939412
vt 0.8939412 0.10605888
vt 0.10605887 0.10605887
vt 0.8939412 0.25604856
vt 0.10605886 0.25604856
vt 0.8939412 0.10605887
vt 0.10605887 0.10605887
vt 0.8939412 0.25604856
vt 0.10605886 0.25604856
vt 0.8939412 0.10605887
vt 0.10605887 0.10605887
vt 0.8939412 0.25604856
vt 0.10605886 0.25604856
vt 0.8939412 0.10605887
vt 0.10605887 0.10605887
vt 0.8939412 0.25604856
vt 0.10605886 0.25604856
vt 0.8939412 0.10605887
vt 0.8939412 0.8939412
vt 0.10605893 0.74395156
vt 0.8939413 0.7439515
vt 0.10605888 0.8939412
vt 0.8939412 0.8939412
vt 0.10605893 0.74395156
vt 0.8939413 0.7439515
vt 0.10605888 0.8939412
vt 0.8939412 0.8939412
vt 0.10605893 0.74395156
vt 0.8939413 0.7439515
vt 0.10605888 0.8939412
vt 0.8939412 0.8939412
vt 0.10605893 0.74395156
vt 0.8939413 0.7439515
vt 0.10605888 0.8939412
vt 0.10605888 0.8939412
vt 0.2560486 0.10605893
vt 0.2560486 0.8939413
vt 0.10605887 0.10605887
vt 0.8939412 0.10605887
vt 0.7439515 0.89394116
vt 0.7439515 0.10605882
vt 0.8939412 0.8939412
vt 0.10605888 0.8939412
vt 0.2560486 0.10605893
vt 0.2560486 0.8939413
vt 0.10605887 0.10605887
vt 0.10605888 0.8939412
vt 0.2560486 0.10605893
vt 0.2560486 0.8939413
vt 0.10605887 0.10605887
vt 0.8939412 0.8939412
vt 0.10605888 0.10605888
vt 0.10605888 0.8939412
vt 0.8939412 0.10605888
vt 0.10605887 0.10605887
vt 0.8939412 0.25604856
vt 0.10605886 0.25604856
vt 0.8939412 0.10605887
vt 0.10605887 0.10605887
vt 0.8939412 0.25604856
vt 0.10605886 0.25604856
vt 0.8939412 0.10605887
vt 0.10605887 0.10605887
vt 0.8939412 0.25604856
vt 0.10605886 0.25604856
vt 0.8939412 0.10605887
vt 0.10605887 0.10605887
vt 0.8939412 0.25604856
vt 0.10605886 0.25604856
vt 0.8939412 0.10605887
vt 0.8939412 0.8939412
vt 0.10605893 0.74395156
vt 0.8939413 0.7439515
vt 0.10605888 0.8939412
vt 0.8939412 0.8939412
vt 0.10605893 0.74395156
vt 0.8939413 0.7439515
vt 0.10605888 0.8939412
vt 0.8939412 0.8939412
vt 0.10605893 0.74395156
vt 0.8939413 0.7439515
vt 0.10605888 0.8939412
vt 0.8939412 0.8939412
vt 0.10605893 0.74395156
vt 0.8939413 0.7439515
vt 0.10605888 0.8939412
vt 0.10605888 0.8939412
vt 0.2560486 0.10605893
vt 0.2560486 0.8939413
vt 0.10605887 0.10605887
vt 0.8939412 0.10605887
vt 0.7439515 0.89394116
vt 0.7439515 0.10605882
vt 0.8939412 0.8939412
vt 0.10605888 0.8939412
vt 0.2560486 0.10605893
vt 0.2560486 0.8939413
vt 0.10605887 0.10605887
vt 0.10605888 0.8939412
vt 0.2560486 0.10605893
vt 0.2560486 0.8939413
vt 0.10605887 0.10605887
vn -0.34158605 -0.37758985 -0.8606653
vn -0.34158573 0.37759 -0.86066544
vn -0.87557864 0 -0.48307568
vn 0.34158614 -0.8606655 -0.37758934
vn 0.34158605 -0.37758997 -0.8606653
vn -0.3415857 -0.86066574 -0.3775894
vn -0.87557846 -0.483076 3.2047842E-07
vn -0.34158552 -0.86066526 0.3775905
vn 0.34158602 0.37758973 -0.86066544
vn 0.34158605 -0.37758997 -0.8606653
vn 0.8755787 -1.780435E-07 -0.4830755
vn 0.3415858 0.86066544 -0.37758994
vn -0.34158573 0.37759 -0.86066544
vn -0.3415858 0.86066544 -0.37759
vn 0.87557864 0.48307568 0
vn 0.3415858 0.8606655 0.37758982
vn -0.8755785 0.48307577 0
vn -0.3415858 0.86066544 -0.37759
vn -0.34158573 0.8606655 0.37758982
vn -0.87557846 -0.483076 3.2047842E-07
vn -0.87557864 0 -0.48307568
vn -0.8755785 -1.3798373E-07 0.4830757
vn -0.3415859 0.3775899 0.8606653
vn -0.34158558 -0.37758976 0.8606656
vn 0.8755787 -0.48307544 2.418424E-07
vn 0.34158614 -0.8606655 -0.37758934
vn 0.34158605 -0.86066514 0.37759042
vn 0.8755787 -1.8991298E-07 0.4830754
vn 0.8755787 -1.780435E-07 -0.4830755
vn 0.87557864 0.48307568 0
vn 0.34158614 0.37758985 0.8606653
vn 0.8755787 -1.8991298E-07 0.4830754
vn 0.341586 -0.37758973 0.8606655
vn -0.3415859 0.3775899 0.8606653
vn 0.3415858 0.8606655 0.37758982
vn -0.34158573 0.8606655 0.37758982
vn 0.3775898 -0.34158635 -0.86066526
vn -0.3775901 -0.3415858 -0.8606653
vn -3.0119028E-07 -0.8755787 -0.4830754
vn 0.8606656 0.34158623 -0.3775892
vn 0.37758985 0.34158602 -0.8606653
vn 0.86066574 -0.34158567 -0.3775891
vn 0.48307613 -0.87557834 7.1217454E-07
vn 0.8606655 -0.34158516 0.3775904
vn -0.3775899 0.34158605 -0.8606653
vn 0.37758985 0.34158602 -0.8606653
vn -0 0.8755788 -0.4830754
vn -0.86066544 0.34158608 -0.37758976
vn -0.3775901 -0.3415858 -0.8606653
vn -0.8606655 -0.34158584 -0.3775898
vn -0.4830754 0.8755787 1.7804342E-07
vn -0.8606653 0.34158605 0.37758985
vn -0.48307568 -0.87557864 1.3056528E-07
vn -0.8606655 -0.34158584 -0.3775898
vn -0.86066544 -0.3415858 0.3775899
vn 0.48307613 -0.87557834 7.1217454E-07
vn -3.0119028E-07 -0.8755787 -0.4830754
vn -0 -0.8755785 0.48307568
vn -0.3775898 -0.3415859 0.8606655
vn 0.3775899 -0.34158573 0.8606655
vn 0.48307556 0.87557864 8.5164163E-07
vn 0.8606656 0.34158623 -0.3775892
vn 0.8606653 0.3415856 0.37759042
vn -0 0.87557864 0.48307553
vn -0 0.8755788 -0.4830754
vn -0.4830754 0.8755787 1.7804342E-07
vn -0.37758976 0.34158596 0.86066544
vn -0 0.87557864 0.48307553
vn 0.3775899 0.341586 0.86066544
vn -0.3775898 -0.3415859 0.8606655
vn -0.8606653 0.34158605 0.37758985
vn -0.86066544 -0.3415858 0.3775899
vn 0.341586 -0.37758973 0.8606655
vn -0.34158552 -0.86066526 0.3775905
vn -0.34158558 -0.37758976 0.8606656
vn 0.34158605 -0.86066514 0.37759042
vn -0.8755785 0.48307577 0
vn -0.34158573 0.37759 -0.86066544
vn -0.3415858 0.86066544 -0.37759
vn -0.87557864 0 -0.48307568
vn 0.3415858 0.8606655 0.37758982
vn -0.3415858 0.86066544 -0.37759
vn 0.3415858 0.86066544 -0.37758994
vn -0.34158573 0.8606655 0.37758982
vn 0.8755787 -1.780435E-07 -0.4830755
vn 0.3415858 0.86066544 -0.37758994
vn 0.34158602 0.37758973 -0.86066544
vn 0.87557864 0.48307568 0
vn -0.34158605 -0.37758985 -0.8606653
vn 0.34158602 0.37758973 -0.86066544
vn -0.34158573 0.37759 -0.86066544
vn 0.34158605 -0.37758997 -0.8606653
vn 0.34158614 -0.8606655 -0.37758934
vn -0.34158552 -0.86066526 0.3775905
vn 0.34158605 -0.86066514 0.37759042
vn -0.3415857 -0.86066574 -0.3775894
vn 0.8755787 -1.8991298E-07 0.4830754
vn 0.34158605 -0.86066514 0.37759042
vn 0.341586 -0.37758973 0.8606655
vn 0.8755787 -0.48307544 2.418424E-07
vn -0.3415859 0.3775899 0.8606653
vn 0.341586 -0.37758973 0.8606655
vn -0.34158558 -0.37758976 0.8606656
vn 0.34158614 0.37758985 0.8606653
vn -0.87557846 -0.483076 3.2047842E-07
vn -0.34158558 -0.37758976 0.8606656
vn -0.34158552 -0.86066526 0.3775905
vn -0.8755785 -1.3798373E-07 0.4830757
vn 0.8755787 -0.48307544 2.418424E-07
vn 0.34158605 -0.37758997 -0.8606653
vn 0.34158614 -0.8606655 -0.37758934
vn 0.8755787 -1.780435E-07 -0.4830755
vn -0.87557864 0 -0.48307568
vn -0.3415857 -0.86066574 -0.3775894
vn -0.34158605 -0.37758985 -0.8606653
vn -0.87557846 -0.483076 3.2047842E-07
vn 0.34158614 0.37758985 0.8606653
vn 0.87557864 0.48307568 0
vn 0.8755787 -1.8991298E-07 0.4830754
vn 0.3415858 0.8606655 0.37758982
vn -0.8755785 -1.3798373E-07 0.4830757
vn -0.34158573 0.8606655 0.37758982
vn -0.3415859 0.3775899 0.8606653
vn -0.8755785 0.48307577 0
vn 0.3775899 0.341586 0.86066544
vn 0.8606655 -0.34158516 0.3775904
vn 0.3775899 -0.34158573 0.8606655
vn 0.8606653 0.3415856 0.37759042
vn -0.48307568 -0.87557864 1.3056528E-07
vn -0.3775901 -0.3415858 -0.8606653
vn -0.8606655 -0.34158584 -0.3775898
vn -3.0119028E-07 -0.8755787 -0.4830754
vn -0.8606653 0.34158605 0.37758985
vn -0.8606655 -0.34158584 -0.3775898
vn -0.86066544 0.34158608 -0.37758976
vn -0.86066544 -0.3415858 0.3775899
vn -0 0.8755788 -0.4830754
vn -0.86066544 0.34158608 -0.37758976
vn -0.3775899 0.34158605 -0.8606653
vn -0.4830754 0.8755787 1.7804342E-07
vn 0.3775898 -0.34158635 -0.86066526
vn -0.3775899 0.34158605 -0.8606653
vn -0.3775901 -0.3415858 -0.8606653
vn 0.37758985 0.34158602 -0.8606653
vn 0.8606656 0.34158623 -0.3775892
vn 0.8606655 -0.34158516 0.3775904
vn 0.8606653 0.3415856 0.37759042
vn 0.86066574 -0.34158567 -0.3775891
vn -0 0.87557864 0.48307553
vn 0.8606653 0.3415856 0.37759042
vn 0.3775899 0.341586 0.86066544
vn 0.48307556 0.87557864 8.5164163E-07
vn -0.3775898 -0.3415859 0.8606655
vn 0.3775899 0.341586 0.86066544
vn 0.3775899 -0.34158573 0.8606655
vn -0.37758976 0.34158596 0.86066544
vn 0.48307613 -0.87557834 7.1217454E-07
vn 0.3775899 -0.34158573 0.8606655
vn 0.8606655 -0.34158516 0.3775904
vn -0 -0.8755785 0.48307568
vn 0.48307556 0.87557864 8.5164163E-07
vn 0.37758985 0.34158602 -0.8606653
vn 0.8606656 0.34158623 -0.3775892
vn -0 0.8755788 -0.4830754
vn -3.0119028E-07 -0.8755787 -0.4830754
vn 0.86066574 -0.34158567 -0.3775891
vn 0.3775898 -0.34158635 -0.86066526
vn 0.48307613 -0.87557834 7.1217454E-07
vn -0.37758976 0.34158596 0.86066544
vn -0.4830754 0.8755787 1.7804342E-07
vn -0 0.87557864 0.48307553
vn -0.8606653 0.34158605 0.37758985
vn -0 -0.8755785 0.48307568
vn -0.86066544 -0.3415858 0.3775899
vn -0.3775898 -0.3415859 0.8606655
vn -0.48307568 -0.87557864 1.3056528E-07
g FX_box_2_0
f 3/3/3 2/2/2 1/1/1
f 5/5/5 4/4/4 1/1/1
f 6/6/6 1/1/1 4/4/4
f 8/8/8 7/7/7 6/6/6
f 11/11/11 10/10/10 9/9/9
f 9/9/9 13/13/13 12/12/12
f 14/14/14 12/12/12 13/13/13
f 16/16/16 15/15/15 12/12/12
f 19/19/19 18/18/18 17/17/17
f 21/21/21 20/20/20 17/17/17
f 22/22/22 17/17/17 20/20/20
f 24/24/24 23/23/23 22/22/22
f 27/27/27 26/26/26 25/25/25
f 25/25/25 29/29/29 28/28/28
f 30/30/30 28/28/28 29/29/29
f 33/33/33 32/32/32 31/31/31
f 31/31/31 35/35/35 34/34/34
f 36/36/36 34/34/34 35/35/35
f 39/39/39 38/38/38 37/37/37
f 41/41/41 40/40/40 37/37/37
f 42/42/42 37/37/37 40/40/40
f 44/44/44 43/43/43 42/42/42
f 47/47/47 46/46/46 45/45/45
f 45/45/45 49/49/49 48/48/48
f 50/50/50 48/48/48 49/49/49
f 52/52/52 51/51/51 48/48/48
f 55/55/55 54/54/54 53/53/53
f 57/57/57 56/56/56 53/53/53
f 58/58/58 53/53/53 56/56/56
f 60/60/60 59/59/59 58/58/58
f 63/63/63 62/62/62 61/61/61
f 61/61/61 65/65/65 64/64/64
f 66/66/66 64/64/64 65/65/65
f 69/69/69 68/68/68 67/67/67
f 67/67/67 71/71/71 70/70/70
f 72/72/72 70/70/70 71/71/71
f 75/75/75 74/74/74 73/73/73
f 76/76/76 73/73/73 74/74/74
f 79/79/79 78/78/78 77/77/77
f 80/80/80 77/77/77 78/78/78
f 83/83/83 82/82/82 81/81/81
f 84/84/84 81/81/81 82/82/82
f 87/87/87 86/86/86 85/85/85
f 88/88/88 85/85/85 86/86/86
f 91/91/91 90/90/90 89/89/89
f 92/92/92 89/89/89 90/90/90
f 95/95/95 94/94/94 93/93/93
f 96/96/96 93/93/93 94/94/94
f 99/99/99 98/98/98 97/97/97
f 100/100/100 97/97/97 98/98/98
f 103/103/103 102/102/102 101/101/101
f 104/104/104 101/101/101 102/102/102
f 107/107/107 106/106/106 105/105/105
f 108/108/108 105/105/105 106/106/106
f 111/111/111 110/110/110 109/109/109
f 112/112/112 109/109/109 110/110/110
f 115/115/115 114/114/114 113/113/113
f 116/116/116 113/113/113 114/114/114
f 119/119/119 118/118/118 117/117/117
f 120/120/120 117/117/117 118/118/118
f 123/123/123 122/122/122 121/121/121
f 124/124/124 121/121/121 122/122/122
f 127/127/127 126/126/126 125/125/125
f 128/128/128 125/125/125 126/126/126
f 131/131/131 130/130/130 129/129/129
f 132/132/132 129/129/129 130/130/130
f 135/135/135 134/134/134 133/133/133
f 136/136/136 133/133/133 134/134/134
f 139/139/139 138/138/138 137/137/137
f 140/140/140 137/137/137 138/138/138
f 143/143/143 142/142/142 141/141/141
f 144/144/144 141/141/141 142/142/142
f 147/147/147 146/146/146 145/145/145
f 148/148/148 145/145/145 146/146/146
f 151/151/151 150/150/150 149/149/149
f 152/152/152 149/149/149 150/150/150
f 155/155/155 154/154/154 153/153/153
f 156/156/156 153/153/153 154/154/154
f 159/159/159 158/158/158 157/157/157
f 160/160/160 157/157/157 158/158/158
f 163/163/163 162/162/162 161/161/161
f 164/164/164 161/161/161 162/162/162
f 167/167/167 166/166/166 165/165/165
f 168/168/168 165/165/165 166/166/166
f 171/171/171 170/170/170 169/169/169
f 172/172/172 169/169/169 170/170/170
f 175/175/175 174/174/174 173/173/173
f 176/176/176 173/173/173 174/174/174
