g fx_billboard_tv1
v 0.081866995 2.6621597 0.45427027
v 0.08186746 1.0472387 0.45426935
v -0.5041302 1.0472387 0.45426935
v -1.090128 2.6621597 0.45427033
v -1.090128 1.0472392 0.45426935
vt 0.89913833 0.82547206
vt 0.8991376 0.18949257
vt 0.5491946 0.18949273
vt 0.19925112 0.82547224
vt 0.19925079 0.18949285
vn -0 -5.9467305E-07 1
vn -0 -5.9467305E-07 1
vn -0 -5.9467305E-07 1
vn -0 -5.9467305E-07 1
vn -0 -5.9467305E-07 1
g fx_billboard_tv1_0
f 3/3/3 2/2/2 1/1/1
f 1/1/1 4/4/4 3/3/3
f 4/4/4 5/5/5 3/3/3
