g fx_cyl_40dgree_vtcolor
v 0.6856447 8.2923407E-10 -0.21911992
v 0.6395957 1.7227388E-17 -0.2813446
v 0.6648144 1.0999894E-09 -0.2906652
v 0.65815145 1.2986981E-17 -0.2120935
v 0.5801351 1.5902205E-17 -0.2597027
v 0.70302093 5.5635835E-10 -0.1470141
v 0.59726346 1.1987983E-17 -0.19577861
v 0.5206745 1.457702E-17 -0.23806082
v 0.6736304 8.713354E-18 -0.14229988
v 0.71348935 2.7924044E-10 -0.073787294
v 0.53637546 1.0988984E-17 -0.17946373
v 0.46121386 1.3251836E-17 -0.2164189
v 0.68295574 4.3732874E-18 -0.0714212
v 0.7169966 5.453125E-16 8.4786315E-08
v 0.6115518 8.0430965E-18 -0.13135374
v 0.4754875 9.989984E-18 -0.16314884
v 0.40175322 1.1926653E-17 -0.19477703
v 0.6860801 -4.5256674E-24 7.390976E-08
v 0.7134893 -2.7923988E-10 0.073787615
v 0.62015975 4.036881E-18 -0.06592727
v 0.5494731 7.372839E-18 -0.12040759
v 0.41459954 8.990987E-18 -0.14683396
v 0.34229264 1.06014685E-17 -0.17313513
v 0.68295574 -4.3733056E-18 0.0714215
v 0.7030209 -5.563595E-10 0.14701463
v 0.62304366 -4.178943E-24 6.824732E-08
v 0.5573638 3.700474E-18 -0.060433324
v 0.48739448 6.7025804E-18 -0.10946145
v 0.35371155 7.9919875E-18 -0.13051906
v 0.28283203 9.2762855E-18 -0.15149324
v 0.67363036 -8.713386E-18 0.1423004
v 0.6856445 -8.2923635E-10 0.2191205
v 0.62015975 -4.0368974E-18 0.065927535
v 0.5600074 -3.8687155E-24 6.318092E-08
v 0.49456778 3.364067E-18 -0.05493938
v 0.42531577 6.032322E-18 -0.0985153
v 0.29282358 6.992989E-18 -0.114204176
v 0.22337143 7.9511016E-18 -0.12985134
v 0.6581514 -1.2987016E-17 0.21209407
v 0.66481423 -1.0999918E-09 0.29066578
v 0.63959545 -1.7227421E-17 0.28134513
v 0.3632371 5.362063E-18 -0.08756914
v 0.43177176 3.0276605E-18 -0.049445447
v 0.23193565 5.9939906E-18 -0.09788929
v 0.16391082 6.625918E-18 -0.10820945
v 0.6115517 -8.043126E-18 0.13135421
v 0.5972634 -1.1988016E-17 0.19577914
v 0.5801349 -1.5902235E-17 0.25970322
v 0.30115843 4.6918052E-18 -0.076623
v 0.17104766 4.9949918E-18 -0.08157441
v 0.104450226 5.3007343E-18 -0.086567566
v 0.55736375 -3.7004893E-18 0.060433578
v 0.5363754 -1.0989014E-17 0.17946422
v 0.52067435 -1.4577048E-17 0.23806126
v 0.54947305 -7.372865E-18 0.12040803
v 0.49697113 -3.485494E-24 5.6922435E-08
v 0.47548744 -9.9900125E-18 0.16314928
v 0.46121374 -1.3251862E-17 0.21641932
v 0.48739436 -6.702604E-18 0.10946183
v 0.49456778 -3.364081E-18 0.054939613
v 0.43393475 -3.0657746E-24 5.00679E-08
v 0.41459945 -8.99101E-18 0.14683434
v 0.40175316 -1.19266755E-17 0.19477738
v 0.4253157 -6.0323437E-18 0.098515645
v 0.43177176 -3.0276725E-18 0.049445648
v 0.36897576 2.6912536E-18 -0.043951504
v 0.35371146 -7.992009E-18 0.1305194
v 0.34229255 -1.0601488E-17 0.17313544
v 0.37089843 -2.764672E-24 4.5150518E-08
v 0.36323705 -5.3620833E-18 0.08756946
v 0.36897576 -2.6912648E-18 0.043951686
v 0.30617976 2.354847E-18 -0.038457565
v 0.29282355 -6.993007E-18 0.11420448
v 0.28283194 -9.276302E-18 0.15149352
v 0.30786204 -2.4453203E-24 3.993511E-08
v 0.30115837 -4.691822E-18 0.076623276
v 0.30617973 -2.3548566E-18 0.038457725
v 0.23907977 4.021548E-18 -0.06567686
v 0.23193558 -5.9940063E-18 0.09788956
v 0.22337134 -7.9511165E-18 0.12985158
v 0.24338378 2.01844E-18 -0.03296363
v 0.24482574 -2.0803471E-24 3.3974647E-08
v 0.23907974 -4.021562E-18 0.06567709
v 0.24338378 -2.0184485E-18 0.032963768
v 0.1770011 3.35129E-18 -0.05473072
v 0.17104761 -4.9950054E-18 0.081574626
v 0.16391075 -6.6259305E-18 0.108209655
v 0.18058778 1.6820335E-18 -0.02746969
v 0.18178943 -1.7153739E-24 2.8014183E-08
v 0.17700107 -3.3513016E-18 0.05473091
v 0.18058778 -1.6820403E-18 0.027469805
v 0.11015968 3.9959937E-18 -0.06525953
v 0.044989605 3.97555E-18 -0.06492566
v 0.11015964 -3.9960045E-18 0.0652597
v 0.104450166 -5.300744E-18 0.08656772
v 0.11492243 -2.6810413E-18 0.043784726
v 0.11779179 -1.3456321E-18 0.021975841
v 0.11875313 -1.3868981E-24 2.2649765E-08
v 0.114922464 2.6810315E-18 -0.04378457
v 0.049271695 2.9969953E-18 -0.048944645
v -0.014471025 2.650366E-18 -0.04328376
v -0.011616287 1.997996E-18 -0.03262975
v 0.11779179 1.3456267E-18 -0.02197575
v 0.05284378 2.0107735E-18 -0.032838427
v -0.009234915 1.3405154E-18 -0.021892278
v 0.054995764 1.0092199E-18 -0.016481811
v -0.007800245 6.728131E-19 -0.010987871
v 0.05571676 -1.0584223E-24 1.7285346E-08
v -0.0073195933 -6.9344907E-25 1.1324882E-08
v 0.054995764 -1.0092241E-18 0.01648188
v -0.0078002545 -6.7281584E-19 0.010987917
v 0.052843742 -2.010781E-18 0.032838546
v -0.009234933 -1.3405203E-18 0.021892356
v 0.049271658 -2.9970025E-18 0.048944768
v -0.011616316 -1.9980012E-18 0.032629836
v 0.044989545 -3.975558E-18 0.06492578
v -0.014471054 -2.650371E-18 0.043283843
vt 0.12328321 0.9957706
vt 3.7312508E-05 0.8603878
vt 3.7312508E-05 0.9957706
vt 0.12328321 0.86038786
vt 3.7297606E-05 0.74643725
vt 0.24749468 0.9957706
vt 0.1232832 0.74643725
vt 3.7252903E-05 0.66463494
vt 0.2474947 0.8603878
vt 0.37363735 0.9957706
vt 0.12328318 0.66463494
vt 3.72082E-05 0.6141773
vt 0.37363735 0.86038786
vt 0.50074565 0.9957706
vt 0.2474947 0.74643725
vt 0.123283155 0.6141773
vt 3.71933E-05 0.5580937
vt 0.50074565 0.8603878
vt 0.62785405 0.9957706
vt 0.37363735 0.74643725
vt 0.24749468 0.66463494
vt 0.12328315 0.5580937
vt 3.71933E-05 0.50174224
vt 0.62785405 0.8603878
vt 0.7539969 0.9957706
vt 0.50074565 0.74643725
vt 0.37363735 0.66463494
vt 0.24749467 0.6141772
vt 0.12328315 0.50174224
vt 3.71933E-05 0.43333513
vt 0.75399685 0.8603878
vt 0.8782084 0.9957705
vt 0.62785405 0.7464372
vt 0.50074565 0.66463494
vt 0.37363735 0.6141773
vt 0.24749467 0.5580937
vt 0.12328313 0.43333513
vt 3.71933E-05 0.37537622
vt 0.8782084 0.8603878
vt 1.0014542 0.9957705
vt 1.0014542 0.8603878
vt 0.24749467 0.5017422
vt 0.37363735 0.5580937
vt 0.12328312 0.37537622
vt 3.71933E-05 0.31045184
vt 0.7539968 0.7464372
vt 0.8782084 0.7464372
vt 1.0014542 0.7464372
vt 0.24749465 0.43333513
vt 0.12328312 0.31045184
vt 3.71933E-05 0.22811377
vt 0.62785405 0.6646349
vt 0.8782084 0.6646349
vt 1.0014542 0.6646349
vt 0.75399685 0.6646349
vt 0.50074565 0.6141772
vt 0.8782084 0.61417717
vt 1.0014541 0.61417717
vt 0.7539968 0.6141772
vt 0.627854 0.61417717
vt 0.50074565 0.5580937
vt 0.87820834 0.5580936
vt 1.0014541 0.5580936
vt 0.7539968 0.5580936
vt 0.627854 0.5580936
vt 0.37363732 0.50174224
vt 0.8782083 0.5017421
vt 1.0014541 0.5017421
vt 0.50074565 0.5017422
vt 0.7539968 0.5017421
vt 0.627854 0.5017421
vt 0.37363732 0.43333513
vt 0.8782083 0.433335
vt 1.0014541 0.433335
vt 0.5007456 0.4333351
vt 0.7539968 0.43333504
vt 0.627854 0.43333507
vt 0.24749464 0.37537622
vt 0.8782083 0.37537616
vt 1.0014541 0.3753761
vt 0.37363732 0.3753762
vt 0.50074553 0.37537616
vt 0.75399673 0.37537614
vt 0.627854 0.37537616
vt 0.24749462 0.3104518
vt 0.8782083 0.31045178
vt 1.0014541 0.31045175
vt 0.3736373 0.3104518
vt 0.5007456 0.3104518
vt 0.7539968 0.31045178
vt 0.627854 0.31045178
vt 0.12328312 0.22811377
vt 3.71933E-05 0.12139648
vt 0.8782083 0.22811371
vt 1.0014541 0.22811368
vt 0.75399673 0.22811371
vt 0.627854 0.22811371
vt 0.50074553 0.22811374
vt 0.24749464 0.22811374
vt 0.12328312 0.121396475
vt 3.71933E-05 0.0077137053
vt 0.12328312 0.007713696
vt 0.3736373 0.22811374
vt 0.24749462 0.12139647
vt 0.24749464 0.0077136867
vt 0.3736373 0.12139645
vt 0.3736373 0.0077136774
vt 0.5007456 0.121396445
vt 0.5007456 0.0077136676
vt 0.627854 0.12139644
vt 0.627854 0.0077136583
vt 0.7539968 0.12139642
vt 0.75399673 0.007713649
vt 0.8782083 0.121396415
vt 0.8782083 0.0077136396
vt 1.0014541 0.12139641
vt 1.0014541 0.0077136303
vn -0 1 0
vn -0 1 0
vn -0 1 0
vn -0 1 0
vn -0 1 0
vn -0 1 0
vn -0 1 0
vn -0 1 0
vn -0 1 0
vn -0 1 0
vn -0 1 0
vn -0 1 0
vn -0 1 0
vn -0 1 0
vn -0 1 0
vn -0 1 0
vn -0 1 0
vn -0 1 0
vn -0 1 0
vn -0 1 0
vn -0 1 0
vn -0 1 0
vn -0 1 0
vn -0 1 0
vn -0 1 0
vn -0 1 0
vn -0 1 0
vn -0 1 0
vn -0 1 0
vn -0 1 0
vn -0 1 0
vn -0 1 0
vn -0 1 0
vn -0 1 0
vn -0 1 0
vn -0 1 0
vn -0 1 0
vn -0 1 0
vn -0 1 0
vn -0 1 0
vn -0 1 0
vn -0 1 0
vn -0 1 0
vn -0 1 0
vn -0 1 0
vn -0 1 0
vn -0 1 0
vn -0 1 0
vn -0 1 0
vn -0 1 0
vn -0 1 0
vn -0 1 0
vn -0 1 0
vn -0 1 0
vn -0 1 0
vn -0 1 0
vn -0 1 0
vn -0 1 0
vn -0 1 0
vn -0 1 0
vn -0 1 0
vn -0 1 0
vn -0 1 0
vn -0 1 0
vn -0 1 0
vn -0 1 0
vn -0 1 0
vn -0 1 0
vn -0 1 0
vn -0 1 0
vn -0 1 0
vn -0 1 0
vn -0 1 0
vn -0 1 0
vn -0 1 0
vn -0 1 0
vn -0 1 0
vn -0 1 0
vn -0 1 0
vn -0 1 0
vn -0 1 0
vn -0 1 0
vn -0 1 0
vn -0 1 0
vn -0 1 0
vn -0 1 0
vn -0 1 0
vn -0 1 0
vn -0 1 0
vn -0 1 0
vn -0 1 0
vn -0 1 0
vn -0 1 0
vn -0 1 0
vn -0 1 0
vn -0 1 0
vn -0 1 0
vn -0 1 0
vn -0 1 0
vn -0 1 0
vn -0 1 0
vn -0 1 0
vn -0 1 0
vn -0 1 0
vn -0 1 0
vn -0 1 0
vn -0 1 0
vn -0 1 0
vn -0 1 0
vn -0 1 0
vn -0 1 0
vn -0 1 0
vn -0 1 0
vn -0 1 0
vn -0 1 0
vn -0 1 0
vn -0 1 0
g fx_cyl_40dgree_vtcolor_0
f 3/3/3 2/2/2 1/1/1
f 4/4/4 1/1/1 2/2/2
f 2/2/2 5/5/5 4/4/4
f 1/1/1 4/4/4 6/6/6
f 7/7/7 4/4/4 5/5/5
f 5/5/5 8/8/8 7/7/7
f 9/9/9 6/6/6 4/4/4
f 4/4/4 7/7/7 9/9/9
f 6/6/6 9/9/9 10/10/10
f 11/11/11 7/7/7 8/8/8
f 8/8/8 12/12/12 11/11/11
f 13/13/13 10/10/10 9/9/9
f 10/10/10 13/13/13 14/14/14
f 15/15/15 9/9/9 7/7/7
f 7/7/7 11/11/11 15/15/15
f 9/9/9 15/15/15 13/13/13
f 16/16/16 11/11/11 12/12/12
f 12/12/12 17/17/17 16/16/16
f 18/18/18 14/14/14 13/13/13
f 14/14/14 18/18/18 19/19/19
f 20/20/20 13/13/13 15/15/15
f 13/13/13 20/20/20 18/18/18
f 21/21/21 15/15/15 11/11/11
f 11/11/11 16/16/16 21/21/21
f 15/15/15 21/21/21 20/20/20
f 22/22/22 16/16/16 17/17/17
f 17/17/17 23/23/23 22/22/22
f 24/24/24 19/19/19 18/18/18
f 19/19/19 24/24/24 25/25/25
f 26/26/26 18/18/18 20/20/20
f 18/18/18 26/26/26 24/24/24
f 27/27/27 20/20/20 21/21/21
f 20/20/20 27/27/27 26/26/26
f 28/28/28 21/21/21 16/16/16
f 16/16/16 22/22/22 28/28/28
f 21/21/21 28/28/28 27/27/27
f 29/29/29 22/22/22 23/23/23
f 23/23/23 30/30/30 29/29/29
f 31/31/31 25/25/25 24/24/24
f 25/25/25 31/31/31 32/32/32
f 33/33/33 24/24/24 26/26/26
f 24/24/24 33/33/33 31/31/31
f 34/34/34 26/26/26 27/27/27
f 26/26/26 34/34/34 33/33/33
f 35/35/35 27/27/27 28/28/28
f 27/27/27 35/35/35 34/34/34
f 36/36/36 28/28/28 22/22/22
f 22/22/22 29/29/29 36/36/36
f 28/28/28 36/36/36 35/35/35
f 37/37/37 29/29/29 30/30/30
f 30/30/30 38/38/38 37/37/37
f 39/39/39 32/32/32 31/31/31
f 32/32/32 39/39/39 40/40/40
f 41/41/41 40/40/40 39/39/39
f 42/42/42 36/36/36 29/29/29
f 29/29/29 37/37/37 42/42/42
f 43/43/43 35/35/35 36/36/36
f 36/36/36 42/42/42 43/43/43
f 44/44/44 37/37/37 38/38/38
f 38/38/38 45/45/45 44/44/44
f 31/31/31 46/46/46 39/39/39
f 46/46/46 31/31/31 33/33/33
f 39/39/39 47/47/47 41/41/41
f 47/47/47 39/39/39 46/46/46
f 48/48/48 41/41/41 47/47/47
f 49/49/49 42/42/42 37/37/37
f 37/37/37 44/44/44 49/49/49
f 50/50/50 44/44/44 45/45/45
f 45/45/45 51/51/51 50/50/50
f 33/33/33 52/52/52 46/46/46
f 52/52/52 33/33/33 34/34/34
f 47/47/47 53/53/53 48/48/48
f 54/54/54 48/48/48 53/53/53
f 46/46/46 55/55/55 47/47/47
f 55/55/55 46/46/46 52/52/52
f 53/53/53 47/47/47 55/55/55
f 34/34/34 56/56/56 52/52/52
f 56/56/56 34/34/34 35/35/35
f 35/35/35 43/43/43 56/56/56
f 53/53/53 57/57/57 54/54/54
f 58/58/58 54/54/54 57/57/57
f 55/55/55 59/59/59 53/53/53
f 57/57/57 53/53/53 59/59/59
f 52/52/52 60/60/60 55/55/55
f 60/60/60 52/52/52 56/56/56
f 59/59/59 55/55/55 60/60/60
f 61/61/61 56/56/56 43/43/43
f 56/56/56 61/61/61 60/60/60
f 57/57/57 62/62/62 58/58/58
f 63/63/63 58/58/58 62/62/62
f 59/59/59 64/64/64 57/57/57
f 62/62/62 57/57/57 64/64/64
f 60/60/60 65/65/65 59/59/59
f 65/65/65 60/60/60 61/61/61
f 64/64/64 59/59/59 65/65/65
f 43/43/43 66/66/66 61/61/61
f 66/66/66 43/43/43 42/42/42
f 42/42/42 49/49/49 66/66/66
f 62/62/62 67/67/67 63/63/63
f 68/68/68 63/63/63 67/67/67
f 61/61/61 69/69/69 65/65/65
f 69/69/69 61/61/61 66/66/66
f 64/64/64 70/70/70 62/62/62
f 67/67/67 62/62/62 70/70/70
f 65/65/65 71/71/71 64/64/64
f 71/71/71 65/65/65 69/69/69
f 70/70/70 64/64/64 71/71/71
f 72/72/72 66/66/66 49/49/49
f 66/66/66 72/72/72 69/69/69
f 67/67/67 73/73/73 68/68/68
f 74/74/74 68/68/68 73/73/73
f 69/69/69 75/75/75 71/71/71
f 75/75/75 69/69/69 72/72/72
f 70/70/70 76/76/76 67/67/67
f 73/73/73 67/67/67 76/76/76
f 71/71/71 77/77/77 70/70/70
f 77/77/77 71/71/71 75/75/75
f 76/76/76 70/70/70 77/77/77
f 49/49/49 78/78/78 72/72/72
f 78/78/78 49/49/49 44/44/44
f 44/44/44 50/50/50 78/78/78
f 73/73/73 79/79/79 74/74/74
f 80/80/80 74/74/74 79/79/79
f 72/72/72 81/81/81 75/75/75
f 81/81/81 72/72/72 78/78/78
f 75/75/75 82/82/82 77/77/77
f 82/82/82 75/75/75 81/81/81
f 76/76/76 83/83/83 73/73/73
f 79/79/79 73/73/73 83/83/83
f 77/77/77 84/84/84 76/76/76
f 84/84/84 77/77/77 82/82/82
f 83/83/83 76/76/76 84/84/84
f 85/85/85 78/78/78 50/50/50
f 78/78/78 85/85/85 81/81/81
f 79/79/79 86/86/86 80/80/80
f 87/87/87 80/80/80 86/86/86
f 81/81/81 88/88/88 82/82/82
f 88/88/88 81/81/81 85/85/85
f 82/82/82 89/89/89 84/84/84
f 89/89/89 82/82/82 88/88/88
f 83/83/83 90/90/90 79/79/79
f 86/86/86 79/79/79 90/90/90
f 84/84/84 91/91/91 83/83/83
f 91/91/91 84/84/84 89/89/89
f 90/90/90 83/83/83 91/91/91
f 50/50/50 92/92/92 85/85/85
f 92/92/92 50/50/50 51/51/51
f 51/51/51 93/93/93 92/92/92
f 86/86/86 94/94/94 87/87/87
f 95/95/95 87/87/87 94/94/94
f 90/90/90 96/96/96 86/86/86
f 94/94/94 86/86/86 96/96/96
f 91/91/91 97/97/97 90/90/90
f 96/96/96 90/90/90 97/97/97
f 89/89/89 98/98/98 91/91/91
f 97/97/97 91/91/91 98/98/98
f 99/99/99 85/85/85 92/92/92
f 85/85/85 99/99/99 88/88/88
f 100/100/100 92/92/92 93/93/93
f 92/92/92 100/100/100 99/99/99
f 93/93/93 101/101/101 100/100/100
f 102/102/102 100/100/100 101/101/101
f 88/88/88 103/103/103 89/89/89
f 103/103/103 88/88/88 99/99/99
f 98/98/98 89/89/89 103/103/103
f 104/104/104 99/99/99 100/100/100
f 100/100/100 102/102/102 104/104/104
f 99/99/99 104/104/104 103/103/103
f 105/105/105 104/104/104 102/102/102
f 106/106/106 103/103/103 104/104/104
f 104/104/104 105/105/105 106/106/106
f 103/103/103 106/106/106 98/98/98
f 107/107/107 106/106/106 105/105/105
f 108/108/108 98/98/98 106/106/106
f 106/106/106 107/107/107 108/108/108
f 98/98/98 108/108/108 97/97/97
f 109/109/109 108/108/108 107/107/107
f 110/110/110 97/97/97 108/108/108
f 108/108/108 109/109/109 110/110/110
f 97/97/97 110/110/110 96/96/96
f 111/111/111 110/110/110 109/109/109
f 112/112/112 96/96/96 110/110/110
f 110/110/110 111/111/111 112/112/112
f 96/96/96 112/112/112 94/94/94
f 113/113/113 112/112/112 111/111/111
f 114/114/114 94/94/94 112/112/112
f 112/112/112 113/113/113 114/114/114
f 94/94/94 114/114/114 95/95/95
f 115/115/115 114/114/114 113/113/113
f 116/116/116 95/95/95 114/114/114
f 114/114/114 115/115/115 116/116/116
f 117/117/117 116/116/116 115/115/115
