g fx_cwp_clb_lina_cyl
v -0.060915288 0.5014137 -0.10080465
v -0.026004694 0.4126646 -0.14173484
v -0.021155676 0.5014137 -0.11463088
v -0.07487736 0.4126646 -0.124639474
v -0.0933276 0.5014137 -0.07481983
v -0.027911998 0.32939637 -0.15506096
v -0.11471873 0.4126646 -0.09251071
v -0.11448326 0.50141364 -0.039810658
v -0.08036918 0.3293964 -0.13635828
v -0.028135173 0.24287464 -0.15956163
v -0.14072335 0.41266456 -0.0492238
v -0.121830486 0.5014136 2.9833495E-07
v -0.123132706 0.32939637 -0.10120873
v -0.08101175 0.24287464 -0.14031611
v -0.027110895 0.16802907 -0.15375262
v -0.1497546 0.41266456 2.7101325E-07
v -0.11448317 0.5014136 0.03981133
v -0.15104456 0.3293963 -0.053851932
v -0.12411712 0.24287464 -0.10414636
v -0.07806243 0.1680291 -0.13520776
v -0.024029946 0.10804268 -0.13627975
v -0.1407232 0.41266453 0.04922443
v -0.09332747 0.5014136 0.07482047
v -0.1607382 0.3293963 2.3693215E-07
v -0.15225215 0.24287464 -0.055415027
v -0.11959849 0.16802907 -0.10035481
v -0.069191195 0.108042695 -0.11984237
v -0.021438688 0.07770154 -0.12158399
v -0.061729975 0.077701524 -0.10691913
v -0.10600698 0.10804268 -0.08895021
v -0.094575725 0.07770153 -0.07935825
v -0.11471858 0.41266447 0.09251131
v -0.06091512 0.5014136 0.100805156
v -0.15104444 0.32939628 0.053852495
v -0.1620233 0.24287459 1.9601022E-07
v -0.14670923 0.16802905 -0.053397607
v -0.13003676 0.10804266 -0.04732936
v -0.11601426 0.077701524 -0.042225603
v -0.07487716 0.41266447 0.12463997
v -0.021155505 0.5014136 0.11463129
v -0.123132505 0.32939628 0.10120925
v -0.15225203 0.24287458 0.055415515
v -0.15612467 0.16802903 1.5646584E-07
v -0.1383822 0.108042635 1.1856812E-07
v -0.123459734 0.07770151 9.300027E-08
v -0.026004478 0.41266444 0.14173527
v 0.021155786 0.50141364 0.114631325
v -0.08036897 0.32939625 0.1363587
v -0.12411695 0.24287455 0.1041468
v -0.14670913 0.168029 0.053398013
v -0.13003668 0.10804261 0.047329687
v -0.116014175 0.077701494 0.04222586
v 0.026004732 0.41266447 0.14173521
v 0.060915384 0.50141364 0.100805074
v -0.027911766 0.3293962 0.1550613
v -0.081011534 0.2428745 0.14031646
v -0.11959833 0.16802898 0.10035518
v -0.10600683 0.1080426 0.08895049
v -0.094575584 0.07770147 0.07935849
v 0.07487738 0.41266444 0.12463983
v 0.09332769 0.50141364 0.07482029
v 0.027912006 0.3293962 0.15506123
v -0.028134933 0.24287449 0.1595619
v -0.078062214 0.16802898 0.13520803
v -0.06919101 0.10804259 0.119842544
v -0.0617298 0.07770145 0.10691929
v 0.11471872 0.41266444 0.09251107
v 0.11448329 0.5014137 0.03981111
v 0.08036916 0.3293962 0.13635853
v 0.028135141 0.2428745 0.15956184
v -0.027110664 0.16802892 0.1537528
v -0.02402974 0.108042546 0.13627985
v -0.021438507 0.07770145 0.12158412
v 0.14072332 0.41266447 0.049224153
v 0.12183057 0.5014137 1.5145227E-07
v 0.12313262 0.3293962 0.101209
v 0.08101168 0.2428745 0.1403163
v 0.027110826 0.16802894 0.15375276
v 0.024029855 0.10804255 0.1362798
v 0.021438574 0.07770145 0.12158399
v 0.14975457 0.41266447 9.026337E-08
v 0.11448325 0.50141376 -0.0398108
v 0.15104447 0.32939625 0.053852208
v 0.12411703 0.2428745 0.104146555
v 0.07806234 0.16802892 0.13520788
v 0.06919109 0.10804252 0.11984241
v 0.061729826 0.07770146 0.106919155
v 0.14072323 0.41266453 -0.04922396
v 0.09332759 0.5014137 -0.07481994
v 0.16073814 0.32939625 4.221586E-08
v 0.15225205 0.2428745 0.055415213
v 0.119598374 0.16802894 0.100354925
v 0.106006846 0.108042546 0.08895028
v 0.09457558 0.07770146 0.07935829
v 0.11471859 0.41266456 -0.09251086
v 0.060915243 0.5014137 -0.10080467
v 0.1510444 0.32939628 -0.053852096
v 0.1620232 0.24287455 -1.0522764E-09
v 0.1467091 0.16802897 0.053397723
v 0.13003662 0.10804257 0.04732943
v 0.11601407 0.077701464 0.042225637
v 0.074877225 0.41266456 -0.12463956
v 0.021155631 0.50141376 -0.11463082
v 0.12313247 0.3293963 -0.10120887
v 0.15225196 0.24287456 -0.0554152
v 0.15612452 0.168029 -3.3422324E-08
v 0.13838205 0.10804259 -4.97406E-08
v 0.12345958 0.07770148 -5.7158953E-08
v 0.026004536 0.4126646 -0.14173487
v -0.021155676 0.5014137 -0.11463088
v -0.026004694 0.4126646 -0.14173484
v 0.08036898 0.32939637 -0.13635837
v 0.027911795 0.32939637 -0.15506098
v -0.027911998 0.32939637 -0.15506096
v 0.1241169 0.24287459 -0.104146495
v 0.14670902 0.16802903 -0.053397767
v 0.13003656 0.10804262 -0.047329497
v 0.11601402 0.077701494 -0.042225733
v 0.028134922 0.24287465 -0.15956166
v -0.028135173 0.24287464 -0.15956163
v 0.081011504 0.24287464 -0.14031619
v 0.11959824 0.16802904 -0.10035495
v 0.10600673 0.108042635 -0.08895033
v 0.09457544 0.07770152 -0.07935838
v 0.07806216 0.16802904 -0.13520782
v 0.027110614 0.1680291 -0.15375265
v -0.027110895 0.16802907 -0.15375262
v 0.06919093 0.108042635 -0.119842425
v 0.061729692 0.077701546 -0.10691922
v 0.024029667 0.10804269 -0.13627975
v -0.024029946 0.10804268 -0.13627975
v 0.021438407 0.07770153 -0.12158407
v -0.021438688 0.07770154 -0.12158399
vt 0.94613606 0
vt 1.0016916 0.125
vt 1.0016916 0
vt 0.94613606 0.125
vt 0.8905805 0
vt 1.0016916 0.25
vt 0.8905805 0.125
vt 0.83502495 0
vt 0.94613606 0.25
vt 1.0016916 0.375
vt 0.83502495 0.125
vt 0.7794694 0
vt 0.8905805 0.25
vt 0.94613606 0.375
vt 1.0016916 0.49999997
vt 0.7794694 0.125
vt 0.72391367 0
vt 0.83502495 0.25
vt 0.8905805 0.375
vt 0.94613606 0.49999997
vt 1.0016916 0.62499994
vt 0.72391367 0.125
vt 0.66835815 0
vt 0.7794694 0.25
vt 0.83502495 0.375
vt 0.8905805 0.49999997
vt 0.94613606 0.62499994
vt 1.0016916 0.75
vt 0.94613606 0.75
vt 0.8905805 0.62499994
vt 0.8905805 0.75
vt 0.66835815 0.125
vt 0.6128026 0
vt 0.72391367 0.25
vt 0.7794694 0.375
vt 0.83502495 0.49999997
vt 0.83502495 0.62499994
vt 0.83502495 0.75
vt 0.6128026 0.125
vt 0.5572471 0
vt 0.66835815 0.25
vt 0.72391367 0.375
vt 0.7794694 0.49999997
vt 0.7794694 0.62499994
vt 0.7794694 0.75
vt 0.5572471 0.125
vt 0.5016915 0
vt 0.6128026 0.25
vt 0.66835815 0.375
vt 0.72391367 0.49999997
vt 0.72391367 0.62499994
vt 0.72391367 0.75
vt 0.5016915 0.125
vt 0.44613597 0
vt 0.5572471 0.25
vt 0.6128026 0.375
vt 0.66835815 0.49999997
vt 0.66835815 0.62499994
vt 0.66835815 0.75
vt 0.44613597 0.125
vt 0.39058042 0
vt 0.5016915 0.25
vt 0.5572471 0.375
vt 0.6128026 0.49999997
vt 0.6128026 0.62499994
vt 0.6128026 0.75
vt 0.39058042 0.125
vt 0.33502486 0
vt 0.44613597 0.25
vt 0.5016915 0.375
vt 0.5572471 0.49999997
vt 0.5572471 0.62499994
vt 0.5572471 0.75
vt 0.33502486 0.125
vt 0.2794693 0
vt 0.39058042 0.25
vt 0.44613597 0.375
vt 0.5016915 0.49999997
vt 0.5016915 0.62499994
vt 0.5016915 0.75
vt 0.2794693 0.125
vt 0.22391379 0
vt 0.33502486 0.25
vt 0.39058042 0.375
vt 0.44613597 0.49999997
vt 0.44613597 0.62499994
vt 0.44613597 0.75
vt 0.22391379 0.125
vt 0.16835824 0
vt 0.2794693 0.25
vt 0.33502486 0.375
vt 0.39058042 0.49999997
vt 0.39058042 0.62499994
vt 0.39058042 0.75
vt 0.16835824 0.125
vt 0.11280269 0
vt 0.22391379 0.25
vt 0.2794693 0.375
vt 0.33502486 0.49999997
vt 0.33502486 0.62499994
vt 0.33502486 0.75
vt 0.11280269 0.125
vt 0.05724717 0
vt 0.16835824 0.25
vt 0.22391379 0.375
vt 0.2794693 0.49999997
vt 0.2794693 0.62499994
vt 0.2794693 0.75
vt 0.05724717 0.125
vt 0.0016915556 0
vt 0.0016915556 0.125
vt 0.11280269 0.25
vt 0.05724717 0.25
vt 0.0016915556 0.25
vt 0.16835824 0.375
vt 0.22391379 0.49999997
vt 0.22391379 0.62499994
vt 0.22391379 0.75
vt 0.05724717 0.375
vt 0.0016915556 0.375
vt 0.11280269 0.375
vt 0.16835824 0.49999997
vt 0.16835824 0.62499994
vt 0.16835824 0.75
vt 0.11280269 0.49999997
vt 0.05724717 0.49999997
vt 0.0016915556 0.49999997
vt 0.11280269 0.62499994
vt 0.11280269 0.75
vt 0.05724717 0.62499994
vt 0.0016915556 0.62499994
vt 0.05724717 0.75
vt 0.0016915556 0.75
vn -0.48532858 -0.0019062174 -0.87432975
vn -0.16818658 -0.0011320555 -0.9857545
vn -0.16713452 -0.00041586946 -0.9859341
vn -0.48771062 -0.005177107 -0.87299
vn -0.7534344 -0.0042352895 -0.6575093
vn -0.1705303 -0.0020543989 -0.98535025
vn -0.75546676 -0.011448682 -0.6550869
vn -0.9352274 -0.0063310205 -0.35399103
vn -0.49297777 -0.009357689 -0.8699916
vn -0.17232303 -0.040267047 -0.98421717
vn -0.9358497 -0.017038656 -0.35198706
vn -0.99997437 -0.007171544 9.1535446E-07
vn -0.75989604 -0.020637404 -0.6497169
vn -0.49686036 -0.04425244 -0.8667016
vn -0.17109162 -0.17097715 -0.97030634
vn -0.99981445 -0.019265842 9.386495E-07
vn -0.93522674 -0.0063314335 0.3539925
vn -0.93714875 -0.03064721 -0.3475817
vn -0.76281756 -0.05042308 -0.64464474
vn -0.49263796 -0.17097719 -0.8532729
vn -0.16146114 -0.3680257 -0.9156895
vn -0.9358492 -0.017039038 0.35198852
vn -0.7534335 -0.0042358595 0.65751046
vn -0.9994005 -0.034623865 9.4488377E-07
vn -0.9374355 -0.055913843 -0.3436396
vn -0.7547647 -0.17097726 -0.6333222
vn -0.46490824 -0.3680257 -0.80524373
vn -0.1329211 -0.6434823 -0.75383186
vn -0.38273075 -0.6434823 -0.66290843
vn -0.7122803 -0.36802587 -0.5976737
vn -0.5863773 -0.6434822 -0.49202868
vn -0.7554657 -0.01144937 0.6550881
vn -0.4853273 -0.0019068981 0.87433046
vn -0.93714815 -0.030647509 0.34758332
vn -0.9983109 -0.058098897 8.854725E-07
vn -0.92585576 -0.17097737 -0.33698347
vn -0.8737409 -0.36802602 -0.31801534
vn -0.719298 -0.64348245 -0.26180285
vn -0.48770937 -0.0051779775 0.8729906
vn -0.16713314 -0.00041666243 0.9859343
vn -0.759895 -0.020638045 0.6497181
vn -0.937435 -0.055914056 0.34364116
vn -0.9852749 -0.17097749 7.461843E-07
vn -0.9298154 -0.3680261 5.4485065E-07
vn -0.76546085 -0.6434825 2.7570022E-07
vn -0.1681852 -0.0011330204 0.9857547
vn 0.16713503 -0.000416721 0.98593396
vn -0.4929764 -0.009358603 0.8699923
vn -0.7628166 -0.050423577 0.64464587
vn -0.9258553 -0.17097764 0.33698478
vn -0.8737403 -0.3680263 0.31801638
vn -0.71929765 -0.6434827 0.26180342
vn 0.16818713 -0.0011330908 0.9857544
vn 0.485329 -0.0019070769 0.87432957
vn -0.17052887 -0.0020554347 0.9853506
vn -0.49685895 -0.044253208 0.8667023
vn -0.75476366 -0.17097783 0.63332325
vn -0.7122793 -0.36802644 0.5976745
vn -0.5863765 -0.6434827 0.49202913
vn 0.48771104 -0.0051781945 0.87298983
vn 0.7534347 -0.004236049 0.657509
vn 0.17053089 -0.0020555106 0.98535013
vn -0.17232157 -0.040267985 0.9842174
vn -0.4926365 -0.17097796 0.8532735
vn -0.464907 -0.3680265 0.805244
vn -0.3827297 -0.6434829 0.6629085
vn 0.75546694 -0.011449682 0.65508676
vn 0.93522745 -0.006331566 0.35399094
vn 0.49297816 -0.009358832 0.86999136
vn 0.1723236 -0.040268037 0.9842169
vn -0.17109019 -0.17097811 0.97030646
vn -0.16145985 -0.36802664 0.9156894
vn -0.13292003 -0.64348304 0.75383157
vn 0.9358497 -0.017039359 0.35198703
vn 0.99997437 -0.007171755 -7.098083E-07
vn 0.7598961 -0.020638412 0.6497168
vn 0.49686068 -0.044253394 0.8667013
vn 0.17109215 -0.17097817 0.97030616
vn 0.16146162 -0.3680267 0.9156891
vn 0.13292164 -0.6434831 0.75383115
vn 0.99981445 -0.019266166 -7.5420076E-07
vn 0.93522686 -0.0063312966 -0.35399222
vn 0.9371487 -0.030647997 0.34758183
vn 0.76281774 -0.050423898 0.64464456
vn 0.4926382 -0.17097817 0.85327256
vn 0.46490833 -0.36802676 0.80524313
vn 0.3827308 -0.64348304 0.66290784
vn 0.9358492 -0.017039077 -0.35198838
vn 0.7534338 -0.0042354926 -0.65751004
vn 0.9994004 -0.034624387 -8.04343E-07
vn 0.9374355 -0.055914544 0.34363943
vn 0.75476485 -0.17097811 0.63332194
vn 0.71228033 -0.36802664 0.5976732
vn 0.58637714 -0.6434831 0.4920278
vn 0.7554661 -0.011449104 -0.65508777
vn 0.48532778 -0.0019063323 -0.87433016
vn 0.93714815 -0.030647645 -0.3475832
vn 0.9983108 -0.058099385 -7.911996E-07
vn 0.92585576 -0.17097802 0.33698308
vn 0.8737409 -0.36802658 0.31801477
vn 0.7192978 -0.64348286 0.26180217
vn 0.4877099 -0.0051773437 -0.8729904
vn 0.16713361 -0.00041590974 -0.9859342
vn 0.7598954 -0.020637745 -0.6497178
vn 0.9374351 -0.055914126 -0.34364092
vn 0.9852749 -0.17097783 -7.675512E-07
vn 0.92981535 -0.36802638 -7.8572964E-07
vn 0.76546055 -0.6434828 -7.994616E-07
vn 0.16818571 -0.0011321154 -0.9857546
vn -0.16713452 -0.00041586946 -0.9859341
vn -0.16818658 -0.0011320555 -0.9857545
vn 0.49297693 -0.009357924 -0.86999196
vn 0.17052948 -0.0020544766 -0.9853505
vn -0.1705303 -0.0020543989 -0.98535025
vn 0.76281697 -0.0504232 -0.6446456
vn 0.9258553 -0.17097764 -0.3369845
vn 0.87374043 -0.36802623 -0.31801626
vn 0.7192974 -0.64348274 -0.26180375
vn 0.17232218 -0.040267102 -0.9842173
vn -0.17232303 -0.040267047 -0.98421717
vn 0.49685952 -0.044252545 -0.86670196
vn 0.75476396 -0.17097744 -0.633323
vn 0.71227956 -0.36802614 -0.5976744
vn 0.5863763 -0.6434827 -0.49202928
vn 0.49263704 -0.17097732 -0.85327345
vn 0.17109075 -0.17097718 -0.97030646
vn -0.17109162 -0.17097715 -0.97030634
vn 0.4649072 -0.368026 -0.8052441
vn 0.3827298 -0.6434825 -0.66290885
vn 0.16146033 -0.36802587 -0.91568965
vn -0.16146114 -0.3680257 -0.9156895
vn 0.13292055 -0.64348245 -0.75383186
vn -0.1329211 -0.6434823 -0.75383186
g fx_cwp_clb_lina_cyl_0
f 3/3/3 2/2/2 1/1/1
f 2/2/2 4/4/4 1/1/1
f 1/1/1 4/4/4 5/5/5
f 2/2/2 6/6/6 4/4/4
f 4/4/4 7/7/7 5/5/5
f 5/5/5 7/7/7 8/8/8
f 6/6/6 9/9/9 4/4/4
f 4/4/4 9/9/9 7/7/7
f 6/6/6 10/10/10 9/9/9
f 7/7/7 11/11/11 8/8/8
f 8/8/8 11/11/11 12/12/12
f 9/9/9 13/13/13 7/7/7
f 7/7/7 13/13/13 11/11/11
f 10/10/10 14/14/14 9/9/9
f 9/9/9 14/14/14 13/13/13
f 10/10/10 15/15/15 14/14/14
f 11/11/11 16/16/16 12/12/12
f 12/12/12 16/16/16 17/17/17
f 13/13/13 18/18/18 11/11/11
f 11/11/11 18/18/18 16/16/16
f 14/14/14 19/19/19 13/13/13
f 13/13/13 19/19/19 18/18/18
f 15/15/15 20/20/20 14/14/14
f 14/14/14 20/20/20 19/19/19
f 15/15/15 21/21/21 20/20/20
f 16/16/16 22/22/22 17/17/17
f 17/17/17 22/22/22 23/23/23
f 18/18/18 24/24/24 16/16/16
f 16/16/16 24/24/24 22/22/22
f 19/19/19 25/25/25 18/18/18
f 18/18/18 25/25/25 24/24/24
f 20/20/20 26/26/26 19/19/19
f 19/19/19 26/26/26 25/25/25
f 21/21/21 27/27/27 20/20/20
f 20/20/20 27/27/27 26/26/26
f 21/21/21 28/28/28 27/27/27
f 28/28/28 29/29/29 27/27/27
f 27/27/27 29/29/29 30/30/30
f 27/27/27 30/30/30 26/26/26
f 29/29/29 31/31/31 30/30/30
f 22/22/22 32/32/32 23/23/23
f 23/23/23 32/32/32 33/33/33
f 24/24/24 34/34/34 22/22/22
f 22/22/22 34/34/34 32/32/32
f 25/25/25 35/35/35 24/24/24
f 24/24/24 35/35/35 34/34/34
f 26/26/26 36/36/36 25/25/25
f 26/26/26 30/30/30 36/36/36
f 25/25/25 36/36/36 35/35/35
f 30/30/30 31/31/31 37/37/37
f 30/30/30 37/37/37 36/36/36
f 31/31/31 38/38/38 37/37/37
f 32/32/32 39/39/39 33/33/33
f 33/33/33 39/39/39 40/40/40
f 34/34/34 41/41/41 32/32/32
f 32/32/32 41/41/41 39/39/39
f 35/35/35 42/42/42 34/34/34
f 34/34/34 42/42/42 41/41/41
f 36/36/36 43/43/43 35/35/35
f 36/36/36 37/37/37 43/43/43
f 35/35/35 43/43/43 42/42/42
f 37/37/37 38/38/38 44/44/44
f 37/37/37 44/44/44 43/43/43
f 38/38/38 45/45/45 44/44/44
f 39/39/39 46/46/46 40/40/40
f 40/40/40 46/46/46 47/47/47
f 41/41/41 48/48/48 39/39/39
f 39/39/39 48/48/48 46/46/46
f 42/42/42 49/49/49 41/41/41
f 41/41/41 49/49/49 48/48/48
f 43/43/43 50/50/50 42/42/42
f 43/43/43 44/44/44 50/50/50
f 42/42/42 50/50/50 49/49/49
f 44/44/44 45/45/45 51/51/51
f 44/44/44 51/51/51 50/50/50
f 45/45/45 52/52/52 51/51/51
f 46/46/46 53/53/53 47/47/47
f 47/47/47 53/53/53 54/54/54
f 48/48/48 55/55/55 46/46/46
f 46/46/46 55/55/55 53/53/53
f 49/49/49 56/56/56 48/48/48
f 48/48/48 56/56/56 55/55/55
f 50/50/50 57/57/57 49/49/49
f 50/50/50 51/51/51 57/57/57
f 49/49/49 57/57/57 56/56/56
f 51/51/51 52/52/52 58/58/58
f 51/51/51 58/58/58 57/57/57
f 52/52/52 59/59/59 58/58/58
f 53/53/53 60/60/60 54/54/54
f 54/54/54 60/60/60 61/61/61
f 55/55/55 62/62/62 53/53/53
f 53/53/53 62/62/62 60/60/60
f 56/56/56 63/63/63 55/55/55
f 55/55/55 63/63/63 62/62/62
f 57/57/57 64/64/64 56/56/56
f 57/57/57 58/58/58 64/64/64
f 56/56/56 64/64/64 63/63/63
f 58/58/58 59/59/59 65/65/65
f 58/58/58 65/65/65 64/64/64
f 59/59/59 66/66/66 65/65/65
f 60/60/60 67/67/67 61/61/61
f 61/61/61 67/67/67 68/68/68
f 62/62/62 69/69/69 60/60/60
f 60/60/60 69/69/69 67/67/67
f 63/63/63 70/70/70 62/62/62
f 62/62/62 70/70/70 69/69/69
f 64/64/64 71/71/71 63/63/63
f 64/64/64 65/65/65 71/71/71
f 63/63/63 71/71/71 70/70/70
f 65/65/65 66/66/66 72/72/72
f 65/65/65 72/72/72 71/71/71
f 66/66/66 73/73/73 72/72/72
f 67/67/67 74/74/74 68/68/68
f 68/68/68 74/74/74 75/75/75
f 69/69/69 76/76/76 67/67/67
f 67/67/67 76/76/76 74/74/74
f 70/70/70 77/77/77 69/69/69
f 69/69/69 77/77/77 76/76/76
f 71/71/71 78/78/78 70/70/70
f 71/71/71 72/72/72 78/78/78
f 70/70/70 78/78/78 77/77/77
f 72/72/72 73/73/73 79/79/79
f 72/72/72 79/79/79 78/78/78
f 73/73/73 80/80/80 79/79/79
f 74/74/74 81/81/81 75/75/75
f 75/75/75 81/81/81 82/82/82
f 76/76/76 83/83/83 74/74/74
f 74/74/74 83/83/83 81/81/81
f 77/77/77 84/84/84 76/76/76
f 76/76/76 84/84/84 83/83/83
f 78/78/78 85/85/85 77/77/77
f 78/78/78 79/79/79 85/85/85
f 77/77/77 85/85/85 84/84/84
f 79/79/79 80/80/80 86/86/86
f 79/79/79 86/86/86 85/85/85
f 80/80/80 87/87/87 86/86/86
f 81/81/81 88/88/88 82/82/82
f 82/82/82 88/88/88 89/89/89
f 83/83/83 90/90/90 81/81/81
f 81/81/81 90/90/90 88/88/88
f 84/84/84 91/91/91 83/83/83
f 83/83/83 91/91/91 90/90/90
f 85/85/85 92/92/92 84/84/84
f 85/85/85 86/86/86 92/92/92
f 84/84/84 92/92/92 91/91/91
f 86/86/86 87/87/87 93/93/93
f 86/86/86 93/93/93 92/92/92
f 87/87/87 94/94/94 93/93/93
f 88/88/88 95/95/95 89/89/89
f 89/89/89 95/95/95 96/96/96
f 90/90/90 97/97/97 88/88/88
f 88/88/88 97/97/97 95/95/95
f 91/91/91 98/98/98 90/90/90
f 90/90/90 98/98/98 97/97/97
f 92/92/92 99/99/99 91/91/91
f 92/92/92 93/93/93 99/99/99
f 91/91/91 99/99/99 98/98/98
f 93/93/93 94/94/94 100/100/100
f 93/93/93 100/100/100 99/99/99
f 94/94/94 101/101/101 100/100/100
f 95/95/95 102/102/102 96/96/96
f 96/96/96 102/102/102 103/103/103
f 97/97/97 104/104/104 95/95/95
f 95/95/95 104/104/104 102/102/102
f 98/98/98 105/105/105 97/97/97
f 97/97/97 105/105/105 104/104/104
f 99/99/99 106/106/106 98/98/98
f 99/99/99 100/100/100 106/106/106
f 98/98/98 106/106/106 105/105/105
f 100/100/100 101/101/101 107/107/107
f 100/100/100 107/107/107 106/106/106
f 101/101/101 108/108/108 107/107/107
f 102/102/102 109/109/109 103/103/103
f 103/103/103 109/109/109 110/110/110
f 109/109/109 111/111/111 110/110/110
f 104/104/104 112/112/112 102/102/102
f 102/102/102 112/112/112 109/109/109
f 109/109/109 113/113/113 111/111/111
f 112/112/112 113/113/113 109/109/109
f 113/113/113 114/114/114 111/111/111
f 105/105/105 115/115/115 104/104/104
f 104/104/104 115/115/115 112/112/112
f 106/106/106 116/116/116 105/105/105
f 106/106/106 107/107/107 116/116/116
f 105/105/105 116/116/116 115/115/115
f 107/107/107 108/108/108 117/117/117
f 107/107/107 117/117/117 116/116/116
f 108/108/108 118/118/118 117/117/117
f 113/113/113 119/119/119 114/114/114
f 119/119/119 120/120/120 114/114/114
f 112/112/112 121/121/121 113/113/113
f 115/115/115 121/121/121 112/112/112
f 121/121/121 119/119/119 113/113/113
f 116/116/116 122/122/122 115/115/115
f 116/116/116 117/117/117 122/122/122
f 115/115/115 122/122/122 121/121/121
f 117/117/117 118/118/118 123/123/123
f 117/117/117 123/123/123 122/122/122
f 118/118/118 124/124/124 123/123/123
f 122/122/122 125/125/125 121/121/121
f 121/121/121 125/125/125 119/119/119
f 122/122/122 123/123/123 125/125/125
f 119/119/119 126/126/126 120/120/120
f 125/125/125 126/126/126 119/119/119
f 126/126/126 127/127/127 120/120/120
f 123/123/123 124/124/124 128/128/128
f 123/123/123 128/128/128 125/125/125
f 125/125/125 128/128/128 126/126/126
f 124/124/124 129/129/129 128/128/128
f 126/126/126 130/130/130 127/127/127
f 128/128/128 130/130/130 126/126/126
f 128/128/128 129/129/129 130/130/130
f 130/130/130 131/131/131 127/127/127
f 129/129/129 132/132/132 130/130/130
f 130/130/130 132/132/132 131/131/131
f 132/132/132 133/133/133 131/131/131
