g fx_dancing_archer_star_night_star_night_space_screen
v -3.4576125 -4.9999994E-06 5.86707E-07
v -1.4569465 -4.94073E-06 -0.2898045
v -1.4854903 -4.9999994E-06 1.1669354E-07
v -3.3911757 -4.9239125E-06 -0.6745458
v -1.3724136 -4.881947E-06 -0.5684721
v -3.1944175 -4.8489583E-06 -1.3231698
v -1.2351402 -4.8241195E-06 -0.82529366
v -2.8749003 -4.776227E-06 -1.9209453
v -1.0504006 -4.767678E-06 -1.0503998
v -2.4449022 -4.706722E-06 -2.4449003
v -0.8252946 -4.7130006E-06 -1.2351397
v -1.9209476 -4.6413243E-06 -2.8748991
v -0.5684728 -4.660398E-06 -1.3724139
v -1.3231716 -4.580756E-06 -3.194417
v -0.28980502 -4.6101013E-06 -1.4569468
v -0.6745477 -4.525554E-06 -3.3911753
v -2.2430268E-07 -4.562252E-06 -1.4854901
v -5.220849E-07 -4.4760477E-06 -3.4576128
v 0.2898046 -4.5168977E-06 -1.456947
v 0.67454624 -4.4323497E-06 -3.3911757
v 0.5684721 -4.473991E-06 -1.372414
v 1.3231703 -4.3943487E-06 -3.1944175
v 0.8252939 -4.4333897E-06 -1.2351402
v 1.920946 -4.3617133E-06 -2.8749
v 1.0503999 -4.394863E-06 -1.0504004
v 2.4449005 -4.3339073E-06 -2.4449017
v 1.2351397 -4.358101E-06 -0.82529444
v 2.8748991 -4.310208E-06 -1.9209473
v 1.3724135 -4.322725E-06 -0.56847286
v 3.1944168 -4.289736E-06 -1.3231719
v 1.4569465 -4.288304E-06 -0.28980523
v 3.3911748 -4.2714864E-06 -0.6745476
v 1.48549 -4.25437E-06 -5.136929E-07
v 3.4576125 -4.25437E-06 -8.8057436E-07
v 1.4569468 -4.220436E-06 0.28980422
v 3.3911753 -4.2372535E-06 0.6745458
v 1.372414 -4.186015E-06 0.5684719
v 3.1944175 -4.219004E-06 1.3231701
v 1.2351398 -4.150639E-06 0.8252936
v 2.8748999 -4.1985318E-06 1.9209456
v 1.0504003 -4.113877E-06 1.0503997
v 2.4449015 -4.1748326E-06 2.4449003
v 0.82529426 -4.0753507E-06 1.2351393
v 1.9209472 -4.1470266E-06 2.8748987
v 0.5684728 -4.034749E-06 1.3724135
v 1.3231716 -4.1143917E-06 3.1944165
v 0.28980502 -3.9918423E-06 1.4569464
v 0.6745473 -4.0763903E-06 3.3911748
v 2.243028E-07 -3.946488E-06 1.4854897
v 5.22085E-07 -4.0326922E-06 3.457612
v -0.2898046 -3.8986386E-06 1.4569465
v -0.67454666 -3.983186E-06 3.3911753
v -0.56847245 -3.8483417E-06 1.3724135
v -1.3231707 -3.927984E-06 3.194417
v -0.82529426 -3.795739E-06 1.2351395
v -1.9209467 -3.867415E-06 2.8748991
v -1.0504003 -3.741062E-06 1.0503997
v -2.4449015 -3.802018E-06 2.4449005
v -1.2351401 -3.6846207E-06 0.8252935
v -2.8748994 -3.7325133E-06 1.9209456
v -1.3724135 -3.626793E-06 0.568472
v -3.1944172 -3.6597817E-06 1.3231704
v -1.4569465 -3.56801E-06 0.28980443
v -3.3911757 -3.5848277E-06 0.6745464
v -1.4854903 -3.5087405E-06 -1.4303771E-07
v -3.4576125 -3.5087405E-06 -1.784108E-08
vt 0.4935599 0.3155741
vt 0.4818284 0.42282742
vt 0.49723333 0.42076498
vt 0.45770407 0.32037422
vt 0.46712208 0.42785543
vt 0.42347366 0.3320772
vt 0.45367926 0.43565583
vt 0.39218393 0.35023344
vt 0.44201648 0.44592887
vt 0.3650377 0.37414497
vt 0.43258184 0.45827976
vt 0.34307793 0.40289313
vt 0.4257381 0.4722342
vt 0.3271487 0.43537307
vt 0.42174834 0.48725545
vt 0.31786186 0.47033653
vt 0.42076567 0.50276655
vt 0.31557465 0.5064399
vt 0.42282784 0.5181713
vt 0.32037485 0.5422958
vt 0.4278559 0.5328777
vt 0.33207768 0.5765263
vt 0.43565625 0.5463206
vt 0.3502339 0.60781586
vt 0.44592935 0.5579834
vt 0.37414557 0.6349621
vt 0.45828038 0.567418
vt 0.40289363 0.6569219
vt 0.47223473 0.57426155
vt 0.43537366 0.6728512
vt 0.48725605 0.5782514
vt 0.47033703 0.6821379
vt 0.50276697 0.5792342
vt 0.5064404 0.6844253
vt 0.5181718 0.5771719
vt 0.54229623 0.679625
vt 0.5328782 0.5721439
vt 0.5765268 0.66792196
vt 0.5463211 0.5643436
vt 0.6078164 0.6497659
vt 0.5579839 0.5540705
vt 0.63496256 0.62585425
vt 0.5674185 0.5417193
vt 0.6569224 0.59710616
vt 0.57426226 0.5277651
vt 0.67285174 0.5646263
vt 0.5782519 0.5127438
vt 0.6821384 0.5296627
vt 0.5792346 0.49723274
vt 0.6844257 0.4935594
vt 0.57717246 0.48182794
vt 0.67962545 0.45770347
vt 0.5721444 0.4671216
vt 0.66792244 0.42347303
vt 0.564344 0.45367876
vt 0.6497663 0.39218336
vt 0.55407083 0.4420159
vt 0.62585473 0.36503717
vt 0.54171985 0.4325813
vt 0.5971067 0.34307742
vt 0.52776563 0.42573762
vt 0.5646267 0.32714802
vt 0.5127443 0.42174777
vt 0.52966326 0.31786132
vt 0.49723333 0.42076498
vt 0.4935599 0.31557405
vn -0 1 0
vn -0 1 0
vn -0 1 0
vn -0 1 0
vn -0 1 0
vn -0 1 0
vn -0 1 0
vn -0 1 0
vn -0 1 0
vn -0 1 0
vn -0 1 0
vn -0 1 0
vn -0 1 0
vn -0 1 0
vn -0 1 0
vn -0 1 0
vn -0 1 0
vn -0 1 0
vn -0 1 0
vn -0 1 0
vn -0 1 0
vn -0 1 0
vn -0 1 0
vn -0 1 0
vn -0 1 0
vn -0 1 0
vn -0 1 0
vn -0 1 0
vn -0 1 0
vn -0 1 0
vn -0 1 0
vn -0 1 0
vn -0 1 0
vn -0 1 0
vn -0 1 0
vn -0 1 0
vn -0 1 0
vn -0 1 0
vn -0 1 0
vn -0 1 0
vn -0 1 0
vn -0 1 0
vn -0 1 0
vn -0 1 0
vn -0 1 0
vn -0 1 0
vn -0 1 0
vn -0 1 0
vn -0 1 0
vn -0 1 0
vn -0 1 0
vn -0 1 0
vn -0 1 0
vn -0 1 0
vn -0 1 0
vn -0 1 0
vn -0 1 0
vn -0 1 0
vn -0 1 0
vn -0 1 0
vn -0 1 0
vn -0 1 0
vn -0 1 0
vn -0 1 0
vn -0 1 0
vn -0 1 0
g fx_dancing_archer_star_night_star_night_space_screen_0
f 3/3/3 2/2/2 1/1/1
f 2/2/2 4/4/4 1/1/1
f 2/2/2 5/5/5 4/4/4
f 5/5/5 6/6/6 4/4/4
f 5/5/5 7/7/7 6/6/6
f 7/7/7 8/8/8 6/6/6
f 7/7/7 9/9/9 8/8/8
f 9/9/9 10/10/10 8/8/8
f 9/9/9 11/11/11 10/10/10
f 11/11/11 12/12/12 10/10/10
f 11/11/11 13/13/13 12/12/12
f 13/13/13 14/14/14 12/12/12
f 13/13/13 15/15/15 14/14/14
f 15/15/15 16/16/16 14/14/14
f 15/15/15 17/17/17 16/16/16
f 17/17/17 18/18/18 16/16/16
f 17/17/17 19/19/19 18/18/18
f 19/19/19 20/20/20 18/18/18
f 19/19/19 21/21/21 20/20/20
f 21/21/21 22/22/22 20/20/20
f 21/21/21 23/23/23 22/22/22
f 23/23/23 24/24/24 22/22/22
f 23/23/23 25/25/25 24/24/24
f 25/25/25 26/26/26 24/24/24
f 25/25/25 27/27/27 26/26/26
f 27/27/27 28/28/28 26/26/26
f 27/27/27 29/29/29 28/28/28
f 29/29/29 30/30/30 28/28/28
f 29/29/29 31/31/31 30/30/30
f 31/31/31 32/32/32 30/30/30
f 31/31/31 33/33/33 32/32/32
f 33/33/33 34/34/34 32/32/32
f 33/33/33 35/35/35 34/34/34
f 35/35/35 36/36/36 34/34/34
f 35/35/35 37/37/37 36/36/36
f 37/37/37 38/38/38 36/36/36
f 37/37/37 39/39/39 38/38/38
f 39/39/39 40/40/40 38/38/38
f 39/39/39 41/41/41 40/40/40
f 41/41/41 42/42/42 40/40/40
f 41/41/41 43/43/43 42/42/42
f 43/43/43 44/44/44 42/42/42
f 43/43/43 45/45/45 44/44/44
f 45/45/45 46/46/46 44/44/44
f 45/45/45 47/47/47 46/46/46
f 47/47/47 48/48/48 46/46/46
f 47/47/47 49/49/49 48/48/48
f 49/49/49 50/50/50 48/48/48
f 49/49/49 51/51/51 50/50/50
f 51/51/51 52/52/52 50/50/50
f 51/51/51 53/53/53 52/52/52
f 53/53/53 54/54/54 52/52/52
f 53/53/53 55/55/55 54/54/54
f 55/55/55 56/56/56 54/54/54
f 55/55/55 57/57/57 56/56/56
f 57/57/57 58/58/58 56/56/56
f 57/57/57 59/59/59 58/58/58
f 59/59/59 60/60/60 58/58/58
f 59/59/59 61/61/61 60/60/60
f 61/61/61 62/62/62 60/60/60
f 61/61/61 63/63/63 62/62/62
f 63/63/63 64/64/64 62/62/62
f 63/63/63 65/65/65 64/64/64
f 65/65/65 66/66/66 64/64/64
