g fx_earthquake_object
v 0.18682861 -0.21607645 -0.5484015
v 0.48980957 -0.21607643 -0.3535748
v 0.25456908 0.18307331 -0.46380582
v -0.099648744 0.43755654 0.40988585
v -0.46847168 0.19253871 0.3993344
v -0.3865222 0.3921675 -0.043794554
v -0.14859435 0.2568729 -0.48109344
v -0.51925045 0.058441903 -0.16130553
v -0.32825622 -0.21607643 -0.54687804
v -0.32825622 -0.21607643 -0.54687804
v -0.51925045 0.058441903 -0.16130553
v -0.4698834 -0.21607633 -0.09667755
v -0.38989165 -0.21607625 0.35778624
v 0.050935056 -0.43755552 -0.073544614
v -0.4698834 -0.21607633 -0.09667755
v 0.18682861 -0.21607645 -0.5484015
v 0.050935056 -0.43755552 -0.073544614
v 0.48980957 -0.21607643 -0.3535748
v -0.4698834 -0.21607633 -0.09667755
v 0.050935056 -0.43755552 -0.073544614
v -0.32825622 -0.21607643 -0.54687804
v 0.48980957 -0.21607643 -0.3535748
v 0.050935056 -0.43755552 -0.073544614
v 0.51925015 -0.21607633 0.079033814
v -0.32825622 -0.21607643 -0.54687804
v 0.050935056 -0.43755552 -0.073544614
v 0.18682861 -0.21607645 -0.5484015
v 0.51925015 -0.21607633 0.079033814
v 0.050935056 -0.43755552 -0.073544614
v 0.35063994 -0.21607625 0.44259644
v 0.35063994 -0.21607625 0.44259644
v 0.050935056 -0.43755552 -0.073544614
v -0.38989165 -0.21607625 0.35778624
v -0.4698834 -0.21607633 -0.09667755
v -0.47266144 -0.04741489 0.42473936
v -0.38989165 -0.21607625 0.35778624
v -0.51925045 0.058441903 -0.16130553
v -0.46847168 0.19253871 0.3993344
v -0.3865222 0.3921675 -0.043794554
v -0.14859435 0.2568729 -0.48109344
v -0.3865222 0.3921675 -0.043794554
v -0.14859435 0.2568729 -0.48109344
v 0.25456908 0.18307331 -0.46380582
v 0.211669 0.43755668 0.074393615
v 0.433703 0.3807219 0.06320953
v -0.099648744 0.43755654 0.40988585
v 0.3495053 0.40866283 0.40187162
v 0.433703 0.3807219 0.06320953
v 0.433703 0.3807219 0.06320953
v 0.48980957 -0.21607643 -0.3535748
v 0.51925015 -0.21607633 0.079033814
v 0.25456908 0.18307331 -0.46380582
v -0.32825622 -0.21607643 -0.54687804
v 0.18682861 -0.21607645 -0.5484015
v 0.25456908 0.18307331 -0.46380582
v -0.14859435 0.2568729 -0.48109344
v 0.51925015 -0.21607633 0.079033814
v 0.35063994 -0.21607625 0.44259644
v 0.3495053 0.40866283 0.40187162
v 0.433703 0.3807219 0.06320953
v 0.3495053 0.40866283 0.40187162
v -0.027901001 0.12247871 0.5484027
v -0.099648744 0.43755654 0.40988585
v 0.35063994 -0.21607625 0.44259644
v -0.46847168 0.19253871 0.3993344
v -0.38989165 -0.21607625 0.35778624
v -0.47266144 -0.04741489 0.42473936
vt 0.42093593 0.78706735
vt 0.42735812 0.7900651
vt 0.42384917 0.7928417
vt 0.4284845 0.80107725
vt 0.42869416 0.7981293
vt 0.43043223 0.80107725
vt 0.41423684 0.7973884
vt 0.41039348 0.7927518
vt 0.41293836 0.7871983
vt 0.43127117 0.78730524
vt 0.43026692 0.7898492
vt 0.42547423 0.78730524
vt 0.41205066 0.7982108
vt 0.41328037 0.79814005
vt 0.4145101 0.79806936
vt 0.42093593 0.78706735
vt 0.424147 0.78856623
vt 0.42735812 0.7900651
vt 0.42547423 0.78730524
vt 0.42837274 0.78730524
vt 0.43127117 0.78730524
vt 0.42873296 0.79036015
vt 0.4302453 0.7908896
vt 0.43327013 0.7919485
vt 0.41293836 0.7871983
vt 0.41693717 0.7871328
vt 0.42093593 0.78706735
vt 0.43447736 0.78719014
vt 0.43565497 0.78719014
vt 0.43683246 0.78719014
vt 0.4372259 0.78719014
vt 0.43905705 0.78719014
vt 0.44088805 0.78719014
vt 0.4145101 0.79806936
vt 0.4111996 0.7990013
vt 0.41205066 0.7982108
vt 0.4170171 0.7988966
vt 0.41144457 0.8001259
vt 0.41472954 0.8013627
vt 0.42035553 0.7997728
vt 0.4416014 0.79648924
vt 0.43990797 0.7918393
vt 0.43582663 0.7918393
vt 0.435599 0.79687095
vt 0.43359485 0.79563206
vt 0.43812513 0.80018663
vt 0.43374997 0.79984146
vt 0.43357855 0.7966455
vt 0.43073922 0.7985273
vt 0.42873296 0.79036015
vt 0.43327013 0.7919485
vt 0.4249034 0.7940043
vt 0.41293836 0.7871983
vt 0.42093593 0.78706735
vt 0.42385742 0.7952625
vt 0.41423684 0.7973884
vt 0.43447736 0.78719014
vt 0.43683246 0.78719014
vt 0.43683246 0.7905687
vt 0.43488657 0.7903319
vt 0.4372259 0.7905687
vt 0.4387109 0.7889401
vt 0.44009286 0.7905687
vt 0.4372259 0.78719014
vt 0.44174638 0.7891731
vt 0.44088805 0.78719014
vt 0.44174632 0.7880086
vn 0.25910166 0.13379426 -0.95653826
vn 0.8486808 0.21290505 -0.48416144
vn 0.49856701 0.25422645 -0.82873386
vn -0.19601125 0.97732043 0.08015185
vn -0.53934574 0.8006347 0.26094127
vn -0.15571414 0.98283815 -0.09890512
vn -0.7119246 0.40309584 -0.5750452
vn -0.9533709 0.13086353 -0.27195325
vn -0.8358515 0.15720254 -0.5259654
vn -0.8358515 0.15720254 -0.5259654
vn -0.9533709 0.13086353 -0.27195325
vn -0.9600717 -0.26832658 -0.07914022
vn -0.3930002 -0.9169329 0.06917348
vn -0.3930002 -0.9169329 0.06917348
vn -0.39300016 -0.91693294 0.06917348
vn 0.22939368 -0.90560323 -0.35673708
vn 0.22939368 -0.90560323 -0.35673708
vn 0.22939368 -0.90560323 -0.35673708
vn -0.3839247 -0.91543144 -0.12077752
vn -0.38392466 -0.91543144 -0.12077752
vn -0.3839247 -0.91543144 -0.12077752
vn 0.43520963 -0.8998419 -0.02961743
vn 0.4352096 -0.8998419 -0.029617429
vn 0.43520957 -0.8998419 -0.029617425
vn -0.0012510783 -0.90613353 -0.42298988
vn -0.0012510784 -0.90613353 -0.42298988
vn -0.0012510784 -0.90613353 -0.42298988
vn 0.3742573 -0.91093624 0.17357033
vn 0.3742573 -0.91093624 0.17357032
vn 0.3742573 -0.91093624 0.17357032
vn -0.04777853 -0.9075648 0.41718492
vn -0.04777853 -0.9075648 0.4171849
vn -0.04777853 -0.9075648 0.41718498
vn -0.9600717 -0.26832658 -0.07914022
vn -0.9865181 -0.13881086 0.086681075
vn -0.95454204 -0.28505996 0.08712201
vn -0.9533709 0.13086353 -0.27195325
vn -0.9883791 0.14144005 0.05569003
vn -0.86306965 0.434147 -0.25812238
vn -0.7119246 0.40309584 -0.5750452
vn -0.15571414 0.98283815 -0.09890512
vn 0.07404265 0.93322796 -0.35157263
vn 0.10229891 0.9260039 -0.3633894
vn 0.1157687 0.97738147 -0.17698301
vn 0.23087703 0.9464037 -0.22586684
vn -0.19601125 0.97732043 0.08015185
vn 0.13084812 0.9908744 0.03235196
vn 0.23087703 0.9464037 -0.22586684
vn 0.9785296 0.2057081 0.012806054
vn 0.8486808 0.21290505 -0.48416144
vn 0.98298556 0.10588712 0.15009132
vn 0.49856701 0.25422645 -0.82873386
vn 0.029922122 0.16160163 -0.98640233
vn 0.25910166 0.13379426 -0.95653826
vn 0.49856701 0.25422645 -0.82873386
vn 0.029922126 0.16160165 -0.98640233
vn 0.98298556 0.10588712 0.15009132
vn 0.9068037 0.029061295 0.42055035
vn 0.9479747 0.10167935 0.30167088
vn 0.9785296 0.2057081 0.012806054
vn 0.20096762 0.22333458 0.95379955
vn -0.031077327 0.021122405 0.9992938
vn -0.11473428 0.33329263 0.93581635
vn 0.12584463 -0.16701153 0.97789073
vn -0.2764282 0.24110584 0.93029857
vn -0.10224358 -0.4027902 0.90956384
vn -0.18945761 -0.12709689 0.9736284
g fx_earthquake_object_0
f 3/3/3 2/2/2 1/1/1
f 6/6/6 5/5/5 4/4/4
f 9/9/9 8/8/8 7/7/7
f 12/12/12 11/11/11 10/10/10
f 15/15/15 14/14/14 13/13/13
f 18/18/18 17/17/17 16/16/16
f 21/21/21 20/20/20 19/19/19
f 24/24/24 23/23/23 22/22/22
f 27/27/27 26/26/26 25/25/25
f 30/30/30 29/29/29 28/28/28
f 33/33/33 32/32/32 31/31/31
f 36/36/36 35/35/35 34/34/34
f 35/35/35 37/37/37 34/34/34
f 38/38/38 37/37/37 35/35/35
f 38/38/38 39/39/39 37/37/37
f 40/40/40 37/37/37 39/39/39
f 43/43/43 42/42/42 41/41/41
f 44/44/44 43/43/43 41/41/41
f 45/45/45 43/43/43 44/44/44
f 41/41/41 46/46/46 44/44/44
f 46/46/46 47/47/47 44/44/44
f 48/48/48 44/44/44 47/47/47
f 51/51/51 50/50/50 49/49/49
f 49/49/49 50/50/50 52/52/52
f 55/55/55 54/54/54 53/53/53
f 56/56/56 55/55/55 53/53/53
f 59/59/59 58/58/58 57/57/57
f 60/60/60 59/59/59 57/57/57
f 63/63/63 62/62/62 61/61/61
f 64/64/64 61/61/61 62/62/62
f 63/63/63 65/65/65 62/62/62
f 64/64/64 62/62/62 66/66/66
f 65/65/65 67/67/67 62/62/62
f 62/62/62 67/67/67 66/66/66
