g fx_gouury_slash_4th_r
v 5.0786314 -0.17109294 -1.556392E-08
v 5.875202 0.32780772 3.3609408E-07
v 5.930606 -0.1778975 9.039247E-09
v 5.0464168 0.27729997 3.132004E-07
v 4.2266626 -0.16394372 -4.018227E-08
v 5.7881255 0.82504255 6.626555E-07
v 4.2175493 0.2294396 2.901891E-07
v 3.3746974 -0.15644668 -6.4816035E-08
v 4.986015 0.7207426 6.414533E-07
v 5.6702175 1.3113776 9.888014E-07
v 3.388607 0.18426806 2.6705823E-07
v 2.5227363 -0.14859796 -8.946546E-08
v 2.5595975 0.14183792 2.4380557E-07
v 4.1835647 0.62112457 6.2004284E-07
v 4.897921 1.157094 9.69258E-07
v 5.5224824 1.7844932 1.3146079E-06
v 3.3807912 0.5262736 5.984205E-07
v 2.5777164 0.43627307 5.765827E-07
v 4.124882 1.0092582 9.4942806E-07
v 4.7827682 1.5842824 1.2966779E-06
v 5.3460755 2.242204 1.6401473E-06
v 3.3511376 0.8679852 9.293063E-07
v 2.5767257 0.73338634 9.088879E-07
v 4.041802 1.3920082 1.2783947E-06
v 4.6413264 2.0003202 1.6237735E-06
v 5.142286 2.682472 1.965489E-06
v 3.2996411 1.2078081 1.2597526E-06
v 2.5563488 1.0318207 1.2407456E-06
v 3.9347413 1.767584 1.6069924E-06
v 4.4744906 2.4033175 1.9506042E-06
v 4.912523 3.1034136 2.2906975E-06
v 3.2264023 1.5441539 1.589798E-06
v 2.5163925 1.3301859 1.5721829E-06
v 3.8042347 2.1342514 1.9352708E-06
v 4.283275 2.7914915 2.2772267E-06
v 4.6582975 3.5033214 2.615833E-06
v 3.1316233 1.875446 1.919481E-06
v 2.4567626 1.6270735 1.9032274E-06
v 3.6509314 2.4903371 2.263277E-06
v 4.068797 3.1631863 2.6036948E-06
v 4.3812113 3.880662 2.9409498E-06
v 3.0156145 2.2001336 2.2488407E-06
v 2.3774536 1.9210626 2.233909E-06
v 3.4755785 2.8342507 2.591058E-06
v 3.8322685 3.516873 2.9300581E-06
v 4.0829325 4.2340894 3.266097E-06
v 2.8787818 2.5167043 2.5779152E-06
v 2.2785563 2.210737 2.5642573E-06
v 3.2790232 3.1644845 2.9186588E-06
v 3.5749817 3.8511648 3.256362E-06
v 3.7651849 4.562451 3.5913185E-06
v 2.7216303 2.8236926 2.9067442E-06
v 2.1602554 2.4946873 2.894305E-06
v 3.0621998 3.4796338 3.2461196E-06
v 3.2982936 4.1648264 3.5826504E-06
v 3.4297228 4.864786 3.9166534E-06
v 2.544757 3.1196902 3.2353637E-06
v 2.0228288 2.7715256 3.2240819E-06
v 2.8261213 3.7783992 3.573482E-06
v 3.0036194 4.4567738 3.9089587E-06
v 3.078322 5.140332 4.242131E-06
v 2.3488424 3.4033616 3.5638086E-06
v 1.8666431 3.0398998 3.5536198E-06
v 2.5718677 4.0595984 3.9007814E-06
v 2.6924098 4.7260823 4.2353204E-06
v 2.712761 5.3885236 4.5677784E-06
v 2.1346502 3.6734455 3.892115E-06
v 1.6921538 3.2984986 3.8829494E-06
v 2.30058 4.322169 4.2280503E-06
v 2.366147 4.9719896 4.5617653E-06
v 2.334803 5.608986 4.8936167E-06
v 1.9030138 3.9287705 4.220313E-06
v 1.4998978 3.5460625 4.212099E-06
v 2.0134451 4.565179 4.5553184E-06
v 2.0263224 5.193898 4.8883144E-06
v 1.9461852 5.8015337 5.219658E-06
v 1.6548331 4.16826 4.548432E-06
v 1.290493 3.781397 4.5410975E-06
v 1.7116854 4.7878304 4.8826114E-06
v 1.6744323 5.3913703 5.214987E-06
v 1.5486038 5.9661694 5.545913E-06
v 1.3910613 4.3909397 4.8765E-06
v 1.0646265 4.003378 4.869973E-06
v 1.3965516 4.989459 5.20995E-06
v 1.3119582 5.564134 5.5417995E-06
v 1.1437032 6.10307 5.8723845E-06
v 1.1127039 4.595943 5.204539E-06
v 0.8230537 4.2109632 5.1987477E-06
v 1.0693079 5.1695414 5.537354E-06
v 0.9403617 5.7120757 5.8687588E-06
v 0.7330666 6.212582 6.1990722E-06
v 0.82080096 4.7825203 5.532572E-06
v 0.5665881 4.403199 5.527447E-06
v 0.7312246 5.3276935 5.8648357E-06
v 0.5610737 5.8352346 6.1958676E-06
v 0.31820503 6.2952137 6.5259696E-06
v 0.5164228 4.9500394 5.8606156E-06
v 0.2960945 4.579227 5.8560895E-06
v 0.3835658 5.46367 6.192406E-06
v 0.17547812 5.933804 6.523132E-06
v -0.099446826 6.351622 6.8530676E-06
v 0.20066123 5.0979896 6.1886844E-06
v 0.01248336 4.7382917 6.184694E-06
v 0.027582413 5.577365 6.520073E-06
v -0.2150874 6.00812 6.850546E-06
v -0.5185387 6.382605 7.1803483E-06
v -0.12538011 5.2259846 6.516789E-06
v -0.2833026 4.879747 6.5132754E-06
v -0.33550057 5.668809 6.8478353E-06
v -0.6093409 6.058655 7.1780996E-06
v -0.93780565 6.3890862 7.5077983E-06
v -0.46059838 5.3337646 6.844938E-06
v -0.59029144 5.003058 6.841846E-06
v -0.70448184 5.738164 7.1756945E-06
v -1.0060644 6.0860114 7.505783E-06
v -1.356069 6.3721037 7.835399E-06
v -1.4041022 6.090911 7.833586E-06
v -0.80389184 5.421196 7.173133E-06
v -0.90749234 5.107808 7.1704117E-06
v -1.0782062 5.785722 7.503643E-06
v -1.455553 5.8118954 7.831675E-06
v -1.1541729 5.4882674 7.5013754E-06
v -1.2339048 5.1936975 7.4989803E-06
v -1.5103754 5.5350943 7.829666E-06
v -1.5685233 5.2605476 7.827556E-06
vt 1.0000001 0.24999994
vt 0.9583335 0
vt 1.0000002 0
vt 0.9583335 0.24999994
vt 1.0000001 0.49999994
vt 0.91666687 0
vt 0.95833355 0.49999994
vt 1.0000002 0.74999994
vt 0.91666687 0.24999994
vt 0.8750001 0
vt 0.95833355 0.74999994
vt 1.0000002 0.99999994
vt 0.95833355 0.99999994
vt 0.91666687 0.49999994
vt 0.8750002 0.24999994
vt 0.8333335 0
vt 0.91666687 0.74999994
vt 0.9166669 0.99999994
vt 0.87500024 0.49999994
vt 0.8333335 0.24999994
vt 0.79166687 5.9604645E-08
vt 0.8750002 0.75
vt 0.87500024 0.99999994
vt 0.83333355 0.49999994
vt 0.79166687 0.25
vt 0.7500001 5.9604645E-08
vt 0.83333355 0.75
vt 0.83333355 0.99999994
vt 0.79166687 0.5
vt 0.7500002 0.25
vt 0.7083335 5.9604645E-08
vt 0.79166687 0.74999994
vt 0.79166687 0.99999994
vt 0.75000024 0.5
vt 0.7083335 0.25
vt 0.66666687 5.9604645E-08
vt 0.75000024 0.74999994
vt 0.75000024 0.99999994
vt 0.7083335 0.5
vt 0.66666687 0.25
vt 0.62500024 5.9604645E-08
vt 0.7083336 0.74999994
vt 0.7083336 0.99999994
vt 0.66666687 0.5
vt 0.62500024 0.25
vt 0.5833336 5.9604645E-08
vt 0.666667 0.75
vt 0.6666669 0.99999994
vt 0.62500024 0.5
vt 0.58333355 0.24999994
vt 0.54166687 5.9604645E-08
vt 0.62500024 0.75
vt 0.62500024 0.99999994
vt 0.5833335 0.49999994
vt 0.54166687 0.24999994
vt 0.5000002 5.9604645E-08
vt 0.5833336 0.75
vt 0.5833336 1
vt 0.54166687 0.49999994
vt 0.50000024 0.24999994
vt 0.4583335 5.9604645E-08
vt 0.541667 0.75
vt 0.541667 1
vt 0.50000024 0.49999994
vt 0.45833355 0.24999994
vt 0.4166668 5.9604645E-08
vt 0.50000036 0.75
vt 0.5000003 1
vt 0.4583336 0.49999994
vt 0.41666687 0.24999994
vt 0.37500012 1.1920929E-07
vt 0.45833355 0.75
vt 0.4583336 1
vt 0.41666692 0.49999994
vt 0.37500018 0.25
vt 0.33333343 1.1920929E-07
vt 0.41666687 0.75
vt 0.41666692 1
vt 0.37500024 0.5
vt 0.3333335 0.25
vt 0.29166675 1.1920929E-07
vt 0.37500018 0.75
vt 0.37500024 1
vt 0.33333355 0.5
vt 0.2916668 0.25
vt 0.25000006 1.1920929E-07
vt 0.3333335 0.75
vt 0.33333355 1
vt 0.29166687 0.5
vt 0.25000012 0.25
vt 0.20833337 -1.1920929E-07
vt 0.2916668 0.75
vt 0.29166687 1
vt 0.25000018 0.5
vt 0.20833343 0.25
vt 0.16666669 -1.1920929E-07
vt 0.25000012 0.75
vt 0.25000018 1
vt 0.20833349 0.5
vt 0.16666675 0.25
vt 0.125 -1.1920929E-07
vt 0.20833343 0.75
vt 0.20833349 1
vt 0.1666668 0.5
vt 0.12500006 0.25
vt 0.08333331 -1.1920929E-07
vt 0.16666675 0.75
vt 0.1666668 1
vt 0.12500012 0.5
vt 0.08333337 0.25
vt 0.041666627 -1.1920929E-07
vt 0.12500006 0.75
vt 0.12500012 1
vt 0.08333343 0.5
vt 0.041666687 0.25
vt 1.1920929E-07 -1.1920929E-07
vt 0 0.25000006
vt 0.08333337 0.75
vt 0.08333343 1
vt 0.041666746 0.5
vt 0 0.5
vt 0.041666687 0.75
vt 0.041666746 1
vt 1.1920929E-07 0.75
vt 1.1920929E-07 1
vn -0 -7.334847E-07 1
vn -0 -6.8915455E-07 1
vn -0 -6.883222E-07 1
vn -0 -7.353108E-07 1
vn -0 -8.415798E-07 1
vn -0 -6.8968484E-07 1
vn -0 -8.4058433E-07 1
vn -0 -9.79221E-07 1
vn -0 -7.3467885E-07 1
vn -0 -6.8762876E-07 1
vn -0 -9.730003E-07 1
vn -0 -1.0533121E-06 1
vn -0 -1.0492801E-06 1
vn -0 -8.3714417E-07 1
vn -0 -7.313739E-07 1
vn -0 -6.830003E-07 1
vn -0 -9.65235E-07 1
vn -0 -1.0389407E-06 1
vn -0 -8.308335E-07 1
vn -0 -7.254143E-07 1
vn -0 -6.758245E-07 1
vn -0 -9.543973E-07 1
vn -0 -1.0254155E-06 1
vn -0 -8.216848E-07 1
vn -0 -7.168271E-07 1
vn 2.5451183E-07 -6.6614336E-07 1
vn -0 -9.4054104E-07 1
vn -0 -1.0087693E-06 1
vn -0 -8.097389E-07 1
vn 2.6568895E-07 -7.0565636E-07 1
vn 3.0102348E-07 -6.540074E-07 1
vn 2.593552E-07 -9.2373006E-07 1
vn 2.7002852E-07 -9.8908E-07 1
vn 2.8840643E-07 -7.95055E-07 1
vn 3.1360273E-07 -6.91955E-07 1
vn 3.4647505E-07 -6.39478E-07 1
vn 3.1543115E-07 -9.040457E-07 1
vn 3.284057E-07 -9.664399E-07 1
vn 3.3937079E-07 -7.776999E-07 1
vn 3.6035163E-07 -6.757867E-07 1
vn 3.9068775E-07 -6.2262774E-07 1
vn 3.6986725E-07 -8.815754E-07 1
vn 3.84928E-07 -9.4094696E-07 1
vn 3.888785E-07 -7.577539E-07 1
vn 4.057515E-07 -6.57227E-07 1
vn 4.334885E-07 -6.035347E-07 1
vn 4.2246458E-07 -8.5642137E-07 1
vn 4.3939585E-07 -9.127139E-07 1
vn 4.367401E-07 -7.3530737E-07 1
vn 4.4962363E-07 -6.3635684E-07 1
vn 4.7471278E-07 -5.822846E-07 1
vn 4.7303485E-07 -8.2869764E-07 1
vn 4.9162173E-07 -8.818676E-07 1
vn 4.8277263E-07 -7.1045525E-07 1
vn 4.917981E-07 -6.1326625E-07 1
vn 5.1420375E-07 -5.589664E-07 1
vn 5.2139603E-07 -7.9851753E-07 1
vn 5.414235E-07 -8.4853065E-07 1
vn 5.26805E-07 -6.8330536E-07 1
vn 5.321126E-07 -5.880489E-07 1
vn 5.518175E-07 -5.3367194E-07 1
vn 5.673813E-07 -7.660101E-07 1
vn 5.886351E-07 -8.12842E-07 1
vn 5.6867543E-07 -6.5396716E-07 1
vn 5.704166E-07 -5.6080466E-07 1
vn 5.87417E-07 -5.0649436E-07 1
vn 6.1083324E-07 -7.3130724E-07 1
vn 6.3309943E-07 -7.7494667E-07 1
vn 6.0823254E-07 -6.225569E-07 1
vn 6.065651E-07 -5.3163336E-07 1
vn 6.208711E-07 -4.7752536E-07 1
vn 6.5160634E-07 -6.945439E-07 1
vn 6.746711E-07 -7.34991E-07 1
vn 6.4533333E-07 -5.891914E-07 1
vn 6.404237E-07 -5.006362E-07 1
vn 6.520645E-07 -4.468554E-07 1
vn 6.89569E-07 -6.558585E-07 1
vn 7.1322296E-07 -6.931272E-07 1
vn 6.798499E-07 -5.5398937E-07 1
vn 6.7187244E-07 -4.67915E-07 1
vn 6.808867E-07 -4.145681E-07 1
vn 7.2460284E-07 -6.1539E-07 1
vn 7.4863766E-07 -6.495069E-07 1
vn 7.116673E-07 -5.1707116E-07 1
vn 7.007963E-07 -4.3356536E-07 1
vn 7.07235E-07 -3.807433E-07 1
vn 7.5660415E-07 -5.732787E-07 1
vn 7.808154E-07 -6.0428573E-07 1
vn 7.4067754E-07 -4.7855025E-07 1
vn 7.2709247E-07 -3.9767994E-07 1
vn 7.3101967E-07 -3.4545417E-07 1
vn 7.854799E-07 -5.2965925E-07 1
vn 8.0966856E-07 -5.5761456E-07 1
vn 7.6678793E-07 -4.385378E-07 1
vn 7.506722E-07 -3.6034587E-07 1
vn 7.521562E-07 -3.0876083E-07 1
vn 8.1115166E-07 -4.8466217E-07 1
vn 8.3512646E-07 -5.096399E-07 1
vn 7.899203E-07 -3.9714055E-07 1
vn 7.71452E-07 -3.2163976E-07 1
vn 7.7056603E-07 -2.7071354E-07 1
vn 8.3355803E-07 -4.3841456E-07 1
vn 8.571355E-07 -4.60505E-07 1
vn 8.100012E-07 -3.5445478E-07 1
vn 7.893593E-07 -2.8162873E-07 1
vn 7.861811E-07 0 1
vn 8.5264406E-07 -3.9103156E-07 1
vn 8.7565274E-07 -4.103434E-07 1
vn 8.2697517E-07 -3.105689E-07 1
vn 8.043368E-07 0 1
vn 7.989529E-07 0 1
vn 8.6837235E-07 -3.4262166E-07 1
vn 8.906523E-07 -3.5928016E-07 1
vn 8.4079915E-07 -2.6555992E-07 1
vn 8.163428E-07 0 1
vn 8.053638E-07 0 1
vn 8.2357826E-07 0 1
vn 8.807212E-07 -2.932844E-07 1
vn 9.0212876E-07 -3.0743303E-07 1
vn 8.5144546E-07 0 1
vn 8.5762844E-07 0 1
vn 8.896839E-07 0 1
vn 9.1009315E-07 -2.549081E-07 1
vn 8.945377E-07 0 1
vn 9.131423E-07 0 1
g fx_gouury_slash_4th_r_0
f 3/3/3 2/2/2 1/1/1
f 2/2/2 4/4/4 1/1/1
f 1/1/1 4/4/4 5/5/5
f 2/2/2 6/6/6 4/4/4
f 4/4/4 7/7/7 5/5/5
f 5/5/5 7/7/7 8/8/8
f 6/6/6 9/9/9 4/4/4
f 4/4/4 9/9/9 7/7/7
f 6/6/6 10/10/10 9/9/9
f 7/7/7 11/11/11 8/8/8
f 8/8/8 11/11/11 12/12/12
f 11/11/11 13/13/13 12/12/12
f 9/9/9 14/14/14 7/7/7
f 7/7/7 14/14/14 11/11/11
f 10/10/10 15/15/15 9/9/9
f 9/9/9 15/15/15 14/14/14
f 10/10/10 16/16/16 15/15/15
f 11/11/11 17/17/17 13/13/13
f 14/14/14 17/17/17 11/11/11
f 17/17/17 18/18/18 13/13/13
f 15/15/15 19/19/19 14/14/14
f 14/14/14 19/19/19 17/17/17
f 16/16/16 20/20/20 15/15/15
f 15/15/15 20/20/20 19/19/19
f 16/16/16 21/21/21 20/20/20
f 17/17/17 22/22/22 18/18/18
f 19/19/19 22/22/22 17/17/17
f 22/22/22 23/23/23 18/18/18
f 20/20/20 24/24/24 19/19/19
f 19/19/19 24/24/24 22/22/22
f 21/21/21 25/25/25 20/20/20
f 20/20/20 25/25/25 24/24/24
f 21/21/21 26/26/26 25/25/25
f 22/22/22 27/27/27 23/23/23
f 24/24/24 27/27/27 22/22/22
f 27/27/27 28/28/28 23/23/23
f 25/25/25 29/29/29 24/24/24
f 24/24/24 29/29/29 27/27/27
f 26/26/26 30/30/30 25/25/25
f 25/25/25 30/30/30 29/29/29
f 26/26/26 31/31/31 30/30/30
f 27/27/27 32/32/32 28/28/28
f 29/29/29 32/32/32 27/27/27
f 32/32/32 33/33/33 28/28/28
f 30/30/30 34/34/34 29/29/29
f 29/29/29 34/34/34 32/32/32
f 31/31/31 35/35/35 30/30/30
f 30/30/30 35/35/35 34/34/34
f 31/31/31 36/36/36 35/35/35
f 32/32/32 37/37/37 33/33/33
f 34/34/34 37/37/37 32/32/32
f 37/37/37 38/38/38 33/33/33
f 35/35/35 39/39/39 34/34/34
f 34/34/34 39/39/39 37/37/37
f 36/36/36 40/40/40 35/35/35
f 35/35/35 40/40/40 39/39/39
f 36/36/36 41/41/41 40/40/40
f 37/37/37 42/42/42 38/38/38
f 39/39/39 42/42/42 37/37/37
f 42/42/42 43/43/43 38/38/38
f 40/40/40 44/44/44 39/39/39
f 39/39/39 44/44/44 42/42/42
f 41/41/41 45/45/45 40/40/40
f 40/40/40 45/45/45 44/44/44
f 41/41/41 46/46/46 45/45/45
f 42/42/42 47/47/47 43/43/43
f 44/44/44 47/47/47 42/42/42
f 47/47/47 48/48/48 43/43/43
f 45/45/45 49/49/49 44/44/44
f 44/44/44 49/49/49 47/47/47
f 46/46/46 50/50/50 45/45/45
f 45/45/45 50/50/50 49/49/49
f 46/46/46 51/51/51 50/50/50
f 47/47/47 52/52/52 48/48/48
f 49/49/49 52/52/52 47/47/47
f 52/52/52 53/53/53 48/48/48
f 50/50/50 54/54/54 49/49/49
f 49/49/49 54/54/54 52/52/52
f 51/51/51 55/55/55 50/50/50
f 50/50/50 55/55/55 54/54/54
f 51/51/51 56/56/56 55/55/55
f 52/52/52 57/57/57 53/53/53
f 54/54/54 57/57/57 52/52/52
f 57/57/57 58/58/58 53/53/53
f 55/55/55 59/59/59 54/54/54
f 54/54/54 59/59/59 57/57/57
f 56/56/56 60/60/60 55/55/55
f 55/55/55 60/60/60 59/59/59
f 56/56/56 61/61/61 60/60/60
f 57/57/57 62/62/62 58/58/58
f 59/59/59 62/62/62 57/57/57
f 62/62/62 63/63/63 58/58/58
f 60/60/60 64/64/64 59/59/59
f 59/59/59 64/64/64 62/62/62
f 61/61/61 65/65/65 60/60/60
f 60/60/60 65/65/65 64/64/64
f 61/61/61 66/66/66 65/65/65
f 62/62/62 67/67/67 63/63/63
f 64/64/64 67/67/67 62/62/62
f 67/67/67 68/68/68 63/63/63
f 65/65/65 69/69/69 64/64/64
f 64/64/64 69/69/69 67/67/67
f 66/66/66 70/70/70 65/65/65
f 65/65/65 70/70/70 69/69/69
f 66/66/66 71/71/71 70/70/70
f 67/67/67 72/72/72 68/68/68
f 69/69/69 72/72/72 67/67/67
f 72/72/72 73/73/73 68/68/68
f 70/70/70 74/74/74 69/69/69
f 69/69/69 74/74/74 72/72/72
f 71/71/71 75/75/75 70/70/70
f 70/70/70 75/75/75 74/74/74
f 71/71/71 76/76/76 75/75/75
f 72/72/72 77/77/77 73/73/73
f 74/74/74 77/77/77 72/72/72
f 77/77/77 78/78/78 73/73/73
f 75/75/75 79/79/79 74/74/74
f 74/74/74 79/79/79 77/77/77
f 76/76/76 80/80/80 75/75/75
f 75/75/75 80/80/80 79/79/79
f 76/76/76 81/81/81 80/80/80
f 77/77/77 82/82/82 78/78/78
f 79/79/79 82/82/82 77/77/77
f 82/82/82 83/83/83 78/78/78
f 80/80/80 84/84/84 79/79/79
f 79/79/79 84/84/84 82/82/82
f 81/81/81 85/85/85 80/80/80
f 80/80/80 85/85/85 84/84/84
f 81/81/81 86/86/86 85/85/85
f 82/82/82 87/87/87 83/83/83
f 84/84/84 87/87/87 82/82/82
f 87/87/87 88/88/88 83/83/83
f 85/85/85 89/89/89 84/84/84
f 84/84/84 89/89/89 87/87/87
f 86/86/86 90/90/90 85/85/85
f 85/85/85 90/90/90 89/89/89
f 86/86/86 91/91/91 90/90/90
f 87/87/87 92/92/92 88/88/88
f 89/89/89 92/92/92 87/87/87
f 92/92/92 93/93/93 88/88/88
f 90/90/90 94/94/94 89/89/89
f 89/89/89 94/94/94 92/92/92
f 91/91/91 95/95/95 90/90/90
f 90/90/90 95/95/95 94/94/94
f 91/91/91 96/96/96 95/95/95
f 92/92/92 97/97/97 93/93/93
f 94/94/94 97/97/97 92/92/92
f 97/97/97 98/98/98 93/93/93
f 95/95/95 99/99/99 94/94/94
f 94/94/94 99/99/99 97/97/97
f 96/96/96 100/100/100 95/95/95
f 95/95/95 100/100/100 99/99/99
f 96/96/96 101/101/101 100/100/100
f 97/97/97 102/102/102 98/98/98
f 99/99/99 102/102/102 97/97/97
f 102/102/102 103/103/103 98/98/98
f 100/100/100 104/104/104 99/99/99
f 99/99/99 104/104/104 102/102/102
f 101/101/101 105/105/105 100/100/100
f 100/100/100 105/105/105 104/104/104
f 101/101/101 106/106/106 105/105/105
f 102/102/102 107/107/107 103/103/103
f 104/104/104 107/107/107 102/102/102
f 107/107/107 108/108/108 103/103/103
f 105/105/105 109/109/109 104/104/104
f 104/104/104 109/109/109 107/107/107
f 106/106/106 110/110/110 105/105/105
f 105/105/105 110/110/110 109/109/109
f 106/106/106 111/111/111 110/110/110
f 107/107/107 112/112/112 108/108/108
f 109/109/109 112/112/112 107/107/107
f 112/112/112 113/113/113 108/108/108
f 110/110/110 114/114/114 109/109/109
f 109/109/109 114/114/114 112/112/112
f 111/111/111 115/115/115 110/110/110
f 110/110/110 115/115/115 114/114/114
f 111/111/111 116/116/116 115/115/115
f 116/116/116 117/117/117 115/115/115
f 112/112/112 118/118/118 113/113/113
f 114/114/114 118/118/118 112/112/112
f 118/118/118 119/119/119 113/113/113
f 115/115/115 120/120/120 114/114/114
f 115/115/115 117/117/117 120/120/120
f 114/114/114 120/120/120 118/118/118
f 117/117/117 121/121/121 120/120/120
f 118/118/118 122/122/122 119/119/119
f 120/120/120 122/122/122 118/118/118
f 120/120/120 121/121/121 122/122/122
f 122/122/122 123/123/123 119/119/119
f 121/121/121 124/124/124 122/122/122
f 122/122/122 124/124/124 123/123/123
f 124/124/124 125/125/125 123/123/123
