g FX_Ice_mesh_part
v -0.0041574095 0.7452695 -0.14138013
v -0.37986755 0.2214592 -0.09363782
v -0.21817382 0.2187297 -0.44185755
v -0.25638884 -0.28846815 0.47239578
v -0.4318005 -0.27591568 0.3587316
v -0.23897736 0.21415085 0.22216892
v -0.23897736 0.21415085 0.22216892
v -0.095008545 0.49275663 0.12210472
v 0.13954498 0.19518158 0.22021216
v -0.0041574095 0.7452695 -0.14138013
v 0.1360791 0.23492874 -0.38788554
v 0.34663084 0.21375686 -0.17819044
v -0.0041574095 0.7452695 -0.14138013
v -0.21817382 0.2187297 -0.44185755
v 0.1360791 0.23492874 -0.38788554
v 0.1360791 0.23492874 -0.38788554
v 0.14302124 0.04638321 -0.47239593
v 0.22538269 -0.0210878 -0.45471904
v 0.1360791 0.23492874 -0.38788554
v -0.21817382 0.2187297 -0.44185755
v 0.14302124 0.04638321 -0.47239593
v -0.49509123 -0.045643464 -0.088496484
v -0.21817382 0.2187297 -0.44185755
v -0.37986755 0.2214592 -0.09363782
v 0.25227812 -0.3214389 0.42367378
v 0.00792572 -0.13004379 -0.016783724
v -0.25638884 -0.28846815 0.47239578
v -0.25638884 -0.28846815 0.47239578
v 0.00792572 -0.13004379 -0.016783724
v -0.4318005 -0.27591568 0.3587316
v 0.35701537 -0.30131286 0.20589536
v 0.00792572 -0.13004379 -0.016783724
v 0.25227812 -0.3214389 0.42367378
v 0.49509123 -0.1816394 -0.15428084
v 0.00792572 -0.13004379 -0.016783724
v 0.35701537 -0.30131286 0.20589536
v 0.22538269 -0.0210878 -0.45471904
v 0.00792572 -0.13004379 -0.016783724
v 0.49509123 -0.1816394 -0.15428084
v 0.14302124 0.04638321 -0.47239593
v 0.00792572 -0.13004379 -0.016783724
v 0.22538269 -0.0210878 -0.45471904
v -0.21817382 0.2187297 -0.44185755
v 0.00792572 -0.13004379 -0.016783724
v 0.14302124 0.04638321 -0.47239593
v -0.4318005 -0.27591568 0.3587316
v 0.00792572 -0.13004379 -0.016783724
v -0.49509123 -0.045643464 -0.088496484
v -0.49509123 -0.045643464 -0.088496484
v 0.00792572 -0.13004379 -0.016783724
v -0.21817382 0.2187297 -0.44185755
v -0.0041574095 0.7452695 -0.14138013
v -0.095008545 0.49275663 0.12210472
v -0.37986755 0.2214592 -0.09363782
v -0.23897736 0.21415085 0.22216892
v -0.49509123 -0.045643464 -0.088496484
v -0.37986755 0.2214592 -0.09363782
v -0.23897736 0.21415085 0.22216892
v -0.4318005 -0.27591568 0.3587316
v -0.25638884 -0.28846815 0.47239578
v -0.23897736 0.21415085 0.22216892
v 0.13954498 0.19518158 0.22021216
v 0.25227812 -0.3214389 0.42367378
v 0.49509123 -0.1816394 -0.15428084
v 0.35701537 -0.30131286 0.20589536
v 0.34663084 0.21375686 -0.17819044
v 0.13954498 0.19518158 0.22021216
v 0.25227812 -0.3214389 0.42367378
v -0.095008545 0.49275663 0.12210472
v -0.0041574095 0.7452695 -0.14138013
v 0.34663084 0.21375686 -0.17819044
v 0.13954498 0.19518158 0.22021216
v 0.34663084 0.21375686 -0.17819044
v 0.22538269 -0.0210878 -0.45471904
v 0.49509123 -0.1816394 -0.15428084
v 0.1360791 0.23492874 -0.38788554
vt 0.8560405 0.327766
vt 0.851645 0.31263414
vt 0.8715649 0.31263414
vt 0.91515464 0.2360671
vt 0.8976628 0.23590824
vt 0.9064087 0.26814166
vt 0.9009081 0.27609453
vt 0.90960956 0.28356025
vt 0.91802573 0.27609453
vt 0.8493832 0.2995095
vt 0.8493832 0.28368145
vt 0.8720846 0.28368145
vt 0.8471682 0.2993326
vt 0.8234522 0.28368145
vt 0.8471682 0.28368145
vt 0.850504 0.27765372
vt 0.847682 0.26453155
vt 0.8513249 0.25971588
vt 0.8401109 0.275758
vt 0.82356715 0.275758
vt 0.84056836 0.263234
vt 0.8976628 0.25048906
vt 0.9200109 0.26814166
vt 0.8976628 0.26814166
vt 0.8976628 0.2360671
vt 0.9034934 0.23601414
vt 0.91515464 0.2360671
vt 0.91515464 0.2360671
vt 0.9034934 0.23601414
vt 0.8976628 0.23590824
vt 0.8895091 0.2360671
vt 0.8878195 0.23799302
vt 0.8976628 0.2360671
vt 0.8762867 0.24184485
vt 0.8878195 0.23799302
vt 0.8895091 0.2360671
vt 0.85358596 0.25856313
vt 0.8628836 0.25088996
vt 0.8721813 0.2432168
vt 0.847682 0.26453155
vt 0.84950346 0.26212373
vt 0.8513249 0.25971588
vt 0.82356715 0.275758
vt 0.8320678 0.269496
vt 0.84056836 0.263234
vt 0.8762206 0.2360671
vt 0.8869417 0.24327807
vt 0.8976628 0.25048906
vt 0.8976628 0.25048906
vt 0.90883684 0.25931534
vt 0.9200109 0.26814166
vt 0.85142666 0.31263414
vt 0.84120816 0.32238293
vt 0.83022255 0.31263414
vt 0.8304454 0.32844308
vt 0.8976628 0.25048906
vt 0.8976628 0.26814166
vt 0.8762206 0.26814166
vt 0.8762206 0.2360671
vt 0.91515464 0.2360671
vt 0.9064087 0.26814166
vt 0.8976628 0.26814166
vt 0.8976628 0.2360671
vt 0.8762867 0.24184485
vt 0.8895091 0.2360671
vt 0.87658757 0.26814166
vt 0.8976628 0.26814166
vt 0.8976628 0.2360671
vt 0.9078171 0.2851784
vt 0.8919804 0.29783413
vt 0.8816265 0.2765374
vt 0.8982235 0.2765374
vt 0.8721606 0.275758
vt 0.85358596 0.25856313
vt 0.8721813 0.2432168
vt 0.85449326 0.275758
vn -0.77256393 0.5210632 -0.36281967
vn -0.77256393 0.52106315 -0.36281964
vn -0.77256393 0.5210632 -0.36281967
vn -0.47662672 0.4049676 0.78027445
vn -0.47662678 0.4049676 0.7802744
vn -0.47662678 0.40496764 0.78027445
vn 0.02132749 0.3281632 0.9443803
vn 0.02132749 0.3281632 0.9443803
vn 0.02132749 0.3281632 0.9443803
vn 0.6466455 0.4684649 -0.60198855
vn 0.6466455 0.4684649 -0.60198855
vn 0.6466454 0.46846488 -0.6019885
vn 0.11347923 0.45724267 -0.88207227
vn 0.115326814 0.44193244 -0.8896041
vn 0.11636758 0.43312308 -0.8937913
vn 0.4770975 0.37403136 -0.79528517
vn 0.47709748 0.37403136 -0.7952852
vn 0.4770975 0.3740314 -0.79528517
vn 0.11636758 0.43312308 -0.8937913
vn 0.115326814 0.44193244 -0.8896041
vn 0.11905158 0.40975344 -0.9043941
vn -0.8460287 0.35734725 -0.39564928
vn -0.8460287 0.35734725 -0.39564928
vn -0.8460287 0.35734722 -0.39564928
vn -0.09410608 -0.9311083 -0.3523939
vn -0.09410608 -0.9311083 -0.3523939
vn -0.09410609 -0.9311083 -0.35239393
vn 0.09844653 -0.9610985 -0.25806597
vn 0.09844654 -0.9610985 -0.25806597
vn 0.09844653 -0.9610985 -0.25806597
vn -0.30509368 -0.92360926 -0.23208578
vn -0.30509365 -0.92360926 -0.23208575
vn -0.30509368 -0.92360926 -0.23208575
vn -0.19582017 -0.91602623 -0.3500722
vn -0.19604276 -0.91561806 -0.3510139
vn -0.20231305 -0.90352714 -0.37776726
vn -0.18979247 -0.9265566 -0.32476392
vn -0.19604276 -0.91561806 -0.3510139
vn -0.19582017 -0.91602623 -0.3500722
vn -0.51159286 -0.7392378 -0.43795004
vn -0.51159286 -0.7392378 -0.43795004
vn -0.51159286 -0.7392378 -0.43795004
vn -0.41771996 -0.79868823 -0.43313646
vn -0.41772 -0.79868823 -0.43313643
vn -0.41772 -0.79868823 -0.43313646
vn -0.08579627 -0.8906813 -0.44645914
vn -0.08579626 -0.8906813 -0.44645908
vn -0.08579625 -0.8906813 -0.44645908
vn -0.043077547 -0.78347486 -0.6199286
vn -0.043077547 -0.78347486 -0.6199286
vn -0.043077547 -0.78347486 -0.6199286
vn -0.76879096 0.55607593 0.31581655
vn -0.76879096 0.55607593 0.31581655
vn -0.76879096 0.5560758 0.31581655
vn -0.7687909 0.55607593 0.31581652
vn -0.8419462 0.40850607 0.3524904
vn -0.8419462 0.40850607 0.35249037
vn -0.8419462 0.4085061 0.35249034
vn -0.8419462 0.40850607 0.35249037
vn 0.07596898 0.41140327 0.90828186
vn 0.07596899 0.41140327 0.90828186
vn 0.07596898 0.41140324 0.90828186
vn 0.07596899 0.41140324 0.90828186
vn 0.83496344 0.3396864 0.432954
vn 0.8288965 0.34715822 0.43864745
vn 0.83020186 0.34556505 0.43743533
vn 0.826954 0.34951514 0.44043884
vn 0.8269539 0.34951514 0.4404389
vn 0.6800317 0.5184372 0.51843977
vn 0.6800317 0.5184372 0.51843977
vn 0.6800317 0.5184372 0.51843977
vn 0.6800317 0.51843715 0.51843977
vn 0.74481124 0.31076384 -0.590493
vn 0.74481124 0.31076384 -0.590493
vn 0.74481124 0.31076384 -0.5904931
vn 0.74481124 0.31076387 -0.5904931
g FX_Ice_mesh_part_0
f 3/3/3 2/2/2 1/1/1
f 6/6/6 5/5/5 4/4/4
f 9/9/9 8/8/8 7/7/7
f 12/12/12 11/11/11 10/10/10
f 15/15/15 14/14/14 13/13/13
f 18/18/18 17/17/17 16/16/16
f 21/21/21 20/20/20 19/19/19
f 24/24/24 23/23/23 22/22/22
f 27/27/27 26/26/26 25/25/25
f 30/30/30 29/29/29 28/28/28
f 33/33/33 32/32/32 31/31/31
f 36/36/36 35/35/35 34/34/34
f 39/39/39 38/38/38 37/37/37
f 42/42/42 41/41/41 40/40/40
f 45/45/45 44/44/44 43/43/43
f 48/48/48 47/47/47 46/46/46
f 51/51/51 50/50/50 49/49/49
f 54/54/54 53/53/53 52/52/52
f 54/54/54 55/55/55 53/53/53
f 58/58/58 57/57/57 56/56/56
f 56/56/56 59/59/59 58/58/58
f 62/62/62 61/61/61 60/60/60
f 60/60/60 63/63/63 62/62/62
f 66/66/66 65/65/65 64/64/64
f 65/65/65 66/66/66 67/67/67
f 67/67/67 68/68/68 65/65/65
f 71/71/71 70/70/70 69/69/69
f 69/69/69 72/72/72 71/71/71
f 75/75/75 74/74/74 73/73/73
f 74/74/74 76/76/76 73/73/73
