g FX_keydoor_base_light2
v 0.3413041 1.1686527 0.32817757
v 0.32799655 1.1522745 -0.84747034
v 0.22667897 1.2408905 -0.91744244
v 0.23276792 1.267892 0.32124737
v 0.26415357 0.50200963 0.3973629
v 0.24076083 0.49168918 -0.7738868
v 0.30907875 0.5310735 -0.7899671
v 0.34887 0.51201755 0.3873548
v -0.3151039 0.5327325 -0.7898066
v -0.24233796 0.49003005 -0.7734885
v -0.2671981 0.500357 0.39776653
v -0.35598356 0.5136701 0.38747773
v -0.2256487 1.2432821 -0.9174521
v -0.33362314 1.1498827 -0.8469018
v -0.34766012 1.1660467 0.32872888
v -0.2326864 1.2704979 0.32122263
v 0.22667897 1.2408905 -0.91744244
v 0.32799655 1.1522745 -0.84747034
v 0.30907875 0.5310735 -0.7899671
v 0.24076083 0.49168918 -0.7738868
v -0.24233796 0.49003005 -0.7734885
v -0.2256487 1.2432821 -0.9174521
v -0.33362314 1.1498827 -0.8469018
v -0.3151039 0.5327325 -0.7898066
v 0.32809448 1.5118743 0.6102356
v 0.6039164 1.2262117 0.6468941
v 0.3413041 1.1686527 0.32817757
v 0.23276792 1.267892 0.32124737
v 0.61296 0.4442232 0.7329316
v 0.3160939 0.35315612 0.773144
v 0.26415357 0.50200963 0.3973629
v 0.34887 0.51201755 0.3873548
v -0.6221498 0.44576433 0.72968024
v -0.35598356 0.5136701 0.38747773
v -0.2671981 0.500357 0.39776653
v -0.31812352 0.35099217 0.77184665
v -0.3251403 1.5147811 0.6082525
v -0.2326864 1.2704979 0.32122263
v -0.34766012 1.1660467 0.32872888
v -0.6121762 1.2226819 0.6443288
v -0.2256487 1.2432821 -0.9174521
v -0.2326864 1.2704979 0.32122263
v 0.23276792 1.267892 0.32124737
v 0.22667897 1.2408905 -0.91744244
v 0.34887 0.51201755 0.3873548
v 0.30907875 0.5310735 -0.7899671
v 0.32799655 1.1522745 -0.84747034
v 0.3413041 1.1686527 0.32817757
v -0.2671981 0.500357 0.39776653
v -0.24233796 0.49003005 -0.7734885
v 0.24076083 0.49168918 -0.7738868
v 0.26415357 0.50200963 0.3973629
v -0.34766012 1.1660467 0.32872888
v -0.33362314 1.1498827 -0.8469018
v -0.3151039 0.5327325 -0.7898066
v -0.35598356 0.5136701 0.38747773
v -0.2326864 1.2704979 0.32122263
v -0.3251403 1.5147811 0.6082525
v 0.32809448 1.5118743 0.6102356
v 0.23276792 1.267892 0.32124737
v 0.61296 0.4442232 0.7329316
v 0.34887 0.51201755 0.3873548
v 0.3413041 1.1686527 0.32817757
v 0.6039164 1.2262117 0.6468941
v -0.31812352 0.35099217 0.77184665
v -0.2671981 0.500357 0.39776653
v 0.26415357 0.50200963 0.3973629
v 0.3160939 0.35315612 0.773144
v -0.6121762 1.2226819 0.6443288
v -0.34766012 1.1660467 0.32872888
v -0.35598356 0.5136701 0.38747773
v -0.6221498 0.44576433 0.72968024
vt 0.61386967 0.7241658
vt 0.014903396 0.69945604
vt 0.014903396 0.785666
vt 0.61386967 0.776541
vt 0.61386967 0.22779009
vt 0.014903396 0.20913126
vt 0.014903396 0.31274372
vt 0.61386967 0.29700553
vt 0.014903396 0.31389472
vt 0.014903396 0.20798044
vt 0.61386967 0.22655962
vt 0.61386967 0.29823616
vt 0.014903396 0.78732526
vt 0.014903396 0.69779694
vt 0.61386967 0.72222555
vt 0.61386967 0.7784814
vt 0.014903396 0.785666
vt 0.014903396 0.69945604
vt 0.014903396 0.31274372
vt 0.014903396 0.20913126
vt 0.014903396 0.20798044
vt 0.014903396 0.78732526
vt 0.014903396 0.69779694
vt 0.014903396 0.31389472
vt 0.98527616 0.8209252
vt 0.98527616 0.6797816
vt 0.61386967 0.7241658
vt 0.61386967 0.776541
vt 0.98527616 0.3425938
vt 0.98527616 0.18220183
vt 0.61386967 0.22779009
vt 0.61386967 0.29700553
vt 0.98527616 0.34355742
vt 0.61386967 0.29823616
vt 0.61386967 0.22655962
vt 0.98527616 0.18123837
vt 0.98527616 0.82246864
vt 0.61386967 0.7784814
vt 0.61386967 0.72222555
vt 0.98527616 0.67823833
vt 0.014903396 0.78732526
vt 0.61386967 0.7784814
vt 0.61386967 0.776541
vt 0.014903396 0.785666
vt 0.61386967 0.29700553
vt 0.014903396 0.31274372
vt 0.014903396 0.69945604
vt 0.61386967 0.7241658
vt 0.61386967 0.22655962
vt 0.014903396 0.20798044
vt 0.014903396 0.20913126
vt 0.61386967 0.22779009
vt 0.61386967 0.72222555
vt 0.014903396 0.69779694
vt 0.014903396 0.31389472
vt 0.61386967 0.29823616
vt 0.61386967 0.7784814
vt 0.98527616 0.82246864
vt 0.98527616 0.8209252
vt 0.61386967 0.776541
vt 0.98527616 0.3425938
vt 0.61386967 0.29700553
vt 0.61386967 0.7241658
vt 0.98527616 0.6797816
vt 0.98527616 0.18123837
vt 0.61386967 0.22655962
vt 0.61386967 0.22779009
vt 0.98527616 0.18220183
vt 0.98527616 0.67823833
vt 0.61386967 0.72222555
vt 0.61386967 0.29823616
vt 0.98527616 0.34355742
vn -0.67065644 -0.741532 0.018711502
vn -0.67065644 -0.741532 0.018711502
vn -0.6706564 -0.741532 0.018711502
vn -0.67065644 -0.7415321 0.018711504
vn -0.30531415 0.9521791 0.011755526
vn -0.30531415 0.9521791 0.011755526
vn -0.30531415 0.9521791 0.011755526
vn -0.30531418 0.9521791 0.011755526
vn 0.32571676 0.94538295 0.012633765
vn 0.32571682 0.94538295 0.012633766
vn 0.32571673 0.94538295 0.012633765
vn 0.32571676 0.94538295 0.012633766
vn 0.6673839 -0.7444662 0.019202098
vn 0.66738385 -0.74446625 0.019202098
vn 0.6673839 -0.7444662 0.019202096
vn 0.6673839 -0.7444662 0.019202098
vn 0.00050429045 0.17730054 0.98415655
vn 0.00050429057 0.17730056 0.98415655
vn 0.00050429057 0.17730057 0.98415655
vn 0.00050429057 0.17730056 0.98415655
vn 0.00050429057 0.17730054 0.98415655
vn 0.00050429057 0.17730057 0.98415655
vn 0.00050429057 0.17730056 0.98415655
vn 0.00050429057 0.17730056 0.98415655
vn -0.59414685 -0.524219 0.6100689
vn -0.5941467 -0.524219 0.6100689
vn -0.5941467 -0.524219 0.6100689
vn -0.5941467 -0.524219 0.6100689
vn -0.19447519 0.912725 0.3593223
vn -0.19447519 0.912725 0.35932228
vn -0.19447519 0.912725 0.3593223
vn -0.19447519 0.912725 0.3593223
vn 0.201395 0.9090094 0.3648862
vn 0.20139499 0.9090094 0.36488616
vn 0.201395 0.9090094 0.3648862
vn 0.201395 0.9090094 0.36488622
vn 0.58789885 -0.5287036 0.61224794
vn 0.58789885 -0.5287036 0.612248
vn 0.5878988 -0.5287035 0.6122479
vn 0.58789885 -0.5287036 0.61224794
vn -0.0054446366 -0.9997458 0.021877447
vn -0.0054446366 -0.9997458 0.021877447
vn -0.0054446366 -0.9997458 0.021877449
vn -0.0054446375 -0.9997458 0.021877447
vn -0.9996853 0.010941981 0.022572063
vn -0.9996853 0.010941981 0.022572061
vn -0.9996853 0.010941981 0.022572061
vn -0.9996853 0.010941982 0.022572063
vn -0.0032714738 0.9999558 -0.008815888
vn -0.003271474 0.9999558 -0.008815888
vn -0.003271474 0.9999558 -0.008815889
vn -0.0032714738 0.9999558 -0.008815887
vn 0.99967587 0.0101587875 0.02334477
vn 0.99967587 0.010158788 0.023344772
vn 0.99967587 0.010158789 0.023344772
vn 0.99967587 0.010158788 0.02334477
vn -0.0049194964 -0.7627994 0.64661634
vn -0.004919497 -0.7627994 0.64661634
vn -0.004919497 -0.7627994 0.64661634
vn -0.004919497 -0.7627994 0.64661634
vn -0.7820536 0.053644378 0.6208981
vn -0.7820536 0.053644378 0.6208981
vn -0.7820536 0.05364438 0.6208981
vn -0.7820536 0.053644378 0.62089807
vn -0.0033259965 0.9292057 0.3695478
vn -0.0033259967 0.92920583 0.36954775
vn -0.0033259972 0.92920583 0.36954778
vn -0.003325997 0.92920583 0.36954778
vn 0.7767453 0.0533259 0.6275532
vn 0.7767454 0.053325903 0.62755316
vn 0.7767453 0.053325903 0.6275532
vn 0.7767453 0.0533259 0.62755316
g FX_keydoor_base_light2_0
f 3/3/3 2/2/2 1/1/1
f 4/4/4 3/3/3 1/1/1
f 7/7/7 6/6/6 5/5/5
f 8/8/8 7/7/7 5/5/5
f 11/11/11 10/10/10 9/9/9
f 12/12/12 11/11/11 9/9/9
f 15/15/15 14/14/14 13/13/13
f 16/16/16 15/15/15 13/13/13
f 19/19/19 18/18/18 17/17/17
f 17/17/17 20/20/20 19/19/19
f 17/17/17 21/21/21 20/20/20
f 17/17/17 22/22/22 21/21/21
f 22/22/22 23/23/23 21/21/21
f 23/23/23 24/24/24 21/21/21
f 27/27/27 26/26/26 25/25/25
f 28/28/28 27/27/27 25/25/25
f 31/31/31 30/30/30 29/29/29
f 32/32/32 31/31/31 29/29/29
f 35/35/35 34/34/34 33/33/33
f 36/36/36 35/35/35 33/33/33
f 39/39/39 38/38/38 37/37/37
f 40/40/40 39/39/39 37/37/37
f 43/43/43 42/42/42 41/41/41
f 44/44/44 43/43/43 41/41/41
f 47/47/47 46/46/46 45/45/45
f 48/48/48 47/47/47 45/45/45
f 51/51/51 50/50/50 49/49/49
f 52/52/52 51/51/51 49/49/49
f 55/55/55 54/54/54 53/53/53
f 56/56/56 55/55/55 53/53/53
f 59/59/59 58/58/58 57/57/57
f 60/60/60 59/59/59 57/57/57
f 63/63/63 62/62/62 61/61/61
f 64/64/64 63/63/63 61/61/61
f 67/67/67 66/66/66 65/65/65
f 68/68/68 67/67/67 65/65/65
f 71/71/71 70/70/70 69/69/69
f 72/72/72 71/71/71 69/69/69
