g fx_laser_plane_wider_vtcolor_2
v 1.1679035 -0.15247838 -9.59335E-10
v 1.2065687 -2.8610229E-08 -1.2505928E-15
v 1.2065691 -0.15247843 -6.6906067E-09
v 1.1679034 -3.8146972E-08 5.7312235E-09
v 1.2065691 0.15203445 6.6667414E-09
v 1.1085638 -0.15247832 1.4482794E-08
v 1.1679035 0.15203434 1.2397868E-08
v 1.1085635 -3.8146972E-08 2.1173268E-08
v 1.0504024 -0.15247831 3.7008213E-08
v 1.1085638 0.15203428 2.7839851E-08
v 1.0504022 -3.8146972E-08 4.369862E-08
v 0.99342346 -0.15247828 6.3989354E-08
v 1.0504024 0.15203424 5.0365124E-08
v 0.99342316 -3.8146975E-08 7.067972E-08
v 0.9376301 -0.15247826 9.27988E-08
v 0.99342346 0.1520342 7.7346265E-08
v 0.93763006 -2.8610234E-08 9.948912E-08
v 0.8830262 -0.15247825 1.2080898E-07
v 0.9376301 0.15203418 1.0615564E-07
v 0.883026 -2.8610234E-08 1.2749933E-07
v 0.82961535 -0.15247825 1.4539248E-07
v 0.8830262 0.15203415 1.3416582E-07
v 0.8296152 -4.768372E-08 1.5208283E-07
v 0.77740103 -0.15247825 1.6392173E-07
v 0.82961524 0.15203415 1.5874932E-07
v 0.77740085 -5.722047E-08 1.7061205E-07
v 0.726387 -0.15247823 1.737693E-07
v 0.77740103 0.15203415 1.7727848E-07
v 0.7263869 -5.722047E-08 1.8045955E-07
v 0.67657644 -0.15247822 1.7230755E-07
v 0.726387 0.15203413 1.8712599E-07
v 0.67657644 -5.722047E-08 1.7899785E-07
v 0.62797344 -0.15247822 1.5690915E-07
v 0.67657644 0.15203413 1.8566432E-07
v 0.62797326 -5.722047E-08 1.6359941E-07
v 0.58058125 -0.15247819 1.2494645E-07
v 0.62797344 0.1520341 1.7026592E-07
v 0.5805812 -6.67572E-08 1.3163672E-07
v 0.5344036 -0.15247816 7.379211E-08
v 0.5805812 0.15203407 1.3830308E-07
v 0.53440356 -4.768372E-08 8.048232E-08
v 0.48944408 -0.15247811 8.1854523E-10
v 0.5344036 0.15203401 8.7148656E-08
v 0.48944405 -5.7220458E-08 7.508664E-09
v 0.44591317 -0.15247807 -9.6601944E-08
v 0.48944408 0.15203395 1.417502E-08
v 0.44591978 -5.7211523E-08 -8.9911914E-08
v 0.4049107 -0.15247816 -2.2109677E-07
v 0.44591317 0.1520339 -8.324569E-08
v 0.40491608 -8.654372E-08 -2.1440661E-07
v 0.3627632 -0.15247817 -3.752934E-07
v 0.4049107 0.15203401 -2.077403E-07
v 0.36276314 -7.701341E-08 -3.6860317E-07
v 0.321248 -0.15247808 -5.618191E-07
v 0.36276314 0.15203403 -3.6193683E-07
v 0.3212492 -7.713873E-08 -5.551289E-07
v 0.2832985 -0.15247808 -7.833015E-07
v 0.321248 0.1520339 -5.4846276E-07
v 0.28335655 -8.7846054E-08 -7.766113E-07
v 0.24695984 -0.15247811 -1.0423687E-06
v 0.2832985 0.1520339 -7.699452E-07
v 0.24694851 -7.7755345E-08 -1.0356786E-06
v 0.21038444 -0.15247807 -1.3416474E-06
v 0.24695979 0.15203395 -1.0290122E-06
v 0.21078388 -6.722536E-08 -1.3349571E-06
v 0.17816086 -0.15247801 -1.6837648E-06
v 0.21038444 0.1520339 -1.3282911E-06
v 0.17830482 -6.822364E-08 -1.6770746E-06
v 0.14351879 -0.15247737 -2.0713485E-06
v 0.17816077 0.15203378 -1.6704088E-06
v 0.1435408 -1.0256788E-07 -2.0646594E-06
v 0.107170105 -0.15247677 -2.5068402E-06
v 0.14351879 0.1520332 -2.057994E-06
v 0.10717007 -8.218561E-08 -2.5003385E-06
v 0.07770313 -0.1524786 -2.9930363E-06
v 0.107170105 0.15205824 -2.4938374E-06
v 0.07752512 -4.890644E-08 -2.9867404E-06
v 0.04941265 -0.15242313 -3.5322987E-06
v 0.07770313 0.15206136 -2.9804442E-06
v 0.048900213 -3.64528E-08 -3.5264895E-06
v 0.025717353 -0.15235211 -4.1270573E-06
v 0.04941265 0.15196687 -3.5206815E-06
v 0.025667902 -9.9850965E-08 -4.1222156E-06
v 0.016502762 -0.15216824 -5.1061643E-06
v 0.025717353 0.1518459 -4.1173753E-06
v 0.016815348 -5.1549225E-08 -5.1018756E-06
v 0.004943522 -0.12340053 -5.505009E-06
v 0.016502762 0.15153277 -5.09759E-06
v 0.0052432083 -1.4170605E-08 -5.5015084E-06
v -0.006239581 -0.10008252 -5.939442E-06
v 0.004943522 0.12340047 -5.4980105E-06
v -0.006239581 -7.908646E-08 -5.9368062E-06
v -0.006239581 0.10008248 -5.934171E-06
vt 0.96666706 0
vt 1.0000004 0.5
vt 1.0000004 0
vt 0.96666706 0.5
vt 1.0000004 1
vt 0.9333337 0
vt 0.96666706 1
vt 0.9333337 0.5
vt 0.90000033 0
vt 0.9333337 1
vt 0.90000033 0.5
vt 0.866667 0
vt 0.90000033 1
vt 0.866667 0.5
vt 0.8333336 0
vt 0.866667 1
vt 0.8333336 0.5
vt 0.80000025 0
vt 0.8333336 1
vt 0.80000025 0.5
vt 0.7666669 0
vt 0.80000025 1
vt 0.7666669 0.5
vt 0.7333335 0
vt 0.7666669 1
vt 0.7333335 0.5
vt 0.70000017 0
vt 0.7333335 1
vt 0.70000017 0.5
vt 0.6666668 0
vt 0.70000017 1
vt 0.6666668 0.5
vt 0.63333344 0
vt 0.6666668 1
vt 0.63333344 0.5
vt 0.6000001 0
vt 0.63333344 1
vt 0.6000001 0.5
vt 0.5666667 0
vt 0.6000001 1
vt 0.5666667 0.5
vt 0.53333336 0
vt 0.5666667 1
vt 0.53333336 0.5
vt 0.5 0
vt 0.53333336 1
vt 0.5 0.5
vt 0.46666667 0
vt 0.5 1
vt 0.46666667 0.5
vt 0.43333334 0
vt 0.46666667 1
vt 0.43333334 0.5
vt 0.4 0
vt 0.43333334 1
vt 0.4 0.5
vt 0.36666667 0
vt 0.4 1
vt 0.36666667 0.5
vt 0.33333334 0
vt 0.36666667 1
vt 0.33333334 0.5
vt 0.3 0
vt 0.33333334 1
vt 0.3 0.5
vt 0.26666668 0
vt 0.3 1
vt 0.26666668 0.5
vt 0.23333333 0
vt 0.26666668 1
vt 0.23333333 0.5
vt 0.2 0
vt 0.23333333 1
vt 0.2 0.5
vt 0.16666667 0
vt 0.2 1
vt 0.16666667 0.5
vt 0.13333334 0
vt 0.16666667 1
vt 0.13333334 0.5
vt 0.10000001 0
vt 0.13333334 1
vt 0.10000001 0.5
vt 0.06666667 0
vt 0.10000001 1
vt 0.06666667 0.5
vt 0.033333335 0
vt 0.06666667 1
vt 0.033333335 0.5
vt 0 0
vt 0.033333335 1
vt 0 0.5
vt 0 1
vn 2.0422698E-07 0 1
vn 1.4822612E-07 0 1
vn 1.4822615E-07 0 1
vn 2.0422848E-07 0 1
vn 1.4822612E-07 0 1
vn 3.2375956E-07 0 1
vn 2.0422708E-07 0 1
vn 3.2376067E-07 0 1
vn 4.3040828E-07 0 1
vn 3.2375968E-07 0 1
vn 4.3040887E-07 0 1
vn 4.949437E-07 0 1
vn 4.304084E-07 0 1
vn 4.9494395E-07 0 1
vn 5.146653E-07 0 1
vn 4.949438E-07 0 1
vn 5.146653E-07 0 1
vn 4.866209E-07 0 1
vn 5.146654E-07 0 1
vn 4.866207E-07 0 1
vn 4.0757027E-07 0 1
vn 4.866206E-07 0 1
vn 4.0756996E-07 0 1
vn 2.7395228E-07 0 1
vn 4.0757016E-07 0 1
vn 2.7395208E-07 0 1
vn -0 0 1
vn 2.7395237E-07 0 1
vn -0 0 1
vn -1.7308213E-07 0 1
vn -0 0 1
vn -1.7308263E-07 0 1
vn -4.956239E-07 0 1
vn -1.7308179E-07 0 1
vn -4.9562544E-07 0 1
vn -8.910995E-07 0 1
vn -4.9562385E-07 0 1
vn -8.9110256E-07 0 1
vn -1.3654305E-06 0 1
vn -8.9110034E-07 0 1
vn -1.3654353E-06 0 1
vn -1.9306085E-06 0 1
vn -1.3654313E-06 0 1
vn -1.930615E-06 0 1
vn -2.6371968E-06 0 1
vn -1.930609E-06 0 1
vn -2.6371702E-06 0 1
vn -3.34726E-06 0 1
vn -2.6371965E-06 0 1
vn -3.3472377E-06 0 1
vn -4.075633E-06 0 1
vn -3.3472575E-06 0 1
vn -4.0756413E-06 0 1
vn -5.1668053E-06 0 1
vn -4.075634E-06 0 1
vn -5.166815E-06 0 1
vn -6.4816913E-06 0 1
vn -5.1668085E-06 0 1
vn -6.481373E-06 0 1
vn -7.675557E-06 0 1
vn -6.48169E-06 0 1
vn -7.67561E-06 0 1
vn -9.403801E-06 0 1
vn -7.675557E-06 0 1
vn -9.3999415E-06 0 1
vn -1.0871949E-05 0 1
vn -9.4038105E-06 0 1
vn -1.08716595E-05 0 1
vn -1.1559676E-05 0 1
vn -1.0871977E-05 0 1
vn -1.157548E-05 0 1
vn -1.4021697E-05 0 1
vn -1.1561743E-05 0 1
vn -1.4220563E-05 0 1
vn -1.7488619E-05 0 1
vn -1.4031311E-05 0 1
vn -1.7720657E-05 0 1
vn -2.0875697E-05 0 1
vn -1.7488615E-05 0 1
vn -2.2199429E-05 0 1
vn -3.769092E-05 0 1
vn -2.0875696E-05 0 1
vn -4.890529E-05 0 1
vn -6.3720654E-05 0 1
vn -3.7690916E-05 0 1
vn -5.1840605E-05 0 1
vn -3.156028E-05 0 1
vn -6.372063E-05 -1.0774543E-07 1
vn -3.210807E-05 0 1
vn -3.299164E-05 0 1
vn -3.1560285E-05 -1.10628974E-07 1
vn -3.299162E-05 0 1
vn -3.29916E-05 0 1
g fx_laser_plane_wider_vtcolor_2_0
f 3/3/3 2/2/2 1/1/1
f 2/2/2 4/4/4 1/1/1
f 2/2/2 5/5/5 4/4/4
f 1/1/1 4/4/4 6/6/6
f 5/5/5 7/7/7 4/4/4
f 4/4/4 8/8/8 6/6/6
f 4/4/4 7/7/7 8/8/8
f 6/6/6 8/8/8 9/9/9
f 7/7/7 10/10/10 8/8/8
f 8/8/8 11/11/11 9/9/9
f 8/8/8 10/10/10 11/11/11
f 9/9/9 11/11/11 12/12/12
f 10/10/10 13/13/13 11/11/11
f 11/11/11 14/14/14 12/12/12
f 11/11/11 13/13/13 14/14/14
f 12/12/12 14/14/14 15/15/15
f 13/13/13 16/16/16 14/14/14
f 14/14/14 17/17/17 15/15/15
f 14/14/14 16/16/16 17/17/17
f 15/15/15 17/17/17 18/18/18
f 16/16/16 19/19/19 17/17/17
f 17/17/17 20/20/20 18/18/18
f 17/17/17 19/19/19 20/20/20
f 18/18/18 20/20/20 21/21/21
f 19/19/19 22/22/22 20/20/20
f 20/20/20 23/23/23 21/21/21
f 20/20/20 22/22/22 23/23/23
f 21/21/21 23/23/23 24/24/24
f 22/22/22 25/25/25 23/23/23
f 23/23/23 26/26/26 24/24/24
f 23/23/23 25/25/25 26/26/26
f 24/24/24 26/26/26 27/27/27
f 25/25/25 28/28/28 26/26/26
f 26/26/26 29/29/29 27/27/27
f 26/26/26 28/28/28 29/29/29
f 27/27/27 29/29/29 30/30/30
f 28/28/28 31/31/31 29/29/29
f 29/29/29 32/32/32 30/30/30
f 29/29/29 31/31/31 32/32/32
f 30/30/30 32/32/32 33/33/33
f 31/31/31 34/34/34 32/32/32
f 32/32/32 35/35/35 33/33/33
f 32/32/32 34/34/34 35/35/35
f 33/33/33 35/35/35 36/36/36
f 34/34/34 37/37/37 35/35/35
f 35/35/35 38/38/38 36/36/36
f 35/35/35 37/37/37 38/38/38
f 36/36/36 38/38/38 39/39/39
f 37/37/37 40/40/40 38/38/38
f 38/38/38 41/41/41 39/39/39
f 38/38/38 40/40/40 41/41/41
f 39/39/39 41/41/41 42/42/42
f 40/40/40 43/43/43 41/41/41
f 41/41/41 44/44/44 42/42/42
f 41/41/41 43/43/43 44/44/44
f 42/42/42 44/44/44 45/45/45
f 43/43/43 46/46/46 44/44/44
f 44/44/44 47/47/47 45/45/45
f 44/44/44 46/46/46 47/47/47
f 45/45/45 47/47/47 48/48/48
f 46/46/46 49/49/49 47/47/47
f 47/47/47 50/50/50 48/48/48
f 47/47/47 49/49/49 50/50/50
f 48/48/48 50/50/50 51/51/51
f 49/49/49 52/52/52 50/50/50
f 50/50/50 53/53/53 51/51/51
f 50/50/50 52/52/52 53/53/53
f 51/51/51 53/53/53 54/54/54
f 52/52/52 55/55/55 53/53/53
f 53/53/53 56/56/56 54/54/54
f 53/53/53 55/55/55 56/56/56
f 54/54/54 56/56/56 57/57/57
f 55/55/55 58/58/58 56/56/56
f 56/56/56 59/59/59 57/57/57
f 56/56/56 58/58/58 59/59/59
f 57/57/57 59/59/59 60/60/60
f 58/58/58 61/61/61 59/59/59
f 59/59/59 62/62/62 60/60/60
f 59/59/59 61/61/61 62/62/62
f 60/60/60 62/62/62 63/63/63
f 61/61/61 64/64/64 62/62/62
f 62/62/62 65/65/65 63/63/63
f 62/62/62 64/64/64 65/65/65
f 63/63/63 65/65/65 66/66/66
f 64/64/64 67/67/67 65/65/65
f 65/65/65 68/68/68 66/66/66
f 65/65/65 67/67/67 68/68/68
f 66/66/66 68/68/68 69/69/69
f 67/67/67 70/70/70 68/68/68
f 68/68/68 71/71/71 69/69/69
f 68/68/68 70/70/70 71/71/71
f 69/69/69 71/71/71 72/72/72
f 70/70/70 73/73/73 71/71/71
f 71/71/71 74/74/74 72/72/72
f 71/71/71 73/73/73 74/74/74
f 72/72/72 74/74/74 75/75/75
f 73/73/73 76/76/76 74/74/74
f 74/74/74 77/77/77 75/75/75
f 74/74/74 76/76/76 77/77/77
f 75/75/75 77/77/77 78/78/78
f 76/76/76 79/79/79 77/77/77
f 77/77/77 80/80/80 78/78/78
f 77/77/77 79/79/79 80/80/80
f 78/78/78 80/80/80 81/81/81
f 79/79/79 82/82/82 80/80/80
f 80/80/80 83/83/83 81/81/81
f 80/80/80 82/82/82 83/83/83
f 81/81/81 83/83/83 84/84/84
f 82/82/82 85/85/85 83/83/83
f 83/83/83 86/86/86 84/84/84
f 83/83/83 85/85/85 86/86/86
f 84/84/84 86/86/86 87/87/87
f 85/85/85 88/88/88 86/86/86
f 86/86/86 89/89/89 87/87/87
f 86/86/86 88/88/88 89/89/89
f 87/87/87 89/89/89 90/90/90
f 88/88/88 91/91/91 89/89/89
f 89/89/89 92/92/92 90/90/90
f 89/89/89 91/91/91 92/92/92
f 91/91/91 93/93/93 92/92/92
