g fx_lancergirl_drill
v -1.1733263 0.011609127 0.486008
v -0.7805935 0.4536643 0.780594
v -0.8980249 0.011609253 0.8980256
v -1.0198947 0.4536642 0.42245445
v -1.2699993 0.011609068 -2.0192802E-08
v -0.64641404 0.889823 0.64641434
v -1.1039261 0.45366415 -3.810291E-08
v -1.1733266 0.011609084 -0.4860074
v -0.8445807 0.8898229 0.34983692
v -0.5364067 1.2816093 0.5364068
v -1.019895 0.45366415 -0.4224539
v -0.8980252 0.011609173 -0.89802533
v -0.91416764 0.8898228 -5.381969E-08
v -0.7008492 1.2816093 0.2903013
v -0.46172452 1.6733958 0.46172452
v -0.78059375 0.45366427 -0.7805937
v -0.48600748 0.011609321 -1.173327
v -0.844581 0.8898228 -0.3498366
v -0.7585937 1.2816093 -6.906034E-08
v -0.6032722 1.6733958 0.24988346
v -0.3902971 2.1095543 0.39029685
v -0.42245415 0.4536644 -1.0198951
v 6.442639E-07 0.011609508 -1.27
v -0.6464143 0.8898229 -0.64641416
v -0.7008493 1.2816093 -0.29030102
v -0.6529771 1.6733958 -8.807074E-08
v -0.5099477 2.1095543 0.21122707
v -0.2658988 2.5516093 0.25553775
v 4.7403472E-07 0.45366454 -1.1039265
v 0.4860088 0.0116097005 -1.173327
v -0.3498368 0.889823 -0.844581
v -0.5364068 1.2816093 -0.53640676
v -0.60327226 1.6733958 -0.24988331
v -0.5519634 2.1095543 -1.10484166E-07
v -0.34741342 2.5516093 0.13354251
v -0.09799906 3.127816 0.07396834
v -0.12804185 3.127816 0.029006138
v -0.3760375 2.5516093 -0.010360729
v -0.13859148 3.127816 -0.0240304
v -0.50994784 2.1095543 -0.21122704
v -0.34741348 2.5516093 -0.1542638
v -0.1280419 3.127816 -0.077066876
v -0.46172473 1.6733958 -0.4617245
v -0.39029726 2.1095543 -0.39029697
v -0.26589885 2.5516093 -0.2762591
v -0.097999096 3.127816 -0.1220291
v -0.29030126 1.2816094 -0.70084935
v -0.24988365 1.6733958 -0.60327226
v -0.21122746 2.1095543 -0.5099476
v -0.1439036 2.5516095 -0.3577738
v -0.053036883 3.127816 -0.1520719
v 3.0629246E-07 0.8898232 -0.914168
v 1.5549108E-07 1.2816095 -0.758594
v 4.272653E-09 1.6733959 -0.65297717
v -1.6421056E-07 2.1095545 -0.5519633
v -2.9735273E-07 2.5516095 -0.38639793
v -3.2419675E-07 3.127816 -0.16262156
v 0.42245507 0.4536647 -1.0198952
v 0.8980266 0.011609873 -0.8980254
v 0.3498374 0.8898233 -0.844581
v 0.78059477 0.4536649 -0.7805938
v 1.1733278 0.0116099985 -0.4860077
v 0.2903016 1.2816097 -0.7008494
v 0.24988364 1.6733959 -0.60327226
v 0.2112271 2.1095545 -0.50994766
v 1.0198958 0.453665 -0.4224542
v 1.2700007 0.011610057 1.7157187E-07
v 0.64641494 0.8898234 -0.64641434
v 0.53640723 1.2816098 -0.5364068
v 1.1039271 0.45366505 1.2858538E-07
v 1.1733276 0.011610041 0.48600802
v 0.8445816 0.8898235 -0.3498368
v 0.46172482 1.6733959 -0.4617245
v 0.14390297 2.5516095 -0.35777384
v 0.05303623 3.127816 -0.1520719
v 1.0198957 0.45366505 0.42245448
v 0.8980263 0.011609952 0.8980256
v 0.78059447 0.45366493 0.780594
v 0.9141683 0.88982356 8.4215834E-08
v 0.7008496 1.2816099 -0.2903012
v 0.84458137 0.88982356 0.34983692
v 0.6464147 0.8898235 0.64641434
v 0.26589826 2.5516098 -0.27625915
v 0.09799845 3.127816 -0.1220291
v 0.7585941 1.2816099 4.5484157E-08
v 0.70084953 1.2816099 0.29030132
v 0.53640705 1.2816098 0.5364068
v 0.6032723 1.6733959 -0.24988349
v 0.60327226 1.6733959 0.24988349
v 0.4617246 1.6733959 0.46172452
v 0.65297717 1.6733959 1.0526076E-08
v 0.39029694 2.1095548 -0.390297
v 0.5099475 2.1095548 -0.2112272
v 0.5099474 2.1095548 0.2112271
v 0.3902968 2.1095548 0.39029685
v 0.5519631 2.1095548 -2.7140024E-08
v 0.34741285 2.5516098 -0.15426387
v 0.12804121 3.127816 -0.07706691
v 0.37603697 2.5516098 -0.010360668
v 0.13859083 3.127816 -0.024030382
v 0.3474128 2.5516098 0.13354251
v 0.26589817 2.5516098 0.25553775
v 0.1280412 3.127816 0.029006138
v 0.09799842 3.127816 0.07396834
vt 0.25209448 -0.12816674
vt 0.33854944 -0.024015546
vt 0.26712537 -0.16040057
vt 0.32351848 0.008218348
vt 0.23706362 -0.0959329
vt 0.4242699 0.08171064
vt 0.30848762 0.040452123
vt 0.2220327 -0.06369907
vt 0.409239 0.11394447
vt 0.5081484 0.19138712
vt 0.29345673 0.07268596
vt 0.20700184 -0.031465232
vt 0.39420813 0.1461783
vt 0.49311745 0.22362095
vt 0.59273297 0.2995492
vt 0.27842584 0.10491979
vt 0.19197094 0.0007686019
vt 0.3791772 0.17841214
vt 0.4780866 0.2558548
vt 0.57770205 0.3317831
vt 0.67391986 0.41499746
vt 0.26339498 0.13715363
vt 0.17694008 0.033002436
vt 0.36414635 0.21064603
vt 0.46305573 0.28808862
vt 0.5626712 0.36401698
vt 0.658889 0.4472313
vt 0.75751185 0.52528834
vt 0.24836403 0.16938758
vt 0.1619092 0.06523627
vt 0.34911543 0.24287984
vt 0.4480248 0.3203225
vt 0.5476403 0.39625075
vt 0.6438581 0.47946513
vt 0.74248093 0.5575222
vt 0.8365704 0.64530116
vt 0.8215395 0.677535
vt 0.7274501 0.589756
vt 0.80650866 0.70976883
vt 0.6288272 0.5116989
vt 0.7124192 0.6219898
vt 0.7914778 0.7420026
vt 0.5326094 0.42848453
vt 0.61379635 0.5439328
vt 0.6973883 0.6542237
vt 0.7764469 0.7742365
vt 0.43299395 0.35255635
vt 0.51757854 0.4607184
vt 0.59876543 0.5761666
vt 0.68235743 0.6864575
vt 0.761416 0.80647033
vt 0.33408457 0.27511367
vt 0.41796303 0.38479018
vt 0.5025476 0.49295226
vt 0.5837346 0.60840046
vt 0.6673265 0.71869135
vt 0.7463851 0.8387042
vt 0.23333317 0.20162141
vt 0.14687827 0.097470164
vt 0.31905368 0.3073475
vt 0.21830231 0.23385519
vt 0.13184747 0.12970388
vt 0.40293217 0.41702405
vt 0.48751676 0.5251861
vt 0.56870365 0.6406343
vt 0.20327148 0.26608896
vt 0.11681661 0.16193765
vt 0.3040228 0.33958134
vt 0.3879013 0.44925785
vt 0.18824059 0.29832274
vt 0.10178569 0.19417149
vt 0.28899193 0.37181512
vt 0.47248584 0.5574199
vt 0.65229565 0.7509252
vt 0.73135424 0.87093806
vt 0.1732097 0.3305566
vt 0.0867548 0.22640538
vt 0.1581788 0.36279044
vt 0.27396107 0.40404895
vt 0.37287045 0.48149163
vt 0.2589302 0.43628275
vt 0.24389929 0.46851665
vt 0.6372648 0.783159
vt 0.7163233 0.9031719
vt 0.35783952 0.51372546
vt 0.34280866 0.54595923
vt 0.32777774 0.5781932
vt 0.45745498 0.58965373
vt 0.4273932 0.6541214
vt 0.41236234 0.6863553
vt 0.44242412 0.62188756
vt 0.5536728 0.67286813
vt 0.5386419 0.70510197
vt 0.50858015 0.76956964
vt 0.4935493 0.8018035
vt 0.52361107 0.7373358
vt 0.62223387 0.81539285
vt 0.70129246 0.93540573
vt 0.607203 0.8476267
vt 0.68626153 0.96763957
vt 0.59217215 0.8798605
vt 0.5771412 0.91209435
vt 0.6712307 0.9998734
vt 0.6561998 1.0321072
vn -0.8648547 0.3517108 0.3582261
vn -0.6556837 0.37437668 0.6556837
vn -0.661925 0.35172516 0.661925
vn -0.85673046 0.37439045 0.35474592
vn -0.9361194 0.3516825 0
vn -0.6526389 0.38487005 0.6526389
vn -0.9272749 0.374381 0
vn -0.8648547 0.3517108 -0.3582261
vn -0.85265714 0.38493562 0.35327098
vn -0.67055523 0.3173504 0.67055523
vn -0.85673046 0.37439045 -0.35474592
vn -0.661925 0.35172516 -0.661925
vn -0.9229866 0.38483205 0
vn -0.87610483 0.31740442 0.36289778
vn -0.6858474 0.2433652 0.6858474
vn -0.6556837 0.37437668 -0.6556837
vn -0.3582261 0.3517108 -0.8648547
vn -0.85265714 0.38493562 -0.35327098
vn -0.9483012 0.3173719 0
vn -0.89609677 0.24338432 0.37118018
vn -0.6843306 0.25176045 0.6843306
vn -0.35474592 0.37439045 -0.85673046
vn -0 0.3516825 -0.9361194
vn -0.6526389 0.38487005 -0.6526389
vn -0.87610483 0.31740442 -0.36289778
vn -0.9699289 0.24338827 0
vn -0.8941427 0.25176373 0.37030244
vn -0.66777205 0.32887846 0.66777205
vn -0 0.374381 -0.9272749
vn 0.3582261 0.3517108 -0.8648547
vn -0.35327098 0.38493562 -0.85265714
vn -0.67055523 0.3173504 -0.67055523
vn -0.89609677 0.24338432 -0.37118018
vn -0.9677872 0.25176963 0
vn -0.8725008 0.3288569 0.36138016
vn -0.63437706 0.441737 0.63437706
vn -0.8288468 0.44174644 0.34332627
vn -0.94438344 0.32884613 0
vn -0.8971567 0.44171238 0
vn -0.8941427 0.25176373 -0.37030244
vn -0.8725008 0.3288569 -0.36138016
vn -0.8288468 0.44174644 -0.34332627
vn -0.6858474 0.2433652 -0.6858474
vn -0.6843306 0.25176045 -0.6843306
vn -0.66777205 0.32887846 -0.66777205
vn -0.63437706 0.441737 -0.63437706
vn -0.36289778 0.31740442 -0.87610483
vn -0.37118018 0.24338432 -0.89609677
vn -0.37030244 0.25176373 -0.8941427
vn -0.36138016 0.3288569 -0.8725008
vn -0.34332627 0.44174644 -0.8288468
vn -0 0.38483205 -0.9229866
vn -0 0.3173719 -0.9483012
vn -0 0.24338827 -0.9699289
vn -0 0.25176963 -0.9677872
vn -0 0.32884613 -0.94438344
vn -2.8374336E-07 0.44171238 -0.8971567
vn 0.35474592 0.37439045 -0.85673046
vn 0.661925 0.35172516 -0.661925
vn 0.35327098 0.38493562 -0.85265714
vn 0.6556837 0.37437668 -0.6556837
vn 0.8648547 0.3517108 -0.3582261
vn 0.36289778 0.31740442 -0.87610483
vn 0.37118018 0.24338432 -0.89609677
vn 0.37030244 0.25176373 -0.8941427
vn 0.85673046 0.37439045 -0.35474592
vn 0.9361194 0.3516825 0
vn 0.6526389 0.38487005 -0.6526389
vn 0.67055523 0.3173504 -0.67055523
vn 0.9272749 0.374381 0
vn 0.8648547 0.3517108 0.3582261
vn 0.85265714 0.38493562 -0.35327098
vn 0.6858474 0.2433652 -0.6858474
vn 0.36138016 0.3288569 -0.8725008
vn 0.34332627 0.44174644 -0.8288468
vn 0.85673046 0.37439045 0.35474592
vn 0.661925 0.35172516 0.661925
vn 0.6556837 0.37437668 0.6556837
vn 0.9229866 0.38483205 0
vn 0.87610483 0.31740442 -0.36289778
vn 0.85265714 0.38493562 0.35327098
vn 0.6526389 0.38487005 0.6526389
vn 0.66777205 0.32887846 -0.66777205
vn 0.63437706 0.441737 -0.63437706
vn 0.9483012 0.3173719 0
vn 0.87610483 0.31740442 0.36289778
vn 0.67055523 0.3173504 0.67055523
vn 0.89609677 0.24338432 -0.37118018
vn 0.89609677 0.24338432 0.37118018
vn 0.6858474 0.2433652 0.6858474
vn 0.9699289 0.24338827 0
vn 0.6843306 0.25176045 -0.6843306
vn 0.8941427 0.25176373 -0.37030244
vn 0.8941427 0.25176373 0.37030244
vn 0.6843306 0.25176045 0.6843306
vn 0.9677872 0.25176963 0
vn 0.8725008 0.3288569 -0.36138016
vn 0.8288468 0.44174644 -0.34332627
vn 0.94438344 0.32884613 0
vn 0.8971567 0.44171238 0
vn 0.8725008 0.3288569 0.36138016
vn 0.66777205 0.32887846 0.66777205
vn 0.8288468 0.44174644 0.34332627
vn 0.63437706 0.441737 0.63437706
g fx_lancergirl_drill_0
f 3/3/3 2/2/2 1/1/1
f 2/2/2 4/4/4 1/1/1
f 1/1/1 4/4/4 5/5/5
f 2/2/2 6/6/6 4/4/4
f 4/4/4 7/7/7 5/5/5
f 5/5/5 7/7/7 8/8/8
f 6/6/6 9/9/9 4/4/4
f 4/4/4 9/9/9 7/7/7
f 6/6/6 10/10/10 9/9/9
f 7/7/7 11/11/11 8/8/8
f 8/8/8 11/11/11 12/12/12
f 9/9/9 13/13/13 7/7/7
f 7/7/7 13/13/13 11/11/11
f 10/10/10 14/14/14 9/9/9
f 9/9/9 14/14/14 13/13/13
f 10/10/10 15/15/15 14/14/14
f 11/11/11 16/16/16 12/12/12
f 12/12/12 16/16/16 17/17/17
f 13/13/13 18/18/18 11/11/11
f 11/11/11 18/18/18 16/16/16
f 14/14/14 19/19/19 13/13/13
f 13/13/13 19/19/19 18/18/18
f 15/15/15 20/20/20 14/14/14
f 14/14/14 20/20/20 19/19/19
f 15/15/15 21/21/21 20/20/20
f 16/16/16 22/22/22 17/17/17
f 17/17/17 22/22/22 23/23/23
f 18/18/18 24/24/24 16/16/16
f 16/16/16 24/24/24 22/22/22
f 19/19/19 25/25/25 18/18/18
f 18/18/18 25/25/25 24/24/24
f 20/20/20 26/26/26 19/19/19
f 19/19/19 26/26/26 25/25/25
f 21/21/21 27/27/27 20/20/20
f 20/20/20 27/27/27 26/26/26
f 21/21/21 28/28/28 27/27/27
f 22/22/22 29/29/29 23/23/23
f 23/23/23 29/29/29 30/30/30
f 24/24/24 31/31/31 22/22/22
f 22/22/22 31/31/31 29/29/29
f 25/25/25 32/32/32 24/24/24
f 24/24/24 32/32/32 31/31/31
f 26/26/26 33/33/33 25/25/25
f 25/25/25 33/33/33 32/32/32
f 27/27/27 34/34/34 26/26/26
f 26/26/26 34/34/34 33/33/33
f 28/28/28 35/35/35 27/27/27
f 27/27/27 35/35/35 34/34/34
f 28/28/28 36/36/36 35/35/35
f 36/36/36 37/37/37 35/35/35
f 35/35/35 37/37/37 38/38/38
f 35/35/35 38/38/38 34/34/34
f 37/37/37 39/39/39 38/38/38
f 34/34/34 40/40/40 33/33/33
f 34/34/34 38/38/38 40/40/40
f 38/38/38 39/39/39 41/41/41
f 38/38/38 41/41/41 40/40/40
f 39/39/39 42/42/42 41/41/41
f 33/33/33 43/43/43 32/32/32
f 33/33/33 40/40/40 43/43/43
f 40/40/40 41/41/41 44/44/44
f 40/40/40 44/44/44 43/43/43
f 41/41/41 42/42/42 45/45/45
f 41/41/41 45/45/45 44/44/44
f 42/42/42 46/46/46 45/45/45
f 32/32/32 43/43/43 47/47/47
f 32/32/32 47/47/47 31/31/31
f 43/43/43 44/44/44 48/48/48
f 43/43/43 48/48/48 47/47/47
f 44/44/44 45/45/45 49/49/49
f 44/44/44 49/49/49 48/48/48
f 45/45/45 46/46/46 50/50/50
f 45/45/45 50/50/50 49/49/49
f 46/46/46 51/51/51 50/50/50
f 31/31/31 47/47/47 52/52/52
f 31/31/31 52/52/52 29/29/29
f 47/47/47 48/48/48 53/53/53
f 47/47/47 53/53/53 52/52/52
f 48/48/48 49/49/49 54/54/54
f 48/48/48 54/54/54 53/53/53
f 49/49/49 50/50/50 55/55/55
f 49/49/49 55/55/55 54/54/54
f 50/50/50 51/51/51 56/56/56
f 50/50/50 56/56/56 55/55/55
f 51/51/51 57/57/57 56/56/56
f 29/29/29 52/52/52 58/58/58
f 29/29/29 58/58/58 30/30/30
f 30/30/30 58/58/58 59/59/59
f 52/52/52 53/53/53 60/60/60
f 52/52/52 60/60/60 58/58/58
f 58/58/58 61/61/61 59/59/59
f 58/58/58 60/60/60 61/61/61
f 59/59/59 61/61/61 62/62/62
f 53/53/53 54/54/54 63/63/63
f 53/53/53 63/63/63 60/60/60
f 54/54/54 55/55/55 64/64/64
f 54/54/54 64/64/64 63/63/63
f 55/55/55 56/56/56 65/65/65
f 55/55/55 65/65/65 64/64/64
f 61/61/61 66/66/66 62/62/62
f 62/62/62 66/66/66 67/67/67
f 60/60/60 68/68/68 61/61/61
f 60/60/60 63/63/63 68/68/68
f 61/61/61 68/68/68 66/66/66
f 63/63/63 64/64/64 69/69/69
f 63/63/63 69/69/69 68/68/68
f 66/66/66 70/70/70 67/67/67
f 67/67/67 70/70/70 71/71/71
f 68/68/68 72/72/72 66/66/66
f 68/68/68 69/69/69 72/72/72
f 66/66/66 72/72/72 70/70/70
f 64/64/64 73/73/73 69/69/69
f 64/64/64 65/65/65 73/73/73
f 56/56/56 74/74/74 65/65/65
f 56/56/56 57/57/57 74/74/74
f 57/57/57 75/75/75 74/74/74
f 70/70/70 76/76/76 71/71/71
f 71/71/71 76/76/76 77/77/77
f 76/76/76 78/78/78 77/77/77
f 72/72/72 79/79/79 70/70/70
f 70/70/70 79/79/79 76/76/76
f 69/69/69 80/80/80 72/72/72
f 69/69/69 73/73/73 80/80/80
f 72/72/72 80/80/80 79/79/79
f 76/76/76 81/81/81 78/78/78
f 79/79/79 81/81/81 76/76/76
f 81/81/81 82/82/82 78/78/78
f 74/74/74 75/75/75 83/83/83
f 75/75/75 84/84/84 83/83/83
f 80/80/80 85/85/85 79/79/79
f 79/79/79 85/85/85 81/81/81
f 81/81/81 86/86/86 82/82/82
f 85/85/85 86/86/86 81/81/81
f 86/86/86 87/87/87 82/82/82
f 73/73/73 88/88/88 80/80/80
f 80/80/80 88/88/88 85/85/85
f 86/86/86 89/89/89 87/87/87
f 89/89/89 90/90/90 87/87/87
f 85/85/85 91/91/91 86/86/86
f 88/88/88 91/91/91 85/85/85
f 91/91/91 89/89/89 86/86/86
f 73/73/73 92/92/92 88/88/88
f 65/65/65 92/92/92 73/73/73
f 65/65/65 74/74/74 92/92/92
f 74/74/74 83/83/83 92/92/92
f 92/92/92 93/93/93 88/88/88
f 88/88/88 93/93/93 91/91/91
f 92/92/92 83/83/83 93/93/93
f 89/89/89 94/94/94 90/90/90
f 94/94/94 95/95/95 90/90/90
f 91/91/91 96/96/96 89/89/89
f 93/93/93 96/96/96 91/91/91
f 96/96/96 94/94/94 89/89/89
f 83/83/83 97/97/97 93/93/93
f 93/93/93 97/97/97 96/96/96
f 83/83/83 84/84/84 97/97/97
f 84/84/84 98/98/98 97/97/97
f 97/97/97 99/99/99 96/96/96
f 97/97/97 98/98/98 99/99/99
f 96/96/96 99/99/99 94/94/94
f 98/98/98 100/100/100 99/99/99
f 94/94/94 101/101/101 95/95/95
f 99/99/99 101/101/101 94/94/94
f 99/99/99 100/100/100 101/101/101
f 101/101/101 102/102/102 95/95/95
f 100/100/100 103/103/103 101/101/101
f 101/101/101 103/103/103 102/102/102
f 103/103/103 104/104/104 102/102/102
