g fx_lucycard_mesh
v -0.5937765 -0.35417986 0
v -0.5937765 0.35417986 0
v 0.5937765 0.35417986 0
v 0.5937765 -0.35417986 0
v -0.5937765 -0.35417986 0.004432621
v -0.5937765 0.35417986 0.004432621
v 0.5937765 0.35417986 0.004432621
v 0.5937765 -0.35417986 0.004432621
vt 1.0000001 0.99999994
vt 5.9604645E-08 1
vt 0 1.5893256E-08
vt 1 -5.9604645E-08
vt 1.0000001 0.99999994
vt 5.9604645E-08 1
vt 0 1.5893256E-08
vt 1 -5.9604645E-08
vn -0 0 1
vn -0 0 1
vn -0 0 1
vn -0 0 1
vn -0 0 1
vn -0 0 1
vn -0 0 1
vn -0 0 1
g fx_lucycard_mesh_0
f 3/3/3 2/2/2 1/1/1
f 4/4/4 3/3/3 1/1/1
f 7/7/7 6/6/6 5/5/5
f 8/8/8 7/7/7 5/5/5
