g fx_obj_pumkin_break_piece02
v 0.0092892535 0.079570256 0.2524917
v 0.073019974 0.1447408 0.21689993
v 0.17628263 0.068492375 0.2494924
v 0.14197284 0.03567767 0.2675531
v -0.017735703 -0.048998583 0.30315366
v 0.0092892535 0.079570256 0.2524917
v 0.14197284 0.03567767 0.2675531
v 0.12671567 -0.04797279 0.29963523
v 0.073019974 0.1447408 0.21689993
v 0.0092892535 0.079570256 0.2524917
v -0.1366782 0.11831253 0.1933827
v -0.026444891 0.19755001 0.14208882
v 0.073019974 0.1447408 0.21689993
v 0.06726988 0.28183934 0.096540265
v 0.15522149 0.1969534 0.1846384
v 0.0092892535 0.079570256 0.2524917
v -0.017735703 -0.048998583 0.30315366
v -0.17802642 -0.06204745 0.26424095
v -0.1366782 0.11831253 0.1933827
v -0.026444891 0.19755001 0.14208882
v -0.1366782 0.11831253 0.1933827
v -0.2143856 0.0649224 0.0111568235
v -0.088189244 0.15062109 -0.042210188
v -0.1366782 0.11831253 0.1933827
v -0.17802642 -0.06204745 0.26424095
v -0.25949958 -0.13355793 0.088911094
v -0.2143856 0.0649224 0.0111568235
v -0.088189244 0.15062109 -0.042210188
v -0.2143856 0.0649224 0.0111568235
v -0.20345084 -0.029946968 -0.17171922
v -0.09277557 0.0538319 -0.21717423
v -0.2143856 0.0649224 0.0111568235
v -0.25949958 -0.13355793 0.088911094
v -0.24333322 -0.21285796 -0.10173778
v -0.20345084 -0.029946968 -0.17171922
v -0.09277557 0.0538319 -0.21717423
v -0.20345084 -0.029946968 -0.17171922
v -0.067965485 -0.11712393 -0.24441196
v -0.022744402 -0.045405034 -0.27343383
v -0.20345084 -0.029946968 -0.17171922
v -0.24333322 -0.21285796 -0.10173778
v -0.0915114 -0.25354746 -0.19326198
v -0.067965485 -0.11712393 -0.24441196
v 0.17628263 0.068492375 0.2494924
v 0.073019974 0.1447408 0.21689993
v 0.15522149 0.1969534 0.1846384
v 0.22041729 0.09896885 0.23062475
v -0.026444891 0.19755001 0.14208882
v -0.088189244 0.15062109 -0.042210188
v 0.009631681 0.24591249 -0.09240101
v 0.06726988 0.28183934 0.096540265
v -0.088189244 0.15062109 -0.042210188
v -0.09277557 0.0538319 -0.21717423
v 0.00095542904 0.13904522 -0.26376498
v 0.009631681 0.24591249 -0.09240101
v -0.09277557 0.0538319 -0.21717423
v -0.022744402 -0.045405034 -0.27343383
v 0.060794134 -0.009195725 -0.30481562
v 0.00095542904 0.13904522 -0.26376498
v -0.0010297585 -0.047541816 -0.22961886
v -0.022744402 -0.045405034 -0.27343383
v -0.067965485 -0.11712393 -0.24441196
v -0.046449184 -0.108214244 -0.20056596
v -0.046449184 -0.108214244 -0.20056596
v -0.067965485 -0.11712393 -0.24441196
v -0.0915114 -0.25354746 -0.19326198
v -0.0689901 -0.23657499 -0.15252729
v -0.0689901 -0.23657499 -0.15252729
v -0.0915114 -0.25354746 -0.19326198
v -0.24333322 -0.21285796 -0.10173778
v -0.19577034 -0.20672439 -0.075353295
v -0.19577034 -0.20672439 -0.075353295
v -0.24333322 -0.21285796 -0.10173778
v -0.25949958 -0.13355793 0.088911094
v -0.20961669 -0.14054082 0.083119795
v -0.20961669 -0.14054082 0.083119795
v -0.25949958 -0.13355793 0.088911094
v -0.17802642 -0.06204745 0.26424095
v -0.13967972 -0.078801356 0.22704397
v -0.13967972 -0.078801356 0.22704397
v -0.17802642 -0.06204745 0.26424095
v -0.017735703 -0.048998583 0.30315366
v -0.011211758 -0.06258516 0.25576627
v -0.011211758 -0.06258516 0.25576627
v -0.017735703 -0.048998583 0.30315366
v 0.12671567 -0.04797279 0.29963523
v 0.12069843 -0.059872445 0.25203466
v 0.12069843 -0.059872445 0.25203466
v 0.12671567 -0.04797279 0.29963523
v 0.14197284 0.03567767 0.2675531
v 0.13486034 0.01852847 0.22185288
v 0.13486034 0.01852847 0.22185288
v 0.14197284 0.03567767 0.2675531
v 0.17628263 0.068492375 0.2494924
v 0.16948703 0.050536957 0.20422132
v 0.16948703 0.050536957 0.20422132
v 0.17628263 0.068492375 0.2494924
v 0.22041729 0.09896885 0.23062475
v 0.20961517 0.07804741 0.1871718
v 0.20961517 0.07804741 0.1871718
v 0.22041729 0.09896885 0.23062475
v 0.15522149 0.1969534 0.1846384
v 0.15181527 0.16616657 0.1455493
v 0.15181527 0.16616657 0.1455493
v 0.15522149 0.1969534 0.1846384
v 0.06726988 0.28183934 0.096540265
v 0.08871435 0.23657544 0.074961714
v 0.08871435 0.23657544 0.074961714
v 0.06726988 0.28183934 0.096540265
v 0.009631681 0.24591249 -0.09240101
v 0.041731205 0.20841567 -0.083663784
v 0.041731205 0.20841567 -0.083663784
v 0.009631681 0.24591249 -0.09240101
v 0.00095542904 0.13904522 -0.26376498
v 0.03262369 0.11476 -0.22743568
v 0.03262369 0.11476 -0.22743568
v 0.00095542904 0.13904522 -0.26376498
v 0.060794134 -0.009195725 -0.30481562
v 0.072534196 -0.0106533095 -0.2557663
v 0.072534196 -0.0106533095 -0.2557663
v 0.060794134 -0.009195725 -0.30481562
v -0.022744402 -0.045405034 -0.27343383
v -0.0010297585 -0.047541816 -0.22961886
v -0.13967972 -0.078801356 0.22704397
v -0.12194792 -0.018826708 0.024946595
v -0.20961669 -0.14054082 0.083119795
v -0.052650597 0.041372366 0.16909333
v -0.030140094 0.10863384 -0.03597311
v 0.014384756 0.13393779 0.12445605
v 0.08871435 0.23657544 0.074961714
v 0.041731205 0.20841567 -0.083663784
v -0.19577034 -0.20672439 -0.075353295
v -0.20961669 -0.14054082 0.083119795
v -0.12194792 -0.018826708 0.024946595
v -0.104772545 -0.08525959 -0.14042197
v -0.030140094 0.10863384 -0.03597311
v -0.034841307 0.026966473 -0.18787459
v 0.03262369 0.11476 -0.22743568
v 0.041731205 0.20841567 -0.083663784
v -0.011211758 -0.06258516 0.25576627
v -0.052650597 0.041372366 0.16909333
v -0.13967972 -0.078801356 0.22704397
v 0.049239833 0.027506722 0.21170646
v 0.014384756 0.13393779 0.12445605
v 0.10071228 0.09446131 0.18009827
v 0.15181527 0.16616657 0.1455493
v 0.08871435 0.23657544 0.074961714
v -0.0689901 -0.23657499 -0.15252729
v -0.19577034 -0.20672439 -0.075353295
v -0.104772545 -0.08525959 -0.14042197
v -0.046449184 -0.108214244 -0.20056596
v 0.13486034 0.01852847 0.22185288
v 0.16948703 0.050536957 0.20422132
v 0.10071228 0.09446131 0.18009827
v 0.049239833 0.027506722 0.21170646
v 0.12069843 -0.059872445 0.25203466
v 0.13486034 0.01852847 0.22185288
v 0.049239833 0.027506722 0.21170646
v -0.011211758 -0.06258516 0.25576627
v 0.10071228 0.09446131 0.18009827
v 0.16948703 0.050536957 0.20422132
v 0.20961517 0.07804741 0.1871718
v 0.15181527 0.16616657 0.1455493
v -0.0010297585 -0.047541816 -0.22961886
v -0.046449184 -0.108214244 -0.20056596
v -0.104772545 -0.08525959 -0.14042197
v -0.034841307 0.026966473 -0.18787459
v 0.072534196 -0.0106533095 -0.2557663
v -0.0010297585 -0.047541816 -0.22961886
v -0.034841307 0.026966473 -0.18787459
v 0.03262369 0.11476 -0.22743568
vt 0.9487146 0.49015874
vt 0.9634993 0.49015874
vt 0.9634993 0.5180874
vt 0.9487146 0.5180874
vt 0.9266674 0.49015874
vt 0.9487146 0.49015874
vt 0.9487146 0.5180874
vt 0.9267591 0.5180874
vt 0.9634993 0.49015874
vt 0.9487146 0.49015874
vt 0.9487146 0.47107735
vt 0.9634993 0.47107735
vt 0.9634993 0.49015874
vt 0.9776968 0.47107735
vt 0.9776968 0.49015874
vt 0.9487146 0.49015874
vt 0.9266674 0.49015874
vt 0.92659765 0.47107735
vt 0.9487146 0.47107735
vt 0.9634993 0.47107735
vt 0.9487146 0.47107735
vt 0.9487146 0.43790603
vt 0.9634993 0.43790603
vt 0.9487146 0.47107735
vt 0.92659765 0.47107735
vt 0.9264984 0.43790603
vt 0.9487146 0.43790603
vt 0.9634993 0.43790603
vt 0.9487146 0.43790603
vt 0.9487146 0.40462023
vt 0.9634993 0.40462023
vt 0.9487146 0.43790603
vt 0.9264984 0.43790603
vt 0.9264382 0.40462023
vt 0.9487146 0.40462023
vt 0.9634993 0.40462023
vt 0.9487146 0.40462023
vt 0.9487146 0.35821745
vt 0.9634993 0.35821745
vt 0.9487146 0.40462023
vt 0.9264382 0.40462023
vt 0.92635226 0.35821745
vt 0.9487146 0.35821745
vt 0.9634993 0.5180874
vt 0.9634993 0.49015874
vt 0.9776968 0.49015874
vt 0.9776968 0.5180874
vt 0.9634993 0.47107735
vt 0.9634993 0.43790603
vt 0.9776968 0.43790603
vt 0.9776968 0.47107735
vt 0.9634993 0.43790603
vt 0.9634993 0.40462023
vt 0.9776968 0.40462023
vt 0.9776968 0.43790603
vt 0.9634993 0.40462023
vt 0.9634993 0.35821745
vt 0.9776968 0.35821745
vt 0.9776968 0.40462023
vt 0.9634993 0.35821745
vt 0.9634993 0.35821745
vt 0.9487146 0.35821745
vt 0.9487146 0.35821745
vt 0.9487146 0.35821745
vt 0.9487146 0.35821745
vt 0.92635226 0.35821745
vt 0.92635226 0.35821745
vt 0.92635226 0.35821745
vt 0.92635226 0.35821745
vt 0.9264382 0.40462023
vt 0.9264382 0.40462023
vt 0.9264382 0.40462023
vt 0.9264382 0.40462023
vt 0.9264984 0.43790603
vt 0.9264984 0.43790603
vt 0.9264984 0.43790603
vt 0.9264984 0.43790603
vt 0.92659765 0.47107735
vt 0.92659765 0.47107735
vt 0.92659765 0.47107735
vt 0.92659765 0.47107735
vt 0.9266674 0.49015874
vt 0.9266674 0.49015874
vt 0.9266674 0.49015874
vt 0.9266674 0.49015874
vt 0.9267591 0.5180874
vt 0.9267591 0.5180874
vt 0.9267591 0.5180874
vt 0.9267591 0.5180874
vt 0.9487146 0.5180874
vt 0.9487146 0.5180874
vt 0.9487146 0.5180874
vt 0.9487146 0.5180874
vt 0.9634993 0.5180874
vt 0.9634993 0.5180874
vt 0.9634993 0.5180874
vt 0.9634993 0.5180874
vt 0.9776968 0.5180874
vt 0.9776968 0.5180874
vt 0.9776968 0.5180874
vt 0.9776968 0.5180874
vt 0.9776968 0.49015874
vt 0.9776968 0.49015874
vt 0.9776968 0.49015874
vt 0.9776968 0.49015874
vt 0.9776968 0.47107735
vt 0.9776968 0.47107735
vt 0.9776968 0.47107735
vt 0.9776968 0.47107735
vt 0.9776968 0.43790603
vt 0.9776968 0.43790603
vt 0.9776968 0.43790603
vt 0.9776968 0.43790603
vt 0.9776968 0.40462023
vt 0.9776968 0.40462023
vt 0.9776968 0.40462023
vt 0.9776968 0.40462023
vt 0.9776968 0.35821745
vt 0.9776968 0.35821745
vt 0.9776968 0.35821745
vt 0.9776968 0.35821745
vt 0.9634993 0.35821745
vt 0.9634993 0.35821745
vt 0.8697057 0.44559228
vt 0.8694186 0.4481519
vt 0.86786455 0.44197696
vt 0.8712595 0.45169806
vt 0.87104607 0.4546185
vt 0.8724563 0.45640105
vt 0.8737834 0.46161586
vt 0.87231994 0.45968074
vt 0.86956275 0.43978614
vt 0.86786455 0.44197696
vt 0.8694186 0.4481519
vt 0.8712586 0.446015
vt 0.87104607 0.4546185
vt 0.8722408 0.4515018
vt 0.87353647 0.45603603
vt 0.87231994 0.45968074
vt 0.87474084 0.44863027
vt 0.8712595 0.45169806
vt 0.8697057 0.44559228
vt 0.8757075 0.45311671
vt 0.8724563 0.45640105
vt 0.87669665 0.45657516
vt 0.8775896 0.46020263
vt 0.8737834 0.46161586
vt 0.8753116 0.44108433
vt 0.86956275 0.43978614
vt 0.8712586 0.446015
vt 0.8740602 0.4462704
vt 0.8793999 0.454408
vt 0.88028693 0.45625132
vt 0.87669665 0.45657516
vt 0.8757075 0.45311671
vt 0.8801479 0.45123297
vt 0.8793999 0.454408
vt 0.8757075 0.45311671
vt 0.87474084 0.44863027
vt 0.87669665 0.45657516
vt 0.88028693 0.45625132
vt 0.8814779 0.45803237
vt 0.8775896 0.46020263
vt 0.8749059 0.4493811
vt 0.8740602 0.4462704
vt 0.8712586 0.446015
vt 0.8722408 0.4515018
vt 0.87731963 0.45214397
vt 0.8749059 0.4493811
vt 0.8722408 0.4515018
vt 0.87353647 0.45603603
vn 0.045545116 0.44433054 0.8947044
vn 0.045545116 0.44433054 0.8947044
vn 0.045545116 0.44433054 0.8947044
vn 0.045545116 0.44433054 0.8947044
vn 0.016881768 0.36029032 0.93268746
vn 0.016881766 0.36029035 0.9326874
vn 0.016881768 0.36029032 0.93268746
vn 0.016881766 0.3602903 0.93268746
vn -0.16502064 0.64679533 0.7445965
vn -0.16502064 0.64679533 0.7445966
vn -0.16502064 0.64679533 0.7445965
vn -0.16502063 0.64679533 0.74459654
vn -0.17210191 0.6458105 0.74384797
vn -0.17210193 0.6458104 0.74384797
vn -0.17210191 0.6458105 0.74384797
vn -0.24841358 0.4017008 0.88143474
vn -0.24841361 0.4017008 0.88143474
vn -0.24841361 0.4017008 0.88143474
vn -0.24841361 0.4017008 0.88143474
vn -0.5738649 0.8189294 -0.00580524
vn -0.5738649 0.8189294 -0.005805239
vn -0.5738648 0.81892943 -0.005805239
vn -0.5738649 0.8189294 -0.005805239
vn -0.9020906 0.3196258 0.2899515
vn -0.9020906 0.31962585 0.28995153
vn -0.9020906 0.31962585 0.28995153
vn -0.9020906 0.31962588 0.28995153
vn -0.6377609 0.67421293 -0.3724218
vn -0.6377608 0.674213 -0.3724218
vn -0.6377608 0.674213 -0.3724218
vn -0.6377609 0.67421293 -0.3724218
vn -0.9761076 0.16101752 -0.14590172
vn -0.9761076 0.16101752 -0.14590172
vn -0.9761076 0.1610175 -0.14590172
vn -0.9761076 0.16101752 -0.14590172
vn -0.48489487 0.06854287 -0.8718823
vn -0.48489487 0.06854287 -0.8718823
vn -0.48489493 0.06854287 -0.8718823
vn -0.48489493 0.06854287 -0.8718823
vn -0.5513289 -0.19792297 -0.8104708
vn -0.55132884 -0.19792296 -0.8104708
vn -0.55132884 -0.19792296 -0.8104708
vn -0.55132884 -0.19792296 -0.8104708
vn 0.05950527 0.45763505 0.8871468
vn 0.05950527 0.45763505 0.8871468
vn 0.05950527 0.45763505 0.8871468
vn 0.05950527 0.457635 0.8871468
vn -0.669777 0.74089324 0.049759872
vn -0.66977704 0.7408932 0.04975987
vn -0.669777 0.74089324 0.049759865
vn -0.669777 0.74089324 0.049759872
vn -0.73035383 0.60066366 -0.32524848
vn -0.7303538 0.6006636 -0.32524854
vn -0.73035383 0.60066366 -0.3252485
vn -0.73035383 0.60066366 -0.3252485
vn -0.45994613 0.10531557 -0.8816792
vn -0.45994613 0.10531557 -0.8816792
vn -0.45994613 0.10531557 -0.8816792
vn -0.4599461 0.10531556 -0.8816792
vn 0.71782255 -0.62553644 -0.30567133
vn 0.7178225 -0.6255364 -0.30567136
vn 0.7178225 -0.6255364 -0.30567136
vn 0.71782255 -0.6255364 -0.3056714
vn 0.881995 -0.29205984 -0.36984578
vn 0.881995 -0.29205987 -0.36984578
vn 0.881995 -0.29205987 -0.36984578
vn 0.881995 -0.29205984 -0.36984575
vn -0.025674852 -0.93667316 0.34926242
vn -0.025674848 -0.93667316 0.34926242
vn -0.025674848 -0.93667316 0.34926242
vn -0.025674852 -0.93667316 0.34926242
vn -0.08765407 -0.9221619 0.37674138
vn -0.08765408 -0.9221619 0.37674144
vn -0.08765407 -0.9221619 0.37674144
vn -0.08765407 -0.9221619 0.3767414
vn -0.04872294 -0.9133235 0.40430954
vn -0.048722938 -0.9133235 0.40430954
vn -0.04872294 -0.9133235 0.40430954
vn -0.04872294 -0.9133235 0.40430954
vn 0.014470382 -0.9387137 0.34439358
vn 0.014470382 -0.9387137 0.3443936
vn 0.0144703835 -0.93871385 0.34439358
vn 0.0144703835 -0.93871385 0.34439358
vn 0.01986214 -0.9656216 0.25919193
vn 0.01986214 -0.9656216 0.25919193
vn 0.019862138 -0.9656216 0.25919193
vn 0.019862136 -0.9656216 0.25919193
vn 0.97592807 -0.20537192 -0.07339565
vn 0.97592807 -0.20537192 -0.073395655
vn 0.97592807 -0.20537196 -0.073395655
vn 0.97592807 -0.20537195 -0.073395655
vn 0.7177721 -0.679388 0.15243058
vn 0.7177721 -0.67938805 0.1524306
vn 0.7177721 -0.679388 0.15243058
vn 0.7177721 -0.67938805 0.1524306
vn 0.6136699 -0.7606814 0.21159671
vn 0.6136699 -0.7606814 0.21159671
vn 0.6136699 -0.7606814 0.21159671
vn 0.61366993 -0.76068133 0.21159673
vn 0.84351885 0.37773335 -0.38182905
vn 0.84351885 0.37773335 -0.38182908
vn 0.84351885 0.37773335 -0.38182905
vn 0.84351885 0.3777334 -0.38182908
vn 0.82294416 0.46055275 -0.33264711
vn 0.82294416 0.46055275 -0.33264711
vn 0.82294416 0.46055272 -0.33264711
vn 0.82294416 0.46055275 -0.33264711
vn 0.76760495 0.5481538 -0.33212948
vn 0.76760495 0.54815394 -0.33212948
vn 0.76760495 0.54815394 -0.33212954
vn 0.76760495 0.54815394 -0.33212948
vn 0.76801294 0.5198124 -0.37410054
vn 0.768013 0.5198124 -0.37410054
vn 0.76801294 0.5198124 -0.37410054
vn 0.76801294 0.5198124 -0.37410054
vn 0.8615682 0.39491826 -0.31896663
vn 0.8615682 0.39491826 -0.31896663
vn 0.8615682 0.39491826 -0.31896663
vn 0.8615682 0.39491826 -0.31896663
vn 0.3650238 -0.9159065 -0.16695191
vn 0.36502376 -0.9159065 -0.16695191
vn 0.3650238 -0.9159065 -0.16695191
vn 0.36502376 -0.9159065 -0.16695191
vn 0.77831197 -0.617276 -0.114895314
vn 0.77831197 -0.61727595 -0.114895314
vn 0.77831197 -0.61727595 -0.114895314
vn 0.77831197 -0.61727595 -0.114895314
vn 0.7776629 -0.61765593 -0.11722476
vn 0.7776629 -0.61765593 -0.11722476
vn 0.7768403 -0.61831355 -0.11919509
vn 0.77684027 -0.6183136 -0.119195096
vn 0.8360091 -0.4750494 0.2746213
vn 0.836009 -0.47504947 0.2746213
vn 0.836009 -0.47504944 0.27462134
vn 0.836009 -0.47504944 0.2746213
vn 0.8512829 -0.46183378 0.24905199
vn 0.8512829 -0.46183378 0.24905202
vn 0.829205 -0.49691242 0.25592408
vn 0.829205 -0.49691248 0.25592408
vn 0.25045636 -0.5591128 -0.79035723
vn 0.25045633 -0.5591127 -0.7903573
vn 0.25045633 -0.5591128 -0.79035723
vn 0.2504563 -0.5591128 -0.79035723
vn 0.25139987 -0.5630492 -0.787257
vn 0.25139987 -0.5630492 -0.787257
vn 0.2526267 -0.56157565 -0.78791666
vn 0.25262666 -0.5615756 -0.78791654
vn 0.6086134 0.08077447 0.7893448
vn 0.60861343 0.08077448 0.7893448
vn 0.60861343 0.08077448 0.7893448
vn 0.60861343 0.08077448 0.7893448
vn 0.034985602 -0.46942264 -0.8822802
vn 0.034985602 -0.46942264 -0.8822802
vn 0.034985602 -0.46942264 -0.8822802
vn 0.034985602 -0.46942264 -0.8822802
vn 0.015135301 -0.4087741 -0.91251004
vn 0.015135301 -0.4087741 -0.91251016
vn 0.015135301 -0.4087741 -0.91251016
vn 0.015135301 -0.4087741 -0.91251016
vn -0.01051163 -0.45374677 -0.8910687
vn -0.010511631 -0.45374677 -0.8910687
vn -0.010511632 -0.45374677 -0.8910687
vn -0.01051163 -0.45374677 -0.8910687
vn 0.6727193 -0.12621282 0.72905356
vn 0.6727193 -0.12621282 0.7290536
vn 0.6727193 -0.12621284 0.7290536
vn 0.6727193 -0.12621282 0.72905356
vn 0.5016051 -0.11554088 0.8573463
vn 0.5016051 -0.11554088 0.8573463
vn 0.50160503 -0.11554088 0.8573463
vn 0.5016051 -0.11554088 0.8573463
g fx_obj_pumkin_break_piece02_0
f 3/3/3 2/2/2 1/1/1
f 4/4/4 3/3/3 1/1/1
f 7/7/7 6/6/6 5/5/5
f 8/8/8 7/7/7 5/5/5
f 11/11/11 10/10/10 9/9/9
f 12/12/12 11/11/11 9/9/9
f 14/14/14 12/12/12 13/13/13
f 15/15/15 14/14/14 13/13/13
f 18/18/18 17/17/17 16/16/16
f 19/19/19 18/18/18 16/16/16
f 22/22/22 21/21/21 20/20/20
f 23/23/23 22/22/22 20/20/20
f 26/26/26 25/25/25 24/24/24
f 27/27/27 26/26/26 24/24/24
f 30/30/30 29/29/29 28/28/28
f 31/31/31 30/30/30 28/28/28
f 34/34/34 33/33/33 32/32/32
f 35/35/35 34/34/34 32/32/32
f 38/38/38 37/37/37 36/36/36
f 39/39/39 38/38/38 36/36/36
f 42/42/42 41/41/41 40/40/40
f 43/43/43 42/42/42 40/40/40
f 46/46/46 45/45/45 44/44/44
f 47/47/47 46/46/46 44/44/44
f 50/50/50 49/49/49 48/48/48
f 51/51/51 50/50/50 48/48/48
f 54/54/54 53/53/53 52/52/52
f 55/55/55 54/54/54 52/52/52
f 58/58/58 57/57/57 56/56/56
f 59/59/59 58/58/58 56/56/56
f 62/62/62 61/61/61 60/60/60
f 63/63/63 62/62/62 60/60/60
f 66/66/66 65/65/65 64/64/64
f 67/67/67 66/66/66 64/64/64
f 70/70/70 69/69/69 68/68/68
f 71/71/71 70/70/70 68/68/68
f 74/74/74 73/73/73 72/72/72
f 75/75/75 74/74/74 72/72/72
f 78/78/78 77/77/77 76/76/76
f 79/79/79 78/78/78 76/76/76
f 82/82/82 81/81/81 80/80/80
f 83/83/83 82/82/82 80/80/80
f 86/86/86 85/85/85 84/84/84
f 87/87/87 86/86/86 84/84/84
f 90/90/90 89/89/89 88/88/88
f 91/91/91 90/90/90 88/88/88
f 94/94/94 93/93/93 92/92/92
f 95/95/95 94/94/94 92/92/92
f 98/98/98 97/97/97 96/96/96
f 99/99/99 98/98/98 96/96/96
f 102/102/102 101/101/101 100/100/100
f 103/103/103 102/102/102 100/100/100
f 106/106/106 105/105/105 104/104/104
f 107/107/107 106/106/106 104/104/104
f 110/110/110 109/109/109 108/108/108
f 111/111/111 110/110/110 108/108/108
f 114/114/114 113/113/113 112/112/112
f 115/115/115 114/114/114 112/112/112
f 118/118/118 117/117/117 116/116/116
f 119/119/119 118/118/118 116/116/116
f 122/122/122 121/121/121 120/120/120
f 123/123/123 122/122/122 120/120/120
f 126/126/126 125/125/125 124/124/124
f 125/125/125 127/127/127 124/124/124
f 127/127/127 125/125/125 128/128/128
f 129/129/129 127/127/127 128/128/128
f 130/130/130 129/129/129 128/128/128
f 131/131/131 130/130/130 128/128/128
f 134/134/134 133/133/133 132/132/132
f 135/135/135 134/134/134 132/132/132
f 136/136/136 134/134/134 135/135/135
f 137/137/137 136/136/136 135/135/135
f 136/136/136 137/137/137 138/138/138
f 139/139/139 136/136/136 138/138/138
f 142/142/142 141/141/141 140/140/140
f 141/141/141 143/143/143 140/140/140
f 143/143/143 141/141/141 144/144/144
f 145/145/145 143/143/143 144/144/144
f 146/146/146 145/145/145 144/144/144
f 147/147/147 146/146/146 144/144/144
f 150/150/150 149/149/149 148/148/148
f 151/151/151 150/150/150 148/148/148
f 154/154/154 153/153/153 152/152/152
f 155/155/155 154/154/154 152/152/152
f 158/158/158 157/157/157 156/156/156
f 159/159/159 158/158/158 156/156/156
f 162/162/162 161/161/161 160/160/160
f 163/163/163 162/162/162 160/160/160
f 166/166/166 165/165/165 164/164/164
f 167/167/167 166/166/166 164/164/164
f 170/170/170 169/169/169 168/168/168
f 171/171/171 170/170/170 168/168/168
