g fx_pajama_princess_star_particle_1
v 0.6857571 -1.2324723E-06 -1.8613935E-14
v 0.39369193 6.128426E-07 0.077635705
v 0.16398086 0.11913899 0.077635705
v 0.285632 0.20752393 9.266938E-10
v 0.1216577 0.37442318 0.077635705
v 0.21191019 0.652194 6.0221586E-15
v 0.39369193 6.128426E-07 0.077635705
v 0.39369193 6.1962965E-07 -0.07763571
v 0.16398086 0.11913901 -0.07763571
v 0.16398086 0.11913899 0.077635705
v 0.39369193 6.1962965E-07 -0.07763571
v 0.6857571 -1.2324723E-06 -1.8613935E-14
v 0.285632 0.20752393 9.266938E-10
v 0.16398086 0.11913901 -0.07763571
v 0.21191019 0.652194 6.0221586E-15
v 0.1216577 0.3744232 -0.07763571
v 0.16398086 0.11913899 0.077635705
v 0.16398086 0.11913901 -0.07763571
v 0.1216577 0.3744232 -0.07763571
v 0.1216577 0.37442318 0.077635705
v 0.21191019 0.652194 6.0221586E-15
v 0.1216577 0.37442318 0.077635705
v -0.062635146 0.19277099 0.077635705
v -0.109101675 0.33578062 9.266932E-10
v -0.3185035 0.23140623 0.077635705
v -0.55478925 0.40307802 -1.2044317E-14
v 0.1216577 0.37442318 0.077635705
v 0.1216577 0.3744232 -0.07763571
v -0.06263516 0.19277102 -0.07763571
v -0.062635146 0.19277099 0.077635705
v 0.1216577 0.3744232 -0.07763571
v 0.21191019 0.652194 6.0221586E-15
v -0.109101675 0.33578062 9.266932E-10
v -0.06263516 0.19277102 -0.07763571
v -0.55478925 0.40307802 -1.2044317E-14
v -0.31850353 0.23140623 -0.07763571
v -0.062635146 0.19277099 0.077635705
v -0.06263516 0.19277102 -0.07763571
v -0.31850353 0.23140623 -0.07763571
v -0.3185035 0.23140623 0.077635705
v -0.55478925 0.40307802 -1.2044317E-14
v -0.3185035 0.23140623 0.077635705
v -0.20269145 5.1199603E-08 0.077635705
v -0.35306063 -1.619173E-07 9.266938E-10
v -0.31850344 -0.23140632 0.077635705
v -0.5547891 -0.40307808 6.569627E-15
v -0.3185035 0.23140623 0.077635705
v -0.31850353 0.23140623 -0.07763571
v -0.20269145 4.4412452E-08 -0.07763571
v -0.20269145 5.1199603E-08 0.077635705
v -0.31850353 0.23140623 -0.07763571
v -0.55478925 0.40307802 -1.2044317E-14
v -0.35306063 -1.619173E-07 9.266938E-10
v -0.20269145 4.4412452E-08 -0.07763571
v -0.5547891 -0.40307808 6.569627E-15
v -0.31850344 -0.23140636 -0.07763571
v -0.20269145 5.1199603E-08 0.077635705
v -0.20269145 4.4412452E-08 -0.07763571
v -0.31850344 -0.23140636 -0.07763571
v -0.31850344 -0.23140632 0.077635705
v -0.5547891 -0.40307808 6.569627E-15
v -0.31850344 -0.23140632 0.077635705
v -0.06263503 -0.19277105 0.077635705
v -0.109101616 -0.33578062 9.266935E-10
v 0.121657655 -0.37442315 0.077635705
v 0.21191047 -0.6521939 -5.4746916E-15
v -0.31850344 -0.23140632 0.077635705
v -0.31850344 -0.23140636 -0.07763571
v -0.06263503 -0.19277106 -0.07763571
v -0.06263503 -0.19277105 0.077635705
v -0.31850344 -0.23140636 -0.07763571
v -0.5547891 -0.40307808 6.569627E-15
v -0.109101616 -0.33578062 9.266935E-10
v -0.06263503 -0.19277106 -0.07763571
v 0.21191047 -0.6521939 -5.4746916E-15
v 0.12165766 -0.3744232 -0.07763571
v -0.06263503 -0.19277105 0.077635705
v -0.06263503 -0.19277106 -0.07763571
v 0.12165766 -0.3744232 -0.07763571
v 0.121657655 -0.37442315 0.077635705
v 0.21191047 -0.6521939 -5.4746916E-15
v 0.121657655 -0.37442315 0.077635705
v 0.16398086 -0.119139 0.077635705
v 0.28563195 -0.20752399 9.266926E-10
v 0.39369193 6.128426E-07 0.077635705
v 0.6857571 -1.2324723E-06 -1.8613935E-14
v 0.121657655 -0.37442315 0.077635705
v 0.12165766 -0.3744232 -0.07763571
v 0.16398086 -0.119139 -0.07763571
v 0.16398086 -0.119139 0.077635705
v 0.12165766 -0.3744232 -0.07763571
v 0.21191047 -0.6521939 -5.4746916E-15
v 0.28563195 -0.20752399 9.266926E-10
v 0.16398086 -0.119139 -0.07763571
v 0.6857571 -1.2324723E-06 -1.8613935E-14
v 0.39369193 6.1962965E-07 -0.07763571
v 0.16398086 -0.119139 0.077635705
v 0.16398086 -0.119139 -0.07763571
v 0.39369193 6.1962965E-07 -0.07763571
v 0.39369193 6.128426E-07 0.077635705
vt 0.7630333 0.50073
vt 0.764832 0.6691826
vt 0.82578915 0.7700706
vt 0.8832916 0.7167995
vt 0.9678923 0.886601
vt 1.1910808 0.8067468
vt 0.764832 0.6691826
vt 0.69978416 0.71354675
vt 0.7732419 0.81360537
vt 0.82578915 0.7700706
vt 0.27136752 0.6257876
vt 0.2732695 0.83413243
vt 0.43571895 0.5661632
vt 0.36714822 0.46751204
vt 0.74591595 0.50545347
vt 0.54912716 0.43259534
vt 0.82578915 0.7700706
vt 0.7732419 0.81360537
vt 0.85127574 0.9173762
vt 0.9678923 0.886601
vt 1.1910808 0.8067468
vt 0.9678923 0.886601
vt 0.9289688 1.0631793
vt 1.0104748 1.0706081
vt 0.94435394 1.1885715
vt 1.0514727 1.3260195
vt 0.9678923 0.886601
vt 0.85127574 0.9173762
vt 0.8483014 1.0676167
vt 0.9289688 1.0631793
vt 0.54912716 0.43259534
vt 0.74591595 0.50545347
vt 0.5505854 0.2670626
vt 0.44655967 0.29681742
vt 0.57024103 -0.0021108985
vt 0.4700935 0.14081366
vt 0.9289688 1.0631793
vt 0.8483014 1.0676167
vt 0.8655615 1.1989286
vt 0.94435394 1.1885715
vt 1.0514727 1.3260195
vt 0.94435394 1.1885715
vt 0.80215573 1.1206231
vt 0.8003518 1.2282195
vt 0.6435526 1.1795409
vt 0.51984644 1.3452799
vt 0.5026288 0.2135956
vt 0.4700935 0.14081366
vt 0.3542054 0.19183612
vt 0.38133347 0.26781744
vt 0.4700935 0.14081366
vt 0.57024103 -0.0021108985
vt 0.33792594 0.11199736
vt 0.3542054 0.19183612
vt 0.037319526 0.014722215
vt 0.17482162 0.20414078
vt 0.38133347 0.26781744
vt 0.3542054 0.19183612
vt 0.17482162 0.20414078
vt 0.23662117 0.30695084
vt 0.51984644 1.3452799
vt 0.6435526 1.1795409
vt 0.660047 0.9966102
vt 0.54732233 1.0354865
vt 0.5342363 0.8617794
vt 0.33246422 0.806747
vt 0.23662117 0.30695084
vt 0.17482162 0.20414078
vt 0.10280536 0.37162673
vt 0.15891197 0.4100844
vt 0.17482162 0.20414078
vt 0.037319526 0.014722215
vt 0.036310136 0.33099037
vt 0.10280536 0.37162673
vt -0.1400851 0.5054537
vt 0.022387952 0.4575968
vt 0.15891197 0.4100844
vt 0.10280536 0.37162673
vt 0.022387952 0.4575968
vt 0.08279233 0.5080257
vt 0.33246422 0.806747
vt 0.5342363 0.8617794
vt 0.6964249 0.8097477
vt 0.6289546 0.7262759
vt 0.764832 0.6691826
vt 0.7630333 0.50073
vt 0.5342363 0.8617794
vt 0.56545734 0.959099
vt 0.727646 0.9070672
vt 0.6964249 0.8097477
vt 0.022387952 0.4575968
vt -0.1400851 0.5054537
vt 0.11512348 0.5724263
vt 0.17658949 0.48444158
vt 0.2732695 0.83413243
vt 0.27136752 0.6257876
vt 0.26140258 0.42757115
vt 0.17658949 0.48444158
vt 0.27136752 0.6257876
vt 0.35618058 0.5689171
vn 0.2302049 0.44385535 0.8660244
vn 0.2302049 0.4438554 0.8660244
vn 0.37114832 0.26965526 0.88855785
vn 0.37114847 0.26965505 0.88855785
vn 0.49326774 0.08177854 0.866025
vn 0.4932677 0.08177855 0.866025
vn -0.46040526 -0.88770884 0
vn -0.46040532 -0.88770884 0
vn -0.46040526 -0.88770884 0
vn -0.46040532 -0.88770884 0
vn 0.23020492 0.44385543 -0.8660244
vn 0.2302049 0.4438554 -0.8660244
vn 0.37114847 0.269655 -0.88855773
vn 0.37114832 0.26965526 -0.88855785
vn 0.49326774 0.08177854 -0.8660249
vn 0.4932678 0.08177855 -0.8660249
vn -0.986534 -0.1635559 0
vn -0.986534 -0.16355589 0
vn -0.986534 -0.1635559 0
vn -0.986534 -0.1635559 0
vn -0.35099298 0.3560945 0.8660258
vn -0.35099298 0.35609445 0.8660258
vn -0.14176542 0.43630937 0.8885588
vn -0.14176562 0.43630937 0.8885588
vn 0.07465208 0.4943954 0.8660256
vn 0.07465208 0.4943954 0.8660256
vn 0.701986 -0.7121907 -1.6140064E-07
vn 0.70198596 -0.71219075 -1.6140065E-07
vn 0.701986 -0.7121907 -1.6140065E-07
vn 0.70198596 -0.71219075 -1.6140065E-07
vn -0.3509931 0.35609457 -0.8660258
vn -0.35099304 0.3560945 -0.8660258
vn -0.14176568 0.43630943 -0.8885588
vn -0.14176548 0.43630946 -0.8885588
vn 0.074652046 0.4943954 -0.8660255
vn 0.07465205 0.4943954 -0.8660255
vn -0.14930399 -0.98879135 0
vn -0.14930399 -0.98879135 0
vn -0.14930399 -0.98879135 0
vn -0.14930399 -0.98879135 0
vn -0.4471295 -0.22377506 0.86602545
vn -0.44712946 -0.22377506 0.8660253
vn -0.45876345 -1.9739205E-07 0.8885584
vn -0.4587634 1.3128289E-07 0.8885584
vn -0.44712964 0.22377506 0.86602527
vn -0.4471297 0.22377509 0.86602527
vn 0.8942587 0.44755042 0
vn 0.8942587 0.44755042 0
vn 0.8942587 0.44755042 0
vn 0.8942587 0.44755042 0
vn -0.44712958 -0.2237751 -0.8660253
vn -0.44712952 -0.22377507 -0.8660253
vn -0.4587635 1.312829E-07 -0.8885584
vn -0.4587635 -1.9739207E-07 -0.8885584
vn -0.44712976 0.22377509 -0.86602527
vn -0.44712976 0.22377512 -0.86602527
vn 0.894259 -0.44754988 0
vn 0.894259 -0.44754988 0
vn 0.894259 -0.44754988 0
vn 0.894259 -0.44754988 0
vn 0.07465215 -0.4943956 0.86602545
vn 0.07465215 -0.49439558 0.86602545
vn -0.14176553 -0.4363096 0.88855857
vn -0.14176555 -0.43630958 0.88855857
vn -0.35099307 -0.35609478 0.8660256
vn -0.35099307 -0.35609478 0.8660256
vn -0.1493042 0.98879135 -1.661478E-07
vn -0.14930421 0.98879135 -1.6614781E-07
vn -0.1493042 0.98879135 -1.661478E-07
vn -0.14930421 0.98879135 -1.6614779E-07
vn 0.07465219 -0.49439573 -0.86602545
vn 0.07465219 -0.49439573 -0.86602545
vn -0.14176558 -0.4363097 -0.88855857
vn -0.14176555 -0.43630975 -0.88855857
vn -0.35099316 -0.35609487 -0.8660256
vn -0.35099316 -0.3560948 -0.8660256
vn 0.7019862 0.71219057 -1.8988327E-07
vn 0.7019862 0.71219057 -1.8988325E-07
vn 0.7019862 0.7121905 -1.8988324E-07
vn 0.7019862 0.71219057 -1.8988325E-07
vn 0.49326763 -0.08177833 0.866025
vn 0.49326763 -0.08177834 0.866025
vn 0.37114665 -0.26965383 0.88855886
vn 0.371147 -0.26965338 0.88855886
vn 0.2302024 -0.44385225 0.8660266
vn 0.2302024 -0.44385225 0.8660266
vn -0.986534 0.16355607 0
vn -0.986534 0.16355607 0
vn -0.986534 0.16355607 0
vn -0.986534 0.16355607 0
vn 0.49326763 -0.08177834 -0.866025
vn 0.49326763 -0.08177833 -0.866025
vn 0.371147 -0.26965338 -0.88855886
vn 0.37114668 -0.26965383 -0.88855886
vn 0.2302024 -0.4438522 -0.8660266
vn 0.23020244 -0.4438522 -0.8660267
vn -0.46040902 0.8877069 0
vn -0.46040902 0.8877069 0
vn -0.46040908 0.8877069 0
vn -0.46040902 0.8877069 0
g fx_pajama_princess_star_particle_1_0
f 3/3/3 2/2/2 1/1/1
f 4/4/4 3/3/3 1/1/1
f 5/5/5 3/3/3 4/4/4
f 6/6/6 5/5/5 4/4/4
f 9/9/9 8/8/8 7/7/7
f 10/10/10 9/9/9 7/7/7
f 13/13/13 12/12/12 11/11/11
f 14/14/14 13/13/13 11/11/11
f 15/15/15 13/13/13 14/14/14
f 16/16/16 15/15/15 14/14/14
f 19/19/19 18/18/18 17/17/17
f 20/20/20 19/19/19 17/17/17
f 23/23/23 22/22/22 21/21/21
f 24/24/24 23/23/23 21/21/21
f 25/25/25 23/23/23 24/24/24
f 26/26/26 25/25/25 24/24/24
f 29/29/29 28/28/28 27/27/27
f 30/30/30 29/29/29 27/27/27
f 33/33/33 32/32/32 31/31/31
f 34/34/34 33/33/33 31/31/31
f 35/35/35 33/33/33 34/34/34
f 36/36/36 35/35/35 34/34/34
f 39/39/39 38/38/38 37/37/37
f 40/40/40 39/39/39 37/37/37
f 43/43/43 42/42/42 41/41/41
f 44/44/44 43/43/43 41/41/41
f 45/45/45 43/43/43 44/44/44
f 46/46/46 45/45/45 44/44/44
f 49/49/49 48/48/48 47/47/47
f 50/50/50 49/49/49 47/47/47
f 53/53/53 52/52/52 51/51/51
f 54/54/54 53/53/53 51/51/51
f 55/55/55 53/53/53 54/54/54
f 56/56/56 55/55/55 54/54/54
f 59/59/59 58/58/58 57/57/57
f 60/60/60 59/59/59 57/57/57
f 63/63/63 62/62/62 61/61/61
f 64/64/64 63/63/63 61/61/61
f 65/65/65 63/63/63 64/64/64
f 66/66/66 65/65/65 64/64/64
f 69/69/69 68/68/68 67/67/67
f 70/70/70 69/69/69 67/67/67
f 73/73/73 72/72/72 71/71/71
f 74/74/74 73/73/73 71/71/71
f 75/75/75 73/73/73 74/74/74
f 76/76/76 75/75/75 74/74/74
f 79/79/79 78/78/78 77/77/77
f 80/80/80 79/79/79 77/77/77
f 83/83/83 82/82/82 81/81/81
f 84/84/84 83/83/83 81/81/81
f 85/85/85 83/83/83 84/84/84
f 86/86/86 85/85/85 84/84/84
f 89/89/89 88/88/88 87/87/87
f 90/90/90 89/89/89 87/87/87
f 93/93/93 92/92/92 91/91/91
f 94/94/94 93/93/93 91/91/91
f 95/95/95 93/93/93 94/94/94
f 96/96/96 95/95/95 94/94/94
f 99/99/99 98/98/98 97/97/97
f 100/100/100 99/99/99 97/97/97
