g fx_princess_barrier_crack_glow
v -0.016894301 0.18224597 0.042442285
v -0.025487823 0.17363796 -0.0015082144
v 0.1073603 0.2309029 -0.0015079093
v 0.10928047 0.23663409 0.042442285
v 0.1698403 0.10785992 -0.0015082144
v 0.05815155 -0.05633697 -0.0015082144
v 0.06359169 -0.03905906 0.04244198
v 0.16990784 0.11723961 0.042441674
v -0.12154144 0.13713717 0.04244198
v -0.11402702 0.13547267 -0.0015079093
v -0.0254879 0.17363788 -0.0015082144
v -0.016894378 0.18224567 0.042442285
v 0.032266617 -0.18605314 0.042442285
v 0.06359192 -0.03905906 0.04244198
v 0.058151472 -0.056337122 -0.0015079093
v 0.030930327 -0.18407229 -0.0015082144
v 0.06359192 -0.03905906 0.04244198
v -0.016894378 0.18224567 0.042442285
v -0.0254879 0.17363788 -0.0015082144
v 0.058151472 -0.056337122 -0.0015079093
v 0.019024504 -0.19165742 0.042442586
v 0.023862686 -0.18706343 -0.0015076041
v -0.0992144 -0.32097664 -0.0015076041
v -0.099155575 -0.3202426 0.042443197
v -0.11402748 0.13547271 -0.0015072989
v 0.023862686 -0.18706343 -0.0015076041
v 0.019024504 -0.19165742 0.042442586
v -0.121541515 0.13713741 0.04244289
v 0.023862991 -0.18706323 -0.0015085196
v 0.11324722 -0.14923283 -0.0015082144
v 0.109908216 -0.15319242 0.042442586
v 0.01902481 -0.19165723 0.042442285
v -0.365305 -0.13847958 0.042442586
v -0.36969024 -0.13625884 -0.0015079093
v -0.09921447 -0.32097653 -0.0015079093
v -0.099155955 -0.32024252 0.042442586
v -0.09921447 -0.32097653 -0.0015079093
v -0.11154739 -0.6301659 -0.0015079093
v -0.11151787 -0.6301658 0.042442586
v -0.099155955 -0.32024252 0.042442586
v -0.52847123 -0.19231673 0.04244289
v -0.5292359 -0.18890144 -0.0015076041
v -0.3986434 -0.6301659 -0.0015076041
v -0.3988896 -0.63016576 0.04244289
v -0.3687097 0.2655823 0.04244289
v -0.37311453 0.27011156 -0.0015076041
v -0.36968955 -0.1362587 -0.0015079093
v -0.36530447 -0.1384793 0.042442586
v -0.8489827 -0.17250888 -0.0015079093
v -0.3765518 0.2764368 -0.0015079093
v -0.37568146 0.27841166 0.042442285
v -0.8489828 -0.17136098 0.042442586
v -0.37311453 0.27011156 -0.0015076041
v -0.3687097 0.2655823 0.04244289
v -0.37568146 0.27841166 0.042442285
v -0.3765518 0.2764368 -0.0015079093
v -0.8489827 -0.21407096 -0.0015079093
v -0.8489827 -0.17250888 -0.0015079093
v -0.8489828 -0.17136098 0.042442586
v -0.8489827 -0.21754652 0.042442586
v -0.52847093 -0.19231676 0.042442586
v -0.36530447 -0.1384793 0.042442586
v -0.36968955 -0.1362587 -0.0015079093
v -0.52923536 -0.1889014 -0.0015079093
v -0.8489827 -0.21754652 0.042442586
v -0.52847093 -0.19231676 0.042442586
v -0.52923536 -0.1889014 -0.0015079093
v -0.8489827 -0.21407096 -0.0015079093
v -0.44709656 0.37416995 0.04244289
v -0.4478933 0.37340984 -0.0015076041
v -0.38234818 0.29972383 -0.0015076041
v -0.38102943 0.29989725 0.042442586
v -0.4478929 0.3734099 -0.0015076041
v -0.8489828 0.27120778 -0.0015076041
v -0.8489828 0.27176487 0.04244289
v -0.44709623 0.37416995 0.042442586
v -0.4756755 0.63100284 -0.0015079093
v -0.4747969 0.6310028 0.042442586
v -0.44709602 0.37416935 0.04244289
v -0.4478928 0.3734092 -0.0015076041
v 0.084668346 0.4967415 -0.0015076041
v 0.11353172 0.63100296 -0.0015076041
v 0.113075405 0.63100296 0.04244289
v 0.08407585 0.4961086 0.04244289
v 0.13475944 0.38679683 -0.0015076041
v 0.084668346 0.4967415 -0.0015076041
v 0.08407585 0.4961086 0.04244289
v 0.13517311 0.38395557 0.042442586
v 0.5085913 0.6310029 0.042442586
v 0.50702286 0.63100296 -0.0015072989
v 0.5839398 0.24599513 -0.0015076041
v 0.58619124 0.2425777 0.04244289
v -0.37311462 0.27011082 -0.0015076041
v -0.36870995 0.26558194 0.042442586
v -0.12154121 0.13713734 0.042442586
v -0.11402725 0.1354726 -0.0015076041
v -0.375682 0.27841234 0.042442586
v -0.3765522 0.276437 -0.0015076041
v -0.38234818 0.299724 -0.0015076041
v -0.38102952 0.29989734 0.042442586
v -0.375682 0.27841234 0.042442586
v -0.36870995 0.26558194 0.042442586
v -0.37311462 0.27011082 -0.0015076041
v -0.3765522 0.276437 -0.0015076041
v 0.10928055 0.2366344 0.042442586
v 0.13517304 0.38395548 0.04244289
v 0.13475952 0.3867969 -0.0015076041
v 0.10736 0.23090304 -0.0015079093
v 0.08407608 0.49610806 0.04244289
v -0.38102952 0.29989734 0.042442586
v -0.38234818 0.299724 -0.0015076041
v 0.08466873 0.49674082 -0.0015076041
v 0.8285516 -0.11924686 -0.0015079093
v 0.8285806 -0.119345434 0.042442586
v 0.8564122 -0.13469438 0.042442586
v 0.85641205 -0.13461168 -0.0015079093
v 0.58889115 -0.10431045 0.042442586
v 0.47041762 -0.5462711 0.04244289
v 0.47340345 -0.5363119 -0.0015079093
v 0.58922744 -0.10423471 -0.0015076041
v 0.8564122 -0.42604628 0.04244289
v 0.47041717 -0.5462713 0.04244289
v 0.473403 -0.53631216 -0.0015076041
v 0.85641235 -0.4170172 -0.0015072989
v 0.82855237 -0.11924751 -0.0015079093
v 0.8285814 -0.119346276 0.042442586
v 0.67941225 0.10338558 0.042442586
v 0.67490643 0.11016902 -0.0015076041
v 0.42247435 -0.6301659 -0.0015076041
v 0.42489263 -0.6301659 0.042442586
v 0.47041777 -0.54627013 0.042442586
v 0.47340393 -0.5363108 -0.0015079093
v 0.26728445 -0.08403908 -0.0015076041
v 0.2723249 -0.08445213 0.042442586
v 0.10990807 -0.15319231 0.042442586
v 0.11324722 -0.14923263 -0.0015076041
v 0.2723249 -0.08445213 0.042442586
v 0.26728445 -0.08403908 -0.0015076041
v 0.58922726 -0.10423454 -0.0015079093
v 0.58889097 -0.10431026 0.042442586
v 0.120238796 -0.19672717 0.042442586
v 0.12524894 -0.19980891 -0.0015079093
v 0.11324722 -0.14923263 -0.0015076041
v 0.10990807 -0.15319231 0.042442586
v 0.5390887 -0.2900956 0.042442586
v 0.53888977 -0.29201633 -0.0015082144
v 0.12524894 -0.19980891 -0.0015079093
v 0.120238796 -0.19672717 0.042442586
v 0.58619183 0.24257755 0.04244289
v 0.58394045 0.24599484 -0.0015076041
v 0.6749063 0.11016902 -0.0015072989
v 0.67941207 0.10338558 0.042442586
v 0.58394045 0.24599484 -0.0015076041
v 0.58619183 0.24257755 0.04244289
v 0.5695517 0.24779361 0.042442586
v 0.5704158 0.25023434 -0.0015076041
v 0.5695517 0.24779361 0.042442586
v 0.3836183 -0.09143371 0.04244289
v 0.38321143 -0.0913113 -0.0015076041
v 0.5704158 0.25023434 -0.0015076041
v 0.6749063 0.11016902 -0.0015072989
v 0.49348602 -0.0982288 -0.0015079093
v 0.5032782 -0.09894001 0.04244289
v 0.67941207 0.10338558 0.042442586
v 0.13475966 0.38679683 -0.0015076041
v 0.5704159 0.25023425 -0.0015076041
v 0.569552 0.24779361 0.042442586
v 0.13517311 0.38395548 0.042442285
v 0.26728454 -0.08403915 -0.0015076041
v 0.107360154 0.23090267 -0.0015076041
v 0.10928047 0.23663402 0.042442586
v 0.27232498 -0.08445213 0.042442586
vt 0.4879154 0.9999795
vt 0.4828764 7.0929527E-06
vt 0.5607751 1.4126301E-05
vt 0.56190103 0.99997956
vt 0.5851919 7.033348E-06
vt 0.4549977 6.914139E-06
vt 0.46869758 0.9999724
vt 0.5926292 0.99996555
vt 0.426553 0.9999725
vt 0.43095925 1.4066696E-05
vt 0.48287633 7.0929527E-06
vt 0.48791537 0.9999795
vt 0.35214373 0.99997926
vt 0.46869758 0.9999724
vt 0.45499757 1.3887882E-05
vt 0.3537144 6.854534E-06
vt 0.46869758 0.9999724
vt 0.64417344 0.9999795
vt 0.63734823 7.0929527E-06
vt 0.45499757 1.3887882E-05
vt 0.3477 1.0045137
vt 0.35134268 0.0045483056
vt 0.24516091 0.0045481864
vt 0.24574289 1.0045276
vt 0.60708654 2.7954578E-05
vt 0.35134268 0.0045483056
vt 0.3477 1.0045137
vt 0.6084064 0.9999933
vt 0.5118144 -5.9604645E-08
vt 0.56422704 6.854534E-06
vt 0.56226915 0.9999862
vt 0.5089775 0.99997926
vt 0.2836163 0.99998623
vt 0.2810449 1.3828278E-05
vt 0.43964496 1.3709068E-05
vt 0.43967927 0.99998605
vt 0.245161 1.3709068E-05
vt 5.9604645E-08 1.347065E-05
vt 5.9604645E-08 0.9999859
vt 0.24574295 0.99998605
vt 0.34717724 0.9999931
vt 0.34988528 2.0742416E-05
vt 5.9604645E-08 2.0384789E-05
vt 8.940697E-08 0.99999285
vt 0.71025234 0.99999344
vt 0.7138437 2.104044E-05
vt 0.39162654 1.3828278E-05
vt 0.38986576 0.99998623
vt 1.1920929E-07 1.3828278E-05
vt 0.27702147 1.4126301E-05
vt 0.27753183 0.9999796
vt 2.9802322E-08 0.9999862
vt 0.7138437 2.104044E-05
vt 0.71025234 0.99999344
vt 0.72042495 0.9999796
vt 0.7188591 1.4126301E-05
vt 0.32992798 1.3768673E-05
vt 0.3628832 1.3828278E-05
vt 0.36379337 0.9999862
vt 0.32717216 0.9999862
vt 0.18794 0.9999862
vt 0.2836166 0.99998623
vt 0.28104532 1.3828278E-05
vt 0.18749174 1.3828278E-05
vt 1.1920929E-07 0.9999862
vt 0.18794 0.9999862
vt 0.18749174 1.3828278E-05
vt 1.1920929E-07 1.3768673E-05
vt 0.79635316 0.99999356
vt 0.7957505 2.1159649E-05
vt 0.7373237 2.1100044E-05
vt 0.7374612 0.9999865
vt 0.23518887 2.1159649E-05
vt 2.9802322E-08 2.104044E-05
vt 2.9802322E-08 0.99999344
vt 0.23565602 0.9999866
vt 0.9999999 1.4424324E-05
vt 0.9999998 0.99998677
vt 0.7963527 0.99999356
vt 0.79575 2.1159649E-05
vt 0.89354205 2.1219254E-05
vt 1 2.1338463E-05
vt 1 0.99999374
vt 0.8930402 0.9999936
vt 0.80636525 2.1159649E-05
vt 0.89354205 2.1219254E-05
vt 0.8930402 0.9999936
vt 0.8041123 0.9999866
vt 0.99999994 0.99998677
vt 1 2.8312206E-05
vt 0.6947214 2.104044E-05
vt 0.69201165 0.99999344
vt 0.27903694 2.104044E-05
vt 0.28161973 0.9999865
vt 0.42655313 0.9999864
vt 0.43095914 2.0980835E-05
vt 0.7204255 0.9999865
vt 0.71885926 2.104044E-05
vt 0.7373238 2.1100044E-05
vt 0.73746127 0.9999865
vt 0.7204255 0.9999865
vt 0.71025205 0.9999865
vt 0.7138431 2.104044E-05
vt 0.71885926 2.104044E-05
vt 0.68729913 0.9999865
vt 0.80411226 0.99999356
vt 0.8063653 2.1159649E-05
vt 0.68275464 1.4126301E-05
vt 0.5471218 0.9999936
vt 0.27439585 0.9999865
vt 0.27362263 2.1100044E-05
vt 0.5474694 2.1219254E-05
vt 0.9836632 1.3887882E-05
vt 0.9836802 0.99998623
vt 0.9999999 0.99998623
vt 0.9999999 1.3828278E-05
vt 0.41695875 0.99998623
vt 0.066521466 0.99999285
vt 0.07441825 1.3530254E-05
vt 0.41701883 2.0802021E-05
vt 0.9999999 0.99999297
vt 0.7736623 0.99999285
vt 0.77541316 2.0444393E-05
vt 1 2.7537346E-05
vt 0.40511495 1.3887882E-05
vt 0.40503663 0.99998623
vt 0.5816441 0.9999864
vt 0.58702284 2.092123E-05
vt 2.9802322E-08 2.0384789E-05
vt 2.9802322E-08 0.9999859
vt 0.06652224 0.99998593
vt 0.07441917 1.3530254E-05
vt 0.65455055 2.0802021E-05
vt 0.6575061 0.9999863
vt 0.56226903 0.9999862
vt 0.56422704 2.0742416E-05
vt 0.6575061 0.9999863
vt 0.65455055 2.0802021E-05
vt 0.84332955 1.3887882E-05
vt 0.8431324 0.99998623
vt 0.34368014 0.9999862
vt 0.3412366 1.3828278E-05
vt 0.3813393 2.0742416E-05
vt 0.37819958 0.9999862
vt 0.81392956 0.9999861
vt 0.8138129 6.735325E-06
vt 0.57126456 1.3828278E-05
vt 0.5683267 0.9999862
vt 0.69201154 0.99999344
vt 0.69472116 2.104044E-05
vt 0.58702284 2.7894974E-05
vt 0.5816441 0.9999864
vt 0.84022945 2.104044E-05
vt 0.84154963 0.99999344
vt 0.83179224 0.9999865
vt 0.832299 2.104044E-05
vt 0.69614744 0.9999865
vt 0.4271689 0.9999932
vt 0.427266 2.0802021E-05
vt 0.69808275 2.104044E-05
vt 0.58702284 2.7894974E-05
vt 0.42178103 1.3887882E-05
vt 0.42121708 0.9999932
vt 0.5816441 0.9999864
vt 0.5768414 2.1159649E-05
vt 0.83229905 2.104044E-05
vt 0.8317925 0.9999865
vt 0.5770838 0.9999796
vt 0.4330322 2.0802021E-05
vt 0.68275434 2.104044E-05
vt 0.6872988 0.9999865
vt 0.43270472 0.9999863
vn -0.3937834 0.9135349 -0.10192478
vn -0.3937834 0.9135349 -0.10192477
vn -0.3937834 0.9135349 -0.10192477
vn -0.3937834 0.9135349 -0.10192478
vn 0.8210751 -0.55850494 0.11793163
vn 0.8210751 -0.55850494 0.11793161
vn 0.8210751 -0.55850494 0.11793163
vn 0.8210751 -0.558505 0.117931634
vn -0.393783 0.9135352 -0.101924114
vn -0.39378303 0.9135352 -0.10192411
vn -0.393783 0.9135352 -0.10192411
vn -0.393783 0.9135352 -0.10192411
vn 0.9772903 -0.2082664 -0.039100412
vn 0.9772903 -0.2082664 -0.039100412
vn 0.9772903 -0.20826639 -0.03910041
vn 0.9772903 -0.20826639 -0.03910041
vn 0.9115686 0.33152786 -0.24317071
vn 0.9115686 0.33152786 -0.24317071
vn 0.9115686 0.33152783 -0.24317071
vn 0.9115686 0.33152786 -0.24317071
vn 0.73622906 -0.67665374 0.010316547
vn 0.73622906 -0.67665374 0.010316545
vn 0.73622906 -0.67665374 0.010316545
vn 0.73622906 -0.67665374 0.010316547
vn 0.9103231 0.3891801 0.14089283
vn 0.9103231 0.38918006 0.14089282
vn 0.9103231 0.38918006 0.14089285
vn 0.9103231 0.38918012 0.14089282
vn -0.38920844 0.9196076 0.053279005
vn -0.38920838 0.9196076 0.053279
vn -0.38920838 0.9196076 0.05327901
vn -0.38920835 0.9196076 0.053279005
vn 0.5639074 0.82570994 -0.014541843
vn 0.5639073 0.82570994 -0.014541843
vn 0.5639073 0.82570994 -0.014541843
vn 0.5639074 0.82570994 -0.014541843
vn 0.9992053 -0.03985575 -0.00066800055
vn 0.9992053 -0.039855745 -0.0006680005
vn 0.9992053 -0.03985575 -0.0006680006
vn 0.9992053 -0.03985575 -0.0006680006
vn 0.95887446 0.28377944 0.005369653
vn 0.95887446 0.28377947 0.005369654
vn 0.95887446 0.28377944 0.005369653
vn 0.95887446 0.28377944 0.0053696535
vn 0.9950659 0.008386361 -0.09886036
vn 0.9950659 0.008386361 -0.09886037
vn 0.9950659 0.0083863605 -0.09886036
vn 0.9950659 0.008386361 -0.09886037
vn -0.6887359 0.7247652 -0.01892985
vn -0.6887359 0.72476506 -0.018929845
vn -0.6887359 0.7247652 -0.018929847
vn -0.6887359 0.7247652 -0.018929847
vn 0.87798375 0.47711328 -0.038825583
vn 0.87798375 0.47711328 -0.038825583
vn 0.87798375 0.47711328 -0.03882559
vn 0.87798375 0.47711328 -0.03882559
vn -1 -1.7389407E-06 -1.7819541E-06
vn -1 -1.7389407E-06 -1.7819541E-06
vn -1 -1.7389407E-06 -1.7819541E-06
vn -1 -1.7389407E-06 -1.7819541E-06
vn 0.31235868 -0.94667387 -0.07899688
vn 0.31235865 -0.94667387 -0.078996874
vn 0.31235865 -0.94667387 -0.07899689
vn 0.31235865 -0.94667387 -0.07899689
vn 0.07823162 -0.9938327 -0.07859086
vn 0.07823162 -0.9938327 -0.07859086
vn 0.07823162 -0.9938327 -0.07859086
vn 0.078231625 -0.9938327 -0.07859086
vn 0.74694085 0.6644191 -0.02503273
vn 0.74694085 0.6644191 -0.02503273
vn 0.74694085 0.66441905 -0.025032729
vn 0.7469409 0.664419 -0.025032727
vn 0.2469023 -0.96896255 0.012281554
vn 0.2469023 -0.96896255 0.012281554
vn 0.24690233 -0.96896255 0.012281555
vn 0.24690233 -0.96896255 0.012281554
vn -0.9940375 -0.10721194 0.019873615
vn -0.9940375 -0.10721193 0.019873615
vn -0.9940375 -0.10721194 0.019873613
vn -0.9940375 -0.10721193 0.019873615
vn -0.9776129 0.2101665 -0.010151321
vn -0.9776129 0.21016648 -0.01015132
vn -0.9776129 0.21016648 -0.010151322
vn -0.9776129 0.2101665 -0.010151321
vn -0.9098523 -0.41453135 -0.018235074
vn -0.9098523 -0.41453138 -0.018235074
vn -0.9098523 -0.41453132 -0.018235074
vn -0.9098523 -0.41453135 -0.018235074
vn 0.980022 0.19578935 -0.034976605
vn 0.980022 0.19578938 -0.034976613
vn 0.980022 0.19578937 -0.034976613
vn 0.980022 0.19578937 -0.03497661
vn -0.4606469 -0.886433 -0.045177985
vn -0.4606469 -0.886433 -0.04517798
vn -0.4606469 -0.886433 -0.04517798
vn -0.46064684 -0.886433 -0.04517798
vn -0.969956 -0.24141672 0.030054871
vn -0.969956 -0.24141674 0.030054871
vn -0.969956 -0.24141674 0.03005487
vn -0.969956 -0.24141672 0.03005487
vn -0.8779927 -0.47709656 0.038828246
vn -0.8779927 -0.47709662 0.03882825
vn -0.8779927 -0.47709662 0.03882825
vn -0.8779927 -0.47709662 0.038828246
vn 0.9846976 -0.173067 -0.02045701
vn 0.9846976 -0.17306699 -0.020457007
vn 0.9846976 -0.173067 -0.020457007
vn 0.9846976 -0.173067 -0.02045701
vn -0.38867822 0.92133856 0.0080259275
vn -0.38867816 0.92133856 0.008025927
vn -0.38867816 0.92133856 0.008025927
vn -0.3886782 0.92133856 0.008025927
vn -0.4829218 -0.8756619 -0.0016457236
vn -0.4829218 -0.8756619 -0.0016457236
vn -0.48292178 -0.8756619 -0.0016457234
vn -0.48292178 -0.8756619 -0.0016457236
vn -0.965875 0.25891563 -0.006946363
vn -0.965875 0.25891566 -0.006946363
vn -0.965875 0.2589156 -0.0069463626
vn -0.965875 0.2589156 -0.0069463626
vn -0.29181656 0.93690753 0.1924773
vn -0.29181653 0.93690753 0.1924773
vn -0.29181656 0.93690753 0.1924773
vn -0.2918166 0.93690753 0.19247732
vn 0.8308754 0.556458 0.0007035733
vn 0.8308754 0.556458 0.0007035734
vn 0.8308754 0.556458 0.00070357334
vn 0.8308754 0.556458 0.00070357334
vn 0.8779074 -0.4763877 -0.048304074
vn 0.8779074 -0.4763877 -0.04830408
vn 0.8779074 -0.4763877 -0.048304074
vn 0.8779074 -0.47638765 -0.04830408
vn -0.3892081 0.9196077 0.053280182
vn -0.38920808 0.9196077 0.05328018
vn -0.38920814 0.9196077 0.053280186
vn -0.38920814 0.9196077 0.05328019
vn 0.06260669 0.99803585 0.002199149
vn 0.06260671 0.99803585 0.0021991492
vn 0.06260669 0.99803585 0.0021991488
vn 0.062606685 0.99803585 0.0021991488
vn -0.96864456 -0.22985783 -0.094303094
vn -0.96864456 -0.2298578 -0.09430308
vn -0.96864456 -0.22985785 -0.09430309
vn -0.96864456 -0.22985783 -0.09430309
vn -0.2173692 -0.9751154 0.043596543
vn -0.21736918 -0.9751154 0.043596547
vn -0.21736918 -0.9751154 0.043596543
vn -0.21736921 -0.9751154 0.043596547
vn 0.8308757 0.5564577 0.0007039831
vn 0.8308757 0.55645776 0.00070398324
vn 0.8308757 0.55645776 0.0007039832
vn 0.8308757 0.55645776 0.0007039832
vn 0.29859507 0.95256877 0.058769718
vn 0.29859504 0.95256877 0.058769718
vn 0.29859507 0.95256877 0.05876972
vn 0.29859507 0.95256877 0.05876972
vn -0.876876 0.4806235 0.00945345
vn -0.876876 0.4806235 0.009453451
vn -0.876876 0.48062357 0.009453452
vn -0.876876 0.48062357 0.009453451
vn 0.74248093 -0.64636457 -0.17588295
vn 0.74248093 -0.64636475 -0.17588297
vn 0.74248093 -0.64636457 -0.17588294
vn 0.74248093 -0.64636457 -0.17588295
vn 0.29859558 0.9525684 0.058770988
vn 0.29859558 0.9525684 0.058771
vn 0.29859558 0.9525684 0.058770988
vn 0.2985956 0.9525684 0.058771
vn -0.88738024 -0.45060322 0.0975344
vn -0.88738024 -0.45060322 0.097534396
vn -0.88738024 -0.45060322 0.0975344
vn -0.88738024 -0.45060322 0.0975344
g fx_princess_barrier_crack_glow_0
f 3/3/3 2/2/2 1/1/1
f 4/4/4 3/3/3 1/1/1
f 7/7/7 6/6/6 5/5/5
f 8/8/8 7/7/7 5/5/5
f 11/11/11 10/10/10 9/9/9
f 12/12/12 11/11/11 9/9/9
f 15/15/15 14/14/14 13/13/13
f 16/16/16 15/15/15 13/13/13
f 19/19/19 18/18/18 17/17/17
f 20/20/20 19/19/19 17/17/17
f 23/23/23 22/22/22 21/21/21
f 24/24/24 23/23/23 21/21/21
f 27/27/27 26/26/26 25/25/25
f 28/28/28 27/27/27 25/25/25
f 31/31/31 30/30/30 29/29/29
f 32/32/32 31/31/31 29/29/29
f 35/35/35 34/34/34 33/33/33
f 36/36/36 35/35/35 33/33/33
f 39/39/39 38/38/38 37/37/37
f 40/40/40 39/39/39 37/37/37
f 43/43/43 42/42/42 41/41/41
f 44/44/44 43/43/43 41/41/41
f 47/47/47 46/46/46 45/45/45
f 48/48/48 47/47/47 45/45/45
f 51/51/51 50/50/50 49/49/49
f 52/52/52 51/51/51 49/49/49
f 55/55/55 54/54/54 53/53/53
f 56/56/56 55/55/55 53/53/53
f 59/59/59 58/58/58 57/57/57
f 60/60/60 59/59/59 57/57/57
f 63/63/63 62/62/62 61/61/61
f 64/64/64 63/63/63 61/61/61
f 67/67/67 66/66/66 65/65/65
f 68/68/68 67/67/67 65/65/65
f 71/71/71 70/70/70 69/69/69
f 72/72/72 71/71/71 69/69/69
f 75/75/75 74/74/74 73/73/73
f 76/76/76 75/75/75 73/73/73
f 79/79/79 78/78/78 77/77/77
f 80/80/80 79/79/79 77/77/77
f 83/83/83 82/82/82 81/81/81
f 84/84/84 83/83/83 81/81/81
f 87/87/87 86/86/86 85/85/85
f 88/88/88 87/87/87 85/85/85
f 91/91/91 90/90/90 89/89/89
f 92/92/92 91/91/91 89/89/89
f 95/95/95 94/94/94 93/93/93
f 96/96/96 95/95/95 93/93/93
f 99/99/99 98/98/98 97/97/97
f 100/100/100 99/99/99 97/97/97
f 103/103/103 102/102/102 101/101/101
f 104/104/104 103/103/103 101/101/101
f 107/107/107 106/106/106 105/105/105
f 108/108/108 107/107/107 105/105/105
f 111/111/111 110/110/110 109/109/109
f 112/112/112 111/111/111 109/109/109
f 115/115/115 114/114/114 113/113/113
f 116/116/116 115/115/115 113/113/113
f 119/119/119 118/118/118 117/117/117
f 120/120/120 119/119/119 117/117/117
f 123/123/123 122/122/122 121/121/121
f 124/124/124 123/123/123 121/121/121
f 127/127/127 126/126/126 125/125/125
f 128/128/128 127/127/127 125/125/125
f 131/131/131 130/130/130 129/129/129
f 132/132/132 131/131/131 129/129/129
f 135/135/135 134/134/134 133/133/133
f 136/136/136 135/135/135 133/133/133
f 139/139/139 138/138/138 137/137/137
f 140/140/140 139/139/139 137/137/137
f 143/143/143 142/142/142 141/141/141
f 144/144/144 143/143/143 141/141/141
f 147/147/147 146/146/146 145/145/145
f 148/148/148 147/147/147 145/145/145
f 151/151/151 150/150/150 149/149/149
f 152/152/152 151/151/151 149/149/149
f 155/155/155 154/154/154 153/153/153
f 156/156/156 155/155/155 153/153/153
f 159/159/159 158/158/158 157/157/157
f 160/160/160 159/159/159 157/157/157
f 163/163/163 162/162/162 161/161/161
f 164/164/164 163/163/163 161/161/161
f 167/167/167 166/166/166 165/165/165
f 168/168/168 167/167/167 165/165/165
f 171/171/171 170/170/170 169/169/169
f 172/172/172 171/171/171 169/169/169
