g fx_qutersphere_twuv
v -8.327143E-08 0.20338717 -1.3944799
v -0.016810175 0.012540698 -0.46137524
v 0.016810017 0.012540701 -0.47260672
v -0.30994138 0.20338717 -1.3613403
v -0.22562484 0.012540693 -0.41592607
v -7.805787E-09 0.66521037 -1.9614459
v -0.66573316 0.20338714 -1.2272375
v -0.32947326 0.01254067 -0.3396296
v -0.4359571 0.66521037 -1.9148331
v -1.9360163E-08 1.2630595 -2.3829405
v -0.97215015 0.20338708 -1.0021157
v -0.40888622 0.012540635 -0.23814447
v -0.5296398 1.2630596 -2.3263106
v -7.98393E-08 1.952595 -2.6277034
v -0.936406 0.6652103 -1.7262067
v -1.2064673 0.20338717 -0.7026716
v -0.45797387 0.012540591 -0.11899735
v -0.58404166 1.952595 -2.5652568
v -1.6965359E-07 2.682677 -2.677581
v -0.59512776 2.6826773 -2.6139495
v -1.3674065 0.6652104 -1.4095546
v -1.1376301 1.2630595 -2.0971496
v -1.2544813 1.952595 -2.3125577
v -1.2782936 2.682677 -2.356454
v -1.3513066 0.20338702 -0.35111377
v -0.47309583 0.012540541 0.008975182
v -1.6969922 0.66521007 -0.9883627
v -1.6612476 1.2630594 -1.7124527
v -1.8318824 1.9525948 -1.8883467
v -1.8666544 2.682677 -1.9241905
v -1.3959254 0.20338668 0.026484635
v -0.45313036 0.0125404885 0.136282
v -1.9007198 0.6652101 -0.4938686
v -2.0616581 1.2630591 -1.2007517
v -2.2734208 1.9525945 -1.324086
v -2.3165746 2.682677 -1.3492193
v -1.337015 0.20338655 0.40211856
v -0.39955834 0.012540438 0.25348133
v -1.9634795 0.6652099 0.03725326
v -2.3091648 1.263059 -0.5999954
v -2.5463495 1.9525942 -0.66162354
v -2.5946846 2.6826763 -0.674182
v -1.1789445 0.2033864 0.7479292
v -0.31635296 0.0125403935 0.35188103
v -1.8806174 0.66520965 0.56561226
v -2.3854113 1.2630587 0.04525904
v -2.630429 1.9525939 0.049908116
v -2.6803591 2.6826758 0.050855763
v -0.933437 0.20338625 1.0382694
v -0.20968512 0.012540358 0.42418322
v -1.6582786 0.6652095 1.0520222
v -2.284743 1.2630585 0.6871568
v -2.5194204 1.9525938 0.7577383
v -2.5672438 2.6826758 0.7721219
v -0.6187006 0.20338616 1.2516055
v -0.08746589 0.012540334 0.4650257
v -1.3129529 0.6652091 1.4604084
v -2.0146255 1.2630583 1.2780913
v -2.2215574 1.9525934 1.409371
v -2.2637272 2.6826756 1.4361233
v -0.2580784 0.20338608 1.3721164
v -2.5395677E-09 0.012540328 0.46586633
v 2.9142294E-07 0.20338605 1.3888623
v -0.87025154 0.66520894 1.7604827
v -1.5950929 1.2630581 1.7742362
v -1.7589326 1.9525932 1.9564763
v -1.79232 2.6826754 1.9936142
v -0.3630075 0.66520905 1.9299903
v 1.8715139E-07 0.6652088 1.9565194
v -1.0572599 1.2630578 2.1387932
v -1.1658556 1.952593 2.3584788
v -1.1879858 2.6826751 2.4032476
v -0.4410141 1.2630577 2.3447263
v 1.06254284E-07 1.2630577 2.3785272
v -0.48631275 1.9525928 2.5855641
v -0.49554378 2.682675 2.6346443
v -6.1044105E-08 1.9525926 2.6235883
v -2.4602281E-08 2.682675 2.6735282
vt 0.7406729 0.8023775
vt 0.8146901 1.0048003
vt 0.85838956 1.0048003
vt 0.69697344 0.8023775
vt 0.7709905 1.0048003
vt 0.6292252 0.5999547
vt 0.6532738 0.8023775
vt 0.727291 1.0048003
vt 0.5855257 0.5999547
vt 0.5243947 0.39753196
vt 0.6095743 0.8023775
vt 0.6835914 1.0048003
vt 0.48069525 0.39753196
vt 0.42687798 0.19510919
vt 0.5418261 0.5999547
vt 0.56587476 0.8023775
vt 0.63989186 1.0048003
vt 0.3831785 0.19510919
vt 0.318913 -0.007313354
vt 0.27521354 -0.007313354
vt 0.49812663 0.5999547
vt 0.43699566 0.39753196
vt 0.3394789 0.19510919
vt 0.23151395 -0.007313354
vt 0.5221752 0.8023775
vt 0.59619224 1.0048003
vt 0.45442706 0.5999547
vt 0.39329612 0.39753196
vt 0.29577938 0.19510919
vt 0.18781441 -0.007313354
vt 0.4784756 0.8023775
vt 0.5524927 1.0048003
vt 0.4107275 0.5999547
vt 0.34959656 0.39753196
vt 0.2520798 0.19510919
vt 0.14411485 -0.007313354
vt 0.43477607 0.8023775
vt 0.5087931 1.0048003
vt 0.3670279 0.5999547
vt 0.305897 0.39753196
vt 0.20838025 0.19510919
vt 0.10041529 -0.007313354
vt 0.3910765 0.8023775
vt 0.46509355 1.0048003
vt 0.32332835 0.5999547
vt 0.2621974 0.39753196
vt 0.16468066 0.19510919
vt 0.056715697 -0.007313354
vt 0.3473769 0.8023775
vt 0.421394 1.0048003
vt 0.27962878 0.5999547
vt 0.21849786 0.39753196
vt 0.12098111 0.19510919
vt 0.013016149 -0.007313354
vt 0.30367732 0.8023775
vt 0.37769437 1.0048003
vt 0.23592922 0.5999547
vt 0.1747983 0.39753196
vt 0.07728155 0.19510919
vt -0.030683413 -0.007313354
vt 0.25997776 0.8023775
vt 0.3339948 1.0048003
vt 0.21627817 0.8023775
vt 0.19222963 0.5999547
vt 0.1310987 0.39753196
vt 0.033581965 0.19510919
vt -0.074383 -0.007313354
vt 0.14853007 0.5999547
vt 0.104830466 0.5999547
vt 0.087399125 0.39753196
vt -0.010117613 0.19510919
vt -0.118082576 -0.007313354
vt 0.043699548 0.39753196
vt -2.7939677E-08 0.39753196
vt -0.05381719 0.19510919
vt -0.16178215 -0.007313354
vt -0.09751677 0.19510919
vt -0.20548172 -0.007313354
vn 0.02400974 -0.87341595 -0.4863826
vn -0.06686424 -0.95356095 -0.29368454
vn 0.01485028 -0.95356095 -0.3008337
vn -0.10810493 -0.87341595 -0.474824
vn -0.14361978 -0.95356095 -0.26475424
vn 0.03630006 -0.67670876 -0.73535544
vn -0.232202 -0.873416 -0.42804995
vn -0.20972373 -0.95356095 -0.21618834
vn -0.16344243 -0.67670876 -0.71788013
vn 0.043896995 -0.45530644 -0.88925195
vn -0.33907768 -0.873416 -0.3495294
vn -0.26027343 -0.953561 -0.15158877
vn -0.19764793 -0.45530647 -0.86811936
vn 0.048296276 -0.2011428 -0.97837055
vn -0.35106316 -0.67670876 -0.6471629
vn -0.42080557 -0.8734161 -0.24508584
vn -0.2915198 -0.953561 -0.07574658
vn -0.2174557 -0.20114282 -0.9551202
vn 0.049189027 -0.06824222 -0.99645543
vn -0.22147529 -0.0682423 -0.9727753
vn -0.5126473 -0.67670876 -0.52844876
vn -0.4245344 -0.45530656 -0.7826024
vn -0.46708018 -0.20114286 -0.8610329
vn -0.47571406 -0.06824234 -0.8769488
vn -0.47132418 -0.8734162 -0.1224655
vn -0.30114546 -0.9535611 0.005713362
vn -0.63621044 -0.6767089 -0.37054193
vn -0.6199351 -0.45530656 -0.6390434
vn -0.6820634 -0.20114289 -0.70308673
vn -0.6946712 -0.06824239 -0.71608305
vn -0.4868869 -0.8734162 0.0092375325
vn -0.28843668 -0.9535611 0.086749576
vn -0.71258897 -0.67670894 -0.18515381
vn -0.7693579 -0.45530665 -0.44808957
vn -0.8464612 -0.20114295 -0.49299595
vn -0.8621078 -0.06824244 -0.5021087
vn -0.46633947 -0.8734162 0.14025551
vn -0.2543358 -0.9535611 0.16135186
vn -0.73611814 -0.676709 0.013966354
vn -0.86172116 -0.4553067 -0.22390303
vn -0.9480807 -0.20114295 -0.24634184
vn -0.96560574 -0.06824247 -0.25089538
vn -0.41120577 -0.8734162 0.26087126
vn -0.20137206 -0.9535611 0.22398748
vn -0.7050526 -0.6767092 0.21205074
vn -0.89017445 -0.45530683 0.016889388
vn -0.9793856 -0.20114307 0.018582134
vn -0.9974892 -0.06824253 0.01892569
vn -0.32557485 -0.8734163 0.3621394
vn -0.13347346 -0.9535611 0.2700109
vn -0.62169677 -0.67670923 0.39440823
vn -0.85260755 -0.4553069 0.25642928
vn -0.9380539 -0.20114318 0.28212816
vn -0.9553935 -0.068242654 0.28734326
vn -0.21579757 -0.8734163 0.4365493
vn -0.05567575 -0.95356125 0.29600886
vn -0.49223244 -0.6767092 0.5475143
vn -0.7518067 -0.45530698 0.4769509
vn -0.82715106 -0.2011433 0.52475
vn -0.8424407 -0.06824286 0.53444976
vn -0.090015575 -0.87341636 0.47858232
vn 0.026251258 -0.95356125 0.30005312
vn 0.042442665 -0.87341636 0.48512107
vn -0.3262616 -0.67670923 0.6600136
vn -0.59524775 -0.45530713 0.66209936
vn -0.65490216 -0.20114349 0.72845346
vn -0.66700786 -0.06824299 0.74191874
vn -0.13609336 -0.67670923 0.7235628
vn 0.06416861 -0.67670935 0.7334486
vn -0.3945422 -0.4553071 0.79814273
vn -0.43408224 -0.20114355 0.8781309
vn -0.44210616 -0.06824307 0.8943629
vn -0.16457525 -0.4553071 0.87499166
vn 0.07759794 -0.45530725 0.88694644
vn -0.18106858 -0.20114355 0.96268135
vn -0.18441552 -0.068243146 0.98047626
vn 0.0853746 -0.20114353 0.97583425
vn 0.08695273 -0.06824317 0.9938723
g fx_qutersphere_twuv_0
f 3/3/3 2/2/2 1/1/1
f 4/4/4 1/1/1 2/2/2
f 2/2/2 5/5/5 4/4/4
f 1/1/1 4/4/4 6/6/6
f 7/7/7 4/4/4 5/5/5
f 5/5/5 8/8/8 7/7/7
f 9/9/9 6/6/6 4/4/4
f 4/4/4 7/7/7 9/9/9
f 6/6/6 9/9/9 10/10/10
f 11/11/11 7/7/7 8/8/8
f 8/8/8 12/12/12 11/11/11
f 13/13/13 10/10/10 9/9/9
f 10/10/10 13/13/13 14/14/14
f 15/15/15 9/9/9 7/7/7
f 7/7/7 11/11/11 15/15/15
f 9/9/9 15/15/15 13/13/13
f 16/16/16 11/11/11 12/12/12
f 12/12/12 17/17/17 16/16/16
f 18/18/18 14/14/14 13/13/13
f 14/14/14 18/18/18 19/19/19
f 20/20/20 19/19/19 18/18/18
f 21/21/21 15/15/15 11/11/11
f 11/11/11 16/16/16 21/21/21
f 22/22/22 13/13/13 15/15/15
f 13/13/13 22/22/22 18/18/18
f 15/15/15 21/21/21 22/22/22
f 18/18/18 23/23/23 20/20/20
f 23/23/23 18/18/18 22/22/22
f 24/24/24 20/20/20 23/23/23
f 25/25/25 16/16/16 17/17/17
f 17/17/17 26/26/26 25/25/25
f 27/27/27 21/21/21 16/16/16
f 16/16/16 25/25/25 27/27/27
f 28/28/28 22/22/22 21/21/21
f 22/22/22 28/28/28 23/23/23
f 21/21/21 27/27/27 28/28/28
f 23/23/23 29/29/29 24/24/24
f 29/29/29 23/23/23 28/28/28
f 30/30/30 24/24/24 29/29/29
f 31/31/31 25/25/25 26/26/26
f 26/26/26 32/32/32 31/31/31
f 33/33/33 27/27/27 25/25/25
f 25/25/25 31/31/31 33/33/33
f 34/34/34 28/28/28 27/27/27
f 28/28/28 34/34/34 29/29/29
f 27/27/27 33/33/33 34/34/34
f 29/29/29 35/35/35 30/30/30
f 35/35/35 29/29/29 34/34/34
f 36/36/36 30/30/30 35/35/35
f 37/37/37 31/31/31 32/32/32
f 32/32/32 38/38/38 37/37/37
f 39/39/39 33/33/33 31/31/31
f 31/31/31 37/37/37 39/39/39
f 40/40/40 34/34/34 33/33/33
f 34/34/34 40/40/40 35/35/35
f 33/33/33 39/39/39 40/40/40
f 35/35/35 41/41/41 36/36/36
f 41/41/41 35/35/35 40/40/40
f 42/42/42 36/36/36 41/41/41
f 43/43/43 37/37/37 38/38/38
f 38/38/38 44/44/44 43/43/43
f 45/45/45 39/39/39 37/37/37
f 37/37/37 43/43/43 45/45/45
f 46/46/46 40/40/40 39/39/39
f 40/40/40 46/46/46 41/41/41
f 39/39/39 45/45/45 46/46/46
f 41/41/41 47/47/47 42/42/42
f 47/47/47 41/41/41 46/46/46
f 48/48/48 42/42/42 47/47/47
f 49/49/49 43/43/43 44/44/44
f 44/44/44 50/50/50 49/49/49
f 51/51/51 45/45/45 43/43/43
f 43/43/43 49/49/49 51/51/51
f 52/52/52 46/46/46 45/45/45
f 46/46/46 52/52/52 47/47/47
f 45/45/45 51/51/51 52/52/52
f 47/47/47 53/53/53 48/48/48
f 53/53/53 47/47/47 52/52/52
f 54/54/54 48/48/48 53/53/53
f 55/55/55 49/49/49 50/50/50
f 50/50/50 56/56/56 55/55/55
f 57/57/57 51/51/51 49/49/49
f 49/49/49 55/55/55 57/57/57
f 58/58/58 52/52/52 51/51/51
f 52/52/52 58/58/58 53/53/53
f 51/51/51 57/57/57 58/58/58
f 53/53/53 59/59/59 54/54/54
f 59/59/59 53/53/53 58/58/58
f 60/60/60 54/54/54 59/59/59
f 61/61/61 55/55/55 56/56/56
f 56/56/56 62/62/62 61/61/61
f 63/63/63 61/61/61 62/62/62
f 64/64/64 57/57/57 55/55/55
f 55/55/55 61/61/61 64/64/64
f 65/65/65 58/58/58 57/57/57
f 58/58/58 65/65/65 59/59/59
f 57/57/57 64/64/64 65/65/65
f 59/59/59 66/66/66 60/60/60
f 66/66/66 59/59/59 65/65/65
f 67/67/67 60/60/60 66/66/66
f 61/61/61 63/63/63 68/68/68
f 68/68/68 64/64/64 61/61/61
f 69/69/69 68/68/68 63/63/63
f 70/70/70 65/65/65 64/64/64
f 65/65/65 70/70/70 66/66/66
f 64/64/64 68/68/68 70/70/70
f 66/66/66 71/71/71 67/67/67
f 71/71/71 66/66/66 70/70/70
f 72/72/72 67/67/67 71/71/71
f 68/68/68 69/69/69 73/73/73
f 73/73/73 70/70/70 68/68/68
f 70/70/70 73/73/73 71/71/71
f 74/74/74 73/73/73 69/69/69
f 71/71/71 75/75/75 72/72/72
f 75/75/75 71/71/71 73/73/73
f 73/73/73 74/74/74 75/75/75
f 76/76/76 72/72/72 75/75/75
f 77/77/77 75/75/75 74/74/74
f 75/75/75 77/77/77 76/76/76
f 78/78/78 76/76/76 77/77/77
