g FX_sunlight_1
v -1.006239 1.0956122 -0.6472563
v 0.5642193 1.0956122 -0.64725626
v 3.1618342 8.601726 -0.64725673
v 4.732291 8.601726 -0.64725673
v 0.6248232 0.04028 -0.44997036
v 0.1900124 0.040279847 0.74466276
v -0.98003995 0.04028 0.5324332
v -0.8889238 0.040280305 -0.8532003
v 4.18581 0.040279895 -2.4956188
v 3.878415 0.04028007 -2.8967803
v 4.63058 0.04027979 -2.9360504
v 4.246751 0.040279873 -3.4842153
vt 0.9930923 0.0073477915
vt 0.010523014 0.0073477915
vt 0.9906074 0.99014515
vt 0.016176559 0.99014515
vt 0.9930923 0.0073477915
vt 0.010523014 0.0073477915
vt 0.016176559 0.99014515
vt 0.9906074 0.99014515
vt 0.016176559 0.99014515
vt 0.9906074 0.99014515
vt 0.010523014 0.0073477915
vt 0.9930923 0.0073477915
vn -0 0 -1
vn -0 0 -1
vn -0 0 -1
vn -0 0 -1
vn 1.2495E-07 1 2.0411943E-07
vn 1.2495E-07 1 2.0411943E-07
vn 1.2495E-07 1 2.0411943E-07
vn 1.2495E-07 1 2.0411943E-07
vn 3.7351953E-07 1 0
vn 3.7351953E-07 1 0
vn 3.7351953E-07 1 0
vn 3.7351953E-07 1 0
g FX_sunlight_1_0
f 3/3/3 2/2/2 1/1/1
f 2/2/2 3/3/3 4/4/4
f 7/7/7 6/6/6 5/5/5
f 5/5/5 8/8/8 7/7/7
f 11/11/11 10/10/10 9/9/9
f 12/12/12 10/10/10 11/11/11
