g FX_sunlight_1
v -0.9992444 1.0879962 -0.642757
v 0.56029725 1.0879962 -0.64275694
v 3.1398554 8.541931 -0.6427574
v 4.6993957 8.541931 -0.6427574
v 0.6204799 0.04 -0.44684246
v 0.18869156 0.039999846 0.7394864
v -0.9732274 0.04 0.5287321
v -0.88274455 0.040000305 -0.8472694
v 4.156713 0.039999895 -2.4782708
v 3.851455 0.04000007 -2.8766437
v 4.5983915 0.03999979 -2.9156408
v 4.2172303 0.039999876 -3.4599953
vt 0.9930923 0.0073477915
vt 0.010523014 0.0073477915
vt 0.9906074 0.99014515
vt 0.016176559 0.99014515
vt 0.9930923 0.0073477915
vt 0.010523014 0.0073477915
vt 0.016176559 0.99014515
vt 0.9906074 0.99014515
vt 0.016176559 0.99014515
vt 0.9906074 0.99014515
vt 0.010523014 0.0073477915
vt 0.9930923 0.0073477915
vn -0 0 -1
vn -0 0 -1
vn -0 0 -1
vn -0 0 -1
vn 1.2495E-07 1 2.0411943E-07
vn 1.2495E-07 1 2.0411943E-07
vn 1.2495E-07 1 2.0411943E-07
vn 1.2495E-07 1 2.0411944E-07
vn 3.7351955E-07 1 0
vn 3.7351953E-07 1 0
vn 3.7351955E-07 1 0
vn 3.7351955E-07 1 0
g FX_sunlight_1_0
f 3/3/3 2/2/2 1/1/1
f 2/2/2 3/3/3 4/4/4
f 7/7/7 6/6/6 5/5/5
f 5/5/5 8/8/8 7/7/7
f 11/11/11 10/10/10 9/9/9
f 12/12/12 10/10/10 11/11/11
