g FX_wallimpact2
v 0.22392464 0.08491995 0.43732518
v -0.21448582 -0.191719 0.44474986
v -0.33597934 0.21493635 0.30444282
v 0.22392464 0.08491995 0.43732518
v -0.33597934 0.21493635 0.30444282
v 0.018790351 0.44263408 0.18174452
v 0.018790351 0.44263408 0.18174452
v -0.43161517 0.18617772 -0.17169434
v 0.13544554 0.34726906 -0.29748634
v -0.43161517 0.18617772 -0.17169434
v -0.06496387 0.09599094 -0.42230305
v 0.16680971 0.040368706 -0.3894487
v 0.46729797 0.07791118 0.048079435
v 0.13544554 0.34726906 -0.29748634
v -0.27944896 -0.2492242 -0.16100426
v -0.43161517 0.18617772 -0.17169434
v -0.33852738 -0.2831867 0.11524397
v -0.33597934 0.21493635 0.30444282
v -0.21448582 -0.191719 0.44474986
v -0.06496387 0.09599094 -0.42230305
v -0.13575548 -0.17488222 -0.36822024
v 0.16680971 0.040368706 -0.3894487
v 0.16680971 0.040368706 -0.3894487
v 0.13544554 0.34726906 -0.29748634
v -0.06496387 0.09599094 -0.42230305
v -0.13575548 -0.17488222 -0.36822024
v 0.35088894 -0.111578345 -0.17669937
v 0.16680971 0.040368706 -0.3894487
v -0.33852738 -0.2831867 0.11524397
v -0.43161517 0.18617772 -0.17169434
v -0.33597934 0.21493635 0.30444282
v 0.22392464 0.08491995 0.43732518
v 0.018790351 0.44263408 0.18174452
v 0.46729797 0.07791118 0.048079435
v 0.018790351 0.44263408 0.18174452
v -0.33597934 0.21493635 0.30444282
v -0.43161517 0.18617772 -0.17169434
v 0.13544554 0.34726906 -0.29748634
v 0.46729797 0.07791118 0.048079435
v 0.018790351 0.44263408 0.18174452
v 0.46729797 0.07791118 0.048079435
v 0.16680971 0.040368706 -0.3894487
v 0.35088894 -0.111578345 -0.17669937
v -0.27944896 -0.2492242 -0.16100426
v 0.35088894 -0.111578345 -0.17669937
v -0.13575548 -0.17488222 -0.36822024
v 0.39044616 -0.21184061 0.11524404
v -0.33852738 -0.2831867 0.11524397
v 0.46729797 0.07791118 0.048079435
v -0.21448582 -0.191719 0.44474986
v 0.22392464 0.08491995 0.43732518
v -0.13575548 -0.17488222 -0.36822024
v -0.06496387 0.09599094 -0.42230305
v -0.43161517 0.18617772 -0.17169434
v -0.27944896 -0.2492242 -0.16100426
vt 0.7246362 0.16339688
vt 0.7239485 0.095444664
vt 0.6660048 0.12507413
vt 0.7246362 0.16339688
vt 0.6660048 0.12507413
vt 0.6661028 0.18044697
vt 0.6661028 0.18044697
vt 0.6620803 0.11341815
vt 0.6864771 0.1815856
vt 0.6620803 0.11341815
vt 0.7010778 0.13800769
vt 0.72556365 0.1536908
vt 0.74420595 0.18501835
vt 0.6864771 0.1815856
vt 0.72581977 0.083719835
vt 0.6620803 0.11341815
vt 0.7253309 0.07489543
vt 0.6660048 0.12507413
vt 0.7239485 0.095444664
vt 0.7010778 0.13800769
vt 0.7279964 0.104354545
vt 0.72556365 0.1536908
vt 0.72556365 0.1536908
vt 0.6864771 0.1815856
vt 0.7010778 0.13800769
vt 0.7279964 0.104354545
vt 0.7578887 0.1553409
vt 0.72556365 0.1536908
vt 0.7253309 0.07489543
vt 0.6620803 0.11341815
vt 0.6660048 0.12507413
vt 0.7246362 0.16339688
vt 0.6661028 0.18044697
vt 0.74420595 0.18501835
vt 0.6661028 0.18044697
vt 0.6660048 0.12507413
vt 0.6620803 0.11341815
vt 0.6864771 0.1815856
vt 0.74420595 0.18501835
vt 0.6661028 0.18044697
vt 0.74420595 0.18501835
vt 0.72556365 0.1536908
vt 0.7578887 0.1553409
vt 0.72581977 0.083719835
vt 0.7578887 0.1553409
vt 0.7279964 0.104354545
vt 0.77291405 0.14891647
vt 0.7253309 0.07489543
vt 0.74420595 0.18501835
vt 0.7239485 0.095444664
vt 0.7246362 0.16339688
vt 0.7279964 0.104354545
vt 0.7010778 0.13800769
vt 0.6620803 0.11341815
vt 0.72581977 0.083719835
vn -0.21510622 0.19562557 0.9567967
vn -0.21510622 0.19562557 0.9567967
vn -0.21510622 0.19562557 0.9567967
vn 0.71768177 0.69494236 -0.044588078
vn 0.7081112 0.6964564 -0.11630539
vn 0.7277247 0.6850388 -0.033744156
vn -0.69102174 0.6784519 -0.24938343
vn -0.698732 0.6729361 -0.24275622
vn -0.6845288 0.6720799 -0.28236285
vn -0.33358967 0.6191699 -0.71087724
vn -0.6773087 0.6648823 -0.31493577
vn 0.6832801 0.7028509 -0.19781077
vn 0.65890485 0.69746953 -0.2817456
vn 0.6408987 0.6784771 -0.35905096
vn -0.72301036 -0.65275455 -0.22620218
vn -0.75595367 -0.5928137 -0.27767977
vn -0.7481575 -0.60930145 -0.26270172
vn -0.75595367 -0.5928137 -0.27767977
vn -0.77013046 -0.56391126 -0.2981664
vn 0.22179429 -0.33221573 -0.9167551
vn 0.22179429 -0.33221573 -0.9167551
vn 0.22179426 -0.33221567 -0.9167551
vn 0.65726167 0.5544894 -0.5104398
vn 0.65726167 0.5544894 -0.5104398
vn 0.65726167 0.5544894 -0.5104398
vn 0.7315192 -0.67536885 -0.093576364
vn 0.7315192 -0.67536885 -0.09357634
vn 0.7315193 -0.67536885 -0.09357635
vn -0.8968852 -0.44077334 0.036274344
vn -0.8968852 -0.44077337 0.036274347
vn -0.8968852 -0.44077334 0.036274347
vn 0.647784 0.6524654 0.39327434
vn 0.647784 0.6524654 0.39327434
vn 0.647784 0.6524654 0.39327434
vn -0.52595264 0.8487739 0.054375853
vn -0.52595264 0.8487739 0.054375846
vn -0.5259527 0.8487739 0.054375853
vn 0.6307586 0.7759787 -0.00087632734
vn 0.63075864 0.7759787 -0.00087632734
vn 0.6307586 0.7759787 -0.00087632734
vn 0.8037148 0.1792796 -0.5673635
vn 0.8037148 0.17927957 -0.56736344
vn 0.8037148 0.17927957 -0.56736344
vn 0.7304284 -0.66419446 -0.15912278
vn 0.7304284 -0.66419446 -0.15912278
vn 0.73206943 -0.66571206 -0.14457443
vn 0.7290347 -0.6629415 -0.17034385
vn 0.7290347 -0.6629415 -0.17034385
vn 0.7290347 -0.6629415 -0.17034385
vn 0.7290347 -0.6629415 -0.17034385
vn 0.7290347 -0.6629415 -0.17034385
vn -0.66329837 -0.14377646 -0.73441374
vn -0.6632984 -0.14377648 -0.7344138
vn -0.66329837 -0.14377646 -0.73441374
vn -0.6632984 -0.14377648 -0.7344138
g FX_wallimpact2_0
f 3/3/3 2/2/2 1/1/1
f 6/6/6 5/5/5 4/4/4
f 9/9/9 8/8/8 7/7/7
f 11/11/11 10/10/10 9/9/9
f 14/14/14 13/13/13 12/12/12
f 17/17/17 16/16/16 15/15/15
f 19/19/19 18/18/18 17/17/17
f 22/22/22 21/21/21 20/20/20
f 25/25/25 24/24/24 23/23/23
f 28/28/28 27/27/27 26/26/26
f 31/31/31 30/30/30 29/29/29
f 34/34/34 33/33/33 32/32/32
f 37/37/37 36/36/36 35/35/35
f 40/40/40 39/39/39 38/38/38
f 43/43/43 42/42/42 41/41/41
f 46/46/46 45/45/45 44/44/44
f 45/45/45 47/47/47 44/44/44
f 48/48/48 44/44/44 47/47/47
f 45/45/45 49/49/49 47/47/47
f 50/50/50 48/48/48 47/47/47
f 49/49/49 51/51/51 47/47/47
f 50/50/50 47/47/47 51/51/51
f 54/54/54 53/53/53 52/52/52
f 55/55/55 54/54/54 52/52/52
