g gatcha_3_cover
v 0.103883 -0.12006161 0.057348948
v 0.10288699 -0.12140172 0.053755436
v 0.10288699 -0.12140176 0.057348967
v 0.103883 -0.120061636 0.053755425
v -9.512901E-05 0.010117288 0.05375541
v 0.10288699 -0.12140172 0.053755436
v -0.10403159 0.14062859 0.05375539
v -9.512901E-05 0.010117288 0.05375541
v -0.103116825 0.14167157 0.053755403
v 0.10288699 0.14167152 0.053755403
v -9.512901E-05 0.010117288 0.05375541
v 0.103883 0.14062859 0.05375539
v -0.10403159 0.07453865 0.05375541
v -9.512901E-05 0.010117288 0.05375541
v -0.10403159 0.14062859 0.05375539
v 0.051216338 -0.12140177 0.057348967
v 0.10288699 -0.12140176 0.057348967
v 0.10288699 -0.12140172 0.053755436
v 0.051216338 -0.12140176 0.053755436
v -0.051450327 -0.12140177 0.057348985
v -0.051450327 -0.12140176 0.053755436
v -0.103116825 -0.12140176 0.057348985
v -0.103116825 -0.12140176 0.053755436
v 0.10288699 -0.12140172 0.053755436
v 0.103883 -0.12006161 0.057348948
v 0.103883 -0.120061636 0.053755425
v 0.103883 -0.054706953 0.057348978
v 0.103883 -0.054706972 0.05375543
v 0.10288699 -0.12006161 0.05834893
v 0.10288699 -0.12140176 0.057348967
v 0.103883 0.07453865 0.057349
v 0.103883 0.07453861 0.05375541
v 0.051216338 -0.12006161 0.05834895
v 0.051216338 -0.12140177 0.057348967
v 0.10288699 -0.054652974 0.058348965
v 0.103883 0.14062859 0.05734899
v 0.103883 0.14062859 0.05375539
v 0.051216338 -0.054652967 0.058348972
v 0.10288699 0.07470058 0.058349002
v -0.051450327 -0.120061636 0.05834897
v -0.051450327 -0.12140177 0.057348985
v -0.103116825 -0.12140176 0.057348985
v 0.10288699 0.14188144 0.057349008
v 0.10288699 0.14167152 0.053755403
v 0.10288699 0.14062859 0.058349013
v -0.051450327 -0.054652974 0.058348984
v 0.051216338 0.0747006 0.058349002
v 0.051216338 0.14062859 0.058349013
v 0.051216338 0.14188145 0.057349008
v -0.051450327 0.14188147 0.057349026
v -0.051450327 0.074700624 0.058349002
v -0.051450327 0.14062859 0.058349002
v -0.103116825 0.14188147 0.057349026
v -0.103116825 -0.054652967 0.058348995
v -0.103116825 0.07470064 0.058349002
v -0.103116825 -0.120061636 0.05834897
v -0.10403159 -0.054706965 0.05734899
v -0.10403159 -0.120061636 0.057348967
v -0.10403159 -0.12006165 0.053755425
v -0.103116825 -0.12140176 0.053755436
v -0.10403159 -0.054706972 0.05375543
v -0.10403159 0.074538656 0.057349
v -0.10403159 0.07453865 0.05375541
v -0.10403159 0.14062859 0.05734899
v -0.10403159 0.14062859 0.05375539
v -0.103116825 0.14062859 0.058348995
v -0.103116825 0.14167157 0.053755403
v 0.10288699 0.14188144 0.057349008
v 0.051216338 0.14167152 0.053755403
v 0.10288699 0.14167152 0.053755403
v 0.051216338 0.14188145 0.057349008
v -0.051450327 0.14167157 0.053755403
v -0.051450327 0.14188147 0.057349026
v -0.103116825 0.14188147 0.057349026
v -0.103116825 0.14167157 0.053755403
v 0.10288699 -0.12140172 0.053755436
v -9.512901E-05 0.010117288 0.05375541
v 0.051216338 -0.12140176 0.053755436
v -0.051450327 -0.12140176 0.053755436
v -0.103116825 -0.12140176 0.053755436
v 0.103883 -0.054706972 0.05375543
v -9.512901E-05 0.010117288 0.05375541
v 0.103883 -0.120061636 0.053755425
v 0.103883 0.07453861 0.05375541
v 0.103883 0.14062859 0.05375539
v -0.103116825 -0.12140176 0.053755436
v -9.512901E-05 0.010117288 0.05375541
v -0.10403159 -0.12006165 0.053755425
v -0.10403159 -0.054706972 0.05375543
v -0.10403159 0.07453865 0.05375541
v -0.103116825 0.14167157 0.053755403
v -9.512901E-05 0.010117288 0.05375541
v -0.051450327 0.14167157 0.053755403
v 0.051216338 0.14167152 0.053755403
v 0.10288699 0.14167152 0.053755403
v 0.100093454 0.1364739 0.051858485
v 0.099509045 0.13689034 0.051858485
v -0.099212445 0.1368904 0.051858496
v -0.09979457 0.13647394 0.051858496
v 0.00073266984 0.010822949 0.051858515
v -0.09979457 -0.11650608 0.051858548
v 0.100093454 -0.11650608 0.05185853
v -0.099888675 -0.11717302 0.051858548
v -0.099888675 -0.11717302 0.054578654
v 0.10018871 -0.11717302 0.054578636
v 0.10018871 -0.117173 0.05185853
v 0.1007386 -0.116506115 0.05185853
v 0.1007386 -0.116506115 0.054578636
v 0.1007386 0.13647385 0.054578584
v 0.1007386 0.13647388 0.051858485
v -0.10040492 -0.116506115 0.051858548
v -0.10040492 -0.11650614 0.054578654
v -0.099888675 -0.11717302 0.054578654
v -0.099888675 -0.11717302 0.051858548
v 0.10018871 -0.117173 0.05185853
v 0.10018871 -0.11717302 0.054578636
v 0.1007386 -0.116506115 0.054578636
v 0.1007386 -0.116506115 0.05185853
v -0.099212445 0.13763778 0.051858496
v -0.099212445 0.13763775 0.054578602
v -0.10040492 0.13647394 0.054578602
v -0.10040492 0.13647395 0.051858496
v 0.1007386 0.13647388 0.051858485
v 0.1007386 0.13647385 0.054578584
v 0.09950908 0.1376377 0.054578584
v 0.09950908 0.13763775 0.051858485
v 0.09950908 0.13763775 0.051858485
v 0.09950908 0.1376377 0.054578584
v -0.099212445 0.13763775 0.054578602
v -0.099212445 0.13763778 0.051858496
v -0.10040492 0.13647395 0.051858496
v -0.10340892 0.13647388 0.050459627
v -0.10340892 -0.11650567 0.05045968
v -0.10040492 -0.116506115 0.051858548
v -0.10040492 -0.116506115 0.051858548
v -0.10340892 -0.11650567 0.05045968
v -0.10335696 -0.11650595 0.053252038
v -0.10040492 -0.11650614 0.054578654
v -0.10040492 0.13647395 0.051858496
v -0.10040492 0.13647394 0.054578602
v -0.10335696 0.13647385 0.053251985
v -0.10340892 0.13647388 0.050459627
v -0.10340892 -0.11650567 0.05045968
v -0.10340892 0.13647388 0.050459627
v -0.09930506 0.13647388 0.055056863
v -0.09930506 -0.11650571 0.055056915
v -0.10340892 -0.11650567 0.05045968
v -0.09930506 -0.11650571 0.055056915
v -0.10160739 -0.11650587 0.053560715
v -0.10335696 -0.11650595 0.053252038
v -0.10340892 0.13647388 0.050459627
v -0.10335696 0.13647385 0.053251985
v -0.10160739 0.13647385 0.05356066
v -0.09930506 0.13647388 0.055056863
v -0.09875823 -0.11650598 0.046764094
v -0.09930506 -0.11650571 0.055056915
v -0.09930506 0.13647388 0.055056863
v -0.09875823 0.1364739 0.046764042
v -0.10129504 -0.11650602 0.046764087
v -0.10160739 -0.11650587 0.053560715
v -0.09930506 -0.11650571 0.055056915
v -0.09875823 -0.11650598 0.046764094
v -0.09930506 0.13647388 0.055056863
v -0.10160739 0.13647385 0.05356066
v -0.10129504 0.13647385 0.046764035
v -0.09875823 0.1364739 0.046764042
v -0.10040492 -0.116506115 0.051858548
v -0.099888675 -0.11717302 0.051858548
v -0.09979457 -0.11650608 0.051858548
v 0.10018871 -0.117173 0.05185853
v 0.100093454 -0.11650608 0.05185853
v 0.1007386 -0.116506115 0.05185853
v 0.100093454 0.1364739 0.051858485
v 0.1007386 0.13647388 0.051858485
v 0.099509045 0.13689034 0.051858485
v 0.09950908 0.13763775 0.051858485
v -0.099212445 0.1368904 0.051858496
v -0.099212445 0.13763778 0.051858496
v -0.09979457 0.13647394 0.051858496
v -0.10040492 0.13647395 0.051858496
vt 0.8656505 0.23027796
vt 0.86373866 0.22817717
vt 0.86373866 0.22817717
vt 0.8656505 0.23027794
vt 0.7931883 0.41566417
vt 0.86373866 0.22817717
vt 0.66689813 0.4923643
vt 0.7931883 0.41566417
vt 0.66777253 0.49800512
vt 0.86469465 0.4980051
vt 0.7931883 0.41566417
vt 0.8656505 0.49236426
vt 0.66689813 0.4268427
vt 0.7931883 0.41566417
vt 0.66689813 0.4923643
vt 0.86096466 0.41731593
vt 0.8647064 0.41731593
vt 0.8647064 0.41731593
vt 0.86096466 0.41731593
vt 0.85852975 0.41731593
vt 0.85852975 0.41731593
vt 0.8541022 0.41731593
vt 0.8541022 0.41731593
vt 0.86373866 0.22817717
vt 0.8656505 0.23027796
vt 0.8656505 0.23027794
vt 0.8656505 0.29579958
vt 0.8656505 0.29579955
vt 0.86469465 0.23027796
vt 0.86373866 0.22817717
vt 0.8656505 0.4268427
vt 0.8656505 0.42684266
vt 0.8154641 0.23027796
vt 0.81498617 0.22817717
vt 0.86469465 0.29585433
vt 0.8656505 0.4923643
vt 0.8656505 0.49236426
vt 0.8154641 0.29585433
vt 0.86469465 0.4270069
vt 0.717003 0.23027796
vt 0.71748096 0.22817717
vt 0.66777253 0.22817717
vt 0.8646987 0.4951221
vt 0.86469465 0.4980051
vt 0.86469465 0.4925832
vt 0.717003 0.29585433
vt 0.8154641 0.4270069
vt 0.8154641 0.4925832
vt 0.81498617 0.4951221
vt 0.71748096 0.4951221
vt 0.717003 0.42700696
vt 0.717003 0.4925833
vt 0.66783863 0.4951221
vt 0.66777253 0.29585433
vt 0.66777253 0.42700696
vt 0.66777253 0.23027796
vt 0.66689813 0.29579958
vt 0.66689813 0.23027796
vt 0.66689813 0.23027794
vt 0.66777253 0.22817717
vt 0.66689813 0.29579955
vt 0.66689813 0.4268427
vt 0.66689813 0.4268427
vt 0.66689813 0.4923643
vt 0.66689813 0.4923643
vt 0.66777253 0.4925833
vt 0.66777253 0.49800512
vt 0.8646987 0.4951221
vt 0.8154641 0.4980051
vt 0.86469465 0.4980051
vt 0.81498617 0.4951221
vt 0.717003 0.49800512
vt 0.71748096 0.4951221
vt 0.66783863 0.4951221
vt 0.66777253 0.49800512
vt 0.8647064 0.41731593
vt 0.8595758 0.41731593
vt 0.86096466 0.41731593
vt 0.85852975 0.41731593
vt 0.8541022 0.41731593
vt 0.8656505 0.29579955
vt 0.7931883 0.41566417
vt 0.8656505 0.23027794
vt 0.8656505 0.42684266
vt 0.8656505 0.49236426
vt 0.66777253 0.22817717
vt 0.6671896 0.25141823
vt 0.66689813 0.23027794
vt 0.66689813 0.29579955
vt 0.66689813 0.4268427
vt 0.66777253 0.49800512
vt 0.7931883 0.41566417
vt 0.717003 0.49800512
vt 0.8154641 0.4980051
vt 0.86469465 0.4980051
vt 0.33627713 0.5615418
vt 0.33627713 0.5615418
vt 0.42866653 0.56149775
vt 0.42866653 0.56149775
vt 0.37684822 0.51952064
vt 0.42851073 0.4600423
vt 0.33526665 0.48427826
vt 0.43415496 0.5368463
vt 0.43415496 0.5368463
vt 0.43332934 0.5368463
vt 0.43332934 0.5368463
vt 0.43332508 0.53798616
vt 0.43332508 0.53798616
vt 0.43332508 0.5627113
vt 0.43332508 0.5627113
vt 0.434163 0.5371019
vt 0.434163 0.5371019
vt 0.43415496 0.5368463
vt 0.43415496 0.5368463
vt 0.43332934 0.5368463
vt 0.43332934 0.5368463
vt 0.43332508 0.53798616
vt 0.43332508 0.53798616
vt 0.43415898 0.56293166
vt 0.43415898 0.56293166
vt 0.434163 0.56271136
vt 0.434163 0.56271136
vt 0.43332508 0.5627113
vt 0.43332508 0.5627113
vt 0.43332934 0.5629316
vt 0.43332934 0.5629316
vt 0.43332934 0.5629316
vt 0.43332934 0.5629316
vt 0.43415898 0.56293166
vt 0.43415898 0.56293166
vt 0.434163 0.56271136
vt 0.434163 0.56271136
vt 0.434163 0.5371019
vt 0.434163 0.5371019
vt 0.434163 0.5371019
vt 0.434163 0.5371019
vt 0.434163 0.5371019
vt 0.434163 0.5371019
vt 0.434163 0.56271136
vt 0.434163 0.56271136
vt 0.434163 0.56271136
vt 0.434163 0.56271136
vt 0.434163 0.5371019
vt 0.434163 0.56271136
vt 0.434163 0.56271136
vt 0.434163 0.5371019
vt 0.434163 0.5371019
vt 0.434163 0.5371019
vt 0.434163 0.5371019
vt 0.434163 0.5371019
vt 0.434163 0.56271136
vt 0.434163 0.56271136
vt 0.434163 0.56271136
vt 0.434163 0.56271136
vt 0.434163 0.5371019
vt 0.434163 0.5371019
vt 0.434163 0.56271136
vt 0.434163 0.56271136
vt 0.434163 0.5371019
vt 0.434163 0.5371019
vt 0.434163 0.5371019
vt 0.434163 0.5371019
vt 0.434163 0.56271136
vt 0.434163 0.56271136
vt 0.434163 0.56271136
vt 0.434163 0.56271136
vt 0.434163 0.5371019
vt 0.43415496 0.5368463
vt 0.43415898 0.5371019
vt 0.43332934 0.5368463
vt 0.43332934 0.53798616
vt 0.43332508 0.53798616
vt 0.43332934 0.5627113
vt 0.43332508 0.5627113
vt 0.43333337 0.56282216
vt 0.43332934 0.5629316
vt 0.43415496 0.5628222
vt 0.43415898 0.56293166
vt 0.43415898 0.56271136
vt 0.434163 0.56271136
vn 0.80260783 -0.5965071 -6.2533118E-06
vn 0.18736723 -0.98228997 -8.059479E-06
vn 0.44915932 -0.8934517 -7.880547E-06
vn -4.6152013E-06 -3.819469E-06 -1
vn -4.6152013E-06 -3.819469E-06 -1
vn -4.6152013E-06 -3.8194685E-06 -1
vn 5.4640277E-06 4.218279E-06 -1
vn 5.4640277E-06 4.2182787E-06 -1
vn 5.4640277E-06 4.2182787E-06 -1
vn -5.2201344E-06 4.025714E-06 -1
vn -5.2201344E-06 4.025714E-06 -1
vn -5.2201344E-06 4.025714E-06 -1
vn -1.8119445E-07 -2.7745753E-07 -1
vn -1.8119445E-07 -2.7745753E-07 -1
vn -1.8119445E-07 -2.7745753E-07 -1
vn 2.7685158E-07 -1 -6.501496E-06
vn 0.44915932 -0.8934517 -7.880547E-06
vn 0.18736723 -0.98228997 -8.059479E-06
vn 2.7685158E-07 -1 -6.501496E-06
vn -0 -1 -3.8476246E-06
vn -0 -1 -3.847624E-06
vn -1.8458275E-07 -1 -2.5206928E-06
vn -1.8458275E-07 -1 -2.5206928E-06
vn 0.8025956 -0.5965235 3.2458981E-06
vn 0.88387924 -0.1861801 0.42906237
vn 0.9493669 -0.31416944 1.7095086E-06
vn 0.92426074 -1.3194193E-07 0.38176188
vn 1 0 0
vn 0.3505073 -0.28207532 0.89307237
vn 0.23608705 -0.58112603 0.7788167
vn 0.92426205 0 0.38175866
vn 1 0 0
vn 2.3140271E-07 -0.31506264 0.9490709
vn 2.3114157E-07 -0.59803337 0.80147123
vn 0.38360482 -3.058773E-07 0.9234973
vn 0.88753515 0.30701402 0.3435457
vn 0.93679523 0.34972906 -0.010213952
vn 1.3872905E-07 -2.6986103E-07 1
vn 0.38360822 -1.6006346E-07 0.92349595
vn -0 -0.31506538 0.9490699
vn -0 -0.59803796 0.8014678
vn -0.54859805 -0.65217406 0.5231724
vn 0.49658114 0.70274603 0.50946546
vn 0.7551696 0.65525013 -0.019136798
vn 0.34868842 0.29563007 0.88939273
vn -0 -1.965473E-07 1
vn -0 -1.7772955E-07 1
vn -0 0.33048004 0.94381297
vn 1.0477109E-07 0.62382287 0.7815658
vn -0 0.62381214 0.78157437
vn -0 0 1
vn -0 0.33047363 0.94381523
vn -0.5183548 0.6890618 0.5064605
vn -0.40313756 -1.6867813E-07 0.91513944
vn -0.40313753 0 0.91513944
vn -0.36797562 -0.2799969 0.8866768
vn -0.9321625 0 0.36203992
vn -0.9042918 -0.26658994 0.33344588
vn -0.95549077 -0.29502097 8.2287994E-07
vn -0.82592565 -0.563779 1.5725067E-06
vn -1 0 0
vn -0.9321625 0 0.36203995
vn -1 0 0
vn -0.89844507 0.291621 0.32825842
vn -0.9439089 0.33006543 -0.009639644
vn -0.36607796 0.29346067 0.8831013
vn -0.78192693 0.6231046 -0.01819793
vn 1.8426117E-07 0.99829835 -0.05831371
vn 2.2852521E-07 0.99829835 -0.058313638
vn 1.8426117E-07 0.99829835 -0.05831371
vn 2.2852522E-07 0.99829835 -0.058313638
vn 1.3639463E-07 0.99829847 -0.05831215
vn 1.3639463E-07 0.99829847 -0.058312155
vn -0 0.99829847 -0.058310755
vn -0 0.99829847 -0.058310755
vn -0 -2.0567029E-07 -1
vn -0 -2.0567029E-07 -1
vn -0 -2.0567029E-07 -1
vn -0 -2.0567032E-07 -1
vn -0 -2.0567032E-07 -1
vn 1.8269314E-07 0 -1
vn 1.8269314E-07 0 -1
vn 1.8269314E-07 0 -1
vn 1.8112178E-07 -2.7745745E-07 -1
vn 1.8112178E-07 -2.7745745E-07 -1
vn 4.8050847E-06 -3.9695965E-06 -1
vn -1.827663E-07 0 -1
vn -1.8276631E-07 0 -1
vn -1.8276631E-07 0 -1
vn -0 -1.3315805E-07 -1
vn -0 0 -1
vn -0 0 -1
vn -0 0 -1
vn -0 0 -1
vn -0 0 -1
vn -0 -1.5208755E-07 -1
vn -0 -1.3321053E-07 -1
vn -0 -1.332105E-07 -1
vn -0 -1.6556059E-07 -1
vn -0 -1.895351E-07 -1
vn -0 -1.7074456E-07 -1
vn -0 -1.5734325E-07 -1
vn -0 -1 -3.3728586E-06
vn -0 -1 -3.3728588E-06
vn -0 -1 -3.3728586E-06
vn -0 -1 -3.3728588E-06
vn 1 0 0
vn 1 0 0
vn 1 0 0
vn 1 0 0
vn -0.7907597 -0.61212665 -2.0650923E-06
vn -0.7907597 -0.61212665 -2.0650923E-06
vn -0.7907597 -0.61212665 -2.0650923E-06
vn -0.7907597 -0.61212665 -2.0650923E-06
vn 0.7715434 -0.63617665 -2.1458882E-06
vn 0.7715434 -0.63617665 -2.145888E-06
vn 0.7715435 -0.6361767 -2.1458884E-06
vn 0.7715435 -0.6361767 -2.1458884E-06
vn -0.6984551 0.7156539 7.435519E-06
vn -0.69845504 0.7156539 7.435519E-06
vn -0.6984551 0.7156539 7.43552E-06
vn -0.69845504 0.7156539 7.43552E-06
vn 0.687452 0.7262297 1.0095924E-05
vn 0.687452 0.72622967 1.0095924E-05
vn 0.687452 0.7262297 1.0095924E-05
vn 0.687452 0.72622967 1.0095924E-05
vn 1.9196297E-07 1 1.3890934E-05
vn 1.9196297E-07 1 1.3890934E-05
vn 1.9196297E-07 1 1.3890934E-05
vn 1.9196297E-07 1 1.3890934E-05
vn 0.42214262 -1.8892436E-07 -0.9065294
vn 0.42214265 -1.8892433E-07 -0.9065294
vn 0.42214265 -1.8892436E-07 -0.9065294
vn 0.42214257 -1.8892433E-07 -0.9065294
vn -8.069325E-05 -1 -5.446731E-05
vn -8.069326E-05 -1 -5.4467317E-05
vn -8.0693244E-05 -1 -5.446731E-05
vn -8.069325E-05 -1 -5.446731E-05
vn -3.212661E-05 1 7.0897695E-06
vn -3.2126612E-05 1 7.08977E-06
vn -3.2126612E-05 1 7.0897695E-06
vn -3.212661E-05 1 7.0897695E-06
vn -0.746004 1.3885638E-07 0.6659415
vn -0.746004 1.3885638E-07 0.6659415
vn -0.746004 1.388564E-07 0.6659415
vn -0.746004 1.3885641E-07 0.6659416
vn -0.0001181947 1 0.0001331136
vn -0.00011819471 1 0.00013311362
vn -0.000118194715 1 0.00013311362
vn -0.0001181947 1 0.00013311362
vn 1.5070469E-05 -1 -1.7847979E-05
vn 1.5070469E-05 -1 -1.7847979E-05
vn 1.5070469E-05 -1 -1.7847979E-05
vn 1.5070469E-05 -1 -1.7847979E-05
vn 0.99783295 0 0.065798126
vn 0.99783295 0 0.065798126
vn 0.99783295 0 0.06579812
vn 0.99783295 0 0.065798126
vn 3.0667856E-05 -1 2.8423963E-05
vn 3.0667856E-05 -1 2.8423963E-05
vn 3.0667856E-05 -1 2.8423963E-05
vn 3.0667856E-05 -1 2.8423963E-05
vn -2.0134717E-05 1 1.2484396E-06
vn -2.0134717E-05 1 1.2484396E-06
vn -2.0134717E-05 1 1.2484397E-06
vn -2.0134717E-05 1 1.2484395E-06
vn -0 -1.8085555E-07 -1
vn -0 -1.3321056E-07 -1
vn -0 -1.7074456E-07 -1
vn -0 -1.3320978E-07 -1
vn -0 -1.5734325E-07 -1
vn -0 -1.5730642E-07 -1
vn -0 -1.5208755E-07 -1
vn -0 -1.5858623E-07 -1
vn -0 -1.3321053E-07 -1
vn -0 -1.3315724E-07 -1
vn -0 -1.332105E-07 -1
vn -0 -1.3315724E-07 -1
vn -0 -1.6556059E-07 -1
vn -0 -1.8368124E-07 -1
g gatcha_3_cover_0
f 3/3/3 2/2/2 1/1/1
f 6/6/6 5/5/5 4/4/4
f 9/9/9 8/8/8 7/7/7
f 12/12/12 11/11/11 10/10/10
f 15/15/15 14/14/14 13/13/13
f 18/18/18 17/17/17 16/16/16
f 19/19/19 18/18/18 16/16/16
f 19/19/19 16/16/16 20/20/20
f 21/21/21 19/19/19 20/20/20
f 21/21/21 20/20/20 22/22/22
f 23/23/23 21/21/21 22/22/22
f 26/26/26 25/25/25 24/24/24
f 27/27/27 25/25/25 26/26/26
f 28/28/28 27/27/27 26/26/26
f 25/25/25 27/27/27 29/29/29
f 30/30/30 25/25/25 29/29/29
f 27/27/27 28/28/28 31/31/31
f 28/28/28 32/32/32 31/31/31
f 29/29/29 33/33/33 30/30/30
f 33/33/33 34/34/34 30/30/30
f 27/27/27 35/35/35 29/29/29
f 27/27/27 31/31/31 35/35/35
f 31/31/31 32/32/32 36/36/36
f 32/32/32 37/37/37 36/36/36
f 35/35/35 38/38/38 29/29/29
f 38/38/38 33/33/33 29/29/29
f 31/31/31 39/39/39 35/35/35
f 39/39/39 31/31/31 36/36/36
f 38/38/38 35/35/35 39/39/39
f 33/33/33 40/40/40 34/34/34
f 40/40/40 41/41/41 34/34/34
f 41/41/41 40/40/40 42/42/42
f 43/43/43 36/36/36 37/37/37
f 44/44/44 43/43/43 37/37/37
f 45/45/45 39/39/39 36/36/36
f 36/36/36 43/43/43 45/45/45
f 38/38/38 46/46/46 33/33/33
f 46/46/46 40/40/40 33/33/33
f 47/47/47 38/38/38 39/39/39
f 47/47/47 39/39/39 45/45/45
f 46/46/46 38/38/38 47/47/47
f 45/45/45 43/43/43 48/48/48
f 48/48/48 47/47/47 45/45/45
f 43/43/43 49/49/49 48/48/48
f 49/49/49 50/50/50 48/48/48
f 51/51/51 46/46/46 47/47/47
f 51/51/51 47/47/47 48/48/48
f 50/50/50 52/52/52 48/48/48
f 52/52/52 51/51/51 48/48/48
f 50/50/50 53/53/53 52/52/52
f 46/46/46 54/54/54 40/40/40
f 54/54/54 46/46/46 51/51/51
f 55/55/55 51/51/51 52/52/52
f 55/55/55 54/54/54 51/51/51
f 54/54/54 56/56/56 40/40/40
f 40/40/40 56/56/56 42/42/42
f 54/54/54 57/57/57 56/56/56
f 57/57/57 54/54/54 55/55/55
f 56/56/56 58/58/58 42/42/42
f 57/57/57 58/58/58 56/56/56
f 58/58/58 59/59/59 42/42/42
f 59/59/59 60/60/60 42/42/42
f 61/61/61 59/59/59 58/58/58
f 57/57/57 61/61/61 58/58/58
f 61/61/61 57/57/57 62/62/62
f 62/62/62 57/57/57 55/55/55
f 63/63/63 61/61/61 62/62/62
f 63/63/63 62/62/62 64/64/64
f 64/64/64 62/62/62 55/55/55
f 65/65/65 63/63/63 64/64/64
f 66/66/66 55/55/55 52/52/52
f 66/66/66 64/64/64 55/55/55
f 53/53/53 66/66/66 52/52/52
f 66/66/66 53/53/53 64/64/64
f 64/64/64 53/53/53 65/65/65
f 53/53/53 67/67/67 65/65/65
f 70/70/70 69/69/69 68/68/68
f 69/69/69 71/71/71 68/68/68
f 69/69/69 72/72/72 71/71/71
f 72/72/72 73/73/73 71/71/71
f 73/73/73 72/72/72 74/74/74
f 72/72/72 75/75/75 74/74/74
f 78/78/78 77/77/77 76/76/76
f 79/79/79 77/77/77 78/78/78
f 80/80/80 77/77/77 79/79/79
f 83/83/83 82/82/82 81/81/81
f 81/81/81 82/82/82 84/84/84
f 84/84/84 82/82/82 85/85/85
f 88/88/88 87/87/87 86/86/86
f 89/89/89 87/87/87 88/88/88
f 90/90/90 87/87/87 89/89/89
f 93/93/93 92/92/92 91/91/91
f 94/94/94 92/92/92 93/93/93
f 95/95/95 92/92/92 94/94/94
f 98/98/98 97/97/97 96/96/96
f 99/99/99 98/98/98 96/96/96
f 96/96/96 100/100/100 99/99/99
f 99/99/99 100/100/100 101/101/101
f 102/102/102 100/100/100 96/96/96
f 100/100/100 102/102/102 101/101/101
f 105/105/105 104/104/104 103/103/103
f 106/106/106 105/105/105 103/103/103
f 109/109/109 108/108/108 107/107/107
f 110/110/110 109/109/109 107/107/107
f 113/113/113 112/112/112 111/111/111
f 114/114/114 113/113/113 111/111/111
f 117/117/117 116/116/116 115/115/115
f 118/118/118 117/117/117 115/115/115
f 121/121/121 120/120/120 119/119/119
f 122/122/122 121/121/121 119/119/119
f 125/125/125 124/124/124 123/123/123
f 126/126/126 125/125/125 123/123/123
f 129/129/129 128/128/128 127/127/127
f 130/130/130 129/129/129 127/127/127
f 133/133/133 132/132/132 131/131/131
f 134/134/134 133/133/133 131/131/131
f 137/137/137 136/136/136 135/135/135
f 138/138/138 137/137/137 135/135/135
f 141/141/141 140/140/140 139/139/139
f 142/142/142 141/141/141 139/139/139
f 145/145/145 144/144/144 143/143/143
f 146/146/146 145/145/145 143/143/143
f 149/149/149 148/148/148 147/147/147
f 150/150/150 149/149/149 147/147/147
f 153/153/153 152/152/152 151/151/151
f 154/154/154 153/153/153 151/151/151
f 157/157/157 156/156/156 155/155/155
f 158/158/158 157/157/157 155/155/155
f 161/161/161 160/160/160 159/159/159
f 162/162/162 161/161/161 159/159/159
f 165/165/165 164/164/164 163/163/163
f 166/166/166 165/165/165 163/163/163
f 169/169/169 168/168/168 167/167/167
f 168/168/168 169/169/169 170/170/170
f 169/169/169 171/171/171 170/170/170
f 171/171/171 172/172/172 170/170/170
f 171/171/171 173/173/173 172/172/172
f 173/173/173 174/174/174 172/172/172
f 173/173/173 175/175/175 174/174/174
f 175/175/175 176/176/176 174/174/174
f 175/175/175 177/177/177 176/176/176
f 177/177/177 178/178/178 176/176/176
f 179/179/179 169/169/169 167/167/167
f 178/178/178 177/177/177 179/179/179
f 180/180/180 179/179/179 167/167/167
f 180/180/180 178/178/178 179/179/179
