g gatcha_spine_mask_a
v 0.05505079 0.10573476 0.054082207
v -0.011745395 0.10573476 0.054082207
v -0.01177854 0.035365906 0.054582458
v 0.057567596 0.10536015 0.054092392
v 0.059364986 0.10423638 0.05412293
v -0.07861791 -0.051813688 0.054990638
v -0.01169095 -0.051813714 0.054990638
v -0.01177854 0.035365906 0.054582458
v -0.08113452 -0.051439103 0.054995008
v -0.08293218 -0.05031535 0.055008072
v -0.08401065 -0.04844239 0.05502989
v -0.08293218 -0.05031535 0.055008072
v -0.01177854 0.035365906 0.054582458
v -0.084370255 -0.045820285 0.05506041
v -0.084370255 0.06608403 0.054918565
v -0.084370255 0.097107135 0.05431658
v -0.084370114 0.09974126 0.054245036
v -0.08401067 0.10236344 0.054173797
v -0.0829321 0.10423634 0.05412293
v 0.059364986 -0.05031533 0.05500809
v 0.06044359 -0.048442412 0.05502989
v 0.060803067 -0.045820285 0.05506041
v 0.060803067 0.06608399 0.054918565
v 0.060803067 0.09710717 0.05431658
v 0.06080309 0.09974133 0.054245036
v 0.06044363 0.10236344 0.054173797
v 0.059364986 0.10423638 0.05412293
v 0.057567578 -0.051439114 0.054994985
v 0.059364986 -0.05031533 0.05500809
v -0.01177854 0.035365906 0.054582458
v 0.055050887 -0.051813707 0.054990638
v -0.01169095 -0.051813714 0.054990638
v -0.0811346 0.10536011 0.054092392
v -0.0829321 0.10423634 0.05412293
v -0.01177854 0.035365906 0.054582458
v -0.07861808 0.10573476 0.054082207
v -0.011745395 0.10573476 0.054082207
vt 0.3544066 0.15898333
vt 0.3544066 0.18526773
vt 0.35440663 0.1613953
vt 0.3544066 0.15725164
vt 0.3544066 0.15601471
vt 0.3544066 0.050977066
vt 0.3544066 0.004987344
vt 0.35440663 0.04575006
vt 0.3544066 0.052708767
vt 0.3544066 0.053945743
vt 0.3544066 0.055182688
vt 0.3544066 0.053945743
vt 0.3544066 0.11400072
vt 0.3544066 0.056914374
vt 0.3544066 0.13081811
vt 0.3544066 0.1513064
vt 0.3544066 0.15304604
vt 0.3544066 0.15477777
vt 0.3544066 0.15601467
vt 0.3544066 0.05394575
vt 0.3544066 0.055182695
vt 0.3544066 0.056914404
vt 0.3544066 0.1308181
vt 0.3544066 0.15130642
vt 0.3544066 0.15304604
vt 0.3544066 0.15477774
vt 0.3544066 0.15601465
vt 0.3544066 0.05270876
vt 0.3544066 0.053945675
vt 0.35440663 0.04575006
vt 0.3544066 0.050977066
vt 0.3544066 0.004987344
vt 0.3544066 0.15725158
vt 0.3544066 0.15601467
vt 0.35440663 0.1613953
vt 0.3544066 0.15898333
vt 0.3544066 0.18526773
vn -0 -0.0071087847 -0.9999747
vn -0 -0.0071087843 -0.9999747
vn -0 -0.0071087847 -0.9999747
vn 0.0026185228 -0.009595427 -0.9999505
vn 0.007786835 -0.01471526 -0.99986136
vn -0 -0.0046820543 -0.99998903
vn -0 -0.004682054 -0.99998903
vn -0 -0.004682054 -0.99998903
vn -0.0021833142 -0.0030081584 -0.9999931
vn -0.006828173 0.0007030957 -0.9999765
vn -0.011815765 0.0048453095 -0.99991846
vn -0.011815764 0.0048453095 -0.99991846
vn -0.0051664384 -0.0012675414 -0.99998593
vn -0.0051664384 -0.0012675414 -0.99998593
vn -0.0051664384 -0.0012675414 -0.99998593
vn -0.019426698 -0.027144633 -0.99944276
vn -0.019426698 -0.027144631 -0.99944276
vn -0.017329399 -0.024780177 -0.9995427
vn -0.012729779 -0.019822283 -0.9997224
vn 0.011809145 0.004838196 -0.9999186
vn 0.016993554 0.009306447 -0.9998123
vn 0.0051671583 -0.0012675421 -0.99998593
vn 0.0128395995 -0.019399028 -0.99972934
vn 0.019430099 -0.027145432 -0.99944264
vn 0.019430099 -0.027145432 -0.99944264
vn 0.012730367 -0.019821022 -0.9997224
vn 0.012730366 -0.01982102 -0.9997224
vn 0.006843201 0.00071454665 -0.9999764
vn 0.006843201 0.0007145467 -0.9999764
vn 0.0068432004 0.0007145467 -0.9999764
vn 0.0021764957 -0.003013634 -0.9999931
vn -0 -0.0046820543 -0.99998903
vn -0.007786123 -0.014715667 -0.99986136
vn -0.007786124 -0.014715667 -0.99986136
vn -0.007786123 -0.014715667 -0.99986136
vn -0.0026185988 -0.0095958775 -0.9999505
vn -0 -0.007108785 -0.9999747
g gatcha_spine_mask_a_0
f 3/3/3 2/2/2 1/1/1
f 3/3/3 1/1/1 4/4/4
f 3/3/3 4/4/4 5/5/5
f 8/8/8 7/7/7 6/6/6
f 8/8/8 6/6/6 9/9/9
f 8/8/8 9/9/9 10/10/10
f 13/13/13 12/12/12 11/11/11
f 13/13/13 11/11/11 14/14/14
f 13/13/13 14/14/14 15/15/15
f 13/13/13 15/15/15 16/16/16
f 13/13/13 16/16/16 17/17/17
f 13/13/13 17/17/17 18/18/18
f 13/13/13 18/18/18 19/19/19
f 13/13/13 21/21/21 20/20/20
f 13/13/13 22/22/22 21/21/21
f 13/13/13 23/23/23 22/22/22
f 13/13/13 24/24/24 23/23/23
f 13/13/13 25/25/25 24/24/24
f 13/13/13 26/26/26 25/25/25
f 13/13/13 27/27/27 26/26/26
f 30/30/30 29/29/29 28/28/28
f 30/30/30 28/28/28 31/31/31
f 30/30/30 31/31/31 32/32/32
f 35/35/35 34/34/34 33/33/33
f 35/35/35 33/33/33 36/36/36
f 35/35/35 36/36/36 37/37/37
