g gatcha_equip_3_cover
v 0.10396048 -0.119283006 0.057419736
v 0.09548413 -0.1214017 0.05104988
v 0.10265051 -0.11970007 0.059037685
v 0.10282558 -0.11928304 -0.059998307
v 0.10282558 0.13905202 -0.059998326
v -0.10245404 0.139052 -0.059998315
v -0.10245404 -0.11928304 -0.0599983
v 0.10396048 -0.119283006 0.057419736
v 0.10396048 0.13905194 0.0574197
v 0.10396048 0.139052 -0.058647793
v 0.10396048 -0.119283035 -0.058647774
v 0.09548413 -0.1214017 0.05104988
v 0.09548413 -0.1214017 -0.052629307
v -0.1036985 -0.11928303 0.057419736
v -0.1036985 0.139052 -0.058647793
v -0.1036985 0.13905194 0.0574197
v -0.1036985 -0.11928305 -0.058647778
v -0.09547365 -0.12140168 -0.05262931
v -0.09547365 -0.12140172 0.05104988
v 0.09548413 -0.1214017 -0.052629307
v 0.10396048 -0.119283035 -0.058647774
v 0.10282558 -0.11928304 -0.059998307
v 0.10282558 0.13905202 -0.059998326
v 0.10396048 0.139052 -0.058647793
v -0.10245404 0.139052 -0.059998315
v -0.1036985 0.139052 -0.058647793
v -0.1036985 -0.11928305 -0.058647778
v -0.10245404 -0.11928304 -0.0599983
v -0.09547365 -0.12140168 -0.05262931
v -0.1036985 -0.11928303 0.057419736
v -0.1036985 0.13905194 0.0574197
v -0.10214157 0.1394124 0.059037644
v -0.10214157 -0.11970007 0.059037678
v -0.09547365 -0.12140172 0.05104988
v 0.09548413 -0.1214017 0.05104988
v 0.10265051 -0.11970007 0.059037685
v -1.784563E-06 0.010253749 0.059037667
v 0.10265051 0.13941242 0.059037644
v 0.10396048 -0.119283006 0.057419736
v 0.10396048 0.13905194 0.0574197
v 0.09548413 -0.1214017 -0.052629307
v 0.10282558 -0.11928304 -0.059998307
v -0.10245404 -0.11928304 -0.0599983
v -0.09547365 -0.12140168 -0.05262931
v 0.10282558 0.13905202 -0.059998326
v -0.09547365 0.14092922 -0.052629318
v -0.10245404 0.139052 -0.059998315
v 0.09548413 0.14092922 -0.052629318
v 0.10396048 0.139052 -0.058647793
v 0.10396048 0.13905194 0.0574197
v 0.09548413 0.14092918 0.05104985
v -0.10245404 0.139052 -0.059998315
v -0.09547365 0.14092922 -0.052629318
v -0.1036985 0.139052 -0.058647793
v -0.09547365 0.14092918 0.05104985
v -0.1036985 0.13905194 0.0574197
v -0.10214157 0.1394124 0.059037644
v 0.10265051 0.13941242 0.059037644
v 0.09548413 0.14092918 0.05104985
v 0.10396048 0.13905194 0.0574197
v 0.09548413 0.14092918 0.05104985
v 0.09548413 0.106898546 0.051049814
v 0.09548413 0.10689866 -0.052629337
v 0.09548413 0.14092922 -0.052629318
v 0.09548413 0.14092922 -0.052629318
v 0.09548413 0.10689866 -0.052629337
v -0.09547365 0.106898636 -0.052629344
v -0.09547365 0.14092922 -0.052629318
v -0.09547365 0.14092922 -0.052629318
v -0.09547365 0.106898636 -0.052629344
v -0.09547365 0.106898546 0.051049814
v -0.09547365 0.14092918 0.05104985
v -0.09547365 0.14092918 0.05104985
v -0.09547365 0.106898546 0.051049814
v 0.09548413 0.106898546 0.051049814
v 0.09548413 0.14092918 0.05104985
vt 0.86685777 0.22939143
vt 0.8641016 0.22754113
vt 0.8666848 0.22923443
vt 0.86718965 0.2291612
vt 0.86718965 0.48891684
vt 0.6646825 0.48891684
vt 0.6646825 0.2291612
vt 0.8593295 0.23037142
vt 0.8582715 0.48846936
vt 0.99285215 0.4888372
vt 0.99307173 0.2306945
vt 0.86131114 0.22814423
vt 0.9902533 0.22763753
vt 0.6732362 0.23082018
vt 0.5382203 0.48881948
vt 0.6719641 0.48880568
vt 0.53843945 0.23029399
vt 0.53941745 0.22859189
vt 0.6699936 0.22618034
vt 0.99097747 0.22842479
vt 0.99307173 0.2306945
vt 0.99148613 0.2302428
vt 0.9930563 0.48893598
vt 0.99285215 0.4888372
vt 0.53965497 0.48916155
vt 0.5382203 0.48881948
vt 0.53843945 0.23029399
vt 0.5386087 0.23068906
vt 0.5399411 0.22800173
vt 0.66529244 0.23012207
vt 0.66547084 0.49010092
vt 0.6655539 0.49006844
vt 0.6665156 0.22939396
vt 0.66831553 0.2275827
vt 0.8641016 0.22754113
vt 0.8666848 0.22923443
vt 0.76581216 0.3603773
vt 0.86565626 0.48963517
vt 0.86685777 0.22939143
vt 0.86628175 0.48965096
vt 0.8611552 0.115103684
vt 0.86482817 0.11154372
vt 0.66738427 0.1111427
vt 0.6713093 0.1148294
vt 0.87905604 0.03127305
vt 0.68009 0.022552669
vt 0.68009 0.03127305
vt 0.87905604 0.022552669
vt 0.87905604 0.03127305
vt 0.99441624 0.03127305
vt 0.99441624 0.022552669
vt 0.99441624 0.03127305
vt 0.99441624 0.022552669
vt 0.99441624 0.03127305
vt 0.87905604 0.022552669
vt 0.87905604 0.03127305
vt 0.87905604 0.03127305
vt 0.68009 0.03127305
vt 0.68009 0.022552669
vt 0.68009 0.03127305
vt 0.99441624 0.022552669
vt 0.99441624 0.0059580803
vt 0.87905604 0.0059580803
vt 0.87905604 0.022552669
vt 0.87905604 0.022552669
vt 0.87905604 0.0059580803
vt 0.68009 0.0059580803
vt 0.68009 0.022552669
vt 0.99441624 0.022552669
vt 0.99441624 0.0059580803
vt 0.87905604 0.0059580803
vt 0.87905604 0.022552669
vt 0.87905604 0.022552669
vt 0.87905604 0.0059580803
vt 0.68009 0.0059580803
vt 0.68009 0.022552669
vn 0.8101397 -0.5343328 0.24116811
vn 0.12662324 -0.9867159 0.10177549
vn 0.39311755 -0.60295016 0.6941972
vn 0.35764807 -0.55759555 -0.7491162
vn 0.35478544 0.56513613 -0.7448143
vn -0.33710137 0.5668278 -0.7517108
vn -0.33992565 -0.55903566 -0.7562602
vn 0.8101397 -0.5343328 0.24116811
vn 0.8008869 0.5472487 0.24310276
vn 0.7648717 0.57834566 -0.2837035
vn 0.7697612 -0.5706592 -0.28603482
vn 0.12662324 -0.9867159 0.10177549
vn 0.12020443 -0.98210967 -0.14495361
vn -0.7987996 -0.5316344 0.2815743
vn -0.76107097 0.5738956 -0.30234894
vn -0.7900753 0.54391116 0.28273958
vn -0.7658875 -0.56614155 -0.3047951
vn -0.124541886 -0.98167795 -0.14421394
vn -0.13131636 -0.98614234 0.10138682
vn 0.12020443 -0.98210967 -0.14495361
vn 0.7697612 -0.5706592 -0.28603482
vn 0.35764807 -0.55759555 -0.7491162
vn 0.35478544 0.56513613 -0.7448143
vn 0.7648717 0.57834566 -0.2837035
vn -0.33710137 0.5668278 -0.7517108
vn -0.76107097 0.5738956 -0.30234894
vn -0.7658875 -0.56614155 -0.3047951
vn -0.33992565 -0.55903566 -0.7562602
vn -0.124541886 -0.98167795 -0.14421394
vn -0.7987996 -0.5316344 0.2815743
vn -0.7900753 0.54391116 0.28273958
vn -0.35392973 0.6076755 0.7109601
vn -0.3608877 -0.6054826 0.70933115
vn -0.13131636 -0.98614234 0.10138682
vn 0.12662324 -0.9867159 0.10177549
vn 0.39311755 -0.60295016 0.6941972
vn -0 1.4232182E-07 1
vn 0.38619146 0.60468304 0.69657344
vn 0.8101397 -0.5343328 0.24116811
vn 0.8008869 0.5472487 0.24310276
vn 0.12020443 -0.98210967 -0.14495361
vn 0.35764807 -0.55759555 -0.7491162
vn -0.33992565 -0.55903566 -0.7562602
vn -0.124541886 -0.98167795 -0.14421394
vn 0.35478544 0.56513613 -0.7448143
vn -0.11068105 0.98552763 -0.12839419
vn -0.33710137 0.5668278 -0.7517108
vn 0.10679102 0.9858688 -0.12906727
vn 0.7648717 0.57834566 -0.2837035
vn 0.8008869 0.5472487 0.24310276
vn 0.11251911 0.9894721 0.09101824
vn -0.33710137 0.5668278 -0.7517108
vn -0.11068105 0.98552763 -0.12839419
vn -0.76107097 0.5738956 -0.30234894
vn -0.11672657 0.9890176 0.09065867
vn -0.7900753 0.54391116 0.28273958
vn -0.35392973 0.6076755 0.7109601
vn 0.38619146 0.60468304 0.69657344
vn 0.11251911 0.9894721 0.09101824
vn 0.8008869 0.5472487 0.24310276
vn -1 0 0
vn -1 0 0
vn -1 0 0
vn -1 0 0
vn -0 -7.075632E-07 1
vn -0 -7.075632E-07 1
vn -0 -7.0756323E-07 1
vn -0 -7.075632E-07 1
vn 1 0 0
vn 1 0 0
vn 1 0 0
vn 1 0 0
vn -0 1.1279219E-06 -1
vn -0 1.1279219E-06 -1
vn -0 1.1279219E-06 -1
vn -0 1.1279219E-06 -1
g gatcha_equip_3_cover_0
f 3/3/3 2/2/2 1/1/1
f 6/6/6 5/5/5 4/4/4
f 7/7/7 6/6/6 4/4/4
f 10/10/10 9/9/9 8/8/8
f 11/11/11 10/10/10 8/8/8
f 11/11/11 8/8/8 12/12/12
f 13/13/13 11/11/11 12/12/12
f 16/16/16 15/15/15 14/14/14
f 15/15/15 17/17/17 14/14/14
f 14/14/14 17/17/17 18/18/18
f 19/19/19 14/14/14 18/18/18
f 22/22/22 21/21/21 20/20/20
f 22/22/22 23/23/23 21/21/21
f 23/23/23 24/24/24 21/21/21
f 27/27/27 26/26/26 25/25/25
f 28/28/28 27/27/27 25/25/25
f 29/29/29 27/27/27 28/28/28
f 32/32/32 31/31/31 30/30/30
f 33/33/33 32/32/32 30/30/30
f 30/30/30 34/34/34 33/33/33
f 34/34/34 35/35/35 33/33/33
f 35/35/35 36/36/36 33/33/33
f 33/33/33 37/37/37 32/32/32
f 36/36/36 37/37/37 33/33/33
f 32/32/32 37/37/37 38/38/38
f 38/38/38 37/37/37 36/36/36
f 36/36/36 39/39/39 38/38/38
f 39/39/39 40/40/40 38/38/38
f 43/43/43 42/42/42 41/41/41
f 44/44/44 43/43/43 41/41/41
f 47/47/47 46/46/46 45/45/45
f 46/46/46 48/48/48 45/45/45
f 45/45/45 48/48/48 49/49/49
f 49/49/49 48/48/48 50/50/50
f 48/48/48 51/51/51 50/50/50
f 54/54/54 53/53/53 52/52/52
f 55/55/55 53/53/53 54/54/54
f 56/56/56 55/55/55 54/54/54
f 57/57/57 55/55/55 56/56/56
f 57/57/57 58/58/58 55/55/55
f 58/58/58 59/59/59 55/55/55
f 59/59/59 58/58/58 60/60/60
f 63/63/63 62/62/62 61/61/61
f 64/64/64 63/63/63 61/61/61
f 67/67/67 66/66/66 65/65/65
f 68/68/68 67/67/67 65/65/65
f 71/71/71 70/70/70 69/69/69
f 72/72/72 71/71/71 69/69/69
f 75/75/75 74/74/74 73/73/73
f 76/76/76 75/75/75 73/73/73
