g gate_barrier1_a
v 0.8765874 0.47651196 0.03475353
v 0.9277307 0.47651196 0.07051121
v 0.8451063 0.47071862 0.12886292
v 0.07472007 0.47651204 0.13260375
v 0.8765874 0.47651196 0.03475353
v 0.1323363 0.47071862 0.21584097
v 0.040921744 0.47616744 0.17843004
v 0.93264985 0.4707187 0.72898257
v 0.9277307 0.47651196 0.07051121
v 1.029397 0.4765119 0.76659364
v 0.9903073 0.47651193 0.81336236
v 0.18843965 0.47651204 0.9112128
v 0.21987928 0.47071862 0.8159604
v 0.13729724 0.47651207 0.8754551
v 0.9570043 0.50247866 -0.67768383
v 0.16793841 0.50247854 -0.8363642
v 0.16255838 0.011133354 -0.8595465
v 0.9903354 0.011133381 -0.69308215
v 0.19090153 0.4966851 -0.74050945
v 0.048917234 0.49668497 -0.14989205
v 0.11371689 0.50247854 -0.8046439
v -0.050831173 0.50247854 -0.119639635
v 0.89238566 0.4966851 -0.5994417
v 0.75040185 0.4966852 -0.00882431
v 0.19090153 0.4966851 -0.74050945
v 0.048917234 0.49668497 -0.14989205
v 0.11371689 0.50247854 -0.8046439
v -0.050831173 0.50247854 -0.119639635
v -0.062145557 0.011133369 -0.12552443
v 0.10824405 0.011133354 -0.8278452
v 0.8271433 0.50247854 0.05691987
v 0.99169123 0.50247866 -0.62808394
v 1.0249293 0.011133382 -0.64350086
v 0.8545396 0.011133398 0.058819827
v -0.016144175 0.50247854 -0.07003971
v 0.7729218 0.5024784 0.08864015
v 0.80022526 0.011133398 0.09052144
v -0.027551366 0.01113337 -0.075943254
v 0.8765874 0.47651196 0.03475353
v 0.07472007 0.47651204 0.13260375
v 0.06705786 0.011133508 0.1341241
v 0.9071631 0.011133491 0.0316075
v 0.040921744 0.47616744 0.17843004
v 0.21987928 0.47071862 0.8159604
v 0.13729724 0.47651207 0.8754551
v 0.1323363 0.47071862 0.21584097
v 0.8451063 0.47071862 0.12886292
v 0.93264985 0.4707187 0.72898257
v 0.1323363 0.47071862 0.21584097
v 0.21987928 0.47071862 0.8159604
v 0.13729724 0.47651207 0.8754551
v 0.13039249 0.011133555 0.8941707
v 0.027873814 0.011133512 0.18090405
v 0.040921744 0.47616744 0.17843004
v 0.9277307 0.47651196 0.07051121
v 0.9582116 0.011133493 0.067376696
v 1.0607301 0.011133536 0.7806433
v 1.029397 0.4765119 0.76659364
v 0.18843965 0.47651204 0.9112128
v 0.9903073 0.47651193 0.81336236
v 1.021546 0.0111335395 0.82742345
v 0.1814413 0.011133555 0.9299398
v 0.11371689 0.50247854 -0.8046439
v 0.16793841 0.50247854 -0.8363642
v 0.19090153 0.4966851 -0.74050945
v 0.89238566 0.4966851 -0.5994417
v 0.9570043 0.50247866 -0.67768383
v 0.99169123 0.50247866 -0.62808394
v 0.75040185 0.4966852 -0.00882431
v 0.8271433 0.50247854 0.05691987
v 0.7729218 0.5024784 0.08864015
v -0.016144175 0.50247854 -0.07003971
v 0.048917234 0.49668497 -0.14989205
v -0.050831173 0.50247854 -0.119639635
v 0.16255838 0.011133354 -0.8595465
v 0.16793841 0.50247854 -0.8363642
v 0.11371689 0.50247854 -0.8046439
v 0.10824405 0.011133354 -0.8278452
v 0.9570043 0.50247866 -0.67768383
v 0.9903354 0.011133381 -0.69308215
v 1.0249293 0.011133382 -0.64350086
v 0.99169123 0.50247866 -0.62808394
v -0.062145557 0.011133369 -0.12552443
v -0.050831173 0.50247854 -0.119639635
v -0.016144175 0.50247854 -0.07003971
v -0.027551366 0.01113337 -0.075943254
v 0.8271433 0.50247854 0.05691987
v 0.8545396 0.011133398 0.058819827
v 0.80022526 0.011133398 0.09052144
v 0.7729218 0.5024784 0.08864015
v 0.06705786 0.011133508 0.1341241
v 0.07472007 0.47651204 0.13260375
v 0.040921744 0.47616744 0.17843004
v 0.027873814 0.011133512 0.18090405
v 0.13039249 0.011133555 0.8941707
v 0.13729724 0.47651207 0.8754551
v 0.18843965 0.47651204 0.9112128
v 0.1814413 0.011133555 0.9299398
v 1.029397 0.4765119 0.76659364
v 1.0607301 0.011133536 0.7806433
v 1.021546 0.0111335395 0.82742345
v 0.9903073 0.47651193 0.81336236
v 0.8765874 0.47651196 0.03475353
v 0.9071631 0.011133491 0.0316075
v 0.9582116 0.011133493 0.067376696
v 0.9277307 0.47651196 0.07051121
v -0.089678794 0.47651187 -0.8408193
v -0.8978192 0.47651193 -0.80726165
v -0.92606324 0.0111333765 -0.82782555
v -0.07938599 0.011133337 -0.8629842
v -0.94121706 0.4765119 -0.7637868
v -0.81858605 0.4707184 -0.11520113
v -0.90626866 0.47651193 -0.062248737
v -0.8486088 0.47071847 -0.7200156
v -0.13026279 0.47071847 -0.74984455
v -0.100239724 0.4707186 -0.1450306
v -0.8486088 0.47071847 -0.7200156
v -0.81858605 0.4707184 -0.11520113
v -0.94121706 0.4765119 -0.7637868
v -0.90626866 0.47651193 -0.062248737
v -0.96955585 0.0111333765 -0.78434724
v -0.93539643 0.011133415 -0.065622404
v -0.042137776 0.47651193 -0.80112106
v -0.031940013 0.0111333765 -0.8232818
v 0.0022196379 0.011133415 -0.10455699
v -0.0071896412 0.47651187 -0.09958322
v -0.85872775 0.47651193 -0.022550017
v -0.05058709 0.4765118 -0.05610849
v -0.041273233 0.011133415 -0.061078414
v -0.88795024 0.011133415 -0.025920307
v -0.85872775 0.47651193 -0.022550017
v -0.90626866 0.47651193 -0.062248737
v -0.81858605 0.4707184 -0.11520113
v -0.100239724 0.4707186 -0.1450306
v -0.05058709 0.4765118 -0.05610849
v -0.0071896412 0.47651187 -0.09958322
v -0.042137776 0.47651193 -0.80112106
v -0.13026279 0.47071847 -0.74984455
v -0.089678794 0.47651187 -0.8408193
v -0.8978192 0.47651193 -0.80726165
v -0.8486088 0.47071847 -0.7200156
v -0.94121706 0.4765119 -0.7637868
v -0.92606324 0.0111333765 -0.82782555
v -0.8978192 0.47651193 -0.80726165
v -0.94121706 0.4765119 -0.7637868
v -0.96955585 0.0111333765 -0.78434724
v -0.089678794 0.47651187 -0.8408193
v -0.07938599 0.011133337 -0.8629842
v -0.031940013 0.0111333765 -0.8232818
v -0.042137776 0.47651193 -0.80112106
v -0.93539643 0.011133415 -0.065622404
v -0.90626866 0.47651193 -0.062248737
v -0.85872775 0.47651193 -0.022550017
v -0.88795024 0.011133415 -0.025920307
v -0.0071896412 0.47651187 -0.09958322
v 0.0022196379 0.011133415 -0.10455699
v -0.041273233 0.011133415 -0.061078414
v -0.05058709 0.4765118 -0.05610849
v -0.016238596 0.47651204 0.125939
v -0.8063388 0.47651216 -0.032949455
v -0.8324366 0.011133481 -0.03803547
v -0.004660156 0.011133507 0.12842922
v -0.7835519 0.4707186 0.0632402
v -0.9257032 0.47071847 0.6545528
v -0.86056 0.47651216 -0.0012291712
v -1.0253248 0.47651204 0.6846776
v -0.0812417 0.47071862 0.20447388
v -0.22339286 0.4707186 0.7957868
v -0.9257032 0.47071847 0.6545528
v -0.7835519 0.4707186 0.0632402
v -0.86056 0.47651216 -0.0012291712
v -1.0253248 0.47651204 0.6846776
v -1.0571408 0.011133523 0.6959869
v -0.8867508 0.011133482 -0.0063340077
v -0.14631654 0.47651196 0.8614452
v 0.01844863 0.47651204 0.17553861
v 0.029934034 0.011133511 0.17801017
v -0.14045596 0.011133552 0.88033104
v -0.9906376 0.47651207 0.7342773
v -0.2005379 0.47651204 0.89316547
v -0.19477013 0.011133552 0.9120326
v -1.0225466 0.011133526 0.745568
v -1.0253248 0.47651204 0.6846776
v -0.9257032 0.47071847 0.6545528
v -0.9906376 0.47651207 0.7342773
v -0.22339286 0.4707186 0.7957868
v -0.2005379 0.47651204 0.89316547
v -0.14631654 0.47651196 0.8614452
v 0.01844863 0.47651204 0.17553861
v -0.0812417 0.47071862 0.20447388
v -0.016238596 0.47651204 0.125939
v -0.8063388 0.47651216 -0.032949455
v -0.7835519 0.4707186 0.0632402
v -0.86056 0.47651216 -0.0012291712
v -0.8324366 0.011133481 -0.03803547
v -0.8063388 0.47651216 -0.032949455
v -0.86056 0.47651216 -0.0012291712
v -0.8867508 0.011133482 -0.0063340077
v -0.016238596 0.47651204 0.125939
v -0.004660156 0.011133507 0.12842922
v 0.029934034 0.011133511 0.17801017
v 0.01844863 0.47651204 0.17553861
v -1.0571408 0.011133523 0.6959869
v -1.0253248 0.47651204 0.6846776
v -0.9906376 0.47651207 0.7342773
v -1.0225466 0.011133526 0.745568
v -0.14631654 0.47651196 0.8614452
v -0.14045596 0.011133552 0.88033104
v -0.19477013 0.011133552 0.9120326
v -0.2005379 0.47651204 0.89316547
vt 0.49784744 0.049112268
vt 0.49665272 0.0509286
vt 0.49920875 0.05202759
vt 0.5034882 0.049112268
vt 0.49784744 0.049112268
vt 0.5034882 0.05202759
vt 0.50405765 0.050798602
vt 0.49920875 0.07174016
vt 0.49665272 0.0509286
vt 0.49665272 0.072019346
vt 0.49764925 0.074638434
vt 0.5033046 0.074638434
vt 0.5033046 0.07174016
vt 0.50385344 0.07373638
vt 0.57424337 0.106550746
vt 0.57424337 0.05976794
vt 0.54610294 0.05976794
vt 0.54610294 0.106550746
vt 0.49665272 0.072019346
vt 0.49665272 0.0509286
vt 0.49920875 0.07174016
vt 0.49920875 0.05202759
vt 0.4956808 0.00087679416
vt 0.4956808 0.030771704
vt 0.52459544 0.00087679416
vt 0.52459544 0.030771704
vt 0.57446027 0.11556782
vt 0.57446027 0.16274823
vt 0.54514587 0.16274823
vt 0.54514587 0.11556782
vt 0.57446027 0.16274823
vt 0.57446027 0.11556782
vt 0.54514587 0.11556782
vt 0.54514587 0.16274823
vt 0.57424337 0.106550746
vt 0.57424337 0.05976794
vt 0.54610294 0.05976794
vt 0.54610294 0.106550746
vt 0.57424337 0.106550746
vt 0.57424337 0.05976794
vt 0.54610294 0.05976794
vt 0.54610294 0.106550746
vt 0.49920875 0.07174016
vt 0.49665272 0.0509286
vt 0.49920875 0.05202759
vt 0.49665272 0.072019346
vt 0.4956808 0.00087679416
vt 0.4956808 0.030771704
vt 0.52459544 0.00087679416
vt 0.52459544 0.030771704
vt 0.54514587 0.16274823
vt 0.57446027 0.16274823
vt 0.57446027 0.11556782
vt 0.54514587 0.11556782
vt 0.57446027 0.11556782
vt 0.54514587 0.11556782
vt 0.54514587 0.16274823
vt 0.57446027 0.16274823
vt 0.57424337 0.106550746
vt 0.57424337 0.05976794
vt 0.54610294 0.05976794
vt 0.54610294 0.106550746
vt 0.50405765 0.050798602
vt 0.5034882 0.049112268
vt 0.5034882 0.05202759
vt 0.49920875 0.05202759
vt 0.49784744 0.049112268
vt 0.49665272 0.0509286
vt 0.49920875 0.07174016
vt 0.49665272 0.072019346
vt 0.49764925 0.074638434
vt 0.5033046 0.074638434
vt 0.5033046 0.07174016
vt 0.50385344 0.07373638
vt 0.54610294 0.05976794
vt 0.57424337 0.05976794
vt 0.57424337 0.056309074
vt 0.54610294 0.056309074
vt 0.57424337 0.106550746
vt 0.54610294 0.106550746
vt 0.54610294 0.10998186
vt 0.57424337 0.10998186
vt 0.54610294 0.10998186
vt 0.57424337 0.10998186
vt 0.57424337 0.106550746
vt 0.54610294 0.106550746
vt 0.57424337 0.056309074
vt 0.54610294 0.056309074
vt 0.54610294 0.05976794
vt 0.57424337 0.05976794
vt 0.54610294 0.05976794
vt 0.57424337 0.05976794
vt 0.57424337 0.056309074
vt 0.54610294 0.056309074
vt 0.54610294 0.10998186
vt 0.57424337 0.10998186
vt 0.57424337 0.106550746
vt 0.54610294 0.106550746
vt 0.57424337 0.056309074
vt 0.54610294 0.056309074
vt 0.54610294 0.05976794
vt 0.57424337 0.05976794
vt 0.57424337 0.106550746
vt 0.54610294 0.106550746
vt 0.54610294 0.10998186
vt 0.57424337 0.10998186
vt 0.57424337 0.106550746
vt 0.57424337 0.05976794
vt 0.54610294 0.05976794
vt 0.54610294 0.106550746
vt 0.49920875 0.07174016
vt 0.49665272 0.0509286
vt 0.49920875 0.05202759
vt 0.49665272 0.072019346
vt 0.4956808 0.00087679416
vt 0.4956808 0.030771704
vt 0.52459544 0.00087679416
vt 0.52459544 0.030771704
vt 0.57446027 0.11556782
vt 0.57446027 0.16274823
vt 0.54514587 0.11556782
vt 0.54514587 0.16274823
vt 0.57446027 0.11556782
vt 0.54514587 0.11556782
vt 0.54514587 0.16274823
vt 0.57446027 0.16274823
vt 0.57424337 0.106550746
vt 0.57424337 0.05976794
vt 0.54610294 0.05976794
vt 0.54610294 0.106550746
vt 0.5033046 0.074638434
vt 0.50385344 0.07373638
vt 0.5033046 0.07174016
vt 0.49920875 0.07174016
vt 0.49764925 0.074638434
vt 0.49665272 0.072019346
vt 0.49665272 0.0509286
vt 0.49920875 0.05202759
vt 0.49784744 0.049112268
vt 0.5034882 0.049112268
vt 0.5034882 0.05202759
vt 0.50405765 0.050798602
vt 0.54610294 0.05976794
vt 0.57424337 0.05976794
vt 0.57424337 0.056309074
vt 0.54610294 0.056309074
vt 0.57424337 0.106550746
vt 0.54610294 0.106550746
vt 0.54610294 0.10998186
vt 0.57424337 0.10998186
vt 0.54610294 0.10998186
vt 0.57424337 0.10998186
vt 0.57424337 0.106550746
vt 0.54610294 0.106550746
vt 0.57424337 0.056309074
vt 0.54610294 0.056309074
vt 0.54610294 0.05976794
vt 0.57424337 0.05976794
vt 0.57424337 0.106550746
vt 0.57424337 0.05976794
vt 0.54610294 0.05976794
vt 0.54610294 0.106550746
vt 0.49665272 0.072019346
vt 0.49665272 0.0509286
vt 0.49920875 0.07174016
vt 0.49920875 0.05202759
vt 0.4956808 0.00087679416
vt 0.4956808 0.030771704
vt 0.52459544 0.030771704
vt 0.52459544 0.00087679416
vt 0.54514587 0.11556782
vt 0.54514587 0.16274823
vt 0.57446027 0.16274823
vt 0.57446027 0.11556782
vt 0.57446027 0.16274823
vt 0.57446027 0.11556782
vt 0.54514587 0.11556782
vt 0.54514587 0.16274823
vt 0.57424337 0.106550746
vt 0.57424337 0.05976794
vt 0.54610294 0.05976794
vt 0.54610294 0.106550746
vt 0.50385344 0.07373638
vt 0.5033046 0.07174016
vt 0.5033046 0.074638434
vt 0.49920875 0.07174016
vt 0.49764925 0.074638434
vt 0.49665272 0.072019346
vt 0.49665272 0.0509286
vt 0.49920875 0.05202759
vt 0.49784744 0.049112268
vt 0.5034882 0.049112268
vt 0.5034882 0.05202759
vt 0.50405765 0.050798602
vt 0.54610294 0.05976794
vt 0.57424337 0.05976794
vt 0.57424337 0.056309074
vt 0.54610294 0.056309074
vt 0.57424337 0.106550746
vt 0.54610294 0.106550746
vt 0.54610294 0.10998186
vt 0.57424337 0.10998186
vt 0.54610294 0.10998186
vt 0.57424337 0.10998186
vt 0.57424337 0.106550746
vt 0.54610294 0.106550746
vt 0.57424337 0.056309074
vt 0.54610294 0.056309074
vt 0.54610294 0.05976794
vt 0.57424337 0.05976794
vn 0.48869574 0.64785814 -0.58434254
vn 0.48253736 0.65637076 -0.579944
vn -0.02440268 0.999366 0.025927847
vn 0.031276055 0.9981639 0.05187248
vn 0.010676688 0.997889 0.06406013
vn 0.032799795 0.99924964 0.02059522
vn 0.06175083 0.99792385 0.018296542
vn -0.035098244 0.9991554 -0.021364145
vn -0.07777191 0.9969292 0.009149638
vn -0.06405556 0.9978179 -0.01601389
vn -0.032028414 0.99821895 -0.05033037
vn 0.016027356 0.9982753 -0.056477346
vn 0.025163766 0.99930644 -0.02745138
vn 0.055673875 0.99793506 -0.03203154
vn 0.23262842 0.044092964 -0.9715657
vn 0.23154326 0.04303353 -0.9718723
vn 0.23338099 0.043533985 -0.97141045
vn 0.23550546 0.043694332 -0.9708902
vn 0.022893867 0.99931717 0.028998895
vn 0.035074107 0.99923086 -0.017537054
vn 0.05418879 0.9979133 0.03510823
vn 0.064844236 0.9978383 -0.010680226
vn -0.035101313 0.9992428 0.016787583
vn -0.022875382 0.999273 -0.03050051
vn 0.022893867 0.99931717 0.028998895
vn 0.035074107 0.99923086 -0.017537054
vn -0.9801011 0.019265747 -0.1975615
vn -0.9800316 0.021381231 -0.19768877
vn -0.98027384 0.020149052 -0.19661453
vn -0.97956914 0.018500397 -0.20025502
vn 0.9789819 0.04698552 0.19846123
vn 0.9791926 0.04888979 0.19695601
vn 0.9794447 0.048119597 0.19588895
vn 0.97900397 0.046504438 0.1984657
vn -0.23391432 -0.0072383913 0.97223026
vn -0.23394261 -0.0064562084 0.97222894
vn -0.2337689 -0.00712739 0.97226614
vn -0.23374133 -0.007149762 0.9722725
vn -0.14483547 -0.0011434379 -0.98945504
vn -0.14259553 -0.00076254294 -0.9897808
vn -0.14558162 -0.0012504967 -0.9893454
vn -0.14621735 -0.0012494157 -0.9892517
vn 0.06175083 0.99792385 0.018296542
vn 0.025163766 0.99930644 -0.02745138
vn 0.055673875 0.99793506 -0.03203154
vn 0.032799795 0.99924964 0.02059522
vn -0.02440268 0.999366 0.025927847
vn -0.035098244 0.9991554 -0.021364145
vn 0.032799795 0.99924964 0.02059522
vn 0.025163766 0.99930644 -0.02745138
vn -0.9929102 0.019201849 0.11730585
vn -0.9927844 0.017104935 0.1186873
vn -0.9928766 0.021346323 0.11721944
vn -0.9931952 0.023780728 0.11400761
vn 0.9912224 0.05460123 -0.120402716
vn 0.9912486 0.055282354 -0.119875185
vn 0.991314 0.053273078 -0.12024401
vn 0.99126816 0.052153587 -0.12110833
vn 0.14547826 0.037702486 0.9886429
vn 0.14323844 0.038095333 0.9889548
vn 0.14196 0.03805396 0.9891406
vn 0.1454767 0.037987694 0.98863214
vn 0.05418879 0.9979133 0.03510823
vn 0.010684732 0.99825925 0.058002833
vn 0.022893867 0.99931717 0.028998895
vn -0.035101313 0.9992428 0.016787583
vn -0.038123794 0.99808085 0.048798453
vn -0.06557774 0.9977729 0.012200509
vn -0.022875382 0.999273 -0.03050051
vn -0.053405978 0.99792886 -0.0358583
vn -0.010677985 0.9983917 -0.055678066
vn 0.036587004 0.99813914 -0.04878267
vn 0.035074107 0.99923086 -0.017537054
vn 0.064844236 0.9978383 -0.010680226
vn -0.5688138 0.043974467 -0.8212899
vn -0.5749223 0.04308203 -0.81707305
vn -0.57133985 0.04298017 -0.8195874
vn -0.5698186 0.043879464 -0.8205981
vn 0.8614067 0.06546404 -0.50367963
vn 0.86182135 0.06456068 -0.5030864
vn 0.86058116 0.06446777 -0.5052168
vn 0.86041445 0.06549744 -0.50536823
vn -0.8634969 0.010635243 0.5042421
vn -0.8629961 0.011430412 0.5050813
vn -0.86405957 0.01145398 0.50325924
vn -0.8641186 0.010642899 0.50317574
vn 0.57282376 0.028937986 0.8191676
vn 0.57181096 0.0298205 0.8198433
vn 0.57215923 0.029838663 0.81959957
vn 0.5724569 0.03003174 0.8193846
vn -0.83484054 0.013190318 -0.55033374
vn -0.8344033 0.013307293 -0.5509939
vn -0.8348354 0.013650493 -0.5503304
vn -0.8353878 0.013187619 -0.54950273
vn -0.640426 0.038807422 0.7670389
vn -0.64115363 0.038690306 0.7664366
vn -0.64117175 0.037954424 0.7664582
vn -0.6404256 0.0388189 0.7670385
vn 0.8171578 0.063772894 0.57287526
vn 0.81799656 0.063264675 0.5717336
vn 0.8189468 0.063104704 0.5703893
vn 0.8184483 0.063649096 0.57104397
vn 0.48869574 0.64785814 -0.58434254
vn 0.6402421 0.040395457 -0.76711035
vn 0.6402421 0.040395457 -0.76711035
vn 0.48253736 0.65637076 -0.579944
vn -0.050417654 0.046216182 -0.9976584
vn -0.050340023 0.046526395 -0.9976478
vn -0.050263364 0.046526928 -0.99765164
vn -0.049579024 0.04659952 -0.9976826
vn 0.061032012 0.9978734 0.022887003
vn 0.028985685 0.9992434 -0.02593456
vn 0.059483413 0.99787235 -0.026691275
vn 0.030522663 0.99923575 0.02441813
vn -0.02975914 0.9992204 0.025943866
vn -0.032047857 0.9992065 -0.023654372
vn 0.030522663 0.99923575 0.02441813
vn 0.028985685 0.9992434 -0.02593456
vn -0.99788576 0.048498638 0.043264978
vn -0.9978871 0.050869938 0.04041721
vn -0.9978672 0.050078716 0.04186856
vn -0.99793905 0.051936008 0.037684415
vn 0.9990563 0.0188633 -0.039123878
vn 0.9989784 0.020183912 -0.04043318
vn 0.9990356 0.018439164 -0.03984957
vn 0.99897885 0.017079541 -0.041827448
vn 0.04883173 -0.009537446 0.9987614
vn 0.048033725 -0.0099117225 0.9987966
vn 0.052556295 -0.009830503 0.9985696
vn 0.05035376 -0.009846639 0.9986829
vn 0.021351406 0.99817824 -0.056428716
vn 0.059483413 0.99787235 -0.026691275
vn 0.028985685 0.9992434 -0.02593456
vn -0.032047857 0.9992065 -0.023654372
vn -0.02747652 0.99831355 -0.051136855
vn -0.06025 0.9979382 -0.022117088
vn -0.059504822 0.9978502 0.027463768
vn -0.02975914 0.9992204 0.025943866
vn -0.022884445 0.9981432 0.0564483
vn 0.029000603 0.99823135 0.05189582
vn 0.030522663 0.99923575 0.02441813
vn 0.061032012 0.9978734 0.022887003
vn -0.7650625 0.06710598 -0.64045006
vn -0.7657958 0.06671706 -0.63961357
vn -0.7657958 0.06671706 -0.63961357
vn -0.7663715 0.06709372 -0.63888437
vn 0.70595324 0.047185477 -0.7066849
vn 0.706337 0.046648134 -0.706337
vn 0.7056078 0.04659997 -0.70706856
vn 0.7055908 0.04711243 -0.70705163
vn -0.70711124 0.03196778 0.70637923
vn -0.7060181 0.03179274 0.70747983
vn -0.70711404 0.03184209 0.7063821
vn -0.70638037 0.03193474 0.7071117
vn 0.76773226 0.005805159 0.64074445
vn 0.76677686 0.0060585174 0.64188516
vn 0.76767224 0.0060484097 0.64081424
vn 0.7674324 0.006171406 0.6411001
vn 0.23394746 0 -0.9722492
vn 0.23429349 -0.00038034655 -0.9721658
vn 0.23412035 -0.00034443437 -0.97220755
vn 0.23394746 -0.00034418004 -0.9722492
vn 0.022884628 0.99929535 0.029750014
vn 0.035087477 0.99923027 -0.017543739
vn 0.051882826 0.9979814 0.036623172
vn 0.062516026 0.9979693 -0.012198251
vn -0.03507313 0.999203 0.019061485
vn -0.022867195 0.9992964 -0.029727355
vn 0.035087477 0.99923027 -0.017543739
vn 0.022884628 0.99929535 0.029750014
vn -0.97919536 0.049380027 -0.19681968
vn -0.9792614 0.050784305 -0.19613248
vn -0.9792184 0.050021015 -0.19654313
vn -0.9789009 0.048169352 -0.19857705
vn 0.9801221 0.019602442 0.19742459
vn 0.9801947 0.021369506 0.19687971
vn 0.9799471 0.020203965 0.1982309
vn 0.9798451 0.018385228 0.19891065
vn -0.2354 0.036449034 0.97121483
vn -0.23307115 0.036820684 0.9717624
vn -0.2330699 0.036962837 0.97175723
vn -0.23396039 0.036959853 0.9715433
vn 0.062516026 0.9979693 -0.012198251
vn 0.035087477 0.99923027 -0.017543739
vn 0.035080377 0.99826545 -0.04728224
vn -0.022867195 0.9992964 -0.029727355
vn -0.01144883 0.998338 -0.056480896
vn -0.05262655 0.9979977 -0.035084367
vn -0.0655528 0.99777454 0.01219587
vn -0.03507313 0.999203 0.019061485
vn -0.037365127 0.99818265 0.047278326
vn 0.012209813 0.9981522 0.059522837
vn 0.022884628 0.99929535 0.029750014
vn 0.051882826 0.9979814 0.036623172
vn -0.5716975 0.035858706 -0.8196805
vn -0.5720501 0.035660267 -0.8194431
vn -0.57304084 0.036000617 -0.8187357
vn -0.5736913 0.03580938 -0.8182884
vn 0.86326194 0.015364346 -0.50452226
vn 0.8635754 0.015202376 -0.5039906
vn 0.8632111 0.0152211655 -0.5046135
vn 0.8630215 0.01575641 -0.5049213
vn -0.86167574 0.061524343 0.50371593
vn -0.8619709 0.061824616 0.5031737
vn -0.86198986 0.061468598 0.5031848
vn -0.86192834 0.061644614 0.5032688
vn 0.57261235 0.039682332 0.81886536
vn 0.5728211 0.039249104 0.81874025
vn 0.5728207 0.039260697 0.81873983
vn 0.57162243 0.03934544 0.81957287
g gate_barrier1_a_0
f 3/3/3 2/2/2 1/1/1
f 3/3/3 5/5/5 4/4/4
f 4/4/4 6/6/6 3/3/3
f 6/6/6 4/4/4 7/7/7
f 9/9/9 3/3/3 8/8/8
f 8/8/8 10/10/10 9/9/9
f 10/10/10 8/8/8 11/11/11
f 11/11/11 8/8/8 12/12/12
f 12/12/12 8/8/8 13/13/13
f 13/13/13 14/14/14 12/12/12
f 17/17/17 16/16/16 15/15/15
f 15/15/15 18/18/18 17/17/17
f 21/21/21 20/20/20 19/19/19
f 22/22/22 20/20/20 21/21/21
f 25/25/25 24/24/24 23/23/23
f 26/26/26 24/24/24 25/25/25
f 29/29/29 28/28/28 27/27/27
f 27/27/27 30/30/30 29/29/29
f 33/33/33 32/32/32 31/31/31
f 31/31/31 34/34/34 33/33/33
f 37/37/37 36/36/36 35/35/35
f 35/35/35 38/38/38 37/37/37
f 41/41/41 40/40/40 39/39/39
f 39/39/39 42/42/42 41/41/41
f 45/45/45 44/44/44 43/43/43
f 43/43/43 44/44/44 46/46/46
f 49/49/49 48/48/48 47/47/47
f 50/50/50 48/48/48 49/49/49
f 53/53/53 52/52/52 51/51/51
f 51/51/51 54/54/54 53/53/53
f 57/57/57 56/56/56 55/55/55
f 55/55/55 58/58/58 57/57/57
f 61/61/61 60/60/60 59/59/59
f 59/59/59 62/62/62 61/61/61
f 65/65/65 64/64/64 63/63/63
f 64/64/64 65/65/65 66/66/66
f 66/66/66 67/67/67 64/64/64
f 66/66/66 68/68/68 67/67/67
f 68/68/68 66/66/66 69/69/69
f 69/69/69 70/70/70 68/68/68
f 69/69/69 71/71/71 70/70/70
f 71/71/71 69/69/69 72/72/72
f 72/72/72 69/69/69 73/73/73
f 72/72/72 73/73/73 74/74/74
f 77/77/77 76/76/76 75/75/75
f 78/78/78 77/77/77 75/75/75
f 81/81/81 80/80/80 79/79/79
f 82/82/82 81/81/81 79/79/79
f 85/85/85 84/84/84 83/83/83
f 86/86/86 85/85/85 83/83/83
f 89/89/89 88/88/88 87/87/87
f 90/90/90 89/89/89 87/87/87
f 93/93/93 92/92/92 91/91/91
f 94/94/94 93/93/93 91/91/91
f 97/97/97 96/96/96 95/95/95
f 98/98/98 97/97/97 95/95/95
f 101/101/101 100/100/100 99/99/99
f 102/102/102 101/101/101 99/99/99
f 105/105/105 104/104/104 103/103/103
f 106/106/106 105/105/105 103/103/103
f 109/109/109 108/108/108 107/107/107
f 107/107/107 110/110/110 109/109/109
f 113/113/113 112/112/112 111/111/111
f 111/111/111 112/112/112 114/114/114
f 117/117/117 116/116/116 115/115/115
f 118/118/118 116/116/116 117/117/117
f 121/121/121 120/120/120 119/119/119
f 121/121/121 122/122/122 120/120/120
f 125/125/125 124/124/124 123/123/123
f 123/123/123 126/126/126 125/125/125
f 129/129/129 128/128/128 127/127/127
f 127/127/127 130/130/130 129/129/129
f 133/133/133 132/132/132 131/131/131
f 131/131/131 134/134/134 133/133/133
f 135/135/135 134/134/134 131/131/131
f 136/136/136 134/134/134 135/135/135
f 134/134/134 136/136/136 137/137/137
f 137/137/137 138/138/138 134/134/134
f 138/138/138 137/137/137 139/139/139
f 138/138/138 139/139/139 140/140/140
f 140/140/140 141/141/141 138/138/138
f 141/141/141 140/140/140 142/142/142
f 145/145/145 144/144/144 143/143/143
f 146/146/146 145/145/145 143/143/143
f 149/149/149 148/148/148 147/147/147
f 150/150/150 149/149/149 147/147/147
f 153/153/153 152/152/152 151/151/151
f 154/154/154 153/153/153 151/151/151
f 157/157/157 156/156/156 155/155/155
f 158/158/158 157/157/157 155/155/155
f 161/161/161 160/160/160 159/159/159
f 159/159/159 162/162/162 161/161/161
f 165/165/165 164/164/164 163/163/163
f 166/166/166 164/164/164 165/165/165
f 169/169/169 168/168/168 167/167/167
f 167/167/167 170/170/170 169/169/169
f 173/173/173 172/172/172 171/171/171
f 171/171/171 174/174/174 173/173/173
f 177/177/177 176/176/176 175/175/175
f 175/175/175 178/178/178 177/177/177
f 181/181/181 180/180/180 179/179/179
f 179/179/179 182/182/182 181/181/181
f 185/185/185 184/184/184 183/183/183
f 185/185/185 186/186/186 184/184/184
f 187/187/187 186/186/186 185/185/185
f 186/186/186 187/187/187 188/188/188
f 186/186/186 188/188/188 189/189/189
f 189/189/189 190/190/190 186/186/186
f 190/190/190 189/189/189 191/191/191
f 190/190/190 191/191/191 192/192/192
f 192/192/192 193/193/193 190/190/190
f 193/193/193 192/192/192 194/194/194
f 197/197/197 196/196/196 195/195/195
f 198/198/198 197/197/197 195/195/195
f 201/201/201 200/200/200 199/199/199
f 202/202/202 201/201/201 199/199/199
f 205/205/205 204/204/204 203/203/203
f 206/206/206 205/205/205 203/203/203
f 209/209/209 208/208/208 207/207/207
f 210/210/210 209/209/209 207/207/207
