g gate_candle
v -0.24149546 0.04273302 0.00865114
v -0.1708859 0.042733174 -0.036332346
v -0.15178831 0.03469933 0.07146579
v -0.1708859 0.042733174 -0.036332346
v -0.089147836 0.042733155 -0.018211387
v -0.15178831 0.03469933 0.07146579
v -0.089147836 0.042733155 -0.018211387
v -0.044164423 0.042733155 0.052399307
v -0.15178831 0.03469933 0.07146579
v -0.044164423 0.042733155 0.052399307
v -0.062285077 0.04273308 0.13413739
v -0.15178831 0.03469933 0.07146579
v -0.062285077 0.04273308 0.13413739
v -0.13289462 0.04273308 0.17912087
v -0.15178831 0.03469933 0.07146579
v -0.13289462 0.04273308 0.17912087
v -0.21463162 0.04273308 0.16099876
v -0.15178831 0.03469933 0.07146579
v -0.21463162 0.04273308 0.16099876
v -0.25961626 0.04273304 0.0903893
v -0.15178831 0.03469933 0.07146579
v -0.25961626 0.04273304 0.0903893
v -0.24149546 0.04273302 0.00865114
v -0.15178831 0.03469933 0.07146579
v 0.09997612 0.4008265 -0.14153838
v 0.19459903 0.40082666 -0.10234419
v 0.09997366 0.39099845 -0.00756848
v 0.19459903 0.40082666 -0.10234419
v 0.23379314 0.4008266 -0.007721291
v 0.09997366 0.39099845 -0.00756848
v 0.23379314 0.4008266 -0.007721291
v 0.19459765 0.4008266 0.086903
v 0.09997366 0.39099845 -0.00756848
v 0.19459765 0.4008266 0.086903
v 0.099974744 0.4008265 0.12609711
v 0.09997366 0.39099845 -0.00756848
v 0.099974744 0.4008265 0.12609711
v 0.005351685 0.4008266 0.086903766
v 0.09997366 0.39099845 -0.00756848
v 0.005351685 0.4008266 0.086903766
v -0.033843655 0.4008266 -0.007721291
v 0.09997366 0.39099845 -0.00756848
v -0.033843655 0.4008266 -0.007721291
v 0.0053504556 0.40082642 -0.10234419
v 0.09997366 0.39099845 -0.00756848
v 0.0053504556 0.40082642 -0.10234419
v 0.09997612 0.4008265 -0.14153838
v 0.09997366 0.39099845 -0.00756848
v 0.20538369 -0.13433555 0.113472655
v 0.22704472 -0.09378986 -0.0077214446
v 0.27137417 -0.13433553 -0.007722751
v -0.02709524 -0.09378986 -0.0077214446
v -0.010625159 -0.13433535 0.1134738
v -0.07142361 -0.13433553 -0.0077213678
v -0.0823023 -0.13273206 -0.027991053
v -0.089147836 0.042733155 -0.018211387
v -0.1708859 0.042733174 -0.036332346
v -0.17296042 -0.13273185 -0.048089568
v -0.24149546 0.04273302 0.00865114
v -0.25127703 -0.13273208 0.00180323
v -0.27137464 -0.13273211 0.09246119
v -0.25961626 0.04273304 0.0903893
v -0.032409433 -0.13273211 0.0503248
v -0.044164423 0.042733155 0.052399307
v -0.089147836 0.042733155 -0.018211387
v -0.0823023 -0.13273206 -0.027991053
v -0.02709524 -0.09378986 -0.0077214446
v -0.07142361 -0.13433553 -0.0077213678
v -0.021221738 -0.13433541 -0.12891947
v 0.010123164 -0.09378986 -0.097574405
v 0.099974744 -0.1343354 -0.17912096
v 0.0053504556 0.40082642 -0.10234419
v -0.033843655 0.4008266 -0.007721291
v 0.09997612 0.4008265 -0.14153838
v 0.099974744 -0.0937899 -0.13479388
v 0.22117107 -0.13433523 -0.12891947
v 0.19459903 0.40082666 -0.10234419
v 0.18982616 -0.09378986 -0.097574405
v 0.27137417 -0.13433553 -0.007722751
v 0.23379314 0.4008266 -0.007721291
v 0.22704472 -0.09378986 -0.0077214446
vt 0.2414846 0.8829128
vt 0.23663267 0.8829128
vt 0.23669322 0.86996657
vt 0.23663267 0.8829128
vt 0.2318194 0.8829128
vt 0.23669322 0.86996657
vt 0.2318194 0.8829128
vt 0.23663281 0.8829128
vt 0.23669322 0.86996657
vt 0.23663281 0.8829128
vt 0.24148469 0.8829128
vt 0.23669322 0.86996657
vt 0.24148469 0.8829128
vt 0.23663287 0.8829128
vt 0.23669322 0.86996657
vt 0.23663287 0.8829128
vt 0.2318195 0.8829128
vt 0.23669322 0.86996657
vt 0.2318195 0.8829128
vt 0.23663273 0.8829128
vt 0.23669322 0.86996657
vt 0.23663273 0.8829128
vt 0.2414846 0.8829128
vt 0.23669322 0.86996657
vt 0.2414846 0.8829128
vt 0.23663267 0.8829128
vt 0.23669322 0.86996657
vt 0.23663267 0.8829128
vt 0.2318194 0.8829128
vt 0.23669322 0.86996657
vt 0.2318194 0.8829128
vt 0.23663281 0.8829128
vt 0.23669322 0.86996657
vt 0.23663281 0.8829128
vt 0.24148469 0.8829128
vt 0.23669322 0.86996657
vt 0.24148469 0.8829128
vt 0.23663287 0.8829128
vt 0.23669322 0.86996657
vt 0.23663287 0.8829128
vt 0.2318195 0.8829128
vt 0.23669322 0.86996657
vt 0.2318195 0.8829128
vt 0.23663273 0.8829128
vt 0.23669322 0.86996657
vt 0.23663273 0.8829128
vt 0.2414846 0.8829128
vt 0.23669322 0.86996657
vt 0.22367519 0.8688582
vt 0.23074019 0.87139875
vt 0.23074019 0.8688582
vt 0.20345266 0.87139875
vt 0.21051764 0.8688582
vt 0.20345266 0.8688582
vt 0.23074019 0.8688582
vt 0.23074019 0.90098506
vt 0.22367519 0.90098506
vt 0.22367519 0.8688582
vt 0.21709646 0.90098506
vt 0.21709646 0.8688582
vt 0.21051764 0.8688582
vt 0.21051764 0.90098506
vt 0.22367519 0.8688582
vt 0.22367519 0.90098506
vt 0.23074019 0.90098506
vt 0.23074019 0.8688582
vt 0.20345266 0.87139875
vt 0.20345266 0.8688582
vt 0.21051764 0.8688582
vt 0.21051764 0.87139875
vt 0.21709646 0.8688582
vt 0.21051764 0.90098506
vt 0.20345266 0.90098506
vt 0.21709646 0.90098506
vt 0.21709642 0.87139875
vt 0.22367519 0.8688582
vt 0.22367519 0.90098506
vt 0.22367519 0.87139875
vt 0.23074019 0.8688582
vt 0.23074019 0.90098506
vt 0.23074019 0.87139875
vn 0.042528003 0.9968624 0.06675863
vn 0.042528007 0.9968624 0.066758625
vn 0.042528007 0.9968624 0.06675864
vn -0.017143419 0.9968581 0.07732975
vn -0.017143419 0.9968581 0.077329755
vn -0.017143419 0.9968581 0.077329755
vn -0.06686574 0.9968522 0.04259764
vn -0.06686574 0.9968522 0.042597637
vn -0.06686574 0.9968522 0.04259764
vn -0.07745376 0.99684805 -0.017169917
vn -0.07745376 0.99684805 -0.017169917
vn -0.07745376 0.99684805 -0.017169917
vn -0.04262583 0.99684817 -0.066908784
vn -0.042625826 0.99684817 -0.066908784
vn -0.042625822 0.99684817 -0.06690878
vn 0.017160943 0.99685234 -0.077401794
vn 0.017160943 0.99685234 -0.0774018
vn 0.017160943 0.99685234 -0.077401794
vn 0.06680179 0.9968581 -0.042559348
vn 0.06680178 0.9968581 -0.042559344
vn 0.06680179 0.9968581 -0.042559344
vn 0.07727771 0.9968624 0.017131723
vn 0.07727771 0.9968624 0.017131723
vn 0.07727771 0.9968624 0.017131723
vn -0.030292936 0.9968623 0.073129535
vn -0.030292938 0.9968623 0.073129535
vn -0.030292936 0.9968623 0.073129535
vn -0.07317794 0.9968581 0.030312123
vn -0.07317795 0.9968581 0.030312125
vn -0.07317795 0.9968581 0.030312125
vn -0.07324678 0.9968522 -0.030340452
vn -0.07324677 0.9968522 -0.03034045
vn -0.07324677 0.9968522 -0.03034045
vn -0.030360732 0.99684805 -0.0732953
vn -0.03036073 0.99684805 -0.073295295
vn -0.030360734 0.99684805 -0.073295295
vn 0.030360289 0.99684805 -0.07329578
vn 0.030360289 0.99684805 -0.07329578
vn 0.03036029 0.99684805 -0.07329579
vn 0.073247954 0.9968521 -0.03034057
vn 0.073247954 0.9968521 -0.030340571
vn 0.073247954 0.9968521 -0.03034057
vn 0.07317912 0.9968581 0.030310184
vn 0.07317912 0.9968581 0.030310184
vn 0.07317912 0.9968581 0.030310182
vn 0.030290088 0.9968623 0.073130645
vn 0.030290088 0.9968623 0.073130645
vn 0.03029009 0.9968623 0.073130645
vn 0.63349664 0.6926042 0.34493685
vn 0.8321229 0.5374942 -0.13664387
vn 0.6746091 0.7375592 0.030149385
vn -0.8313295 0.5358481 -0.14750639
vn -0.6392741 0.69891554 0.32069552
vn -0.6747774 0.7377315 0.020680917
vn 0.5722529 0.06787735 -0.81726325
vn 0.5722569 0.06787735 -0.8172605
vn -0.17324474 0.06788493 -0.98253655
vn -0.17324874 0.06788493 -0.9825357
vn -0.81726235 0.06789125 -0.5722526
vn -0.81726426 0.06789124 -0.57224977
vn -0.97437334 0.06274643 -0.21600826
vn -0.97437334 0.06274643 -0.21600826
vn 0.84173155 0.06272844 -0.53623986
vn 0.84173155 0.06272844 -0.53623986
vn 0.5722569 0.06787735 -0.8172605
vn 0.5722529 0.06787735 -0.81726325
vn -0.8313295 0.5358481 -0.14750639
vn -0.6747774 0.7377315 0.020680917
vn -0.4772445 0.73788714 -0.47724238
vn -0.635451 0.43864292 -0.63544816
vn -3.8545048E-07 0.7378872 -0.674924
vn -0.70704275 -0.0136393 -0.7070393
vn -0.92380595 -0.012604114 -0.38265347
vn 3.7499576E-06 -0.013636853 -0.999907
vn 9.051326E-07 0.43864605 -0.8986599
vn 0.47723997 0.7378905 -0.4772418
vn 0.7070444 -0.013639967 -0.7070375
vn 0.63544947 0.43864506 -0.6354483
vn 0.6746091 0.7375592 0.030149385
vn 0.92380565 -0.012604257 -0.38265422
vn 0.8321229 0.5374942 -0.13664387
g gate_candle_0
f 3/3/3 2/2/2 1/1/1
f 6/6/6 5/5/5 4/4/4
f 9/9/9 8/8/8 7/7/7
f 12/12/12 11/11/11 10/10/10
f 15/15/15 14/14/14 13/13/13
f 18/18/18 17/17/17 16/16/16
f 21/21/21 20/20/20 19/19/19
f 24/24/24 23/23/23 22/22/22
f 27/27/27 26/26/26 25/25/25
f 30/30/30 29/29/29 28/28/28
f 33/33/33 32/32/32 31/31/31
f 36/36/36 35/35/35 34/34/34
f 39/39/39 38/38/38 37/37/37
f 42/42/42 41/41/41 40/40/40
f 45/45/45 44/44/44 43/43/43
f 48/48/48 47/47/47 46/46/46
f 51/51/51 50/50/50 49/49/49
f 54/54/54 53/53/53 52/52/52
f 57/57/57 56/56/56 55/55/55
f 58/58/58 57/57/57 55/55/55
f 59/59/59 57/57/57 58/58/58
f 60/60/60 59/59/59 58/58/58
f 59/59/59 60/60/60 61/61/61
f 62/62/62 59/59/59 61/61/61
f 65/65/65 64/64/64 63/63/63
f 66/66/66 65/65/65 63/63/63
f 69/69/69 68/68/68 67/67/67
f 70/70/70 69/69/69 67/67/67
f 71/71/71 69/69/69 70/70/70
f 72/72/72 70/70/70 67/67/67
f 73/73/73 72/72/72 67/67/67
f 72/72/72 74/74/74 70/70/70
f 75/75/75 71/71/71 70/70/70
f 74/74/74 75/75/75 70/70/70
f 76/76/76 71/71/71 75/75/75
f 74/74/74 77/77/77 75/75/75
f 78/78/78 76/76/76 75/75/75
f 77/77/77 78/78/78 75/75/75
f 79/79/79 76/76/76 78/78/78
f 77/77/77 80/80/80 78/78/78
f 81/81/81 79/79/79 78/78/78
f 80/80/80 81/81/81 78/78/78
