g gate_wood_2
v -0.039423212 0.27581295 -0.13668236
v -0.18743482 0.37200007 -0.1387398
v -0.24029279 0.2400436 -0.14664014
v 0.96549183 0.0016741331 -0.12840061
v 0.9865839 0.0016741601 0.16644572
v 0.90817994 0.34333056 0.1575084
v 0.8884902 0.3242054 -0.12862083
v 0.94581634 0.0016741215 -0.15443164
v 0.66243416 0.63737994 -0.13563551
v 0.6639895 0.66468513 0.13018335
v 0.297125 0.76600224 0.110248595
v 0.29397842 0.7508739 -0.13397053
v -0.02654392 0.73355377 0.09965424
v -0.030200934 0.71917576 -0.13149787
v -0.20420237 0.76211196 0.08673811
v -0.21601622 0.74605674 -0.12695402
v -0.26504356 0.8094534 -0.12862761
v -0.25317898 0.82568336 0.0831995
v -0.24618964 0.9386676 -0.12588131
v -0.23684214 0.95495945 0.08589839
v -0.28843737 1.0898895 -0.12768646
v -0.27948782 1.1073661 0.071102984
v -0.38018936 1.1817983 -0.12297356
v -0.379491 1.1980988 0.061848782
v -0.5483826 1.2460579 0.04726168
v -0.5455546 1.2305648 -0.11777852
v -0.67749286 1.2301935 -0.10951609
v -0.6776242 1.2396101 0.041106414
v 0.8884902 0.3242054 -0.12862083
v 0.5580096 0.0016741242 -0.15604672
v 0.94581634 0.0016741215 -0.15443164
v 0.506323 0.27583036 -0.1329614
v 0.66243416 0.63737994 -0.13563551
v 0.24844325 0.4578168 -0.12863947
v 0.29397842 0.7508739 -0.13397053
v -0.030200934 0.71917576 -0.13149787
v -0.02416302 0.44664946 -0.11309837
v -0.17836757 0.47957847 -0.11123502
v -0.21601622 0.74605674 -0.12695402
v -0.37158847 0.5874343 -0.10635403
v -0.4235173 0.74886066 -0.11131981
v -0.26504356 0.8094534 -0.12862761
v -0.39815867 0.9262172 -0.11262693
v -0.24618964 0.9386676 -0.12588131
v -0.4070578 1.0180483 -0.11198491
v -0.28843737 1.0898895 -0.12768646
v -0.45510358 1.088013 -0.10897414
v -0.38018936 1.1817983 -0.12297356
v -0.5455546 1.2305648 -0.11777852
v -0.56225914 1.150872 -0.10526993
v -0.67749286 1.2301935 -0.10951609
v -0.7377034 1.1481385 -0.09963828
v 0.52556974 0.0016741632 0.16283879
v 0.5580096 0.0016741242 -0.15604672
v 0.506323 0.27583036 -0.1329614
v 0.4725529 0.28944916 0.13953225
v 0.25410607 0.4448762 0.10951204
v 0.24844325 0.4578168 -0.12863947
v -0.018858816 0.43963027 0.09410468
v -0.02416302 0.44664946 -0.11309837
v -0.18502533 0.46614468 0.08382978
v -0.17836757 0.47957847 -0.11123502
v -0.37158847 0.5874343 -0.10635403
v -0.37969965 0.5795836 0.07276517
v -0.4465182 0.759656 0.06468137
v -0.4235173 0.74886066 -0.11131981
v -0.39815867 0.9262172 -0.11262693
v -0.42140466 0.93739635 0.06577365
v -0.429197 1.0135877 0.05508764
v -0.4070578 1.0180483 -0.11198491
v -0.4689234 1.0831424 0.04897905
v -0.45510358 1.088013 -0.10897414
v -0.56225914 1.150872 -0.10526993
v -0.5600691 1.1483258 0.036828052
v -0.7377034 1.1481385 -0.09963828
v -0.75323296 1.1519283 0.033994175
v 0.14657508 0.73797935 -0.061169885
v -0.31151006 0.59495384 -0.08194987
v -0.28502867 0.6356274 0.09162668
v 0.13953194 0.77195126 0.09716119
v 0.25677663 0.8883977 -0.06001381
v 0.25076944 0.9191783 0.081541784
v 0.24362467 1.0094309 -0.052994337
v 0.23847935 1.0374733 0.07433563
v 0.20330672 1.1654425 -0.04469191
v 0.19874007 1.185145 0.08324115
v 0.034215964 0.8905864 -0.099837855
v -0.29405272 0.8274506 -0.11662083
v -0.31151006 0.59495384 -0.08194987
v 0.14657508 0.73797935 -0.061169885
v 0.080568604 0.9312376 -0.085863836
v 0.25677663 0.8883977 -0.06001381
v 0.09711075 0.9800359 -0.06610446
v 0.24362467 1.0094309 -0.052994337
v 0.20330672 1.1654425 -0.04469191
v 0.064345606 1.1468012 -0.05877875
v -0.300533 0.8595951 0.035793245
v -0.29405272 0.8274506 -0.11662083
v 0.034215964 0.8905864 -0.099837855
v 0.02757403 0.92411685 0.05730228
v 0.080568604 0.9312376 -0.085863836
v 0.07440193 0.9634622 0.063285574
v 0.09711075 0.9800359 -0.06610446
v 0.09138092 1.0109547 0.07536609
v 0.064345606 1.1468012 -0.05877875
v 0.05942139 1.1683022 0.080787614
v 0.064345606 1.1468012 -0.05877875
v 0.20330672 1.1654425 -0.04469191
v 0.05942139 1.1683022 0.080787614
v 0.19874007 1.185145 0.08324115
v -0.7377034 1.1481385 -0.09963828
v -0.67749286 1.2301935 -0.10951609
v -0.6776242 1.2396101 0.041106414
v -0.75323296 1.1519283 0.033994175
v 0.38078308 0.44230226 0.13312912
v 0.4525688 0.47390223 -0.029144296
v 0.1618474 0.14203419 0.059642274
v 0.21305849 0.14353865 -0.09413538
v -0.019110043 0.0910049 -0.13919146
v -0.06537648 0.089551784 -0.0017911257
v 0.119178206 0.3098494 -0.124725945
v 0.23722321 0.5516317 -0.08523359
v 0.0094864145 0.2719197 -0.13697945
v 0.06839613 0.30796713 0.027848898
v 0.18832956 0.54969597 0.06279017
v -0.039130654 0.2701603 0.007780038
v -0.039423212 0.27581295 -0.13668236
v -0.085906155 0.2741704 0.00057399395
v -0.18743482 0.37200007 -0.1387398
v -0.22582884 0.37016138 -0.026521316
v -0.12182447 0.15141071 -0.15205893
v -0.1638623 0.15000366 -0.028541442
v -0.24029279 0.2400436 -0.14664014
v -0.2750438 0.23845105 -0.045631982
v -0.18743482 0.37200007 -0.1387398
v -0.22582884 0.37016138 -0.026521316
v -0.2750438 0.23845105 -0.045631982
v -0.24029279 0.2400436 -0.14664014
vt 0.91643983 0.9797528
vt 0.8982213 0.9797528
vt 0.8982213 0.9585365
vt 0.9997998 0.9376287
vt 0.9997998 0.9578187
vt 0.99042207 0.9578187
vt 0.99042207 0.9376287
vt 0.9997998 0.9344073
vt 0.9776488 0.9376287
vt 0.9776488 0.9578187
vt 0.9597283 0.9578187
vt 0.9597283 0.9376287
vt 0.9465464 0.9578187
vt 0.9465464 0.9376287
vt 0.9351502 0.9578187
vt 0.9351502 0.9376287
vt 0.926832 0.9376287
vt 0.926832 0.9578187
vt 0.9152804 0.9376287
vt 0.9152804 0.9578187
vt 0.90424377 0.9376287
vt 0.90424377 0.9578187
vt 0.8957191 0.9376287
vt 0.8957191 0.9578187
vt 0.8877515 0.9578187
vt 0.8877515 0.9376287
vt 0.8774356 0.9376287
vt 0.8774356 0.9578187
vt 0.99042207 0.9376287
vt 0.9997998 0.9181764
vt 0.9997998 0.9344073
vt 0.98489076 0.9181764
vt 0.9776488 0.9376287
vt 0.9597283 0.9181764
vt 0.9597283 0.9376287
vt 0.9465464 0.9376287
vt 0.9465464 0.9181764
vt 0.941685 0.9181764
vt 0.9351502 0.9376287
vt 0.9351502 0.9181764
vt 0.926832 0.9181764
vt 0.926832 0.9376287
vt 0.9152804 0.9181764
vt 0.9152804 0.9376287
vt 0.90424377 0.9181764
vt 0.90424377 0.9376287
vt 0.8957191 0.9181764
vt 0.8957191 0.9376287
vt 0.8877515 0.9376287
vt 0.8877515 0.9181764
vt 0.8774356 0.9376287
vt 0.8774356 0.9181764
vt 0.9997998 0.9181764
vt 0.9997998 0.9181764
vt 0.98489076 0.9181764
vt 0.98489076 0.9181764
vt 0.9597283 0.9181764
vt 0.9597283 0.9181764
vt 0.9465464 0.9181764
vt 0.9465464 0.9181764
vt 0.941685 0.9181764
vt 0.941685 0.9181764
vt 0.9351502 0.9181764
vt 0.9351502 0.9181764
vt 0.926832 0.9181764
vt 0.926832 0.9181764
vt 0.9152804 0.9181764
vt 0.9152804 0.9181764
vt 0.90424377 0.9181764
vt 0.90424377 0.9181764
vt 0.8957191 0.9181764
vt 0.8957191 0.9181764
vt 0.8877515 0.9181764
vt 0.8877515 0.9181764
vt 0.8774356 0.9181764
vt 0.8774356 0.9181764
vt 0.9456826 0.9585365
vt 0.99498695 0.9585365
vt 0.99517757 0.9578187
vt 0.9456826 0.9578187
vt 0.9262696 0.9585365
vt 0.9262696 0.9578187
vt 0.91643983 0.9585365
vt 0.91643983 0.9578187
vt 0.8982213 0.9585365
vt 0.8982213 0.9578187
vt 0.9456826 0.9797528
vt 0.99498695 0.9797528
vt 0.99498695 0.9585365
vt 0.9456826 0.9585365
vt 0.9262696 0.9797528
vt 0.9262696 0.9585365
vt 0.91643983 0.9797528
vt 0.91643983 0.9585365
vt 0.8982213 0.9585365
vt 0.8982213 0.9797528
vt 0.99498695 0.9992033
vt 0.99498695 0.9797528
vt 0.9456826 0.9797528
vt 0.9456826 0.9992033
vt 0.9262696 0.9797528
vt 0.9262696 0.9992033
vt 0.91643983 0.9797528
vt 0.91643983 0.9992033
vt 0.8982213 0.9797528
vt 0.8982213 0.9992033
vt 0.873126 0.9856769
vt 0.873126 0.9515279
vt 0.838456 0.9856769
vt 0.838456 0.9515279
vt 0.8729822 0.9856272
vt 0.8729822 0.9514811
vt 0.83843046 0.9514811
vt 0.83843046 0.9856272
vt 0.99517757 0.9578187
vt 0.99498695 0.9585365
vt 0.9456826 0.9578187
vt 0.9456826 0.9585365
vt 0.9262696 0.9585365
vt 0.9262696 0.9578187
vt 0.9456826 0.9797528
vt 0.99498695 0.9797528
vt 0.9262696 0.9797528
vt 0.9456826 0.9992033
vt 0.99498695 0.9992033
vt 0.9262696 0.9992033
vt 0.91643983 0.9797528
vt 0.91643983 0.9992033
vt 0.8982213 0.9797528
vt 0.8982213 0.9992033
vt 0.91643983 0.9585365
vt 0.91643983 0.9578187
vt 0.8982213 0.9585365
vt 0.8982213 0.9578187
vt 0.873126 0.9856769
vt 0.838456 0.9856769
vt 0.838456 0.9515279
vt 0.873126 0.9515279
vn 0.04182531 0.043009 -0.9981988
vn 0.04182531 0.043009 -0.9981988
vn 0.04182531 0.043009005 -0.9981988
vn 0.9179306 0.2155965 -0.33304897
vn 0.9726983 0.22139625 -0.06958272
vn 0.9065498 0.4141457 -0.08155285
vn 0.9074264 0.40669328 -0.105726115
vn 0.78372765 0.18670389 -0.5923787
vn 0.57759356 0.81175554 -0.08624717
vn 0.5647399 0.8206068 -0.08759783
vn 0.10142035 0.9923585 -0.07027524
vn 0.09984891 0.9930193 -0.06279304
vn 0.027387151 0.9976693 -0.062496647
vn 0.026583634 0.9973597 -0.06757938
vn 0.49433053 0.86493 -0.08679573
vn 0.50325125 0.8591886 -0.09237486
vn 0.9610473 0.2664042 -0.07359913
vn 0.9669084 0.24570327 -0.06868773
vn 0.9969965 0.056920025 -0.052518055
vn 0.99578357 0.07628837 -0.050943024
vn 0.86607677 0.49328086 -0.08114798
vn 0.8583079 0.50766706 -0.0747102
vn 0.50965005 0.85597205 -0.08699785
vn 0.4939599 0.8659574 -0.07823975
vn 0.13020498 0.98808575 -0.08205559
vn 0.14385898 0.98549277 -0.09004794
vn -0.024713818 0.99644995 -0.080478504
vn -0.046767868 0.99695694 -0.06236777
vn 0.0068459827 0.044174176 -0.9990004
vn 0.0022113796 0.08247741 -0.9965905
vn 0.004151094 0.080503106 -0.9967457
vn -0.0021634535 0.029000107 -0.9995771
vn -0.0024489083 -0.010159821 -0.9999454
vn -0.019946966 -0.023236344 -0.99953103
vn -0.007870595 -0.016965037 -0.9998252
vn -0.03025372 -0.053833403 -0.9980915
vn -0.041266654 -0.06821399 -0.99681693
vn -0.040084682 -0.0667766 -0.99696237
vn -0.058930486 -0.06771926 -0.99596256
vn -0.06874775 -0.061885484 -0.99571276
vn -0.090140834 -0.034047157 -0.99534684
vn -0.0894195 -0.029173657 -0.99556667
vn -0.09484575 0.0099631455 -0.99544203
vn -0.09427954 0.0037599627 -0.99553865
vn -0.10304489 -0.026808787 -0.9943153
vn -0.10863616 -0.04545352 -0.9930419
vn -0.09366146 -0.07610235 -0.9926912
vn -0.08837607 -0.07764113 -0.99305665
vn -0.074756734 -0.1285457 -0.9888819
vn -0.08169626 -0.12915324 -0.9882536
vn -0.039030146 -0.10986649 -0.9931798
vn -0.030413637 -0.09743445 -0.9947771
vn -0.9775353 -0.18246327 -0.10550708
vn -0.9792935 -0.17623745 -0.09962238
vn -0.85879534 -0.5064866 -0.07708373
vn -0.83625853 -0.5429727 -0.07650035
vn -0.31537125 -0.94794714 -0.044013858
vn -0.28838173 -0.95665145 -0.040668923
vn -0.05727402 -0.9976636 -0.037243325
vn -0.073148325 -0.99631846 -0.044708814
vn -0.33554235 -0.94015485 -0.059330694
vn -0.35001707 -0.93363523 -0.07624439
vn -0.7669307 -0.6368586 -0.078921154
vn -0.75466394 -0.6530993 -0.062799044
vn -0.9895901 -0.08950503 -0.1126959
vn -0.9879232 -0.09375906 -0.12335703
vn -0.99064773 0.023823146 -0.13434851
vn -0.9914595 0.011477363 -0.12990864
vn -0.94491017 -0.3010968 -0.12839621
vn -0.93893987 -0.32214174 -0.120899156
vn -0.72078437 -0.68861943 -0.079203576
vn -0.68869513 -0.72034574 -0.082468785
vn -0.27451813 -0.9610066 -0.033258595
vn -0.31990993 -0.9474434 -0.0029680233
vn -0.005424387 -0.9999497 0.00843325
vn -0.019023854 -0.99947745 0.026134644
vn 0.553733 -0.80990905 0.19346079
vn 0.28600124 -0.94173265 0.17703928
vn 0.28803813 -0.9397521 0.18411945
vn 0.58092546 -0.79015666 0.19539216
vn 0.9451361 -0.30858898 0.10719446
vn 0.96845955 -0.23201898 0.09084685
vn 0.9860831 0.16620438 0.0040069674
vn 0.98172784 0.19028847 0.0008416732
vn 0.9665866 0.25613546 -0.010249244
vn 0.96554613 0.2601718 -0.0056022117
vn 0.18843693 -0.103179626 -0.9766501
vn 0.07976323 -0.1528799 -0.9850205
vn 0.08641366 -0.16054931 -0.98323786
vn 0.13477851 -0.12102865 -0.98345655
vn 0.22208387 0.092797935 -0.9706015
vn 0.11736413 0.023042735 -0.99282163
vn 0.13113998 0.15892167 -0.9785429
vn 0.075147465 0.069109276 -0.9947747
vn 0.08423357 0.06657534 -0.99421954
vn 0.0924507 0.06181991 -0.99379635
vn -0.17450407 0.96180046 -0.21092246
vn -0.1742661 0.96198124 -0.21029375
vn -0.3769573 0.90254056 -0.20814337
vn -0.42598 0.88083017 -0.2065897
vn -0.7463222 0.6437308 -0.16915584
vn -0.82644445 0.5422819 -0.15139279
vn -0.98503137 0.15574482 -0.07387009
vn -0.99869114 0.02012918 -0.047018643
vn -0.9805726 -0.19615418 -0.0010195493
vn -0.9800081 -0.19891834 -0.0039325785
vn -0.11587086 0.98106015 -0.1552251
vn -0.11587096 0.98106015 -0.15522522
vn -0.115870945 0.98106015 -0.1552252
vn -0.115871035 0.98106015 -0.15522528
vn -0.7846536 0.61644405 -0.0656916
vn -0.8078125 0.58824676 -0.037480135
vn -0.7745615 0.6277513 -0.07734833
vn -0.748836 0.65429187 -0.10557879
vn 0.762249 -0.6092703 0.21855494
vn 0.7469792 -0.43763706 -0.5004957
vn 0.51102227 -0.84492797 0.157965
vn 0.5581586 -0.6587255 -0.5045193
vn 0.01086572 -0.75217205 -0.6588772
vn -0.15948899 -0.98506784 -0.064843155
vn -0.19209073 0.38140577 -0.90422934
vn -0.36661476 0.32222784 -0.87279034
vn -0.024327269 0.61296666 -0.7897341
vn -0.6105375 0.7679382 -0.19368768
vn -0.84540474 0.458943 -0.2732436
vn -0.10084047 0.99466455 -0.021760995
vn 0.23468997 0.7503753 -0.6179462
vn 0.33680674 0.9330506 0.12640402
vn -0.16342981 0.9856436 -0.04239371
vn -0.31916884 0.94304967 -0.093747504
vn -0.30109993 -0.5162467 -0.8017657
vn -0.53975564 -0.8191096 -0.19422458
vn -0.8047336 -0.24007836 -0.5429238
vn -0.92083025 -0.22319545 -0.31977418
vn -0.16342981 0.9856436 -0.04239371
vn -0.31916884 0.94304967 -0.093747504
vn -0.92083025 -0.22319545 -0.31977418
vn -0.8047336 -0.24007836 -0.5429238
g gate_wood_2_0
f 3/3/3 2/2/2 1/1/1
f 6/6/6 5/5/5 4/4/4
f 7/7/7 6/6/6 4/4/4
f 4/4/4 8/8/8 7/7/7
f 6/6/6 7/7/7 9/9/9
f 9/9/9 10/10/10 6/6/6
f 11/11/11 10/10/10 9/9/9
f 12/12/12 11/11/11 9/9/9
f 13/13/13 11/11/11 12/12/12
f 12/12/12 14/14/14 13/13/13
f 15/15/15 13/13/13 14/14/14
f 14/14/14 16/16/16 15/15/15
f 15/15/15 16/16/16 17/17/17
f 17/17/17 18/18/18 15/15/15
f 19/19/19 18/18/18 17/17/17
f 20/20/20 18/18/18 19/19/19
f 21/21/21 20/20/20 19/19/19
f 22/22/22 20/20/20 21/21/21
f 21/21/21 23/23/23 22/22/22
f 24/24/24 22/22/22 23/23/23
f 25/25/25 24/24/24 23/23/23
f 23/23/23 26/26/26 25/25/25
f 27/27/27 25/25/25 26/26/26
f 28/28/28 25/25/25 27/27/27
f 31/31/31 30/30/30 29/29/29
f 29/29/29 30/30/30 32/32/32
f 29/29/29 32/32/32 33/33/33
f 34/34/34 33/33/33 32/32/32
f 34/34/34 35/35/35 33/33/33
f 36/36/36 35/35/35 34/34/34
f 34/34/34 37/37/37 36/36/36
f 38/38/38 36/36/36 37/37/37
f 38/38/38 39/39/39 36/36/36
f 40/40/40 39/39/39 38/38/38
f 39/39/39 40/40/40 41/41/41
f 41/41/41 42/42/42 39/39/39
f 42/42/42 41/41/41 43/43/43
f 42/42/42 43/43/43 44/44/44
f 44/44/44 43/43/43 45/45/45
f 44/44/44 45/45/45 46/46/46
f 46/46/46 45/45/45 47/47/47
f 47/47/47 48/48/48 46/46/46
f 49/49/49 48/48/48 47/47/47
f 47/47/47 50/50/50 49/49/49
f 49/49/49 50/50/50 51/51/51
f 52/52/52 51/51/51 50/50/50
f 55/55/55 54/54/54 53/53/53
f 53/53/53 56/56/56 55/55/55
f 56/56/56 57/57/57 55/55/55
f 55/55/55 57/57/57 58/58/58
f 58/58/58 57/57/57 59/59/59
f 59/59/59 60/60/60 58/58/58
f 60/60/60 59/59/59 61/61/61
f 61/61/61 62/62/62 60/60/60
f 62/62/62 61/61/61 63/63/63
f 61/61/61 64/64/64 63/63/63
f 63/63/63 64/64/64 65/65/65
f 65/65/65 66/66/66 63/63/63
f 66/66/66 65/65/65 67/67/67
f 65/65/65 68/68/68 67/67/67
f 67/67/67 68/68/68 69/69/69
f 69/69/69 70/70/70 67/67/67
f 70/70/70 69/69/69 71/71/71
f 71/71/71 72/72/72 70/70/70
f 72/72/72 71/71/71 73/73/73
f 71/71/71 74/74/74 73/73/73
f 75/75/75 73/73/73 74/74/74
f 74/74/74 76/76/76 75/75/75
f 79/79/79 78/78/78 77/77/77
f 77/77/77 80/80/80 79/79/79
f 80/80/80 77/77/77 81/81/81
f 81/81/81 82/82/82 80/80/80
f 82/82/82 81/81/81 83/83/83
f 83/83/83 84/84/84 82/82/82
f 84/84/84 83/83/83 85/85/85
f 85/85/85 86/86/86 84/84/84
f 89/89/89 88/88/88 87/87/87
f 87/87/87 90/90/90 89/89/89
f 90/90/90 87/87/87 91/91/91
f 91/91/91 92/92/92 90/90/90
f 91/91/91 93/93/93 92/92/92
f 94/94/94 92/92/92 93/93/93
f 95/95/95 94/94/94 93/93/93
f 93/93/93 96/96/96 95/95/95
f 99/99/99 98/98/98 97/97/97
f 97/97/97 100/100/100 99/99/99
f 101/101/101 99/99/99 100/100/100
f 100/100/100 102/102/102 101/101/101
f 103/103/103 101/101/101 102/102/102
f 102/102/102 104/104/104 103/103/103
f 105/105/105 103/103/103 104/104/104
f 104/104/104 106/106/106 105/105/105
f 109/109/109 108/108/108 107/107/107
f 109/109/109 110/110/110 108/108/108
f 113/113/113 112/112/112 111/111/111
f 111/111/111 114/114/114 113/113/113
f 117/117/117 116/116/116 115/115/115
f 116/116/116 117/117/117 118/118/118
f 119/119/119 118/118/118 117/117/117
f 117/117/117 120/120/120 119/119/119
f 116/116/116 118/118/118 121/121/121
f 121/121/121 122/122/122 116/116/116
f 123/123/123 121/121/121 118/118/118
f 118/118/118 119/119/119 123/123/123
f 121/121/121 124/124/124 122/122/122
f 124/124/124 121/121/121 123/123/123
f 124/124/124 125/125/125 122/122/122
f 123/123/123 126/126/126 124/124/124
f 126/126/126 123/123/123 127/127/127
f 127/127/127 123/123/123 119/119/119
f 127/127/127 128/128/128 126/126/126
f 128/128/128 127/127/127 129/129/129
f 129/129/129 130/130/130 128/128/128
f 131/131/131 119/119/119 120/120/120
f 119/119/119 131/131/131 127/127/127
f 120/120/120 132/132/132 131/131/131
f 127/127/127 131/131/131 133/133/133
f 132/132/132 133/133/133 131/131/131
f 134/134/134 133/133/133 132/132/132
f 137/137/137 136/136/136 135/135/135
f 135/135/135 138/138/138 137/137/137
