g grow_ancient_S2
v 0.52363986 0.0100697065 -0.4968658
v 0.83404946 0.010069506 -0.4968658
v 0.8340504 0.010069991 0.5033814
v 0.5236408 0.010070043 0.50350106
v -0.52364016 0.010069877 -0.4968658
v -0.5236404 0.010070213 0.5035014
v -0.83405006 0.0100702625 0.50338197
v -0.83405006 0.010069778 -0.4968658
vt 0.9017554 0.17125484
vt 0.9017554 0.0069185537
vt 0.81892294 0.0069185537
vt 0.81892294 0.17125484
vt 0.9017554 0.17125484
vt 0.81892294 0.17125484
vt 0.81892294 0.0069185537
vt 0.9017554 0.0069185537
vn 4.0501732E-07 1 -4.1072408E-07
vn 4.0501735E-07 1 -4.1072406E-07
vn 4.0501732E-07 1 -4.1072403E-07
vn 4.0501735E-07 1 -4.1072408E-07
vn -0 1 -4.1042344E-07
vn -0 1 -4.1042344E-07
vn -0 1 -4.1042344E-07
vn -0 1 -4.104234E-07
g grow_ancient_S2_0
f 3/3/3 2/2/2 1/1/1
f 4/4/4 3/3/3 1/1/1
f 7/7/7 6/6/6 5/5/5
f 8/8/8 7/7/7 5/5/5
