g hallway_triangle 
v 1.9722657E-09 0.28721938 -0.014960687
v -0.23019494 -0.08868729 -0.14786376
v 0.23019493 -0.08868734 -0.14786378
v -0.012956367 0.28721946 0.0074803466
v -0.012956334 -0.08868724 0.27328658
v -0.2431513 -0.08868725 -0.12542273
v 0.012956377 0.28721946 0.0074803415
v 0.24315129 -0.088687256 -0.12542278
v 0.012956418 -0.08868725 0.27328658
v 0.23120214 -0.10984496 -0.13348466
v -0.23120211 -0.10984495 -0.13348457
v 2.6163738E-08 -0.10984492 0.26696923
v 2.0124984E-15 0.39271694 -4.025063E-15
v 2.1249627E-09 0.31111285 -0.03136984
v 0.24496695 -0.088916436 -0.17280155
v 2.0124984E-15 0.39271694 -4.025063E-15
v 0.32065213 -0.13090564 -0.1851286
v 0.32065213 -0.13090564 -0.1851286
v 0.24496695 -0.088916436 -0.17280155
v -0.24496692 -0.08891643 -0.17280155
v 0.32065213 -0.13090564 -0.1851286
v -0.3206521 -0.13090564 -0.18512855
v 3.3493905E-08 -0.13090564 0.3702572
v 0.027167402 -0.0889164 0.29854846
v 0.27213424 -0.088916406 -0.12574683
v 3.3493905E-08 -0.13090564 0.3702572
v 0.32065213 -0.13090564 -0.1851286
v 2.0124984E-15 0.39271694 -4.025063E-15
v -0.027167318 0.31111294 0.015684923
v -0.2721343 -0.08891637 -0.12574679
v 2.0124984E-15 0.39271694 -4.025063E-15
v -0.3206521 -0.13090564 -0.18512855
v -0.3206521 -0.13090564 -0.18512855
v -0.2721343 -0.08891637 -0.12574679
v -0.027167305 -0.0889164 0.2985484
v -0.3206521 -0.13090564 -0.18512855
v 3.3493905E-08 -0.13090564 0.3702572
v -0.3206521 -0.13090564 -0.18512855
v -0.24496692 -0.08891643 -0.17280155
v 2.1249627E-09 0.31111285 -0.03136984
v 2.0124984E-15 0.39271694 -4.025063E-15
v 0.32065213 -0.13090564 -0.1851286
v 0.27213424 -0.088916406 -0.12574683
v 0.027167337 0.31111294 0.01568491
v 2.0124984E-15 0.39271694 -4.025063E-15
v 2.0124984E-15 0.39271694 -4.025063E-15
v 0.027167337 0.31111294 0.01568491
v 0.027167402 -0.0889164 0.29854846
v 3.3493905E-08 -0.13090564 0.3702572
v 3.3493905E-08 -0.13090564 0.3702572
v -0.027167305 -0.0889164 0.2985484
v -0.027167318 0.31111294 0.015684923
v 2.0124984E-15 0.39271694 -4.025063E-15
v -0.3206521 -0.13090564 -0.18512855
v -0.2458737 -0.1332801 -0.14195521
v 0.24587373 -0.13328011 -0.1419553
v 0.32065213 -0.13090564 -0.1851286
v 0.32065213 -0.13090564 -0.1851286
v 0.24587373 -0.13328011 -0.1419553
v 2.6179382E-08 -0.13328007 0.2839105
v 3.3493905E-08 -0.13090564 0.3702572
v 3.3493905E-08 -0.13090564 0.3702572
v 2.6179382E-08 -0.13328007 0.2839105
v -0.2458737 -0.1332801 -0.14195521
v -0.3206521 -0.13090564 -0.18512855
v 2.1249627E-09 0.31111285 -0.03136984
v 1.9722657E-09 0.28721938 -0.014960687
v 0.23019493 -0.08868734 -0.14786378
v 0.24496695 -0.088916436 -0.17280155
v 0.24496695 -0.088916436 -0.17280155
v 0.23019493 -0.08868734 -0.14786378
v -0.23019494 -0.08868729 -0.14786376
v -0.24496692 -0.08891643 -0.17280155
v -0.24496692 -0.08891643 -0.17280155
v -0.23019494 -0.08868729 -0.14786376
v 1.9722657E-09 0.28721938 -0.014960687
v 2.1249627E-09 0.31111285 -0.03136984
v -0.027167318 0.31111294 0.015684923
v -0.012956367 0.28721946 0.0074803466
v -0.2431513 -0.08868725 -0.12542273
v -0.2721343 -0.08891637 -0.12574679
v -0.2721343 -0.08891637 -0.12574679
v -0.2431513 -0.08868725 -0.12542273
v -0.012956334 -0.08868724 0.27328658
v -0.027167305 -0.0889164 0.2985484
v -0.027167305 -0.0889164 0.2985484
v -0.012956334 -0.08868724 0.27328658
v -0.012956367 0.28721946 0.0074803466
v -0.027167318 0.31111294 0.015684923
v 0.27213424 -0.088916406 -0.12574683
v 0.24315129 -0.088687256 -0.12542278
v 0.012956377 0.28721946 0.0074803415
v 0.027167337 0.31111294 0.01568491
v 0.027167337 0.31111294 0.01568491
v 0.012956377 0.28721946 0.0074803415
v 0.012956418 -0.08868725 0.27328658
v 0.027167402 -0.0889164 0.29854846
v 0.027167402 -0.0889164 0.29854846
v 0.012956418 -0.08868725 0.27328658
v 0.24315129 -0.088687256 -0.12542278
v 0.27213424 -0.088916406 -0.12574683
v -0.2458737 -0.1332801 -0.14195521
v -0.23120211 -0.10984495 -0.13348457
v 0.23120214 -0.10984496 -0.13348466
v 0.24587373 -0.13328011 -0.1419553
v 0.24587373 -0.13328011 -0.1419553
v 0.23120214 -0.10984496 -0.13348466
v 2.6163738E-08 -0.10984492 0.26696923
v 2.6179382E-08 -0.13328007 0.2839105
v 2.6179382E-08 -0.13328007 0.2839105
v 2.6163738E-08 -0.10984492 0.26696923
v -0.23120211 -0.10984495 -0.13348457
v -0.2458737 -0.1332801 -0.14195521
vt 0.33549008 0.2554152
vt 0.308614 0.20886445
vt 0.3623661 0.20886445
vt 0.33549008 0.2554152
vt 0.308614 0.20886445
vt 0.3623661 0.20886445
vt 0.33549008 0.2554152
vt 0.308614 0.20886445
vt 0.3623661 0.20886445
vt 0.33549008 0.2554152
vt 0.308614 0.20886445
vt 0.3623661 0.20886445
vt 0.37407267 0.20325197
vt 0.37407267 0.1885532
vt 0.2936967 0.1885532
vt 0.37407267 0.20325197
vt 0.2936967 0.20325197
vt 0.37407267 0.20325197
vt 0.37407267 0.1885532
vt 0.2936967 0.1885532
vt 0.37407267 0.20325197
vt 0.2936967 0.20325197
vt 0.37407267 0.20325197
vt 0.37407267 0.1885532
vt 0.2936967 0.1885532
vt 0.37407267 0.20325197
vt 0.2936967 0.20325197
vt 0.37407267 0.20325197
vt 0.37407267 0.1885532
vt 0.2936967 0.1885532
vt 0.37407267 0.20325197
vt 0.2936967 0.20325197
vt 0.37407267 0.20325197
vt 0.37407267 0.1885532
vt 0.2936967 0.1885532
vt 0.37407267 0.20325197
vt 0.2936967 0.20325197
vt 0.37407267 0.20325197
vt 0.37407267 0.1885532
vt 0.2936967 0.1885532
vt 0.2936967 0.20325197
vt 0.37407267 0.20325197
vt 0.37407267 0.1885532
vt 0.2936967 0.1885532
vt 0.2936967 0.20325197
vt 0.37407267 0.20325197
vt 0.37407267 0.1885532
vt 0.2936967 0.1885532
vt 0.2936967 0.20325197
vt 0.37407267 0.20325197
vt 0.37407267 0.1885532
vt 0.2936967 0.1885532
vt 0.2936967 0.20325197
vt 0.37407267 0.20325197
vt 0.37407267 0.1885532
vt 0.2936967 0.1885532
vt 0.2936967 0.20325197
vt 0.37407267 0.20325197
vt 0.37407267 0.1885532
vt 0.2936967 0.1885532
vt 0.2936967 0.20325197
vt 0.37407267 0.20325197
vt 0.37407267 0.1885532
vt 0.2936967 0.1885532
vt 0.2936967 0.20325197
vt 0.37407267 0.1885532
vt 0.37407267 0.18317443
vt 0.2936967 0.18317443
vt 0.2936967 0.18855323
vt 0.37407267 0.1885532
vt 0.37407267 0.18317443
vt 0.2936967 0.18317443
vt 0.2936967 0.1885532
vt 0.37407267 0.1885532
vt 0.37407267 0.18317443
vt 0.2936967 0.18317443
vt 0.2936967 0.18855323
vt 0.37407267 0.1885532
vt 0.37407267 0.18317443
vt 0.2936967 0.18317443
vt 0.2936967 0.18855323
vt 0.37407267 0.1885532
vt 0.37407267 0.18317443
vt 0.2936967 0.18317443
vt 0.2936967 0.1885532
vt 0.37407267 0.1885532
vt 0.37407267 0.18317443
vt 0.2936967 0.18317443
vt 0.2936967 0.18855323
vt 0.37407267 0.1885532
vt 0.37407267 0.18317443
vt 0.2936967 0.18317443
vt 0.2936967 0.18855323
vt 0.37407267 0.1885532
vt 0.37407267 0.18317443
vt 0.2936967 0.18317443
vt 0.2936967 0.18855323
vt 0.37407267 0.1885532
vt 0.37407267 0.18317443
vt 0.2936967 0.18317443
vt 0.2936967 0.1885532
vt 0.37407267 0.1885532
vt 0.37407267 0.18317443
vt 0.2936967 0.18317443
vt 0.2936967 0.18855323
vt 0.37407267 0.1885532
vt 0.37407267 0.18317443
vt 0.2936967 0.18317443
vt 0.2936967 0.18855323
vt 0.37407267 0.1885532
vt 0.37407267 0.18317443
vt 0.2936967 0.18317443
vt 0.2936967 0.1885532
vn -0 0.33333328 -0.9428091
vn -0 0.33333328 -0.9428091
vn -0 0.33333328 -0.9428091
vn -0.81649655 0.33333328 0.47140455
vn -0.81649655 0.33333328 0.47140455
vn -0.81649655 0.33333328 0.47140455
vn 0.8164966 0.33333337 0.47140434
vn 0.8164966 0.33333334 0.47140434
vn 0.8164966 0.33333334 0.47140434
vn -0 -1 0
vn -0 -1 0
vn -0 -1 0
vn -1.4143116E-07 0.3588161 -0.93340826
vn -1.6724074E-07 0.35881612 -0.93340826
vn 0.023520194 0.3204076 -0.9469877
vn -1.4143116E-07 0.3588161 -0.93340826
vn 0.023520224 0.3204076 -0.9469877
vn 0.023520224 0.3204076 -0.9469877
vn 0.023520194 0.3204076 -0.9469877
vn -0.023520388 0.32040772 -0.9469877
vn 0.023520224 0.3204076 -0.9469877
vn -0.023520442 0.32040775 -0.9469877
vn 0.8083543 0.32040662 0.49386537
vn 0.8083543 0.32040647 0.4938653
vn 0.8318771 0.3204063 0.45312294
vn 0.8083543 0.32040662 0.49386537
vn 0.8318771 0.32040623 0.45312288
vn -0.8083545 0.3588187 0.4667036
vn -0.80835456 0.35881874 0.46670341
vn -0.8318772 0.32040626 0.45312276
vn -0.8083545 0.3588187 0.4667036
vn -0.8318771 0.32040623 0.4531228
vn -0.8318771 0.32040623 0.4531228
vn -0.8318772 0.32040626 0.45312276
vn -0.80835456 0.32040605 0.4938653
vn -0.8318771 0.32040623 0.4531228
vn -0.8083545 0.32040617 0.49386537
vn -0.023520442 0.32040775 -0.9469877
vn -0.023520388 0.32040772 -0.9469877
vn -1.6724074E-07 0.35881612 -0.93340826
vn -1.4143116E-07 0.3588161 -0.93340826
vn 0.8318771 0.32040623 0.45312288
vn 0.8318771 0.3204063 0.45312294
vn 0.8083543 0.35881865 0.46670386
vn 0.80835426 0.35881868 0.466704
vn 0.80835426 0.35881868 0.466704
vn 0.8083543 0.35881865 0.46670386
vn 0.8083543 0.32040647 0.4938653
vn 0.8083543 0.32040662 0.49386537
vn -0.8083545 0.32040617 0.49386537
vn -0.80835456 0.32040605 0.4938653
vn -0.80835456 0.35881874 0.46670341
vn -0.8083545 0.3588187 0.4667036
vn -0.023805732 -0.9996221 -0.013744442
vn -0.023805747 -0.9996221 -0.013744417
vn 0.02380577 -0.9996221 -0.013744395
vn 0.023805784 -0.9996221 -0.013744375
vn 0.023805784 -0.9996221 -0.013744375
vn 0.02380577 -0.9996221 -0.013744395
vn -0 -0.9996221 0.02748855
vn -0 -0.9996221 0.027488558
vn -0 -0.9996221 0.027488558
vn -0 -0.9996221 0.02748855
vn -0.023805747 -0.9996221 -0.013744417
vn -0.023805732 -0.9996221 -0.013744442
vn -0.81380963 -0.32898784 -0.47904155
vn -0.81380963 -0.32898784 -0.47904167
vn -0.81380963 -0.32898778 -0.47904155
vn -0.81380963 -0.32898784 -0.47904167
vn -0 0.9999578 -0.00918722
vn -0 0.9999578 -0.009187221
vn -0 0.9999578 -0.009187221
vn -0 0.9999578 -0.00918722
vn 0.8138099 -0.3289881 -0.47904113
vn 0.8138099 -0.32898808 -0.47904113
vn 0.8138099 -0.32898813 -0.47904113
vn 0.8138099 -0.3289881 -0.47904113
vn -0.007956928 -0.32898796 0.94430053
vn -0.007956952 -0.32898793 0.94430053
vn -0.007956928 -0.32898793 0.94430053
vn -0.007956928 -0.32898793 0.94430053
vn -0.007957022 0.9999578 0.0045940154
vn -0.007957022 0.9999578 0.004594016
vn -0.007957021 0.9999578 0.0045940154
vn -0.007957022 0.9999578 0.0045940154
vn -0.8217626 -0.3289915 -0.46526417
vn -0.8217626 -0.3289915 -0.46526414
vn -0.8217626 -0.3289915 -0.46526408
vn -0.8217626 -0.3289915 -0.46526417
vn 0.007957205 -0.32898793 0.94430053
vn 0.00795718 -0.32898793 0.94430053
vn 0.007957183 -0.3289879 0.94430053
vn 0.00795718 -0.32898793 0.94430053
vn 0.8217626 -0.32899138 -0.4652643
vn 0.8217626 -0.32899138 -0.4652643
vn 0.8217626 -0.32899138 -0.4652643
vn 0.8217626 -0.3289914 -0.4652643
vn 0.007957413 0.9999578 0.0045941877
vn 0.007957412 0.9999578 0.0045941873
vn 0.007957413 0.9999578 0.0045941877
vn 0.007957413 0.9999578 0.0045941877
vn 1.7683114E-07 -0.33992663 0.9404519
vn 1.7683114E-07 -0.33992663 0.9404519
vn 1.7683114E-07 -0.33992663 0.9404519
vn 1.7683114E-07 -0.33992663 0.9404519
vn -0.81445533 -0.33992657 -0.470226
vn -0.81445533 -0.33992657 -0.47022596
vn -0.81445533 -0.33992657 -0.47022596
vn -0.81445533 -0.33992657 -0.47022596
vn 0.8144553 -0.33992663 -0.47022605
vn 0.8144553 -0.33992663 -0.47022605
vn 0.8144553 -0.33992663 -0.47022605
vn 0.8144553 -0.33992663 -0.47022605
g hallway_triangle _0
f 3/3/3 2/2/2 1/1/1
f 6/6/6 5/5/5 4/4/4
f 9/9/9 8/8/8 7/7/7
f 12/12/12 11/11/11 10/10/10
f 15/15/15 14/14/14 13/13/13
f 17/17/17 15/15/15 16/16/16
f 20/20/20 19/19/19 18/18/18
f 22/22/22 20/20/20 21/21/21
f 25/25/25 24/24/24 23/23/23
f 27/27/27 25/25/25 26/26/26
f 30/30/30 29/29/29 28/28/28
f 32/32/32 30/30/30 31/31/31
f 35/35/35 34/34/34 33/33/33
f 37/37/37 35/35/35 36/36/36
f 40/40/40 39/39/39 38/38/38
f 41/41/41 40/40/40 38/38/38
f 44/44/44 43/43/43 42/42/42
f 45/45/45 44/44/44 42/42/42
f 48/48/48 47/47/47 46/46/46
f 49/49/49 48/48/48 46/46/46
f 52/52/52 51/51/51 50/50/50
f 53/53/53 52/52/52 50/50/50
f 56/56/56 55/55/55 54/54/54
f 57/57/57 56/56/56 54/54/54
f 60/60/60 59/59/59 58/58/58
f 61/61/61 60/60/60 58/58/58
f 64/64/64 63/63/63 62/62/62
f 65/65/65 64/64/64 62/62/62
f 68/68/68 67/67/67 66/66/66
f 69/69/69 68/68/68 66/66/66
f 72/72/72 71/71/71 70/70/70
f 73/73/73 72/72/72 70/70/70
f 76/76/76 75/75/75 74/74/74
f 77/77/77 76/76/76 74/74/74
f 80/80/80 79/79/79 78/78/78
f 81/81/81 80/80/80 78/78/78
f 84/84/84 83/83/83 82/82/82
f 85/85/85 84/84/84 82/82/82
f 88/88/88 87/87/87 86/86/86
f 89/89/89 88/88/88 86/86/86
f 92/92/92 91/91/91 90/90/90
f 93/93/93 92/92/92 90/90/90
f 96/96/96 95/95/95 94/94/94
f 97/97/97 96/96/96 94/94/94
f 100/100/100 99/99/99 98/98/98
f 101/101/101 100/100/100 98/98/98
f 104/104/104 103/103/103 102/102/102
f 105/105/105 104/104/104 102/102/102
f 108/108/108 107/107/107 106/106/106
f 109/109/109 108/108/108 106/106/106
f 112/112/112 111/111/111 110/110/110
f 113/113/113 112/112/112 110/110/110
