g heroes_cube02
v 0.18236884 0.18204424 -0.1822089
v -0.18194458 0.18204427 -0.1822089
v -0.18194465 -0.18226877 -0.18220915
v 0.1823687 -0.18226862 -0.18220915
v -0.18194465 -0.18226877 0.18210392
v -0.18194458 0.18204427 -0.1822089
v -0.1819445 0.1820442 0.1821036
v 0.18236847 0.1820442 0.1821036
v -0.18194465 -0.18226877 0.18210392
v -0.1819445 0.1820442 0.1821036
v 0.18236808 -0.18226877 0.18210392
v -0.18194465 -0.18226877 -0.18220915
v 0.1823687 -0.18226862 -0.18220915
v 0.18236884 0.18204424 -0.1822089
v -0.1819445 0.1820442 0.1821036
v -0.18194458 0.18204427 -0.1822089
v 0.18236884 0.18204424 -0.1822089
v 0.18236847 0.1820442 0.1821036
vt 0.04545721 0.6914902
vt 0.097668655 0.67889905
vt 0.09608082 0.60811085
vt 0.02785037 0.62625945
vt 0.097668655 0.67889905
vt 0.02785037 0.62625945
vt 0.04545721 0.6914902
vt 0.105490744 0.71391064
vt 0.0020053415 0.6036589
vt 0.0026847785 0.7114983
vt 0.105490744 0.6036589
vt 0.056298193 0.5636141
vt 0.14778407 0.5661126
vt 0.14629334 0.67997426
vt 0.097668655 0.67889905
vt 0.09608082 0.60811085
vt 0.02785037 0.62625945
vt 0.04545721 0.6914902
vn 0.57735085 0.5773502 -0.57734966
vn -0.57735026 0.57735056 -0.57735
vn -0.5773503 -0.5773501 -0.57735044
vn 0.57735056 -0.57735 -0.57735026
vn -0.5773503 -0.5773501 0.57735044
vn -0.57735026 0.57735056 -0.57735
vn -0.57735014 0.5773505 0.57735014
vn 0.5773502 0.5773502 0.5773503
vn -0.5773503 -0.5773501 0.57735044
vn -0.57735014 0.5773505 0.57735014
vn 0.5773495 -0.57735044 0.5773509
vn -0.5773503 -0.5773501 -0.57735044
vn 0.57735056 -0.57735 -0.57735026
vn 0.57735085 0.5773502 -0.57734966
vn -0.57735014 0.5773505 0.57735014
vn -0.57735026 0.57735056 -0.57735
vn 0.57735085 0.5773502 -0.57734966
vn 0.5773502 0.5773502 0.5773503
g heroes_cube02_0
f 3/3/3 2/2/2 1/1/1
f 4/4/4 3/3/3 1/1/1
f 6/6/6 3/3/3 5/5/5
f 7/7/7 6/6/6 5/5/5
f 10/10/10 9/9/9 8/8/8
f 9/9/9 11/11/11 8/8/8
f 9/9/9 12/12/12 11/11/11
f 12/12/12 13/13/13 11/11/11
f 11/11/11 13/13/13 8/8/8
f 13/13/13 14/14/14 8/8/8
f 17/17/17 16/16/16 15/15/15
f 18/18/18 17/17/17 15/15/15
