g house1_column
v 0.2071601 0.6088497 -0.6087719
v 0.24522093 0.6088479 -1.010135
v 0.24522108 0.90899634 -0.96842116
v 0.2071601 0.90981215 -0.593819
v 0.3003023 1.3362995 -0.57466906
v 0.3261537 2.159062 -0.729194
v 0.30026296 2.1590614 -0.5433914
v 0.3261878 1.3361797 -0.80387586
v 0.30513784 0.963412 -0.8615253
v 0.27608657 0.9639788 -0.5912524
v 0.2071601 0.90981215 -0.593819
v 0.24522108 0.90899634 -0.96842116
v 0.30513784 0.963412 -0.8615253
v 0.27608657 0.9639788 -0.5912524
v 0.24522093 0.6088479 -1.010135
v 0.761958 0.6088493 -1.0101342
v 0.7619577 0.90899795 -0.96842057
v 0.24522108 0.90899634 -0.96842116
v 0.761958 0.6088493 -1.0101342
v 0.801608 0.6088511 -0.60877144
v 0.8016086 0.90981376 -0.5938189
v 0.7619577 0.90899795 -0.96842057
v 0.66411877 1.3361809 -0.80387545
v 0.6891567 2.1590633 -0.5433914
v 0.66412765 2.1590633 -0.7291934
v 0.6891456 1.3363007 -0.5746689
v 0.7133978 0.9639801 -0.5912524
v 0.68512756 0.9634132 -0.861525
v 0.66411877 1.3361809 -0.80387545
v 0.30513784 0.963412 -0.8615253
v 0.68512756 0.9634132 -0.861525
v 0.3261878 1.3361797 -0.80387586
v 0.3261537 2.159062 -0.729194
v 0.66412765 2.1590633 -0.7291934
v 0.8016086 0.90981376 -0.5938189
v 0.7133978 0.9639801 -0.5912524
v 0.68512756 0.9634132 -0.861525
v 0.7619577 0.90899795 -0.96842057
v 0.24522108 0.90899634 -0.96842116
v 0.7619577 0.90899795 -0.96842057
v 0.68512756 0.9634132 -0.861525
v 0.30513784 0.963412 -0.8615253
v 0.32935497 2.1855607 -0.55994815
v 0.35028827 2.1855612 -0.70830816
v 0.63991773 2.185562 -0.70830756
v 0.6601529 2.185562 -0.55994815
v 0.30026296 2.1590614 -0.5433914
v 0.3261537 2.159062 -0.729194
v 0.35028827 2.1855612 -0.70830816
v 0.32935497 2.1855607 -0.55994815
v 0.32935497 2.1855607 -0.55994815
v 0.6601529 2.185562 -0.55994815
v 0.6891567 2.1590633 -0.5433914
v 0.30026296 2.1590614 -0.5433914
v 0.66412765 2.1590633 -0.7291934
v 0.6891567 2.1590633 -0.5433914
v 0.6601529 2.185562 -0.55994815
v 0.63991773 2.185562 -0.70830756
v 0.3261537 2.159062 -0.729194
v 0.66412765 2.1590633 -0.7291934
v 0.63991773 2.185562 -0.70830756
v 0.35028827 2.1855612 -0.70830816
vt 0.080388896 0.55901235
vt 0.09713331 0.55901235
vt 0.09713331 0.56394666
vt 0.080388896 0.56394666
vt 0.12118125 0.45613754
vt 0.09891269 0.49424037
vt 0.12118125 0.49424037
vt 0.09891269 0.45613754
vt 0.09891269 0.43717396
vt 0.12118125 0.43717396
vt 0.080388896 0.56394666
vt 0.09713331 0.56394666
vt 0.09713331 0.568425
vt 0.080388896 0.568425
vt 0.09713331 0.55901235
vt 0.080389045 0.55901235
vt 0.080389045 0.56394666
vt 0.09713331 0.56394666
vt 0.09713331 0.55901235
vt 0.080388926 0.55901235
vt 0.080388926 0.56394666
vt 0.09713331 0.56394666
vt 0.09891269 0.45613754
vt 0.07781066 0.49424037
vt 0.09891269 0.49424037
vt 0.07781066 0.45613754
vt 0.07781066 0.43717396
vt 0.09891269 0.43717396
vt 0.12118125 0.45613754
vt 0.09891269 0.43717396
vt 0.12118125 0.43717396
vt 0.09891269 0.45613754
vt 0.09891269 0.49424037
vt 0.12118125 0.49424037
vt 0.080388926 0.56394666
vt 0.080388956 0.568425
vt 0.09713331 0.568425
vt 0.09713331 0.56394666
vt 0.09713331 0.56394666
vt 0.080389045 0.56394666
vt 0.080389045 0.568425
vt 0.09713331 0.568425
vt 0.081123725 0.49934524
vt 0.081123725 0.4971709
vt 0.0836864 0.49717137
vt 0.08368624 0.49934524
vt 0.0812355 0.49956208
vt 0.08121951 0.49687052
vt 0.081123725 0.4971709
vt 0.081123725 0.49934524
vt 0.081123725 0.49934524
vt 0.08368624 0.49934524
vt 0.08388615 0.4994022
vt 0.08090709 0.49940056
vt 0.083565086 0.4968768
vt 0.083551385 0.49956858
vt 0.08368624 0.49934524
vt 0.0836864 0.49717137
vt 0.080876164 0.4972751
vt 0.08390887 0.4972756
vt 0.0836864 0.49717137
vt 0.081123725 0.4971709
vn -0.99517965 0.009204443 -0.097636305
vn -0.99517953 0.009204442 -0.097636305
vn -0.99517965 0.009204443 -0.09763631
vn -0.99517965 0.009204443 -0.0976363
vn -0.99240863 0.038777646 -0.11671086
vn -0.9922758 0.007926787 -0.12379778
vn -0.9922758 0.007926787 -0.123797774
vn -0.99236697 0.041879985 -0.11599123
vn -0.99147874 0.0711088 -0.10914851
vn -0.99147874 0.07110881 -0.10914852
vn -0.61009127 0.7896452 -0.065185376
vn -0.61009127 0.7896452 -0.065185376
vn -0.6100913 0.78964514 -0.06518537
vn -0.6100913 0.78964514 -0.065185376
vn 1.0733688E-06 0.13765405 -0.99048036
vn 1.0733689E-06 0.13765407 -0.99048036
vn 1.0733687E-06 0.13765407 -0.99048036
vn 1.0733688E-06 0.13765405 -0.99048036
vn 0.9947718 0.009584053 -0.10167241
vn 0.9947718 0.009584053 -0.10167241
vn 0.9947718 0.009584053 -0.10167241
vn 0.9947718 0.009584053 -0.1016724
vn 0.9927931 0.041613393 -0.112385064
vn 0.99277484 0.007698065 -0.11974491
vn 0.99277484 0.007698064 -0.11974493
vn 0.9928411 0.038509168 -0.113064796
vn 0.9918493 0.070804656 -0.105933
vn 0.9918493 0.070804656 -0.10593301
vn 8.934744E-07 0.12221407 -0.99250376
vn 5.513902E-07 0.15283568 -0.9882516
vn 5.5139026E-07 0.1528357 -0.9882516
vn 8.934644E-07 0.12221494 -0.99250364
vn 1.2467714E-06 0.09038508 -0.99590683
vn 1.2467715E-06 0.09038507 -0.99590683
vn 0.52216053 0.8509522 -0.056821015
vn 0.52216053 0.8509522 -0.056821022
vn 0.52216053 0.8509522 -0.056821015
vn 0.52216053 0.8509522 -0.056821015
vn -2.2827878E-06 0.8911772 -0.4536553
vn -2.282788E-06 0.8911772 -0.4536553
vn -2.2827878E-06 0.8911772 -0.4536553
vn -2.2827878E-06 0.8911772 -0.45365533
vn -2.971941E-06 1 2.064406E-06
vn -2.9719408E-06 1 2.064406E-06
vn -2.9719408E-06 1 2.064406E-06
vn -2.971941E-06 1 2.0644063E-06
vn -0.6981947 0.709192 -0.097830944
vn -0.6981947 0.709192 -0.097830944
vn -0.6981947 0.709192 -0.097830944
vn -0.6981947 0.709192 -0.097830944
vn -2.262053E-06 0.52988225 0.8480712
vn -2.2620532E-06 0.5298823 0.8480712
vn -2.262053E-06 0.52988225 0.8480712
vn -2.262053E-06 0.52988225 0.8480712
vn 0.6986211 0.7092061 -0.094632536
vn 0.69862103 0.7092061 -0.094632536
vn 0.69862103 0.7092061 -0.094632536
vn 0.69862103 0.70920616 -0.09463254
vn -2.8086617E-07 0.6190171 -0.78537744
vn -2.8086617E-07 0.6190171 -0.78537744
vn -2.8086617E-07 0.6190171 -0.78537744
vn -2.8086617E-07 0.6190171 -0.78537744
g house1_column_0
f 3/3/3 2/2/2 1/1/1
f 4/4/4 3/3/3 1/1/1
f 7/7/7 6/6/6 5/5/5
f 6/6/6 8/8/8 5/5/5
f 5/5/5 8/8/8 9/9/9
f 10/10/10 5/5/5 9/9/9
f 13/13/13 12/12/12 11/11/11
f 14/14/14 13/13/13 11/11/11
f 17/17/17 16/16/16 15/15/15
f 18/18/18 17/17/17 15/15/15
f 21/21/21 20/20/20 19/19/19
f 22/22/22 21/21/21 19/19/19
f 25/25/25 24/24/24 23/23/23
f 24/24/24 26/26/26 23/23/23
f 23/23/23 26/26/26 27/27/27
f 28/28/28 23/23/23 27/27/27
f 31/31/31 30/30/30 29/29/29
f 30/30/30 32/32/32 29/29/29
f 29/29/29 32/32/32 33/33/33
f 34/34/34 29/29/29 33/33/33
f 37/37/37 36/36/36 35/35/35
f 38/38/38 37/37/37 35/35/35
f 41/41/41 40/40/40 39/39/39
f 42/42/42 41/41/41 39/39/39
f 45/45/45 44/44/44 43/43/43
f 46/46/46 45/45/45 43/43/43
f 49/49/49 48/48/48 47/47/47
f 50/50/50 49/49/49 47/47/47
f 53/53/53 52/52/52 51/51/51
f 54/54/54 53/53/53 51/51/51
f 57/57/57 56/56/56 55/55/55
f 58/58/58 57/57/57 55/55/55
f 61/61/61 60/60/60 59/59/59
f 62/62/62 61/61/61 59/59/59
