g huge_skull1
v -0.18258512 0.7785431 -0.19888166
v -0.23643602 1.313064 -0.23967448
v -0.17564233 1.3576436 -0.24298674
v 5.608444E-06 -0.63669074 -0.12693253
v 5.608444E-06 -1.0227549 -0.09315756
v 5.4163743E-06 -0.67381805 -0.0703354
v 5.4163743E-06 -0.67381805 -0.0703354
v 0.37856975 -0.6247753 -0.12797502
v 0.3785699 -0.66190267 -0.071377225
v 0.57509345 -0.9726893 -0.09753711
v 5.531616E-06 -1.1059563 -0.43336833
v 0.7766241 -1.0621378 -0.43720135
v 0.65352416 -0.85427666 -0.107896864
v 0.8451006 -1.0006534 -0.44258052
v 0.84949136 -0.34176826 -0.50022364
v 0.24241015 -0.20355153 -0.12172501
v 5.608444E-06 -0.48184213 0.020613778
v 5.608444E-06 -0.054784726 -0.02281928
v 0.65697086 -0.23662685 -0.16193296
v 0.20227924 -0.02410288 -0.13057941
v 0.9736448 0.14741638 -0.19553359
v 1.098642 -0.12760563 -0.5189611
v 0.08548022 0.1697857 -0.13596438
v 5.4163743E-06 0.17167313 -0.11842118
v 5.608444E-06 0.77486354 -0.25042808
v 0.53499454 -0.019275455 -0.18094935
v 0.9013724 0.4793947 -0.22457793
v 1.0435915 0.47323298 -0.57152814
v 0.8345669 0.20706731 -0.20075299
v 0.6867915 0.6992929 -0.24381652
v 0.60772574 0.8776356 -0.60690886
v 0.27466455 0.89826846 -0.6087139
v 5.531616E-06 0.91424876 -0.610112
v 0.6604936 0.5194907 -0.22808708
v 0.2541269 0.031360164 -0.28749317
v 0.50754356 0.03834022 -0.28810385
v 0.18897048 0.1389601 -0.29690754
v 0.6248936 0.40812486 -0.32045764
v 0.73512244 0.21028817 -0.30314857
v 5.608444E-06 0.77486354 -0.25042808
v -0.27465397 0.8982684 -0.6087145
v 5.531616E-06 0.91424876 -0.610112
v -0.6867804 0.699293 -0.24381591
v -0.6077155 0.8776356 -0.60690886
v -1.0435815 0.47323298 -0.57152814
v -0.90136117 0.47939473 -0.22457731
v -1.0986319 -0.12760568 -0.5189617
v -0.6604826 0.5194907 -0.22808647
v -0.97363377 0.14741638 -0.19553359
v -0.84948075 -0.3417684 -0.5002255
v -0.08546923 0.1697857 -0.13596438
v 5.4163743E-06 0.17167313 -0.11842118
v 5.608444E-06 -0.054784726 -0.02281928
v -0.8345557 0.20706736 -0.20075238
v -0.65695983 -0.23662691 -0.16193357
v -0.5349835 -0.019275455 -0.18094935
v -0.65351343 -0.85427666 -0.107897475
v -0.84509003 -1.0006534 -0.44258052
v -0.5750824 -0.9726893 -0.09753772
v -0.7766135 -1.062138 -0.43720195
v 5.531616E-06 -1.1059563 -0.43336833
v 5.608444E-06 -1.0227549 -0.09315756
v -0.37855875 -0.6619028 -0.071378455
v 5.4163743E-06 -0.67381805 -0.0703354
v -0.3785587 -0.6247753 -0.12797563
v 5.608444E-06 -0.63669074 -0.12693253
v -0.24239926 -0.20355153 -0.12172501
v 5.608444E-06 -0.48184213 0.020613778
v -0.20226823 -0.02410288 -0.13057941
v -0.5075328 0.038340162 -0.28810444
v -0.25411576 0.031360116 -0.2874938
v -0.18895963 0.1389601 -0.29690754
v -0.62488276 0.4081249 -0.320457
v -0.7351118 0.21028821 -0.30314797
v 0.17712481 1.357644 -0.24298431
v -0.2060195 1.3040696 -0.8626964
v 0.21542571 1.3040698 -0.86269516
v -0.17564233 1.3576436 -0.24298674
v 0.18496004 0.7785434 -0.19887796
v 0.27622187 1.25949 -0.8593836
v 0.21463653 0.72496945 -0.8185902
v 0.2379185 1.3130641 -0.23967324
v -0.20612277 0.724969 -0.8185915
v -0.23643602 1.313064 -0.23967448
v -0.18258512 0.7785431 -0.19888166
v -0.2668181 1.2594898 -0.859386
v 0.17712481 1.357644 -0.24298431
v 0.27622187 1.25949 -0.8593836
v 0.2379185 1.3130641 -0.23967324
v 0.21542571 1.3040698 -0.86269516
v -0.2060195 1.3040696 -0.8626964
v -0.23643602 1.313064 -0.23967448
v -0.2668181 1.2594898 -0.859386
v -0.17564233 1.3576436 -0.24298674
v -0.17564233 1.3576436 -0.24298674
v 0.18496004 0.7785434 -0.19887796
v -0.18258512 0.7785431 -0.19888166
v 0.17712481 1.357644 -0.24298431
v 0.2379185 1.3130641 -0.23967324
v 0.88327855 0.06082137 -0.13995372
v 0.7873829 0.048262745 -0.10942668
v 0.8020662 0.063007556 -0.11583712
v 0.8981861 -0.035994306 -0.12330973
v 0.89796615 0.045498732 -0.14105058
v 0.80205536 -0.049204845 -0.09938995
v 0.7871609 -0.03379936 -0.09824296
v 0.88329154 -0.050656088 -0.11684988
v 0.8867124 0.069725506 -0.21782842
v 0.8020662 0.063007556 -0.11583712
v 0.7630625 0.07281551 -0.1825098
v 0.88327855 0.06082137 -0.13995372
v 0.74837494 0.0580666 -0.1760937
v 0.7871609 -0.03379936 -0.09824296
v 0.74837494 -0.066869885 -0.15773314
v 0.7873829 0.048262745 -0.10942668
v 0.7632781 -0.082280695 -0.15887927
v 0.88329154 -0.050656088 -0.11684988
v 0.8865011 -0.08471806 -0.18672939
v 0.80205536 -0.049204845 -0.09938995
v 0.9013998 -0.07005053 -0.19319154
v 0.89796615 0.045498732 -0.14105058
v 0.9013998 0.054396305 -0.2189293
v 0.8981861 -0.035994306 -0.12330973
v 0.9013998 0.054396305 -0.2189293
v 0.88327855 0.06082137 -0.13995372
v 0.8867124 0.069725506 -0.21782842
v 0.89796615 0.045498732 -0.14105058
v 0.7630625 0.07281551 -0.1825098
v 0.7873829 0.048262745 -0.10942668
v 0.74837494 0.0580666 -0.1760937
v 0.8020662 0.063007556 -0.11583712
v 0.74837494 -0.066869885 -0.15773314
v 0.80205536 -0.049204845 -0.09938995
v 0.7632781 -0.082280695 -0.15887927
v 0.7871609 -0.03379936 -0.09824296
v 0.8865011 -0.08471806 -0.18672939
v 0.8981861 -0.035994306 -0.12330973
v 0.9013998 -0.07005053 -0.19319154
v 0.88329154 -0.050656088 -0.11684988
vt 0.8963966 0.50281584
vt 0.8978179 0.518256
vt 0.8963966 0.518256
vt 0.7791193 0.5398066
vt 0.7791193 0.5143567
vt 0.7791193 0.5351342
vt 0.7791193 0.5351342
vt 0.81106293 0.54059225
vt 0.81106293 0.53591967
vt 0.8276456 0.5176569
vt 0.7791193 0.5036696
vt 0.85399306 0.50697017
vt 0.8342636 0.5254631
vt 0.86059487 0.51160103
vt 0.86101824 0.5612283
vt 0.7995736 0.56811357
vt 0.7791193 0.5490929
vt 0.7791193 0.57728
vt 0.8345545 0.5661799
vt 0.7961873 0.5799042
vt 0.8612757 0.5914969
vt 0.8850388 0.5773591
vt 0.7863317 0.5926195
vt 0.7791193 0.59264237
vt 0.7791193 0.6328594
vt 0.8242621 0.5805081
vt 0.8551773 0.6133817
vt 0.8797314 0.6226139
vt 0.84954023 0.59542924
vt 0.8370708 0.62787783
vt 0.8377096 0.6530737
vt 0.80559915 0.65462756
vt 0.7791193 0.6558315
vt 0.8348518 0.61602503
vt 0.80380803 0.5867281
vt 0.82123554 0.58710325
vt 0.7993272 0.5925092
vt 0.8293057 0.6069705
vt 0.83688617 0.5963413
vt 0.7791193 0.6328594
vt 0.80559915 0.65462756
vt 0.7791193 0.6558315
vt 0.8370708 0.62787783
vt 0.8377096 0.6530737
vt 0.8797314 0.6226139
vt 0.8551774 0.6133817
vt 0.8850388 0.5773591
vt 0.8348518 0.61602503
vt 0.8612757 0.5914969
vt 0.86101824 0.5612283
vt 0.7863317 0.5926195
vt 0.7791193 0.59264237
vt 0.7791193 0.57728
vt 0.84954023 0.59542924
vt 0.8345545 0.5661799
vt 0.8242621 0.5805081
vt 0.8342638 0.5254631
vt 0.8605948 0.51160103
vt 0.8276458 0.5176569
vt 0.85399306 0.50697017
vt 0.7791193 0.5036696
vt 0.7791193 0.5143567
vt 0.81106293 0.53591967
vt 0.7791193 0.5351342
vt 0.81106293 0.54059225
vt 0.7791193 0.5398066
vt 0.7995736 0.56811357
vt 0.7791193 0.5490929
vt 0.7961873 0.5799042
vt 0.82123554 0.58710325
vt 0.80380803 0.5867281
vt 0.7993272 0.5925092
vt 0.8293057 0.6069705
vt 0.83688617 0.5963413
vt 0.8963983 0.518256
vt 0.8877992 0.5424145
vt 0.8963983 0.5424145
vt 0.8877992 0.518256
vt 0.9092609 0.50281584
vt 0.9179416 0.51455235
vt 0.9179416 0.50281584
vt 0.9092609 0.51455235
vt 0.9179416 0.50281584
vt 0.9092609 0.51455235
vt 0.9092609 0.50281584
vt 0.9179416 0.51455235
vt 0.89896554 0.518256
vt 0.9026555 0.54241455
vt 0.9026555 0.518256
vt 0.89896554 0.5424145
vt 0.89896554 0.5424145
vt 0.9026555 0.518256
vt 0.9026555 0.54241455
vt 0.89896554 0.518256
vt 0.8877992 0.518256
vt 0.8963983 0.50281584
vt 0.8877992 0.50281584
vt 0.8963983 0.518256
vt 0.8978179 0.518256
vt 0.8163776 0.87087005
vt 0.8112051 0.87006056
vt 0.811997 0.8708741
vt 0.8171815 0.8656466
vt 0.8171695 0.87006074
vt 0.8119965 0.86483324
vt 0.81119305 0.8656468
vt 0.8163782 0.8648373
vt 0.8165627 0.87170553
vt 0.811997 0.8708741
vt 0.8098933 0.87170553
vt 0.8163776 0.87087005
vt 0.80910105 0.8708917
vt 0.81119305 0.8656468
vt 0.80910105 0.8641656
vt 0.8112051 0.87006056
vt 0.80990475 0.86335176
vt 0.8163782 0.8648373
vt 0.81655127 0.86335176
vt 0.8119965 0.86483324
vt 0.81735486 0.86416143
vt 0.8171695 0.87006074
vt 0.81735486 0.8708958
vt 0.8171815 0.8656466
vt 0.81735486 0.8708958
vt 0.8163776 0.87087005
vt 0.8165627 0.87170553
vt 0.8171695 0.87006074
vt 0.8098933 0.87170553
vt 0.8112051 0.87006056
vt 0.80910105 0.8708917
vt 0.811997 0.8708741
vt 0.80910105 0.8641656
vt 0.8119965 0.86483324
vt 0.80990475 0.86335176
vt 0.81119305 0.8656468
vt 0.81655127 0.86335176
vt 0.8171815 0.8656466
vt 0.81735486 0.86416143
vt 0.8163782 0.8648373
vn -0.00010148448 0.07594265 0.99711215
vn -0.0013730286 0.07595773 0.99711007
vn -0.0005114812 0.07594833 0.99711156
vn -6.553858E-07 0.37451145 0.9272223
vn -6.854148E-07 -0.66137433 0.75005597
vn 0.61362284 0.34556597 0.7099656
vn -0.6136266 0.34556606 0.70996237
vn 0.12099867 0.39116704 0.9123309
vn 0.20660841 0.49175528 0.84586626
vn 0.28390417 -0.57627016 0.76636225
vn -1.237455E-07 -0.9671066 0.25437173
vn 0.4292824 -0.7508794 0.5018931
vn 0.5757009 -0.08454106 0.81327814
vn 0.7619363 -0.30685395 0.57034534
vn 0.7766421 -0.26289827 0.572461
vn 0.25559187 0.032208994 0.96624815
vn 2.7458796E-07 -0.43719602 0.8993662
vn 2.6093568E-07 0.21205702 0.9772574
vn 0.41416675 -0.061748974 0.9081041
vn 0.41765115 0.40689525 0.8124062
vn 0.65021014 -0.00019257181 0.7597544
vn 0.74080616 -0.32317737 0.5888655
vn 0.40271 0.17309123 0.8988126
vn -2.4016194E-07 0.3049173 0.9523788
vn 2.0106405E-07 0.64880544 0.7609543
vn -0.055960055 0.48126292 0.8747883
vn 0.563636 0.35665858 0.7450564
vn 0.84874094 0.41397068 0.32903978
vn -0.21641669 0.12645236 0.96807724
vn 0.31318012 0.6095936 0.7282266
vn 0.2926243 0.88196176 0.3694788
vn 0.072803095 0.9175056 0.39100268
vn -5.2875225E-07 0.93243474 0.3613384
vn -0.034500368 -0.08825521 0.99550027
vn 0.28274703 0.6102595 0.7400252
vn -0.1532015 0.58503586 0.7964059
vn 0.59945583 -0.0771403 0.7966819
vn -0.101218306 -0.41887408 0.9023854
vn -0.4986793 0.20278595 0.84273183
vn 2.0106405E-07 0.64880544 0.7609543
vn -0.07280296 0.9175059 0.39100215
vn -5.2875225E-07 0.93243474 0.3613384
vn -0.3131793 0.6095937 0.72822684
vn -0.29262388 0.88196194 0.3694787
vn -0.84874046 0.41397005 0.32904166
vn -0.5636354 0.356658 0.7450572
vn -0.74080426 -0.3231788 0.5888671
vn 0.034500744 -0.08825527 0.99550027
vn -0.65021014 -0.00019429927 0.7597544
vn -0.7766418 -0.2628987 0.57246125
vn -0.40271005 0.17309083 0.8988127
vn -2.4016194E-07 0.3049173 0.9523788
vn 2.6093568E-07 0.21205702 0.9772574
vn 0.21641569 0.12645008 0.9680778
vn -0.4141674 -0.061750103 0.9081037
vn 0.05596048 0.48126245 0.87478846
vn -0.5712621 -0.071904816 0.817612
vn -0.7863768 -0.29933107 0.54038185
vn -0.2717019 -0.576201 0.7708245
vn -0.42088503 -0.7840535 0.45619726
vn -1.237455E-07 -0.9671066 0.25437173
vn -6.854148E-07 -0.66137433 0.75005597
vn -0.20660813 0.49175292 0.84586763
vn 0.61362284 0.34556597 0.7099656
vn -0.120998956 0.3911642 0.9123321
vn -6.553858E-07 0.37451145 0.9272223
vn -0.25559253 0.032208774 0.9662479
vn 2.7458796E-07 -0.43719602 0.8993662
vn -0.41765153 0.4068958 0.8124057
vn 0.1532031 0.58503544 0.7964059
vn -0.28274783 0.61025786 0.7400263
vn -0.59945554 -0.07714299 0.7966818
vn 0.10121989 -0.41887468 0.90238494
vn 0.4986822 0.20278491 0.8427303
vn -2.1208415E-07 0.99628407 -0.08612897
vn -1.650381E-07 0.99628407 -0.08612899
vn -1.12021915E-07 0.99628407 -0.08612901
vn -2.723517E-07 0.99628407 -0.08612893
vn 0.9928612 -0.10077447 0.063804425
vn 0.99277544 -0.102323584 0.06266458
vn 0.9922969 -0.10997637 0.0570261
vn 0.9932318 -0.093106255 0.069439225
vn -0.99328977 -0.10299168 0.052613843
vn -0.9934558 -0.101932734 0.051529408
vn -0.9942497 -0.09664719 0.046118494
vn -0.992428 -0.10826349 0.05801436
vn 0.59218884 0.80512315 -0.033000953
vn 0.59217536 0.8051329 -0.033004656
vn 0.59219 0.80512226 -0.033000607
vn 0.5921741 0.8051338 -0.033005003
vn -0.5922635 0.80472416 -0.040532462
vn -0.5922897 0.80470496 -0.040533457
vn -0.5922613 0.8047259 -0.04053238
vn -0.59229195 0.80470324 -0.040533546
vn -0.0005114812 0.07594833 0.99711156
vn 8.52769E-05 0.075943604 0.99711215
vn -0.00010148448 0.07594265 0.99711215
vn 0.0005097605 0.07595043 0.99711144
vn 0.001396428 0.07596229 0.9971097
vn 0.27655414 0.1991262 0.9401418
vn 0.25526288 0.15543199 0.9542964
vn 0.28548664 0.12860191 0.94971514
vn 0.24023259 0.18171233 0.95355594
vn 0.28353283 0.20471688 0.93685645
vn 0.21815012 0.13747208 0.96618414
vn 0.21055576 0.13144879 0.96870404
vn 0.20906869 0.20855424 0.95540327
vn 0.059127398 0.9916747 0.11439137
vn 0.05832987 0.991797 0.11373756
vn 0.056955613 0.9920055 0.11261075
vn 0.061147984 0.99135965 0.11604758
vn -0.8551608 0.07376062 0.5130881
vn -0.8547544 0.07442454 0.51366913
vn -0.854005 0.07564518 0.5147362
vn -0.85621226 0.0720362 0.5115771
vn 0.08059311 -0.89335483 0.4420655
vn 0.08097817 -0.89372563 0.4412449
vn 0.08169185 -0.8944108 0.43972257
vn 0.079548694 -0.8923452 0.4442881
vn 0.9990369 0.01045813 0.042614054
vn 0.9990025 0.010053263 0.043509018
vn 0.9989385 0.00932934 0.045109082
vn 0.9991196 0.011481291 0.040352084
vn 0.72158676 0.68353564 0.109961875
vn 0.72147995 0.68365383 0.10992777
vn 0.7216138 0.6835056 0.10997054
vn 0.7214528 0.6836838 0.1099191
vn -0.5427137 0.72495127 0.4241553
vn -0.54275566 0.7249181 0.4241581
vn -0.54270244 0.7249601 0.4241545
vn -0.5427668 0.72490925 0.42415884
vn -0.5225805 -0.55358 0.6484279
vn -0.52259827 -0.55355346 0.64843625
vn -0.522576 -0.5535868 0.64842576
vn -0.5226029 -0.55354667 0.64843845
vn 0.7312648 -0.59930915 0.32569972
vn 0.7312408 -0.5993281 0.3257187
vn 0.73127127 -0.599304 0.3256946
vn 0.73123443 -0.5993332 0.32572386
g huge_skull1_0
f 3/3/3 2/2/2 1/1/1
f 6/6/6 5/5/5 4/4/4
f 5/5/5 7/7/7 4/4/4
f 4/4/4 7/7/7 8/8/8
f 7/7/7 5/5/5 9/9/9
f 9/9/9 8/8/8 7/7/7
f 5/5/5 10/10/10 9/9/9
f 5/5/5 11/11/11 10/10/10
f 12/12/12 10/10/10 11/11/11
f 10/10/10 13/13/13 9/9/9
f 10/10/10 12/12/12 13/13/13
f 8/8/8 9/9/9 13/13/13
f 14/14/14 13/13/13 12/12/12
f 15/15/15 13/13/13 14/14/14
f 4/4/4 8/8/8 16/16/16
f 17/17/17 4/4/4 16/16/16
f 18/18/18 17/17/17 16/16/16
f 19/19/19 8/8/8 13/13/13
f 19/19/19 13/13/13 15/15/15
f 19/19/19 16/16/16 8/8/8
f 18/18/18 16/16/16 20/20/20
f 16/16/16 19/19/19 20/20/20
f 19/19/19 15/15/15 21/21/21
f 22/22/22 21/21/21 15/15/15
f 20/20/20 23/23/23 18/18/18
f 24/24/24 18/18/18 23/23/23
f 25/25/25 24/24/24 23/23/23
f 26/26/26 19/19/19 21/21/21
f 26/26/26 20/20/20 19/19/19
f 21/21/21 22/22/22 27/27/27
f 28/28/28 27/27/27 22/22/22
f 21/21/21 29/29/29 26/26/26
f 27/27/27 29/29/29 21/21/21
f 27/27/27 28/28/28 30/30/30
f 31/31/31 30/30/30 28/28/28
f 32/32/32 30/30/30 31/31/31
f 32/32/32 25/25/25 30/30/30
f 33/33/33 25/25/25 32/32/32
f 30/30/30 34/34/34 27/27/27
f 30/30/30 25/25/25 34/34/34
f 23/23/23 34/34/34 25/25/25
f 34/34/34 29/29/29 27/27/27
f 20/20/20 35/35/35 23/23/23
f 26/26/26 36/36/36 20/20/20
f 35/35/35 20/20/20 36/36/36
f 37/37/37 23/23/23 35/35/35
f 23/23/23 37/37/37 34/34/34
f 35/35/35 36/36/36 37/37/37
f 38/38/38 34/34/34 37/37/37
f 34/34/34 38/38/38 29/29/29
f 37/37/37 36/36/36 38/38/38
f 29/29/29 39/39/39 26/26/26
f 39/39/39 29/29/29 38/38/38
f 36/36/36 39/39/39 38/38/38
f 36/36/36 26/26/26 39/39/39
f 42/42/42 41/41/41 40/40/40
f 40/40/40 41/41/41 43/43/43
f 43/43/43 41/41/41 44/44/44
f 44/44/44 45/45/45 43/43/43
f 46/46/46 43/43/43 45/45/45
f 45/45/45 47/47/47 46/46/46
f 43/43/43 48/48/48 40/40/40
f 43/43/43 46/46/46 48/48/48
f 49/49/49 46/46/46 47/47/47
f 47/47/47 50/50/50 49/49/49
f 51/51/51 40/40/40 48/48/48
f 52/52/52 40/40/40 51/51/51
f 52/52/52 51/51/51 53/53/53
f 54/54/54 46/46/46 49/49/49
f 48/48/48 46/46/46 54/54/54
f 55/55/55 49/49/49 50/50/50
f 54/54/54 49/49/49 56/56/56
f 55/55/55 56/56/56 49/49/49
f 57/57/57 55/55/55 50/50/50
f 57/57/57 50/50/50 58/58/58
f 57/57/57 58/58/58 59/59/59
f 60/60/60 59/59/59 58/58/58
f 60/60/60 61/61/61 59/59/59
f 62/62/62 59/59/59 61/61/61
f 59/59/59 62/62/62 63/63/63
f 57/57/57 59/59/59 63/63/63
f 62/62/62 64/64/64 63/63/63
f 63/63/63 65/65/65 57/57/57
f 63/63/63 64/64/64 65/65/65
f 65/65/65 55/55/55 57/57/57
f 66/66/66 65/65/65 64/64/64
f 66/66/66 67/67/67 65/65/65
f 55/55/55 65/65/65 67/67/67
f 66/66/66 68/68/68 67/67/67
f 68/68/68 53/53/53 67/67/67
f 67/67/67 69/69/69 55/55/55
f 67/67/67 53/53/53 69/69/69
f 56/56/56 55/55/55 69/69/69
f 69/69/69 53/53/53 51/51/51
f 56/56/56 69/69/69 70/70/70
f 69/69/69 51/51/51 71/71/71
f 71/71/71 70/70/70 69/69/69
f 72/72/72 71/71/71 51/51/51
f 71/71/71 72/72/72 70/70/70
f 51/51/51 48/48/48 72/72/72
f 73/73/73 72/72/72 48/48/48
f 70/70/70 72/72/72 73/73/73
f 48/48/48 54/54/54 73/73/73
f 70/70/70 74/74/74 56/56/56
f 74/74/74 70/70/70 73/73/73
f 74/74/74 73/73/73 54/54/54
f 54/54/54 56/56/56 74/74/74
f 77/77/77 76/76/76 75/75/75
f 78/78/78 75/75/75 76/76/76
f 81/81/81 80/80/80 79/79/79
f 82/82/82 79/79/79 80/80/80
f 85/85/85 84/84/84 83/83/83
f 86/86/86 83/83/83 84/84/84
f 89/89/89 88/88/88 87/87/87
f 90/90/90 87/87/87 88/88/88
f 93/93/93 92/92/92 91/91/91
f 94/94/94 91/91/91 92/92/92
f 97/97/97 96/96/96 95/95/95
f 98/98/98 95/95/95 96/96/96
f 99/99/99 98/98/98 96/96/96
f 102/102/102 101/101/101 100/100/100
f 101/101/101 103/103/103 100/100/100
f 100/100/100 103/103/103 104/104/104
f 105/105/105 103/103/103 101/101/101
f 106/106/106 105/105/105 101/101/101
f 107/107/107 103/103/103 105/105/105
f 110/110/110 109/109/109 108/108/108
f 111/111/111 108/108/108 109/109/109
f 114/114/114 113/113/113 112/112/112
f 115/115/115 112/112/112 113/113/113
f 118/118/118 117/117/117 116/116/116
f 119/119/119 116/116/116 117/117/117
f 122/122/122 121/121/121 120/120/120
f 123/123/123 120/120/120 121/121/121
f 126/126/126 125/125/125 124/124/124
f 127/127/127 124/124/124 125/125/125
f 130/130/130 129/129/129 128/128/128
f 131/131/131 128/128/128 129/129/129
f 134/134/134 133/133/133 132/132/132
f 135/135/135 132/132/132 133/133/133
f 138/138/138 137/137/137 136/136/136
f 139/139/139 136/136/136 137/137/137
