g iceman_necklace
v -1.0414786 0.4548219 0.31146818
v 0.030264357 -0.003110262 -0.07125702
v -1.1780031 -0.07498719 0.39127898
v -0.62295884 0.8902855 0.20348114
v -0.0767329 1.0040599 0.18766113
v 0.5931575 0.96195114 0.44263732
v 1.0253383 0.58632016 0.72108185
v 1.1002624 0.011608354 0.7632321
v -1.1780031 -0.07498719 0.39127898
v 0.030264357 -0.003110262 -0.07125702
v -0.99096054 -0.62407005 0.36564422
v -0.46385962 -1.107863 0.34281158
v 0.16231723 -1.1887345 0.42710295
v 0.65392065 -0.98369217 0.5778845
v 0.9773751 -0.48113704 0.7109521
v 1.1002624 0.011608354 0.7632321
v 0.13794652 -1.3347856 -0.1761769
v 0.15893494 -1.4064823 -0.45906767
v -0.56029886 -1.2796618 -0.45906767
v -0.5397307 -1.2273916 -0.1761769
v -1.1944336 -0.78761226 -0.17617676
v -1.2248559 -0.7916844 -0.45906767
v -1.494585 -0.14027072 -0.51470274
v -0.5166711 -1.1591625 0.026934814
v 0.13345385 -1.239948 0.02693512
v -1.0627776 -0.7396233 -0.00716217
v -1.3918138 -0.1059177 -0.17617644
v -0.46385962 -1.107863 0.34281158
v 0.16231723 -1.1887345 0.42710295
v -0.9230127 -0.7176071 0.13309601
v -0.99096054 -0.62407005 0.36564422
v -1.2284793 -0.05044076 0.26409882
v -1.1780031 -0.07498719 0.39127898
v -1.0414786 0.4548219 0.31146818
v -1.1573508 -0.07912001 0.07938202
v -1.0667591 0.45625624 0.2091278
v -0.62295884 0.8902855 0.20348114
v -1.0455935 0.44497114 0.07882843
v -1.2613221 -0.087603636 0.032299653
v -0.67708707 0.94568115 0.03712799
v -0.0767329 1.0040599 0.18766113
v -1.1470908 0.5008454 0.04580261
v -0.09717795 1.1458777 0.33768553
v 0.5931575 0.96195114 0.44263732
v -1.298838 0.54762006 -0.17225891
v -1.3784469 0.6003681 -0.5635866
v -0.7326737 1.0207047 0.1593492
v -0.7302622 1.1358552 -0.14215027
v -0.79203075 1.1711825 -0.5085716
v -0.119792156 1.3832563 -0.43422896
v -0.10216388 1.2785945 -0.013348236
v 0.4739828 1.0181103 0.05055893
v 0.5687847 1.138945 -0.06000824
v 0.6338765 1.2225609 -0.36751023
v 1.0189685 0.5948283 0.16789718
v 1.0816495 0.7198508 -0.068985745
v 1.151241 0.77523357 -0.3852475
v 1.1264095 0.5974037 0.56718105
v 1.0253383 0.58632016 0.72108185
v 1.2491043 0.02246482 0.55936337
v 1.1002624 0.011608354 0.7632321
v 0.9773751 -0.48113704 0.7109521
v 1.1650099 0.030997796 0.20738861
v 1.1405543 -0.48095354 0.47558716
v 0.65392065 -0.98369217 0.5778845
v 0.69761056 -1.058543 0.026334228
v 0.16231723 -1.1887345 0.42710295
v 0.13345385 -1.239948 0.02693512
v 0.13794652 -1.3347856 -0.1761769
v 1.115506 -0.50308007 0.15884018
v 1.1746347 0.034023285 -0.06637329
v 0.76073843 -1.1836468 -0.17617676
v 0.15893494 -1.4064823 -0.45906767
v 0.77613425 -1.2041748 -0.45906767
v 1.3146676 -0.59723175 -0.45906752
v 1.1441758 -0.51561683 -0.032788392
v 1.2811701 -0.56651914 -0.15270904
v 1.3660524 -0.57267416 -0.3495027
v 1.4414886 0.05767405 -0.45906737
v 1.4723142 0.037775856 -0.34961426
v 1.352276 0.039841406 -0.065428615
v 0.99359214 0.6921714 -0.0740596
v 0.47214934 1.0878307 0.140634
v 0.6163696 1.2068795 -0.13118744
v 0.5679937 1.0661007 -0.13687164
v 0.5205245 1.2286087 0.1463182
v 0.47878334 1.2450608 0.09409347
v 0.26861855 1.3156033 0.13561814
v 0.5522127 1.2284135 -0.11851135
v 0.24620356 1.3206844 0.20051879
v 0.19782877 1.1799057 0.1948352
v 0.019351486 1.2502515 -0.028470458
v 0.0677266 1.3910306 -0.022785949
v 0.1318827 1.3694975 -0.03546173
v 0.12893069 1.32791 -0.039012145
v 0.25905234 1.276622 0.12379257
v 0.4590524 1.2094928 0.08427658
v 0.52892965 1.193651 -0.118044734
v 0.3895166 1.1364466 -0.36017668
v 0.5679937 1.0661007 -0.13687164
v 0.6163696 1.2068795 -0.13118744
v 0.4378919 1.2772253 -0.35449278
v 0.4154774 1.2823077 -0.28959167
v 0.5522127 1.2284135 -0.11851135
v 0.52892965 1.193651 -0.118044734
v 0.39880797 1.2449377 -0.2808493
v 0.19880705 1.3120668 -0.2413333
v 0.16357088 1.3693016 -0.30029175
v 0.115195036 1.2285215 -0.30597624
v 0.019351486 1.2502515 -0.028470458
v 0.0677266 1.3910306 -0.022785949
v 0.20531122 1.3528494 -0.248067
v 0.12893069 1.32791 -0.039012145
v 0.1318827 1.3694975 -0.03546173
v 0.19880705 1.3120668 -0.2413333
v 0.39880797 1.2449377 -0.2808493
v 0.52892965 1.193651 -0.118044734
v 0.12893069 1.32791 -0.039012145
v 0.4590524 1.2094928 0.08427658
v 0.25905234 1.276622 0.12379257
v -0.19001985 1.1818417 0.03028015
v -0.27328545 1.2812941 -0.14887008
v -0.2513075 1.1842467 -0.15729553
v -0.21199821 1.2788891 0.038704984
v -0.25612646 1.2697614 0.028726807
v -0.3537309 1.238019 0.13974608
v -0.33939743 1.2374563 0.1836148
v -0.31741938 1.1404089 0.17518997
v -0.50610703 1.1013818 0.13252579
v -0.52808523 1.1984292 0.14095092
v -0.25715902 1.2419987 0.024860838
v -0.30308032 1.2716038 -0.11497971
v -0.3500426 1.2117918 0.13051102
v -0.48760822 1.1833378 0.09940506
v -0.49828932 1.2081192 0.10705963
v -0.5452442 1.2099607 -0.036645964
v -0.43999475 1.1452186 -0.19995971
v -0.2513075 1.1842467 -0.15729553
v -0.27328545 1.2812941 -0.14887008
v -0.46197215 1.2422665 -0.19153488
v -0.44763878 1.2417041 -0.14766617
v -0.5893729 1.2008343 -0.046624754
v -0.5673954 1.1037859 -0.055049438
v -0.50610703 1.1013818 0.13252579
v -0.52808523 1.1984292 0.14095092
v -0.5452442 1.2099607 -0.036645964
v -0.30308032 1.2716038 -0.11497971
v -0.25612646 1.2697614 0.028726807
v -0.30184174 1.243752 -0.11189407
v -0.25715902 1.2419987 0.024860838
v -0.43940824 1.2152982 -0.14299957
v -0.5322919 1.185091 -0.037349854
v -0.48760822 1.1833378 0.09940506
v -0.49828932 1.2081192 0.10705963
v -0.5322919 1.185091 -0.037349854
v -0.43940824 1.2152982 -0.14299957
v -0.30184174 1.243752 -0.11189407
v -0.48760822 1.1833378 0.09940506
v -0.25715902 1.2419987 0.024860838
v -0.3500426 1.2117918 0.13051102
vt 0.15018594 0.26868385
vt 0.13471362 0.3384064
vt 0.15215689 0.26868385
vt 0.14372805 0.26868385
vt 0.13625088 0.26868385
vt 0.12658736 0.26868385
vt 0.11948451 0.26868385
vt 0.11844685 0.26868385
vt 0.15215689 0.26868385
vt 0.13471362 0.3384064
vt 0.14945662 0.26868385
vt 0.1418471 0.26868385
vt 0.13280722 0.26868385
vt 0.12571016 0.26868385
vt 0.12089356 0.26868385
vt 0.11844685 0.26868385
vt 0.58615273 0.2948501
vt 0.58615273 0.26868385
vt 0.55426395 0.26868385
vt 0.55426395 0.2948501
vt 0.516149 0.2948501
vt 0.516149 0.26868385
vt 0.48308164 0.26868385
vt 0.55426395 0.3549676
vt 0.58615273 0.3549676
vt 0.516149 0.3308613
vt 0.48308164 0.2948501
vt 0.55426395 0.38705716
vt 0.58615273 0.38705716
vt 0.516149 0.35481474
vt 0.516149 0.38705716
vt 0.48308164 0.35314497
vt 0.48308164 0.38705716
vt 0.4496709 0.38705716
vt 0.48308164 0.33663052
vt 0.4496709 0.3567672
vt 0.41061515 0.38705716
vt 0.4496709 0.34122118
vt 0.48308164 0.31951866
vt 0.41061515 0.34470904
vt 0.3758642 0.38705716
vt 0.4496709 0.3181108
vt 0.3758642 0.3353859
vt 0.33604056 0.38705716
vt 0.4496709 0.2948501
vt 0.4496709 0.26868385
vt 0.41061515 0.32074606
vt 0.41061515 0.2948501
vt 0.41061515 0.26868385
vt 0.3758642 0.26868385
vt 0.3758642 0.2948501
vt 0.33604056 0.32763892
vt 0.33604056 0.3003361
vt 0.33604056 0.26868385
vt 0.30000973 0.3391255
vt 0.30000973 0.29724976
vt 0.30000973 0.26868385
vt 0.30000973 0.35734573
vt 0.30000973 0.38705716
vt 0.2621184 0.35734573
vt 0.2621184 0.38705716
vt 0.22920771 0.38705716
vt 0.2621184 0.3391255
vt 0.22920771 0.35734573
vt 0.19082242 0.38705716
vt 0.19082242 0.34394634
vt 0.15940736 0.38705716
vt 0.15940736 0.34394634
vt 0.15940736 0.31267792
vt 0.22920771 0.3391255
vt 0.2621184 0.32015723
vt 0.19082242 0.31267792
vt 0.15940736 0.26868385
vt 0.19082242 0.26868385
vt 0.22920771 0.26868385
vt 0.22920771 0.32015723
vt 0.22920771 0.30672076
vt 0.22920771 0.29466122
vt 0.2621184 0.26868385
vt 0.2621184 0.28368586
vt 0.2621184 0.30127782
vt 0.30000973 0.32015723
vt 0.51700205 0.79969555
vt 0.4566855 0.7575658
vt 0.4566855 0.79969555
vt 0.51700205 0.7575658
vt 0.51700205 0.72572446
vt 0.5796226 0.72572446
vt 0.4566855 0.72572446
vt 0.5796226 0.7575658
vt 0.5796226 0.79969555
vt 0.63711256 0.79969555
vt 0.63711256 0.7575658
vt 0.63711256 0.72572446
vt 0.63711256 0.697787
vt 0.5796226 0.697787
vt 0.51700205 0.697787
vt 0.4566855 0.697787
vt 0.51700205 0.79969555
vt 0.4566855 0.79969555
vt 0.4566855 0.7575658
vt 0.51700205 0.7575658
vt 0.51700205 0.72572446
vt 0.4566855 0.72572446
vt 0.4566855 0.697787
vt 0.51700205 0.697787
vt 0.5796226 0.697787
vt 0.5796226 0.7575658
vt 0.5796226 0.79969555
vt 0.63711256 0.79969555
vt 0.63711256 0.7575658
vt 0.5796226 0.72572446
vt 0.63711256 0.697787
vt 0.63711256 0.72572446
vt 0.7322198 0.8000051
vt 0.76187956 0.7486327
vt 0.73221976 0.69726044
vt 0.6729001 0.8000051
vt 0.6729001 0.6972604
vt 0.6432403 0.7486327
vt 0.4857147 0.79969555
vt 0.4857147 0.7575658
vt 0.4857147 0.79969555
vt 0.4857147 0.7575658
vt 0.4857147 0.72572446
vt 0.54921085 0.72572446
vt 0.54921085 0.7575658
vt 0.54921085 0.79969555
vt 0.6084593 0.79969555
vt 0.6084593 0.7575658
vt 0.4857147 0.697787
vt 0.4857147 0.72572446
vt 0.54921085 0.697787
vt 0.6084593 0.697787
vt 0.6084593 0.72572446
vt 0.6084593 0.72572446
vt 0.54921085 0.79969555
vt 0.4857147 0.79969555
vt 0.4857147 0.7575658
vt 0.54921085 0.7575658
vt 0.54921085 0.72572446
vt 0.6084593 0.7575658
vt 0.6084593 0.79969555
vt 0.6084593 0.79969555
vt 0.6084593 0.7575658
vt 0.6084593 0.72572446
vt 0.4857147 0.72572446
vt 0.4857147 0.72572446
vt 0.4857147 0.697787
vt 0.4857147 0.697787
vt 0.54921085 0.697787
vt 0.6084593 0.697787
vt 0.6084593 0.697787
vt 0.6084593 0.72572446
vt 0.7322197 0.800005
vt 0.7618796 0.7486327
vt 0.7322197 0.6972604
vt 0.67290014 0.800005
vt 0.67290014 0.6972605
vt 0.64324033 0.7486327
vn -0.41312307 0.3940762 0.8209954
vn -0.15556096 0.04738685 0.98668903
vn -0.5727228 -0.034057666 0.8190413
vn -0.17415002 0.46190712 0.8696629
vn -0.16934632 -0.501852 0.8482136
vn 0.09894383 0.68160766 0.7249973
vn 0.16409823 0.3742943 0.91267496
vn 0.21708453 -0.033015553 0.97559434
vn -0.5727228 -0.034057666 0.8190413
vn -0.15556096 0.04738685 0.98668903
vn -0.52785045 -0.33985585 0.77837783
vn -0.28756535 -0.54606724 0.78683966
vn -0.058040444 -0.61186785 0.78882766
vn 0.14982454 -0.54870045 0.8224843
vn 0.16544347 -0.25280997 0.9532657
vn 0.21708453 -0.033015553 0.97559434
vn 0.05081626 -0.94690555 0.3174705
vn 0.06323467 -0.978681 0.19540921
vn -0.37449604 -0.9103441 0.176143
vn -0.35943025 -0.8849365 0.29613695
vn -0.7546525 -0.55154085 0.35539016
vn -0.7957901 -0.57620615 0.18629186
vn -0.9680015 -0.08241793 0.23702398
vn -0.39005837 -0.856945 0.33689708
vn 0.07079426 -0.9498162 0.304692
vn -0.63215953 -0.45981956 0.6236507
vn -0.91115654 -0.070247576 0.4060285
vn -0.28756535 -0.54606724 0.78683966
vn -0.058040444 -0.61186785 0.78882766
vn -0.7178176 -0.56816787 0.40239668
vn -0.52785045 -0.33985585 0.77837783
vn -0.9994037 -0.013148506 -0.031926915
vn -0.5727228 -0.034057666 0.8190413
vn -0.41312307 0.3940762 0.8209954
vn -0.8993948 -0.09730438 0.42616987
vn -0.86107665 0.5084741 0.00097167474
vn -0.17415002 0.46190712 0.8696629
vn -0.7852668 0.44349477 0.43205145
vn -0.68232226 -0.060283605 0.7285618
vn -0.065872744 -0.1555119 0.98563516
vn -0.16934632 -0.501852 0.8482136
vn -0.6567591 0.3293776 0.6783641
vn -0.10934793 0.32141265 0.94060457
vn 0.09894383 0.68160766 0.7249973
vn -0.84417516 0.39986622 0.35703692
vn -0.8656859 0.4409853 0.23689649
vn -0.32752118 0.19275883 0.9249724
vn -0.4934433 0.8214367 0.28592882
vn -0.5332291 0.8195287 0.20985566
vn -0.06654228 0.9706917 0.23093258
vn -0.017027756 0.95728904 0.2886309
vn 0.41391724 0.81143343 0.4126116
vn 0.40411982 0.7810211 0.4761231
vn 0.42455593 0.85928655 0.28526974
vn 0.8543179 0.51972145 0.0055328393
vn 0.5299466 0.38742182 0.7543613
vn 0.7861297 0.57432145 0.22837433
vn 0.8354057 0.5196285 0.17911853
vn 0.16409823 0.3742943 0.91267496
vn 0.97760427 -0.0037865674 0.21041766
vn 0.21708453 -0.033015553 0.97559434
vn 0.16544347 -0.25280997 0.9532657
vn 0.99408156 0.07014323 -0.0829559
vn 0.8914703 -0.40303496 0.2069868
vn 0.14982454 -0.54870045 0.8224843
vn 0.51400566 -0.7706418 0.37670854
vn -0.058040444 -0.61186785 0.78882766
vn 0.07079426 -0.9498162 0.304692
vn 0.05081626 -0.94690555 0.3174705
vn 0.92640823 -0.3761437 0.016847631
vn 0.70948637 0.035658944 0.70381635
vn 0.49276707 -0.7990826 0.3444528
vn 0.06323467 -0.978681 0.19540921
vn 0.5210426 -0.84821105 0.09514588
vn 0.85007566 -0.5092595 -0.13426119
vn 0.75794137 -0.35105893 0.5498022
vn 0.7190007 -0.37344283 0.5861556
vn 0.91335833 -0.4010689 0.07014466
vn 0.98523015 0.15224753 -0.078372225
vn 0.98887116 0.090082385 0.11840142
vn 0.65789026 0.05079276 0.7513991
vn 0.3877812 0.27122512 0.8809442
vn 0.60625213 -0.23895113 0.7585254
vn 0.93646634 0.3286286 -0.12261345
vn 0.9318163 -0.31276566 -0.18410921
vn 0.6784862 0.3871178 0.6243368
vn 0.01861087 0.9519062 -0.30582395
vn 0.4362048 0.8117447 -0.3883244
vn -0.12729652 0.9849851 0.116619185
vn -0.059892647 0.6349527 0.7702259
vn -0.3255626 0.07381172 0.942635
vn -0.9318173 0.31276232 0.1841092
vn -0.54029083 0.8242985 0.16916773
vn 0.7078933 0.70465946 -0.04839559
vn 0.9842568 -0.05554393 -0.16779026
vn 0.39897317 0.17514582 -0.9000802
vn -0.50061977 0.4770838 -0.7223371
vn -0.81492406 0.54833406 0.18769294
vn 0.32556334 -0.073812984 -0.9426347
vn 0.9318163 -0.31276566 -0.18410921
vn 0.93646634 0.3286286 -0.12261345
vn 0.45606774 0.5179742 -0.7236746
vn 0.14440212 0.87789875 0.45655438
vn -0.12729652 0.9849851 0.116619185
vn -0.81492406 0.54833406 0.18769294
vn -0.22964165 0.31765112 0.91997963
vn 0.66995174 0.015709642 0.7422384
vn -0.28230998 0.76581156 -0.5777834
vn -0.606253 0.23895122 -0.7585246
vn -0.9318173 0.31276232 0.1841092
vn -0.54029083 0.8242985 0.16916773
vn 0.5619956 0.7377342 0.37404433
vn 0.9842568 -0.05554393 -0.16779026
vn 0.7078933 0.70465946 -0.04839559
vn 0.32473674 0.9450345 0.038155023
vn 0.3247368 0.9450345 0.03815502
vn 0.3247376 0.945034 0.038158778
vn 0.3247376 0.945034 0.038158774
vn 0.3247384 0.9450336 0.038162537
vn 0.3247384 0.9450336 0.038162533
vn 0.9561124 0.19776191 0.21619254
vn 0.37729138 0.7591712 -0.530387
vn 0.64555764 0.20994452 -0.73428786
vn 0.6233756 0.7495157 0.22277619
vn -0.62523425 0.78014195 -0.021462902
vn -0.3359265 0.87422866 -0.35053897
vn 0.111835584 0.58315265 0.80462766
vn 0.31055558 -0.012181984 0.9504771
vn -0.64555675 -0.20994131 0.7342896
vn -0.645792 0.42644984 0.63331914
vn -0.98042667 0.062462192 -0.18671368
vn -0.486057 0.7746814 0.40449637
vn -0.35718852 0.26513842 -0.89561033
vn 0.5658451 0.45605934 -0.6868983
vn 0.09256704 0.9628557 -0.25365353
vn 0.23174061 0.9573958 0.17230657
vn -0.31055722 0.0121852895 -0.9504766
vn 0.64555764 0.20994452 -0.73428786
vn 0.37729138 0.7591712 -0.530387
vn -0.38033396 0.60246664 -0.701698
vn -0.057572614 0.863306 0.50138617
vn -0.89187855 0.43610704 -0.11984726
vn -0.9561146 -0.19775619 -0.21618871
vn -0.64555675 -0.20994131 0.7342896
vn -0.645792 0.42644984 0.63331914
vn 0.23174061 0.9573958 0.17230657
vn -0.486057 0.7746814 0.40449637
vn -0.62523425 0.78014195 -0.021462902
vn -0.68061393 0.050703518 0.7308857
vn -0.98042667 0.062462192 -0.18671368
vn 0.24243625 0.24162032 0.9395979
vn 0.8656601 0.4443023 0.23071203
vn 0.5658451 0.45605934 -0.6868983
vn 0.09256704 0.9628557 -0.25365353
vn -0.22008654 0.9718249 0.08436923
vn -0.22008653 0.9718249 0.08436923
vn -0.22008651 0.9718249 0.08436921
vn -0.22008653 0.9718249 0.08436922
vn -0.22008653 0.9718249 0.08436922
vn -0.22008651 0.9718249 0.08436921
g iceman_necklace_0
f 3/3/3 2/2/2 1/1/1
f 1/1/1 2/2/2 4/4/4
f 4/4/4 2/2/2 5/5/5
f 2/2/2 6/6/6 5/5/5
f 6/6/6 2/2/2 7/7/7
f 7/7/7 2/2/2 8/8/8
f 11/11/11 10/10/10 9/9/9
f 12/12/12 10/10/10 11/11/11
f 13/13/13 10/10/10 12/12/12
f 14/14/14 10/10/10 13/13/13
f 15/15/15 10/10/10 14/14/14
f 16/16/16 10/10/10 15/15/15
f 19/19/19 18/18/18 17/17/17
f 17/17/17 20/20/20 19/19/19
f 21/21/21 19/19/19 20/20/20
f 19/19/19 21/21/21 22/22/22
f 23/23/23 22/22/22 21/21/21
f 24/24/24 20/20/20 17/17/17
f 17/17/17 25/25/25 24/24/24
f 26/26/26 21/21/21 20/20/20
f 20/20/20 24/24/24 26/26/26
f 21/21/21 27/27/27 23/23/23
f 27/27/27 21/21/21 26/26/26
f 28/28/28 24/24/24 25/25/25
f 25/25/25 29/29/29 28/28/28
f 28/28/28 30/30/30 24/24/24
f 30/30/30 26/26/26 24/24/24
f 31/31/31 30/30/30 28/28/28
f 32/32/32 30/30/30 31/31/31
f 33/33/33 32/32/32 31/31/31
f 32/32/32 33/33/33 34/34/34
f 26/26/26 30/30/30 35/35/35
f 32/32/32 35/35/35 30/30/30
f 34/34/34 36/36/36 32/32/32
f 34/34/34 37/37/37 36/36/36
f 32/32/32 36/36/36 38/38/38
f 38/38/38 35/35/35 32/32/32
f 36/36/36 37/37/37 38/38/38
f 35/35/35 39/39/39 26/26/26
f 26/26/26 39/39/39 27/27/27
f 39/39/39 35/35/35 38/38/38
f 38/38/38 37/37/37 40/40/40
f 41/41/41 40/40/40 37/37/37
f 38/38/38 42/42/42 39/39/39
f 27/27/27 39/39/39 42/42/42
f 40/40/40 42/42/42 38/38/38
f 40/40/40 41/41/41 43/43/43
f 44/44/44 43/43/43 41/41/41
f 42/42/42 45/45/45 27/27/27
f 45/45/45 23/23/23 27/27/27
f 23/23/23 45/45/45 46/46/46
f 40/40/40 47/47/47 42/42/42
f 47/47/47 45/45/45 42/42/42
f 47/47/47 40/40/40 43/43/43
f 48/48/48 46/46/46 45/45/45
f 48/48/48 45/45/45 47/47/47
f 49/49/49 46/46/46 48/48/48
f 50/50/50 49/49/49 48/48/48
f 51/51/51 48/48/48 47/47/47
f 43/43/43 51/51/51 47/47/47
f 48/48/48 51/51/51 50/50/50
f 52/52/52 51/51/51 43/43/43
f 44/44/44 52/52/52 43/43/43
f 53/53/53 50/50/50 51/51/51
f 52/52/52 53/53/53 51/51/51
f 50/50/50 53/53/53 54/54/54
f 55/55/55 52/52/52 44/44/44
f 55/55/55 53/53/53 52/52/52
f 56/56/56 54/54/54 53/53/53
f 57/57/57 54/54/54 56/56/56
f 55/55/55 44/44/44 58/58/58
f 59/59/59 58/58/58 44/44/44
f 60/60/60 58/58/58 59/59/59
f 61/61/61 60/60/60 59/59/59
f 60/60/60 61/61/61 62/62/62
f 58/58/58 60/60/60 63/63/63
f 63/63/63 55/55/55 58/58/58
f 62/62/62 64/64/64 60/60/60
f 63/63/63 60/60/60 64/64/64
f 62/62/62 65/65/65 64/64/64
f 65/65/65 66/66/66 64/64/64
f 66/66/66 65/65/65 67/67/67
f 67/67/67 68/68/68 66/66/66
f 66/66/66 68/68/68 69/69/69
f 64/64/64 70/70/70 63/63/63
f 64/64/64 66/66/66 70/70/70
f 63/63/63 71/71/71 55/55/55
f 71/71/71 63/63/63 70/70/70
f 69/69/69 72/72/72 66/66/66
f 72/72/72 69/69/69 73/73/73
f 73/73/73 74/74/74 72/72/72
f 75/75/75 72/72/72 74/74/74
f 70/70/70 66/66/66 76/76/76
f 70/70/70 76/76/76 71/71/71
f 77/77/77 66/66/66 72/72/72
f 66/66/66 77/77/77 76/76/76
f 72/72/72 75/75/75 78/78/78
f 78/78/78 77/77/77 72/72/72
f 78/78/78 75/75/75 79/79/79
f 79/79/79 80/80/80 78/78/78
f 77/77/77 78/78/78 80/80/80
f 80/80/80 79/79/79 57/57/57
f 57/57/57 56/56/56 80/80/80
f 76/76/76 77/77/77 81/81/81
f 80/80/80 81/81/81 77/77/77
f 81/81/81 71/71/71 76/76/76
f 80/80/80 56/56/56 81/81/81
f 71/71/71 81/81/81 56/56/56
f 56/56/56 82/82/82 71/71/71
f 71/71/71 82/82/82 55/55/55
f 53/53/53 82/82/82 56/56/56
f 55/55/55 82/82/82 53/53/53
f 85/85/85 84/84/84 83/83/83
f 86/86/86 83/83/83 84/84/84
f 87/87/87 86/86/86 84/84/84
f 86/86/86 87/87/87 88/88/88
f 84/84/84 89/89/89 87/87/87
f 83/83/83 86/86/86 90/90/90
f 88/88/88 90/90/90 86/86/86
f 90/90/90 91/91/91 83/83/83
f 92/92/92 91/91/91 90/90/90
f 90/90/90 93/93/93 92/92/92
f 90/90/90 88/88/88 93/93/93
f 88/88/88 94/94/94 93/93/93
f 95/95/95 94/94/94 88/88/88
f 88/88/88 96/96/96 95/95/95
f 96/96/96 88/88/88 97/97/97
f 87/87/87 97/97/97 88/88/88
f 97/97/97 87/87/87 89/89/89
f 89/89/89 98/98/98 97/97/97
f 101/101/101 100/100/100 99/99/99
f 99/99/99 102/102/102 101/101/101
f 101/101/101 102/102/102 103/103/103
f 103/103/103 104/104/104 101/101/101
f 105/105/105 104/104/104 103/103/103
f 103/103/103 106/106/106 105/105/105
f 106/106/106 103/103/103 107/107/107
f 108/108/108 102/102/102 99/99/99
f 103/103/103 102/102/102 108/108/108
f 99/99/99 109/109/109 108/108/108
f 108/108/108 109/109/109 110/110/110
f 110/110/110 111/111/111 108/108/108
f 112/112/112 107/107/107 103/103/103
f 108/108/108 112/112/112 103/103/103
f 112/112/112 108/108/108 111/111/111
f 113/113/113 107/107/107 112/112/112
f 111/111/111 114/114/114 112/112/112
f 112/112/112 114/114/114 113/113/113
f 117/117/117 116/116/116 115/115/115
f 115/115/115 118/118/118 117/117/117
f 119/119/119 117/117/117 118/118/118
f 118/118/118 120/120/120 119/119/119
f 123/123/123 122/122/122 121/121/121
f 124/124/124 121/121/121 122/122/122
f 125/125/125 124/124/124 122/122/122
f 124/124/124 125/125/125 126/126/126
f 121/121/121 124/124/124 127/127/127
f 126/126/126 127/127/127 124/124/124
f 127/127/127 128/128/128 121/121/121
f 128/128/128 127/127/127 129/129/129
f 130/130/130 129/129/129 127/127/127
f 127/127/127 126/126/126 130/130/130
f 125/125/125 131/131/131 126/126/126
f 131/131/131 125/125/125 132/132/132
f 133/133/133 126/126/126 131/131/131
f 126/126/126 133/133/133 134/134/134
f 134/134/134 135/135/135 126/126/126
f 126/126/126 135/135/135 130/130/130
f 130/130/130 135/135/135 136/136/136
f 139/139/139 138/138/138 137/137/137
f 137/137/137 140/140/140 139/139/139
f 140/140/140 141/141/141 139/139/139
f 142/142/142 140/140/140 137/137/137
f 141/141/141 140/140/140 142/142/142
f 137/137/137 143/143/143 142/142/142
f 142/142/142 143/143/143 144/144/144
f 144/144/144 145/145/145 142/142/142
f 146/146/146 142/142/142 145/145/145
f 142/142/142 146/146/146 141/141/141
f 141/141/141 147/147/147 139/139/139
f 139/139/139 147/147/147 148/148/148
f 149/149/149 147/147/147 141/141/141
f 147/147/147 149/149/149 150/150/150
f 141/141/141 151/151/151 149/149/149
f 152/152/152 151/151/151 141/141/141
f 141/141/141 146/146/146 152/152/152
f 153/153/153 152/152/152 146/146/146
f 146/146/146 154/154/154 153/153/153
f 157/157/157 156/156/156 155/155/155
f 157/157/157 155/155/155 158/158/158
f 158/158/158 159/159/159 157/157/157
f 158/158/158 160/160/160 159/159/159
