g keydoor1_e
v -0.066805325 1.4204184 -0.6807258
v -0.09112961 1.3702525 -0.65264
v -0.066805325 1.0711379 -0.680726
v -0.09112961 1.3702525 -0.65264
v -0.09112961 1.119996 -0.6526401
v -0.066805325 1.0711379 -0.680726
v -1.0170975 1.1199957 -0.65264
v -0.8574767 1.1199957 -0.65264
v -0.8574767 1.3702525 -0.65264
v -1.0170976 1.3702525 -0.65264
v -1.0273056 1.119996 -0.65264
v -1.0273056 1.3702525 -0.65264
v -1.4636928 1.1199964 -0.65263987
v -1.4636928 1.3702525 -0.65264
v -0.01676844 1.4204184 -0.68072575
v -0.01676844 1.0711377 -0.68072623
v -3.07312E-06 1.0711379 -0.680726
v -3.07312E-06 1.4204184 -0.68072575
v -0.066805325 1.4546261 -0.55608803
v -0.09112961 1.401112 -0.5560881
v -0.09112961 1.4011137 -0.62768084
v -0.06680533 1.4546276 -0.65576667
v -0.066805325 1.4204184 -0.6807258
v -0.09112961 1.4011137 -0.62768084
v -0.09112961 1.3702525 -0.65264
v -0.06680533 1.4546276 -0.65576667
v -1.0170975 1.4011137 -0.6276809
v -0.8574767 1.4011137 -0.62768084
v -0.8574767 1.4011112 -0.5560881
v -1.0170976 1.4011112 -0.55608803
v -1.0273056 1.4011132 -0.62768084
v -1.0273056 1.4011124 -0.5560881
v -1.4636928 1.401113 -0.5560881
v -1.4636928 1.4011137 -0.62768084
v -1.0170975 1.4011137 -0.6276809
v -0.8574767 1.3702525 -0.65264
v -0.8574767 1.4011137 -0.62768084
v -1.0170976 1.3702525 -0.65264
v -1.0273056 1.4011132 -0.62768084
v -1.0273056 1.3702525 -0.65264
v -0.8472687 1.3702525 -0.65264
v -0.09112961 1.119996 -0.6526401
v -0.09112961 1.3702525 -0.65264
v -0.8472687 1.119996 -0.65264
v -0.8574767 1.3702525 -0.65264
v -0.8574767 1.1199957 -0.65264
v -0.8472687 1.4011132 -0.6276808
v -0.09112961 1.4011137 -0.62768084
v -0.09112961 1.401112 -0.5560881
v -0.8472687 1.4011124 -0.5560881
v -0.8574767 1.4011112 -0.5560881
v -0.8574767 1.4011137 -0.62768084
v -1.0273056 1.4011132 -0.62768084
v -1.4636928 1.4011137 -0.62768084
v -1.4636928 1.3702525 -0.65264
v -1.0273056 1.3702525 -0.65264
v -0.8472687 1.4011132 -0.6276808
v -0.09112961 1.3702525 -0.65264
v -0.09112961 1.4011137 -0.62768084
v -0.8472687 1.3702525 -0.65264
v -0.8574767 1.3702525 -0.65264
v -0.8574767 1.4011137 -0.62768084
v -0.01676844 1.4546276 -0.65576667
v -0.01676844 1.4546263 -0.556088
v -0.066805325 1.4546261 -0.55608803
v -0.06680533 1.4546276 -0.65576667
v -0.06680533 1.4546276 -0.65576667
v -0.066805325 1.4204184 -0.6807258
v -0.01676844 1.4546276 -0.65576667
v -0.01676844 1.4204184 -0.68072575
v -0.01676844 1.4204184 -0.68072575
v -0.066805325 1.4204184 -0.6807258
v -0.066805325 1.0711379 -0.680726
v -0.01676844 1.0711377 -0.68072623
v -3.07312E-06 1.4546276 -0.65576667
v -3.07312E-06 1.4546267 -0.556088
v -0.01676844 1.4546263 -0.556088
v -0.01676844 1.4546276 -0.65576667
v -0.01676844 1.4204184 -0.68072575
v -3.07312E-06 1.4546276 -0.65576667
v -0.01676844 1.4546276 -0.65576667
v -3.07312E-06 1.4204184 -0.68072575
vt 0.19158308 0.93921995
vt 0.19117817 0.93921995
vt 0.19158308 0.93292046
vt 0.19117817 0.93921995
vt 0.19117817 0.93292046
vt 0.19158308 0.93292046
vt 0.17763442 0.93292046
vt 0.18325129 0.93292046
vt 0.18325129 0.93921995
vt 0.17763442 0.93921995
vt 0.17566831 0.93292046
vt 0.17566831 0.93921995
vt 0.16889021 0.93292046
vt 0.16889024 0.93921995
vt 0.19599389 0.93921995
vt 0.19599389 0.93292046
vt 0.19639803 0.93292046
vt 0.19639803 0.93921995
vt 0.19158308 0.94230676
vt 0.19117817 0.94230676
vt 0.19117817 0.94119525
vt 0.19158308 0.94119525
vt 0.19158308 0.93991435
vt 0.19117817 0.94053614
vt 0.19117817 0.93991435
vt 0.19158308 0.94053614
vt 0.17763442 0.94119525
vt 0.18325129 0.94119525
vt 0.18325129 0.94230676
vt 0.17763442 0.94230676
vt 0.17566831 0.94119525
vt 0.17566831 0.94230676
vt 0.16889024 0.94230676
vt 0.16889024 0.94119525
vt 0.17763442 0.94053614
vt 0.18325129 0.93991435
vt 0.18325129 0.94053614
vt 0.17763442 0.93991435
vt 0.17665859 0.94053614
vt 0.17665859 0.93991435
vt 0.18546833 0.93921995
vt 0.19068724 0.93292046
vt 0.19068724 0.93921995
vt 0.18546833 0.93292046
vt 0.18435743 0.93921995
vt 0.18435743 0.93292046
vt 0.18546833 0.94119525
vt 0.19068724 0.94119525
vt 0.19068724 0.94230676
vt 0.18546833 0.94230676
vt 0.18435743 0.94230676
vt 0.18435743 0.94119525
vt 0.17566831 0.94053614
vt 0.16889024 0.94053614
vt 0.16889024 0.93991435
vt 0.17566831 0.93991435
vt 0.18546833 0.94053614
vt 0.19068724 0.93991435
vt 0.19068724 0.94053614
vt 0.18546833 0.93991435
vt 0.18435743 0.93991435
vt 0.18435743 0.94053614
vt 0.19360375 0.94119525
vt 0.19360375 0.94230676
vt 0.19209245 0.94230676
vt 0.19209245 0.94119525
vt 0.19209245 0.94053614
vt 0.19209245 0.93991435
vt 0.19360375 0.94053614
vt 0.19360375 0.93991435
vt 0.19360375 0.93921995
vt 0.19209245 0.93921995
vt 0.19209245 0.93292046
vt 0.19360375 0.93292046
vt 0.19639803 0.94119525
vt 0.19639803 0.94230676
vt 0.19599389 0.94230676
vt 0.19599389 0.94119525
vt 0.19599389 0.93991435
vt 0.19639803 0.94053614
vt 0.19599389 0.94053614
vt 0.19639803 0.93991435
vn -0.7559128 3.3645628E-07 -0.6546723
vn -0.7559128 3.3645634E-07 -0.6546724
vn -0.7559128 3.3645634E-07 -0.6546724
vn -0.7559128 3.3645634E-07 -0.6546724
vn -0.75591284 3.3645637E-07 -0.6546723
vn -0.7559128 3.3645634E-07 -0.6546724
vn -0 0 -1
vn -0 0 -1
vn -0 0 -1
vn -0 0 -1
vn -0 -1.5349865E-07 -1
vn -0 -1.5349865E-07 -1
vn -0 -1.5349865E-07 -1
vn -0 -1.5349865E-07 -1
vn 6.8738036E-06 9.89823E-07 -1
vn 6.873804E-06 9.898231E-07 -1
vn 6.8738036E-06 9.898231E-07 -1
vn 6.8738036E-06 9.89823E-07 -1
vn -0.91036713 0.41380143 8.19361E-06
vn -0.91036713 0.41380143 8.19361E-06
vn -0.91036713 0.41380146 8.19361E-06
vn -0.91036713 0.41380143 8.19361E-06
vn -0.9113028 0.2506113 -0.32668194
vn -0.9113028 0.2506113 -0.32668197
vn -0.9113028 0.25061128 -0.32668194
vn -0.9113028 0.2506113 -0.32668194
vn -0 1 3.6486228E-05
vn -0 1 3.6486228E-05
vn -0 1 3.6486228E-05
vn -0 1 3.648623E-05
vn 1.4084374E-06 1 1.0731261E-05
vn 1.4084374E-06 1 1.0731261E-05
vn 1.4084374E-06 1 1.0731261E-05
vn 1.4084374E-06 1 1.0731261E-05
vn -0 0.62883437 -0.7775393
vn -0 0.62883437 -0.7775393
vn -0 0.62883437 -0.7775393
vn -0 0.62883437 -0.7775393
vn -2.183971E-05 0.62883836 -0.777536
vn -2.183971E-05 0.6288385 -0.777536
vn -1.0160565E-07 3.0699698E-07 -1
vn -1.0160565E-07 3.0699698E-07 -1
vn -1.0160565E-07 3.0699698E-07 -1
vn -1.0160565E-07 3.0699698E-07 -1
vn -0 0 -1
vn -0 0 -1
vn -1.01605174E-07 1 1.8243136E-05
vn -1.01605174E-07 1 1.8243136E-05
vn -1.01605174E-07 1 1.8243136E-05
vn -1.01605174E-07 1 1.8243136E-05
vn -3.0105155E-05 1 2.360876E-05
vn -3.0105155E-05 1 2.360876E-05
vn 4.4248236E-07 0.628839 -0.7775355
vn 4.4248245E-07 0.6288391 -0.7775355
vn 4.4248236E-07 0.628839 -0.7775355
vn 4.4248236E-07 0.628839 -0.7775355
vn -2.7510444E-07 0.6288394 -0.77753526
vn -2.751044E-07 0.62883925 -0.77753526
vn -2.751044E-07 0.62883925 -0.77753526
vn -2.751044E-07 0.62883925 -0.77753526
vn 2.183986E-05 0.628839 -0.77753556
vn 2.1839858E-05 0.628839 -0.7775355
vn -3.0708597E-06 1 1.3873626E-05
vn -3.07086E-06 1 1.3873626E-05
vn -3.0708597E-06 1 1.3873626E-05
vn -3.0708597E-06 1 1.3873626E-05
vn 6.161474E-07 0.5894025 -0.8078395
vn 6.161474E-07 0.5894025 -0.8078395
vn 6.1614736E-07 0.5894025 -0.8078395
vn 6.161475E-07 0.58940256 -0.8078395
vn -1.5354246E-06 8.798427E-07 -1
vn -1.5354246E-06 8.798427E-07 -1
vn -1.5354246E-06 8.798428E-07 -1
vn -1.5354244E-06 8.7984273E-07 -1
vn -9.1650845E-06 1 1.0790596E-05
vn -9.1650845E-06 1 1.0790596E-05
vn -9.1650845E-06 1 1.0790596E-05
vn -9.1650845E-06 1 1.0790596E-05
vn -0 0.58940184 -0.80784
vn -0 0.58940184 -0.80784
vn -0 0.58940184 -0.80784
vn -0 0.58940184 -0.80784
g keydoor1_e_0
f 3/3/3 2/2/2 1/1/1
f 6/6/6 5/5/5 4/4/4
f 9/9/9 8/8/8 7/7/7
f 7/7/7 10/10/10 9/9/9
f 10/10/10 7/7/7 11/11/11
f 11/11/11 12/12/12 10/10/10
f 12/12/12 11/11/11 13/13/13
f 13/13/13 14/14/14 12/12/12
f 17/17/17 16/16/16 15/15/15
f 15/15/15 18/18/18 17/17/17
f 21/21/21 20/20/20 19/19/19
f 19/19/19 22/22/22 21/21/21
f 25/25/25 24/24/24 23/23/23
f 26/26/26 23/23/23 24/24/24
f 29/29/29 28/28/28 27/27/27
f 27/27/27 30/30/30 29/29/29
f 30/30/30 27/27/27 31/31/31
f 31/31/31 32/32/32 30/30/30
f 33/33/33 32/32/32 31/31/31
f 34/34/34 33/33/33 31/31/31
f 37/37/37 36/36/36 35/35/35
f 36/36/36 38/38/38 35/35/35
f 38/38/38 39/39/39 35/35/35
f 38/38/38 40/40/40 39/39/39
f 43/43/43 42/42/42 41/41/41
f 42/42/42 44/44/44 41/41/41
f 44/44/44 45/45/45 41/41/41
f 44/44/44 46/46/46 45/45/45
f 49/49/49 48/48/48 47/47/47
f 47/47/47 50/50/50 49/49/49
f 51/51/51 50/50/50 47/47/47
f 51/51/51 47/47/47 52/52/52
f 55/55/55 54/54/54 53/53/53
f 53/53/53 56/56/56 55/55/55
f 59/59/59 58/58/58 57/57/57
f 58/58/58 60/60/60 57/57/57
f 57/57/57 60/60/60 61/61/61
f 61/61/61 62/62/62 57/57/57
f 65/65/65 64/64/64 63/63/63
f 63/63/63 66/66/66 65/65/65
f 69/69/69 68/68/68 67/67/67
f 70/70/70 68/68/68 69/69/69
f 73/73/73 72/72/72 71/71/71
f 71/71/71 74/74/74 73/73/73
f 77/77/77 76/76/76 75/75/75
f 75/75/75 78/78/78 77/77/77
f 81/81/81 80/80/80 79/79/79
f 82/82/82 79/79/79 80/80/80
