g keydoor_indoor_R
v 0.72710884 0.3684654 -0.41325247
v 0.23847964 2.109898 -0.36018792
v 0.23847996 0.3684651 -0.41325247
v 0.72710884 2.6443033 -0.3439036
v 1.3181614 0.36846557 -0.41325244
v 1.3181614 2.6443024 -0.34390366
v 0.007743033 2.197043 -0.41197675
v 0.0077427262 0.36347035 -0.4429208
v 0.25231177 0.3634702 -0.4429207
v 0.25231147 2.103491 -0.4135554
v 0.7240609 2.937916 -0.3994736
v 0.7240609 2.6194086 -0.40484887
v 1.4747007 2.9379163 -0.3994736
v 1.2809131 2.6194093 -0.40484896
v 1.4747007 0.36347035 -0.4429208
v 1.2809128 0.3634702 -0.44292066
v 0.007743033 2.197043 -0.41197675
v 0.7240609 2.937916 -0.3994736
v 0.7240607 2.937917 -0.044528972
v 0.007743033 2.1970432 -0.04616583
v 0.7240609 2.6194086 -0.40484887
v 0.25231147 2.103491 -0.4135554
v 0.2716552 2.0861917 -0.3321784
v 0.72411746 2.587082 -0.3264835
v 1.2564213 2.5870917 -0.3264835
v 1.2809131 2.6194093 -0.40484896
v 0.7240609 2.6194086 -0.40484887
v 0.72411746 2.587082 -0.3264835
v 0.0077427262 0.36347035 -0.4429208
v 0.007743033 2.197043 -0.41197675
v 0.007743033 2.1970432 -0.04616583
v 0.007743033 0.36347073 -0.050216973
v 0.2716552 2.0861917 -0.3321784
v 0.25231147 2.103491 -0.4135554
v 0.25231177 0.3634702 -0.4429207
v 0.2716546 0.3634702 -0.35176566
v 1.2564209 0.36347035 -0.35176566
v 1.2809128 0.3634702 -0.44292066
v 1.2809131 2.6194093 -0.40484896
v 1.2564213 2.5870917 -0.3264835
v 0.0077427262 0.35916477 -0.4814088
v 0.0077427262 3.07312E-07 -0.48817614
v 1.4747006 1.53656E-07 -0.48817593
v 1.167121 0.35916513 -0.48140895
v 1.474701 0.7910921 -0.47327104
v 1.1631143 0.42295942 -0.38633716
v 0.0077433405 0.4229595 -0.38633734
v 0.0077427262 0.35916477 -0.4814088
v 1.167121 0.35916513 -0.48140895
v 1.474701 0.7910921 -0.47327104
v 1.4747006 1.53656E-07 -0.48817593
v 1.5089774 1.53656E-07 -0.43163964
v 1.508977 0.8623662 -0.41784027
v 1.5089774 2.9379165 -0.35439062
v 1.4747007 2.9379163 -0.3994736
v 1.4747007 0.36347035 -0.4429208
v 1.5089773 0.36347044 -0.39100128
v 1.167121 0.35916513 -0.48140895
v 1.474701 0.7910921 -0.47327104
v 1.508977 0.8623662 -0.41784027
v 1.5089774 0.86896896 -0.40442103
v 1.5089773 0.86950207 -0.40190282
v 1.1631143 0.42295942 -0.38633716
v 1.5089773 0.88229424 -0.3459262
v 1.5089774 2.9379165 -0.35439062
v 1.5089773 0.36347044 -0.39100128
v 1.5104877 0.36347035 -0.35176548
v 1.5104877 2.9379165 -0.044528972
v 1.508977 0.8623662 -0.41784027
v 1.5089774 1.53656E-07 -0.43163964
v 1.5104873 3.07312E-07 -0.051030964
v 1.5089773 0.88229424 -0.3459262
v 1.280913 2.3278546 -0.37930277
v 0.96038043 1.5865004 -0.4001051
v 1.280913 2.0119965 -0.38816568
v 0.96038043 1.9023583 -0.39124218
v 0.7240601 0.36347082 -0.4344236
v 0.96038043 0.36347067 -0.4344235
v 0.7240607 2.6280773 -0.37087846
v 0.96038043 2.6280782 -0.37087843
v 0.7240601 0.36347082 -0.4344236
v 0.7240607 2.6280773 -0.37087846
v 0.7006634 2.6280775 -0.3506921
v 0.7006631 0.36347067 -0.4106527
v 0.96038043 2.6280782 -0.37087843
v 0.96038043 1.9023583 -0.39124218
v 0.9844258 1.9836311 -0.3677553
v 0.9844261 2.6280782 -0.35069206
v 1.280913 2.0119965 -0.38816568
v 0.96038043 1.5865004 -0.4001051
v 0.96038043 1.5865004 -0.37827256
v 1.2564214 2.0119965 -0.3670041
v 0.96038043 1.9023583 -0.39124218
v 1.280913 2.3278546 -0.37930277
v 1.2564214 2.3377914 -0.35837793
v 0.9844258 1.9836311 -0.3677553
v 0.9844258 1.5591556 -0.39327547
v 0.96038043 1.5865004 -0.4001051
v 0.96038043 0.36347067 -0.4344235
v 0.9844264 0.36347097 -0.426332
v 0.96038043 1.5865004 -0.37827256
v 0.96038043 1.5865004 -0.4001051
v 0.9844258 1.5591556 -0.39327547
v 0.9844261 1.5591555 -0.37899905
v 1.0124534 1.5521926 -0.4010678
v 1.0124531 1.5521923 -0.37918338
v 1.0124537 0.36347097 -0.4344235
v 1.2809124 0.36347082 -0.4344235
v 1.2809124 1.0845032 -0.41419128
v 1.0124534 1.5521926 -0.4010678
v 1.0124531 1.5521923 -0.37918338
v 1.0124534 1.5521926 -0.4010678
v 1.2809124 1.0845032 -0.41419128
v 1.280912 1.0845028 -0.39156675
v 0.9844264 0.36347097 -0.426332
v 1.0124537 0.36347097 -0.4344235
v 1.0124534 1.5521926 -0.4010678
v 0.9844258 1.5591556 -0.39327547
v 1.5089774 2.9379165 -0.35439062
v 1.5104877 2.9379165 -0.044528972
v 0.7240607 2.937917 -0.044528972
v 0.7240609 2.937916 -0.3994736
v 1.4747007 2.9379163 -0.3994736
v 0.25231177 1.7350166 -0.4091055
v 0.25231177 1.3451425 -0.42017028
v 0.38565567 1.1964647 -0.42438957
v 0.5818197 1.3384724 -0.42035925
v 0.58181936 0.36347035 -0.44802976
v 0.38565505 0.36347035 -0.44802967
v 0.38565567 1.1964647 -0.42438957
v 0.25231177 1.3451425 -0.42017028
v 0.2716546 1.2962704 -0.392905
v 0.3656524 1.1865267 -0.3958082
v 0.25231177 1.7350166 -0.4091055
v 0.5818197 1.3384724 -0.42035925
v 0.6010946 1.3461916 -0.39158425
v 0.2716546 1.7427355 -0.38109347
v 0.6010946 1.3461916 -0.39158425
v 0.5818197 1.3384724 -0.42035925
v 0.58181936 0.36347035 -0.44802976
v 0.6010948 0.36347005 -0.41758254
v 0.38565505 0.36347035 -0.44802967
v 0.38565567 1.1964647 -0.42438957
v 0.3656524 1.1865267 -0.3958082
v 0.3656524 0.36347005 -0.4175825
vt 0.7940249 0.6967719
vt 0.77438635 0.7397217
vt 0.77438635 0.6967719
vt 0.7940249 0.7536629
vt 0.8153977 0.6967719
vt 0.8153977 0.7536629
vt 0.6527404 0.60608846
vt 0.6527404 0.53178036
vt 0.6553756 0.53178036
vt 0.6553756 0.59998786
vt 0.66053694 0.62778604
vt 0.661732 0.61846405
vt 0.6728332 0.62778604
vt 0.6697754 0.61846405
vt 0.6728881 0.5348055
vt 0.6697754 0.54228866
vt 0.7697856 0.74264735
vt 0.7697856 0.7312334
vt 0.76002055 0.7312334
vt 0.76002055 0.74264735
vt 0.7178332 0.7399796
vt 0.7178332 0.7079516
vt 0.7214187 0.7079516
vt 0.7214187 0.74130857
vt 0.7214187 0.7425961
vt 0.7178332 0.7425961
vt 0.7178332 0.70781195
vt 0.72141874 0.70631343
vt 0.73389715 0.71414375
vt 0.73389715 0.7270866
vt 0.72489905 0.7270866
vt 0.72489905 0.71414375
vt 0.7338971 0.7411733
vt 0.72489905 0.7407065
vt 0.72489905 0.71570367
vt 0.73389715 0.71570367
vt 0.7338972 0.70624685
vt 0.7248991 0.70624685
vt 0.7248991 0.7403015
vt 0.7338972 0.74114853
vt 0.5459851 0.5487561
vt 0.5459851 0.53300214
vt 0.6480929 0.53300214
vt 0.6280219 0.5487561
vt 0.6480929 0.568592
vt 0.7446734 0.6840451
vt 0.7559218 0.6840451
vt 0.7559228 0.69334644
vt 0.7446734 0.69334644
vt 0.73556775 0.7424583
vt 0.73556775 0.70630723
vt 0.7399873 0.70630723
vt 0.7399873 0.7424583
vt 0.7399873 0.73767906
vt 0.73556733 0.7376791
vt 0.73556775 0.70630723
vt 0.7399873 0.70630723
vt 0.7441099 0.6933465
vt 0.7385606 0.6933465
vt 0.7385606 0.6895741
vt 0.7385606 0.68865883
vt 0.7385606 0.6884054
vt 0.7441099 0.68404514
vt 0.7385606 0.68404514
vt 0.7399873 0.73767906
vt 0.7399873 0.70630723
vt 0.7424748 0.70630723
vt 0.74277127 0.7377567
vt 0.7399873 0.7424583
vt 0.7399873 0.70630723
vt 0.7424748 0.70630723
vt 0.7424748 0.7424583
vt 0.6697754 0.6120142
vt 0.6643785 0.58613
vt 0.6697754 0.60118544
vt 0.6643785 0.59695894
vt 0.661732 0.54228866
vt 0.6643785 0.54228866
vt 0.661732 0.61846405
vt 0.6643785 0.61846405
vt 0.7248991 0.7061117
vt 0.7248991 0.73833776
vt 0.7338972 0.7391636
vt 0.7338972 0.7061117
vt 0.72489905 0.72680223
vt 0.72489905 0.71757025
vt 0.73389715 0.71757025
vt 0.73389715 0.72762805
vt 0.7178332 0.7381259
vt 0.7178332 0.71253765
vt 0.7214187 0.71253765
vt 0.7214187 0.7381259
vt 0.75517476 0.70630723
vt 0.75517476 0.73987025
vt 0.74588454 0.73987025
vt 0.74588454 0.70630723
vt 0.734042 0.738551
vt 0.72475094 0.73916537
vt 0.72475094 0.7116687
vt 0.734042 0.71166915
vt 0.75517476 0.72516245
vt 0.74588454 0.72516245
vt 0.74588454 0.7234402
vt 0.75517476 0.7234402
vt 0.74588454 0.72138417
vt 0.75517476 0.72138417
vt 0.6651851 0.54228866
vt 0.6698714 0.54228866
vt 0.6698714 0.56891966
vt 0.6651851 0.5849538
vt 0.75517476 0.73903084
vt 0.74588454 0.73903084
vt 0.74588454 0.70630723
vt 0.75517476 0.70630723
vt 0.734042 0.7122482
vt 0.72475094 0.7122482
vt 0.72475094 0.7389735
vt 0.734042 0.73913
vt 0.76499546 0.70435244
vt 0.75998557 0.7043525
vt 0.75998557 0.7312334
vt 0.7697856 0.7312334
vt 0.7697856 0.7043525
vt 0.6553756 0.5860441
vt 0.6553756 0.575342
vt 0.6571963 0.5675805
vt 0.6592998 0.57244915
vt 0.6592998 0.54228866
vt 0.6571963 0.54228866
vt 0.7214187 0.7200145
vt 0.7214187 0.73064905
vt 0.7178332 0.73064905
vt 0.7178332 0.7200145
vt 0.74588454 0.73654956
vt 0.74588454 0.7099971
vt 0.75517476 0.7099971
vt 0.75517476 0.73654956
vt 0.73389715 0.7288738
vt 0.72489905 0.7288738
vt 0.72489905 0.71632457
vt 0.73389715 0.71632457
vt 0.73389715 0.71736944
vt 0.73389715 0.72782874
vt 0.72489905 0.72782874
vt 0.72489905 0.71736944
vn -0 0.030457657 -0.99953604
vn -0 0.030457659 -0.99953604
vn -0 0.030457657 -0.99953604
vn -0 0.030457655 -0.99953604
vn -0 0.030457651 -0.99953604
vn -0 0.030457653 -0.99953604
vn 2.498817E-07 0.016873823 -0.99985766
vn 4.832521E-07 0.01687399 -0.99985766
vn 4.832521E-07 0.01687399 -0.99985766
vn 2.455137E-07 0.016873822 -0.99985766
vn -0 0.016874013 -0.99985766
vn -0 0.016873864 -0.99985766
vn -0 0.016874077 -0.99985766
vn -0 0.016874013 -0.99985766
vn -0 0.01687387 -0.99985766
vn -0 0.01687387 -0.99985766
vn -0.7189204 0.69509244 -1.3499039E-06
vn -0.71892035 0.69509244 -1.3499038E-06
vn -0.7189204 0.69509244 -1.3499039E-06
vn -0.7189204 0.69509244 -1.3499039E-06
vn 0.7111202 -0.64231217 -0.2859073
vn 0.89207715 -0.36136284 -0.2713216
vn 0.9081338 -0.32229114 -0.26724783
vn 0.7111202 -0.6423122 -0.28590733
vn -0.66128457 -0.60627425 -0.44174004
vn -0.6269221 -0.6392282 -0.44537187
vn 8.841973E-06 -0.924454 -0.38129354
vn 8.841973E-06 -0.92445403 -0.38129354
vn -1 0 4.051496E-07
vn -1 0 4.051496E-07
vn -1 0 4.051496E-07
vn -1 0 4.0514962E-07
vn 0.9081338 -0.32229114 -0.26724783
vn 0.89207715 -0.36136284 -0.2713216
vn 0.9758321 0.003088826 -0.21849957
vn 0.9758321 0.003088826 -0.21849959
vn -0.96088886 0.003916451 -0.2769064
vn -0.96088886 0.003916451 -0.2769064
vn -0.6269221 -0.6392282 -0.44537187
vn -0.66128457 -0.60627425 -0.44174004
vn -0 0.018838067 -0.99982256
vn -0 0.018838067 -0.99982256
vn -0 0.018837823 -0.99982256
vn -0 0.018837824 -0.99982256
vn -0 0.018837528 -0.99982256
vn -1.10201604E-07 0.8303799 -0.55719763
vn -1.10201604E-07 0.8303799 -0.5571977
vn -1.10201604E-07 0.8303799 -0.55719763
vn -1.1020159E-07 0.8303799 -0.55719763
vn 0.8502094 0.009137691 -0.52636534
vn 0.8502094 0.00913769 -0.5263653
vn 0.8502094 0.009137691 -0.52636534
vn 0.8502094 0.00913769 -0.5263653
vn 0.8166143 0.008973267 -0.57711405
vn 0.8166143 0.008973266 -0.577114
vn 0.8166143 0.008973266 -0.577114
vn 0.8166143 0.008973267 -0.577114
vn -0.73995626 0.5549141 -0.38017768
vn -0.786407 0.56561947 -0.24827145
vn -0.786407 0.56561947 -0.24827145
vn -0.75514185 0.5592006 -0.3421337
vn -0.7687216 0.5857298 -0.25688097
vn -0.7374144 0.5563071 -0.3830697
vn -0.78536004 0.60348153 -0.13791175
vn 0.99996245 0.00057779957 -0.008652627
vn 0.99996245 0.0005777995 -0.008652626
vn 0.99996245 0.0005777996 -0.0086526275
vn 0.99996245 0.0005777995 -0.008652627
vn 0.9999944 0.00032576369 -0.0033514663
vn 0.9999944 0.00032576369 -0.0033514658
vn 0.9999944 0.00032576369 -0.0033514663
vn 0.9999944 0.00032576369 -0.003351466
vn 2.3154517E-07 0.028048767 -0.99960655
vn 3.7357844E-07 0.028049 -0.99960655
vn 2.3154516E-07 0.028048769 -0.99960655
vn 3.0942226E-07 0.028048918 -0.99960655
vn 3.5091165E-07 0.028049117 -0.99960655
vn 3.4321084E-07 0.028049128 -0.99960655
vn 1.247302E-07 0.02804904 -0.99960655
vn -0 0.02804904 -0.99960655
vn -0.684531 0.01987119 -0.72871286
vn -0.684531 0.019871192 -0.7287129
vn -0.684531 0.01987119 -0.72871286
vn -0.6845311 0.01987119 -0.72871286
vn 0.6527596 0.020685513 -0.7572826
vn 0.6527596 0.020685514 -0.7572826
vn 0.6527596 0.020685513 -0.7572826
vn 0.6527596 0.020685513 -0.7572826
vn 0.7308414 -0.5408739 0.4163248
vn 0.73084134 -0.5408739 0.41632476
vn 0.73084134 -0.5408739 0.41632482
vn 0.73084134 -0.5408739 0.41632482
vn -0.47572017 0.38318795 -0.7917432
vn -0.47572017 0.383188 -0.7917432
vn -0.47572023 0.383188 -0.7917432
vn -0.47572014 0.383188 -0.7917432
vn 0.30992836 0.02647387 -0.9503913
vn 0.3099284 0.026473876 -0.9503913
vn 0.30992836 0.026473872 -0.9503913
vn 0.3099284 0.026473874 -0.9503913
vn 0.7509588 0.6603491 -3.5855828E-06
vn 0.7509588 0.6603491 -3.5855828E-06
vn 0.51388884 0.85785675 2.5785903E-06
vn 0.5219332 0.85298634 2.392128E-06
vn 0.63567513 0.7719566 1.52733E-05
vn 0.59928066 0.800539 1.4662759E-05
vn -0.13564849 0.027689353 -0.9903701
vn -1.1313167E-07 0.02804909 -0.99960655
vn -1.1313168E-07 0.02804909 -0.99960655
vn -0.21066594 0.027263565 -0.97717786
vn 0.59928066 0.800539 1.4662759E-05
vn 0.63567513 0.7719566 1.52733E-05
vn 0.86727685 0.4978261 1.882411E-05
vn 0.86727685 0.4978261 1.8824108E-05
vn -0.26944575 0.026812116 -0.96264225
vn -0.13564849 0.027689353 -0.9903701
vn -0.21066594 0.027263565 -0.97717786
vn -0.26944575 0.026812116 -0.96264225
vn -0 1 -2.701623E-06
vn 3.907699E-07 1 0
vn -3.8860003E-07 1 -1.9761421E-06
vn -6.2565897E-07 1 -2.7401493E-06
vn -4.0940006E-07 1 -6.5053187E-06
vn 9.117009E-07 0.028368771 -0.9995976
vn 9.1170085E-07 0.028368771 -0.9995976
vn 5.285792E-07 0.028368553 -0.9995976
vn 6.514103E-07 0.028368622 -0.9995976
vn 2.3658475E-07 0.028368384 -0.9995976
vn 2.3658475E-07 0.028368382 -0.9995976
vn -0.62479466 -0.5339511 -0.56967354
vn -0.62479466 -0.5339511 -0.56967354
vn -0.6247946 -0.5339511 -0.56967354
vn -0.62479466 -0.5339511 -0.56967354
vn 0.6243157 0.53434443 -0.5698299
vn 0.6243156 0.5343444 -0.5698298
vn 0.6243156 0.53434443 -0.5698299
vn 0.6243156 0.5343444 -0.5698299
vn 0.83709353 0.014991325 -0.54685426
vn 0.83709353 0.014991327 -0.54685426
vn 0.83709353 0.014991327 -0.5468543
vn 0.83709353 0.014991325 -0.5468543
vn -0.8288962 0.015335213 -0.5591922
vn -0.8288962 0.015335213 -0.5591922
vn -0.8288962 0.015335215 -0.5591922
vn -0.8288962 0.015335216 -0.5591922
g keydoor_indoor_R_0
f 3/3/3 2/2/2 1/1/1
f 2/2/2 4/4/4 1/1/1
f 5/5/5 1/1/1 4/4/4
f 6/6/6 5/5/5 4/4/4
f 9/9/9 8/8/8 7/7/7
f 10/10/10 9/9/9 7/7/7
f 10/10/10 7/7/7 11/11/11
f 12/12/12 10/10/10 11/11/11
f 12/12/12 11/11/11 13/13/13
f 14/14/14 12/12/12 13/13/13
f 13/13/13 15/15/15 14/14/14
f 15/15/15 16/16/16 14/14/14
f 19/19/19 18/18/18 17/17/17
f 20/20/20 19/19/19 17/17/17
f 23/23/23 22/22/22 21/21/21
f 24/24/24 23/23/23 21/21/21
f 27/27/27 26/26/26 25/25/25
f 28/28/28 27/27/27 25/25/25
f 31/31/31 30/30/30 29/29/29
f 32/32/32 31/31/31 29/29/29
f 35/35/35 34/34/34 33/33/33
f 36/36/36 35/35/35 33/33/33
f 39/39/39 38/38/38 37/37/37
f 40/40/40 39/39/39 37/37/37
f 43/43/43 42/42/42 41/41/41
f 44/44/44 43/43/43 41/41/41
f 45/45/45 43/43/43 44/44/44
f 48/48/48 47/47/47 46/46/46
f 49/49/49 48/48/48 46/46/46
f 52/52/52 51/51/51 50/50/50
f 53/53/53 52/52/52 50/50/50
f 56/56/56 55/55/55 54/54/54
f 57/57/57 56/56/56 54/54/54
f 60/60/60 59/59/59 58/58/58
f 61/61/61 60/60/60 58/58/58
f 61/61/61 58/58/58 62/62/62
f 58/58/58 63/63/63 62/62/62
f 62/62/62 63/63/63 64/64/64
f 67/67/67 66/66/66 65/65/65
f 68/68/68 67/67/67 65/65/65
f 71/71/71 70/70/70 69/69/69
f 72/72/72 71/71/71 69/69/69
f 75/75/75 74/74/74 73/73/73
f 74/74/74 76/76/76 73/73/73
f 76/76/76 74/74/74 77/77/77
f 74/74/74 78/78/78 77/77/77
f 79/79/79 76/76/76 77/77/77
f 79/79/79 80/80/80 76/76/76
f 83/83/83 82/82/82 81/81/81
f 84/84/84 83/83/83 81/81/81
f 87/87/87 86/86/86 85/85/85
f 88/88/88 87/87/87 85/85/85
f 91/91/91 90/90/90 89/89/89
f 92/92/92 91/91/91 89/89/89
f 95/95/95 94/94/94 93/93/93
f 96/96/96 95/95/95 93/93/93
f 99/99/99 98/98/98 97/97/97
f 100/100/100 99/99/99 97/97/97
f 103/103/103 102/102/102 101/101/101
f 104/104/104 103/103/103 101/101/101
f 105/105/105 103/103/103 104/104/104
f 106/106/106 105/105/105 104/104/104
f 109/109/109 108/108/108 107/107/107
f 110/110/110 109/109/109 107/107/107
f 113/113/113 112/112/112 111/111/111
f 114/114/114 113/113/113 111/111/111
f 117/117/117 116/116/116 115/115/115
f 118/118/118 117/117/117 115/115/115
f 121/121/121 120/120/120 119/119/119
f 121/121/121 119/119/119 122/122/122
f 119/119/119 123/123/123 122/122/122
f 126/126/126 125/125/125 124/124/124
f 127/127/127 126/126/126 124/124/124
f 126/126/126 127/127/127 128/128/128
f 129/129/129 126/126/126 128/128/128
f 132/132/132 131/131/131 130/130/130
f 133/133/133 132/132/132 130/130/130
f 136/136/136 135/135/135 134/134/134
f 137/137/137 136/136/136 134/134/134
f 140/140/140 139/139/139 138/138/138
f 141/141/141 140/140/140 138/138/138
f 144/144/144 143/143/143 142/142/142
f 145/145/145 144/144/144 142/142/142
