g keydoor1_c
v -0.09208128 1.710147 -0.68072623
v -0.118280165 1.6652274 -0.6526401
v -0.09208128 1.3853376 -0.6807258
v -0.118280165 1.6652274 -0.6526401
v -0.118280165 1.4244576 -0.65264
v -0.09208128 1.3853376 -0.6807258
v -1.327378 1.4244576 -0.65264
v -0.97139066 1.4244576 -0.65264004
v -0.97139084 1.6652274 -0.6526403
v -1.327378 1.6652274 -0.65264004
v -1.3501443 1.6652274 -0.65264
v -1.3501443 1.4244576 -0.65264
v -1.4636928 1.6652274 -0.65264
v -1.4636928 1.4244576 -0.65264
v -0.016774472 1.7101569 -0.6807261
v -0.016774472 1.3853376 -0.6807258
v -3.07312E-06 1.3853376 -0.6807258
v -3.07312E-06 1.7101665 -0.68072605
v -0.09208128 1.7430582 -0.5560881
v -0.118280165 1.6949174 -0.5560881
v -0.118280165 1.6949184 -0.62768084
v -0.09208128 1.74306 -0.6557668
v -0.09208128 1.710147 -0.68072623
v -0.118280165 1.6949184 -0.62768084
v -0.118280165 1.6652274 -0.6526401
v -0.09208128 1.74306 -0.6557668
v -1.327378 1.6949184 -0.6276808
v -0.97139066 1.6949184 -0.62768084
v -0.97139084 1.694917 -0.55608815
v -1.327378 1.694917 -0.5560881
v -1.3501443 1.694917 -0.5560881
v -1.3501443 1.6949184 -0.6276808
v -1.4636928 1.6949174 -0.5560881
v -1.4636928 1.6949184 -0.6276808
v -1.327378 1.6949184 -0.6276808
v -0.97139084 1.6652274 -0.6526403
v -0.97139066 1.6949184 -0.62768084
v -1.327378 1.6652274 -0.65264004
v -1.3501443 1.6949184 -0.6276808
v -1.3501443 1.6652274 -0.65264
v -0.94862455 1.6652274 -0.65264
v -0.118280165 1.4244576 -0.65264
v -0.118280165 1.6652274 -0.6526401
v -0.94862455 1.4244576 -0.65264
v -0.97139066 1.4244576 -0.65264004
v -0.97139084 1.6652274 -0.6526403
v -0.94862455 1.6949184 -0.6276808
v -0.118280165 1.6949184 -0.62768084
v -0.118280165 1.6949174 -0.5560881
v -0.94862455 1.694917 -0.5560881
v -0.97139084 1.694917 -0.55608815
v -0.97139066 1.6949184 -0.62768084
v -1.3501443 1.6652274 -0.65264
v -1.3501443 1.6949184 -0.6276808
v -1.4636928 1.6949184 -0.6276808
v -1.4636928 1.6652274 -0.65264
v -0.94862455 1.6949184 -0.6276808
v -0.118280165 1.6652274 -0.6526401
v -0.118280165 1.6949184 -0.62768084
v -0.94862455 1.6652274 -0.65264
v -0.97139066 1.6949184 -0.62768084
v -0.97139084 1.6652274 -0.6526403
v -0.09208128 1.74306 -0.6557668
v -0.01685906 1.74306 -0.6557668
v -0.01685906 1.7430584 -0.5560882
v -0.09208128 1.7430582 -0.5560881
v -0.016774472 1.7101569 -0.6807261
v -0.01685906 1.74306 -0.6557668
v -0.09208128 1.710147 -0.68072623
v -0.09208128 1.74306 -0.6557668
v -0.09208128 1.710147 -0.68072623
v -0.09208128 1.3853376 -0.6807258
v -0.016774472 1.3853376 -0.6807258
v -0.016774472 1.7101569 -0.6807261
v -3.07312E-06 1.74306 -0.6557668
v -3.07312E-06 1.7430587 -0.5560881
v -0.01685906 1.7430584 -0.5560882
v -0.01685906 1.74306 -0.6557668
v -0.016774472 1.7101569 -0.6807261
v -3.07312E-06 1.74306 -0.6557668
v -0.01685906 1.74306 -0.6557668
v -3.07312E-06 1.7101665 -0.68072605
vt 0.19158308 0.93921995
vt 0.19117817 0.93921995
vt 0.19158308 0.93292046
vt 0.19117817 0.93921995
vt 0.19117817 0.93292046
vt 0.19158308 0.93292046
vt 0.17763442 0.93292046
vt 0.18325129 0.93292046
vt 0.18325129 0.93921995
vt 0.17763442 0.93921995
vt 0.17566831 0.93921995
vt 0.17566831 0.93292046
vt 0.16889024 0.93921995
vt 0.16889021 0.93292046
vt 0.19599389 0.93921995
vt 0.19599389 0.93292046
vt 0.19639803 0.93292046
vt 0.19639803 0.93921995
vt 0.19158308 0.94230676
vt 0.19117817 0.94230676
vt 0.19117817 0.94119525
vt 0.19158308 0.94119525
vt 0.19158308 0.93991435
vt 0.19117817 0.94053614
vt 0.19117817 0.93991435
vt 0.19158308 0.94053614
vt 0.17763442 0.94119525
vt 0.18325129 0.94119525
vt 0.18325129 0.94230676
vt 0.17763442 0.94230676
vt 0.17566831 0.94230676
vt 0.17566831 0.94119525
vt 0.16889024 0.94230676
vt 0.16889024 0.94119525
vt 0.17763442 0.94053614
vt 0.18325129 0.93991435
vt 0.18325129 0.94053614
vt 0.17763442 0.93991435
vt 0.17665859 0.94053614
vt 0.17665859 0.93991435
vt 0.18546833 0.93921995
vt 0.19068724 0.93292046
vt 0.19068724 0.93921995
vt 0.18546833 0.93292046
vt 0.18435743 0.93292046
vt 0.18435743 0.93921995
vt 0.18546833 0.94119525
vt 0.19068724 0.94119525
vt 0.19068724 0.94230676
vt 0.18546833 0.94230676
vt 0.18435743 0.94230676
vt 0.18435743 0.94119525
vt 0.17566831 0.93991435
vt 0.17566831 0.94053614
vt 0.16889024 0.94053614
vt 0.16889024 0.93991435
vt 0.18546833 0.94053614
vt 0.19068724 0.93991435
vt 0.19068724 0.94053614
vt 0.18546833 0.93991435
vt 0.18435743 0.94053614
vt 0.18435743 0.93991435
vt 0.19209245 0.94119525
vt 0.19360375 0.94119525
vt 0.19360375 0.94230676
vt 0.19209245 0.94230676
vt 0.19360375 0.93991435
vt 0.19360375 0.94053614
vt 0.19209245 0.93991435
vt 0.19209245 0.94053614
vt 0.19209245 0.93921995
vt 0.19209245 0.93292046
vt 0.19360375 0.93292046
vt 0.19360375 0.93921995
vt 0.19639803 0.94119525
vt 0.19639803 0.94230676
vt 0.19599389 0.94230676
vt 0.19599389 0.94119525
vt 0.19599389 0.93991435
vt 0.19639803 0.94053614
vt 0.19599389 0.94053614
vt 0.19639803 0.93991435
vn -0.73124593 -6.488557E-07 -0.6821139
vn -0.73124593 -6.488557E-07 -0.6821139
vn -0.73124593 -6.488557E-07 -0.6821139
vn -0.73124593 -6.488557E-07 -0.6821139
vn -0.73124593 -6.488557E-07 -0.6821139
vn -0.73124593 -6.488557E-07 -0.6821139
vn -4.3163345E-07 -6.381862E-07 -1
vn -4.3163345E-07 -6.381862E-07 -1
vn -4.3163345E-07 -6.381861E-07 -1
vn -4.3163345E-07 -6.381862E-07 -1
vn -0 0 -1
vn -0 0 -1
vn -0 0 -1
vn -0 0 -1
vn 2.290682E-06 -8.278266E-07 -1
vn 2.290682E-06 -8.278266E-07 -1
vn 2.290682E-06 -8.278266E-07 -1
vn 2.290682E-06 -8.278266E-07 -1
vn -0.8783541 0.47801065 7.721481E-06
vn -0.87835395 0.47801068 7.72148E-06
vn -0.8783541 0.4780107 7.72148E-06
vn -0.8783541 0.4780107 7.721481E-06
vn -0.8893845 0.2850128 -0.3574394
vn -0.8893845 0.28501278 -0.35743937
vn -0.8893845 0.28501278 -0.35743937
vn -0.8893845 0.28501272 -0.35743937
vn -0 1 1.9316269E-05
vn -0 1 1.9316269E-05
vn -0 1 1.9316269E-05
vn -0 1 1.9316269E-05
vn 2.0298278E-06 1 1.6096888E-05
vn 2.0298278E-06 1 1.6096888E-05
vn 2.0298278E-06 1 1.6096888E-05
vn 2.0298278E-06 1 1.6096888E-05
vn -3.3004773E-07 0.6434784 -0.76546425
vn -3.3004775E-07 0.6434784 -0.76546425
vn -3.300477E-07 0.6434784 -0.76546425
vn -3.3004773E-07 0.6434784 -0.76546425
vn -1.3004752E-06 0.64347667 -0.76546574
vn -1.3004752E-06 0.6434767 -0.76546574
vn -0 -3.1909306E-07 -1
vn -0 -3.1909306E-07 -1
vn -0 -3.1909306E-07 -1
vn -0 -3.1909306E-07 -1
vn 8.436626E-06 -4.7863693E-07 -1
vn 8.436626E-06 -4.7863693E-07 -1
vn -2.7757568E-07 1 1.6096892E-05
vn -2.7757568E-07 1 1.6096892E-05
vn -2.7757568E-07 1 1.6096892E-05
vn -2.7757568E-07 1 1.6096892E-05
vn -0 1 1.931627E-05
vn -0 1 1.931627E-05
vn -0 0.64347607 -0.7654662
vn -0 0.64347607 -0.7654662
vn -0 0.64347607 -0.7654662
vn -0 0.64347607 -0.7654662
vn -0 0.643477 -0.7654655
vn -0 0.643477 -0.7654655
vn -0 0.643477 -0.7654655
vn -0 0.643477 -0.7654655
vn 6.4476326E-06 0.6434779 -0.76546466
vn 6.4476326E-06 0.64347786 -0.76546466
vn -2.0426858E-06 1 1.6956652E-05
vn -2.0426858E-06 1 1.6956652E-05
vn -2.0426858E-06 1 1.6956652E-05
vn -2.042686E-06 1 1.6956654E-05
vn -3.9073322E-05 0.6043043 -0.7967536
vn -3.9073315E-05 0.6043043 -0.79675364
vn -3.907332E-05 0.6043043 -0.7967536
vn -3.9073315E-05 0.6043043 -0.7967536
vn 5.101695E-07 -1.0643803E-06 -1
vn 5.1016946E-07 -1.0643803E-06 -1
vn 5.1016946E-07 -1.0643803E-06 -1
vn 5.101695E-07 -1.0643803E-06 -1
vn -4.557939E-06 1 1.4644378E-05
vn -4.557939E-06 1 1.4644381E-05
vn -4.557939E-06 1 1.4644381E-05
vn -4.557939E-06 1 1.4644378E-05
vn -0.00016943825 0.60441595 -0.7966689
vn -0.00016943824 0.60441595 -0.7966689
vn -0.00016943825 0.60441595 -0.7966689
vn -0.00016943824 0.6044159 -0.7966689
g keydoor1_c_0
f 3/3/3 2/2/2 1/1/1
f 6/6/6 5/5/5 4/4/4
f 9/9/9 8/8/8 7/7/7
f 7/7/7 10/10/10 9/9/9
f 7/7/7 11/11/11 10/10/10
f 7/7/7 12/12/12 11/11/11
f 12/12/12 13/13/13 11/11/11
f 12/12/12 14/14/14 13/13/13
f 17/17/17 16/16/16 15/15/15
f 15/15/15 18/18/18 17/17/17
f 21/21/21 20/20/20 19/19/19
f 19/19/19 22/22/22 21/21/21
f 25/25/25 24/24/24 23/23/23
f 26/26/26 23/23/23 24/24/24
f 29/29/29 28/28/28 27/27/27
f 27/27/27 30/30/30 29/29/29
f 31/31/31 30/30/30 27/27/27
f 31/31/31 27/27/27 32/32/32
f 33/33/33 31/31/31 32/32/32
f 34/34/34 33/33/33 32/32/32
f 37/37/37 36/36/36 35/35/35
f 36/36/36 38/38/38 35/35/35
f 38/38/38 39/39/39 35/35/35
f 38/38/38 40/40/40 39/39/39
f 43/43/43 42/42/42 41/41/41
f 42/42/42 44/44/44 41/41/41
f 41/41/41 44/44/44 45/45/45
f 45/45/45 46/46/46 41/41/41
f 49/49/49 48/48/48 47/47/47
f 47/47/47 50/50/50 49/49/49
f 51/51/51 50/50/50 47/47/47
f 51/51/51 47/47/47 52/52/52
f 55/55/55 54/54/54 53/53/53
f 53/53/53 56/56/56 55/55/55
f 59/59/59 58/58/58 57/57/57
f 58/58/58 60/60/60 57/57/57
f 57/57/57 60/60/60 61/61/61
f 60/60/60 62/62/62 61/61/61
f 65/65/65 64/64/64 63/63/63
f 63/63/63 66/66/66 65/65/65
f 69/69/69 68/68/68 67/67/67
f 68/68/68 69/69/69 70/70/70
f 73/73/73 72/72/72 71/71/71
f 71/71/71 74/74/74 73/73/73
f 77/77/77 76/76/76 75/75/75
f 75/75/75 78/78/78 77/77/77
f 81/81/81 80/80/80 79/79/79
f 82/82/82 79/79/79 80/80/80
