g keydoor1_a
v -0.26735544 1.4178944 -0.8119428
v -0.21627063 1.5026317 -0.70838004
v -0.24694106 1.5203636 -0.8119428
v -0.10220594 1.1707934 -0.81194293
v -0.12486963 1.2193909 -0.70838004
v -0.18910836 1.2287287 -0.8119428
v 0.24694525 1.5203636 -0.8119428
v 0.21388601 1.5026315 -0.70838004
v 0.26735967 1.4178942 -0.8119428
v 0.18911259 1.2287287 -0.8119428
v 0.1224885 1.219391 -0.70838004
v 0.10221013 1.1707932 -0.81194293
v 0.064338535 0.9208298 -0.70838004
v 2.074356E-06 0.89395297 -0.8119428
v 0.094273105 0.8939531 -0.8119428
v 0.064338535 0.9208298 -0.70838004
v -0.0011905268 0.9208361 -0.70838004
v -0.4224582 0.9543599 -0.8119428
v -0.3482947 0.8609558 -0.803458
v -0.34105512 0.87490577 -0.8119428
v -0.4224582 0.9543599 -0.8119428
v -0.4363863 0.9469414 -0.8034562
v -0.5828999 0.9354791 -0.72138315
v -0.49393302 1.7242166 -0.7213836
v -0.5828999 1.6528429 -0.7213836
v -0.49393302 0.86036885 -0.72138315
v -0.49393302 1.7438463 -0.56523556
v -0.5828999 1.6528429 -0.7213836
v -0.49393302 1.7242166 -0.7213836
v -0.60760015 1.6528429 -0.56523556
v -0.60760015 1.6528429 -0.56523556
v -0.5828999 0.9354791 -0.72138315
v -0.5828999 1.6528429 -0.7213836
v -0.60760015 0.9354791 -0.56523556
v -0.4931484 1.7713805 -0.7836651
v -0.5133326 0.8160285 -0.56545
v -0.4931484 0.82316166 -0.7836651
v -0.5133326 1.7785138 -0.56544995
v 0.46767816 1.7972044 -0.78366464
v -0.48681903 1.804726 -0.56544995
v -0.467674 1.7972044 -0.7836651
v 0.48682323 1.804726 -0.56544954
v 0.49315256 0.82316166 -0.78366464
v 0.51333684 1.7785138 -0.56544954
v 0.49315256 1.7713805 -0.78366464
v 0.51333684 0.8160285 -0.56544954
v -0.3482947 1.7335865 -0.803458
v 2.074356E-06 1.7468238 -0.7756318
v -0.35880178 1.7468238 -0.7756318
v 2.074356E-06 1.7338088 -0.8029906
v 0.3482989 1.7335865 -0.8034575
v 0.35880598 1.7468237 -0.7756318
v -0.4363863 1.6476009 -0.80345625
v -0.4495507 0.93631345 -0.7756318
v -0.4363863 0.9469414 -0.8034562
v -0.4495507 1.6582289 -0.7756318
v -0.4495507 1.6582289 -0.7756318
v -0.3482947 1.7335865 -0.803458
v -0.35880178 1.7468238 -0.7756318
v -0.4363863 1.6476009 -0.80345625
v -0.09426892 0.89395326 -0.8119428
v -0.066175565 1.1549683 -0.81194293
v -0.10220594 1.1707934 -0.81194293
v -0.34105512 0.87490577 -0.8119428
v -0.18910836 1.2287287 -0.8119428
v 2.074356E-06 0.87490577 -0.8119428
v 2.074356E-06 0.89395297 -0.8119428
v -0.4224582 0.9543599 -0.8119428
v -0.24704567 1.3155285 -0.8119428
v -0.26735544 1.4178944 -0.8119428
v -0.4224582 1.6401826 -0.81194293
v -0.24694106 1.5203636 -0.8119428
v 0.094273105 0.8939531 -0.8119428
v -0.34105512 1.7196366 -0.8119428
v -0.18890262 1.6068544 -0.81194293
v -0.10220594 1.6648926 -0.8119428
v 2.074356E-06 1.7196366 -0.8119428
v 2.074356E-06 1.6853449 -0.8119428
v 0.10221013 1.6648924 -0.8119428
v 0.34105933 1.7196364 -0.8119428
v 0.18890685 1.6068543 -0.81194293
v 0.24694525 1.5203636 -0.8119428
v 0.42246234 1.6401826 -0.81194293
v 0.26735967 1.4178942 -0.8119428
v 0.42246234 0.9543599 -0.8119428
v 0.24704988 1.3155285 -0.8119428
v 0.18911259 1.2287287 -0.8119428
v 0.34105933 0.87490577 -0.8119428
v 0.10221013 1.1707932 -0.81194293
v 0.0661798 1.1549681 -0.81194293
v 0.4495549 0.93631345 -0.7756318
v 0.4363905 1.6476009 -0.80345577
v 0.4363905 0.9469414 -0.8034557
v 0.4495549 1.6582289 -0.7756318
v 0.3482989 1.7335865 -0.8034575
v 0.4495549 1.6582289 -0.7756318
v 0.35880598 1.7468237 -0.7756318
v 0.4363905 1.6476009 -0.80345577
v -0.21627063 1.5026317 -0.70838004
v -0.18890262 1.6068544 -0.81194293
v -0.24694106 1.5203636 -0.8119428
v -0.12612504 1.6065897 -0.70838004
v -0.12486963 1.2193909 -0.70838004
v -0.24704567 1.3155285 -0.8119428
v -0.18910836 1.2287287 -0.8119428
v -0.21636128 1.3235731 -0.70838
v -0.21636128 1.3235731 -0.70838
v -0.26735544 1.4178944 -0.8119428
v -0.24704567 1.3155285 -0.8119428
v -0.21627063 1.5026317 -0.70838004
v -0.06671959 0.9208298 -0.70838004
v -0.066175565 1.1549683 -0.81194293
v -0.09426892 0.89395326 -0.8119428
v -0.04062442 1.1724193 -0.70838004
v -0.04062442 1.1724193 -0.70838004
v -0.10220594 1.1707934 -0.81194293
v -0.066175565 1.1549683 -0.81194293
v -0.12486963 1.2193909 -0.70838004
v -0.0011905268 0.9208361 -0.70838004
v -0.09426892 0.89395326 -0.8119428
v 2.074356E-06 0.89395297 -0.8119428
v -0.06671959 0.9208298 -0.70838004
v 0.123743944 1.6065897 -0.70838004
v 0.24694525 1.5203636 -0.8119428
v 0.18890685 1.6068543 -0.81194293
v 0.21388601 1.5026315 -0.70838004
v 0.21397674 1.323573 -0.70838
v 0.18911259 1.2287287 -0.8119428
v 0.24704988 1.3155285 -0.8119428
v 0.1224885 1.219391 -0.70838004
v 0.21388601 1.5026315 -0.70838004
v 0.24704988 1.3155285 -0.8119428
v 0.26735967 1.4178942 -0.8119428
v 0.21397674 1.323573 -0.70838
v 0.1224885 1.219391 -0.70838004
v 0.0661798 1.1549681 -0.81194293
v 0.10221013 1.1707932 -0.81194293
v 0.038239907 1.1724193 -0.70838004
v 0.038239907 1.1724193 -0.70838004
v 0.094273105 0.8939531 -0.8119428
v 0.0661798 1.1549681 -0.81194293
v 0.064338535 0.9208298 -0.70838004
v -0.0011905268 1.6490297 -0.70838004
v -0.12612504 1.6065897 -0.70838004
v 0.123743944 1.6065897 -0.70838004
v 0.21388601 1.5026315 -0.70838004
v -0.21627063 1.5026317 -0.70838004
v 0.21397674 1.323573 -0.70838
v -0.21636128 1.3235731 -0.70838
v 0.1224885 1.219391 -0.70838004
v -0.12486963 1.2193909 -0.70838004
v 0.038239907 1.1724193 -0.70838004
v -0.04062442 1.1724193 -0.70838004
v 0.064338535 0.9208298 -0.70838004
v -0.06671959 0.9208298 -0.70838004
v -0.0011905268 0.9208361 -0.70838004
v 0.064338535 0.9208298 -0.70838004
v -0.48681903 1.804726 -0.56544995
v -0.4931484 1.7713805 -0.7836651
v -0.467674 1.7972044 -0.7836651
v -0.5133326 1.7785138 -0.56544995
v 0.51333684 1.7785138 -0.56544954
v 0.46767816 1.7972044 -0.78366464
v 0.49315256 1.7713805 -0.78366464
v 0.48682323 1.804726 -0.56544954
v 2.074356E-06 1.7196366 -0.8119428
v -0.3482947 1.7335865 -0.803458
v -0.34105512 1.7196366 -0.8119428
v 2.074356E-06 1.7338088 -0.8029906
v 0.34105933 1.7196364 -0.8119428
v 0.3482989 1.7335865 -0.8034575
v -0.4363863 0.9469414 -0.8034562
v -0.4224582 1.6401826 -0.81194293
v -0.4363863 1.6476009 -0.80345625
v -0.4224582 0.9543599 -0.8119428
v -0.34105512 1.7196366 -0.8119428
v -0.4363863 1.6476009 -0.80345625
v -0.4224582 1.6401826 -0.81194293
v -0.3482947 1.7335865 -0.803458
v 2.074356E-06 0.8607336 -0.8029906
v -0.34105512 0.87490577 -0.8119428
v -0.3482947 0.8609558 -0.803458
v 2.074356E-06 0.87490577 -0.8119428
v 0.3482989 0.8609558 -0.8034575
v 0.34105933 0.87490577 -0.8119428
v 0.42246234 0.9543599 -0.8119428
v 0.4363905 1.6476009 -0.80345577
v 0.42246234 1.6401826 -0.81194293
v 0.4363905 0.9469414 -0.8034557
v 0.3482989 1.7335865 -0.8034575
v 0.42246234 1.6401826 -0.81194293
v 0.4363905 1.6476009 -0.80345577
v 0.34105933 1.7196364 -0.8119428
v 0.4363905 0.9469414 -0.8034557
v 0.34105933 0.87490577 -0.8119428
v 0.3482989 0.8609558 -0.8034575
v 0.42246234 0.9543599 -0.8119428
v 0.49393722 1.7242166 -0.7213832
v 0.5829042 0.9354791 -0.7213827
v 0.5829042 1.6528429 -0.72138315
v 0.49393722 0.86036885 -0.72138315
v 0.5829042 1.6528429 -0.72138315
v 0.49393722 1.7438463 -0.5652351
v 0.49393722 1.7242166 -0.7213832
v 0.6076044 1.6528429 -0.5652351
v 0.5829042 0.9354791 -0.7213827
v 0.6076044 1.6528429 -0.5652351
v 0.5829042 1.6528429 -0.72138315
v 0.6076044 0.9354791 -0.5652351
v 0.49315256 0.82316166 -0.78366464
v 0.35482007 0.88628876 -0.78366464
v 0.46767816 0.79733783 -0.78366464
v 0.49315256 1.7713805 -0.78366464
v 0.46767816 1.7972044 -0.78366464
v -0.35481587 0.88628876 -0.7836651
v 0.35482007 1.7082539 -0.78366464
v -0.467674 0.79733783 -0.7836651
v -0.467674 1.7972044 -0.7836651
v -0.35481587 1.7082539 -0.7836651
v -0.4931484 0.82316166 -0.7836651
v -0.4931484 1.7713805 -0.7836651
vt 0.17612994 0.9536449
vt 0.18143871 0.9556613
vt 0.17612994 0.9556613
vt 0.17612994 0.9487176
vt 0.18143871 0.9493158
vt 0.17612994 0.949914
vt 0.17612994 0.9556613
vt 0.18143871 0.9536449
vt 0.17612994 0.9536449
vt 0.17612994 0.949914
vt 0.18143871 0.9493158
vt 0.17612994 0.9487176
vt 0.18121418 0.9434805
vt 0.17612994 0.94328415
vt 0.17612994 0.9434805
vt 0.18121418 0.9434805
vt 0.18121418 0.94328415
vt 0.14026944 0.91537905
vt 0.1422291 0.9142245
vt 0.14026944 0.9142245
vt 0.14026944 0.91537905
vt 0.1422291 0.91537905
vt 0.18609676 0.94324946
vt 0.191346 0.9564445
vt 0.18609676 0.9564445
vt 0.191346 0.94324946
vt 0.191346 0.9588243
vt 0.18693097 0.9564445
vt 0.191346 0.9564445
vt 0.18693505 0.9588243
vt 0.18459672 0.9564445
vt 0.18609676 0.94325423
vt 0.18609676 0.9564445
vt 0.18459672 0.9428258
vt 0.16688295 0.9393194
vt 0.16825841 0.9225825
vt 0.16688295 0.9227284
vt 0.16825841 0.9393194
vt 0.14710815 0.9397749
vt 0.16664024 0.94236135
vt 0.1666397 0.93977475
vt 0.14711104 0.94236135
vt 0.1469471 0.9227284
vt 0.14560126 0.9393194
vt 0.1469471 0.9393194
vt 0.14560126 0.9225825
vt 0.1402687 0.93782115
vt 0.12770112 0.9424819
vt 0.1402687 0.9424819
vt 0.12770112 0.93782425
vt 0.11391152 0.93782115
vt 0.11391152 0.9424819
vt 0.1422291 0.9339354
vt 0.14488481 0.91537905
vt 0.1422291 0.91537905
vt 0.14488481 0.9339354
vt 0.14488481 0.9339354
vt 0.1422291 0.9358753
vt 0.14488481 0.9358753
vt 0.1422291 0.9339354
vt 0.13040115 0.9152541
vt 0.12959655 0.92287314
vt 0.13062842 0.9233974
vt 0.14026944 0.9142245
vt 0.1331174 0.9253168
vt 0.12770109 0.9142245
vt 0.12770109 0.9152541
vt 0.14026944 0.91537905
vt 0.13477676 0.9281926
vt 0.13535841 0.9315841
vt 0.14026944 0.9339354
vt 0.13477375 0.93228734
vt 0.12500109 0.9152541
vt 0.14026944 0.93587136
vt 0.13311143 0.9338429
vt 0.13062839 0.9348867
vt 0.12770109 0.93587136
vt 0.12770109 0.9352546
vt 0.12477381 0.9348867
vt 0.113910146 0.93587136
vt 0.12229074 0.9338429
vt 0.120628454 0.93228734
vt 0.113910146 0.9339354
vt 0.12004382 0.9315623
vt 0.113910146 0.91537905
vt 0.12062547 0.92817926
vt 0.12228481 0.9253168
vt 0.113910146 0.9142245
vt 0.12477378 0.9233974
vt 0.12580569 0.92287314
vt 0.109396555 0.91537905
vt 0.11195449 0.9339354
vt 0.11195449 0.91537905
vt 0.109396555 0.9339354
vt 0.11195449 0.9358673
vt 0.109396555 0.9339354
vt 0.109396555 0.9358673
vt 0.11195449 0.9339354
vt 0.18143871 0.9556613
vt 0.17612994 0.95738316
vt 0.17612994 0.9556613
vt 0.18143871 0.95738316
vt 0.18143871 0.9493158
vt 0.17612994 0.95163643
vt 0.17612994 0.949914
vt 0.18143871 0.95163643
vt 0.18143871 0.95163643
vt 0.17612994 0.9536449
vt 0.17612994 0.95163643
vt 0.18143871 0.9556613
vt 0.18143871 0.9438379
vt 0.17612994 0.94834566
vt 0.17612994 0.9438379
vt 0.18143871 0.94834566
vt 0.18143871 0.94834566
vt 0.17612994 0.9487176
vt 0.17612994 0.94834566
vt 0.18143871 0.9493158
vt 0.18121418 0.94328415
vt 0.17612994 0.9434805
vt 0.17612994 0.94328415
vt 0.18121418 0.9434805
vt 0.18143871 0.95738316
vt 0.17612994 0.9556613
vt 0.17612994 0.95738316
vt 0.18143871 0.9536449
vt 0.18143871 0.95163643
vt 0.17612994 0.949914
vt 0.17612994 0.95163643
vt 0.18143871 0.9493158
vt 0.18143871 0.9536449
vt 0.17612994 0.95163643
vt 0.17612994 0.9536449
vt 0.18143871 0.95163643
vt 0.18143871 0.9493158
vt 0.17612994 0.94834566
vt 0.17612994 0.9487176
vt 0.18143871 0.94834566
vt 0.18143871 0.94834566
vt 0.17612994 0.9438379
vt 0.17612994 0.94834566
vt 0.18143871 0.9438379
vt 0.18143871 0.95890737
vt 0.1835055 0.9579494
vt 0.18143871 0.9579494
vt 0.18143871 0.9536449
vt 0.1835055 0.9556613
vt 0.18143871 0.95163643
vt 0.1835055 0.95163643
vt 0.18143871 0.9493158
vt 0.1835055 0.9493158
vt 0.18143871 0.94834566
vt 0.1835055 0.94834566
vt 0.18143871 0.9438379
vt 0.1835055 0.9438379
vt 0.18143871 0.9438379
vt 0.18143871 0.9438379
vt 0.16825841 0.94032717
vt 0.16712452 0.9393835
vt 0.16712452 0.94032717
vt 0.16825841 0.9393835
vt 0.14560126 0.9393835
vt 0.14664094 0.94032717
vt 0.14664094 0.9393835
vt 0.14560126 0.94032717
vt 0.12770109 0.93587136
vt 0.1402687 0.93782115
vt 0.14026944 0.93587136
vt 0.12770112 0.93782425
vt 0.113910146 0.93587136
vt 0.11391152 0.93782115
vt 0.1422291 0.91537905
vt 0.14026944 0.9339354
vt 0.1422291 0.9339354
vt 0.14026944 0.91537905
vt 0.14026944 0.93587136
vt 0.1422291 0.9339354
vt 0.14026944 0.9339354
vt 0.1422291 0.9358753
vt 0.12770109 0.9139365
vt 0.14026944 0.9142245
vt 0.14027141 0.9139333
vt 0.12770109 0.9142245
vt 0.113910414 0.91394615
vt 0.113910146 0.9142245
vt 0.113910146 0.91537905
vt 0.11195449 0.9339354
vt 0.113910146 0.9339354
vt 0.11195449 0.91537905
vt 0.11195449 0.9358673
vt 0.113910146 0.9339354
vt 0.11195449 0.9339354
vt 0.113910146 0.93587136
vt 0.11195449 0.91537905
vt 0.113910146 0.9142245
vt 0.11195449 0.9142225
vt 0.113910146 0.91537905
vt 0.191346 0.9564445
vt 0.18609676 0.94324946
vt 0.18609676 0.9564445
vt 0.191346 0.94324946
vt 0.18693097 0.9564445
vt 0.191346 0.9588243
vt 0.191346 0.9564445
vt 0.18693505 0.9588243
vt 0.18609676 0.94325423
vt 0.18459672 0.9564445
vt 0.18609676 0.9564445
vt 0.18459672 0.9428258
vt 0.14725955 0.9228339
vt 0.15037315 0.9252739
vt 0.14725955 0.9223138
vt 0.14725955 0.9390893
vt 0.14725955 0.9396094
vt 0.16351666 0.9252739
vt 0.15037315 0.9363636
vt 0.16651998 0.9223138
vt 0.16651998 0.9396094
vt 0.16351666 0.9363636
vt 0.16651998 0.9228339
vt 0.16651998 0.9390893
vn 0.9330059 -0.18587779 -0.30813834
vn 0.9330059 -0.18587779 -0.3081384
vn 0.9330059 -0.18587779 -0.30813837
vn 0.53565335 0.8034753 -0.25981325
vn 0.53565335 0.8034753 -0.25981325
vn 0.53565335 0.8034753 -0.25981325
vn -0.92666775 -0.18461514 -0.32742023
vn -0.92666775 -0.18461515 -0.3274202
vn -0.92666775 -0.18461515 -0.3274202
vn -0.5339047 0.8008507 -0.27126387
vn -0.5339047 0.8008507 -0.27126387
vn -0.5339046 0.8008507 -0.27126384
vn 9.3054936E-05 0.9679211 -0.25125462
vn 9.3054936E-05 0.9679211 -0.25125462
vn -1.5776753E-06 0.9679354 -0.25119954
vn 9.3054936E-05 0.9679211 -0.25125462
vn 9.305494E-05 0.9679211 -0.25125465
vn -0.34331626 -0.35170692 -0.87088245
vn -0.34331626 -0.35170692 -0.87088245
vn -0.34321204 -0.35163066 -0.87095433
vn -0.34331626 -0.35170692 -0.87088245
vn -0.34331626 -0.35170692 -0.87088245
vn -4.5051007E-07 -5.3362186E-07 -1
vn -4.505101E-07 -5.336218E-07 -1
vn 5.1551456E-07 -6.425861E-07 -1
vn -4.505101E-07 -5.3362186E-07 -1
vn -0.6219547 0.77684814 -0.098383754
vn -0.6219547 0.7768482 -0.09838376
vn -0.6227776 0.77628887 -0.09758897
vn -0.6219547 0.77684814 -0.098383754
vn -0.9877187 0 -0.1562425
vn -0.9877187 0 -0.15624249
vn -0.9877188 0 -0.1562421
vn -0.9877187 0 -0.1562425
vn -0.99574935 0 -0.092103854
vn -0.99574935 0 -0.092103854
vn -0.99574935 0 -0.09210387
vn -0.99574935 0 -0.092103854
vn -0 0.99940646 -0.034448344
vn -0 0.99940646 -0.034448344
vn -0 0.99940646 -0.03444834
vn -0 0.99940646 -0.034448344
vn 0.99574935 0 -0.092103876
vn 0.99574935 0 -0.092103876
vn 0.99574935 0 -0.09210385
vn 0.99574935 0 -0.092103876
vn 3.5856374E-07 0.9030256 -0.4295867
vn 3.5856374E-07 0.9030256 -0.4295867
vn -0 0.9030274 -0.42958304
vn 3.5856377E-07 0.9030256 -0.4295867
vn 2.0999745E-07 0.9030256 -0.42958668
vn 3.8671664E-07 0.9030265 -0.4295849
vn -0.903934 0 -0.42767185
vn -0.903934 0 -0.42767185
vn -0.90393364 0 -0.42767283
vn -0.903934 0 -0.42767185
vn -0.5979566 0.61259156 -0.5168942
vn -0.5979565 0.61259156 -0.51689416
vn -0.5979105 0.61244684 -0.5171187
vn -0.59795654 0.61259156 -0.51689416
vn -0 0 -1
vn -1.2344458E-07 -2.8105677E-07 -1
vn -1.2344458E-07 -2.8105677E-07 -1
vn -0 0 -1
vn -6.873001E-07 2.9515624E-07 -1
vn -0 0 -1
vn -0 0 -1
vn -0 0 -1
vn -0 0 -1
vn -0 0 -1
vn 3.347883E-07 -1.1202313E-07 -1
vn 3.85319E-07 0 -1
vn 1.2344411E-07 -2.810568E-07 -1
vn 6.460034E-07 3.0509918E-07 -1
vn -7.769276E-07 -3.66933E-07 -1
vn 2.2601876E-07 9.861254E-07 -1
vn -0 0 -1
vn -0 0 -1
vn -0 0 -1
vn -0 0 -1
vn -2.2601874E-07 9.861253E-07 -1
vn 7.769281E-07 -3.6693356E-07 -1
vn -6.4600385E-07 3.050996E-07 -1
vn -3.853191E-07 0 -1
vn -3.3478838E-07 -1.1202313E-07 -1
vn -0 0 -1
vn -0 0 -1
vn -0 0 -1
vn 6.872996E-07 2.9515587E-07 -1
vn 1.2344412E-07 -2.8105683E-07 -1
vn 0.90393126 0 -0.42767757
vn 0.90393126 0 -0.42767766
vn 0.9039309 0 -0.42767859
vn 0.90393126 0 -0.42767766
vn 0.59795374 0.612589 -0.5169004
vn 0.59795374 0.612589 -0.5169004
vn 0.59790826 0.6124459 -0.5171226
vn 0.59795374 0.61258906 -0.5169005
vn 0.6864681 -0.5952605 -0.41764396
vn 0.6864681 -0.5952605 -0.417644
vn 0.7858563 -0.5273381 -0.323024
vn 0.6864681 -0.5952605 -0.41764396
vn 0.72469884 0.63642216 -0.26415586
vn 0.72469884 0.6364222 -0.2641559
vn 0.7539394 0.5032408 -0.42228433
vn 0.7246989 0.63642216 -0.26415586
vn 0.8969743 -0.00045432628 -0.44208243
vn 0.8969743 -0.00045432622 -0.44208243
vn 0.93801844 0.1861064 -0.2923797
vn 0.8969743 -0.00045432622 -0.44208246
vn 0.96977264 -0.10058599 -0.22231404
vn 0.96977264 -0.10058599 -0.22231406
vn 0.96751976 -0.10413534 -0.23035042
vn 0.96977264 -0.10058598 -0.22231407
vn 0.46601754 0.8358194 -0.29022998
vn 0.4660176 0.8358194 -0.29022998
vn 0.38980734 0.88750756 -0.24572462
vn 0.4660176 0.8358195 -0.29022998
vn -9.305692E-05 0.96794176 -0.2511746
vn -9.305692E-05 0.96794176 -0.2511746
vn 3.1553043E-06 0.9679207 -0.2512556
vn -9.3056915E-05 0.96794176 -0.25117457
vn -0.71236366 -0.6176904 -0.3331614
vn -0.7123637 -0.6176904 -0.33316144
vn -0.7355411 -0.49357548 -0.46407172
vn -0.71236366 -0.6176904 -0.3331614
vn -0.6918107 0.6075193 -0.39027968
vn -0.69181067 0.6075193 -0.39027968
vn -0.7947221 0.53046244 -0.2950022
vn -0.69181067 0.6075194 -0.39027968
vn -0.95261353 -0.00048284576 -0.3041829
vn -0.95261353 -0.00048284582 -0.3041829
vn -0.81650484 0.16199787 -0.55414486
vn -0.95261353 -0.00048284582 -0.3041829
vn -0.46910468 0.84138864 -0.268339
vn -0.46910468 0.84138876 -0.26833904
vn -0.37945217 0.8639344 -0.33110932
vn -0.46910468 0.84138864 -0.268339
vn -0.9624862 -0.09984344 -0.25229293
vn -0.9624862 -0.09984344 -0.25229293
vn -0.964525 -0.103812866 -0.24272281
vn -0.9624862 -0.09984344 -0.25229293
vn -0 0 -1
vn -0 0 -1
vn -0 0 -1
vn -0 0 -1
vn -0 0 -1
vn -0 7.3744E-07 -1
vn -0 7.3743774E-07 -1
vn -0 7.374378E-07 -1
vn -0 7.3743774E-07 -1
vn -0 0 -1
vn -0 0 -1
vn -0 0 -1
vn -0 0 -1
vn -0 0 -1
vn -0 0 -1
vn -0.7003293 0.70838284 -0.087935
vn -0.70032924 0.7083829 -0.08793501
vn -0.70924914 0.69965047 -0.08634188
vn -0.70032924 0.7083829 -0.087935
vn 0.7004561 0.7085101 -0.085875906
vn 0.7004561 0.7085101 -0.08587592
vn 0.70911694 0.6995201 -0.08845811
vn 0.700456 0.70851016 -0.08587591
vn -0 0.51966095 -0.85437256
vn -0 0.5196609 -0.8543726
vn -0 0.51966095 -0.85437256
vn 0.00079374213 0.5340524 -0.8454511
vn 2.4060586E-07 0.53405243 -0.84545135
vn -0.00081329094 0.51998526 -0.85417485
vn -0.52033585 0 -0.85396165
vn -0.52033585 0 -0.85396165
vn -0.52033585 0 -0.85396165
vn -0.52033585 0 -0.85396165
vn -0.34323022 0.35161954 -0.8709516
vn -0.34323022 0.35161954 -0.8709516
vn -0.34330592 0.35172835 -0.87087786
vn -0.34323028 0.35161954 -0.8709516
vn 0.0008144448 -0.5199692 -0.8541846
vn 0.0008144448 -0.5199692 -0.8541846
vn 0.0008144448 -0.5199692 -0.8541846
vn -0 -0.5340525 -0.84545135
vn -0.0007926232 -0.5340523 -0.845451
vn -0 -0.5196815 -0.8543601
vn 0.52035445 0 -0.8539504
vn 0.5203544 0 -0.85395044
vn 0.52035445 0 -0.8539504
vn 0.5203544 0 -0.85395044
vn 0.34322298 0.35164395 -0.8709447
vn 0.34322295 0.35164395 -0.87094456
vn 0.34333107 0.351723 -0.8708702
vn 0.34322298 0.35164395 -0.87094456
vn 0.34331787 -0.35173893 -0.87086886
vn 0.34331787 -0.35173896 -0.87086886
vn 0.34324473 -0.35163385 -0.87094015
vn 0.34331787 -0.351739 -0.8708688
vn 5.2564233E-06 0 -1
vn 5.2564233E-06 0 -1
vn 3.4804228E-07 -6.425861E-07 -1
vn 5.256423E-06 0 -1
vn 0.6219545 0.77684826 -0.098383576
vn 0.6219545 0.77684826 -0.09838357
vn 0.6227773 0.7762891 -0.09758896
vn 0.6219545 0.77684826 -0.098383576
vn 0.9877187 0 -0.15624227
vn 0.9877187 0 -0.15624225
vn 0.9877188 0 -0.15624183
vn 0.9877187 0 -0.15624225
vn -0 0 -1
vn -0 0 -1
vn -0 0 -1
vn -0 0 -1
vn 4.928283E-07 -6.252883E-07 -1
vn 6.495838E-07 8.241713E-07 -1
vn 6.495838E-07 8.2417444E-07 -1
vn 4.9282835E-07 -6.252856E-07 -1
vn 6.495838E-07 8.241743E-07 -1
vn -0 0 -1
vn -0 0 -1
vn -0 0 -1
g keydoor1_a_0
f 3/3/3 2/2/2 1/1/1
f 6/6/6 5/5/5 4/4/4
f 9/9/9 8/8/8 7/7/7
f 12/12/12 11/11/11 10/10/10
f 15/15/15 14/14/14 13/13/13
f 17/17/17 16/16/16 14/14/14
f 20/20/20 19/19/19 18/18/18
f 22/22/22 21/21/21 19/19/19
f 25/25/25 24/24/24 23/23/23
f 26/26/26 23/23/23 24/24/24
f 29/29/29 28/28/28 27/27/27
f 30/30/30 27/27/27 28/28/28
f 33/33/33 32/32/32 31/31/31
f 34/34/34 31/31/31 32/32/32
f 37/37/37 36/36/36 35/35/35
f 38/38/38 35/35/35 36/36/36
f 41/41/41 40/40/40 39/39/39
f 42/42/42 39/39/39 40/40/40
f 45/45/45 44/44/44 43/43/43
f 46/46/46 43/43/43 44/44/44
f 49/49/49 48/48/48 47/47/47
f 50/50/50 47/47/47 48/48/48
f 50/50/50 48/48/48 51/51/51
f 52/52/52 51/51/51 48/48/48
f 55/55/55 54/54/54 53/53/53
f 56/56/56 53/53/53 54/54/54
f 59/59/59 58/58/58 57/57/57
f 60/60/60 57/57/57 58/58/58
f 63/63/63 62/62/62 61/61/61
f 64/64/64 63/63/63 61/61/61
f 65/65/65 63/63/63 64/64/64
f 66/66/66 64/64/64 61/61/61
f 67/67/67 66/66/66 61/61/61
f 68/68/68 65/65/65 64/64/64
f 69/69/69 65/65/65 68/68/68
f 70/70/70 69/69/69 68/68/68
f 71/71/71 70/70/70 68/68/68
f 72/72/72 70/70/70 71/71/71
f 67/67/67 73/73/73 66/66/66
f 74/74/74 72/72/72 71/71/71
f 75/75/75 72/72/72 74/74/74
f 76/76/76 75/75/75 74/74/74
f 77/77/77 76/76/76 74/74/74
f 78/78/78 76/76/76 77/77/77
f 78/78/78 77/77/77 79/79/79
f 77/77/77 80/80/80 79/79/79
f 80/80/80 81/81/81 79/79/79
f 82/82/82 81/81/81 80/80/80
f 83/83/83 82/82/82 80/80/80
f 84/84/84 82/82/82 83/83/83
f 85/85/85 84/84/84 83/83/83
f 86/86/86 84/84/84 85/85/85
f 87/87/87 86/86/86 85/85/85
f 88/88/88 87/87/87 85/85/85
f 89/89/89 87/87/87 88/88/88
f 73/73/73 89/89/89 88/88/88
f 66/66/66 73/73/73 88/88/88
f 90/90/90 89/89/89 73/73/73
f 93/93/93 92/92/92 91/91/91
f 94/94/94 91/91/91 92/92/92
f 97/97/97 96/96/96 95/95/95
f 98/98/98 95/95/95 96/96/96
f 101/101/101 100/100/100 99/99/99
f 102/102/102 99/99/99 100/100/100
f 105/105/105 104/104/104 103/103/103
f 106/106/106 103/103/103 104/104/104
f 109/109/109 108/108/108 107/107/107
f 110/110/110 107/107/107 108/108/108
f 113/113/113 112/112/112 111/111/111
f 114/114/114 111/111/111 112/112/112
f 117/117/117 116/116/116 115/115/115
f 118/118/118 115/115/115 116/116/116
f 121/121/121 120/120/120 119/119/119
f 122/122/122 119/119/119 120/120/120
f 125/125/125 124/124/124 123/123/123
f 126/126/126 123/123/123 124/124/124
f 129/129/129 128/128/128 127/127/127
f 130/130/130 127/127/127 128/128/128
f 133/133/133 132/132/132 131/131/131
f 134/134/134 131/131/131 132/132/132
f 137/137/137 136/136/136 135/135/135
f 138/138/138 135/135/135 136/136/136
f 141/141/141 140/140/140 139/139/139
f 142/142/142 139/139/139 140/140/140
f 145/145/145 144/144/144 143/143/143
f 145/145/145 146/146/146 144/144/144
f 147/147/147 144/144/144 146/146/146
f 146/146/146 148/148/148 147/147/147
f 149/149/149 147/147/147 148/148/148
f 148/148/148 150/150/150 149/149/149
f 151/151/151 149/149/149 150/150/150
f 150/150/150 152/152/152 151/151/151
f 153/153/153 151/151/151 152/152/152
f 152/152/152 154/154/154 153/153/153
f 156/156/156 155/155/155 153/153/153
f 156/156/156 153/153/153 157/157/157
f 160/160/160 159/159/159 158/158/158
f 161/161/161 158/158/158 159/159/159
f 164/164/164 163/163/163 162/162/162
f 165/165/165 162/162/162 163/163/163
f 168/168/168 167/167/167 166/166/166
f 169/169/169 166/166/166 167/167/167
f 166/166/166 169/169/169 170/170/170
f 171/171/171 170/170/170 169/169/169
f 174/174/174 173/173/173 172/172/172
f 175/175/175 172/172/172 173/173/173
f 178/178/178 177/177/177 176/176/176
f 179/179/179 176/176/176 177/177/177
f 182/182/182 181/181/181 180/180/180
f 183/183/183 180/180/180 181/181/181
f 180/180/180 183/183/183 184/184/184
f 185/185/185 184/184/184 183/183/183
f 188/188/188 187/187/187 186/186/186
f 189/189/189 186/186/186 187/187/187
f 192/192/192 191/191/191 190/190/190
f 193/193/193 190/190/190 191/191/191
f 196/196/196 195/195/195 194/194/194
f 197/197/197 194/194/194 195/195/195
f 200/200/200 199/199/199 198/198/198
f 201/201/201 198/198/198 199/199/199
f 204/204/204 203/203/203 202/202/202
f 205/205/205 202/202/202 203/203/203
f 208/208/208 207/207/207 206/206/206
f 209/209/209 206/206/206 207/207/207
f 212/212/212 211/211/211 210/210/210
f 210/210/210 211/211/211 213/213/213
f 213/213/213 211/211/211 214/214/214
f 215/215/215 211/211/211 212/212/212
f 211/211/211 216/216/216 214/214/214
f 217/217/217 215/215/215 212/212/212
f 214/214/214 216/216/216 218/218/218
f 219/219/219 215/215/215 217/217/217
f 216/216/216 219/219/219 218/218/218
f 217/217/217 220/220/220 219/219/219
f 219/219/219 221/221/221 218/218/218
f 220/220/220 221/221/221 219/219/219
