g keydoor_grow
v 1.0826616 1.5200603 0.2578153
v 1.1125455 1.1272584 0.28717896
v -0.1055407 1.1272584 0.28717896
v -0.07565668 1.5200603 0.2578153
v 1.2567468 1.5200603 0.100491986
v 1.2567469 1.5200607 -0.49096066
v 1.2894015 1.1272647 -0.4909879
v 1.2894015 1.1272645 0.123646565
v 1.2567468 1.5200603 0.100491986
v 1.2894015 1.1272645 0.123646565
v 1.1125455 1.1272584 0.28717896
v 1.0826616 1.5200603 0.2578153
v 1.1125455 1.1272591 -1.2691547
v 1.2894015 1.127265 -1.105622
v 1.2567469 1.5200609 -1.0824134
v 1.0826616 1.5200607 -1.2397367
v 0.5035024 1.1272945 -1.2691517
v 1.1125455 1.1272591 -1.2691547
v 1.0826616 1.5200607 -1.2397367
v 0.5035024 1.5200607 -1.2397367
v -0.07565668 1.5200607 -1.2397367
v -0.1055407 1.1272591 -1.2691547
v -0.2497418 1.5200603 0.100491986
v -0.28239653 1.1272645 0.123646565
v -0.2823966 1.1272647 -0.4909878
v -0.2497418 1.5200607 -0.49096066
v -0.1055407 1.1272584 0.28717896
v -0.28239653 1.1272645 0.123646565
v -0.2497418 1.5200603 0.100491986
v -0.07565668 1.5200603 0.2578153
v -0.1055407 1.1272591 -1.2691547
v -0.07565668 1.5200607 -1.2397367
v -0.24974187 1.5200609 -1.0824134
v -0.2823966 1.127265 -1.105622
v 1.2894015 1.1272647 -0.4909879
v 1.2567469 1.5200607 -0.49096066
v 1.2567469 1.5200609 -1.0824134
v 1.2894015 1.127265 -1.105622
v -0.24974187 1.5200609 -1.0824134
v -0.2497418 1.5200607 -0.49096066
v -0.2823966 1.1272647 -0.4909878
v -0.2823966 1.127265 -1.105622
v 1.3892282 0.5013878 0.22566293
v 1.220309 0.15821634 0.3931956
v 1.2203085 0.501388 0.39319593
v 1.3892276 0.15821517 0.22566278
v 1.3892279 0.1582163 -0.4905915
v 1.3892282 0.50138813 -0.49059138
v 1.3892282 0.15821752 -1.1895499
v 1.3892282 0.50138843 -1.18955
v -0.21326393 0.501388 0.39319593
v 1.2203085 0.501388 0.39319593
v 1.220309 0.15821634 0.3931956
v -0.21326439 0.15821634 0.3931956
v 1.211976 0.5013888 -1.3591262
v 1.211976 0.15821624 -1.3591261
v 1.3892282 0.15821752 -1.1895499
v 1.3892282 0.50138843 -1.18955
v 0.5035223 0.50138867 -1.3591262
v 1.211976 0.15821624 -1.3591261
v 1.211976 0.5013888 -1.3591262
v 0.5035223 0.1582163 -1.3591263
v -0.2049314 0.15821624 -1.3591261
v -0.20493147 0.5013888 -1.3591262
v -0.38889804 0.5013878 0.22566293
v -0.21326393 0.501388 0.39319593
v -0.21326439 0.15821634 0.3931956
v -0.38889757 0.15821521 0.22566278
v -0.38889804 0.50138813 -0.49059132
v -0.38889775 0.1582163 -0.49059156
v -0.38889804 0.15821752 -1.1895499
v -0.38889804 0.50138843 -1.18955
v -0.20493147 0.5013888 -1.3591262
v -0.38889804 0.50138843 -1.18955
v -0.38889804 0.15821752 -1.1895499
v -0.2049314 0.15821624 -1.3591261
vt 0.5783813 0.98745435
vt 0.5905737 0.82450813
vt 0.06404855 0.8267978
vt 0.07769129 0.98745435
vt 0.3543884 0.98606914
vt 0.53721696 0.98606914
vt 0.53721696 0.82544446
vt 0.3543884 0.82544446
vt 0.3543884 0.98606914
vt 0.3543884 0.82544446
vt 0.2545553 0.82544446
vt 0.2545553 0.98606914
vt 0.47954804 0.82544446
vt 0.39474583 0.82544446
vt 0.39425513 0.98606914
vt 0.47954804 0.98606914
vt 0.69650567 0.82544446
vt 0.47954804 0.82544446
vt 0.47954804 0.98606914
vt 0.69650567 0.98606914
vt 0.47954804 0.98606914
vt 0.47954804 0.82544446
vt 0.3543884 0.98606914
vt 0.3543884 0.82544446
vt 0.53721696 0.82544446
vt 0.53721696 0.98606914
vt 0.2545553 0.82544446
vt 0.3543884 0.82544446
vt 0.3543884 0.98606914
vt 0.2545553 0.98606914
vt 0.47954804 0.82544446
vt 0.47954804 0.98606914
vt 0.4008242 0.98606914
vt 0.4008242 0.82544446
vt 0.20356192 0.82544446
vt 0.20356192 0.98606914
vt 0.39425513 0.98606914
vt 0.39474583 0.82544446
vt 0.4008242 0.98606914
vt 0.20356192 0.98606914
vt 0.20356192 0.82544446
vt 0.4008242 0.82544446
vt 0.33617955 0.827339
vt 0.22406726 0.9839652
vt 0.20211786 0.827339
vt 0.33617955 0.9839652
vt 0.53194773 0.9839652
vt 0.53194773 0.827339
vt 0.74040985 0.9839652
vt 0.74040985 0.827339
vt 0.016629783 0.9842873
vt 0.67003876 0.9842873
vt 0.670039 0.8273751
vt 0.01662968 0.8273751
vt 0.20211786 0.827339
vt 0.22406726 0.9839652
vt 0.33617955 0.9839652
vt 0.33617955 0.827339
vt 0.29571825 0.83709425
vt 0.5268591 0.9839652
vt 0.5268591 0.83709425
vt 0.29571825 0.9839652
vt 0.5268591 0.9839652
vt 0.5268591 0.83709425
vt 0.33617955 0.827339
vt 0.20211786 0.827339
vt 0.22406726 0.9839652
vt 0.33617955 0.9839652
vt 0.53194773 0.827339
vt 0.53194773 0.9839652
vt 0.74040985 0.9839652
vt 0.74040985 0.827339
vt 0.20211786 0.827339
vt 0.33617955 0.827339
vt 0.33617955 0.9839652
vt 0.22406726 0.9839652
vn -0 0.07454639 0.99721754
vn -0 0.0745464 0.99721754
vn -0 0.0745464 0.99721754
vn -0 0.0745464 0.99721754
vn 0.9965622 0.08284834 1.5867641E-07
vn 0.9965622 0.08284833 0
vn 0.9965622 0.08284835 0
vn 0.9965622 0.08284833 1.5867641E-07
vn 0.671208 0.10251118 0.7341466
vn 0.671208 0.10251119 0.7341466
vn 0.671208 0.10251118 0.73414654
vn 0.671208 0.10251118 0.7341466
vn 0.6712011 0.102611534 -0.7341389
vn 0.6712011 0.10261154 -0.73413897
vn 0.6712011 0.10261153 -0.7341389
vn 0.6712011 0.10261153 -0.7341389
vn -0 0.07468333 -0.9972072
vn -2.930065E-07 0.07468333 -0.9972072
vn -2.9300648E-07 0.07468333 -0.9972072
vn -0 0.07468333 -0.9972072
vn 2.930065E-07 0.07468333 -0.9972072
vn 2.9300648E-07 0.07468334 -0.9972072
vn -0.9965622 0.08284844 0
vn -0.9965622 0.08284844 0
vn -0.9965622 0.082848445 0
vn -0.9965622 0.08284844 0
vn -0.6712082 0.102511264 0.7341464
vn -0.6712083 0.102511264 0.7341464
vn -0.6712083 0.10251127 0.7341464
vn -0.67120814 0.10251125 0.7341464
vn -0.6712013 0.10261161 -0.7341387
vn -0.6712013 0.102611616 -0.7341388
vn -0.67120135 0.10261161 -0.7341388
vn -0.6712013 0.10261162 -0.7341387
vn 0.9965622 0.08284835 0
vn 0.9965622 0.08284833 0
vn 0.9965622 0.08284833 0
vn 0.9965622 0.08284833 0
vn -0.9965622 0.08284842 1.05784274E-07
vn -0.9965622 0.08284844 0
vn -0.9965622 0.082848445 0
vn -0.9965622 0.08284842 1.05784274E-07
vn 0.9230892 -7.442627E-07 0.384586
vn 0.38078037 -7.4299396E-07 0.9246655
vn 0.38077894 -7.429947E-07 0.9246661
vn 0.92308927 -7.4426293E-07 0.38458562
vn 1 -5.596904E-07 1.6222195E-07
vn 1 -5.5969014E-07 1.622219E-07
vn 0.9195889 -3.3659677E-07 -0.39288196
vn 0.9195889 -3.365968E-07 -0.39288196
vn -0.3717541 -7.449552E-07 0.92833126
vn 0.38077894 -7.429947E-07 0.9246661
vn 0.38078037 -7.4299396E-07 0.9246655
vn -0.37175545 -7.449544E-07 0.9283307
vn 0.37243834 -2.1290974E-07 -0.928057
vn 0.3724378 -2.1290943E-07 -0.92805713
vn 0.9195889 -3.3659677E-07 -0.39288196
vn 0.9195889 -3.365968E-07 -0.39288196
vn -0 0 -1
vn 0.3724378 -2.1290943E-07 -0.92805713
vn 0.37243834 -2.1290974E-07 -0.928057
vn -0 0 -1
vn -0.36381286 -2.1765227E-07 -0.9314721
vn -0.3638133 -2.1765254E-07 -0.93147194
vn -0.9192993 -8.7403754E-07 0.39355907
vn -0.3717541 -7.449552E-07 0.92833126
vn -0.37175545 -7.449544E-07 0.9283307
vn -0.9192995 -8.7403777E-07 0.39355862
vn -1 -7.8356646E-07 1.6354878E-07
vn -1 -7.835667E-07 1.6354875E-07
vn -0.9159049 -4.6578387E-07 -0.40139544
vn -0.9159049 -4.6578393E-07 -0.40139544
vn -0.3638133 -2.1765254E-07 -0.93147194
vn -0.9159049 -4.6578393E-07 -0.40139544
vn -0.9159049 -4.6578387E-07 -0.40139544
vn -0.36381286 -2.1765227E-07 -0.9314721
g keydoor_grow_0
f 3/3/3 2/2/2 1/1/1
f 4/4/4 3/3/3 1/1/1
f 7/7/7 6/6/6 5/5/5
f 8/8/8 7/7/7 5/5/5
f 11/11/11 10/10/10 9/9/9
f 12/12/12 11/11/11 9/9/9
f 15/15/15 14/14/14 13/13/13
f 16/16/16 15/15/15 13/13/13
f 19/19/19 18/18/18 17/17/17
f 20/20/20 19/19/19 17/17/17
f 21/21/21 20/20/20 17/17/17
f 22/22/22 21/21/21 17/17/17
f 25/25/25 24/24/24 23/23/23
f 26/26/26 25/25/25 23/23/23
f 29/29/29 28/28/28 27/27/27
f 30/30/30 29/29/29 27/27/27
f 33/33/33 32/32/32 31/31/31
f 34/34/34 33/33/33 31/31/31
f 37/37/37 36/36/36 35/35/35
f 38/38/38 37/37/37 35/35/35
f 41/41/41 40/40/40 39/39/39
f 42/42/42 41/41/41 39/39/39
f 45/45/45 44/44/44 43/43/43
f 44/44/44 46/46/46 43/43/43
f 46/46/46 47/47/47 43/43/43
f 47/47/47 48/48/48 43/43/43
f 47/47/47 49/49/49 48/48/48
f 49/49/49 50/50/50 48/48/48
f 53/53/53 52/52/52 51/51/51
f 54/54/54 53/53/53 51/51/51
f 57/57/57 56/56/56 55/55/55
f 58/58/58 57/57/57 55/55/55
f 61/61/61 60/60/60 59/59/59
f 60/60/60 62/62/62 59/59/59
f 62/62/62 63/63/63 59/59/59
f 63/63/63 64/64/64 59/59/59
f 67/67/67 66/66/66 65/65/65
f 68/68/68 67/67/67 65/65/65
f 65/65/65 69/69/69 68/68/68
f 69/69/69 70/70/70 68/68/68
f 70/70/70 69/69/69 71/71/71
f 69/69/69 72/72/72 71/71/71
f 75/75/75 74/74/74 73/73/73
f 76/76/76 75/75/75 73/73/73
