g keydoor_base
v 1.21253 0.15821633 0.38283804
v 0.5016908 0.0691942 -0.5636313
v 1.3796201 0.15821515 0.21711874
v 1.3796206 0.15821749 -1.1827744
v 0.5016908 0.0691942 -0.5636313
v 1.2042872 0.15821622 -1.3505148
v 1.2042872 0.15821622 -1.3505148
v 0.5016908 0.0691942 -0.5636313
v 0.5035024 0.15821628 -1.350515
v 0.5016908 0.0691942 -0.5636313
v -0.19728224 0.15821622 -1.3505148
v -0.37925696 0.1582152 0.21711874
v 0.5016908 0.0691942 -0.5636313
v -0.20552504 0.15821633 0.38283804
v -0.19728224 0.15821622 -1.3505148
v 0.5016908 0.0691942 -0.5636313
v -0.37925744 0.15821749 -1.1827744
v -0.20552504 0.15821633 0.38283804
v 0.5016908 0.0691942 -0.5636313
v 1.21253 0.15821633 0.38283804
v -0.37925714 0.15821628 -0.49138215
v 0.5016908 0.0691942 -0.5636313
v -0.37925696 0.1582152 0.21711874
v -0.37925744 0.15821749 -1.1827744
v 0.5016908 0.0691942 -0.5636313
v -0.27428818 0.13162938 0.44745615
v 1.2812932 0.13162938 0.44745615
v 1.30744 1.4213181E-06 0.4784571
v -0.30043507 1.4213181E-06 0.4784571
v 1.4413084 0.13162903 0.27394012
v 1.4698346 1.363697E-06 -0.49238068
v 1.4698343 1.1140061E-06 0.29959068
v 1.4413087 0.13162932 -0.49201608
v 1.4413087 0.1316296 -1.2579721
v 1.4698346 1.613388E-06 -1.2693206
v 1.4698343 1.1140061E-06 0.29959068
v 1.30744 1.4213181E-06 0.4784571
v 1.2812932 0.13162938 0.44745615
v 1.4413084 0.13162903 0.27394012
v 1.4413087 0.1316296 -1.2579721
v 1.2686598 0.13162929 -1.4104701
v 1.2937422 1.34449E-06 -1.4422556
v 1.4698346 1.613388E-06 -1.2693206
v 0.5035024 0.13162932 -1.4104701
v 1.2937422 1.34449E-06 -1.4422556
v 1.2686598 0.13162929 -1.4104701
v 0.5035024 1.382904E-06 -1.4422556
v -0.28673723 1.34449E-06 -1.4422556
v -0.26165488 0.13162929 -1.4104701
v -0.44094524 0.13162903 0.27394012
v -0.4694712 1.133213E-06 0.29959068
v -0.46947134 1.363697E-06 -0.49238065
v -0.44094548 0.13162932 -0.49201602
v -0.44094548 0.1316296 -1.2579721
v -0.46947134 1.6325951E-06 -1.284352
v -0.4694712 1.133213E-06 0.29959068
v -0.44094524 0.13162903 0.27394012
v -0.27428818 0.13162938 0.44745615
v -0.30043507 1.4213181E-06 0.4784571
v -0.44094548 0.1316296 -1.2579721
v -0.46947134 1.6325951E-06 -1.284352
v -0.28673723 1.34449E-06 -1.4422556
v -0.26165488 0.13162929 -1.4104701
v 1.3796204 0.15821628 -0.49138218
v 0.5016908 0.0691942 -0.5636313
v 1.3796206 0.15821749 -1.1827744
v 1.3796201 0.15821515 0.21711874
v 1.2042872 0.15821622 -1.3505148
v 0.5035024 0.15821628 -1.350515
v 0.5035024 0.13162932 -1.4104701
v -0.19728224 0.15821622 -1.3505148
v 1.2686598 0.13162929 -1.4104701
v -0.26165488 0.13162929 -1.4104701
v 1.3796206 0.15821749 -1.1827744
v 1.4413087 0.1316296 -1.2579721
v -0.37925744 0.15821749 -1.1827744
v -0.44094548 0.1316296 -1.2579721
v 1.4413087 0.13162932 -0.49201608
v 1.3796204 0.15821628 -0.49138218
v -0.44094548 0.13162932 -0.49201602
v -0.37925714 0.15821628 -0.49138215
v 1.3796201 0.15821515 0.21711874
v 1.4413084 0.13162903 0.27394012
v 1.2812932 0.13162938 0.44745615
v 1.21253 0.15821633 0.38283804
v -0.37925696 0.1582152 0.21711874
v -0.44094524 0.13162903 0.27394012
v -0.27428818 0.13162938 0.44745615
v -0.20552504 0.15821633 0.38283804
vt 0.65610963 0.7251927
vt 0.69350165 0.72519267
vt 0.6677374 0.7251927
vt 0.7193894 0.7251927
vt 0.69350165 0.72519267
vt 0.7305694 0.7251927
vt 0.7305694 0.7251927
vt 0.69350165 0.72519267
vt 0.7567348 0.7251927
vt 0.7355646 0.7251927
vt 0.7305694 0.7251927
vt 0.6677374 0.7251927
vt 0.69350165 0.72519267
vt 0.65610963 0.7251927
vt 0.7305694 0.7251927
vt 0.7355646 0.7251927
vt 0.7193894 0.7251927
vt 0.65610963 0.7251927
vt 0.69350165 0.72519267
vt 0.65610963 0.7251927
vt 0.6935634 0.7251927
vt 0.69350165 0.72519267
vt 0.6677374 0.7251927
vt 0.7193894 0.7251927
vt 0.7355646 0.7251927
vt 0.65610963 0.7129902
vt 0.65610963 0.7129902
vt 0.65610963 0.6939737
vt 0.65610963 0.6939737
vt 0.6677374 0.7129902
vt 0.6935634 0.6939737
vt 0.6677374 0.6939737
vt 0.6935634 0.7129902
vt 0.7193894 0.7129902
vt 0.7193894 0.6939737
vt 0.6677374 0.6939737
vt 0.65610963 0.6939737
vt 0.65610963 0.7129902
vt 0.6677374 0.7129902
vt 0.7193894 0.7129902
vt 0.7305694 0.7129902
vt 0.7305694 0.6939737
vt 0.7193894 0.6939737
vt 0.7567348 0.7129902
vt 0.7305694 0.6939737
vt 0.7305694 0.7129902
vt 0.7567348 0.6939737
vt 0.7305694 0.6939737
vt 0.7305694 0.7129902
vt 0.6677374 0.7129902
vt 0.6677374 0.6939737
vt 0.6935634 0.6939737
vt 0.6935634 0.7129902
vt 0.7193894 0.7129902
vt 0.7193894 0.6939737
vt 0.6677374 0.6939737
vt 0.6677374 0.7129902
vt 0.65610963 0.7129902
vt 0.65610963 0.6939737
vt 0.7193894 0.7129902
vt 0.7193894 0.6939737
vt 0.7305694 0.6939737
vt 0.7305694 0.7129902
vt 0.6935634 0.7251927
vt 0.69350165 0.72519267
vt 0.7193894 0.7251927
vt 0.6677374 0.7251927
vt 0.7305694 0.7251927
vt 0.7567348 0.7251927
vt 0.7567348 0.7129902
vt 0.7305694 0.7251927
vt 0.7305694 0.7129902
vt 0.7305694 0.7129902
vt 0.7193894 0.7251927
vt 0.7193894 0.7129902
vt 0.7193894 0.7251927
vt 0.7193894 0.7129902
vt 0.6935634 0.7129902
vt 0.6935634 0.7251927
vt 0.6935634 0.7129902
vt 0.6935634 0.7251927
vt 0.6677374 0.7251927
vt 0.6677374 0.7129902
vt 0.65610963 0.7129902
vt 0.65610963 0.7251927
vt 0.6677374 0.7251927
vt 0.6677374 0.7129902
vt 0.65610963 0.7129902
vt 0.65610963 0.7251927
vn -0.053304907 0.9971306 -0.05375288
vn -0.053304907 0.9971306 -0.053752877
vn -0.053304914 0.9971306 -0.05375288
vn -0.058168188 0.996454 0.06079374
vn -0.058168188 0.996454 0.060793746
vn -0.058168188 0.996454 0.06079374
vn -0 0.9936613 0.112415336
vn -0 0.9936613 0.11241534
vn -0 0.9936613 0.11241534
vn -0 0.9936613 0.112415336
vn -0 0.9936613 0.11241533
vn 0.052228976 0.99713254 -0.054761097
vn 0.052228976 0.99713254 -0.05476109
vn 0.05222898 0.99713254 -0.054761093
vn 0.05713589 0.9964408 0.061977077
vn 0.05713589 0.9964408 0.061977074
vn 0.05713589 0.9964408 0.061977077
vn -0 0.99560577 -0.09364376
vn -0 0.99560577 -0.09364376
vn -0 0.99560577 -0.09364376
vn 0.1005407 0.99493295 1.5155985E-06
vn 0.1005407 0.99493295 1.5155985E-06
vn 0.10054069 0.99493295 1.5155985E-06
vn 0.10054072 0.99493295 1.6965942E-06
vn 0.10054073 0.99493295 1.6965943E-06
vn -0 0.22924714 0.9733682
vn -0 0.22924714 0.9733682
vn -0 0.22924715 0.9733682
vn -0 0.22924715 0.9733682
vn 0.97731316 0.21179982 2.6639455E-07
vn 0.97731316 0.21179974 1.6979612E-07
vn 0.97731316 0.21179977 2.6639452E-07
vn 0.97731316 0.21179976 1.7012846E-07
vn 0.97731316 0.21179971 0
vn 0.97731316 0.21179971 0
vn 0.7069662 0.28601784 0.64683276
vn 0.7069662 0.28601784 0.64683276
vn 0.70696616 0.2860178 0.6468328
vn 0.70696616 0.2860178 0.64683276
vn 0.6605041 0.2504757 -0.70781094
vn 0.66050404 0.25047567 -0.70781094
vn 0.66050404 0.25047565 -0.70781094
vn 0.66050416 0.25047567 -0.7078109
vn -0 0.23473352 -0.9720597
vn -0 0.2347335 -0.9720597
vn -0 0.2347335 -0.9720597
vn -0 0.23473352 -0.9720597
vn -0 0.2347335 -0.9720597
vn -0 0.2347335 -0.9720597
vn -0.97731316 0.2117995 3.111009E-07
vn -0.97731316 0.21179952 3.1110093E-07
vn -0.97731316 0.21179934 1.931405E-07
vn -0.97731316 0.21179935 1.9354637E-07
vn -0.9773132 0.21179917 0
vn -0.9773132 0.21179917 0
vn -0.6937378 0.28629372 0.66088104
vn -0.6937378 0.28629372 0.66088104
vn -0.6937378 0.28629372 0.66088104
vn -0.6937378 0.28629372 0.66088104
vn -0.6234063 0.2875944 -0.727086
vn -0.62340623 0.2875944 -0.72708607
vn -0.6234063 0.2875944 -0.727086
vn -0.62340623 0.2875944 -0.727086
vn -0.10088285 0.99489826 1.7188021E-06
vn -0.10088284 0.99489826 1.718802E-06
vn -0.10088284 0.99489826 1.7188021E-06
vn -0.10088283 0.99489826 1.547534E-06
vn 0.0741639 0.9413352 -0.329223
vn -0 0.91414964 -0.40537697
vn -0 0.91414964 -0.405377
vn -0.072123535 0.94085115 -0.3310549
vn 0.12781228 0.95404214 -0.27104926
vn -0.1256253 0.9538093 -0.27288494
vn 0.31921798 0.94440556 -0.0787269
vn 0.25474104 0.95663685 -0.14125499
vn -0.31728 0.9448915 -0.080704965
vn -0.25273627 0.95687366 -0.14323819
vn 0.3957948 0.918339 9.974284E-07
vn 0.39579472 0.918339 9.97568E-07
vn -0.3957947 0.918339 9.962293E-07
vn -0.39579457 0.9183391 9.958408E-07
vn 0.31992266 0.9437843 0.08319034
vn 0.27593988 0.95248944 0.12892292
vn 0.13767508 0.9551853 0.26204327
vn 0.08218258 0.9467337 0.3113538
vn -0.3178791 0.94426495 0.08553709
vn -0.27408117 0.95272964 0.13109462
vn -0.13558665 0.9548827 0.2642259
vn -0.08000078 0.94624037 0.31341538
g keydoor_base_0
f 3/3/3 2/2/2 1/1/1
f 6/6/6 5/5/5 4/4/4
f 9/9/9 8/8/8 7/7/7
f 11/11/11 10/10/10 9/9/9
f 14/14/14 13/13/13 12/12/12
f 17/17/17 16/16/16 15/15/15
f 20/20/20 19/19/19 18/18/18
f 23/23/23 22/22/22 21/21/21
f 21/21/21 25/25/25 24/24/24
f 28/28/28 27/27/27 26/26/26
f 29/29/29 28/28/28 26/26/26
f 32/32/32 31/31/31 30/30/30
f 31/31/31 33/33/33 30/30/30
f 34/34/34 33/33/33 31/31/31
f 35/35/35 34/34/34 31/31/31
f 38/38/38 37/37/37 36/36/36
f 39/39/39 38/38/38 36/36/36
f 42/42/42 41/41/41 40/40/40
f 43/43/43 42/42/42 40/40/40
f 46/46/46 45/45/45 44/44/44
f 45/45/45 47/47/47 44/44/44
f 47/47/47 48/48/48 44/44/44
f 48/48/48 49/49/49 44/44/44
f 52/52/52 51/51/51 50/50/50
f 53/53/53 52/52/52 50/50/50
f 52/52/52 53/53/53 54/54/54
f 55/55/55 52/52/52 54/54/54
f 58/58/58 57/57/57 56/56/56
f 59/59/59 58/58/58 56/56/56
f 62/62/62 61/61/61 60/60/60
f 63/63/63 62/62/62 60/60/60
f 66/66/66 65/65/65 64/64/64
f 64/64/64 65/65/65 67/67/67
f 70/70/70 69/69/69 68/68/68
f 69/69/69 70/70/70 71/71/71
f 72/72/72 70/70/70 68/68/68
f 70/70/70 73/73/73 71/71/71
f 72/72/72 68/68/68 74/74/74
f 75/75/75 72/72/72 74/74/74
f 71/71/71 73/73/73 76/76/76
f 73/73/73 77/77/77 76/76/76
f 78/78/78 75/75/75 74/74/74
f 79/79/79 78/78/78 74/74/74
f 77/77/77 80/80/80 76/76/76
f 80/80/80 81/81/81 76/76/76
f 78/78/78 79/79/79 82/82/82
f 83/83/83 78/78/78 82/82/82
f 84/84/84 83/83/83 82/82/82
f 85/85/85 84/84/84 82/82/82
f 86/86/86 81/81/81 80/80/80
f 87/87/87 86/86/86 80/80/80
f 88/88/88 84/84/84 85/85/85
f 87/87/87 88/88/88 86/86/86
f 89/89/89 88/88/88 85/85/85
f 88/88/88 89/89/89 86/86/86
