g ladder1_2
v 0.21028464 -0.003409671 -0.62585354
v 0.2116208 3.2167833 -0.53546834
v 0.20467648 0.0005896877 -0.5368256
v 0.21771604 3.2132144 -0.6149146
v 0.30572376 3.2132144 -0.6149146
v 0.31315488 -0.003409671 -0.62585354
v 0.318763 0.0005896877 -0.5368256
v 0.31181863 3.2167833 -0.53546834
v 0.31181863 3.2167833 -0.53546834
v 0.2116208 3.2167833 -0.53546834
v -0.22264637 0.1965243 -0.5931353
v -0.22264637 0.12879242 -0.5980428
v 0.2203866 0.12879242 -0.5980427
v 0.2203866 0.1965243 -0.59313524
v -0.2226464 0.19867118 -0.5453442
v 0.22038658 0.19867118 -0.5453441
v -0.2226464 0.44453478 -0.6062874
v -0.2226464 0.3768029 -0.6111952
v 0.22038658 0.3768029 -0.6111951
v 0.22038658 0.44453478 -0.60628736
v -0.2226464 0.44668147 -0.55849665
v -0.2226464 0.44453478 -0.6062874
v 0.22038658 0.44453478 -0.60628736
v 0.22038658 0.44668147 -0.5584966
v -0.2226464 0.71845096 -0.5933067
v -0.2226464 0.65071917 -0.5982143
v 0.22038658 0.65071917 -0.59821427
v 0.22038658 0.71845096 -0.5933066
v -0.2226464 0.72059786 -0.5455157
v -0.2226464 0.71845096 -0.5933067
v 0.22038658 0.71845096 -0.5933066
v 0.22038658 0.72059786 -0.5455156
v -0.2226464 0.9820132 -0.5905081
v -0.2226464 0.91428137 -0.5954157
v 0.22038658 0.91428137 -0.59541565
v 0.22038658 0.9820132 -0.59050804
v -0.22264642 0.98416007 -0.5427171
v -0.2226464 0.9820132 -0.5905081
v 0.22038658 0.9820132 -0.59050804
v 0.22038656 0.98416007 -0.542717
v -0.31316698 -0.003409671 -0.6258536
v -0.31183082 3.2167833 -0.53546834
v -0.31877545 0.0005896877 -0.53682566
v -0.3057356 3.2132144 -0.6149147
v -0.21772818 3.2132144 -0.6149147
v -0.21029674 -0.003409671 -0.6258536
v -0.20468892 0.0005896877 -0.53682566
v -0.21163297 3.2167833 -0.53546834
v -0.21163297 3.2167833 -0.53546834
v -0.31183082 3.2167833 -0.53546834
v -0.2226464 1.2849008 -0.5880439
v -0.2226464 1.2171689 -0.59295154
v 0.22038658 1.2171689 -0.5929515
v 0.22038658 1.2849008 -0.58804387
v -0.22264642 1.2870476 -0.5402529
v -0.2226464 1.2849008 -0.5880439
v 0.22038658 1.2849008 -0.58804387
v 0.22038656 1.2870476 -0.54025286
v -0.2226464 1.5774868 -0.58857113
v -0.2226464 1.5097549 -0.59347874
v 0.22038658 1.5097549 -0.5934786
v 0.22038658 1.5774868 -0.5885711
v -0.22264642 1.579634 -0.5407801
v -0.2226464 1.5774868 -0.58857113
v 0.22038658 1.5774868 -0.5885711
v 0.22038656 1.579634 -0.54078007
v -0.2226464 1.888117 -0.5971989
v -0.2226464 1.8203852 -0.6021065
v 0.22038658 1.8203852 -0.60210645
v 0.22038658 1.888117 -0.59719884
v -0.22264642 1.8902639 -0.54940796
v -0.2226464 1.888117 -0.5971989
v 0.22038658 1.888117 -0.59719884
v 0.22038656 1.8902639 -0.5494079
v -0.2226464 2.2007046 -0.5991531
v -0.2226464 2.1329725 -0.6040608
v 0.22038658 2.1329725 -0.60406077
v 0.22038658 2.2007046 -0.59915304
v -0.22264642 2.2028513 -0.55136204
v -0.2226464 2.2007046 -0.5991531
v 0.22038658 2.2007046 -0.59915304
v 0.22038656 2.2028513 -0.551362
v -0.2226464 2.5233731 -0.5937732
v -0.2226464 2.4556415 -0.59868073
v 0.22038658 2.4556415 -0.5986807
v 0.22038658 2.5233731 -0.59377307
v -0.22264642 2.52552 -0.5459821
v -0.2226464 2.5233731 -0.5937732
v 0.22038658 2.5233731 -0.59377307
v 0.22038656 2.52552 -0.54598206
v -0.2226464 2.8673348 -0.59679234
v -0.2226464 2.7996027 -0.6016998
v 0.22038658 2.7996027 -0.6016997
v 0.22038658 2.8673348 -0.5967922
v -0.22264642 2.8694816 -0.5490012
v -0.2226464 2.8673348 -0.59679234
v 0.22038658 2.8673348 -0.5967922
v 0.22038656 2.8694816 -0.54900116
vt 0.49567118 0.64838284
vt 0.49819323 0.7368086
vt 0.49819323 0.64838284
vt 0.49567118 0.7368086
vt 0.4742066 0.7368086
vt 0.4742066 0.64838284
vt 0.47168446 0.64838284
vt 0.47168446 0.7368086
vt 0.47434717 0.7490975
vt 0.4954742 0.7490948
vt 0.4500949 0.53605044
vt 0.4500949 0.5296094
vt 0.4402685 0.5296094
vt 0.4402685 0.53605044
vt 0.4500949 0.5413658
vt 0.4402685 0.5413658
vt 0.43572465 0.52637607
vt 0.43572465 0.519685
vt 0.4204158 0.519685
vt 0.4204158 0.52637607
vt 0.43572465 0.5329218
vt 0.43572465 0.5275344
vt 0.4204158 0.5275344
vt 0.4204158 0.5329218
vt 0.41586924 0.52637607
vt 0.41586924 0.519685
vt 0.39923894 0.519685
vt 0.39923894 0.52637607
vt 0.41586924 0.5329218
vt 0.41586924 0.5275344
vt 0.39923894 0.5275344
vt 0.39923894 0.5329218
vt 0.39488062 0.52637607
vt 0.39488062 0.519685
vt 0.38029125 0.519685
vt 0.38029125 0.52637607
vt 0.39488062 0.5329218
vt 0.39488062 0.5275344
vt 0.38029125 0.5275344
vt 0.38029125 0.5329218
vt 0.49567118 0.64838284
vt 0.49819323 0.7368086
vt 0.49819323 0.64838284
vt 0.49567118 0.7368086
vt 0.4742066 0.7368086
vt 0.4742066 0.64838284
vt 0.47168446 0.64838284
vt 0.47168446 0.7368086
vt 0.47434717 0.7490975
vt 0.4954742 0.7490948
vt 0.39488062 0.52637607
vt 0.39488062 0.519685
vt 0.38029125 0.519685
vt 0.38029125 0.52637607
vt 0.39488062 0.5329218
vt 0.39488062 0.5275344
vt 0.38029125 0.5275344
vt 0.38029125 0.5329218
vt 0.39488062 0.52637607
vt 0.39488062 0.519685
vt 0.38029125 0.519685
vt 0.38029125 0.52637607
vt 0.39488062 0.5329218
vt 0.39488062 0.5275344
vt 0.38029125 0.5275344
vt 0.38029125 0.5329218
vt 0.39488062 0.52637607
vt 0.39488062 0.519685
vt 0.38029125 0.519685
vt 0.38029125 0.52637607
vt 0.39488062 0.5329218
vt 0.39488062 0.5275344
vt 0.38029125 0.5275344
vt 0.38029125 0.5329218
vt 0.39488062 0.52637607
vt 0.39488062 0.519685
vt 0.38029125 0.519685
vt 0.38029125 0.52637607
vt 0.39488062 0.5329218
vt 0.39488062 0.5275344
vt 0.38029125 0.5275344
vt 0.38029125 0.5329218
vt 0.39488062 0.52637607
vt 0.39488062 0.519685
vt 0.38029125 0.519685
vt 0.38029125 0.52637607
vt 0.39488062 0.5329218
vt 0.39488062 0.5275344
vt 0.38029125 0.5275344
vt 0.38029125 0.5329218
vt 0.39488062 0.52637607
vt 0.39488062 0.519685
vt 0.38029125 0.519685
vt 0.38029125 0.52637607
vt 0.39488062 0.5329218
vt 0.39488062 0.5275344
vt 0.38029125 0.5275344
vt 0.38029125 0.5329218
vn -0.6719651 0.0039505456 -0.7405723
vn -0.7107712 0.6987713 -0.08076475
vn -0.9975858 0.002362017 -0.069405414
vn -0.5558073 0.56955504 -0.60554546
vn 0.55580825 0.56955445 -0.60554504
vn 0.67196584 0.0039505227 -0.74057156
vn 0.9975859 0.002361977 -0.06940316
vn 0.71077037 0.6987723 -0.08076312
vn 0.71077037 0.6987723 -0.08076312
vn -0.7107712 0.6987713 -0.08076475
vn 1.2101552E-07 0.7167403 -0.69734025
vn 1.7317302E-07 0.072265424 -0.99738544
vn 1.7317302E-07 0.072265424 -0.99738544
vn 1.2101553E-07 0.7167402 -0.69734037
vn -0 0.9989925 -0.044876922
vn -0 0.9989925 -0.044876914
vn 1.2074675E-07 0.7167427 -0.6973378
vn 1.7277118E-07 0.072268814 -0.9973852
vn 1.7277118E-07 0.072268814 -0.9973852
vn 1.2074672E-07 0.71674275 -0.6973377
vn -0 0.99899274 -0.044873245
vn 1.2074675E-07 0.7167427 -0.6973378
vn 1.2074672E-07 0.71674275 -0.6973377
vn -0 0.99899274 -0.044873245
vn 1.2107195E-07 0.7167407 -0.69733983
vn 1.7297228E-07 0.0722672 -0.9973853
vn 1.7297228E-07 0.0722672 -0.9973853
vn 1.2107195E-07 0.7167407 -0.69733965
vn -0 0.9989925 -0.04487703
vn 1.2107195E-07 0.7167407 -0.69733983
vn 1.2107195E-07 0.7167407 -0.69733965
vn -0 0.9989925 -0.044877034
vn 1.2097644E-07 0.7167406 -0.69733983
vn 1.7297208E-07 0.07226656 -0.9973853
vn 1.7297208E-07 0.07226656 -0.9973853
vn 1.2097645E-07 0.7167405 -0.6973401
vn -0 0.9989925 -0.044876996
vn 1.2097644E-07 0.7167406 -0.69733983
vn 1.2097645E-07 0.7167405 -0.6973401
vn -0 0.9989925 -0.044876993
vn -0.67196447 0.0039505768 -0.7405729
vn -0.7107711 0.69877136 -0.08076597
vn -0.99758565 0.0023620683 -0.06940719
vn -0.55580693 0.5695548 -0.60554606
vn 0.5558078 0.56955534 -0.6055446
vn 0.6719659 0.003950523 -0.74057156
vn 0.9975859 0.002361978 -0.06940313
vn 0.7107712 0.6987715 -0.08076309
vn 0.7107712 0.6987715 -0.08076309
vn -0.7107711 0.69877136 -0.08076597
vn 1.2093739E-07 0.7167407 -0.69733965
vn 1.727712E-07 0.072267115 -0.9973853
vn 1.727712E-07 0.072267115 -0.9973853
vn 1.209374E-07 0.7167407 -0.69733983
vn -0 0.9989925 -0.044877034
vn 1.2093739E-07 0.7167407 -0.69733965
vn 1.209374E-07 0.7167407 -0.69733983
vn -0 0.9989925 -0.044877026
vn 1.210715E-07 0.71673834 -0.6973423
vn 1.7297208E-07 0.07226656 -0.9973853
vn 1.7297208E-07 0.07226656 -0.9973853
vn 1.2107151E-07 0.7167382 -0.69734234
vn -0 0.99899226 -0.044883445
vn 1.210715E-07 0.71673834 -0.6973423
vn 1.2107151E-07 0.7167382 -0.69734234
vn -0 0.99899226 -0.04488345
vn 1.209767E-07 0.71674067 -0.69733983
vn 1.7297248E-07 0.07226673 -0.9973853
vn 1.7297248E-07 0.07226673 -0.9973853
vn 1.2097672E-07 0.7167406 -0.6973399
vn -0 0.9989925 -0.044877067
vn 1.209767E-07 0.71674067 -0.69733983
vn 1.2097672E-07 0.7167406 -0.6973399
vn -0 0.9989925 -0.04487707
vn 1.2088063E-07 0.7167414 -0.69733906
vn 1.7297167E-07 0.07226865 -0.9973852
vn 1.7297167E-07 0.07226865 -0.9973852
vn 1.2088064E-07 0.71674126 -0.6973391
vn -0 0.9989925 -0.044876955
vn 1.2088063E-07 0.7167414 -0.69733906
vn 1.2088064E-07 0.71674126 -0.6973391
vn -0 0.9989925 -0.04487695
vn 1.209765E-07 0.7167396 -0.69734085
vn 1.7297248E-07 0.07226673 -0.9973853
vn 1.7297248E-07 0.07226673 -0.9973853
vn 1.2097652E-07 0.7167395 -0.69734097
vn -0 0.9989924 -0.0448802
vn 1.209765E-07 0.7167396 -0.69734085
vn 1.2097652E-07 0.7167395 -0.69734097
vn -0 0.9989924 -0.044880196
vn 1.208139E-07 0.7167403 -0.6973403
vn 1.7287165E-07 0.072265424 -0.99738544
vn 1.7287165E-07 0.072265424 -0.99738544
vn 1.2081391E-07 0.7167402 -0.69734037
vn -0 0.9989925 -0.044876955
vn 1.208139E-07 0.7167403 -0.6973403
vn 1.2081391E-07 0.7167402 -0.69734037
vn -0 0.9989925 -0.04487695
g ladder1_2_0
f 3/3/3 2/2/2 1/1/1
f 2/2/2 4/4/4 1/1/1
f 1/1/1 4/4/4 5/5/5
f 6/6/6 1/1/1 5/5/5
f 6/6/6 5/5/5 7/7/7
f 5/5/5 8/8/8 7/7/7
f 5/5/5 4/4/4 9/9/9
f 4/4/4 10/10/10 9/9/9
f 13/13/13 12/12/12 11/11/11
f 14/14/14 13/13/13 11/11/11
f 14/14/14 11/11/11 15/15/15
f 16/16/16 14/14/14 15/15/15
f 19/19/19 18/18/18 17/17/17
f 20/20/20 19/19/19 17/17/17
f 23/23/23 22/22/22 21/21/21
f 24/24/24 23/23/23 21/21/21
f 27/27/27 26/26/26 25/25/25
f 28/28/28 27/27/27 25/25/25
f 31/31/31 30/30/30 29/29/29
f 32/32/32 31/31/31 29/29/29
f 35/35/35 34/34/34 33/33/33
f 36/36/36 35/35/35 33/33/33
f 39/39/39 38/38/38 37/37/37
f 40/40/40 39/39/39 37/37/37
f 43/43/43 42/42/42 41/41/41
f 42/42/42 44/44/44 41/41/41
f 41/41/41 44/44/44 45/45/45
f 46/46/46 41/41/41 45/45/45
f 46/46/46 45/45/45 47/47/47
f 45/45/45 48/48/48 47/47/47
f 45/45/45 44/44/44 49/49/49
f 44/44/44 50/50/50 49/49/49
f 53/53/53 52/52/52 51/51/51
f 54/54/54 53/53/53 51/51/51
f 57/57/57 56/56/56 55/55/55
f 58/58/58 57/57/57 55/55/55
f 61/61/61 60/60/60 59/59/59
f 62/62/62 61/61/61 59/59/59
f 65/65/65 64/64/64 63/63/63
f 66/66/66 65/65/65 63/63/63
f 69/69/69 68/68/68 67/67/67
f 70/70/70 69/69/69 67/67/67
f 73/73/73 72/72/72 71/71/71
f 74/74/74 73/73/73 71/71/71
f 77/77/77 76/76/76 75/75/75
f 78/78/78 77/77/77 75/75/75
f 81/81/81 80/80/80 79/79/79
f 82/82/82 81/81/81 79/79/79
f 85/85/85 84/84/84 83/83/83
f 86/86/86 85/85/85 83/83/83
f 89/89/89 88/88/88 87/87/87
f 90/90/90 89/89/89 87/87/87
f 93/93/93 92/92/92 91/91/91
f 94/94/94 93/93/93 91/91/91
f 97/97/97 96/96/96 95/95/95
f 98/98/98 97/97/97 95/95/95
