g lamp1_1
v -0.1830396 1.5831215 -0.1409684
v -0.21213314 1.5469859 -0.14096844
v -0.17804578 1.5446606 -0.16652757
v 0.21212046 0.75566715 -0.14096707
v 0.17804709 0.7579701 -0.16652803
v 0.18301494 0.7195367 -0.14096771
v 0.17804709 0.7579701 -0.16652803
v 0.21212046 1.5469859 -0.14096776
v 0.17805247 1.5446918 -0.16652752
v -0.17804578 1.5446606 -0.16652757
v -0.17804179 0.7579757 -0.16652748
v -0.1830396 1.5831215 -0.1409684
v 0.18300295 1.5831218 -0.14096774
v 0.17805247 1.5446918 -0.16652752
v 0.21212046 1.5469859 -0.14096776
v -0.14414257 1.4572382 -0.17606144
v 6.346113E-06 1.6238176 -0.30804962
v 0.14414252 1.4572382 -0.17606139
v -0.21213314 1.5469859 -0.14096844
v -0.17804179 0.7579757 -0.16652748
v -0.17804578 1.5446606 -0.16652757
v -0.21213314 0.75566745 -0.14096838
v -0.18301195 0.7195367 -0.14096837
v 0.13806055 1.4572386 -0.44609985
v 6.346113E-06 1.6238176 -0.30804962
v -0.13806051 1.4572386 -0.44609988
v 0.13870622 1.390279 -0.4589101
v -0.13870618 1.390279 -0.45891014
v 0.15087023 1.3902787 -0.44674546
v 0.13806055 1.4572386 -0.44609985
v 0.1508702 1.3902786 -0.1693336
v 0.14414252 1.4572382 -0.17606139
v 6.346113E-06 1.6238176 -0.30804962
v -0.1508702 1.3902787 -0.44674549
v -0.13806051 1.4572386 -0.44609988
v -0.14414257 1.4572382 -0.17606144
v -0.15087023 1.3902786 -0.16933364
v 6.346113E-06 1.6238176 -0.30804962
v 0.07870108 1.1568317 -0.38674033
v -0.07870106 1.1568317 -0.38674095
v -0.07870108 1.1568319 -0.22933815
v 0.07870106 1.1568319 -0.22933811
v 0.07870108 1.1568317 -0.38674033
v 0.12482032 1.390538 -0.43285987
v -0.124820285 1.390538 -0.43285987
v -0.07870106 1.1568317 -0.38674095
v -0.07870106 1.1568317 -0.38674095
v -0.124820285 1.390538 -0.43285987
v -0.12482032 1.3905383 -0.18321922
v -0.07870108 1.1568319 -0.22933815
v 0.07870106 1.1568319 -0.22933811
v 0.12482044 1.3905383 -0.1832192
v 0.12482032 1.390538 -0.43285987
v 0.07870108 1.1568317 -0.38674033
v 0.10187133 1.1492224 -0.39750358
v -0.10187131 1.1492224 -0.3975036
v -0.10921452 1.0290728 -0.40484664
v 0.10921456 1.0290728 -0.4048466
v 0.052004885 0.96230155 -0.37325668
v 0.052004885 1.0300285 -0.37325668
v -0.052004866 1.0300285 -0.3732567
v -0.052004866 0.96230155 -0.37325668
v -0.052004866 0.96230155 -0.37325668
v -0.052004866 1.0300285 -0.3732567
v -0.052004885 1.0300285 -0.24282235
v -0.052004885 0.96230155 -0.2428224
v 0.052004866 0.96230155 -0.2428224
v 0.052004866 1.0300285 -0.24282235
v 0.052004885 1.0300285 -0.37325668
v 0.052004885 0.96230155 -0.37325668
v -0.10187131 1.1492224 -0.3975036
v -0.10187133 1.1492224 -0.2185755
v -0.10921456 1.0290726 -0.2112326
v -0.10921452 1.0290728 -0.40484664
v 0.10187133 1.1492224 -0.39750358
v 0.10187131 1.1492224 -0.21857548
v -0.10187133 1.1492224 -0.2185755
v -0.10187131 1.1492224 -0.3975036
v 0.10921452 1.0290726 -0.21123256
v 0.10187131 1.1492224 -0.21857548
v 0.10187133 1.1492224 -0.39750358
v 0.10921456 1.0290728 -0.4048466
vt 0.34516004 0.58598256
vt 0.34244794 0.58598256
vt 0.34356537 0.5830995
vt 0.3416805 0.5491844
vt 0.34480947 0.5485277
vt 0.34211224 0.5468472
vt 0.34540758 0.5494259
vt 0.3416805 0.5817043
vt 0.34546098 0.5816112
vt 0.3675018 0.58168614
vt 0.36785194 0.54949576
vt 0.36785194 0.5858626
vt 0.34540758 0.5858626
vt 0.34362113 0.5830995
vt 0.34244794 0.58598256
vt 0.20338257 0.85169595
vt 0.2034193 0.8675161
vt 0.20345533 0.85169595
vt 0.3416805 0.5817043
vt 0.34540758 0.5491844
vt 0.34503764 0.5817043
vt 0.3416805 0.5491844
vt 0.34211224 0.5468472
vt 0.21483463 0.85149485
vt 0.22648643 0.8675161
vt 0.23794748 0.85149485
vt 0.21483463 0.84233046
vt 0.23794748 0.84233046
vt 0.212709 0.84233046
vt 0.212709 0.85169595
vt 0.20401324 0.84233046
vt 0.20401324 0.85169595
vt 0.21273352 0.8675161
vt 0.24003223 0.84233046
vt 0.24003223 0.85169595
vt 0.24937166 0.85169595
vt 0.24937166 0.84233046
vt 0.23999074 0.8675161
vt 0.1572254 0.9122848
vt 0.17766951 0.9122848
vt 0.17766951 0.9122848
vt 0.1572254 0.9122848
vt 0.1572254 0.9122848
vt 0.1572254 0.93056023
vt 0.17766951 0.93056023
vt 0.17766951 0.9122848
vt 0.17766951 0.9122848
vt 0.17766951 0.93056023
vt 0.17766951 0.93056023
vt 0.17766951 0.9122848
vt 0.1572254 0.9122848
vt 0.1572254 0.93056023
vt 0.1572254 0.93056023
vt 0.1572254 0.9122848
vt 0.22359848 0.83090276
vt 0.24800004 0.83090276
vt 0.24800004 0.8156877
vt 0.22359848 0.8156877
vt 0.22247249 0.8092356
vt 0.22247249 0.81868756
vt 0.24881542 0.81868756
vt 0.24881542 0.8092356
vt 0.24881542 0.8092356
vt 0.24881542 0.81868756
vt 0.24881542 0.81868756
vt 0.24881542 0.8092356
vt 0.22247249 0.8092356
vt 0.22247249 0.81868756
vt 0.22247249 0.81868756
vt 0.22247249 0.8092356
vt 0.22247249 0.830855
vt 0.21357483 0.830855
vt 0.21357483 0.81563985
vt 0.22247249 0.81563985
vt 0.22355726 0.8308849
vt 0.22355726 0.83303046
vt 0.24865475 0.83303046
vt 0.24865475 0.8308849
vt 0.21357483 0.81563985
vt 0.21357483 0.830855
vt 0.22247249 0.830855
vt 0.22247249 0.81563985
vn -0.2152862 0.5210598 -0.8259229
vn -0.5819854 0.18140844 -0.7927067
vn -0.28225523 0.25353947 -0.9252296
vn 0.58225644 -0.18149771 -0.7924873
vn 0.38562518 -0.115099415 -0.9154482
vn 0.5252541 -0.42311466 -0.7382968
vn 0.38562518 -0.115099415 -0.9154482
vn 0.5822971 0.1815328 -0.7924494
vn 0.28243473 0.25370347 -0.92512983
vn -0.28225523 0.25353947 -0.9252296
vn -0.38545084 -0.115101136 -0.9155213
vn -0.2152862 0.5210598 -0.8259229
vn 0.215265 0.52133393 -0.8257554
vn 0.28243473 0.25370347 -0.92512983
vn 0.5822971 0.1815328 -0.7924494
vn -1.0443971E-07 0.6210293 0.78378737
vn -1.0443971E-07 0.6210293 0.78378737
vn -1.0443971E-07 0.6210294 0.78378737
vn -0.5819854 0.18140844 -0.7927067
vn -0.38545084 -0.115101136 -0.9155213
vn -0.28225523 0.25353947 -0.9252296
vn -0.58201313 -0.18149784 -0.7926659
vn -0.5249949 -0.42314333 -0.73846465
vn 0.6244075 0.46141312 -0.6302486
vn 2.4580699E-05 0.92096126 -0.3896542
vn -0.6244067 0.46142033 -0.630244
vn 0.36335582 0.17844139 -0.9144021
vn -0.3633557 0.17844142 -0.91440225
vn 0.9167646 0.15343247 -0.36878338
vn 0.6244075 0.46141312 -0.6302486
vn 0.9895365 0.14386323 -0.0109932
vn 0.9379791 0.3464157 -0.013834919
vn 2.4580699E-05 0.92096126 -0.3896542
vn -0.9167645 0.15343246 -0.3687835
vn -0.6244067 0.46142033 -0.630244
vn -0.9379727 0.346433 -0.013835037
vn -0.9895365 0.14386322 -0.010993477
vn 2.4580699E-05 0.92096126 -0.3896542
vn -0 -1 4.88099E-07
vn -0 -1 4.88099E-07
vn -0 -1 4.8809903E-07
vn -0 -1 4.88099E-07
vn 1.4840754E-06 -0.19360484 -0.9810796
vn 1.4840754E-06 -0.19360483 -0.9810796
vn 1.4840754E-06 -0.19360483 -0.9810796
vn 1.4840755E-06 -0.19360483 -0.9810796
vn -0.9810796 -0.19360472 0
vn -0.9810796 -0.19360472 0
vn -0.9810796 -0.19360474 0
vn -0.9810796 -0.19360471 0
vn 0.9810796 -0.19360504 0
vn 0.9810796 -0.19360505 0
vn 0.9810796 -0.19360505 0
vn 0.9810796 -0.19360504 0
vn 1.8078464E-07 0.061001882 -0.9981376
vn 1.8078464E-07 0.061001882 -0.9981376
vn 1.8078462E-07 0.061001882 -0.9981376
vn 1.8078462E-07 0.061001882 -0.9981376
vn 1.8466537E-07 -2.835946E-07 -1
vn 1.8466537E-07 -2.835946E-07 -1
vn 1.8466537E-07 -2.835946E-07 -1
vn 1.8466537E-07 -2.835946E-07 -1
vn -1 0 -1.472542E-07
vn -1 0 -1.472542E-07
vn -1 0 -1.472542E-07
vn -1 0 -1.472542E-07
vn 1 0 1.4725423E-07
vn 1 0 1.4725423E-07
vn 1 0 1.4725423E-07
vn 1 0 1.4725423E-07
vn -0.9981376 0.061003435 -1.2992967E-07
vn -0.9981376 0.06100343 -1.2992967E-07
vn -0.9981376 0.06100343 -1.2992965E-07
vn -0.9981376 0.06100343 -1.2992966E-07
vn -0 1 0
vn -0 1 0
vn -0 1 0
vn -0 1 0
vn 0.9981376 0.06100343 1.8006851E-07
vn 0.9981376 0.06100343 1.8006851E-07
vn 0.9981376 0.061003435 1.8006851E-07
vn 0.9981376 0.06100343 1.800685E-07
g lamp1_1_0
f 3/3/3 2/2/2 1/1/1
f 6/6/6 5/5/5 4/4/4
f 8/8/8 4/4/4 7/7/7
f 9/9/9 8/8/8 7/7/7
f 10/10/10 9/9/9 7/7/7
f 11/11/11 10/10/10 7/7/7
f 10/10/10 12/12/12 9/9/9
f 12/12/12 13/13/13 9/9/9
f 15/15/15 14/14/14 13/13/13
f 18/18/18 17/17/17 16/16/16
f 21/21/21 20/20/20 19/19/19
f 20/20/20 22/22/22 19/19/19
f 20/20/20 23/23/23 22/22/22
f 26/26/26 25/25/25 24/24/24
f 26/26/26 24/24/24 27/27/27
f 28/28/28 26/26/26 27/27/27
f 30/30/30 29/29/29 27/27/27
f 29/29/29 30/30/30 31/31/31
f 30/30/30 32/32/32 31/31/31
f 30/30/30 33/33/33 32/32/32
f 35/35/35 28/28/28 34/34/34
f 36/36/36 35/35/35 34/34/34
f 37/37/37 36/36/36 34/34/34
f 36/36/36 38/38/38 35/35/35
f 41/41/41 40/40/40 39/39/39
f 42/42/42 41/41/41 39/39/39
f 45/45/45 44/44/44 43/43/43
f 46/46/46 45/45/45 43/43/43
f 49/49/49 48/48/48 47/47/47
f 50/50/50 49/49/49 47/47/47
f 53/53/53 52/52/52 51/51/51
f 54/54/54 53/53/53 51/51/51
f 57/57/57 56/56/56 55/55/55
f 58/58/58 57/57/57 55/55/55
f 61/61/61 60/60/60 59/59/59
f 62/62/62 61/61/61 59/59/59
f 65/65/65 64/64/64 63/63/63
f 66/66/66 65/65/65 63/63/63
f 69/69/69 68/68/68 67/67/67
f 70/70/70 69/69/69 67/67/67
f 73/73/73 72/72/72 71/71/71
f 74/74/74 73/73/73 71/71/71
f 77/77/77 76/76/76 75/75/75
f 78/78/78 77/77/77 75/75/75
f 81/81/81 80/80/80 79/79/79
f 82/82/82 81/81/81 79/79/79
