g laser_turret_glow
v 0.4133677 1.5569228 -0.34178185
v 0.4133682 1.556923 0.35724586
v -0.41336015 1.5569236 0.35724586
v -0.41336048 1.5569228 -0.34178185
v 0.4133682 1.556923 0.35724586
v 0.4133677 1.5569228 -0.34178185
v 0.43428972 1.344976 -0.35325554
v 0.43429023 1.344976 0.36872062
v 0.4133677 1.5569228 -0.34178185
v -0.41336048 1.5569228 -0.34178185
v -0.43428212 1.344976 -0.35325554
v 0.43428972 1.344976 -0.35325554
v -0.41336048 1.5569228 -0.34178185
v -0.41336015 1.5569236 0.35724586
v -0.43428212 1.3449765 0.36872062
v -0.43428212 1.344976 -0.35325554
v -0.41336015 1.5569236 0.35724586
v 0.4133682 1.556923 0.35724586
v 0.43429023 1.344976 0.36872062
v -0.43428212 1.3449765 0.36872062
vt 0.9414235 0.66822606
vt 0.9414235 0.6807703
vt 0.94756687 0.6807703
vt 0.94756687 0.66822606
vt 0.9414235 0.6673022
vt 0.94756687 0.6673022
vt 0.94756687 0.6643004
vt 0.9414235 0.6643004
vt 0.9414235 0.6673022
vt 0.94756675 0.6673022
vt 0.94756675 0.6643004
vt 0.9414235 0.6643004
vt 0.9414235 0.6673022
vt 0.94756675 0.6673022
vt 0.94756675 0.6643004
vt 0.9414235 0.6643004
vt 0.9414235 0.6673022
vt 0.94756675 0.6673022
vt 0.94756675 0.6643004
vt 0.9414235 0.6643004
vn 3.717207E-07 1 -6.5944187E-07
vn 3.717207E-07 1 -6.594419E-07
vn 3.7172074E-07 1 -6.594419E-07
vn 3.717207E-07 1 -6.5944187E-07
vn 0.9951631 0.098236024 -7.0970725E-07
vn 0.9951631 0.09823603 -7.097073E-07
vn 0.9951631 0.09823603 -7.097073E-07
vn 0.9951631 0.09823602 -7.0970725E-07
vn -0 0.054055557 -0.9985379
vn -0 0.054055557 -0.9985379
vn -0 0.05405556 -0.9985379
vn -0 0.054055557 -0.9985379
vn -0.9951632 0.09823496 1.1982904E-07
vn -0.9951632 0.098234944 1.1982901E-07
vn -0.9951632 0.09823496 1.1982904E-07
vn -0.9951632 0.09823495 1.1982902E-07
vn -0 0.05406057 0.99853766
vn -0 0.054060575 0.99853766
vn -0 0.054060575 0.99853766
vn -0 0.05406057 0.99853766
g laser_turret_glow_0
f 3/3/3 2/2/2 1/1/1
f 4/4/4 3/3/3 1/1/1
f 7/7/7 6/6/6 5/5/5
f 8/8/8 7/7/7 5/5/5
f 11/11/11 10/10/10 9/9/9
f 12/12/12 11/11/11 9/9/9
f 15/15/15 14/14/14 13/13/13
f 16/16/16 15/15/15 13/13/13
f 19/19/19 18/18/18 17/17/17
f 20/20/20 19/19/19 17/17/17
