g lever_up
v -0.009074309 0.6904139 0.09158301
v -0.009074309 0.4481052 0.09068297
v -0.087382324 0.44821206 0.04547196
v -0.087382324 0.6905198 0.04637273
v -0.087382324 0.4484241 -0.04495022
v -0.087382324 0.69072986 -0.04404803
v -0.009074309 0.44853014 -0.09016043
v -0.009074309 0.69083786 -0.089259654
v -0.009074309 0.69083786 -0.089259654
v -0.009074309 0.44853014 -0.09016043
v 0.06923371 0.4484241 -0.04495022
v 0.06923371 0.69072986 -0.04404803
v 0.06923371 0.44821206 0.04547196
v 0.06923371 0.6905198 0.04637273
v -0.009074309 0.4481052 0.09068297
v -0.009074309 0.6904139 0.09158301
v -0.10669873 0.6759205 -0.055631116
v -0.009074309 0.6760511 -0.11199329
v -0.009074309 0.80112505 -0.11155871
v -0.10669873 0.8010037 -0.05519412
v -0.10669873 0.675656 0.05709711
v -0.009074309 0.8548223 -0.1371938
v -0.10669873 0.80076075 0.057533417
v -0.009074309 0.67552435 0.11345994
v -0.009074309 0.80063766 0.1138977
v -0.12907104 0.85467374 -0.06791388
v -0.009074309 0.9266359 -0.15491553
v -0.12907104 0.8543741 0.07064681
v -0.009074309 0.8542235 0.13992815
v -0.14464562 0.9264672 -0.07664185
v -0.00907185 1.0098289 -0.15044102
v -0.14464562 0.92613083 0.079903044
v -0.009074309 0.92596024 0.1581781
v -0.141039 1.0096647 -0.07425196
v -0.00907185 1.0214015 -0.120802775
v -0.11540672 1.0212684 -0.059411246
v -0.141039 1.0093347 0.07813147
v -0.00907185 1.0091715 0.15431803
v -0.11540672 1.0210025 0.06337461
v -0.00907185 1.0208702 0.12476702
v 0.08855257 0.675656 0.05709711
v -0.009074309 0.67552435 0.11345994
v -0.009074309 0.80063766 0.1138977
v 0.08855257 0.80076075 0.057533417
v 0.08855257 0.6759205 -0.055631116
v -0.009074309 0.8542235 0.13992815
v 0.08855257 0.8010037 -0.05519412
v -0.009074309 0.6760511 -0.11199329
v -0.009074309 0.80112505 -0.11155871
v 0.110922426 0.8543741 0.07064681
v -0.009074309 0.92596024 0.1581781
v 0.110922426 0.85467374 -0.06791388
v -0.009074309 0.8548223 -0.1371938
v 0.12649946 0.92613083 0.079903044
v -0.00907185 1.0091715 0.15431803
v 0.12649946 0.9264672 -0.07664185
v -0.009074309 0.9266359 -0.15491553
v 0.12289284 1.0093349 0.0781325
v -0.00907185 1.0208702 0.12476702
v 0.12289284 1.0096647 -0.07425196
v -0.00907185 1.0098289 -0.15044102
v -0.00907185 1.0214015 -0.120802775
v 0.097260565 1.0212691 -0.059410248
v -0.00907185 1.0075823 -0.10077583
v 0.08112791 1.0093131 -0.05013991
v 0.097260565 1.0210025 0.06337461
v 0.0827161 1.0114142 0.05493955
v -0.00907185 1.0120823 0.10855597
v -0.087382324 0.44821206 0.04547196
v -0.009074309 0.4481052 0.09068297
v -0.009074309 0.44040558 0.10418515
v -0.09909706 0.44052872 0.052209966
v -0.009074309 0.0020855346 0.10361866
v -0.087382324 0.4484241 -0.04495022
v -0.09909706 0.0022325064 0.051643323
v -0.09909706 0.4407712 -0.051739205
v -0.009074309 0.44853014 -0.09016043
v -0.09909706 0.0025247987 -0.0523032
v -0.009074309 0.44089344 -0.10371358
v -0.009074309 0.0026717705 -0.104278535
v 0.06923371 0.4484241 -0.04495022
v -0.009074309 0.44853014 -0.09016043
v -0.009074309 0.44089344 -0.10371358
v 0.08094844 0.4407712 -0.051739205
v -0.009074309 0.0026717705 -0.104278535
v 0.06923371 0.44821206 0.04547196
v 0.08094844 0.0025247987 -0.0523032
v 0.08094844 0.44052872 0.052209966
v -0.009074309 0.4481052 0.09068297
v 0.08094844 0.0022325064 0.051643323
v -0.009074309 0.44040558 0.10418515
v -0.009074309 0.0020855346 0.10361866
v -0.11540672 1.0210025 0.06337461
v -0.00907185 1.0120823 0.10855597
v -0.00907185 1.0208702 0.12476702
v -0.10086226 1.0114142 0.05493955
v -0.11540672 1.0212684 -0.059411246
v -0.09927653 1.0093131 -0.05013991
v -0.00907185 1.0214015 -0.120802775
v -0.00907185 1.0075823 -0.10077583
v -0.10086226 1.0114142 0.05493955
v -0.09927653 1.0093131 -0.05013991
v -0.08981132 0.9954228 -0.04472788
v -0.00907185 1.0075823 -0.10077583
v -0.08981132 0.995222 0.048500057
v -0.00907185 1.0120823 0.10855597
v -0.00907185 0.9955228 -0.09134008
v -0.009074309 0.9953226 0.001886089
v 0.0716627 0.9954228 -0.04472788
v 0.08112791 1.0093131 -0.05013991
v 0.0716627 0.9952213 0.04850071
v 0.0827161 1.0114142 0.05493955
v -0.009074309 0.9951215 0.095115714
v -0.009074309 0.67552435 0.11345994
v -0.009074309 0.6756021 0.07980355
v -0.07754834 0.67569613 0.04026644
v -0.10669873 0.675656 0.05709711
v 0.08855257 0.675656 0.05709711
v -0.07754834 0.67588115 -0.03879956
v 0.059402183 0.67569613 0.04026644
v -0.10669873 0.6759205 -0.055631116
v 0.08855257 0.6759205 -0.055631116
v -0.009074309 0.6759729 -0.078333445
v 0.059402183 0.67588115 -0.03879956
v -0.009074309 0.6760511 -0.11199329
vt 0.47572678 0.94649076
vt 0.47572678 0.9212152
vt 0.47176042 0.9212152
vt 0.47176042 0.94649076
vt 0.46779415 0.9212152
vt 0.46779415 0.94649076
vt 0.4638279 0.9212152
vt 0.4638279 0.94649076
vt 0.4638279 0.94649065
vt 0.4638279 0.9212151
vt 0.46779415 0.9212151
vt 0.46779415 0.94649065
vt 0.47176042 0.9212151
vt 0.47176042 0.94649065
vt 0.47572678 0.9212151
vt 0.47572678 0.94649065
vt 0.42903814 0.921095
vt 0.42257488 0.921095
vt 0.42257488 0.9261643
vt 0.42903814 0.9261643
vt 0.43522212 0.921095
vt 0.42257488 0.9344321
vt 0.43522212 0.9261643
vt 0.4416756 0.921095
vt 0.4416756 0.9261643
vt 0.42903814 0.9344321
vt 0.42257488 0.93887484
vt 0.43522212 0.9344321
vt 0.4416756 0.9344321
vt 0.42903814 0.93887484
vt 0.42257488 0.94284606
vt 0.43522212 0.93887484
vt 0.4416756 0.93887484
vt 0.42903814 0.94284606
vt 0.42257488 0.9449433
vt 0.42903814 0.9449433
vt 0.43522212 0.94284606
vt 0.4416756 0.94284606
vt 0.43522212 0.9449433
vt 0.4416756 0.9449433
vt 0.43521234 0.921095
vt 0.4416756 0.921095
vt 0.4416756 0.9261643
vt 0.43521234 0.9261643
vt 0.42902836 0.921095
vt 0.4416756 0.9344321
vt 0.42902836 0.9261643
vt 0.42257488 0.921095
vt 0.42257488 0.9261643
vt 0.43521234 0.9344321
vt 0.4416756 0.93887484
vt 0.42902836 0.9344321
vt 0.42257488 0.9344321
vt 0.43521234 0.93887484
vt 0.4416756 0.94284606
vt 0.42902836 0.93887484
vt 0.42257488 0.93887484
vt 0.43521234 0.94284606
vt 0.4416756 0.9449433
vt 0.42902836 0.94284606
vt 0.42257488 0.94284606
vt 0.42257488 0.9449433
vt 0.42902836 0.9449433
vt 0.42257488 0.9466361
vt 0.42902836 0.9466361
vt 0.43521234 0.9449433
vt 0.43521234 0.9466361
vt 0.4416756 0.9466361
vt 0.45051727 0.9310188
vt 0.445656 0.9310188
vt 0.445656 0.9302654
vt 0.45051727 0.9302654
vt 0.445656 0.92056304
vt 0.45550302 0.9310188
vt 0.45051727 0.92056304
vt 0.45550302 0.9302654
vt 0.4603699 0.9310188
vt 0.45550302 0.92056304
vt 0.4603699 0.9302654
vt 0.4603699 0.92056304
vt 0.45051727 0.9310188
vt 0.445656 0.9310188
vt 0.445656 0.9302654
vt 0.45051727 0.9302654
vt 0.445656 0.92056304
vt 0.45550302 0.9310188
vt 0.45051727 0.92056304
vt 0.45550302 0.9302654
vt 0.4603699 0.9310188
vt 0.45550302 0.92056304
vt 0.4603699 0.9302654
vt 0.4603699 0.92056304
vt 0.42902836 0.94565153
vt 0.42257917 0.9466361
vt 0.42257488 0.94565153
vt 0.4290314 0.9466361
vt 0.43521234 0.94565153
vt 0.43520325 0.9466361
vt 0.4416756 0.94565153
vt 0.4416962 0.9466361
vt 0.4499212 0.9322572
vt 0.4576911 0.93227243
vt 0.45669517 0.9333252
vt 0.46079737 0.93900174
vt 0.4507042 0.9332956
vt 0.44667697 0.9389989
vt 0.4586669 0.9385139
vt 0.45369104 0.938506
vt 0.4566779 0.9437163
vt 0.45771286 0.9457432
vt 0.45068696 0.9436867
vt 0.44994292 0.945728
vt 0.44854397 0.938498
vt 0.4416756 0.921095
vt 0.4416756 0.921095
vt 0.43522212 0.921095
vt 0.43522212 0.921095
vt 0.43521234 0.921095
vt 0.42903814 0.921095
vt 0.43521234 0.921095
vt 0.42903814 0.921095
vt 0.42902836 0.921095
vt 0.42257488 0.921095
vt 0.42902836 0.921095
vt 0.42257488 0.921095
vn -0 -0.0037159303 0.9999931
vn -0 0.5866343 0.80985206
vn -0.70001143 0.5879017 0.4054078
vn -0.865833 -0.0018592033 0.5003298
vn -0.6994987 0.5904373 -0.4025983
vn -0.86621493 0.0018589724 -0.49966824
vn -0 0.5917077 -0.8061526
vn -0 0.0037203876 -0.9999931
vn -0 0.0037203876 -0.9999931
vn -0 0.5917077 -0.8061526
vn 0.6994987 0.59043735 -0.40259832
vn 0.86621493 0.0018589724 -0.49966824
vn 0.7000115 0.5879017 0.4054078
vn 0.865833 -0.0018592033 0.5003298
vn -0 0.5866343 0.80985206
vn -0 -0.0037159303 0.9999931
vn -0.8658659 0.001743009 -0.50027335
vn -5.4570455E-06 0.0034840915 -0.9999939
vn -3.5668313E-06 -0.23620217 -0.9717039
vn -0.84090436 -0.23792163 -0.48607937
vn -0.86618346 -0.001745654 0.49972308
vn -1.9254257E-06 -0.32700774 -0.94502157
vn -0.8406807 -0.2413548 0.48477206
vn -5.4311217E-06 -0.0034932208 0.9999939
vn -3.5456922E-06 -0.24306594 0.9700098
vn -0.8175568 -0.32863727 -0.472862
vn -5.8798905E-06 -0.08976753 -0.9959628
vn -0.81730664 -0.33190304 0.47100973
vn -1.9472297E-06 -0.33354115 0.94273555
vn -0.86228323 -0.09154427 -0.49808362
vn 7.2926177E-06 0.5159336 -0.85662854
vn -0.8622124 -0.09510729 0.49753815
vn -6.6545945E-06 -0.09689981 0.99529415
vn -0.7431423 0.51465577 -0.42763186
vn -4.2294596E-07 0.99896526 -0.04548022
vn -0.04866029 0.99854076 -0.023418553
vn -0.7432368 0.5120884 0.43053982
vn 4.41796E-06 0.51081204 0.85969234
vn -0.058262665 0.9975629 0.0383916
vn -1.7562709E-06 0.9970222 0.077113956
vn 0.8661807 -0.0017456698 0.4997278
vn -5.4311217E-06 -0.0034932208 0.9999939
vn -3.5456922E-06 -0.24306594 0.9700098
vn 0.84068406 -0.24134012 0.48477337
vn 0.8658631 0.0017430247 -0.500278
vn -1.9472297E-06 -0.33354115 0.94273555
vn 0.84090775 -0.23790696 -0.48608074
vn -5.4570455E-06 0.0034840915 -0.9999939
vn -3.5668313E-06 -0.23620217 -0.9717039
vn 0.81730264 -0.33190423 0.47101587
vn -6.6545945E-06 -0.09689981 0.99529415
vn 0.81755275 -0.32863835 -0.47286823
vn -1.9254257E-06 -0.32700774 -0.94502157
vn 0.8622122 -0.09512384 0.49753556
vn 4.41796E-06 0.51081204 0.85969234
vn 0.8622826 -0.09155935 -0.498082
vn -5.8798905E-06 -0.08976753 -0.9959628
vn 0.743237 0.5120838 0.4305447
vn -1.7562709E-06 0.9970222 0.077113956
vn 0.743144 0.5146505 -0.4276351
vn 7.2926177E-06 0.5159336 -0.85662854
vn -4.2294596E-07 0.99896526 -0.04548022
vn 0.04866071 0.99854064 -0.023422757
vn -9.286777E-06 0.7587249 0.65141106
vn -0.5518733 0.7687785 0.3231339
vn 0.058266293 0.99756277 0.038387854
vn -0.5365539 0.7869022 -0.30478653
vn -1.2641706E-05 0.79522085 -0.60631996
vn -0.70001143 0.5879017 0.4054078
vn -0 0.5866343 0.80985206
vn -0 0.44237906 0.8968282
vn -0.7759636 0.44324332 0.44879374
vn -0 -0.0012926232 0.99999917
vn -0.6994987 0.5904373 -0.4025983
vn -0.8658167 -0.0006467787 0.50036085
vn -0.77591586 0.44495526 -0.44717944
vn -0 0.5917077 -0.8061526
vn -0.8662369 0.00064355996 -0.4996331
vn -0 0.44581583 -0.8951247
vn -0 0.0012880639 -0.99999917
vn 0.6994987 0.59043735 -0.40259832
vn -0 0.5917077 -0.8061526
vn -0 0.44581583 -0.8951247
vn 0.77591586 0.44495526 -0.44717944
vn -0 0.0012880639 -0.99999917
vn 0.7000115 0.5879017 0.4054078
vn 0.8662369 0.00064355996 -0.4996331
vn 0.7759636 0.44324332 0.44879374
vn -0 0.5866343 0.80985206
vn 0.8658167 -0.0006467787 0.50036085
vn -0 0.44237906 0.8968282
vn -0 -0.0012926232 0.99999917
vn -0.058262665 0.9975629 0.0383916
vn -1.2641706E-05 0.79522085 -0.60631996
vn -1.7562709E-06 0.9970222 0.077113956
vn 0.53656584 0.78688484 -0.30481052
vn -0.04866029 0.99854076 -0.023418553
vn 0.5518826 0.76877546 0.3231252
vn -4.2294596E-07 0.99896526 -0.04548022
vn -9.286777E-06 0.7587249 0.65141106
vn 0.53656584 0.78688484 -0.30481052
vn 0.5518826 0.76877546 0.3231252
vn 0.4666295 0.84174013 0.27153337
vn -9.286777E-06 0.7587249 0.65141106
vn 0.46650463 0.8431833 -0.2672366
vn -1.2641706E-05 0.79522085 -0.60631996
vn -7.918828E-06 0.8410143 0.5410129
vn 1.8988227E-06 0.99999774 0.0021541584
vn -0.46661904 0.84174734 0.2715293
vn -0.5518733 0.7687785 0.3231339
vn -0.4664756 0.8432016 -0.26722947
vn -0.5365539 0.7869022 -0.30478653
vn 2.4134286E-05 0.843906 -0.5364911
vn -8.385979E-06 -0.99999726 -0.0023391794
vn -8.385978E-06 -0.99999726 -0.0023391792
vn -8.385977E-06 -0.99999726 -0.002339179
vn -8.385979E-06 -0.99999726 -0.0023391794
vn -1.321337E-05 -0.99999726 -0.002343358
vn 1.3213369E-05 -0.99999726 -0.0023433585
vn -1.3213368E-05 -0.99999726 -0.002343358
vn 1.3213369E-05 -0.99999726 -0.0023433585
vn 4.1144617E-06 -0.9999974 -0.0023256752
vn -4.1145527E-06 -0.9999974 -0.0023256755
vn 4.1144617E-06 -0.9999974 -0.0023256752
vn -4.114553E-06 -0.9999974 -0.0023256752
g lever_up_0
f 3/3/3 2/2/2 1/1/1
f 4/4/4 3/3/3 1/1/1
f 5/5/5 3/3/3 4/4/4
f 6/6/6 5/5/5 4/4/4
f 7/7/7 5/5/5 6/6/6
f 8/8/8 7/7/7 6/6/6
f 11/11/11 10/10/10 9/9/9
f 12/12/12 11/11/11 9/9/9
f 13/13/13 11/11/11 12/12/12
f 14/14/14 13/13/13 12/12/12
f 15/15/15 13/13/13 14/14/14
f 16/16/16 15/15/15 14/14/14
f 19/19/19 18/18/18 17/17/17
f 20/20/20 19/19/19 17/17/17
f 20/20/20 17/17/17 21/21/21
f 22/22/22 19/19/19 20/20/20
f 23/23/23 20/20/20 21/21/21
f 23/23/23 21/21/21 24/24/24
f 25/25/25 23/23/23 24/24/24
f 26/26/26 22/22/22 20/20/20
f 26/26/26 20/20/20 23/23/23
f 27/27/27 22/22/22 26/26/26
f 28/28/28 23/23/23 25/25/25
f 28/28/28 26/26/26 23/23/23
f 29/29/29 28/28/28 25/25/25
f 30/30/30 27/27/27 26/26/26
f 30/30/30 26/26/26 28/28/28
f 31/31/31 27/27/27 30/30/30
f 32/32/32 28/28/28 29/29/29
f 32/32/32 30/30/30 28/28/28
f 33/33/33 32/32/32 29/29/29
f 34/34/34 31/31/31 30/30/30
f 34/34/34 30/30/30 32/32/32
f 35/35/35 31/31/31 34/34/34
f 36/36/36 35/35/35 34/34/34
f 37/37/37 32/32/32 33/33/33
f 37/37/37 34/34/34 32/32/32
f 36/36/36 34/34/34 37/37/37
f 38/38/38 37/37/37 33/33/33
f 39/39/39 36/36/36 37/37/37
f 37/37/37 38/38/38 40/40/40
f 39/39/39 37/37/37 40/40/40
f 43/43/43 42/42/42 41/41/41
f 44/44/44 43/43/43 41/41/41
f 44/44/44 41/41/41 45/45/45
f 46/46/46 43/43/43 44/44/44
f 47/47/47 44/44/44 45/45/45
f 47/47/47 45/45/45 48/48/48
f 49/49/49 47/47/47 48/48/48
f 50/50/50 46/46/46 44/44/44
f 50/50/50 44/44/44 47/47/47
f 51/51/51 46/46/46 50/50/50
f 52/52/52 47/47/47 49/49/49
f 52/52/52 50/50/50 47/47/47
f 53/53/53 52/52/52 49/49/49
f 54/54/54 51/51/51 50/50/50
f 54/54/54 50/50/50 52/52/52
f 55/55/55 51/51/51 54/54/54
f 56/56/56 52/52/52 53/53/53
f 56/56/56 54/54/54 52/52/52
f 57/57/57 56/56/56 53/53/53
f 58/58/58 55/55/55 54/54/54
f 58/58/58 54/54/54 56/56/56
f 59/59/59 55/55/55 58/58/58
f 60/60/60 56/56/56 57/57/57
f 60/60/60 58/58/58 56/56/56
f 61/61/61 60/60/60 57/57/57
f 60/60/60 61/61/61 62/62/62
f 63/63/63 60/60/60 62/62/62
f 58/58/58 60/60/60 63/63/63
f 62/62/62 64/64/64 63/63/63
f 64/64/64 65/65/65 63/63/63
f 66/66/66 58/58/58 63/63/63
f 63/63/63 65/65/65 66/66/66
f 66/66/66 59/59/59 58/58/58
f 65/65/65 67/67/67 66/66/66
f 66/66/66 67/67/67 59/59/59
f 67/67/67 68/68/68 59/59/59
f 71/71/71 70/70/70 69/69/69
f 72/72/72 71/71/71 69/69/69
f 73/73/73 71/71/71 72/72/72
f 72/72/72 69/69/69 74/74/74
f 75/75/75 73/73/73 72/72/72
f 76/76/76 72/72/72 74/74/74
f 75/75/75 72/72/72 76/76/76
f 76/76/76 74/74/74 77/77/77
f 78/78/78 75/75/75 76/76/76
f 79/79/79 76/76/76 77/77/77
f 78/78/78 76/76/76 79/79/79
f 80/80/80 78/78/78 79/79/79
f 83/83/83 82/82/82 81/81/81
f 84/84/84 83/83/83 81/81/81
f 85/85/85 83/83/83 84/84/84
f 84/84/84 81/81/81 86/86/86
f 87/87/87 85/85/85 84/84/84
f 88/88/88 84/84/84 86/86/86
f 87/87/87 84/84/84 88/88/88
f 88/88/88 86/86/86 89/89/89
f 90/90/90 87/87/87 88/88/88
f 91/91/91 88/88/88 89/89/89
f 90/90/90 88/88/88 91/91/91
f 92/92/92 90/90/90 91/91/91
f 95/95/95 94/94/94 93/93/93
f 94/94/94 96/96/96 93/93/93
f 93/93/93 96/96/96 97/97/97
f 96/96/96 98/98/98 97/97/97
f 97/97/97 98/98/98 99/99/99
f 98/98/98 100/100/100 99/99/99
f 103/103/103 102/102/102 101/101/101
f 104/104/104 102/102/102 103/103/103
f 105/105/105 103/103/103 101/101/101
f 105/105/105 101/101/101 106/106/106
f 107/107/107 104/104/104 103/103/103
f 108/108/108 103/103/103 105/105/105
f 108/108/108 107/107/107 103/103/103
f 107/107/107 109/109/109 104/104/104
f 108/108/108 109/109/109 107/107/107
f 109/109/109 110/110/110 104/104/104
f 109/109/109 111/111/111 110/110/110
f 108/108/108 111/111/111 109/109/109
f 111/111/111 112/112/112 110/110/110
f 106/106/106 112/112/112 111/111/111
f 113/113/113 105/105/105 106/106/106
f 108/108/108 105/105/105 113/113/113
f 113/113/113 106/106/106 111/111/111
f 108/108/108 113/113/113 111/111/111
f 116/116/116 115/115/115 114/114/114
f 117/117/117 116/116/116 114/114/114
f 114/114/114 115/115/115 118/118/118
f 119/119/119 116/116/116 117/117/117
f 115/115/115 120/120/120 118/118/118
f 121/121/121 119/119/119 117/117/117
f 118/118/118 120/120/120 122/122/122
f 123/123/123 119/119/119 121/121/121
f 120/120/120 124/124/124 122/122/122
f 125/125/125 123/123/123 121/121/121
f 122/122/122 124/124/124 125/125/125
f 124/124/124 123/123/123 125/125/125
