g lever_down
v -0.009074309 0.6904139 0.09158304
v -0.009074309 0.4481052 0.09068299
v -0.087382324 0.44821206 0.045471977
v -0.087382324 0.6905198 0.046372756
v -0.087382324 0.4484241 -0.044950202
v -0.087382324 0.69072986 -0.044048
v -0.009074309 0.44853014 -0.09016041
v -0.009074309 0.69083786 -0.089259624
v -0.009074309 0.69083786 -0.089259624
v -0.009074309 0.44853014 -0.09016041
v 0.06923371 0.4484241 -0.044950202
v 0.06923371 0.69072986 -0.044048
v 0.06923371 0.44821206 0.045471977
v 0.06923371 0.6905198 0.046372756
v -0.009074309 0.4481052 0.09068299
v -0.009074309 0.6904139 0.09158304
v -0.10669873 0.6759205 -0.05563109
v -0.009074309 0.6760511 -0.11199326
v -0.009074309 0.80112505 -0.111558676
v -0.10669873 0.8010037 -0.055194087
v -0.10669873 0.675656 0.05709714
v -0.009074309 0.8548223 -0.13719375
v -0.10669873 0.80076075 0.05753345
v -0.009074309 0.67552435 0.11345997
v -0.009074309 0.80063766 0.11389774
v -0.12907104 0.85467374 -0.06791384
v -0.009074309 0.9266359 -0.15491548
v -0.12907104 0.8543741 0.070646845
v -0.009074309 0.8542235 0.13992818
v -0.14464562 0.9264672 -0.076641805
v -0.00907185 1.0098289 -0.15044098
v -0.14464562 0.92613083 0.07990308
v -0.009074309 0.92596024 0.15817814
v -0.141039 1.0096647 -0.07425191
v -0.00907185 1.0214015 -0.12080273
v -0.11540672 1.0212684 -0.059411205
v -0.141039 1.0093347 0.07813151
v -0.00907185 1.0091715 0.15431808
v -0.11540672 1.0210025 0.06337465
v -0.00907185 1.0208702 0.12476707
v 0.08855257 0.675656 0.05709714
v -0.009074309 0.67552435 0.11345997
v -0.009074309 0.80063766 0.11389774
v 0.08855257 0.80076075 0.05753345
v 0.08855257 0.6759205 -0.05563109
v -0.009074309 0.8542235 0.13992818
v 0.08855257 0.8010037 -0.055194087
v -0.009074309 0.6760511 -0.11199326
v -0.009074309 0.80112505 -0.111558676
v 0.110922426 0.8543741 0.070646845
v -0.009074309 0.92596024 0.15817814
v 0.110922426 0.85467374 -0.06791384
v -0.009074309 0.8548223 -0.13719375
v 0.12649946 0.92613083 0.07990308
v -0.00907185 1.0091715 0.15431808
v 0.12649946 0.9264672 -0.076641805
v -0.009074309 0.9266359 -0.15491548
v 0.12289284 1.0093349 0.07813255
v -0.00907185 1.0208702 0.12476707
v 0.12289284 1.0096647 -0.07425191
v -0.00907185 1.0098289 -0.15044098
v -0.00907185 1.0214015 -0.12080273
v 0.097260565 1.0212691 -0.059410207
v -0.00907185 1.0075823 -0.10077578
v 0.08112791 1.0093131 -0.05013987
v 0.097260565 1.0210025 0.06337465
v 0.0827161 1.0114142 0.054939594
v -0.00907185 1.0120823 0.10855602
v -0.087382324 0.44821206 0.045471977
v -0.009074309 0.4481052 0.09068299
v -0.009074309 0.44040558 0.104185164
v -0.09909706 0.44052872 0.052209985
v -0.009074309 0.00208553 0.10361866
v -0.087382324 0.4484241 -0.044950202
v -0.09909706 0.0022325043 0.051643323
v -0.09909706 0.4407712 -0.051739182
v -0.009074309 0.44853014 -0.09016041
v -0.09909706 0.002524801 -0.0523032
v -0.009074309 0.44089344 -0.10371356
v -0.009074309 0.0026717752 -0.104278535
v 0.06923371 0.4484241 -0.044950202
v -0.009074309 0.44853014 -0.09016041
v -0.009074309 0.44089344 -0.10371356
v 0.08094844 0.4407712 -0.051739182
v -0.009074309 0.0026717752 -0.104278535
v 0.06923371 0.44821206 0.045471977
v 0.08094844 0.002524801 -0.0523032
v 0.08094844 0.44052872 0.052209985
v -0.009074309 0.4481052 0.09068299
v 0.08094844 0.0022325043 0.051643323
v -0.009074309 0.44040558 0.104185164
v -0.009074309 0.00208553 0.10361866
v -0.11540672 1.0210025 0.06337465
v -0.00907185 1.0120823 0.10855602
v -0.00907185 1.0208702 0.12476707
v -0.10086226 1.0114142 0.054939594
v -0.11540672 1.0212684 -0.059411205
v -0.09927653 1.0093131 -0.05013987
v -0.00907185 1.0214015 -0.12080273
v -0.00907185 1.0075823 -0.10077578
v -0.10086226 1.0114142 0.054939594
v -0.09927653 1.0093131 -0.05013987
v -0.08981132 0.9954228 -0.044727836
v -0.00907185 1.0075823 -0.10077578
v -0.08981132 0.995222 0.048500102
v -0.00907185 1.0120823 0.10855602
v -0.00907185 0.9955228 -0.091340035
v -0.009074309 0.9953226 0.0018861325
v 0.0716627 0.9954228 -0.044727836
v 0.08112791 1.0093131 -0.05013987
v 0.0716627 0.9952213 0.048500754
v 0.0827161 1.0114142 0.054939594
v -0.009074309 0.9951215 0.095115766
v -0.009074309 0.67552435 0.11345997
v -0.009074309 0.6756021 0.07980358
v -0.07754834 0.67569613 0.04026647
v -0.10669873 0.675656 0.05709714
v 0.08855257 0.675656 0.05709714
v -0.07754834 0.67588115 -0.03879953
v 0.059402183 0.67569613 0.04026647
v -0.10669873 0.6759205 -0.05563109
v 0.08855257 0.6759205 -0.05563109
v -0.009074309 0.6759729 -0.078333415
v 0.059402183 0.67588115 -0.03879953
v -0.009074309 0.6760511 -0.11199326
vt 0.4798921 0.48619252
vt 0.4798921 0.4609169
vt 0.4759257 0.4609169
vt 0.4759257 0.48619252
vt 0.47195944 0.4609169
vt 0.47195944 0.48619252
vt 0.46799323 0.4609169
vt 0.46799323 0.48619252
vt 0.46799323 0.4861924
vt 0.46799323 0.46091685
vt 0.47195944 0.46091685
vt 0.47195944 0.4861924
vt 0.4759257 0.46091685
vt 0.4759257 0.4861924
vt 0.4798921 0.46091685
vt 0.4798921 0.4861924
vt 0.43374956 0.46112666
vt 0.42740005 0.46112666
vt 0.42740005 0.46265784
vt 0.43374956 0.46265784
vt 0.44009882 0.46112666
vt 0.42740005 0.47413382
vt 0.44009882 0.46265784
vt 0.44650006 0.46112666
vt 0.44650006 0.46265784
vt 0.43374956 0.47413382
vt 0.42740005 0.47857657
vt 0.44009882 0.47413382
vt 0.44650006 0.47413382
vt 0.43374956 0.47857657
vt 0.42740005 0.4825478
vt 0.44009882 0.47857657
vt 0.44650006 0.47857657
vt 0.43374956 0.4825478
vt 0.42740005 0.48464504
vt 0.43374956 0.48464504
vt 0.44009882 0.4825478
vt 0.44650006 0.4825478
vt 0.44009882 0.48464504
vt 0.44650006 0.48464504
vt 0.44008875 0.46112666
vt 0.44650006 0.46112666
vt 0.44650006 0.46265784
vt 0.44008875 0.46265784
vt 0.4337395 0.46112666
vt 0.44650006 0.47413382
vt 0.4337395 0.46265784
vt 0.42740005 0.46112666
vt 0.42740005 0.46265784
vt 0.44008875 0.47413382
vt 0.44650006 0.47857657
vt 0.4337395 0.47413382
vt 0.42740005 0.47413382
vt 0.44008875 0.47857657
vt 0.44650006 0.4825478
vt 0.4337395 0.47857657
vt 0.42740005 0.47857657
vt 0.44008875 0.4825478
vt 0.44650006 0.48464504
vt 0.4337395 0.4825478
vt 0.42740005 0.4825478
vt 0.42740005 0.48464504
vt 0.4337395 0.48464504
vt 0.42740005 0.48633784
vt 0.4337395 0.48633784
vt 0.44008875 0.48464504
vt 0.44008875 0.48633784
vt 0.44650006 0.48633784
vt 0.45468256 0.47072056
vt 0.44982132 0.47072056
vt 0.44982132 0.46996716
vt 0.45468256 0.46996716
vt 0.44982132 0.46026477
vt 0.4596683 0.47072056
vt 0.45468256 0.46026477
vt 0.4596683 0.46996716
vt 0.4645352 0.47072056
vt 0.4596683 0.46026477
vt 0.4645352 0.46996716
vt 0.4645352 0.46026477
vt 0.45468256 0.47072056
vt 0.44982132 0.47072056
vt 0.44982132 0.46996716
vt 0.45468256 0.46996716
vt 0.44982132 0.46026477
vt 0.4596683 0.47072056
vt 0.45468256 0.46026477
vt 0.4596683 0.46996716
vt 0.4645352 0.47072056
vt 0.4596683 0.46026477
vt 0.4645352 0.46996716
vt 0.4645352 0.46026477
vt 0.4337395 0.4853533
vt 0.42740425 0.48633784
vt 0.42740005 0.4853533
vt 0.43374264 0.48633784
vt 0.44008875 0.4853533
vt 0.44007948 0.48633784
vt 0.44650006 0.4853533
vt 0.44652134 0.48633784
vt 0.4540865 0.4719589
vt 0.4618564 0.47197416
vt 0.46086046 0.4730269
vt 0.4649627 0.47870347
vt 0.45486948 0.47299734
vt 0.4508423 0.4787006
vt 0.46283218 0.4782156
vt 0.45785633 0.47820774
vt 0.46084324 0.48341802
vt 0.46187815 0.48544496
vt 0.45485225 0.48338845
vt 0.4541082 0.4854297
vt 0.4527093 0.47819975
vt 0.44650006 0.46112666
vt 0.44650006 0.46112666
vt 0.44009882 0.46112666
vt 0.44009882 0.46112666
vt 0.44008875 0.46112666
vt 0.43374956 0.46112666
vt 0.44008875 0.46112666
vt 0.43374956 0.46112666
vt 0.4337395 0.46112666
vt 0.42740005 0.46112666
vt 0.4337395 0.46112666
vt 0.42740005 0.46112666
vn -0 -0.003715961 0.9999931
vn -0 0.5866343 0.80985206
vn -0.70001143 0.5879017 0.4054078
vn -0.865833 -0.0018592186 0.5003298
vn -0.6994987 0.5904373 -0.4025983
vn -0.86621493 0.0018589923 -0.49966824
vn -0 0.5917077 -0.8061525
vn -0 0.0037204283 -0.9999931
vn -0 0.0037204283 -0.9999931
vn -0 0.5917077 -0.8061525
vn 0.6994987 0.59043735 -0.40259832
vn 0.86621493 0.0018589923 -0.49966824
vn 0.7000115 0.5879017 0.4054078
vn 0.865833 -0.0018592186 0.5003298
vn -0 0.5866343 0.80985206
vn -0 -0.003715961 0.9999931
vn -0.8658659 0.0017430366 -0.50027335
vn -5.4570455E-06 0.0034841467 -0.9999939
vn -3.5772E-06 -0.23620212 -0.9717039
vn -0.84090436 -0.2379216 -0.48607937
vn -0.86618346 -0.0017456857 0.49972308
vn -1.9254257E-06 -0.32700774 -0.94502157
vn -0.8406806 -0.24135478 0.48477197
vn -5.4311217E-06 -0.0034932806 0.9999939
vn -3.5560595E-06 -0.243066 0.9700097
vn -0.8175568 -0.32863727 -0.472862
vn -5.8798905E-06 -0.089767486 -0.9959628
vn -0.81730664 -0.3319031 0.47100973
vn -1.9360386E-06 -0.33354115 0.94273555
vn -0.86228323 -0.091544256 -0.49808362
vn 7.2890075E-06 0.5159337 -0.85662854
vn -0.8622124 -0.09510731 0.49753815
vn -6.6545945E-06 -0.09689984 0.99529415
vn -0.7431423 0.51465577 -0.42763186
vn -4.1759222E-07 0.99896526 -0.045480214
vn -0.048660304 0.99854076 -0.023418553
vn -0.7432368 0.5120884 0.43053988
vn 4.4179606E-06 0.510812 0.85969245
vn -0.058262665 0.9975629 0.03839159
vn -1.7774308E-06 0.9970222 0.07711393
vn 0.8661807 -0.0017456976 0.4997278
vn -5.4311217E-06 -0.0034932806 0.9999939
vn -3.5560595E-06 -0.243066 0.9700097
vn 0.84068406 -0.24134013 0.48477337
vn 0.8658631 0.0017430527 -0.50027806
vn -1.9360386E-06 -0.33354115 0.94273555
vn 0.84090775 -0.23790696 -0.48608074
vn -5.4570455E-06 0.0034841467 -0.9999939
vn -3.5772E-06 -0.23620212 -0.9717039
vn 0.8173027 -0.33190423 0.47101584
vn -6.6545945E-06 -0.09689984 0.99529415
vn 0.81755275 -0.32863832 -0.47286823
vn -1.9254257E-06 -0.32700774 -0.94502157
vn 0.8622122 -0.09512387 0.49753556
vn 4.4179606E-06 0.510812 0.85969245
vn 0.8622826 -0.09155933 -0.49808207
vn -5.8798905E-06 -0.089767486 -0.9959628
vn 0.743237 0.51208395 0.43054473
vn -1.7774308E-06 0.9970222 0.07711393
vn 0.7431441 0.5146506 -0.4276351
vn 7.2890075E-06 0.5159337 -0.85662854
vn -4.1759222E-07 0.99896526 -0.045480214
vn 0.048660748 0.99854064 -0.023422766
vn -9.276865E-06 0.7587249 0.6514111
vn -0.5518733 0.7687785 0.3231339
vn 0.05826628 0.99756277 0.038387842
vn -0.5365539 0.7869022 -0.30478653
vn -1.2641705E-05 0.79522085 -0.60631984
vn -0.70001143 0.5879017 0.4054078
vn -0 0.5866343 0.80985206
vn -0 0.44237906 0.8968282
vn -0.7759636 0.44324338 0.44879377
vn -0 -0.0012926698 0.99999917
vn -0.6994987 0.5904373 -0.4025983
vn -0.8658167 -0.00064680184 0.50036085
vn -0.77591586 0.44495526 -0.44717944
vn -0 0.5917077 -0.8061525
vn -0.8662369 0.0006435821 -0.4996331
vn -0 0.44581583 -0.8951247
vn -0 0.0012881082 -0.99999917
vn 0.6994987 0.59043735 -0.40259832
vn -0 0.5917077 -0.8061525
vn -0 0.44581583 -0.8951247
vn 0.77591586 0.44495523 -0.44717938
vn -0 0.0012881082 -0.99999917
vn 0.7000115 0.5879017 0.4054078
vn 0.8662369 0.00064358214 -0.4996331
vn 0.7759636 0.44324338 0.44879377
vn -0 0.5866343 0.80985206
vn 0.8658167 -0.00064680184 0.50036085
vn -0 0.44237906 0.8968282
vn -0 -0.0012926698 0.99999917
vn -0.058262665 0.9975629 0.03839159
vn -1.2641705E-05 0.79522085 -0.60631984
vn -1.7774308E-06 0.9970222 0.07711393
vn 0.5365657 0.78688484 -0.30481046
vn -0.048660304 0.99854076 -0.023418553
vn 0.55188257 0.76877546 0.32312524
vn -4.1759222E-07 0.99896526 -0.045480214
vn -9.276865E-06 0.7587249 0.6514111
vn 0.5365657 0.78688484 -0.30481046
vn 0.55188257 0.76877546 0.32312524
vn 0.4666295 0.84174013 0.2715334
vn -9.276865E-06 0.7587249 0.6514111
vn 0.4665047 0.8431833 -0.2672366
vn -1.2641705E-05 0.79522085 -0.60631984
vn -7.906918E-06 0.8410143 0.5410128
vn 1.898814E-06 0.99999774 0.0021541584
vn -0.46661904 0.84174734 0.2715293
vn -0.5518733 0.7687785 0.3231339
vn -0.4664756 0.8432016 -0.26722947
vn -0.5365539 0.7869022 -0.30478653
vn 2.4158071E-05 0.843906 -0.5364911
vn -8.385979E-06 -0.99999726 -0.0023391794
vn -8.385978E-06 -0.99999726 -0.0023391792
vn -8.385977E-06 -0.99999726 -0.002339179
vn -8.385979E-06 -0.99999726 -0.0023391794
vn -1.321337E-05 -0.99999726 -0.002343358
vn 1.3213369E-05 -0.99999726 -0.0023433585
vn -1.3213368E-05 -0.99999726 -0.002343358
vn 1.3213369E-05 -0.99999726 -0.0023433585
vn 4.1144617E-06 -0.9999974 -0.0023256752
vn -4.1145527E-06 -0.9999974 -0.0023256755
vn 4.1144617E-06 -0.9999974 -0.0023256752
vn -4.114553E-06 -0.9999974 -0.0023256752
g lever_down_0
f 3/3/3 2/2/2 1/1/1
f 4/4/4 3/3/3 1/1/1
f 5/5/5 3/3/3 4/4/4
f 6/6/6 5/5/5 4/4/4
f 7/7/7 5/5/5 6/6/6
f 8/8/8 7/7/7 6/6/6
f 11/11/11 10/10/10 9/9/9
f 12/12/12 11/11/11 9/9/9
f 13/13/13 11/11/11 12/12/12
f 14/14/14 13/13/13 12/12/12
f 15/15/15 13/13/13 14/14/14
f 16/16/16 15/15/15 14/14/14
f 19/19/19 18/18/18 17/17/17
f 20/20/20 19/19/19 17/17/17
f 20/20/20 17/17/17 21/21/21
f 22/22/22 19/19/19 20/20/20
f 23/23/23 20/20/20 21/21/21
f 23/23/23 21/21/21 24/24/24
f 25/25/25 23/23/23 24/24/24
f 26/26/26 22/22/22 20/20/20
f 26/26/26 20/20/20 23/23/23
f 27/27/27 22/22/22 26/26/26
f 28/28/28 23/23/23 25/25/25
f 28/28/28 26/26/26 23/23/23
f 29/29/29 28/28/28 25/25/25
f 30/30/30 27/27/27 26/26/26
f 30/30/30 26/26/26 28/28/28
f 31/31/31 27/27/27 30/30/30
f 32/32/32 28/28/28 29/29/29
f 32/32/32 30/30/30 28/28/28
f 33/33/33 32/32/32 29/29/29
f 34/34/34 31/31/31 30/30/30
f 34/34/34 30/30/30 32/32/32
f 35/35/35 31/31/31 34/34/34
f 36/36/36 35/35/35 34/34/34
f 37/37/37 32/32/32 33/33/33
f 37/37/37 34/34/34 32/32/32
f 36/36/36 34/34/34 37/37/37
f 38/38/38 37/37/37 33/33/33
f 39/39/39 36/36/36 37/37/37
f 37/37/37 38/38/38 40/40/40
f 39/39/39 37/37/37 40/40/40
f 43/43/43 42/42/42 41/41/41
f 44/44/44 43/43/43 41/41/41
f 44/44/44 41/41/41 45/45/45
f 46/46/46 43/43/43 44/44/44
f 47/47/47 44/44/44 45/45/45
f 47/47/47 45/45/45 48/48/48
f 49/49/49 47/47/47 48/48/48
f 50/50/50 46/46/46 44/44/44
f 50/50/50 44/44/44 47/47/47
f 51/51/51 46/46/46 50/50/50
f 52/52/52 47/47/47 49/49/49
f 52/52/52 50/50/50 47/47/47
f 53/53/53 52/52/52 49/49/49
f 54/54/54 51/51/51 50/50/50
f 54/54/54 50/50/50 52/52/52
f 55/55/55 51/51/51 54/54/54
f 56/56/56 52/52/52 53/53/53
f 56/56/56 54/54/54 52/52/52
f 57/57/57 56/56/56 53/53/53
f 58/58/58 55/55/55 54/54/54
f 58/58/58 54/54/54 56/56/56
f 59/59/59 55/55/55 58/58/58
f 60/60/60 56/56/56 57/57/57
f 60/60/60 58/58/58 56/56/56
f 61/61/61 60/60/60 57/57/57
f 60/60/60 61/61/61 62/62/62
f 63/63/63 60/60/60 62/62/62
f 58/58/58 60/60/60 63/63/63
f 62/62/62 64/64/64 63/63/63
f 64/64/64 65/65/65 63/63/63
f 66/66/66 58/58/58 63/63/63
f 63/63/63 65/65/65 66/66/66
f 66/66/66 59/59/59 58/58/58
f 65/65/65 67/67/67 66/66/66
f 66/66/66 67/67/67 59/59/59
f 67/67/67 68/68/68 59/59/59
f 71/71/71 70/70/70 69/69/69
f 72/72/72 71/71/71 69/69/69
f 73/73/73 71/71/71 72/72/72
f 72/72/72 69/69/69 74/74/74
f 75/75/75 73/73/73 72/72/72
f 76/76/76 72/72/72 74/74/74
f 75/75/75 72/72/72 76/76/76
f 76/76/76 74/74/74 77/77/77
f 78/78/78 75/75/75 76/76/76
f 79/79/79 76/76/76 77/77/77
f 78/78/78 76/76/76 79/79/79
f 80/80/80 78/78/78 79/79/79
f 83/83/83 82/82/82 81/81/81
f 84/84/84 83/83/83 81/81/81
f 85/85/85 83/83/83 84/84/84
f 84/84/84 81/81/81 86/86/86
f 87/87/87 85/85/85 84/84/84
f 88/88/88 84/84/84 86/86/86
f 87/87/87 84/84/84 88/88/88
f 88/88/88 86/86/86 89/89/89
f 90/90/90 87/87/87 88/88/88
f 91/91/91 88/88/88 89/89/89
f 90/90/90 88/88/88 91/91/91
f 92/92/92 90/90/90 91/91/91
f 95/95/95 94/94/94 93/93/93
f 94/94/94 96/96/96 93/93/93
f 93/93/93 96/96/96 97/97/97
f 96/96/96 98/98/98 97/97/97
f 97/97/97 98/98/98 99/99/99
f 98/98/98 100/100/100 99/99/99
f 103/103/103 102/102/102 101/101/101
f 104/104/104 102/102/102 103/103/103
f 105/105/105 103/103/103 101/101/101
f 105/105/105 101/101/101 106/106/106
f 107/107/107 104/104/104 103/103/103
f 108/108/108 103/103/103 105/105/105
f 108/108/108 107/107/107 103/103/103
f 107/107/107 109/109/109 104/104/104
f 108/108/108 109/109/109 107/107/107
f 109/109/109 110/110/110 104/104/104
f 109/109/109 111/111/111 110/110/110
f 108/108/108 111/111/111 109/109/109
f 111/111/111 112/112/112 110/110/110
f 106/106/106 112/112/112 111/111/111
f 113/113/113 105/105/105 106/106/106
f 108/108/108 105/105/105 113/113/113
f 113/113/113 106/106/106 111/111/111
f 108/108/108 113/113/113 111/111/111
f 116/116/116 115/115/115 114/114/114
f 117/117/117 116/116/116 114/114/114
f 114/114/114 115/115/115 118/118/118
f 119/119/119 116/116/116 117/117/117
f 115/115/115 120/120/120 118/118/118
f 121/121/121 119/119/119 117/117/117
f 118/118/118 120/120/120 122/122/122
f 123/123/123 119/119/119 121/121/121
f 120/120/120 124/124/124 122/122/122
f 125/125/125 123/123/123 121/121/121
f 122/122/122 124/124/124 125/125/125
f 124/124/124 123/123/123 125/125/125
