g long_spear2
v -0.14850065 0.50186735 0.5734657
v -0.3504718 1.3750309 0.80500466
v -0.46281067 1.3845892 0.69330424
v -0.30255935 0.51563776 0.42062506
v -0.5718363 1.3366724 0.79846644
v -0.45210284 0.44972837 0.56459355
v -0.49218673 1.564513 0.64005136
v -0.3504718 1.3750309 0.80500466
v -0.28179157 1.5454773 0.8496673
v -0.5718363 1.3366724 0.79846644
v -0.57869595 2.0159242 0.9742925
v -0.69603527 1.4738066 0.83717906
v -0.46083003 1.342408 0.9200816
v -0.5718363 1.3366724 0.79846644
v -0.69603527 1.4738066 0.83717906
v -0.4900695 1.4962302 1.0596149
v -0.57869595 2.0159242 0.9742925
v -0.28179157 1.5454773 0.8496673
v -0.3504718 1.3750309 0.80500466
v -0.3504718 1.3750309 0.80500466
v -0.14850065 0.50186735 0.5734657
v -0.29940054 0.4553603 0.7306432
v -0.5718363 1.3366724 0.79846644
v -0.45210284 0.44972837 0.56459355
v -0.33791006 -0.82653594 0.19545904
v -0.11224387 -0.72725564 -0.020211572
v -0.45210284 0.44972837 0.56459355
v -0.10764817 -0.81653154 0.45020851
v -0.30255935 0.51563776 0.42062506
v -0.29940054 0.4553603 0.7306432
v 0.12119364 -0.74817264 0.20895702
v -0.14850065 0.50186735 0.5734657
vt 0.43289122 0.51841336
vt 0.43289122 0.5692209
vt 0.4281907 0.5692209
vt 0.4281907 0.51841336
vt 0.42349032 0.569221
vt 0.42349032 0.51841336
vt 0.4281907 0.5888249
vt 0.43658447 0.5692209
vt 0.43658447 0.5888249
vt 0.41979706 0.569221
vt 0.4281907 0.6084135
vt 0.41979706 0.5888249
vt 0.4281907 0.5692209
vt 0.41979706 0.569221
vt 0.41979706 0.5888249
vt 0.4281907 0.5888249
vt 0.4281907 0.6084135
vt 0.43658447 0.5888249
vt 0.43658447 0.5692209
vt 0.43289122 0.5692209
vt 0.43289122 0.51841336
vt 0.4281907 0.51841336
vt 0.42349032 0.569221
vt 0.42349032 0.51841336
vt 0.41979706 0.50147754
vt 0.4281907 0.5014775
vt 0.41979706 0.50147754
vt 0.4281907 0.5014775
vt 0.4281907 0.5014775
vt 0.4281907 0.5014775
vt 0.43658447 0.5014775
vt 0.43658447 0.5014775
vn 0.97728556 0.21021947 0.02684667
vn 0.9953139 -0.088802144 -0.038267974
vn 0.0341586 -0.026349856 -0.99906904
vn -0.018590454 0.31477517 -0.94898415
vn -0.9029006 -0.4207454 -0.08799964
vn -0.99426866 -0.10515025 -0.01932074
vn -0.0031109452 0.18742725 -0.9822735
vn 0.9953139 -0.088802144 -0.038267974
vn 0.9958125 0.09111397 0.007464479
vn -0.9029006 -0.4207454 -0.08799964
vn -0.1705871 0.95653 0.23653851
vn -0.9680005 -0.24679081 -0.045489185
vn 0.066096246 -0.5043826 0.86094683
vn -0.9029006 -0.4207454 -0.08799964
vn -0.9680005 -0.24679081 -0.045489185
vn 0.022678828 -0.25490546 0.9667
vn -0.1705871 0.95653 0.23653851
vn 0.9958125 0.09111397 0.007464479
vn 0.9953139 -0.088802144 -0.038267974
vn 0.9953139 -0.088802144 -0.038267974
vn 0.97728556 0.21021947 0.02684667
vn 0.020411953 -0.2091255 0.9776757
vn -0.9029006 -0.4207454 -0.08799964
vn -0.99426866 -0.10515025 -0.01932074
vn -0.99558663 -0.071097024 -0.06125736
vn -0.03966229 0.3291549 -0.94344264
vn -0.99426866 -0.10515025 -0.01932074
vn 0.0026201692 -0.21588853 0.97641444
vn -0.018590454 0.31477517 -0.94898415
vn 0.020411953 -0.2091255 0.9776757
vn 0.97598594 0.21679588 -0.021236364
vn 0.97728556 0.21021947 0.02684667
g long_spear2_0
f 3/3/3 2/2/2 1/1/1
f 1/1/1 4/4/4 3/3/3
f 4/4/4 5/5/5 3/3/3
f 5/5/5 4/4/4 6/6/6
f 8/8/8 3/3/3 7/7/7
f 7/7/7 9/9/9 8/8/8
f 7/7/7 3/3/3 10/10/10
f 9/9/9 7/7/7 11/11/11
f 7/7/7 10/10/10 12/12/12
f 12/12/12 11/11/11 7/7/7
f 15/15/15 14/14/14 13/13/13
f 15/15/15 13/13/13 16/16/16
f 16/16/16 17/17/17 15/15/15
f 16/16/16 18/18/18 17/17/17
f 13/13/13 18/18/18 16/16/16
f 19/19/19 18/18/18 13/13/13
f 21/21/21 20/20/20 13/13/13
f 13/13/13 22/22/22 21/21/21
f 22/22/22 13/13/13 23/23/23
f 23/23/23 24/24/24 22/22/22
f 27/27/27 26/26/26 25/25/25
f 27/27/27 25/25/25 28/28/28
f 26/26/26 27/27/27 29/29/29
f 28/28/28 30/30/30 27/27/27
f 31/31/31 26/26/26 29/29/29
f 30/30/30 28/28/28 31/31/31
f 31/31/31 29/29/29 32/32/32
f 31/31/31 32/32/32 30/30/30
