g magicsprout_2
v 0.012664981 0.49483275 -0.04124796
v -0.0015131467 0.4497731 0.0076517533
v -0.0015132716 0.44739223 -0.0018800703
v 0.020413095 0.49487785 -0.0036147872
v -0.0015133196 0.45215407 0.017183516
v 0.0126649905 0.51253444 0.02961933
v 0.04726592 0.58370626 0.045009088
v 0.05501392 0.5579043 -0.019357882
v 0.04726579 0.5504082 -0.08829744
v 0.109758146 0.6002547 -0.029936412
v 0.10201014 0.63224834 0.056136392
v 0.18087307 0.6084079 -0.031972967
v 0.102010176 0.5880164 -0.120943755
v 0.17312504 0.64231735 0.05639862
v 0.17312501 0.596779 -0.12590978
v 0.24951208 0.61091805 0.0504943
v 0.24951221 0.5718445 -0.10593399
v 0.24951208 0.5913811 -0.027719839
v 0.30129114 0.5629746 0.023506192
v 0.30129114 0.54222304 -0.059571464
v 0.31699666 0.53769714 -0.014310395
v -0.027831327 0.51029 0.026125332
v 0.0015414866 0.46341148 0.0040615997
v 0.0015415058 0.4655583 0.0126562
v -0.02782668 0.4905386 -0.0028843111
v 0.0015415347 0.46126467 -0.00453297
v -0.027823713 0.49432802 -0.0377736
v -0.07505791 0.5193314 -0.07368434
v -0.07516957 0.5226085 -0.010657468
v -0.075304486 0.5493715 0.046507556
v -0.12984379 0.5295259 -0.0127139585
v -0.12907167 0.521168 -0.09541947
v -0.18485378 0.5146822 -0.011061066
v -0.13067698 0.5612347 0.06416389
v -0.1827821 0.505312 -0.09595409
v -0.18723455 0.54738635 0.067956395
v -0.22889459 0.47999132 -0.08055846
v -0.23542307 0.5175312 0.059412967
v -0.23215207 0.49874353 -0.01056455
v -0.25356215 0.46381453 -0.043667357
v -0.25765207 0.48425415 0.030435761
v -0.2607346 0.46517718 -0.0049144863
v 0.003205262 0.4657851 0.018407386
v -0.01863582 0.4657851 -0.0034338033
v 0.003205305 0.46578494 -0.025275014
v 0.025046337 0.4657851 -0.0034338033
v -0.05698599 0.16363335 -0.031909157
v -0.00033261604 0.09089367 0.017788367
v -0.05952191 0.09089372 -0.041400973
v -0.011203537 0.16363332 0.013873346
v 0.058856603 0.09089376 -0.041400973
v -0.04885118 0.26435056 -0.022417447
v 0.03457889 0.16363327 -0.0319092
v -0.015492937 0.26435062 0.010940713
v -0.037745316 0.36506784 -0.012925597
v 0.017865056 0.2643508 -0.022417374
v -0.010952997 0.36506784 0.013866936
v -0.01863582 0.4657851 -0.0034338033
v 0.015839571 0.36506787 -0.012925585
v 0.003205262 0.4657851 0.018407386
v 0.025046337 0.4657851 -0.0034338033
v -0.037745316 0.36506784 -0.012925597
v 0.003205305 0.46578494 -0.025275014
v -0.01863582 0.4657851 -0.0034338033
v -0.010952842 0.36506784 -0.039718147
v 0.025046337 0.4657851 -0.0034338033
v -0.04885118 0.26435056 -0.022417447
v 0.015839571 0.36506787 -0.012925585
v -0.0154929105 0.26435062 -0.055775482
v -0.05698599 0.16363335 -0.031909157
v 0.017865056 0.2643508 -0.022417374
v -0.011203627 0.16363333 -0.07769174
v -0.05952191 0.09089372 -0.041400973
v 0.03457889 0.16363327 -0.0319092
v -0.00033261604 0.09089369 -0.1005903
v 0.058856603 0.09089376 -0.041400973
v 0.056110255 0.10165427 -0.067677565
v 0.22399396 2.7503134E-07 -0.22597505
v 0.30267775 2.2992201E-07 0.0019919677
v 0.07918539 0.10165427 0.0019919195
v -0.013559835 0.10165426 0.0019919123
v -0.013559374 0.10165427 -0.109033
v 0.05610995 0.1016543 0.071661405
v 0.22399396 1.8961445E-07 0.22995892
v -0.013559298 1.6174307E-07 0.32874805
v -0.10630622 0.10165427 0.001991905
v -0.083229154 0.10165427 -0.06767755
v -0.013559374 0.10165427 0.11301681
v -0.083229154 0.10165426 0.07166137
v -0.25111324 1.8961448E-07 0.22995877
v 0.056110255 0.10165427 -0.067677565
v -0.013559298 3.0290275E-07 -0.32476425
v 0.22399396 2.7503134E-07 -0.22597505
v -0.013559374 0.10165427 -0.109033
v -0.083229154 0.10165427 -0.06767755
v -0.25111324 2.7503134E-07 -0.22597505
v -0.32979712 2.2992205E-07 0.0019918643
v -0.10630622 0.10165427 0.001991905
v -0.083229154 0.10165426 0.07166137
v -0.25111324 1.8961448E-07 0.22995877
vt 0.73682225 0.85368174
vt 0.739953 0.8513789
vt 0.73910624 0.8513789
vt 0.739953 0.85368174
vt 0.74079055 0.8513789
vt 0.7430835 0.85368174
vt 0.74584156 0.8572866
vt 0.739953 0.8572866
vt 0.73406357 0.8572866
vt 0.739953 0.86168414
vt 0.7477753 0.86168414
vt 0.739953 0.8664143
vt 0.7321296 0.86168414
vt 0.7480062 0.8664143
vt 0.7318986 0.8664143
vt 0.7468631 0.8706544
vt 0.73304206 0.8706544
vt 0.739953 0.8706544
vt 0.7436227 0.87337583
vt 0.7362826 0.87337583
vt 0.739953 0.8741651
vt 0.7430835 0.85368174
vt 0.739953 0.8513789
vt 0.7407999 0.8513789
vt 0.739953 0.85368174
vt 0.7391154 0.8513789
vt 0.73682225 0.85368174
vt 0.73406357 0.8572866
vt 0.739953 0.8572866
vt 0.74584156 0.8572866
vt 0.739953 0.86168414
vt 0.7321296 0.86168414
vt 0.739953 0.8664143
vt 0.7477753 0.86168414
vt 0.7318986 0.8664143
vt 0.7480062 0.8664143
vt 0.73304206 0.8706544
vt 0.7468631 0.8706544
vt 0.739953 0.8706544
vt 0.7362826 0.87337583
vt 0.7436227 0.87337583
vt 0.739953 0.8741651
vt 0.7389334 0.85101104
vt 0.7389334 0.8512433
vt 0.7410457 0.8512433
vt 0.7410457 0.85101104
vt 0.72322494 0.8118883
vt 0.7249953 0.806159
vt 0.72322494 0.806159
vt 0.7249953 0.8118883
vt 0.7267657 0.806159
vt 0.72322494 0.8176175
vt 0.7267657 0.8118883
vt 0.7249953 0.8176175
vt 0.72322494 0.8233469
vt 0.7267657 0.8176175
vt 0.7249953 0.8233469
vt 0.72322494 0.82907605
vt 0.7267657 0.8233469
vt 0.7249953 0.82907605
vt 0.7267657 0.82907605
vt 0.72322494 0.8233469
vt 0.7249953 0.82907605
vt 0.72322494 0.82907605
vt 0.7249953 0.8233469
vt 0.7267657 0.82907605
vt 0.72322494 0.8176175
vt 0.7267657 0.8233469
vt 0.7249953 0.8176175
vt 0.72322494 0.8118883
vt 0.7267657 0.8176175
vt 0.7249953 0.8118883
vt 0.72322494 0.806159
vt 0.7267657 0.8118883
vt 0.7249953 0.806159
vt 0.7267657 0.806159
vt 0.9733687 0.70522106
vt 0.95932984 0.6913658
vt 0.95932984 0.7092509
vt 0.97336876 0.70925105
vt 0.97745246 0.70925117
vt 0.9774523 0.70522106
vt 0.9733689 0.713281
vt 0.95932984 0.72713614
vt 0.9774521 0.72713614
vt 0.9815361 0.7092513
vt 0.9815359 0.70522106
vt 0.9774526 0.7132812
vt 0.9815363 0.71328145
vt 0.9955744 0.72713614
vt 0.97336906 0.7052214
vt 0.9774521 0.6913658
vt 0.95932984 0.6913658
vt 0.97745246 0.70522124
vt 0.9815359 0.70522106
vt 0.9955744 0.6913658
vt 0.9955744 0.7092509
vt 0.9815359 0.7092511
vt 0.981536 0.71328115
vt 0.9955744 0.72713614
vn -0 1 -0.00015892759
vn -0 1 -0.00015892759
vn -0 1 -0.00015892759
vn -0 1 -0.00015892759
vn -0 1 -0.00015892759
vn -0 1 -0.00015892759
vn -0 1 -0.00015892759
vn -0 1 -0.00015892759
vn -0 1 -0.00015892759
vn -0 1 -0.00015892759
vn -0 1 -0.00015892759
vn -0 1 -0.00015892759
vn -0 1 -0.00015892759
vn -0 1 -0.00015892759
vn -0 1 -0.00015892759
vn -0 1 -0.00015892759
vn -0 1 -0.00015892759
vn -0 1 -0.00015892759
vn -0 1 -0.00015892759
vn -0 1 -0.00015892759
vn -0 1 -0.00015892759
vn -0 1 -0.00015892759
vn -0 1 -0.00015892759
vn -0 1 -0.00015892759
vn -0 1 -0.00015892759
vn -0 1 -0.00015892759
vn -0 1 -0.00015892759
vn -0 1 -0.00015892759
vn -0 1 -0.00015892759
vn -0 1 -0.00015892759
vn -0 1 -0.00015892759
vn -0 1 -0.00015892759
vn -0 1 -0.00015892759
vn -0 1 -0.00015892759
vn -0 1 -0.00015892759
vn -0 1 -0.00015892759
vn -0 1 -0.00015892759
vn -0 1 -0.00015892759
vn -0 1 -0.00015892759
vn -0 1 -0.00015892759
vn -0 1 -0.00015892759
vn -0 1 -0.00015892759
vn -0 1 -0.00015892759
vn -0 1 -0.00015892759
vn -0 1 -0.00015892759
vn -0 1 -0.00015892759
vn -0 1 -0.00015892759
vn -0 1 -0.00015892759
vn -0 1 -0.00015892759
vn -0 1 -0.00015892759
vn -0 1 -0.00015892759
vn -0 1 -0.00015892759
vn -0 1 -0.00015892759
vn -0 1 -0.00015892759
vn -0 1 -0.00015892759
vn -0 1 -0.00015892759
vn -0 1 -0.00015892759
vn -0 1 -0.00015892759
vn -0 1 -0.00015892759
vn -0 1 -0.00015892759
vn -0 1 -0.00015892759
vn -0 1 -0.00015892759
vn -0 1 -0.00015892759
vn -0 1 -0.00015892759
vn -0 1 -0.00015892759
vn -0 1 -0.00015892759
vn -0 1 -0.00015892759
vn -0 1 -0.00015892759
vn -0 1 -0.00015892759
vn -0 1 -0.00015892759
vn -0 1 -0.00015892759
vn -0 1 -0.00015892759
vn -0 1 -0.00015892759
vn -0 1 -0.00015892759
vn -0 1 -0.00015892759
vn -0 1 -0.00015892759
vn -0 1 -0.00015892759
vn -0 1 -0.00015892759
vn -0 1 -0.00015892759
vn -0 1 -0.00015892759
vn -0 1 -0.00015892759
vn -0 1 -0.00015892759
vn -0 1 -0.00015892759
vn -0 1 -0.00015892759
vn -0 1 -0.00015892759
vn -0 1 -0.00015892759
vn -0 1 -0.00015892759
vn -0 1 -0.00015892759
vn -0 1 -0.00015892759
vn -0 1 -0.00015892759
vn -0 1 -0.00015892759
vn -0 1 -0.00015892759
vn -0 1 -0.00015892759
vn -0 1 -0.00015892759
vn -0 1 -0.00015892759
vn -0 1 -0.00015892759
vn -0 1 -0.00015892759
vn -0 1 -0.00015892759
vn -0 1 -0.00015892759
vn -0 1 -0.00015892759
g magicsprout_2_0
f 3/3/3 2/2/2 1/1/1
f 2/2/2 4/4/4 1/1/1
f 2/2/2 5/5/5 4/4/4
f 5/5/5 6/6/6 4/4/4
f 4/4/4 6/6/6 7/7/7
f 1/1/1 4/4/4 8/8/8
f 8/8/8 4/4/4 7/7/7
f 9/9/9 1/1/1 8/8/8
f 8/8/8 7/7/7 10/10/10
f 9/9/9 8/8/8 10/10/10
f 7/7/7 11/11/11 10/10/10
f 10/10/10 11/11/11 12/12/12
f 13/13/13 9/9/9 10/10/10
f 13/13/13 10/10/10 12/12/12
f 11/11/11 14/14/14 12/12/12
f 15/15/15 13/13/13 12/12/12
f 12/12/12 14/14/14 16/16/16
f 15/15/15 12/12/12 17/17/17
f 18/18/18 12/12/12 16/16/16
f 12/12/12 18/18/18 17/17/17
f 18/18/18 16/16/16 19/19/19
f 17/17/17 18/18/18 20/20/20
f 21/21/21 18/18/18 19/19/19
f 18/18/18 21/21/21 20/20/20
f 24/24/24 23/23/23 22/22/22
f 23/23/23 25/25/25 22/22/22
f 23/23/23 26/26/26 25/25/25
f 26/26/26 27/27/27 25/25/25
f 25/25/25 27/27/27 28/28/28
f 22/22/22 25/25/25 29/29/29
f 29/29/29 25/25/25 28/28/28
f 30/30/30 22/22/22 29/29/29
f 29/29/29 28/28/28 31/31/31
f 30/30/30 29/29/29 31/31/31
f 28/28/28 32/32/32 31/31/31
f 31/31/31 32/32/32 33/33/33
f 34/34/34 30/30/30 31/31/31
f 34/34/34 31/31/31 33/33/33
f 32/32/32 35/35/35 33/33/33
f 36/36/36 34/34/34 33/33/33
f 33/33/33 35/35/35 37/37/37
f 36/36/36 33/33/33 38/38/38
f 39/39/39 33/33/33 37/37/37
f 33/33/33 39/39/39 38/38/38
f 39/39/39 37/37/37 40/40/40
f 38/38/38 39/39/39 41/41/41
f 42/42/42 39/39/39 40/40/40
f 39/39/39 42/42/42 41/41/41
f 45/45/45 44/44/44 43/43/43
f 46/46/46 45/45/45 43/43/43
f 49/49/49 48/48/48 47/47/47
f 48/48/48 50/50/50 47/47/47
f 48/48/48 51/51/51 50/50/50
f 52/52/52 47/47/47 50/50/50
f 51/51/51 53/53/53 50/50/50
f 54/54/54 52/52/52 50/50/50
f 54/54/54 50/50/50 53/53/53
f 55/55/55 52/52/52 54/54/54
f 56/56/56 54/54/54 53/53/53
f 57/57/57 55/55/55 54/54/54
f 57/57/57 54/54/54 56/56/56
f 58/58/58 55/55/55 57/57/57
f 59/59/59 57/57/57 56/56/56
f 60/60/60 58/58/58 57/57/57
f 60/60/60 57/57/57 59/59/59
f 61/61/61 60/60/60 59/59/59
f 64/64/64 63/63/63 62/62/62
f 63/63/63 65/65/65 62/62/62
f 63/63/63 66/66/66 65/65/65
f 62/62/62 65/65/65 67/67/67
f 66/66/66 68/68/68 65/65/65
f 65/65/65 69/69/69 67/67/67
f 65/65/65 68/68/68 69/69/69
f 67/67/67 69/69/69 70/70/70
f 68/68/68 71/71/71 69/69/69
f 69/69/69 72/72/72 70/70/70
f 69/69/69 71/71/71 72/72/72
f 73/73/73 70/70/70 72/72/72
f 71/71/71 74/74/74 72/72/72
f 75/75/75 73/73/73 72/72/72
f 75/75/75 72/72/72 74/74/74
f 76/76/76 75/75/75 74/74/74
f 79/79/79 78/78/78 77/77/77
f 80/80/80 79/79/79 77/77/77
f 81/81/81 80/80/80 77/77/77
f 82/82/82 81/81/81 77/77/77
f 79/79/79 80/80/80 83/83/83
f 80/80/80 81/81/81 83/83/83
f 84/84/84 79/79/79 83/83/83
f 85/85/85 84/84/84 83/83/83
f 86/86/86 81/81/81 82/82/82
f 87/87/87 86/86/86 82/82/82
f 81/81/81 88/88/88 83/83/83
f 81/81/81 86/86/86 88/88/88
f 88/88/88 85/85/85 83/83/83
f 86/86/86 89/89/89 88/88/88
f 85/85/85 88/88/88 89/89/89
f 90/90/90 85/85/85 89/89/89
f 93/93/93 92/92/92 91/91/91
f 92/92/92 94/94/94 91/91/91
f 94/94/94 92/92/92 95/95/95
f 92/92/92 96/96/96 95/95/95
f 95/95/95 96/96/96 97/97/97
f 98/98/98 95/95/95 97/97/97
f 99/99/99 98/98/98 97/97/97
f 100/100/100 99/99/99 97/97/97
