g main_plant
v 15.277686 3.9948113 -9.838652
v 4.588898 10.992497 -9.838652
v 5.137447 12.455978 -7.019026
v 15.687958 5.548817 -7.01903
v 15.556986 5.5539346 -3.0126584
v 5.14475 12.370576 -3.012655
v 2.3155174 8.568889 -9.838652
v -14.466719 2.6509345 -9.838652
v -15.96382 6.0014715 -8.227502
v 0.60131836 11.842867 -8.227507
v 0.5000091 9.884503 -3.0126584
v -15.848029 4.11967 -3.012655
v 4.1002703 -9.625046 -9.838652
v -8.66918 -10.023713 -9.838652
v -8.538093 -8.510265 -7.019026
v 4.066165 -8.116756 -7.01903
v 3.955944 -8.187687 -3.0126584
v -8.483125 -8.576034 -3.012655
vt 0.3559649 0.29972374
vt 0.0026421058 0.29972374
vt 0.0026421058 0.38153368
vt 0.3559649 0.38153368
vt 0.3559649 0.46334356
vt 0.0026421058 0.46334356
vt 0.0026421058 0.29972374
vt 0.3559649 0.29972374
vt 0.3559649 0.38153368
vt 0.0026421058 0.38153368
vt 0.0026421058 0.46334356
vt 0.3559649 0.46334356
vt 0.3559649 0.29972374
vt 0.0026421058 0.29972374
vt 0.0026421058 0.38153368
vt 0.3559649 0.38153368
vt 0.3559649 0.46334356
vt 0.0026421058 0.46334356
vn -0.48179173 -0.7359247 0.47570097
vn -0.4817918 -0.7359247 0.475701
vn -0.53313965 -0.814357 0.2293138
vn -0.53012 -0.80974466 0.25156763
vn -0.54765785 -0.83653295 -0.016834293
vn -0.54765785 -0.83653295 -0.016834293
vn 0.13405761 -0.38016263 0.91515297
vn 0.1340576 -0.3801626 0.91515297
vn 0.31103948 -0.88205177 0.35389125
vn 0.29364634 -0.8327279 0.4693996
vn 0.31411457 -0.8907727 -0.32841453
vn 0.31411454 -0.89077264 -0.32841453
vn 0.02751447 -0.8812968 0.47176147
vn 0.027514474 -0.8812968 0.47176147
vn 0.03028946 -0.9701854 0.24046378
vn 0.03031638 -0.9710479 0.23695354
vn 0.031200504 -0.99937135 -0.01683428
vn 0.031200508 -0.99937135 -0.016834281
g main_plant_0
f 3/3/3 2/2/2 1/1/1
f 4/4/4 3/3/3 1/1/1
f 3/3/3 4/4/4 5/5/5
f 6/6/6 3/3/3 5/5/5
f 9/9/9 8/8/8 7/7/7
f 10/10/10 9/9/9 7/7/7
f 9/9/9 10/10/10 11/11/11
f 12/12/12 9/9/9 11/11/11
f 15/15/15 14/14/14 13/13/13
f 16/16/16 15/15/15 13/13/13
f 15/15/15 16/16/16 17/17/17
f 18/18/18 15/15/15 17/17/17
