g main_gate1
v 0.09718371 -0.18229522 -0.18217789
v 0.17530389 -0.20141663 -0.24523856
v 0.27825555 0.6640799 -0.21450503
v 0.35782143 0.6517159 -0.2778234
v 0.41498286 0.63563627 -0.19435884
v 0.35782143 0.6517159 -0.2778234
v 0.23390323 -0.21077529 -0.1620302
v 0.35782143 0.6517159 -0.2778234
v 0.48937067 0.70589614 -0.18912037
v 0.38359755 0.7366096 -0.3327346
v 0.23903576 0.75793743 -0.22600386
v 0.47049767 1.228897 -0.22654796
v 0.23903576 0.75793743 -0.22600386
v 0.3361088 0.6584735 -0.12093079
v 0.27825555 0.6640799 -0.21450503
v 0.34995553 0.75768244 -0.07465497
v 0.41498286 0.63563627 -0.19435884
v 0.47049767 1.228897 -0.22654796
v 0.48937067 0.70589614 -0.18912037
v 0.3361088 0.6584735 -0.12093079
v 0.15438378 -0.1909542 -0.08848727
v 0.09718371 -0.18229522 -0.18217789
v 0.27825555 0.6640799 -0.21450503
v 0.41498286 0.63563627 -0.19435884
v 0.23390323 -0.21077529 -0.1620302
v 0.15438378 -0.1909542 -0.08848727
v 0.3361088 0.6584735 -0.12093079
v -0.3265913 -0.20205472 -0.20952553
v -0.2534919 -0.19801772 -0.29184255
v -0.4730402 0.6997979 -0.29534906
v -0.4012127 0.71166867 -0.37841108
v -0.4012127 0.71166867 -0.37841108
v -0.17649369 -0.17825648 -0.21557474
v -0.32294935 0.72363836 -0.30140248
v -0.4012127 0.71166867 -0.37841108
v -0.27602032 0.8287067 -0.31297407
v -0.41921577 0.808536 -0.4440336
v -0.55080765 0.78501797 -0.3018873
v -0.48788032 1.2652473 -0.3510516
v -0.27602032 0.8287067 -0.31297407
v -0.32294935 0.72363836 -0.30140248
v -0.39633742 0.724225 -0.20805304
v -0.413056 0.8407451 -0.16448818
v -0.4730402 0.6997979 -0.29534906
v -0.48788032 1.2652473 -0.3510516
v -0.55080765 0.78501797 -0.3018873
v -0.24931413 -0.18116643 -0.121892795
v -0.4730402 0.6997979 -0.29534906
v -0.39633742 0.724225 -0.20805304
v -0.3265913 -0.20205472 -0.20952553
v -0.17649369 -0.17825648 -0.21557474
v -0.39633742 0.724225 -0.20805304
v -0.32294935 0.72363836 -0.30140248
v -0.24931413 -0.18116643 -0.121892795
vt 0.4356465 0.5028023
vt 0.42839083 0.50279
vt 0.43476114 0.5692209
vt 0.42803285 0.5692209
vt 0.42000005 0.569221
vt 0.42803285 0.5692209
vt 0.41994306 0.5027989
vt 0.4281907 0.5692209
vt 0.41979706 0.5888249
vt 0.4281907 0.5888249
vt 0.4352213 0.5888249
vt 0.4281907 0.62147254
vt 0.4352213 0.5888249
vt 0.4281907 0.5692209
vt 0.4352213 0.5692209
vt 0.4281907 0.5888249
vt 0.41979706 0.569221
vt 0.4281907 0.62147254
vt 0.41979706 0.5888249
vt 0.42803285 0.5692209
vt 0.428749 0.5027951
vt 0.42005774 0.5027946
vt 0.42000005 0.569221
vt 0.43476114 0.5692209
vt 0.43498912 0.50291467
vt 0.42770043 0.50292546
vt 0.42803285 0.5692209
vt 0.4356465 0.5028023
vt 0.42839083 0.50279
vt 0.43476114 0.5692209
vt 0.42803285 0.5692209
vt 0.42803285 0.5692209
vt 0.41994306 0.5027989
vt 0.42000005 0.569221
vt 0.4281907 0.5692209
vt 0.41979706 0.5888249
vt 0.4281907 0.5888249
vt 0.4352213 0.5888249
vt 0.4281907 0.62147254
vt 0.41979706 0.5888249
vt 0.41979706 0.569221
vt 0.4281907 0.5692209
vt 0.4281907 0.5888249
vt 0.4352213 0.5692209
vt 0.4281907 0.62147254
vt 0.4352213 0.5888249
vt 0.428749 0.5027951
vt 0.42000005 0.569221
vt 0.42803285 0.5692209
vt 0.42005774 0.5027946
vt 0.43498912 0.50291467
vt 0.42803285 0.5692209
vt 0.43476114 0.5692209
vt 0.42770043 0.50292546
vn -0.9640304 0.19953643 -0.1755862
vn 0.13199852 -0.066015825 -0.9890492
vn -0.98267347 -0.10213268 -0.15466599
vn 0.056526847 -0.38148203 -0.9226463
vn 0.8653406 -0.48717368 0.11767589
vn 0.056526847 -0.38148203 -0.9226463
vn 0.97280574 -0.20392503 0.109834425
vn 0.056526847 -0.38148203 -0.9226463
vn 0.93006885 -0.34339207 0.1305906
vn 0.106761836 -0.17900078 -0.9780392
vn -0.9868255 0.055740874 -0.15188263
vn 0.20985363 0.97675586 -0.04369719
vn -0.9868255 0.055740874 -0.15188263
vn -0.19243453 -0.25317836 0.9480874
vn -0.98267347 -0.10213268 -0.15466599
vn -0.15306315 -0.03575901 0.9875693
vn 0.8653406 -0.48717368 0.11767589
vn 0.20985363 0.97675586 -0.04369719
vn 0.93006885 -0.34339207 0.1305906
vn -0.19243453 -0.25317836 0.9480874
vn -0.13199909 0.066016115 0.9890491
vn -0.9640304 0.19953643 -0.1755862
vn -0.98267347 -0.10213268 -0.15466599
vn 0.8653406 -0.48717368 0.11767589
vn 0.97280574 -0.20392503 0.109834425
vn -0.13199909 0.066016115 0.9890491
vn -0.19243453 -0.25317836 0.9480874
vn -0.9871488 -0.15966351 0.0066843084
vn -0.024455676 -0.09864199 -0.9948225
vn -0.902473 -0.42936936 0.034418333
vn 0.025943551 -0.3967001 -0.9175816
vn 0.025943551 -0.3967001 -0.9175816
vn 0.9855231 0.15310593 -0.07282055
vn 0.99072343 -0.12928247 -0.0418701
vn 0.025943551 -0.3967001 -0.9175816
vn 0.9982316 0.03857347 -0.04523183
vn -0.011154918 -0.18017602 -0.9835712
vn -0.9616033 -0.27235723 0.033772297
vn -0.15983127 0.9819473 -0.10116113
vn 0.9982316 0.03857347 -0.04523183
vn 0.99072343 -0.12928247 -0.0418701
vn 0.07187182 -0.20505685 0.9761076
vn 0.035332963 0.030541591 0.9989089
vn -0.902473 -0.42936936 0.034418333
vn -0.15983127 0.9819473 -0.10116113
vn -0.9616033 -0.27235723 0.033772297
vn 0.024453757 0.09864184 0.9948225
vn -0.902473 -0.42936936 0.034418333
vn 0.07187182 -0.20505685 0.9761076
vn -0.9871488 -0.15966351 0.0066843084
vn 0.9855231 0.15310593 -0.07282055
vn 0.07187182 -0.20505685 0.9761076
vn 0.99072343 -0.12928247 -0.0418701
vn 0.024453757 0.09864184 0.9948225
g main_gate1_0
f 3/3/3 2/2/2 1/1/1
f 2/2/2 3/3/3 4/4/4
f 2/2/2 6/6/6 5/5/5
f 5/5/5 7/7/7 2/2/2
f 9/9/9 5/5/5 8/8/8
f 10/10/10 8/8/8 3/3/3
f 8/8/8 10/10/10 9/9/9
f 3/3/3 11/11/11 10/10/10
f 10/10/10 12/12/12 9/9/9
f 11/11/11 12/12/12 10/10/10
f 15/15/15 14/14/14 13/13/13
f 13/13/13 14/14/14 16/16/16
f 16/16/16 14/14/14 17/17/17
f 16/16/16 18/18/18 13/13/13
f 17/17/17 19/19/19 16/16/16
f 18/18/18 16/16/16 19/19/19
f 22/22/22 21/21/21 20/20/20
f 20/20/20 23/23/23 22/22/22
f 26/26/26 25/25/25 24/24/24
f 24/24/24 27/27/27 26/26/26
f 30/30/30 29/29/29 28/28/28
f 29/29/29 30/30/30 31/31/31
f 33/33/33 29/29/29 32/32/32
f 33/33/33 32/32/32 34/34/34
f 36/36/36 34/34/34 35/35/35
f 37/37/37 35/35/35 30/30/30
f 35/35/35 37/37/37 36/36/36
f 30/30/30 38/38/38 37/37/37
f 37/37/37 39/39/39 36/36/36
f 38/38/38 39/39/39 37/37/37
f 42/42/42 41/41/41 40/40/40
f 42/42/42 40/40/40 43/43/43
f 44/44/44 42/42/42 43/43/43
f 45/45/45 43/43/43 40/40/40
f 43/43/43 46/46/46 44/44/44
f 43/43/43 45/45/45 46/46/46
f 49/49/49 48/48/48 47/47/47
f 50/50/50 47/47/47 48/48/48
f 53/53/53 52/52/52 51/51/51
f 54/54/54 51/51/51 52/52/52
