g map_cube04
v 0.017450446 0.40473232 -0.36044356
v 0.7383366 0.40473235 -0.36044356
v 0.7383366 1.1256192 -0.3604434
v 0.017450446 1.1256192 -0.36044344
v 0.017450409 0.4047323 0.3604434
v 0.017450446 1.1256192 0.3604435
v 0.7383366 1.1256192 0.36044353
v 0.7383366 0.40473235 0.36044338
v 0.017450446 0.40473232 -0.36044356
v 0.017450409 0.4047323 0.3604434
v 0.7383366 0.40473235 0.36044338
v 0.7383366 0.40473235 -0.36044356
v 0.7383366 0.40473235 -0.36044356
v 0.7383366 0.40473235 0.36044338
v 0.7383366 1.1256192 0.36044353
v 0.7383366 1.1256192 -0.3604434
v 0.7383366 1.1256192 -0.3604434
v 0.7383366 1.1256192 0.36044353
v 0.017450446 1.1256192 0.3604435
v 0.017450446 1.1256192 -0.36044344
v 0.017450446 1.1256192 -0.36044344
v 0.017450446 1.1256192 0.3604435
v 0.017450409 0.4047323 0.3604434
v 0.017450446 0.40473232 -0.36044356
v 0.7794806 -0.79047614 0.50393337
v 1.4764091 -0.79047614 0.50393337
v 1.4764091 -0.093547136 0.5039335
v 0.7794806 -0.09354721 0.5039334
v 0.7794806 -0.79047614 1.2008625
v 0.7794806 -0.09354717 1.2008626
v 1.4764091 -0.09354709 1.2008626
v 1.4764091 -0.79047614 1.2008625
v 0.7794806 -0.79047614 0.50393337
v 0.7794806 -0.79047614 1.2008625
v 1.4764091 -0.79047614 1.2008625
v 1.4764091 -0.79047614 0.50393337
v 1.4764091 -0.79047614 0.50393337
v 1.4764091 -0.79047614 1.2008625
v 1.4764091 -0.09354709 1.2008626
v 1.4764091 -0.093547136 0.5039335
v 1.4764091 -0.093547136 0.5039335
v 1.4764091 -0.09354709 1.2008626
v 0.7794806 -0.09354717 1.2008626
v 0.7794806 -0.09354721 0.5039334
v 0.7794806 -0.09354721 0.5039334
v 0.7794806 -0.09354717 1.2008626
v 0.7794806 -0.79047614 1.2008625
v 0.7794806 -0.79047614 0.50393337
v 1.5881524 -0.808759 -2.0283382
v 2.321646 -0.8087589 -2.0283382
v 2.321646 -0.07526466 -2.0283377
v 1.5881524 -0.07526474 -2.0283377
v 1.5881524 -0.80875915 -1.2948434
v 1.5881524 -0.07526481 -1.2948431
v 2.321646 -0.07526474 -1.2948431
v 2.321646 -0.808759 -1.2948434
v 1.5881524 -0.808759 -2.0283382
v 1.5881524 -0.80875915 -1.2948434
v 2.321646 -0.808759 -1.2948434
v 2.321646 -0.8087589 -2.0283382
v 2.321646 -0.8087589 -2.0283382
v 2.321646 -0.808759 -1.2948434
v 2.321646 -0.07526474 -1.2948431
v 2.321646 -0.07526466 -2.0283377
v 2.321646 -0.07526466 -2.0283377
v 2.321646 -0.07526474 -1.2948431
v 1.5881524 -0.07526481 -1.2948431
v 1.5881524 -0.07526474 -2.0283377
v 1.5881524 -0.07526474 -2.0283377
v 1.5881524 -0.07526481 -1.2948431
v 1.5881524 -0.80875915 -1.2948434
v 1.5881524 -0.808759 -2.0283382
v -2.431408 -0.37662727 -1.1747904
v -1.678154 -0.37662724 -1.1747904
v -1.678154 0.3766273 -1.1747899
v -2.431408 0.37662724 -1.1747899
v -2.431408 -0.37662742 -0.42153534
v -2.431408 0.37662712 -0.42153487
v -1.678154 0.37662718 -0.42153487
v -1.678154 -0.37662736 -0.42153534
v -2.431408 -0.37662727 -1.1747904
v -2.431408 -0.37662742 -0.42153534
v -1.678154 -0.37662736 -0.42153534
v -1.678154 -0.37662724 -1.1747904
v -1.678154 -0.37662724 -1.1747904
v -1.678154 -0.37662736 -0.42153534
v -1.678154 0.37662718 -0.42153487
v -1.678154 0.3766273 -1.1747899
v -1.678154 0.3766273 -1.1747899
v -1.678154 0.37662718 -0.42153487
v -2.431408 0.37662712 -0.42153487
v -2.431408 0.37662724 -1.1747899
v -2.431408 0.37662724 -1.1747899
v -2.431408 0.37662712 -0.42153487
v -2.431408 -0.37662742 -0.42153534
v -2.431408 -0.37662727 -1.1747904
vt 0.3168022 0.5858652
vt 0.46838197 0.5858652
vt 0.46838197 0.73720735
vt 0.3168022 0.73720735
vt 0.3168022 0.5858652
vt 0.3168022 0.73720735
vt 0.46838197 0.73720735
vt 0.46838197 0.5858652
vt 0.15941793 0.5858652
vt 0.15941793 0.73720735
vt 0.31507063 0.73720735
vt 0.31507063 0.5858652
vt 0.3168022 0.5858652
vt 0.46838197 0.5858652
vt 0.46838197 0.73720735
vt 0.3168022 0.73720735
vt 0.62146425 0.5858652
vt 0.62146425 0.73720735
vt 0.46939653 0.73720735
vt 0.46939653 0.5858652
vt 0.3168022 0.73720735
vt 0.46838197 0.73720735
vt 0.46838197 0.5858652
vt 0.3168022 0.5858652
vt 0.3168022 0.5858652
vt 0.46838197 0.5858652
vt 0.46838197 0.73720735
vt 0.3168022 0.73720735
vt 0.3168022 0.5858652
vt 0.3168022 0.73720735
vt 0.46838197 0.73720735
vt 0.46838197 0.5858652
vt 0.15941793 0.5858652
vt 0.15941793 0.73720735
vt 0.31507063 0.73720735
vt 0.31507063 0.5858652
vt 0.3168022 0.5858652
vt 0.46838197 0.5858652
vt 0.46838197 0.73720735
vt 0.3168022 0.73720735
vt 0.62146425 0.5858652
vt 0.62146425 0.73720735
vt 0.46939653 0.73720735
vt 0.46939653 0.5858652
vt 0.3168022 0.73720735
vt 0.46838197 0.73720735
vt 0.46838197 0.5858652
vt 0.3168022 0.5858652
vt 0.3168022 0.5858652
vt 0.46838197 0.5858652
vt 0.46838197 0.73720735
vt 0.3168022 0.73720735
vt 0.3168022 0.5858652
vt 0.3168022 0.73720735
vt 0.46838197 0.73720735
vt 0.46838197 0.5858652
vt 0.15941793 0.5858652
vt 0.15941793 0.73720735
vt 0.31507063 0.73720735
vt 0.31507063 0.5858652
vt 0.3168022 0.5858652
vt 0.46838197 0.5858652
vt 0.46838197 0.73720735
vt 0.3168022 0.73720735
vt 0.62146425 0.5858652
vt 0.62146425 0.73720735
vt 0.46939653 0.73720735
vt 0.46939653 0.5858652
vt 0.3168022 0.73720735
vt 0.46838197 0.73720735
vt 0.46838197 0.5858652
vt 0.3168022 0.5858652
vt 0.3168022 0.5858652
vt 0.46838197 0.5858652
vt 0.46838197 0.73720735
vt 0.3168022 0.73720735
vt 0.3168022 0.5858652
vt 0.3168022 0.73720735
vt 0.46838197 0.73720735
vt 0.46838197 0.5858652
vt 0.15941793 0.5858652
vt 0.15941793 0.73720735
vt 0.31507063 0.73720735
vt 0.31507063 0.5858652
vt 0.3168022 0.5858652
vt 0.46838197 0.5858652
vt 0.46838197 0.73720735
vt 0.3168022 0.73720735
vt 0.62146425 0.5858652
vt 0.62146425 0.73720735
vt 0.46939653 0.73720735
vt 0.46939653 0.5858652
vt 0.3168022 0.73720735
vt 0.46838197 0.73720735
vt 0.46838197 0.5858652
vt 0.3168022 0.5858652
vn -0.5773502 -0.5773502 -0.57735026
vn 0.57735026 -0.5773502 -0.5773503
vn 0.57735026 0.5773503 -0.5773502
vn -0.57735026 0.57735026 -0.5773502
vn -0.57735026 -0.5773503 0.5773502
vn -0.57735026 0.5773502 0.5773503
vn 0.57735026 0.5773502 0.5773504
vn 0.57735026 -0.57735026 0.5773502
vn -0.5773502 -0.5773502 -0.57735026
vn -0.57735026 -0.5773503 0.5773502
vn 0.57735026 -0.57735026 0.5773502
vn 0.57735026 -0.5773502 -0.5773503
vn 0.57735026 -0.5773502 -0.5773503
vn 0.57735026 -0.57735026 0.5773502
vn 0.57735026 0.5773502 0.5773504
vn 0.57735026 0.5773503 -0.5773502
vn 0.57735026 0.5773503 -0.5773502
vn 0.57735026 0.5773502 0.5773504
vn -0.57735026 0.5773502 0.5773503
vn -0.57735026 0.57735026 -0.5773502
vn -0.57735026 0.57735026 -0.5773502
vn -0.57735026 0.5773502 0.5773503
vn -0.57735026 -0.5773503 0.5773502
vn -0.5773502 -0.5773502 -0.57735026
vn -0.5773502 -0.5773502 -0.5773503
vn 0.57735026 -0.5773502 -0.5773503
vn 0.57735026 0.5773503 -0.5773502
vn -0.57735026 0.5773502 -0.57735026
vn -0.57735026 -0.57735026 0.5773502
vn -0.57735026 0.57735026 0.5773503
vn 0.5773502 0.5773503 0.57735026
vn 0.57735026 -0.57735026 0.5773502
vn -0.5773502 -0.5773502 -0.5773503
vn -0.57735026 -0.57735026 0.5773502
vn 0.57735026 -0.57735026 0.5773502
vn 0.57735026 -0.5773502 -0.5773503
vn 0.57735026 -0.5773502 -0.5773503
vn 0.57735026 -0.57735026 0.5773502
vn 0.5773502 0.5773503 0.57735026
vn 0.57735026 0.5773503 -0.5773502
vn 0.57735026 0.5773503 -0.5773502
vn 0.5773502 0.5773503 0.57735026
vn -0.57735026 0.57735026 0.5773503
vn -0.57735026 0.5773502 -0.57735026
vn -0.57735026 0.5773502 -0.57735026
vn -0.57735026 0.57735026 0.5773503
vn -0.57735026 -0.57735026 0.5773502
vn -0.5773502 -0.5773502 -0.5773503
vn -0.5773502 -0.5773501 -0.57735056
vn 0.57735026 -0.57734996 -0.57735056
vn 0.5773503 0.57735056 -0.57735
vn -0.5773503 0.5773505 -0.57735
vn -0.5773502 -0.57735044 0.5773501
vn -0.57735026 0.5773501 0.5773504
vn 0.5773502 0.5773502 0.5773504
vn 0.5773503 -0.5773504 0.57735014
vn -0.5773502 -0.5773501 -0.57735056
vn -0.5773502 -0.57735044 0.5773501
vn 0.5773503 -0.5773504 0.57735014
vn 0.57735026 -0.57734996 -0.57735056
vn 0.57735026 -0.57734996 -0.57735056
vn 0.5773503 -0.5773504 0.57735014
vn 0.5773502 0.5773502 0.5773504
vn 0.5773503 0.57735056 -0.57735
vn 0.5773503 0.57735056 -0.57735
vn 0.5773502 0.5773502 0.5773504
vn -0.57735026 0.5773501 0.5773504
vn -0.5773503 0.5773505 -0.57735
vn -0.5773503 0.5773505 -0.57735
vn -0.57735026 0.5773501 0.5773504
vn -0.5773502 -0.57735044 0.5773501
vn -0.5773502 -0.5773501 -0.57735056
vn -0.5773502 -0.5773501 -0.57735056
vn 0.57735026 -0.57735 -0.57735056
vn 0.5773503 0.57735056 -0.57735
vn -0.5773503 0.57735044 -0.57734996
vn -0.57735026 -0.5773505 0.57735
vn -0.57735026 0.57735 0.5773505
vn 0.5773502 0.57735014 0.5773505
vn 0.5773503 -0.57735044 0.57735
vn -0.5773502 -0.5773501 -0.57735056
vn -0.57735026 -0.5773505 0.57735
vn 0.5773503 -0.57735044 0.57735
vn 0.57735026 -0.57735 -0.57735056
vn 0.57735026 -0.57735 -0.57735056
vn 0.5773503 -0.57735044 0.57735
vn 0.5773502 0.57735014 0.5773505
vn 0.5773503 0.57735056 -0.57735
vn 0.5773503 0.57735056 -0.57735
vn 0.5773502 0.57735014 0.5773505
vn -0.57735026 0.57735 0.5773505
vn -0.5773503 0.57735044 -0.57734996
vn -0.5773503 0.57735044 -0.57734996
vn -0.57735026 0.57735 0.5773505
vn -0.57735026 -0.5773505 0.57735
vn -0.5773502 -0.5773501 -0.57735056
g map_cube04_0
f 3/3/3 2/2/2 1/1/1
f 4/4/4 3/3/3 1/1/1
f 7/7/7 6/6/6 5/5/5
f 8/8/8 7/7/7 5/5/5
f 11/11/11 10/10/10 9/9/9
f 12/12/12 11/11/11 9/9/9
f 15/15/15 14/14/14 13/13/13
f 16/16/16 15/15/15 13/13/13
f 19/19/19 18/18/18 17/17/17
f 20/20/20 19/19/19 17/17/17
f 23/23/23 22/22/22 21/21/21
f 24/24/24 23/23/23 21/21/21
f 27/27/27 26/26/26 25/25/25
f 28/28/28 27/27/27 25/25/25
f 31/31/31 30/30/30 29/29/29
f 32/32/32 31/31/31 29/29/29
f 35/35/35 34/34/34 33/33/33
f 36/36/36 35/35/35 33/33/33
f 39/39/39 38/38/38 37/37/37
f 40/40/40 39/39/39 37/37/37
f 43/43/43 42/42/42 41/41/41
f 44/44/44 43/43/43 41/41/41
f 47/47/47 46/46/46 45/45/45
f 48/48/48 47/47/47 45/45/45
f 51/51/51 50/50/50 49/49/49
f 52/52/52 51/51/51 49/49/49
f 55/55/55 54/54/54 53/53/53
f 56/56/56 55/55/55 53/53/53
f 59/59/59 58/58/58 57/57/57
f 60/60/60 59/59/59 57/57/57
f 63/63/63 62/62/62 61/61/61
f 64/64/64 63/63/63 61/61/61
f 67/67/67 66/66/66 65/65/65
f 68/68/68 67/67/67 65/65/65
f 71/71/71 70/70/70 69/69/69
f 72/72/72 71/71/71 69/69/69
f 75/75/75 74/74/74 73/73/73
f 76/76/76 75/75/75 73/73/73
f 79/79/79 78/78/78 77/77/77
f 80/80/80 79/79/79 77/77/77
f 83/83/83 82/82/82 81/81/81
f 84/84/84 83/83/83 81/81/81
f 87/87/87 86/86/86 85/85/85
f 88/88/88 87/87/87 85/85/85
f 91/91/91 90/90/90 89/89/89
f 92/92/92 91/91/91 89/89/89
f 95/95/95 94/94/94 93/93/93
f 96/96/96 95/95/95 93/93/93
