g obj_grave1
v -0.386946 0.11293601 0.44415757
v -0.44398692 0.11293615 0.3870478
v -0.40191063 0.1199268 0.3976576
v 0.44400132 0.11293615 0.3870478
v 0.3858837 0.11293601 0.44415757
v 0.4008275 0.1199268 0.3976576
v -0.44398692 0.11293595 -0.38578194
v -0.386946 0.11293609 -0.4318878
v -0.40191063 0.119926766 -0.40508053
v 0.3858837 0.11293609 -0.4318878
v 0.44400132 0.11293595 -0.38578194
v 0.4008275 0.119926766 -0.40508053
v -0.21864243 0.9259865 -0.052681077
v -0.3279747 0.9259865 -0.108956166
v -0.21864243 1.0303614 -0.108956166
v 0.32800746 0.9259865 -0.1089562
v 0.21867508 0.9259865 -0.052681115
v 0.21867508 1.0303614 -0.1089562
v -0.386946 0.11293609 -0.4318878
v -0.3478529 0.11992672 -0.37653723
v -0.40191063 0.119926766 -0.40508053
v 0.3478855 0.11992672 -0.37653723
v 0.3858837 0.11293609 -0.4318878
v 0.4008275 0.119926766 -0.40508053
v -0.0005415606 -0.017738665 0.45697758
v -0.40191063 -0.017738665 0.45697758
v -0.386946 0.11293601 0.44415757
v -0.0005311504 0.11293601 0.44415757
v 0.3858837 0.11293601 0.44415757
v 0.4008275 -0.017738665 0.45697758
v 0.44400132 0.11293595 -0.38578194
v 0.46119434 -0.017738817 0.3976576
v 0.44400132 0.11293615 0.3870478
v 0.46119434 -0.017738665 -0.40508056
v -0.44398692 0.11293595 -0.38578194
v -0.44398692 0.11293615 0.3870478
v -0.46115905 -0.017738817 0.3976576
v -0.46115905 -0.017738665 -0.40508056
v -0.0005415606 0.1199268 0.3976576
v -0.386946 0.11293601 0.44415757
v -0.40191063 0.1199268 0.3976576
v -0.0005311504 0.11293601 0.44415757
v 0.3858837 0.11293601 0.44415757
v 0.4008275 0.1199268 0.3976576
v 0.4008275 0.119926766 -0.40508053
v 0.44400132 0.11293595 -0.38578194
v 0.4008275 0.1199268 0.3976576
v 0.44400132 0.11293615 0.3870478
v -0.44398692 0.11293595 -0.38578194
v -0.40191063 0.119926766 -0.40508053
v -0.40191063 0.1199268 0.3976576
v -0.44398692 0.11293615 0.3870478
v 0.3858837 0.11293601 0.44415757
v 0.44400132 0.11293615 0.3870478
v 0.4008275 -0.017738665 0.45697758
v 0.46119434 -0.017738817 0.3976576
v -0.44398692 0.11293615 0.3870478
v -0.386946 0.11293601 0.44415757
v -0.46115905 -0.017738817 0.3976576
v -0.40191063 -0.017738665 0.45697758
v 0.44400132 0.11293595 -0.38578194
v 0.3858837 0.11293609 -0.4318878
v 0.4008275 -0.017738665 -0.45297062
v 0.46119434 -0.017738665 -0.40508056
v -0.386946 0.11293609 -0.4318878
v -0.44398692 0.11293595 -0.38578194
v -0.40191063 -0.017738665 -0.45297062
v -0.46115905 -0.017738665 -0.40508056
v 1.632595E-05 0.119926706 0.056708053
v -0.23852064 0.119926706 0.056708053
v -0.21864243 0.9259865 -0.052681077
v 1.632595E-05 0.9259865 -0.052681115
v 0.21867508 0.9259865 -0.052681115
v 0.23855326 0.119926706 0.056708053
v 0.32800746 0.9259865 -0.1089562
v 0.32800746 0.92598623 -0.37653708
v 0.3478855 0.11992672 -0.37653723
v 0.3478855 0.119926706 0.00043281054
v -0.3279747 0.92598623 -0.37653708
v -0.3279747 0.9259865 -0.108956166
v -0.3478529 0.11992672 -0.37653723
v -0.3478529 0.119926706 0.00043281054
v 1.632595E-05 1.0303614 -0.1089562
v -0.21864243 0.9259865 -0.052681077
v -0.21864243 1.0303614 -0.108956166
v 1.632595E-05 0.9259865 -0.052681115
v 0.21867508 0.9259865 -0.052681115
v 0.21867508 1.0303614 -0.1089562
v 0.21867508 1.0303614 -0.3765371
v 0.32800746 0.92598623 -0.37653708
v 0.21867508 1.0303614 -0.1089562
v 0.32800746 0.9259865 -0.1089562
v -0.3279747 0.92598623 -0.37653708
v -0.21864243 1.0303614 -0.3765371
v -0.21864243 1.0303614 -0.108956166
v -0.3279747 0.9259865 -0.108956166
v 0.21867508 0.9259865 -0.052681115
v 0.32800746 0.9259865 -0.1089562
v 0.23855326 0.119926706 0.056708053
v 0.3478855 0.119926706 0.00043281054
v -0.3279747 0.9259865 -0.108956166
v -0.21864243 0.9259865 -0.052681077
v -0.23852064 0.119926706 0.056708053
v -0.3478529 0.119926706 0.00043281054
v 0.21867508 1.0303614 -0.3765371
v 0.21867508 1.0303614 -0.1089562
v 1.632595E-05 1.0303614 -0.1089562
v 1.632595E-05 1.0303614 -0.3765371
v -0.21864243 1.0303614 -0.3765371
v -0.21864243 1.0303614 -0.108956166
v -0.3478529 0.119926706 0.00043281054
v -0.40191063 0.119926766 -0.40508053
v -0.3478529 0.11992672 -0.37653723
v -0.40191063 0.1199268 0.3976576
v -0.23852064 0.119926706 0.056708053
v -0.0005415606 0.1199268 0.3976576
v 1.632595E-05 0.119926706 0.056708053
v 0.23855326 0.119926706 0.056708053
v 0.4008275 0.1199268 0.3976576
v 0.3478855 0.119926706 0.00043281054
v 0.4008275 0.119926766 -0.40508053
v 0.3478855 0.11992672 -0.37653723
v 0.3858837 0.11293609 -0.4318878
v 0.3478855 0.11992672 -0.37653723
v -0.3478529 0.11992672 -0.37653723
v -0.386946 0.11293609 -0.4318878
vt 0.13979337 0.5008716
vt 0.13459401 0.5064514
vt 0.13979337 0.5064514
vt 0.13459401 0.5064514
vt 0.13979337 0.5008716
vt 0.13979337 0.5064514
vt 0.13459401 0.5462858
vt 0.13459401 0.5462858
vt 0.13979337 0.5462858
vt 0.13459401 0.5462858
vt 0.13459401 0.5462858
vt 0.13979337 0.5462858
vt 0.15376383 0.5550136
vt 0.14805202 0.5550136
vt 0.15376383 0.56158155
vt 0.14805202 0.5550136
vt 0.15376383 0.5550136
vt 0.15376383 0.56158155
vt 0.13459401 0.5462858
vt 0.14271553 0.5462858
vt 0.13979337 0.5462858
vt 0.14271553 0.5462858
vt 0.13459401 0.5462858
vt 0.13979337 0.5462858
vt 0.18635665 0.501594
vt 0.18635665 0.51046854
vt 0.16553712 0.51046854
vt 0.16553712 0.501594
vt 0.16553712 0.51046854
vt 0.18635665 0.51046854
vt 0.16553712 0.5252315
vt 0.18635665 0.5183372
vt 0.16553712 0.5183372
vt 0.18635665 0.5252315
vt 0.16553712 0.5252315
vt 0.16553712 0.5183372
vt 0.18635665 0.5183372
vt 0.18635665 0.5252315
vt 0.16503236 0.5064514
vt 0.13979337 0.5008716
vt 0.13979337 0.5064514
vt 0.16503236 0.5008716
vt 0.13979337 0.5008716
vt 0.13979337 0.5064514
vt 0.13979337 0.5462858
vt 0.13459401 0.5462858
vt 0.13979337 0.5064514
vt 0.13459401 0.5064514
vt 0.13459401 0.5462858
vt 0.13979337 0.5462858
vt 0.13979337 0.5064514
vt 0.13459401 0.5064514
vt 0.16553712 0.51046854
vt 0.16553712 0.5183372
vt 0.18635665 0.51046854
vt 0.18635665 0.5183372
vt 0.16553712 0.5183372
vt 0.16553712 0.51046854
vt 0.18635665 0.5183372
vt 0.18635665 0.51046854
vt 0.16553712 0.5252315
vt 0.16553712 0.5231493
vt 0.18635665 0.5231493
vt 0.18635665 0.5252315
vt 0.16553712 0.5231493
vt 0.16553712 0.5252315
vt 0.18635665 0.5231493
vt 0.18635665 0.5252315
vt 0.16577849 0.5264152
vt 0.15187097 0.5264152
vt 0.15376383 0.5550136
vt 0.16577849 0.5550136
vt 0.15376383 0.5550136
vt 0.15187097 0.5264152
vt 0.16923718 0.53895336
vt 0.18474713 0.53895336
vt 0.18474713 0.5295308
vt 0.16923718 0.5295308
vt 0.18474713 0.53895336
vt 0.16923718 0.53895336
vt 0.18474713 0.5295308
vt 0.16923718 0.5295308
vt 0.16577849 0.56158155
vt 0.15376383 0.5550136
vt 0.15376383 0.56158155
vt 0.16577849 0.5550136
vt 0.15376383 0.5550136
vt 0.15376383 0.56158155
vt 0.18474713 0.5490842
vt 0.18474713 0.53895336
vt 0.16923718 0.5490842
vt 0.16923718 0.53895336
vt 0.18474713 0.53895336
vt 0.18474713 0.5490842
vt 0.16923718 0.5490842
vt 0.16923718 0.53895336
vt 0.15376383 0.5550136
vt 0.14805202 0.5550136
vt 0.15187097 0.5264152
vt 0.14700055 0.5264152
vt 0.14805202 0.5550136
vt 0.15376383 0.5550136
vt 0.15187097 0.5264152
vt 0.14700055 0.5264152
vt 0.18474713 0.5490842
vt 0.16923718 0.5490842
vt 0.16923723 0.5615816
vt 0.18474714 0.5615816
vt 0.18474713 0.5490842
vt 0.16923718 0.5490842
vt 0.14271553 0.526264
vt 0.13979337 0.5462858
vt 0.14271553 0.5462858
vt 0.13979337 0.5064514
vt 0.14988479 0.52251995
vt 0.16503236 0.5064514
vt 0.16499768 0.52251995
vt 0.14988479 0.52251995
vt 0.13979337 0.5064514
vt 0.14271553 0.526264
vt 0.13979337 0.5462858
vt 0.14271553 0.5462858
vt 0.13459401 0.5462858
vt 0.14271553 0.5462858
vt 0.14271553 0.5462858
vt 0.13459401 0.5462858
vn -0.21188094 0.954107 0.21162765
vn -0.21188089 0.954107 0.21162763
vn -0.21188089 0.954107 0.21162763
vn 0.20634718 0.9556802 0.20999084
vn 0.20634717 0.9556802 0.20999087
vn 0.20634715 0.9556802 0.20999083
vn -0.32775575 0.8533204 -0.40548792
vn -0.32775572 0.8533205 -0.40548795
vn -0.32775575 0.8533204 -0.40548795
vn 0.31850344 0.8587026 -0.4014792
vn 0.3185034 0.8587025 -0.40147918
vn 0.31850344 0.8587025 -0.40147924
vn -0.41268122 0.4322818 0.80176467
vn -0.41268116 0.43228185 0.80176467
vn -0.41268122 0.43228185 0.80176467
vn 0.4126809 0.43228194 0.80176485
vn 0.4126809 0.43228194 0.80176485
vn 0.41268092 0.43228197 0.80176485
vn 0.10369202 0.97502977 -0.1963796
vn 0.10369202 0.97502977 -0.19637959
vn 0.10369202 0.97502977 -0.19637959
vn -0.10540486 0.97502214 -0.1955033
vn -0.10540486 0.97502214 -0.19550331
vn -0.10540485 0.97502214 -0.19550331
vn -0 0.09763734 0.99522203
vn -0 0.09763734 0.99522203
vn -0 0.09763734 0.99522203
vn -0 0.09763733 0.99522203
vn -0 0.09763735 0.99522203
vn -0 0.09763735 0.99522203
vn 0.99145526 0.1304469 0
vn 0.99145526 0.13044688 0
vn 0.99145526 0.13044688 0
vn 0.99145526 0.13044691 0
vn -0.9914758 0.13029104 0
vn -0.9914758 0.13029103 0
vn -0.9914758 0.13029103 0
vn -0.9914758 0.13029104 0
vn -0 0.988887 0.14866889
vn -0 0.988887 0.14866889
vn -0 0.988887 0.14866889
vn -0 0.988887 0.1486689
vn -0 0.988887 0.14866889
vn -0 0.988887 0.14866889
vn 0.15983896 0.9871431 -1.4437485E-07
vn 0.15983894 0.9871431 -1.4437485E-07
vn 0.15983897 0.9871431 -1.4437487E-07
vn 0.15983894 0.9871431 -1.4437485E-07
vn -0.1638976 0.9864774 -1.4426338E-07
vn -0.16389762 0.9864774 -1.4426338E-07
vn -0.16389762 0.9864774 -1.4426338E-07
vn -0.16389762 0.9864774 -1.4426337E-07
vn 0.69312763 0.14846532 0.7053596
vn 0.69312763 0.1484653 0.7053595
vn 0.69312763 0.1484653 0.7053595
vn 0.69312763 0.1484653 0.7053595
vn -0.69966894 0.14868362 0.69882506
vn -0.69966894 0.14868362 0.69882506
vn -0.69966906 0.14868364 0.6988251
vn -0.69966894 0.14868362 0.69882506
vn 0.6097243 0.19372821 -0.7685738
vn 0.6097243 0.19372821 -0.7685738
vn 0.6097243 0.19372818 -0.7685738
vn 0.6097243 0.19372822 -0.7685738
vn -0.6167119 0.19372284 -0.76297957
vn -0.6167119 0.19372287 -0.76297957
vn -0.6167119 0.19372287 -0.76297957
vn -0.6167119 0.19372287 -0.76297957
vn -0 0.13447583 0.9909169
vn -0 0.13447584 0.9909169
vn -0 0.13447584 0.9909169
vn -0 0.13447583 0.9909169
vn -0 0.13447584 0.9909169
vn -0 0.13447584 0.9909169
vn 0.999696 0.02465323 0
vn 0.999696 0.024653228 0
vn 0.999696 0.024653226 0
vn 0.999696 0.024653226 0
vn -0.999696 0.024653424 0
vn -0.999696 0.024653422 0
vn -0.999696 0.024653422 0
vn -0.999696 0.024653422 0
vn 1.5292123E-07 0.47457838 0.8802132
vn 1.5292123E-07 0.47457838 0.8802132
vn 1.5292123E-07 0.47457838 0.8802132
vn 1.5292123E-07 0.47457838 0.8802132
vn -0 0.47457844 0.8802132
vn -0 0.47457844 0.8802132
vn 0.6905185 0.7233148 -4.160367E-07
vn 0.6905184 0.7233149 -4.1603673E-07
vn 0.6905185 0.7233148 -4.1603673E-07
vn 0.6905185 0.7233148 -4.1603673E-07
vn -0.6905187 0.72331446 -4.160369E-07
vn -0.69051874 0.72331446 -4.160369E-07
vn -0.6905188 0.7233144 -4.160369E-07
vn -0.69051874 0.72331446 -4.160369E-07
vn 0.4537183 0.13081485 0.8814914
vn 0.45371833 0.13081485 0.8814914
vn 0.45371833 0.13081485 0.8814914
vn 0.45371833 0.13081485 0.8814914
vn -0.45371854 0.13081485 0.8814913
vn -0.45371854 0.13081485 0.8814913
vn -0.45371854 0.13081485 0.8814913
vn -0.45371854 0.13081487 0.8814913
vn -0 1 0
vn -0 1 0
vn -0 1 0
vn -0 1 0
vn -0 1 0
vn -0 1 0
vn 1.1880484E-06 1 0
vn 1.1880484E-06 1 0
vn 1.1880484E-06 1 0
vn -0 1 -2.816693E-07
vn -0 1 -2.816693E-07
vn -0 1 -2.816693E-07
vn -0 1 -2.816693E-07
vn -1.1645192E-07 1 -2.262442E-07
vn -1.16451936E-07 1 -2.2624423E-07
vn -1.16451936E-07 1 -2.2624423E-07
vn -1.2130861E-06 1 0
vn -1.2130861E-06 1 0
vn -0 0.9921186 -0.12530205
vn -0 0.9921186 -0.12530205
vn -0 0.9921186 -0.12530205
vn -0 0.9921186 -0.12530205
g obj_grave1_0
f 3/3/3 2/2/2 1/1/1
f 6/6/6 5/5/5 4/4/4
f 9/9/9 8/8/8 7/7/7
f 12/12/12 11/11/11 10/10/10
f 15/15/15 14/14/14 13/13/13
f 18/18/18 17/17/17 16/16/16
f 21/21/21 20/20/20 19/19/19
f 24/24/24 23/23/23 22/22/22
f 27/27/27 26/26/26 25/25/25
f 25/25/25 28/28/28 27/27/27
f 29/29/29 28/28/28 25/25/25
f 25/25/25 30/30/30 29/29/29
f 33/33/33 32/32/32 31/31/31
f 32/32/32 34/34/34 31/31/31
f 37/37/37 36/36/36 35/35/35
f 35/35/35 38/38/38 37/37/37
f 41/41/41 40/40/40 39/39/39
f 40/40/40 42/42/42 39/39/39
f 39/39/39 42/42/42 43/43/43
f 43/43/43 44/44/44 39/39/39
f 47/47/47 46/46/46 45/45/45
f 47/47/47 48/48/48 46/46/46
f 51/51/51 50/50/50 49/49/49
f 49/49/49 52/52/52 51/51/51
f 55/55/55 54/54/54 53/53/53
f 56/56/56 54/54/54 55/55/55
f 59/59/59 58/58/58 57/57/57
f 59/59/59 60/60/60 58/58/58
f 63/63/63 62/62/62 61/61/61
f 61/61/61 64/64/64 63/63/63
f 67/67/67 66/66/66 65/65/65
f 68/68/68 66/66/66 67/67/67
f 71/71/71 70/70/70 69/69/69
f 69/69/69 72/72/72 71/71/71
f 73/73/73 72/72/72 69/69/69
f 69/69/69 74/74/74 73/73/73
f 77/77/77 76/76/76 75/75/75
f 75/75/75 78/78/78 77/77/77
f 81/81/81 80/80/80 79/79/79
f 82/82/82 80/80/80 81/81/81
f 85/85/85 84/84/84 83/83/83
f 84/84/84 86/86/86 83/83/83
f 83/83/83 86/86/86 87/87/87
f 87/87/87 88/88/88 83/83/83
f 91/91/91 90/90/90 89/89/89
f 91/91/91 92/92/92 90/90/90
f 95/95/95 94/94/94 93/93/93
f 93/93/93 96/96/96 95/95/95
f 99/99/99 98/98/98 97/97/97
f 99/99/99 100/100/100 98/98/98
f 103/103/103 102/102/102 101/101/101
f 101/101/101 104/104/104 103/103/103
f 107/107/107 106/106/106 105/105/105
f 107/107/107 105/105/105 108/108/108
f 109/109/109 107/107/107 108/108/108
f 110/110/110 107/107/107 109/109/109
f 113/113/113 112/112/112 111/111/111
f 114/114/114 111/111/111 112/112/112
f 115/115/115 111/111/111 114/114/114
f 115/115/115 114/114/114 116/116/116
f 116/116/116 117/117/117 115/115/115
f 117/117/117 116/116/116 118/118/118
f 119/119/119 118/118/118 116/116/116
f 120/120/120 118/118/118 119/119/119
f 121/121/121 120/120/120 119/119/119
f 121/121/121 122/122/122 120/120/120
f 125/125/125 124/124/124 123/123/123
f 123/123/123 126/126/126 125/125/125
