g obj_scratch1_9
v -0.598397 0.0060306764 -0.15065752
v 0.1138087 0.0060306764 0.38494548
v -1.1577009 0.0060306764 0.38494548
v 0.3934607 0.0060306764 -0.3451479
v 1.3918062 0.0060306764 0.38494548
v 1.3918062 0.0060306764 -0.5396383
vt 0.24896078 0.7984344
vt 0.2637897 0.8096752
vt 0.24459969 0.8096752
vt 0.26283234 0.7938624
vt 0.24145313 0.8096752
vt 0.24145313 0.7892904
vn -0 1 0
vn -0 1 0
vn -0 1 0
vn -0 1 0
vn -0 1 0
vn -0 1 0
g obj_scratch1_9_0
f 3/3/3 2/2/2 1/1/1
f 2/2/2 4/4/4 1/1/1
f 4/4/4 2/2/2 5/5/5
f 6/6/6 4/4/4 5/5/5
