g obj_stand1_M
v -0.1810922 1.4900315 2.2139888
v -0.1810922 1.4900314 1.4344068
v 0.18109159 1.4900314 1.4344068
v 0.18109159 1.4900315 2.2139888
v -0.22040263 1.0092417 2.2139885
v -0.22040263 1.4507209 1.4344068
v -0.22040263 1.450721 2.2139885
v -0.22040263 1.0092413 1.4344068
v -0.22040233 0.34461972 -1.4204372
v -0.22040233 -0.04322785 -1.4204372
v 0.22040202 1.0092413 1.4344071
v 0.22040263 0.34461972 -1.4204372
v 0.22040263 -0.04322785 -1.420437
v 0.22040202 1.4507209 1.4344069
v 0.22040202 1.450721 2.2139885
v 0.22040202 1.0092417 2.2139888
v -0.18109159 0.38393015 -1.4204376
v 0.1810922 0.38393015 -1.4204376
v 0.18109159 1.4900314 1.4344068
v -0.1810922 1.4900314 1.4344068
v 0.5035 1.4735678 2.1686735
v 0.5035 1.5241283 2.2019892
v -0.5035 1.5241283 2.2019894
v -0.5035 1.4735678 2.1686738
v 0.5035 0.4302775 -1.376559
v 0.5034997 0.39672825 -1.3449129
v -0.5035 0.3967283 -1.3449125
v -0.5035 0.43027735 -1.376559
v 0.5035 0.30309018 -1.5865926
v 0.5035 0.36559424 -1.5551702
v -0.5035 0.3655944 -1.5551699
v -0.5035 0.30309033 -1.5865923
v -0.1810922 1.4900314 1.4344068
v -0.1810922 1.4900315 2.2139888
v -0.22040263 1.450721 2.2139885
v -0.22040263 1.4507209 1.4344068
v -0.18109159 0.38393015 -1.4204376
v -0.22040233 0.34461972 -1.4204372
v 0.18109159 1.4900314 1.4344068
v 0.1810922 0.38393015 -1.4204376
v 0.22040263 0.34461972 -1.4204372
v 0.22040202 1.4507209 1.4344069
v 0.18109159 1.4900315 2.2139888
v 0.22040202 1.450721 2.2139885
v 0.5035 0.30309018 -1.5865926
v -0.5035 0.30309033 -1.5865923
v -0.5035 -0.29782486 -1.586592
v 0.5035 -0.29782486 -1.5865926
v 0.5035 -0.29782432 2.441407
v -0.5035 -0.29782432 2.4414074
v -0.5035 1.4735677 2.4414077
v 0.5035 1.4735677 2.4414074
v 0.5035 0.0081829885 -1.3449125
v -0.50350016 0.0081829885 -1.3449123
v -0.5035 0.3967283 -1.3449125
v 0.5034997 0.39672825 -1.3449129
v -0.5035 1.5241282 2.407073
v -0.5035 1.5241283 2.2019894
v 0.5035 1.5241283 2.2019892
v 0.5035 1.5241282 2.4070725
v 0.5035 0.4302775 -1.376559
v -0.5035 0.43027735 -1.376559
v -0.5035 0.3655944 -1.5551699
v 0.5035 0.36559424 -1.5551702
v 0.5035 1.2272407 2.197066
v -0.5035 1.2272407 2.1970663
v -0.5035003 1.2272401 1.4274151
v 0.5035 1.2272401 1.4274147
v 0.5035 0.90363437 1.2203813
v -0.5035003 0.90363437 1.2203817
v -0.50350016 0.9036341 0.529576
v 0.5035 0.9036341 0.52957547
v 0.5035 0.5800282 0.32254207
v -0.50350016 0.58002824 0.32254255
v -0.50350016 0.58002824 -0.36826313
v 0.5035 0.5800282 -0.36826357
v -0.5035 1.4735677 2.4414077
v -0.5035 1.5241282 2.407073
v 0.5035 1.5241282 2.4070725
v 0.5035 1.4735677 2.4414074
v -0.5035 0.96354175 2.1686735
v 0.5035 0.96354145 2.1686733
v 0.5035 1.4735678 2.1686735
v -0.5035 1.4735678 2.1686738
v -0.5034997 0.25642216 -1.3682708
v 0.5035 0.2564221 -1.3682711
v 0.5035 0.2564221 -0.57529676
v -0.50350016 0.25642225 -0.5752963
v -0.50350016 0.25642225 -0.5752963
v 0.5035 0.2564221 -0.57529676
v 0.5035 0.5800282 -0.36826357
v -0.50350016 0.58002824 -0.36826313
v -0.50350016 0.58002824 0.32254255
v 0.5035 0.5800282 0.32254207
v 0.5035 0.9036341 0.52957547
v -0.50350016 0.9036341 0.529576
v -0.5035003 0.90363437 1.2203817
v 0.5035 0.90363437 1.2203813
v 0.5035 1.2272401 1.4274147
v -0.5035003 1.2272401 1.4274151
vt 0.060413502 0.46537352
vt 0.060413502 0.44696414
vt 0.041338176 0.44696414
vt 0.041338176 0.46537352
vt 0.004892287 0.4698584
vt 0.015231967 0.47783273
vt 0.004892287 0.47783273
vt 0.015231967 0.4698584
vt 0.056729626 0.47783273
vt 0.056729626 0.4698584
vt 0.015231967 0.4698584
vt 0.056729626 0.47783273
vt 0.056729626 0.4698584
vt 0.015231967 0.47783273
vt 0.004892287 0.47783273
vt 0.004892287 0.4698584
vt 0.060413502 0.37370688
vt 0.041338176 0.37370688
vt 0.041338176 0.44439632
vt 0.060413502 0.44439632
vt 0.02267873 0.48090518
vt 0.022608608 0.4847927
vt 0.022749823 0.4847927
vt 0.022821758 0.48090518
vt 0.050862227 0.4847927
vt 0.050792105 0.48090518
vt 0.050649066 0.48090518
vt 0.050720997 0.4847927
vt 0.051397037 0.48090518
vt 0.05134284 0.4847927
vt 0.05121405 0.4847927
vt 0.051269647 0.48090518
vt 0.017150968 0.4847927
vt 0.004969165 0.4847927
vt 0.004969165 0.48090518
vt 0.017150968 0.48090518
vt 0.05631986 0.4847927
vt 0.05631986 0.48090518
vt 0.017150968 0.4847927
vt 0.05631986 0.4847927
vt 0.05631986 0.48090518
vt 0.017150968 0.48090518
vt 0.004969165 0.4847927
vt 0.004969165 0.48090518
vt 0.011813697 0.13573658
vt 0.012071954 0.13573658
vt 0.012071954 0.11605996
vt 0.011813697 0.11605996
vt 0.2337161 0.11605993
vt 0.23364438 0.11605993
vt 0.23364438 0.17406327
vt 0.2337161 0.17406328
vt 0.012207892 0.4698584
vt 0.012397197 0.4698584
vt 0.012397194 0.47783276
vt 0.012207888 0.47783273
vt 0.011983646 0.49506116
vt 0.011341356 0.48929107
vt 0.0111015495 0.48929107
vt 0.011727641 0.49506116
vt 0.011101536 0.36737686
vt 0.011341366 0.36737686
vt 0.011985265 0.36174423
vt 0.011729195 0.3617442
vt 0.08109505 0.33348787
vt 0.106487535 0.33348787
vt 0.106487535 0.29865646
vt 0.08109504 0.29865646
vt 0.08109504 0.27969444
vt 0.106487535 0.27969444
vt 0.10648755 0.25787428
vt 0.081095055 0.25787428
vt 0.081095055 0.23808922
vt 0.10648755 0.23808922
vt 0.10648755 0.21833184
vt 0.081095055 0.21833183
vt 0.006539815 0.48090518
vt 0.0065568546 0.4847927
vt 0.0065168105 0.4847927
vt 0.0065002004 0.4809052
vt 0.012397187 0.4698584
vt 0.012207897 0.4698584
vt 0.012207897 0.47783273
vt 0.012397187 0.4778327
vt 0.10648754 0.1763537
vt 0.081095055 0.1763537
vt 0.081095055 0.19920522
vt 0.10648755 0.19920522
vt 0.10648755 0.20085126
vt 0.081095055 0.20085126
vt 0.081095055 0.21833183
vt 0.10648755 0.21833184
vt 0.10648755 0.2403937
vt 0.081095055 0.2403937
vt 0.081095055 0.25787428
vt 0.10648755 0.25787428
vt 0.106487535 0.2811759
vt 0.08109504 0.2811759
vt 0.08109504 0.29865646
vt 0.106487535 0.29865646
vn -0 1 -1.9710052E-07
vn -0 0.9829695 -0.1837689
vn -0 0.9829695 -0.18376882
vn -0 1 -1.9710052E-07
vn -1 0 0
vn -1 0 0
vn -1 0 0
vn -1 0 0
vn -1 0 -1.0764582E-07
vn -1 0 -1.0764583E-07
vn 1 0 1.18524994E-07
vn 1 0 2.1529158E-07
vn 1 0 2.1529158E-07
vn 1 0 0
vn 1 0 0
vn 1 0 0
vn -0 0.93245804 -0.36127818
vn -0 0.93245804 -0.36127815
vn -0 0.9829695 -0.18376882
vn -0 0.9829695 -0.1837689
vn -3.8223686E-07 0.55021805 -0.835021
vn -3.8223683E-07 0.55021805 -0.83502096
vn -3.8223686E-07 0.55021805 -0.835021
vn -3.8223683E-07 0.55021805 -0.83502096
vn -0 0.68617386 0.72743756
vn -0 0.68617386 0.72743756
vn -0 0.6861739 0.7274375
vn -0 0.68617386 0.72743756
vn -2.655123E-07 0.23081277 -0.97299826
vn -1.3521607E-07 0.44916114 -0.89345074
vn -1.3521607E-07 0.4491612 -0.89345074
vn -2.6551226E-07 0.23081283 -0.97299814
vn -0.7018806 0.70188105 -0.12135266
vn -0.70710665 0.7071068 -1.3946153E-07
vn -0.70710665 0.7071068 -1.3946155E-07
vn -0.69979584 0.6997964 -0.14342566
vn -0.6819756 0.68197644 -0.26422995
vn -0.6819756 0.68197644 -0.26422995
vn 0.7018811 0.70188063 -0.121352375
vn 0.6819766 0.68197554 -0.26422933
vn 0.6819766 0.68197554 -0.2642293
vn 0.6997964 0.69979584 -0.14342533
vn 0.70710677 0.7071068 -1.3946158E-07
vn 0.70710677 0.7071068 -1.3946158E-07
vn -2.655123E-07 0.23081277 -0.97299826
vn -2.6551226E-07 0.23081283 -0.97299814
vn -3.8146976E-07 -3.8355498E-07 -1
vn -3.8146976E-07 -3.8355498E-07 -1
vn 3.8146976E-07 -2.1685769E-07 1
vn 3.8146976E-07 -2.1685769E-07 1
vn 3.8146976E-07 -2.1685769E-07 1
vn 3.8146976E-07 -2.1685769E-07 1
vn 3.814698E-07 9.886622E-07 1
vn 3.8146982E-07 9.886622E-07 1
vn 3.814698E-07 9.886624E-07 1
vn 3.814698E-07 9.886624E-07 1
vn -0 1 7.492364E-07
vn -0 1 7.4923634E-07
vn -0 1 7.4923634E-07
vn -0 1 7.492364E-07
vn -0 0.94024307 -0.34050417
vn -0 0.94024307 -0.34050417
vn -0 0.94024307 -0.34050414
vn -0 0.94024307 -0.34050414
vn -0 1 -7.9857455E-07
vn -0 1 -7.985745E-07
vn -0 1 -7.985745E-07
vn -0 1 -7.9857455E-07
vn -0 1 -4.4486026E-07
vn -0 1 -4.4486026E-07
vn -0 1 -4.4486026E-07
vn -0 1 -4.448602E-07
vn -0 1 0
vn -0 1 0
vn -0 1 0
vn -0 1 0
vn 2.5298584E-07 0.56179076 0.8272794
vn 2.529858E-07 0.56179076 0.8272794
vn 2.5298584E-07 0.56179076 0.8272794
vn 2.529858E-07 0.56179076 0.8272794
vn -3.8146965E-07 4.519062E-07 -1
vn -3.8146965E-07 4.519062E-07 -1
vn -3.8146965E-07 4.5190617E-07 -1
vn -3.8146965E-07 4.5190617E-07 -1
vn 1.1444092E-07 1 0
vn 1.1444092E-07 1 0
vn 1.1444092E-07 1 0
vn 1.14440915E-07 1 0
vn -3.2397796E-07 0.53891575 -0.8423596
vn -3.239779E-07 0.5389157 -0.8423596
vn -3.2397796E-07 0.53891575 -0.8423596
vn -3.2397787E-07 0.53891575 -0.8423596
vn -3.7197464E-07 0.53891635 -0.8423593
vn -3.7197466E-07 0.5389164 -0.8423593
vn -3.7197464E-07 0.53891635 -0.8423593
vn -3.7197466E-07 0.5389164 -0.8423593
vn -3.8397397E-07 0.5389166 -0.8423592
vn -3.8397397E-07 0.5389166 -0.8423592
vn -3.8397397E-07 0.5389166 -0.8423592
vn -3.8397397E-07 0.5389166 -0.8423592
g obj_stand1_M_0
f 3/3/3 2/2/2 1/1/1
f 4/4/4 3/3/3 1/1/1
f 7/7/7 6/6/6 5/5/5
f 6/6/6 8/8/8 5/5/5
f 6/6/6 9/9/9 8/8/8
f 9/9/9 10/10/10 8/8/8
f 13/13/13 12/12/12 11/11/11
f 12/12/12 14/14/14 11/11/11
f 14/14/14 15/15/15 11/11/11
f 15/15/15 16/16/16 11/11/11
f 19/19/19 18/18/18 17/17/17
f 20/20/20 19/19/19 17/17/17
f 23/23/23 22/22/22 21/21/21
f 24/24/24 23/23/23 21/21/21
f 27/27/27 26/26/26 25/25/25
f 28/28/28 27/27/27 25/25/25
f 31/31/31 30/30/30 29/29/29
f 32/32/32 31/31/31 29/29/29
f 35/35/35 34/34/34 33/33/33
f 36/36/36 35/35/35 33/33/33
f 36/36/36 33/33/33 37/37/37
f 38/38/38 36/36/36 37/37/37
f 41/41/41 40/40/40 39/39/39
f 42/42/42 41/41/41 39/39/39
f 42/42/42 39/39/39 43/43/43
f 44/44/44 42/42/42 43/43/43
f 47/47/47 46/46/46 45/45/45
f 48/48/48 47/47/47 45/45/45
f 51/51/51 50/50/50 49/49/49
f 52/52/52 51/51/51 49/49/49
f 55/55/55 54/54/54 53/53/53
f 56/56/56 55/55/55 53/53/53
f 59/59/59 58/58/58 57/57/57
f 60/60/60 59/59/59 57/57/57
f 63/63/63 62/62/62 61/61/61
f 64/64/64 63/63/63 61/61/61
f 67/67/67 66/66/66 65/65/65
f 68/68/68 67/67/67 65/65/65
f 71/71/71 70/70/70 69/69/69
f 72/72/72 71/71/71 69/69/69
f 75/75/75 74/74/74 73/73/73
f 76/76/76 75/75/75 73/73/73
f 79/79/79 78/78/78 77/77/77
f 80/80/80 79/79/79 77/77/77
f 83/83/83 82/82/82 81/81/81
f 84/84/84 83/83/83 81/81/81
f 87/87/87 86/86/86 85/85/85
f 88/88/88 87/87/87 85/85/85
f 91/91/91 90/90/90 89/89/89
f 92/92/92 91/91/91 89/89/89
f 95/95/95 94/94/94 93/93/93
f 96/96/96 95/95/95 93/93/93
f 99/99/99 98/98/98 97/97/97
f 100/100/100 99/99/99 97/97/97
