g obj_snowmass_3
v 0.49610326 0.033606954 0.4382336
v 0.939858 0.0020743418 0.55537647
v 0.9025337 0.0020743418 0.6918358
v 0.95334077 0.0020743418 0.40717092
v 0.8194988 0.0020743418 0.79677397
v 0.9173516 0.0020743418 0.2589655
v 0.70906836 0.0020743418 0.8526797
v 0.83279127 0.0020743418 0.14060289
v 0.5591475 0.0020743418 0.8742321
v 0.7141415 0.0020743418 0.06495698
v 0.43796834 0.0020743418 0.8658284
v 0.48103303 0.0020743418 0.019081501
v 0.3148862 0.0020743418 0.8175666
v 0.2668796 0.0020743418 0.07475416
v 0.22062866 0.0020743418 0.7557108
v 0.18014266 0.0020743418 0.1476016
v 0.13839935 0.0020743418 0.65794396
v 0.12728992 0.0020743418 0.24559757
v 0.09904924 0.0020743418 0.54214704
v 0.08903392 0.0020743418 0.418731
v -0.19264318 0.033606954 -0.32164484
v 0.37747684 0.0020743418 -0.18691094
v 0.30262396 0.0020743418 -0.011845409
v 0.19244373 0.0020743418 0.12672806
v 0.38686666 0.0020743418 -0.38518
v 0.03436528 0.0020743418 0.21353145
v 0.3294328 0.0020743418 -0.57422733
v -0.11964325 0.0020743418 0.22372563
v 0.21860257 0.0020743418 -0.71041703
v -0.45477566 0.0020743418 0.1473218
v 0.062403813 0.0020743418 -0.8049915
v -0.6912412 0.0020743418 -0.06636694
v -0.088852316 0.0020743418 -0.8657348
v -0.7577141 0.0020743418 -0.29190075
v -0.25247303 0.0020743418 -0.884477
v -0.7566053 0.0020743418 -0.44544333
v -0.39676642 0.0020743418 -0.87668616
v -0.7054668 0.0020743418 -0.5944076
v -0.5413942 0.0020743418 -0.8191314
v -0.64721924 0.0020743418 -0.7110313
v 0.7814102 0.0020743418 -0.05411046
v 0.70573837 0.0020743418 0.0741579
v 0.53278446 0.033606954 -0.11966764
v 0.7803884 0.0020743418 -0.13722144
v 0.5781049 0.0020743418 0.113827005
v 0.750891 0.0020743418 -0.21836257
v 0.4410487 0.0020743418 0.08257954
v 0.64586467 0.0020743418 -0.31536373
v 0.34434125 0.0020743418 -0.0048125926
v 0.52378315 0.0020743418 -0.3393918
v 0.31848952 0.0020743418 -0.13008894
v 0.40562472 0.0020743418 -0.3126655
v 0.3385238 0.0020743418 -0.22076195
v -0.29207492 0.033606954 0.5162743
v 0.016303651 0.0020743418 0.59726447
v -0.018305501 0.0020743418 0.6842382
v 0.011485902 0.0020743418 0.49547175
v -0.07767169 0.0020743418 0.7565579
v -0.015532067 0.0020743418 0.39800224
v -0.14985897 0.0020743418 0.7914741
v -0.070155874 0.0020743418 0.3278072
v -0.23617522 0.0020743418 0.80582017
v -0.15049553 0.0020743418 0.27057713
v -0.32221305 0.0020743418 0.7952872
v -0.22088937 0.0020743418 0.24588652
v -0.40638366 0.0020743418 0.7670177
v -0.29897887 0.0020743418 0.24077527
v -0.4778064 0.0020743418 0.7233322
v -0.37651092 0.0020743418 0.25028124
v -0.5264806 0.0020743418 0.65848744
v -0.44799322 0.0020743418 0.2800355
v -0.5538578 0.0020743418 0.58465993
v -0.50230324 0.0020743418 0.32498035
v -0.5585861 0.0020743418 0.50290763
v -0.53370625 0.0020743418 0.39030603
v -0.72965145 0.033606954 0.11792664
v -0.5157058 0.002074342 0.02663769
v -0.49830335 0.0020743413 0.1717162
v -0.62237316 0.0020743418 -0.07127411
v -0.56793773 0.002074341 0.29133585
v -0.74076635 0.0020743418 -0.09457448
v -0.688085 0.0020743418 0.34494436
v -0.8553544 0.0020743418 -0.06865699
v -0.8210005 0.0020743418 0.31464466
v -0.9204259 0.0020743418 0.020469649
v -0.9147842 0.0020743418 0.22989292
v -0.9398566 0.0020743418 0.10840147
vt 0.2641105 0.7491408
vt 0.26235518 0.735801
vt 0.26262498 0.735801
vt 0.26235455 0.735801
vt 0.26289475 0.735801
vt 0.26235393 0.735801
vt 0.26334983 0.735801
vt 0.26283783 0.735801
vt 0.26380485 0.735801
vt 0.2633217 0.735801
vt 0.26429355 0.735801
vt 0.26419225 0.735801
vt 0.2647822 0.735801
vt 0.2650348 0.735801
vt 0.265127 0.735801
vt 0.26527402 0.735801
vt 0.2654718 0.735801
vt 0.26551327 0.735801
vt 0.26556396 0.735801
vt 0.26565614 0.735801
vt 0.26411057 0.7491408
vt 0.26235518 0.735801
vt 0.26262498 0.735801
vt 0.26289475 0.735801
vt 0.26235455 0.735801
vt 0.26334983 0.735801
vt 0.26235393 0.735801
vt 0.26380485 0.735801
vt 0.26283783 0.735801
vt 0.2647822 0.735801
vt 0.2633217 0.735801
vt 0.2654718 0.735801
vt 0.263757 0.735801
vt 0.26565614 0.735801
vt 0.26419225 0.735801
vt 0.2655847 0.735801
vt 0.2646135 0.735801
vt 0.26551327 0.735801
vt 0.2650348 0.735801
vt 0.26527402 0.735801
vt 0.26235518 0.735801
vt 0.26289475 0.735801
vt 0.2641105 0.7491408
vt 0.26235455 0.735801
vt 0.26380485 0.735801
vt 0.26235393 0.735801
vt 0.2647822 0.735801
vt 0.2633217 0.735801
vt 0.2654718 0.735801
vt 0.26419225 0.735801
vt 0.26565614 0.735801
vt 0.2650348 0.735801
vt 0.26551327 0.735801
vt 0.2641105 0.7491408
vt 0.26235518 0.735801
vt 0.26262498 0.735801
vt 0.26235455 0.735801
vt 0.26289475 0.735801
vt 0.26235393 0.735801
vt 0.26334983 0.735801
vt 0.26283783 0.735801
vt 0.26380485 0.735801
vt 0.2633217 0.735801
vt 0.26429355 0.735801
vt 0.263757 0.735801
vt 0.2647822 0.735801
vt 0.26419225 0.735801
vt 0.265127 0.735801
vt 0.2646135 0.735801
vt 0.2654718 0.735801
vt 0.2650348 0.735801
vt 0.26556396 0.735801
vt 0.26527402 0.735801
vt 0.26565614 0.735801
vt 0.26551327 0.735801
vt 0.2641105 0.7491408
vt 0.26235393 0.735801
vt 0.26235518 0.735801
vt 0.2633217 0.735801
vt 0.26289475 0.735801
vt 0.26419225 0.735801
vt 0.26380485 0.735801
vt 0.2650348 0.735801
vt 0.2647822 0.735801
vt 0.26551327 0.735801
vt 0.2654718 0.735801
vt 0.26565614 0.735801
vn -0 1 0
vn -0 1 0
vn -0 1 0
vn -0 1 0
vn -0 1 0
vn -0 1 0
vn -0 1 0
vn -0 1 0
vn -0 1 0
vn -0 1 0
vn -0 1 0
vn -0 1 0
vn -0 1 0
vn -0 1 0
vn -0 1 0
vn -0 1 0
vn -0 1 0
vn -0 1 0
vn -0 1 0
vn -0 1 0
vn -0 1 0
vn -0 1 0
vn -0 1 0
vn -0 1 0
vn -0 1 0
vn -0 1 0
vn -0 1 0
vn -0 1 0
vn -0 1 0
vn -0 1 0
vn -0 1 0
vn -0 1 0
vn -0 1 0
vn -0 1 0
vn -0 1 0
vn -0 1 0
vn -0 1 0
vn -0 1 0
vn -0 1 0
vn -0 1 0
vn -0 1 0
vn -0 1 0
vn -0 1 0
vn -0 1 0
vn -0 1 0
vn -0 1 0
vn -0 1 0
vn -0 1 0
vn -0 1 0
vn -0 1 0
vn -0 1 0
vn -0 1 0
vn -0 1 0
vn -0 1 0
vn -0 1 0
vn -0 1 0
vn -0 1 0
vn -0 1 0
vn -0 1 0
vn -0 1 0
vn -0 1 0
vn -0 1 0
vn -0 1 0
vn -0 1 0
vn -0 1 0
vn -0 1 0
vn -0 1 0
vn -0 1 0
vn -0 1 0
vn -0 1 0
vn -0 1 0
vn -0 1 0
vn -0 1 0
vn -0 1 0
vn -0 1 0
vn -0 1 0
vn -0 1 0
vn -0 1 0
vn -0 1 0
vn -0 1 0
vn -0 1 0
vn -0 1 0
vn -0 1 0
vn -0 1 0
vn -0 1 0
vn -0 1 0
vn -0 1 0
g obj_snowmass_3_0
f 3/3/3 2/2/2 1/1/1
f 2/2/2 4/4/4 1/1/1
f 5/5/5 3/3/3 1/1/1
f 6/6/6 1/1/1 4/4/4
f 7/7/7 5/5/5 1/1/1
f 6/6/6 8/8/8 1/1/1
f 9/9/9 7/7/7 1/1/1
f 8/8/8 10/10/10 1/1/1
f 9/9/9 1/1/1 11/11/11
f 12/12/12 1/1/1 10/10/10
f 11/11/11 1/1/1 13/13/13
f 14/14/14 1/1/1 12/12/12
f 15/15/15 13/13/13 1/1/1
f 14/14/14 16/16/16 1/1/1
f 17/17/17 15/15/15 1/1/1
f 18/18/18 1/1/1 16/16/16
f 19/19/19 17/17/17 1/1/1
f 20/20/20 1/1/1 18/18/18
f 20/20/20 19/19/19 1/1/1
f 23/23/23 22/22/22 21/21/21
f 24/24/24 23/23/23 21/21/21
f 22/22/22 25/25/25 21/21/21
f 26/26/26 24/24/24 21/21/21
f 27/27/27 21/21/21 25/25/25
f 28/28/28 26/26/26 21/21/21
f 27/27/27 29/29/29 21/21/21
f 28/28/28 21/21/21 30/30/30
f 29/29/29 31/31/31 21/21/21
f 21/21/21 32/32/32 30/30/30
f 31/31/31 33/33/33 21/21/21
f 21/21/21 34/34/34 32/32/32
f 33/33/33 35/35/35 21/21/21
f 34/34/34 21/21/21 36/36/36
f 35/35/35 37/37/37 21/21/21
f 38/38/38 36/36/36 21/21/21
f 37/37/37 39/39/39 21/21/21
f 38/38/38 21/21/21 40/40/40
f 39/39/39 40/40/40 21/21/21
f 43/43/43 42/42/42 41/41/41
f 41/41/41 44/44/44 43/43/43
f 45/45/45 42/42/42 43/43/43
f 46/46/46 43/43/43 44/44/44
f 43/43/43 47/47/47 45/45/45
f 43/43/43 46/46/46 48/48/48
f 43/43/43 49/49/49 47/47/47
f 43/43/43 48/48/48 50/50/50
f 51/51/51 49/49/49 43/43/43
f 50/50/50 52/52/52 43/43/43
f 53/53/53 51/51/51 43/43/43
f 52/52/52 53/53/53 43/43/43
f 56/56/56 55/55/55 54/54/54
f 55/55/55 57/57/57 54/54/54
f 58/58/58 56/56/56 54/54/54
f 59/59/59 54/54/54 57/57/57
f 60/60/60 58/58/58 54/54/54
f 59/59/59 61/61/61 54/54/54
f 62/62/62 60/60/60 54/54/54
f 61/61/61 63/63/63 54/54/54
f 62/62/62 54/54/54 64/64/64
f 63/63/63 65/65/65 54/54/54
f 64/64/64 54/54/54 66/66/66
f 65/65/65 67/67/67 54/54/54
f 68/68/68 66/66/66 54/54/54
f 67/67/67 69/69/69 54/54/54
f 70/70/70 68/68/68 54/54/54
f 69/69/69 71/71/71 54/54/54
f 72/72/72 70/70/70 54/54/54
f 71/71/71 73/73/73 54/54/54
f 74/74/74 72/72/72 54/54/54
f 75/75/75 54/54/54 73/73/73
f 75/75/75 74/74/74 54/54/54
f 78/78/78 77/77/77 76/76/76
f 76/76/76 77/77/77 79/79/79
f 76/76/76 80/80/80 78/78/78
f 76/76/76 79/79/79 81/81/81
f 82/82/82 80/80/80 76/76/76
f 81/81/81 83/83/83 76/76/76
f 76/76/76 84/84/84 82/82/82
f 83/83/83 85/85/85 76/76/76
f 76/76/76 86/86/86 84/84/84
f 85/85/85 87/87/87 76/76/76
f 87/87/87 86/86/86 76/76/76
