g obj_battle_pipe3
v -0.5428612 0.69347626 0.37033877
v -0.5346314 0.6815258 0.41538426
v -0.55534714 0.6716743 0.45677736
v -0.59709483 0.66768295 0.47870868
v -0.5768888 0.70295995 0.33884683
v -0.6439269 0.67107844 0.4727997
v -0.6237214 0.7063542 0.3329377
v -0.6779542 0.6805618 0.44130787
v -0.6654681 0.7023653 0.35486838
v -0.6861829 0.69251317 0.39626208
v -0.8244787 0.9432724 0.41648075
v -0.7994947 0.9069896 0.5532512
v -0.74346095 0.6225247 0.4612214
v -0.7594155 0.64569604 0.37387472
v -0.73410225 0.51359767 0.40055677
v -0.7192471 0.66479975 0.29360974
v -0.7615781 0.97318554 0.29079476
v -0.7509497 0.5323474 0.32229653
v -0.72388643 0.4991789 0.39161554
v -0.63829863 0.6725385 0.25108373
v -0.64642763 0.570159 0.21227838
v -0.6348237 0.98530316 0.22420639
v -0.49262705 0.97499496 0.24214973
v -0.7174602 0.55395204 0.25038016
v -0.5474879 0.66595554 0.2625414
v -0.38930693 0.94619954 0.33776754
v -0.7085122 0.53646106 0.2528746
v -0.73944914 0.5165017 0.319315
v -0.74801856 0.49951568 0.3138009
v -0.73117125 0.48076475 0.39206114
v -0.6658576 0.2511366 0.2923467
v -0.68077606 0.26683134 0.2130293
v -0.6545639 0.30899608 0.14749025
v -0.71453166 0.5211197 0.24188374
v -0.597235 0.3615249 0.12076486
v -0.48150313 0.647566 0.3236071
v -0.36432692 0.90991366 0.47454184
v -0.46554902 0.62439346 0.41095528
v -0.48738495 0.54729533 0.35551926
v -0.64288694 0.5514336 0.21767385
v -0.64349633 0.53732705 0.20378166
v -0.5649809 0.5747773 0.22254476
v -0.56764394 0.5557003 0.22715797
v -0.5620516 0.54194593 0.2140485
v -0.53068334 0.40435314 0.1430608
v -0.48033458 0.42112133 0.2058614
v -0.5013025 0.5332121 0.26876232
v -0.46541536 0.40542597 0.28517908
v -0.48445424 0.5144627 0.347023
v -0.5115226 0.54763216 0.27770588
v -0.49595726 0.5303099 0.3500067
v -0.5042329 0.56604445 0.2772578
v -0.49262705 0.97499496 0.24214973
v -0.6225289 0.96744525 0.29152185
v -0.6348237 0.98530316 0.22420639
v -0.5235847 0.9602732 0.3040061
v -0.4516925 0.94023675 0.37053975
v -0.38930693 0.94619954 0.33776754
v -0.43430832 0.91498834 0.46571153
v -0.36432692 0.90991366 0.47454184
v -0.42722294 0.880003 0.6002251
v -0.47807506 0.89417404 0.55316454
v -0.5768888 0.70295995 0.33884683
v -0.6237214 0.7063542 0.3329377
v -0.5428612 0.69347626 0.37033877
v -0.5346314 0.6815258 0.41538426
v -0.55534714 0.6716743 0.45677736
v -0.566275 0.88574266 0.59949857
v -0.59709483 0.66768295 0.47870868
v -0.6439269 0.67107844 0.4727997
v -0.59709483 0.66768295 0.47870868
v -0.566275 0.88574266 0.59949857
v -0.66521716 0.89291716 0.587014
v -0.73711115 0.91295207 0.52048004
v -0.6961732 0.8781929 0.64887166
v -0.6779542 0.6805618 0.44130787
v -0.7544964 0.9382017 0.4253083
v -0.7994947 0.9069896 0.5532512
v -0.6861829 0.69251317 0.39626208
v -0.8244787 0.9432724 0.41648075
v -0.6654681 0.7023653 0.35486838
v -0.7615781 0.97318554 0.29079476
v -0.7107285 0.9590138 0.3378562
v -0.6237214 0.7063542 0.3329377
v -0.6348237 0.98530316 0.22420639
v -0.6225289 0.96744525 0.29152185
v -0.6961732 0.8781929 0.64887166
v -0.66521716 0.89291716 0.587014
v -0.566275 0.88574266 0.59949857
v -0.5555025 0.86785835 0.66715395
v -0.47807506 0.89417404 0.55316454
v -0.42722294 0.880003 0.6002251
v -0.68077606 0.26683134 0.2130293
v -0.6658576 0.2511366 0.2923467
v -0.6488751 0.24451587 0.28459597
v -0.66265637 0.25901455 0.21132295
v -0.6460191 0.22494839 0.28343418
v -0.6545639 0.30899608 0.14749025
v -0.6609371 0.24064374 0.20411633
v -0.343637 0.11381761 0.18344237
v -0.35974905 0.13122591 0.10471764
v -0.34297565 0.18328181 0.04332623
v -0.63472617 0.28280786 0.13857682
v -0.29972625 0.25010064 0.0227142
v -0.63844156 0.29796818 0.15077235
v -0.597235 0.3615249 0.12076486
v -0.5773982 0.33533642 0.11185174
v -0.58547664 0.34649676 0.12608182
v -0.52399623 0.38606316 0.14667971
v -0.53068334 0.40435314 0.1430608
v -0.510845 0.37816495 0.13414645
v -0.24651793 0.30616173 0.050757956
v -0.47747904 0.40155384 0.20469822
v -0.48033458 0.42112133 0.2058614
v -0.46049544 0.39493373 0.19694766
v -0.20367818 0.3300491 0.11674292
v -0.18756704 0.3126411 0.19546965
v -0.44557667 0.37923807 0.27626643
v -0.4636975 0.3870555 0.27797478
v -0.46541536 0.40542597 0.28517908
v -0.35974905 0.13122591 0.10471764
v -0.343637 0.11381761 0.18344237
v -0.32532933 0.1121612 0.17606105
v -0.3402123 0.12824468 0.103333354
v -0.3176817 0.094035015 0.1737579
v -0.34297565 0.18328181 0.04332623
v -0.33379346 0.111443624 0.09503424
v -0.07825708 -0.088499404 0.08439556
v -0.09436822 -0.07109172 0.005671904
v -0.077595435 -0.019036135 -0.0557192
v -0.31702113 0.1634986 0.033640064
v -0.034345727 0.04778302 -0.076332465
v -0.32471776 0.17633563 0.046613853
v -0.29972625 0.25010064 0.0227142
v -0.27377114 0.23031837 0.013029261
v -0.28476107 0.2380657 0.027572801
v -0.2356065 0.28985667 0.05348074
v -0.24651793 0.30616173 0.050757956
v -0.22056252 0.28637913 0.04107271
v 0.018860968 0.103843495 -0.048288245
v -0.19602887 0.31192505 0.11444284
v -0.20367818 0.3300491 0.11674292
v -0.17772321 0.31026712 0.10705752
v 0.061701644 0.12773116 0.017698098
v 0.07781317 0.11032317 0.096421905
v -0.16161162 0.2928582 0.18578425
v -0.18114452 0.29584342 0.18716945
v -0.18756704 0.3126411 0.19546965
v 0.08460207 0.16311169 0.0067848344
v 0.14467113 0.117315434 -0.01563496
v 0.164733 0.09873351 0.07607094
v 0.104664475 0.14452976 0.09849104
v 0.02774144 0.1314057 -0.080796935
v 0.087812714 0.08561098 -0.10321427
v 0.08460207 0.16311169 0.0067848344
v 0.14467113 0.117315434 -0.01563496
v 0.017194107 0.011205518 -0.14043559
v 0.087812714 0.08561098 -0.10321427
v 0.02774144 0.1314057 -0.080796935
v -0.042876095 0.05699931 -0.118016414
v 0.017194107 0.011205518 -0.14043559
v -0.042876095 0.05699931 -0.118016414
v -0.100279056 -0.03168479 -0.090659805
v -0.04021047 -0.07748104 -0.11308022
v -0.12254074 -0.10077529 -0.009177258
v -0.06247154 -0.14657155 -0.031597976
v -0.04021047 -0.07748104 -0.11308022
v -0.100279056 -0.03168479 -0.090659805
v -0.045039725 -0.16850287 0.059906326
v -0.06247154 -0.14657155 -0.031597976
v -0.12254074 -0.10077529 -0.009177258
v -0.10510816 -0.1227063 0.0823255
v 0.104664475 0.14452976 0.09849104
v 0.07781317 0.11032317 0.096421905
v 0.061701644 0.12773116 0.017698098
v 0.08460207 0.16311169 0.0067848344
v 0.018860968 0.103843495 -0.048288245
v 0.02774144 0.1314057 -0.080796935
v -0.034345727 0.04778302 -0.076332465
v -0.042876095 0.05699931 -0.118016414
v -0.100279056 -0.03168479 -0.090659805
v -0.077595435 -0.019036135 -0.0557192
v -0.12254074 -0.10077529 -0.009177258
v -0.09436822 -0.07109172 0.005671904
v -0.10510816 -0.1227063 0.0823255
v -0.07825708 -0.088499404 0.08439556
vt 0.8183841 0.3046532
vt 0.81850773 0.29990938
vt 0.81569976 0.29600185
vt 0.8110325 0.2944231
vt 0.815376 0.3084213
vt 0.8062888 0.29577625
vt 0.8106323 0.3097745
vt 0.80328065 0.2995444
vt 0.805965 0.30819577
vt 0.80315703 0.3042882
vt 0.8797728 0.42661256
vt 0.8904712 0.42661256
vt 0.8904712 0.4112191
vt 0.8797728 0.4112191
vt 0.8904712 0.39874125
vt 0.86957014 0.4112191
vt 0.8695701 0.42661256
vt 0.8797728 0.39874125
vt 0.8904712 0.39302742
vt 0.8600068 0.4112191
vt 0.8600068 0.39874125
vt 0.8600068 0.42661256
vt 0.85083175 0.42661256
vt 0.86957014 0.39874125
vt 0.85083175 0.4112191
vt 0.84193385 0.42661256
vt 0.86957014 0.39302742
vt 0.8797728 0.39302742
vt 0.8797728 0.3879889
vt 0.8904712 0.3879889
vt 0.8904712 0.36327615
vt 0.8797728 0.36327615
vt 0.86957014 0.36327615
vt 0.86957014 0.3879889
vt 0.8600068 0.36327615
vt 0.84193385 0.4112191
vt 0.83216304 0.42661256
vt 0.83216304 0.4112191
vt 0.83216304 0.39874125
vt 0.8600068 0.39302742
vt 0.8600068 0.3879889
vt 0.85083175 0.39874125
vt 0.85083175 0.39302742
vt 0.85083175 0.3879889
vt 0.85083175 0.36327615
vt 0.84193385 0.36327615
vt 0.84193385 0.3879889
vt 0.83216304 0.36327615
vt 0.83216304 0.3879889
vt 0.84193385 0.39302742
vt 0.83216304 0.39302742
vt 0.84193385 0.39874125
vt 0.8891734 0.42941105
vt 0.9010911 0.43938345
vt 0.9010911 0.42941105
vt 0.8891734 0.43938345
vt 0.8721378 0.43938345
vt 0.8721378 0.42941105
vt 0.85306734 0.43938345
vt 0.85306734 0.42941105
vt 0.83552086 0.42941105
vt 0.83552086 0.43938345
vt 0.8891734 0.4558591
vt 0.9010911 0.4558591
vt 0.8721378 0.4558591
vt 0.85306734 0.4558591
vt 0.83552086 0.4558591
vt 0.822355 0.43938345
vt 0.822355 0.4558591
vt 0.83552086 0.4558591
vt 0.822355 0.4558591
vt 0.822355 0.43938345
vt 0.83552086 0.43938345
vt 0.85306734 0.43938345
vt 0.83552086 0.42941105
vt 0.85306734 0.4558591
vt 0.8721378 0.43938345
vt 0.85306734 0.42941105
vt 0.8721378 0.4558591
vt 0.8721378 0.42941105
vt 0.8891734 0.4558591
vt 0.8891734 0.42941105
vt 0.8891734 0.43938345
vt 0.9010911 0.4558591
vt 0.9010911 0.42941105
vt 0.9010911 0.43938345
vt 0.83552086 0.42941105
vt 0.83552086 0.43938345
vt 0.83552086 0.43938345
vt 0.83552086 0.42941105
vt 0.83552086 0.43938345
vt 0.83552086 0.42941105
vt 0.8797728 0.39874125
vt 0.8904712 0.39874125
vt 0.8904712 0.39302742
vt 0.8797728 0.39302742
vt 0.8904712 0.3879889
vt 0.86957014 0.39874125
vt 0.8797728 0.3879889
vt 0.8904712 0.36327615
vt 0.8797728 0.36327615
vt 0.86957014 0.36327615
vt 0.86957014 0.3879889
vt 0.8600068 0.36327615
vt 0.86957014 0.39302742
vt 0.8600068 0.39874125
vt 0.8600068 0.3879889
vt 0.8600068 0.39302742
vt 0.85083175 0.39302742
vt 0.85083175 0.39874125
vt 0.85083175 0.3879889
vt 0.85083175 0.36327615
vt 0.84193385 0.39302742
vt 0.84193385 0.39874125
vt 0.84193385 0.3879889
vt 0.84193385 0.36327615
vt 0.83216304 0.36327615
vt 0.83216304 0.3879889
vt 0.83216304 0.39302742
vt 0.83216304 0.39874125
vt 0.8797728 0.39874125
vt 0.8904712 0.39874125
vt 0.8904712 0.39302742
vt 0.8797728 0.39302742
vt 0.8904712 0.3879889
vt 0.86957014 0.39874125
vt 0.8797728 0.3879889
vt 0.8904712 0.35303295
vt 0.8797728 0.35303295
vt 0.86957014 0.35303295
vt 0.86957014 0.3879889
vt 0.8600068 0.35303295
vt 0.86957014 0.39302742
vt 0.8600068 0.39874125
vt 0.8600068 0.3879889
vt 0.8600068 0.39302742
vt 0.85083175 0.39302742
vt 0.85083175 0.39874125
vt 0.85083175 0.3879889
vt 0.85083175 0.35303295
vt 0.84193385 0.39302742
vt 0.84193385 0.39874125
vt 0.84193385 0.3879889
vt 0.84193385 0.35303295
vt 0.83216304 0.35303295
vt 0.83216304 0.3879889
vt 0.83216304 0.39302742
vt 0.83216304 0.39874125
vt 0.83634365 0.31813923
vt 0.83634365 0.31179118
vt 0.8233511 0.31179118
vt 0.8233511 0.31813923
vt 0.84817547 0.31813923
vt 0.84817547 0.31179118
vt 0.83634365 0.31813923
vt 0.83634365 0.31179118
vt 0.8603759 0.31179118
vt 0.84817547 0.31179118
vt 0.84817547 0.31813923
vt 0.8603759 0.31813923
vt 0.8603759 0.31179118
vt 0.8603759 0.31813923
vt 0.87309253 0.31813923
vt 0.87309253 0.31179118
vt 0.8866593 0.31813923
vt 0.8866593 0.31179118
vt 0.87309253 0.31179118
vt 0.87309253 0.31813923
vt 0.90088534 0.31179118
vt 0.8866593 0.31179118
vt 0.8866593 0.31813923
vt 0.90088534 0.31813923
vt 0.8233511 0.31813923
vt 0.8233511 0.3224674
vt 0.83634365 0.3224674
vt 0.83634365 0.31813923
vt 0.84817547 0.3224674
vt 0.84817547 0.31813923
vt 0.8603759 0.3224674
vt 0.8603759 0.31813923
vt 0.87309253 0.31813923
vt 0.87309253 0.3224674
vt 0.8866593 0.31813923
vt 0.8866593 0.3224674
vt 0.90088534 0.31813923
vt 0.90088534 0.3224674
vn -0.638277 0.5890614 0.49558985
vn -0.7224754 0.6835671 0.10375572
vn -0.55650365 0.79031897 -0.25631967
vn -0.20023017 0.87262213 -0.44546446
vn -0.3359863 0.54459524 0.768459
vn 0.20713936 0.8949336 -0.3952051
vn 0.07211815 0.5677873 0.82001007
vn 0.5097008 0.8515361 -0.12284706
vn 0.4271848 0.64993113 0.62857187
vn 0.5934912 0.75750226 0.27195323
vn -0.8569788 0.5135768 0.042734474
vn -0.6080584 0.7324167 0.306318
vn -0.9642811 -0.21322511 0.15715341
vn -0.979427 -0.13882843 -0.14645636
vn -0.92515177 -0.36266255 0.11211649
vn -0.7278938 0.02136376 -0.685357
vn -0.65239924 0.64476883 -0.39830688
vn -0.93633676 -0.29837623 -0.18505432
vn -0.97489387 -0.13311343 0.17850167
vn -0.19683853 0.14343272 -0.96988744
vn -0.17549685 -0.026706044 -0.9841176
vn -0.21549019 0.74296445 -0.6336937
vn 0.28181842 0.7718545 -0.56992906
vn -0.6934195 -0.14112498 -0.70657843
vn 0.41428414 0.1785313 -0.8924658
vn 0.6559885 0.71777356 -0.23340988
vn -0.7379498 0.10645708 -0.66640604
vn -0.9905268 -0.056089148 -0.12534207
vn -0.99541384 0.02135754 -0.093248546
vn -0.9782065 -0.08545954 0.18923184
vn -0.60813224 -0.7922124 -0.050741274
vn -0.60362035 -0.71732384 -0.3479784
vn -0.44250593 -0.37574857 -0.81424904
vn -0.7636155 0.22923724 -0.6036072
vn -0.046539623 0.03471398 -0.99831307
vn 0.8682281 0.11215249 -0.48332378
vn 0.4669666 0.8774699 0.10949298
vn 0.9789013 0.05340849 -0.19722994
vn 0.96663105 -0.10375834 -0.2342192
vn -0.20486486 0.22889929 -0.9516488
vn -0.25596803 0.442508 -0.85945743
vn 0.41695273 0.010681313 -0.90886545
vn 0.40817183 0.26130626 -0.8747085
vn 0.32917705 0.575583 -0.74856305
vn 0.4439773 0.3493842 -0.825115
vn 0.81166 0.45045605 -0.3718837
vn 0.7507233 0.5721977 -0.33015805
vn 0.9025115 0.4207397 -0.091929525
vn 0.8568151 0.5119527 -0.061419073
vn 0.8636667 0.19722424 -0.46387753
vn 0.9745249 0.13578509 -0.17850399
vn 0.85766274 -0.053413156 -0.51143104
vn 0.28181842 0.7718545 -0.56992906
vn 0.030520735 0.71342224 0.70006937
vn -0.21549019 0.74296445 -0.6336937
vn -0.2819494 0.6966707 0.6596624
vn -0.51533407 0.72856253 0.45125103
vn 0.6559885 0.71777356 -0.23340988
vn -0.5801185 0.8001896 0.15218097
vn 0.4669666 0.8774699 0.10949298
vn -0.08543695 0.9642169 0.25097102
vn -0.5871483 0.75234336 -0.2987246
vn -0.3359863 0.54459524 0.768459
vn 0.07211815 0.5677873 0.82001007
vn -0.638277 0.5890614 0.49558985
vn -0.7224754 0.6835671 0.10375572
vn -0.55650365 0.79031897 -0.25631967
vn -0.22128578 0.49064404 -0.8427936
vn -0.20023017 0.87262213 -0.44546446
vn 0.20713936 0.8949336 -0.3952051
vn -0.20023017 0.87262213 -0.44546446
vn -0.22128578 0.49064404 -0.8427936
vn 0.22818464 0.8654227 -0.44606662
vn 0.3663007 0.9302512 -0.02136754
vn -0.085453264 0.9644011 0.250256
vn 0.5097008 0.8515361 -0.12284706
vn 0.43180788 0.85827535 0.27731833
vn -0.6080584 0.7324167 0.306318
vn 0.5934912 0.75750226 0.27195323
vn -0.8569788 0.5135768 0.042734474
vn 0.4271848 0.64993113 0.62857187
vn -0.65239924 0.64476883 -0.39830688
vn 0.30367208 0.7752031 0.55393445
vn 0.07211815 0.5677873 0.82001007
vn -0.21549019 0.74296445 -0.6336937
vn 0.030520735 0.71342224 0.70006937
vn -0.085453264 0.9644011 0.250256
vn -0.085453264 0.9644011 0.250256
vn -0.08543695 0.9642169 0.25097102
vn -0.08507455 0.96443266 0.25026414
vn -0.08507455 0.96443266 0.25026414
vn -0.08543695 0.9642169 0.25097102
vn -0.60362035 -0.71732384 -0.3479784
vn -0.60813224 -0.7922124 -0.050741274
vn -0.61794657 -0.7848303 -0.04672744
vn -0.6471088 -0.680876 -0.34301344
vn -0.7817827 -0.623138 0.022690766
vn -0.44250593 -0.37574857 -0.81424904
vn -0.8194421 -0.5115791 -0.25846002
vn -0.41427195 -0.9029298 -0.11443976
vn -0.43377456 -0.80641246 -0.40191865
vn -0.3116335 -0.42873448 -0.84798074
vn -0.6974165 -0.1331501 -0.7041884
vn 0.0026702532 0.058745574 -0.99826944
vn -0.5199617 -0.2880199 -0.80416685
vn -0.046539623 0.03471398 -0.99831307
vn -0.38411218 0.34940094 -0.85462093
vn -0.1960817 0.21057802 -0.95771027
vn 0.20408714 0.6324794 -0.7472069
vn 0.4439773 0.3493842 -0.825115
vn 0.0038151396 0.7595944 -0.6503859
vn 0.3898628 0.46825498 -0.792934
vn 0.5271546 0.81209266 -0.2502268
vn 0.81166 0.45045605 -0.3718837
vn 0.31515136 0.9336263 -0.17035723
vn 0.70058495 0.64088356 -0.31376588
vn 0.7816344 0.62332386 -0.022697536
vn 0.41427195 0.9029298 0.11443976
vn 0.6167816 0.7857576 0.046535164
vn 0.9025115 0.4207397 -0.091929525
vn -0.43377456 -0.80641246 -0.40191865
vn -0.41427195 -0.9029298 -0.11443976
vn -0.6179928 -0.7847937 -0.046730936
vn -0.6469627 -0.68148524 -0.34207773
vn -0.78222835 -0.6225782 0.022698162
vn -0.3116335 -0.42873448 -0.84798074
vn -0.81940204 -0.5116494 -0.25844732
vn -0.6179928 -0.7847937 -0.046730936
vn -0.6471845 -0.6818517 -0.34092584
vn -0.52062625 -0.29028323 -0.8029222
vn -0.696765 -0.13332567 -0.70479983
vn -0.1960738 0.21076027 -0.95767176
vn -0.52028763 -0.29084992 -0.80293655
vn 0.0026702532 0.058745574 -0.99826944
vn -0.38243163 0.3519134 -0.85434365
vn -0.1960738 0.21076027 -0.95767176
vn 0.20408714 0.6324794 -0.7472069
vn 0.3898628 0.46825498 -0.792934
vn 0.004005189 0.7596509 -0.65031874
vn 0.20414428 0.63247174 -0.74719787
vn 0.5252359 0.81321925 -0.25060275
vn 0.70058495 0.64088356 -0.31376588
vn 0.3152721 0.9336098 -0.17022404
vn 0.5257204 0.81292355 -0.25054574
vn 0.6179242 0.7847671 0.04806448
vn 0.41427195 0.9029298 0.11443976
vn 0.618 0.78470737 0.048066664
vn 0.7816344 0.62332386 -0.022697536
vn 0.61294925 0.78967166 0.026680032
vn 0.61254746 0.79002696 0.025355918
vn 0.61300915 0.78962606 0.026654646
vn 0.612924 0.7897345 0.025367634
vn 0.3830079 0.760723 -0.5240282
vn 0.38376093 0.75960624 -0.52509624
vn 0.38373902 0.75965834 -0.5250366
vn 0.38376808 0.7596205 -0.52507037
vn 0.004660994 0.44507128 -0.895483
vn 0.0046729054 0.4444982 -0.89576745
vn 0.004649087 0.44717064 -0.8944366
vn 0.0040053665 0.4450725 -0.8954856
vn -0.37668145 -0.042665455 -0.92535985
vn -0.37725914 -0.042675294 -0.925124
vn -0.37725946 -0.04265149 -0.9251249
vn -0.37723863 -0.04267567 -0.9251323
vn -0.61501944 -0.5096393 -0.60168004
vn -0.614529 -0.5092466 -0.6025131
vn -0.61417305 -0.5115844 -0.6008935
vn -0.6141582 -0.5115919 -0.6009023
vn -0.62090033 -0.780822 -0.06928031
vn -0.6209466 -0.7807848 -0.06928547
vn -0.62169486 -0.78019404 -0.069230184
vn -0.6209445 -0.78078216 -0.06933293
vn -0.7637475 0.5794867 0.28440246
vn -0.7625498 0.58125824 0.28400114
vn -0.7625601 0.58126616 0.28395733
vn -0.76374364 0.5794838 0.2844189
vn -0.7625651 0.5812608 0.28395474
vn -0.7625498 0.58125824 0.28400114
vn -0.7625601 0.58126616 0.28395733
vn -0.76374626 0.57949734 0.28438428
vn -0.7625498 0.58125824 0.28400114
vn -0.76256543 0.58125824 0.2839593
vn -0.7614128 0.5829805 0.28352118
vn -0.76255876 0.5812651 0.2839628
vn -0.7625498 0.58125824 0.28400114
vn -0.7613915 0.5830007 0.28353694
g obj_battle_pipe3_0
f 3/3/3 2/2/2 1/1/1
f 1/1/1 4/4/4 3/3/3
f 4/4/4 1/1/1 5/5/5
f 6/6/6 4/4/4 5/5/5
f 6/6/6 5/5/5 7/7/7
f 7/7/7 8/8/8 6/6/6
f 8/8/8 7/7/7 9/9/9
f 9/9/9 10/10/10 8/8/8
f 13/13/13 12/12/12 11/11/11
f 11/11/11 14/14/14 13/13/13
f 15/15/15 13/13/13 14/14/14
f 16/16/16 14/14/14 11/11/11
f 11/11/11 17/17/17 16/16/16
f 14/14/14 18/18/18 15/15/15
f 19/19/19 15/15/15 18/18/18
f 20/20/20 16/16/16 17/17/17
f 21/21/21 16/16/16 20/20/20
f 17/17/17 22/22/22 20/20/20
f 20/20/20 22/22/22 23/23/23
f 14/14/14 16/16/16 24/24/24
f 24/24/24 18/18/18 14/14/14
f 21/21/21 24/24/24 16/16/16
f 23/23/23 25/25/25 20/20/20
f 21/21/21 20/20/20 25/25/25
f 25/25/25 23/23/23 26/26/26
f 24/24/24 27/27/27 18/18/18
f 27/27/27 24/24/24 21/21/21
f 18/18/18 28/28/28 19/19/19
f 28/28/28 18/18/18 27/27/27
f 19/19/19 28/28/28 29/29/29
f 29/29/29 28/28/28 27/27/27
f 29/29/29 30/30/30 19/19/19
f 30/30/30 29/29/29 31/31/31
f 32/32/32 31/31/31 29/29/29
f 33/33/33 32/32/32 29/29/29
f 34/34/34 33/33/33 29/29/29
f 27/27/27 34/34/34 29/29/29
f 35/35/35 33/33/33 34/34/34
f 26/26/26 36/36/36 25/25/25
f 36/36/36 26/26/26 37/37/37
f 37/37/37 38/38/38 36/36/36
f 39/39/39 36/36/36 38/38/38
f 34/34/34 27/27/27 40/40/40
f 21/21/21 40/40/40 27/27/27
f 41/41/41 35/35/35 34/34/34
f 40/40/40 41/41/41 34/34/34
f 42/42/42 25/25/25 36/36/36
f 25/25/25 42/42/42 21/21/21
f 43/43/43 40/40/40 21/21/21
f 41/41/41 40/40/40 43/43/43
f 42/42/42 43/43/43 21/21/21
f 41/41/41 44/44/44 35/35/35
f 43/43/43 44/44/44 41/41/41
f 44/44/44 45/45/45 35/35/35
f 46/46/46 45/45/45 44/44/44
f 47/47/47 46/46/46 44/44/44
f 44/44/44 43/43/43 47/47/47
f 46/46/46 47/47/47 48/48/48
f 47/47/47 49/49/49 48/48/48
f 50/50/50 47/47/47 43/43/43
f 47/47/47 50/50/50 49/49/49
f 50/50/50 43/43/43 42/42/42
f 51/51/51 49/49/49 50/50/50
f 39/39/39 51/51/51 50/50/50
f 42/42/42 52/52/52 50/50/50
f 50/50/50 52/52/52 39/39/39
f 36/36/36 52/52/52 42/42/42
f 52/52/52 36/36/36 39/39/39
f 55/55/55 54/54/54 53/53/53
f 54/54/54 56/56/56 53/53/53
f 53/53/53 56/56/56 57/57/57
f 57/57/57 58/58/58 53/53/53
f 58/58/58 57/57/57 59/59/59
f 59/59/59 60/60/60 58/58/58
f 61/61/61 60/60/60 59/59/59
f 59/59/59 62/62/62 61/61/61
f 63/63/63 56/56/56 54/54/54
f 63/63/63 57/57/57 56/56/56
f 54/54/54 64/64/64 63/63/63
f 63/63/63 65/65/65 57/57/57
f 65/65/65 59/59/59 57/57/57
f 65/65/65 66/66/66 59/59/59
f 59/59/59 66/66/66 67/67/67
f 67/67/67 62/62/62 59/59/59
f 67/67/67 68/68/68 62/62/62
f 67/67/67 69/69/69 68/68/68
f 72/72/72 71/71/71 70/70/70
f 70/70/70 73/73/73 72/72/72
f 74/74/74 73/73/73 70/70/70
f 75/75/75 73/73/73 74/74/74
f 70/70/70 76/76/76 74/74/74
f 77/77/77 74/74/74 76/76/76
f 74/74/74 78/78/78 75/75/75
f 78/78/78 74/74/74 77/77/77
f 76/76/76 79/79/79 77/77/77
f 77/77/77 80/80/80 78/78/78
f 77/77/77 79/79/79 81/81/81
f 80/80/80 77/77/77 82/82/82
f 81/81/81 83/83/83 77/77/77
f 77/77/77 83/83/83 82/82/82
f 83/83/83 81/81/81 84/84/84
f 85/85/85 82/82/82 83/83/83
f 84/84/84 86/86/86 83/83/83
f 83/83/83 86/86/86 85/85/85
f 89/89/89 88/88/88 87/87/87
f 87/87/87 90/90/90 89/89/89
f 91/91/91 89/89/89 90/90/90
f 90/90/90 92/92/92 91/91/91
f 95/95/95 94/94/94 93/93/93
f 93/93/93 96/96/96 95/95/95
f 97/97/97 95/95/95 96/96/96
f 96/96/96 93/93/93 98/98/98
f 96/96/96 99/99/99 97/97/97
f 97/97/97 99/99/99 100/100/100
f 99/99/99 101/101/101 100/100/100
f 102/102/102 101/101/101 99/99/99
f 99/99/99 103/103/103 102/102/102
f 103/103/103 99/99/99 96/96/96
f 104/104/104 102/102/102 103/103/103
f 98/98/98 105/105/105 96/96/96
f 96/96/96 105/105/105 103/103/103
f 105/105/105 98/98/98 106/106/106
f 103/103/103 107/107/107 104/104/104
f 103/103/103 105/105/105 107/107/107
f 106/106/106 108/108/108 105/105/105
f 105/105/105 108/108/108 107/107/107
f 108/108/108 106/106/106 109/109/109
f 107/107/107 108/108/108 109/109/109
f 110/110/110 109/109/109 106/106/106
f 104/104/104 107/107/107 111/111/111
f 109/109/109 111/111/111 107/107/107
f 111/111/111 112/112/112 104/104/104
f 109/109/109 110/110/110 113/113/113
f 111/111/111 109/109/109 113/113/113
f 114/114/114 113/113/113 110/110/110
f 112/112/112 111/111/111 115/115/115
f 113/113/113 115/115/115 111/111/111
f 115/115/115 116/116/116 112/112/112
f 117/117/117 116/116/116 115/115/115
f 117/117/117 115/115/115 118/118/118
f 118/118/118 115/115/115 113/113/113
f 113/113/113 119/119/119 118/118/118
f 119/119/119 113/113/113 114/114/114
f 114/114/114 120/120/120 119/119/119
f 123/123/123 122/122/122 121/121/121
f 121/121/121 124/124/124 123/123/123
f 125/125/125 123/123/123 124/124/124
f 124/124/124 121/121/121 126/126/126
f 124/124/124 127/127/127 125/125/125
f 125/125/125 127/127/127 128/128/128
f 127/127/127 129/129/129 128/128/128
f 130/130/130 129/129/129 127/127/127
f 127/127/127 131/131/131 130/130/130
f 131/131/131 127/127/127 124/124/124
f 132/132/132 130/130/130 131/131/131
f 126/126/126 133/133/133 124/124/124
f 124/124/124 133/133/133 131/131/131
f 133/133/133 126/126/126 134/134/134
f 131/131/131 135/135/135 132/132/132
f 131/131/131 133/133/133 135/135/135
f 134/134/134 136/136/136 133/133/133
f 133/133/133 136/136/136 135/135/135
f 136/136/136 134/134/134 137/137/137
f 135/135/135 136/136/136 137/137/137
f 138/138/138 137/137/137 134/134/134
f 132/132/132 135/135/135 139/139/139
f 137/137/137 139/139/139 135/135/135
f 139/139/139 140/140/140 132/132/132
f 137/137/137 138/138/138 141/141/141
f 139/139/139 137/137/137 141/141/141
f 142/142/142 141/141/141 138/138/138
f 140/140/140 139/139/139 143/143/143
f 141/141/141 143/143/143 139/139/139
f 143/143/143 144/144/144 140/140/140
f 145/145/145 144/144/144 143/143/143
f 145/145/145 143/143/143 146/146/146
f 146/146/146 143/143/143 141/141/141
f 141/141/141 147/147/147 146/146/146
f 147/147/147 141/141/141 142/142/142
f 142/142/142 148/148/148 147/147/147
f 151/151/151 150/150/150 149/149/149
f 149/149/149 152/152/152 151/151/151
f 155/155/155 154/154/154 153/153/153
f 156/156/156 154/154/154 155/155/155
f 159/159/159 158/158/158 157/157/157
f 157/157/157 160/160/160 159/159/159
f 163/163/163 162/162/162 161/161/161
f 161/161/161 164/164/164 163/163/163
f 167/167/167 166/166/166 165/165/165
f 165/165/165 168/168/168 167/167/167
f 171/171/171 170/170/170 169/169/169
f 169/169/169 172/172/172 171/171/171
f 175/175/175 174/174/174 173/173/173
f 173/173/173 176/176/176 175/175/175
f 177/177/177 175/175/175 176/176/176
f 176/176/176 178/178/178 177/177/177
f 179/179/179 177/177/177 178/178/178
f 178/178/178 180/180/180 179/179/179
f 181/181/181 179/179/179 180/180/180
f 181/181/181 182/182/182 179/179/179
f 182/182/182 181/181/181 183/183/183
f 183/183/183 184/184/184 182/182/182
f 183/183/183 185/185/185 184/184/184
f 184/184/184 185/185/185 186/186/186
