g obj_snowmass_5
v -0.019161277 0.039983064 -0.0134454835
v 0.44599116 -0.001037208 0.1086101
v 0.40842226 -0.001037208 0.25079247
v 0.3291278 -0.001037208 0.37908587
v 0.46451563 -0.001037208 -0.04694863
v 0.19397318 -0.001037208 0.4425669
v 0.42239636 -0.001037208 -0.20214008
v 0.049387958 -0.001037208 0.45534542
v 0.2287755 -0.001037208 -0.3969081
v -0.08086163 -0.001037208 0.43234515
v 0.093314216 -0.001037208 -0.44046435
v -0.2006503 -0.001037208 0.39108038
v -0.035029728 -0.001037208 -0.4536282
v -0.31378123 -0.001037208 0.3116819
v -0.15650663 -0.001037208 -0.44332027
v -0.3942386 -0.001037208 0.21614
v -0.2715618 -0.001037208 -0.40013
v -0.4361369 -0.001037208 0.095410794
v -0.3487134 -0.001037208 -0.31973162
v -0.44599116 -0.001037208 -0.03464501
v -0.4058848 -0.001037208 -0.21615459
v 0.36818376 0.039983064 -0.2924036
v 0.5028602 -0.001037208 -0.34980845
v 0.51004976 -0.001037208 -0.2551158
v 0.43794158 -0.001037208 -0.41178837
v 0.47446454 -0.001037208 -0.17417842
v 0.36347127 -0.001037208 -0.42644465
v 0.3966086 -0.001037208 -0.14998186
v 0.29139432 -0.001037208 -0.41014236
v 0.31300312 -0.001037208 -0.16904257
v 0.25046298 -0.001037208 -0.35408127
v 0.2540121 -0.001037208 -0.22235137
v 0.23824179 -0.001037208 -0.29877004
vt 0.2641105 0.73855436
vt 0.26235518 0.73105514
vt 0.26262498 0.73105514
vt 0.26289475 0.73105514
vt 0.26235455 0.73105514
vt 0.26334983 0.73105514
vt 0.26235393 0.73105514
vt 0.26380485 0.73105514
vt 0.2633217 0.73105514
vt 0.26429355 0.73105514
vt 0.263757 0.73105514
vt 0.2647822 0.73105514
vt 0.26419225 0.73105514
vt 0.265127 0.73105514
vt 0.2646135 0.73105514
vt 0.2654718 0.73105514
vt 0.2650348 0.73105514
vt 0.26556396 0.73105514
vt 0.26527402 0.73105514
vt 0.26565614 0.73105514
vt 0.26551327 0.73105514
vt 0.2641105 0.73855436
vt 0.26235393 0.73105514
vt 0.26235518 0.73105514
vt 0.2633217 0.73105514
vt 0.26289475 0.73105514
vt 0.26419225 0.73105514
vt 0.26380485 0.73105514
vt 0.2650348 0.73105514
vt 0.2647822 0.73105514
vt 0.26551327 0.73105514
vt 0.2654718 0.73105514
vt 0.26565614 0.73105514
vn -0.0052620573 0.99998367 -0.0022395041
vn 0.08361781 0.9963664 0.01619089
vn 0.07501533 0.9966253 0.033327993
vn 0.05184182 0.99695885 0.058185376
vn 0.08408242 0.9964399 -0.0061342497
vn 0.022739291 0.99661344 0.07902159
vn 0.074769825 0.99633163 -0.04162606
vn -0.002568793 0.9961576 0.0875417
vn 0.046982337 0.9959876 -0.07616658
vn -0.022408055 0.99582136 0.08853096
vn 0.019278258 0.9957034 -0.090571396
vn -0.04159542 0.9957384 0.08230956
vn 0.00058836065 0.9956838 -0.09280817
vn -0.062839076 0.99565804 0.06867621
vn -0.02058099 0.9958676 -0.08845379
vn -0.08062508 0.9956742 0.046179682
vn -0.04864421 0.9960775 -0.07391437
vn -0.0928056 0.9954906 0.019637093
vn -0.073073305 0.9958229 -0.054744434
vn -0.09533651 0.99542314 -0.006606365
vn -0.0877293 0.99556065 -0.03409409
vn -0.015194776 0.99986804 -0.005757103
vn 0.2447248 0.9628784 -0.11390811
vn 0.26569942 0.96284336 0.04833712
vn 0.13276288 0.9586277 -0.25180703
vn 0.16653483 0.96828496 0.18625355
vn -0.004767749 0.9562613 -0.29247484
vn 0.0161853 0.96166515 0.27374822
vn -0.15369451 0.95996004 -0.23421092
vn -0.13224506 0.9567821 0.25899664
vn -0.26838496 0.95540565 -0.12316475
vn -0.25356412 0.9561415 0.14662418
vn -0.3008822 0.9536551 -0.0034508542
g obj_snowmass_5_0
f 3/3/3 2/2/2 1/1/1
f 4/4/4 3/3/3 1/1/1
f 2/2/2 5/5/5 1/1/1
f 6/6/6 4/4/4 1/1/1
f 7/7/7 1/1/1 5/5/5
f 8/8/8 6/6/6 1/1/1
f 1/1/1 7/7/7 9/9/9
f 8/8/8 1/1/1 10/10/10
f 9/9/9 11/11/11 1/1/1
f 10/10/10 1/1/1 12/12/12
f 11/11/11 13/13/13 1/1/1
f 14/14/14 12/12/12 1/1/1
f 13/13/13 15/15/15 1/1/1
f 16/16/16 14/14/14 1/1/1
f 15/15/15 17/17/17 1/1/1
f 18/18/18 16/16/16 1/1/1
f 17/17/17 19/19/19 1/1/1
f 20/20/20 18/18/18 1/1/1
f 21/21/21 1/1/1 19/19/19
f 20/20/20 1/1/1 21/21/21
f 24/24/24 23/23/23 22/22/22
f 22/22/22 23/23/23 25/25/25
f 22/22/22 26/26/26 24/24/24
f 22/22/22 25/25/25 27/27/27
f 28/28/28 26/26/26 22/22/22
f 27/27/27 29/29/29 22/22/22
f 22/22/22 30/30/30 28/28/28
f 29/29/29 31/31/31 22/22/22
f 22/22/22 32/32/32 30/30/30
f 31/31/31 33/33/33 22/22/22
f 33/33/33 32/32/32 22/22/22
