g obj_box1_add
v -0.13905746 0.13156113 -0.17351821
v -0.15358716 0.24634975 -0.19943137
v -0.17959313 0.22923917 -0.13889582
v -0.13905746 0.13156113 -0.17351821
v -0.17959313 0.22923917 -0.13889582
v -0.12362793 0.2212859 -0.11075772
v -0.13905746 0.13156113 -0.17351821
v -0.12362793 0.2212859 -0.11075772
v -0.09762688 0.23839636 -0.17129327
v -0.13905746 0.13156113 -0.17351821
v -0.09762688 0.23839636 -0.17129327
v -0.15358716 0.24634975 -0.19943137
v -0.16690238 1.3212403 0.18584815
v 0.10623653 1.288215 0.14827311
v 0.05165792 1.4485611 0.26248685
v 0.10623653 1.288215 0.14827311
v -0.014013427 1.2950274 0.30924314
v 0.05165792 1.4485611 0.26248685
v 0.24568489 0.1315611 -0.17351821
v 0.23115271 0.24634972 -0.19943137
v 0.20515166 0.22923917 -0.13889582
v 0.24568489 0.1315611 -0.17351821
v 0.20515166 0.22923917 -0.13889582
v 0.26111442 0.22128578 -0.11075772
v 0.24568489 0.1315611 -0.17351821
v 0.26111442 0.22128578 -0.11075772
v 0.28711793 0.23839635 -0.17129327
v 0.24568489 0.1315611 -0.17351821
v 0.28711793 0.23839635 -0.17129327
v 0.23115271 0.24634972 -0.19943137
v 0.1652601 1.6912419 0.3729637
v 0.12899236 1.7341179 0.45674616
v 0.14916433 1.6852342 0.43099833
v 0.14916433 1.6852342 0.43099833
v 0.12899236 1.7341179 0.45674616
v 0.19934224 1.6829956 0.45262757
v 0.19934224 1.6829956 0.45262757
v 0.12899236 1.7341179 0.45674616
v 0.2752827 1.6918604 0.366984
v 0.10203865 1.3748368 0.23269886
v -0.009633156 1.3748368 0.22292879
v 0.0067436546 0.40860388 0.035743408
v 0.11841562 0.40860397 0.045513507
v 0.10731105 0.408604 0.17243609
v 0.09245843 1.375062 0.3422004
v 0.10203865 1.3748368 0.23269886
v 0.11841562 0.40860397 0.045513507
v 0.0067436546 0.40860388 0.035743408
v -0.009633156 1.3748368 0.22292879
v -0.019214684 1.3750618 0.33243024
v -0.0043607573 0.40860397 0.16266626
v -0.019214684 1.3750618 0.33243024
v -0.009633156 1.3748368 0.22292879
v 0.10203865 1.3748368 0.23269886
v 0.09245843 1.375062 0.3422004
v -0.18020715 1.3748368 0.2561793
v -0.25947258 1.3748368 0.17691371
v -0.1266067 0.40860388 0.044048205
v -0.047341183 0.40860397 0.12331376
v -0.1266067 0.40860388 0.044048205
v -0.25947258 1.3748368 0.17691371
v -0.33719856 1.3750618 0.25463784
v -0.2166976 0.40860397 0.13413894
v -0.33719856 1.3750618 0.25463784
v -0.25947258 1.3748368 0.17691371
v -0.18020715 1.3748368 0.2561793
v -0.25793213 1.375062 0.33390433
v 0.29541135 1.0464706 0.077497244
v 0.17764983 1.0464705 -0.040264476
v 0.014329197 0.8794918 -0.23765746
v 0.13209075 0.8794918 -0.11989583
v 0.014329197 0.8794918 -0.23765746
v 0.17764983 1.0464705 -0.040264476
v 0.06217552 1.0466125 0.07520713
v -0.119515255 0.8794917 -0.103813305
v 0.06217552 1.0466125 0.07520713
v 0.17764983 1.0464705 -0.040264476
v 0.29541135 1.0464706 0.077497244
v 0.17993847 1.0466129 0.19297014
v -0.15358716 0.24634975 -0.19943137
v -0.15112375 1.0945895 0.14848146
v -0.17697237 1.0881065 0.21111226
v -0.17959313 0.22923917 -0.13889582
v -0.17959313 0.22923917 -0.13889582
v -0.17697237 1.0881065 0.21111226
v -0.121341534 1.0850925 0.24022517
v -0.12362793 0.2212859 -0.11075772
v -0.12362793 0.2212859 -0.11075772
v -0.121341534 1.0850925 0.24022517
v -0.09549291 1.091576 0.17759313
v -0.09762688 0.23839636 -0.17129327
v -0.09762688 0.23839636 -0.17129327
v -0.09549291 1.091576 0.17759313
v -0.15112375 1.0945895 0.14848146
v -0.15358716 0.24634975 -0.19943137
v -0.108129576 1.2393998 0.31603965
v -0.110447936 1.0764861 0.2620062
v -0.20338646 1.0806189 0.22208269
v -0.2041781 1.2441708 0.269949
v -0.2041781 1.2441708 0.269949
v -0.20338646 1.0806189 0.22208269
v -0.15520486 1.090758 0.12413559
v -0.15715444 1.2550325 0.16501915
v -0.15715444 1.2550325 0.16501915
v -0.15520486 1.090758 0.12413559
v -0.0716037 1.0862292 0.16788514
v -0.070054844 1.2498826 0.21477297
v -0.070054844 1.2498826 0.21477297
v -0.0716037 1.0862292 0.16788514
v -0.110447936 1.0764861 0.2620062
v -0.108129576 1.2393998 0.31603965
v -0.16139044 1.2610966 0.16718447
v -0.019259859 1.2407155 0.266941
v 0.044110335 1.1290087 0.0829902
v -0.28454635 1.23689 0.29971278
v -0.014013427 1.2950274 0.30924314
v -0.16690238 1.3212403 0.18584815
v 0.05165792 1.4485611 0.26248685
v -0.28612468 1.2861599 0.32654545
v -0.10698883 1.3809136 0.3855358
v -0.1449185 1.153488 0.17786357
v -0.21447428 1.3852115 0.34400937
v -0.13196224 1.5883045 0.36820772
v -0.21447428 1.3852115 0.34400937
v -0.1449185 1.153488 0.17786357
v -0.1559375 1.3965803 0.2341877
v -0.13196224 1.5883045 0.36820772
v -0.1559375 1.3965803 0.2341877
v -0.1449185 1.153488 0.17786357
v -0.051844765 1.3921372 0.27710444
v -0.13196224 1.5883045 0.36820772
v -0.051844765 1.3921372 0.27710444
v -0.1449185 1.153488 0.17786357
v -0.10698883 1.3809136 0.3855358
v -0.13196224 1.5883045 0.36820772
v -0.2041781 1.2441708 0.269949
v -0.15715444 1.2550325 0.16501915
v -0.070054844 1.2498826 0.21477297
v -0.108129576 1.2393998 0.31603965
v -0.014013427 1.2950274 0.30924314
v -0.28454635 1.23689 0.29971278
v -0.28612468 1.2861599 0.32654545
v -0.019259859 1.2407155 0.266941
v 0.10623653 1.288215 0.14827311
v 0.044110335 1.1290087 0.0829902
v -0.28612468 1.2861599 0.32654545
v -0.28454635 1.23689 0.29971278
v -0.16139044 1.2610966 0.16718447
v -0.16690238 1.3212403 0.18584815
v 0.10623653 1.288215 0.14827311
v 0.044110335 1.1290087 0.0829902
v 0.23115271 0.24634972 -0.19943137
v 0.23361859 1.0607964 0.13833156
v 0.20777242 1.0543132 0.20096236
v 0.20515166 0.22923917 -0.13889582
v 0.20515166 0.22923917 -0.13889582
v 0.20777242 1.0543132 0.20096236
v 0.26340082 1.0512996 0.23007526
v 0.26111442 0.22128578 -0.11075772
v 0.26111442 0.22128578 -0.11075772
v 0.26340082 1.0512996 0.23007526
v 0.28924945 1.057783 0.16744323
v 0.28711793 0.23839635 -0.17129327
v 0.28711793 0.23839635 -0.17129327
v 0.28924945 1.057783 0.16744323
v 0.23361859 1.0607964 0.13833156
v 0.23115271 0.24634972 -0.19943137
v 0.22963582 1.2056066 0.30588976
v 0.27429685 1.0426928 0.25185692
v 0.18135834 1.0468258 0.2119328
v 0.13719884 1.2103773 0.2597991
v 0.13719884 1.2103773 0.2597991
v 0.18135834 1.0468258 0.2119328
v 0.22953995 1.0569646 0.113985695
v 0.21903971 1.2212396 0.15486926
v 0.21903971 1.2212396 0.15486926
v 0.22953995 1.0569646 0.113985695
v 0.31313863 1.0524358 0.15773524
v 0.3706478 1.2160892 0.20462307
v 0.3706478 1.2160892 0.20462307
v 0.31313863 1.0524358 0.15773524
v 0.27429685 1.0426928 0.25185692
v 0.22963582 1.2056066 0.30588976
v 0.19216834 1.2164111 0.20806065
v 0.23085032 1.2081649 0.28772393
v 0.33853245 1.2170305 0.20208037
v 0.16382681 1.2094746 0.27507618
v 0.13719884 1.2103773 0.2597991
v 0.21903971 1.2212396 0.15486926
v 0.3706478 1.2160892 0.20462307
v 0.22963582 1.2056066 0.30588976
v 0.19216834 1.2164111 0.20806065
v 0.33853245 1.2170305 0.20208037
v 0.33853245 1.5713581 0.30850375
v 0.19216834 1.5707392 0.31448343
v 0.1652601 1.6912419 0.3729637
v 0.2752827 1.6918604 0.366984
v 0.12899236 1.7341179 0.45674616
v 0.33853245 1.5713581 0.30850375
v 0.33853245 1.2170305 0.20208037
v 0.23085032 1.2081649 0.28772393
v 0.23085032 1.5624928 0.3941473
v 0.16382681 1.2094746 0.27507618
v 0.1678612 1.5636286 0.38317505
v 0.19216834 1.2164111 0.20806065
v 0.19216834 1.5707392 0.31448343
v 0.14916433 1.6852342 0.43099833
v 0.1652601 1.6912419 0.3729637
v 0.1678612 1.5636286 0.38317505
v 0.14916433 1.6852342 0.43099833
v 0.19934224 1.6829956 0.45262757
v 0.23085032 1.5624928 0.3941473
v 0.23085032 1.5624928 0.3941473
v 0.19934224 1.6829956 0.45262757
v 0.2752827 1.6918604 0.366984
v 0.33853245 1.5713581 0.30850375
vt 0.7750186 0.20902504
vt 0.7748867 0.21565282
vt 0.7766845 0.21565282
vt 0.7750186 0.20902504
vt 0.7766845 0.21565282
vt 0.7785671 0.21565282
vt 0.7750186 0.20902504
vt 0.77180743 0.21565282
vt 0.7731474 0.21565282
vt 0.7750186 0.20902504
vt 0.7731474 0.21565282
vt 0.7748867 0.21565282
vt 0.7671029 0.23698251
vt 0.7669721 0.2510409
vt 0.76237345 0.24162182
vt 0.7669721 0.2510409
vt 0.76834995 0.24608287
vt 0.76237345 0.24162182
vt 0.7750186 0.20902504
vt 0.7748867 0.21565282
vt 0.7766845 0.21565282
vt 0.7750186 0.20902504
vt 0.7766845 0.21565282
vt 0.7785671 0.21565282
vt 0.7750186 0.20902504
vt 0.77180743 0.21565282
vt 0.7731474 0.21565282
vt 0.7750186 0.20902504
vt 0.7731474 0.21565282
vt 0.7748867 0.21565282
vt 0.7696204 0.23990828
vt 0.7746024 0.23375288
vt 0.7720849 0.23082711
vt 0.7720849 0.23082711
vt 0.7746024 0.23375288
vt 0.76834995 0.24608287
vt 0.76834995 0.24608287
vt 0.7746024 0.23375288
vt 0.76489097 0.24454759
vt 0.8185359 0.18378875
vt 0.8110251 0.18378875
vt 0.8110251 0.14990622
vt 0.8185359 0.14990622
vt 0.80400234 0.14990622
vt 0.80400234 0.18378875
vt 0.81008023 0.18378875
vt 0.81008023 0.14990622
vt 0.81008023 0.14990622
vt 0.81008023 0.18378875
vt 0.80400234 0.18378875
vt 0.80400234 0.14990622
vt 0.80891085 0.19588576
vt 0.80891085 0.18602772
vt 0.8189649 0.18602772
vt 0.8189649 0.19588576
vt 0.7878934 0.18378875
vt 0.79521275 0.18378875
vt 0.79521275 0.14990622
vt 0.7878934 0.14990622
vt 0.79521275 0.14990622
vt 0.79521275 0.18378875
vt 0.80187535 0.18378875
vt 0.80187535 0.14990622
vt 0.8090088 0.18592972
vt 0.81886685 0.18592972
vt 0.81886685 0.19598377
vt 0.8090088 0.19598377
vt 0.7878934 0.18378875
vt 0.79521275 0.18378875
vt 0.79521275 0.14990622
vt 0.7878934 0.14990622
vt 0.79521275 0.14990622
vt 0.79521275 0.18378875
vt 0.80187535 0.18378875
vt 0.80187535 0.14990622
vt 0.8090088 0.18592972
vt 0.81886685 0.18592972
vt 0.81886685 0.19598377
vt 0.8090088 0.19598377
vt 0.76295674 0.15583952
vt 0.76295674 0.2013328
vt 0.76503 0.2013328
vt 0.76503 0.15583952
vt 0.76503 0.15583952
vt 0.76503 0.2013328
vt 0.7672011 0.2013328
vt 0.7672011 0.15583952
vt 0.7594055 0.15583952
vt 0.7594055 0.2013328
vt 0.76095086 0.2013328
vt 0.76095086 0.15583952
vt 0.76095086 0.15583952
vt 0.76095086 0.2013328
vt 0.76295674 0.2013328
vt 0.76295674 0.15583952
vt 0.72281694 0.14994524
vt 0.73924327 0.14994524
vt 0.73924327 0.14795372
vt 0.72281694 0.14795373
vt 0.72281694 0.14795373
vt 0.73924327 0.14795372
vt 0.73924327 0.14586835
vt 0.72281694 0.14586835
vt 0.72281694 0.15335621
vt 0.73924327 0.15335621
vt 0.73924327 0.15187192
vt 0.72281694 0.15187193
vt 0.72281694 0.15187193
vt 0.73924327 0.15187192
vt 0.73924327 0.14994524
vt 0.72281694 0.14994524
vt 0.7671029 0.23698251
vt 0.7671029 0.23698251
vt 0.76237345 0.24162182
vt 0.7720849 0.23082711
vt 0.76834995 0.24608287
vt 0.7671029 0.23698251
vt 0.76237345 0.24162182
vt 0.7720849 0.23082711
vt 0.77261704 0.24818966
vt 0.7773959 0.23877595
vt 0.77261704 0.22936226
vt 0.75672 0.24818955
vt 0.77261704 0.22936226
vt 0.7773959 0.23877595
vt 0.77261704 0.24818966
vt 0.75672 0.24818955
vt 0.77261704 0.24818966
vt 0.7773959 0.23877595
vt 0.77261704 0.22936226
vt 0.75672 0.24818955
vt 0.77261704 0.22936226
vt 0.7773959 0.23877595
vt 0.77261704 0.24818966
vt 0.75672 0.24818955
vt 0.727117 0.14369705
vt 0.72655654 0.14367335
vt 0.72655654 0.14449911
vt 0.727117 0.14443967
vt 0.76834995 0.24608287
vt 0.7720849 0.23082711
vt 0.7720849 0.23082711
vt 0.7671029 0.23698251
vt 0.7669721 0.2510409
vt 0.76237345 0.24162182
vt 0.7720849 0.23082711
vt 0.7720849 0.23082711
vt 0.7671029 0.23698251
vt 0.7671029 0.23698251
vt 0.7669721 0.2510409
vt 0.76237345 0.24162182
vt 0.76295674 0.15583952
vt 0.76295674 0.2013328
vt 0.76503 0.2013328
vt 0.76503 0.15583952
vt 0.76503 0.15583952
vt 0.76503 0.2013328
vt 0.7672011 0.2013328
vt 0.7672011 0.15583952
vt 0.7594055 0.15583952
vt 0.7594055 0.2013328
vt 0.76095086 0.2013328
vt 0.76095086 0.15583952
vt 0.76095086 0.15583952
vt 0.76095086 0.2013328
vt 0.76295674 0.2013328
vt 0.76295674 0.15583952
vt 0.72281694 0.14994524
vt 0.73924327 0.14994524
vt 0.73924327 0.14795372
vt 0.72281694 0.14795373
vt 0.72281694 0.14795373
vt 0.73924327 0.14795372
vt 0.73924327 0.14586835
vt 0.72281694 0.14586835
vt 0.72281694 0.15335621
vt 0.73924327 0.15335621
vt 0.73924327 0.15187192
vt 0.72281694 0.15187193
vt 0.72281694 0.15187193
vt 0.73924327 0.15187192
vt 0.73924327 0.14994524
vt 0.72281694 0.14994524
vt 0.7696204 0.23990828
vt 0.7671029 0.23698251
vt 0.76489097 0.24454759
vt 0.7720849 0.23082711
vt 0.727117 0.14369705
vt 0.72655654 0.14367335
vt 0.72655654 0.14449911
vt 0.727117 0.14443967
vt 0.7696204 0.23990828
vt 0.76489097 0.24454759
vt 0.76489097 0.24454759
vt 0.7696204 0.23990828
vt 0.7696204 0.23990828
vt 0.76489097 0.24454759
vt 0.7746024 0.23375288
vt 0.76489097 0.24454759
vt 0.76489097 0.24454759
vt 0.7671029 0.23698251
vt 0.76834995 0.24608287
vt 0.7720849 0.23082711
vt 0.7720849 0.23082711
vt 0.7696204 0.23990828
vt 0.7696204 0.23990828
vt 0.7720849 0.23082711
vt 0.7696204 0.23990828
vt 0.7720849 0.23082711
vt 0.7720849 0.23082711
vt 0.76834995 0.24608287
vt 0.76834995 0.24608287
vt 0.76834995 0.24608287
vt 0.76834995 0.24608287
vt 0.76489097 0.24454759
vt 0.76489097 0.24454759
vn -0.8756693 -0.20910594 -0.4352906
vn -0.9165802 -0.009679734 -0.3997338
vn -0.91628516 -0.012405726 -0.40033433
vn -0.45035794 -0.45846146 0.7661532
vn -0.45448977 -0.3918565 0.7999297
vn -0.45455652 -0.39025754 0.80067307
vn 0.8920348 -0.35183826 0.28369644
vn 0.9137672 -0.23984103 0.32788053
vn 0.9134936 -0.24191405 0.32711926
vn 0.4275528 -0.14722942 -0.89192045
vn 0.4567135 0.11980115 -0.8815103
vn 0.45685244 0.12272439 -0.8810361
vn -0.4109148 0.37187016 -0.8323831
vn -0.077283345 0.46702063 -0.8808626
vn -0.044033527 0.56961495 -0.8207313
vn 0.7342411 -0.3784516 0.5636172
vn 0.5184142 -0.4479995 0.7283839
vn 0.78818166 -0.15581356 0.59539205
vn -0.87569565 -0.20911501 -0.43523324
vn -0.9166487 -0.0090226615 -0.3995918
vn -0.91639835 -0.011358023 -0.4001064
vn -0.45037475 -0.45845488 0.7661473
vn -0.45430908 -0.39352524 0.7992128
vn -0.4543756 -0.39189616 0.79997516
vn 0.89202076 -0.35185373 0.28372163
vn 0.9136286 -0.24059214 0.3277167
vn 0.9133264 -0.24286956 0.32687792
vn 0.4275229 -0.14722735 -0.8919351
vn 0.45673555 0.121793225 -0.8812258
vn 0.45685866 0.124439664 -0.88079226
vn -0.94906116 -0.086516336 -0.30298153
vn -0.93007267 -0.23510908 -0.28229156
vn -0.94219553 -0.16181195 -0.29340178
vn -0.35210148 -0.5457874 0.7603556
vn -0.35210145 -0.5457874 0.76035565
vn -0.3521015 -0.54578733 0.76035565
vn 0.51876694 0.67122424 0.5294705
vn 0.51876694 0.67122424 0.5294705
vn 0.518767 0.6712242 0.52947044
vn 0.08555342 0.19089103 -0.9778758
vn 0.085553415 0.19089101 -0.9778758
vn 0.08555342 0.19089101 -0.9778758
vn 0.08555341 0.19089101 -0.9778758
vn 0.9961946 0 0.087157235
vn 0.9961946 0 0.087157235
vn 0.9961946 0 0.08715724
vn 0.9961946 0 0.08715724
vn -0.9961941 2.8035825E-07 -0.08716199
vn -0.9961941 2.8035828E-07 -0.087162
vn -0.9961941 2.803582E-07 -0.08716199
vn -0.9961941 2.8035822E-07 -0.08716198
vn 0.00017681131 0.999998 -0.0020406118
vn 0.00017681133 0.999998 -0.0020406118
vn 0.00017681133 0.999998 -0.0020406116
vn 0.00017681131 0.999998 -0.0020406118
vn 0.6941041 0.19089107 -0.6941038
vn 0.69410414 0.19089109 -0.6941038
vn 0.69410414 0.19089109 -0.6941038
vn 0.6941042 0.19089109 -0.6941037
vn -0.70710254 2.0412699E-07 -0.70711094
vn -0.70710254 2.0412699E-07 -0.707111
vn -0.7071026 2.0412698E-07 -0.7071109
vn -0.70710254 2.0412699E-07 -0.70711094
vn 0.0014466413 0.999998 -0.0014500321
vn 0.0014466413 0.999998 -0.0014500321
vn 0.0014466412 0.999998 -0.001450032
vn 0.0014466413 0.999998 -0.001450032
vn 0.6998596 0.14280705 -0.6998589
vn 0.6998597 0.14280705 -0.6998589
vn 0.6998597 0.14280705 -0.6998589
vn 0.6998597 0.14280705 -0.6998589
vn -0.387168 0.8365579 -0.3876489
vn -0.38716796 0.8365579 -0.3876489
vn -0.38716796 0.8365579 -0.3876489
vn -0.38716796 0.8365579 -0.38764897
vn 0.00061445177 0.99999964 -0.000616082
vn 0.00061445177 0.99999964 -0.00061608205
vn 0.0006144518 0.99999964 -0.00061608205
vn 0.00061445177 0.99999964 -0.000616082
vn -0.9165802 -0.009679734 -0.3997338
vn -0.921201 0.14958896 -0.35918227
vn -0.921201 0.14958896 -0.35918227
vn -0.91628516 -0.012405726 -0.40033433
vn -0.45448977 -0.3918565 0.7999297
vn -0.45599478 -0.33432844 0.82479894
vn -0.45599478 -0.33432838 0.82479894
vn -0.45455652 -0.39025754 0.80067307
vn 0.9137672 -0.23984103 0.32788053
vn 0.9212712 -0.14883427 0.35931572
vn 0.9212712 -0.14883426 0.3593157
vn 0.9134936 -0.24191405 0.32711926
vn 0.4567135 0.11980115 -0.8815103
vn 0.45583594 0.33626917 -0.8240975
vn 0.45583588 0.33626917 -0.8240975
vn 0.45685244 0.12272439 -0.8810361
vn -0.40936202 -0.2700993 0.8714752
vn -0.40936202 -0.2700993 0.8714752
vn -0.40936208 -0.2700993 0.8714752
vn -0.40936202 -0.2700993 0.8714752
vn -0.9044407 0.104414314 -0.41362366
vn -0.9044407 0.104414314 -0.41362366
vn -0.9044407 0.104414314 -0.41362366
vn -0.9044407 0.104414314 -0.41362366
vn 0.47769123 0.22769105 -0.8485092
vn 0.47769123 0.22769105 -0.8485092
vn 0.47769123 0.22769105 -0.8485092
vn 0.47769123 0.22769102 -0.8485092
vn 0.9279371 -0.120040976 0.35287797
vn 0.9279371 -0.12004096 0.35287797
vn 0.9279371 -0.12004099 0.352878
vn 0.9279371 -0.12004099 0.35287794
vn -0.16061309 -0.986641 0.027258512
vn -0.26962978 -0.9437624 0.19134314
vn -0.38599446 -0.84148675 0.37803227
vn -0.009035186 -0.98216736 -0.18779178
vn -0.38868368 0.67667055 0.6253335
vn -0.190047 0.8856801 0.42361882
vn -0.51553327 0.4437405 0.7330211
vn -0.017217683 0.97347826 0.22813083
vn -0.35514706 -0.2875427 0.8894885
vn -0.30576918 -0.61370355 0.7279238
vn -0.34998927 -0.3474375 0.86993945
vn -0.35895917 0.03470556 0.9327078
vn -0.8637525 0.25631344 -0.43386072
vn -0.883341 0.06743408 -0.46385485
vn -0.8730313 0.20037317 -0.44459748
vn -0.8302958 0.3853085 -0.4026739
vn 0.36910895 0.35631558 -0.8583693
vn 0.37958097 0.22512074 -0.897351
vn 0.3659604 0.38355997 -0.847912
vn 0.34679335 0.5078534 -0.7885552
vn 0.87688243 -0.22992869 0.42214918
vn 0.8073906 -0.46559218 0.3624147
vn 0.8898065 -0.12103915 0.43999308
vn 0.8759704 0.14394827 0.46038532
vn -1.6999043E-06 0.99468493 0.102964856
vn -1.6999043E-06 0.99468493 0.102964856
vn -1.6999041E-06 0.99468493 0.10296484
vn -1.6999043E-06 0.99468493 0.10296484
vn 0.5184142 -0.4479995 0.7283839
vn 0.09015939 -0.5550919 0.82688826
vn 0.090159394 -0.555092 0.8268882
vn 0.49154168 -0.5421633 0.6815025
vn 0.7342411 -0.3784516 0.5636172
vn 0.6902317 -0.48730823 0.53489333
vn -0.75355965 0.21017145 -0.622877
vn -0.75355965 0.21017145 -0.6228771
vn -0.37813285 0.33610022 -0.86258465
vn -0.4109148 0.37187016 -0.8323831
vn -0.077283345 0.46702063 -0.8808626
vn -0.10336209 0.37866837 -0.9197426
vn -0.9166487 -0.0090226615 -0.3995918
vn -0.92110103 0.1511458 -0.3587866
vn -0.92110103 0.15114582 -0.3587866
vn -0.91639835 -0.011358023 -0.4001064
vn -0.45430908 -0.39352524 0.7992128
vn -0.45574436 -0.33740658 0.82368314
vn -0.45574436 -0.33740658 0.82368314
vn -0.4543756 -0.39189616 0.79997516
vn 0.9136286 -0.24059214 0.3277167
vn 0.9211491 -0.15037379 0.35898754
vn 0.9211491 -0.1503738 0.3589876
vn 0.9133264 -0.24286956 0.32687792
vn 0.45673555 0.121793225 -0.8812258
vn 0.45554045 0.33946583 -0.82294947
vn 0.45554045 0.33946586 -0.82294947
vn 0.45685866 0.124439664 -0.88079226
vn -0.40545654 -0.3710675 0.83541244
vn -0.40545654 -0.3710674 0.83541244
vn -0.40545654 -0.37106743 0.83541244
vn -0.40545657 -0.37106743 0.83541244
vn -0.84217757 0.005546294 -0.5391719
vn -0.84217757 0.0055462937 -0.5391719
vn -0.84217757 0.005546293 -0.5391718
vn -0.84217757 0.0055462937 -0.5391719
vn 0.36941177 0.19048472 -0.90953314
vn 0.36941177 0.1904847 -0.90953314
vn 0.36941177 0.19048472 -0.90953314
vn 0.36941177 0.19048472 -0.90953314
vn 0.7279671 -0.22841427 0.6464448
vn 0.7279671 -0.2284143 0.6464448
vn 0.7279671 -0.22841427 0.64644474
vn 0.7279671 -0.22841427 0.6464448
vn -1.4512647E-06 -0.9946853 -0.10296212
vn -1.339143E-06 -0.9946853 -0.10296218
vn 2.3302725E-06 -0.99468505 -0.102963924
vn -6.631784E-06 -0.99468553 -0.10295962
vn -1.1762394E-06 0.99468493 0.10296538
vn -1.1762394E-06 0.99468493 0.10296537
vn -1.1762394E-06 0.99468493 0.10296538
vn -1.1762394E-06 0.99468493 0.102965385
vn -0.040314082 0.28742334 -0.9569549
vn -0.040314093 0.28742337 -0.9569549
vn -0.042056937 0.34434003 -0.93790257
vn -0.042529617 0.36046264 -0.9318035
vn -0.03785731 0.73403364 -0.6780571
vn -0.04276715 0.5398517 -0.84067297
vn -0.030284075 0.8844173 -0.46571344
vn 0.6176702 -0.22622497 0.75319713
vn 0.61767024 -0.22622497 0.7531971
vn 0.25260618 -0.27896237 0.92648274
vn 0.22934572 -0.28065854 0.932004
vn -0.9102 -0.115269214 0.39780524
vn -0.9844273 -0.11329066 0.13441844
vn -0.9303495 0.11110379 -0.34943628
vn -0.9414397 0.048783127 -0.33363387
vn -0.94219553 -0.16181195 -0.29340178
vn -0.94906116 -0.086516336 -0.30298153
vn -0.2614278 -0.4329826 0.8626596
vn -0.26142776 -0.43298253 0.8626596
vn -0.26142776 -0.43298253 0.8626596
vn -0.26142776 -0.43298253 0.8626596
vn 0.68403935 -0.082766704 0.72473437
vn 0.68403935 -0.082766704 0.7247343
vn 0.6840394 -0.082766704 0.7247343
vn 0.68403935 -0.082766704 0.7247343
g obj_box1_add_0
f 3/3/3 2/2/2 1/1/1
f 6/6/6 5/5/5 4/4/4
f 9/9/9 8/8/8 7/7/7
f 12/12/12 11/11/11 10/10/10
f 15/15/15 14/14/14 13/13/13
f 18/18/18 17/17/17 16/16/16
f 21/21/21 20/20/20 19/19/19
f 24/24/24 23/23/23 22/22/22
f 27/27/27 26/26/26 25/25/25
f 30/30/30 29/29/29 28/28/28
f 33/33/33 32/32/32 31/31/31
f 36/36/36 35/35/35 34/34/34
f 39/39/39 38/38/38 37/37/37
f 42/42/42 41/41/41 40/40/40
f 43/43/43 42/42/42 40/40/40
f 46/46/46 45/45/45 44/44/44
f 47/47/47 46/46/46 44/44/44
f 50/50/50 49/49/49 48/48/48
f 51/51/51 50/50/50 48/48/48
f 54/54/54 53/53/53 52/52/52
f 55/55/55 54/54/54 52/52/52
f 58/58/58 57/57/57 56/56/56
f 59/59/59 58/58/58 56/56/56
f 62/62/62 61/61/61 60/60/60
f 63/63/63 62/62/62 60/60/60
f 66/66/66 65/65/65 64/64/64
f 67/67/67 66/66/66 64/64/64
f 70/70/70 69/69/69 68/68/68
f 71/71/71 70/70/70 68/68/68
f 74/74/74 73/73/73 72/72/72
f 75/75/75 74/74/74 72/72/72
f 78/78/78 77/77/77 76/76/76
f 79/79/79 78/78/78 76/76/76
f 82/82/82 81/81/81 80/80/80
f 83/83/83 82/82/82 80/80/80
f 86/86/86 85/85/85 84/84/84
f 87/87/87 86/86/86 84/84/84
f 90/90/90 89/89/89 88/88/88
f 91/91/91 90/90/90 88/88/88
f 94/94/94 93/93/93 92/92/92
f 95/95/95 94/94/94 92/92/92
f 98/98/98 97/97/97 96/96/96
f 99/99/99 98/98/98 96/96/96
f 102/102/102 101/101/101 100/100/100
f 103/103/103 102/102/102 100/100/100
f 106/106/106 105/105/105 104/104/104
f 107/107/107 106/106/106 104/104/104
f 110/110/110 109/109/109 108/108/108
f 111/111/111 110/110/110 108/108/108
f 114/114/114 113/113/113 112/112/112
f 115/115/115 112/112/112 113/113/113
f 118/118/118 117/117/117 116/116/116
f 119/119/119 116/116/116 117/117/117
f 122/122/122 121/121/121 120/120/120
f 120/120/120 123/123/123 122/122/122
f 126/126/126 125/125/125 124/124/124
f 124/124/124 127/127/127 126/126/126
f 130/130/130 129/129/129 128/128/128
f 128/128/128 131/131/131 130/130/130
f 134/134/134 133/133/133 132/132/132
f 132/132/132 135/135/135 134/134/134
f 138/138/138 137/137/137 136/136/136
f 139/139/139 138/138/138 136/136/136
f 142/142/142 141/141/141 140/140/140
f 141/141/141 143/143/143 140/140/140
f 140/140/140 143/143/143 144/144/144
f 143/143/143 145/145/145 144/144/144
f 148/148/148 147/147/147 146/146/146
f 149/149/149 148/148/148 146/146/146
f 149/149/149 150/150/150 148/148/148
f 150/150/150 151/151/151 148/148/148
f 154/154/154 153/153/153 152/152/152
f 155/155/155 154/154/154 152/152/152
f 158/158/158 157/157/157 156/156/156
f 159/159/159 158/158/158 156/156/156
f 162/162/162 161/161/161 160/160/160
f 163/163/163 162/162/162 160/160/160
f 166/166/166 165/165/165 164/164/164
f 167/167/167 166/166/166 164/164/164
f 170/170/170 169/169/169 168/168/168
f 171/171/171 170/170/170 168/168/168
f 174/174/174 173/173/173 172/172/172
f 175/175/175 174/174/174 172/172/172
f 178/178/178 177/177/177 176/176/176
f 179/179/179 178/178/178 176/176/176
f 182/182/182 181/181/181 180/180/180
f 183/183/183 182/182/182 180/180/180
f 186/186/186 185/185/185 184/184/184
f 187/187/187 184/184/184 185/185/185
f 190/190/190 189/189/189 188/188/188
f 191/191/191 190/190/190 188/188/188
f 194/194/194 193/193/193 192/192/192
f 195/195/195 194/194/194 192/192/192
f 195/195/195 196/196/196 194/194/194
f 196/196/196 197/197/197 194/194/194
f 196/196/196 198/198/198 197/197/197
f 201/201/201 200/200/200 199/199/199
f 202/202/202 201/201/201 199/199/199
f 203/203/203 201/201/201 202/202/202
f 204/204/204 203/203/203 202/202/202
f 205/205/205 203/203/203 204/204/204
f 206/206/206 205/205/205 204/204/204
f 204/204/204 207/207/207 206/206/206
f 207/207/207 208/208/208 206/206/206
f 211/211/211 210/210/210 209/209/209
f 212/212/212 211/211/211 209/209/209
f 215/215/215 214/214/214 213/213/213
f 216/216/216 215/215/215 213/213/213
