g obj_road1
v 0.5035006 0.014682001 0.49093673
v 0.5035006 -2.2376155E-06 0.5035
v -0.5035 -2.2376155E-06 0.50350016
v -0.5035 0.014682001 0.49093688
v 0.5035005 0.014681863 0.31466314
v -0.5035 0.014681872 0.31466326
v 0.5035005 -2.4296855E-06 0.30209994
v -0.5035 -2.420082E-06 0.30210006
vt 0.8714668 0.6298722
vt 0.8714668 0.63189137
vt 0.9281394 0.63189137
vt 0.9281394 0.6298722
vt 0.8714668 0.6160578
vt 0.9281394 0.6160578
vt 0.8714668 0.6143599
vt 0.9281394 0.6143599
vn -0 0.9083223 0.41827103
vn 1.1600493E-07 0.65009815 0.75985026
vn 1.16004934E-07 0.6500981 0.75985026
vn -0 0.9083223 0.41827098
vn -0 0.9083212 -0.41827348
vn -0 0.90832114 -0.4182735
vn -0 0.6500951 -0.7598528
vn -0 0.6500951 -0.7598528
g obj_road1_0
f 3/3/3 2/2/2 1/1/1
f 4/4/4 3/3/3 1/1/1
f 1/1/1 5/5/5 4/4/4
f 5/5/5 6/6/6 4/4/4
f 5/5/5 7/7/7 6/6/6
f 7/7/7 8/8/8 6/6/6
