g obj_scratch1_8
v 0.4486074 0.005578325 0.38177216
v 0.26354346 0.005578325 -0.044671256
v 0.4948749 0.0055783247 0.0995359
v 0.087208204 0.005578325 -0.056317154
v -0.3516566 0.005578325 0.38177216
v -0.41261363 0.0055783256 0.2573191
v -0.06554542 0.005578325 -0.31875685
v -0.4126731 0.005578325 -0.4981589
vt 0.23983684 0.81097114
vt 0.24653403 0.79907596
vt 0.23983684 0.80309844
vt 0.25080466 0.7987511
vt 0.26273674 0.81097114
vt 0.26418632 0.8074996
vt 0.25516173 0.7914307
vt 0.26418632 0.7864265
vn -0 1 0
vn -0 1 0
vn -0 1 0
vn -0 1 0
vn -0 1 0
vn -0 1 0
vn -0 1 0
vn -0 1 0
g obj_scratch1_8_0
f 3/3/3 2/2/2 1/1/1
f 4/4/4 1/1/1 2/2/2
f 5/5/5 1/1/1 4/4/4
f 5/5/5 4/4/4 6/6/6
f 6/6/6 4/4/4 7/7/7
f 6/6/6 7/7/7 8/8/8
