g obj_bar_counter_S1
v -0.5034995 0.8277215 0.39117986
v -0.50350004 0.8277215 -0.4232698
v 0.5035 0.8277215 -0.42327014
v 0.50350046 0.8277215 0.39117956
v -0.5034995 0.67078614 0.43365535
v -0.5034995 0.7784049 0.43365532
v 0.5035003 0.7784049 0.433655
v 0.5035003 0.67078614 0.43365505
v 0.5035 0.67078614 -0.46574563
v 0.5035 0.7784048 -0.46574563
v -0.50350004 0.7784048 -0.46574533
v -0.50350004 0.67078614 -0.46574533
v -0.5034995 0.8277215 0.39117986
v 0.50350046 0.8277215 0.39117956
v 0.5035003 0.7784049 0.433655
v -0.5034995 0.7784049 0.43365532
v 0.5035 0.8277215 -0.42327014
v -0.50350004 0.8277215 -0.4232698
v -0.50350004 0.7784048 -0.46574533
v 0.5035 0.7784048 -0.46574563
v -0.5034995 0.036572333 0.43365538
v -0.5034995 0.23998432 0.43365535
v 0.5035003 0.23998432 0.43365505
v 0.5035004 0.036572333 0.43365508
v 0.5034999 0.03657222 -0.4657455
v 0.5035 0.23998424 -0.4657455
v -0.50350004 0.23998424 -0.4657452
v -0.50350004 0.03657222 -0.4657452
v -0.5034995 0.26196536 0.39117986
v 0.5035004 0.26196536 0.39117956
v 0.5035003 0.23998432 0.43365505
v -0.5034995 0.23998432 0.43365535
v 0.5035 0.26196525 -0.42327002
v -0.50350004 0.26196525 -0.4232697
v -0.50350004 0.23998424 -0.4657452
v 0.5035 0.23998424 -0.4657455
v -0.5034995 0.26196536 0.39117986
v -0.5034995 0.6883767 0.39117983
v 0.5035004 0.6883767 0.39117953
v 0.5035004 0.26196536 0.39117956
v 0.5035 0.26196525 -0.42327002
v 0.5035 0.68837667 -0.42327008
v -0.50350004 0.68837667 -0.42326978
v -0.50350004 0.26196525 -0.4232697
v -0.5034995 0.8768304 0.2815784
v -0.50350004 0.87683046 -0.39812768
v 0.5035 0.87683046 -0.39812797
v 0.50350046 0.8768304 0.2815781
v -0.5034995 0.8768304 0.2815784
v 0.50350046 0.8768304 0.2815781
v 0.5035003 0.8275138 0.30364615
v -0.5034995 0.8275138 0.30364645
v 0.5035 0.87683046 -0.39812797
v -0.50350004 0.87683046 -0.39812768
v -0.50350004 0.8275138 -0.4207594
v 0.5035 0.8275138 -0.42075974
vt 0.08620771 0.62702656
vt 0.08620771 0.68543655
vt 0.118435025 0.68543655
vt 0.118435025 0.62702656
vt 0.11725922 0.68895626
vt 0.11725922 0.7168517
vt 0.13505524 0.7168517
vt 0.13505524 0.68895626
vt 0.17883451 0.6889562
vt 0.17883451 0.7168516
vt 0.18386112 0.7168516
vt 0.18386112 0.6889562
vt 0.11725922 0.73229486
vt 0.13505524 0.73229486
vt 0.13505524 0.7168517
vt 0.11725922 0.7168517
vt 0.17883451 0.73229486
vt 0.18386112 0.73229486
vt 0.18386112 0.7168516
vt 0.17883451 0.7168516
vt 0.18668823 0.6890074
vt 0.18668823 0.71738946
vt 0.20164217 0.71738946
vt 0.20164217 0.6890074
vt 0.20164217 0.6890073
vt 0.20164217 0.71738935
vt 0.18668823 0.71738935
vt 0.18668823 0.6890073
vt 0.18668823 0.7323094
vt 0.20164217 0.7323094
vt 0.20164217 0.71738946
vt 0.18668823 0.71738946
vt 0.20164217 0.73230934
vt 0.18668823 0.73230934
vt 0.18668823 0.71738935
vt 0.20164217 0.71738935
vt 0.14648585 0.6534505
vt 0.14648585 0.6865412
vt 0.18576795 0.6865412
vt 0.18576795 0.6534505
vt 0.14648585 0.6534504
vt 0.14648585 0.6865411
vt 0.18576795 0.6865411
vt 0.18576795 0.6534504
vt 0.24310087 0.6343629
vt 0.24310087 0.6855476
vt 0.2437149 0.6855476
vt 0.2437149 0.6343629
vt 0.1467869 0.6502612
vt 0.15672278 0.6502612
vt 0.15672278 0.6348181
vt 0.1467869 0.6348181
vt 0.18116567 0.6502612
vt 0.18397212 0.6502612
vt 0.18397212 0.63481796
vt 0.18116567 0.63481796
vn -0 1 0
vn -0 1 0
vn -0 1 0
vn -0 1 0
vn 3.0517586E-07 3.5694532E-07 1
vn 3.0517586E-07 3.5694532E-07 1
vn 3.0517586E-07 3.5694532E-07 1
vn 3.0517586E-07 3.5694532E-07 1
vn -3.0517577E-07 0 -1
vn -3.0517577E-07 0 -1
vn -3.0517577E-07 0 -1
vn -3.0517577E-07 0 -1
vn 2.309145E-07 0.65259707 0.75770515
vn 2.309145E-07 0.65259707 0.7577052
vn 2.309145E-07 0.65259707 0.7577052
vn 2.309145E-07 0.65259707 0.75770515
vn -2.316518E-07 0.6525971 -0.75770503
vn -2.3165182E-07 0.6525971 -0.75770503
vn -2.316518E-07 0.6525971 -0.75770503
vn -2.3165182E-07 0.6525971 -0.75770503
vn 3.0517586E-07 1.8884835E-07 1
vn 3.0517586E-07 1.8884835E-07 1
vn 3.0517586E-07 1.8884835E-07 1
vn 3.0517586E-07 1.8884836E-07 1
vn -3.051758E-07 0 -1
vn -3.051758E-07 0 -1
vn -3.0517577E-07 0 -1
vn -3.0517577E-07 0 -1
vn 1.4056042E-07 0.88812417 0.45960367
vn 1.4056043E-07 0.88812417 0.45960367
vn 1.4056043E-07 0.88812417 0.45960373
vn 1.4056043E-07 0.88812417 0.45960373
vn -1.4005836E-07 0.88812464 -0.45960268
vn -1.4005836E-07 0.88812464 -0.45960262
vn -1.4005836E-07 0.88812464 -0.45960268
vn -1.4005836E-07 0.88812464 -0.45960262
vn 3.0517583E-07 0 1
vn 3.0517583E-07 0 1
vn 3.0517583E-07 0 1
vn 3.0517583E-07 0 1
vn -3.0517575E-07 -1.8017339E-07 -1
vn -3.0517575E-07 -1.8017339E-07 -1
vn -3.0517575E-07 -1.8017339E-07 -1
vn -3.0517575E-07 -1.8017339E-07 -1
vn -0 1 1.130312E-07
vn -0 1 1.1303121E-07
vn -0 1 1.1303121E-07
vn -0 1 1.1303121E-07
vn 2.7861904E-07 0.40844893 0.9127811
vn 2.7861904E-07 0.40844893 0.9127812
vn 2.7861904E-07 0.40844893 0.9127812
vn 2.78619E-07 0.4084489 0.9127812
vn -2.7786635E-07 0.41708556 -0.9088672
vn -2.7786632E-07 0.41708556 -0.9088672
vn -2.7786635E-07 0.41708556 -0.9088672
vn -2.7786632E-07 0.41708556 -0.9088672
g obj_bar_counter_S1_0
f 3/3/3 2/2/2 1/1/1
f 4/4/4 3/3/3 1/1/1
f 7/7/7 6/6/6 5/5/5
f 8/8/8 7/7/7 5/5/5
f 11/11/11 10/10/10 9/9/9
f 12/12/12 11/11/11 9/9/9
f 15/15/15 14/14/14 13/13/13
f 16/16/16 15/15/15 13/13/13
f 19/19/19 18/18/18 17/17/17
f 20/20/20 19/19/19 17/17/17
f 23/23/23 22/22/22 21/21/21
f 24/24/24 23/23/23 21/21/21
f 27/27/27 26/26/26 25/25/25
f 28/28/28 27/27/27 25/25/25
f 31/31/31 30/30/30 29/29/29
f 32/32/32 31/31/31 29/29/29
f 35/35/35 34/34/34 33/33/33
f 36/36/36 35/35/35 33/33/33
f 39/39/39 38/38/38 37/37/37
f 40/40/40 39/39/39 37/37/37
f 43/43/43 42/42/42 41/41/41
f 44/44/44 43/43/43 41/41/41
f 47/47/47 46/46/46 45/45/45
f 48/48/48 47/47/47 45/45/45
f 51/51/51 50/50/50 49/49/49
f 52/52/52 51/51/51 49/49/49
f 55/55/55 54/54/54 53/53/53
f 56/56/56 55/55/55 53/53/53
