g obj_restaurant_poster3
v -0.08176243 1.2722692 0.27040434
v -0.08176243 1.7913908 0.1665887
v 0.33254394 1.7913908 0.1665887
v 0.33254394 1.2722692 0.27040434
v -0.10032039 1.2560232 0.28913745
v -0.08176243 1.2722692 0.27040434
v 0.33254394 1.2722692 0.27040434
v 0.3511019 1.2560232 0.28913745
v 0.3511019 1.2560232 0.28913745
v 0.33254394 1.2722692 0.27040434
v 0.33254394 1.7913908 0.1665887
v 0.3511019 1.8112696 0.17817743
v 0.3511019 1.8112696 0.17817743
v 0.33254394 1.7913908 0.1665887
v -0.08176243 1.7913908 0.1665887
v -0.10032039 1.8112696 0.17817743
v -0.10032039 1.8112696 0.17817743
v -0.08176243 1.7913908 0.1665887
v -0.08176243 1.2722692 0.27040434
v -0.10032039 1.2560232 0.28913745
v -0.173492 1.1899956 0.22948082
v -0.17361124 1.8746856 0.15011679
v -0.173492 1.1891115 0.28685045
v -0.17361124 1.8755691 0.09274716
v 0.42436755 1.8745449 0.15014383
v 0.42436755 1.8754283 0.0927742
v -0.173492 1.1891115 0.28685045
v 0.424429 1.1898841 0.22950295
v -0.173492 1.1899956 0.22948082
v 0.424429 1.189 0.28687257
v 0.42436755 1.8754283 0.0927742
v 0.42436755 1.8745449 0.15014383
v 0.40943587 1.8656399 0.1674252
v -0.1586771 1.8657753 0.16739877
v -0.17361124 1.8746856 0.15011679
v -0.15856217 1.201852 0.29985097
v 0.42436755 1.8745449 0.15014383
v -0.173492 1.1891115 0.28685045
v 0.424429 1.189 0.28687257
v 0.40949488 1.2017449 0.29987186
v -0.10032039 1.2560232 0.28913745
v -0.15856217 1.201852 0.29985097
v -0.1586771 1.8657753 0.16739877
v -0.10032039 1.8112696 0.17817743
v 0.3511019 1.2560232 0.28913745
v 0.40943587 1.8656399 0.1674252
v 0.40949488 1.2017449 0.29987186
v 0.3511019 1.8112696 0.17817743
vt 0.29712567 0.79838073
vt 0.29712567 0.8220461
vt 0.3189797 0.8220461
vt 0.3189797 0.79838073
vt 0.25592035 0.78845453
vt 0.25592035 0.7711614
vt 0.26126337 0.7711613
vt 0.26126337 0.7884543
vt 0.2619854 0.7972201
vt 0.25620544 0.7975765
vt 0.25620544 0.80575734
vt 0.2619854 0.80611366
vt 0.26126337 0.78845423
vt 0.26126337 0.77116114
vt 0.25592035 0.7711613
vt 0.25592035 0.78845435
vt 0.2619854 0.80611366
vt 0.25620544 0.80575734
vt 0.25620544 0.7975765
vt 0.2619854 0.7972201
vt 0.23142406 0.7708877
vt 0.23970857 0.7932405
vt 0.23970857 0.7708877
vt 0.23142406 0.7932405
vt 0.23971198 0.80761737
vt 0.23144159 0.8076196
vt 0.23970857 0.7708877
vt 0.23142406 0.77091885
vt 0.23142406 0.7708877
vt 0.23970857 0.77091885
vt 0.23142406 0.7932405
vt 0.23970857 0.7932405
vt 0.24401115 0.8046076
vt 0.24174479 0.8046154
vt 0.24170095 0.8052367
vt 0.24174513 0.7725198
vt 0.24405502 0.8052286
vt 0.24170129 0.771899
vt 0.24405518 0.7718926
vt 0.24401134 0.7725136
vt 0.24652214 0.77512705
vt 0.24631107 0.771899
vt 0.24631065 0.8052367
vt 0.24652214 0.8019887
vt 0.248896 0.77512705
vt 0.2491074 0.8052286
vt 0.24910763 0.7718926
vt 0.248896 0.8019887
vn -0 0.19610038 0.9805838
vn -0 0.19610038 0.9805838
vn -0 0.19610038 0.9805838
vn -0 0.19610038 0.9805838
vn -0 0.75547606 0.65517634
vn -0 0.75547606 0.65517634
vn -0 0.75547606 0.65517634
vn -0 0.75547606 0.65517634
vn -0.6342119 0.15156254 0.75815827
vn -0.6342119 0.15156256 0.75815827
vn -0.63421184 0.15156256 0.7581583
vn -0.6342119 0.15156256 0.7581583
vn -0 -0.5036368 0.86391544
vn -0 -0.50363684 0.86391544
vn -0 -0.50363684 0.86391544
vn -0 -0.5036368 0.86391544
vn 0.6342119 0.15156256 0.7581583
vn 0.63421184 0.15156256 0.7581583
vn 0.6342119 0.15156256 0.75815827
vn 0.6342119 0.15156254 0.75815827
vn -0.7503563 -0.6609551 -0.01018525
vn -0.67310804 0.67144483 0.30997983
vn -0.6605574 -0.62340695 0.41836324
vn -0.65412104 0.7563002 0.011647414
vn 0.67316973 0.6713979 0.30994704
vn 0.6542149 0.75621897 0.011646163
vn -0.6605574 -0.62340695 0.41836324
vn 0.7503305 -0.66098446 -0.010185702
vn -0.7503563 -0.6609551 -0.01018525
vn 0.6605039 -0.62342703 0.41841748
vn 0.6542149 0.75621897 0.011646163
vn 0.67316973 0.6713979 0.30994704
vn 0.40772083 0.61931205 0.6709816
vn -0.40757188 0.6192937 0.67108905
vn -0.67310804 0.67144483 0.30997983
vn -0.4038156 -0.37686116 0.8336118
vn 0.67316973 0.6713979 0.30994704
vn -0.6605574 -0.62340695 0.41836324
vn 0.6605039 -0.62342703 0.41841748
vn 0.40365463 -0.37680057 0.83371717
vn 6.9977928E-06 0.1948905 0.980825
vn 7.3050605E-06 0.1949307 0.980817
vn 7.328676E-06 0.19492257 0.98081857
vn 7.0467772E-06 0.19488524 0.9808261
vn -2.096657E-06 0.19489045 0.980825
vn -2.1607418E-06 0.19492373 0.9808184
vn -2.2064203E-06 0.1949312 0.9808169
vn -2.0550563E-06 0.19488491 0.9808261
g obj_restaurant_poster3_0
f 3/3/3 2/2/2 1/1/1
f 4/4/4 3/3/3 1/1/1
f 7/7/7 6/6/6 5/5/5
f 8/8/8 7/7/7 5/5/5
f 11/11/11 10/10/10 9/9/9
f 12/12/12 11/11/11 9/9/9
f 15/15/15 14/14/14 13/13/13
f 16/16/16 15/15/15 13/13/13
f 19/19/19 18/18/18 17/17/17
f 20/20/20 19/19/19 17/17/17
f 23/23/23 22/22/22 21/21/21
f 22/22/22 24/24/24 21/21/21
f 24/24/24 22/22/22 25/25/25
f 26/26/26 24/24/24 25/25/25
f 29/29/29 28/28/28 27/27/27
f 28/28/28 30/30/30 27/27/27
f 28/28/28 31/31/31 30/30/30
f 31/31/31 32/32/32 30/30/30
f 35/35/35 34/34/34 33/33/33
f 34/34/34 35/35/35 36/36/36
f 37/37/37 35/35/35 33/33/33
f 35/35/35 38/38/38 36/36/36
f 39/39/39 37/37/37 33/33/33
f 40/40/40 36/36/36 38/38/38
f 40/40/40 39/39/39 33/33/33
f 39/39/39 40/40/40 38/38/38
f 43/43/43 42/42/42 41/41/41
f 44/44/44 43/43/43 41/41/41
f 41/41/41 42/42/42 45/45/45
f 46/46/46 43/43/43 44/44/44
f 42/42/42 47/47/47 45/45/45
f 48/48/48 46/46/46 44/44/44
f 45/45/45 47/47/47 48/48/48
f 47/47/47 46/46/46 48/48/48
