g obj_flag_L
v 0.7208095 1.695998 0.5111002
v 0.41796893 1.6472856 0.49211997
v 0.5792349 1.442634 0.37396398
v 0.41097343 1.6450205 0.49081197
v 0.115878135 1.6047678 0.4728044
v 0.2741114 1.3894252 0.34847623
v 0.11985952 1.6040734 0.47240344
v -0.18605329 1.5729247 0.45441985
v -0.04087311 1.3594315 0.3311593
v -0.19589695 1.5701561 0.45282128
v -0.4931929 1.5440418 0.4377441
v -0.34880805 1.3214779 0.3092467
v 0.8339975 1.7034309 0.47549775
v 0.8339975 1.7245212 0.53296673
v 0.8339975 1.7441334 0.49899742
v 0.8339975 1.6838187 0.5094672
v 0.8339975 1.7441334 0.49899742
v 0.795341 1.7448725 0.5447165
v 0.795341 1.7644846 0.51074713
v 0.8339975 1.7245212 0.53296673
v 0.795341 1.7644846 0.51074713
v 0.75668484 1.7245209 0.5329666
v 0.75668484 1.7441334 0.49899742
v 0.795341 1.7448725 0.5447165
v 0.75668484 1.7441334 0.49899742
v 0.75668484 1.6838186 0.5094671
v 0.75668484 1.7034309 0.47549775
v 0.75668484 1.7245209 0.5329666
v 0.75668484 1.7034309 0.47549775
v 0.795341 1.6634676 0.4977174
v 0.795341 1.6830796 0.46374804
v 0.75668484 1.6838186 0.5094671
v 0.795341 1.6830796 0.46374804
v 0.8339975 1.6838187 0.5094672
v 0.8339975 1.7034309 0.47549775
v 0.795341 1.6634676 0.4977174
v 0.8339975 1.7034309 0.47549775
v 0.75668484 1.7034309 0.47549775
v 0.795341 1.6830796 0.46374804
v 0.795341 1.7644846 0.51074713
v 0.8339975 1.7441334 0.49899742
v 0.75668484 1.7441334 0.49899742
v 0.80005544 1.7128494 0.4963209
v 0.3697492 1.6431775 0.4899057
v 0.3697498 1.6353586 0.46072513
v 0.80005544 1.7206683 0.5255014
v -0.11342425 1.5888057 0.46374646
v 0.3697498 1.6353586 0.46072513
v 0.3697492 1.6431775 0.4899057
v -0.11342394 1.5809867 0.4345658
v 0.3697498 1.6353586 0.46072513
v 0.80005544 1.6836687 0.5041396
v 0.80005544 1.7128494 0.4963209
v 0.3697492 1.6061777 0.46854398
v -0.11342394 1.5809867 0.4345658
v -0.11342425 1.5518061 0.44238475
v -0.50376856 1.5624586 0.4238685
v -0.50376886 1.5332776 0.43168736
v -0.50376856 1.5702772 0.4530491
v -0.11342394 1.5809867 0.4345658
v -0.11342425 1.5888057 0.46374646
v -0.50376856 1.5624586 0.4238685
vt 0.15357986 0.8588712
vt 0.16356774 0.8588712
vt 0.1591647 0.85125077
vt 0.15367524 0.8496002
vt 0.16366312 0.8496002
vt 0.1591647 0.84156513
vt 0.15357986 0.8588712
vt 0.16356774 0.8588712
vt 0.1591647 0.85125077
vt 0.15367524 0.8496002
vt 0.16366312 0.8496002
vt 0.1591647 0.84156513
vt 0.21424931 0.8885869
vt 0.19869637 0.8911791
vt 0.21424931 0.8911791
vt 0.19869637 0.8885869
vt 0.21424931 0.8911791
vt 0.19869637 0.8937713
vt 0.21424931 0.8937713
vt 0.19869637 0.8911791
vt 0.21424931 0.8937713
vt 0.19869637 0.8911791
vt 0.21424931 0.8911791
vt 0.19869637 0.8937713
vt 0.21424931 0.8911791
vt 0.19869637 0.8885869
vt 0.21424931 0.8885869
vt 0.19869637 0.8911791
vt 0.21424931 0.8885869
vt 0.19869637 0.8859948
vt 0.21424931 0.8859948
vt 0.19869637 0.8885869
vt 0.21424931 0.8859948
vt 0.19869637 0.8885869
vt 0.21424931 0.8885869
vt 0.19869637 0.8859948
vt 0.1931384 0.92041624
vt 0.19578573 0.91583097
vt 0.19578573 0.91888785
vt 0.19049108 0.91583097
vt 0.19049108 0.91888785
vt 0.1931384 0.91430247
vt 0.10823015 0.85831773
vt 0.11141486 0.8610302
vt 0.11141486 0.85831773
vt 0.10823015 0.8610302
vt 0.11300721 0.8610302
vt 0.11141486 0.85831773
vt 0.11141486 0.8610302
vt 0.11300721 0.85831773
vt 0.11141486 0.85831773
vt 0.10823015 0.85544205
vt 0.10823015 0.85831773
vt 0.11141486 0.85544205
vt 0.11300721 0.85831773
vt 0.11300721 0.85544205
vt 0.11459956 0.85831773
vt 0.11459956 0.85544205
vt 0.11459956 0.8610302
vt 0.11300721 0.85831773
vt 0.11300721 0.8610302
vt 0.11459956 0.85831773
vn -0.023411864 0.48596358 -0.87366545
vn -0.023411863 0.48596352 -0.87366545
vn -0.023411863 0.48596352 -0.87366545
vn -0.014026593 0.49220112 -0.8703685
vn -0.014026593 0.49220112 -0.8703685
vn -0.014026593 0.49220112 -0.8703685
vn -3.837798E-07 0.5000005 -0.86602515
vn -3.8377974E-07 0.5000004 -0.86602515
vn -3.8377974E-07 0.5000004 -0.86602515
vn -0 0.5000004 -0.86602515
vn -0 0.50000036 -0.86602527
vn -0 0.50000036 -0.86602527
vn 1 0 0
vn 1 0 0
vn 1 0 0
vn 1 0 0
vn 0.51945597 0.7400165 0.42724833
vn 0.5194559 0.7400165 0.4272483
vn 0.51945597 0.7400165 0.4272483
vn 0.51945627 0.7400161 0.42724857
vn -0.519459 0.7400128 0.42725095
vn -0.519459 0.7400128 0.42725095
vn -0.5194589 0.7400128 0.42725095
vn -0.519462 0.7400133 0.42724642
vn -1 0 0
vn -1 0 0
vn -1 0 0
vn -1 0 0
vn -0.51945895 -0.7400166 -0.42724448
vn -0.51945895 -0.7400166 -0.42724448
vn -0.51945895 -0.74001664 -0.42724448
vn -0.51945436 -0.7400159 -0.4272513
vn 0.5194559 -0.7400169 -0.42724755
vn 0.51945597 -0.7400169 -0.42724755
vn 0.5194559 -0.7400169 -0.42724755
vn 0.51945406 -0.7400192 -0.427246
vn -0 0.4999972 -0.86602694
vn -0 0.4999972 -0.86602694
vn -0 0.49999723 -0.86602706
vn -3.1405264E-06 0.5000018 -0.8660244
vn 3.1405013E-06 0.5000017 -0.86602443
vn -3.140526E-06 0.5000018 -0.8660244
vn -0.15079239 0.9548798 -0.2558633
vn -0.15079239 0.9548798 -0.2558633
vn -0.15079239 0.9548798 -0.25586328
vn -0.15079251 0.9548804 -0.25586167
vn -0.0942618 0.96162426 -0.2576693
vn -0.0942618 0.96162426 -0.25766933
vn -0.0942618 0.96162426 -0.2576693
vn -0.09426183 0.9616247 -0.25766775
vn 0.12551141 -0.25677142 -0.9582877
vn 0.12551141 -0.25677142 -0.9582877
vn 0.12551092 -0.25676548 -0.9582893
vn 0.1255114 -0.2567714 -0.9582877
vn 0.081152126 -0.2579636 -0.9627405
vn 0.08115221 -0.2579664 -0.9627397
vn 0.038727056 -0.25862545 -0.9652011
vn 0.038727242 -0.25862053 -0.9652024
vn -0.03872753 0.9652011 -0.25862548
vn -0.03872753 0.9652011 -0.25862545
vn -0.03872753 0.9652011 -0.25862548
vn -0.03872715 0.9652035 -0.25861618
g obj_flag_L_0
f 3/3/3 2/2/2 1/1/1
f 6/6/6 5/5/5 4/4/4
f 9/9/9 8/8/8 7/7/7
f 12/12/12 11/11/11 10/10/10
f 15/15/15 14/14/14 13/13/13
f 16/16/16 13/13/13 14/14/14
f 19/19/19 18/18/18 17/17/17
f 20/20/20 17/17/17 18/18/18
f 23/23/23 22/22/22 21/21/21
f 24/24/24 21/21/21 22/22/22
f 27/27/27 26/26/26 25/25/25
f 28/28/28 25/25/25 26/26/26
f 31/31/31 30/30/30 29/29/29
f 32/32/32 29/29/29 30/30/30
f 35/35/35 34/34/34 33/33/33
f 36/36/36 33/33/33 34/34/34
f 39/39/39 38/38/38 37/37/37
f 38/38/38 40/40/40 37/37/37
f 40/40/40 41/41/41 37/37/37
f 42/42/42 40/40/40 38/38/38
f 45/45/45 44/44/44 43/43/43
f 46/46/46 43/43/43 44/44/44
f 49/49/49 48/48/48 47/47/47
f 50/50/50 47/47/47 48/48/48
f 53/53/53 52/52/52 51/51/51
f 54/54/54 51/51/51 52/52/52
f 51/51/51 54/54/54 55/55/55
f 56/56/56 55/55/55 54/54/54
f 55/55/55 56/56/56 57/57/57
f 58/58/58 57/57/57 56/56/56
f 61/61/61 60/60/60 59/59/59
f 62/62/62 59/59/59 60/60/60
