g obj_fence_3
v 0.034777883 1.291006 -0.5034256
v 0.46746334 1.291006 -0.50342596
v 0.25112063 1.6520016 -0.5034256
v 0.25112063 1.6958284 -0.43120146
v 0.0071972474 1.3091184 -0.43120176
v 0.034777883 1.291006 -0.5034256
v 0.25112063 1.6520016 -0.5034256
v 0.49504277 0.0014306911 -0.43120176
v 0.49504277 1.3091184 -0.43120176
v 0.46746334 1.291006 -0.50342596
v 0.46746334 3.07312E-07 -0.5034256
v 0.034777883 3.07312E-07 -0.5034256
v 0.46746334 3.07312E-07 -0.5034256
v 0.46746334 1.291006 -0.50342596
v 0.034777883 1.291006 -0.5034256
v 0.034777883 3.07312E-07 -0.5034256
v 0.034777883 1.291006 -0.5034256
v 0.0071972474 1.3091184 -0.43120176
v 0.0071972474 0.0014306911 -0.43120146
v 0.49504277 1.3091184 -0.43120176
v 0.25112063 1.6958284 -0.43120146
v 0.25112063 1.6520016 -0.5034256
v 0.46746334 1.291006 -0.50342596
v -0.32295665 1.774024 -0.43120146
v -0.51916796 1.477456 -0.43120176
v -0.49158734 1.4593434 -0.5034256
v -0.32295665 1.7301972 -0.5034256
v 0.0023859704 0.0014308447 -0.43120146
v 0.0023859704 1.477456 -0.43120176
v -0.025193438 1.4593434 -0.5034256
v -0.025193438 3.07312E-07 -0.5034256
v -0.49158734 3.07312E-07 -0.5034256
v -0.025193438 3.07312E-07 -0.5034256
v -0.025193438 1.4593434 -0.5034256
v -0.49158734 1.4593434 -0.5034256
v -0.32295665 1.7301972 -0.5034256
v -0.49158734 3.07312E-07 -0.5034256
v -0.49158734 1.4593434 -0.5034256
v -0.51916796 1.477456 -0.43120176
v -0.51916796 0.0014308447 -0.43120146
v 0.0023859704 1.477456 -0.43120176
v -0.32295665 1.774024 -0.43120146
v -0.32295665 1.7301972 -0.5034256
v -0.025193438 1.4593434 -0.5034256
vt 0.36340562 0.5646421
vt 0.36340562 0.5368909
vt 0.38230953 0.5494837
vt 0.3950016 0.5532442
vt 0.3950016 0.57052153
vt 0.38770935 0.57052153
vt 0.38770935 0.5532442
vt 0.29782704 0.53140837
vt 0.36340562 0.53140837
vt 0.36340562 0.5353363
vt 0.29782704 0.5353363
vt 0.29782704 0.5646421
vt 0.29782704 0.5368909
vt 0.36340562 0.5368909
vt 0.36340562 0.5646421
vt 0.29782704 0.5673627
vt 0.36340562 0.5673627
vt 0.36340562 0.5719544
vt 0.29782704 0.5719544
vt 0.3950016 0.5322919
vt 0.3950016 0.5505946
vt 0.38770935 0.5505946
vt 0.38770935 0.5322919
vt 0.3950016 0.5532442
vt 0.3950016 0.57052153
vt 0.38770935 0.57052153
vt 0.38770935 0.5532442
vt 0.29782704 0.53140837
vt 0.36340562 0.53140837
vt 0.36340562 0.5353363
vt 0.29782704 0.5353363
vt 0.29782704 0.5646421
vt 0.29782704 0.5368909
vt 0.36340562 0.5368909
vt 0.36340562 0.5646421
vt 0.38230953 0.5494837
vt 0.29782704 0.5673627
vt 0.36340562 0.5673627
vt 0.36340562 0.5719544
vt 0.29782704 0.5719544
vt 0.3950016 0.5322919
vt 0.3950016 0.5505946
vt 0.38770935 0.5505946
vt 0.38770935 0.5322919
vn -7.102435E-07 4.2564494E-07 -1
vn -7.102435E-07 4.2564494E-07 -1
vn -7.102434E-07 4.2564494E-07 -1
vn -0.79408664 0.48881695 -0.3612263
vn -0.7940867 0.48881695 -0.3612263
vn -0.79408664 0.48881695 -0.36122626
vn -0.79408664 0.48881695 -0.3612263
vn 0.93420553 0 -0.35673508
vn 0.93420553 0 -0.35673514
vn 0.93420553 0 -0.35673508
vn 0.93420553 0 -0.35673508
vn -3.5512167E-07 -1.190204E-07 -1
vn -3.5512167E-07 -1.190204E-07 -1
vn -3.5512167E-07 -1.190204E-07 -1
vn -3.5512167E-07 -1.190204E-07 -1
vn -0.93420035 0 -0.35674897
vn -0.93420035 0 -0.35674897
vn -0.93420035 0 -0.35674894
vn -0.93420035 0 -0.35674894
vn 0.7940893 0.4888175 -0.3612195
vn 0.7940893 0.4888175 -0.36121953
vn 0.7940894 0.4888175 -0.3612195
vn 0.7940893 0.48881757 -0.36121953
vn -0.78297526 0.50343925 -0.36537474
vn -0.78297526 0.5034393 -0.3653747
vn -0.78297526 0.50343925 -0.36537477
vn -0.78297526 0.50343925 -0.36537474
vn 0.93420553 0 -0.35673508
vn 0.93420553 0 -0.35673508
vn 0.93420553 0 -0.35673508
vn 0.93420553 0 -0.35673508
vn -0 0 -1
vn -0 0 -1
vn -0 0 -1
vn -0 0 -1
vn -0 0 -1
vn -0.9342002 0 -0.35674897
vn -0.9342002 0 -0.35674894
vn -0.9342002 0 -0.35674897
vn -0.9342002 0 -0.35674903
vn 0.615004 0.67535764 -0.4070161
vn 0.615004 0.6753577 -0.40701616
vn 0.61500394 0.6753577 -0.4070161
vn 0.615004 0.6753577 -0.4070161
g obj_fence_3_0
f 3/3/3 2/2/2 1/1/1
f 6/6/6 5/5/5 4/4/4
f 7/7/7 6/6/6 4/4/4
f 10/10/10 9/9/9 8/8/8
f 11/11/11 10/10/10 8/8/8
f 14/14/14 13/13/13 12/12/12
f 15/15/15 14/14/14 12/12/12
f 18/18/18 17/17/17 16/16/16
f 19/19/19 18/18/18 16/16/16
f 22/22/22 21/21/21 20/20/20
f 23/23/23 22/22/22 20/20/20
f 26/26/26 25/25/25 24/24/24
f 27/27/27 26/26/26 24/24/24
f 30/30/30 29/29/29 28/28/28
f 31/31/31 30/30/30 28/28/28
f 34/34/34 33/33/33 32/32/32
f 35/35/35 34/34/34 32/32/32
f 36/36/36 34/34/34 35/35/35
f 39/39/39 38/38/38 37/37/37
f 40/40/40 39/39/39 37/37/37
f 43/43/43 42/42/42 41/41/41
f 44/44/44 43/43/43 41/41/41
