g obj_table1
v -1.4261187 0.41942954 0.45728785
v -1.4909148 0.41942942 0.39236575
v -1.4389462 0.44537255 0.4139044
v 0.48578373 0.41942942 0.39236513
v 0.4209875 0.41942954 0.45728728
v 0.43381512 0.44537255 0.41390386
v -1.4909152 0.41942966 -0.39608616
v -1.426119 0.41942954 -0.461008
v -1.4389465 0.44537276 -0.41762477
v 0.42098725 0.41942954 -0.46100855
v 0.48578343 0.41942966 -0.39608675
v 0.43381488 0.44537276 -0.4176253
v -1.4435467 0.28706077 0.4660059
v -1.4261187 0.41942954 0.45728785
v 0.4209875 0.41942954 0.45728728
v 0.43841547 0.28706077 0.46600536
v 0.43841523 0.28706083 -0.46972653
v 0.42098725 0.41942954 -0.46100855
v -1.426119 0.41942954 -0.461008
v -1.443547 0.28706083 -0.46972597
v -1.5095656 0.2870608 0.39998686
v -1.509566 0.28706083 -0.40370703
v -1.4909152 0.41942966 -0.39608616
v -1.4909148 0.41942942 0.39236575
v -1.4389462 0.44537255 0.4139044
v 0.43381512 0.44537255 0.41390386
v 0.4209875 0.41942954 0.45728728
v -1.4261187 0.41942954 0.45728785
v 0.43381488 0.44537276 -0.4176253
v -1.4389465 0.44537276 -0.41762477
v -1.426119 0.41942954 -0.461008
v 0.42098725 0.41942954 -0.46100855
v -1.4909152 0.41942966 -0.39608616
v -1.4389465 0.44537276 -0.41762477
v -1.4389462 0.44537255 0.4139044
v -1.4909148 0.41942942 0.39236575
v 0.43841547 0.28706077 0.46600536
v 0.4209875 0.41942954 0.45728728
v 0.48578373 0.41942942 0.39236513
v 0.50443435 0.2870608 0.39998624
v -1.4261187 0.41942954 0.45728785
v -1.4435467 0.28706077 0.4660059
v -1.5095656 0.2870608 0.39998686
v -1.4909148 0.41942942 0.39236575
v 0.50443417 0.28706083 -0.40370765
v 0.48578343 0.41942966 -0.39608675
v 0.42098725 0.41942954 -0.46100855
v 0.43841523 0.28706083 -0.46972653
v -1.443547 0.28706083 -0.46972597
v -1.426119 0.41942954 -0.461008
v -1.4909152 0.41942966 -0.39608616
v -1.509566 0.28706083 -0.40370703
v 0.43381488 0.44537276 -0.4176253
v 0.43381512 0.44537255 0.41390386
v -1.4389462 0.44537255 0.4139044
v -1.4389465 0.44537276 -0.41762477
v 0.50443417 0.28706083 -0.40370765
v 0.50443435 0.2870608 0.39998624
v 0.48578373 0.41942942 0.39236513
v 0.48578343 0.41942966 -0.39608675
v 0.48578343 0.41942966 -0.39608675
v 0.48578373 0.41942942 0.39236513
v 0.43381512 0.44537255 0.41390386
v 0.43381488 0.44537276 -0.4176253
v -1.4228774 7.6211094E-08 -0.26051453
v -1.4228774 0.35370383 -0.2605144
v -1.3124956 0.35370383 -0.2605144
v -1.3124956 7.6211094E-08 -0.26051456
v -1.2806852 7.760158E-08 -0.29232508
v -1.2806852 0.35370383 -0.29232496
v -1.2806854 0.35370392 -0.4009036
v -1.2806854 8.2347704E-08 -0.40090373
v -1.3124956 1.0294517E-07 -0.4327141
v -1.3124956 0.35370398 -0.432714
v -1.4228774 0.35370398 -0.43271393
v -1.4228774 1.0294517E-07 -0.43271405
v -1.454688 8.2347704E-08 -0.40090367
v -1.454688 0.35370392 -0.40090358
v -1.454688 0.35370383 -0.292325
v -1.454688 7.760158E-08 -0.29232502
v -1.3124956 7.6211094E-08 -0.26051456
v -1.3124956 0.35370383 -0.2605144
v -1.2806852 0.35370383 -0.29232496
v -1.2806852 7.760158E-08 -0.29232508
v -1.4228774 0.35370383 -0.2605144
v -1.4228774 7.6211094E-08 -0.26051453
v -1.454688 7.760158E-08 -0.29232502
v -1.454688 0.35370383 -0.292325
v -1.2806854 8.2347704E-08 -0.40090373
v -1.2806854 0.35370392 -0.4009036
v -1.3124956 0.35370398 -0.432714
v -1.3124956 1.0294517E-07 -0.4327141
v -1.4228774 1.0294517E-07 -0.43271405
v -1.4228774 0.35370398 -0.43271393
v -1.454688 0.35370392 -0.40090358
v -1.454688 8.2347704E-08 -0.40090367
v -1.4228772 6.5075454E-08 0.43364424
v -1.4228772 0.35370398 0.4336444
v -1.3124954 0.35370398 0.43364435
v -1.3124954 6.5075454E-08 0.4336442
v -1.2806852 4.725894E-08 0.40183374
v -1.2806853 0.35370398 0.4018339
v -1.2806851 0.35370398 0.29325515
v -1.2806851 9.041905E-08 0.29325518
v -1.3124954 1.1101653E-07 0.26144484
v -1.3124954 0.35370398 0.26144484
v -1.4228772 0.35370398 0.26144487
v -1.4228772 1.1101653E-07 0.26144484
v -1.4546877 9.041905E-08 0.29325527
v -1.4546877 0.35370398 0.2932552
v -1.4546877 0.35370398 0.40183392
v -1.4546877 4.7258933E-08 0.40183377
v -1.3124954 6.5075454E-08 0.4336442
v -1.3124954 0.35370398 0.43364435
v -1.2806853 0.35370398 0.4018339
v -1.2806852 4.725894E-08 0.40183374
v -1.4228772 0.35370398 0.4336444
v -1.4228772 6.5075454E-08 0.43364424
v -1.4546877 4.7258933E-08 0.40183377
v -1.4546877 0.35370398 0.40183392
v -1.2806851 9.041905E-08 0.29325518
v -1.2806851 0.35370398 0.29325515
v -1.3124954 0.35370398 0.26144484
v -1.3124954 1.1101653E-07 0.26144484
v -1.4228772 1.1101653E-07 0.26144484
v -1.4228772 0.35370398 0.26144487
v -1.4546877 0.35370398 0.2932552
v -1.4546877 9.041905E-08 0.29325527
v 0.3050286 7.6211094E-08 -0.26051506
v 0.3050286 0.35370383 -0.2605149
v 0.41541055 0.35370383 -0.260515
v 0.41541055 7.62111E-08 -0.26051515
v 0.44722086 7.760158E-08 -0.29232562
v 0.44722086 0.35370383 -0.29232553
v 0.44722083 0.35370392 -0.40090427
v 0.44722092 8.2347704E-08 -0.4009044
v 0.41541058 1.0294517E-07 -0.43271458
v 0.41541058 0.35370398 -0.43271443
v 0.30502856 0.35370398 -0.4327144
v 0.30502856 1.0294517E-07 -0.43271455
v 0.2732181 8.2347704E-08 -0.40090418
v 0.27321815 0.35370392 -0.40090403
v 0.27321818 0.35370383 -0.29232538
v 0.2732181 7.760158E-08 -0.29232553
v 0.41541055 7.62111E-08 -0.26051515
v 0.41541055 0.35370383 -0.260515
v 0.44722086 0.35370383 -0.29232553
v 0.44722086 7.760158E-08 -0.29232562
v 0.3050286 0.35370383 -0.2605149
v 0.3050286 7.6211094E-08 -0.26051506
v 0.2732181 7.760158E-08 -0.29232553
v 0.27321818 0.35370383 -0.29232538
v 0.44722092 8.2347704E-08 -0.4009044
v 0.44722083 0.35370392 -0.40090427
v 0.41541058 0.35370398 -0.43271443
v 0.41541058 1.0294517E-07 -0.43271458
v 0.30502856 1.0294517E-07 -0.43271455
v 0.30502856 0.35370398 -0.4327144
v 0.27321815 0.35370392 -0.40090403
v 0.2732181 8.2347704E-08 -0.40090418
v 0.30502883 4.586845E-08 0.4336437
v 0.30502883 0.35370398 0.43364394
v 0.41541067 0.35370398 0.4336439
v 0.41541067 4.5868457E-08 0.43364367
v 0.44722098 4.7258943E-08 0.40183303
v 0.44722113 0.35370398 0.40183324
v 0.4472211 0.35370398 0.29325464
v 0.447221 9.041905E-08 0.29325464
v 0.4154107 1.4943053E-07 0.26144424
v 0.4154107 0.35370398 0.26144424
v 0.30502877 0.35370398 0.26144436
v 0.30502877 1.4943053E-07 0.26144433
v 0.27321836 9.041905E-08 0.2932547
v 0.27321836 0.35370398 0.2932547
v 0.2732183 0.35370398 0.40183344
v 0.2732183 4.725893E-08 0.40183324
v 0.41541067 4.5868457E-08 0.43364367
v 0.41541067 0.35370398 0.4336439
v 0.44722113 0.35370398 0.40183324
v 0.44722098 4.7258943E-08 0.40183303
v 0.30502883 0.35370398 0.43364394
v 0.30502883 4.586845E-08 0.4336437
v 0.2732183 4.725893E-08 0.40183324
v 0.2732183 0.35370398 0.40183344
v 0.447221 9.041905E-08 0.29325464
v 0.4472211 0.35370398 0.29325464
v 0.4154107 0.35370398 0.26144424
v 0.4154107 1.4943053E-07 0.26144424
v 0.30502877 1.4943053E-07 0.26144433
v 0.30502877 0.35370398 0.26144436
v 0.27321836 0.35370398 0.2932547
v 0.27321836 9.041905E-08 0.2932547
vt 0.2651321 0.02860516
vt 0.2631489 0.028906152
vt 0.26473948 0.028806293
vt 0.32364988 0.028906155
vt 0.3216667 0.028605163
vt 0.32205927 0.028806295
vt 0.26314887 0.03256157
vt 0.2651321 0.032862566
vt 0.26473948 0.03266143
vt 0.3216667 0.032862566
vt 0.32364988 0.032561578
vt 0.32205927 0.032661434
vt 0.2896806 0.0018589098
vt 0.2896806 0.022251388
vt 0.26313996 0.022251388
vt 0.26313996 0.0018589098
vt 0.26313996 0.0018589098
vt 0.26313996 0.022251388
vt 0.2896806 0.022251388
vt 0.2896806 0.0018589098
vt 0.3027469 0.0018589098
vt 0.32328835 0.0018589098
vt 0.32328835 0.022251388
vt 0.3027469 0.022251388
vt 0.26473948 0.028806293
vt 0.32205927 0.028806295
vt 0.3216667 0.028605163
vt 0.2651321 0.02860516
vt 0.32205927 0.032661434
vt 0.26473948 0.03266143
vt 0.2651321 0.032862566
vt 0.3216667 0.032862566
vt 0.26314887 0.03256157
vt 0.26473948 0.03266143
vt 0.26473948 0.028806293
vt 0.2631489 0.028906152
vt 0.29347524 0.0018589098
vt 0.29347524 0.022251388
vt 0.29975715 0.022251388
vt 0.29975715 0.0018589098
vt 0.29347524 0.022251388
vt 0.29347524 0.0018589098
vt 0.29975715 0.0018589098
vt 0.29975715 0.022251388
vt 0.29975715 0.0018589098
vt 0.29975715 0.022251388
vt 0.29347524 0.022251388
vt 0.29347524 0.0018589098
vt 0.29347524 0.0018589098
vt 0.29347524 0.022251388
vt 0.29975715 0.022251388
vt 0.29975715 0.0018589098
vt 0.32392097 0.03547402
vt 0.32392097 0.06298008
vt 0.26312408 0.06298008
vt 0.26312408 0.03547402
vt 0.32328835 0.0018589098
vt 0.3027469 0.0018589098
vt 0.3027469 0.022251388
vt 0.32328835 0.022251388
vt 0.32364988 0.032561578
vt 0.32364988 0.028906155
vt 0.32205927 0.028806295
vt 0.32205927 0.032661434
vt 0.326364 0.0028072794
vt 0.326364 0.0614204
vt 0.33715233 0.0614204
vt 0.33715233 0.0028072794
vt 0.33715233 0.0028072794
vt 0.33715233 0.0614204
vt 0.326364 0.0614204
vt 0.326364 0.0028072794
vt 0.33715233 0.0028072794
vt 0.33715233 0.0614204
vt 0.326364 0.0614204
vt 0.326364 0.0028072794
vt 0.326364 0.0028072794
vt 0.326364 0.0614204
vt 0.33715233 0.0614204
vt 0.33715233 0.0028072794
vt 0.33905676 0.0028072794
vt 0.33905676 0.0614204
vt 0.3446357 0.0614204
vt 0.3446357 0.0028072794
vt 0.33905676 0.0614204
vt 0.33905676 0.0028072794
vt 0.3446357 0.0028072794
vt 0.3446357 0.0614204
vt 0.3446357 0.0028072794
vt 0.3446357 0.0614204
vt 0.33905676 0.0614204
vt 0.33905676 0.0028072794
vt 0.33905676 0.0028072794
vt 0.33905676 0.0614204
vt 0.3446357 0.0614204
vt 0.3446357 0.0028072794
vt 0.326364 0.0028072794
vt 0.326364 0.0614204
vt 0.33715233 0.0614204
vt 0.33715233 0.0028072794
vt 0.33715233 0.0028072794
vt 0.33715233 0.0614204
vt 0.326364 0.0614204
vt 0.326364 0.0028072794
vt 0.33715233 0.0028072794
vt 0.33715233 0.0614204
vt 0.326364 0.0614204
vt 0.326364 0.0028072794
vt 0.326364 0.0028072794
vt 0.326364 0.0614204
vt 0.33715233 0.0614204
vt 0.33715233 0.0028072794
vt 0.33905676 0.0028072794
vt 0.33905676 0.0614204
vt 0.3446357 0.0614204
vt 0.3446357 0.0028072794
vt 0.33905676 0.0614204
vt 0.33905676 0.0028072794
vt 0.3446357 0.0028072794
vt 0.3446357 0.0614204
vt 0.3446357 0.0028072794
vt 0.3446357 0.0614204
vt 0.33905676 0.0614204
vt 0.33905676 0.0028072794
vt 0.33905676 0.0028072794
vt 0.33905676 0.0614204
vt 0.3446357 0.0614204
vt 0.3446357 0.0028072794
vt 0.326364 0.0028072794
vt 0.326364 0.0614204
vt 0.33715233 0.0614204
vt 0.33715233 0.0028072794
vt 0.33715233 0.0028072794
vt 0.33715233 0.0614204
vt 0.326364 0.0614204
vt 0.326364 0.0028072794
vt 0.33715233 0.0028072794
vt 0.33715233 0.0614204
vt 0.326364 0.0614204
vt 0.326364 0.0028072794
vt 0.326364 0.0028072794
vt 0.326364 0.0614204
vt 0.33715233 0.0614204
vt 0.33715233 0.0028072794
vt 0.33905676 0.0028072794
vt 0.33905676 0.0614204
vt 0.3446357 0.0614204
vt 0.3446357 0.0028072794
vt 0.33905676 0.0614204
vt 0.33905676 0.0028072794
vt 0.3446357 0.0028072794
vt 0.3446357 0.0614204
vt 0.3446357 0.0028072794
vt 0.3446357 0.0614204
vt 0.33905676 0.0614204
vt 0.33905676 0.0028072794
vt 0.33905676 0.0028072794
vt 0.33905676 0.0614204
vt 0.3446357 0.0614204
vt 0.3446357 0.0028072794
vt 0.326364 0.0028072794
vt 0.326364 0.0614204
vt 0.33715233 0.0614204
vt 0.33715233 0.0028072794
vt 0.33715233 0.0028072794
vt 0.33715233 0.0614204
vt 0.326364 0.0614204
vt 0.326364 0.0028072794
vt 0.33715233 0.0028072794
vt 0.33715233 0.0614204
vt 0.326364 0.0614204
vt 0.326364 0.0028072794
vt 0.326364 0.0028072794
vt 0.326364 0.0614204
vt 0.33715233 0.0614204
vt 0.33715233 0.0028072794
vt 0.33905676 0.0028072794
vt 0.33905676 0.0614204
vt 0.3446357 0.0614204
vt 0.3446357 0.0028072794
vt 0.33905676 0.0614204
vt 0.33905676 0.0028072794
vt 0.3446357 0.0028072794
vt 0.3446357 0.0614204
vt 0.3446357 0.0028072794
vt 0.3446357 0.0614204
vt 0.33905676 0.0614204
vt 0.33905676 0.0028072794
vt 0.33905676 0.0028072794
vt 0.33905676 0.0614204
vt 0.3446357 0.0614204
vt 0.3446357 0.0028072794
vn -0.5442735 0.63928264 0.5432164
vn -0.5442735 0.63928264 0.5432164
vn -0.5442735 0.63928264 0.5432164
vn 0.5442741 0.63928133 0.5432173
vn 0.54427415 0.63928145 0.5432173
vn 0.54427415 0.63928133 0.54321736
vn -0.5442732 0.63927954 -0.5432203
vn -0.5442732 0.63927954 -0.5432203
vn -0.54427314 0.63927954 -0.5432202
vn 0.54427326 0.63927877 -0.54322124
vn 0.54427326 0.63927877 -0.54322124
vn 0.54427326 0.63927877 -0.54322135
vn 2.8776708E-07 0.065719515 0.9978382
vn 2.8776708E-07 0.06571952 0.9978382
vn 2.8776708E-07 0.06571952 0.9978382
vn 2.8776708E-07 0.065719515 0.9978382
vn -2.8776725E-07 0.06571897 -0.9978382
vn -2.8776725E-07 0.06571897 -0.9978382
vn -2.8776725E-07 0.06571897 -0.9978382
vn -2.8776725E-07 0.06571897 -0.9978382
vn -0.99021894 0.13952196 4.0621836E-07
vn -0.99021894 0.13952196 4.0621836E-07
vn -0.99021894 0.13952196 4.0621836E-07
vn -0.99021894 0.13952196 4.0621842E-07
vn 1.4850612E-07 0.8582517 0.51322895
vn 1.4850612E-07 0.8582517 0.51322895
vn 1.4850612E-07 0.8582517 0.51322895
vn 1.4850612E-07 0.8582517 0.51322895
vn -1.4837764E-07 0.8582487 -0.5132341
vn -1.4837764E-07 0.8582487 -0.51323396
vn -1.4837768E-07 0.8582487 -0.5132341
vn -1.4837768E-07 0.8582487 -0.513234
vn -0.4466463 0.8947106 4.244637E-07
vn -0.44664627 0.8947106 4.244637E-07
vn -0.4466463 0.8947106 4.244637E-07
vn -0.44664627 0.8947106 4.244637E-07
vn 0.70061177 0.13867879 0.69993675
vn 0.70061177 0.13867879 0.69993675
vn 0.70061177 0.13867879 0.69993675
vn 0.70061177 0.13867879 0.69993675
vn -0.70061153 0.13867916 0.6999368
vn -0.70061153 0.13867919 0.6999369
vn -0.70061153 0.13867919 0.6999369
vn -0.70061153 0.13867919 0.6999369
vn 0.70061004 0.13867821 -0.6999385
vn 0.70061004 0.13867821 -0.6999385
vn 0.70061004 0.13867821 -0.6999385
vn 0.70061004 0.13867821 -0.69993854
vn -0.7006107 0.13867825 -0.6999378
vn -0.7006107 0.13867825 -0.6999379
vn -0.7006107 0.13867825 -0.6999379
vn -0.70061064 0.13867825 -0.69993794
vn -0 1 2.771809E-07
vn -0 1 2.771809E-07
vn -0 1 2.771809E-07
vn -0 1 2.771809E-07
vn 0.99021906 0.13952142 -2.63315E-07
vn 0.99021906 0.13952142 -2.6331503E-07
vn 0.99021906 0.1395214 -2.6331503E-07
vn 0.99021906 0.1395214 -2.6331503E-07
vn 0.4466466 0.8947105 1.06372944E-07
vn 0.4466466 0.8947105 1.0637295E-07
vn 0.44664666 0.8947104 1.0637295E-07
vn 0.4466466 0.8947105 1.06372944E-07
vn 1.7400504E-07 -3.8011757E-07 1
vn 1.7400504E-07 -3.8011757E-07 1
vn 1.7400504E-07 -3.8011757E-07 1
vn 1.7400504E-07 -3.8011757E-07 1
vn 1 0 -1.4151587E-06
vn 1 0 -1.4151587E-06
vn 1 0 -1.4151589E-06
vn 1 0 -1.4151589E-06
vn -3.480101E-07 3.258149E-07 -1
vn -3.480101E-07 3.258149E-07 -1
vn -3.480101E-07 3.258149E-07 -1
vn -3.480101E-07 3.258149E-07 -1
vn -1 0 0
vn -1 0 0
vn -1 0 0
vn -1 0 0
vn 0.70710814 -2.4994256E-07 0.70710534
vn 0.70710814 -2.4994253E-07 0.70710534
vn 0.70710814 -2.4994256E-07 0.70710534
vn 0.70710814 -2.4994253E-07 0.70710534
vn -0.7071074 -1.7321221E-07 0.70710605
vn -0.7071075 -1.7321223E-07 0.707106
vn -0.7071074 -1.7321221E-07 0.70710605
vn -0.7071074 -1.7321221E-07 0.7071061
vn 0.707108 2.2943163E-07 -0.7071055
vn 0.7071081 2.2943166E-07 -0.70710546
vn 0.707108 2.2943163E-07 -0.7071055
vn 0.7071081 2.2943166E-07 -0.70710546
vn -0.7071055 2.309502E-07 -0.707108
vn -0.7071055 2.309502E-07 -0.707108
vn -0.7071055 2.3095018E-07 -0.707108
vn -0.70710546 2.309502E-07 -0.7071081
vn 3.4801008E-07 -4.3441983E-07 1
vn 3.4801008E-07 -4.3441983E-07 1
vn 3.4801008E-07 -4.3441983E-07 1
vn 3.4801008E-07 -4.3441983E-07 1
vn 1 2.1720967E-07 1.4151589E-06
vn 1 2.1720966E-07 1.4151589E-06
vn 1 2.1720967E-07 1.4151589E-06
vn 1 2.1720966E-07 1.4151589E-06
vn -1.7400504E-07 0 -1
vn -1.7400504E-07 0 -1
vn -1.7400504E-07 0 -1
vn -1.7400504E-07 0 -1
vn -1 0 0
vn -1 0 0
vn -1 0 0
vn -1 0 0
vn 0.70711106 -1.5346095E-07 0.7071025
vn 0.707111 -1.5346095E-07 0.7071025
vn 0.707111 -1.5346093E-07 0.7071025
vn 0.707111 -1.5346095E-07 0.70710254
vn -0.70710677 -3.0692001E-07 0.70710677
vn -0.70710677 -3.069201E-07 0.70710677
vn -0.70710677 -3.0692007E-07 0.70710677
vn -0.70710677 -3.0692007E-07 0.70710677
vn 0.70710766 0 -0.7071059
vn 0.70710766 0 -0.7071059
vn 0.70710766 0 -0.7071059
vn 0.70710766 0 -0.7071059
vn -0.7071057 0 -0.7071078
vn -0.7071057 0 -0.70710784
vn -0.7071057 0 -0.7071079
vn -0.7071057 0 -0.7071078
vn 9.57027E-07 -4.6157132E-07 1
vn 9.57027E-07 -4.6157132E-07 1
vn 9.57027E-07 -4.6157132E-07 1
vn 9.57027E-07 -4.6157132E-07 1
vn 1 1.08605E-07 0
vn 1 1.08605E-07 0
vn 1 1.0860501E-07 0
vn 1 1.0860501E-07 0
vn -3.4800954E-07 4.344199E-07 -1
vn -3.4800954E-07 4.344199E-07 -1
vn -3.4800954E-07 4.344199E-07 -1
vn -3.4800954E-07 4.344199E-07 -1
vn -1 2.1720994E-07 1.768949E-07
vn -1 2.1720994E-07 1.7689491E-07
vn -1 2.1720996E-07 1.7689491E-07
vn -1 2.1720996E-07 1.768949E-07
vn 0.7071087 -2.2943095E-07 0.70710486
vn 0.7071087 -2.2943092E-07 0.70710486
vn 0.7071087 -2.2943092E-07 0.70710486
vn 0.7071087 -2.2943095E-07 0.70710486
vn -0.70710707 -2.4994245E-07 0.7071064
vn -0.70710707 -2.4994247E-07 0.7071064
vn -0.70710707 -2.4994247E-07 0.7071064
vn -0.70710707 -2.4994245E-07 0.7071064
vn 0.70710576 3.4414816E-07 -0.7071077
vn 0.7071057 3.441482E-07 -0.7071078
vn 0.7071057 3.4414813E-07 -0.70710784
vn 0.7071057 3.4414816E-07 -0.7071078
vn -0.7071061 3.8441087E-07 -0.7071074
vn -0.7071062 3.844109E-07 -0.7071073
vn -0.7071061 3.8441092E-07 -0.7071074
vn -0.7071061 3.8441092E-07 -0.7071074
vn 3.4801016E-07 -6.516297E-07 1
vn 3.4801016E-07 -6.516297E-07 1
vn 3.4801016E-07 -6.516297E-07 1
vn 3.4801016E-07 -6.516297E-07 1
vn 1 -3.2581494E-07 0
vn 1 -3.258149E-07 0
vn 1 -3.2581488E-07 0
vn 1 -3.258149E-07 0
vn -9.570269E-07 0 -1
vn -9.570269E-07 0 -1
vn -9.570269E-07 0 -1
vn -9.570269E-07 0 -1
vn -1 0 -5.3068453E-07
vn -1 0 -5.3068453E-07
vn -1 0 -5.3068453E-07
vn -1 0 -5.3068453E-07
vn 0.7071096 -5.7585413E-07 0.70710397
vn 0.7071096 -5.7585413E-07 0.70710397
vn 0.7071096 -5.7585413E-07 0.70710397
vn 0.7071096 -5.7585413E-07 0.70710397
vn -0.70710665 -4.6037997E-07 0.7071069
vn -0.7071066 -4.603799E-07 0.7071069
vn -0.70710665 -4.6037997E-07 0.7071069
vn -0.7071066 -4.603799E-07 0.7071069
vn 0.7071073 0 -0.70710623
vn 0.7071073 0 -0.70710623
vn 0.7071073 0 -0.70710623
vn 0.7071073 0 -0.7071062
vn -0.70710653 0 -0.707107
vn -0.70710653 0 -0.707107
vn -0.70710653 0 -0.707107
vn -0.7071065 0 -0.707107
g obj_table1_0
f 3/3/3 2/2/2 1/1/1
f 6/6/6 5/5/5 4/4/4
f 9/9/9 8/8/8 7/7/7
f 12/12/12 11/11/11 10/10/10
f 15/15/15 14/14/14 13/13/13
f 16/16/16 15/15/15 13/13/13
f 19/19/19 18/18/18 17/17/17
f 20/20/20 19/19/19 17/17/17
f 23/23/23 22/22/22 21/21/21
f 24/24/24 23/23/23 21/21/21
f 27/27/27 26/26/26 25/25/25
f 28/28/28 27/27/27 25/25/25
f 31/31/31 30/30/30 29/29/29
f 32/32/32 31/31/31 29/29/29
f 35/35/35 34/34/34 33/33/33
f 36/36/36 35/35/35 33/33/33
f 39/39/39 38/38/38 37/37/37
f 40/40/40 39/39/39 37/37/37
f 43/43/43 42/42/42 41/41/41
f 44/44/44 43/43/43 41/41/41
f 47/47/47 46/46/46 45/45/45
f 48/48/48 47/47/47 45/45/45
f 51/51/51 50/50/50 49/49/49
f 52/52/52 51/51/51 49/49/49
f 55/55/55 54/54/54 53/53/53
f 56/56/56 55/55/55 53/53/53
f 59/59/59 58/58/58 57/57/57
f 60/60/60 59/59/59 57/57/57
f 63/63/63 62/62/62 61/61/61
f 64/64/64 63/63/63 61/61/61
f 67/67/67 66/66/66 65/65/65
f 68/68/68 67/67/67 65/65/65
f 71/71/71 70/70/70 69/69/69
f 72/72/72 71/71/71 69/69/69
f 75/75/75 74/74/74 73/73/73
f 76/76/76 75/75/75 73/73/73
f 79/79/79 78/78/78 77/77/77
f 80/80/80 79/79/79 77/77/77
f 83/83/83 82/82/82 81/81/81
f 84/84/84 83/83/83 81/81/81
f 87/87/87 86/86/86 85/85/85
f 88/88/88 87/87/87 85/85/85
f 91/91/91 90/90/90 89/89/89
f 92/92/92 91/91/91 89/89/89
f 95/95/95 94/94/94 93/93/93
f 96/96/96 95/95/95 93/93/93
f 99/99/99 98/98/98 97/97/97
f 100/100/100 99/99/99 97/97/97
f 103/103/103 102/102/102 101/101/101
f 104/104/104 103/103/103 101/101/101
f 107/107/107 106/106/106 105/105/105
f 108/108/108 107/107/107 105/105/105
f 111/111/111 110/110/110 109/109/109
f 112/112/112 111/111/111 109/109/109
f 115/115/115 114/114/114 113/113/113
f 116/116/116 115/115/115 113/113/113
f 119/119/119 118/118/118 117/117/117
f 120/120/120 119/119/119 117/117/117
f 123/123/123 122/122/122 121/121/121
f 124/124/124 123/123/123 121/121/121
f 127/127/127 126/126/126 125/125/125
f 128/128/128 127/127/127 125/125/125
f 131/131/131 130/130/130 129/129/129
f 132/132/132 131/131/131 129/129/129
f 135/135/135 134/134/134 133/133/133
f 136/136/136 135/135/135 133/133/133
f 139/139/139 138/138/138 137/137/137
f 140/140/140 139/139/139 137/137/137
f 143/143/143 142/142/142 141/141/141
f 144/144/144 143/143/143 141/141/141
f 147/147/147 146/146/146 145/145/145
f 148/148/148 147/147/147 145/145/145
f 151/151/151 150/150/150 149/149/149
f 152/152/152 151/151/151 149/149/149
f 155/155/155 154/154/154 153/153/153
f 156/156/156 155/155/155 153/153/153
f 159/159/159 158/158/158 157/157/157
f 160/160/160 159/159/159 157/157/157
f 163/163/163 162/162/162 161/161/161
f 164/164/164 163/163/163 161/161/161
f 167/167/167 166/166/166 165/165/165
f 168/168/168 167/167/167 165/165/165
f 171/171/171 170/170/170 169/169/169
f 172/172/172 171/171/171 169/169/169
f 175/175/175 174/174/174 173/173/173
f 176/176/176 175/175/175 173/173/173
f 179/179/179 178/178/178 177/177/177
f 180/180/180 179/179/179 177/177/177
f 183/183/183 182/182/182 181/181/181
f 184/184/184 183/183/183 181/181/181
f 187/187/187 186/186/186 185/185/185
f 188/188/188 187/187/187 185/185/185
f 191/191/191 190/190/190 189/189/189
f 192/192/192 191/191/191 189/189/189
