g obj_fork1_1
v 0.08153451 0.15396771 2.8022768
v 0.20634945 0.1958256 2.5027447
v 0.20069137 0.17653579 2.681988
v -0.22541602 0.1958256 2.5027447
v -0.10060119 0.15396771 2.8022768
v -0.219758 0.17653579 2.681988
v 0.1355965 0.22499937 1.7646081
v -0.15465595 0.22499937 1.7646081
v 0.4167344 0.09768841 -0.040251188
v 0.10440218 0.13561901 -0.43693653
v 0.23769276 0.13561903 -0.3625166
v -0.4363441 0.09768841 -0.04025134
v -0.13796924 0.13561901 -0.43687505
v -0.25782388 0.13561903 -0.3625167
v -0.45200476 0.097688414 0.23959643
v 0.43138438 0.097688414 0.23919997
v 0.35228306 0.16903664 0.47099724
v -0.37144557 0.16903664 0.47099712
v -0.19131446 0.21793142 0.6732244
v 0.17226292 0.21793142 0.6732244
v -0.14702693 0.22499935 0.77819633
v 0.12795977 0.22499935 0.77819633
v -0.13766812 0.22499937 1.2414668
v 0.11857869 0.22499937 1.2414668
v -0.15465595 0.22499937 1.7646081
v 0.1355965 0.22499937 1.7646081
v 0.1355965 0.22499937 1.7646081
v 0.16708769 0.13330233 1.2414669
v 0.18492079 0.13330235 1.764608
v 0.25566116 0.10412862 2.5027447
v 0.11857869 0.22499937 1.2414668
v 0.20634945 0.1958256 2.5027447
v 0.24355908 0.0848388 2.7058158
v 0.20069137 0.17653579 2.681988
v 0.09545266 0.06227072 2.859606
v 0.08153451 0.15396771 2.8022768
v -0.11438099 0.06227072 2.859606
v -0.10060119 0.15396771 2.8022768
v -0.2635724 0.0848388 2.7058158
v -0.219758 0.17653579 2.681988
v -0.2756634 0.10412862 2.5027447
v -0.22541602 0.1958256 2.5027447
v -0.20491944 0.13330235 1.764608
v -0.15465595 0.22499937 1.7646081
v -0.1876542 0.13330233 1.2414668
v -0.13766812 0.22499937 1.2414668
v -0.19634534 0.13330232 0.79455966
v -0.14702693 0.22499935 0.77819633
v -0.23707134 0.12623446 0.6969103
v -0.19131446 0.21793142 0.6732244
v -0.41455883 0.07733968 0.49652278
v -0.37144557 0.16903664 0.47099712
v -0.505146 0.0059914393 0.23959643
v -0.45200476 0.097688414 0.23959643
v -0.48846295 0.00599143 -0.04441665
v -0.4363441 0.09768841 -0.04025134
v -0.29835626 0.04392201 -0.39141932
v -0.25782388 0.13561903 -0.3625167
v -0.13796924 0.13561901 -0.43687505
v -0.14383648 0.04392201 -0.48215654
v 0.10440218 0.13561901 -0.43693653
v 0.10913091 0.04392201 -0.48234093
v 0.23769276 0.13561903 -0.3625166
v 0.2772504 0.04392201 -0.39141932
v 0.46793628 0.00599143 -0.044416495
v 0.4167344 0.09768841 -0.040251188
v 0.4835331 0.005991449 0.23919998
v 0.43138438 0.097688414 0.23919997
v 0.39208102 0.07733968 0.4965229
v 0.35228306 0.16903664 0.47099724
v 0.21565585 0.12623446 0.6969103
v 0.17226292 0.21793142 0.6732244
v 0.17510198 0.13330232 0.79455966
v 0.12795977 0.22499935 0.77819633
vt 0.42772043 0.7776185
vt 0.42081255 0.78011656
vt 0.42494625 0.7800033
vt 0.42081255 0.7714755
vt 0.42772043 0.77397346
vt 0.42494625 0.77158874
vt 0.4037893 0.7787005
vt 0.4037893 0.77289164
vt 0.43987778 0.7829968
vt 0.42954662 0.7775749
vt 0.43178737 0.7799487
vt 0.43987778 0.7676664
vt 0.429548 0.7728131
vt 0.43178737 0.77070326
vt 0.4455269 0.7672897
vt 0.4455189 0.7833551
vt 0.45019823 0.78253025
vt 0.45019823 0.7681425
vt 0.45428053 0.77172357
vt 0.45428053 0.77895147
vt 0.4563996 0.772604
vt 0.4563996 0.7780708
vt 0.468276 0.77279
vt 0.468276 0.77788424
vt 0.480341 0.77245235
vt 0.480341 0.77822256
vt 0.40378866 0.77027637
vt 0.39171043 0.7668903
vt 0.40378866 0.7668903
vt 0.42083064 0.7668903
vt 0.39171043 0.77027637
vt 0.42083064 0.77027637
vt 0.4252501 0.7668903
vt 0.42496884 0.77027637
vt 0.428006 0.7668903
vt 0.428006 0.77027637
vt 0.428006 0.7668903
vt 0.428006 0.77027637
vt 0.4252501 0.7668903
vt 0.42496884 0.77027637
vt 0.42083064 0.7668903
vt 0.42083064 0.77027637
vt 0.40378866 0.7668903
vt 0.40378866 0.77027637
vt 0.39171043 0.7668903
vt 0.39171043 0.77027637
vt 0.38101456 0.7668903
vt 0.38101456 0.77027637
vt 0.37879178 0.7668903
vt 0.37859103 0.77027637
vt 0.3741089 0.7668903
vt 0.37392202 0.77027637
vt 0.36857948 0.7668903
vt 0.36857948 0.77027637
vt 0.36211842 0.7668903
vt 0.36211842 0.77027637
vt 0.3543077 0.7668903
vt 0.35467798 0.77027637
vt 0.35270494 0.77027637
vt 0.35270494 0.7668903
vt 0.35270494 0.77027637
vt 0.35270494 0.7668903
vt 0.35467798 0.77027637
vt 0.3543077 0.7668903
vt 0.36211842 0.7668903
vt 0.36211842 0.77027637
vt 0.36857036 0.7668903
vt 0.36857036 0.77027637
vt 0.3741089 0.7668903
vt 0.37392202 0.77027637
vt 0.3787919 0.7668903
vt 0.37859103 0.77027637
vt 0.38101456 0.7668903
vt 0.38101456 0.77027637
vn -0.013496426 0.99104184 0.13286847
vn -0.009919349 0.99624324 0.08602933
vn -0.082676075 0.9911294 0.1040536
vn 0.009919381 0.99624324 0.08602947
vn 0.013496422 0.99104184 0.1328685
vn 0.082676075 0.9911294 0.10405362
vn -0 0.99978906 0.020539112
vn -0 0.99978906 0.020538803
vn -0.005624954 0.9990941 0.04218029
vn -0.014237552 0.9942332 0.106290005
vn -0.09349742 0.9814355 0.1674594
vn 0.005707074 0.9991002 0.042025007
vn 0.01591415 0.9941269 0.107044086
vn 0.10886067 0.97844803 0.17546712
vn -1.4129576E-05 0.9908896 -0.13467672
vn -6.041E-05 0.99089885 -0.13460791
vn -7.6713564E-05 0.96119386 -0.2758738
vn -0 0.9611107 -0.27616322
vn -0 0.9839094 -0.17866796
vn -0 0.98390967 -0.17866698
vn -0 0.9992926 -0.0376057
vn -0 0.9992926 -0.037607264
vn -0 1 0
vn -0 1 0
vn -0 0.99978906 0.020538803
vn -0 0.99978906 0.020539112
vn 0.87990725 0.47280028 -0.047149897
vn 0.8837128 0.46798325 -0.0065800934
vn 0.87964725 0.4731668 -0.04831166
vn 0.88055944 0.4735421 0.019313714
vn 0.88421714 0.46703413 -0.0062522097
vn 0.8831942 0.4689275 0.008654385
vn 0.7749537 0.47643808 0.4152754
vn 0.80282843 0.47650614 0.35834122
vn 0.27651155 0.53333575 0.79943377
vn 0.32015565 0.53668326 0.78068644
vn -0.2791104 0.5388627 0.79481095
vn -0.3330235 0.5297257 0.7800552
vn -0.7647507 0.4841611 0.42514032
vn -0.79158264 0.48244235 0.3750283
vn -0.879524 0.4756764 0.013016138
vn -0.87695765 0.48055512 0.0034757238
vn -0.875915 0.48012403 -0.04747545
vn -0.8760305 0.48002356 -0.04634632
vn -0.877934 0.47874683 -0.0057886266
vn -0.87810403 0.4784366 -0.005621706
vn -0.85693806 0.48977572 0.16055144
vn -0.8562832 0.48865166 0.16732815
vn -0.76295656 0.4909491 0.42055488
vn -0.773125 0.48898566 0.4039441
vn -0.81425136 0.47632387 0.3318286
vn -0.7930742 0.48188254 0.37258896
vn -0.8669952 0.4968167 0.038633782
vn -0.8640695 0.50000393 0.058136947
vn -0.8468291 0.49149677 -0.20325173
vn -0.8405843 0.48866147 -0.23372634
vn -0.6642734 0.46994227 -0.5812875
vn -0.64156497 0.47374356 -0.6032922
vn -0.24813098 0.44750828 -0.8591667
vn -0.22746064 0.4429528 -0.8672107
vn 0.23619978 0.44082552 -0.8659577
vn 0.21465196 0.44531074 -0.86926574
vn 0.62562776 0.46319988 -0.62772274
vn 0.6512734 0.468992 -0.5965647
vn 0.85050255 0.48449472 -0.20471984
vn 0.84369016 0.48251456 -0.235301
vn 0.86866003 0.4931173 0.047592945
vn 0.8703681 0.4868289 0.073871754
vn 0.8244345 0.45882612 0.33134016
vn 0.8077141 0.45653722 0.37305698
vn 0.7710603 0.47298017 0.42632815
vn 0.7784711 0.476292 0.40881374
vn 0.86573994 0.4729041 0.16387816
vn 0.86346567 0.47446552 0.17120013
g obj_fork1_1_0
f 3/3/3 2/2/2 1/1/1
f 2/2/2 4/4/4 1/1/1
f 4/4/4 5/5/5 1/1/1
f 6/6/6 5/5/5 4/4/4
f 2/2/2 7/7/7 4/4/4
f 8/8/8 4/4/4 7/7/7
f 11/11/11 10/10/10 9/9/9
f 10/10/10 12/12/12 9/9/9
f 13/13/13 12/12/12 10/10/10
f 14/14/14 12/12/12 13/13/13
f 12/12/12 15/15/15 9/9/9
f 16/16/16 9/9/9 15/15/15
f 16/16/16 15/15/15 17/17/17
f 18/18/18 17/17/17 15/15/15
f 18/18/18 19/19/19 17/17/17
f 20/20/20 17/17/17 19/19/19
f 19/19/19 21/21/21 20/20/20
f 22/22/22 20/20/20 21/21/21
f 21/21/21 23/23/23 22/22/22
f 24/24/24 22/22/22 23/23/23
f 23/23/23 25/25/25 24/24/24
f 26/26/26 24/24/24 25/25/25
f 29/29/29 28/28/28 27/27/27
f 29/29/29 27/27/27 30/30/30
f 31/31/31 27/27/27 28/28/28
f 32/32/32 30/30/30 27/27/27
f 30/30/30 32/32/32 33/33/33
f 34/34/34 33/33/33 32/32/32
f 33/33/33 34/34/34 35/35/35
f 36/36/36 35/35/35 34/34/34
f 35/35/35 36/36/36 37/37/37
f 38/38/38 37/37/37 36/36/36
f 37/37/37 38/38/38 39/39/39
f 40/40/40 39/39/39 38/38/38
f 39/39/39 40/40/40 41/41/41
f 42/42/42 41/41/41 40/40/40
f 41/41/41 42/42/42 43/43/43
f 44/44/44 43/43/43 42/42/42
f 43/43/43 44/44/44 45/45/45
f 46/46/46 45/45/45 44/44/44
f 45/45/45 46/46/46 47/47/47
f 48/48/48 47/47/47 46/46/46
f 47/47/47 48/48/48 49/49/49
f 50/50/50 49/49/49 48/48/48
f 49/49/49 50/50/50 51/51/51
f 52/52/52 51/51/51 50/50/50
f 51/51/51 52/52/52 53/53/53
f 54/54/54 53/53/53 52/52/52
f 53/53/53 54/54/54 55/55/55
f 56/56/56 55/55/55 54/54/54
f 55/55/55 56/56/56 57/57/57
f 58/58/58 57/57/57 56/56/56
f 58/58/58 59/59/59 57/57/57
f 60/60/60 57/57/57 59/59/59
f 59/59/59 61/61/61 60/60/60
f 62/62/62 60/60/60 61/61/61
f 61/61/61 63/63/63 62/62/62
f 64/64/64 62/62/62 63/63/63
f 64/64/64 63/63/63 65/65/65
f 66/66/66 65/65/65 63/63/63
f 65/65/65 66/66/66 67/67/67
f 68/68/68 67/67/67 66/66/66
f 67/67/67 68/68/68 69/69/69
f 70/70/70 69/69/69 68/68/68
f 69/69/69 70/70/70 71/71/71
f 72/72/72 71/71/71 70/70/70
f 71/71/71 72/72/72 73/73/73
f 74/74/74 73/73/73 72/72/72
f 74/74/74 31/31/31 73/73/73
f 28/28/28 73/73/73 31/31/31
