g obj_diff_C2
v 1.267662E-06 0.6261373 0.5032603
v -0.5034986 0.62613726 0.50337934
v -0.033370126 0.6261373 0.2937262
v 0.04208592 0.5757873 0.25818112
v 0.10070084 0.5757873 0.5032603
v 0.29882988 -2.8501627 0.50350136
v 0.25371772 -2.8501627 0.2808408
v -0.080630235 0.78521466 0.5021367
v -0.22827366 0.7852302 0.49168497
v -0.22228335 0.78402036 0.35375652
v -0.068325095 0.78408164 0.35955688
v -0.22816172 0.6858551 0.3329156
v -0.05405997 0.6857982 0.33985895
v -0.22228335 0.78402036 0.35375652
v -0.24502924 0.68591696 0.5112851
v -0.22827366 0.7852302 0.49168497
v -0.072176814 0.68594176 0.5227421
v -0.068325095 0.78408164 0.35955688
v -0.080630235 0.78521466 0.5021367
v -0.5034963 0.57578725 -0.10093972
v -0.50350124 -2.8501627 -0.29883003
v -0.27595973 -2.8501627 -0.24987309
v -0.23390888 0.5757873 -0.050090022
v -0.07098846 -2.8501627 -0.14415592
v -0.5034988 0.6261373 -0.00023968416
v 0.19930597 -2.8501627 0.13774003
v -0.25795996 0.6261373 0.025477452
v -0.5034986 0.62613726 0.50337934
v -0.033370126 0.6261373 0.2937262
v 0.04208592 0.5757873 0.25818112
v 0.25371772 -2.8501627 0.2808408
vt 0.08787506 0.9598711
vt 0.08681261 0.99729407
vt 0.06555664 0.9598711
vt 0.06555664 0.94989973
vt 0.08787506 0.94989973
vt 0.08787506 0.7521527
vt 0.06555664 0.7521527
vt 0.4010986 0.4716013
vt 0.40931505 0.4716013
vt 0.40945852 0.4692027
vt 0.4009552 0.4692027
vt 0.40945852 0.45745116
vt 0.4009552 0.45745116
vt 0.40945852 0.4692027
vt 0.40945852 0.45745116
vt 0.40931505 0.4716013
vt 0.4009552 0.45745116
vt 0.4009552 0.4692027
vt 0.4010986 0.4716013
vt 0.06555664 0.94989973
vt 0.06555664 0.7521527
vt 0.08787506 0.7521527
vt 0.08787506 0.94989973
vt 0.08787506 0.7521527
vt 0.06555664 0.9598711
vt 0.11213481 0.7521527
vt 0.08787506 0.9598711
vt 0.08681261 0.99729407
vt 0.11213481 0.9598711
vt 0.11213481 0.94989973
vt 0.11213481 0.7521527
vn -0 1 0
vn -0 1 0
vn -0 1 0
vn -0 1 0
vn -0 1 0
vn -0 1 0
vn -0 1 0
vn -0 1 0
vn -0 1 0
vn -0 1 0
vn -0 1 0
vn -0 1 0
vn -0 1 0
vn -0 1 0
vn -0 1 0
vn -0 1 0
vn -0 1 0
vn -0 1 0
vn -0 1 0
vn -0 1 0
vn -0 1 0
vn -0 1 0
vn -0 1 0
vn -0 1 0
vn -0 1 0
vn -0 1 0
vn -0 1 0
vn -0 1 0
vn -0 1 0
vn -0 1 0
vn -0 1 0
g obj_diff_C2_0
f 3/3/3 2/2/2 1/1/1
f 4/4/4 3/3/3 1/1/1
f 1/1/1 5/5/5 4/4/4
f 5/5/5 6/6/6 4/4/4
f 6/6/6 7/7/7 4/4/4
f 10/10/10 9/9/9 8/8/8
f 8/8/8 11/11/11 10/10/10
f 12/12/12 10/10/10 11/11/11
f 11/11/11 13/13/13 12/12/12
f 12/12/12 15/15/15 14/14/14
f 14/14/14 15/15/15 16/16/16
f 16/16/16 15/15/15 17/17/17
f 17/17/17 13/13/13 18/18/18
f 17/17/17 19/19/19 16/16/16
f 17/17/17 18/18/18 19/19/19
f 22/22/22 21/21/21 20/20/20
f 23/23/23 22/22/22 20/20/20
f 24/24/24 22/22/22 23/23/23
f 20/20/20 25/25/25 23/23/23
f 26/26/26 24/24/24 23/23/23
f 25/25/25 27/27/27 23/23/23
f 25/25/25 28/28/28 27/27/27
f 27/27/27 28/28/28 29/29/29
f 27/27/27 29/29/29 30/30/30
f 30/30/30 23/23/23 27/27/27
f 30/30/30 26/26/26 23/23/23
f 31/31/31 26/26/26 30/30/30
