g obj_grass
v -0.049885333 0.26790705 0.24266283
v -0.03708965 0.2221779 0.28174558
v -0.17641254 0.23578344 0.2701175
v -0.015330027 0.15946858 0.32117286
v -0.23658001 0.16635805 0.3294523
v -0.22955416 0.10854867 0.35157135
v 0.017444804 0.09209945 0.3600317
v -0.17733645 0.03119382 0.5392656
v -0.38259238 -0.0007672813 0.45760384
v -0.40052566 0.0786592 0.4044043
v -0.31899798 0.15630627 0.338043
v -0.49263903 0.15572728 0.33853808
v -0.43660054 0.18784615 0.31108746
v -0.53677255 0.18506974 0.31346023
v 0.05006516 -0.008154447 0.44642648
v 0.25479653 0.08844432 0.4273382
v 0.30288094 0.014872211 0.5234647
v 0.23505734 0.15593027 0.33836454
v 0.037308037 0.15615356 0.32289553
v 0.12207908 0.23554713 0.27031952
v 0.23954219 0.21949004 0.28404278
v 0.24114272 0.25352594 0.25495356
v 0.40923488 0.08377721 0.40003023
v 0.410853 0.0050984984 0.4672733
v 0.29499337 0.15485674 0.33928195
v 0.45193335 0.1615268 0.33358145
v 0.3638524 0.1916758 0.3078143
v 0.49975118 0.20988128 0.29225475
v -0.30938777 0.29384747 -0.07521475
v -0.1993045 0.26802856 -0.0531481
v -0.28696677 0.24941187 -0.0372372
v -0.13293423 0.21765596 -0.010097087
v -0.26663244 0.21304923 -0.00615969
v -0.2546572 0.1518636 0.046132848
v -0.08647964 0.15338065 0.044836108
v -0.2469368 -0.033277012 0.17010944
v -0.45337316 0.07245303 0.12812568
v -0.46041304 -0.0083710635 0.21132673
v -0.4960467 0.15327716 0.04492465
v -0.34346652 0.21424529 -0.0071817334
v -0.57255805 0.22352286 -0.015110941
v -0.47933823 0.24877821 -0.03669572
v -0.6194769 0.25286537 -0.040188935
v -0.029616777 -0.0026375821 0.2639219
v 0.0464701 0.16492851 0.034966744
v 0.30700138 -0.03285784 0.17177951
v -0.017035011 0.23456733 -0.024550451
v -0.10888741 0.23282565 -0.023061907
v -0.09630254 0.30763495 -0.08699822
v 0.2959849 0.15725347 0.041526087
v 0.47420996 -0.019657597 0.19272426
v 0.47502455 0.15779385 0.04106431
v 0.3509686 0.2192214 -0.01143497
v 0.48872074 0.22971903 -0.020406617
v 0.5186855 0.2950587 -0.07624978
v 0.25972223 0.2872359 -0.0695639
v 0.2959849 0.15725347 0.041526087
v 0.10082243 0.28868455 -0.070802405
v 0.14823218 0.34410325 -0.118165545
v -0.28723884 0.3350257 -0.3811137
v -0.13702565 0.3103932 -0.36006132
v -0.26391977 0.26480898 -0.32110202
v -0.033316217 0.24682246 -0.3057296
v -0.27138108 0.19300811 -0.25973737
v 0.00034663355 0.19545612 -0.26182976
v -0.17465006 -0.04233457 -0.120529644
v 0.13034558 -0.008307796 -0.06472869
v 0.3010351 0.21178606 -0.27578604
v 0.42117172 -0.029574402 -0.10007019
v 0.011635548 0.25301445 -0.3110219
v 0.46831846 0.17675012 -0.24584256
v 0.24163777 0.29048553 -0.3430469
v 0.07405455 0.3662227 -0.40777594
v 0.38142583 0.275976 -0.33064625
v 0.50236744 0.24068055 -0.30048054
v 0.5637502 0.3043603 -0.354905
v -0.41116852 0.088117644 -0.17009245
v -0.41510987 -0.011523662 -0.08493352
v -0.4547238 0.18775895 -0.25525084
v -0.31946906 0.2480308 -0.3067625
v -0.50208586 0.23635978 -0.29678798
v -0.43537346 0.27731982 -0.33179414
v -0.5583442 0.27923158 -0.33342856
v -0.113633625 0.26053104 0.3316498
v -0.0025671956 0.19247428 0.3644969
v -0.089797154 0.1862091 0.38973594
v -0.090330735 0.101095736 0.46259952
v 0.062993236 0.099578 0.42894623
v -0.097887605 0.029336426 0.52565145
v 0.0950049 0.01209 0.49642032
v -0.37199458 0.28277752 -0.25957003
v -0.24158598 0.20286857 -0.22100222
v -0.3440069 0.1955124 -0.1913679
v -0.35350645 0.011320337 -0.031782683
v -0.12702137 -0.008929526 -0.06610444
v 0.48839906 0.23669924 0.10121072
v 0.45803645 0.18263456 0.1462735
v 0.35446253 0.18524933 0.11958944
v 0.44755 0.10342786 0.22022215
v 0.25325087 0.09698713 0.1811076
v 0.45512217 0.034828056 0.28815335
v 0.22711942 0.013604357 0.25543445
v -0.38836932 0.26053104 0.15528715
v -0.2773029 0.19247428 0.18813424
v -0.36453286 0.1862091 0.21337327
v -0.3650664 0.10109578 0.2862369
v -0.21174246 0.099578 0.2525836
v -0.37262332 0.029336466 0.3492888
v -0.17973082 0.0120900385 0.32005772
vt 0.036375776 0.45049998
vt 0.037500404 0.4441513
vt 0.02700149 0.4456955
vt 0.039331283 0.43618822
vt 0.022713505 0.43586957
vt 0.023427451 0.42783335
vt 0.042023834 0.4278521
vt 0.027061298 0.41282007
vt 0.011144959 0.4141776
vt 0.010506583 0.42433932
vt 0.017001322 0.43484706
vt 0.003980868 0.43541315
vt 0.008351721 0.43968427
vt 0.000827454 0.43967056
vt 0.044878535 0.4140162
vt 0.05999427 0.42624953
vt 0.06411559 0.41465026
vt 0.05823518 0.43559423
vt 0.043357167 0.43592072
vt 0.049458686 0.44640103
vt 0.058325868 0.44446766
vt 0.058321286 0.44922078
vt 0.07158215 0.42632186
vt 0.07228464 0.41541147
vt 0.06255485 0.43569613
vt 0.074269764 0.4373563
vt 0.06747115 0.44114915
vt 0.07753359 0.4443191
vt 0.104640804 0.49349755
vt 0.11190742 0.49029034
vt 0.10606766 0.48810184
vt 0.11624138 0.48414364
vt 0.10736717 0.4836844
vt 0.1081246 0.4762752
vt 0.11919122 0.4763218
vt 0.108026125 0.45551407
vt 0.09487929 0.46652016
vt 0.095639266 0.45600918
vt 0.09411931 0.47703108
vt 0.10259826 0.48407134
vt 0.08852811 0.48575962
vt 0.093761586 0.4886102
vt 0.08556027 0.4894336
vt 0.12301383 0.45522028
vt 0.12800142 0.4777337
vt 0.14569807 0.45555127
vt 0.123777635 0.48615736
vt 0.1176852 0.4859361
vt 0.11850473 0.49499404
vt 0.14451057 0.4770175
vt 0.15689656 0.45593092
vt 0.15636244 0.4773852
vt 0.14795248 0.48461056
vt 0.1570548 0.4861101
vt 0.1588441 0.49406695
vt 0.14191419 0.4927187
vt 0.14451057 0.4770175
vt 0.13137297 0.49275863
vt 0.13443123 0.49950725
vt 0.019799726 0.49530333
vt 0.030251144 0.49225563
vt 0.01999418 0.48680168
vt 0.037431538 0.48451447
vt 0.020798093 0.47810462
vt 0.039737675 0.4782813
vt 0.027351165 0.45233718
vt 0.049163267 0.45260122
vt 0.06066707 0.48055232
vt 0.06966468 0.4529515
vt 0.04042686 0.48525983
vt 0.072423115 0.4765838
vt 0.056393534 0.4900207
vt 0.044584967 0.4990244
vt 0.066088535 0.4884516
vt 0.07461578 0.48437622
vt 0.08255042 0.4922719
vt 0.009177319 0.46559414
vt 0.010299247 0.45352614
vt 0.008055391 0.4776621
vt 0.017578343 0.484819
vt 0.0048323073 0.48358715
vt 0.009551663 0.48847938
vt 0.0009844023 0.48883164
vt 0.08548063 0.4472608
vt 0.094281524 0.43881103
vt 0.086809516 0.43740958
vt 0.085966356 0.42594975
vt 0.09898243 0.42672667
vt 0.084651604 0.4162426
vt 0.10088299 0.4151558
vt 0.08548063 0.4472608
vt 0.094281524 0.43881103
vt 0.086809516 0.43740958
vt 0.084651604 0.4162426
vt 0.10088299 0.4151558
vt 0.124290675 0.44503352
vt 0.12227623 0.43764272
vt 0.11344085 0.43873543
vt 0.122215696 0.42657694
vt 0.10576019 0.42703137
vt 0.1235795 0.41687644
vt 0.10441302 0.41548795
vt 0.08548063 0.4472608
vt 0.094281524 0.43881103
vt 0.086809516 0.43740958
vt 0.085966356 0.42594975
vt 0.09898243 0.42672667
vt 0.084651604 0.4162426
vt 0.10088299 0.4151558
vn -0 0.6497013 0.76018953
vn -0.01199222 0.57585186 0.81746614
vn 0.029098883 0.61450654 0.78837484
vn 0.049261842 0.5819427 0.8117364
vn 0.06501873 0.60426563 0.7941256
vn 0.01708428 0.6986855 0.71522486
vn 0.026264228 0.68564045 0.7274664
vn 0.053721588 0.77944124 0.6241677
vn -0.16658661 0.7191487 0.6745918
vn -0.07299499 0.683342 0.7264403
vn 1.6671348E-07 0.6496997 0.7601909
vn -2.3102994E-07 0.64970136 0.7601895
vn 6.8241235E-07 0.649701 0.76018983
vn -8.433663E-07 0.6497026 0.7601885
vn 0.0051346696 0.73837954 0.6743659
vn -0.05577018 0.66178364 0.74761766
vn -0.0036743786 0.7097647 0.70442915
vn -0.06775795 0.59757566 0.7989444
vn -0.074109465 0.5933678 0.80151266
vn -0.035030577 0.6201118 0.783731
vn -0.022365756 0.63100946 0.7754527
vn 9.044057E-07 0.6497037 0.7601876
vn 0.03475238 0.68611455 0.72666293
vn 0.075759955 0.72600806 0.68350035
vn -0 0.6496999 0.7601908
vn -1.2502547E-07 0.64970165 0.7601892
vn -4.5247447E-07 0.64970225 0.76018876
vn 1.9343629E-07 0.6497034 0.76018775
vn -9.034476E-07 0.6497044 0.7601869
vn 4.691344E-07 0.6497007 0.76019007
vn -0 0.6497026 0.7601885
vn 1.062565E-06 0.6497004 0.76019037
vn 1.2159053E-06 0.64970076 0.76019
vn -0.019143315 0.6382759 0.7695695
vn -0.04969086 0.67263985 0.73829967
vn -0.004720379 0.6284147 0.7778641
vn 0.10417425 0.6692371 0.7357102
vn 0.2138906 0.6915718 0.6899125
vn 0.00024859485 0.67392737 0.7387976
vn -3.1115852E-07 0.6496991 0.7601915
vn -3.2082886E-07 0.64970267 0.76018846
vn -1.1974971E-07 0.6497037 0.7601876
vn -3.2348495E-07 0.64970404 0.7601872
vn -0.026516547 0.6675823 0.7440637
vn 0.029318165 0.6725695 0.73945296
vn 0.011319783 0.6300277 0.7764901
vn -1.8588136E-07 0.6497006 0.7601902
vn -1.432641E-07 0.6497008 0.76019
vn -0 0.64970124 0.7601896
vn 0.010008926 0.63925564 0.76892924
vn -0.070919506 0.6058157 0.7924378
vn -0.033817064 0.62942296 0.7763268
vn -5.8326884E-07 0.6496999 0.7601908
vn -1.2184927E-06 0.6497012 0.76018965
vn -1.4218818E-06 0.6497027 0.7601883
vn -0 0.6497001 0.7601906
vn 0.029318165 0.6725695 0.73945296
vn -1.8465896E-06 0.6497028 0.7601883
vn -1.9549782E-06 0.6496958 0.7601943
vn 4.4965614E-07 0.6497043 0.76018715
vn 1.6200003E-07 0.64970464 0.76018673
vn 1.3808027E-07 0.6497011 0.7601898
vn -0 0.6496986 0.76019186
vn 0.026003389 0.59957963 0.7998926
vn -0.037963033 0.63101864 0.77483827
vn -0.008291072 0.57698673 0.8167114
vn -0.029550375 0.6482009 0.7608958
vn 0.01981119 0.6433689 0.76529986
vn 0.08707052 0.614296 0.7842571
vn -0 0.6496988 0.7601917
vn -0.011943788 0.6160877 0.787587
vn 4.1502747E-07 0.64970034 0.7601904
vn 4.218768E-07 0.6497002 0.7601905
vn -4.9406856E-07 0.6496998 0.7601909
vn -1.447202E-06 0.6497002 0.7601905
vn -5.1404083E-07 0.6497021 0.76018894
vn 0.10704899 0.6080908 0.78661686
vn 0.19212423 0.63319427 0.7497689
vn 2.4556238E-07 0.6497001 0.76019067
vn 6.9248057E-07 0.6496986 0.760192
vn -2.0962282E-06 0.64969844 0.7601921
vn -9.672326E-07 0.64969534 0.76019466
vn -3.490271E-06 0.6496977 0.76019263
vn 0.17074406 0.6401606 0.7490266
vn 0.17074357 0.6401587 0.7490284
vn 0.17074364 0.6401592 0.74902785
vn 0.17074358 0.6401575 0.7490294
vn 0.17074355 0.6401575 0.7490294
vn 0.17074376 0.6401573 0.74902946
vn 0.17074378 0.6401573 0.7490295
vn 0.17074363 0.6401623 0.7490253
vn 0.17074376 0.6401592 0.74902785
vn 0.17074372 0.64015996 0.7490272
vn 0.17074396 0.64015776 0.74902916
vn 0.170744 0.64015746 0.7490293
vn -0.16559105 0.6846348 0.70982724
vn -0.1655912 0.68463355 0.7098284
vn -0.16559127 0.6846328 0.7098293
vn -0.16559123 0.6846324 0.7098296
vn -0.16559124 0.6846324 0.70982957
vn -0.16559114 0.68463254 0.7098295
vn -0.16559114 0.68463254 0.70982945
vn 0.17074409 0.6401606 0.7490266
vn 0.17074357 0.64015895 0.74902815
vn 0.17074369 0.6401593 0.7490278
vn 0.17074363 0.6401578 0.7490292
vn 0.17074363 0.6401577 0.7490292
vn 0.17074378 0.6401573 0.7490295
vn 0.17074381 0.64015734 0.74902946
g obj_grass_0
f 3/3/3 2/2/2 1/1/1
f 3/3/3 4/4/4 2/2/2
f 5/5/5 4/4/4 3/3/3
f 5/5/5 6/6/6 4/4/4
f 7/7/7 4/4/4 6/6/6
f 7/7/7 6/6/6 8/8/8
f 9/9/9 8/8/8 6/6/6
f 6/6/6 10/10/10 9/9/9
f 10/10/10 6/6/6 11/11/11
f 11/11/11 12/12/12 10/10/10
f 12/12/12 11/11/11 13/13/13
f 12/12/12 13/13/13 14/14/14
f 8/8/8 15/15/15 7/7/7
f 16/16/16 7/7/7 15/15/15
f 15/15/15 17/17/17 16/16/16
f 7/7/7 16/16/16 18/18/18
f 18/18/18 19/19/19 7/7/7
f 20/20/20 19/19/19 18/18/18
f 18/18/18 21/21/21 20/20/20
f 20/20/20 21/21/21 22/22/22
f 23/23/23 16/16/16 17/17/17
f 17/17/17 24/24/24 23/23/23
f 16/16/16 23/23/23 25/25/25
f 23/23/23 26/26/26 25/25/25
f 25/25/25 26/26/26 27/27/27
f 27/27/27 26/26/26 28/28/28
f 31/31/31 30/30/30 29/29/29
f 31/31/31 32/32/32 30/30/30
f 33/33/33 32/32/32 31/31/31
f 33/33/33 34/34/34 32/32/32
f 35/35/35 32/32/32 34/34/34
f 36/36/36 35/35/35 34/34/34
f 37/37/37 36/36/36 34/34/34
f 38/38/38 36/36/36 37/37/37
f 39/39/39 37/37/37 34/34/34
f 34/34/34 40/40/40 39/39/39
f 39/39/39 40/40/40 41/41/41
f 41/41/41 40/40/40 42/42/42
f 41/41/41 42/42/42 43/43/43
f 36/36/36 44/44/44 35/35/35
f 44/44/44 45/45/45 35/35/35
f 44/44/44 46/46/46 45/45/45
f 45/45/45 47/47/47 35/35/35
f 48/48/48 35/35/35 47/47/47
f 48/48/48 47/47/47 49/49/49
f 45/45/45 46/46/46 50/50/50
f 46/46/46 51/51/51 50/50/50
f 50/50/50 51/51/51 52/52/52
f 50/50/50 52/52/52 53/53/53
f 52/52/52 54/54/54 53/53/53
f 53/53/53 54/54/54 55/55/55
f 57/57/57 56/56/56 45/45/45
f 56/56/56 58/58/58 45/45/45
f 58/58/58 56/56/56 59/59/59
f 62/62/62 61/61/61 60/60/60
f 62/62/62 63/63/63 61/61/61
f 62/62/62 64/64/64 63/63/63
f 65/65/65 63/63/63 64/64/64
f 64/64/64 66/66/66 65/65/65
f 66/66/66 67/67/67 65/65/65
f 67/67/67 68/68/68 65/65/65
f 69/69/69 68/68/68 67/67/67
f 65/65/65 68/68/68 70/70/70
f 69/69/69 71/71/71 68/68/68
f 68/68/68 72/72/72 70/70/70
f 70/70/70 72/72/72 73/73/73
f 68/68/68 71/71/71 74/74/74
f 71/71/71 75/75/75 74/74/74
f 74/74/74 75/75/75 76/76/76
f 77/77/77 66/66/66 64/64/64
f 78/78/78 66/66/66 77/77/77
f 79/79/79 77/77/77 64/64/64
f 64/64/64 80/80/80 79/79/79
f 79/79/79 80/80/80 81/81/81
f 81/81/81 80/80/80 82/82/82
f 81/81/81 82/82/82 83/83/83
f 86/86/86 85/85/85 84/84/84
f 87/87/87 85/85/85 86/86/86
f 87/87/87 88/88/88 85/85/85
f 87/87/87 89/89/89 88/88/88
f 89/89/89 90/90/90 88/88/88
f 93/93/93 92/92/92 91/91/91
f 92/92/92 93/93/93 94/94/94
f 95/95/95 92/92/92 94/94/94
f 98/98/98 97/97/97 96/96/96
f 98/98/98 99/99/99 97/97/97
f 100/100/100 99/99/99 98/98/98
f 100/100/100 101/101/101 99/99/99
f 101/101/101 100/100/100 102/102/102
f 105/105/105 104/104/104 103/103/103
f 106/106/106 104/104/104 105/105/105
f 106/106/106 107/107/107 104/104/104
f 106/106/106 108/108/108 107/107/107
f 108/108/108 109/109/109 107/107/107
