g obj_scratch2_1
v 1.2224323 0.06575166 -0.080390595
v 1.210232 0.06575158 0.15352479
v 0.070314065 0.06575158 0.2929487
v 0.032039735 0.06575159 0.08787026
v -1.1568134 0.06575158 0.48337767
v -1.1738814 0.06575165 0.27134782
v 1.3175503 -0.05000158 -0.1674076
v 1.2224323 0.06575166 -0.080390595
v 0.032039735 0.06575159 0.08787026
v 0.013511587 -0.05000135 0.019639619
v -1.1738814 0.06575165 0.27134782
v -1.2602296 -0.0500013 0.22356103
v -1.2602296 -0.0500013 0.22356103
v -1.1738814 0.06575165 0.27134782
v -1.1568134 0.06575158 0.48337767
v -1.2167903 -0.05000135 0.5483016
v -1.2167903 -0.05000135 0.5483016
v -1.1568134 0.06575158 0.48337767
v 0.070314065 0.06575158 0.2929487
v 0.07815713 -0.050001502 0.33742878
v 0.07815713 -0.050001502 0.33742878
v 0.070314065 0.06575158 0.2929487
v 1.210232 0.06575158 0.15352479
v 1.3055636 -0.050001428 0.18383712
v 1.3055636 -0.050001428 0.18383712
v 1.210232 0.06575158 0.15352479
v 1.2224323 0.06575166 -0.080390595
v 1.3175503 -0.05000158 -0.1674076
v 1.5942737 0.032439645 0.11452147
v 1.5069903 0.032439493 0.26689065
v 1.4480023 0.032439493 0.35028517
v -0.625529 0.032439724 -0.050174486
v -0.52912396 0.032439493 0.23880017
v 1.657784 -0.08844005 0.06934914
v 1.5942737 0.032439645 0.11452147
v -0.625529 0.032439724 -0.050174486
v -0.7778875 -0.08843998 -0.14622666
v 1.4796789 -0.08844021 0.39100286
v 1.4480023 0.032439493 0.35028517
v 1.5069903 0.032439493 0.26689065
v 1.541724 -0.08844021 0.28795993
v 1.541724 -0.08844021 0.28795993
v 1.5069903 0.032439493 0.26689065
v 1.5942737 0.032439645 0.11452147
v 1.657784 -0.08844005 0.06934914
v -0.6814825 -0.08844021 0.19363391
v -0.7778875 -0.08843998 -0.14622666
v -0.625529 0.032439724 -0.050174486
v -0.52912396 0.032439493 0.23880017
vt 0.67659736 0.5004742
vt 0.67659736 0.4832427
vt 0.58106494 0.4832427
vt 0.58106494 0.5010023
vt 0.51659226 0.4832427
vt 0.51659226 0.5004742
vt 0.67659736 0.50674176
vt 0.67659736 0.5004742
vt 0.59868896 0.5010023
vt 0.59868896 0.50674176
vt 0.51659226 0.5004742
vt 0.51659226 0.50674176
vt 0.507383 0.5004742
vt 0.51659226 0.5004742
vt 0.51659226 0.4832427
vt 0.507383 0.4832427
vt 0.51659226 0.47964332
vt 0.51659226 0.4832427
vt 0.59868896 0.4832427
vt 0.59868896 0.47964332
vt 0.59868896 0.47964332
vt 0.59868896 0.4832427
vt 0.67659736 0.4832427
vt 0.67659736 0.47964332
vt 0.68726236 0.4832427
vt 0.67659736 0.4832427
vt 0.67659736 0.5004742
vt 0.68726236 0.5004742
vt 0.67659736 0.5004742
vt 0.67659736 0.49028912
vt 0.67659736 0.4832427
vt 0.51659226 0.5004742
vt 0.51659226 0.4832427
vt 0.67659736 0.5067419
vt 0.67659736 0.5004742
vt 0.51659226 0.5004742
vt 0.51659226 0.5067419
vt 0.68726236 0.4832427
vt 0.67659736 0.4832427
vt 0.67659736 0.49028912
vt 0.68726236 0.49028912
vt 0.68726236 0.49028912
vt 0.67659736 0.49028912
vt 0.67659736 0.5004742
vt 0.68726236 0.5004742
vt 0.507383 0.4832427
vt 0.507383 0.5004742
vt 0.51659226 0.5004742
vt 0.51659226 0.4832427
vn -0 1 1.9705355E-07
vn -0 1 1.9705355E-07
vn -0 1 1.9705355E-07
vn -0 1 1.9705355E-07
vn -0 1 1.7743184E-07
vn -0 1 1.7743186E-07
vn -0.11999867 0.52524465 -0.8424479
vn -0.11999867 0.5252447 -0.8424479
vn -0.11999867 0.5252447 -0.8424479
vn -0.11999867 0.52524465 -0.8424479
vn -0.1343873 0.49195552 -0.8601859
vn -0.1343873 0.49195546 -0.8601859
vn -0.8383489 0.53688014 0.094502866
vn -0.8383489 0.53688014 0.094502866
vn -0.8383489 0.53688014 0.094502866
vn -0.8383489 0.53688014 0.094502866
vn 0.14428966 0.3960482 0.906822
vn 0.14428966 0.3960482 0.906822
vn 0.14428966 0.39604816 0.906822
vn 0.14428966 0.39604816 0.906822
vn 0.11500259 0.35142455 0.929126
vn 0.11500259 0.35142455 0.929126
vn 0.11500259 0.35142455 0.929126
vn 0.11500257 0.35142457 0.929126
vn 0.7757036 0.6302824 0.032062836
vn 0.7757036 0.6302824 0.032062836
vn 0.7757036 0.6302824 0.032062836
vn 0.7757036 0.6302824 0.032062836
vn -0 1 6.580875E-07
vn -0 1 6.580875E-07
vn -0 1 6.580875E-07
vn -0 1 6.580876E-07
vn -0 1 8.1288397E-07
vn 0.07126496 0.48346022 -0.87246054
vn 0.071264975 0.48346022 -0.87246066
vn 0.07126496 0.48346022 -0.87246054
vn 0.07126497 0.48346022 -0.87246054
vn 0.78674775 0.3466486 0.5107474
vn 0.78674763 0.34664857 0.5107474
vn 0.7867476 0.34664857 0.5107474
vn 0.78674763 0.34664857 0.5107474
vn 0.8379575 0.29472938 0.45930582
vn 0.8379575 0.2947294 0.4593058
vn 0.8379575 0.2947294 0.45930582
vn 0.8379575 0.29472935 0.4593058
vn -0.66471255 0.7187616 0.20381105
vn -0.6647125 0.7187617 0.20381106
vn -0.6647125 0.7187617 0.20381106
vn -0.6647125 0.7187617 0.20381106
g obj_scratch2_1_0
f 3/3/3 2/2/2 1/1/1
f 4/4/4 3/3/3 1/1/1
f 5/5/5 3/3/3 4/4/4
f 6/6/6 5/5/5 4/4/4
f 9/9/9 8/8/8 7/7/7
f 10/10/10 9/9/9 7/7/7
f 11/11/11 9/9/9 10/10/10
f 12/12/12 11/11/11 10/10/10
f 15/15/15 14/14/14 13/13/13
f 16/16/16 15/15/15 13/13/13
f 19/19/19 18/18/18 17/17/17
f 20/20/20 19/19/19 17/17/17
f 23/23/23 22/22/22 21/21/21
f 24/24/24 23/23/23 21/21/21
f 27/27/27 26/26/26 25/25/25
f 28/28/28 27/27/27 25/25/25
f 31/31/31 30/30/30 29/29/29
f 32/32/32 31/31/31 29/29/29
f 32/32/32 33/33/33 31/31/31
f 36/36/36 35/35/35 34/34/34
f 37/37/37 36/36/36 34/34/34
f 40/40/40 39/39/39 38/38/38
f 41/41/41 40/40/40 38/38/38
f 44/44/44 43/43/43 42/42/42
f 45/45/45 44/44/44 42/42/42
f 48/48/48 47/47/47 46/46/46
f 49/49/49 48/48/48 46/46/46
