g obj_propup1_3
v -0.2815399 0.95075166 0.081813216
v -0.4471362 0.78515524 0.081813216
v -0.4471362 0.78515524 -0.09091949
v -0.2815396 0.95075166 -0.09091949
v 0.44375086 0.05891143 -0.09091979
v 0.251915 -0.075413644 -0.09091979
v 0.44375086 0.05891143 0.08181352
v 0.44375086 0.05891143 -0.09091979
v 0.251915 -0.075413644 0.08181352
v 0.251915 -0.075413644 -0.09091979
v -0.4471362 0.78515524 -0.09091949
v -0.4471362 0.78515524 0.081813216
v 0.251915 -0.075413644 0.08181352
v 0.251915 -0.075413644 -0.09091979
v -0.4471362 0.78515524 0.081813216
v 0.44375086 0.05891143 0.08181352
v 0.251915 -0.075413644 0.08181352
v -0.2815399 0.95075166 0.081813216
v -0.2815399 0.95075166 0.081813216
v -0.2815396 0.95075166 -0.09091949
v 0.44375086 0.05891143 -0.09091979
v 0.44375086 0.05891143 0.08181352
v 0.40482396 0.6745918 0.34947953
v 0.2448702 0.8401882 0.30661994
v 0.2895767 0.84018826 0.13977288
v 0.44953078 0.6745919 0.18263245
v -0.41015735 0.08384009 -0.037054453
v -0.2692846 -0.062001854 0.0006920666
v -0.41015735 0.08384009 -0.037054453
v -0.44953048 0.083840124 0.10988924
v -0.30865803 -0.062001858 0.14763576
v -0.2692846 -0.062001854 0.0006920666
v 0.2895767 0.84018826 0.13977288
v 0.2448702 0.8401882 0.30661994
v -0.44953048 0.083840124 0.10988924
v -0.41015735 0.08384009 -0.037054453
v -0.44953048 0.083840124 0.10988924
v 0.2448702 0.8401882 0.30661994
v 0.40482396 0.6745918 0.34947953
v -0.30865803 -0.062001858 0.14763576
v -0.30865803 -0.062001858 0.14763576
v 0.40482396 0.6745918 0.34947953
v 0.44953078 0.6745919 0.18263245
v -0.2692846 -0.062001854 0.0006920666
v 0.07538517 0.39555258 -0.3494792
v 0.16037753 0.2779013 -0.25582433
v 0.24565631 0.44809195 -0.119417146
v 0.16066426 0.5657432 -0.21307202
v -0.35782763 0.22119227 0.13049696
v -0.43268088 0.3248089 0.048014734
v -0.28272274 0.37108067 0.2506326
v -0.35757628 0.47469702 0.16815007
v -0.43268088 0.3248089 0.048014734
v 0.07538517 0.39555258 -0.3494792
v 0.16066426 0.5657432 -0.21307202
v -0.35757628 0.47469702 0.16815007
v 0.16066426 0.5657432 -0.21307202
v -0.28272274 0.37108067 0.2506326
v -0.35757628 0.47469702 0.16815007
v 0.24565631 0.44809195 -0.119417146
v 0.24565631 0.44809195 -0.119417146
v 0.16037753 0.2779013 -0.25582433
v -0.35782763 0.22119227 0.13049696
v -0.28272274 0.37108067 0.2506326
v 0.07538517 0.39555258 -0.3494792
v -0.43268088 0.3248089 0.048014734
v -0.35782763 0.22119227 0.13049696
v 0.16037753 0.2779013 -0.25582433
vt 0.18895568 0.8043734
vt 0.17723413 0.8043734
vt 0.17723413 0.7971034
vt 0.18895568 0.7971034
vt 0.18895568 0.7516844
vt 0.17723413 0.7516844
vt 0.18895568 0.7516844
vt 0.18895568 0.7516844
vt 0.17723413 0.7516844
vt 0.17723413 0.7516844
vt 0.17723592 0.7971034
vt 0.18895568 0.7971034
vt 0.18895568 0.7516844
vt 0.17723592 0.7516844
vt 0.17723413 0.7971034
vt 0.18895568 0.7516844
vt 0.17723413 0.7516844
vt 0.18895568 0.7971034
vt 0.16551436 0.7971034
vt 0.17723174 0.7971034
vt 0.17723174 0.7516844
vt 0.16551436 0.7516844
vt 0.17723413 0.8043734
vt 0.18895568 0.8043734
vt 0.18895568 0.7971034
vt 0.17723413 0.7971034
vt 0.18895568 0.7516844
vt 0.17723413 0.7516844
vt 0.18895568 0.7516844
vt 0.18895568 0.7516844
vt 0.17723413 0.7516844
vt 0.17723413 0.7516844
vt 0.17723174 0.7971034
vt 0.16551436 0.7971034
vt 0.16551436 0.7516844
vt 0.17723174 0.7516844
vt 0.18895568 0.7516844
vt 0.18895568 0.7971034
vt 0.17723413 0.7971034
vt 0.17723413 0.7516844
vt 0.18895568 0.7516844
vt 0.18895568 0.7971034
vt 0.17723592 0.7971034
vt 0.17723592 0.7516844
vt 0.17723413 0.7971034
vt 0.17723413 0.8043734
vt 0.18895568 0.8043734
vt 0.18895568 0.7971034
vt 0.17723413 0.7516844
vt 0.17723413 0.7516844
vt 0.18895568 0.7516844
vt 0.18895568 0.7516844
vt 0.20175909 0.7516844
vt 0.20175909 0.7971034
vt 0.19027738 0.7971034
vt 0.19027738 0.7516844
vt 0.17723174 0.7971034
vt 0.16551436 0.7516844
vt 0.17723174 0.7516844
vt 0.16551436 0.7971034
vt 0.18895568 0.7971034
vt 0.17723413 0.7971034
vt 0.17723413 0.7516844
vt 0.18895568 0.7516844
vt 0.19082265 0.7971034
vt 0.19082265 0.7516844
vt 0.20130406 0.7516844
vt 0.20130406 0.7971034
vn 0.04206655 0.8190733 0.5721445
vn -0.81141126 0.041903764 0.58297163
vn -0.81141114 0.041903757 -0.58297175
vn 0.0420679 0.81907314 -0.5721446
vn 0.8112388 -0.1131472 -0.57366294
vn -0.11263934 -0.80593127 -0.5811947
vn 0.8112385 -0.113147154 0.57366353
vn 0.8112388 -0.1131472 -0.57366294
vn -0.1126393 -0.80593127 0.5811947
vn -0.11263934 -0.80593127 -0.5811947
vn -0.81141114 0.041903757 -0.58297175
vn -0.81141126 0.041903764 0.58297163
vn -0.1126393 -0.80593127 0.5811947
vn -0.11263934 -0.80593127 -0.5811947
vn -0.81141126 0.041903764 0.58297163
vn 0.8112385 -0.113147154 0.57366353
vn -0.1126393 -0.80593127 0.5811947
vn 0.04206655 0.8190733 0.5721445
vn 0.04206655 0.8190733 0.5721445
vn 0.0420679 0.81907314 -0.5721446
vn 0.8112388 -0.1131472 -0.57366294
vn 0.8112385 -0.113147154 0.57366353
vn 0.6364803 -0.0027945207 0.771288
vn -0.16054207 0.8151138 0.55661106
vn 0.13927153 0.81511456 -0.56230927
vn 0.9368524 -0.0027937302 -0.3497137
vn -0.6409562 -0.011074111 -0.7674976
vn 0.1459704 -0.8185656 -0.5555565
vn -0.6409562 -0.011074111 -0.7674976
vn -0.93883276 -0.011073941 0.34419537
vn -0.1513644 -0.81856555 0.5541112
vn 0.1459704 -0.8185656 -0.5555565
vn 0.13927153 0.81511456 -0.56230927
vn -0.16054207 0.8151138 0.55661106
vn -0.93883276 -0.011073941 0.34419537
vn -0.6409562 -0.011074111 -0.7674976
vn -0.93883276 -0.011073941 0.34419537
vn -0.16054207 0.8151138 0.55661106
vn 0.6364803 -0.0027945207 0.771288
vn -0.1513644 -0.81856555 0.5541112
vn -0.1513644 -0.81856555 0.5541112
vn 0.6364803 -0.0027945207 0.771288
vn 0.9368524 -0.0027937302 -0.3497137
vn 0.1459704 -0.8185656 -0.5555565
vn -0.042864222 0.032133423 -0.99856406
vn 0.53262895 -0.7618396 -0.3686553
vn 0.9438777 0.086906075 0.31865722
vn 0.37113446 0.87579876 -0.308603
vn -0.38622516 -0.86395746 0.32312164
vn -0.9514234 -0.08548348 -0.2957803
vn 0.019177875 -0.037419394 0.99911565
vn -0.54866105 0.7458875 0.37765443
vn -0.9514234 -0.08548348 -0.2957803
vn -0.042864222 0.032133423 -0.99856406
vn 0.37113446 0.87579876 -0.308603
vn -0.54866105 0.7458875 0.37765443
vn 0.37113446 0.87579876 -0.308603
vn 0.019177875 -0.037419394 0.99911565
vn -0.54866105 0.7458875 0.37765443
vn 0.9438777 0.086906075 0.31865722
vn 0.9438777 0.086906075 0.31865722
vn 0.53262895 -0.7618396 -0.3686553
vn -0.38622516 -0.86395746 0.32312164
vn 0.019177875 -0.037419394 0.99911565
vn -0.042864222 0.032133423 -0.99856406
vn -0.9514234 -0.08548348 -0.2957803
vn -0.38622516 -0.86395746 0.32312164
vn 0.53262895 -0.7618396 -0.3686553
g obj_propup1_3_0
f 3/3/3 2/2/2 1/1/1
f 1/1/1 4/4/4 3/3/3
f 3/3/3 4/4/4 5/5/5
f 5/5/5 6/6/6 3/3/3
f 9/9/9 8/8/8 7/7/7
f 10/10/10 8/8/8 9/9/9
f 13/13/13 12/12/12 11/11/11
f 11/11/11 14/14/14 13/13/13
f 17/17/17 16/16/16 15/15/15
f 18/18/18 15/15/15 16/16/16
f 21/21/21 20/20/20 19/19/19
f 19/19/19 22/22/22 21/21/21
f 25/25/25 24/24/24 23/23/23
f 23/23/23 26/26/26 25/25/25
f 25/25/25 26/26/26 27/27/27
f 28/28/28 27/27/27 26/26/26
f 31/31/31 30/30/30 29/29/29
f 29/29/29 32/32/32 31/31/31
f 35/35/35 34/34/34 33/33/33
f 33/33/33 36/36/36 35/35/35
f 39/39/39 38/38/38 37/37/37
f 37/37/37 40/40/40 39/39/39
f 43/43/43 42/42/42 41/41/41
f 41/41/41 44/44/44 43/43/43
f 47/47/47 46/46/46 45/45/45
f 45/45/45 48/48/48 47/47/47
f 51/51/51 50/50/50 49/49/49
f 52/52/52 50/50/50 51/51/51
f 55/55/55 54/54/54 53/53/53
f 53/53/53 56/56/56 55/55/55
f 59/59/59 58/58/58 57/57/57
f 60/60/60 57/57/57 58/58/58
f 63/63/63 62/62/62 61/61/61
f 61/61/61 64/64/64 63/63/63
f 67/67/67 66/66/66 65/65/65
f 65/65/65 68/68/68 67/67/67
