g obj_outdoor_camp_S
v 0.0023878142 1.060417 0.2271323
v 0.020644069 1.2776544 0.07851476
v 0.16869062 1.0318526 0.14221561
v 0.16869062 1.0318526 0.14221561
v 0.020644069 1.2776544 0.07851476
v 0.17682348 0.98239964 -0.0414263
v 0.17682348 0.98239964 -0.0414263
v 0.020644069 1.2776544 0.07851476
v 0.01873205 0.96104103 -0.14190128
v 0.01873205 0.96104103 -0.14190128
v 0.020644069 1.2776544 0.07851476
v -0.14753619 0.98939776 -0.057686824
v -0.14753619 0.98939776 -0.057686824
v 0.020644069 1.2776544 0.07851476
v -0.1556732 1.0388507 0.12595494
v -0.1556732 1.0388507 0.12595494
v 0.020644069 1.2776544 0.07851476
v 0.0023878142 1.060417 0.2271323
v -0.34331265 0.8036307 0.30600578
v -0.35424036 1.0956835 0.21775146
v -0.178776 0.81050515 0.21267705
v -0.178776 0.81050515 0.21267705
v -0.35424036 1.0956835 0.21775146
v -0.1751312 0.81022555 0.02235426
v -0.1751312 0.81022555 0.02235426
v -0.35424036 1.0956835 0.21775146
v -0.33598787 0.80306965 -0.07645303
v -0.33598787 0.80306965 -0.07645303
v -0.35424036 1.0956835 0.21775146
v -0.50050515 0.7961739 0.016143253
v -0.50050515 0.7961739 0.016143253
v -0.35424036 1.0956835 0.21775146
v -0.5041542 0.7964535 0.20646596
v -0.5041542 0.7964535 0.20646596
v -0.35424036 1.0956835 0.21775146
v -0.34331265 0.8036307 0.30600578
v 0.36339206 0.7845296 0.3033168
v 0.35455233 1.0486485 0.21346721
v 0.5160194 0.783675 0.19169632
v 0.5160194 0.783675 0.19169632
v 0.35455233 1.0486485 0.21346721
v 0.49774066 0.78179944 0.0022274167
v 0.49774066 0.78179944 0.0022274167
v 0.35455233 1.0486485 0.21346721
v 0.326661 0.7807617 -0.07742613
v 0.326661 0.7807617 -0.07742613
v 0.35455233 1.0486485 0.21346721
v 0.17396809 0.78158987 0.03346453
v 0.17396809 0.78158987 0.03346453
v 0.35455233 1.0486485 0.21346721
v 0.19224271 0.7834652 0.22293384
v 0.19224271 0.7834652 0.22293384
v 0.35455233 1.0486485 0.21346721
v 0.36339206 0.7845296 0.3033168
v -0.0286812 -0.04618723 0.27295694
v 0.0023878142 1.060417 0.2271323
v 0.16869062 1.0318526 0.14221561
v 0.14721866 -0.07832138 0.18309188
v 0.14721866 -0.07832138 0.18309188
v 0.16869062 1.0318526 0.14221561
v 0.17682348 0.98239964 -0.0414263
v 0.1558204 -0.13068566 -0.011108926
v 0.1558204 -0.13068566 -0.011108926
v 0.17682348 0.98239964 -0.0414263
v 0.01873205 0.96104103 -0.14190128
v -0.011358943 -0.15161921 -0.11809007
v -0.011358943 -0.15161921 -0.11809007
v 0.01873205 0.96104103 -0.14190128
v -0.14753619 0.98939776 -0.057686824
v -0.18720903 -0.11975718 -0.029250532
v -0.18720903 -0.11975718 -0.029250532
v -0.14753619 0.98939776 -0.057686824
v -0.1556732 1.0388507 0.12595494
v -0.19582489 -0.06739253 0.16494952
v -0.19582489 -0.06739253 0.16494952
v -0.1556732 1.0388507 0.12595494
v 0.0023878142 1.060417 0.2271323
v -0.0286812 -0.04618723 0.27295694
v -0.30076796 -0.075532645 0.066178545
v -0.34331265 0.8036307 0.30600578
v -0.178776 0.81050515 0.21267705
v -0.12674992 -0.06825718 -0.033079468
v -0.12674992 -0.06825718 -0.033079468
v -0.178776 0.81050515 0.21267705
v -0.1751312 0.81022555 0.02235426
v -0.12289461 -0.068574175 -0.23436286
v -0.12289461 -0.068574175 -0.23436286
v -0.1751312 0.81022555 0.02235426
v -0.33598787 0.80306965 -0.07645303
v -0.2930041 -0.07616171 -0.33912757
v -0.2930041 -0.07616171 -0.33912757
v -0.33598787 0.80306965 -0.07645303
v -0.50050515 0.7961739 0.016143253
v -0.46699783 -0.08343425 -0.24093129
v -0.46699783 -0.08343425 -0.24093129
v -0.50050515 0.7961739 0.016143253
v -0.5041542 0.7964535 0.20646596
v -0.47086716 -0.0831178 -0.039648175
v -0.47086716 -0.0831178 -0.039648175
v -0.5041542 0.7964535 0.20646596
v -0.34331265 0.8036307 0.30600578
v -0.30076796 -0.075532645 0.066178545
v 0.3415421 -0.07606302 0.07106953
v 0.36339206 0.7845296 0.3033168
v 0.5160194 0.783675 0.19169632
v 0.502901 -0.07698066 -0.047530323
v 0.502901 -0.07698066 -0.047530323
v 0.5160194 0.783675 0.19169632
v 0.49774066 0.78179944 0.0022274167
v 0.48356926 -0.079013295 -0.2479103
v 0.48356926 -0.079013295 -0.2479103
v 0.49774066 0.78179944 0.0022274167
v 0.326661 0.7807617 -0.07742613
v 0.30261698 -0.08014643 -0.33241764
v 0.30261698 -0.08014643 -0.33241764
v 0.326661 0.7807617 -0.07742613
v 0.17396809 0.78158987 0.03346453
v 0.14115985 -0.07923487 -0.21487515
v 0.14115985 -0.07923487 -0.21487515
v 0.17396809 0.78158987 0.03346453
v 0.19224271 0.7834652 0.22293384
v 0.16047749 -0.07720223 -0.014493833
v 0.16047749 -0.07720223 -0.014493833
v 0.19224271 0.7834652 0.22293384
v 0.36339206 0.7845296 0.3033168
v 0.3415421 -0.07606302 0.07106953
v 0.50349885 0.6478647 -0.13386825
v -0.5034997 0.6478649 -0.13386838
v -0.5034997 0.63924617 -0.16543567
v 0.5034991 0.6392462 -0.1654358
v 0.5034991 0.510757 -0.22876953
v 0.5034989 0.6309809 -0.17705698
v -0.5035 0.63098085 -0.17705697
v -0.5034997 0.510757 -0.22876911
v 0.5034989 0.6309809 -0.17705698
v 0.5034991 0.6392462 -0.1654358
v -0.5034997 0.63924617 -0.16543567
v -0.5035 0.63098085 -0.17705697
vt 0.08670751 0.70464236
vt 0.11454513 0.68035847
vt 0.08670751 0.6886022
vt 0.08670751 0.6886022
vt 0.11454513 0.68035847
vt 0.08670751 0.6698776
vt 0.08670751 0.6698776
vt 0.11454513 0.68035847
vt 0.08670751 0.6548779
vt 0.08670751 0.6548779
vt 0.11454513 0.68035847
vt 0.08670751 0.6698776
vt 0.08670751 0.6698776
vt 0.11454513 0.68035847
vt 0.08670751 0.6886022
vt 0.08670751 0.6886022
vt 0.11454513 0.68035847
vt 0.08670751 0.70464236
vt 0.08670751 0.70464236
vt 0.11454513 0.68035847
vt 0.08670751 0.6886022
vt 0.08670751 0.6886022
vt 0.11454513 0.68035847
vt 0.08670751 0.6698776
vt 0.08670751 0.6698776
vt 0.11454513 0.68035847
vt 0.08670751 0.6548779
vt 0.08670751 0.6548779
vt 0.11454513 0.68035847
vt 0.08670751 0.6698776
vt 0.08670751 0.6698776
vt 0.11454513 0.68035847
vt 0.08670751 0.6886022
vt 0.08670751 0.6886022
vt 0.11454513 0.68035847
vt 0.08670751 0.70464236
vt 0.08670751 0.70464236
vt 0.11454513 0.68035847
vt 0.08670751 0.6886022
vt 0.08670751 0.6886022
vt 0.11454513 0.68035847
vt 0.08670751 0.6698776
vt 0.08670751 0.6698776
vt 0.11454513 0.68035847
vt 0.08670751 0.6548779
vt 0.08670751 0.6548779
vt 0.11454513 0.68035847
vt 0.08670751 0.6698776
vt 0.08670751 0.6698776
vt 0.11454513 0.68035847
vt 0.08670751 0.6886022
vt 0.08670751 0.6886022
vt 0.11454513 0.68035847
vt 0.08670751 0.70464236
vt 0.0016820643 0.70464236
vt 0.08670751 0.70464236
vt 0.08670751 0.6886022
vt 0.0016820643 0.6886022
vt 0.0016820643 0.6886022
vt 0.08670751 0.6886022
vt 0.08670751 0.6698776
vt 0.0016820643 0.6698776
vt 0.0016820643 0.6698776
vt 0.08670751 0.6698776
vt 0.08670751 0.6548779
vt 0.0016820643 0.6548779
vt 0.0016820643 0.6548779
vt 0.08670751 0.6548779
vt 0.08670751 0.6698776
vt 0.0016820643 0.6698776
vt 0.0016820643 0.6698776
vt 0.08670751 0.6698776
vt 0.08670751 0.6886022
vt 0.0016820643 0.6886022
vt 0.0016820643 0.6886022
vt 0.08670751 0.6886022
vt 0.08670751 0.70464236
vt 0.0016820643 0.70464236
vt 0.0016820643 0.70464236
vt 0.08670751 0.70464236
vt 0.08670751 0.6886022
vt 0.0016820643 0.6886022
vt 0.0016820643 0.6886022
vt 0.08670751 0.6886022
vt 0.08670751 0.6698776
vt 0.0016820643 0.6698776
vt 0.0016820643 0.6698776
vt 0.08670751 0.6698776
vt 0.08670751 0.6548779
vt 0.0016820643 0.6548779
vt 0.0016820643 0.6548779
vt 0.08670751 0.6548779
vt 0.08670751 0.6698776
vt 0.0016820643 0.6698776
vt 0.0016820643 0.6698776
vt 0.08670751 0.6698776
vt 0.08670751 0.6886022
vt 0.0016820643 0.6886022
vt 0.0016820643 0.6886022
vt 0.08670751 0.6886022
vt 0.08670751 0.70464236
vt 0.0016820643 0.70464236
vt 0.0016820643 0.70464236
vt 0.08670751 0.70464236
vt 0.08670751 0.6886022
vt 0.0016820643 0.6886022
vt 0.0016820643 0.6886022
vt 0.08670751 0.6886022
vt 0.08670751 0.6698776
vt 0.0016820643 0.6698776
vt 0.0016820643 0.6698776
vt 0.08670751 0.6698776
vt 0.08670751 0.6548779
vt 0.0016820643 0.6548779
vt 0.0016820643 0.6548779
vt 0.08670751 0.6548779
vt 0.08670751 0.6698776
vt 0.0016820643 0.6698776
vt 0.0016820643 0.6698776
vt 0.08670751 0.6698776
vt 0.08670751 0.6886022
vt 0.0016820643 0.6886022
vt 0.0016820643 0.6886022
vt 0.08670751 0.6886022
vt 0.08670751 0.70464236
vt 0.0016820643 0.70464236
vt 0.76920754 0.896748
vt 0.7297395 0.89674807
vt 0.7297395 0.891033
vt 0.76920754 0.891033
vt 0.76920754 0.8811541
vt 0.76920754 0.88819665
vt 0.7297395 0.88819665
vt 0.7297395 0.8811541
vt 0.76920754 0.88819665
vt 0.76920754 0.891033
vt 0.7297395 0.891033
vt 0.7297395 0.88819665
vn 0.46371698 0.47338256 0.74891627
vn 0.463717 0.47338256 0.74891627
vn 0.46371698 0.4733826 0.74891627
vn 0.8634426 0.49538946 -0.095164664
vn 0.8634426 0.49538946 -0.09516465
vn 0.8634426 0.49538946 -0.095164664
vn 0.40690866 0.52025354 -0.75084054
vn 0.40690866 0.52025354 -0.75084054
vn 0.40690866 0.52025354 -0.75084054
vn -0.30267164 0.54578084 -0.7813534
vn -0.3026716 0.54578084 -0.7813534
vn -0.30267164 0.54578084 -0.7813534
vn -0.8077127 0.55933094 -0.18641147
vn -0.8077127 0.55933094 -0.18641149
vn -0.8077127 0.55933094 -0.18641149
vn -0.51106477 0.5141719 0.68879616
vn -0.5110647 0.51417184 0.68879616
vn -0.51106477 0.5141719 0.68879616
vn 0.4661789 0.27184987 0.8418877
vn 0.4661789 0.27184984 0.8418877
vn 0.4661789 0.27184984 0.8418877
vn 0.85171884 0.52376854 0.015541537
vn 0.85171884 0.52376854 0.015541539
vn 0.85171884 0.5237685 0.015541539
vn 0.36615697 0.67104083 -0.6446963
vn 0.36615697 0.67104083 -0.6446963
vn 0.36615697 0.67104083 -0.6446963
vn -0.39780852 0.6380461 -0.6592765
vn -0.39780855 0.63804615 -0.6592765
vn -0.39780852 0.63804615 -0.6592765
vn -0.8936592 0.44839332 -0.017793002
vn -0.8936593 0.44839334 -0.017793002
vn -0.8936592 0.44839332 -0.017793002
vn -0.5196033 0.22927848 0.8230698
vn -0.5196033 0.22927843 0.8230698
vn -0.5196033 0.22927843 0.8230698
vn 0.56735206 0.28216487 0.7736243
vn 0.56735206 0.28216487 0.7736243
vn 0.56735206 0.28216487 0.7736243
vn 0.847518 0.5235966 -0.086946405
vn 0.847518 0.52359664 -0.086946405
vn 0.847518 0.52359664 -0.086946405
vn 0.30360955 0.68619144 -0.6610314
vn 0.30360955 0.68619144 -0.66103137
vn 0.30360955 0.68619144 -0.6610314
vn -0.42527273 0.6857167 -0.5907078
vn -0.42527273 0.68571675 -0.59070784
vn -0.42527267 0.68571675 -0.5907078
vn -0.8491826 0.5224949 0.07673332
vn -0.84918255 0.5224949 0.07673333
vn -0.84918255 0.5224949 0.076733336
vn -0.40935203 0.28153145 0.8678542
vn -0.40935203 0.28153148 0.86785424
vn -0.40935203 0.28153148 0.8678542
vn 0.45808813 0.023896286 0.8885855
vn 0.4580882 0.023896286 0.8885855
vn 0.4580882 0.02389629 0.8885855
vn 0.4580882 0.02389629 0.8885855
vn 0.99864775 -0.017511575 0.048948802
vn 0.99864775 -0.017511576 0.048948806
vn 0.99864775 -0.017511573 0.048948802
vn 0.99864775 -0.017511573 0.0489488
vn 0.5404769 -0.03285281 -0.8407172
vn 0.5404769 -0.03285281 -0.8407172
vn 0.5404769 -0.03285281 -0.8407172
vn 0.5404769 -0.03285281 -0.8407172
vn -0.45230946 -0.0067698397 -0.8918354
vn -0.45230946 -0.0067698387 -0.8918354
vn -0.45230946 -0.0067698387 -0.8918354
vn -0.45230946 -0.0067698397 -0.8918354
vn -0.99797755 0.03433042 -0.053499747
vn -0.99797755 0.034330416 -0.05349975
vn -0.99797755 0.034330416 -0.05349975
vn -0.99797755 0.03433042 -0.05349975
vn -0.54492736 0.049621556 0.83701366
vn -0.54492736 0.04962156 0.83701366
vn -0.5449273 0.04962156 0.83701366
vn -0.5449274 0.04962156 0.83701366
vn 0.49022704 -0.2074642 0.8465436
vn 0.49022704 -0.20746422 0.8465436
vn 0.490227 -0.2074642 0.8465436
vn 0.49022704 -0.20746422 0.8465436
vn 0.9983712 0.053782586 0.019039035
vn 0.9983712 0.053782586 0.019039035
vn 0.9983712 0.053782586 0.019039033
vn 0.9983712 0.053782582 0.019039035
vn 0.49557832 0.27067158 -0.8253115
vn 0.49557832 0.27067158 -0.8253115
vn 0.49557835 0.27067155 -0.8253114
vn 0.49557835 0.27067158 -0.8253114
vn -0.48527047 0.22831231 -0.84402966
vn -0.48527047 0.22831231 -0.84402966
vn -0.48527047 0.22831231 -0.84402966
vn -0.4852704 0.22831231 -0.84402966
vn -0.9992895 -0.032468516 -0.019135907
vn -0.9992895 -0.032468524 -0.019135905
vn -0.9992895 -0.032468524 -0.01913591
vn -0.9992895 -0.03246852 -0.019135907
vn -0.50240475 -0.25033003 0.82760155
vn -0.5024047 -0.25033003 0.8276016
vn -0.50240475 -0.25033003 0.82760155
vn -0.5024047 -0.25033006 0.8276016
vn 0.57503605 -0.22698157 0.78601086
vn 0.575036 -0.22698154 0.78601074
vn 0.57503605 -0.2269816 0.78601086
vn 0.57503605 -0.22698157 0.78601074
vn 0.995301 0.01155092 -0.096137114
vn 0.995301 0.01155092 -0.096137114
vn 0.995301 0.01155092 -0.096137114
vn 0.995301 0.01155092 -0.096137114
vn 0.40809596 0.24865903 -0.8784227
vn 0.40809596 0.248659 -0.8784227
vn 0.40809593 0.248659 -0.8784227
vn 0.40809596 0.24865903 -0.8784227
vn -0.56882995 0.2480259 -0.7841656
vn -0.56882983 0.2480259 -0.7841656
vn -0.5688299 0.2480259 -0.7841656
vn -0.5688299 0.2480259 -0.7841656
vn -0.9953402 0.010281589 0.095874906
vn -0.9953402 0.010281588 0.095874906
vn -0.9953402 0.010281588 0.095874906
vn -0.9953402 0.010281587 0.09587491
vn -0.41386065 -0.22762023 0.88142407
vn -0.41386065 -0.22762023 0.88142407
vn -0.41386056 -0.2276202 0.88142407
vn -0.41386065 -0.2276202 0.88142407
vn -0 0.9646916 -0.26338202
vn -0 0.9646916 -0.263382
vn -0 0.9646916 -0.263382
vn -0 0.9646916 -0.26338202
vn -2.1683778E-07 0.3951315 -0.9186246
vn -2.1683779E-07 0.39513153 -0.9186245
vn -2.168378E-07 0.39513153 -0.9186246
vn -2.168378E-07 0.39513153 -0.9186246
vn -1.0637987E-07 0.81491154 -0.5795854
vn -1.06379865E-07 0.81491154 -0.5795854
vn -1.06379865E-07 0.81491154 -0.5795854
vn -1.0637987E-07 0.81491154 -0.5795854
g obj_outdoor_camp_S_0
f 3/3/3 2/2/2 1/1/1
f 6/6/6 5/5/5 4/4/4
f 9/9/9 8/8/8 7/7/7
f 12/12/12 11/11/11 10/10/10
f 15/15/15 14/14/14 13/13/13
f 18/18/18 17/17/17 16/16/16
f 21/21/21 20/20/20 19/19/19
f 24/24/24 23/23/23 22/22/22
f 27/27/27 26/26/26 25/25/25
f 30/30/30 29/29/29 28/28/28
f 33/33/33 32/32/32 31/31/31
f 36/36/36 35/35/35 34/34/34
f 39/39/39 38/38/38 37/37/37
f 42/42/42 41/41/41 40/40/40
f 45/45/45 44/44/44 43/43/43
f 48/48/48 47/47/47 46/46/46
f 51/51/51 50/50/50 49/49/49
f 54/54/54 53/53/53 52/52/52
f 57/57/57 56/56/56 55/55/55
f 58/58/58 57/57/57 55/55/55
f 61/61/61 60/60/60 59/59/59
f 62/62/62 61/61/61 59/59/59
f 65/65/65 64/64/64 63/63/63
f 66/66/66 65/65/65 63/63/63
f 69/69/69 68/68/68 67/67/67
f 70/70/70 69/69/69 67/67/67
f 73/73/73 72/72/72 71/71/71
f 74/74/74 73/73/73 71/71/71
f 77/77/77 76/76/76 75/75/75
f 78/78/78 77/77/77 75/75/75
f 81/81/81 80/80/80 79/79/79
f 82/82/82 81/81/81 79/79/79
f 85/85/85 84/84/84 83/83/83
f 86/86/86 85/85/85 83/83/83
f 89/89/89 88/88/88 87/87/87
f 90/90/90 89/89/89 87/87/87
f 93/93/93 92/92/92 91/91/91
f 94/94/94 93/93/93 91/91/91
f 97/97/97 96/96/96 95/95/95
f 98/98/98 97/97/97 95/95/95
f 101/101/101 100/100/100 99/99/99
f 102/102/102 101/101/101 99/99/99
f 105/105/105 104/104/104 103/103/103
f 106/106/106 105/105/105 103/103/103
f 109/109/109 108/108/108 107/107/107
f 110/110/110 109/109/109 107/107/107
f 113/113/113 112/112/112 111/111/111
f 114/114/114 113/113/113 111/111/111
f 117/117/117 116/116/116 115/115/115
f 118/118/118 117/117/117 115/115/115
f 121/121/121 120/120/120 119/119/119
f 122/122/122 121/121/121 119/119/119
f 125/125/125 124/124/124 123/123/123
f 126/126/126 125/125/125 123/123/123
f 129/129/129 128/128/128 127/127/127
f 130/130/130 129/129/129 127/127/127
f 133/133/133 132/132/132 131/131/131
f 134/134/134 133/133/133 131/131/131
f 137/137/137 136/136/136 135/135/135
f 138/138/138 137/137/137 135/135/135
