g obj_battle_gear2
v -1.0467738 0.17703597 -0.07774933
v -1.0467738 0.1770359 0.17331149
v -1.1074665 0.00019625713 -0.077749245
v -1.1074663 0.00019621872 0.17331149
v -0.88021785 0.3029099 -0.077749096
v -0.53283167 0.36818743 -0.07774913
v -0.5328327 0.36818743 0.17331149
v -0.88021785 0.30290988 0.17331149
v 0.50932723 0.5640198 -0.07774894
v 0.7743224 0.4971479 -0.07774878
v 0.77432543 0.49714586 0.1733119
v 0.50932354 0.5640199 0.17331168
v 0.9856734 0.29836607 -0.07774878
v 1.0706253 0.00019625713 -0.077748865
v 0.9856734 0.29836604 0.17331173
v 1.0706253 0.00019621872 0.17331183
v 0.9856734 0.29836607 -0.07774878
v 0.9856734 0.29836604 0.17331173
v 0.77432543 0.49714586 0.1733119
v 0.7743224 0.4971479 -0.07774878
v -0.88021785 0.3029099 -0.077749096
v -0.88021785 0.30290988 0.17331149
v -1.0467738 0.1770359 0.17331149
v -1.0467738 0.17703597 -0.07774933
v -0.95516485 0.14296575 -0.07774933
v -0.82640123 0.24212356 -0.07774933
v -0.88021785 0.3029099 -0.077749096
v -1.0467738 0.17703597 -0.07774933
v -1.0030177 0.00019625713 -0.077749245
v -0.95516485 0.14296575 -0.07774933
v -1.0467738 0.17703597 -0.07774933
v -1.1074665 0.00019625713 -0.077749245
v 0.9856734 0.29836607 -0.07774878
v 0.9032112 0.25663918 -0.07774894
v 0.97103435 0.00019625713 -0.077748865
v 1.0706253 0.00019625713 -0.077748865
v 0.9032112 0.25663918 -0.07774894
v 0.7743224 0.4971479 -0.07774878
v 0.73334205 0.42811492 -0.077749014
v 0.9856734 0.29836607 -0.07774878
v 0.50932723 0.5640198 -0.07774894
v 0.73334205 0.42811492 -0.077749014
v 0.7743224 0.4971479 -0.07774878
v 0.5040298 0.49308872 -0.077749014
v 0.16194083 0.49874234 -0.077749014
v 0.5040298 0.49308872 -0.077749014
v 0.50932723 0.5640198 -0.07774894
v 0.17142187 0.43034744 -0.077749014
v -0.95516485 0.14296569 0.173672
v -0.82640123 0.24212356 0.17367204
v -0.95516485 0.14296575 -0.07774933
v -0.82640123 0.24212356 -0.07774933
v -0.82640123 0.24212356 0.17367204
v -0.49379355 0.30486485 0.17367204
v -0.49379355 0.30486485 -0.07774917
v -0.82640123 0.24212356 -0.07774933
v 0.73334205 0.4281149 0.1736723
v 0.9032115 0.25663918 0.1736723
v 0.9032112 0.25663918 -0.07774894
v 0.73334205 0.42811492 -0.077749014
v 0.9032115 0.25663918 0.1736723
v 0.97103435 0.00019621872 0.17367235
v 0.97103435 0.00019625713 -0.077748865
v 0.9032112 0.25663918 -0.07774894
v 0.73334205 0.4281149 0.1736723
v 0.5040298 0.49308872 -0.077749014
v 0.5040298 0.49308875 0.1736723
v 0.73334205 0.42811492 -0.077749014
v -0.95516485 0.14296575 -0.07774933
v -1.0030177 0.00019625713 -0.077749245
v -1.0030175 0.00019621872 0.173672
v -0.95516485 0.14296569 0.173672
v -1.1074663 0.00019621872 0.17331149
v -1.046774 -0.1766436 0.17331141
v -1.1074665 0.00019625713 -0.077749245
v -1.046774 -0.17664355 -0.07774917
v -0.53283274 -0.36779496 0.17331153
v -0.88021785 -0.3025175 -0.0777494
v -0.8802181 -0.30251753 0.17331156
v -0.5328316 -0.3677949 -0.07774933
v 0.77432543 -0.49675342 0.17331176
v 0.50932753 -0.5636273 -0.07774921
v 0.50932354 -0.5636274 0.17331173
v 0.7743224 -0.49675533 -0.07774871
v 1.0706253 0.00019625713 -0.077748865
v 0.9856738 -0.29797378 0.1733118
v 1.0706253 0.00019621872 0.17331183
v 0.9856734 -0.29797378 -0.07774894
v 0.77432543 -0.49675342 0.17331176
v 0.9856738 -0.29797378 0.1733118
v 0.9856734 -0.29797378 -0.07774894
v 0.7743224 -0.49675533 -0.07774871
v -0.8802181 -0.30251753 0.17331156
v -1.046774 -0.17664355 -0.07774917
v -1.046774 -0.1766436 0.17331141
v -0.88021785 -0.3025175 -0.0777494
v -0.88021785 -0.3025175 -0.0777494
v -0.82640123 -0.2417312 -0.0777494
v -0.95516485 -0.1425733 -0.07774928
v -1.046774 -0.17664355 -0.07774917
v -1.0030177 0.00019625713 -0.077749245
v -1.1074665 0.00019625713 -0.077749245
v -1.046774 -0.17664355 -0.07774917
v -0.95516485 -0.1425733 -0.07774928
v 1.0706253 0.00019625713 -0.077748865
v 0.97103435 0.00019625713 -0.077748865
v 0.9856734 -0.29797378 -0.07774894
v 0.9032112 -0.25624686 -0.077749014
v 0.7743224 -0.49675533 -0.07774871
v 0.9856734 -0.29797378 -0.07774894
v 0.9032112 -0.25624686 -0.077749014
v 0.73334205 -0.4277224 -0.07774894
v 0.5040298 -0.4926962 -0.07774917
v 0.50932753 -0.5636273 -0.07774921
v 0.73334205 -0.4277224 -0.07774894
v 0.7743224 -0.49675533 -0.07774871
v 0.50932753 -0.5636273 -0.07774921
v 0.5040298 -0.4926962 -0.07774917
v 0.16194098 -0.49834988 -0.07774917
v 0.17142187 -0.42995498 -0.07774917
v -0.82640123 -0.24173124 0.17367208
v -0.95516485 -0.1425733 -0.07774928
v -0.82640123 -0.2417312 -0.0777494
v -0.95516515 -0.14257333 0.17367196
v -0.49379355 -0.30447248 -0.07774933
v -0.82640123 -0.24173124 0.17367208
v -0.82640123 -0.2417312 -0.0777494
v -0.49379355 -0.30447254 0.17367212
v 0.9032115 -0.2562469 0.17367223
v 0.73334205 -0.4277224 -0.07774894
v 0.9032112 -0.25624686 -0.077749014
v 0.73334205 -0.42772242 0.17367227
v 0.97103435 0.00019625713 -0.077748865
v 0.97103435 0.00019621872 0.17367235
v 0.9032115 -0.2562469 0.17367223
v 0.9032112 -0.25624686 -0.077749014
v 0.73334205 -0.4277224 -0.07774894
v 0.73334205 -0.42772242 0.17367227
v 0.5040298 -0.4926963 0.17367215
v 0.5040298 -0.4926962 -0.07774917
v -1.0030175 0.00019621872 0.173672
v -1.0030177 0.00019625713 -0.077749245
v -0.95516485 -0.1425733 -0.07774928
v -0.95516515 -0.14257333 0.17367196
v -0.18544535 0.43346488 -0.077749014
v 0.16194083 0.49874234 -0.077749014
v 0.1619379 0.49874246 0.17331164
v -0.18544735 0.43346494 0.1733116
v -0.53283167 0.36818743 -0.07774913
v -0.49379355 0.30486485 -0.07774917
v -0.18544535 0.43346488 -0.077749014
v -0.16118585 0.36760616 -0.07774913
v -0.16118585 0.3676062 0.17367212
v 0.17142187 0.43034747 0.17367223
v 0.17142187 0.43034744 -0.077749014
v -0.16118585 0.36760616 -0.07774913
v 0.16193806 -0.49834993 0.17331176
v 0.16194098 -0.49834988 -0.07774917
v -0.18544528 -0.4330724 -0.077749245
v -0.18544735 -0.43307245 0.17331164
v -0.49379355 -0.30447248 -0.07774933
v -0.18544528 -0.4330724 -0.077749245
v -0.16118585 -0.3672137 -0.077749245
v -0.5328316 -0.3677949 -0.07774933
v 0.17142187 -0.42995498 -0.07774917
v 0.17142187 -0.429955 0.17367215
v -0.16118585 -0.36721376 0.17367208
v -0.16118585 -0.3672137 -0.077749245
v 0.16194083 0.49874234 -0.077749014
v -0.18544535 0.43346488 -0.077749014
v -0.16118585 0.36760616 -0.07774913
v 0.17142187 0.43034744 -0.077749014
v 0.16194083 0.49874234 -0.077749014
v 0.50932723 0.5640198 -0.07774894
v 0.50932354 0.5640199 0.17331168
v 0.1619379 0.49874246 0.17331164
v 0.17142187 0.43034747 0.17367223
v 0.5040298 0.49308875 0.1736723
v 0.5040298 0.49308872 -0.077749014
v 0.17142187 0.43034744 -0.077749014
v -0.16118585 -0.3672137 -0.077749245
v 0.16194098 -0.49834988 -0.07774917
v 0.17142187 -0.42995498 -0.07774917
v -0.18544528 -0.4330724 -0.077749245
v 0.50932354 -0.5636274 0.17331173
v 0.50932753 -0.5636273 -0.07774921
v 0.16194098 -0.49834988 -0.07774917
v 0.16193806 -0.49834993 0.17331176
v 0.5040298 -0.4926962 -0.07774917
v 0.5040298 -0.4926963 0.17367215
v 0.17142187 -0.429955 0.17367215
v 0.17142187 -0.42995498 -0.07774917
v -0.53283167 0.36818743 -0.07774913
v -0.18544535 0.43346488 -0.077749014
v -0.18544735 0.43346494 0.1733116
v -0.5328327 0.36818743 0.17331149
v -0.49379355 0.30486485 0.17367204
v -0.16118585 0.3676062 0.17367212
v -0.16118585 0.36760616 -0.07774913
v -0.49379355 0.30486485 -0.07774917
v -0.88021785 0.3029099 -0.077749096
v -0.82640123 0.24212356 -0.07774933
v -0.53283167 0.36818743 -0.07774913
v -0.49379355 0.30486485 -0.07774917
v -0.18544735 -0.43307245 0.17331164
v -0.18544528 -0.4330724 -0.077749245
v -0.5328316 -0.3677949 -0.07774933
v -0.53283274 -0.36779496 0.17331153
v -0.16118585 -0.3672137 -0.077749245
v -0.16118585 -0.36721376 0.17367208
v -0.49379355 -0.30447254 0.17367212
v -0.49379355 -0.30447248 -0.07774933
v -0.82640123 -0.2417312 -0.0777494
v -0.5328316 -0.3677949 -0.07774933
v -0.49379355 -0.30447248 -0.07774933
v -0.88021785 -0.3025175 -0.0777494
vt 0.14886916 2.0741804
vt 1.0564542 2.0741804
vt 0.14886916 1.0788531
vt 1.0564542 1.0788531
vt 0.14886916 1.0788531
vt 0.14886916 2.0741804
vt 1.0564542 2.0741804
vt 1.0564542 1.0788531
vt 0.14886916 1.0788531
vt 0.14886916 2.0741804
vt 1.0564542 2.0741804
vt 1.0564542 1.0788531
vt 0.14886916 1.0788531
vt 0.14886916 2.0741804
vt 1.0564542 1.0788531
vt 1.0564542 2.0741804
vt 0.14886916 2.0741804
vt 1.0564542 2.0741804
vt 1.0564542 1.0788531
vt 0.14886916 1.0788531
vt 0.14886916 2.0741804
vt 1.0564542 2.0741804
vt 1.0564542 1.0788531
vt 0.14886916 1.0788531
vt 0.14886916 1.0788531
vt 0.14886916 2.0741804
vt 0.060458776 2.0741804
vt 0.060458776 1.0788531
vt 0.14886916 1.0788531
vt 0.14886916 2.0741804
vt 0.060458776 2.0741804
vt 0.060458776 1.0788531
vt 0.060458776 1.0788531
vt 0.14886916 1.0788531
vt 0.14886916 2.0741804
vt 0.060458776 2.0741804
vt 0.14886916 2.0741804
vt 0.060458776 1.0788531
vt 0.14886916 1.0788531
vt 0.060458776 2.0741804
vt 0.060458776 1.0788531
vt 0.14886916 2.0741804
vt 0.060458776 2.0741804
vt 0.14886916 1.0788531
vt 0.060458776 1.0788531
vt 0.14886916 2.0741804
vt 0.060458776 2.0741804
vt 0.14886916 1.0788531
vt 1.0564542 1.0788531
vt 1.0564542 2.0741804
vt 0.14886916 1.0788531
vt 0.14886916 2.0741804
vt 1.0564542 1.0788531
vt 1.0564542 2.0741804
vt 0.14886916 2.0741804
vt 0.14886916 1.0788531
vt 1.0564542 1.0788531
vt 1.0564542 2.0741804
vt 0.14886916 2.0741804
vt 0.14886916 1.0788531
vt 1.0564542 1.0788531
vt 1.0564542 2.0741804
vt 0.14886916 2.0741804
vt 0.14886916 1.0788531
vt 1.0564542 2.0741804
vt 0.14886916 1.0788531
vt 1.0564542 1.0788531
vt 0.14886916 2.0741804
vt 0.14886916 2.0741804
vt 0.14886916 1.0788531
vt 1.0564542 1.0788531
vt 1.0564542 2.0741804
vt 1.0564542 2.0741804
vt 1.0564542 1.0788531
vt 0.14886916 2.0741804
vt 0.14886916 1.0788531
vt 1.0564542 1.0788531
vt 0.14886916 2.0741804
vt 1.0564542 2.0741804
vt 0.14886916 1.0788531
vt 1.0564542 1.0788531
vt 0.14886916 2.0741804
vt 1.0564542 2.0741804
vt 0.14886916 1.0788531
vt 0.14886916 1.0788531
vt 1.0564542 2.0741804
vt 1.0564542 1.0788531
vt 0.14886916 2.0741804
vt 1.0564542 1.0788531
vt 1.0564542 2.0741804
vt 0.14886916 2.0741804
vt 0.14886916 1.0788531
vt 1.0564542 1.0788531
vt 0.14886916 2.0741804
vt 1.0564542 2.0741804
vt 0.14886916 1.0788531
vt 0.060458776 1.0788531
vt 0.14886916 1.0788531
vt 0.14886916 2.0741804
vt 0.060458776 2.0741804
vt 0.14886916 2.0741804
vt 0.060458776 2.0741804
vt 0.060458776 1.0788531
vt 0.14886916 1.0788531
vt 0.060458776 1.0788531
vt 0.14886916 1.0788531
vt 0.060458776 2.0741804
vt 0.14886916 2.0741804
vt 0.14886916 1.0788531
vt 0.14886916 2.0741804
vt 0.060458776 2.0741804
vt 0.060458776 1.0788531
vt 0.14886916 2.0741804
vt 0.060458776 2.0741804
vt 0.14886916 1.0788531
vt 0.060458776 1.0788531
vt 0.060458776 1.0788531
vt 0.14886916 1.0788531
vt 0.060458776 2.0741804
vt 0.14886916 2.0741804
vt 1.0564542 1.0788531
vt 0.14886916 2.0741804
vt 0.14886916 1.0788531
vt 1.0564542 2.0741804
vt 0.14886916 1.0788531
vt 1.0564542 2.0741804
vt 0.14886916 2.0741804
vt 1.0564542 1.0788531
vt 1.0564542 2.0741804
vt 0.14886916 1.0788531
vt 0.14886916 2.0741804
vt 1.0564542 1.0788531
vt 0.14886916 1.0788531
vt 1.0564542 1.0788531
vt 1.0564542 2.0741804
vt 0.14886916 2.0741804
vt 0.14886916 1.0788531
vt 1.0564542 1.0788531
vt 1.0564542 2.0741804
vt 0.14886916 2.0741804
vt 1.0564542 2.0741804
vt 0.14886916 2.0741804
vt 0.14886916 1.0788531
vt 1.0564542 1.0788531
vt 0.14886916 1.0788531
vt 0.14886916 2.0741804
vt 1.0564542 2.0741804
vt 1.0564542 1.0788531
vt 0.060458776 1.0788531
vt 0.14886916 1.0788531
vt 0.060458776 2.0741804
vt 0.14886916 2.0741804
vt 1.0564542 1.0788531
vt 1.0564542 2.0741804
vt 0.14886916 2.0741804
vt 0.14886916 1.0788531
vt 1.0564542 1.0788531
vt 0.14886916 1.0788531
vt 0.14886916 2.0741804
vt 1.0564542 2.0741804
vt 0.14886916 2.0741804
vt 0.060458776 1.0788531
vt 0.14886916 1.0788531
vt 0.060458776 2.0741804
vt 0.14886916 1.0788531
vt 1.0564542 1.0788531
vt 1.0564542 2.0741804
vt 0.14886916 2.0741804
vt 0.060458776 2.0741804
vt 0.060458776 1.0788531
vt 0.14886916 1.0788531
vt 0.14886916 2.0741804
vt 0.14886916 1.0788531
vt 0.14886916 2.0741804
vt 1.0564542 2.0741804
vt 1.0564542 1.0788531
vt 1.0564542 1.0788531
vt 1.0564542 2.0741804
vt 0.14886916 2.0741804
vt 0.14886916 1.0788531
vt 0.14886916 2.0741804
vt 0.060458776 1.0788531
vt 0.14886916 1.0788531
vt 0.060458776 2.0741804
vt 1.0564542 1.0788531
vt 0.14886916 1.0788531
vt 0.14886916 2.0741804
vt 1.0564542 2.0741804
vt 0.14886916 1.0788531
vt 1.0564542 1.0788531
vt 1.0564542 2.0741804
vt 0.14886916 2.0741804
vt 0.14886916 1.0788531
vt 0.14886916 2.0741804
vt 1.0564542 2.0741804
vt 1.0564542 1.0788531
vt 1.0564542 1.0788531
vt 1.0564542 2.0741804
vt 0.14886916 2.0741804
vt 0.14886916 1.0788531
vt 0.060458776 1.0788531
vt 0.14886916 1.0788531
vt 0.060458776 2.0741804
vt 0.14886916 2.0741804
vt 1.0564542 1.0788531
vt 0.14886916 1.0788531
vt 0.14886916 2.0741804
vt 1.0564542 2.0741804
vt 0.14886916 1.0788531
vt 1.0564542 1.0788531
vt 1.0564542 2.0741804
vt 0.14886916 2.0741804
vt 0.14886916 2.0741804
vt 0.060458776 1.0788531
vt 0.14886916 1.0788531
vt 0.060458776 2.0741804
vn -0.9458443 0.32462054 0
vn -0.9458443 0.32462054 0
vn -0.9458443 0.32462054 0
vn -0.9458444 0.32462028 3.4612225E-07
vn -0.18467826 0.982799 -7.671939E-07
vn -0.18467827 0.982799 -7.6719397E-07
vn -0.18467826 0.982799 -7.671939E-07
vn -0.18467891 0.9827989 1.5692652E-07
vn 0.24468088 0.9696037 4.8709135E-06
vn 0.24468088 0.9696037 4.8709135E-06
vn 0.24468088 0.9696037 4.8709135E-06
vn 0.24468254 0.96960324 2.9991425E-06
vn 0.9617278 0.27400658 0
vn 0.9617278 0.27400658 0
vn 0.9617278 0.27400658 0
vn 0.9617278 0.2740066 0
vn 0.6851162 0.7284338 1.11455435E-07
vn 0.6851162 0.72843385 1.11455435E-07
vn 0.68511623 0.7284338 1.1145544E-07
vn 0.68511456 0.72843534 -2.4790306E-06
vn -0.6029299 0.79779416 1.22068E-07
vn -0.6029299 0.79779416 1.22068E-07
vn -0.60292983 0.79779416 1.2206799E-07
vn -0.6029298 0.7977943 2.4413583E-07
vn -1.7361988E-06 2.2545794E-06 -1
vn -1.7361988E-06 2.2545794E-06 -1
vn -1.7361987E-06 2.2545796E-06 -1
vn 4.5639564E-07 1.2271692E-06 -1
vn -1.7795163E-07 -4.784812E-07 -1
vn -1.7795163E-07 -4.784812E-07 -1
vn -1.7795163E-07 -4.7848124E-07 -1
vn -0 -4.3444993E-07 -1
vn 1.7771176E-06 1.704149E-07 -1
vn 1.7771174E-06 1.704149E-07 -1
vn 1.7771176E-06 1.704149E-07 -1
vn -0 2.5766525E-07 -1
vn 2.3902514E-06 1.9198167E-06 -1
vn 2.3902514E-06 1.9198167E-06 -1
vn 2.3902517E-06 1.9198167E-06 -1
vn 1.2115344E-06 1.2881413E-06 -1
vn 1.2370656E-06 2.604388E-06 -1
vn 1.2370657E-06 2.6043883E-06 -1
vn 1.2370657E-06 2.6043883E-06 -1
vn 3.005382E-07 1.0606906E-06 -1
vn -0 1.0818009E-06 -1
vn -0 1.0818009E-06 -1
vn -0 1.0818009E-06 -1
vn -0 0 -1
vn 0.61013186 -0.79229987 -1.8158009E-07
vn 0.61013186 -0.79229987 -1.815801E-07
vn 0.61013186 -0.79229987 -1.815801E-07
vn 0.6101316 -0.79230005 0
vn 0.18536538 -0.9826697 0
vn 0.18536538 -0.9826697 0
vn 0.18536536 -0.9826697 0
vn 0.18536538 -0.9826697 0
vn -0.71042633 -0.7037716 8.669066E-07
vn -0.71042633 -0.7037716 8.669066E-07
vn -0.71042633 -0.7037716 8.6690665E-07
vn -0.710427 -0.7037709 -1.0198906E-07
vn -0.9667603 -0.25568423 0
vn -0.9667603 -0.25568423 0
vn -0.9667603 -0.25568423 0
vn -0.96676004 -0.25568536 1.1832464E-06
vn -0.27261057 -0.9621244 1.549288E-07
vn -0.2726106 -0.9621244 1.5492878E-07
vn -0.27261057 -0.9621244 1.5492878E-07
vn -0.27261028 -0.9621245 -1.4700048E-07
vn 0.9481581 -0.31779894 -3.269733E-07
vn 0.9481581 -0.31779897 -3.2697332E-07
vn 0.9481581 -0.31779897 -3.2697332E-07
vn 0.9481582 -0.31779855 0
vn -0.9458448 -0.32461897 2.3977248E-07
vn -0.9458448 -0.32461897 2.3977248E-07
vn -0.9458448 -0.3246189 2.3977248E-07
vn -0.9458447 -0.32461926 0
vn -0.18467845 -0.982799 -3.138524E-07
vn -0.18467845 -0.982799 -3.1385244E-07
vn -0.18467844 -0.982799 -3.138524E-07
vn -0.1846779 -0.9827991 -1.1202018E-06
vn 0.24468227 -0.96960336 3.450138E-06
vn 0.24468227 -0.96960336 3.4501375E-06
vn 0.24468224 -0.96960336 3.4501375E-06
vn 0.24468137 -0.9696036 4.4227686E-06
vn 0.9617281 -0.27400553 0
vn 0.9617281 -0.27400553 0
vn 0.9617281 -0.27400553 0
vn 0.96172786 -0.2740065 -1.1728446E-06
vn 0.68511534 -0.72843456 -8.496734E-07
vn 0.68511534 -0.72843456 -8.496733E-07
vn 0.68511534 -0.72843456 -8.496734E-07
vn 0.6851141 -0.72843575 -2.8038928E-06
vn -0.60292983 -0.7977943 -1.18084095E-07
vn -0.6029298 -0.7977943 -1.1808408E-07
vn -0.6029298 -0.7977943 -1.18084074E-07
vn -0.60292935 -0.79779464 -6.7558113E-07
vn -5.321673E-07 4.7114983E-07 -1
vn -5.3216735E-07 4.7114983E-07 -1
vn -5.321673E-07 4.7114983E-07 -1
vn -1.2994799E-06 1.116011E-07 -1
vn -0 -4.344497E-07 -1
vn -0 -4.3444967E-07 -1
vn -0 -4.3444967E-07 -1
vn -1.2075187E-06 -1.356671E-07 -1
vn -0 2.5766505E-07 -1
vn -0 2.5766505E-07 -1
vn -0 2.5766505E-07 -1
vn 1.0891139E-06 3.111368E-07 -1
vn 2.2429117E-07 -1.3979575E-06 -1
vn 2.2429118E-07 -1.3979575E-06 -1
vn 2.2429118E-07 -1.3979575E-06 -1
vn 1.8246373E-06 -2.255585E-06 -1
vn 8.3401136E-07 6.0385895E-07 -1
vn 8.3401125E-07 6.0385895E-07 -1
vn 8.3401125E-07 6.038589E-07 -1
vn 2.37174E-06 -1.9308059E-06 -1
vn -0 5.409001E-07 -1
vn -0 5.409001E-07 -1
vn -0 5.4090015E-07 -1
vn -0 0 -1
vn 0.6101321 0.79229975 1.2105332E-07
vn 0.61013216 0.79229975 1.2105333E-07
vn 0.61013204 0.79229975 1.2105332E-07
vn 0.61013114 0.79230046 8.6681626E-07
vn 0.18536532 0.9826697 1.4545942E-07
vn 0.1853653 0.9826697 1.4545941E-07
vn 0.1853653 0.9826697 1.4545941E-07
vn 0.18536544 0.9826697 3.0027886E-07
vn -0.71042657 0.70377135 9.758812E-07
vn -0.71042657 0.7037714 9.758813E-07
vn -0.71042657 0.7037714 9.758812E-07
vn -0.710426 0.70377195 1.0198911E-07
vn -0.9667604 0.25568414 0
vn -0.9667604 0.2556841 0
vn -0.9667604 0.2556841 0
vn -0.96676004 0.25568518 1.2207357E-06
vn -0.27261057 0.9621244 1.470005E-07
vn -0.2726106 0.9621244 1.4700052E-07
vn -0.27261057 0.9621244 1.470005E-07
vn -0.2726105 0.9621245 2.9400098E-07
vn 0.9481581 0.31779882 -2.411775E-07
vn 0.9481581 0.31779882 -2.4117753E-07
vn 0.9481581 0.31779885 -2.4117753E-07
vn 0.948159 0.3177966 1.2074894E-06
vn -0.18467808 0.9827991 -2.597998E-06
vn -0.18467811 0.9827991 -2.5979982E-06
vn -0.18467808 0.9827991 -2.5979978E-06
vn -0.18467878 0.982799 -1.6215737E-06
vn 1.951402E-07 7.269428E-07 -1
vn 1.951402E-07 7.269428E-07 -1
vn 1.9514019E-07 7.269428E-07 -1
vn -2.0064451E-07 1.6759275E-06 -1
vn 0.1853654 -0.9826697 1.6364201E-07
vn 0.18536538 -0.9826697 1.63642E-07
vn 0.1853654 -0.9826697 1.6364204E-07
vn 0.18536538 -0.9826697 1.63642E-07
vn -0.1846782 -0.9827991 -2.4482813E-06
vn -0.1846782 -0.9827991 -2.4482815E-06
vn -0.18467818 -0.9827991 -2.4482813E-06
vn -0.18467858 -0.982799 -1.8266312E-06
vn 2.1597961E-07 0 -1
vn 2.159796E-07 0 -1
vn 2.1597961E-07 0 -1
vn 1.9819949E-07 -1.2218936E-07 -1
vn 0.18536526 0.9826697 1.501395E-07
vn 0.18536527 0.9826697 1.501395E-07
vn 0.1853653 0.9826697 1.5013951E-07
vn 0.18536536 0.9826697 3.0027897E-07
vn -3.0752597E-07 1.6365573E-06 -1
vn -3.0752597E-07 1.6365573E-06 -1
vn -3.0752597E-07 1.6365573E-06 -1
vn 3.3765104E-07 0 -1
vn -0.18467799 0.9827991 -3.3128817E-06
vn -0.18467799 0.9827991 -3.3128817E-06
vn -0.18467796 0.9827991 -3.3128817E-06
vn -0.18467847 0.982799 -2.5980019E-06
vn 0.18536526 -0.9826697 1.4545942E-07
vn 0.18536527 -0.9826697 1.4545942E-07
vn 0.18536527 -0.9826697 1.4545942E-07
vn 0.18536526 -0.9826697 1.4545945E-07
vn 2.2510079E-07 0 -1
vn 2.251008E-07 0 -1
vn 2.2510079E-07 0 -1
vn 2.0684294E-07 0 -1
vn -0.18467787 -0.9827991 -3.3898475E-06
vn -0.18467787 -0.9827991 -3.3898475E-06
vn -0.18467788 -0.9827991 -3.3898475E-06
vn -0.18467857 -0.982799 -2.4482856E-06
vn 0.18536524 0.9826697 3.0027903E-07
vn 0.18536524 0.9826697 3.0027903E-07
vn 0.18536524 0.9826697 3.0027903E-07
vn 0.18536513 0.9826697 1.5013951E-07
vn -0.18467802 0.9827991 -1.621569E-06
vn -0.18467802 0.9827991 -1.621569E-06
vn -0.18467802 0.9827991 -1.621569E-06
vn -0.18467863 0.982799 -7.6719607E-07
vn 0.18536562 -0.9826697 1.4545954E-07
vn 0.18536559 -0.9826697 1.4545955E-07
vn 0.18536559 -0.9826697 1.4545954E-07
vn 0.1853655 -0.9826697 0
vn -7.056812E-07 3.1669385E-06 -1
vn -7.0568115E-07 3.1669383E-06 -1
vn -7.0568115E-07 3.1669383E-06 -1
vn 3.113347E-07 7.985763E-07 -1
vn -0.18467814 -0.9827991 -1.8266275E-06
vn -0.18467812 -0.9827991 -1.8266273E-06
vn -0.18467814 -0.9827991 -1.8266272E-06
vn -0.18467864 -0.982799 -1.1202048E-06
vn 0.1853652 0.9826697 3.0027903E-07
vn 0.1853652 0.9826697 3.00279E-07
vn 0.1853652 0.9826697 3.00279E-07
vn 0.18536521 0.9826697 3.0027886E-07
vn 2.0692322E-07 -1.275675E-07 -1
vn 2.0692322E-07 -1.2756752E-07 -1
vn 2.0692322E-07 -1.275675E-07 -1
vn 1.8961497E-07 -1.6787399E-07 -1
g obj_battle_gear2_0
f 3/3/3 2/2/2 1/1/1
f 3/3/3 4/4/4 2/2/2
f 7/7/7 6/6/6 5/5/5
f 5/5/5 8/8/8 7/7/7
f 11/11/11 10/10/10 9/9/9
f 9/9/9 12/12/12 11/11/11
f 15/15/15 14/14/14 13/13/13
f 16/16/16 14/14/14 15/15/15
f 19/19/19 18/18/18 17/17/17
f 17/17/17 20/20/20 19/19/19
f 23/23/23 22/22/22 21/21/21
f 21/21/21 24/24/24 23/23/23
f 27/27/27 26/26/26 25/25/25
f 25/25/25 28/28/28 27/27/27
f 31/31/31 30/30/30 29/29/29
f 29/29/29 32/32/32 31/31/31
f 35/35/35 34/34/34 33/33/33
f 33/33/33 36/36/36 35/35/35
f 39/39/39 38/38/38 37/37/37
f 38/38/38 40/40/40 37/37/37
f 43/43/43 42/42/42 41/41/41
f 42/42/42 44/44/44 41/41/41
f 47/47/47 46/46/46 45/45/45
f 46/46/46 48/48/48 45/45/45
f 51/51/51 50/50/50 49/49/49
f 51/51/51 52/52/52 50/50/50
f 55/55/55 54/54/54 53/53/53
f 53/53/53 56/56/56 55/55/55
f 59/59/59 58/58/58 57/57/57
f 57/57/57 60/60/60 59/59/59
f 63/63/63 62/62/62 61/61/61
f 61/61/61 64/64/64 63/63/63
f 67/67/67 66/66/66 65/65/65
f 66/66/66 68/68/68 65/65/65
f 71/71/71 70/70/70 69/69/69
f 69/69/69 72/72/72 71/71/71
f 75/75/75 74/74/74 73/73/73
f 76/76/76 74/74/74 75/75/75
f 79/79/79 78/78/78 77/77/77
f 78/78/78 80/80/80 77/77/77
f 83/83/83 82/82/82 81/81/81
f 82/82/82 84/84/84 81/81/81
f 87/87/87 86/86/86 85/85/85
f 86/86/86 88/88/88 85/85/85
f 91/91/91 90/90/90 89/89/89
f 89/89/89 92/92/92 91/91/91
f 95/95/95 94/94/94 93/93/93
f 94/94/94 96/96/96 93/93/93
f 99/99/99 98/98/98 97/97/97
f 97/97/97 100/100/100 99/99/99
f 103/103/103 102/102/102 101/101/101
f 101/101/101 104/104/104 103/103/103
f 107/107/107 106/106/106 105/105/105
f 107/107/107 108/108/108 106/106/106
f 111/111/111 110/110/110 109/109/109
f 109/109/109 112/112/112 111/111/111
f 115/115/115 114/114/114 113/113/113
f 116/116/116 114/114/114 115/115/115
f 119/119/119 118/118/118 117/117/117
f 118/118/118 119/119/119 120/120/120
f 123/123/123 122/122/122 121/121/121
f 124/124/124 121/121/121 122/122/122
f 127/127/127 126/126/126 125/125/125
f 126/126/126 128/128/128 125/125/125
f 131/131/131 130/130/130 129/129/129
f 130/130/130 132/132/132 129/129/129
f 135/135/135 134/134/134 133/133/133
f 133/133/133 136/136/136 135/135/135
f 139/139/139 138/138/138 137/137/137
f 137/137/137 140/140/140 139/139/139
f 143/143/143 142/142/142 141/141/141
f 141/141/141 144/144/144 143/143/143
f 147/147/147 146/146/146 145/145/145
f 145/145/145 148/148/148 147/147/147
f 151/151/151 150/150/150 149/149/149
f 151/151/151 152/152/152 150/150/150
f 155/155/155 154/154/154 153/153/153
f 153/153/153 156/156/156 155/155/155
f 159/159/159 158/158/158 157/157/157
f 157/157/157 160/160/160 159/159/159
f 163/163/163 162/162/162 161/161/161
f 164/164/164 161/161/161 162/162/162
f 167/167/167 166/166/166 165/165/165
f 165/165/165 168/168/168 167/167/167
f 171/171/171 170/170/170 169/169/169
f 169/169/169 172/172/172 171/171/171
f 175/175/175 174/174/174 173/173/173
f 173/173/173 176/176/176 175/175/175
f 179/179/179 178/178/178 177/177/177
f 177/177/177 180/180/180 179/179/179
f 183/183/183 182/182/182 181/181/181
f 184/184/184 181/181/181 182/182/182
f 187/187/187 186/186/186 185/185/185
f 185/185/185 188/188/188 187/187/187
f 191/191/191 190/190/190 189/189/189
f 189/189/189 192/192/192 191/191/191
f 195/195/195 194/194/194 193/193/193
f 193/193/193 196/196/196 195/195/195
f 199/199/199 198/198/198 197/197/197
f 197/197/197 200/200/200 199/199/199
f 203/203/203 202/202/202 201/201/201
f 203/203/203 204/204/204 202/202/202
f 207/207/207 206/206/206 205/205/205
f 205/205/205 208/208/208 207/207/207
f 211/211/211 210/210/210 209/209/209
f 209/209/209 212/212/212 211/211/211
f 215/215/215 214/214/214 213/213/213
f 216/216/216 213/213/213 214/214/214
