g obj_roof1_14
v 1.007027 -0.004138878 -1.5041044
v 1.007027 0.93324786 -1.504105
v -0.29958972 -0.0041390317 -1.5041034
v 1.007027 -0.004138878 -1.5041044
v 2.3136425 -0.0041387244 -1.5041034
v 1.007027 0.93324786 -1.504105
v 1.0983186 0.95532304 -1.5384223
v 1.0597589 1.0542873 -1.5384225
v 1.0069902 1.0542885 -1.5384225
v 0.9542214 1.0542873 -1.5384225
v 0.9156617 0.95532304 -1.5384223
v 2.5174901 -0.0041373414 -1.5134554
v 2.4715476 -0.002546541 -1.5384212
v 2.40317 -0.072586484 -1.5384212
v -0.4575673 -0.002546541 -1.5384218
v -0.5035098 -0.0041373414 -1.513456
v -0.38918975 -0.072586484 -1.5384218
v 1.007027 -0.001565601 -1.5234066
v 2.386371 -0.001565601 -1.523407
v 2.2224228 0.11836045 -1.523407
v 1.007027 0.118360296 -1.5234066
v 2.2224228 0.1264088 -1.5041034
v 1.007027 0.12640865 -1.5041034
v 1.007027 -0.001565601 -1.5234066
v -0.20836721 0.11836015 -1.5234066
v -0.37231696 -0.0015657546 -1.5234063
v 1.007027 0.118360296 -1.5234066
v 1.007027 0.12640865 -1.5041034
v -0.20836721 0.12640865 -1.5041031
v 1.0753989 0.9221084 -1.501699
v 1.0536733 0.10565525 -1.5149734
v 1.075399 0.10565525 -1.501699
v 1.0536733 0.9221084 -1.514974
v 0.96038073 0.10565525 -1.514974
v 0.9603806 0.92211485 -1.514974
v 0.9386553 0.10565525 -1.5016984
v 0.9386553 0.92211485 -1.501699
v 1.219351 0.10565525 -1.5016987
v 1.6456592 0.5029954 -1.5016983
v 1.6176165 0.5029954 -1.5073749
v 1.1913085 0.10565525 -1.5073751
v 1.5211058 0.56595594 -1.5073749
v 1.0351313 0.10565525 -1.5073744
v 1.499265 0.56595594 -1.5016983
v 1.0132904 0.10565525 -1.5016981
v 0.3707598 0.5029954 -1.5073746
v 0.3427171 0.5029954 -1.5016979
v 0.76902527 0.10565525 -1.5016987
v 0.79706776 0.10565525 -1.5073751
v 0.46727052 0.56595594 -1.5073746
v 0.953245 0.10565525 -1.5073744
v 0.48911133 0.56595594 -1.5016979
v 0.9750859 0.10565525 -1.5016981
v 1.0069902 1.0542885 -1.5384225
v 1.0069902 0.8708291 -1.5384223
v 1.0983186 0.95532304 -1.5384223
v 2.382484 -0.058608703 -1.5384212
v 2.4715476 -0.002546541 -1.5384212
v 2.40317 -0.072586484 -1.5384212
v 0.9156617 0.95532304 -1.5384223
v 1.0069902 1.0542885 -1.5384225
v -0.36850366 -0.058608703 -1.5384218
v -0.4575673 -0.002546541 -1.5384218
v -0.38918975 -0.072586484 -1.5384218
v 2.2929533 0.009873167 -1.4820361
v 1.0069902 0.8708291 -1.5384223
v 1.007 0.88180846 -1.4820367
v 2.382484 -0.058608703 -1.5384212
v 2.313617 -0.0041378024 -1.4820361
v 2.40317 -0.072586484 -1.5384212
v 1.007 0.88180846 -1.4820367
v 1.0069902 0.8708291 -1.5384223
v -0.27895325 0.009873167 -1.4820367
v -0.36850366 -0.058608703 -1.5384218
v -0.2996169 -0.0041378024 -1.4820367
v -0.38918975 -0.072586484 -1.5384218
v 2.5174901 -0.0041373414 -1.5134554
v 1.1166445 0.9722774 0.5305117
v 1.1166445 0.9722774 -1.5134566
v 2.5174901 -0.0041371877 0.53051263
v 1.1166445 0.9722774 0.5554775
v 2.5174901 -0.0041371877 0.55547845
v -0.5035098 -0.0041373414 -1.513456
v 0.8973358 0.9722774 -1.5134566
v 0.8973358 0.9722774 0.5305117
v -0.5035098 -0.0041371877 0.53051233
v 0.8973358 0.9722774 0.5554775
v -0.5035098 -0.0041371877 0.55547816
v 1.1166445 0.9722774 -1.5134566
v 1.0771556 1.0792524 0.53051174
v 1.0771556 1.0792527 -1.5134568
v 1.1166445 0.9722774 0.5305117
v 1.1166445 0.9722774 0.5554775
v 1.0771556 1.0792524 0.5554775
v 0.9368247 1.0792524 0.53051174
v 0.8973358 0.9722774 -1.5134566
v 0.9368247 1.0792527 -1.5134568
v 0.8973358 0.9722774 0.5305117
v 0.8973358 0.9722774 0.5554775
v 0.9368247 1.0792524 0.5554775
v 0.9368247 1.0792524 0.53051174
v 0.9368247 1.0792527 -1.5134568
v 1.0069902 1.0792543 -1.5134568
v 1.0069902 1.0792539 0.53051174
v 1.0771556 1.0792527 -1.5134568
v 1.0771556 1.0792524 0.53051174
v 1.0771556 1.0792524 0.5554775
v 1.0069902 1.0792539 0.5554775
v 0.9368247 1.0792524 0.5554775
v 1.0597589 1.0542873 -1.5384225
v 1.0771556 1.0792527 -1.5134568
v 1.0069902 1.0792543 -1.5134568
v 1.0069902 1.0542885 -1.5384225
v 0.9542214 1.0542873 -1.5384225
v 0.9368247 1.0792527 -1.5134568
v 1.0771556 1.0792527 -1.5134568
v 1.0597589 1.0542873 -1.5384225
v 1.1166445 0.9722774 -1.5134566
v 1.0983186 0.95532304 -1.5384223
v 1.1166445 0.9722774 -1.5134566
v 1.0983186 0.95532304 -1.5384223
v 2.4715476 -0.002546541 -1.5384212
v 2.5174901 -0.0041373414 -1.5134554
v -0.5035098 -0.0041373414 -1.513456
v -0.4575673 -0.002546541 -1.5384218
v 0.8973358 0.9722774 -1.5134566
v 0.9156617 0.95532304 -1.5384223
v 0.8973358 0.9722774 -1.5134566
v 0.9156617 0.95532304 -1.5384223
v 0.9542214 1.0542873 -1.5384225
v 0.9368247 1.0792527 -1.5134568
vt 0.16158031 0.95280313
vt 0.10956283 0.9662566
vt 0.10956283 0.95280313
vt 0.16158031 0.95280313
vt 0.10956283 0.95280313
vt 0.10956283 0.9662566
vt 0.09254716 0.4454705
vt 0.09505643 0.4454705
vt 0.09673928 0.4454705
vt 0.0984333 0.4454705
vt 0.10093476 0.4454705
vt 0.060943294 0.4454705
vt 0.061664958 0.4454705
vt 0.061161418 0.44251812
vt 0.12906988 0.4454705
vt 0.12972815 0.4454705
vt 0.12952842 0.44252217
vt 0.459461 0.768371
vt 0.4446754 0.76837087
vt 0.4446754 0.78052795
vt 0.459461 0.78052807
vt 0.4446754 0.78692794
vt 0.459461 0.78692806
vt 0.459461 0.768371
vt 0.4446754 0.78052807
vt 0.4446754 0.768371
vt 0.459461 0.78052807
vt 0.459461 0.78692806
vt 0.4446754 0.78692806
vt 0.44161147 0.8434125
vt 0.44369495 0.7880502
vt 0.44161147 0.7880502
vt 0.44369495 0.8434125
vt 0.46040022 0.7880502
vt 0.46040022 0.8434125
vt 0.46250227 0.7880502
vt 0.46250227 0.8434125
vt 0.44161147 0.7880502
vt 0.44161147 0.8434125
vt 0.44369495 0.8434125
vt 0.44369495 0.7880502
vt 0.46040022 0.8434125
vt 0.46040022 0.7880502
vt 0.46250227 0.8434125
vt 0.46250227 0.7880502
vt 0.44369495 0.8434125
vt 0.44161147 0.8434125
vt 0.44161147 0.7880502
vt 0.44369495 0.7880502
vt 0.46040022 0.8434125
vt 0.46040022 0.7880502
vt 0.46250227 0.8434125
vt 0.46250227 0.7880502
vt 0.09673928 0.4454705
vt 0.09674047 0.44252515
vt 0.09254716 0.4454705
vt 0.06170251 0.44252515
vt 0.061664958 0.4454705
vt 0.061161418 0.44251812
vt 0.10093476 0.4454705
vt 0.09673928 0.4454705
vt 0.12902899 0.44252515
vt 0.12906988 0.4454705
vt 0.12952842 0.44252217
vt 0.061738003 0.4411199
vt 0.09674047 0.44252515
vt 0.09674047 0.4411199
vt 0.06170251 0.44252515
vt 0.061175544 0.4411199
vt 0.061175544 0.44252515
vt 0.09674047 0.4411199
vt 0.09674047 0.44252515
vt 0.12899627 0.4411199
vt 0.12902899 0.44252515
vt 0.12951459 0.4411199
vt 0.12951459 0.44252515
vt 0.0011533895 0.4486052
vt 0.08383553 0.5707781
vt 0.08383553 0.4486052
vt 0.0011533895 0.5707781
vt 0.08383553 0.5726841
vt 0.0011533895 0.5726841
vt 0.18492635 0.4486052
vt 0.10181235 0.4486052
vt 0.10181235 0.5707781
vt 0.18492635 0.5707781
vt 0.10181235 0.5726841
vt 0.18492635 0.5726841
vt 0.08383553 0.4486052
vt 0.090059236 0.5707781
vt 0.090059236 0.4486052
vt 0.08383553 0.5707781
vt 0.08383553 0.5726841
vt 0.090059236 0.5726841
vt 0.096748896 0.5707781
vt 0.10181235 0.4486052
vt 0.096748896 0.4486052
vt 0.10181235 0.5707781
vt 0.10181235 0.5726841
vt 0.096748896 0.5726841
vt 0.096748896 0.5707781
vt 0.096748896 0.4486052
vt 0.093132064 0.4486052
vt 0.093132064 0.5707781
vt 0.090059236 0.4486052
vt 0.090059236 0.5707781
vt 0.090059236 0.5726841
vt 0.093132064 0.5726841
vt 0.096748896 0.5726841
vt 0.090059236 0.57268363
vt 0.090059236 0.5707781
vt 0.093132064 0.5707781
vt 0.093132064 0.57268363
vt 0.096748896 0.57268363
vt 0.096748896 0.5707781
vt 0.090059236 0.5707781
vt 0.090059236 0.57268363
vt 0.08383553 0.5707781
vt 0.08383553 0.57268363
vt 0.08383553 0.5707781
vt 0.08383553 0.57268363
vt 0.0011533895 0.57268363
vt 0.0011533895 0.5707781
vt 0.18492635 0.5707781
vt 0.18492635 0.57268363
vt 0.10181235 0.5707781
vt 0.10181235 0.57268363
vt 0.10181235 0.5707781
vt 0.10181235 0.57268363
vt 0.096748896 0.57268363
vt 0.096748896 0.5707781
vn -0 -6.5567826E-07 -1
vn -0 -6.5567826E-07 -1
vn -7.055902E-07 -6.5567826E-07 -1
vn -0 -6.5567826E-07 -1
vn 7.0559105E-07 -6.5567826E-07 -1
vn -0 -6.5567826E-07 -1
vn -0 -1.5526549E-06 -1
vn -0 -1.5526549E-06 -1
vn -0 -1.5526549E-06 -1
vn -0 -1.5526549E-06 -1
vn -0 -1.5526549E-06 -1
vn 0.42362472 -0.4135699 -0.8059169
vn 0.42362472 -0.41356993 -0.8059169
vn 0.42362466 -0.4135699 -0.8059169
vn -0.42362466 -0.4135699 -0.8059169
vn -0.42362463 -0.41356984 -0.8059169
vn -0.42362466 -0.41356984 -0.8059169
vn -1.7765478E-07 -6.811066E-07 -1
vn -2.368731E-07 -1.6191203E-07 -1
vn -2.4862905E-07 0.42201862 -0.90658724
vn -1.8852973E-07 0.5546021 -0.83211565
vn -1.6526059E-07 0.9229871 -0.38483086
vn -1.3610216E-07 0.9229864 -0.3848324
vn -1.7765478E-07 -6.811066E-07 -1
vn -1.3543124E-07 0.42201635 -0.9065882
vn -1.1843647E-07 -1.2003011E-06 -1
vn -1.8852973E-07 0.5546021 -0.83211565
vn -1.3610216E-07 0.9229864 -0.3848324
vn -1.0694378E-07 0.9229858 -0.38483393
vn 0.52138877 -2.7230416E-07 -0.85331917
vn 0.270816 -3.3694144E-07 -0.9626312
vn 0.5213888 -2.7230416E-07 -0.85331917
vn 0.2708099 -3.3694258E-07 -0.96263283
vn -0.27082568 -3.8776201E-07 -0.9626284
vn -0.27083167 -3.8776193E-07 -0.9626267
vn -0.52141184 -3.7014368E-07 -0.8533052
vn -0.52141184 -3.7014377E-07 -0.8533052
vn 0.1940529 -0.20819987 -0.95864296
vn 0.19405289 -0.2081999 -0.95864296
vn 0.12556158 -0.13471563 -0.98289675
vn 0.04769025 -0.051167555 -0.9975508
vn -0.075148806 0.07933953 -0.994011
vn -0.18603778 0.19641338 -0.9627106
vn -0.24311839 0.25667766 -0.9354197
vn -0.24311836 0.25667766 -0.9354197
vn -0.1255617 -0.13471502 -0.98289675
vn -0.19405296 -0.20819926 -0.9586431
vn -0.194053 -0.20819928 -0.9586431
vn -0.04769037 -0.051166963 -0.9975508
vn 0.07514872 0.07934015 -0.994011
vn 0.1860377 0.19641398 -0.9627105
vn 0.24311833 0.25667828 -0.93541956
vn 0.24311836 0.25667828 -0.93541956
vn 7.7487E-07 -8.375476E-07 -1
vn 7.7486993E-07 -8.375476E-07 -1
vn 7.7486993E-07 -8.375476E-07 -1
vn 5.164665E-07 -5.582425E-07 -1
vn 4.2461707E-07 -6.745716E-07 -1
vn -0 0 -1
vn -2.1230855E-07 -3.372858E-07 -1
vn -7.7487E-07 -8.375476E-07 -1
vn -2.1230855E-07 -3.372858E-07 -1
vn -2.1230854E-07 -3.372858E-07 -1
vn -0 0 -1
vn -0.55404574 -0.8171212 0.1592052
vn -0.55404574 -0.8171212 0.1592052
vn -0.55404574 -0.8171212 0.1592052
vn -0.55606335 -0.8229293 0.11653746
vn -0.5561068 -0.8229975 0.11584575
vn -0.5561068 -0.8229976 0.11584576
vn 0.55406266 -0.81714636 0.15901709
vn 0.5560759 -0.8229478 0.116346225
vn 0.55607593 -0.8229478 0.11634623
vn 0.55607593 -0.8229478 0.11634623
vn 0.5575972 -0.82235557 0.11321077
vn 0.55611926 -0.823016 0.11565434
vn 0.57181937 0.82037956 0
vn 0.57181937 0.82037956 0
vn 0.57181937 0.82037956 0
vn 0.57181937 0.82037956 0
vn 0.57181937 0.82037956 0
vn 0.57181937 0.82037956 0
vn -0.57181937 0.82037956 0
vn -0.57181937 0.82037956 0
vn -0.57181937 0.82037956 0
vn -0.57181937 0.82037956 0
vn -0.57181937 0.82037956 0
vn -0.57181937 0.82037956 0
vn 0.93812406 0.34629926 0
vn 0.93812406 0.34629923 0
vn 0.93812406 0.34629926 0
vn 0.93812406 0.34629926 0
vn 0.938124 0.34629977 0
vn 0.938124 0.34629977 0
vn -0.93812406 0.34629932 0
vn -0.93812406 0.34629932 0
vn -0.93812406 0.34629932 0
vn -0.93812406 0.34629932 0
vn -0.938124 0.34629977 0
vn -0.938124 0.34629977 0
vn -2.1899088E-05 1 1.5035066E-07
vn -2.1899088E-05 1 1.5035066E-07
vn 2.1899088E-05 1 1.5035066E-07
vn 2.1899088E-05 1 1.5035066E-07
vn 2.1899088E-05 1 1.5035066E-07
vn 2.1899088E-05 1 1.5035066E-07
vn 2.1899088E-05 1 0
vn 2.1899086E-05 1 0
vn -2.1899086E-05 1 0
vn 1.6454429E-05 0.70710677 -0.70710677
vn 1.5478146E-05 0.7071057 -0.7071078
vn 1.6454429E-05 0.70710677 -0.70710677
vn 1.6454429E-05 0.70710677 -0.70710677
vn -1.5484971E-05 0.7071057 -0.7071078
vn -1.5484971E-05 0.7071057 -0.7071078
vn 0.66335315 0.2448689 -0.707108
vn 0.66335315 0.24486892 -0.707108
vn 0.6633532 0.2448689 -0.707108
vn 0.68213725 0.2657821 -0.68121123
vn 0.40922916 0.5866816 -0.69881064
vn 0.40922907 0.58668154 -0.69881064
vn 0.40922907 0.58668154 -0.69881064
vn 0.4043371 0.58009475 -0.70710784
vn -0.40433702 0.5800951 -0.7071076
vn -0.40433702 0.58009505 -0.70710766
vn -0.40433702 0.58009505 -0.70710766
vn -0.40922895 0.58668166 -0.69881064
vn -0.68213725 0.2657821 -0.68121123
vn -0.68213725 0.2657821 -0.68121123
vn -0.68213725 0.2657821 -0.68121123
vn -0.66335315 0.2448689 -0.707108
g obj_roof1_14_0
f 3/3/3 2/2/2 1/1/1
f 6/6/6 5/5/5 4/4/4
f 9/9/9 8/8/8 7/7/7
f 11/11/11 10/10/10 9/9/9
f 14/14/14 13/13/13 12/12/12
f 17/17/17 16/16/16 15/15/15
f 20/20/20 19/19/19 18/18/18
f 18/18/18 21/21/21 20/20/20
f 22/22/22 20/20/20 21/21/21
f 21/21/21 23/23/23 22/22/22
f 26/26/26 25/25/25 24/24/24
f 27/27/27 24/24/24 25/25/25
f 28/28/28 27/27/27 25/25/25
f 25/25/25 29/29/29 28/28/28
f 32/32/32 31/31/31 30/30/30
f 33/33/33 30/30/30 31/31/31
f 31/31/31 34/34/34 33/33/33
f 35/35/35 33/33/33 34/34/34
f 35/35/35 34/34/34 36/36/36
f 36/36/36 37/37/37 35/35/35
f 40/40/40 39/39/39 38/38/38
f 38/38/38 41/41/41 40/40/40
f 42/42/42 40/40/40 41/41/41
f 41/41/41 43/43/43 42/42/42
f 43/43/43 44/44/44 42/42/42
f 44/44/44 43/43/43 45/45/45
f 48/48/48 47/47/47 46/46/46
f 46/46/46 49/49/49 48/48/48
f 49/49/49 46/46/46 50/50/50
f 50/50/50 51/51/51 49/49/49
f 50/50/50 52/52/52 51/51/51
f 53/53/53 51/51/51 52/52/52
f 56/56/56 55/55/55 54/54/54
f 55/55/55 56/56/56 57/57/57
f 56/56/56 58/58/58 57/57/57
f 58/58/58 59/59/59 57/57/57
f 61/61/61 55/55/55 60/60/60
f 62/62/62 60/60/60 55/55/55
f 60/60/60 62/62/62 63/63/63
f 63/63/63 62/62/62 64/64/64
f 67/67/67 66/66/66 65/65/65
f 68/68/68 65/65/65 66/66/66
f 68/68/68 69/69/69 65/65/65
f 69/69/69 68/68/68 70/70/70
f 73/73/73 72/72/72 71/71/71
f 72/72/72 73/73/73 74/74/74
f 74/74/74 73/73/73 75/75/75
f 75/75/75 76/76/76 74/74/74
f 79/79/79 78/78/78 77/77/77
f 78/78/78 80/80/80 77/77/77
f 80/80/80 78/78/78 81/81/81
f 81/81/81 82/82/82 80/80/80
f 85/85/85 84/84/84 83/83/83
f 86/86/86 85/85/85 83/83/83
f 86/86/86 87/87/87 85/85/85
f 87/87/87 86/86/86 88/88/88
f 91/91/91 90/90/90 89/89/89
f 90/90/90 92/92/92 89/89/89
f 93/93/93 92/92/92 90/90/90
f 93/93/93 90/90/90 94/94/94
f 97/97/97 96/96/96 95/95/95
f 96/96/96 98/98/98 95/95/95
f 95/95/95 98/98/98 99/99/99
f 99/99/99 100/100/100 95/95/95
f 103/103/103 102/102/102 101/101/101
f 104/104/104 103/103/103 101/101/101
f 105/105/105 103/103/103 104/104/104
f 106/106/106 105/105/105 104/104/104
f 104/104/104 107/107/107 106/106/106
f 107/107/107 104/104/104 108/108/108
f 101/101/101 108/108/108 104/104/104
f 108/108/108 101/101/101 109/109/109
f 112/112/112 111/111/111 110/110/110
f 110/110/110 113/113/113 112/112/112
f 112/112/112 113/113/113 114/114/114
f 112/112/112 114/114/114 115/115/115
f 118/118/118 117/117/117 116/116/116
f 117/117/117 118/118/118 119/119/119
f 122/122/122 121/121/121 120/120/120
f 120/120/120 123/123/123 122/122/122
f 126/126/126 125/125/125 124/124/124
f 125/125/125 126/126/126 127/127/127
f 130/130/130 129/129/129 128/128/128
f 128/128/128 131/131/131 130/130/130
