g obj_chair
v 0.34266707 0.39105058 0.029030036
v 0.32231754 0.39771256 0.029846758
v 0.32739112 0.40615618 0.026910236
v -0.11989052 0.39105043 -0.29485565
v -0.11258927 0.40615603 -0.28081757
v -0.11369843 0.3977124 -0.27545458
v -0.11258927 0.40615603 -0.28081757
v 0.044963628 0.40615603 -0.30882922
v 0.19605899 0.40615603 -0.25383496
v 0.32739112 0.40615618 0.026910236
v 0.29941398 0.40615606 -0.130661
v -0.2605306 0.40679044 0.1304457
v -0.28837264 0.40679032 -0.018675888
v 0.14039771 0.40679052 0.2817512
v -0.15831427 0.40679044 0.25226218
v -0.008884006 0.40679055 0.3066506
v 0.2708679 0.3977126 0.17120439
v -0.11369843 0.3977124 -0.27545458
v 0.32231754 0.39771256 0.029846758
v -0.2289339 0.39771256 -0.17875998
v -0.2930006 0.39762247 -0.026583334
v 0.14978041 0.39762256 0.28345507
v 0.044963628 0.40615603 -0.30882922
v -0.11258927 0.40615603 -0.28081757
v -0.11989052 0.39105043 -0.29485565
v 0.046304584 0.39105043 -0.32416078
v -0.2289339 0.39771256 -0.17875998
v -0.11369843 0.3977124 -0.27545458
v -0.24916738 0.39105046 -0.18637982
v -0.2930006 0.39762247 -0.026583334
v -0.30688593 0.3910505 -0.027798291
v -0.28837264 0.40679032 -0.018675888
v -0.27758107 0.39105055 0.13839708
v -0.2605306 0.40679044 0.1304457
v -0.16910519 0.39105055 0.26767313
v -0.15831427 0.40679044 0.25226218
v -0.010523977 0.3910506 0.32539245
v -0.008884006 0.40679055 0.3066506
v 0.14039771 0.40679052 0.2817512
v 0.15567116 0.39105058 0.29608732
v 0.14978041 0.39762256 0.28345507
v 0.28494802 0.39105058 0.1876115
v 0.2708679 0.3977126 0.17120439
v 0.34266707 0.39105058 0.029030036
v 0.32231754 0.39771256 0.029846758
v -0.11369843 0.3977124 -0.27545458
v -0.11258927 0.40615603 -0.28081757
v 0.32739112 0.40615618 0.026910236
v 0.32231754 0.39771256 0.029846758
v 0.34266707 0.39105058 0.029030036
v 0.32739112 0.40615618 0.026910236
v 0.29941398 0.40615606 -0.130661
v 0.31336224 0.3910505 -0.1371648
v 0.19605899 0.40615603 -0.25383496
v 0.20488606 0.3910505 -0.26644143
v 0.044963628 0.40615603 -0.30882922
v 0.046304584 0.39105043 -0.32416078
v 0.37040144 0.23377995 0.031456802
v 0.33859426 0.23377995 -0.14893065
v 0.30775395 0.23377995 0.2035808
v 0.22085477 0.23377995 -0.28924707
v 0.28494802 0.39105058 0.1876115
v 0.04873104 0.23377995 -0.35189483
v 0.16743703 0.23378003 0.32131943
v -0.11989052 0.39105043 -0.29485565
v 0.15567116 0.39105058 0.29608732
v -0.13165644 0.23377989 -0.32008767
v -0.012950435 0.23378003 0.3531271
v -0.24916738 0.39105046 -0.18637982
v -0.010523977 0.3910506 0.32539245
v -0.271973 0.23377995 -0.2023484
v -0.18507387 0.23377995 0.2904788
v -0.30688593 0.3910505 -0.027798291
v -0.16910519 0.39105055 0.26767313
v -0.33462048 0.23377995 -0.030224789
v -0.3028131 0.23378003 0.15016302
v -0.27758107 0.39105055 0.13839708
v 0.14978041 0.39762256 0.28345507
v 0.14039771 0.40679052 0.2817512
v -0.28837264 0.40679032 -0.018675888
v -0.2930006 0.39762247 -0.026583334
v 0.14905778 0.00047698364 0.28235963
v 0.16157728 0.00047698364 0.18726188
v 0.15121657 0.085871235 0.16914658
v 0.1292741 0.1234231 0.23153464
v 0.11495609 0.23818988 0.12836954
v 0.20744883 0.00047701006 0.35845652
v 0.10686295 0.2381899 0.18984278
v 0.17264797 0.1305456 0.28844878
v 0.30254564 0.00047701006 0.37097612
v 0.14460808 0.23818988 0.23903377
v 0.26663977 0.078028835 0.3187856
v 0.37864277 0.00047698364 0.31258467
v 0.20608109 0.2381899 0.24712583
v 0.31478012 0.10946235 0.26034355
v 0.39116243 0.00047698364 0.21748787
v 0.25527182 0.23818988 0.20938124
v 0.34022784 0.07165353 0.19809327
v 0.33277163 0.00047698364 0.14139068
v 0.26336467 0.23818994 0.14790826
v 0.2714744 0.12804872 0.11967327
v 0.23767349 0.00047698364 0.12887077
v 0.22561926 0.23818988 0.09871755
v 0.215636 0.075442635 0.12577648
v 0.16157728 0.00047698364 0.18726188
v 0.16414621 0.23818988 0.090624675
v 0.15121657 0.085871235 0.16914658
v 0.11495609 0.23818988 0.12836954
v -0.11438831 0.00047698364 0.28235963
v -0.11650496 0.085871235 0.1691466
v -0.1269082 0.00047698364 0.1872619
v -0.094543524 0.1234231 0.23153464
v -0.08016866 0.23818988 0.12836954
v -0.17277946 0.00047701006 0.35845652
v -0.0720755 0.2381899 0.18984276
v -0.13791387 0.1305456 0.28844872
v -0.2678765 0.00047701006 0.37097612
v -0.10982061 0.23818988 0.23903379
v -0.23193179 0.07802885 0.31878564
v -0.34397376 0.00047698364 0.31258467
v -0.1712936 0.2381899 0.24712583
v -0.28005648 0.10946235 0.26034355
v -0.35649332 0.00047698364 0.21748787
v -0.22048435 0.23818988 0.20938124
v -0.3055233 0.07165354 0.19809324
v -0.2981025 0.00047698364 0.14139068
v -0.22857721 0.23818994 0.14790823
v -0.23674172 0.12804872 0.11967327
v -0.2030045 0.00047698364 0.12887079
v -0.19083177 0.2381899 0.098717526
v -0.1809296 0.075442635 0.12577648
v -0.1269082 0.00047698364 0.1872619
v -0.12935853 0.23818988 0.090624675
v -0.11650496 0.085871235 0.1691466
v -0.08016866 0.23818988 0.12836954
v 0.14905773 0.00047693079 -0.26909462
v 0.1512166 0.08587121 -0.15634225
v 0.16157724 0.00047693079 -0.17399721
v 0.12927414 0.12342306 -0.21893276
v 0.11495609 0.23818983 -0.11638632
v 0.20744883 0.00047693079 -0.3451915
v 0.10686295 0.23818983 -0.17785959
v 0.17264804 0.13054556 -0.27588537
v 0.30254564 0.0004769043 -0.3577114
v 0.14460808 0.23818983 -0.22705056
v 0.2666398 0.07802877 -0.30593908
v 0.37864277 0.00047693079 -0.29931998
v 0.20608109 0.23818988 -0.23514262
v 0.31478003 0.109462306 -0.24766612
v 0.39116243 0.00047693079 -0.2042232
v 0.25527182 0.23818983 -0.19739807
v 0.34022784 0.07165349 -0.18521225
v 0.33277163 0.00047693079 -0.12812567
v 0.2633647 0.23818986 -0.13592505
v 0.27147433 0.12804869 -0.107096314
v 0.23767357 0.0004769572 -0.11560609
v 0.22561926 0.23818983 -0.086734354
v 0.215636 0.07544261 -0.11291592
v 0.16157724 0.00047693079 -0.17399721
v 0.16414621 0.23818983 -0.07864149
v 0.1512166 0.08587121 -0.15634225
v 0.11495609 0.23818983 -0.11638632
v -0.11438831 0.00047693079 -0.26909462
v -0.1269082 0.00047693079 -0.17399721
v -0.11650496 0.08587121 -0.15634222
v -0.09454354 0.12342306 -0.21893276
v -0.08016866 0.23818983 -0.11638632
v -0.17277947 0.00047693079 -0.3451915
v -0.07207548 0.23818983 -0.17785959
v -0.13791385 0.13054556 -0.27588537
v -0.26787654 0.0004769043 -0.3577114
v -0.10982061 0.23818983 -0.22705056
v -0.23193178 0.07802877 -0.30593902
v -0.34397376 0.00047693079 -0.29931998
v -0.1712936 0.23818986 -0.23514262
v -0.28005648 0.109462306 -0.24766617
v -0.35649332 0.00047693079 -0.2042232
v -0.22048435 0.23818983 -0.1973981
v -0.3055233 0.07165349 -0.1852123
v -0.2981025 0.00047693079 -0.12812567
v -0.22857721 0.23818986 -0.13592505
v -0.23674177 0.12804869 -0.10709635
v -0.2030045 0.0004769572 -0.11560609
v -0.19083177 0.23818983 -0.08673432
v -0.18092962 0.07544261 -0.11291584
v -0.1269082 0.00047693079 -0.17399721
v -0.12935853 0.23818982 -0.07864149
v -0.11650496 0.08587121 -0.15634222
v -0.08016866 0.23818983 -0.11638632
vt 0.3346391 0.41792762
vt 0.3346391 0.41983518
vt 0.3346391 0.41983518
vt 0.33429483 0.41792762
vt 0.3344651 0.41983518
vt 0.33401108 0.41983518
vt 0.33377892 0.42109877
vt 0.3256725 0.42109877
vt 0.3256725 0.4257205
vt 0.33377892 0.4307164
vt 0.3256725 0.4307164
vt 0.3256725 0.42109877
vt 0.33377892 0.42109877
vt 0.33377892 0.4307164
vt 0.3256725 0.4257466
vt 0.3256725 0.4307164
vt 0.3411742 0.4307164
vt 0.33471456 0.42109877
vt 0.33471456 0.4307164
vt 0.3411742 0.42109877
vt 0.33471456 0.42109877
vt 0.33471456 0.4307164
vt 0.34593123 0.41983518
vt 0.3346391 0.41983518
vt 0.3346391 0.41792762
vt 0.34593123 0.41792762
vt 0.32478246 0.41983518
vt 0.33392426 0.41983518
vt 0.32478246 0.41792762
vt 0.33392426 0.41983518
vt 0.33435652 0.41792762
vt 0.3346391 0.41983518
vt 0.34593123 0.41792762
vt 0.34593123 0.41983518
vt 0.35723713 0.41792762
vt 0.35723713 0.41983518
vt 0.34593123 0.41792762
vt 0.34593123 0.41983518
vt 0.3346391 0.41983518
vt 0.3346391 0.41792762
vt 0.3346391 0.41983518
vt 0.32478246 0.41792762
vt 0.32478246 0.41983518
vt 0.3346391 0.41792762
vt 0.3346391 0.41983518
vt 0.3344056 0.42109877
vt 0.33408338 0.42109877
vt 0.33408338 0.4307164
vt 0.3344056 0.4307164
vt 0.3346391 0.41792762
vt 0.3346391 0.41983518
vt 0.34593123 0.41983518
vt 0.34593123 0.41792762
vt 0.35723713 0.41983518
vt 0.35723713 0.41792762
vt 0.34593123 0.41983518
vt 0.34593123 0.41792762
vt 0.3346391 0.41075587
vt 0.34593123 0.41075587
vt 0.32478246 0.41075587
vt 0.35723713 0.41075587
vt 0.32478246 0.41792762
vt 0.34593123 0.41075587
vt 0.3346391 0.41075587
vt 0.33435652 0.41792762
vt 0.3346391 0.41792762
vt 0.33433655 0.41075587
vt 0.34593123 0.41075587
vt 0.32478246 0.41792762
vt 0.34593123 0.41792762
vt 0.32478246 0.41075587
vt 0.35723713 0.41075587
vt 0.33435652 0.41792762
vt 0.35723713 0.41792762
vt 0.33433655 0.41075587
vt 0.34593123 0.41075587
vt 0.34593123 0.41792762
vt 0.3344056 0.4307164
vt 0.33408338 0.4307164
vt 0.33408338 0.42109877
vt 0.3344056 0.42109877
vt 0.37022698 0.4195715
vt 0.373543 0.4195715
vt 0.373543 0.42640114
vt 0.37022698 0.4276052
vt 0.373543 0.43102667
vt 0.36619446 0.4195715
vt 0.37022698 0.43102667
vt 0.36619446 0.4278336
vt 0.36256385 0.4195715
vt 0.36619446 0.43102667
vt 0.36256385 0.42614967
vt 0.35905924 0.4195715
vt 0.36256385 0.43102667
vt 0.35905924 0.42715755
vt 0.362522 0.4195715
vt 0.35905924 0.43102667
vt 0.362522 0.42594525
vt 0.35893217 0.4195715
vt 0.362522 0.43102667
vt 0.35893217 0.42775354
vt 0.3605483 0.4195715
vt 0.35893217 0.43102667
vt 0.3605483 0.42606676
vt 0.35898307 0.4195715
vt 0.3605483 0.43102667
vt 0.35898307 0.42640114
vt 0.35898307 0.43102667
vt 0.3732657 0.4195715
vt 0.37173867 0.42368656
vt 0.37173867 0.4195715
vt 0.3732657 0.42549616
vt 0.37173867 0.43102667
vt 0.37173378 0.4195715
vt 0.3732657 0.43102667
vt 0.37173378 0.42583936
vt 0.36819813 0.4195715
vt 0.37173378 0.43102667
vt 0.36819813 0.42330864
vt 0.36469352 0.4195715
vt 0.36819813 0.43102667
vt 0.36469352 0.4248234
vt 0.3609866 0.4195715
vt 0.36469352 0.43102667
vt 0.3609866 0.4230014
vt 0.35991332 0.4195715
vt 0.3609866 0.43102667
vt 0.35991332 0.42571905
vt 0.35901287 0.4195715
vt 0.35991332 0.43102667
vt 0.35901287 0.423184
vt 0.35996422 0.4195715
vt 0.35901287 0.43102667
vt 0.35996422 0.42368656
vt 0.35996422 0.43102667
vt 0.3717463 0.4195715
vt 0.373543 0.42368656
vt 0.373543 0.4195715
vt 0.3717463 0.42549616
vt 0.373543 0.43102667
vt 0.3735381 0.4195715
vt 0.3717463 0.43102667
vt 0.3735381 0.42583936
vt 0.36990747 0.4195715
vt 0.3735381 0.43102667
vt 0.36990747 0.42330864
vt 0.36640286 0.4195715
vt 0.36990747 0.43102667
vt 0.36640286 0.4248234
vt 0.36269593 0.4195715
vt 0.36640286 0.43102667
vt 0.36269593 0.4230014
vt 0.35910618 0.4195715
vt 0.36269593 0.43102667
vt 0.35910618 0.42571905
vt 0.3607222 0.4195715
vt 0.35910618 0.43102667
vt 0.3607222 0.423184
vt 0.359157 0.4195715
vt 0.3607222 0.43102667
vt 0.359157 0.42368656
vt 0.359157 0.43102667
vt 0.37098664 0.4195715
vt 0.37278333 0.4195715
vt 0.37278333 0.42646173
vt 0.37098664 0.42757496
vt 0.37278333 0.43102667
vt 0.37277842 0.4195715
vt 0.37098664 0.43102667
vt 0.37277842 0.4277861
vt 0.37323114 0.4195715
vt 0.37277842 0.43102667
vt 0.37323114 0.42622924
vt 0.3735725 0.4195715
vt 0.37323114 0.43102667
vt 0.3735725 0.4271611
vt 0.36986557 0.4195715
vt 0.3735725 0.43102667
vt 0.36986557 0.4260402
vt 0.36494634 0.4195715
vt 0.36986557 0.43102667
vt 0.36494634 0.42771208
vt 0.3608125 0.4195715
vt 0.36494634 0.43102667
vt 0.3608125 0.42615253
vt 0.35920256 0.4195715
vt 0.3608125 0.43102667
vt 0.35920256 0.42646173
vt 0.35920256 0.43102667
vn 0.12326725 0.2590889 0.95795524
vn 0.12326725 0.25908887 0.95795524
vn 0.12326725 0.25908887 0.95795524
vn -0.94245815 0.2584797 0.21203962
vn -0.94245815 0.2584797 0.21203962
vn -0.94245815 0.2584797 0.21203959
vn 1.1289423E-07 1 -5.352755E-07
vn 1.12894234E-07 1 -5.352755E-07
vn 1.1289423E-07 1 -5.352755E-07
vn 1.12894234E-07 1 -5.352755E-07
vn 1.12894234E-07 1 -5.352755E-07
vn -0 1 -5.869283E-07
vn -0 1 -5.869283E-07
vn -0 1 -5.869283E-07
vn -0 1 -5.869283E-07
vn -0 1 -5.869283E-07
vn -0.00016291316 1 0.00023243163
vn 2.4137054E-07 1 -6.378312E-07
vn 2.4137054E-07 1 -6.3783125E-07
vn -0.00016291309 1 0.00023243151
vn -0.00032013273 0.9999999 0.00045702292
vn -0.00032013276 0.9999999 0.0004570229
vn -0.123785816 0.7041363 -0.6991918
vn -0.12378583 0.7041364 -0.6991918
vn -0.17208429 0.8445069 -0.50714403
vn -0.123785816 0.7041363 -0.6991918
vn -0.2643977 0.9430095 -0.20205705
vn -0.21426715 0.9428063 -0.2553543
vn -0.28325576 0.94174767 -0.18132143
vn -0.31285578 0.84229594 -0.43892905
vn -0.48202282 0.86923313 -0.10994432
vn -0.6391201 0.7688025 -0.021636657
vn -0.5820755 0.7654974 0.27422962
vn -0.5799853 0.76696897 0.27454638
vn -0.3680511 0.7669753 0.52563035
vn -0.3680508 0.7669753 0.52563065
vn -0.056080777 0.7603652 0.6470701
vn -0.05641751 0.76037836 0.64702535
vn 0.228935 0.7799543 0.58246046
vn 0.28612792 0.85097694 0.4404192
vn 0.5264132 0.8308718 0.18039192
vn 0.24996534 0.95153403 0.17916548
vn 0.26562008 0.95100904 0.15820166
vn 0.31323472 0.9428076 0.11400775
vn 0.31323472 0.9428076 0.114007756
vn -0.4889159 0.5223596 0.69864285
vn -0.48891586 0.5223596 0.6986428
vn -0.48891586 0.5223596 0.6986428
vn -0.4889159 0.5223596 0.69864285
vn 0.93742156 0.34741157 0.023366822
vn 0.70405763 0.6991327 -0.124565065
vn 0.6359343 0.71251714 -0.29649103
vn 0.8112398 0.44589993 -0.37823704
vn 0.4017827 0.7136664 -0.57380384
vn 0.5132037 0.4465809 -0.7329308
vn 0.24377552 0.7014183 -0.66976553
vn 0.14043263 0.35146186 -0.9256097
vn 0.98094326 0.174313 0.08582088
vn 0.89243233 0.17431226 -0.4161486
vn 0.80661005 0.17431471 0.5647961
vn 0.5647952 0.1743121 -0.8066112
vn 0.8066104 0.17431468 0.5647956
vn 0.08582117 0.17431137 -0.9809435
vn 0.41614765 0.17431393 0.8924326
vn -0.41614804 0.17431182 -0.89243275
vn 0.41614774 0.17431393 0.8924326
vn -0.41614813 0.17431183 -0.89243275
vn -0.08582141 0.17431328 0.98094314
vn -0.8066113 0.1743128 -0.5647949
vn -0.085821375 0.1743133 0.98094314
vn -0.80661136 0.1743128 -0.56479484
vn -0.56479555 0.17431304 0.8066108
vn -0.9809434 0.17431277 -0.08581991
vn -0.56479555 0.17431304 0.8066108
vn -0.9809434 0.17431276 -0.085820146
vn -0.8924321 0.17431293 0.41614914
vn -0.8924321 0.17431292 0.41614914
vn 0.5278274 0.3918291 -0.7535704
vn 0.5278273 0.39182907 -0.75357044
vn 0.5278273 0.39182907 -0.75357044
vn 0.5278274 0.39182904 -0.7535704
vn -0.94085777 -0.0024837982 0.3387926
vn -0.8453053 -0.22209054 -0.485937
vn -0.82340395 -0.2708871 -0.49862415
vn -0.9674106 -0.080793396 0.23997751
vn -0.80022514 -0.32198745 -0.50592864
vn -0.35472873 0.39160842 0.84900546
vn -0.9777795 -0.14462116 0.15176316
vn -0.48800442 0.27725008 0.8276376
vn 0.24747558 0.58220065 0.7744664
vn -0.57498497 0.20605919 0.7917903
vn 0.21569727 0.5458875 0.8096182
vn 0.67165446 0.6216194 0.40307528
vn 0.1844528 0.46427995 0.8662686
vn 0.7253392 0.5552424 0.40692616
vn 0.85305357 0.49599314 -0.16214347
vn 0.75970674 0.5068771 0.40733433
vn 0.86751205 0.43657243 -0.23838505
vn 0.5929748 0.20311098 -0.77918345
vn 0.8898677 0.32250127 -0.3226891
vn 0.48849308 0.051405467 -0.8710522
vn -0.21814801 -0.15602651 -0.9633624
vn 0.3954131 -0.031210804 -0.9179729
vn -0.26940137 -0.20846215 -0.9401949
vn -0.8453053 -0.22209054 -0.485937
vn -0.30657622 -0.2851465 -0.90813136
vn -0.82340395 -0.2708871 -0.49862415
vn -0.80022514 -0.32198745 -0.50592864
vn 0.9408431 -0.0029357013 0.3388297
vn 0.8233088 -0.27127302 -0.49857154
vn 0.84519327 -0.22249365 -0.48594743
vn 0.96736646 -0.08126237 0.239997
vn 0.80015177 -0.3223389 -0.5058209
vn 0.35467026 0.39149448 0.84908247
vn 0.9777115 -0.14509939 0.15174499
vn 0.4880409 0.27702114 0.8276928
vn -0.24750517 0.5822922 0.77438813
vn 0.5750956 0.20574647 0.7917913
vn -0.21566947 0.54596025 0.80957645
vn -0.67153513 0.62182325 0.40295961
vn -0.18435225 0.46433112 0.8662625
vn -0.7251865 0.55549276 0.40685678
vn -0.8528733 0.496314 -0.16210988
vn -0.75953054 0.5071632 0.40730673
vn -0.8673445 0.43692297 -0.2383524
vn -0.59299314 0.20342827 -0.7790867
vn -0.88973534 0.3228882 -0.3226676
vn -0.48846817 0.05163634 -0.87105256
vn 0.2180447 -0.15611222 -0.9633719
vn -0.39532018 -0.031061625 -0.918018
vn 0.26938072 -0.2085826 -0.94017404
vn 0.84519327 -0.22249365 -0.48594743
vn 0.3066416 -0.28530627 -0.90805906
vn 0.8233088 -0.27127302 -0.49857154
vn 0.80015177 -0.3223389 -0.5058209
vn -0.94121176 -0.0047310437 -0.33778402
vn -0.82390505 -0.26843563 0.4991221
vn -0.84523505 -0.2196394 0.4871716
vn -0.967307 -0.082082845 -0.23995778
vn -0.80140465 -0.31945246 0.5056685
vn -0.3555511 0.38764074 -0.8504811
vn -0.9775572 -0.14498343 -0.1528457
vn -0.48830047 0.27325076 -0.8287923
vn 0.24831277 0.57947785 -0.77623856
vn -0.57492745 0.20225362 -0.79281265
vn 0.21621887 0.54276204 -0.8115779
vn 0.6728916 0.62024885 -0.40312302
vn 0.18454395 0.46053594 -0.8682454
vn 0.72605944 0.5537544 -0.4076687
vn 0.85268104 0.49643454 0.1627505
vn 0.76000196 0.505342 -0.40868875
vn 0.86702865 0.43766323 0.23814325
vn 0.5918657 0.2067579 0.77906746
vn 0.88958955 0.32444996 0.32150057
vn 0.48808673 0.056001194 0.8709968
vn -0.21804947 -0.1508966 0.9642016
vn 0.39583218 -0.026086083 0.9179522
vn -0.26975986 -0.20358182 0.94116104
vn -0.84523505 -0.2196394 0.4871716
vn -0.30735704 -0.28072742 0.9092435
vn -0.82390505 -0.26843563 0.4991221
vn -0.80140465 -0.31945246 0.5056685
vn 0.9411963 -0.005184181 -0.3378205
vn 0.845124 -0.22004318 0.48718214
vn 0.8238105 -0.26882243 0.49906978
vn 0.9672624 -0.08255211 -0.23997658
vn 0.8013317 -0.31980497 0.5055612
vn 0.3554918 0.3875262 -0.85055804
vn 0.97748905 -0.14546119 -0.15282711
vn 0.4883364 0.27302107 -0.8288468
vn -0.24834244 0.5795701 -0.7761601
vn 0.57503736 0.20194101 -0.7928126
vn -0.21619095 0.54283535 -0.8115364
vn -0.6727718 0.6204538 -0.4030076
vn -0.18444318 0.46058717 -0.8682397
vn -0.7259066 0.5540056 -0.4075995
vn -0.852501 0.49675488 0.16271669
vn -0.7598259 0.50562865 -0.40866137
vn -0.86686105 0.43801314 0.23811018
vn -0.5918838 0.20707399 0.77896976
vn -0.88945645 0.32483664 0.32147843
vn -0.488062 0.056232307 0.87099564
vn 0.21794628 -0.1509825 0.96421146
vn -0.39573938 -0.025936129 0.9179965
vn 0.2697391 -0.2037027 0.9411408
vn 0.845124 -0.22004318 0.48718214
vn 0.30742273 -0.28088793 0.90917176
vn 0.8238105 -0.26882243 0.49906978
vn 0.8013317 -0.31980497 0.5055612
g obj_chair_0
f 3/3/3 2/2/2 1/1/1
f 6/6/6 5/5/5 4/4/4
f 9/9/9 8/8/8 7/7/7
f 7/7/7 10/10/10 9/9/9
f 10/10/10 11/11/11 9/9/9
f 14/14/14 13/13/13 12/12/12
f 12/12/12 15/15/15 14/14/14
f 15/15/15 16/16/16 14/14/14
f 19/19/19 18/18/18 17/17/17
f 18/18/18 20/20/20 17/17/17
f 20/20/20 21/21/21 17/17/17
f 21/21/21 22/22/22 17/17/17
f 25/25/25 24/24/24 23/23/23
f 26/26/26 25/25/25 23/23/23
f 28/28/28 25/25/25 27/27/27
f 25/25/25 29/29/29 27/27/27
f 30/30/30 27/27/27 29/29/29
f 31/31/31 30/30/30 29/29/29
f 32/32/32 30/30/30 31/31/31
f 31/31/31 33/33/33 32/32/32
f 34/34/34 32/32/32 33/33/33
f 33/33/33 35/35/35 34/34/34
f 35/35/35 36/36/36 34/34/34
f 35/35/35 37/37/37 36/36/36
f 37/37/37 38/38/38 36/36/36
f 38/38/38 37/37/37 39/39/39
f 37/37/37 40/40/40 39/39/39
f 41/41/41 39/39/39 40/40/40
f 40/40/40 42/42/42 41/41/41
f 41/41/41 42/42/42 43/43/43
f 42/42/42 44/44/44 43/43/43
f 44/44/44 45/45/45 43/43/43
f 48/48/48 47/47/47 46/46/46
f 49/49/49 48/48/48 46/46/46
f 52/52/52 51/51/51 50/50/50
f 53/53/53 52/52/52 50/50/50
f 54/54/54 52/52/52 53/53/53
f 55/55/55 54/54/54 53/53/53
f 56/56/56 54/54/54 55/55/55
f 57/57/57 56/56/56 55/55/55
f 50/50/50 58/58/58 53/53/53
f 58/58/58 59/59/59 53/53/53
f 53/53/53 59/59/59 55/55/55
f 60/60/60 58/58/58 50/50/50
f 59/59/59 61/61/61 55/55/55
f 55/55/55 61/61/61 57/57/57
f 62/62/62 60/60/60 50/50/50
f 61/61/61 63/63/63 57/57/57
f 64/64/64 60/60/60 62/62/62
f 57/57/57 63/63/63 65/65/65
f 66/66/66 64/64/64 62/62/62
f 63/63/63 67/67/67 65/65/65
f 68/68/68 64/64/64 66/66/66
f 65/65/65 67/67/67 69/69/69
f 70/70/70 68/68/68 66/66/66
f 67/67/67 71/71/71 69/69/69
f 72/72/72 68/68/68 70/70/70
f 69/69/69 71/71/71 73/73/73
f 74/74/74 72/72/72 70/70/70
f 71/71/71 75/75/75 73/73/73
f 76/76/76 72/72/72 74/74/74
f 73/73/73 75/75/75 77/77/77
f 77/77/77 76/76/76 74/74/74
f 75/75/75 76/76/76 77/77/77
f 80/80/80 79/79/79 78/78/78
f 81/81/81 80/80/80 78/78/78
f 84/84/84 83/83/83 82/82/82
f 85/85/85 84/84/84 82/82/82
f 86/86/86 84/84/84 85/85/85
f 85/85/85 82/82/82 87/87/87
f 88/88/88 86/86/86 85/85/85
f 89/89/89 85/85/85 87/87/87
f 88/88/88 85/85/85 89/89/89
f 89/89/89 87/87/87 90/90/90
f 91/91/91 88/88/88 89/89/89
f 92/92/92 89/89/89 90/90/90
f 91/91/91 89/89/89 92/92/92
f 92/92/92 90/90/90 93/93/93
f 94/94/94 91/91/91 92/92/92
f 95/95/95 92/92/92 93/93/93
f 94/94/94 92/92/92 95/95/95
f 95/95/95 93/93/93 96/96/96
f 97/97/97 94/94/94 95/95/95
f 98/98/98 95/95/95 96/96/96
f 97/97/97 95/95/95 98/98/98
f 98/98/98 96/96/96 99/99/99
f 100/100/100 97/97/97 98/98/98
f 101/101/101 98/98/98 99/99/99
f 100/100/100 98/98/98 101/101/101
f 101/101/101 99/99/99 102/102/102
f 103/103/103 100/100/100 101/101/101
f 104/104/104 101/101/101 102/102/102
f 103/103/103 101/101/101 104/104/104
f 104/104/104 102/102/102 105/105/105
f 106/106/106 103/103/103 104/104/104
f 107/107/107 104/104/104 105/105/105
f 106/106/106 104/104/104 107/107/107
f 108/108/108 106/106/106 107/107/107
f 111/111/111 110/110/110 109/109/109
f 110/110/110 112/112/112 109/109/109
f 110/110/110 113/113/113 112/112/112
f 109/109/109 112/112/112 114/114/114
f 113/113/113 115/115/115 112/112/112
f 112/112/112 116/116/116 114/114/114
f 112/112/112 115/115/115 116/116/116
f 114/114/114 116/116/116 117/117/117
f 115/115/115 118/118/118 116/116/116
f 116/116/116 119/119/119 117/117/117
f 116/116/116 118/118/118 119/119/119
f 117/117/117 119/119/119 120/120/120
f 118/118/118 121/121/121 119/119/119
f 119/119/119 122/122/122 120/120/120
f 119/119/119 121/121/121 122/122/122
f 120/120/120 122/122/122 123/123/123
f 121/121/121 124/124/124 122/122/122
f 122/122/122 125/125/125 123/123/123
f 122/122/122 124/124/124 125/125/125
f 123/123/123 125/125/125 126/126/126
f 124/124/124 127/127/127 125/125/125
f 125/125/125 128/128/128 126/126/126
f 125/125/125 127/127/127 128/128/128
f 126/126/126 128/128/128 129/129/129
f 127/127/127 130/130/130 128/128/128
f 128/128/128 131/131/131 129/129/129
f 128/128/128 130/130/130 131/131/131
f 129/129/129 131/131/131 132/132/132
f 130/130/130 133/133/133 131/131/131
f 131/131/131 134/134/134 132/132/132
f 131/131/131 133/133/133 134/134/134
f 133/133/133 135/135/135 134/134/134
f 138/138/138 137/137/137 136/136/136
f 137/137/137 139/139/139 136/136/136
f 137/137/137 140/140/140 139/139/139
f 136/136/136 139/139/139 141/141/141
f 140/140/140 142/142/142 139/139/139
f 139/139/139 143/143/143 141/141/141
f 139/139/139 142/142/142 143/143/143
f 141/141/141 143/143/143 144/144/144
f 142/142/142 145/145/145 143/143/143
f 143/143/143 146/146/146 144/144/144
f 143/143/143 145/145/145 146/146/146
f 144/144/144 146/146/146 147/147/147
f 145/145/145 148/148/148 146/146/146
f 146/146/146 149/149/149 147/147/147
f 146/146/146 148/148/148 149/149/149
f 147/147/147 149/149/149 150/150/150
f 148/148/148 151/151/151 149/149/149
f 149/149/149 152/152/152 150/150/150
f 149/149/149 151/151/151 152/152/152
f 150/150/150 152/152/152 153/153/153
f 151/151/151 154/154/154 152/152/152
f 152/152/152 155/155/155 153/153/153
f 152/152/152 154/154/154 155/155/155
f 153/153/153 155/155/155 156/156/156
f 154/154/154 157/157/157 155/155/155
f 155/155/155 158/158/158 156/156/156
f 155/155/155 157/157/157 158/158/158
f 156/156/156 158/158/158 159/159/159
f 157/157/157 160/160/160 158/158/158
f 158/158/158 161/161/161 159/159/159
f 158/158/158 160/160/160 161/161/161
f 160/160/160 162/162/162 161/161/161
f 165/165/165 164/164/164 163/163/163
f 166/166/166 165/165/165 163/163/163
f 167/167/167 165/165/165 166/166/166
f 166/166/166 163/163/163 168/168/168
f 169/169/169 167/167/167 166/166/166
f 170/170/170 166/166/166 168/168/168
f 169/169/169 166/166/166 170/170/170
f 170/170/170 168/168/168 171/171/171
f 172/172/172 169/169/169 170/170/170
f 173/173/173 170/170/170 171/171/171
f 172/172/172 170/170/170 173/173/173
f 173/173/173 171/171/171 174/174/174
f 175/175/175 172/172/172 173/173/173
f 176/176/176 173/173/173 174/174/174
f 175/175/175 173/173/173 176/176/176
f 176/176/176 174/174/174 177/177/177
f 178/178/178 175/175/175 176/176/176
f 179/179/179 176/176/176 177/177/177
f 178/178/178 176/176/176 179/179/179
f 179/179/179 177/177/177 180/180/180
f 181/181/181 178/178/178 179/179/179
f 182/182/182 179/179/179 180/180/180
f 181/181/181 179/179/179 182/182/182
f 182/182/182 180/180/180 183/183/183
f 184/184/184 181/181/181 182/182/182
f 185/185/185 182/182/182 183/183/183
f 184/184/184 182/182/182 185/185/185
f 185/185/185 183/183/183 186/186/186
f 187/187/187 184/184/184 185/185/185
f 188/188/188 185/185/185 186/186/186
f 187/187/187 185/185/185 188/188/188
f 189/189/189 187/187/187 188/188/188
