g obj_rock3_bottom
v 2.4066415 0.9331958 1.0750146
v 2.8178194 0.40279964 0.35376236
v 2.4697037 0.40279964 1.116243
v 2.693358 0.93309873 0.3210676
v 2.2857764 1.0170496 0.92337424
v 2.544535 1.0170497 0.28921226
v 2.7276146 0.93366843 -1.0475329
v 2.8640962 0.40279973 -1.2286421
v 2.5829167 1.0170496 -1.0921005
v 2.4406462 0.93715274 -1.8360969
v 2.619717 0.4027997 -2.0294492
v 2.3125758 1.0170496 -1.7181116
v -1.7699107 0.4027997 -2.2803264
v -1.9406244 0.9313064 -1.831353
v -2.0349383 0.40279964 -2.0425894
v -1.7308322 0.9296507 -2.0527322
v -1.7969553 1.0170496 -1.7884357
v -1.67214 1.0170496 -1.9240437
v -1.6348323 0.4027997 -2.333127
v -1.5991669 0.92932755 -2.1093247
v -1.5370308 1.0170496 -1.97731
v 0.60685456 0.9289433 -2.0984812
v 0.70315814 0.4027997 -2.3123183
v 0.5663773 1.0170496 -1.96966
v 0.8634576 0.9302343 -1.932946
v 0.8988028 0.40279981 -2.161363
v 0.84344393 1.0170497 -1.8233947
v -3.1776536 0.92953575 -1.5398753
v -3.240447 0.40279964 -1.7339896
v -2.9030929 0.40279964 -2.0678048
v -2.8513563 0.92941815 -1.8591127
v -3.0498 1.0170497 -1.4925625
v -2.7699335 0.40279973 -2.1130502
v -2.7592328 1.0170496 -1.7631646
v -2.7178545 0.9295589 -1.9042983
v -2.0349383 0.40279964 -2.0425894
v -2.6249068 1.0170496 -1.8034756
v -1.9406244 0.9313064 -1.831353
v -1.9537497 1.0170496 -1.7096163
v -1.7969553 1.0170496 -1.7884357
v 2.544535 1.0170497 0.28921226
v 2.2857764 1.0170496 0.92337424
v 2.0670176 1.0170496 1.0487046
v 0.77858436 1.0170497 -0.10120122
v 0.6633761 1.0170497 0.8468156
v 2.5829167 1.0170496 -1.0921005
v -2.11796 1.0170497 0.36478105
v -2.0781617 1.0170496 -1.1230524
v -3.665786 1.0170497 -0.6504728
v -3.6513522 1.0170497 -1.364065
v -3.4991274 1.0170497 0.46541035
v -3.65752 1.0170497 0.28125656
v -3.5736403 1.0170497 -1.4495847
v -3.0498 1.0170497 -1.4925625
v -2.7592328 1.0170496 -1.7631646
v -2.6249068 1.0170496 -1.8034756
v -1.9537497 1.0170496 -1.7096163
v -1.7969553 1.0170496 -1.7884357
v 0.84344393 1.0170497 -1.8233947
v 1.275194 1.0170496 -1.8773365
v 2.2063134 1.0170496 -1.794873
v 2.3125758 1.0170496 -1.7181116
v 0.5663773 1.0170496 -1.96966
v -1.5370308 1.0170496 -1.97731
v -1.67214 1.0170496 -1.9240437
v -3.1776536 0.92953575 -1.5398753
v -3.0498 1.0170497 -1.4925625
v -3.5736403 1.0170497 -1.4495847
v -3.7109165 0.93006957 -1.4810512
v -3.240447 0.40279964 -1.7339896
v -3.7888546 0.4027997 -1.6725644
v -3.6513522 1.0170497 -1.364065
v -3.8664153 0.4027997 -1.5844703
v -3.7884889 0.9301699 -1.3930664
v -3.665786 1.0170497 -0.6504728
v -3.8644018 0.4027997 -0.7847713
v -3.803986 0.9302724 -0.60970235
v -3.8396873 0.4027997 0.40809193
v -3.65752 1.0170497 0.28125656
v -3.7967837 0.9303747 0.39179882
v -3.6775625 0.40279964 0.5888119
v -3.6388824 0.9418673 0.5746364
v -3.4991274 1.0170497 0.46541035
v 2.520817 0.40279973 -2.1118867
v 2.619717 0.4027997 -2.0294492
v 2.4406462 0.93715274 -1.8360969
v 2.337913 0.937 -1.9149072
v 2.3125758 1.0170496 -1.7181116
v 1.2444245 0.40279976 -2.248524
v 2.2063134 1.0170496 -1.794873
v 1.2515655 0.9319132 -2.0139532
v 0.8988028 0.40279981 -2.161363
v 1.275194 1.0170496 -1.8773365
v 0.8634576 0.9302343 -1.932946
v 0.84344393 1.0170497 -1.8233947
v -2.1213267 0.40279964 0.48316422
v -3.6775625 0.40279964 0.5888119
v -3.6388824 0.9418673 0.5746364
v -2.1213267 0.9313065 0.48316422
v -3.4991274 1.0170497 0.46541035
v -2.11796 1.0170497 0.36478105
v 0.6633761 1.0170497 0.8468156
v 0.64908874 0.9313064 0.96438164
v 0.64908874 0.40279964 0.96438164
v 2.0670176 1.0170496 1.0487046
v 2.1920078 0.9437341 1.200392
v 2.2857764 1.0170496 0.92337424
v 2.2458901 0.40279964 1.2350731
v 2.4066415 0.9331958 1.0750146
v 2.4697037 0.40279964 1.116243
vt 0.13878196 0.117923126
vt 0.14237456 0.09587368
vt 0.13878196 0.09587368
vt 0.14237456 0.117923126
vt 0.13878196 0.12687702
vt 0.14237456 0.12687702
vt 0.15204968 0.117923126
vt 0.15204968 0.09587368
vt 0.15204968 0.12687702
vt 0.15640654 0.117923126
vt 0.15640654 0.09587368
vt 0.15640654 0.12687702
vt 0.203406 0.09587368
vt 0.20800516 0.117923126
vt 0.20800516 0.09587368
vt 0.203406 0.117923126
vt 0.20800516 0.12687702
vt 0.203406 0.12687702
vt 0.20191142 0.09587368
vt 0.20191142 0.117923126
vt 0.20191142 0.12687702
vt 0.18089873 0.117923126
vt 0.18089873 0.09587368
vt 0.18089873 0.12687702
vt 0.17660885 0.117923126
vt 0.17660885 0.09587368
vt 0.17660885 0.12687702
vt 0.16172001 0.117923126
vt 0.16172001 0.09587368
vt 0.16684891 0.09587368
vt 0.16684891 0.117923126
vt 0.16172001 0.12687702
vt 0.16859536 0.09587368
vt 0.16684891 0.12687702
vt 0.16859536 0.117923126
vt 0.17415142 0.09587368
vt 0.16859536 0.12687702
vt 0.17415142 0.117923126
vt 0.17184803 0.12687702
vt 0.17415142 0.12687702
vt 0.078051634 0.11744686
vt 0.08040228 0.12320781
vt 0.08238957 0.124346346
vt 0.094094135 0.11390013
vt 0.09514073 0.12251229
vt 0.07770301 0.10382039
vt 0.12040747 0.11813321
vt 0.12004595 0.10353891
vt 0.13446847 0.10783205
vt 0.13433734 0.10134942
vt 0.13295451 0.11904734
vt 0.13439344 0.11737444
vt 0.13363138 0.10057261
vt 0.12887265 0.10018212
vt 0.126233 0.09772391
vt 0.12501277 0.09735776
vt 0.118915714 0.09821048
vt 0.11749137 0.097494476
vt 0.09350502 0.09717699
vt 0.08958287 0.09668695
vt 0.08112425 0.09743617
vt 0.08015894 0.09813342
vt 0.09602194 0.094538115
vt 0.11513021 0.09446869
vt 0.11635757 0.094952546
vt 0.15936019 0.117923126
vt 0.15936019 0.12687702
vt 0.15751252 0.12687702
vt 0.15751252 0.117923126
vt 0.15936019 0.09587368
vt 0.15751252 0.09587368
vt 0.15670353 0.12687702
vt 0.15670353 0.09587368
vt 0.15670353 0.117923126
vt 0.15005818 0.12687702
vt 0.15005818 0.09587368
vt 0.15005818 0.117923126
vt 0.14006762 0.09587368
vt 0.14006762 0.12687702
vt 0.14006762 0.117923126
vt 0.13840231 0.09587368
vt 0.13840231 0.117923126
vt 0.13840231 0.12687702
vt 0.16296746 0.09587368
vt 0.16158667 0.09587368
vt 0.16158667 0.117923126
vt 0.16296746 0.117923126
vt 0.16158667 0.12687702
vt 0.17111892 0.09587368
vt 0.16296746 0.12687702
vt 0.17111892 0.117923126
vt 0.17380998 0.09587368
vt 0.17111892 0.12687702
vt 0.17380998 0.117923126
vt 0.17380998 0.12687702
vt 0.21168949 0.09587368
vt 0.21022242 0.09587368
vt 0.21022242 0.117923126
vt 0.21168949 0.117923126
vt 0.21022242 0.12687702
vt 0.21168949 0.12687702
vt 0.21755213 0.12687702
vt 0.21755213 0.117923126
vt 0.21755213 0.09587368
vt 0.21915828 0.12687702
vt 0.21915828 0.117923126
vt 0.2195599 0.12687702
vt 0.21915828 0.09587368
vt 0.2195599 0.117923126
vt 0.2195599 0.09587368
vn 0.6168794 0.56418353 0.5487775
vn 0.95453715 0.21436492 0.20713916
vn 0.73892105 0.1596934 0.65459424
vn 0.7957948 0.58203506 0.16717026
vn 0.20367569 0.96806866 0.14614856
vn 0.26525688 0.96274656 0.052515
vn 0.7892048 0.6072904 -0.09140176
vn 0.9337825 0.3170174 -0.16598243
vn 0.27940688 0.9580896 -0.06321436
vn 0.61179805 0.66788644 -0.4238289
vn 0.7355157 0.42255744 -0.5295865
vn 0.21820168 0.96358925 -0.15454388
vn -0.49112952 0.38270494 -0.7825144
vn -0.24213244 0.6669888 -0.70462596
vn -0.29521734 0.3901667 -0.8721334
vn -0.43527734 0.6282219 -0.6448805
vn -0.17102545 0.9635009 -0.20595221
vn -0.18068856 0.9509497 -0.25109044
vn -0.17303169 0.39356485 -0.9028659
vn -0.15386157 0.6317072 -0.75978464
vn -0.049374584 0.9510406 -0.30509666
vn 0.22658025 0.61424476 -0.75588673
vn 0.28482637 0.3992926 -0.87145823
vn 0.08798442 0.9422915 -0.32302547
vn 0.13623819 0.6799215 -0.72051775
vn 0.1778995 0.4162035 -0.89169866
vn 0.04442796 0.9705146 -0.23691234
vn -0.2866638 0.52623737 -0.8005611
vn -0.4101355 0.3586971 -0.83852565
vn -0.4766663 0.36302572 -0.8006258
vn -0.42944965 0.6010814 -0.67399865
vn -0.13695396 0.9626953 -0.2333696
vn -0.11325707 0.37484738 -0.92014253
vn -0.16221586 0.94238794 -0.29255942
vn -0.104393624 0.59714603 -0.7953103
vn -0.29521734 0.3901667 -0.8721334
vn -0.008414938 0.9332337 -0.3591713
vn -0.24213244 0.6669888 -0.70462596
vn -0.034720685 0.9630975 -0.26690373
vn -0.17102545 0.9635009 -0.20595221
vn 0.26525688 0.96274656 0.052515
vn 0.20367569 0.96806866 0.14614856
vn 0.015990792 0.95953256 0.28114325
vn -0 1 0
vn -0.048440706 0.95468664 0.29364446
vn 0.27940688 0.9580896 -0.06321436
vn -0.013873131 0.9576639 0.28755444
vn -0 1 0
vn -0.27891627 0.9603126 -0.002334792
vn -0.3055095 0.94244725 -0.13585669
vn -0.0677161 0.9472106 0.31337926
vn -0.27839833 0.95793414 0.06968892
vn -0.13102488 0.8638187 -0.48646665
vn -0.13695396 0.9626953 -0.2333696
vn -0.16221586 0.94238794 -0.29255942
vn -0.008414938 0.9332337 -0.3591713
vn -0.034720685 0.9630975 -0.26690373
vn -0.17102545 0.9635009 -0.20595221
vn 0.04442796 0.9705146 -0.23691234
vn -0.010838506 0.952774 -0.3034869
vn 0.074505016 0.9588611 -0.273924
vn 0.21820168 0.96358925 -0.15454388
vn 0.08798442 0.9422915 -0.32302547
vn -0.049374584 0.9510406 -0.30509666
vn -0.18068856 0.9509497 -0.25109044
vn -0.2866638 0.52623737 -0.8005611
vn -0.13695396 0.9626953 -0.2333696
vn -0.13102488 0.8638187 -0.48646665
vn -0.41751137 0.5624572 -0.71367085
vn -0.4101355 0.3586971 -0.83852565
vn -0.4238641 0.36432397 -0.82922083
vn -0.3055095 0.94244725 -0.13585669
vn -0.8800763 0.26562575 -0.3935844
vn -0.7958958 0.54691046 -0.2596899
vn -0.27891627 0.9603126 -0.002334792
vn -0.99301744 0.117965706 0.000676485
vn -0.8477738 0.5303549 0.0018227788
vn -0.92939657 0.0912945 0.3576133
vn -0.27839833 0.95793414 0.06968892
vn -0.7979224 0.5167698 0.31027225
vn -0.39701232 0.049710494 0.91646606
vn -0.3485721 0.5020204 0.79150045
vn -0.0677161 0.9472106 0.31337926
vn 0.3611806 0.4338512 -0.8254221
vn 0.7355157 0.42255744 -0.5295865
vn 0.61179805 0.66788644 -0.4238289
vn 0.26946434 0.6731141 -0.688699
vn 0.21820168 0.96358925 -0.15454388
vn -0.05708839 0.39207542 -0.91815996
vn 0.074505016 0.9588611 -0.273924
vn -0.04744625 0.6269253 -0.7776333
vn 0.1778995 0.4162035 -0.89169866
vn -0.010838506 0.952774 -0.3034869
vn 0.13623819 0.6799215 -0.72051775
vn 0.04442796 0.9705146 -0.23691234
vn -0.053928427 0.0055034608 0.9985297
vn -0.39701232 0.049710494 0.91646606
vn -0.3485721 0.5020204 0.79150045
vn -0.046625137 0.46877736 0.88208497
vn -0.0677161 0.9472106 0.31337926
vn -0.013873131 0.9576639 0.28755444
vn -0.048440706 0.95468664 0.29364446
vn -0.14493981 0.47043195 0.87045175
vn -0.16526766 0.011988864 0.98617584
vn 0.015990792 0.95953256 0.28114325
vn 0.15762135 0.5319875 0.83195245
vn 0.20367569 0.96806866 0.14614856
vn 0.19112101 0.07588646 0.97862864
vn 0.6168794 0.56418353 0.5487775
vn 0.73892105 0.1596934 0.65459424
g obj_rock3_bottom_0
f 3/3/3 2/2/2 1/1/1
f 1/1/1 2/2/2 4/4/4
f 4/4/4 5/5/5 1/1/1
f 5/5/5 4/4/4 6/6/6
f 4/4/4 2/2/2 7/7/7
f 6/6/6 4/4/4 7/7/7
f 8/8/8 7/7/7 2/2/2
f 6/6/6 7/7/7 9/9/9
f 10/10/10 7/7/7 8/8/8
f 9/9/9 7/7/7 10/10/10
f 8/8/8 11/11/11 10/10/10
f 10/10/10 12/12/12 9/9/9
f 15/15/15 14/14/14 13/13/13
f 13/13/13 14/14/14 16/16/16
f 16/16/16 14/14/14 17/17/17
f 17/17/17 18/18/18 16/16/16
f 13/13/13 16/16/16 19/19/19
f 18/18/18 20/20/20 16/16/16
f 19/19/19 16/16/16 20/20/20
f 21/21/21 20/20/20 18/18/18
f 19/19/19 20/20/20 22/22/22
f 22/22/22 20/20/20 21/21/21
f 22/22/22 23/23/23 19/19/19
f 21/21/21 24/24/24 22/22/22
f 23/23/23 22/22/22 25/25/25
f 25/25/25 22/22/22 24/24/24
f 25/25/25 26/26/26 23/23/23
f 24/24/24 27/27/27 25/25/25
f 30/30/30 29/29/29 28/28/28
f 30/30/30 28/28/28 31/31/31
f 31/31/31 28/28/28 32/32/32
f 30/30/30 31/31/31 33/33/33
f 32/32/32 34/34/34 31/31/31
f 33/33/33 31/31/31 35/35/35
f 34/34/34 35/35/35 31/31/31
f 36/36/36 33/33/33 35/35/35
f 37/37/37 35/35/35 34/34/34
f 38/38/38 36/36/36 35/35/35
f 38/38/38 35/35/35 37/37/37
f 37/37/37 39/39/39 38/38/38
f 39/39/39 40/40/40 38/38/38
f 43/43/43 42/42/42 41/41/41
f 43/43/43 41/41/41 44/44/44
f 44/44/44 45/45/45 43/43/43
f 44/44/44 41/41/41 46/46/46
f 47/47/47 45/45/45 44/44/44
f 44/44/44 48/48/48 47/47/47
f 49/49/49 47/47/47 48/48/48
f 50/50/50 49/49/49 48/48/48
f 51/51/51 47/47/47 49/49/49
f 49/49/49 52/52/52 51/51/51
f 53/53/53 50/50/50 48/48/48
f 53/53/53 48/48/48 54/54/54
f 54/54/54 48/48/48 55/55/55
f 56/56/56 55/55/55 48/48/48
f 56/56/56 48/48/48 57/57/57
f 58/58/58 57/57/57 48/48/48
f 58/58/58 48/48/48 44/44/44
f 44/44/44 46/46/46 59/59/59
f 44/44/44 59/59/59 58/58/58
f 46/46/46 60/60/60 59/59/59
f 46/46/46 61/61/61 60/60/60
f 62/62/62 61/61/61 46/46/46
f 59/59/59 63/63/63 58/58/58
f 63/63/63 64/64/64 58/58/58
f 64/64/64 65/65/65 58/58/58
f 68/68/68 67/67/67 66/66/66
f 66/66/66 69/69/69 68/68/68
f 66/66/66 70/70/70 69/69/69
f 70/70/70 71/71/71 69/69/69
f 69/69/69 72/72/72 68/68/68
f 69/69/69 71/71/71 73/73/73
f 69/69/69 74/74/74 72/72/72
f 73/73/73 74/74/74 69/69/69
f 75/75/75 72/72/72 74/74/74
f 74/74/74 73/73/73 76/76/76
f 74/74/74 77/77/77 75/75/75
f 76/76/76 77/77/77 74/74/74
f 77/77/77 76/76/76 78/78/78
f 79/79/79 75/75/75 77/77/77
f 78/78/78 80/80/80 77/77/77
f 80/80/80 79/79/79 77/77/77
f 80/80/80 78/78/78 81/81/81
f 81/81/81 82/82/82 80/80/80
f 79/79/79 80/80/80 82/82/82
f 82/82/82 83/83/83 79/79/79
f 86/86/86 85/85/85 84/84/84
f 84/84/84 87/87/87 86/86/86
f 88/88/88 86/86/86 87/87/87
f 89/89/89 87/87/87 84/84/84
f 87/87/87 90/90/90 88/88/88
f 87/87/87 89/89/89 91/91/91
f 91/91/91 90/90/90 87/87/87
f 91/91/91 89/89/89 92/92/92
f 90/90/90 91/91/91 93/93/93
f 92/92/92 94/94/94 91/91/91
f 93/93/93 91/91/91 94/94/94
f 94/94/94 95/95/95 93/93/93
f 98/98/98 97/97/97 96/96/96
f 96/96/96 99/99/99 98/98/98
f 99/99/99 100/100/100 98/98/98
f 100/100/100 99/99/99 101/101/101
f 102/102/102 101/101/101 99/99/99
f 99/99/99 96/96/96 103/103/103
f 99/99/99 103/103/103 102/102/102
f 96/96/96 104/104/104 103/103/103
f 105/105/105 102/102/102 103/103/103
f 103/103/103 104/104/104 106/106/106
f 103/103/103 106/106/106 105/105/105
f 107/107/107 105/105/105 106/106/106
f 104/104/104 108/108/108 106/106/106
f 106/106/106 109/109/109 107/107/107
f 108/108/108 109/109/109 106/106/106
f 110/110/110 109/109/109 108/108/108
