g obj_colmns1
v -0.13764185 -1.6088735 0.09348796
v -0.10366247 -1.6088736 0.059495702
v -0.01214839 -1.6088734 0.16588567
v -0.13764185 -1.1622072 0.093487926
v -0.10366247 -1.1622071 0.05949576
v -0.012148198 -1.1622071 0.16588575
v 0.8484358 -5.696712 0.05060796
v 0.74292356 -1.728583 0.10882984
v 0.7429235 -5.696712 0.10882986
v 0.8484359 -1.728583 0.050607987
v 0.9539483 -5.696712 0.108830035
v 0.9539482 -1.728583 0.10883
v 0.9539478 -5.696712 0.2252738
v 0.9539477 -1.728583 0.2252737
v 0.84843504 -5.696712 0.2834957
v 0.84843504 -1.728583 0.2834956
v 0.742923 -5.696712 0.22527368
v 0.742923 -1.728583 0.22527367
v 0.7429235 -5.696712 0.10882986
v 0.74292356 -1.728583 0.10882984
v -0.10366247 -1.6088736 0.059495702
v 0.5183438 -1.6088736 0.05949549
v 0.5183439 -1.6088734 0.16588625
v -0.01214839 -1.6088734 0.16588567
v -0.11577187 -1.7586153 0.0023569101
v 0.5183438 -1.7586153 0.0023566412
v 0.5183438 -1.6283051 0.04348851
v -0.11577188 -1.6283051 0.043488722
v 0.5183438 -1.6283051 0.04348851
v 0.5183438 -1.6088736 0.05949549
v -0.10366247 -1.6088736 0.059495702
v -0.11577188 -1.6283051 0.043488722
v 0.54027563 -0.54654044 -0.071250536
v 0.46180275 -0.5465403 -0.031887393
v 0.46180266 -1.7263169 -0.031887483
v 0.5402756 -1.7489624 -0.07125058
v 0.5402756 -1.7489624 -0.07125058
v 0.7717322 -1.7489624 -0.07125043
v 0.7717322 -0.54654044 -0.0712504
v 0.54027563 -0.54654044 -0.071250536
v 0.53072244 -1.6248901 0.087655105
v 0.53072244 -0.57883906 0.08765497
v -0.031577077 -0.5788391 0.087655105
v -0.031576615 -1.6248901 0.0876553
v -0.10366247 -1.1622071 0.05949576
v 0.5183438 -1.1622071 0.059495565
v 0.5183439 -1.1622071 0.16588633
v -0.012148198 -1.1622071 0.16588575
v -0.11577187 -1.3119488 0.0023569101
v 0.5183438 -1.3119489 0.0023566796
v 0.5183438 -1.1816387 0.043488566
v -0.11577188 -1.1816387 0.043488815
v 0.5183438 -1.1816387 0.043488566
v 0.5183438 -1.1622071 0.059495565
v -0.10366247 -1.1622071 0.05949576
v -0.11577188 -1.1816387 0.043488815
v -0.012148072 -1.6088735 1.0232954
v -0.13764156 -1.6088735 1.0232952
v -0.13764185 -1.6088735 0.09348796
v -0.01214839 -1.6088734 0.16588567
v -0.15306975 -1.6283051 1.0232952
v -0.1530697 -1.7586153 0.9821633
v -0.15307003 -1.7586154 0.039646957
v -0.15306987 -1.628305 0.080778785
v -0.13764185 -1.6088735 0.09348796
v -0.13764156 -1.6088735 1.0232952
v -0.15306975 -1.6283051 1.0232952
v -0.15306987 -1.628305 0.080778785
v -0.08429215 -0.5788391 0.14775304
v -0.084291846 -0.5788391 1.0356739
v -0.08429188 -1.62489 1.0356739
v -0.08429173 -1.6248901 0.14775321
v -0.01214788 -1.1622071 1.0232954
v -0.13764153 -1.1622071 1.0232952
v -0.13764185 -1.1622072 0.093487926
v -0.012148198 -1.1622071 0.16588575
v -0.1530696 -1.1816386 1.0232952
v -0.15306956 -1.311949 0.9821633
v -0.15306988 -1.3119488 0.039646916
v -0.15306987 -1.1816388 0.08077882
v -0.13764185 -1.1622072 0.093487926
v -0.13764153 -1.1622071 1.0232952
v -0.1530696 -1.1816386 1.0232952
v -0.15306987 -1.1816388 0.08077882
v 1.0031885 -0.54654044 -0.07125025
v 1.0031885 -1.7489624 -0.07125029
v 1.0816617 -1.7263169 -0.031887252
v 1.0816617 -0.5465403 -0.031887174
v 0.7717322 -0.54654044 -0.0712504
v 0.7717322 -1.7489624 -0.07125043
v 1.0031885 -1.7489624 -0.07125029
v 1.0031885 -0.54654044 -0.07125025
v -0.15306987 -1.628305 0.080778785
v -0.15307003 -1.7586154 0.039646957
v -0.11577187 -1.7586153 0.0023569101
v -0.11577188 -1.6283051 0.043488722
v -0.10366247 -1.6088736 0.059495702
v -0.13764185 -1.6088735 0.09348796
v -0.15306987 -1.628305 0.080778785
v -0.11577188 -1.6283051 0.043488722
v -0.15306987 -1.1816388 0.08077882
v -0.15306988 -1.3119488 0.039646916
v -0.11577187 -1.3119488 0.0023569101
v -0.11577188 -1.1816387 0.043488815
v -0.10366247 -1.1622071 0.05949576
v -0.13764185 -1.1622072 0.093487926
v -0.15306987 -1.1816388 0.08077882
v -0.11577188 -1.1816387 0.043488815
v -0.031577077 -0.5788391 0.087655105
v -0.08429215 -0.5788391 0.14775304
v -0.08429173 -1.6248901 0.14775321
v -0.031576615 -1.6248901 0.0876553
v 0.72596884 -5.6967115 0.08765515
v 0.72596884 -1.6103346 0.087654956
v 0.09640145 -1.6103346 0.087655105
v 0.09640232 -5.6967115 0.08765539
v 0.0072645484 -5.6967115 0.14775334
v 0.00726378 -1.6103346 0.1477531
v 0.00726378 -1.6103346 0.1477531
v 0.007264241 -1.6103348 1.0356739
v 0.007264241 -5.696713 1.0356741
v 0.0072645484 -5.6967115 0.14775334
v 0.8173182 -5.6967115 0.14775318
v 0.8173174 -1.6103346 0.147753
v 0.72596884 -1.6103346 0.087654956
v 0.72596884 -5.6967115 0.08765515
vt 0.38112202 0.8237792
vt 0.40882653 0.8237792
vt 0.38112205 0.8256185
vt 0.38112202 0.8109535
vt 0.40882653 0.8109535
vt 0.38112205 0.81341875
vt 0.2686318 0.72863245
vt 0.21060161 0.729452
vt 0.2686318 0.729452
vt 0.21060161 0.72863245
vt 0.2686318 0.7278128
vt 0.21060161 0.7278128
vt 0.2686318 0.72699314
vt 0.21060161 0.72699314
vt 0.2686318 0.7261736
vt 0.21060161 0.7261736
vt 0.2686318 0.7253539
vt 0.21060161 0.7253539
vt 0.2686318 0.7245343
vt 0.21060161 0.7245343
vt 0.40882653 0.8237792
vt 0.37839434 0.8237792
vt 0.37839437 0.8256866
vt 0.40882653 0.8256866
vt 0.40882647 0.8145469
vt 0.3783943 0.8145469
vt 0.3783943 0.8219981
vt 0.40882647 0.8219981
vt 0.3783943 0.8219981
vt 0.37839434 0.8237792
vt 0.40882653 0.8237792
vt 0.40882647 0.8219981
vt 0.41237965 0.7620432
vt 0.41629562 0.7620432
vt 0.41629562 0.7246877
vt 0.41237965 0.7246877
vt 0.41237965 0.7246877
vt 0.40260133 0.7246877
vt 0.40260133 0.7620432
vt 0.41237965 0.7620432
vt 0.27697614 0.7272175
vt 0.27697614 0.76054674
vt 0.3044251 0.76054674
vt 0.3044251 0.7272175
vt 0.40882653 0.8109535
vt 0.37839434 0.8109535
vt 0.37839437 0.81321466
vt 0.40882653 0.81321466
vt 0.40882647 0.8020749
vt 0.3783943 0.8020749
vt 0.3783943 0.8091724
vt 0.40882647 0.8091724
vt 0.3783943 0.8091724
vt 0.37839434 0.8109535
vt 0.40882653 0.8109535
vt 0.40882647 0.8091724
vt 0.37839437 0.8256866
vt 0.37839434 0.8237792
vt 0.40882653 0.8237792
vt 0.40882653 0.8256866
vt 0.3783943 0.8219981
vt 0.3783943 0.8145469
vt 0.40882647 0.8145469
vt 0.40882647 0.8219981
vt 0.40882653 0.8237792
vt 0.37839434 0.8237792
vt 0.3783943 0.8219981
vt 0.40882647 0.8219981
vt 0.3044251 0.76054674
vt 0.27697614 0.76054674
vt 0.27697614 0.7272175
vt 0.3044251 0.7272175
vt 0.37839437 0.81321466
vt 0.37839434 0.8109535
vt 0.40882653 0.8109535
vt 0.40882653 0.81321466
vt 0.3783943 0.8091724
vt 0.3783943 0.8020749
vt 0.40882647 0.8020749
vt 0.40882647 0.8091724
vt 0.40882653 0.8109535
vt 0.37839434 0.8109535
vt 0.3783943 0.8091724
vt 0.40882647 0.8091724
vt 0.41237965 0.7620432
vt 0.41237965 0.7246877
vt 0.41629562 0.7246877
vt 0.41629562 0.7620432
vt 0.40260133 0.7620432
vt 0.40260133 0.7246877
vt 0.41237965 0.7246877
vt 0.41237965 0.7620432
vt 0.381122 0.8219981
vt 0.381122 0.8145469
vt 0.40882647 0.8145469
vt 0.40882647 0.8219981
vt 0.40882653 0.8237792
vt 0.38112202 0.8237792
vt 0.381122 0.8219981
vt 0.40882647 0.8219981
vt 0.381122 0.8091724
vt 0.381122 0.8020749
vt 0.40882647 0.8020749
vt 0.40882647 0.8091724
vt 0.40882653 0.8109535
vt 0.38112202 0.8109535
vt 0.381122 0.8091724
vt 0.40882647 0.8091724
vt 0.27697614 0.76054674
vt 0.27308634 0.76054674
vt 0.27308634 0.7272175
vt 0.27697614 0.7272175
vt 0.39800438 0.7331389
vt 0.31535926 0.7331389
vt 0.31535926 0.7570087
vt 0.39800438 0.7570087
vt 0.39800444 0.7606174
vt 0.31535932 0.7606174
vt 0.31535926 0.7570087
vt 0.31535926 0.7331389
vt 0.39800438 0.7331389
vt 0.39800438 0.7570087
vt 0.39800444 0.7606174
vt 0.31535932 0.7606174
vt 0.31535932 0.7570088
vt 0.39800444 0.7570088
vn 2.0416796E-07 1 -1.9854253E-06
vn 5.569679E-07 1 -3.3676292E-06
vn -2.2029285E-07 1 -1.620739E-06
vn -2.070528E-06 1 1.9192908E-06
vn -2.092215E-06 1 2.3794773E-06
vn -5.263656E-07 1 4.0260548E-07
vn 5.2006925E-07 0 -1
vn -0.8611404 0 -0.50836724
vn -0.8611404 0 -0.5083671
vn 5.4173876E-07 0 -1
vn 0.8611429 0 -0.50836307
vn 0.8611429 0 -0.50836307
vn 0.8611401 0 0.50836784
vn 0.8611401 0 0.50836784
vn -1.6252159E-06 0 1
vn -1.6252159E-06 0 1
vn -0.86114305 0 0.5083627
vn -0.86114305 0 0.5083627
vn -0.8611404 0 -0.5083671
vn -0.8611404 0 -0.50836724
vn 5.569679E-07 1 -3.3676292E-06
vn -0 1 -2.8885324E-06
vn -0 1 -2.8885324E-06
vn -2.2029285E-07 1 -1.620739E-06
vn -0.3442662 0.2826068 -0.895329
vn -3.6048837E-07 0.30100676 -0.953622
vn -3.6048831E-07 0.30100676 -0.953622
vn -0.39526293 0.2764952 -0.87596667
vn -2.5955455E-07 0.6358155 -0.771841
vn -2.5955453E-07 0.63581556 -0.771841
vn -0.23335443 0.70083106 -0.6740783
vn -0.29238087 0.7100513 -0.64057827
vn -0.44836757 0 -0.8938493
vn -0.4483675 0 -0.8938493
vn -0.4483675 0 -0.8938493
vn -0.44836748 0 -0.8938493
vn 6.0162796E-07 0 -1
vn 6.22374E-07 0 -1
vn 6.22374E-07 0 -1
vn 6.0162796E-07 0 -1
vn -2.9034268E-07 -1.5607228E-07 -1
vn -2.9034268E-07 -1.5607228E-07 -1
vn -0.41266173 -3.2150095E-07 -0.9108843
vn -0.41266164 -3.215009E-07 -0.91088444
vn -2.092215E-06 1 2.3794773E-06
vn -0 1 3.8973715E-07
vn -0 1 3.8973715E-07
vn -5.263656E-07 1 4.0260548E-07
vn -0.34426594 0.28260732 -0.895329
vn -3.2421622E-07 0.30100718 -0.95362186
vn -3.2421624E-07 0.30100712 -0.95362186
vn -0.3952627 0.27649575 -0.87596655
vn -2.7140345E-07 0.63581234 -0.7718437
vn -2.7140345E-07 0.63581234 -0.7718437
vn -0.23335654 0.7008285 -0.6740802
vn -0.29238442 0.7100489 -0.6405793
vn -6.370069E-07 1 0
vn -6.370069E-07 1 0
vn 2.0416796E-07 1 -1.9854253E-06
vn -2.2029285E-07 1 -1.620739E-06
vn -1 4.4190816E-07 2.343519E-07
vn -1 4.4190818E-07 2.343519E-07
vn -0.8881349 0.13833776 -0.43826827
vn -0.94414103 0.09919462 -0.31425825
vn -0.6835495 0.6928224 -0.22968929
vn -0.7831668 0.62181157 2.118161E-07
vn -0.7831668 0.6218116 2.118161E-07
vn -0.6431484 0.70538056 -0.2979904
vn -0.93588835 -3.2762588E-07 -0.35229677
vn -1 -1.8361433E-07 0
vn -1 -1.8361433E-07 0
vn -0.93588835 -3.276259E-07 -0.3522968
vn -5.874066E-07 1 0
vn -5.8740665E-07 1 0
vn -2.070528E-06 1 1.9192908E-06
vn -5.263656E-07 1 4.0260548E-07
vn -1 -1.7339887E-07 3.1586558E-07
vn -1 -1.7339886E-07 3.158656E-07
vn -0.8881348 0.13833794 -0.4382685
vn -0.94414103 0.0991945 -0.31425825
vn -0.6835513 0.69282055 -0.22968969
vn -0.7831674 0.621811 1.13454625E-07
vn -0.78316736 0.621811 1.1345463E-07
vn -0.64315194 0.70537806 -0.2979888
vn 0.44836593 0 -0.8938501
vn 0.44836593 0 -0.8938501
vn 0.44836593 0 -0.8938501
vn 0.44836593 0 -0.8938501
vn 6.22374E-07 0 -1
vn 6.22374E-07 0 -1
vn 6.431202E-07 0 -1
vn 6.431202E-07 0 -1
vn -0.94414103 0.09919462 -0.31425825
vn -0.8881349 0.13833776 -0.43826827
vn -0.3442662 0.2826068 -0.895329
vn -0.39526293 0.2764952 -0.87596667
vn -0.23335443 0.70083106 -0.6740783
vn -0.6835495 0.6928224 -0.22968929
vn -0.6431484 0.70538056 -0.2979904
vn -0.29238087 0.7100513 -0.64057827
vn -0.94414103 0.0991945 -0.31425825
vn -0.8881348 0.13833794 -0.4382685
vn -0.34426594 0.28260732 -0.895329
vn -0.3952627 0.27649575 -0.87596655
vn -0.23335654 0.7008285 -0.6740802
vn -0.6835513 0.69282055 -0.22968969
vn -0.64315194 0.70537806 -0.2979888
vn -0.29238442 0.7100489 -0.6405793
vn -0.41266173 -3.2150095E-07 -0.9108843
vn -0.93588835 -3.2762588E-07 -0.35229677
vn -0.93588835 -3.276259E-07 -0.3522968
vn -0.41266164 -3.215009E-07 -0.91088444
vn 0.2868649 0 -0.9579711
vn 0.28686485 0 -0.9579711
vn -0.2922754 -1.1663558E-07 -0.95633423
vn -0.29227528 -1.1663557E-07 -0.95633423
vn -0.8829004 -1.4630021E-07 -0.46956047
vn -0.88290024 -1.4630027E-07 -0.46956074
vn -0.88290024 -1.4630027E-07 -0.46956074
vn -1 0 0
vn -1 0 0
vn -0.8829004 -1.4630021E-07 -0.46956047
vn 0.5496167 0 -0.835417
vn 0.5496168 0 -0.835417
vn 0.28686485 0 -0.9579711
vn 0.2868649 0 -0.9579711
g obj_colmns1_0
f 3/3/3 2/2/2 1/1/1
f 6/6/6 5/5/5 4/4/4
f 9/9/9 8/8/8 7/7/7
f 8/8/8 10/10/10 7/7/7
f 7/7/7 10/10/10 11/11/11
f 10/10/10 12/12/12 11/11/11
f 11/11/11 12/12/12 13/13/13
f 12/12/12 14/14/14 13/13/13
f 13/13/13 14/14/14 15/15/15
f 14/14/14 16/16/16 15/15/15
f 15/15/15 16/16/16 17/17/17
f 16/16/16 18/18/18 17/17/17
f 17/17/17 18/18/18 19/19/19
f 18/18/18 20/20/20 19/19/19
f 23/23/23 22/22/22 21/21/21
f 24/24/24 23/23/23 21/21/21
f 27/27/27 26/26/26 25/25/25
f 28/28/28 27/27/27 25/25/25
f 31/31/31 30/30/30 29/29/29
f 32/32/32 31/31/31 29/29/29
f 35/35/35 34/34/34 33/33/33
f 36/36/36 35/35/35 33/33/33
f 39/39/39 38/38/38 37/37/37
f 40/40/40 39/39/39 37/37/37
f 43/43/43 42/42/42 41/41/41
f 44/44/44 43/43/43 41/41/41
f 47/47/47 46/46/46 45/45/45
f 48/48/48 47/47/47 45/45/45
f 51/51/51 50/50/50 49/49/49
f 52/52/52 51/51/51 49/49/49
f 55/55/55 54/54/54 53/53/53
f 56/56/56 55/55/55 53/53/53
f 59/59/59 58/58/58 57/57/57
f 60/60/60 59/59/59 57/57/57
f 63/63/63 62/62/62 61/61/61
f 64/64/64 63/63/63 61/61/61
f 67/67/67 66/66/66 65/65/65
f 68/68/68 67/67/67 65/65/65
f 71/71/71 70/70/70 69/69/69
f 72/72/72 71/71/71 69/69/69
f 75/75/75 74/74/74 73/73/73
f 76/76/76 75/75/75 73/73/73
f 79/79/79 78/78/78 77/77/77
f 80/80/80 79/79/79 77/77/77
f 83/83/83 82/82/82 81/81/81
f 84/84/84 83/83/83 81/81/81
f 87/87/87 86/86/86 85/85/85
f 88/88/88 87/87/87 85/85/85
f 91/91/91 90/90/90 89/89/89
f 92/92/92 91/91/91 89/89/89
f 95/95/95 94/94/94 93/93/93
f 96/96/96 95/95/95 93/93/93
f 99/99/99 98/98/98 97/97/97
f 100/100/100 99/99/99 97/97/97
f 103/103/103 102/102/102 101/101/101
f 104/104/104 103/103/103 101/101/101
f 107/107/107 106/106/106 105/105/105
f 108/108/108 107/107/107 105/105/105
f 111/111/111 110/110/110 109/109/109
f 112/112/112 111/111/111 109/109/109
f 115/115/115 114/114/114 113/113/113
f 116/116/116 115/115/115 113/113/113
f 116/116/116 117/117/117 115/115/115
f 117/117/117 118/118/118 115/115/115
f 121/121/121 120/120/120 119/119/119
f 122/122/122 121/121/121 119/119/119
f 125/125/125 124/124/124 123/123/123
f 126/126/126 125/125/125 123/123/123
