g obj_glacier_big2_2
v 0.84438574 -2.04485 -1.2038238
v 0.95452493 -2.0557196 -1.0460984
v 0.8887027 -2.1181943 -0.98247635
v 0.769035 -2.1063275 -1.1549516
v 0.6776805 -2.2345731 -1.1492422
v 0.6831918 -2.2220743 -1.2921046
v 0.8352114 -2.252464 -0.94475156
v 0.76874757 -2.095761 -1.2544975
v 0.8257285 -2.2046106 -1.4917096
v 1.06642 -2.131091 -0.81714463
v 1.0400883 -2.2702122 -0.7418849
v 1.1756814 -2.2695963 -0.7182134
v 0.8789659 -2.0790763 -1.421899
v 1.1115947 -2.0628896 -0.9218321
v 0.95452493 -2.0557196 -1.0460984
v 1.1365811 -1.9644965 -1.1048245
v 1.1625167 -2.1329122 -0.80202186
v 1.4301296 -2.2630432 -0.8238302
v 1.2793574 -2.0547287 -0.9615428
v 1.3639668 -2.126277 -0.885908
v 1.4645928 -2.102441 -1.1503091
v 1.5657594 -2.2324383 -1.173646
v 1.3469777 -2.030958 -1.197977
v 1.4520813 -2.0951784 -1.2488788
v 1.5264429 -2.2208025 -1.3066392
v 1.3580137 -2.2046123 -1.4916955
v 1.303103 -2.0805488 -1.412758
v 1.1075674 -2.1977189 -1.5655082
v 1.2320307 -2.0218346 -1.3321192
v 1.095747 -2.074704 -1.4728074
v 1.0014372 -2.1983988 -1.5627129
v 1.0596699 -2.0221577 -1.3831267
v 1.0203793 -2.0747454 -1.4718683
v 0.94111127 -2.0291786 -1.3492606
vt 0.8642386 0.57625055
vt 0.86814535 0.5667182
vt 0.86814535 0.54928243
vt 0.86536515 0.54944295
vt 0.8657958 0.5388386
vt 0.86389965 0.5388386
vt 0.86814535 0.5388386
vt 0.8638417 0.549454
vt 0.8607181 0.5388386
vt 0.86464274 0.5492032
vt 0.8649061 0.5388386
vt 0.86397564 0.5388386
vt 0.8607048 0.549465
vt 0.86445105 0.57528275
vt 0.86814535 0.57587
vt 0.86079913 0.6056956
vt 0.8637924 0.54957277
vt 0.8616195 0.5388386
vt 0.86149853 0.5748976
vt 0.86160755 0.54938173
vt 0.8586687 0.54957277
vt 0.85854983 0.5388386
vt 0.85770047 0.57528275
vt 0.85766876 0.54920334
vt 0.85744524 0.5388386
vt 0.8544633 0.5388386
vt 0.8544633 0.5492825
vt 0.8566756 0.5388386
vt 0.8544633 0.57587004
vt 0.85714006 0.54944295
vt 0.858312 0.5388386
vt 0.85804224 0.57625055
vt 0.85835004 0.54945403
vt 0.860571 0.5762505
vn -0.42946026 0.89989686 0.07582608
vn -0.35844472 0.8547618 0.37536597
vn -0.53708446 0.6606913 0.52443045
vn -0.6769095 0.67510414 0.29330522
vn -0.78942394 0.54184675 0.28846487
vn -0.7855689 0.585569 -0.19997607
vn -0.6478241 0.46168354 0.6059473
vn -0.68113595 0.7156943 -0.15438756
vn -0.52651113 0.5927921 -0.60941243
vn -0.31689498 0.6686238 0.67269593
vn -0.36706287 0.49157336 0.7896965
vn 0.091982655 0.5220872 0.84791756
vn -0.44655603 0.7394128 -0.50384164
vn -0.10933853 0.8701832 0.48044392
vn -0.35844472 0.8547618 0.37536597
vn 0.0017289824 0.98710155 0.16008589
vn 0.07595769 0.6843092 0.72522515
vn 0.568148 0.5543879 0.60816276
vn 0.2777309 0.8850435 0.37358218
vn 0.4812083 0.7026616 0.52412325
vn 0.6716065 0.7238519 0.15806
vn 0.81064117 0.57880086 0.088602185
vn 0.40200543 0.91519076 -0.028592763
vn 0.6273766 0.7399452 -0.2426516
vn 0.7222883 0.59161353 -0.35818022
vn 0.44977602 0.6139996 -0.6486185
vn 0.3797777 0.7482268 -0.54399043
vn 0.11228081 0.602162 -0.7904391
vn 0.2165527 0.9268664 -0.30663258
vn 0.1007269 0.7422014 -0.66256404
vn -0.16669889 0.5933692 -0.7874799
vn -0.023419717 0.9330765 -0.3589147
vn -0.14022382 0.7414302 -0.65621525
vn -0.26271886 0.9317813 -0.25052443
g obj_glacier_big2_2_0
f 3/3/3 2/2/2 1/1/1
f 4/4/4 3/3/3 1/1/1
f 3/3/3 4/4/4 5/5/5
f 6/6/6 5/5/5 4/4/4
f 7/7/7 3/3/3 5/5/5
f 8/8/8 6/6/6 4/4/4
f 4/4/4 1/1/1 8/8/8
f 9/9/9 6/6/6 8/8/8
f 3/3/3 7/7/7 10/10/10
f 7/7/7 11/11/11 10/10/10
f 11/11/11 12/12/12 10/10/10
f 13/13/13 9/9/9 8/8/8
f 8/8/8 1/1/1 13/13/13
f 10/10/10 14/14/14 3/3/3
f 14/14/14 15/15/15 3/3/3
f 16/16/16 1/1/1 15/15/15
f 14/14/14 16/16/16 15/15/15
f 12/12/12 17/17/17 10/10/10
f 10/10/10 17/17/17 14/14/14
f 17/17/17 12/12/12 18/18/18
f 19/19/19 14/14/14 17/17/17
f 16/16/16 14/14/14 19/19/19
f 20/20/20 17/17/17 18/18/18
f 20/20/20 19/19/19 17/17/17
f 20/20/20 18/18/18 21/21/21
f 19/19/19 20/20/20 21/21/21
f 18/18/18 22/22/22 21/21/21
f 23/23/23 19/19/19 21/21/21
f 16/16/16 19/19/19 23/23/23
f 22/22/22 24/24/24 21/21/21
f 21/21/21 24/24/24 23/23/23
f 25/25/25 24/24/24 22/22/22
f 25/25/25 26/26/26 24/24/24
f 26/26/26 27/27/27 24/24/24
f 23/23/23 24/24/24 27/27/27
f 27/27/27 26/26/26 28/28/28
f 16/16/16 23/23/23 29/29/29
f 29/29/29 23/23/23 27/27/27
f 30/30/30 27/27/27 28/28/28
f 28/28/28 31/31/31 30/30/30
f 29/29/29 27/27/27 32/32/32
f 16/16/16 29/29/29 32/32/32
f 27/27/27 30/30/30 32/32/32
f 31/31/31 33/33/33 30/30/30
f 30/30/30 33/33/33 32/32/32
f 33/33/33 31/31/31 9/9/9
f 13/13/13 33/33/33 9/9/9
f 33/33/33 13/13/13 32/32/32
f 16/16/16 32/32/32 34/34/34
f 13/13/13 34/34/34 32/32/32
f 16/16/16 34/34/34 1/1/1
f 1/1/1 34/34/34 13/13/13
