g obj_pillar1
v 0.22223099 0.38981396 0.5479884
v 0.78436965 0.38981396 0.54798883
v 0.78436965 -7.6828E-08 0.61918086
v 0.22223099 -7.6828E-08 0.6191805
v 0.8808275 0.38981387 0.4797152
v 0.9011969 0.38955915 0.30994493
v 0.9011969 2.88105E-07 0.37207222
v 0.8808275 7.6828E-08 0.5509074
v 0.13562132 0.38981384 0.47971466
v 0.13562132 7.6828E-08 0.55090696
v 0.091486245 2.88105E-07 0.3720718
v 0.091486245 0.38955915 0.30994445
v 0.84367424 0.423269 0.4518583
v 0.7689802 0.42326897 0.4991087
v 0.2376204 0.42326897 0.4991083
v 0.8570572 0.42326927 0.2976305
v 0.13562585 0.42326927 0.29763007
v 0.17277457 0.42326897 0.45185786
v 0.13562132 7.6828E-08 0.55090696
v 0.13562132 0.38981384 0.47971466
v 0.22223099 0.38981396 0.5479884
v 0.22223099 -7.6828E-08 0.6191805
v 0.78436965 -7.6828E-08 0.61918086
v 0.78436965 0.38981396 0.54798883
v 0.8808275 0.38981387 0.4797152
v 0.8808275 7.6828E-08 0.5509074
v 0.78436965 0.38981396 0.54798883
v 0.22223099 0.38981396 0.5479884
v 0.2376204 0.42326897 0.4991083
v 0.7689802 0.42326897 0.4991087
v 0.9011969 0.38955915 0.30994493
v 0.8808275 0.38981387 0.4797152
v 0.84367424 0.423269 0.4518583
v 0.8570572 0.42326927 0.2976305
v 0.13562132 0.38981384 0.47971466
v 0.091486245 0.38955915 0.30994445
v 0.13562585 0.42326927 0.29763007
v 0.17277457 0.42326897 0.45185786
v 0.22223099 0.38981396 0.5479884
v 0.13562132 0.38981384 0.47971466
v 0.17277457 0.42326897 0.45185786
v 0.2376204 0.42326897 0.4991083
v 0.8808275 0.38981387 0.4797152
v 0.78436965 0.38981396 0.54798883
v 0.7689802 0.42326897 0.4991087
v 0.84367424 0.423269 0.4518583
v 0.28917107 1.9815196 0.007919008
v 0.7178274 1.9815196 0.007919431
v 0.74024117 1.9185194 0.048333917
v 0.26675728 1.9185194 0.048333455
v 0.77325046 1.9982731 -0.03811848
v 0.7985308 1.9815198 -0.3188993
v 0.8293845 1.9185196 -0.34869653
v 0.8014603 1.9185195 -0.0026036627
v 0.23374812 1.9815196 -0.038118906
v 0.20553826 1.9185195 -0.0026041234
v 0.17761424 1.9185199 -0.34869707
v 0.20846778 1.9815198 -0.31889975
v 0.21750084 0.423269 0.38765332
v 0.20553826 1.9185195 -0.0026041234
v 0.26675728 1.9185194 0.048333455
v 0.27626196 0.4232687 0.43859082
v 0.78949773 0.423269 0.38765377
v 0.7307366 0.4232687 0.4385912
v 0.74024117 1.9185194 0.048333917
v 0.8014603 1.9185195 -0.0026036627
v 0.23374812 1.9815196 -0.038118906
v 0.20846778 1.9815198 -0.31889975
v 0.28917107 1.981519 -0.3705436
v 0.28917107 1.9815196 0.007919008
v 0.7178274 1.981519 -0.3705436
v 0.7178274 1.9815196 0.007919431
v 0.7985308 1.9815198 -0.3188993
v 0.77325046 1.9982731 -0.03811848
v 0.7178274 1.981519 -0.3705436
v 0.28917107 1.981519 -0.3705436
v 0.26636118 1.9185193 -0.4058371
v 0.74063724 1.9185193 -0.4058371
v 0.20846778 1.9815198 -0.31889975
v 0.17761424 1.9185199 -0.34869707
v 0.26636118 1.9185193 -0.4058371
v 0.28917107 1.981519 -0.3705436
v 0.7985308 1.9815198 -0.3188993
v 0.7178274 1.981519 -0.3705436
v 0.74063724 1.9185193 -0.4058371
v 0.8293845 1.9185196 -0.34869653
v 0.27626196 0.4232687 0.43859082
v 0.26675728 1.9185194 0.048333455
v 0.74024117 1.9185194 0.048333917
v 0.7307366 0.4232687 0.4385912
v 0.8014603 1.9185195 -0.0026036627
v 0.8293845 1.9185196 -0.34869653
v 0.81630135 0.42326936 0.28702927
v 0.78949773 0.423269 0.38765377
v 0.19069813 0.42326927 0.2870289
v 0.17761424 1.9185199 -0.34869707
v 0.20553826 1.9185195 -0.0026041234
v 0.21750084 0.423269 0.38765332
v 0.28917107 1.9815196 0.007919008
v 0.26675728 1.9185194 0.048333455
v 0.20553826 1.9185195 -0.0026041234
v 0.23374812 1.9815196 -0.038118906
v 0.8014603 1.9185195 -0.0026036627
v 0.74024117 1.9185194 0.048333917
v 0.7178274 1.9815196 0.007919431
v 0.77325046 1.9982731 -0.03811848
vt 0.9786486 0.90141684
vt 0.9375215 0.90141684
vt 0.9375215 0.86499566
vt 0.9786486 0.86499566
vt 0.9897475 0.90108943
vt 0.99705017 0.90106547
vt 0.99705017 0.86466795
vt 0.9897475 0.86466795
vt 0.9897475 0.90108943
vt 0.9897475 0.86466795
vt 0.99705017 0.86466795
vt 0.99705017 0.90106547
vt 0.93602484 0.9221243
vt 0.94027346 0.9178754
vt 0.9930459 0.9178754
vt 0.9360251 0.93953264
vt 0.9972948 0.93953264
vt 0.9972948 0.9221243
vt 0.9876132 0.86466795
vt 0.9876132 0.90108943
vt 0.98124635 0.90108943
vt 0.98124635 0.86466795
vt 0.98124635 0.86466795
vt 0.98124635 0.90108943
vt 0.9876131 0.90108943
vt 0.9876131 0.86466795
vt 0.9375215 0.9029147
vt 0.9786486 0.9029147
vt 0.9786486 0.91237444
vt 0.9375215 0.91237444
vt 0.99705017 0.9025634
vt 0.9897475 0.9025872
vt 0.9897475 0.91237444
vt 0.99705017 0.91237444
vt 0.9897475 0.9025872
vt 0.99705017 0.9025634
vt 0.99705017 0.91237444
vt 0.9897475 0.91237444
vt 0.98124635 0.9025872
vt 0.9876131 0.9025872
vt 0.9876131 0.91237444
vt 0.98124635 0.91237444
vt 0.9876131 0.9025872
vt 0.98124635 0.9025872
vt 0.98124635 0.91237444
vt 0.9876131 0.91237444
vt 0.87658465 0.9910878
vt 0.9117364 0.9910878
vt 0.9117364 0.98425424
vt 0.87658465 0.98425424
vt 0.92245907 0.9910878
vt 0.9275535 0.9910878
vt 0.9275535 0.98425424
vt 0.92245907 0.98425424
vt 0.92245907 0.9910878
vt 0.92245907 0.98425424
vt 0.9275535 0.98425424
vt 0.9275535 0.9910878
vt 0.9200945 0.8883314
vt 0.9200945 0.9828936
vt 0.91475856 0.9828936
vt 0.91475856 0.8883314
vt 0.9200945 0.8883314
vt 0.91475856 0.8883314
vt 0.91475856 0.9828936
vt 0.9200945 0.9828936
vt 0.9941051 0.9568721
vt 0.9966563 0.98918194
vt 0.98851186 0.99439406
vt 0.98851186 0.95222574
vt 0.9452511 0.99439406
vt 0.9452511 0.95222574
vt 0.93710655 0.98918194
vt 0.9396577 0.9568721
vt 0.9117364 0.9910878
vt 0.87658465 0.9910878
vt 0.87658465 0.98425424
vt 0.9117364 0.98425424
vt 0.91475856 0.9910878
vt 0.91475856 0.98425424
vt 0.9200945 0.98425424
vt 0.9200945 0.9910891
vt 0.9200945 0.9910891
vt 0.91475856 0.9910878
vt 0.91475856 0.9842529
vt 0.9200945 0.984255
vt 0.87658465 0.8883314
vt 0.87658465 0.9828936
vt 0.9117364 0.9828936
vt 0.9117364 0.8883314
vt 0.92245907 0.9828936
vt 0.9275535 0.9828936
vt 0.9275535 0.8883314
vt 0.92245907 0.8883314
vt 0.9275535 0.8883314
vt 0.9275535 0.9828936
vt 0.92245907 0.9828936
vt 0.92245907 0.8883314
vt 0.91475856 0.9910878
vt 0.91475856 0.98425424
vt 0.9200945 0.98425424
vt 0.9200945 0.9910878
vt 0.9200945 0.98425424
vt 0.91475856 0.98425424
vt 0.91475856 0.9910878
vt 0.9200945 0.9910878
vn -0.28671473 0.51064503 0.8105778
vn 0.26476187 0.51218057 0.817051
vn 0.28918195 0.1719832 0.9416982
vn -0.31191775 0.17069602 0.93464977
vn 0.77200687 0.46254548 0.43595546
vn 0.870767 0.48209873 0.0966728
vn 0.9930468 0.019848982 0.1160352
vn 0.83548 0.0980807 0.54069716
vn -0.7484484 0.46981254 0.46808237
vn -0.8178126 0.10207579 0.5663596
vn -0.9685601 0.041947015 0.24521787
vn -0.8473002 0.48637116 0.21336715
vn 0.3235583 0.92891484 0.18007559
vn 0.099314965 0.94135445 0.32247227
vn -0.11134058 0.94023687 0.32180423
vn 0.31943095 0.9470362 0.03295832
vn -0.3313701 0.9398624 0.08278029
vn -0.3022196 0.93352133 0.19287588
vn -0.8178126 0.10207579 0.5663596
vn -0.7484484 0.46981254 0.46808237
vn -0.28671473 0.51064503 0.8105778
vn -0.31191775 0.17069602 0.93464977
vn 0.28918195 0.1719832 0.9416982
vn 0.26476187 0.51218057 0.817051
vn 0.77200687 0.46254548 0.43595546
vn 0.83548 0.0980807 0.54069716
vn 0.26476187 0.51218057 0.817051
vn -0.28671473 0.51064503 0.8105778
vn -0.11134058 0.94023687 0.32180423
vn 0.099314965 0.94135445 0.32247227
vn 0.870767 0.48209873 0.0966728
vn 0.77200687 0.46254548 0.43595546
vn 0.3235583 0.92891484 0.18007559
vn 0.31943095 0.9470362 0.03295832
vn -0.7484484 0.46981254 0.46808237
vn -0.8473002 0.48637116 0.21336715
vn -0.3313701 0.9398624 0.08278029
vn -0.3022196 0.93352133 0.19287588
vn -0.28671473 0.51064503 0.8105778
vn -0.7484484 0.46981254 0.46808237
vn -0.3022196 0.93352133 0.19287588
vn -0.11134058 0.94023687 0.32180423
vn 0.77200687 0.46254548 0.43595546
vn 0.26476187 0.51218057 0.817051
vn 0.099314965 0.94135445 0.32247227
vn 0.3235583 0.92891484 0.18007559
vn -0.16694109 0.8493028 0.50081474
vn 0.1511494 0.83645505 0.5267797
vn 0.32161403 0.38898772 0.8632804
vn -0.330709 0.40343392 0.8531545
vn 0.4805979 0.84777397 0.22428781
vn 0.5243177 0.81661767 -0.24130183
vn 0.8853623 0.394837 -0.24543266
vn 0.84213704 0.30134064 0.44721252
vn -0.52263594 0.8224034 0.22473173
vn -0.84133786 0.32144675 0.43453705
vn -0.87920606 0.41005188 -0.24259888
vn -0.543012 0.81073034 -0.21875624
vn -0.84790456 0.13199672 0.5134538
vn -0.84133786 0.32144675 0.43453705
vn -0.330709 0.40343392 0.8531545
vn -0.3173407 0.23735154 0.91812813
vn 0.8479036 0.13199726 0.5134551
vn 0.31733942 0.23735164 0.91812843
vn 0.32161403 0.38898772 0.8632804
vn 0.84213704 0.30134064 0.44721252
vn -0.52263594 0.8224034 0.22473173
vn -0.543012 0.81073034 -0.21875624
vn -0.1358427 0.8390354 -0.5268456
vn -0.16694109 0.8493028 0.50081474
vn 0.112657666 0.83846045 -0.5331908
vn 0.1511494 0.83645505 0.5267797
vn 0.5243177 0.81661767 -0.24130183
vn 0.4805979 0.84777397 0.22428781
vn 0.112657666 0.83846045 -0.5331908
vn -0.1358427 0.8390354 -0.5268456
vn -0.25688455 0.5407029 -0.80103105
vn 0.25688607 0.5407029 -0.80103064
vn -0.543012 0.81073034 -0.21875624
vn -0.87920606 0.41005188 -0.24259888
vn -0.25688455 0.5407029 -0.80103105
vn -0.1358427 0.8390354 -0.5268456
vn 0.5243177 0.81661767 -0.24130183
vn 0.112657666 0.83846045 -0.5331908
vn 0.25688607 0.5407029 -0.80103064
vn 0.8853623 0.394837 -0.24543266
vn -0.3173407 0.23735154 0.91812813
vn -0.330709 0.40343392 0.8531545
vn 0.32161403 0.38898772 0.8632804
vn 0.31733942 0.23735164 0.91812843
vn 0.84213704 0.30134064 0.44721252
vn 0.8853623 0.394837 -0.24543266
vn 0.99202555 0.03338766 0.12153395
vn 0.8479036 0.13199726 0.5134551
vn -0.9920259 0.033386666 0.12153179
vn -0.87920606 0.41005188 -0.24259888
vn -0.84133786 0.32144675 0.43453705
vn -0.84790456 0.13199672 0.5134538
vn -0.16694109 0.8493028 0.50081474
vn -0.330709 0.40343392 0.8531545
vn -0.84133786 0.32144675 0.43453705
vn -0.52263594 0.8224034 0.22473173
vn 0.84213704 0.30134064 0.44721252
vn 0.32161403 0.38898772 0.8632804
vn 0.1511494 0.83645505 0.5267797
vn 0.4805979 0.84777397 0.22428781
g obj_pillar1_0
f 3/3/3 2/2/2 1/1/1
f 4/4/4 3/3/3 1/1/1
f 7/7/7 6/6/6 5/5/5
f 8/8/8 7/7/7 5/5/5
f 11/11/11 10/10/10 9/9/9
f 12/12/12 11/11/11 9/9/9
f 15/15/15 14/14/14 13/13/13
f 16/16/16 15/15/15 13/13/13
f 15/15/15 16/16/16 17/17/17
f 18/18/18 15/15/15 17/17/17
f 21/21/21 20/20/20 19/19/19
f 22/22/22 21/21/21 19/19/19
f 25/25/25 24/24/24 23/23/23
f 26/26/26 25/25/25 23/23/23
f 29/29/29 28/28/28 27/27/27
f 30/30/30 29/29/29 27/27/27
f 33/33/33 32/32/32 31/31/31
f 34/34/34 33/33/33 31/31/31
f 37/37/37 36/36/36 35/35/35
f 38/38/38 37/37/37 35/35/35
f 41/41/41 40/40/40 39/39/39
f 42/42/42 41/41/41 39/39/39
f 45/45/45 44/44/44 43/43/43
f 46/46/46 45/45/45 43/43/43
f 49/49/49 48/48/48 47/47/47
f 50/50/50 49/49/49 47/47/47
f 53/53/53 52/52/52 51/51/51
f 54/54/54 53/53/53 51/51/51
f 57/57/57 56/56/56 55/55/55
f 58/58/58 57/57/57 55/55/55
f 61/61/61 60/60/60 59/59/59
f 62/62/62 61/61/61 59/59/59
f 65/65/65 64/64/64 63/63/63
f 66/66/66 65/65/65 63/63/63
f 69/69/69 68/68/68 67/67/67
f 70/70/70 69/69/69 67/67/67
f 71/71/71 69/69/69 70/70/70
f 72/72/72 71/71/71 70/70/70
f 73/73/73 71/71/71 72/72/72
f 74/74/74 73/73/73 72/72/72
f 77/77/77 76/76/76 75/75/75
f 78/78/78 77/77/77 75/75/75
f 81/81/81 80/80/80 79/79/79
f 82/82/82 81/81/81 79/79/79
f 85/85/85 84/84/84 83/83/83
f 86/86/86 85/85/85 83/83/83
f 89/89/89 88/88/88 87/87/87
f 90/90/90 89/89/89 87/87/87
f 93/93/93 92/92/92 91/91/91
f 94/94/94 93/93/93 91/91/91
f 97/97/97 96/96/96 95/95/95
f 98/98/98 97/97/97 95/95/95
f 101/101/101 100/100/100 99/99/99
f 102/102/102 101/101/101 99/99/99
f 105/105/105 104/104/104 103/103/103
f 106/106/106 105/105/105 103/103/103
