g obj_tv_fx2
v -0.8475361 -0.33298832 0.08698571
v -0.85549587 0.2821433 -0.07370352
v -0.85451186 0.2875426 -0.07511407
v 0.8432328 -0.3735247 0.09757491
v -0.76434237 -0.4724056 0.12340535
v 0.7797259 -0.47995013 0.12537615
v 0.8554959 0.3192179 -0.08338857
v -0.74804527 0.46596044 -0.12172184
v 0.75958323 0.47995007 -0.12537622
vt 0.0046503246 -0.13540748
vt -1.7881393E-06 0.5054214
vt 0.0005733073 0.5110463
vt 0.99282897 -0.17763725
vt 0.05327332 -0.28064921
vt 0.9557121 -0.2885088
vt 0.99999624 0.54404485
vt 0.06279823 0.69691813
vt 0.94393957 0.7114916
vn -0 0.25274622 0.9675327
vn -0 0.25274622 0.9675327
vn -0 0.25274622 0.9675327
vn -0 0.2527462 0.9675327
vn -0 0.2527461 0.9675327
vn -0 0.25274608 0.9675327
vn -0 0.25274622 0.9675327
vn -0 0.25274643 0.9675326
vn -0 0.2527465 0.9675326
g obj_tv_fx2_0
f 3/3/3 2/2/2 1/1/1
f 3/3/3 1/1/1 4/4/4
f 4/4/4 1/1/1 5/5/5
f 6/6/6 4/4/4 5/5/5
f 4/4/4 7/7/7 3/3/3
f 8/8/8 3/3/3 7/7/7
f 9/9/9 8/8/8 7/7/7
