g obj_table2
v 0.2627112 0.2861047 -0.220892
v 0.3376703 -0.03519892 -0.29078227
v 0.33767045 -0.0351989 -0.40617055
v 0.26271135 0.28610468 -0.3635393
v 0.47523513 -0.0351989 -0.40617055
v 0.47523528 -0.03519892 -0.29078218
v 0.43277442 0.28610468 -0.22089191
v 0.43277442 0.28610468 -0.3635393
v 0.33767045 -0.0351989 -0.40617055
v 0.47523513 -0.0351989 -0.40617055
v 0.43277442 0.28610468 -0.3635393
v 0.26271135 0.28610468 -0.3635393
v 0.43277442 0.28610468 -0.22089191
v 0.47523528 -0.03519892 -0.29078218
v 0.3376703 -0.03519892 -0.29078227
v 0.2627112 0.2861047 -0.220892
v -1.3573254 -0.03519889 -0.40617055
v -1.3573252 -0.03519893 -0.29078242
v -1.2823663 0.28610474 -0.220892
v -1.2823663 0.28610468 -0.3635394
v -1.4524292 0.28610468 -0.220892
v -1.4948901 -0.03519893 -0.29078233
v -1.4948901 -0.03519889 -0.40617055
v -1.4524292 0.28610465 -0.36353922
v -1.4524292 0.28610465 -0.36353922
v -1.4948901 -0.03519889 -0.40617055
v -1.3573254 -0.03519889 -0.40617055
v -1.2823663 0.28610468 -0.3635394
v -1.3573252 -0.03519893 -0.29078242
v -1.4948901 -0.03519893 -0.29078233
v -1.4524292 0.28610468 -0.220892
v -1.2823663 0.28610474 -0.220892
v 0.33767045 -0.035199035 0.40617016
v 0.3376703 -0.03519905 0.290782
v 0.26271105 0.2861046 0.22089176
v 0.26271135 0.28610456 0.36353913
v 0.43277413 0.2861046 0.22089176
v 0.47523528 -0.03519905 0.290782
v 0.47523513 -0.035199035 0.40617016
v 0.43277442 0.28610456 0.36353913
v 0.43277442 0.28610456 0.36353913
v 0.47523513 -0.035199035 0.40617016
v 0.33767045 -0.035199035 0.40617016
v 0.26271135 0.28610456 0.36353913
v 0.3376703 -0.03519905 0.290782
v 0.47523528 -0.03519905 0.290782
v 0.43277413 0.2861046 0.22089176
v 0.26271105 0.2861046 0.22089176
v -1.2823663 0.2861046 0.22089174
v -1.3573252 -0.03519905 0.29078197
v -1.3573254 -0.035199083 0.40617016
v -1.2823664 0.28610456 0.36353928
v -1.4948901 -0.035199083 0.40617016
v -1.4948901 -0.03519905 0.290782
v -1.4524292 0.28610456 0.2208917
v -1.4524292 0.28610453 0.36353928
v -1.3573254 -0.035199083 0.40617016
v -1.4948901 -0.035199083 0.40617016
v -1.4524292 0.28610453 0.36353928
v -1.2823664 0.28610456 0.36353928
v -1.4524292 0.28610456 0.2208917
v -1.4948901 -0.03519905 0.290782
v -1.3573252 -0.03519905 0.29078197
v -1.2823663 0.2861046 0.22089174
v 0.37895104 0.36706474 -0.42669815
v 0.39729372 0.24308987 -0.44733977
v 0.45193887 0.24308982 -0.42097968
v 0.4315547 0.36706483 -0.4022249
v 0.46144587 0.3670648 -0.3504528
v 0.48377946 0.24308975 -0.36740607
v 0.46144587 0.3670648 -0.3504528
v 0.48377946 0.24308975 -0.36740607
v 0.48377916 0.24308968 0.36740598
v 0.46144557 0.36706483 0.35045284
v 0.46144557 0.36706483 0.35045284
v 0.48377916 0.24308968 0.36740598
v 0.4539135 0.24308972 0.41779214
v 0.43356133 0.36706483 0.39900777
v 0.3789506 0.36706483 0.42669824
v 0.39729342 0.24308968 0.4473397
v 0.37895104 0.36706474 -0.42669815
v -1.398606 0.36706474 -0.42669815
v -1.4169487 0.24308987 -0.44733968
v 0.39729372 0.24308987 -0.44733977
v -1.398606 0.36706474 -0.42669815
v -1.4715939 0.2430898 -0.42097968
v -1.4169487 0.24308987 -0.44733968
v -1.4512097 0.36706483 -0.402225
v -1.4811009 0.3670648 -0.35045272
v -1.5034345 0.24308975 -0.36740607
v -1.3986055 0.36706483 0.42669824
v 0.3789506 0.36706483 0.42669824
v 0.39729342 0.24308968 0.4473397
v -1.4169482 0.24308968 0.4473397
v -1.4811009 0.3670648 -0.35045272
v -1.4811007 0.36706483 0.35045278
v -1.5034341 0.24308968 0.36740598
v -1.5034345 0.24308975 -0.36740607
v -1.4811007 0.36706483 0.35045278
v -1.4735684 0.24308968 0.4177923
v -1.5034341 0.24308968 0.36740598
v -1.4532162 0.36706483 0.39900777
v -1.3986055 0.36706483 0.42669824
v -1.4169482 0.24308968 0.4473397
v 0.46144587 0.3670648 -0.3504528
v -0.54712176 0.3670648 6.299896E-06
v 0.4315547 0.36706483 -0.4022249
v 0.46144557 0.36706483 0.35045284
v 0.37895104 0.36706474 -0.42669815
v 0.43356133 0.36706483 0.39900777
v -1.398606 0.36706474 -0.42669815
v 0.3789506 0.36706483 0.42669824
v -1.4512097 0.36706483 -0.402225
v -1.3986055 0.36706483 0.42669824
v -1.4811009 0.3670648 -0.35045272
v -1.4532162 0.36706483 0.39900777
v -1.4811007 0.36706483 0.35045278
vt 0.8929239 0.9699119
vt 0.8929239 0.9400155
vt 0.8929239 0.9400155
vt 0.8929239 0.9699119
vt 0.8861894 0.9400155
vt 0.8861894 0.9400155
vt 0.8861894 0.9699119
vt 0.8861894 0.9699119
vt 0.8929239 0.9400155
vt 0.8861894 0.9400155
vt 0.8861894 0.9699119
vt 0.8929239 0.9699119
vt 0.8861894 0.9699119
vt 0.8861894 0.9400155
vt 0.8929239 0.9400155
vt 0.8929239 0.9699119
vt 0.8929239 0.9400155
vt 0.8929239 0.9400155
vt 0.8929239 0.9699119
vt 0.8929239 0.9699119
vt 0.8861894 0.9699119
vt 0.8861894 0.9400155
vt 0.8861894 0.9400155
vt 0.8861894 0.9699119
vt 0.8861894 0.9699119
vt 0.8861894 0.9400155
vt 0.8929239 0.9400155
vt 0.8929239 0.9699119
vt 0.8929239 0.9400155
vt 0.8861894 0.9400155
vt 0.8861894 0.9699119
vt 0.8929239 0.9699119
vt 0.8929239 0.9400155
vt 0.8929239 0.9400155
vt 0.8929239 0.9699119
vt 0.8929239 0.9699119
vt 0.8861894 0.9699119
vt 0.8861894 0.9400155
vt 0.8861894 0.9400155
vt 0.8861894 0.9699119
vt 0.8861894 0.9699119
vt 0.8861894 0.9400155
vt 0.8929239 0.9400155
vt 0.8929239 0.9699119
vt 0.8929239 0.9400155
vt 0.8861894 0.9400155
vt 0.8861894 0.9699119
vt 0.8929239 0.9699119
vt 0.8929239 0.9699119
vt 0.8929239 0.9400155
vt 0.8929239 0.9400155
vt 0.8929239 0.9699119
vt 0.8861894 0.9400155
vt 0.8861894 0.9400155
vt 0.8861894 0.9699119
vt 0.8861894 0.9699119
vt 0.8929239 0.9400155
vt 0.8861894 0.9400155
vt 0.8861894 0.9699119
vt 0.8929239 0.9699119
vt 0.8861894 0.9699119
vt 0.8861894 0.9400155
vt 0.8929239 0.9400155
vt 0.8929239 0.9699119
vt 0.8204748 0.9334896
vt 0.81780124 0.92824227
vt 0.808877 0.92824227
vt 0.8159059 0.9350443
vt 0.81426156 0.93970233
vt 0.808877 0.93698496
vt 0.81426156 0.93970233
vt 0.808877 0.93698496
vt 0.808877 0.9897832
vt 0.81426156 0.98711556
vt 0.81426156 0.98711556
vt 0.808877 0.9897832
vt 0.808877 0.9991733
vt 0.81575644 0.99192166
vt 0.8202008 0.9937155
vt 0.81749356 0.9991733
vt 0.8204748 0.9334896
vt 0.86786914 0.9334896
vt 0.87058866 0.92824227
vt 0.81780124 0.92824227
vt 0.86786914 0.9334896
vt 0.8797004 0.92824227
vt 0.87058866 0.92824227
vt 0.87165886 0.9356273
vt 0.87270534 0.9399839
vt 0.8797004 0.93730444
vt 0.8675965 0.9937155
vt 0.8202008 0.9937155
vt 0.81749356 0.9991733
vt 0.8702674 0.9991733
vt 0.87270534 0.9399839
vt 0.87367696 0.9873945
vt 0.8797004 0.9901051
vt 0.8797004 0.93730444
vt 0.87367696 0.9873945
vt 0.8797004 0.9991733
vt 0.8797004 0.9901051
vt 0.8721223 0.9920263
vt 0.8675965 0.9937155
vt 0.8702674 0.9991733
vt 0.81426156 0.93970233
vt 0.84403396 0.9635423
vt 0.8159059 0.9350443
vt 0.81426156 0.98711556
vt 0.8204748 0.9334896
vt 0.81575644 0.99192166
vt 0.86786914 0.9334896
vt 0.8202008 0.9937155
vt 0.87165886 0.9356273
vt 0.8675965 0.9937155
vt 0.87270534 0.9399839
vt 0.8721223 0.9920263
vt 0.87367696 0.9873945
vn -0.9738491 -0.22719559 -1.1450278E-06
vn -0.9738491 -0.2271956 -1.1450278E-06
vn -0.9738491 -0.22719562 -1.1450278E-06
vn -0.9738491 -0.22719559 -1.1450278E-06
vn 0.99138075 0.13101259 -5.828202E-07
vn 0.99138075 0.1310126 -5.8282023E-07
vn 0.99138075 0.1310126 -5.8282023E-07
vn 0.99138075 0.13101259 -5.828202E-07
vn -0 0.13152945 -0.9913122
vn -0 0.13152944 -0.9913122
vn -0 0.13152945 -0.9913122
vn -0 0.13152944 -0.9913122
vn -5.2008863E-07 -0.21255074 0.97715014
vn -5.200887E-07 -0.21255076 0.97715
vn -5.200887E-07 -0.21255074 0.97715014
vn -5.2008863E-07 -0.21255074 0.97715014
vn 0.9738491 -0.22719555 -8.360521E-07
vn 0.9738491 -0.22719555 -8.360522E-07
vn 0.9738491 -0.22719555 -8.360522E-07
vn 0.9738491 -0.22719555 -8.360521E-07
vn -0.99138075 0.13101275 0
vn -0.99138075 0.13101274 0
vn -0.99138075 0.13101275 0
vn -0.99138075 0.13101275 0
vn -5.0822956E-07 0.13152952 -0.9913122
vn -5.0822956E-07 0.13152952 -0.9913122
vn -5.082296E-07 0.13152952 -0.9913122
vn -5.0822956E-07 0.13152952 -0.9913122
vn 2.982865E-07 -0.21255101 0.97715
vn 2.982865E-07 -0.21255101 0.97715
vn 2.982865E-07 -0.21255101 0.97715
vn 2.9828652E-07 -0.21255103 0.97715
vn -0.9738491 -0.22719572 1.717542E-06
vn -0.9738491 -0.22719571 1.7175419E-06
vn -0.9738491 -0.22719572 1.717542E-06
vn -0.9738491 -0.22719572 1.717542E-06
vn 0.99138063 0.13101283 -5.828206E-07
vn 0.99138063 0.13101284 -5.828206E-07
vn 0.99138063 0.13101283 -5.828206E-07
vn 0.99138063 0.13101283 -5.828206E-07
vn -0 0.13152882 0.9913123
vn -0 0.13152882 0.9913123
vn -0 0.13152881 0.9913123
vn -0 0.13152882 0.9913123
vn -0 -0.2125505 -0.97715014
vn -0 -0.2125505 -0.97715014
vn -0 -0.21255054 -0.97715014
vn -0 -0.21255049 -0.97715014
vn 0.9738491 -0.22719535 1.0995894E-06
vn 0.9738491 -0.22719537 1.0995896E-06
vn 0.9738491 -0.22719535 1.0995894E-06
vn 0.9738491 -0.22719535 1.0995894E-06
vn -0.99138075 0.13101272 0
vn -0.99138075 0.13101272 0
vn -0.99138075 0.13101274 0
vn -0.99138075 0.13101272 0
vn -0 0.13152836 0.99131244
vn -0 0.13152836 0.99131244
vn -0 0.13152836 0.99131244
vn -0 0.13152836 0.99131244
vn -0 -0.21255066 -0.97715014
vn -0 -0.21255066 -0.97715014
vn -0 -0.21255066 -0.97715014
vn -0 -0.21255066 -0.97715014
vn 0.41911867 0.20596056 -0.88426226
vn 0.41911864 0.20596053 -0.88426226
vn 0.6612565 0.22049087 -0.71702415
vn 0.65624577 0.22036964 -0.72165
vn 0.8423705 0.21621478 -0.49362227
vn 0.8423705 0.2162148 -0.49362227
vn 0.9841583 0.17729199 4.2616597E-07
vn 0.9841583 0.17729199 4.2616597E-07
vn 0.9841583 0.17729197 4.2616603E-07
vn 0.9841583 0.17729199 4.2616597E-07
vn 0.8432403 0.21610682 0.49218237
vn 0.8432403 0.21610685 0.49218243
vn 0.67288357 0.22056451 0.70610124
vn 0.66922724 0.22049096 0.7095905
vn 0.44754028 0.20813246 0.86970603
vn 0.44754028 0.20813246 0.86970603
vn -0 0.16423713 -0.98642087
vn -0 0.16423713 -0.98642087
vn -0 0.16423711 -0.98642087
vn -0 0.16423711 -0.98642087
vn -0.41911775 0.2059599 -0.8842629
vn -0.66125554 0.2204905 -0.7170251
vn -0.41911778 0.20595992 -0.8842629
vn -0.6562447 0.2203693 -0.7216511
vn -0.8423698 0.21621478 -0.4936237
vn -0.8423698 0.21621479 -0.4936237
vn -0 0.16423619 0.986421
vn -0 0.1642362 0.986421
vn -0 0.16423619 0.986421
vn -0 0.16423619 0.986421
vn -0.9841584 0.1772914 5.3150455E-07
vn -0.9841584 0.1772914 5.3150455E-07
vn -0.9841584 0.1772914 5.315045E-07
vn -0.9841584 0.1772914 5.3150455E-07
vn -0.84324026 0.21610677 0.4921826
vn -0.67288285 0.22056459 0.70610195
vn -0.84324026 0.21610677 0.4921826
vn -0.6692267 0.22049104 0.709591
vn -0.4475389 0.2081326 0.8697067
vn -0.44753897 0.2081326 0.8697067
vn 1.0433521E-07 1 3.0026075E-07
vn -0 1 0
vn -0 1 -1.1283532E-07
vn -0 1 0
vn -5.9326084E-07 1 -1.3775734E-06
vn -0 1 0
vn 6.0937026E-07 1 -1.3060165E-06
vn -0 1 0
vn -0 1 -1.2200091E-07
vn -0 1 0
vn -1.13393675E-07 1 3.02196E-07
vn -0 1 0
vn -0 1 0
g obj_table2_0
f 3/3/3 2/2/2 1/1/1
f 4/4/4 3/3/3 1/1/1
f 7/7/7 6/6/6 5/5/5
f 8/8/8 7/7/7 5/5/5
f 11/11/11 10/10/10 9/9/9
f 12/12/12 11/11/11 9/9/9
f 15/15/15 14/14/14 13/13/13
f 16/16/16 15/15/15 13/13/13
f 19/19/19 18/18/18 17/17/17
f 20/20/20 19/19/19 17/17/17
f 23/23/23 22/22/22 21/21/21
f 24/24/24 23/23/23 21/21/21
f 27/27/27 26/26/26 25/25/25
f 28/28/28 27/27/27 25/25/25
f 31/31/31 30/30/30 29/29/29
f 32/32/32 31/31/31 29/29/29
f 35/35/35 34/34/34 33/33/33
f 36/36/36 35/35/35 33/33/33
f 39/39/39 38/38/38 37/37/37
f 40/40/40 39/39/39 37/37/37
f 43/43/43 42/42/42 41/41/41
f 44/44/44 43/43/43 41/41/41
f 47/47/47 46/46/46 45/45/45
f 48/48/48 47/47/47 45/45/45
f 51/51/51 50/50/50 49/49/49
f 52/52/52 51/51/51 49/49/49
f 55/55/55 54/54/54 53/53/53
f 56/56/56 55/55/55 53/53/53
f 59/59/59 58/58/58 57/57/57
f 60/60/60 59/59/59 57/57/57
f 63/63/63 62/62/62 61/61/61
f 64/64/64 63/63/63 61/61/61
f 67/67/67 66/66/66 65/65/65
f 68/68/68 67/67/67 65/65/65
f 67/67/67 68/68/68 69/69/69
f 70/70/70 67/67/67 69/69/69
f 73/73/73 72/72/72 71/71/71
f 74/74/74 73/73/73 71/71/71
f 77/77/77 76/76/76 75/75/75
f 78/78/78 77/77/77 75/75/75
f 77/77/77 78/78/78 79/79/79
f 80/80/80 77/77/77 79/79/79
f 83/83/83 82/82/82 81/81/81
f 84/84/84 83/83/83 81/81/81
f 87/87/87 86/86/86 85/85/85
f 86/86/86 88/88/88 85/85/85
f 89/89/89 88/88/88 86/86/86
f 90/90/90 89/89/89 86/86/86
f 93/93/93 92/92/92 91/91/91
f 94/94/94 93/93/93 91/91/91
f 97/97/97 96/96/96 95/95/95
f 98/98/98 97/97/97 95/95/95
f 101/101/101 100/100/100 99/99/99
f 100/100/100 102/102/102 99/99/99
f 103/103/103 102/102/102 100/100/100
f 104/104/104 103/103/103 100/100/100
f 107/107/107 106/106/106 105/105/105
f 105/105/105 106/106/106 108/108/108
f 109/109/109 106/106/106 107/107/107
f 108/108/108 106/106/106 110/110/110
f 111/111/111 106/106/106 109/109/109
f 110/110/110 106/106/106 112/112/112
f 111/111/111 113/113/113 106/106/106
f 106/106/106 114/114/114 112/112/112
f 106/106/106 113/113/113 115/115/115
f 116/116/116 114/114/114 106/106/106
f 115/115/115 117/117/117 106/106/106
f 106/106/106 117/117/117 116/116/116
