g obj_boss_stone2
v 0.43899643 0.092418715 -0.11719405
v 0.28461763 0.020140022 -0.11595005
v 0.44188762 0.020140031 -0.14577653
v 0.31667888 0.11650606 -0.09250583
v 0.4125086 0.11860554 -0.05017053
v 0.30802497 0.11654102 -0.07552254
v 0.2754745 0.020140016 -0.08008305
v 0.33614278 0.116575785 0.017659377
v 0.31320256 0.020140016 0.047709573
v 0.43899643 0.092418715 -0.11719405
v 0.44188762 0.020140031 -0.14577653
v 0.49107966 0.020140022 -0.118627355
v 0.45774984 0.08528457 -0.10336992
v 0.4125086 0.11860554 -0.05017053
v 0.49881902 0.08537913 0.042876173
v 0.5255994 0.020140007 0.05865726
v 0.45795882 0.07390581 0.070824355
v 0.33614278 0.116575785 0.017659377
v 0.45979038 0.020140022 0.09758262
v 0.31320256 0.020140016 0.047709573
v -0.20769374 0.13749847 0.29979146
v 0.08460177 0.02014001 0.20656283
v -0.20894267 0.020140031 0.34200138
v 0.04367764 0.16849211 0.1739509
v -0.15579735 0.18709251 0.048656095
v 0.06658345 0.17118661 0.14348766
v 0.109634176 0.020140022 0.1401269
v -0.04105197 0.19073844 -0.07966511
v -0.007975361 0.020140031 -0.12621918
v -0.20769374 0.13749847 0.29979146
v -0.20894267 0.020140031 0.34200138
v -0.38210928 0.020140002 0.25801915
v -0.34826565 0.13772619 0.22953503
v -0.15579735 0.18709251 0.048656095
v -0.41264874 0.16824228 -0.11836429
v -0.44172537 0.02013999 -0.129221
v -0.3813029 0.19678694 -0.14789575
v -0.04105197 0.19073844 -0.07966511
v -0.39483202 0.020140022 -0.17664048
v -0.007975361 0.020140031 -0.12621918
v 0.1317336 0.047480643 -0.24894977
v 0.15581948 0.020139987 -0.38508162
v 0.15283486 0.02013999 -0.24519318
v 0.13460267 0.05616817 -0.37520584
v 0.023815451 0.0705852 -0.3545053
v 0.11978284 0.05618078 -0.3945001
v 0.12342633 0.02013998 -0.4125209
v -0.00047940674 0.056193348 -0.43913412
v -0.0211529 0.020139981 -0.45976827
v 0.1317336 0.047480643 -0.24894977
v 0.15283486 0.02013999 -0.24519318
v 0.044061165 0.020139989 -0.188279
v 0.04537646 0.07629027 -0.20640549
v 0.023815451 0.0705852 -0.3545053
v -0.13998677 0.07632439 -0.33542982
v -0.14703773 0.020139998 -0.32722336
v -0.12356401 0.0876105 -0.37912223
v -0.00047940674 0.056193348 -0.43913412
v -0.1322007 0.02013999 -0.383459
v -0.0211529 0.020139981 -0.45976827
v 0.46708965 0.061642326 -0.2670861
v 0.39754128 0.020139977 -0.3414556
v 0.48246756 0.02013998 -0.27248004
v 0.39078778 0.07032989 -0.32149017
v 0.35949358 0.07365047 -0.2225406
v 0.37617448 0.07034246 -0.32107222
v 0.37262195 0.020139968 -0.3338982
v 0.29658067 0.070355065 -0.24614708
v 0.27714872 0.020139964 -0.24548575
v 0.46708965 0.061642326 -0.2670861
v 0.48246756 0.02013998 -0.27248004
v 0.4765475 0.020139981 -0.238393
v 0.4601985 0.05906927 -0.24422453
v 0.35949358 0.07365047 -0.2225406
v 0.36867362 0.059103377 -0.115758285
v 0.3677959 0.020139981 -0.106607765
v 0.29733542 0.070389524 -0.13593516
v 0.29658067 0.070355065 -0.24614708
v 0.29102448 0.02013998 -0.13162787
v 0.27714872 0.020139964 -0.24548575
v 0.07743279 0.07621525 0.4162824
v 0.2720203 0.020140022 0.33367938
v 0.069218956 0.020140007 0.4496712
v 0.24549805 0.10777863 0.3013182
v 0.08886971 0.13578951 0.23692772
v 0.2586264 0.11140799 0.2771143
v 0.28585917 0.020140044 0.28427097
v 0.18550582 0.14013 0.1395221
v 0.21230097 0.020140035 0.10997836
v 0.07743279 0.07621525 0.4162824
v 0.069218956 0.020140007 0.4496712
v -0.060734686 0.020140035 0.4001227
v -0.03161626 0.08241004 0.3819077
v 0.08886971 0.13578951 0.23692772
v -0.08176466 0.12847549 0.14053993
v -0.093990766 0.02014001 0.12491864
v -0.060955953 0.1429413 0.12007786
v 0.18550582 0.14013 0.1395221
v -0.06321531 0.020140035 0.08782977
v 0.21230097 0.020140035 0.10997836
vt 0.8653698 0.5098957
vt 0.8785764 0.47704715
vt 0.8653698 0.47704554
vt 0.87797105 0.50988555
vt 0.8834467 0.5313819
vt 0.8894609 0.50989544
vt 0.89116585 0.47704554
vt 0.90225565 0.50990534
vt 0.90225565 0.4770438
vt 0.8653698 0.5098957
vt 0.8653698 0.47704554
vt 0.877529 0.477044
vt 0.8772532 0.50990593
vt 0.8834467 0.5313819
vt 0.88606596 0.5099335
vt 0.88657653 0.47703958
vt 0.8956859 0.5099335
vt 0.90225565 0.50990534
vt 0.8942094 0.47703952
vt 0.90225565 0.4770438
vt 0.8653698 0.5697694
vt 0.8785764 0.53692085
vt 0.8653698 0.53691924
vt 0.87797105 0.56975925
vt 0.8834467 0.58647203
vt 0.8894609 0.56976914
vt 0.89116585 0.53691924
vt 0.90225565 0.56977904
vt 0.90225565 0.5369175
vt 0.8653698 0.5697694
vt 0.8653698 0.53691924
vt 0.877529 0.5369177
vt 0.8772532 0.56977963
vt 0.8834467 0.58647203
vt 0.88606596 0.5698072
vt 0.88657653 0.5369133
vt 0.8956859 0.5698072
vt 0.90225565 0.56977904
vt 0.8942094 0.5369132
vt 0.90225565 0.5369175
vt 0.8653698 0.5697694
vt 0.8785764 0.53692085
vt 0.8653698 0.53691924
vt 0.87797105 0.56975925
vt 0.8834467 0.58647203
vt 0.8894609 0.56976914
vt 0.89116585 0.53691924
vt 0.90225565 0.56977904
vt 0.90225565 0.5369175
vt 0.8653698 0.5697694
vt 0.8653698 0.53691924
vt 0.877529 0.5369177
vt 0.8772532 0.56977963
vt 0.8834467 0.58647203
vt 0.88606596 0.5698072
vt 0.88657653 0.5369133
vt 0.8956859 0.5698072
vt 0.90225565 0.56977904
vt 0.8942094 0.5369132
vt 0.90225565 0.5369175
vt 0.8653698 0.5697694
vt 0.8785764 0.53692085
vt 0.8653698 0.53691924
vt 0.87797105 0.56975925
vt 0.8834467 0.58647203
vt 0.8894609 0.56976914
vt 0.89116585 0.53691924
vt 0.90225565 0.56977904
vt 0.90225565 0.5369175
vt 0.8653698 0.5697694
vt 0.8653698 0.53691924
vt 0.877529 0.5369177
vt 0.8772532 0.56977963
vt 0.8834467 0.58647203
vt 0.88606596 0.5698072
vt 0.88657653 0.5369133
vt 0.8956859 0.5698072
vt 0.90225565 0.56977904
vt 0.8942094 0.5369132
vt 0.90225565 0.5369175
vt 0.8653698 0.5697694
vt 0.8785764 0.53692085
vt 0.8653698 0.53691924
vt 0.87797105 0.56975925
vt 0.8834467 0.58647203
vt 0.8894609 0.56976914
vt 0.89116585 0.53691924
vt 0.90225565 0.56977904
vt 0.90225565 0.5369175
vt 0.8653698 0.5697694
vt 0.8653698 0.53691924
vt 0.877529 0.5369177
vt 0.8772532 0.56977963
vt 0.8834467 0.58647203
vt 0.88606596 0.5698072
vt 0.88657653 0.5369133
vt 0.8956859 0.5698072
vt 0.90225565 0.56977904
vt 0.8942094 0.5369132
vt 0.90225565 0.5369175
vn 0.2628929 0.6886 -0.67580867
vn -0.63493985 0.36930314 -0.678577
vn 0.14287154 0.3689031 -0.9184216
vn -0.34594753 0.7506169 -0.5629338
vn 0.22263813 0.97366714 -0.049035914
vn -0.6540105 0.7554866 -0.038863078
vn -0.947108 0.32071146 0.011434086
vn -0.4220301 0.7677583 0.48211804
vn -0.652577 0.37316746 0.6594613
vn 0.2628929 0.6886 -0.67580867
vn 0.14287154 0.3689031 -0.9184216
vn 0.7360046 0.4362151 -0.5177004
vn 0.65715283 0.66774994 -0.3496573
vn 0.22263813 0.97366714 -0.049035914
vn 0.6098138 0.7291742 0.31053513
vn 0.8136636 0.43576667 0.38478422
vn 0.085910596 0.6513255 0.75391936
vn -0.4220301 0.7677583 0.48211804
vn 0.08897077 0.4462133 0.8904931
vn -0.652577 0.37316746 0.6594613
vn -0.025585737 0.68810105 0.72516364
vn 0.68743604 0.3016874 0.66061825
vn -0.01059202 0.33852255 0.9408986
vn 0.37723324 0.7445632 0.55074567
vn -0.041914284 0.9925196 0.11466441
vn 0.6933291 0.7150138 0.08972218
vn 0.9599921 0.2780968 -0.03282274
vn 0.43452522 0.74634457 -0.50414044
vn 0.58786494 0.294365 -0.75350124
vn -0.025585737 0.68810105 0.72516364
vn -0.01059202 0.33852255 0.9408986
vn -0.7469073 0.33087942 0.5767567
vn -0.5604609 0.6957972 0.44916567
vn -0.041914284 0.9925196 0.11466441
vn -0.8142779 0.5724109 -0.09642203
vn -0.9342019 0.19484541 -0.29883468
vn -0.35887966 0.781569 -0.5102504
vn 0.43452522 0.74634457 -0.50414044
vn -0.3243499 0.17607814 -0.92940503
vn 0.58786494 0.294365 -0.75350124
vn 0.5511505 0.74943745 0.36684674
vn 0.7912701 0.52267075 -0.3173434
vn 0.7053574 0.59691757 0.38230938
vn 0.569093 0.8088895 -0.1477528
vn 0.10941217 0.99079096 -0.07976336
vn 0.36282057 0.7799693 -0.5099109
vn 0.44154713 0.4261246 -0.78959113
vn 0.10256936 0.7337449 -0.67163825
vn -0.11126633 0.44603726 -0.8880713
vn 0.5511505 0.74943745 0.36684674
vn 0.7053574 0.59691757 0.38230938
vn -0.04322904 0.3198531 0.94648045
vn 0.037983704 0.76054674 0.64817107
vn 0.10941217 0.99079096 -0.07976336
vn -0.7430957 0.6242462 0.24109247
vn -0.9197968 0.18606861 0.34547395
vn -0.51487195 0.77991015 -0.3558752
vn 0.10256936 0.7337449 -0.67163825
vn -0.81214905 0.14036165 -0.5663149
vn -0.11126633 0.44603726 -0.8880713
vn 0.6653283 0.7224863 -0.18802044
vn 0.20254721 0.34973794 -0.9146901
vn 0.87239033 0.36543944 -0.3246368
vn 0.21079612 0.779639 -0.58968455
vn 0.060470887 0.9972984 0.04170228
vn -0.28751034 0.73363763 -0.615722
vn -0.47652444 0.25140736 -0.8424481
vn -0.61241114 0.7328049 -0.2965631
vn -0.89406633 0.30067208 -0.3320265
vn 0.6653283 0.7224863 -0.18802044
vn 0.87239033 0.36543944 -0.3246368
vn 0.85105014 0.35899675 0.38319042
vn 0.5819396 0.7415915 0.33374894
vn 0.060470887 0.9972984 0.04170228
vn 0.29374185 0.62349206 0.7245504
vn 0.26845834 0.18959533 0.94444895
vn -0.54695797 0.67819446 0.49080476
vn -0.61241114 0.7328049 -0.2965631
vn -0.7661644 0.14979322 0.62494326
vn -0.89406633 0.30067208 -0.3320265
vn 0.08504781 0.70764154 0.70143443
vn 0.7023092 0.3962661 0.5913839
vn 0.034706287 0.50753874 0.8609296
vn 0.43089998 0.7474732 0.5055779
vn -0.018218197 0.98049015 0.19572225
vn 0.7109735 0.701835 0.04409433
vn 0.95462406 0.29293403 -0.053688243
vn 0.40580133 0.7518509 -0.51965904
vn 0.5642522 0.31352782 -0.7637537
vn 0.08504781 0.70764154 0.70143443
vn 0.034706287 0.50753874 0.8609296
vn -0.66860944 0.44673085 0.59446865
vn -0.4511682 0.7126889 0.53714216
vn -0.018218197 0.98049015 0.19572225
vn -0.7990434 0.59515065 -0.085587576
vn -0.94073516 0.1513496 -0.3034971
vn -0.36609554 0.78821087 -0.4946694
vn 0.40580133 0.7518509 -0.51965904
vn -0.35713345 0.24338356 -0.90178716
vn 0.5642522 0.31352782 -0.7637537
g obj_boss_stone2_0
f 3/3/3 2/2/2 1/1/1
f 2/2/2 4/4/4 1/1/1
f 1/1/1 4/4/4 5/5/5
f 2/2/2 6/6/6 4/4/4
f 5/5/5 4/4/4 6/6/6
f 2/2/2 7/7/7 6/6/6
f 5/5/5 6/6/6 8/8/8
f 8/8/8 6/6/6 7/7/7
f 7/7/7 9/9/9 8/8/8
f 12/12/12 11/11/11 10/10/10
f 12/12/12 10/10/10 13/13/13
f 13/13/13 10/10/10 14/14/14
f 13/13/13 15/15/15 12/12/12
f 14/14/14 15/15/15 13/13/13
f 15/15/15 16/16/16 12/12/12
f 17/17/17 15/15/15 14/14/14
f 17/17/17 16/16/16 15/15/15
f 18/18/18 17/17/17 14/14/14
f 17/17/17 19/19/19 16/16/16
f 18/18/18 20/20/20 17/17/17
f 19/19/19 17/17/17 20/20/20
f 23/23/23 22/22/22 21/21/21
f 22/22/22 24/24/24 21/21/21
f 21/21/21 24/24/24 25/25/25
f 22/22/22 26/26/26 24/24/24
f 25/25/25 24/24/24 26/26/26
f 22/22/22 27/27/27 26/26/26
f 25/25/25 26/26/26 28/28/28
f 28/28/28 26/26/26 27/27/27
f 27/27/27 29/29/29 28/28/28
f 32/32/32 31/31/31 30/30/30
f 32/32/32 30/30/30 33/33/33
f 33/33/33 30/30/30 34/34/34
f 33/33/33 35/35/35 32/32/32
f 34/34/34 35/35/35 33/33/33
f 35/35/35 36/36/36 32/32/32
f 37/37/37 35/35/35 34/34/34
f 37/37/37 36/36/36 35/35/35
f 38/38/38 37/37/37 34/34/34
f 37/37/37 39/39/39 36/36/36
f 38/38/38 40/40/40 37/37/37
f 39/39/39 37/37/37 40/40/40
f 43/43/43 42/42/42 41/41/41
f 42/42/42 44/44/44 41/41/41
f 41/41/41 44/44/44 45/45/45
f 42/42/42 46/46/46 44/44/44
f 45/45/45 44/44/44 46/46/46
f 42/42/42 47/47/47 46/46/46
f 45/45/45 46/46/46 48/48/48
f 48/48/48 46/46/46 47/47/47
f 47/47/47 49/49/49 48/48/48
f 52/52/52 51/51/51 50/50/50
f 52/52/52 50/50/50 53/53/53
f 53/53/53 50/50/50 54/54/54
f 53/53/53 55/55/55 52/52/52
f 54/54/54 55/55/55 53/53/53
f 55/55/55 56/56/56 52/52/52
f 57/57/57 55/55/55 54/54/54
f 57/57/57 56/56/56 55/55/55
f 58/58/58 57/57/57 54/54/54
f 57/57/57 59/59/59 56/56/56
f 58/58/58 60/60/60 57/57/57
f 59/59/59 57/57/57 60/60/60
f 63/63/63 62/62/62 61/61/61
f 62/62/62 64/64/64 61/61/61
f 61/61/61 64/64/64 65/65/65
f 62/62/62 66/66/66 64/64/64
f 65/65/65 64/64/64 66/66/66
f 62/62/62 67/67/67 66/66/66
f 65/65/65 66/66/66 68/68/68
f 68/68/68 66/66/66 67/67/67
f 67/67/67 69/69/69 68/68/68
f 72/72/72 71/71/71 70/70/70
f 72/72/72 70/70/70 73/73/73
f 73/73/73 70/70/70 74/74/74
f 73/73/73 75/75/75 72/72/72
f 74/74/74 75/75/75 73/73/73
f 75/75/75 76/76/76 72/72/72
f 77/77/77 75/75/75 74/74/74
f 77/77/77 76/76/76 75/75/75
f 78/78/78 77/77/77 74/74/74
f 77/77/77 79/79/79 76/76/76
f 78/78/78 80/80/80 77/77/77
f 79/79/79 77/77/77 80/80/80
f 83/83/83 82/82/82 81/81/81
f 82/82/82 84/84/84 81/81/81
f 81/81/81 84/84/84 85/85/85
f 82/82/82 86/86/86 84/84/84
f 85/85/85 84/84/84 86/86/86
f 82/82/82 87/87/87 86/86/86
f 85/85/85 86/86/86 88/88/88
f 88/88/88 86/86/86 87/87/87
f 87/87/87 89/89/89 88/88/88
f 92/92/92 91/91/91 90/90/90
f 92/92/92 90/90/90 93/93/93
f 93/93/93 90/90/90 94/94/94
f 93/93/93 95/95/95 92/92/92
f 94/94/94 95/95/95 93/93/93
f 95/95/95 96/96/96 92/92/92
f 97/97/97 95/95/95 94/94/94
f 97/97/97 96/96/96 95/95/95
f 98/98/98 97/97/97 94/94/94
f 97/97/97 99/99/99 96/96/96
f 98/98/98 100/100/100 97/97/97
f 99/99/99 97/97/97 100/100/100
