g obj_glasstube_floor
v 0.10997268 0.28852257 1.201699
v -0.0359847 0.28852275 1.3426752
v -0.9743099 0.28852323 1.3426747
v -1.1202704 0.28852338 1.2016981
v 0.19513068 0.28852263 0.921824
v -1.2054276 0.28852335 0.9218238
v 0.21558659 0.28852323 0.85504466
v -1.225883 0.288524 0.85504425
v -1.2225872 0.28852344 0.21792309
v 0.2188819 0.28852373 0.21792416
v 0.1984269 0.28852314 0.135198
v -1.2021313 0.28852284 0.13519761
v 0.11326967 0.28852314 -0.1446765
v -1.116974 0.28852284 -0.14467788
v -0.03269093 0.28852302 -0.2856536
v -0.97101605 0.28852296 -0.28565374
vt 0.033581242 0.29218966
vt 0.035326656 0.29163715
vt 0.035326656 0.28808478
vt 0.033581242 0.2875322
vt 0.030116152 0.29251206
vt 0.030116122 0.2872098
vt 0.029254531 0.29258955
vt 0.029254502 0.28713232
vt 0.021238616 0.28714484
vt 0.021238616 0.29260197
vt 0.020376993 0.2925246
vt 0.020376993 0.28722224
vt 0.016911905 0.29220217
vt 0.016911905 0.28754467
vt 0.015166491 0.2916496
vt 0.015166491 0.28809723
vn 5.7386575E-07 1 0
vn 5.8456186E-07 1 -1.3624904E-07
vn 5.845618E-07 1 -1.3624904E-07
vn 5.738658E-07 1 0
vn 5.362787E-07 1 5.668228E-06
vn 5.3627883E-07 1 5.6682143E-06
vn 3.1798797E-07 1 4.2091597E-06
vn 3.1856453E-07 1 4.224728E-06
vn -0 1 -3.3242297E-06
vn -0 1 -3.335912E-06
vn -2.2343056E-07 1 -4.225325E-06
vn -2.2343053E-07 1 -4.2253346E-06
vn -2.171569E-07 1 0
vn -2.1715677E-07 1 0
vn -1.7713987E-07 1 0
vn -1.7713988E-07 1 0
g obj_glasstube_floor_0
f 3/3/3 2/2/2 1/1/1
f 4/4/4 3/3/3 1/1/1
f 4/4/4 1/1/1 5/5/5
f 6/6/6 4/4/4 5/5/5
f 6/6/6 5/5/5 7/7/7
f 8/8/8 6/6/6 7/7/7
f 8/8/8 7/7/7 9/9/9
f 7/7/7 10/10/10 9/9/9
f 10/10/10 11/11/11 9/9/9
f 11/11/11 12/12/12 9/9/9
f 11/11/11 13/13/13 12/12/12
f 13/13/13 14/14/14 12/12/12
f 13/13/13 15/15/15 14/14/14
f 15/15/15 16/16/16 14/14/14
