g obj_boss_stone1
v -0.023520432 0.33158717 -0.20916885
v -0.22353384 0.2605899 -0.027328642
v -0.046468034 0.32389298 -0.20971955
v 0.1526726 0.3375325 0.054881006
v 0.16159694 0.3315873 -0.068306856
v 0.04537892 0.33853388 0.24398853
v -0.0641397 0.14039628 0.34953177
v -0.2842636 0.14139292 0.03365681
v -0.35202223 0.09914152 0.29164892
v -0.2657536 0.105647884 0.391309
v -0.42479125 0.020139998 0.2985696
v -0.2891388 0.07268883 0.42599836
v -0.30155668 0.020139998 0.46029192
v -0.39063534 0.058722254 0.2994817
v -0.2657536 0.105647884 0.391309
v -0.35202223 0.09914152 0.29164892
v -0.2891388 0.07268883 0.42599836
v -0.26084644 0.02014 0.47013327
v -0.30155668 0.020139998 0.46029192
v -0.2554353 0.091317445 0.43341073
v -0.2657536 0.105647884 0.391309
v 0.04859955 0.02014 0.36781806
v -0.038337786 0.11239095 0.3665421
v -0.0641397 0.14039628 0.34953177
v 0.07792449 0.3139991 0.25783232
v 0.2369523 0.020139998 0.07596015
v 0.04537892 0.33853388 0.24398853
v 0.1921585 0.3128443 0.07410399
v 0.25617775 0.020139998 -0.08911065
v 0.1526726 0.3375325 0.054881006
v 0.20851734 0.30655637 -0.08174499
v 0.16159694 0.3315873 -0.068306856
v -0.023520432 0.33158717 -0.20916885
v 0.20851734 0.30655637 -0.08174499
v 0.16159694 0.3315873 -0.068306856
v -0.003751665 0.30655634 -0.25142792
v 0.25617775 0.020139998 -0.08911065
v 0.005708628 0.02014 -0.2995481
v -0.05137765 0.02014 -0.29912767
v -0.055621013 0.2992044 -0.25215566
v -0.046468034 0.32389298 -0.20971955
v -0.023520432 0.33158717 -0.20916885
v -0.22353384 0.2605899 -0.027328642
v -0.25153857 0.23638563 -0.03982272
v -0.28937727 0.020139998 -0.060963325
v -0.3019402 0.11782929 -0.00090472656
v -0.2842636 0.14139292 0.03365681
v -0.35202223 0.09914152 0.29164892
v -0.38815227 0.08249711 0.26824898
v -0.4223819 0.02014 0.26007447
v -0.39063534 0.058722254 0.2994817
v -0.42479125 0.020139998 0.2985696
v -0.2725169 0.08276559 -0.46081558
v -0.48187506 0.02014 -0.4591266
v -0.2685956 0.020139998 -0.49957624
v -0.4383941 0.10685294 -0.42733088
v -0.308438 0.1089524 -0.36992252
v -0.4501334 0.10688789 -0.40429968
v -0.49427572 0.02014 -0.4104877
v -0.41199723 0.106922664 -0.27793545
v -0.44310948 0.02014 -0.2371834
v -0.2725169 0.08276559 -0.46081558
v -0.2685956 0.020139998 -0.49957624
v -0.20188677 0.02014 -0.4627578
v -0.24708131 0.07563143 -0.44206464
v -0.308438 0.1089524 -0.36992252
v -0.19139145 0.075726 -0.2437353
v -0.1550721 0.020139998 -0.22233655
v -0.24680105 0.06425268 -0.20583758
v -0.41199723 0.106922664 -0.27793545
v -0.2443155 0.020139998 -0.16954772
v -0.44310948 0.02014 -0.2371834
v 0.33130693 0.103917725 -0.100727044
v 0.53688145 0.02014 -0.18807495
v 0.33827186 0.02014 -0.0735877
v 0.50342375 0.1238257 -0.20262924
v 0.36817452 0.13143498 -0.26251575
v 0.51123935 0.123854585 -0.23481834
v 0.53965956 0.02014 -0.2448072
v 0.44326928 0.12388332 -0.37340376
v 0.45731714 0.02014 -0.41534325
v 0.33130693 0.103917725 -0.100727044
v 0.33827186 0.02014 -0.0735877
v 0.26676157 0.02014 -0.09129871
v 0.29985046 0.09802138 -0.113956206
v 0.36817452 0.13143498 -0.26251575
v 0.19767784 0.09809954 -0.33302543
v 0.17590785 0.020139998 -0.33588958
v 0.2495226 0.123962276 -0.39934826
v 0.44326928 0.12388332 -0.37340376
v 0.2522122 0.02014 -0.4225958
v 0.45731714 0.02014 -0.41534325
v 0.28969935 0.047480654 0.02139875
v 0.37281126 0.020139998 0.077300034
v 0.28438163 0.02014 0.03596042
v 0.36844742 0.056168195 0.060948577
v 0.36760908 0.07058521 -0.020555485
v 0.38404167 0.056180794 0.05281587
v 0.39642265 0.02014 0.0576714
v 0.43093747 0.05619337 -0.027227843
v 0.44822562 0.02014 -0.039360523
v 0.28969935 0.047480654 0.02139875
v 0.28438163 0.02014 0.03596042
v 0.27645788 0.02014 -0.0005162842
v 0.2892052 0.07629028 0.0026969702
v 0.36760908 0.07058521 -0.020555485
v 0.364386 0.076324396 -0.15958098
v 0.35651144 0.02014 -0.12825973
v 0.40364817 0.08761051 -0.12242573
v 0.43093747 0.05619337 -0.027227843
v 0.40782762 0.02014 -0.12803356
v 0.44822562 0.02014 -0.039360523
v 0.34068856 0.08770998 0.26963308
v 0.2781321 0.02014 0.35864294
v 0.33402357 0.02014 0.25174507
v 0.29757637 0.096397504 0.36504734
v 0.39372322 0.0997181 0.3942272
v 0.299494 0.096410096 0.3824338
v 0.2878235 0.02014 0.3877245
v 0.37812406 0.09642269 0.47115847
v 0.38077188 0.02014 0.4942634
v 0.34068856 0.08770998 0.26963308
v 0.33402357 0.02014 0.25174507
v 0.36663553 0.02014 0.25600073
v 0.3628642 0.08513689 0.27596864
v 0.39372322 0.0997181 0.3942272
v 0.49299976 0.08517101 0.374515
v 0.5016782 0.02014 0.37481
v 0.4814989 0.096457146 0.4612065
v 0.37812406 0.09642269 0.47115847
v 0.48619708 0.02014 0.46837544
v 0.38077188 0.02014 0.4942634
vt 0.77228165 0.38759086
vt 0.75222856 0.38589573
vt 0.76853967 0.38589573
vt 0.76853967 0.410435
vt 0.77228165 0.40873972
vt 0.75222856 0.410435
vt 0.74364775 0.410435
vt 0.74364775 0.38589573
vt 0.73369145 0.3867433
vt 0.73369145 0.40958738
vt 0.72901964 0.36123252
vt 0.7190303 0.37678477
vt 0.7190303 0.36123252
vt 0.72901964 0.37678477
vt 0.7190303 0.38035473
vt 0.72901964 0.38035473
vt 0.7723957 0.37678477
vt 0.77052873 0.36123252
vt 0.7723957 0.36123252
vt 0.77052873 0.37678477
vt 0.7714622 0.38035485
vt 0.76567584 0.36123252
vt 0.7681023 0.37678477
vt 0.7681023 0.38035485
vt 0.76567584 0.37678477
vt 0.7608231 0.36123252
vt 0.76567584 0.38035485
vt 0.7608231 0.37678477
vt 0.7591495 0.36123252
vt 0.7608231 0.38035485
vt 0.7591495 0.37678477
vt 0.7591495 0.38035485
vt 0.7518074 0.38035485
vt 0.75877064 0.37678477
vt 0.75877064 0.38035485
vt 0.7518074 0.37678477
vt 0.75877064 0.36123252
vt 0.7518074 0.36123252
vt 0.7488666 0.36123252
vt 0.7488666 0.37678477
vt 0.7488666 0.38035473
vt 0.7518074 0.38035473
vt 0.7345049 0.38035473
vt 0.7345049 0.37678477
vt 0.7345049 0.36123252
vt 0.72732395 0.37678477
vt 0.72732395 0.38035473
vt 0.71872544 0.38035473
vt 0.720143 0.37678477
vt 0.720143 0.36123252
vt 0.7173079 0.37678477
vt 0.7173079 0.36123252
vt 0.8653698 0.5098957
vt 0.8785764 0.47704715
vt 0.8653698 0.47704554
vt 0.87797105 0.50988555
vt 0.8834467 0.5313819
vt 0.8894609 0.50989544
vt 0.89116585 0.47704554
vt 0.90225565 0.50990534
vt 0.90225565 0.4770438
vt 0.8653698 0.5098957
vt 0.8653698 0.47704554
vt 0.877529 0.477044
vt 0.8772532 0.50990593
vt 0.8834467 0.5313819
vt 0.88606596 0.5099335
vt 0.88657653 0.47703958
vt 0.8956859 0.5099335
vt 0.90225565 0.50990534
vt 0.8942094 0.47703952
vt 0.90225565 0.4770438
vt 0.8653698 0.5697694
vt 0.8785764 0.53692085
vt 0.8653698 0.53691924
vt 0.87797105 0.56975925
vt 0.8834467 0.58647203
vt 0.8894609 0.56976914
vt 0.89116585 0.53691924
vt 0.90225565 0.56977904
vt 0.90225565 0.5369175
vt 0.8653698 0.5697694
vt 0.8653698 0.53691924
vt 0.877529 0.5369177
vt 0.8772532 0.56977963
vt 0.8834467 0.58647203
vt 0.88606596 0.5698072
vt 0.88657653 0.5369133
vt 0.8956859 0.5698072
vt 0.90225565 0.56977904
vt 0.8942094 0.5369132
vt 0.90225565 0.5369175
vt 0.8653698 0.5697694
vt 0.8785764 0.53692085
vt 0.8653698 0.53691924
vt 0.87797105 0.56975925
vt 0.8834467 0.58647203
vt 0.8894609 0.56976914
vt 0.89116585 0.53691924
vt 0.90225565 0.56977904
vt 0.90225565 0.5369175
vt 0.8653698 0.5697694
vt 0.8653698 0.53691924
vt 0.877529 0.5369177
vt 0.8772532 0.56977963
vt 0.8834467 0.58647203
vt 0.88606596 0.5698072
vt 0.88657653 0.5369133
vt 0.8956859 0.5698072
vt 0.90225565 0.56977904
vt 0.8942094 0.5369132
vt 0.90225565 0.5369175
vt 0.8653698 0.5697694
vt 0.8785764 0.53692085
vt 0.8653698 0.53691924
vt 0.87797105 0.56975925
vt 0.8834467 0.58647203
vt 0.8894609 0.56976914
vt 0.89116585 0.53691924
vt 0.90225565 0.56977904
vt 0.90225565 0.5369175
vt 0.8653698 0.5697694
vt 0.8653698 0.53691924
vt 0.877529 0.5369177
vt 0.8772532 0.56977963
vt 0.8834467 0.58647203
vt 0.88606596 0.5698072
vt 0.88657653 0.5369133
vt 0.8956859 0.5698072
vt 0.90225565 0.56977904
vt 0.8942094 0.5369132
vt 0.90225565 0.5369175
vn -0.08015555 0.9591055 -0.2714623
vn -0.5766353 0.80777526 0.12243701
vn -0.37628785 0.88755465 -0.26580873
vn 0.225361 0.97273266 0.054804273
vn 0.2849283 0.94391143 -0.16687433
vn -0.09898376 0.8797322 0.46505207
vn -0.17986006 0.69163775 0.699491
vn -0.7193726 0.67904824 0.14627573
vn -0.4344296 0.8658512 0.24813825
vn -0.28268656 0.9146454 0.28898466
vn -0.78975034 0.55711675 0.25673997
vn -0.5360204 0.61987907 0.57308984
vn -0.43566436 0.5618681 0.70320755
vn -0.6491261 0.6199844 0.44074342
vn -0.28268656 0.9146454 0.28898466
vn -0.4344296 0.8658512 0.24813825
vn -0.5360204 0.61987907 0.57308984
vn -0.009061299 0.49988154 0.8660464
vn -0.43566436 0.5618681 0.70320755
vn -0.12491257 0.71535534 0.6875053
vn -0.28268656 0.9146454 0.28898466
vn 0.54398876 0.24374025 0.8029116
vn 0.18978392 0.3943942 0.8991303
vn -0.17986006 0.69163775 0.699491
vn 0.5027733 0.5199053 0.6905921
vn 0.93497354 0.14133468 0.32534453
vn -0.09898376 0.8797322 0.46505207
vn 0.7985448 0.5410024 0.26389864
vn 0.9175823 0.16484046 -0.36176
vn 0.225361 0.97273266 0.054804273
vn 0.7790864 0.5265943 -0.3401807
vn 0.2849283 0.94391143 -0.16687433
vn -0.08015555 0.9591055 -0.2714623
vn 0.7790864 0.5265943 -0.3401807
vn 0.2849283 0.94391143 -0.16687433
vn 0.25181693 0.5587335 -0.79019314
vn 0.9175823 0.16484046 -0.36176
vn 0.32915145 0.1670164 -0.9293895
vn -0.37983778 0.1649702 -0.9102242
vn -0.4087062 0.5094098 -0.757272
vn -0.37628785 0.88755465 -0.26580873
vn -0.08015555 0.9591055 -0.2714623
vn -0.5766353 0.80777526 0.12243701
vn -0.8484797 0.52126676 -0.09145097
vn -0.8197268 0.1804337 -0.5435914
vn -0.9142937 0.31167912 -0.25869536
vn -0.7193726 0.67904824 0.14627573
vn -0.4344296 0.8658512 0.24813825
vn -0.70749855 0.70493144 0.050175115
vn -0.84835416 0.49148712 -0.19681396
vn -0.6491261 0.6199844 0.44074342
vn -0.78975034 0.55711675 0.25673997
vn 0.21207483 0.77831435 -0.5909747
vn -0.5868245 0.5129961 -0.62647593
vn 0.12930083 0.5277036 -0.8395298
vn -0.3038946 0.8018761 -0.5144345
vn 0.17100172 0.98452735 -0.03826659
vn -0.5908434 0.80633694 -0.026921116
vn -0.89079446 0.45433092 0.008286102
vn -0.3923141 0.8148801 0.4266848
vn -0.5949084 0.51947325 0.61337715
vn 0.21207483 0.77831435 -0.5909747
vn 0.12930083 0.5277036 -0.8395298
vn 0.64842 0.6179583 -0.44461113
vn 0.5449647 0.78909445 -0.28344938
vn 0.17100172 0.98452735 -0.03826659
vn 0.5291605 0.8076327 0.26022798
vn 0.7114007 0.6128202 0.34403536
vn 0.07225495 0.7730502 0.63021636
vn -0.3923141 0.8148801 0.4266848
vn 0.075803354 0.63602424 0.7679368
vn -0.5949084 0.51947325 0.61337715
vn -0.009669036 0.7201536 0.6937473
vn 0.8072075 0.30967468 0.5025114
vn 0.13955393 0.3156432 0.9385596
vn 0.5176847 0.73819894 0.43250996
vn -0.07348489 0.99536926 0.061967723
vn 0.67227155 0.73560685 -0.08326808
vn 0.93978316 0.27840796 -0.19823338
vn 0.4169223 0.73855907 -0.52981716
vn 0.51297873 0.35108837 -0.78331965
vn -0.009669036 0.7201536 0.6937473
vn 0.13955393 0.3156432 0.9385596
vn -0.62454945 0.39758763 0.67220694
vn -0.50703615 0.7251994 0.4658328
vn -0.07348489 0.99536926 0.061967723
vn -0.78119904 0.62314606 -0.037645202
vn -0.9594924 0.23902068 -0.14914218
vn -0.36542988 0.72321916 -0.58601636
vn 0.4169223 0.73855907 -0.52981716
vn -0.36299932 0.19463676 -0.9112343
vn 0.51297873 0.35108837 -0.78331965
vn -0.6076486 0.5381967 0.5840441
vn 0.09178492 0.40529606 0.9095662
vn -0.6626236 0.44838682 0.5998994
vn -0.046551593 0.7315921 0.6801514
vn 0.091176316 0.98007584 0.1764605
vn 0.48037317 0.7239357 0.4951351
vn 0.7327217 0.31975666 0.6007284
vn 0.71095455 0.66384995 0.23204947
vn 0.945596 0.32141244 0.050420795
vn -0.6076486 0.5381967 0.5840441
vn -0.6626236 0.44838682 0.5998994
vn -0.9719135 0.21133885 -0.10353716
vn -0.53653985 0.7794128 0.32348204
vn 0.091176316 0.98007584 0.1764605
vn -0.07263521 0.3587515 -0.9306028
vn -0.43225288 -0.21006168 -0.8769445
vn 0.44972262 0.7659148 -0.45948246
vn 0.71095455 0.66384995 0.23204947
vn 0.5418646 0.102895714 -0.83414346
vn 0.945596 0.32141244 0.050420795
vn -0.28144732 0.6831148 -0.6739002
vn -0.97017395 0.2232642 -0.0944224
vn -0.43518093 0.2702826 -0.8588159
vn -0.656307 0.74348193 -0.1284356
vn 0.039429314 0.99770397 -0.05506608
vn -0.6409312 0.705784 0.30178827
vn -0.8556182 0.16712838 0.48988336
vn -0.29142636 0.69973487 0.65225893
vn -0.29850495 0.22213836 0.92819685
vn -0.28144732 0.6831148 -0.6739002
vn -0.43518093 0.2702826 -0.8588159
vn 0.3829578 0.24677719 -0.89019346
vn 0.36038837 0.69615346 -0.62087893
vn 0.039429314 0.99770397 -0.05506608
vn 0.72938925 0.60216385 -0.32463837
vn 0.93676394 0.10848127 -0.33272356
vn 0.56568545 0.65578043 0.49995208
vn -0.29142636 0.69973487 0.65225893
vn 0.7233319 0.10858554 0.68190914
vn -0.29850495 0.22213836 0.92819685
g obj_boss_stone1_0
f 3/3/3 2/2/2 1/1/1
f 2/2/2 4/4/4 1/1/1
f 1/1/1 4/4/4 5/5/5
f 6/6/6 4/4/4 2/2/2
f 6/6/6 2/2/2 7/7/7
f 8/8/8 7/7/7 2/2/2
f 8/8/8 9/9/9 7/7/7
f 10/10/10 7/7/7 9/9/9
f 13/13/13 12/12/12 11/11/11
f 14/14/14 11/11/11 12/12/12
f 12/12/12 15/15/15 14/14/14
f 16/16/16 14/14/14 15/15/15
f 19/19/19 18/18/18 17/17/17
f 20/20/20 17/17/17 18/18/18
f 20/20/20 21/21/21 17/17/17
f 18/18/18 22/22/22 20/20/20
f 20/20/20 23/23/23 21/21/21
f 23/23/23 20/20/20 22/22/22
f 24/24/24 21/21/21 23/23/23
f 25/25/25 23/23/23 22/22/22
f 23/23/23 25/25/25 24/24/24
f 22/22/22 26/26/26 25/25/25
f 27/27/27 24/24/24 25/25/25
f 28/28/28 25/25/25 26/26/26
f 25/25/25 28/28/28 27/27/27
f 26/26/26 29/29/29 28/28/28
f 30/30/30 27/27/27 28/28/28
f 31/31/31 28/28/28 29/29/29
f 30/30/30 28/28/28 32/32/32
f 31/31/31 32/32/32 28/28/28
f 35/35/35 34/34/34 33/33/33
f 36/36/36 33/33/33 34/34/34
f 34/34/34 37/37/37 36/36/36
f 38/38/38 36/36/36 37/37/37
f 38/38/38 39/39/39 36/36/36
f 40/40/40 36/36/36 39/39/39
f 40/40/40 41/41/41 36/36/36
f 42/42/42 36/36/36 41/41/41
f 41/41/41 40/40/40 43/43/43
f 40/40/40 39/39/39 44/44/44
f 44/44/44 43/43/43 40/40/40
f 45/45/45 44/44/44 39/39/39
f 44/44/44 46/46/46 43/43/43
f 44/44/44 45/45/45 46/46/46
f 47/47/47 43/43/43 46/46/46
f 47/47/47 46/46/46 48/48/48
f 46/46/46 45/45/45 49/49/49
f 49/49/49 48/48/48 46/46/46
f 50/50/50 49/49/49 45/45/45
f 51/51/51 48/48/48 49/49/49
f 50/50/50 52/52/52 49/49/49
f 51/51/51 49/49/49 52/52/52
f 55/55/55 54/54/54 53/53/53
f 54/54/54 56/56/56 53/53/53
f 53/53/53 56/56/56 57/57/57
f 54/54/54 58/58/58 56/56/56
f 57/57/57 56/56/56 58/58/58
f 54/54/54 59/59/59 58/58/58
f 57/57/57 58/58/58 60/60/60
f 60/60/60 58/58/58 59/59/59
f 59/59/59 61/61/61 60/60/60
f 64/64/64 63/63/63 62/62/62
f 64/64/64 62/62/62 65/65/65
f 65/65/65 62/62/62 66/66/66
f 65/65/65 67/67/67 64/64/64
f 66/66/66 67/67/67 65/65/65
f 67/67/67 68/68/68 64/64/64
f 69/69/69 67/67/67 66/66/66
f 69/69/69 68/68/68 67/67/67
f 70/70/70 69/69/69 66/66/66
f 69/69/69 71/71/71 68/68/68
f 70/70/70 72/72/72 69/69/69
f 71/71/71 69/69/69 72/72/72
f 75/75/75 74/74/74 73/73/73
f 74/74/74 76/76/76 73/73/73
f 73/73/73 76/76/76 77/77/77
f 74/74/74 78/78/78 76/76/76
f 77/77/77 76/76/76 78/78/78
f 74/74/74 79/79/79 78/78/78
f 77/77/77 78/78/78 80/80/80
f 80/80/80 78/78/78 79/79/79
f 79/79/79 81/81/81 80/80/80
f 84/84/84 83/83/83 82/82/82
f 84/84/84 82/82/82 85/85/85
f 85/85/85 82/82/82 86/86/86
f 85/85/85 87/87/87 84/84/84
f 86/86/86 87/87/87 85/85/85
f 87/87/87 88/88/88 84/84/84
f 89/89/89 87/87/87 86/86/86
f 89/89/89 88/88/88 87/87/87
f 90/90/90 89/89/89 86/86/86
f 89/89/89 91/91/91 88/88/88
f 90/90/90 92/92/92 89/89/89
f 91/91/91 89/89/89 92/92/92
f 95/95/95 94/94/94 93/93/93
f 94/94/94 96/96/96 93/93/93
f 93/93/93 96/96/96 97/97/97
f 94/94/94 98/98/98 96/96/96
f 97/97/97 96/96/96 98/98/98
f 94/94/94 99/99/99 98/98/98
f 97/97/97 98/98/98 100/100/100
f 100/100/100 98/98/98 99/99/99
f 99/99/99 101/101/101 100/100/100
f 104/104/104 103/103/103 102/102/102
f 104/104/104 102/102/102 105/105/105
f 105/105/105 102/102/102 106/106/106
f 105/105/105 107/107/107 104/104/104
f 106/106/106 107/107/107 105/105/105
f 107/107/107 108/108/108 104/104/104
f 109/109/109 107/107/107 106/106/106
f 109/109/109 108/108/108 107/107/107
f 110/110/110 109/109/109 106/106/106
f 109/109/109 111/111/111 108/108/108
f 110/110/110 112/112/112 109/109/109
f 111/111/111 109/109/109 112/112/112
f 115/115/115 114/114/114 113/113/113
f 114/114/114 116/116/116 113/113/113
f 113/113/113 116/116/116 117/117/117
f 114/114/114 118/118/118 116/116/116
f 117/117/117 116/116/116 118/118/118
f 114/114/114 119/119/119 118/118/118
f 117/117/117 118/118/118 120/120/120
f 120/120/120 118/118/118 119/119/119
f 119/119/119 121/121/121 120/120/120
f 124/124/124 123/123/123 122/122/122
f 124/124/124 122/122/122 125/125/125
f 125/125/125 122/122/122 126/126/126
f 125/125/125 127/127/127 124/124/124
f 126/126/126 127/127/127 125/125/125
f 127/127/127 128/128/128 124/124/124
f 129/129/129 127/127/127 126/126/126
f 129/129/129 128/128/128 127/127/127
f 130/130/130 129/129/129 126/126/126
f 129/129/129 131/131/131 128/128/128
f 130/130/130 132/132/132 129/129/129
f 131/131/131 129/129/129 132/132/132
