g obj_billboard_sohee
v -0.16731107 1.4838557 -0.064138286
v 0.06933189 1.5832647 -0.05544116
v -0.096533075 1.5832647 -0.05544116
v 0.2289437 1.4602172 -0.066206455
v -0.17304985 1.3828573 -0.07297458
v 0.36556032 1.2688737 -0.08294679
v -0.38357493 1.2207448 -0.087157525
v -0.26487043 1.3593031 -0.07503526
v 0.42111388 1.0424951 -0.10275241
v -0.4399281 1.049936 -0.10210141
v 0.42092112 0.8956187 -0.11560237
v -0.4399281 0.6629287 -0.13596009
v 0.44130757 0.8255491 -0.12173262
v 0.37367997 0.52371204 -0.14814003
v -0.5109992 0.56369674 -0.14464182
v 0.4480756 0.5547043 -0.14542858
v 0.51416487 0.63151133 -0.13870881
v 0.51416487 0.77676636 -0.12600061
v 0.3182215 0.38896292 -0.15992902
v 0.37367997 0.43343005 -0.15603873
v -0.3337496 0.3161984 -0.1662951
v 0.2086576 0.34045327 -0.16417305
v -0.5109992 0.48732972 -0.15132307
v -0.38515028 0.32832578 -0.16523413
v 0.2086576 0.25017133 -0.17207168
v -0.33104488 0.23669639 -0.1732506
v -0.26016083 0.1622496 -0.17976388
v 0.16054352 0.16721469 -0.1793295
v 0.16073555 0.06614707 -0.18817174
v -0.2601608 0.0710311 -0.18774454
v -0.19848636 -0.008677185 -0.194718
v 0.10450431 -0.008677185 -0.194718
v 0.06933189 1.5832647 -0.05544116
v 0.069202624 1.5834712 0.012761823
v -0.09038532 1.5834712 0.012761823
v -0.096533075 1.5832647 -0.05544116
v -0.096533075 1.5832647 -0.05544116
v -0.09038532 1.5834712 0.012761823
v -0.15848476 1.4840622 0.0040646815
v -0.16731107 1.4838557 -0.064138286
v -0.16731107 1.4838557 -0.064138286
v -0.15848476 1.4840622 0.0040646815
v -0.16400638 1.3830638 -0.0047716
v -0.17304985 1.3828573 -0.07297458
v 0.2289437 1.4602172 -0.066206455
v 0.22277404 1.4604238 0.0019965293
v 0.069202624 1.5834712 0.012761823
v 0.06933189 1.5832647 -0.05544116
v 0.36556032 1.2688737 -0.08294679
v 0.3542205 1.2690802 -0.014743831
v 0.22277404 1.4604238 0.0019965293
v 0.2289437 1.4602172 -0.066206455
v 0.42111388 1.0424951 -0.10275241
v 0.40767166 1.0427016 -0.034549456
v 0.3542205 1.2690802 -0.014743831
v 0.36556032 1.2688737 -0.08294679
v 0.42092112 0.8956187 -0.11560237
v 0.4074862 0.8958252 -0.047399383
v 0.40767166 1.0427016 -0.034549456
v 0.42111388 1.0424951 -0.10275241
v 0.44130757 0.8255491 -0.12173262
v 0.42710117 0.82575566 -0.053529643
v 0.4074862 0.8958252 -0.047399383
v 0.42092112 0.8956187 -0.11560237
v 0.4480756 0.5547043 -0.14542858
v 0.433613 0.55491084 -0.07722565
v 0.4972012 0.63171786 -0.070505865
v 0.51416487 0.63151133 -0.13870881
v 0.37367997 0.52371204 -0.14814003
v 0.36203286 0.5239185 -0.079937056
v 0.433613 0.55491084 -0.07722565
v 0.4480756 0.5547043 -0.14542858
v 0.37367997 0.43343005 -0.15603873
v 0.36203286 0.43363658 -0.087835744
v 0.36203286 0.5239185 -0.079937056
v 0.37367997 0.52371204 -0.14814003
v -0.5109992 0.56369674 -0.14464182
v -0.48916626 0.5639033 -0.07643887
v -0.48916626 0.48753625 -0.0831201
v -0.5109992 0.48732972 -0.15132307
v 0.51416487 0.63151133 -0.13870881
v 0.4972012 0.63171786 -0.070505865
v 0.4972012 0.7769729 -0.05779761
v 0.51416487 0.77676636 -0.12600061
v 0.51416487 0.77676636 -0.12600061
v 0.4972012 0.7769729 -0.05779761
v 0.42710117 0.82575566 -0.053529643
v 0.44130757 0.8255491 -0.12173262
v -0.4399281 0.6629287 -0.13596009
v -0.42078486 0.66313523 -0.06775703
v -0.48916626 0.5639033 -0.07643887
v -0.5109992 0.56369674 -0.14464182
v -0.17304985 1.3828573 -0.07297458
v -0.16400638 1.3830638 -0.0047716
v -0.2523521 1.3595096 -0.0068322807
v -0.26487043 1.3593031 -0.07503526
v -0.26487043 1.3593031 -0.07503526
v -0.2523521 1.3595096 -0.0068322807
v -0.3665643 1.2209513 -0.018954504
v -0.38357493 1.2207448 -0.087157525
v -0.38357493 1.2207448 -0.087157525
v -0.3665643 1.2209513 -0.018954504
v -0.42078486 1.0501426 -0.033898454
v -0.4399281 1.049936 -0.10210141
v -0.4399281 1.049936 -0.10210141
v -0.42078486 1.0501426 -0.033898454
v -0.42078486 0.66313523 -0.06775703
v -0.4399281 0.6629287 -0.13596009
vt 0.6784837 0.18093438
vt 0.6670682 0.18508224
vt 0.67506945 0.18508224
vt 0.65936863 0.17994808
vt 0.6787606 0.17672019
vt 0.6527783 0.17196421
vt 0.68891615 0.16995601
vt 0.6831899 0.1757374
vt 0.6500379 0.16251849
vt 0.6916346 0.16282897
vt 0.65016836 0.15639003
vt 0.6916346 0.14668097
vt 0.6491244 0.15346636
vt 0.6523867 0.14087214
vt 0.695063 0.14254053
vt 0.6487979 0.14216529
vt 0.6456098 0.14537008
vt 0.6456098 0.15143089
vt 0.65506196 0.13524969
vt 0.65238667 0.13710509
vt 0.6865126 0.13221358
vt 0.6603472 0.1332256
vt 0.695063 0.1393541
vt 0.68899214 0.13271959
vt 0.6603472 0.12945856
vt 0.6863821 0.12889634
vt 0.682989 0.12586282
vt 0.66269624 0.12591644
vt 0.662631 0.1216996
vt 0.6829403 0.12205994
vt 0.6799876 0.11865805
vt 0.66537154 0.11865805
vt 0.6989379 0.18694521
vt 0.7063875 0.18695776
vt 0.7063875 0.18695776
vt 0.6989379 0.18694521
vt 0.6989379 0.18694521
vt 0.7063875 0.18695776
vt 0.7063875 0.1809207
vt 0.6989379 0.18090813
vt 0.6989379 0.18090813
vt 0.7063875 0.1809207
vt 0.7063875 0.17478703
vt 0.6989379 0.17477448
vt 0.6989379 0.17947255
vt 0.7063875 0.1794851
vt 0.7063875 0.18695776
vt 0.6989379 0.18694521
vt 0.6989379 0.1678523
vt 0.7063875 0.16786478
vt 0.7063875 0.1794851
vt 0.6989379 0.17947255
vt 0.6989379 0.15410434
vt 0.7063875 0.15411682
vt 0.7063875 0.16786478
vt 0.6989379 0.1678523
vt 0.6989379 0.1451845
vt 0.7063875 0.14519705
vt 0.7063875 0.15411682
vt 0.6989379 0.15410434
vt 0.6989379 0.1409292
vt 0.7063875 0.14094175
vt 0.7063875 0.14519705
vt 0.6989379 0.1451845
vt 0.6989379 0.12448083
vt 0.7063875 0.124493375
vt 0.7063875 0.12915786
vt 0.6989379 0.12914531
vt 0.6989379 0.12259866
vt 0.7063875 0.12261121
vt 0.7063875 0.124493375
vt 0.6989379 0.12448083
vt 0.6989379 0.11711584
vt 0.7063875 0.11712839
vt 0.7063875 0.12261121
vt 0.6989379 0.12259866
vt 0.6989379 0.1326059
vt 0.7063875 0.13261841
vt 0.7063875 0.12798066
vt 0.6989379 0.12796812
vt 0.6989379 0.12914531
vt 0.7063875 0.12915786
vt 0.7063875 0.1379792
vt 0.6989379 0.13796665
vt 0.6989379 0.13796665
vt 0.7063875 0.1379792
vt 0.7063875 0.14094175
vt 0.6989379 0.1409292
vt 0.6989379 0.13863222
vt 0.7063875 0.13864477
vt 0.7063875 0.13261841
vt 0.6989379 0.1326059
vt 0.6989379 0.18235342
vt 0.7063875 0.18236597
vt 0.7063875 0.18093552
vt 0.6989379 0.18092297
vt 0.6989379 0.18092297
vt 0.7063875 0.18093552
vt 0.7063875 0.17252092
vt 0.6989379 0.17250837
vt 0.6989379 0.17250837
vt 0.7063875 0.17252092
vt 0.7063875 0.16214772
vt 0.6989379 0.16213517
vt 0.6989379 0.16213517
vt 0.7063875 0.16214772
vt 0.7063875 0.13864477
vt 0.6989379 0.13863222
vn -0 0.08715579 -0.9961947
vn -1.3673504E-07 0.087155685 -0.9961947
vn -1.3673505E-07 0.0871557 -0.9961947
vn -0 0.08715581 -0.9961947
vn -0 0.08715558 -0.9961947
vn -0 0.0871559 -0.9961947
vn -0 0.08715585 -0.9961947
vn -0 0.087155454 -0.9961947
vn -0 0.08715561 -0.9961947
vn -0 0.08715571 -0.9961947
vn -0 0.08715541 -0.9961947
vn -0 0.08715596 -0.9961947
vn -1.1788311E-07 0.08715582 -0.9961947
vn -3.2602526E-07 0.087155975 -0.9961947
vn 1.4646946E-07 0.087156005 -0.9961947
vn -5.450009E-07 0.08715615 -0.9961947
vn -1.3967569E-07 0.08715615 -0.9961947
vn -4.642685E-07 0.08715601 -0.9961947
vn -3.041263E-07 0.08715577 -0.9961947
vn -1.7317172E-06 0.08715637 -0.9961946
vn 1.081348E-07 0.08715568 -0.9961947
vn -0 0.08715557 -0.9961947
vn 5.513224E-07 0.08715618 -0.9961947
vn 5.513224E-07 0.08715618 -0.9961947
vn -0 0.08715586 -0.9961947
vn -0 0.08715583 -0.9961947
vn -0 0.08715622 -0.9961947
vn -0 0.08715621 -0.9961947
vn 1.1487007E-07 0.08715555 -0.9961947
vn 1.1466239E-07 0.087155566 -0.9961947
vn 1.2469079E-07 0.087154776 -0.99619484
vn 1.2469081E-07 0.08715478 -0.99619484
vn -0 0.99999547 -0.0030279134
vn -0 0.99999547 -0.0030279139
vn -0 0.99999547 -0.0030279134
vn -0 0.99999547 -0.0030279139
vn -0.8202103 0.56520194 0.088327795
vn -0.8202103 0.56520194 0.0883278
vn -0.8202103 0.56520194 0.08832781
vn -0.82021034 0.56520194 0.088327795
vn -0.99059 0.043878913 0.12963872
vn -0.99059 0.043878913 0.12963872
vn -0.99059 0.043878917 0.12963873
vn -0.99059 0.043878917 0.12963873
vn 0.61875695 0.78514564 0.026195453
vn 0.6187569 0.78514564 0.026195453
vn 0.618757 0.78514564 0.026195457
vn 0.61875695 0.78514564 0.026195453
vn 0.81888676 0.56456345 0.10340522
vn 0.81888676 0.5645634 0.10340522
vn 0.81888676 0.5645635 0.10340522
vn 0.81888676 0.56456345 0.10340522
vn 0.9607614 0.21609671 0.17389537
vn 0.9607614 0.2160967 0.17389537
vn 0.9607614 0.2160967 0.17389537
vn 0.9607614 0.2160967 0.17389537
vn 0.9809631 -0.01817815 0.19334184
vn 0.980963 -0.01817815 0.19334182
vn 0.9809631 -0.018178148 0.19334182
vn 0.980963 -0.01817815 0.19334182
vn 0.9481152 0.2538894 0.19135751
vn 0.9481152 0.2538894 0.19135752
vn 0.9481152 0.25388938 0.19135752
vn 0.9481152 0.2538894 0.19135752
vn 0.7449919 -0.6440921 0.17358714
vn 0.74499184 -0.6440921 0.17358713
vn 0.74499184 -0.6440921 0.17358713
vn 0.7449919 -0.6440921 0.17358713
vn 0.3872667 -0.9187543 0.076909214
vn 0.38726667 -0.9187543 0.07690921
vn 0.3872667 -0.9187543 0.0769092
vn 0.3872667 -0.9187543 0.0769092
vn 0.9856156 -0.014729602 0.16835913
vn 0.9856156 -0.014729602 0.16835912
vn 0.9856156 -0.014729602 0.16835913
vn 0.9856156 -0.014729604 0.16835915
vn -0.9520296 -0.02667014 0.3048413
vn -0.9520296 -0.026670141 0.3048413
vn -0.9520296 -0.02667014 0.3048413
vn -0.9520296 -0.026670141 0.30484134
vn 0.97020197 -0.02111774 0.24137565
vn 0.97020197 -0.02111774 0.24137567
vn 0.97020197 -0.021117741 0.24137567
vn 0.97020197 -0.021117741 0.24137568
vn 0.56432414 0.8158065 0.1264833
vn 0.5643241 0.8158065 0.1264833
vn 0.5643241 0.8158065 0.1264833
vn 0.5643242 0.81580645 0.1264833
vn -0.804065 0.5439953 0.23989289
vn -0.804065 0.5439953 0.23989289
vn -0.804065 0.5439953 0.23989289
vn -0.80406505 0.5439953 0.23989289
vn -0.25358853 0.9665982 0.037158158
vn -0.25358853 0.9665982 0.037158154
vn -0.25358853 0.9665982 0.03715815
vn -0.2535885 0.9665982 0.03715815
vn -0.7622462 0.62639827 0.1631133
vn -0.7622462 0.62639827 0.1631133
vn -0.7622462 0.62639827 0.16311328
vn -0.76224613 0.62639827 0.1631133
vn -0.92843306 0.27905723 0.24523287
vn -0.92843306 0.2790572 0.24523287
vn -0.92843306 0.2790572 0.24523287
vn -0.92843306 0.27905723 0.24523287
vn -0.96250594 -0.023641838 0.27022845
vn -0.96250594 -0.023641841 0.27022848
vn -0.96250594 -0.023641838 0.27022848
vn -0.96250594 -0.023641841 0.27022848
g obj_billboard_sohee_0
f 3/3/3 2/2/2 1/1/1
f 2/2/2 4/4/4 1/1/1
f 1/1/1 4/4/4 5/5/5
f 4/4/4 6/6/6 5/5/5
f 5/5/5 6/6/6 7/7/7
f 8/8/8 5/5/5 7/7/7
f 6/6/6 9/9/9 7/7/7
f 9/9/9 10/10/10 7/7/7
f 9/9/9 11/11/11 10/10/10
f 12/12/12 10/10/10 11/11/11
f 13/13/13 12/12/12 11/11/11
f 14/14/14 12/12/12 13/13/13
f 15/15/15 12/12/12 14/14/14
f 16/16/16 14/14/14 13/13/13
f 17/17/17 16/16/16 13/13/13
f 18/18/18 17/17/17 13/13/13
f 19/19/19 15/15/15 14/14/14
f 20/20/20 19/19/19 14/14/14
f 21/21/21 15/15/15 19/19/19
f 22/22/22 21/21/21 19/19/19
f 23/23/23 15/15/15 21/21/21
f 24/24/24 23/23/23 21/21/21
f 21/21/21 22/22/22 25/25/25
f 26/26/26 21/21/21 25/25/25
f 27/27/27 26/26/26 25/25/25
f 28/28/28 27/27/27 25/25/25
f 27/27/27 28/28/28 29/29/29
f 30/30/30 27/27/27 29/29/29
f 31/31/31 30/30/30 29/29/29
f 32/32/32 31/31/31 29/29/29
f 35/35/35 34/34/34 33/33/33
f 36/36/36 35/35/35 33/33/33
f 39/39/39 38/38/38 37/37/37
f 40/40/40 39/39/39 37/37/37
f 43/43/43 42/42/42 41/41/41
f 44/44/44 43/43/43 41/41/41
f 47/47/47 46/46/46 45/45/45
f 48/48/48 47/47/47 45/45/45
f 51/51/51 50/50/50 49/49/49
f 52/52/52 51/51/51 49/49/49
f 55/55/55 54/54/54 53/53/53
f 56/56/56 55/55/55 53/53/53
f 59/59/59 58/58/58 57/57/57
f 60/60/60 59/59/59 57/57/57
f 63/63/63 62/62/62 61/61/61
f 64/64/64 63/63/63 61/61/61
f 67/67/67 66/66/66 65/65/65
f 68/68/68 67/67/67 65/65/65
f 71/71/71 70/70/70 69/69/69
f 72/72/72 71/71/71 69/69/69
f 75/75/75 74/74/74 73/73/73
f 76/76/76 75/75/75 73/73/73
f 79/79/79 78/78/78 77/77/77
f 80/80/80 79/79/79 77/77/77
f 83/83/83 82/82/82 81/81/81
f 84/84/84 83/83/83 81/81/81
f 87/87/87 86/86/86 85/85/85
f 88/88/88 87/87/87 85/85/85
f 91/91/91 90/90/90 89/89/89
f 92/92/92 91/91/91 89/89/89
f 95/95/95 94/94/94 93/93/93
f 96/96/96 95/95/95 93/93/93
f 99/99/99 98/98/98 97/97/97
f 100/100/100 99/99/99 97/97/97
f 103/103/103 102/102/102 101/101/101
f 104/104/104 103/103/103 101/101/101
f 107/107/107 106/106/106 105/105/105
f 108/108/108 107/107/107 105/105/105
