g obj_battle_screw2
v -0.28164423 -0.047944054 -0.19946869
v -0.32079425 -0.08294074 -0.20187633
v -0.20990239 -0.20401768 -0.20474862
v -0.1715511 -0.16814853 -0.20232101
v -0.24640954 -0.089052565 -0.04204028
v -0.20567147 -0.13353291 -0.04309513
v -0.11964563 -0.30417404 -0.110479124
v -0.081945054 -0.26758242 -0.10873267
v -0.047254447 -0.3080471 0.04565197
v -0.1725142 -0.17032675 -0.008463987
v -0.08470287 -0.34493315 0.045026742
v -0.15967701 -0.18530023 0.048663165
v -0.118419304 -0.3107247 0.20237187
v -0.17206338 -0.17273362 0.10646671
v -0.08072779 -0.27408606 0.20186143
v -0.2081186 -0.2143996 0.3015562
v -0.2050166 -0.13734634 0.14290424
v -0.16978236 -0.17845547 0.30033126
v -0.24640954 -0.089052565 -0.04204028
v -0.20567147 -0.13353291 -0.04309513
v 0.034088586 0.16775118 -0.037762348
v 0.07482725 0.1232693 -0.038817655
v -0.1725142 -0.17032675 -0.008463987
v 0.10798437 0.08647637 -0.0041869725
v 0.12082125 0.07150259 0.05293987
v -0.15967701 -0.18530023 0.048663165
v -0.17206338 -0.17273362 0.10646671
v 0.108434886 0.08406919 0.11074326
v -0.2050166 -0.13734634 0.14290424
v 0.07548167 0.11945587 0.14718094
v 0.16024923 0.07130346 -0.32578653
v 0.122142695 0.32822397 -0.32074937
v 0.013691365 0.23131959 -0.32199246
v 0.26868767 0.16822137 -0.32454944
v 0.2795253 -0.061053675 -0.20120147
v 0.26356336 0.3026719 0.012923545
v 0.38796866 0.035858702 -0.19997391
v 0.43415198 -0.01801002 0.005541143
v 0.32570124 -0.114914104 0.004298834
v 0.28114316 -0.069706045 0.21223566
v 0.38959402 0.027198035 0.2134775
v 0.27104902 0.15449773 0.3445553
v 0.1625977 0.057593036 0.34331223
v -0.41024753 0.013118843 -0.10320797
v -0.32079425 -0.08294074 -0.20187633
v -0.28164423 -0.047944054 -0.19946869
v -0.37045357 0.04742408 -0.10151176
v -0.24640954 -0.089052565 -0.04204028
v -0.4442169 0.047601093 0.05402084
v -0.27927226 -0.05376393 -0.005792985
v -0.40417674 0.081657104 0.054582145
v -0.29175156 -0.04109714 0.051968765
v -0.40952337 0.0071121217 0.20965363
v -0.27900627 -0.05597043 0.10914201
v -0.36973444 0.041461308 0.20909186
v -0.31941795 -0.09287921 0.30424303
v -0.24590524 -0.09270405 0.14389086
v -0.28027916 -0.057809383 0.30299905
v -0.2081186 -0.2143996 0.3015562
v -0.2050166 -0.13734634 0.14290424
v -0.16978236 -0.17845547 0.30033126
v 0.034088586 0.16775118 -0.037762348
v -0.27927226 -0.05376393 -0.005792985
v -0.24640954 -0.089052565 -0.04204028
v 0.0012267896 0.20304073 -0.0015145872
v -0.29175156 -0.04109714 0.051968765
v -0.011252844 0.21570845 0.05624578
v 0.001492307 0.20083393 0.11341933
v -0.27900627 -0.05597043 0.10914201
v -0.24590524 -0.09270405 0.14389086
v 0.034593344 0.1641 0.14816803
v -0.2050166 -0.13734634 0.14290424
v 0.07548167 0.11945587 0.14718094
v 0.013691365 0.23131959 -0.32199246
v 0.122142695 0.32822397 -0.32074937
v -0.1045288 0.3582745 -0.1915903
v 0.003929906 0.4551715 -0.19036211
v -0.14941664 0.40384024 0.0161978
v 0.26356336 0.3026719 0.012923545
v -0.04096546 0.50074583 0.017421825
v 0.004883034 0.44724008 0.2231056
v -0.10356799 0.3503357 0.22186252
v 0.015510344 0.21819183 0.34686506
v 0.12396167 0.31509623 0.34810752
v 0.27104902 0.15449773 0.3445553
v 0.1625977 0.057593036 0.34331223
vt 0.7600576 0.67651176
vt 0.76010835 0.66934234
vt 0.74006766 0.67538947
vt 0.7444214 0.6812297
vt 0.75994474 0.69254506
vt 0.7541587 0.6942909
vt 0.7275939 0.6915867
vt 0.7346892 0.69386715
vt 0.7345785 0.70959705
vt 0.7505574 0.6989673
vt 0.7274519 0.7117474
vt 0.7505165 0.7047879
vt 0.7396959 0.72817075
vt 0.7540514 0.70952946
vt 0.7441314 0.7224108
vt 0.75964886 0.73458356
vt 0.75981206 0.71138096
vt 0.75969917 0.7274143
vt 0.37770414 0.67436606
vt 0.37989926 0.67436606
vt 0.37770414 0.71331364
vt 0.37989923 0.71331364
vt 0.38533244 0.67436606
vt 0.3853324 0.7133136
vt 0.3919284 0.7133136
vt 0.3919284 0.67436606
vt 0.39716774 0.67436606
vt 0.39716774 0.71331364
vt 0.39904916 0.6743661
vt 0.39904916 0.7133137
vt 0.74224055 0.74448186
vt 0.7173662 0.7472787
vt 0.7173662 0.7364136
vt 0.7353489 0.7531111
vt 0.75659025 0.7644505
vt 0.7173662 0.7756379
vt 0.7457245 0.7675479
vt 0.74526775 0.78507566
vt 0.7559579 0.78869146
vt 0.74058485 0.8079474
vt 0.73415303 0.79899764
vt 0.7173662 0.80399704
vt 0.7173662 0.81486213
vt 0.74006766 0.67538947
vt 0.76010835 0.66934234
vt 0.7600576 0.67651176
vt 0.7444214 0.6812297
vt 0.75994474 0.69254506
vt 0.7275939 0.6915867
vt 0.7541587 0.6942909
vt 0.7346892 0.69386715
vt 0.7505574 0.6989673
vt 0.7274519 0.7117474
vt 0.7505165 0.7047879
vt 0.7345785 0.70959705
vt 0.7396959 0.72817075
vt 0.7540514 0.70952946
vt 0.7441314 0.7224108
vt 0.75964886 0.73458356
vt 0.75981206 0.71138096
vt 0.75969917 0.7274143
vt 0.37770414 0.71331364
vt 0.37989926 0.67436606
vt 0.37770414 0.67436606
vt 0.37989923 0.71331364
vt 0.38533244 0.67436606
vt 0.3853324 0.7133136
vt 0.3919284 0.7133136
vt 0.3919284 0.67436606
vt 0.39716774 0.67436606
vt 0.39716774 0.71331364
vt 0.39904916 0.6743661
vt 0.39904916 0.7133137
vt 0.7173662 0.7364136
vt 0.7173662 0.7472787
vt 0.74224055 0.74448186
vt 0.7353489 0.7531111
vt 0.75659025 0.7644505
vt 0.7173662 0.7756379
vt 0.7457245 0.7675479
vt 0.74526775 0.78507566
vt 0.7559579 0.78869146
vt 0.74058485 0.8079474
vt 0.73415303 0.79899764
vt 0.7173662 0.80399704
vt 0.7173662 0.81486213
vn 0.32501593 0.63081515 -0.7045827
vn -0.18540862 0.27153206 -0.9444013
vn 0.23155539 -0.18425247 -0.95521367
vn 0.63918537 0.2882152 -0.7130036
vn 0.44653276 0.682579 -0.57852787
vn 0.705903 0.39958575 -0.5848352
vn 0.57023495 -0.559267 -0.60170794
vn 0.8946722 0.0024796375 -0.4467162
vn 0.9937797 -0.11119881 -0.006055853
vn 0.9159205 0.16441554 -0.3661381
vn 0.7020937 -0.71182126 -0.019359555
vn 0.99752706 0.07018929 -0.003623903
vn 0.57651585 -0.5813797 0.57413155
vn 0.91829205 0.15241285 0.3653902
vn 0.8979468 -0.014496857 0.4398652
vn 0.23880745 -0.22297595 0.9451205
vn 0.709782 0.37549207 0.5959994
vn 0.64393324 0.25864145 0.7200379
vn 0.44653276 0.682579 -0.57852787
vn 0.705903 0.39958575 -0.5848352
vn -0.21316408 0.24470598 -0.94587535
vn 0.2057554 -0.20818728 -0.9562023
vn 0.9159205 0.16441554 -0.3661381
vn 0.54379267 -0.58489656 -0.60181856
vn 0.67550474 -0.73716134 -0.016928151
vn 0.99752706 0.07018929 -0.003623903
vn 0.91829205 0.15241285 0.3653902
vn 0.5494145 -0.6063491 0.5748777
vn 0.709782 0.37549207 0.5959994
vn 0.21338776 -0.24490716 0.94577277
vn 0.2058887 -0.20584102 -0.9566815
vn 0.21784057 0.57111615 -0.79143655
vn -0.21278653 0.2466178 -0.9454636
vn 0.56986177 0.18671174 -0.80024767
vn 0.5418512 -0.5863857 -0.6021205
vn 0.7371975 0.6755895 0.010895837
vn 0.8555261 -0.13068418 -0.50099576
vn 0.9652133 -0.26128477 -0.009674786
vn 0.67601025 -0.73666805 -0.018174693
vn 0.5485691 -0.6090814 0.572793
vn 0.8589761 -0.15242821 0.4888001
vn 0.57446194 0.15305634 0.8040941
vn 0.2128932 -0.24665855 0.94542897
vn -0.52111095 0.6312533 -0.57442373
vn -0.18540862 0.27153206 -0.9444013
vn 0.32501593 0.63081515 -0.7045827
vn 0.072479166 0.90289015 -0.42371705
vn 0.44653276 0.682579 -0.57852787
vn -0.64844877 0.7610691 0.016974103
vn 0.23823345 0.907061 -0.34710985
vn -0.024033777 0.9994999 0.020552693
vn 0.1573544 0.987375 0.018167282
vn -0.51614594 0.6104019 0.6008351
vn 0.2401337 0.8924429 0.3819442
vn 0.07514783 0.8845129 0.46042356
vn -0.18024813 0.23231982 0.9557919
vn 0.44901803 0.65845805 0.6039998
vn 0.3288332 0.6019708 0.72766745
vn 0.23880745 -0.22297595 0.9451205
vn 0.709782 0.37549207 0.5959994
vn 0.64393324 0.25864145 0.7200379
vn -0.21316408 0.24470598 -0.94587535
vn 0.23823345 0.907061 -0.34710985
vn 0.44653276 0.682579 -0.57852787
vn -0.5486109 0.6055693 -0.576465
vn 0.1573544 0.987375 0.018167282
vn -0.67610294 0.73663914 0.015736077
vn -0.5458484 0.5832954 0.6015114
vn 0.2401337 0.8924429 0.3819442
vn 0.44901803 0.65845805 0.6039998
vn -0.20541519 0.21018343 0.9558386
vn 0.709782 0.37549207 0.5959994
vn 0.21338776 -0.24490716 0.94577277
vn -0.21278653 0.2466178 -0.9454636
vn 0.21784057 0.57111615 -0.79143655
vn -0.54810345 0.6076053 -0.574803
vn -0.06529377 0.8754311 -0.47891232
vn -0.6736524 0.73888147 0.015699323
vn 0.7371975 0.6755895 0.010895837
vn -0.17180595 0.9849635 0.018155735
vn -0.06409852 0.8561333 0.51276433
vn -0.5446871 0.5844585 0.60143524
vn -0.20574276 0.20806706 0.9562311
vn 0.22171701 0.540322 0.8117227
vn 0.57446194 0.15305634 0.8040941
vn 0.2128932 -0.24665855 0.94542897
g obj_battle_screw2_0
f 3/3/3 2/2/2 1/1/1
f 1/1/1 4/4/4 3/3/3
f 4/4/4 1/1/1 5/5/5
f 5/5/5 6/6/6 4/4/4
f 7/7/7 3/3/3 4/4/4
f 8/8/8 4/4/4 6/6/6
f 4/4/4 8/8/8 7/7/7
f 7/7/7 8/8/8 9/9/9
f 6/6/6 10/10/10 8/8/8
f 9/9/9 8/8/8 10/10/10
f 9/9/9 11/11/11 7/7/7
f 10/10/10 12/12/12 9/9/9
f 13/13/13 11/11/11 9/9/9
f 12/12/12 14/14/14 9/9/9
f 9/9/9 15/15/15 13/13/13
f 9/9/9 14/14/14 15/15/15
f 16/16/16 13/13/13 15/15/15
f 14/14/14 17/17/17 15/15/15
f 15/15/15 18/18/18 16/16/16
f 18/18/18 15/15/15 17/17/17
f 21/21/21 20/20/20 19/19/19
f 20/20/20 21/21/21 22/22/22
f 22/22/22 23/23/23 20/20/20
f 23/23/23 22/22/22 24/24/24
f 23/23/23 24/24/24 25/25/25
f 25/25/25 26/26/26 23/23/23
f 27/27/27 26/26/26 25/25/25
f 27/27/27 25/25/25 28/28/28
f 29/29/29 27/27/27 28/28/28
f 28/28/28 30/30/30 29/29/29
f 33/33/33 32/32/32 31/31/31
f 32/32/32 34/34/34 31/31/31
f 31/31/31 34/34/34 35/35/35
f 34/34/34 32/32/32 36/36/36
f 34/34/34 37/37/37 35/35/35
f 37/37/37 34/34/34 36/36/36
f 35/35/35 37/37/37 38/38/38
f 38/38/38 37/37/37 36/36/36
f 38/38/38 39/39/39 35/35/35
f 40/40/40 39/39/39 38/38/38
f 41/41/41 38/38/38 36/36/36
f 41/41/41 40/40/40 38/38/38
f 42/42/42 41/41/41 36/36/36
f 43/43/43 40/40/40 41/41/41
f 41/41/41 42/42/42 43/43/43
f 46/46/46 45/45/45 44/44/44
f 44/44/44 47/47/47 46/46/46
f 48/48/48 46/46/46 47/47/47
f 47/47/47 44/44/44 49/49/49
f 47/47/47 50/50/50 48/48/48
f 49/49/49 51/51/51 47/47/47
f 50/50/50 47/47/47 51/51/51
f 51/51/51 52/52/52 50/50/50
f 51/51/51 49/49/49 53/53/53
f 54/54/54 52/52/52 51/51/51
f 53/53/53 55/55/55 51/51/51
f 54/54/54 51/51/51 55/55/55
f 55/55/55 53/53/53 56/56/56
f 57/57/57 54/54/54 55/55/55
f 56/56/56 58/58/58 55/55/55
f 55/55/55 58/58/58 57/57/57
f 58/58/58 56/56/56 59/59/59
f 58/58/58 60/60/60 57/57/57
f 59/59/59 61/61/61 58/58/58
f 61/61/61 60/60/60 58/58/58
f 64/64/64 63/63/63 62/62/62
f 65/65/65 62/62/62 63/63/63
f 65/65/65 63/63/63 66/66/66
f 66/66/66 67/67/67 65/65/65
f 68/68/68 67/67/67 66/66/66
f 66/66/66 69/69/69 68/68/68
f 69/69/69 70/70/70 68/68/68
f 71/71/71 68/68/68 70/70/70
f 70/70/70 72/72/72 71/71/71
f 73/73/73 71/71/71 72/72/72
f 76/76/76 75/75/75 74/74/74
f 77/77/77 75/75/75 76/76/76
f 77/77/77 76/76/76 78/78/78
f 75/75/75 77/77/77 79/79/79
f 78/78/78 80/80/80 77/77/77
f 77/77/77 80/80/80 79/79/79
f 81/81/81 80/80/80 78/78/78
f 80/80/80 81/81/81 79/79/79
f 78/78/78 82/82/82 81/81/81
f 81/81/81 82/82/82 83/83/83
f 81/81/81 84/84/84 79/79/79
f 81/81/81 83/83/83 84/84/84
f 84/84/84 85/85/85 79/79/79
f 84/84/84 83/83/83 86/86/86
f 84/84/84 86/86/86 85/85/85
