g obj_prop2_2
v 0.066978574 0.09965094 -0.27905837
v 0.014028793 0.09965095 0.104624376
v -0.0018844373 0.09965094 -0.30279022
v 0.16898696 0.09965094 0.11321251
v 0.08820208 0.099650934 -0.23359646
v 0.114532955 0.09965096 -0.24865597
v 0.08820208 0.099650934 -0.23359646
v 0.014028793 0.09965095 0.104624376
v 0.066978574 0.09965094 -0.27905837
v 0.08820208 0.099650934 -0.23359646
v 0.15571891 -0.0017665514 -0.2833005
v 0.114532955 0.09965096 -0.24865597
v -0.03721848 -0.0017665507 -0.30283815
v 0.025814593 -0.001766554 -0.33501372
v -0.0018844373 0.09965094 -0.30279022
v 0.066978574 0.09965094 -0.27905837
v 0.15571891 -0.0017665514 -0.2833005
v 0.08820208 0.099650934 -0.23359646
v -0.32910797 0.10810425 0.26827785
v -0.11962281 0.10810425 -0.17022319
v -0.14889774 0.10810425 0.22213495
v -0.35773453 0.10810425 -0.20299801
v -0.35773453 0.10810425 -0.20299801
v -0.06511596 -0.0017665545 -0.21333416
v -0.11962281 0.10810425 -0.17022319
v -0.40609038 -0.001766558 -0.24260624
v -0.32910797 0.10810425 0.26827785
v -0.40609038 -0.001766558 -0.24260624
v -0.35773453 0.10810425 -0.20299801
v -0.36203873 -0.001766557 0.2841419
v -0.11962281 0.10810425 -0.17022319
v -0.11357991 -0.0017665554 0.2449455
v -0.14889774 0.10810425 0.22213495
v -0.06511596 -0.0017665545 -0.21333416
v 0.066978574 0.09965094 -0.27905837
v 0.025814593 -0.001766554 -0.33501372
v 0.15571891 -0.0017665514 -0.2833005
v -0.0018844373 0.09965094 -0.30279022
v 0.014028793 0.09965095 0.104624376
v -0.03721848 -0.0017665507 -0.30283815
v -0.0018844373 0.09965094 -0.30279022
v 0.0031481811 -0.0017665499 0.12119894
v 0.114532955 0.09965096 -0.24865597
v 0.20631653 -0.0017665452 0.123399906
v 0.16898696 0.09965094 0.11321251
v 0.15571891 -0.0017665514 -0.2833005
v 0.15006883 0.06595802 0.2227711
v 0.34354502 0.065958016 0.1428165
v 0.22357148 0.06595802 0.25442237
v 0.256449 0.06595802 0.08663556
v 0.256449 0.06595802 0.08663556
v 0.36718407 -0.001766558 0.13907221
v 0.34354502 0.065958016 0.1428165
v 0.26869658 -0.0017665543 0.056585975
v 0.15006883 0.06595802 0.2227711
v 0.26869658 -0.0017665543 0.056585975
v 0.256449 0.06595802 0.08663556
v 0.14073661 -0.0017665618 0.22497512
v 0.34354502 0.065958016 0.1428165
v 0.2247269 -0.0017665587 0.26975787
v 0.22357148 0.06595802 0.25442237
v 0.36718407 -0.001766558 0.13907221
v -0.11357991 -0.0017665554 0.2449455
v -0.32910797 0.10810425 0.26827785
v -0.14889774 0.10810425 0.22213495
v -0.36203873 -0.001766557 0.2841419
v 0.0031481811 -0.0017665499 0.12119894
v 0.16898696 0.09965094 0.11321251
v 0.20631653 -0.0017665452 0.123399906
v 0.014028793 0.09965095 0.104624376
v 0.2247269 -0.0017665587 0.26975787
v 0.15006883 0.06595802 0.2227711
v 0.22357148 0.06595802 0.25442237
v 0.14073661 -0.0017665618 0.22497512
vt 0.3852889 0.7422729
vt 0.39417636 0.75227183
vt 0.39417636 0.7422729
vt 0.3765964 0.75227183
vt 0.3852889 0.7422729
vt 0.3765964 0.7422729
vt 0.3852889 0.7422729
vt 0.39417636 0.75227183
vt 0.3852889 0.7422729
vt 0.3852892 0.7420264
vt 0.37664786 0.73969823
vt 0.37664786 0.7420264
vt 0.39411792 0.73969823
vt 0.3938806 0.73969823
vt 0.39411792 0.7420264
vt 0.3938912 0.7420264
vt 0.3938912 0.73969823
vt 0.39381796 0.7420264
vt 0.39419138 0.7523239
vt 0.3765742 0.74222535
vt 0.3765742 0.7523239
vt 0.39419138 0.74222535
vt 0.394172 0.74205226
vt 0.37659287 0.7397037
vt 0.37659287 0.74205226
vt 0.394172 0.7397037
vt 0.39662743 0.74214286
vt 0.3944456 0.7397037
vt 0.3944456 0.74214286
vt 0.39662743 0.7397037
vt 0.37630993 0.74214286
vt 0.37421608 0.7397037
vt 0.37421608 0.74214286
vt 0.37630993 0.7397037
vt 0.3852892 0.7420264
vt 0.3852892 0.73969823
vt 0.37664786 0.73969823
vt 0.39411792 0.7420264
vt 0.39672387 0.7421425
vt 0.39431307 0.73969823
vt 0.39431307 0.7421425
vt 0.39672387 0.73969823
vt 0.37642473 0.7421425
vt 0.37423605 0.73969823
vt 0.37423605 0.7421425
vt 0.37642473 0.73969823
vt 0.39418003 0.75197
vt 0.37660348 0.74223536
vt 0.37660348 0.75197
vt 0.39418003 0.74223536
vt 0.3941722 0.7420867
vt 0.376594 0.73979074
vt 0.376594 0.7420867
vt 0.3941722 0.73979074
vt 0.39662027 0.7421501
vt 0.3944273 0.73979074
vt 0.3944273 0.7421501
vt 0.39662027 0.73979074
vt 0.37633854 0.7421501
vt 0.37440163 0.73979074
vt 0.37440163 0.7421501
vt 0.37633854 0.73979074
vt 0.37659287 0.7397037
vt 0.394172 0.74205226
vt 0.37659287 0.74205226
vt 0.394172 0.7397037
vt 0.3852892 0.73969823
vt 0.3852892 0.7420264
vt 0.37664786 0.73969823
vt 0.39411792 0.7420264
vt 0.376594 0.73979074
vt 0.3941722 0.7420867
vt 0.376594 0.7420867
vt 0.3941722 0.73979074
vn -0 1 0
vn -0 1 0
vn -0 1 0
vn -9.795135E-07 1 2.0047456E-07
vn -9.795136E-07 1 2.0047456E-07
vn -9.795135E-07 1 2.0047456E-07
vn -9.795136E-07 1 2.0047456E-07
vn -0 1 0
vn -0 1 0
vn -0.49424845 0.09448737 -0.86417043
vn -0.4942484 0.09448736 -0.86417043
vn -0.4942484 0.09448737 -0.86417043
vn -0.44902015 0.15685526 -0.87964624
vn -0.44902015 0.15685526 -0.87964624
vn -0.44902015 0.15685523 -0.87964624
vn 0.7039251 0.6296804 -0.32862142
vn 0.7039251 0.6296804 -0.32862142
vn 0.7039251 0.6296804 -0.32862142
vn -0 1 0
vn -0 1 0
vn -0 1 0
vn -0 1 0
vn 0.08142808 0.30609867 -0.94851106
vn 0.08142808 0.30609864 -0.94851106
vn 0.12405172 0.41517153 -0.90124565
vn 0.08142808 0.30609864 -0.94851106
vn -0.9516424 0.2967201 0.0795853
vn -0.9516424 0.29672012 0.0795853
vn -0.9211228 0.38523012 0.055951495
vn -0.9516424 0.29672012 0.07958531
vn 0.9061567 0.41194314 0.09582781
vn 0.9061567 0.41194314 0.09582781
vn 0.9452931 0.3185064 0.07053093
vn 0.9061567 0.4119431 0.095827796
vn 0.3036142 0.3628443 -0.8810008
vn 0.30361423 0.3628443 -0.8810008
vn 0.34771824 0.34078956 -0.8734727
vn 0.30361426 0.36284432 -0.8810008
vn -0.988138 0.12138598 0.09406684
vn -0.988138 0.121386 0.09406685
vn -0.9436916 0.32876652 0.036859695
vn -0.988138 0.121386 0.09406685
vn 0.90657645 0.40669182 -0.112787224
vn 0.90657645 0.40669185 -0.112787224
vn 0.9336312 0.32953683 -0.14049287
vn 0.90657634 0.40669188 -0.11278721
vn -0 1 0
vn -0 1 0
vn -0 1 0
vn -0 1 0
vn 0.58414793 0.4151065 -0.69746524
vn 0.584148 0.41510653 -0.69746524
vn 0.5276056 0.22938028 -0.8179346
vn 0.58414793 0.41510645 -0.69746524
vn -0.79299146 0.089660466 -0.602599
vn -0.79299146 0.08966045 -0.602599
vn -0.78131044 0.1296028 -0.6105384
vn -0.79299146 0.08966046 -0.6025991
vn 0.6634812 0.19160005 0.7232442
vn 0.6634812 0.19160004 0.7232442
vn 0.67063975 0.17468606 0.720921
vn 0.6634812 0.19160004 0.7232442
vn 0.15511905 0.09548012 0.98327094
vn 0.15511906 0.09548013 0.98327094
vn 0.23880821 0.27039656 0.93266094
vn 0.15511906 0.09548013 0.98327094
vn -0.054562643 0.16674781 0.9844887
vn -0.054562643 0.16674781 0.9844887
vn -0.010782547 0.096011326 0.9953218
vn -0.054562647 0.16674782 0.9844887
vn -0.46844405 0.09314237 0.87856966
vn -0.468444 0.09314235 0.87856966
vn -0.3877315 0.19727412 0.90041494
vn -0.468444 0.09314237 0.87856966
g obj_prop2_2_0
f 3/3/3 2/2/2 1/1/1
f 5/5/5 2/2/2 4/4/4
f 6/6/6 5/5/5 4/4/4
f 9/9/9 8/8/8 7/7/7
f 12/12/12 11/11/11 10/10/10
f 15/15/15 14/14/14 13/13/13
f 18/18/18 17/17/17 16/16/16
f 21/21/21 20/20/20 19/19/19
f 22/22/22 19/19/19 20/20/20
f 25/25/25 24/24/24 23/23/23
f 26/26/26 23/23/23 24/24/24
f 29/29/29 28/28/28 27/27/27
f 30/30/30 27/27/27 28/28/28
f 33/33/33 32/32/32 31/31/31
f 34/34/34 31/31/31 32/32/32
f 37/37/37 36/36/36 35/35/35
f 38/38/38 35/35/35 36/36/36
f 41/41/41 40/40/40 39/39/39
f 42/42/42 39/39/39 40/40/40
f 45/45/45 44/44/44 43/43/43
f 46/46/46 43/43/43 44/44/44
f 49/49/49 48/48/48 47/47/47
f 50/50/50 47/47/47 48/48/48
f 53/53/53 52/52/52 51/51/51
f 54/54/54 51/51/51 52/52/52
f 57/57/57 56/56/56 55/55/55
f 58/58/58 55/55/55 56/56/56
f 61/61/61 60/60/60 59/59/59
f 62/62/62 59/59/59 60/60/60
f 65/65/65 64/64/64 63/63/63
f 66/66/66 63/63/63 64/64/64
f 69/69/69 68/68/68 67/67/67
f 70/70/70 67/67/67 68/68/68
f 73/73/73 72/72/72 71/71/71
f 74/74/74 71/71/71 72/72/72
