g obj_lamp
v -0.073925234 1.2692227 -0.027344238
v -0 1.2692229 -0.057965267
v 0.073925234 1.2692227 -0.027344238
v -0.10454616 1.2692227 0.046580985
v 0.10454616 1.2692227 0.046580985
v -0.073925234 1.2692227 0.1205062
v 0.073925234 1.2692227 0.1205062
v -0 1.2692227 0.15112697
v 0.117587194 1.1953992 -0.07672165
v 0.10454616 1.2692227 0.046580985
v 0.073925234 1.2692227 -0.027344238
v 0.16629343 1.1953992 0.04086556
v 0.16276158 0.88387436 -0.12867177
v 0.073925234 1.2692227 0.1205062
v 0.23017931 0.8838738 0.034089632
v 0.117587194 1.1953992 0.1584528
v -0 1.2692227 0.15112697
v 0.16276158 0.8838738 0.1968509
v -0 1.1953992 0.20715898
v -0 0.8838738 0.26426893
v -0 1.1953992 0.20715898
v -0.073925234 1.2692227 0.1205062
v -0 1.2692227 0.15112697
v -0.11758699 1.1953992 0.1584528
v -0 0.8838738 0.26426893
v -0.10454616 1.2692227 0.046580985
v -0.16276133 0.8838738 0.1968509
v -0.16629323 1.1953992 0.04086556
v -0.073925234 1.2692227 -0.027344238
v -0.23017906 0.8838738 0.034089632
v -0.11758699 1.1953992 -0.07672165
v -0.16276133 0.88387436 -0.12867177
v -0.028609192 1.2825892 0.032578625
v -0.0152927525 1.5616306 0.020928765
v 0.013811197 1.5926774 0.019632561
v 0.030090876 1.2515423 0.033874806
v 0.030090876 1.2515423 -0.01540169
v 0.013811197 1.5926774 -0.002984816
v 0.013811197 1.5926774 -0.002984816
v 0.013811197 1.5926774 0.019632561
v -0.0152927525 1.5616306 0.020928765
v -0.013811197 1.5926774 -0.002984816
v -0.013811197 1.5926774 -0.002984816
v -0.0152927525 1.5616306 0.020928765
v -0.028609192 1.2825892 0.032578625
v -0.030090876 1.2515423 -0.01540169
v -0.34679383 1.3358501 -0.017226394
v -0.21595527 1.5575516 -0.11556517
v -0.31891793 1.386429 0.10411204
v -0.15270361 1.6189786 0.0105273565
v -0.24522014 1.4456676 0.20095208
v -0.19238773 1.6834501 -0.17146228
v -0.13210008 1.4700919 0.27032816
v -0.13603865 1.7427887 -0.049233645
v -0 1.6444234 0.06275666
v -0 1.4911555 0.29132426
v -0 1.7673678 0.0013951965
v -0.19238773 1.6834501 -0.17146228
v -0.1297409 1.6834502 -0.1714619
v -0.091740474 1.7234666 -0.08903444
v -0.13603865 1.7427887 -0.049233645
v -0.13603865 1.7427887 -0.049233645
v -0.091740474 1.7234666 -0.08903444
v -0 1.7400423 -0.054892026
v -0 1.7673678 0.0013951965
v -0.1297409 1.6834502 -0.1714619
v -0.22278611 1.4386913 -0.06251811
v -0.15753345 1.509681 0.07743709
v -0.091740474 1.7234666 -0.08903444
v -0.091740474 1.7234666 -0.08903444
v -0.15753345 1.509681 0.07743709
v -0 1.5390863 0.13540888
v -0 1.7400423 -0.054892026
v 0.34679383 1.3358501 -0.017226394
v 0.31891805 1.386429 0.10411204
v 0.21595551 1.5575516 -0.11556517
v 0.15270361 1.6189786 0.0105273565
v 0.192388 1.6834501 -0.17146228
v 0.24522036 1.4456676 0.20095208
v 0.13603844 1.7427887 -0.049233645
v 0.13210022 1.4700919 0.27032822
v -0 1.6444234 0.06275666
v -0 1.7673678 0.0013951965
v -0 1.4911555 0.29132426
v 0.192388 1.6834501 -0.17146228
v 0.13603844 1.7427887 -0.049233645
v 0.09174094 1.7234666 -0.08903444
v 0.12974134 1.6834502 -0.1714619
v 0.13603844 1.7427887 -0.049233645
v -0 1.7673678 0.0013951965
v -0 1.7400423 -0.054892026
v 0.09174094 1.7234666 -0.08903444
v 0.12974134 1.6834502 -0.1714619
v 0.09174094 1.7234666 -0.08903444
v 0.15753365 1.509681 0.07743709
v 0.22278632 1.4386913 -0.06251811
v 0.09174094 1.7234666 -0.08903444
v -0 1.7400423 -0.054892026
v -0 1.5390863 0.13540888
v 0.15753365 1.509681 0.07743709
v -0.34679383 1.3358501 -0.017226394
v -0.31891793 1.2681113 -0.13095307
v -0.21595527 1.5575516 -0.11556517
v -0.15270361 1.4961244 -0.24165675
v -0.19238773 1.6834501 -0.17146228
v -0.24522014 1.226032 -0.23540418
v -0.13603865 1.6241115 -0.29369044
v -0.13210008 1.1844479 -0.2971693
v -0 1.4706805 -0.29388523
v -0 1.5995328 -0.344319
v -0 1.1805439 -0.32577705
v -0.19238773 1.6834501 -0.17146228
v -0.13603865 1.6241115 -0.29369044
v -0.091740474 1.6434339 -0.2538895
v -0.1297409 1.6834502 -0.1714619
v -0.13603865 1.6241115 -0.29369044
v -0 1.5995328 -0.344319
v -0 1.6268585 -0.2880324
v -0.091740474 1.6434339 -0.2538895
v -0.1297409 1.6834502 -0.1714619
v -0.091740474 1.6434339 -0.2538895
v -0.15753345 1.3677008 -0.20247266
v -0.22278611 1.4386913 -0.06251811
v -0.091740474 1.6434339 -0.2538895
v -0 1.6268585 -0.2880324
v -0 1.3382956 -0.26044413
v -0.15753345 1.3677008 -0.20247266
v 0.34679383 1.3358501 -0.017226394
v 0.21595551 1.5575516 -0.11556517
v 0.31891805 1.2681113 -0.13095307
v 0.15270361 1.4961244 -0.24165675
v 0.24522036 1.226032 -0.23540418
v 0.192388 1.6834501 -0.17146228
v 0.13210021 1.1844479 -0.2971693
v 0.13603844 1.6241115 -0.29369044
v -0 1.4706805 -0.29388523
v -0 1.1805439 -0.32577705
v -0 1.5995328 -0.344319
v 0.192388 1.6834501 -0.17146228
v 0.12974134 1.6834502 -0.1714619
v 0.09174094 1.6434339 -0.2538895
v 0.13603844 1.6241115 -0.29369044
v 0.13603844 1.6241115 -0.29369044
v 0.09174094 1.6434339 -0.2538895
v -0 1.6268585 -0.2880324
v -0 1.5995328 -0.344319
v 0.12974134 1.6834502 -0.1714619
v 0.22278632 1.4386913 -0.06251811
v 0.15753365 1.3677008 -0.20247266
v 0.09174094 1.6434339 -0.2538895
v 0.09174094 1.6434339 -0.2538895
v 0.15753365 1.3677008 -0.20247266
v -0 1.3382956 -0.26044413
v -0 1.6268585 -0.2880324
vt 0.2634271 0.3295275
vt 0.26275077 0.33116055
vt 0.2634271 0.33279312
vt 0.2650598 0.32885122
vt 0.2650598 0.33346963
vt 0.26669273 0.3295275
vt 0.26669273 0.33279312
vt 0.267369 0.33116055
vt 0.27876768 0.3346101
vt 0.26916555 0.34052074
vt 0.26916555 0.3346101
vt 0.27876768 0.34052074
vt 0.30284044 0.3346101
vt 0.26916555 0.3464316
vt 0.30284044 0.34052074
vt 0.27876768 0.3464316
vt 0.26916555 0.352342
vt 0.30284044 0.3464316
vt 0.27876768 0.352342
vt 0.30284044 0.352342
vt 0.27876768 0.352342
vt 0.26916555 0.3464316
vt 0.26916555 0.352342
vt 0.27876768 0.3464316
vt 0.30284044 0.352342
vt 0.26916555 0.34052074
vt 0.30284044 0.3464316
vt 0.27876768 0.34052074
vt 0.26916555 0.3346101
vt 0.30284044 0.34052074
vt 0.27876768 0.3346101
vt 0.30284044 0.3346101
vt 0.2625729 0.33471578
vt 0.2625729 0.34832984
vt 0.26540986 0.34832987
vt 0.26540986 0.3347158
vt 0.2678738 0.3347158
vt 0.2678738 0.34832987
vt 0.2625729 0.34832984
vt 0.2625729 0.3519209
vt 0.26540986 0.35192093
vt 0.26540986 0.34832987
vt 0.26540986 0.34832987
vt 0.2678738 0.34832987
vt 0.2678738 0.3347158
vt 0.26540986 0.3347158
vt 0.17192459 0.3053077
vt 0.18744126 0.33981326
vt 0.19098982 0.3053077
vt 0.21005505 0.33981326
vt 0.21005505 0.3053077
vt 0.19371487 0.35606194
vt 0.2291203 0.3053077
vt 0.21005505 0.35606194
vt 0.23266882 0.33981326
vt 0.24818555 0.3053077
vt 0.2263952 0.35606194
vt 0.19371487 0.35606194
vt 0.19748753 0.3615096
vt 0.21005505 0.3615096
vt 0.21005505 0.35606194
vt 0.21005505 0.35606194
vt 0.21005505 0.3615096
vt 0.22262254 0.3615096
vt 0.2263952 0.35606194
vt 0.25521544 0.35224605
vt 0.25521544 0.3285087
vt 0.25818253 0.3285087
vt 0.25818253 0.35224605
vt 0.25818253 0.35224605
vt 0.25818253 0.3285087
vt 0.2611497 0.3285087
vt 0.2611497 0.35224605
vt 0.17192459 0.3053077
vt 0.19098982 0.3053077
vt 0.18744126 0.33981326
vt 0.21005505 0.33981326
vt 0.19371487 0.35606194
vt 0.21005505 0.3053077
vt 0.21005505 0.35606194
vt 0.2291203 0.3053077
vt 0.23266882 0.33981326
vt 0.2263952 0.35606194
vt 0.24818555 0.3053077
vt 0.19371487 0.35606194
vt 0.21005505 0.35606194
vt 0.21005505 0.3615096
vt 0.19748753 0.3615096
vt 0.21005505 0.35606194
vt 0.2263952 0.35606194
vt 0.22262254 0.3615096
vt 0.21005505 0.3615096
vt 0.25521544 0.35224605
vt 0.25818253 0.35224605
vt 0.25818253 0.3285087
vt 0.25521544 0.3285087
vt 0.25818253 0.35224605
vt 0.2611497 0.35224605
vt 0.2611497 0.3285087
vt 0.25818253 0.3285087
vt 0.17192459 0.3053077
vt 0.19098982 0.3053077
vt 0.18744126 0.33981326
vt 0.21005505 0.33981326
vt 0.19371487 0.35606194
vt 0.21005505 0.3053077
vt 0.21005505 0.35606194
vt 0.2291203 0.3053077
vt 0.23266882 0.33981326
vt 0.2263952 0.35606194
vt 0.24818555 0.3053077
vt 0.19371487 0.35606194
vt 0.21005505 0.35606194
vt 0.21005505 0.3615096
vt 0.19748753 0.3615096
vt 0.21005505 0.35606194
vt 0.2263952 0.35606194
vt 0.22262254 0.3615096
vt 0.21005505 0.3615096
vt 0.25521544 0.35224605
vt 0.25818253 0.35224605
vt 0.25818253 0.3285087
vt 0.25521544 0.3285087
vt 0.25818253 0.35224605
vt 0.2611497 0.35224605
vt 0.2611497 0.3285087
vt 0.25818253 0.3285087
vt 0.17192459 0.3053077
vt 0.18744126 0.33981326
vt 0.19098982 0.3053077
vt 0.21005505 0.33981326
vt 0.21005505 0.3053077
vt 0.19371487 0.35606194
vt 0.2291203 0.3053077
vt 0.21005505 0.35606194
vt 0.23266882 0.33981326
vt 0.24818555 0.3053077
vt 0.2263952 0.35606194
vt 0.19371487 0.35606194
vt 0.19748753 0.3615096
vt 0.21005505 0.3615096
vt 0.21005505 0.35606194
vt 0.21005505 0.35606194
vt 0.21005505 0.3615096
vt 0.22262254 0.3615096
vt 0.2263952 0.35606194
vt 0.25521544 0.35224605
vt 0.25521544 0.3285087
vt 0.25818253 0.3285087
vt 0.25818253 0.35224605
vt 0.25818253 0.35224605
vt 0.25818253 0.3285087
vt 0.2611497 0.3285087
vt 0.2611497 0.35224605
vn -0.35280392 0.92421514 -0.14613618
vn -0 1 3.674359E-07
vn 0.3528033 0.92421544 -0.1461359
vn -0.5024743 0.8645404 0.009447048
vn 0.50247365 0.86454093 0.009447021
vn -0.3614776 0.8552299 0.37137017
vn 0.361477 0.85523015 0.37137008
vn -1.3750342E-07 0.8512529 0.52475566
vn 0.8498689 0.3921734 -0.35202673
vn 0.50247365 0.86454093 0.009447021
vn 0.3528033 0.92421544 -0.1461359
vn 0.91083527 0.41276857 -0.0011142689
vn 0.90632224 0.1940294 -0.3754098
vn 0.361477 0.85523015 0.37137008
vn 0.9795816 0.20099062 -0.004743708
vn 0.6510345 0.39261308 0.6496222
vn -1.3750342E-07 0.8512529 0.52475566
vn 0.6971052 0.18642017 0.692309
vn -2.3066256E-07 0.38390705 0.92337173
vn -2.1429133E-07 0.1803186 0.9836082
vn -2.3066256E-07 0.38390705 0.92337173
vn -0.3614776 0.8552299 0.37137017
vn -1.3750342E-07 0.8512529 0.52475566
vn -0.6510347 0.3926126 0.6496222
vn -2.1429133E-07 0.1803186 0.9836082
vn -0.5024743 0.8645404 0.009447048
vn -0.69710547 0.18642004 0.69230884
vn -0.91083556 0.41276783 -0.0011142466
vn -0.35280392 0.92421514 -0.14613618
vn -0.9795817 0.20099053 -0.0047436873
vn -0.84986925 0.39217266 -0.35202697
vn -0.90632224 0.19402927 -0.3754098
vn -0.72152513 0.063218825 0.6894961
vn -0.69120926 0.21778229 0.6890578
vn 0.41799656 0.58297473 0.69672036
vn 0.8261065 0.062803425 0.5600034
vn 0.9988632 0.047667835 0
vn 0.5412641 0.7174146 0.4385765
vn 0.5412641 0.7174146 0.4385765
vn 0.41799656 0.58297473 0.69672036
vn -0.69120926 0.21778229 0.6890578
vn -0.6689694 0.6279523 0.39768806
vn -0.6689694 0.6279523 0.39768806
vn -0.69120926 0.21778229 0.6890578
vn -0.72152513 0.063218825 0.6894961
vn -0.9988632 0.047667842 1.7201972E-06
vn -0.8797519 0.42241386 -0.21818139
vn -0.9317963 0.32606357 -0.15949376
vn -0.81361425 0.5738597 0.09336355
vn -0.66167694 0.5926524 0.45928943
vn -0.62006813 0.7062936 0.34156257
vn -0.9885013 0.13966285 -0.057961095
vn -0.33023438 0.79587895 0.5074662
vn -0.67753464 0.39106888 0.622906
vn -0 0.6942258 0.7197573
vn -2.395953E-07 0.83055556 0.5569357
vn 1.6281362E-07 0.46206254 0.8868473
vn -4.61414E-07 0.89959365 -0.43672782
vn -4.6141403E-07 0.8995937 -0.4367278
vn -4.6141403E-07 0.8995937 -0.43672776
vn -4.6141403E-07 0.8995937 -0.4367278
vn -4.455754E-06 0.89959496 -0.43672514
vn -4.455754E-06 0.89959496 -0.43672514
vn -4.4557537E-06 0.89959496 -0.43672514
vn -4.4557546E-06 0.89959496 -0.43672514
vn 0.8833099 -0.424913 -0.19802156
vn 0.8833099 -0.424913 -0.19802159
vn 0.8833099 -0.424913 -0.19802159
vn 0.8833099 -0.424913 -0.19802159
vn 0.36751893 -0.6393209 -0.6754247
vn 0.3675189 -0.63932097 -0.67542464
vn 0.367519 -0.639321 -0.67542464
vn 0.36751893 -0.63932097 -0.67542464
vn 0.8797522 0.4224133 -0.21818109
vn 0.8136145 0.57385945 0.09336322
vn 0.9317961 0.32606393 -0.15949391
vn 0.66167635 0.59265274 0.45928967
vn 0.9885012 0.13966347 -0.05796135
vn 0.6200682 0.70629376 0.34156194
vn 0.67753375 0.39106944 0.62290657
vn 0.3302341 0.7958792 0.5074661
vn -0 0.6942258 0.7197573
vn 1.6281362E-07 0.46206254 0.8868473
vn -2.395953E-07 0.83055556 0.5569357
vn 4.614169E-07 0.8995937 -0.43672767
vn 4.614169E-07 0.8995937 -0.4367277
vn 4.6141693E-07 0.8995937 -0.43672776
vn 4.6141693E-07 0.8995937 -0.43672776
vn 4.455761E-06 0.89959496 -0.43672517
vn 4.4557614E-06 0.89959496 -0.43672526
vn 4.4557614E-06 0.89959496 -0.43672523
vn 4.455761E-06 0.89959496 -0.43672523
vn -0.88331014 -0.42491236 -0.19802205
vn -0.88331014 -0.42491236 -0.19802207
vn -0.88331014 -0.42491236 -0.19802205
vn -0.88331014 -0.42491233 -0.19802207
vn -0.36751813 -0.639321 -0.6754251
vn -0.36751813 -0.639321 -0.6754251
vn -0.36751813 -0.639321 -0.6754251
vn -0.36751813 -0.63932097 -0.6754251
vn -0.8797519 0.42241386 -0.21818139
vn -0.8003198 0.28791517 -0.52592117
vn -0.9317963 0.32606357 -0.15949376
vn -0.650937 0.039388917 -0.75810915
vn -0.9885013 0.13966285 -0.057961095
vn -0.59927773 0.18725637 -0.7783323
vn -0.6822643 -0.19749488 -0.7039255
vn -0.31770036 0.12429473 -0.9400093
vn -0 -0.08463221 -0.9964122
vn 1.6008246E-07 -0.3483801 -0.9373534
vn -0 0.10926188 -0.994013
vn -5.3605316E-07 0.89959323 -0.43672866
vn -5.360531E-07 0.89959323 -0.43672866
vn -5.360531E-07 0.89959323 -0.43672863
vn -5.3605316E-07 0.89959323 -0.43672866
vn -5.4114645E-07 0.89959335 -0.43672866
vn -5.411465E-07 0.89959323 -0.43672863
vn -5.411465E-07 0.89959323 -0.43672863
vn -5.411465E-07 0.89959323 -0.43672863
vn 0.8752511 -0.122981854 0.46777228
vn 0.8752511 -0.12298184 0.46777228
vn 0.8752511 -0.12298183 0.46777228
vn 0.8752511 -0.122981854 0.46777228
vn 0.3595372 0.08814075 0.9289587
vn 0.3595372 0.08814074 0.9289587
vn 0.35953718 0.08814075 0.9289587
vn 0.35953718 0.08814073 0.9289587
vn 0.8797522 0.4224133 -0.21818109
vn 0.9317961 0.32606393 -0.15949391
vn 0.80031997 0.2879153 -0.52592087
vn 0.6509364 0.03938895 -0.7581096
vn 0.59927773 0.18725689 -0.77833223
vn 0.9885012 0.13966347 -0.05796135
vn 0.31770015 0.12429486 -0.9400093
vn 0.6822633 -0.19749492 -0.7039264
vn -0 -0.08463221 -0.9964122
vn -0 0.10926188 -0.994013
vn 1.6008246E-07 -0.3483801 -0.9373534
vn 5.29271E-07 0.89959323 -0.43672863
vn 5.29271E-07 0.89959335 -0.43672866
vn 5.2927095E-07 0.89959323 -0.43672866
vn 5.29271E-07 0.89959323 -0.43672866
vn 5.411472E-07 0.89959323 -0.43672863
vn 5.411473E-07 0.89959335 -0.43672866
vn 5.411472E-07 0.89959323 -0.43672863
vn 5.411472E-07 0.89959323 -0.43672863
vn -0.8752514 -0.122981116 0.46777195
vn -0.8752514 -0.122981116 0.46777195
vn -0.8752514 -0.122981116 0.46777195
vn -0.8752514 -0.122981116 0.46777195
vn -0.35953638 0.08814105 0.92895895
vn -0.35953644 0.08814105 0.92895895
vn -0.3595364 0.08814105 0.92895895
vn -0.35953638 0.08814105 0.92895895
g obj_lamp_0
f 3/3/3 2/2/2 1/1/1
f 1/1/1 4/4/4 3/3/3
f 4/4/4 5/5/5 3/3/3
f 4/4/4 6/6/6 5/5/5
f 6/6/6 7/7/7 5/5/5
f 6/6/6 8/8/8 7/7/7
f 11/11/11 10/10/10 9/9/9
f 10/10/10 12/12/12 9/9/9
f 9/9/9 12/12/12 13/13/13
f 10/10/10 14/14/14 12/12/12
f 12/12/12 15/15/15 13/13/13
f 14/14/14 16/16/16 12/12/12
f 12/12/12 16/16/16 15/15/15
f 14/14/14 17/17/17 16/16/16
f 16/16/16 18/18/18 15/15/15
f 17/17/17 19/19/19 16/16/16
f 16/16/16 19/19/19 18/18/18
f 19/19/19 20/20/20 18/18/18
f 23/23/23 22/22/22 21/21/21
f 22/22/22 24/24/24 21/21/21
f 21/21/21 24/24/24 25/25/25
f 22/22/22 26/26/26 24/24/24
f 24/24/24 27/27/27 25/25/25
f 26/26/26 28/28/28 24/24/24
f 24/24/24 28/28/28 27/27/27
f 26/26/26 29/29/29 28/28/28
f 28/28/28 30/30/30 27/27/27
f 29/29/29 31/31/31 28/28/28
f 28/28/28 31/31/31 30/30/30
f 31/31/31 32/32/32 30/30/30
f 35/35/35 34/34/34 33/33/33
f 36/36/36 35/35/35 33/33/33
f 35/35/35 36/36/36 37/37/37
f 38/38/38 35/35/35 37/37/37
f 41/41/41 40/40/40 39/39/39
f 42/42/42 41/41/41 39/39/39
f 45/45/45 44/44/44 43/43/43
f 46/46/46 45/45/45 43/43/43
f 49/49/49 48/48/48 47/47/47
f 50/50/50 48/48/48 49/49/49
f 51/51/51 50/50/50 49/49/49
f 52/52/52 48/48/48 50/50/50
f 53/53/53 50/50/50 51/51/51
f 54/54/54 52/52/52 50/50/50
f 55/55/55 50/50/50 53/53/53
f 54/54/54 50/50/50 55/55/55
f 56/56/56 55/55/55 53/53/53
f 57/57/57 54/54/54 55/55/55
f 60/60/60 59/59/59 58/58/58
f 61/61/61 60/60/60 58/58/58
f 64/64/64 63/63/63 62/62/62
f 65/65/65 64/64/64 62/62/62
f 68/68/68 67/67/67 66/66/66
f 69/69/69 68/68/68 66/66/66
f 72/72/72 71/71/71 70/70/70
f 73/73/73 72/72/72 70/70/70
f 76/76/76 75/75/75 74/74/74
f 77/77/77 75/75/75 76/76/76
f 76/76/76 78/78/78 77/77/77
f 79/79/79 75/75/75 77/77/77
f 78/78/78 80/80/80 77/77/77
f 77/77/77 81/81/81 79/79/79
f 77/77/77 80/80/80 82/82/82
f 82/82/82 81/81/81 77/77/77
f 80/80/80 83/83/83 82/82/82
f 84/84/84 81/81/81 82/82/82
f 87/87/87 86/86/86 85/85/85
f 88/88/88 87/87/87 85/85/85
f 91/91/91 90/90/90 89/89/89
f 92/92/92 91/91/91 89/89/89
f 95/95/95 94/94/94 93/93/93
f 96/96/96 95/95/95 93/93/93
f 99/99/99 98/98/98 97/97/97
f 100/100/100 99/99/99 97/97/97
f 103/103/103 102/102/102 101/101/101
f 104/104/104 102/102/102 103/103/103
f 103/103/103 105/105/105 104/104/104
f 106/106/106 102/102/102 104/104/104
f 105/105/105 107/107/107 104/104/104
f 104/104/104 108/108/108 106/106/106
f 104/104/104 107/107/107 109/109/109
f 109/109/109 108/108/108 104/104/104
f 107/107/107 110/110/110 109/109/109
f 111/111/111 108/108/108 109/109/109
f 114/114/114 113/113/113 112/112/112
f 115/115/115 114/114/114 112/112/112
f 118/118/118 117/117/117 116/116/116
f 119/119/119 118/118/118 116/116/116
f 122/122/122 121/121/121 120/120/120
f 123/123/123 122/122/122 120/120/120
f 126/126/126 125/125/125 124/124/124
f 127/127/127 126/126/126 124/124/124
f 130/130/130 129/129/129 128/128/128
f 131/131/131 129/129/129 130/130/130
f 132/132/132 131/131/131 130/130/130
f 133/133/133 129/129/129 131/131/131
f 134/134/134 131/131/131 132/132/132
f 135/135/135 133/133/133 131/131/131
f 136/136/136 131/131/131 134/134/134
f 135/135/135 131/131/131 136/136/136
f 137/137/137 136/136/136 134/134/134
f 138/138/138 135/135/135 136/136/136
f 141/141/141 140/140/140 139/139/139
f 142/142/142 141/141/141 139/139/139
f 145/145/145 144/144/144 143/143/143
f 146/146/146 145/145/145 143/143/143
f 149/149/149 148/148/148 147/147/147
f 150/150/150 149/149/149 147/147/147
f 153/153/153 152/152/152 151/151/151
f 154/154/154 153/153/153 151/151/151
