g obj_tent_flag2
v -0.2122008 3.6291695 -0.1907877
v -0.2544705 3.8032694 0.121893734
v -0.28961444 3.8692365 -0.046786852
v -0.2544705 3.8032694 0.121893734
v -0.2122008 3.6291695 -0.1907877
v -0.17162423 3.497757 -0.030078221
v 0.1685611 3.6053576 -0.20507072
v -0.17162423 3.497757 -0.030078221
v -0.2122008 3.6291695 -0.1907877
v -0.17162423 3.497757 -0.030078221
v 0.1685611 3.6053576 -0.20507072
v 0.2506874 3.45782 -0.045151893
v -0.057754107 3.3683 -0.34726653
v 0.2506874 3.45782 -0.045151893
v 0.1685611 3.6053576 -0.20507072
v 0.2506874 3.45782 -0.045151893
v -0.057754107 3.3683 -0.34726653
v 0.00025529944 3.1820674 -0.19521889
v 0.19715932 3.2078202 -0.44352806
v 0.00025529944 3.1820674 -0.19521889
v -0.057754107 3.3683 -0.34726653
v 0.00025529944 3.1820674 -0.19521889
v 0.19715932 3.2078202 -0.44352806
v 0.27543086 3.002551 -0.29680896
v -0.10731593 3.1522093 -0.47688532
v 0.27543086 3.002551 -0.29680896
v 0.19715932 3.2078202 -0.44352806
v 0.27543086 3.002551 -0.29680896
v -0.10731593 3.1522093 -0.47688532
v -0.078564584 2.9295514 -0.3320127
v -0.50817853 3.0160234 -0.5585747
v -0.05815849 2.6966279 -0.47447467
v -0.08824802 2.9271653 -0.61187506
v -0.05815849 2.6966279 -0.47447467
v -0.50817853 3.0160234 -0.5585747
v -0.5075586 2.8010087 -0.41822398
v -0.79317546 2.9191008 -0.61671245
v -0.5075586 2.8010087 -0.41822398
v -0.50817853 3.0160234 -0.5585747
v -0.5075586 2.8010087 -0.41822398
v -0.79317546 2.9191008 -0.61671245
v -0.81255615 2.6871543 -0.4795799
v -0.9920339 3.323845 -0.37393224
v -1.2066422 2.851517 -0.37608957
v -1.1470543 3.0825822 -0.5186503
v -1.2066422 2.851517 -0.37608957
v -0.9920339 3.323845 -0.37393224
v -1.0341308 3.130284 -0.22336069
v -0.91296095 3.5852294 -0.21714452
v -1.2842957 3.33415 -0.11840356
v -1.204749 3.4896438 -0.27448025
v -1.2842957 3.33415 -0.11840356
v -0.91296095 3.5852294 -0.21714452
v -0.951479 3.4696493 -0.05789401
v -0.88666135 3.8262892 -0.072548166
v -0.951479 3.4696493 -0.05789401
v -0.91296095 3.5852294 -0.21714452
v -0.951479 3.4696493 -0.05789401
v -0.88666135 3.8262892 -0.072548166
v -0.92333335 3.7528195 0.094706416
v -0.5923433 3.6966722 -0.15029716
v -0.92333335 3.7528195 0.094706416
v -0.88666135 3.8262892 -0.072548166
v -0.92333335 3.7528195 0.094706416
v -0.5923433 3.6966722 -0.15029716
v -0.5976298 3.60056 0.0126536675
v -0.28961444 3.8692365 -0.046786852
v -0.5976298 3.60056 0.0126536675
v -0.5923433 3.6966722 -0.15029716
v -0.5976298 3.60056 0.0126536675
v -0.28961444 3.8692365 -0.046786852
v -0.2544705 3.8032694 0.121893734
v -0.5906688 2.5829144 -0.43683934
v -0.5080381 3.2490885 -0.21044387
v -0.5685288 3.2528772 -0.12643778
v -0.5054788 2.621539 -0.5068837
v -0.42217392 2.5829144 -0.43683934
v -0.44410923 3.2528772 -0.12643778
v -0.26848114 2.5094657 -0.6667257
v -0.7622286 2.4150066 -0.7000471
v -0.25750694 2.4150066 -0.7000469
v -0.75125414 2.5094657 -0.6667257
v -0.78526723 2.5094657 -0.63843834
v -0.8171666 2.4150069 -0.23864055
v -0.8171665 2.4150069 -0.65671545
v -0.78526735 2.509466 -0.23693463
v -0.7622287 2.4150069 -0.19530925
v -0.7512543 2.509466 -0.20864749
v -0.7512543 2.509466 -0.20864749
v -0.25750694 2.4150069 -0.19530925
v -0.7622287 2.4150069 -0.19530925
v -0.26848128 2.509466 -0.20864749
v -0.20256908 2.4150069 -0.23864055
v -0.23446807 2.509466 -0.23693463
v -0.23446807 2.509466 -0.23693463
v -0.20256908 2.4150069 -0.65671533
v -0.20256908 2.4150069 -0.23864055
v -0.23446807 2.5094657 -0.6384383
v -0.25750694 2.4150066 -0.7000469
v -0.26848114 2.5094657 -0.6667257
v -0.8171665 2.4150069 -0.65671545
v -0.75125414 2.5094657 -0.6667257
v -0.78526723 2.5094657 -0.63843834
v -0.7622286 2.4150066 -0.7000471
v -0.7512543 2.509466 -0.20864749
v -0.23446807 2.509466 -0.23693463
v -0.26848128 2.509466 -0.20864749
v -0.26848114 2.5094657 -0.6667257
v -0.23446807 2.5094657 -0.6384383
v -0.78526723 2.5094657 -0.63843834
v -0.78526735 2.509466 -0.23693463
v -0.75125414 2.5094657 -0.6667257
v -0.39898625 2.5918276 -0.54505765
v -0.625792 2.4931056 -0.560364
v -0.3939452 2.4931056 -0.560364
v -0.62075084 2.5918276 -0.5450577
v -0.63637495 2.5918276 -0.5320637
v -0.6510281 2.493106 -0.34841445
v -0.65102804 2.493106 -0.5404594
v -0.636375 2.5918279 -0.3476308
v -0.6257921 2.493106 -0.32851002
v -0.6207509 2.5918279 -0.3346369
v -0.6207509 2.5918279 -0.3346369
v -0.3939452 2.493106 -0.32850984
v -0.6257921 2.493106 -0.32851002
v -0.39898634 2.5918279 -0.3346369
v -0.36870918 2.493106 -0.34841436
v -0.3833621 2.5918279 -0.3476308
v -0.3833621 2.5918279 -0.3476308
v -0.36870918 2.493106 -0.5404594
v -0.36870918 2.493106 -0.34841436
v -0.3833621 2.5918276 -0.5320637
v -0.3939452 2.4931056 -0.560364
v -0.39898625 2.5918276 -0.54505765
v -0.65102804 2.493106 -0.5404594
v -0.62075084 2.5918276 -0.5450577
v -0.63637495 2.5918276 -0.5320637
v -0.625792 2.4931056 -0.560364
v -0.6207509 2.5918279 -0.3346369
v -0.3833621 2.5918279 -0.3476308
v -0.39898634 2.5918279 -0.3346369
v -0.39898625 2.5918276 -0.54505765
v -0.3833621 2.5918276 -0.5320637
v -0.63637495 2.5918276 -0.5320637
v -0.636375 2.5918279 -0.3476308
v -0.62075084 2.5918276 -0.5450577
v -0.5923433 3.6966722 -0.15029716
v -0.2122008 3.6291695 -0.1907877
v -0.28961444 3.8692365 -0.046786852
v -0.057754107 3.3683 -0.34726653
v 0.1685611 3.6053576 -0.20507072
v -0.48786888 3.3851278 -0.3371726
v -0.50817853 3.0160234 -0.5585747
v -0.9920339 3.323845 -0.37393224
v -0.10731593 3.1522093 -0.47688532
v 0.19715932 3.2078202 -0.44352806
v -0.08824802 2.9271653 -0.61187506
v -0.91296095 3.5852294 -0.21714452
v -0.88666135 3.8262892 -0.072548166
v -1.204749 3.4896438 -0.27448025
v -0.8456105 3.097446 -0.5097345
v -1.1470543 3.0825822 -0.5186503
v -0.79317546 2.9191008 -0.61671245
v -0.08824802 2.9271653 -0.61187506
v -0.078564584 2.9295514 -0.3320127
v -0.10731593 3.1522093 -0.47688532
v -0.05815849 2.6966279 -0.47447467
v -0.8456105 3.097446 -0.5097345
v -0.81255615 2.6871543 -0.4795799
v -0.79317546 2.9191008 -0.61671245
v -0.8686705 2.8613012 -0.36668026
v -1.1470543 3.0825822 -0.5186503
v -0.8686705 2.8613012 -0.36668026
v -0.8456105 3.097446 -0.5097345
v -1.2066422 2.851517 -0.37608957
v -1.204749 3.4896438 -0.27448025
v -1.0341308 3.130284 -0.22336069
v -0.9920339 3.323845 -0.37393224
v -1.2842957 3.33415 -0.11840356
vt 0.2836119 0.04657129
vt 0.27935803 0.034343366
vt 0.2836119 0.034343366
vt 0.27935803 0.034343366
vt 0.2836119 0.04657129
vt 0.27935803 0.04657129
vt 0.2836119 0.06564316
vt 0.27935803 0.056465268
vt 0.2836119 0.056465268
vt 0.27935803 0.056465268
vt 0.2836119 0.06564316
vt 0.27935803 0.06564316
vt 0.29435787 0.010514961
vt 0.2858835 0.024641473
vt 0.29435787 0.024641473
vt 0.2858835 0.024641473
vt 0.29435787 0.010514961
vt 0.2858835 0.010514961
vt 0.2836119 0.048856795
vt 0.27935803 0.0396789
vt 0.2836119 0.0396789
vt 0.27935803 0.0396789
vt 0.2836119 0.048856795
vt 0.27935803 0.048856795
vt 0.29435787 0.046781126
vt 0.2858835 0.057788488
vt 0.29435787 0.057788488
vt 0.2858835 0.057788488
vt 0.29435787 0.046781126
vt 0.2858835 0.046781126
vt 0.29435787 0.018687159
vt 0.2858835 0.034040544
vt 0.29435787 0.034040544
vt 0.2858835 0.034040544
vt 0.29435787 0.018687159
vt 0.2858835 0.018687159
vt 0.29435787 0.010514961
vt 0.2858835 0.018687159
vt 0.29435787 0.018687159
vt 0.2858835 0.018687159
vt 0.29435787 0.010514961
vt 0.2858835 0.010514961
vt 0.2836119 0.025478542
vt 0.27935803 0.036067016
vt 0.2836119 0.036067016
vt 0.27935803 0.036067016
vt 0.2836119 0.025478542
vt 0.27935803 0.025478542
vt 0.2836119 0.036425956
vt 0.27935803 0.045522906
vt 0.2836119 0.045522906
vt 0.27935803 0.045522906
vt 0.2836119 0.036425956
vt 0.27935803 0.036425956
vt 0.2836119 0.05324796
vt 0.27935803 0.04477358
vt 0.2836119 0.04477358
vt 0.27935803 0.04477358
vt 0.2836119 0.05324796
vt 0.27935803 0.05324796
vt 0.2836119 0.046936683
vt 0.27935803 0.037124477
vt 0.2836119 0.037124477
vt 0.27935803 0.037124477
vt 0.2836119 0.046936683
vt 0.27935803 0.046936683
vt 0.2836119 0.056472287
vt 0.27935803 0.047294393
vt 0.2836119 0.0472944
vt 0.27935803 0.047294393
vt 0.2836119 0.056472287
vt 0.27935803 0.05647228
vt 0.40126118 0.50147754
vt 0.40684915 0.51225424
vt 0.40126115 0.51552665
vt 0.40684915 0.50147754
vt 0.41271508 0.5014775
vt 0.41271508 0.51552665
vt 0.33885378 0.14574629
vt 0.35889304 0.14141414
vt 0.33885378 0.14141414
vt 0.35822013 0.14574629
vt 0.33885378 0.14574629
vt 0.36935416 0.14141414
vt 0.33885378 0.14141414
vt 0.36935416 0.14574629
vt 0.37216115 0.14141414
vt 0.37216115 0.14574629
vt 0.33885378 0.14574629
vt 0.36935416 0.14141414
vt 0.33885378 0.14141414
vt 0.36935416 0.14574629
vt 0.37216115 0.14141414
vt 0.37216115 0.14574629
vt 0.33885378 0.14574629
vt 0.36935416 0.14141414
vt 0.33885378 0.14141414
vt 0.36935416 0.14574629
vt 0.37216115 0.14141414
vt 0.37216115 0.14574629
vt 0.37216115 0.14141414
vt 0.36935416 0.14574629
vt 0.37216115 0.14574629
vt 0.36935416 0.14141414
vt 0.2289488 0.101117015
vt 0.25086835 0.10255966
vt 0.24942562 0.101117015
vt 0.24942568 0.12447908
vt 0.25086835 0.12303641
vt 0.22750616 0.12303641
vt 0.22750616 0.10255966
vt 0.22894883 0.12447908
vt 0.33885378 0.14574629
vt 0.35889304 0.14141414
vt 0.33885378 0.14141414
vt 0.35822013 0.14574629
vt 0.33885378 0.14574629
vt 0.36935416 0.14141414
vt 0.33885378 0.14141414
vt 0.36935416 0.14574629
vt 0.37216115 0.14141414
vt 0.37216115 0.14574629
vt 0.33885378 0.14574629
vt 0.36935416 0.14141414
vt 0.33885378 0.14141414
vt 0.36935416 0.14574629
vt 0.37216115 0.14141414
vt 0.37216115 0.14574629
vt 0.33885378 0.14574629
vt 0.36935416 0.14141414
vt 0.33885378 0.14141414
vt 0.36935416 0.14574629
vt 0.37216115 0.14141414
vt 0.37216115 0.14574629
vt 0.37216115 0.14141414
vt 0.36935416 0.14574629
vt 0.37216115 0.14574629
vt 0.36935416 0.14141414
vt 0.23152986 0.104027994
vt 0.2472252 0.105060995
vt 0.24619216 0.104027994
vt 0.24619219 0.12075624
vt 0.2472252 0.11972323
vt 0.23049685 0.11972323
vt 0.23049682 0.105060995
vt 0.23152986 0.120756246
vt 0.29188752 0.11832019
vt 0.27409664 0.116284214
vt 0.27792582 0.13023286
vt 0.2666851 0.10149173
vt 0.25739324 0.114451855
vt 0.2868896 0.10149172
vt 0.2875015 0.08157096
vt 0.30935144 0.09775691
vt 0.26922923 0.08737346
vt 0.25661886 0.090631016
vt 0.2683444 0.073732466
vt 0.30543485 0.113230266
vt 0.30483928 0.12799107
vt 0.31817752 0.106307976
vt 0.3024151 0.08401411
vt 0.31513637 0.08381051
vt 0.30053455 0.07322348
vt 0.2858835 0.068183884
vt 0.29435787 0.056999233
vt 0.2858835 0.056999233
vt 0.29435787 0.068183884
vt 0.29435787 0.037616346
vt 0.2858835 0.046662796
vt 0.29435787 0.046662796
vt 0.2858835 0.037616346
vt 0.2858835 0.050898187
vt 0.29435787 0.06596867
vt 0.29435787 0.050898187
vt 0.2858835 0.06596867
vt 0.29435787 0.025524404
vt 0.2858835 0.010514961
vt 0.2858835 0.025524404
vt 0.29435787 0.010514961
vn 0.9383212 0.34006885 -0.06250265
vn 0.9383212 0.34006885 -0.06250265
vn 0.9383212 0.34006885 -0.06250265
vn 0.96223867 0.27139333 -0.021031067
vn 0.9622388 0.27139333 -0.021031072
vn 0.9622388 0.27139333 -0.021031072
vn 0.072111554 0.780969 0.62039286
vn 0.07211155 0.780969 0.62039286
vn 0.07211155 0.780969 0.6203928
vn 0.09458149 0.755428 0.6483695
vn 0.09458149 0.755428 0.6483695
vn 0.09458149 0.755428 0.6483695
vn 0.7108555 -0.29591057 -0.6380606
vn 0.7108555 -0.29591057 -0.6380606
vn 0.71085554 -0.2959106 -0.63806057
vn 0.710632 -0.29871815 -0.63700044
vn 0.710632 -0.29871815 -0.63700044
vn 0.710632 -0.29871818 -0.63700056
vn 0.5861666 0.6140771 0.52850544
vn 0.5861667 0.61407715 0.5285055
vn 0.5861666 0.6140771 0.52850544
vn 0.5916086 0.6058165 0.53196406
vn 0.5916086 0.6058165 0.53196406
vn 0.5916086 0.60581654 0.531964
vn 0.18665534 -0.52317625 -0.8315326
vn 0.18665534 -0.52317625 -0.8315326
vn 0.18665534 -0.52317625 -0.8315326
vn 0.18978328 -0.51812565 -0.8339833
vn 0.18978325 -0.51812553 -0.8339833
vn 0.18978325 -0.5181256 -0.8339833
vn -0.21502994 -0.5205479 -0.82631236
vn -0.21502994 -0.5205479 -0.82631236
vn -0.21502994 -0.5205479 -0.82631236
vn -0.2258535 -0.53293896 -0.81545454
vn -0.2258535 -0.532939 -0.81545454
vn -0.2258535 -0.532939 -0.81545454
vn 0.33585343 -0.5141768 -0.7891923
vn 0.33585343 -0.5141769 -0.7891923
vn 0.33585343 -0.5141769 -0.7891923
vn 0.34604335 -0.4987454 -0.79467416
vn 0.3460433 -0.4987454 -0.79467416
vn 0.34604335 -0.4987454 -0.79467416
vn -0.87535393 0.3964645 0.27671516
vn -0.87535393 0.39646453 0.27671513
vn -0.87535393 0.3964645 0.27671513
vn -0.8781275 0.3977745 0.26583385
vn -0.8781275 0.3977744 0.26583382
vn -0.8781275 0.3977745 0.26583385
vn -0.35511208 0.74649036 0.5627144
vn -0.35511208 0.7464904 0.5627144
vn -0.35511208 0.7464904 0.5627144
vn -0.4047421 0.7838139 0.4709773
vn -0.4047421 0.7838139 0.4709773
vn -0.40474212 0.78381395 0.4709773
vn -0.9786033 0.17329895 -0.110919364
vn -0.9786033 0.17329897 -0.110919364
vn -0.9786033 0.17329894 -0.110919364
vn -0.975387 0.17158145 -0.1384916
vn -0.975387 0.17158145 -0.1384916
vn -0.975387 0.17158145 -0.1384916
vn 0.45673403 0.7732748 0.43981826
vn 0.45673403 0.7732748 0.4398182
vn 0.45673403 0.7732748 0.43981826
vn 0.4684875 0.7542302 0.4600611
vn 0.4684875 0.75423014 0.46006116
vn 0.4684875 0.7542302 0.46006113
vn -0.55344474 0.7251278 0.4097419
vn -0.5534448 0.7251278 0.4097419
vn -0.5534448 0.7251278 0.40974194
vn -0.5571907 0.7273895 0.4005533
vn -0.5571907 0.7273895 0.4005533
vn -0.5571907 0.7273895 0.4005533
vn -0.69212204 0.30773106 -0.6528926
vn -0.015481219 0.44965106 -0.89307004
vn -0.77074605 0.28863764 -0.5680132
vn 0.0074159754 0.42713362 -0.9041581
vn 0.6979548 0.30944404 -0.6458356
vn 0.7534927 0.2965343 -0.5867846
vn 0.3208554 0.34801292 -0.8808739
vn -0.30632806 0.3481299 -0.88598454
vn 0.30856407 0.35195327 -0.8836952
vn -0.3151647 0.35327172 -0.88083494
vn -0.8478552 0.36139807 -0.38798574
vn -0.8768783 0.28919104 0.38399628
vn -0.83890945 0.35798192 -0.4099755
vn -0.84879124 0.27145442 0.45372444
vn -0.3373879 0.17457393 0.92503697
vn -0.32225525 0.16896744 0.9314513
vn -0.32225525 0.16896744 0.9314513
vn 0.33450574 0.1697588 0.9269778
vn -0.3373879 0.17457393 0.92503697
vn 0.31698608 0.17424841 0.932286
vn 0.87898684 0.28567058 0.3818044
vn 0.8496837 0.27885786 0.44752195
vn 0.8496837 0.27885786 0.44752195
vn 0.836274 0.36208308 -0.4117542
vn 0.87898684 0.28567058 0.3818044
vn 0.8473699 0.35629147 -0.39372668
vn 0.30856407 0.35195327 -0.8836952
vn 0.3208554 0.34801292 -0.8808739
vn -0.83890945 0.35798192 -0.4099755
vn -0.3151647 0.35327172 -0.88083494
vn -0.8478552 0.36139807 -0.38798574
vn -0.30632806 0.3481299 -0.88598454
vn -0 1 0
vn -0 1 0
vn -0 1 0
vn 6.3655744E-07 1 -7.6540283E-07
vn 6.365574E-07 1 -7.654028E-07
vn -0 1 0
vn 6.365512E-07 1 -7.6540243E-07
vn -0 1 0
vn 0.33650216 0.16103545 -0.92781126
vn -0.32299498 0.1610865 -0.9325907
vn 0.32433394 0.16343784 -0.9317165
vn -0.3337918 0.16452593 -0.9281779
vn -0.8941729 0.16801369 -0.4150014
vn -0.90009683 0.13029936 0.4157497
vn -0.88672036 0.16576116 -0.43156725
vn -0.88861245 0.1244829 0.44144318
vn -0.3336241 0.07783604 0.93948734
vn -0.33340627 0.075349234 0.93976736
vn -0.33340627 0.075349234 0.93976736
vn 0.33215487 0.07531391 0.94021326
vn -0.3336241 0.07783604 0.93948734
vn 0.33083692 0.07877288 0.94039446
vn 0.90102136 0.12800182 0.4144587
vn 0.88935584 0.1285212 0.4387806
vn 0.88935584 0.1285212 0.4387806
vn 0.8856723 0.16826004 -0.43275055
vn 0.90102136 0.12800182 0.4144587
vn 0.8935716 0.16447297 -0.41770616
vn 0.32433394 0.16343784 -0.9317165
vn 0.33650216 0.16103545 -0.92781126
vn -0.88672036 0.16576116 -0.43156725
vn -0.3337918 0.16452593 -0.9281779
vn -0.8941729 0.16801369 -0.4150014
vn -0.32299498 0.1610865 -0.9325907
vn -0 1 0
vn -0 1 0
vn -0 1 0
vn 1.3857522E-06 1 -1.6662539E-06
vn 1.3857521E-06 1 -1.6662536E-06
vn -0 1 0
vn 1.3857515E-06 1 -1.6662531E-06
vn -0 1 0
vn -0 0.51439226 -0.857555
vn -0 0.51439226 -0.8575551
vn -0 0.51439255 -0.8575548
vn -0 0.514392 -0.85755515
vn 3.0519107E-07 0.51439226 -0.857555
vn -0 0.5143922 -0.8575551
vn -0 0.51439244 -0.8575549
vn -0 0.51439226 -0.857555
vn 2.282175E-07 0.5143921 -0.85755515
vn -2.6311645E-07 0.5143917 -0.8575553
vn -0 0.51439315 -0.85755444
vn 1.0442849E-07 0.5143921 -0.85755515
vn -0 0.51439226 -0.857555
vn -0 0.514392 -0.85755515
vn 1.6238981E-07 0.51439255 -0.8575548
vn -0 0.5143924 -0.8575549
vn 2.8479536E-07 0.51439285 -0.8575546
vn 0.9938069 0.10537006 -0.035284776
vn 0.9938069 0.105370075 -0.035284776
vn 0.9938069 0.105370075 -0.035284776
vn 0.9934557 0.10862585 -0.035300374
vn -0.94861305 -0.09852394 -0.30070955
vn -0.94861305 -0.09852394 -0.30070952
vn -0.94861305 -0.09852394 -0.30070955
vn -0.94358295 -0.09923634 -0.31591675
vn 0.050893385 -0.5210923 -0.8519816
vn 0.050893385 -0.5210923 -0.85198164
vn 0.05089339 -0.5210923 -0.8519816
vn 0.038949404 -0.5319344 -0.8458893
vn -0.6222579 -0.39184 -0.67768455
vn -0.62225795 -0.39184 -0.6776846
vn -0.62225795 -0.39184 -0.6776846
vn -0.6066204 -0.38681337 -0.694541
g obj_tent_flag2_0
f 3/3/3 2/2/2 1/1/1
f 6/6/6 5/5/5 4/4/4
f 9/9/9 8/8/8 7/7/7
f 12/12/12 11/11/11 10/10/10
f 15/15/15 14/14/14 13/13/13
f 18/18/18 17/17/17 16/16/16
f 21/21/21 20/20/20 19/19/19
f 24/24/24 23/23/23 22/22/22
f 27/27/27 26/26/26 25/25/25
f 30/30/30 29/29/29 28/28/28
f 33/33/33 32/32/32 31/31/31
f 36/36/36 35/35/35 34/34/34
f 39/39/39 38/38/38 37/37/37
f 42/42/42 41/41/41 40/40/40
f 45/45/45 44/44/44 43/43/43
f 48/48/48 47/47/47 46/46/46
f 51/51/51 50/50/50 49/49/49
f 54/54/54 53/53/53 52/52/52
f 57/57/57 56/56/56 55/55/55
f 60/60/60 59/59/59 58/58/58
f 63/63/63 62/62/62 61/61/61
f 66/66/66 65/65/65 64/64/64
f 69/69/69 68/68/68 67/67/67
f 72/72/72 71/71/71 70/70/70
f 75/75/75 74/74/74 73/73/73
f 76/76/76 73/73/73 74/74/74
f 76/76/76 74/74/74 77/77/77
f 78/78/78 77/77/77 74/74/74
f 81/81/81 80/80/80 79/79/79
f 82/82/82 79/79/79 80/80/80
f 85/85/85 84/84/84 83/83/83
f 86/86/86 83/83/83 84/84/84
f 84/84/84 87/87/87 86/86/86
f 88/88/88 86/86/86 87/87/87
f 91/91/91 90/90/90 89/89/89
f 92/92/92 89/89/89 90/90/90
f 90/90/90 93/93/93 92/92/92
f 94/94/94 92/92/92 93/93/93
f 97/97/97 96/96/96 95/95/95
f 98/98/98 95/95/95 96/96/96
f 96/96/96 99/99/99 98/98/98
f 100/100/100 98/98/98 99/99/99
f 103/103/103 102/102/102 101/101/101
f 104/104/104 101/101/101 102/102/102
f 107/107/107 106/106/106 105/105/105
f 106/106/106 108/108/108 105/105/105
f 109/109/109 108/108/108 106/106/106
f 108/108/108 110/110/110 105/105/105
f 105/105/105 110/110/110 111/111/111
f 112/112/112 110/110/110 108/108/108
f 115/115/115 114/114/114 113/113/113
f 116/116/116 113/113/113 114/114/114
f 119/119/119 118/118/118 117/117/117
f 120/120/120 117/117/117 118/118/118
f 118/118/118 121/121/121 120/120/120
f 122/122/122 120/120/120 121/121/121
f 125/125/125 124/124/124 123/123/123
f 126/126/126 123/123/123 124/124/124
f 124/124/124 127/127/127 126/126/126
f 128/128/128 126/126/126 127/127/127
f 131/131/131 130/130/130 129/129/129
f 132/132/132 129/129/129 130/130/130
f 130/130/130 133/133/133 132/132/132
f 134/134/134 132/132/132 133/133/133
f 137/137/137 136/136/136 135/135/135
f 138/138/138 135/135/135 136/136/136
f 141/141/141 140/140/140 139/139/139
f 140/140/140 142/142/142 139/139/139
f 143/143/143 142/142/142 140/140/140
f 142/142/142 144/144/144 139/139/139
f 139/139/139 144/144/144 145/145/145
f 146/146/146 144/144/144 142/142/142
f 149/149/149 148/148/148 147/147/147
f 147/147/147 148/148/148 150/150/150
f 150/150/150 148/148/148 151/151/151
f 152/152/152 147/147/147 150/150/150
f 152/152/152 150/150/150 153/153/153
f 152/152/152 154/154/154 147/147/147
f 152/152/152 153/153/153 154/154/154
f 150/150/150 155/155/155 153/153/153
f 156/156/156 155/155/155 150/150/150
f 153/153/153 155/155/155 157/157/157
f 154/154/154 158/158/158 147/147/147
f 147/147/147 158/158/158 159/159/159
f 160/160/160 158/158/158 154/154/154
f 153/153/153 161/161/161 154/154/154
f 154/154/154 161/161/161 162/162/162
f 163/163/163 161/161/161 153/153/153
f 166/166/166 165/165/165 164/164/164
f 167/167/167 164/164/164 165/165/165
f 170/170/170 169/169/169 168/168/168
f 171/171/171 168/168/168 169/169/169
f 174/174/174 173/173/173 172/172/172
f 175/175/175 172/172/172 173/173/173
f 178/178/178 177/177/177 176/176/176
f 179/179/179 176/176/176 177/177/177
