g obj_propup2_2
v -0.3951338 0.22791812 -0.052570637
v 0.085796595 0.2279181 0.35097796
v 0.10053343 0.01540633 0.39013934
v -0.4360487 0.015406389 -0.060105313
v 0.27303872 0.21141867 0.022908267
v -0.10823959 0.049501516 -0.29702228
v -0.10823959 0.21141858 -0.29702228
v 0.27303934 0.0495015 0.022908881
v 0.27303934 0.0495015 0.022908881
v 0.09095206 0.049501497 0.22979808
v -0.28036568 0.049501467 -0.081775725
v -0.10823959 0.049501516 -0.29702228
v 0.39190087 0.22791809 0.03172935
v 0.43398663 0.015406346 0.043675184
v 0.11820449 0.2279181 0.34748998
v 0.13625969 0.015406331 0.38676384
v 0.10053343 0.01540633 0.39013934
v 0.085796595 0.2279181 0.35097796
v 0.27303934 0.0495015 0.022908881
v 0.27303872 0.21141867 0.022908267
v 0.09095206 0.21141861 0.22979747
v 0.09095206 0.049501497 0.22979808
v -0.28036568 0.049501467 -0.081775725
v -0.28036568 0.21141867 -0.081775725
v -0.10823959 0.21141858 -0.29702228
v -0.10823959 0.049501516 -0.29702228
v -0.43892515 0.015406392 -0.09587612
v -0.15662709 0.01540633 -0.45191061
v -0.13745575 0.2279181 -0.41245574
v -0.39732492 0.22791812 -0.0850907
v -0.4360487 0.015406389 -0.060105313
v -0.3951338 0.22791812 -0.052570637
v -0.064486966 0.3095828 0.023136292
v 0.007488579 0.3095828 -0.050874274
v -0.066762306 0.045596678 0.014840097
v -0.0032329224 0.045596685 -0.056868088
v 0.03559595 0.3095828 -0.15021288
v 0.027104305 0.04559669 -0.14774024
v -0.0393765 0.30958286 -0.22052187
v -0.045782115 0.04559669 -0.20923154
v -0.13775322 0.3095828 -0.25029612
v -0.13547665 0.045596693 -0.24160747
v -0.13775322 0.3095828 -0.25029612
v -0.20914242 0.3095828 -0.17594811
v -0.13547665 0.045596693 -0.24160747
v -0.19829062 0.04559669 -0.16948503
v -0.23783553 0.3095828 -0.07694755
v -0.22934327 0.04559669 -0.079025894
v -0.16131607 0.3095828 -0.0093173925
v -0.15456565 0.045596685 -0.020810246
v -0.064486966 0.3095828 0.023136292
v -0.066762306 0.045596678 0.014840097
v 0.016553668 0.40329027 -0.045641672
v -0.06226879 0.3095828 0.03141159
v -0.06177709 0.40329027 0.03324747
v 0.014907706 0.3095827 -0.046591572
v 0.04570713 0.40329027 -0.15292184
v 0.04387063 0.3095827 -0.15243013
v -0.034144208 0.40329027 -0.22958635
v -0.035095032 0.3095827 -0.2279407
v -0.14046188 0.40329027 -0.2604076
v -0.13997078 0.30958274 -0.258572
v -0.21820873 0.40329027 -0.18118072
v -0.13997078 0.30958274 -0.258572
v -0.14046188 0.40329027 -0.2604076
v -0.21656215 0.3095828 -0.18023111
v -0.24794671 0.40329027 -0.074238285
v -0.24611144 0.3095828 -0.07472998
v -0.1665496 0.40329027 -0.0002529178
v -0.16559877 0.3095828 -0.0018994955
v -0.06177709 0.40329027 0.03324747
v -0.06226879 0.3095828 0.03141159
v 0.111396916 0.4896621 -0.06385206
v 0.01916705 0.4896621 -0.033922635
v 0.040640168 0.036181368 -0.012449517
v 0.111396916 0.036181334 -0.03541064
v 0.18215181 0.036181334 -0.01244921
v 0.20362554 0.48966208 -0.03392356
v 0.2335559 0.48966208 0.058306
v 0.20511293 0.036181327 0.05830723
v 0.18215244 0.036181327 0.1290606
v 0.20362554 0.48966208 0.15053555
v 0.01916705 0.4896621 -0.033922635
v -0.010762681 0.4896621 0.058305692
v 0.040640168 0.036181368 -0.012449517
v 0.01767966 0.036181368 0.05830723
v 0.040640783 0.03618136 0.1290606
v 0.019167665 0.4896621 0.15053555
v 0.1113963 0.4896621 0.1804659
v 0.11139569 0.036181323 0.15202172
v 0.18215244 0.036181327 0.1290606
v 0.20362554 0.48966208 0.15053555
v -0.019796425 0.5720916 0.058306616
v 0.012346568 0.5720916 -0.04074527
v 0.1113963 0.5720916 -0.0728855
v 0.11139507 0.5720916 0.18950026
v 0.012345953 0.5720916 0.15735665
v 0.24258964 0.5720915 0.05830477
v 0.21044603 0.5720915 0.15735728
v 0.21044664 0.5720915 -0.040743735
v 0.1113963 0.5720916 -0.0728855
v 0.012346568 0.5720916 -0.04074527
v 0.01358442 0.4896621 -0.039504346
v 0.1113963 0.4896621 -0.07124598
v 0.2092088 0.48966208 -0.03950465
v 0.21044664 0.5720915 -0.040743735
v 0.24258964 0.5720915 0.05830477
v 0.24094982 0.48966208 0.058307536
v 0.20920818 0.48966208 0.15611757
v 0.21044603 0.5720915 0.15735728
v -0.019796425 0.5720916 0.058306616
v 0.01358442 0.4896621 -0.039504346
v 0.012346568 0.5720916 -0.04074527
v -0.018157223 0.4896621 0.058306616
v 0.01358442 0.4896621 0.15611757
v 0.012345953 0.5720916 0.15735665
v 0.11139507 0.5720916 0.18950026
v 0.111396916 0.4896621 0.18785922
v 0.20920818 0.48966208 0.15611757
v 0.21044603 0.5720915 0.15735728
v 0.38924754 0.22791809 -0.0011813074
v 0.42885146 0.015406348 -0.015019567
v 0.43398663 0.015406346 0.043675184
v 0.39190087 0.22791809 0.03172935
v 0.42885146 0.015406348 -0.015019567
v 0.38924754 0.22791809 -0.0011813074
v -0.10284012 0.015406292 -0.45683497
v -0.10458381 0.2279181 -0.41555652
v -0.13745575 0.2279181 -0.41245574
v -0.15662709 0.01540633 -0.45191061
v -0.10284012 0.015406292 -0.45683497
v -0.10458381 0.2279181 -0.41555652
v -0.21820873 0.40329027 -0.18118072
v -0.101120405 0.4349749 -0.11358006
v -0.24794671 0.40329027 -0.074238285
v -0.14046188 0.40329027 -0.2604076
v -0.1665496 0.40329027 -0.0002529178
v -0.034144208 0.40329027 -0.22958635
v -0.06177709 0.40329027 0.03324747
v 0.04570713 0.40329027 -0.15292184
v 0.016553668 0.40329027 -0.045641672
v -0.10458381 0.2279181 -0.41555652
v 0.38924754 0.22791809 -0.0011813074
v 0.27303872 0.21141867 0.022908267
v 0.39190087 0.22791809 0.03172935
v 0.11820449 0.2279181 0.34748998
v -0.10823959 0.21141858 -0.29702228
v -0.13745575 0.2279181 -0.41245574
v -0.39732492 0.22791812 -0.0850907
v -0.28036568 0.21141867 -0.081775725
v -0.3951338 0.22791812 -0.052570637
v 0.09095206 0.21141861 0.22979747
v 0.085796595 0.2279181 0.35097796
vt 0.4577865 0.2813738
vt 0.48951724 0.2813738
vt 0.48951724 0.2724933
vt 0.4577362 0.2724933
vt 0.48951903 0.2864439
vt 0.4577865 0.2922945
vt 0.4577865 0.2864439
vt 0.48951903 0.2922945
vt 0.48888567 0.2922945
vt 0.4888849 0.2922945
vt 0.4587768 0.2922945
vt 0.45874947 0.2922945
vt 0.4450588 0.2813738
vt 0.4450588 0.2724933
vt 0.45589292 0.2813738
vt 0.45589292 0.2724933
vt 0.45766288 0.2724933
vt 0.45766288 0.2813738
vt 0.45578218 0.2922945
vt 0.45578218 0.2864439
vt 0.45578218 0.2864439
vt 0.45578218 0.2922945
vt 0.45578218 0.2922945
vt 0.45578218 0.2864439
vt 0.45578218 0.2864439
vt 0.45578218 0.2922945
vt 0.45589292 0.2724933
vt 0.4450588 0.2724933
vt 0.4450588 0.2813738
vt 0.45589292 0.2813738
vt 0.45766288 0.2724933
vt 0.45766288 0.2813738
vt 0.48419818 0.25566667
vt 0.48250484 0.25566667
vt 0.48419818 0.23342697
vt 0.48250484 0.23342697
vt 0.47914934 0.25566667
vt 0.47914934 0.23342697
vt 0.4757939 0.25566667
vt 0.4757939 0.23342697
vt 0.47234607 0.25566667
vt 0.47234607 0.23342697
vt 0.47234607 0.25566667
vt 0.4757939 0.25566667
vt 0.47234607 0.23342697
vt 0.4757939 0.23342697
vt 0.47914934 0.25566667
vt 0.47914934 0.23342697
vt 0.48250484 0.25566667
vt 0.48250484 0.23342697
vt 0.48419818 0.25566667
vt 0.48419818 0.23342697
vt 0.48250484 0.26111943
vt 0.48419818 0.25624508
vt 0.48419818 0.26111943
vt 0.48250484 0.25624508
vt 0.47914934 0.26111943
vt 0.47914934 0.25624508
vt 0.4757939 0.26111943
vt 0.4757939 0.25624508
vt 0.47234607 0.26111943
vt 0.47234607 0.25624508
vt 0.4757939 0.26111943
vt 0.47234607 0.25624508
vt 0.47234607 0.26111943
vt 0.4757939 0.25624508
vt 0.47914934 0.26111943
vt 0.47914934 0.25624508
vt 0.48250484 0.26111943
vt 0.48250484 0.25624508
vt 0.48419818 0.26111943
vt 0.48419818 0.25624508
vt 0.4895352 0.25566667
vt 0.48693633 0.25566667
vt 0.48693633 0.23342697
vt 0.4895352 0.23342697
vt 0.49256355 0.23342697
vt 0.49256355 0.25566667
vt 0.49559188 0.25566667
vt 0.49559188 0.23342697
vt 0.49701202 0.23342697
vt 0.49701202 0.25566667
vt 0.48693633 0.25566667
vt 0.4895352 0.25566667
vt 0.48693633 0.23342697
vt 0.4895352 0.23342697
vt 0.49256355 0.23342697
vt 0.49256355 0.25566667
vt 0.49559188 0.25566667
vt 0.49559188 0.23342697
vt 0.49701202 0.23342697
vt 0.49701202 0.25566667
vt 0.48767114 0.26260394
vt 0.48767114 0.26424664
vt 0.4917453 0.26424664
vt 0.49174523 0.26147693
vt 0.48767114 0.26147693
vt 0.49581945 0.26260406
vt 0.49581945 0.26147693
vt 0.49581945 0.26424664
vt 0.4895352 0.26111943
vt 0.48693633 0.26111943
vt 0.48693633 0.25624508
vt 0.4895352 0.25624508
vt 0.49256355 0.25624508
vt 0.49256355 0.26111943
vt 0.49559188 0.26111943
vt 0.49559188 0.25624508
vt 0.49701202 0.25624508
vt 0.49701202 0.26111943
vt 0.4895352 0.26111943
vt 0.48693633 0.25624508
vt 0.48693633 0.26111943
vt 0.4895352 0.25624508
vt 0.49256355 0.25624508
vt 0.49256355 0.26111943
vt 0.49559188 0.26111943
vt 0.49559188 0.25624508
vt 0.49701202 0.25624508
vt 0.49701202 0.26111943
vt 0.45766288 0.2813738
vt 0.45766288 0.2724933
vt 0.45628607 0.2724933
vt 0.45628607 0.2813738
vt 0.4577362 0.2724933
vt 0.4577362 0.2813738
vt 0.48951724 0.2724933
vt 0.48951724 0.2813738
vt 0.45766288 0.2813738
vt 0.45766288 0.2724933
vt 0.45628607 0.2724933
vt 0.45628607 0.2813738
vt 0.47246724 0.26274508
vt 0.4790972 0.26288038
vt 0.47246724 0.26130682
vt 0.47246724 0.26388365
vt 0.4790972 0.26130682
vt 0.4790972 0.26388365
vt 0.48419097 0.26130682
vt 0.48419097 0.26388365
vt 0.48419097 0.2630164
vt 0.44510037 0.28540367
vt 0.48825502 0.28534037
vt 0.48342538 0.28384036
vt 0.48939434 0.28518194
vt 0.4893625 0.28241116
vt 0.45010638 0.28384036
vt 0.44415995 0.28525
vt 0.44415995 0.2824772
vt 0.45081633 0.28384036
vt 0.44628343 0.28231913
vt 0.48326474 0.28384036
vt 0.4883107 0.2822575
vn -0.60199976 0.7228492 0.33924228
vn -0.23033807 0.7222765 0.6521205
vn -0.26433495 0.15760277 0.9514665
vn -0.89108896 0.15705873 0.42578524
vn -0.5096374 0.8594094 0.041051712
vn 0.08083791 0.57611984 0.81335807
vn 0.049761545 0.8589363 0.509659
vn -0.81503934 0.5761188 0.061627872
vn -0.81503934 0.5761188 0.061627872
vn -0.061496433 0.5785995 -0.8132901
vn 0.8116123 0.5786007 -0.08066393
vn 0.08083791 0.57611984 0.81335807
vn 0.6360714 0.7417809 0.21254262
vn 0.9319962 0.20086099 0.30172485
vn 0.31162882 0.74505806 0.58972526
vn 0.44941425 0.1988849 0.8709028
vn -0.26433495 0.15760277 0.9514665
vn -0.23033807 0.7222765 0.6521205
vn -0.81503934 0.5761188 0.061627872
vn -0.5096374 0.8594094 0.041051712
vn -0.03877096 0.8533598 -0.5198786
vn -0.061496433 0.5785995 -0.8132901
vn 0.8116123 0.5786007 -0.08066393
vn 0.5204271 0.85243374 -0.050124098
vn 0.049761545 0.8589363 0.509659
vn 0.08083791 0.57611984 0.81335807
vn -0.93747514 0.19780375 -0.28638116
vn -0.46459424 0.20155288 -0.86228114
vn -0.3244288 0.74125344 -0.5876132
vn -0.63416797 0.7466885 -0.20071696
vn -0.89108896 0.15705873 0.42578524
vn -0.60199976 0.7228492 0.33924228
vn 0.23215567 -0.044743676 0.971649
vn 0.86545974 -0.03752541 0.499571
vn 0.23140718 -0.04474481 0.9718275
vn 0.86536825 -0.037525296 0.49972963
vn 0.9621592 -0.04449758 -0.2688304
vn 0.96222717 -0.04449723 -0.26858667
vn 0.4995789 -0.039093785 -0.86538583
vn 0.4996617 -0.03909375 -0.8653381
vn -0.25195706 -0.045271594 -0.96667886
vn -0.25192744 -0.045271624 -0.96668667
vn -0.25195706 -0.045271594 -0.96667886
vn -0.8653406 -0.038463898 -0.49970612
vn -0.25192744 -0.045271624 -0.96668667
vn -0.8654298 -0.038463786 -0.4995515
vn -0.95860326 -0.045518678 0.28108308
vn -0.95830107 -0.04551943 0.28211182
vn -0.49966142 -0.03869171 0.86535627
vn -0.49959102 -0.03869168 0.8653969
vn 0.23215567 -0.044743676 0.971649
vn 0.23140718 -0.04474481 0.9718275
vn 0.7123134 0.5687565 0.41124886
vn 0.23710117 -0.021701798 0.9712425
vn 0.20107625 0.5355083 0.8202433
vn 0.86586833 -0.019196372 0.49990353
vn 0.8129043 0.53720415 -0.22494079
vn 0.9634605 -0.021573598 -0.26698014
vn 0.41070905 0.5703338 -0.71136314
vn 0.4999107 -0.019067427 -0.865867
vn -0.21403444 0.53684056 -0.816083
vn -0.25340757 -0.021596603 -0.9671185
vn -0.71198195 0.56930804 -0.41105956
vn -0.25340757 -0.021596603 -0.9671185
vn -0.21403444 0.53684056 -0.816083
vn -0.86586696 -0.019148009 -0.49990785
vn -0.81177807 0.5351502 0.23373199
vn -0.96050125 -0.021731472 0.27742597
vn -0.40981528 0.5728975 0.7098169
vn -0.49991274 -0.018862179 0.8658704
vn 0.20107625 0.5355083 0.8202433
vn 0.23710117 -0.021701798 0.9712425
vn 1.0398556E-06 -0.06259575 -0.99803895
vn -0.7055262 -0.0668168 -0.70552695
vn -0.70552623 -0.06681681 -0.70552707
vn 1.1721896E-06 -0.06259575 -0.99803895
vn 0.70552534 -0.06681843 -0.70552766
vn 0.7055249 -0.06681842 -0.70552814
vn 0.9980388 -0.0625977 5.1488155E-07
vn 0.9980388 -0.0625977 1.6351573E-06
vn 0.70552623 -0.066819616 0.7055267
vn 0.7055251 -0.066819616 0.7055278
vn -0.7055262 -0.0668168 -0.70552695
vn -0.99803895 -0.06259644 4.381538E-06
vn -0.70552623 -0.06681681 -0.70552707
vn -0.99803895 -0.06259644 5.860956E-06
vn -0.7055267 -0.06681884 0.70552623
vn -0.70552576 -0.06681885 0.7055273
vn -1.9686668E-06 -0.06260021 0.9980387
vn -2.4625865E-06 -0.06260022 0.9980387
vn 0.70552623 -0.066819616 0.7055267
vn 0.7055251 -0.066819616 0.7055278
vn -0.7714201 0.63632613 0
vn -0.56045556 0.60972345 -0.5604703
vn 1.5759432E-06 0.63632536 -0.7714209
vn -4.743349E-06 0.6363189 0.77142614
vn -0.56046206 0.60972565 0.5604613
vn 0.7714216 0.63632447 -3.963053E-06
vn 0.56045794 0.6097266 0.56046426
vn 0.56045747 0.6097265 -0.56046504
vn 1.5759432E-06 0.63632536 -0.7714209
vn -0.56045556 0.60972345 -0.5604703
vn -0.70694876 -0.021244578 -0.70694566
vn 1.9868671E-06 -0.019899156 -0.99980205
vn 0.70694685 -0.021241546 -0.7069477
vn 0.56045747 0.6097265 -0.56046504
vn 0.7714216 0.63632447 -3.963053E-06
vn 0.9998022 -0.01989108 8.056769E-06
vn 0.7069498 -0.021241361 0.70694476
vn 0.56045794 0.6097266 0.56046426
vn -0.7714201 0.63632613 0
vn -0.70694876 -0.021244578 -0.70694566
vn -0.56045556 0.60972345 -0.5604703
vn -0.9998022 -0.019890407 0
vn -0.70694995 -0.02124614 0.7069444
vn -0.56046206 0.60972565 0.5604613
vn -4.743349E-06 0.6363189 0.77142614
vn 2.5630586E-06 -0.019905442 0.99980193
vn 0.7069498 -0.021241361 0.70694476
vn 0.56045794 0.6097266 0.56046426
vn 0.59438634 0.73743033 -0.3207824
vn 0.87390584 0.18846014 -0.4480751
vn 0.9319962 0.20086099 0.30172485
vn 0.6360714 0.7417809 0.21254262
vn 0.87390584 0.18846014 -0.4480751
vn 0.59438634 0.73743033 -0.3207824
vn 0.28100044 0.18910323 -0.9408925
vn 0.21350737 0.7379157 -0.6402305
vn -0.3244288 0.74125344 -0.5876132
vn -0.46459424 0.20155288 -0.86228114
vn 0.28100044 0.18910323 -0.9408925
vn 0.21350737 0.7379157 -0.6402305
vn -0.71198195 0.56930804 -0.41105956
vn -0.0008976152 0.99999917 0.0010026362
vn -0.81177807 0.5351502 0.23373199
vn -0.21403444 0.53684056 -0.816083
vn -0.40981528 0.5728975 0.7098169
vn 0.41070905 0.5703338 -0.71136314
vn 0.20107625 0.5355083 0.8202433
vn 0.8129043 0.53720415 -0.22494079
vn 0.7123134 0.5687565 0.41124886
vn 0.21350737 0.7379157 -0.6402305
vn 0.59438634 0.73743033 -0.3207824
vn -0.5096374 0.8594094 0.041051712
vn 0.6360714 0.7417809 0.21254262
vn 0.31162882 0.74505806 0.58972526
vn 0.049761545 0.8589363 0.509659
vn -0.3244288 0.74125344 -0.5876132
vn -0.63416797 0.7466885 -0.20071696
vn 0.5204271 0.85243374 -0.050124098
vn -0.60199976 0.7228492 0.33924228
vn -0.03877096 0.8533598 -0.5198786
vn -0.23033807 0.7222765 0.6521205
g obj_propup2_2_0
f 3/3/3 2/2/2 1/1/1
f 1/1/1 4/4/4 3/3/3
f 7/7/7 6/6/6 5/5/5
f 6/6/6 8/8/8 5/5/5
f 11/11/11 10/10/10 9/9/9
f 9/9/9 12/12/12 11/11/11
f 15/15/15 14/14/14 13/13/13
f 16/16/16 14/14/14 15/15/15
f 16/16/16 15/15/15 17/17/17
f 17/17/17 15/15/15 18/18/18
f 21/21/21 20/20/20 19/19/19
f 19/19/19 22/22/22 21/21/21
f 23/23/23 21/21/21 22/22/22
f 21/21/21 23/23/23 24/24/24
f 24/24/24 23/23/23 25/25/25
f 23/23/23 26/26/26 25/25/25
f 29/29/29 28/28/28 27/27/27
f 27/27/27 30/30/30 29/29/29
f 27/27/27 31/31/31 30/30/30
f 32/32/32 30/30/30 31/31/31
f 35/35/35 34/34/34 33/33/33
f 35/35/35 36/36/36 34/34/34
f 36/36/36 37/37/37 34/34/34
f 36/36/36 38/38/38 37/37/37
f 38/38/38 39/39/39 37/37/37
f 38/38/38 40/40/40 39/39/39
f 40/40/40 41/41/41 39/39/39
f 40/40/40 42/42/42 41/41/41
f 45/45/45 44/44/44 43/43/43
f 45/45/45 46/46/46 44/44/44
f 46/46/46 47/47/47 44/44/44
f 46/46/46 48/48/48 47/47/47
f 48/48/48 49/49/49 47/47/47
f 48/48/48 50/50/50 49/49/49
f 50/50/50 51/51/51 49/49/49
f 50/50/50 52/52/52 51/51/51
f 55/55/55 54/54/54 53/53/53
f 54/54/54 56/56/56 53/53/53
f 53/53/53 56/56/56 57/57/57
f 56/56/56 58/58/58 57/57/57
f 57/57/57 58/58/58 59/59/59
f 58/58/58 60/60/60 59/59/59
f 59/59/59 60/60/60 61/61/61
f 60/60/60 62/62/62 61/61/61
f 65/65/65 64/64/64 63/63/63
f 64/64/64 66/66/66 63/63/63
f 63/63/63 66/66/66 67/67/67
f 66/66/66 68/68/68 67/67/67
f 67/67/67 68/68/68 69/69/69
f 68/68/68 70/70/70 69/69/69
f 69/69/69 70/70/70 71/71/71
f 70/70/70 72/72/72 71/71/71
f 75/75/75 74/74/74 73/73/73
f 73/73/73 76/76/76 75/75/75
f 77/77/77 76/76/76 73/73/73
f 73/73/73 78/78/78 77/77/77
f 77/77/77 78/78/78 79/79/79
f 79/79/79 80/80/80 77/77/77
f 81/81/81 80/80/80 79/79/79
f 81/81/81 79/79/79 82/82/82
f 85/85/85 84/84/84 83/83/83
f 85/85/85 86/86/86 84/84/84
f 84/84/84 86/86/86 87/87/87
f 87/87/87 88/88/88 84/84/84
f 87/87/87 89/89/89 88/88/88
f 87/87/87 90/90/90 89/89/89
f 89/89/89 90/90/90 91/91/91
f 91/91/91 92/92/92 89/89/89
f 95/95/95 94/94/94 93/93/93
f 95/95/95 93/93/93 96/96/96
f 93/93/93 97/97/97 96/96/96
f 98/98/98 95/95/95 96/96/96
f 96/96/96 99/99/99 98/98/98
f 98/98/98 100/100/100 95/95/95
f 103/103/103 102/102/102 101/101/101
f 101/101/101 104/104/104 103/103/103
f 105/105/105 104/104/104 101/101/101
f 106/106/106 105/105/105 101/101/101
f 105/105/105 106/106/106 107/107/107
f 107/107/107 108/108/108 105/105/105
f 109/109/109 108/108/108 107/107/107
f 110/110/110 109/109/109 107/107/107
f 113/113/113 112/112/112 111/111/111
f 112/112/112 114/114/114 111/111/111
f 111/111/111 114/114/114 115/115/115
f 115/115/115 116/116/116 111/111/111
f 116/116/116 115/115/115 117/117/117
f 115/115/115 118/118/118 117/117/117
f 117/117/117 118/118/118 119/119/119
f 119/119/119 120/120/120 117/117/117
f 123/123/123 122/122/122 121/121/121
f 121/121/121 124/124/124 123/123/123
f 127/127/127 126/126/126 125/125/125
f 126/126/126 127/127/127 128/128/128
f 131/131/131 130/130/130 129/129/129
f 129/129/129 132/132/132 131/131/131
f 135/135/135 134/134/134 133/133/133
f 133/133/133 134/134/134 136/136/136
f 137/137/137 134/134/134 135/135/135
f 138/138/138 136/136/136 134/134/134
f 139/139/139 134/134/134 137/137/137
f 138/138/138 134/134/134 140/140/140
f 141/141/141 134/134/134 139/139/139
f 140/140/140 134/134/134 141/141/141
f 144/144/144 143/143/143 142/142/142
f 145/145/145 143/143/143 144/144/144
f 146/146/146 145/145/145 144/144/144
f 142/142/142 147/147/147 144/144/144
f 147/147/147 142/142/142 148/148/148
f 147/147/147 148/148/148 149/149/149
f 149/149/149 150/150/150 147/147/147
f 150/150/150 149/149/149 151/151/151
f 144/144/144 152/152/152 146/146/146
f 152/152/152 150/150/150 151/151/151
f 153/153/153 146/146/146 152/152/152
f 153/153/153 152/152/152 151/151/151
