g obj_wall_under2_9
v 0.5 -2.6161067 -0.11541068
v 0.5 -2.6161067 0.0024363012
v 0.3569605 -2.6161067 -0.11541065
v 0.3569605 -2.6161067 0.0024363298
v -0.5000001 -1.1492804 -0.11540994
v 0.3569605 -1.8492044 0.0024362386
v 0.3569605 -1.8492044 -0.11541074
v 0.20675786 -1.8280468 -0.11541072
v 0.20675786 -1.8280472 0.002436255
v -0.5000001 -1.1492804 0.0024370323
v 0.20675775 -1.1704376 0.002436911
v 0.18560064 -1.1492801 -0.11541005
v 0.33580345 -1.8280472 0.002436236
v 0.33580345 -1.8280472 -0.115410745
v 0.18560064 -1.1492804 0.0024369275
v 0.20675775 -1.1704373 -0.11541007
v 0.41650984 -4 -0.1154105
v 0.0015535164 -4 -0.11541044
v -0.5000001 -4 -0.11540994
v 0.5 -4 -0.11541057
v 0.5 -4 0.0024363613
v -0.5000001 -4 0.002437153
v 0.3569605 -2.6161067 -0.11541065
v 0.5 -2.6161067 -0.11541068
v 0.3569605 -2.6161067 0.0024363298
v 0.3569605 -2.6161067 -0.11541065
v 0.20675786 -1.8280468 -0.11541072
v 0.3569605 -1.8492044 -0.11541074
v 0.33580345 -1.8280472 -0.115410745
v -0.5000001 -1.1492804 -0.11540994
v 0.20675786 -1.8280472 0.002436255
v 0.20675786 -1.8280468 -0.11541072
v 0.20675775 -1.1704373 -0.11541007
v 0.18560064 -1.1492801 -0.11541005
v 0.33580345 -1.8280472 0.002436236
v 0.33580345 -1.8280472 -0.115410745
v 0.3569605 -1.8492044 -0.11541074
v 0.3569605 -1.8492044 0.0024362386
v 0.18560064 -1.1492804 0.0024369275
v 0.18560064 -1.1492801 -0.11541005
v 0.20675775 -1.1704373 -0.11541007
v 0.20675775 -1.1704376 0.002436911
v 0.5 -2.6161067 -0.11541068
v 0.5 -4 -0.11541057
v 0.5 -2.6161067 0.0024363012
v -0.5000001 -1.1492804 0.0024370323
v -0.5000001 -4 -0.11540994
v -0.5000001 -1.1492804 -0.11540994
vt 0.0058147814 0.6535512
vt 0.0058147814 0.6809047
vt 0.0058844145 0.6535512
vt 0.0058844145 0.6809047
vt 0.006301553 0.6535514
vt 0.022652244 0.6644095
vt 0.02946702 0.6644095
vt 0.005957531 0.6535512
vt 0.005957531 0.68090475
vt 0.006301553 0.68090487
vt 0.022652209 0.6738913
vt 0.005967822 0.6535514
vt 0.005894713 0.6809047
vt 0.005894713 0.6535512
vt 0.005967822 0.68090487
vt 0.029466983 0.6738913
vt 0.22652394 0.5840132
vt 0.23787002 0.5840132
vt 0.25158396 0.5840132
vt 0.22424108 0.5840132
vt 0.0058147814 0.6809047
vt 0.006301553 0.68090487
vt 0.22815219 0.6223948
vt 0.22424108 0.6223948
vt 0.022652244 0.6536965
vt 0.02946702 0.6536965
vt 0.23225918 0.6449784
vt 0.22815219 0.6443721
vt 0.22873068 0.6449784
vt 0.251584 0.6644299
vt 0.02265226 0.6647051
vt 0.029467026 0.6647051
vt 0.23225918 0.66382366
vt 0.23283768 0.6644299
vt 0.011886811 0.6616958
vt 0.018701592 0.6616958
vt 0.018701592 0.6613518
vt 0.011886811 0.6613518
vt 0.011886766 0.67273027
vt 0.018701542 0.67273027
vt 0.018701542 0.6723863
vt 0.011886766 0.6723863
vt 0.0058147814 0.6535512
vt 0.0058147814 0.6535512
vt 0.0058147814 0.6809047
vt 0.006301553 0.68090487
vt 0.006301553 0.6535514
vt 0.006301553 0.6535514
vn -0 1 0
vn -0 1 0
vn -0 1 0
vn -0 1 0
vn -2.2256069E-07 1 1.2947968E-06
vn 1 0 0
vn 1 0 0
vn 1.1824344E-06 1 1.2947969E-06
vn 1.1824344E-06 1 1.294797E-06
vn -2.2256069E-07 1 1.2947968E-06
vn 1 1.7402564E-07 0
vn -2.2256069E-07 1 1.2947968E-06
vn 1.1824344E-06 1 1.2947969E-06
vn 1.1824344E-06 1 1.294797E-06
vn -2.2256069E-07 1 1.2947968E-06
vn 1 1.7402563E-07 0
vn -2.8331937E-07 -1.10718446E-07 -1
vn -6.014528E-07 0 -1
vn -9.3710764E-07 0 -1
vn -4.209932E-07 -1.05535136E-07 -1
vn 1 0 0
vn -1 0 -1.6184951E-07
vn -6.8562963E-07 0 -1
vn -4.209932E-07 -1.05535136E-07 -1
vn 1 0 0
vn 1 0 0
vn -5.506138E-07 1.1865394E-07 -1
vn -0 -1.2318596E-07 -1
vn -0 -1.2318596E-07 -1
vn -5.515768E-07 4.6940892E-07 -1
vn 1 1.7402563E-07 0
vn 1 1.7402564E-07 0
vn -1.4569133E-07 9.93016E-07 -1
vn -1.4569133E-07 9.93016E-07 -1
vn 0.70710933 0.7071042 0
vn 0.7071093 0.70710427 0
vn 0.7071093 0.70710427 0
vn 0.7071093 0.70710427 0
vn 0.7071087 0.70710486 1.832392E-06
vn 0.7071087 0.70710486 1.8323918E-06
vn 0.7071087 0.70710486 1.832392E-06
vn 0.7071087 0.70710486 1.8323918E-06
vn 1 0 0
vn 1 0 0
vn 1 0 0
vn -1 0 -1.618495E-07
vn -1 0 -1.618495E-07
vn -1 0 -1.618495E-07
g obj_wall_under2_9_0
f 2/2/2 1/1/1 3/3/3
f 4/4/4 2/2/2 3/3/3
f 20/20/20 17/17/17 23/23/23
f 24/24/24 20/20/20 23/23/23
f 13/13/13 14/14/14 8/8/8
f 9/9/9 13/13/13 8/8/8
f 7/7/7 6/6/6 25/25/25
f 26/26/26 7/7/7 25/25/25
f 28/28/28 23/23/23 27/27/27
f 29/29/29 28/28/28 27/27/27
f 15/15/15 12/12/12 5/5/5
f 10/10/10 15/15/15 5/5/5
f 23/23/23 17/17/17 18/18/18
f 27/27/27 23/23/23 18/18/18
f 18/18/18 30/30/30 27/27/27
f 18/18/18 19/19/19 30/30/30
f 16/16/16 11/11/11 31/31/31
f 32/32/32 16/16/16 31/31/31
f 33/33/33 27/27/27 30/30/30
f 34/34/34 33/33/33 30/30/30
f 37/37/37 36/36/36 35/35/35
f 38/38/38 37/37/37 35/35/35
f 41/41/41 40/40/40 39/39/39
f 42/42/42 41/41/41 39/39/39
f 21/21/21 44/44/44 43/43/43
f 45/45/45 21/21/21 43/43/43
f 47/47/47 22/22/22 46/46/46
f 48/48/48 47/47/47 46/46/46
