g obj_hc_tree
v -0.058725998 0.10090323 -0.27740303
v -0.023353677 0.096414246 -0.22209278
v -0.102154315 0.060408246 -0.17972331
v 0.009509645 0.09601656 -0.16693403
v 0.024150629 0.14244008 -0.2476371
v -0.030723576 0.1433577 -0.3318896
v 0.079021305 0.1415227 -0.16339007
v 0.047008254 0.164802 -0.37816665
v 0.108482406 0.17237921 -0.27977026
v 0.17675188 0.16337694 -0.18382727
v 0.13577852 0.17563477 -0.38177848
v 0.2222317 0.17495023 -0.2540346
v 0.17707486 0.17774118 -0.3189727
v 0.2100129 0.1609614 -0.35641736
v -0.2023791 0.056032293 -0.1844413
v -0.15665844 0.039671093 -0.12977664
v -0.19219908 0.06301987 -0.103333056
v -0.2924418 0.09210913 -0.089740045
v -0.1620825 0.030978572 -0.1821721
v -0.09949165 -0.00749244 -0.17864539
v -0.16809352 0.027377548 -0.23424059
v -0.21255419 0.0490616 -0.26553723
v -0.31806362 0.076648094 -0.2780891
v -0.30269927 0.09135319 -0.18461832
v -0.35101607 0.114138626 -0.12375088
v -0.36865148 0.10418409 -0.24803154
v -0.35887527 0.11132104 -0.18471052
v -0.3821271 0.11962634 -0.18475232
vt 0.32089305 0.91916716
vt 0.33622777 0.91916716
vt 0.33622777 0.9316659
vt 0.3515307 0.91916716
vt 0.33622777 0.91056776
vt 0.31851232 0.91056776
vt 0.35361704 0.91056776
vt 0.31851232 0.8916726
vt 0.33622777 0.8916726
vt 0.35422623 0.8916726
vt 0.3235028 0.880897
vt 0.3483189 0.880897
vt 0.33622777 0.880897
vt 0.33622777 0.87648237
vt 0.33622777 0.91056776
vt 0.32089305 0.91916716
vt 0.31851232 0.91056776
vt 0.31851232 0.8916726
vt 0.33622777 0.91916716
vt 0.33622777 0.9316659
vt 0.3515307 0.91916716
vt 0.35361704 0.91056776
vt 0.35422623 0.8916726
vt 0.33622777 0.8916726
vt 0.3235028 0.880897
vt 0.3483189 0.880897
vt 0.33622777 0.880897
vt 0.33622777 0.87648237
vn -0 1 0
vn -0 1 0
vn -0 1 0
vn -0 1 0
vn -0 1 0
vn -0 1 0
vn -0 1 0
vn -0 1 0
vn -0 1 0
vn -0 1 0
vn -0 1 0
vn -0 1 0
vn -0 1 0
vn -0 1 0
vn -0 1 0
vn -0 1 0
vn -0 1 0
vn -0 1 0
vn -0 1 0
vn -0 1 0
vn -0 1 0
vn -0 1 0
vn -0 1 0
vn -0 1 0
vn -0 1 0
vn -0 1 0
vn -0 1 0
vn -0 1 0
g obj_hc_tree_0
f 3/3/3 2/2/2 1/1/1
f 3/3/3 4/4/4 2/2/2
f 1/1/1 2/2/2 5/5/5
f 5/5/5 2/2/2 4/4/4
f 6/6/6 1/1/1 5/5/5
f 7/7/7 5/5/5 4/4/4
f 6/6/6 5/5/5 8/8/8
f 5/5/5 7/7/7 9/9/9
f 5/5/5 9/9/9 8/8/8
f 7/7/7 10/10/10 9/9/9
f 11/11/11 8/8/8 9/9/9
f 9/9/9 10/10/10 12/12/12
f 13/13/13 11/11/11 9/9/9
f 13/13/13 9/9/9 12/12/12
f 14/14/14 11/11/11 13/13/13
f 14/14/14 13/13/13 12/12/12
f 17/17/17 16/16/16 15/15/15
f 17/17/17 15/15/15 18/18/18
f 16/16/16 19/19/19 15/15/15
f 20/20/20 19/19/19 16/16/16
f 20/20/20 21/21/21 19/19/19
f 15/15/15 19/19/19 21/21/21
f 22/22/22 15/15/15 21/21/21
f 22/22/22 23/23/23 15/15/15
f 15/15/15 24/24/24 18/18/18
f 23/23/23 24/24/24 15/15/15
f 18/18/18 24/24/24 25/25/25
f 23/23/23 26/26/26 24/24/24
f 24/24/24 27/27/27 25/25/25
f 26/26/26 27/27/27 24/24/24
f 28/28/28 25/25/25 27/27/27
f 28/28/28 27/27/27 26/26/26
