g obj_outdoor_fence_1
v -0.34101814 0.13219243 -0.16796309
v -0.29477245 0.09492601 -0.24537389
v -0.2590103 0.13366693 -0.16236378
v -0.34611553 0.10835282 -0.1413887
v -0.3565374 0.105790235 -0.15103558
v -0.34101814 0.13219243 -0.16796309
v -0.2552726 0.11029927 -0.13445075
v -0.2590103 0.13366693 -0.16236378
v -0.24511127 0.10776337 -0.14423558
v -0.34879148 0.08054339 -0.24150625
v -0.29477245 0.09492601 -0.24537389
v -0.3565374 0.105790235 -0.15103558
v -0.29477245 0.09492601 -0.24537389
v -0.34101814 0.13219243 -0.16796309
v -0.3565374 0.105790235 -0.15103558
v -0.24511127 0.10776337 -0.14423558
v -0.2590103 0.13366693 -0.16236378
v -0.24046467 0.082292184 -0.2355224
v -0.2590103 0.13366693 -0.16236378
v -0.29477245 0.09492601 -0.24537389
v -0.24046467 0.082292184 -0.2355224
v -0.29477245 0.09492601 -0.24537389
v -0.25598922 0.011335678 -0.19828878
v -0.24046467 0.082292184 -0.2355224
v -0.42640397 0.084823705 -0.23423833
v -0.383746 0.054482803 -0.25858304
v -0.3858698 0.08616554 -0.20971245
v -0.4369239 0.07072629 -0.22037962
v -0.43980908 0.06834465 -0.22786348
v -0.42640397 0.084823705 -0.23423833
v -0.39220485 0.072473325 -0.19286051
v -0.3858698 0.08616554 -0.20971245
v -0.38452238 0.07009128 -0.19494766
v -0.4129474 0.045152277 -0.2699353
v -0.383746 0.054482803 -0.25858304
v -0.43980908 0.06834465 -0.22786348
v -0.383746 0.054482803 -0.25858304
v -0.42640397 0.084823705 -0.23423833
v -0.43980908 0.06834465 -0.22786348
v -0.38452238 0.07009128 -0.19494766
v -0.3858698 0.08616554 -0.20971245
v -0.3590396 0.0466933 -0.23824126
v -0.3858698 0.08616554 -0.20971245
v -0.383746 0.054482803 -0.25858304
v -0.3590396 0.0466933 -0.23824126
v -0.383746 0.054482803 -0.25858304
v -0.37949264 0.0018194023 -0.21834677
v -0.3590396 0.0466933 -0.23824126
v -0.6811967 0.084823705 -0.1023941
v -0.6385387 0.054482806 -0.12673882
v -0.6406625 0.08616554 -0.077868216
v -0.6917166 0.07072629 -0.0885354
v -0.69460183 0.06834465 -0.09601925
v -0.6811967 0.084823705 -0.1023941
v -0.6469975 0.07247333 -0.06101628
v -0.6406625 0.08616554 -0.077868216
v -0.63931507 0.07009128 -0.06310343
v -0.6677401 0.045152284 -0.13809107
v -0.6385387 0.054482806 -0.12673882
v -0.69460183 0.06834465 -0.09601925
v -0.6385387 0.054482806 -0.12673882
v -0.6811967 0.084823705 -0.1023941
v -0.69460183 0.06834465 -0.09601925
v -0.63931507 0.07009128 -0.06310343
v -0.6406625 0.08616554 -0.077868216
v -0.6138323 0.046693303 -0.106397025
v -0.6406625 0.08616554 -0.077868216
v -0.6385387 0.054482806 -0.12673882
v -0.6138323 0.046693303 -0.106397025
v -0.6385387 0.054482806 -0.12673882
v -0.6342854 0.0018194071 -0.08650255
v -0.6138323 0.046693303 -0.106397025
v 0.51539236 0.48972967 -0.101245284
v 0.5146219 0.62811476 -0.07580581
v -0.4560827 0.6038589 0.025808735
v -0.4553123 0.4654741 0.0003692876
v 0.5146219 0.62811476 -0.07580581
v 0.520536 0.6241694 -0.018456072
v -0.45016864 0.5999137 0.08315849
v -0.4560827 0.6038589 0.025808735
v 0.52452374 0.4836376 -0.012695806
v -0.44618097 0.45938206 0.08891874
v -0.45016864 0.5999137 0.08315849
v 0.520536 0.6241694 -0.018456072
v 0.5274015 0.25904718 -0.09248113
v 0.5131134 0.38302025 -0.0792336
v -0.45704576 0.32249415 -0.07050881
v -0.44275767 0.19852133 -0.08375638
v 0.5131134 0.38302025 -0.0792336
v 0.51349115 0.38294163 -0.005950816
v -0.4566681 0.32241586 0.0027739902
v -0.45704576 0.32249415 -0.07050881
v 0.5279848 0.25892562 0.020669345
v -0.44217446 0.19839977 0.029394088
v -0.4566681 0.32241586 0.0027739902
v 0.51349115 0.38294163 -0.005950816
v -0.572447 -2.016735E-07 -0.15491018
v -0.4627541 -2.1127701E-07 -0.20118292
v -0.38746005 0.877405 -0.16768976
v -0.5265081 0.8835705 -0.10903397
v -0.6178834 -2.1127701E-07 -0.044870753
v -0.51556164 0.9270297 -0.09815615
v -0.3835494 0.92117614 -0.15384398
v -0.35993558 1.1758322 0.056373525
v -0.58410364 0.87734795 0.030453227
v -0.572447 -2.30484E-07 0.064475745
v -0.570243 0.92112195 0.034273114
v -0.51556164 0.90691364 0.16586837
v -0.3835494 0.8927278 0.21954301
v -0.5265079 0.8623824 0.16906205
v -0.4627541 -2.49691E-07 0.109075636
v -0.38746005 0.84744054 0.2255975
v -0.35306108 -2.592945E-07 0.06280289
v -0.4627541 -2.49691E-07 0.109075636
v -0.38746005 0.84744054 0.2255975
v -0.24841195 0.841275 0.1669416
v -0.3076247 -2.592945E-07 -0.047236543
v -0.25153705 0.8868742 0.16385514
v -0.3835494 0.8927278 0.21954301
v -0.35993558 1.1758322 0.056373525
v -0.19081652 0.8474975 0.027454333
v -0.35306108 -2.30484E-07 -0.15658304
v -0.19685593 0.89278185 0.031425945
v -0.25153705 0.90699023 -0.10016937
v -0.3835494 0.92117614 -0.15384398
v -0.24841195 0.86246306 -0.11115448
v -0.4627541 -2.1127701E-07 -0.20118292
v -0.38746005 0.877405 -0.16768976
v -0.34879148 0.08054339 -0.24150625
v -0.3565374 0.105790235 -0.15103558
v -0.34144714 0.029933661 -0.1321571
v -0.33597648 0.0093528535 -0.20585105
v -0.25598922 0.011335678 -0.19828878
v -0.25943747 0.03201594 -0.12403405
v -0.24511127 0.10776337 -0.14423558
v -0.24046467 0.082292184 -0.2355224
v -0.29477245 0.09492601 -0.24537389
v -0.33597648 0.0093528535 -0.20585105
v -0.25598922 0.011335678 -0.19828878
v -0.34879148 0.08054339 -0.24150625
v -0.34611553 0.10835282 -0.1413887
v -0.34101814 0.13219243 -0.16796309
v -0.2590103 0.13366693 -0.16236378
v -0.2552726 0.11029927 -0.13445075
v -0.33756018 -0.00059294334 0.004340398
v -0.34061778 0.06953442 -0.022129038
v -0.29473105 0.08497423 0.030622968
v -0.30081546 0.011673428 0.046224564
v -0.29473105 0.08497423 0.030622968
v -0.24146524 0.067746855 -0.010969003
v -0.30081546 0.011673428 0.046224564
v -0.25339046 -0.0030007625 0.0115997605
v -0.24146524 0.067746855 -0.010969003
v -0.2893273 0.052717634 -0.06270767
v -0.29148677 -0.014916809 -0.02962699
v -0.25339046 -0.0030007625 0.0115997605
v -0.2893273 0.052717634 -0.06270767
v -0.34061778 0.06953442 -0.022129038
v -0.33756018 -0.00059294334 0.004340398
v -0.29148677 -0.014916809 -0.02962699
v -0.2893273 0.052717634 -0.06270767
v -0.24146524 0.067746855 -0.010969003
v -0.29473105 0.08497423 0.030622968
v -0.34061778 0.06953442 -0.022129038
v -0.4129474 0.045152277 -0.2699353
v -0.43980908 0.06834465 -0.22786348
v -0.43994546 0.018901782 -0.20880434
v -0.41849473 4.80175E-09 -0.24329615
v -0.37949264 0.0018194023 -0.21834677
v -0.4000528 0.020825895 -0.18303996
v -0.38452238 0.07009128 -0.19494766
v -0.3590396 0.0466933 -0.23824126
v -0.383746 0.054482803 -0.25858304
v -0.41849473 4.80175E-09 -0.24329615
v -0.37949264 0.0018194023 -0.21834677
v -0.4129474 0.045152277 -0.2699353
v -0.4369239 0.07072629 -0.22037962
v -0.42640397 0.084823705 -0.23423833
v -0.3858698 0.08616554 -0.20971245
v -0.39220485 0.072473325 -0.19286051
v -0.6677401 0.045152284 -0.13809107
v -0.69460183 0.06834465 -0.09601925
v -0.6947381 0.01890179 -0.07696011
v -0.6732874 9.6035E-09 -0.111451924
v -0.6342854 0.0018194071 -0.08650255
v -0.6548455 0.020825898 -0.05119574
v -0.63931507 0.07009128 -0.06310343
v -0.6138323 0.046693303 -0.106397025
v -0.6385387 0.054482806 -0.12673882
v -0.6732874 9.6035E-09 -0.111451924
v -0.6342854 0.0018194071 -0.08650255
v -0.6677401 0.045152284 -0.13809107
v -0.6917166 0.07072629 -0.0885354
v -0.6811967 0.084823705 -0.1023941
v -0.6406625 0.08616554 -0.077868216
v -0.6469975 0.07247333 -0.06101628
vt 0.5992123 0.7123297
vt 0.60416126 0.7095663
vt 0.5992123 0.70799094
vt 0.5992123 0.70995337
vt 0.5992123 0.70995337
vt 0.5992123 0.7123297
vt 0.5992123 0.70799094
vt 0.5992123 0.70799094
vt 0.5992123 0.70799094
vt 0.60416126 0.70995337
vt 0.60416126 0.7095663
vt 0.5992123 0.70995337
vt 0.60416126 0.7095663
vt 0.5992123 0.7123297
vt 0.5992123 0.70995337
vt 0.5992123 0.70799094
vt 0.5992123 0.70799094
vt 0.60416126 0.70799094
vt 0.5992123 0.70799094
vt 0.60416126 0.7095663
vt 0.60416126 0.70799094
vt 0.60416126 0.7095663
vt 0.60416126 0.694496
vt 0.60416126 0.70799094
vt 0.5992123 0.7123297
vt 0.60416126 0.7095663
vt 0.5992123 0.70799094
vt 0.5992123 0.70995337
vt 0.5992123 0.70995337
vt 0.5992123 0.7123297
vt 0.5992123 0.70799094
vt 0.5992123 0.70799094
vt 0.5992123 0.70799094
vt 0.60416126 0.70995337
vt 0.60416126 0.7095663
vt 0.5992123 0.70995337
vt 0.60416126 0.7095663
vt 0.5992123 0.7123297
vt 0.5992123 0.70995337
vt 0.5992123 0.70799094
vt 0.5992123 0.70799094
vt 0.60416126 0.70799094
vt 0.5992123 0.70799094
vt 0.60416126 0.7095663
vt 0.60416126 0.70799094
vt 0.60416126 0.7095663
vt 0.60416126 0.694496
vt 0.60416126 0.70799094
vt 0.5992123 0.7123297
vt 0.60416126 0.7095663
vt 0.5992123 0.70799094
vt 0.5992123 0.70995337
vt 0.5992123 0.70995337
vt 0.5992123 0.7123297
vt 0.5992123 0.70799094
vt 0.5992123 0.70799094
vt 0.5992123 0.70799094
vt 0.60416126 0.70995337
vt 0.60416126 0.7095663
vt 0.5992123 0.70995337
vt 0.60416126 0.7095663
vt 0.5992123 0.7123297
vt 0.5992123 0.70995337
vt 0.5992123 0.70799094
vt 0.5992123 0.70799094
vt 0.60416126 0.70799094
vt 0.5992123 0.70799094
vt 0.60416126 0.7095663
vt 0.60416126 0.70799094
vt 0.60416126 0.7095663
vt 0.60416126 0.694496
vt 0.60416126 0.70799094
vt 0.40728357 0.35252896
vt 0.40728357 0.34089118
vt 0.2881576 0.34089118
vt 0.2881576 0.35252896
vt 0.40728357 0.3334728
vt 0.40728357 0.34089118
vt 0.2881576 0.34089118
vt 0.2881576 0.3334728
vt 0.40728357 0.35252896
vt 0.2881576 0.35252896
vt 0.2881576 0.34089118
vt 0.40728357 0.34089118
vt 0.40728357 0.37678024
vt 0.40728357 0.36336586
vt 0.2881576 0.36336586
vt 0.2881576 0.37678024
vt 0.40728357 0.3565224
vt 0.40728357 0.36336586
vt 0.2881576 0.36336586
vt 0.2881576 0.3565224
vt 0.40728357 0.37678024
vt 0.2881576 0.37678024
vt 0.2881576 0.36336586
vt 0.40728357 0.36336586
vt 0.19906355 0.8024733
vt 0.1875903 0.8024733
vt 0.1875903 0.8896693
vt 0.19906355 0.8896693
vt 0.2124239 0.8024733
vt 0.19911319 0.894345
vt 0.18768257 0.894345
vt 0.2124238 0.928637
vt 0.2124239 0.8896693
vt 0.22578415 0.8024733
vt 0.2124239 0.894345
vt 0.22573455 0.894345
vt 0.23716523 0.894345
vt 0.22578415 0.8896693
vt 0.23725735 0.8024733
vt 0.23725735 0.8896693
vt 0.22578415 0.8024733
vt 0.23725735 0.8024733
vt 0.23725735 0.8896693
vt 0.22578415 0.8896693
vt 0.2124239 0.8024733
vt 0.22573455 0.894345
vt 0.23716523 0.894345
vt 0.2124238 0.928637
vt 0.2124239 0.8896693
vt 0.19906355 0.8024733
vt 0.2124239 0.894345
vt 0.19911319 0.894345
vt 0.18768257 0.894345
vt 0.19906355 0.8896693
vt 0.1875903 0.8024733
vt 0.1875903 0.8896693
vt 0.60416126 0.70995337
vt 0.5992123 0.70995337
vt 0.5992123 0.694496
vt 0.60416126 0.694496
vt 0.60416126 0.694496
vt 0.5992123 0.694496
vt 0.5992123 0.70799094
vt 0.60416126 0.70799094
vt 0.60416126 0.7095663
vt 0.60416126 0.694496
vt 0.60416126 0.694496
vt 0.60416126 0.70995337
vt 0.5992123 0.70995337
vt 0.5992123 0.7123297
vt 0.5992123 0.70799094
vt 0.5992123 0.70799094
vt 0.60416126 0.694496
vt 0.60416126 0.7107454
vt 0.5992123 0.7107454
vt 0.5992123 0.694496
vt 0.5992123 0.7107454
vt 0.5992123 0.70799094
vt 0.5992123 0.694496
vt 0.5992123 0.694496
vt 0.5992123 0.70799094
vt 0.60416126 0.70799094
vt 0.60416126 0.694496
vt 0.5992123 0.694496
vt 0.60416126 0.70799094
vt 0.60416126 0.7107454
vt 0.60416126 0.694496
vt 0.60416126 0.694496
vt 0.60416126 0.70799094
vt 0.5992123 0.70799094
vt 0.5992123 0.7107454
vt 0.60416126 0.7107454
vt 0.60416126 0.70995337
vt 0.5992123 0.70995337
vt 0.5992123 0.694496
vt 0.60416126 0.694496
vt 0.60416126 0.694496
vt 0.5992123 0.694496
vt 0.5992123 0.70799094
vt 0.60416126 0.70799094
vt 0.60416126 0.7095663
vt 0.60416126 0.694496
vt 0.60416126 0.694496
vt 0.60416126 0.70995337
vt 0.5992123 0.70995337
vt 0.5992123 0.7123297
vt 0.5992123 0.70799094
vt 0.5992123 0.70799094
vt 0.60416126 0.70995337
vt 0.5992123 0.70995337
vt 0.5992123 0.694496
vt 0.60416126 0.694496
vt 0.60416126 0.694496
vt 0.5992123 0.694496
vt 0.5992123 0.70799094
vt 0.60416126 0.70799094
vt 0.60416126 0.7095663
vt 0.60416126 0.694496
vt 0.60416126 0.694496
vt 0.60416126 0.70995337
vt 0.5992123 0.70995337
vt 0.5992123 0.7123297
vt 0.5992123 0.70799094
vt 0.5992123 0.70799094
vn 0.01293194 0.9039486 -0.42744535
vn 0.012931942 0.9039486 -0.42744532
vn 0.012931941 0.9039486 -0.42744535
vn -0.5954172 0.651452 0.47020075
vn -0.5954172 0.651452 0.47020075
vn -0.59541714 0.65145195 0.47020072
vn 0.605984 0.64802366 0.4613554
vn 0.605984 0.6480236 0.46135536
vn 0.605984 0.64802366 0.46135536
vn -0.26566458 0.9224578 -0.28016773
vn -0.26566458 0.9224578 -0.28016773
vn -0.26566458 0.9224578 -0.28016773
vn -0.8228116 0.12875524 -0.553537
vn -0.8228116 0.12875524 -0.553537
vn -0.8228116 0.12875524 -0.553537
vn 0.8994787 0.43059096 -0.07436069
vn 0.8994787 0.4305909 -0.07436069
vn 0.8994787 0.4305909 -0.07436068
vn 0.28134418 0.8174028 -0.50269085
vn 0.28134415 0.81740284 -0.50269085
vn 0.28134415 0.81740284 -0.5026909
vn 0.04967449 -0.47257906 -0.8798872
vn 0.049674485 -0.4725791 -0.8798872
vn 0.049674485 -0.47257906 -0.8798872
vn 0.2835481 0.810235 -0.51295185
vn 0.28354812 0.810235 -0.51295185
vn 0.28354812 0.810235 -0.51295185
vn -0.7565099 0.64839435 0.085309
vn -0.7565099 0.64839435 0.085309
vn -0.7565099 0.64839435 0.085309
vn 0.38000998 0.6428006 0.6651313
vn 0.38001 0.6428007 0.6651313
vn 0.38000998 0.6428007 0.6651313
vn -0.07193364 0.8533543 -0.5163449
vn -0.07193364 0.8533543 -0.5163449
vn -0.07193364 0.8533543 -0.5163449
vn -0.47185612 0.04317483 -0.88061786
vn -0.47185612 0.04317483 -0.88061786
vn -0.47185612 0.043174833 -0.88061786
vn 0.87505156 0.3651712 0.31770223
vn 0.87505156 0.3651712 0.31770223
vn 0.87505156 0.36517116 0.31770226
vn 0.5728949 0.6988875 -0.42819124
vn 0.57289475 0.6988875 -0.4281912
vn 0.5728948 0.6988875 -0.42819118
vn 0.43711945 -0.52347934 -0.7313658
vn 0.43711945 -0.52347934 -0.7313658
vn 0.43711945 -0.52347934 -0.7313658
vn 0.28354794 0.81023496 -0.512952
vn 0.28354794 0.81023496 -0.512952
vn 0.28354794 0.81023496 -0.512952
vn -0.7565098 0.6483944 0.08530895
vn -0.7565098 0.64839447 0.085308954
vn -0.7565098 0.64839447 0.085308954
vn 0.38001195 0.6428004 0.66513056
vn 0.38001192 0.64280033 0.66513056
vn 0.38001195 0.64280033 0.66513056
vn -0.07193364 0.8533543 -0.5163449
vn -0.07193364 0.8533543 -0.5163449
vn -0.07193364 0.8533543 -0.5163449
vn -0.47185612 0.043174837 -0.88061774
vn -0.47185618 0.043174844 -0.88061774
vn -0.47185618 0.04317484 -0.88061774
vn 0.8750516 0.36517122 0.31770217
vn 0.87505156 0.3651712 0.3177022
vn 0.87505156 0.36517122 0.31770217
vn 0.5728944 0.69888765 -0.42819163
vn 0.5728944 0.69888765 -0.42819166
vn 0.5728944 0.69888765 -0.42819166
vn 0.43711892 -0.5234796 -0.731366
vn 0.43711892 -0.52347964 -0.731366
vn 0.4371189 -0.5234796 -0.731366
vn -0.10685523 0.17919087 -0.97799414
vn -0.10685523 0.17919089 -0.97799414
vn -0.10685523 0.17919089 -0.97799414
vn -0.10685523 0.17919087 -0.97799414
vn -0.017550107 0.9973629 0.070421584
vn -0.017550107 0.9973629 0.070421584
vn -0.017550107 0.9973629 0.070421584
vn -0.017550107 0.9973629 0.070421584
vn 0.102934085 0.043652855 0.9937298
vn 0.102934085 0.043652855 0.9937298
vn 0.10293409 0.043652855 0.9937298
vn 0.102934085 0.043652855 0.9937298
vn -0.015461028 0.10447885 -0.99440694
vn -0.015461028 0.10447884 -0.99440694
vn -0.015461028 0.104478836 -0.99440694
vn -0.015461029 0.10447885 -0.99440694
vn -0.062254075 0.99805933 0.0013891576
vn -0.062254075 0.99805933 0.0013891576
vn -0.062254075 0.99805933 0.0013891577
vn -0.062254075 0.99805933 0.0013891575
vn -0.004269707 0.20939127 0.9778226
vn -0.004269707 0.20939128 0.9778226
vn -0.004269707 0.20939127 0.9778226
vn -0.004269707 0.20939128 0.9778226
vn -0.7078357 0.07350626 -0.70254225
vn -0.02607373 0.040258355 -0.99884903
vn 0.0051975935 0.1679977 -0.9857737
vn -0.6950588 0.20285204 -0.6897422
vn -0.99902976 0.039946206 -0.018544883
vn -0.6181759 0.49158674 -0.6133524
vn 0.029264454 0.4598402 -0.8875193
vn 0.083817706 0.9929766 0.08349908
vn -0.98576015 0.16767417 0.012741978
vn -0.72658145 -0.04480966 0.68561757
vn -0.88741803 0.45954612 0.036146432
vn -0.62026876 0.38169485 0.68525594
vn 0.030832611 0.30303878 0.9524793
vn -0.69488436 0.08182446 0.7144512
vn -0.020065311 -0.13429882 0.99073774
vn 0.008944573 -0.004908989 0.999948
vn 0.69922733 -0.172306 0.693824
vn -0.020065311 -0.13429882 0.99073774
vn 0.008944573 -0.004908989 0.999948
vn 0.7091991 -0.04077785 0.70382804
vn 0.9906007 -0.13394982 -0.027707646
vn 0.6833138 0.27036667 0.6782214
vn 0.030832611 0.30303878 0.9524793
vn 0.083817706 0.9929766 0.08349908
vn 0.9999887 -0.004578514 0.0013470965
vn 0.6800765 -0.044338938 -0.73179924
vn 0.9525883 0.30333906 0.023683941
vn 0.6803979 0.38211656 -0.62533647
vn 0.029264454 0.4598402 -0.8875193
vn 0.70911497 0.0822899 -0.70027447
vn -0.02607373 0.040258355 -0.99884903
vn 0.0051975935 0.1679977 -0.9857737
vn -0.9790744 -0.2016274 -0.027559984
vn -0.9790744 -0.2016274 -0.027559984
vn -0.9790744 -0.2016274 -0.027559986
vn -0.98211795 -0.18713132 -0.020646378
vn 0.98267084 -0.16167487 0.09066029
vn 0.98267084 -0.16167486 0.090660274
vn 0.98267084 -0.16167486 0.09066028
vn 0.98171014 -0.16448405 0.095865056
vn 0.09499494 -0.4547385 -0.8855444
vn 0.09499494 -0.4547385 -0.8855444
vn 0.09499494 -0.4547385 -0.8855444
vn 0.052837677 -0.43957004 -0.8966529
vn -0.058549594 0.74864966 0.66037536
vn -0.058549594 0.7486497 0.66037536
vn -0.05854959 0.74864966 0.66037536
vn -0.06561361 0.7607822 0.645682
vn -0.76753676 0.19679633 0.61004806
vn -0.76753676 0.19679634 0.61004806
vn -0.76753676 0.1967963 0.61004806
vn -0.7649043 0.19421314 0.6141681
vn 0.633615 0.11038748 0.7657327
vn 0.63361496 0.11038748 0.7657327
vn 0.63361496 0.11038748 0.76573277
vn 0.6122772 0.14474992 0.77727985
vn 0.74066305 -0.31413835 -0.5939153
vn 0.74066305 -0.31413835 -0.5939153
vn 0.740663 -0.31413832 -0.59391534
vn 0.74078315 -0.31425932 -0.5937013
vn -0.65046513 -0.29287586 -0.70079875
vn -0.6504651 -0.29287586 -0.7007988
vn -0.6504651 -0.29287586 -0.7007988
vn -0.6245436 -0.3269622 -0.7092538
vn 0.05298965 0.9447584 -0.3234559
vn 0.052989658 0.9447584 -0.3234559
vn 0.052989654 0.9447584 -0.32345587
vn 0.053897996 0.9447285 -0.32339296
vn -0.870755 -0.1747682 -0.4596106
vn -0.870755 -0.17476821 -0.4596106
vn -0.870755 -0.1747682 -0.45961058
vn -0.8752798 -0.16142692 -0.45588005
vn 0.8257262 -0.12749083 0.5494746
vn 0.8257262 -0.12749083 0.54947454
vn 0.82572615 -0.12749082 0.5494746
vn 0.822447 -0.12926927 0.5539588
vn 0.48102325 -0.50739735 -0.7149578
vn 0.48102328 -0.50739735 -0.7149578
vn 0.48102328 -0.50739735 -0.7149578
vn 0.44764605 -0.49454197 -0.7450109
vn -0.3449926 0.7762132 0.5277055
vn -0.34499267 0.7762132 0.52770555
vn -0.34499264 0.7762132 0.52770543
vn -0.3448674 0.78775173 0.51040554
vn -0.870755 -0.1747693 -0.45961002
vn -0.870755 -0.17476931 -0.45961002
vn -0.870755 -0.17476933 -0.45961002
vn -0.87528014 -0.16142713 -0.45587924
vn 0.82572657 -0.12749106 0.549474
vn 0.82572657 -0.12749107 0.549474
vn 0.82572657 -0.12749106 0.54947394
vn 0.8224468 -0.12926982 0.553959
vn 0.4810236 -0.5073972 -0.71495765
vn 0.48102364 -0.5073972 -0.71495765
vn 0.4810236 -0.5073972 -0.71495765
vn 0.44764608 -0.49454173 -0.7450111
vn -0.34499237 0.77621335 0.52770555
vn -0.3449924 0.77621335 0.52770555
vn -0.34499237 0.77621335 0.52770555
vn -0.34486702 0.78775156 0.51040584
g obj_outdoor_fence_1_0
f 3/3/3 2/2/2 1/1/1
f 6/6/6 5/5/5 4/4/4
f 9/9/9 8/8/8 7/7/7
f 12/12/12 11/11/11 10/10/10
f 15/15/15 14/14/14 13/13/13
f 18/18/18 17/17/17 16/16/16
f 21/21/21 20/20/20 19/19/19
f 24/24/24 23/23/23 22/22/22
f 27/27/27 26/26/26 25/25/25
f 30/30/30 29/29/29 28/28/28
f 33/33/33 32/32/32 31/31/31
f 36/36/36 35/35/35 34/34/34
f 39/39/39 38/38/38 37/37/37
f 42/42/42 41/41/41 40/40/40
f 45/45/45 44/44/44 43/43/43
f 48/48/48 47/47/47 46/46/46
f 51/51/51 50/50/50 49/49/49
f 54/54/54 53/53/53 52/52/52
f 57/57/57 56/56/56 55/55/55
f 60/60/60 59/59/59 58/58/58
f 63/63/63 62/62/62 61/61/61
f 66/66/66 65/65/65 64/64/64
f 69/69/69 68/68/68 67/67/67
f 72/72/72 71/71/71 70/70/70
f 75/75/75 74/74/74 73/73/73
f 76/76/76 75/75/75 73/73/73
f 79/79/79 78/78/78 77/77/77
f 80/80/80 79/79/79 77/77/77
f 83/83/83 82/82/82 81/81/81
f 84/84/84 83/83/83 81/81/81
f 87/87/87 86/86/86 85/85/85
f 88/88/88 87/87/87 85/85/85
f 91/91/91 90/90/90 89/89/89
f 92/92/92 91/91/91 89/89/89
f 95/95/95 94/94/94 93/93/93
f 96/96/96 95/95/95 93/93/93
f 99/99/99 98/98/98 97/97/97
f 100/100/100 99/99/99 97/97/97
f 100/100/100 97/97/97 101/101/101
f 99/99/99 100/100/100 102/102/102
f 103/103/103 99/99/99 102/102/102
f 104/104/104 103/103/103 102/102/102
f 105/105/105 100/100/100 101/101/101
f 105/105/105 101/101/101 106/106/106
f 102/102/102 100/100/100 107/107/107
f 104/104/104 102/102/102 107/107/107
f 100/100/100 105/105/105 107/107/107
f 104/104/104 107/107/107 108/108/108
f 107/107/107 105/105/105 108/108/108
f 104/104/104 108/108/108 109/109/109
f 110/110/110 105/105/105 106/106/106
f 105/105/105 110/110/110 108/108/108
f 108/108/108 110/110/110 109/109/109
f 110/110/110 106/106/106 111/111/111
f 110/110/110 112/112/112 109/109/109
f 112/112/112 110/110/110 111/111/111
f 115/115/115 114/114/114 113/113/113
f 116/116/116 115/115/115 113/113/113
f 116/116/116 113/113/113 117/117/117
f 115/115/115 116/116/116 118/118/118
f 119/119/119 115/115/115 118/118/118
f 120/120/120 119/119/119 118/118/118
f 121/121/121 116/116/116 117/117/117
f 121/121/121 117/117/117 122/122/122
f 118/118/118 116/116/116 123/123/123
f 120/120/120 118/118/118 123/123/123
f 116/116/116 121/121/121 123/123/123
f 120/120/120 123/123/123 124/124/124
f 123/123/123 121/121/121 124/124/124
f 120/120/120 124/124/124 125/125/125
f 126/126/126 121/121/121 122/122/122
f 121/121/121 126/126/126 124/124/124
f 124/124/124 126/126/126 125/125/125
f 126/126/126 122/122/122 127/127/127
f 126/126/126 128/128/128 125/125/125
f 128/128/128 126/126/126 127/127/127
f 131/131/131 130/130/130 129/129/129
f 129/129/129 132/132/132 131/131/131
f 135/135/135 134/134/134 133/133/133
f 133/133/133 136/136/136 135/135/135
f 139/139/139 138/138/138 137/137/137
f 140/140/140 137/137/137 138/138/138
f 143/143/143 142/142/142 141/141/141
f 141/141/141 144/144/144 143/143/143
f 147/147/147 146/146/146 145/145/145
f 145/145/145 148/148/148 147/147/147
f 151/151/151 150/150/150 149/149/149
f 151/151/151 152/152/152 150/150/150
f 155/155/155 154/154/154 153/153/153
f 153/153/153 156/156/156 155/155/155
f 159/159/159 158/158/158 157/157/157
f 157/157/157 160/160/160 159/159/159
f 163/163/163 162/162/162 161/161/161
f 161/161/161 164/164/164 163/163/163
f 167/167/167 166/166/166 165/165/165
f 165/165/165 168/168/168 167/167/167
f 171/171/171 170/170/170 169/169/169
f 169/169/169 172/172/172 171/171/171
f 175/175/175 174/174/174 173/173/173
f 176/176/176 173/173/173 174/174/174
f 179/179/179 178/178/178 177/177/177
f 177/177/177 180/180/180 179/179/179
f 183/183/183 182/182/182 181/181/181
f 181/181/181 184/184/184 183/183/183
f 187/187/187 186/186/186 185/185/185
f 185/185/185 188/188/188 187/187/187
f 191/191/191 190/190/190 189/189/189
f 192/192/192 189/189/189 190/190/190
f 195/195/195 194/194/194 193/193/193
f 193/193/193 196/196/196 195/195/195
