g obj_fence_end
v 0.63596624 0.81542 -0.15717278
v 0.42131278 -0.0016079332 -0.15717275
v 0.63596624 -0.0016079332 -0.15717275
v 0.4213128 0.81542 -0.15717281
v 0.38851827 -0.001607626 0.09661867
v 0.38851827 0.8155659 -0.12137749
v 0.38851827 0.8155662 0.09662143
v 0.38851827 -0.0016079332 -0.121468805
v 0.42131275 0.8154202 0.13227516
v 0.6359661 -0.001607626 0.13227522
v 0.42131275 -0.001607626 0.1322752
v 0.6359661 0.8154202 0.13227524
v 0.6686286 -0.0016079332 -0.121468745
v 0.6686286 0.8155662 0.09662146
v 0.6686286 0.8155659 -0.121377505
v 0.6686286 -0.001607626 0.09661871
v 0.38851827 0.8155659 -0.12137749
v 0.42131278 -0.0016079332 -0.15717275
v 0.4213128 0.81542 -0.15717281
v 0.38851827 -0.0016079332 -0.121468805
v 0.6686286 -0.0016079332 -0.121468745
v 0.63596624 0.81542 -0.15717278
v 0.63596624 -0.0016079332 -0.15717275
v 0.6686286 0.8155659 -0.121377505
v 0.42131275 0.8154202 0.13227516
v 0.38851827 -0.001607626 0.09661867
v 0.38851827 0.8155662 0.09662143
v 0.42131275 -0.001607626 0.1322752
v 0.6686286 0.8155662 0.09662146
v 0.6359661 -0.001607626 0.13227522
v 0.6359661 0.8154202 0.13227524
v 0.6686286 -0.001607626 0.09661871
v 0.4213128 0.81542 -0.15717281
v 0.6229469 0.84794605 -0.13614792
v 0.43432814 0.847946 -0.13614795
v 0.63596624 0.81542 -0.15717278
v 0.6359661 0.8154202 0.13227524
v 0.43432814 0.8479463 0.11058552
v 0.62294686 0.8479463 0.110585585
v 0.42131275 0.8154202 0.13227516
v 0.405868 0.84794635 0.08073708
v 0.38851827 0.8155662 0.09662143
v 0.43432814 0.847946 -0.13614795
v 0.38851827 0.8155659 -0.12137749
v 0.4213128 0.81542 -0.15717281
v 0.405868 0.84794605 -0.1043576
v 0.38851827 0.8155662 0.09662143
v 0.405868 0.84794635 0.08073708
v 0.63596624 0.81542 -0.15717278
v 0.65128326 0.84794605 -0.10435755
v 0.6229469 0.84794605 -0.13614792
v 0.6686286 0.8155659 -0.121377505
v 0.65128326 0.84794635 0.08073711
v 0.6686286 0.8155662 0.09662146
v 0.6686286 0.8155662 0.09662146
v 0.62294686 0.8479463 0.110585585
v 0.65128326 0.84794635 0.08073711
v 0.6359661 0.8154202 0.13227524
v 0.405868 0.84794605 -0.1043576
v 0.43432814 0.8479463 0.11058552
v 0.405868 0.84794635 0.08073708
v 0.43432814 0.847946 -0.13614795
v 0.65128326 0.84794635 0.08073711
v 0.62294686 0.8479463 0.110585585
v 0.65128326 0.84794605 -0.10435755
v 0.6229469 0.84794605 -0.13614792
vt 0.9859515 0.044579875
vt 0.97276866 0.025571339
vt 0.9859515 0.025571339
vt 0.97276866 0.044579875
vt 0.9859515 0.025571361
vt 0.97276866 0.044579875
vt 0.9859515 0.044579875
vt 0.97276866 0.025571331
vt 0.97276866 0.044579875
vt 0.9859515 0.025571369
vt 0.97276866 0.025571369
vt 0.9859515 0.044579875
vt 0.97276866 0.025571339
vt 0.9859515 0.044579875
vt 0.97276866 0.044579875
vt 0.9859515 0.025571369
vt 0.97276866 0.044579875
vt 0.9704977 0.025571339
vt 0.9704977 0.044579875
vt 0.97276866 0.025571346
vt 0.97276866 0.025571346
vt 0.9704977 0.044579875
vt 0.9704977 0.025571339
vt 0.97276866 0.044579875
vt 0.97276866 0.044579875
vt 0.9704977 0.025571369
vt 0.9704977 0.044579875
vt 0.97276866 0.025571369
vt 0.9704977 0.044579875
vt 0.97276866 0.025571369
vt 0.97276866 0.044579875
vt 0.9704977 0.025571369
vt 0.97276866 0.044579875
vt 0.9859515 0.04641486
vt 0.97276866 0.04641486
vt 0.9859515 0.044579875
vt 0.9859515 0.044579875
vt 0.97276866 0.04641486
vt 0.9859515 0.04641486
vt 0.97276866 0.044579875
vt 0.9704977 0.04641486
vt 0.9704977 0.044579875
vt 0.9704977 0.04641486
vt 0.97276866 0.044579875
vt 0.9704977 0.044579875
vt 0.97276866 0.04641486
vt 0.9859515 0.044579875
vt 0.9859515 0.04641486
vt 0.9704977 0.044579875
vt 0.97276866 0.04641486
vt 0.9704977 0.04641486
vt 0.97276866 0.044579875
vt 0.9859515 0.04641486
vt 0.9859515 0.044579875
vt 0.9704977 0.044579875
vt 0.97276866 0.04641486
vt 0.9704977 0.04641486
vt 0.97276866 0.044579875
vt 0.9680157 0.07665994
vt 0.9626764 0.076461405
vt 0.96289647 0.07665994
vt 0.9682269 0.076461405
vt 0.96289647 0.07126056
vt 0.9626764 0.07145623
vt 0.9680157 0.07126056
vt 0.9682269 0.07145623
vn 1.1226595E-07 0 -1
vn -0 0 -1
vn -0 0 -1
vn 1.342187E-07 0 -1
vn -1 0 0
vn -1 0 0
vn -1 0 0
vn -1 0 0
vn -2.8390664E-07 0 1
vn -1.6348905E-07 0 1
vn -1.342187E-07 0 1
vn -3.1317694E-07 0 1
vn 1 0 0
vn 1 0 0
vn 1 0 0
vn 1 0 0
vn -0.7373048 2.8448449E-06 -0.6755603
vn -0.7365095 7.2738956E-05 -0.67642725
vn -0.73733735 0 -0.67552483
vn -0.73647696 7.559512E-05 -0.6764626
vn 0.73786885 2.8153358E-06 -0.6749441
vn 0.7386617 7.243124E-05 -0.6740763
vn 0.7378365 0 -0.6749795
vn 0.7386939 7.526114E-05 -0.674041
vn -0.73600376 -2.2041795E-06 0.67697746
vn -0.73602825 0 0.6769508
vn -0.7360028 -2.2913027E-06 0.6769785
vn -0.73602927 0 0.6769498
vn 0.73736316 0 0.6754966
vn 0.737387 -2.1851945E-06 0.67547053
vn 0.73736215 0 0.6754976
vn 0.73738796 -2.2703186E-06 0.67546946
vn -0.33326274 0.6022612 -0.72540843
vn 0.30713895 0.60028213 -0.7384625
vn -0.30225006 0.6022526 -0.7388753
vn 0.3351774 0.6050146 -0.72222805
vn 0.32918555 0.61154205 0.71948117
vn -0.29252547 0.60879797 0.7374237
vn 0.29790527 0.60657966 0.7370981
vn -0.32714447 0.6085377 0.72295105
vn -0.7913363 0.55437523 0.25778875
vn -0.7538955 0.5668693 0.33211562
vn -0.30225006 0.6022526 -0.7388753
vn -0.7505679 0.5718786 -0.33106303
vn -0.33326274 0.6022612 -0.72540843
vn -0.79563886 0.55450726 -0.24388647
vn -0.7538955 0.5668693 0.33211562
vn -0.7913363 0.55437523 0.25778875
vn 0.3351774 0.6050146 -0.72222805
vn 0.796115 0.55265605 -0.24651997
vn 0.30713895 0.60028213 -0.7384625
vn 0.7478079 0.575021 -0.3318646
vn 0.7918025 0.55219454 0.26101723
vn 0.7508335 0.5703498 0.33309162
vn 0.7508335 0.5703498 0.33309162
vn 0.29790527 0.60657966 0.7370981
vn 0.7918025 0.55219454 0.26101723
vn 0.32918555 0.61154205 0.71948117
vn 1.479241E-06 1 -1.2681652E-06
vn 9.5014985E-07 1 -1.1336574E-06
vn 4.440783E-06 1 -1.6602967E-06
vn 1.791772E-07 1 -1.2591285E-06
vn -2.3992183E-07 1 -3.0058712E-07
vn -0 1 2.5739328E-06
vn -1.964906E-07 1 -1.0757441E-06
vn -4.0731896E-07 1 3.630635E-07
g obj_fence_end_0
f 3/3/3 2/2/2 1/1/1
f 4/4/4 1/1/1 2/2/2
f 7/7/7 6/6/6 5/5/5
f 8/8/8 5/5/5 6/6/6
f 11/11/11 10/10/10 9/9/9
f 12/12/12 9/9/9 10/10/10
f 15/15/15 14/14/14 13/13/13
f 16/16/16 13/13/13 14/14/14
f 19/19/19 18/18/18 17/17/17
f 20/20/20 17/17/17 18/18/18
f 23/23/23 22/22/22 21/21/21
f 24/24/24 21/21/21 22/22/22
f 27/27/27 26/26/26 25/25/25
f 28/28/28 25/25/25 26/26/26
f 31/31/31 30/30/30 29/29/29
f 32/32/32 29/29/29 30/30/30
f 35/35/35 34/34/34 33/33/33
f 36/36/36 33/33/33 34/34/34
f 39/39/39 38/38/38 37/37/37
f 40/40/40 37/37/37 38/38/38
f 38/38/38 41/41/41 40/40/40
f 42/42/42 40/40/40 41/41/41
f 45/45/45 44/44/44 43/43/43
f 46/46/46 43/43/43 44/44/44
f 44/44/44 47/47/47 46/46/46
f 48/48/48 46/46/46 47/47/47
f 51/51/51 50/50/50 49/49/49
f 52/52/52 49/49/49 50/50/50
f 50/50/50 53/53/53 52/52/52
f 54/54/54 52/52/52 53/53/53
f 57/57/57 56/56/56 55/55/55
f 58/58/58 55/55/55 56/56/56
f 61/61/61 60/60/60 59/59/59
f 59/59/59 60/60/60 62/62/62
f 60/60/60 63/63/63 62/62/62
f 64/64/64 63/63/63 60/60/60
f 63/63/63 65/65/65 62/62/62
f 65/65/65 66/66/66 62/62/62
