g obj_stand1_1
v 0.5035 0.30309078 -1.5865924
v -0.5035 0.30309078 -1.5865928
v -0.5035 -0.2978242 -1.5865921
v 0.5035 -0.2978242 -1.5865918
v 0.5035 -0.2978246 2.4414074
v -0.5035 -0.29782468 2.4414074
v -0.5035 1.4735677 2.441408
v 0.5035 1.4735677 2.441408
v 0.5035 1.4735677 2.168674
v -0.5035 1.4735677 2.168674
v -0.5035 0.9635417 2.1686733
v 0.5035 0.9635417 2.1686735
v 0.5035 0.008183344 -1.3449124
v -0.5035 0.008183267 -1.3449128
v -0.5035 0.3967288 -1.344913
v 0.5035 0.3967288 -1.3449128
v 0.5035 1.5241282 2.407073
v -0.5035 1.5241282 2.4070728
v -0.5035 1.5241282 2.2019897
v 0.5035 1.5241282 2.20199
v 0.5035 0.43027773 -1.3765594
v -0.5035 0.4302778 -1.3765594
v -0.5035 0.36559483 -1.5551705
v 0.5035 0.36559483 -1.5551704
v 0.5035 1.2272408 2.1970663
v -0.5035 1.2272408 2.1970663
v -0.5035 1.2272403 1.4274153
v 0.5035 1.2272401 1.4274154
v 0.5035 0.9036347 1.2203821
v -0.5035 0.9036349 1.2203819
v -0.5035 0.9036344 0.5295761
v 0.5035 0.90363437 0.5295762
v 0.5035 0.5800286 0.3225427
v -0.5035 0.58002865 0.32254255
v -0.5035 0.5800288 -0.36826304
v 0.5035 0.5800286 -0.3682629
v 0.5035 1.4735677 2.441408
v -0.5035 1.4735677 2.441408
v -0.5035 1.5241282 2.4070728
v 0.5035 1.5241282 2.407073
v -0.5035 0.256423 -1.3682711
v 0.5035 0.25642285 -1.3682711
v 0.5035 0.2564226 -0.5752964
v -0.5035 0.25642273 -0.5752965
v -0.5035 0.25642273 -0.5752965
v 0.5035 0.2564226 -0.5752964
v 0.5035 0.5800286 -0.3682629
v -0.5035 0.5800288 -0.36826304
v -0.5035 0.58002865 0.32254255
v 0.5035 0.5800286 0.3225427
v 0.5035 0.90363437 0.5295762
v -0.5035 0.9036344 0.5295761
v -0.5035 0.9036349 1.2203819
v 0.5035 0.9036347 1.2203821
v 0.5035 1.2272401 1.4274154
v -0.5035 1.2272403 1.4274153
v -0.5035 1.4735677 2.168674
v 0.5035 1.4735677 2.168674
v 0.5035 1.5241282 2.20199
v -0.5035 1.5241282 2.2019897
v -0.5035 0.4302778 -1.3765594
v 0.5035 0.43027773 -1.3765594
v 0.5035 0.3967288 -1.3449128
v -0.5035 0.3967288 -1.344913
v -0.5035 0.30309078 -1.5865928
v 0.5035 0.30309078 -1.5865924
v 0.5035 0.36559483 -1.5551704
v -0.5035 0.36559483 -1.5551705
vt 0.031917997 0.13573658
vt 0.061359186 0.13573658
vt 0.061359186 0.11605996
vt 0.031917997 0.11605996
vt 0.2281332 0.11605993
vt 0.21995749 0.11605993
vt 0.21995749 0.17406327
vt 0.2281332 0.17406327
vt 0.026944602 0.47783273
vt 0.04852539 0.47783273
vt 0.04852539 0.4698584
vt 0.026944602 0.4698584
vt 0.026944611 0.4698584
vt 0.048525397 0.4698584
vt 0.048525397 0.47783273
vt 0.02694461 0.47783273
vt 0.031658534 0.49506116
vt 0.06084582 0.49506116
vt 0.057111584 0.48929107
vt 0.029771239 0.48929107
vt 0.02977125 0.36737686
vt 0.057111595 0.36737686
vt 0.06085518 0.3617442
vt 0.03166327 0.3617442
vt 0.13141842 0.33348787
vt 0.16840287 0.33348787
vt 0.16840285 0.29865646
vt 0.1314184 0.29865646
vt 0.1314184 0.27969444
vt 0.16840285 0.27969444
vt 0.16840288 0.25787428
vt 0.13141844 0.25787428
vt 0.13141844 0.23808923
vt 0.16840288 0.23808922
vt 0.16840288 0.21833184
vt 0.13141844 0.21833184
vt 0.009584346 0.48090518
vt 0.014100842 0.48090518
vt 0.014199909 0.4847927
vt 0.009634414 0.4847927
vt 0.16840288 0.1763537
vt 0.13141844 0.1763537
vt 0.13141844 0.19920522
vt 0.16840288 0.19920522
vt 0.16840288 0.20085128
vt 0.13141844 0.20085126
vt 0.13141844 0.21833184
vt 0.16840288 0.21833184
vt 0.16840288 0.2403937
vt 0.13141844 0.2403937
vt 0.13141844 0.25787428
vt 0.16840288 0.25787428
vt 0.16840285 0.2811759
vt 0.1314184 0.2811759
vt 0.1314184 0.29865646
vt 0.16840285 0.29865646
vt 0.050120644 0.48090518
vt 0.033813953 0.48090515
vt 0.03360258 0.4847927
vt 0.049702425 0.4847927
vt 0.023768397 0.4847927
vt 0.039868236 0.4847927
vt 0.03965687 0.48090515
vt 0.023350177 0.48090518
vt 0.026958216 0.48090518
vt 0.04148038 0.48090515
vt 0.041317016 0.4847927
vt 0.02663498 0.4847927
vn 2.6175425E-07 0.23081046 -0.9729988
vn 2.6175422E-07 0.2308104 -0.9729988
vn 3.0517577E-07 -1.0228135E-06 -1
vn 3.0517577E-07 -1.0228135E-06 -1
vn -1.5258787E-07 -2.602292E-07 1
vn -1.5258787E-07 -2.602292E-07 1
vn -1.5258787E-07 -2.602292E-07 1
vn -1.5258787E-07 -2.602292E-07 1
vn 2.2888183E-07 1.3557192E-06 -1
vn 2.2888183E-07 1.3557192E-06 -1
vn 2.2888183E-07 1.3557192E-06 -1
vn 2.2888183E-07 1.3557192E-06 -1
vn -3.0517583E-07 7.9092933E-07 1
vn -3.0517586E-07 7.9092933E-07 1
vn -3.0517583E-07 7.9092933E-07 1
vn -3.0517583E-07 7.9092933E-07 1
vn -0 1 0
vn -0 1 0
vn -0 1 0
vn -0 1 0
vn -0 0.9402433 -0.34050348
vn -0 0.9402433 -0.34050348
vn -0 0.9402433 -0.34050348
vn -0 0.9402433 -0.3405035
vn -0 1 -6.9875307E-07
vn -0 1 -6.987531E-07
vn -0 1 -6.9875307E-07
vn -0 1 -6.987531E-07
vn 1.1444103E-07 1 -6.116827E-07
vn 1.1444103E-07 1 -6.116827E-07
vn 1.1444103E-07 1 -6.116827E-07
vn 1.1444102E-07 1 -6.116827E-07
vn 1.1444092E-07 1 0
vn 1.14440915E-07 1 0
vn 1.1444092E-07 1 0
vn 1.14440915E-07 1 0
vn -1.8934611E-07 0.56179327 0.82727766
vn -1.8934614E-07 0.56179327 0.82727766
vn -1.8934611E-07 0.56179327 0.82727766
vn -1.8934612E-07 0.5617933 0.8272776
vn 1.3351439E-07 1 3.1487895E-07
vn 1.3351439E-07 1 3.1487895E-07
vn 1.3351439E-07 1 3.1487895E-07
vn 1.3351438E-07 1 3.1487892E-07
vn 2.0398602E-07 0.53891635 -0.8423592
vn 2.0398602E-07 0.53891635 -0.8423592
vn 2.0398602E-07 0.53891635 -0.8423592
vn 2.0398608E-07 0.53891635 -0.8423592
vn 1.3599077E-07 0.5389167 -0.842359
vn 1.3599077E-07 0.5389167 -0.842359
vn 1.3599077E-07 0.5389167 -0.842359
vn 1.3599077E-07 0.5389167 -0.842359
vn 2.719818E-07 0.5389168 -0.84235895
vn 2.7198183E-07 0.5389168 -0.84235895
vn 2.7198183E-07 0.5389168 -0.84235895
vn 2.719818E-07 0.5389168 -0.84235895
vn 1.2767664E-07 0.55021805 -0.835021
vn 1.2767663E-07 0.55021805 -0.835021
vn 1.2767664E-07 0.55021805 -0.835021
vn 1.2767663E-07 0.55021805 -0.835021
vn -0 0.6861812 0.72743064
vn -0 0.6861812 0.72743064
vn -0 0.6861812 0.72743064
vn -0 0.6861813 0.72743064
vn 2.6175422E-07 0.2308104 -0.9729988
vn 2.6175425E-07 0.23081046 -0.9729988
vn 2.0419716E-07 0.44915742 -0.89345264
vn 2.0419716E-07 0.44915742 -0.89345264
g obj_stand1_1_0
f 3/3/3 2/2/2 1/1/1
f 4/4/4 3/3/3 1/1/1
f 7/7/7 6/6/6 5/5/5
f 8/8/8 7/7/7 5/5/5
f 11/11/11 10/10/10 9/9/9
f 12/12/12 11/11/11 9/9/9
f 15/15/15 14/14/14 13/13/13
f 16/16/16 15/15/15 13/13/13
f 19/19/19 18/18/18 17/17/17
f 20/20/20 19/19/19 17/17/17
f 23/23/23 22/22/22 21/21/21
f 24/24/24 23/23/23 21/21/21
f 27/27/27 26/26/26 25/25/25
f 28/28/28 27/27/27 25/25/25
f 31/31/31 30/30/30 29/29/29
f 32/32/32 31/31/31 29/29/29
f 35/35/35 34/34/34 33/33/33
f 36/36/36 35/35/35 33/33/33
f 39/39/39 38/38/38 37/37/37
f 40/40/40 39/39/39 37/37/37
f 43/43/43 42/42/42 41/41/41
f 44/44/44 43/43/43 41/41/41
f 47/47/47 46/46/46 45/45/45
f 48/48/48 47/47/47 45/45/45
f 51/51/51 50/50/50 49/49/49
f 52/52/52 51/51/51 49/49/49
f 55/55/55 54/54/54 53/53/53
f 56/56/56 55/55/55 53/53/53
f 59/59/59 58/58/58 57/57/57
f 60/60/60 59/59/59 57/57/57
f 63/63/63 62/62/62 61/61/61
f 64/64/64 63/63/63 61/61/61
f 67/67/67 66/66/66 65/65/65
f 68/68/68 67/67/67 65/65/65
