g obj_outdoor_tile_C1
v -0.5035002 0.05035063 0.5034999
v -0.5035002 0.050350618 -0.44673026
v 0.37748796 0.050350618 -0.44673026
v 0.44672975 0.050350633 -0.37748846
v 0.44672975 0.05035063 0.5034999
v 0.5035 -3.083048E-17 0.5035
v 0.44672975 0.05035063 0.5034999
v 0.44672975 0.050350633 -0.37748846
v 0.5035 2.6394953E-17 -0.43106228
v 0.43106228 3.083048E-17 -0.5035
v 0.37748796 0.050350618 -0.44673026
v -0.5035002 0.050350618 -0.44673026
v -0.5035 3.083048E-17 -0.5035
v 0.5035 2.6394953E-17 -0.43106228
v 0.44672975 0.050350633 -0.37748846
v 0.37748796 0.050350618 -0.44673026
v 0.43106228 3.083048E-17 -0.5035
vt 0.68899 0.9150602
vt 0.726962 0.9150602
vt 0.726962 0.8794763
vt 0.7241585 0.8766398
vt 0.68899 0.8766398
vt 0.8384762 0.90514576
vt 0.8384762 0.93701863
vt 0.8322605 0.93701863
vt 0.8322605 0.90514576
vt 0.8384762 0.90514576
vt 0.8384762 0.93701863
vt 0.8322605 0.93701863
vt 0.8322605 0.90514576
vt 0.8457877 0.90514576
vt 0.8457877 0.93701863
vt 0.8384762 0.93701863
vt 0.8384762 0.90514576
vn -0 1 0
vn -0 1 0
vn -0 1 0
vn -0 1 0
vn -0 1 0
vn 0.6635403 0.7481405 0
vn 0.6635403 0.7481405 0
vn 0.66354024 0.7481405 0
vn 0.6635403 0.7481405 0
vn -0 0.7481377 -0.66354346
vn -0 0.7481377 -0.6635435
vn -0 0.7481377 -0.66354346
vn -0 0.7481377 -0.6635435
vn 0.38340545 0.8402383 -0.38340557
vn 0.38340545 0.8402383 -0.38340557
vn 0.3834055 0.8402383 -0.38340557
vn 0.3834055 0.8402383 -0.38340557
g obj_outdoor_tile_C1_0
f 3/3/3 2/2/2 1/1/1
f 1/1/1 4/4/4 3/3/3
f 1/1/1 5/5/5 4/4/4
f 8/8/8 7/7/7 6/6/6
f 9/9/9 8/8/8 6/6/6
f 12/12/12 11/11/11 10/10/10
f 13/13/13 12/12/12 10/10/10
f 16/16/16 15/15/15 14/14/14
f 17/17/17 16/16/16 14/14/14
