g obj_outdoor_camp_broken2
v -0.32151642 0.6923754 0.30622387
v -0.48340052 0.7064072 0.20977183
v -0.31532532 0.7631358 0.2181941
v -0.48340052 0.7064072 0.20977183
v -0.48342103 0.70616657 0.01941409
v -0.31532532 0.7631358 0.2181941
v -0.48342103 0.70616657 0.01941409
v -0.32155865 0.691893 -0.076305114
v -0.31532532 0.7631358 0.2181941
v -0.32155865 0.691893 -0.076305114
v -0.1596804 0.6778427 0.019414052
v -0.31532532 0.7631358 0.2181941
v -0.1596804 0.6778427 0.019414052
v -0.15965566 0.6780832 0.20977175
v -0.31532532 0.7631358 0.2181941
v -0.15965566 0.6780832 0.20977175
v -0.32151642 0.6923754 0.30622387
v -0.31532532 0.7631358 0.2181941
v -0.50349987 0.6478649 -0.13386853
v -0.50349987 0.63924617 -0.16543585
v -0.47416657 0.6478649 -0.13067056
v -0.4425054 0.13804698 -0.25339177
v -0.48990375 0.13596055 -0.25461924
v -0.4545956 0.15145469 -0.3627078
v -0.028274164 0.3519383 0.2258366
v -0.18092111 0.31417778 0.12938462
v -0.03685055 0.37968445 0.1378068
v -0.18092111 0.31417778 0.12938462
v -0.18083797 0.313951 -0.06097316
v -0.03685055 0.37968445 0.1378068
v -0.18083797 0.313951 -0.06097316
v -0.0281086 0.35162085 -0.15669245
v -0.03685055 0.37968445 0.1378068
v -0.0281086 0.35162085 -0.15669245
v 0.13797402 0.3592276 -0.0609732
v -0.03685055 0.37968445 0.1378068
v 0.13797402 0.3592276 -0.0609732
v 0.1378949 0.35945594 0.12938453
v -0.03685055 0.37968445 0.1378068
v 0.1378949 0.35945594 0.12938453
v -0.028274164 0.3519383 0.2258366
v -0.03685055 0.37968445 0.1378068
v -0.38856766 -0.07402766 0.06562844
v -0.559771 -0.05920462 -0.036932718
v -0.48340052 0.7064072 0.20977183
v -0.32151642 0.6923754 0.30622387
v -0.559771 -0.05920462 -0.036932718
v -0.559798 -0.059520803 -0.23825304
v -0.48342103 0.70616657 0.01941409
v -0.48340052 0.7064072 0.20977183
v -0.559798 -0.059520803 -0.23825304
v -0.38862258 -0.074654765 -0.33975214
v -0.32155865 0.691893 -0.076305114
v -0.48342103 0.70616657 0.01941409
v -0.38862258 -0.074654765 -0.33975214
v -0.21742325 -0.089474775 -0.23825304
v -0.1596804 0.6778427 0.019414052
v -0.32155865 0.691893 -0.076305114
v -0.21742325 -0.089474775 -0.23825304
v -0.21738206 -0.089159936 -0.036932755
v -0.15965566 0.6780832 0.20977175
v -0.1596804 0.6778427 0.019414052
v -0.21738206 -0.089159936 -0.036932755
v -0.38856766 -0.07402766 0.06562844
v -0.32151642 0.6923754 0.30622387
v -0.15965566 0.6780832 0.20977175
v -0.46538717 0.15252283 -0.37836835
v -0.494808 0.11733399 -0.40570775
v 0.27791908 0.02890254 -0.4931456
v 0.30619663 0.08752607 -0.46347925
v 0.3101044 0.08645793 -0.449806
v -0.4545956 0.15145469 -0.3627078
v -0.46538717 0.15252283 -0.37836835
v 0.30619663 0.08752607 -0.46347925
v 0.3101044 0.08645793 -0.449806
v 0.29607776 0.07305045 -0.34776077
v -0.4425054 0.13804698 -0.25339177
v -0.4545956 0.15145469 -0.3627078
v -0.5034996 0.63098085 -0.17705716
v -0.50349987 0.510757 -0.22876932
v -0.46536762 0.510757 -0.16909985
v -0.4653673 0.63098085 -0.13500243
v -0.50349987 0.63924617 -0.16543585
v -0.5034996 0.63098085 -0.17705716
v -0.4653673 0.63098085 -0.13500243
v -0.47416657 0.6478649 -0.13067056
v -0.52842116 0.07569022 -0.2924917
v -0.494808 0.11733399 -0.40570775
v -0.46538717 0.15252283 -0.37836835
v -0.5029834 0.12494012 -0.2639603
v -0.5029834 0.12494012 -0.2639603
v -0.46538717 0.15252283 -0.37836835
v -0.4545956 0.15145469 -0.3627078
v -0.48990375 0.13596055 -0.25461924
v 0.13848831 -0.0690391 0.04097514
v -0.021696689 -0.090287425 -0.061585937
v -0.18092111 0.31417778 0.12938462
v -0.028274164 0.3519383 0.2258366
v -0.021696689 -0.090287425 -0.061585937
v -0.021584827 -0.090314195 -0.26290622
v -0.18083797 0.313951 -0.06097316
v -0.18092111 0.31417778 0.12938462
v -0.021584827 -0.090314195 -0.26290622
v 0.13870904 -0.06909242 -0.3644054
v -0.0281086 0.35162085 -0.15669245
v -0.18083797 0.313951 -0.06097316
v 0.13870904 -0.06909242 -0.3644054
v 0.2988892 -0.047844406 -0.26290622
v 0.13797402 0.3592276 -0.0609732
v -0.0281086 0.35162085 -0.15669245
v 0.2988892 -0.047844406 -0.26290622
v 0.29879063 -0.047815867 -0.061585974
v 0.1378949 0.35945594 0.12938453
v 0.13797402 0.3592276 -0.0609732
v 0.29879063 -0.047815867 -0.061585974
v 0.13848831 -0.0690391 0.04097514
v -0.028274164 0.3519383 0.2258366
v 0.1378949 0.35945594 0.12938453
vt 0.017132994 0.6138319
vt 0.0320117 0.621434
vt 0.017132994 0.63358635
vt 0.0320117 0.621434
vt 0.0320117 0.64347583
vt 0.017132994 0.63358635
vt 0.0320117 0.64347583
vt 0.017132994 0.6516136
vt 0.017132994 0.63358635
vt 0.017132994 0.6516136
vt 0.0015187517 0.64347583
vt 0.017132994 0.63358635
vt 0.0015187517 0.64347583
vt 0.0015187517 0.621434
vt 0.017132994 0.63358635
vt 0.0015187517 0.621434
vt 0.017132994 0.6138319
vt 0.017132994 0.63358635
vt 0.7334892 0.89674807
vt 0.7334892 0.891033
vt 0.7297395 0.891033
vt 0.7334892 0.89674807
vt 0.7297395 0.891033
vt 0.7334892 0.891033
vt 0.017132994 0.6138319
vt 0.0320117 0.621434
vt 0.017132994 0.63358635
vt 0.0320117 0.621434
vt 0.0320117 0.64347583
vt 0.017132994 0.63358635
vt 0.0320117 0.64347583
vt 0.017132994 0.6516136
vt 0.017132994 0.63358635
vt 0.017132994 0.6516136
vt 0.0015187517 0.64347583
vt 0.017132994 0.63358635
vt 0.0015187517 0.64347583
vt 0.0015187517 0.621434
vt 0.017132994 0.63358635
vt 0.0015187517 0.621434
vt 0.017132994 0.6138319
vt 0.017132994 0.63358635
vt 0.0016820688 0.70464236
vt 0.0016820688 0.6886022
vt 0.06360421 0.6886022
vt 0.06360421 0.70464236
vt 0.0016820688 0.6886022
vt 0.0016820688 0.6698776
vt 0.06360421 0.6698776
vt 0.06360421 0.6886022
vt 0.0016820688 0.6698776
vt 0.0016820688 0.6548779
vt 0.06360421 0.6548779
vt 0.06360421 0.6698776
vt 0.0016820688 0.6548779
vt 0.0016820688 0.6698776
vt 0.06360421 0.6698776
vt 0.06360421 0.6548779
vt 0.0016820688 0.6698776
vt 0.0016820688 0.6886022
vt 0.06360421 0.6886022
vt 0.06360421 0.6698776
vt 0.0016820688 0.6886022
vt 0.0016820688 0.70464236
vt 0.06360421 0.70464236
vt 0.06360421 0.6886022
vt 0.76920754 0.88819665
vt 0.76920754 0.8811541
vt 0.7334892 0.8811541
vt 0.7334892 0.88819665
vt 0.7334892 0.891033
vt 0.76920754 0.891033
vt 0.76920754 0.88819665
vt 0.7334892 0.88819665
vt 0.7334892 0.891033
vt 0.7334892 0.89674807
vt 0.76920754 0.896748
vt 0.76920754 0.891033
vt 0.7334892 0.88819665
vt 0.7334892 0.8811541
vt 0.7297395 0.8811541
vt 0.7297395 0.88819665
vt 0.7334892 0.891033
vt 0.7334892 0.88819665
vt 0.7297395 0.88819665
vt 0.7297395 0.891033
vt 0.7297395 0.8811541
vt 0.7334892 0.8811541
vt 0.7334892 0.88819665
vt 0.7297395 0.88819665
vt 0.7297395 0.88819665
vt 0.7334892 0.88819665
vt 0.7334892 0.891033
vt 0.7297395 0.891033
vt 0.0016820688 0.70464236
vt 0.0016820688 0.6886022
vt 0.06360421 0.6886022
vt 0.06360421 0.70464236
vt 0.0016820688 0.6886022
vt 0.0016820688 0.6698776
vt 0.06360421 0.6698776
vt 0.06360421 0.6886022
vt 0.0016820688 0.6698776
vt 0.0016820688 0.6548779
vt 0.06360421 0.6548779
vt 0.06360421 0.6698776
vt 0.0016820688 0.6548779
vt 0.0016820688 0.6698776
vt 0.06360421 0.6698776
vt 0.06360421 0.6548779
vt 0.0016820688 0.6698776
vt 0.0016820688 0.6886022
vt 0.06360421 0.6886022
vt 0.06360421 0.6698776
vt 0.0016820688 0.6886022
vt 0.0016820688 0.70464236
vt 0.06360421 0.70464236
vt 0.06360421 0.6886022
vn -0.28491196 0.75679487 0.58829135
vn -0.28491196 0.75679487 0.58829135
vn -0.28491193 0.75679487 0.5882912
vn -0.3197422 0.94750386 -0.0011632546
vn -0.3197422 0.94750386 -0.0011632544
vn -0.3197422 0.94750386 -0.0011632546
vn -0.052616876 0.9708717 -0.23375137
vn -0.052616872 0.97087157 -0.23375137
vn -0.052616876 0.97087157 -0.23375137
vn 0.22041209 0.94698405 -0.23375158
vn 0.22041208 0.94698405 -0.23375158
vn 0.22041209 0.94698405 -0.23375158
vn 0.47941926 0.87758523 -0.0011709247
vn 0.47941926 0.87758523 -0.0011709247
vn 0.47941932 0.87758523 -0.0011709247
vn 0.41200167 0.69582075 0.58829266
vn 0.41200167 0.69582075 0.58829266
vn 0.41200167 0.69582075 0.58829266
vn 0.028702958 0.96429306 -0.2632777
vn 0.028702958 0.96429306 -0.26327768
vn 0.028702961 0.96429306 -0.2632777
vn 0.02994099 0.99148226 0.12675358
vn -0.046896655 0.9908302 0.12671298
vn 0.06932321 0.98954344 0.12648378
vn -0.4084449 0.8584018 0.31035295
vn -0.40844494 0.8584019 0.31035298
vn -0.40844494 0.8584019 0.31035295
vn -0.41384625 0.9103459 -0.0012653288
vn -0.41384625 0.9103459 -0.0012653288
vn -0.41384628 0.9103459 -0.001265329
vn -0.29651856 0.94984907 -0.09931541
vn -0.2965186 0.94984907 -0.099315405
vn -0.29651856 0.94984907 -0.0993154
vn 0.00892553 0.9954757 -0.09459645
vn 0.008925531 0.9954757 -0.094596475
vn 0.00892553 0.9954757 -0.09459645
vn 0.11493748 0.9933721 -0.0011437631
vn 0.114937484 0.9933721 -0.001143763
vn 0.114937484 0.9933721 -0.001143763
vn 0.123796694 0.9498044 0.28730804
vn 0.123796694 0.9498044 0.28730804
vn 0.123796694 0.9498044 0.28730804
vn -0.51452816 -0.21579659 0.82987505
vn -0.51452816 -0.21579662 0.82987505
vn -0.51452816 -0.21579662 0.82987505
vn -0.51452816 -0.21579662 0.82987505
vn -0.9950611 0.09926425 -2.0294572E-05
vn -0.9950611 0.09926425 -2.029457E-05
vn -0.9950611 0.09926425 -2.0294572E-05
vn -0.9950611 0.09926425 -2.0294572E-05
vn -0.460675 0.32413924 -0.82626396
vn -0.460675 0.32413924 -0.82626396
vn -0.460675 0.3241392 -0.82626396
vn -0.460675 0.3241392 -0.82626396
vn 0.50997055 0.23921774 -0.8262596
vn 0.50997055 0.23921774 -0.8262596
vn 0.50997055 0.23921777 -0.8262596
vn 0.5099706 0.23921774 -0.8262596
vn 0.9971825 -0.07501362 -6.146929E-05
vn 0.9971825 -0.075013615 -6.146928E-05
vn 0.9971825 -0.075013615 -6.14693E-05
vn 0.9971825 -0.075013615 -6.146928E-05
vn 0.46922976 -0.30186257 0.829881
vn 0.46922976 -0.30186257 0.829881
vn 0.46922973 -0.30186257 0.829881
vn 0.46922976 -0.30186263 0.829881
vn -0.4716503 0.6618732 -0.5826404
vn -0.5634953 0.6655562 -0.4893955
vn -0.040782228 0.53706646 -0.84255356
vn -0.040782228 0.53706646 -0.84255356
vn 0.087471694 0.9957539 0.028684795
vn -0.18111329 0.982841 0.034949277
vn -0.1517601 0.98781943 0.034375183
vn 0.087471694 0.9957539 0.028684791
vn 0.10056592 0.9869033 0.12612884
vn 0.1005659 0.9869033 0.12612884
vn 0.02994099 0.99148226 0.12675358
vn 0.06932321 0.98954344 0.12648378
vn 0.7823815 0.20932889 -0.5865668
vn 0.7823815 0.20932889 -0.5865668
vn 0.7823815 0.20932889 -0.58656687
vn 0.7823815 0.20932889 -0.5865668
vn 0.58428293 0.5705401 -0.57714593
vn 0.58428293 0.57054013 -0.57714593
vn 0.58428293 0.57054013 -0.57714593
vn 0.584283 0.57054013 -0.577146
vn -0.81169075 0.5788724 -0.07787718
vn -0.5634953 0.6655562 -0.4893955
vn -0.4716503 0.6618732 -0.5826404
vn -0.81169075 0.5788723 -0.07787717
vn -0.41861433 0.9073475 0.03850327
vn -0.1517601 0.98781943 0.034375183
vn -0.18111329 0.982841 0.034949277
vn -0.41861436 0.9073475 0.03850327
vn -0.3934044 -0.5051204 0.7681709
vn -0.39340436 -0.50512034 0.7681708
vn -0.3934044 -0.5051204 0.7681709
vn -0.3934044 -0.5051204 0.7681709
vn -0.93049026 -0.36631662 -0.00022607
vn -0.93049026 -0.36631665 -0.00022607004
vn -0.93049026 -0.36631668 -0.00022607003
vn -0.93049026 -0.36631668 -0.00022607004
vn -0.54862684 0.18771018 -0.814723
vn -0.54862684 0.18771018 -0.814723
vn -0.54862684 0.18771017 -0.814723
vn -0.5486268 0.18771017 -0.8147229
vn 0.40416488 0.5292112 -0.746047
vn 0.40416488 0.52921116 -0.746047
vn 0.40416488 0.5292112 -0.746047
vn 0.40416488 0.52921116 -0.746047
vn 0.93004483 0.3674461 0.00018096977
vn 0.93004483 0.3674461 0.00018096977
vn 0.93004483 0.36744604 0.00018096976
vn 0.93004483 0.3674461 0.00018096977
vn 0.5237566 -0.17144044 0.8344382
vn 0.5237566 -0.17144045 0.8344382
vn 0.5237566 -0.17144044 0.8344382
vn 0.5237566 -0.17144044 0.8344382
g obj_outdoor_camp_broken2_0
f 3/3/3 2/2/2 1/1/1
f 6/6/6 5/5/5 4/4/4
f 9/9/9 8/8/8 7/7/7
f 12/12/12 11/11/11 10/10/10
f 15/15/15 14/14/14 13/13/13
f 18/18/18 17/17/17 16/16/16
f 21/21/21 20/20/20 19/19/19
f 24/24/24 23/23/23 22/22/22
f 27/27/27 26/26/26 25/25/25
f 30/30/30 29/29/29 28/28/28
f 33/33/33 32/32/32 31/31/31
f 36/36/36 35/35/35 34/34/34
f 39/39/39 38/38/38 37/37/37
f 42/42/42 41/41/41 40/40/40
f 45/45/45 44/44/44 43/43/43
f 46/46/46 45/45/45 43/43/43
f 49/49/49 48/48/48 47/47/47
f 50/50/50 49/49/49 47/47/47
f 53/53/53 52/52/52 51/51/51
f 54/54/54 53/53/53 51/51/51
f 57/57/57 56/56/56 55/55/55
f 58/58/58 57/57/57 55/55/55
f 61/61/61 60/60/60 59/59/59
f 62/62/62 61/61/61 59/59/59
f 65/65/65 64/64/64 63/63/63
f 66/66/66 65/65/65 63/63/63
f 69/69/69 68/68/68 67/67/67
f 70/70/70 69/69/69 67/67/67
f 73/73/73 72/72/72 71/71/71
f 74/74/74 73/73/73 71/71/71
f 77/77/77 76/76/76 75/75/75
f 78/78/78 77/77/77 75/75/75
f 81/81/81 80/80/80 79/79/79
f 82/82/82 81/81/81 79/79/79
f 85/85/85 84/84/84 83/83/83
f 86/86/86 85/85/85 83/83/83
f 89/89/89 88/88/88 87/87/87
f 90/90/90 89/89/89 87/87/87
f 93/93/93 92/92/92 91/91/91
f 94/94/94 93/93/93 91/91/91
f 97/97/97 96/96/96 95/95/95
f 98/98/98 97/97/97 95/95/95
f 101/101/101 100/100/100 99/99/99
f 102/102/102 101/101/101 99/99/99
f 105/105/105 104/104/104 103/103/103
f 106/106/106 105/105/105 103/103/103
f 109/109/109 108/108/108 107/107/107
f 110/110/110 109/109/109 107/107/107
f 113/113/113 112/112/112 111/111/111
f 114/114/114 113/113/113 111/111/111
f 117/117/117 116/116/116 115/115/115
f 118/118/118 117/117/117 115/115/115
