g obj_crumbs1_2
v 0.16048512 0.06821665 0.19795343
v 0.2918946 0.06821665 0.3689165
v 0.16201779 0.090613 0.34470302
v 0.3164185 0.05009778 0.1379265
v 0.39336616 0.046812534 0.20156908
v 0.40431023 -0.0032801821 0.19775435
v 0.30322206 -0.0032801733 0.39637202
v 0.2918946 0.06821665 0.3689165
v 0.31142586 -0.0032801863 0.10121174
v 0.16048512 0.06821665 0.19795343
v 0.112763934 -0.0032801807 0.22750323
v 0.16201779 0.090613 0.34470302
v 0.16025345 -0.003280173 0.40243924
v 0.16025345 -0.003280173 0.40243924
v 0.16201779 0.090613 0.34470302
v 0.2918946 0.06821665 0.3689165
v 0.30322206 -0.0032801733 0.39637202
vt 0.17576845 0.576337
vt 0.16896096 0.57943684
vt 0.17202538 0.57943684
vt 0.1754683 0.5753786
vt 0.16477025 0.5753786
vt 0.1644311 0.56917715
vt 0.1615225 0.56917715
vt 0.1615225 0.5752181
vt 0.1754683 0.56917715
vt 0.17851576 0.5752181
vt 0.17851576 0.56917715
vt 0.17851576 0.5752181
vt 0.17851576 0.56917715
vt 0.16460967 0.56917715
vt 0.16460967 0.5752181
vt 0.17545135 0.5752181
vt 0.17545135 0.56917715
vn -0.49853346 0.72915906 -0.4688192
vn 0.38717005 0.7494163 0.5370982
vn -0.43170536 0.8391169 0.33092785
vn 0.15811734 0.7037092 -0.6926704
vn 0.7266807 0.6774621 -0.113930255
vn 0.9263841 0.3413864 -0.15895863
vn 0.45813444 0.4105598 0.78838664
vn 0.38717005 0.7494163 0.5370982
vn 0.063495494 0.32275072 -0.9443518
vn -0.49853346 0.72915906 -0.4688192
vn -0.8980092 0.35861707 -0.2548986
vn -0.43170536 0.8391169 0.33092785
vn -0.483738 0.507204 0.7132612
vn -0.483738 0.507204 0.7132612
vn -0.43170536 0.8391169 0.33092785
vn 0.38717005 0.7494163 0.5370982
vn 0.45813444 0.4105598 0.78838664
g obj_crumbs1_2_0
f 3/3/3 2/2/2 1/1/1
f 4/4/4 1/1/1 2/2/2
f 2/2/2 5/5/5 4/4/4
f 4/4/4 5/5/5 6/6/6
f 6/6/6 5/5/5 7/7/7
f 5/5/5 8/8/8 7/7/7
f 9/9/9 4/4/4 6/6/6
f 10/10/10 4/4/4 9/9/9
f 11/11/11 10/10/10 9/9/9
f 12/12/12 10/10/10 11/11/11
f 13/13/13 12/12/12 11/11/11
f 16/16/16 15/15/15 14/14/14
f 17/17/17 16/16/16 14/14/14
