g obj_stone4
v 0.30833265 3.2490079E-18 -0.053060327
v 0.20879127 0.010502715 -0.22267765
v 0.24875161 1.5951028E-17 -0.26050004
v 0.24982375 0.010502715 -0.04403366
v 0.24875161 1.5951028E-17 -0.26050004
v -0.14323688 0.010502715 -0.2304153
v -0.18060586 1.6386792E-17 -0.2676166
v 0.20879127 0.010502715 -0.22267765
v -0.2966279 -7.903044E-19 0.01290665
v -0.18060586 1.6386792E-17 -0.2676166
v -0.14323688 0.010502715 -0.2304153
v -0.23666184 0.010502715 0.023768114
v -0.21296535 -1.0228561E-17 0.16704507
v -0.2966279 -7.903044E-19 0.01290665
v -0.23666184 0.010502715 0.023768114
v -0.17299591 0.010502715 0.11958914
v 0.21065032 -1.0228561E-17 0.16704507
v -0.21296535 -1.0228561E-17 0.16704507
v -0.17299591 0.010502715 0.11958914
v 0.1718158 0.010502715 0.11958912
v 0.24982375 0.010502715 -0.04403366
v 0.30833265 3.2490079E-18 -0.053060327
v 0.21065032 -1.0228561E-17 0.16704507
v 0.1718158 0.010502715 0.11958912
v -0.14323688 0.010502715 -0.2304153
v 0.20879127 0.010502715 -0.22267765
v 0.24982375 0.010502715 -0.04403366
v 0.1718158 0.010502715 0.11958912
v -0.17299591 0.010502715 0.11958914
v -0.23666184 0.010502715 0.023768114
vt 0.19959225 0.70683825
vt 0.19258828 0.7122897
vt 0.19533053 0.71603
vt 0.19558507 0.70582616
vt 0.19533053 0.71603
vt 0.18009447 0.7121503
vt 0.17756313 0.71583176
vt 0.19258828 0.7122897
vt 0.17237118 0.7074239
vt 0.17756313 0.71583176
vt 0.18009447 0.7121503
vt 0.17644343 0.70623803
vt 0.17696564 0.68880886
vt 0.17237118 0.7074239
vt 0.17644343 0.70623803
vt 0.17967427 0.69314814
vt 0.19507185 0.68880886
vt 0.17696564 0.68880886
vt 0.17967427 0.69314814
vt 0.19240636 0.69314814
vt 0.19558507 0.70582616
vt 0.19959225 0.70683825
vt 0.19507185 0.68880886
vt 0.19240636 0.69314814
vt 0.18009447 0.7121503
vt 0.19258828 0.7122897
vt 0.19558507 0.70582616
vt 0.19240636 0.69314814
vt 0.17967427 0.69314814
vt 0.17644343 0.70623803
vn 0.11489334 0.9929264 -0.029941231
vn 0.11489334 0.9929264 -0.02994123
vn 0.11489333 0.9929264 -0.029941231
vn 0.11489334 0.9929264 -0.029941231
vn 0.0031967482 0.9857544 -0.16816077
vn 0.0031967477 0.9857544 -0.16816077
vn 0.0031967475 0.9857544 -0.16816077
vn 0.0031967477 0.9857544 -0.16816077
vn -0.10948493 0.9930629 -0.042885736
vn -0.10948493 0.9930629 -0.042885736
vn -0.10948493 0.9930629 -0.042885736
vn -0.10948493 0.9930629 -0.042885736
vn -0.10462135 0.99259853 0.06166484
vn -0.10462135 0.99259853 0.06166484
vn -0.10462136 0.99259853 0.06166483
vn -0.10462135 0.99259853 0.06166483
vn -0 0.99101895 0.13372144
vn -0 0.99101895 0.13372144
vn -0 0.99101895 0.13372144
vn -0 0.99101895 0.13372146
vn 0.11059563 0.9925747 0.05063631
vn 0.11059562 0.9925747 0.050636306
vn 0.11059562 0.9925747 0.050636306
vn 0.11059562 0.9925747 0.050636306
vn -0 1 0
vn -0 1 0
vn -0 1 0
vn -0 1 0
vn -0 1 0
vn -0 1 0
g obj_stone4_0
f 3/3/3 2/2/2 1/1/1
f 2/2/2 4/4/4 1/1/1
f 7/7/7 6/6/6 5/5/5
f 6/6/6 8/8/8 5/5/5
f 11/11/11 10/10/10 9/9/9
f 9/9/9 12/12/12 11/11/11
f 15/15/15 14/14/14 13/13/13
f 13/13/13 16/16/16 15/15/15
f 19/19/19 18/18/18 17/17/17
f 17/17/17 20/20/20 19/19/19
f 23/23/23 22/22/22 21/21/21
f 21/21/21 24/24/24 23/23/23
f 27/27/27 26/26/26 25/25/25
f 25/25/25 28/28/28 27/27/27
f 29/29/29 28/28/28 25/25/25
f 25/25/25 30/30/30 29/29/29
