g obj_wall_block
v -0.034902114 -0.8136257 0.3483635
v -0.8136257 -0.03490239 0.34836352
v 0.8136259 -0.034902122 0.34836352
v -0.034902383 0.8136259 0.34836355
v -0.033334855 -0.7770941 -0.35689002
v -0.77709395 0.033335157 -0.35689002
v 0.7770943 -0.033334956 -0.35689002
v 0.033335216 0.77709424 -0.35689002
v 0.034902535 -0.8136257 0.3483635
v -0.8136257 0.034902256 0.34836352
v 0.8136259 0.034902524 0.34836352
v 0.034902267 0.8136259 0.34836355
v 0.033335485 -0.7770941 -0.35689002
v -0.7770939 -0.0333353 -0.35689002
v 0.7770943 0.033335462 -0.35689002
v -0.03333516 0.7770941 -0.35689002
v 0.03490256 -0.81362575 -0.32861158
v -0.034902085 -0.81362575 -0.32861158
v -0.8136257 -0.03490238 -0.32861158
v -0.81362563 0.03490223 -0.32861158
v -0.03490239 0.81362575 -0.32861158
v 0.034902297 0.81362575 -0.32861158
v 0.8136259 0.034902535 -0.32861158
v 0.8136259 -0.03490211 -0.32861158
v -0.028713716 -0.66936505 0.62085843
v -0.669365 -0.028713968 0.6208585
v 0.66936517 -0.028713739 0.62085843
v -0.028713945 0.66936505 0.62085855
v 0.028714107 -0.66936505 0.62085843
v -0.669365 0.028713858 0.62085855
v 0.66936517 0.028714087 0.6208585
v 0.028713878 0.66936505 0.62085855
v 0.02871418 -0.6693648 0.33420867
v -0.028713722 -0.6693648 0.33420867
v -0.6693648 -0.028713921 0.33420867
v -0.6693648 0.028713902 0.33420867
v -0.028713875 0.66936517 0.33420867
v 0.028713988 0.66936517 0.33420867
v 0.66936517 0.028714094 0.33420867
v 0.66936517 -0.028713768 0.33420867
v -0.8136257 -0.03490239 0.34836352
v -0.034902114 -0.8136257 0.3483635
v -0.034902383 0.8136259 0.34836355
v -0.8136257 0.034902256 0.34836352
v 0.8136259 0.034902524 0.34836352
v 0.034902267 0.8136259 0.34836355
v 0.034902535 -0.8136257 0.3483635
v 0.8136259 -0.034902122 0.34836352
v -0.8136257 0.034902256 0.34836352
v -0.8136257 -0.03490238 -0.32861158
v -0.81362563 0.03490223 -0.32861158
v -0.8136257 -0.03490239 0.34836352
v 0.033335485 -0.7770941 -0.35689002
v -0.034902085 -0.81362575 -0.32861158
v 0.03490256 -0.81362575 -0.32861158
v -0.033334855 -0.7770941 -0.35689002
v 0.034902267 0.8136259 0.34836355
v -0.03490239 0.81362575 -0.32861158
v 0.034902297 0.81362575 -0.32861158
v -0.034902383 0.8136259 0.34836355
v 0.8136259 -0.034902122 0.34836352
v 0.8136259 0.034902535 -0.32861158
v 0.8136259 -0.03490211 -0.32861158
v 0.8136259 0.034902524 0.34836352
v -0.7770939 -0.0333353 -0.35689002
v -0.034902085 -0.81362575 -0.32861158
v -0.033334855 -0.7770941 -0.35689002
v -0.8136257 -0.03490238 -0.32861158
v -0.03333516 0.7770941 -0.35689002
v -0.81362563 0.03490223 -0.32861158
v -0.77709395 0.033335157 -0.35689002
v -0.03490239 0.81362575 -0.32861158
v 0.7770943 0.033335462 -0.35689002
v 0.034902297 0.81362575 -0.32861158
v 0.033335216 0.77709424 -0.35689002
v 0.8136259 0.034902535 -0.32861158
v 0.033335485 -0.7770941 -0.35689002
v 0.8136259 -0.03490211 -0.32861158
v 0.7770943 -0.033334956 -0.35689002
v 0.03490256 -0.81362575 -0.32861158
v -0.77709395 0.033335157 -0.35689002
v -0.8136257 -0.03490238 -0.32861158
v -0.7770939 -0.0333353 -0.35689002
v -0.81362563 0.03490223 -0.32861158
v 0.034902535 -0.8136257 0.3483635
v -0.034902085 -0.81362575 -0.32861158
v -0.034902114 -0.8136257 0.3483635
v 0.03490256 -0.81362575 -0.32861158
v 0.033335216 0.77709424 -0.35689002
v -0.03490239 0.81362575 -0.32861158
v -0.03333516 0.7770941 -0.35689002
v 0.034902297 0.81362575 -0.32861158
v 0.7770943 -0.033334956 -0.35689002
v 0.8136259 0.034902535 -0.32861158
v 0.7770943 0.033335462 -0.35689002
v 0.8136259 -0.03490211 -0.32861158
v -0.669365 -0.028713968 0.6208585
v -0.028713716 -0.66936505 0.62085843
v -0.028713945 0.66936505 0.62085855
v -0.669365 0.028713858 0.62085855
v 0.66936517 0.028714087 0.6208585
v 0.028713878 0.66936505 0.62085855
v 0.028714107 -0.66936505 0.62085843
v 0.66936517 -0.028713739 0.62085843
v -0.669365 0.028713858 0.62085855
v -0.6693648 -0.028713921 0.33420867
v -0.6693648 0.028713902 0.33420867
v -0.669365 -0.028713968 0.6208585
v 0.028713878 0.66936505 0.62085855
v -0.028713875 0.66936517 0.33420867
v 0.028713988 0.66936517 0.33420867
v -0.028713945 0.66936505 0.62085855
v 0.66936517 -0.028713739 0.62085843
v 0.66936517 0.028714094 0.33420867
v 0.66936517 -0.028713768 0.33420867
v 0.66936517 0.028714087 0.6208585
v 0.028714107 -0.66936505 0.62085843
v -0.028713722 -0.6693648 0.33420867
v -0.028713716 -0.66936505 0.62085843
v 0.02871418 -0.6693648 0.33420867
vt 0.49244893 0.6477856
vt 0.48690516 0.6758847
vt 0.49848965 0.6758848
vt 0.49244893 0.7065027
vt 0.06010888 0.0016302627
vt 0.11174373 0.057893597
vt 0.0038456172 0.053265058
vt 0.055480342 0.10952838
vt 0.4929459 0.6477856
vt 0.48690516 0.6784035
vt 0.49848965 0.6784035
vt 0.4929459 0.7065027
vt 0.055480342 0.0016302627
vt 0.11174373 0.053265058
vt 0.0038456172 0.057893597
vt 0.06010894 0.10952838
vt 0.4980295 0.5010209
vt 0.4980295 0.5010209
vt 0.4980295 0.5028424
vt 0.4980295 0.5040536
vt 0.4980295 0.5824567
vt 0.4980295 0.5824567
vt 0.4980295 0.5040536
vt 0.4980295 0.5028424
vt 0.4774921 0.64873266
vt 0.47183034 0.6763972
vt 0.48366147 0.6763972
vt 0.4774921 0.70654154
vt 0.47799966 0.64873266
vt 0.47183034 0.67887694
vt 0.48366147 0.67887694
vt 0.47799966 0.70654154
vt 0.44275498 0.648624
vt 0.44275498 0.648624
vt 0.44275498 0.64976776
vt 0.44275498 0.6513822
vt 0.442755 0.7039934
vt 0.442755 0.7039934
vt 0.44275498 0.6513822
vt 0.44275498 0.64976776
vt 0.47313127 0.5028424
vt 0.47313127 0.5010209
vt 0.47313127 0.5824567
vt 0.47313127 0.5040536
vt 0.47313127 0.5040536
vt 0.47313127 0.5824567
vt 0.47313127 0.5010209
vt 0.47313127 0.5028424
vt 0.47313127 0.5040536
vt 0.4980295 0.5028424
vt 0.4980295 0.5040536
vt 0.47313127 0.5028424
vt 0.49783993 0.5911852
vt 0.49858683 0.58992976
vt 0.49858683 0.58992976
vt 0.49783993 0.5911852
vt 0.47310224 0.58761317
vt 0.49798602 0.5851839
vt 0.49798596 0.58761317
vt 0.47310224 0.5851839
vt 0.47313127 0.5028424
vt 0.4980295 0.5040536
vt 0.4980295 0.5028424
vt 0.47313127 0.5040536
vt 0.49783993 0.616746
vt 0.49858683 0.58992976
vt 0.49783993 0.5911852
vt 0.49858683 0.6166921
vt 0.49783993 0.6445982
vt 0.49858683 0.6190912
vt 0.49783993 0.61903733
vt 0.49858683 0.6458536
vt 0.49783993 0.61903733
vt 0.49858683 0.6458536
vt 0.49783993 0.6445982
vt 0.49858683 0.6190912
vt 0.49783993 0.5911852
vt 0.49858683 0.6166921
vt 0.49783993 0.61674607
vt 0.49858683 0.58992976
vt 0.49783993 0.61903733
vt 0.49858683 0.6166921
vt 0.49783993 0.616746
vt 0.49858683 0.6190912
vt 0.47313127 0.5010209
vt 0.4980295 0.5010209
vt 0.47313127 0.5010209
vt 0.4980295 0.5010209
vt 0.49783993 0.6445982
vt 0.49858683 0.6458536
vt 0.49783993 0.6445982
vt 0.49858683 0.6458536
vt 0.49783993 0.61674607
vt 0.49858683 0.6190912
vt 0.49783993 0.61903733
vt 0.49858683 0.6166921
vt 0.46827024 0.64976776
vt 0.4682702 0.648624
vt 0.46827024 0.7039934
vt 0.46827024 0.65138215
vt 0.46827024 0.65138215
vt 0.46827024 0.7039934
vt 0.4682702 0.648624
vt 0.4682702 0.64976776
vt 0.46827024 0.65138215
vt 0.44275498 0.64976776
vt 0.44275498 0.6513822
vt 0.46827024 0.64976776
vt 0.44281244 0.7057329
vt 0.46817982 0.70688105
vt 0.46817982 0.7057329
vt 0.44281244 0.70688105
vt 0.4682702 0.64976776
vt 0.44275498 0.6513822
vt 0.44275498 0.64976776
vt 0.46827024 0.65138215
vt 0.4682702 0.648624
vt 0.44275498 0.648624
vt 0.4682702 0.648624
vt 0.44275498 0.648624
vn -0 0 1
vn -0 0 1
vn -0 0 1
vn -0 0 1
vn -0 0 -1
vn -0 0 -1
vn -0 0 -1
vn -0 0 -1
vn -0 0 1
vn -0 0 1
vn -0 0 1
vn -0 0 1
vn -0 0 -1
vn -0 0 -1
vn -0 0 -1
vn -0 0 -1
vn 0.67693126 -0.6769309 -0.2890133
vn -0.67693067 -0.6769307 -0.28901502
vn -0.6769309 -0.67693096 -0.28901395
vn -0.6769309 0.6769307 -0.28901443
vn -0.6769309 0.67693067 -0.28901464
vn 0.676931 0.67693126 -0.28901297
vn 0.676931 0.67693126 -0.28901285
vn 0.6769311 -0.67693084 -0.28901365
vn -0 0 1
vn 2.1096074E-07 -2.4834065E-07 1
vn 6.642597E-07 -6.642594E-07 1
vn -0 0 1
vn -0 0 1
vn 6.642596E-07 -6.642594E-07 1
vn 2.1096038E-07 -2.483403E-07 1
vn -0 0 1
vn 0.7071069 -0.70710665 -3.8816583E-07
vn -0.70710665 -0.7071069 -5.4022235E-07
vn -0.70710677 -0.7071068 -4.88148E-07
vn -0.7071068 0.70710665 -2.1073633E-07
vn -0.7071069 0.70710665 0
vn 0.70710665 0.7071069 3.726952E-07
vn 0.70710677 0.7071068 0
vn 0.70710695 -0.7071066 0
vn -0.70710677 -0.7071068 0
vn -0.70710665 -0.7071069 0
vn -0.7071069 0.70710665 0
vn -0.7071069 0.70710665 -1.070831E-07
vn 0.7071066 0.7071069 0
vn 0.70710665 0.7071069 0
vn 0.7071069 -0.7071066 0
vn 0.7071069 -0.70710665 0
vn -1 0 0
vn -0.9001514 4.8134E-07 -0.43557718
vn -0.9001516 9.838335E-07 -0.43557683
vn -1 0 0
vn -0 -0.6121169 -0.7907673
vn -0 -0.90015185 -0.43557614
vn -0 -0.90015167 -0.43557662
vn -0 -0.6121168 -0.7907674
vn -0 1 -1.126983E-07
vn -4.7286062E-07 0.9001521 -0.43557578
vn -0 0.9001521 -0.43557584
vn -0 1 -1.1269829E-07
vn 1 0 0
vn 0.9001521 0 -0.43557584
vn 0.90015227 0 -0.43557552
vn 1 0 0
vn -0.51196903 -0.5119691 -0.68976474
vn -0.67693067 -0.6769307 -0.28901502
vn -0.511969 -0.51196915 -0.68976474
vn -0.6769309 -0.67693096 -0.28901395
vn -0.51196927 0.5119691 -0.6897646
vn -0.6769309 0.6769307 -0.28901443
vn -0.5119701 0.51197 -0.68976337
vn -0.6769309 0.67693067 -0.28901464
vn 0.51197094 0.5119713 -0.6897617
vn 0.676931 0.67693126 -0.28901297
vn 0.5119709 0.5119711 -0.68976194
vn 0.676931 0.67693126 -0.28901285
vn 0.5119703 -0.51197 -0.6897632
vn 0.6769311 -0.67693084 -0.28901365
vn 0.5119706 -0.5119703 -0.68976253
vn 0.67693126 -0.6769309 -0.2890133
vn -0.6121162 1.6112115E-07 -0.7907678
vn -0.9001514 4.8134E-07 -0.43557718
vn -0.61211514 -7.004704E-07 -0.7907686
vn -0.9001516 9.838335E-07 -0.43557683
vn -0 -1 1.126983E-07
vn -0 -0.90015185 -0.43557614
vn -0 -1 1.126983E-07
vn -0 -0.90015167 -0.43557662
vn -5.19564E-07 0.6121179 -0.79076654
vn -4.7286062E-07 0.9001521 -0.43557578
vn -1.4009463E-06 0.6121169 -0.7907673
vn -0 0.9001521 -0.43557584
vn 0.6121185 0 -0.79076606
vn 0.9001521 0 -0.43557584
vn 0.61211836 0 -0.79076606
vn 0.90015227 0 -0.43557552
vn -0.70710665 -0.7071069 -5.007681E-07
vn -0.70710665 -0.7071069 -5.5284244E-07
vn -0.7071069 0.70710665 0
vn -0.7071069 0.70710665 -2.6465855E-07
vn 0.70710665 0.7071068 1.0369013E-07
vn 0.70710665 0.7071069 4.5874143E-07
vn 0.7071068 -0.70710665 -2.9753053E-07
vn 0.70710695 -0.7071066 0
vn -1 0 -5.323147E-07
vn -1 0 -5.3231463E-07
vn -1 0 -5.323146E-07
vn -1 0 -5.323147E-07
vn -0 1 2.661573E-07
vn -0 1 2.661573E-07
vn -0 1 2.6615731E-07
vn -0 1 2.661573E-07
vn 1 0 0
vn 1 0 0
vn 1 0 0
vn 1 0 0
vn -0 -1 -7.984721E-07
vn -0 -1 -7.984721E-07
vn -0 -1 -7.984721E-07
vn -0 -1 -7.984721E-07
g obj_wall_block_0
f 3/3/3 11/11/11 9/9/9
f 12/12/12 4/4/4 11/11/11
f 11/11/11 4/4/4 9/9/9
f 10/10/10 2/2/2 4/4/4
f 4/4/4 2/2/2 9/9/9
f 9/9/9 2/2/2 1/1/1
f 14/14/14 6/6/6 5/5/5
f 16/16/16 8/8/8 6/6/6
f 6/6/6 8/8/8 5/5/5
f 15/15/15 7/7/7 8/8/8
f 8/8/8 7/7/7 5/5/5
f 5/5/5 7/7/7 13/13/13
f 19/19/19 18/18/18 41/41/41
f 42/42/42 41/41/41 18/18/18
f 21/21/21 20/20/20 43/43/43
f 44/44/44 43/43/43 20/20/20
f 23/23/23 22/22/22 45/45/45
f 46/46/46 45/45/45 22/22/22
f 17/17/17 24/24/24 47/47/47
f 48/48/48 47/47/47 24/24/24
f 51/51/51 50/50/50 49/49/49
f 52/52/52 49/49/49 50/50/50
f 55/55/55 54/54/54 53/53/53
f 56/56/56 53/53/53 54/54/54
f 59/59/59 58/58/58 57/57/57
f 60/60/60 57/57/57 58/58/58
f 63/63/63 62/62/62 61/61/61
f 64/64/64 61/61/61 62/62/62
f 67/67/67 66/66/66 65/65/65
f 68/68/68 65/65/65 66/66/66
f 71/71/71 70/70/70 69/69/69
f 72/72/72 69/69/69 70/70/70
f 75/75/75 74/74/74 73/73/73
f 76/76/76 73/73/73 74/74/74
f 79/79/79 78/78/78 77/77/77
f 80/80/80 77/77/77 78/78/78
f 83/83/83 82/82/82 81/81/81
f 84/84/84 81/81/81 82/82/82
f 87/87/87 86/86/86 85/85/85
f 88/88/88 85/85/85 86/86/86
f 91/91/91 90/90/90 89/89/89
f 92/92/92 89/89/89 90/90/90
f 95/95/95 94/94/94 93/93/93
f 96/96/96 93/93/93 94/94/94
f 27/27/27 31/31/31 29/29/29
f 32/32/32 28/28/28 31/31/31
f 31/31/31 28/28/28 29/29/29
f 30/30/30 26/26/26 28/28/28
f 28/28/28 26/26/26 29/29/29
f 29/29/29 26/26/26 25/25/25
f 35/35/35 34/34/34 97/97/97
f 98/98/98 97/97/97 34/34/34
f 37/37/37 36/36/36 99/99/99
f 100/100/100 99/99/99 36/36/36
f 39/39/39 38/38/38 101/101/101
f 102/102/102 101/101/101 38/38/38
f 33/33/33 40/40/40 103/103/103
f 104/104/104 103/103/103 40/40/40
f 107/107/107 106/106/106 105/105/105
f 108/108/108 105/105/105 106/106/106
f 111/111/111 110/110/110 109/109/109
f 112/112/112 109/109/109 110/110/110
f 115/115/115 114/114/114 113/113/113
f 116/116/116 113/113/113 114/114/114
f 119/119/119 118/118/118 117/117/117
f 120/120/120 117/117/117 118/118/118
