g obj_outdoor_fence_2_1
v 0.4778097 1.1470171 -0.4324619
v 0.22794361 1.1174777 -0.42046598
v 0.21607737 1.0923582 -0.55926853
v 0.49132758 1.1232737 -0.5712644
v 0.4778097 1.1470171 -0.4324619
v 0.49869993 1.1124007 -0.42077842
v 0.45970303 0.53127736 -0.21694466
v 0.22794361 1.1174777 -0.42046598
v 0.19727004 0.5315237 -0.21694471
v 0.20705439 1.0833315 -0.4087825
v 0.45970303 0.53127736 -0.21694466
v 0.49869993 1.1124007 -0.42077842
v 0.5143401 1.0941013 -0.559581
v 0.47138157 0.5077893 -0.35574722
v 0.47138157 0.5077893 -0.35574722
v 0.5143401 1.0941013 -0.559581
v 0.49132758 1.1232737 -0.5712644
v 0.21607737 1.0923582 -0.55926853
v 0.18228765 0.5078203 -0.35574722
v 0.19306585 1.0635066 -0.54758507
v 0.18228765 0.5078203 -0.35574722
v 0.19306585 1.0635066 -0.54758507
v 0.20705439 1.0833315 -0.4087825
v 0.19727004 0.5315237 -0.21694471
v 0.4778097 1.1470171 -0.4324619
v 0.49132758 1.1232737 -0.5712644
v 0.5143401 1.0941013 -0.559581
v 0.49869993 1.1124007 -0.42077842
v 0.21607737 1.0923582 -0.55926853
v 0.22794361 1.1174777 -0.42046598
v 0.20705439 1.0833315 -0.4087825
v 0.19306585 1.0635066 -0.54758507
v -0.24376167 1.1698962 -0.43802503
v -0.3377402 1.1355231 -0.5742243
v -0.23536076 1.1413664 -0.57682765
v -0.33817205 1.1645765 -0.43542162
v -0.5060126 1.0580283 -0.39655003
v -0.5197481 1.028044 -0.5353528
v -0.5247076 1.0277845 -0.38430643
v -0.5400211 0.9979744 -0.52310896
v -0.1452728 0.54664797 -0.20570868
v -0.21860614 1.1421598 -0.4269906
v -0.20808189 1.1139634 -0.56579316
v -0.12855864 0.5225466 -0.34451127
v -0.42794907 0.5033229 -0.336898
v -0.5400211 0.9979744 -0.52310896
v -0.5247076 1.0277845 -0.38430643
v -0.4213591 0.5275307 -0.19809541
v -0.24376167 1.1698962 -0.43802503
v -0.23536076 1.1413664 -0.57682765
v -0.20808189 1.1139634 -0.56579316
v -0.21860614 1.1421598 -0.4269906
v 0.17636952 1.1892453 -0.53915656
v -0.016884644 1.2150118 -0.7092896
v 0.1933691 1.1615641 -0.6728805
v -0.014103767 1.244021 -0.57556593
v -0.14375365 1.2357217 -0.5691608
v -0.1599985 1.2058088 -0.7028845
v -0.14375365 1.2357217 -0.5691608
v -0.17778641 1.2148579 -0.55572546
v -0.19756551 1.1848488 -0.68944913
v 0.1632042 0.6229754 -0.1578917
v 0.2148881 1.097837 -0.6281391
v 0.17883661 0.59681726 -0.29161596
v 0.19586416 1.1253377 -0.49441516
v 0.17636952 1.1892453 -0.53915656
v 0.1933691 1.1615641 -0.6728805
v -0.15348993 0.59769344 -0.29161596
v -0.19756551 1.1848488 -0.68944913
v -0.17778641 1.2148579 -0.55572546
v -0.13785751 0.62431663 -0.1578917
v 0.48667088 0.89026946 -0.48184782
v -0.4866719 0.89602995 -0.48184782
v -0.4866719 0.8659184 -0.537519
v 0.48667082 0.86172247 -0.537519
v 0.4963042 0.73536307 -0.4361261
v 0.4963042 0.84086096 -0.5316547
v 0.4963042 0.7068424 -0.49179724
v 0.4963042 0.8693912 -0.4759835
v 0.48667088 0.89026946 -0.48184782
v 0.48667082 0.86172247 -0.537519
v -0.4963042 0.71009356 -0.49179724
v 0.4963042 0.7068424 -0.49179724
v 0.4963042 0.84086096 -0.5316547
v 0.48667082 0.86172247 -0.537519
v -0.4866719 0.8659184 -0.537519
v -0.4963042 0.84505147 -0.5316546
v -0.4963042 0.71009356 -0.49179724
v -0.4963042 0.8750966 -0.4759836
v -0.4963042 0.7396147 -0.43612614
v -0.4963042 0.84505147 -0.5316546
v -0.4866719 0.8659184 -0.537519
v -0.4866719 0.89602995 -0.48184782
v 0.48667088 0.89026946 -0.48184782
v 0.4963042 0.8693912 -0.4759835
v 0.4963042 0.73536307 -0.4361261
v -0.4963042 0.7396147 -0.43612614
v -0.4866719 0.89602995 -0.48184782
v -0.4963042 0.8750966 -0.4759836
v 0.35004583 0.5203843 -0.58295715
v 0.3299454 0.7801589 -0.47017276
v 0.31893823 0.853554 -0.5127977
v 0.33658147 0.52036506 -0.6836332
v 0.13825698 0.5203696 -0.6836332
v 0.33658147 0.52036506 -0.6836332
v 0.31893823 0.853554 -0.5127977
v 0.15589984 0.8543034 -0.5127977
v 0.13825698 0.5203696 -0.6836332
v 0.15589984 0.8543034 -0.5127977
v 0.14987169 0.78095955 -0.47017276
v 0.12977187 0.5204155 -0.5829572
v -0.089533895 0.5204515 -0.5759706
v -0.14388263 0.78353006 -0.465698
v -0.15341745 0.85702866 -0.5082332
v -0.10619213 0.5203804 -0.6764558
v -0.29125232 0.5203737 -0.68959385
v -0.10619213 0.5203804 -0.6764558
v -0.15341745 0.85702866 -0.5082332
v -0.30561244 0.8548234 -0.5183258
v -0.29125232 0.5203737 -0.68959385
v -0.30561244 0.8548234 -0.5183258
v -0.32327107 0.78145343 -0.4757906
v -0.30896968 0.5204716 -0.58910865
v -0.1452728 0.54664797 -0.20570868
v -0.24376167 1.1698962 -0.43802503
v -0.21860614 1.1421598 -0.4269906
v -0.33817205 1.1645765 -0.43542162
v -0.4213591 0.5275307 -0.19809541
v -0.5247076 1.0277845 -0.38430643
v -0.5060126 1.0580283 -0.39655003
v -0.42794907 0.5033229 -0.336898
v -0.5197481 1.028044 -0.5353528
v -0.5400211 0.9979744 -0.52310896
v -0.3377402 1.1355231 -0.5742243
v -0.12855864 0.5225466 -0.34451127
v -0.20808189 1.1139634 -0.56579316
v -0.23536076 1.1413664 -0.57682765
v 0.1632042 0.6229754 -0.1578917
v 0.17636952 1.1892453 -0.53915656
v 0.19586416 1.1253377 -0.49441516
v -0.014103767 1.244021 -0.57556593
v -0.13785751 0.62431663 -0.1578917
v -0.17778641 1.2148579 -0.55572546
v -0.14375365 1.2357217 -0.5691608
v -0.15348993 0.59769344 -0.29161596
v -0.1599985 1.2058088 -0.7028845
v -0.19756551 1.1848488 -0.68944913
v -0.016884644 1.2150118 -0.7092896
v 0.17883661 0.59681726 -0.29161596
v 0.2148881 1.097837 -0.6281391
v 0.1933691 1.1615641 -0.6728805
v 0.44327602 1.0014018 -0.33197308
v -0.4445286 1.0104363 -0.33307981
v -0.47143707 1.004189 -0.37834287
v 0.47036234 0.99760854 -0.3775367
v 0.43047777 0.7951298 -0.26073676
v 0.45984635 0.9702801 -0.321572
v 0.48716736 0.96651286 -0.36713877
v 0.45176518 0.79137737 -0.3063058
v -0.45233968 0.7964992 -0.30689862
v -0.4882402 0.97308505 -0.36794388
v -0.4610772 0.97922796 -0.32266816
v -0.4310969 0.8018328 -0.26150465
v 0.44327602 1.0014018 -0.33197308
v 0.47036234 0.99760854 -0.3775367
v 0.48716736 0.96651286 -0.36713877
v 0.45984635 0.9702801 -0.321572
v -0.47143707 1.004189 -0.37834287
v -0.4445286 1.0104363 -0.33307981
v -0.4610772 0.97922796 -0.32266816
v -0.4882402 0.97308505 -0.36794388
v 0.44327602 1.0014018 -0.33197308
v 0.45984635 0.9702801 -0.321572
v 0.43047777 0.7951298 -0.26073676
v -0.4445286 1.0104363 -0.33307981
v 0.41180074 0.7712382 -0.2524084
v -0.4123274 0.7776386 -0.25319254
v -0.4310969 0.8018328 -0.26150465
v -0.4610772 0.97922796 -0.32266816
v 0.43047777 0.7951298 -0.26073676
v 0.45176518 0.79137737 -0.3063058
v 0.431589 0.7674545 -0.29797322
v 0.41180074 0.7712382 -0.2524084
v -0.45233968 0.7964992 -0.30689862
v -0.4310969 0.8018328 -0.26150465
v -0.4123274 0.7776386 -0.25319254
v -0.43207902 0.77234924 -0.29857287
vt 0.27065992 0.27620083
vt 0.27065992 0.25363308
vt 0.25487444 0.25363308
vt 0.25487444 0.27620083
vt 0.2475158 0.27551663
vt 0.2500155 0.2713403
vt 0.2500155 0.21324673
vt 0.22554374 0.27551663
vt 0.22304404 0.21324673
vt 0.22304404 0.2713403
vt 0.27065992 0.21324673
vt 0.27065992 0.24905042
vt 0.25487444 0.24905042
vt 0.25487444 0.21324673
vt 0.5682157 0.09144774
vt 0.5101222 0.09144774
vt 0.50594586 0.08894804
vt 0.5059458 0.06697598
vt 0.5682157 0.06447628
vt 0.5101222 0.06447628
vt 0.25487444 0.21324673
vt 0.25487444 0.24905042
vt 0.27065992 0.24905042
vt 0.27065992 0.21324673
vt 0.27065992 0.25322676
vt 0.25487444 0.25322676
vt 0.25487444 0.24905042
vt 0.27065992 0.24905042
vt 0.25487444 0.25322676
vt 0.27065992 0.25322676
vt 0.27065992 0.24905042
vt 0.25487444 0.24905042
vt 0.27065992 0.27620083
vt 0.25487444 0.26807642
vt 0.25487444 0.27620083
vt 0.27065992 0.26807642
vt 0.27065992 0.25322676
vt 0.25487444 0.25322676
vt 0.27065992 0.24905042
vt 0.25487444 0.24905042
vt 0.27065992 0.21324673
vt 0.27065992 0.24905042
vt 0.25487444 0.24905042
vt 0.25487444 0.21324673
vt 0.25487444 0.21324673
vt 0.25487444 0.24905042
vt 0.27065992 0.24905042
vt 0.27065992 0.21324673
vt 0.27065992 0.25322676
vt 0.25487444 0.25322676
vt 0.25487444 0.24905042
vt 0.27065992 0.24905042
vt 0.27065992 0.27620083
vt 0.25487444 0.26277304
vt 0.25487444 0.27620083
vt 0.27065992 0.26277304
vt 0.27065992 0.25363308
vt 0.25487444 0.25322676
vt 0.27065992 0.25322676
vt 0.27065992 0.24905042
vt 0.25487444 0.24905042
vt 0.27065992 0.21324673
vt 0.25487444 0.24905042
vt 0.25487444 0.21324673
vt 0.27065992 0.24905042
vt 0.27065992 0.25322676
vt 0.25487444 0.25322676
vt 0.25487444 0.21324673
vt 0.25487444 0.24905042
vt 0.27065992 0.24905042
vt 0.27065992 0.21324673
vt 0.27577093 0.25455028
vt 0.27577093 0.2776659
vt 0.28147975 0.27766597
vt 0.28147975 0.25455028
vt 0.28147975 0.21369436
vt 0.27577093 0.24890034
vt 0.27577093 0.21369436
vt 0.28147975 0.24890034
vt 0.28147975 0.2526266
vt 0.27577093 0.2526266
vt 0.47627297 0.06357604
vt 0.5027765 0.06357604
vt 0.5027765 0.088740796
vt 0.500999 0.090549886
vt 0.47805056 0.090549886
vt 0.47627297 0.088740796
vt 0.27577093 0.2136944
vt 0.28147975 0.24890034
vt 0.28147975 0.2136944
vt 0.27577093 0.24890034
vt 0.27577093 0.2526266
vt 0.28147975 0.2526266
vt 0.500999 0.090549886
vt 0.5027765 0.088740796
vt 0.5027765 0.06357604
vt 0.47627297 0.06357604
vt 0.47805056 0.090549886
vt 0.47627297 0.088740796
vt 0.08658755 0.8281126
vt 0.08658755 0.77440083
vt 0.0914787 0.77440083
vt 0.0914787 0.8281126
vt 0.110557765 0.8281126
vt 0.0914787 0.8281126
vt 0.0914787 0.77440083
vt 0.110557765 0.77440083
vt 0.110557765 0.8281126
vt 0.110557765 0.77440083
vt 0.114983335 0.77440083
vt 0.114983335 0.8281126
vt 0.08658755 0.8281126
vt 0.08658755 0.77440083
vt 0.0914787 0.77440083
vt 0.0914787 0.8281126
vt 0.110557765 0.8281126
vt 0.0914787 0.8281126
vt 0.0914787 0.77440083
vt 0.110557765 0.77440083
vt 0.110557765 0.8281126
vt 0.110557765 0.77440083
vt 0.114983335 0.77440083
vt 0.114983335 0.8281126
vt 0.2500155 0.21324673
vt 0.2475158 0.27551663
vt 0.2500155 0.2713403
vt 0.23960584 0.27551663
vt 0.22304404 0.21324673
vt 0.22304404 0.2713403
vt 0.22554374 0.27551663
vt 0.5682157 0.06447628
vt 0.5059458 0.06697598
vt 0.5101222 0.06447628
vt 0.50594586 0.08103809
vt 0.5682157 0.09144774
vt 0.5101222 0.09144774
vt 0.50594586 0.08894804
vt 0.2500155 0.21324673
vt 0.2475158 0.27551663
vt 0.2500155 0.2713403
vt 0.23444241 0.27551663
vt 0.22304404 0.21324673
vt 0.22304404 0.2713403
vt 0.22554374 0.27551663
vt 0.5682157 0.06447628
vt 0.5059458 0.06697598
vt 0.5101222 0.06447628
vt 0.5059458 0.07587466
vt 0.5682157 0.09144774
vt 0.5101222 0.09144774
vt 0.50594586 0.08894804
vt 0.47323388 0.10552157
vt 0.47323388 0.12104897
vt 0.46255606 0.12104903
vt 0.46255606 0.10552157
vt 0.47323388 0.080585815
vt 0.47323388 0.102254756
vt 0.46255606 0.102254756
vt 0.46255606 0.08058611
vt 0.46255606 0.08055893
vt 0.46255606 0.102254756
vt 0.47323388 0.102254756
vt 0.47323388 0.08054391
vt 0.47323388 0.10552157
vt 0.46255606 0.10552157
vt 0.46255606 0.102254756
vt 0.47323388 0.102254756
vt 0.46255606 0.10552157
vt 0.47323388 0.10552157
vt 0.47323388 0.102254756
vt 0.46255606 0.102254756
vt 0.5196894 0.1096587
vt 0.5211093 0.108636364
vt 0.5211093 0.096121535
vt 0.47750086 0.1096587
vt 0.5196894 0.09441449
vt 0.47750086 0.09441449
vt 0.47608095 0.096121535
vt 0.47608095 0.108636364
vt 0.47323388 0.080585815
vt 0.46255606 0.08058611
vt 0.46255606 0.07860372
vt 0.47323388 0.078603484
vt 0.46255606 0.08055893
vt 0.47323388 0.08054391
vt 0.47323388 0.0755013
vt 0.46255606 0.07550169
vn -0.12043885 0.9775685 -0.17278396
vn -0.12043887 0.9775685 -0.17278396
vn -0.12043885 0.9775685 -0.17278396
vn -0.12043885 0.9775685 -0.17278396
vn 0.003509766 0.32914954 0.9442713
vn 0.003509766 0.32914954 0.9442713
vn 0.0035097655 0.32914954 0.9442713
vn 0.003509766 0.32914954 0.9442713
vn 0.003509766 0.32914954 0.9442713
vn 0.0035097655 0.32914954 0.9442713
vn 0.99411315 -0.033846945 0.10292423
vn 0.99411315 -0.033846945 0.10292422
vn 0.99411315 -0.03384694 0.10292423
vn 0.99411315 -0.033846937 0.10292422
vn -0.002018802 -0.3295387 -0.94413984
vn -0.002018802 -0.3295387 -0.94413984
vn -0.0020188028 -0.32953873 -0.94413996
vn -0.0020188028 -0.32953873 -0.94413996
vn -0.0020188026 -0.32953873 -0.94413996
vn -0.002018802 -0.3295387 -0.94413984
vn -0.99407685 0.05159409 0.09565213
vn -0.99407685 0.05159409 0.09565213
vn -0.99407685 0.051594093 0.09565214
vn -0.99407685 0.05159409 0.09565214
vn 0.8236468 0.56710273 0.0006246178
vn 0.8236468 0.56710273 0.0006246178
vn 0.8236468 0.56710273 0.0006246178
vn 0.8236468 0.56710273 0.0006246178
vn -0.82299405 0.56784433 -0.015284608
vn -0.82299405 0.56784433 -0.015284606
vn -0.82299405 0.56784433 -0.015284609
vn -0.82299405 0.5678443 -0.015284608
vn -0.06083116 0.9769569 -0.20458454
vn -0.30295202 0.9350367 -0.18419169
vn -0.060831163 0.9769569 -0.20458457
vn -0.31827235 0.930276 -0.18245359
vn -0.71434116 0.69413143 -0.08887268
vn -0.7053553 0.7027907 -0.09251545
vn -0.84456515 0.5347811 -0.026812153
vn -0.84456515 0.5347811 -0.026812151
vn 0.9859817 0.1523488 0.06804299
vn 0.9859817 0.1523488 0.06804299
vn 0.9859817 0.15234879 0.068042986
vn 0.9859817 0.15234882 0.06804299
vn -0.97911984 -0.17065403 0.110460825
vn -0.97911984 -0.17065401 0.11046082
vn -0.97911984 -0.17065401 0.110460825
vn -0.97911984 -0.17065401 0.110460825
vn 0.7389579 0.6682188 -0.08616806
vn 0.7389579 0.6682188 -0.08616807
vn 0.7389578 0.66821885 -0.08616805
vn 0.7389578 0.66821885 -0.08616806
vn 0.28729713 0.9400066 -0.18397805
vn 0.10191938 0.9743459 -0.20065519
vn 0.28729713 0.9400066 -0.18397802
vn 0.11614226 0.9729619 -0.19963987
vn -0.31390557 0.93454534 -0.16759525
vn -0.3120919 0.9350864 -0.16796453
vn -0.31390557 0.93454534 -0.16759525
vn -0.53307325 0.83808315 -0.11597177
vn -0.53307325 0.83808315 -0.11597175
vn 0.9919869 0.016123028 0.12530844
vn 0.9718308 0.22038887 0.08350869
vn 0.9919869 0.016123028 0.12530844
vn 0.98474544 0.14227842 0.10016675
vn 0.9384386 0.34086487 0.05607174
vn 0.9384386 0.3408649 0.05607174
vn -0.9916534 0.015724404 0.1279705
vn -0.9916534 0.015724404 0.1279705
vn -0.9916534 0.015724404 0.1279705
vn -0.9916534 0.015724404 0.1279705
vn 0.004524965 0.8847215 -0.46609813
vn 0.0045249653 0.8847215 -0.46609813
vn 0.0045249653 0.8847215 -0.46609813
vn 0.0045249653 0.8847215 -0.46609813
vn 1 0 0
vn 0.9824471 0.16600077 -0.085096955
vn 1 0 0
vn 0.9717907 0.2098751 -0.107588254
vn 0.91075975 0.3674667 -0.18837442
vn 0.91075975 0.36746672 -0.18837444
vn -0.0010770136 -0.282351 -0.9593106
vn -0.0010770136 -0.282351 -0.9593106
vn -0.0010770136 -0.28235102 -0.9593106
vn -0.0010770133 -0.282351 -0.9593106
vn -0.0010770134 -0.28235102 -0.9593106
vn -0.0010770136 -0.282351 -0.9593106
vn -1 0 0
vn -0.97089046 0.21073323 -0.113856256
vn -1 0 0
vn -0.98288614 0.16207176 -0.08756512
vn -0.91025174 0.3642859 -0.1968186
vn -0.91025174 0.3642859 -0.19681859
vn 0.001442794 0.2818359 0.95946157
vn 0.0014427939 0.28183588 0.95946157
vn 0.001442794 0.2818359 0.95946157
vn 0.001442794 0.28183588 0.95946157
vn 0.001442794 0.2818359 0.95946157
vn 0.001442794 0.2818359 0.95946157
vn 0.98727304 0.115255944 -0.109580666
vn 0.98727304 0.11525595 -0.10958066
vn 0.98727304 0.115255944 -0.10958066
vn 0.98727304 0.11525595 -0.109580666
vn 0.0009510637 0.45584813 -0.8900571
vn 0.0009510637 0.4558482 -0.8900571
vn 0.0009510637 0.45584813 -0.8900571
vn 0.0009510638 0.45584825 -0.8900571
vn -0.99447775 0.08937908 -0.055001866
vn -0.99447775 0.08937908 -0.05500186
vn -0.99447775 0.08937909 -0.055001866
vn -0.99447775 0.08937908 -0.05500186
vn 0.97672075 0.20065266 -0.075862385
vn 0.97672075 0.20065267 -0.07586238
vn 0.97672075 0.20065269 -0.075862385
vn 0.97672075 0.20065266 -0.07586238
vn 0.058227707 0.45488513 -0.8886445
vn 0.058227714 0.45488513 -0.8886445
vn 0.058227714 0.45488513 -0.8886445
vn 0.0582277 0.45488507 -0.8886445
vn -0.9754754 0.054918427 -0.21314737
vn -0.9754754 0.05491843 -0.2131474
vn -0.9754754 0.054918427 -0.21314736
vn -0.9754754 0.054918427 -0.21314736
vn 0.0014289415 0.34894088 0.9371436
vn -0.0006071334 0.34919077 0.9370514
vn -0.00060713344 0.34919077 0.9370514
vn -0.0001363488 0.34952393 0.9369274
vn 0.0013228495 0.34917527 0.9370564
vn -0.00025867435 0.35034102 0.93662214
vn -0.00025867435 0.35034105 0.93662214
vn -0.00025320917 -0.35167012 -0.93612397
vn 0.0037488623 -0.35317808 -0.9355486
vn 0.0037488614 -0.35317808 -0.9355486
vn 0.0022904559 -0.35181597 -0.93606645
vn -0.00079543365 -0.35126787 -0.93627465
vn 0.0025070382 -0.35108662 -0.9363397
vn 0.002507038 -0.35108662 -0.9363397
vn 0.0011921213 0.55855864 0.8294642
vn -0.0048437957 0.5585699 0.8294433
vn -0.0048437957 0.55856997 0.8294433
vn -0.0008734782 0.5583645 0.8295953
vn 0.0023051936 0.5584988 0.82950217
vn 0.001131696 0.5581467 0.82974154
vn 0.001131696 0.5581468 0.82974154
vn -0.00087659236 -0.5601606 -0.82838356
vn 0.0025569308 -0.560192 -0.8283589
vn 0.0025569303 -0.5601919 -0.8283589
vn 0.0036306884 -0.55998844 -0.82849246
vn 0.00021174371 -0.5600592 -0.82845265
vn 0.00721811 -0.5596467 -0.82869977
vn 0.007218109 -0.5596467 -0.82869977
vn 0.008597509 0.9939102 -0.10985728
vn 0.008597508 0.9939102 -0.10985728
vn 0.008597507 0.9939102 -0.109857276
vn 0.008597509 0.9939102 -0.10985728
vn 0.8823526 0.00029989742 0.47058874
vn 0.8823526 0.00029989742 0.47058874
vn 0.88235265 0.00029989742 0.47058868
vn 0.8823526 0.00029989745 0.47058874
vn -0.8820754 -0.0015216589 0.4711057
vn -0.8820754 -0.0015216589 0.4711057
vn -0.8820754 -0.0015216585 0.47110566
vn -0.8820754 -0.0015216587 0.4711057
vn 0.7449627 0.5335069 0.4005008
vn 0.7449627 0.5335069 0.40050086
vn 0.7449627 0.5335069 0.4005009
vn 0.7449627 0.5335069 0.4005009
vn -0.7570787 0.5319076 0.37934944
vn -0.7570787 0.5319076 0.37934944
vn -0.7570788 0.5319077 0.37934947
vn -0.7570788 0.5319077 0.37934947
vn 0.0018774325 0.32562047 0.9454987
vn 0.0018774326 0.3256205 0.9454987
vn 0.0018774325 0.32562047 0.9454987
vn 0.0018774325 0.32562047 0.9454987
vn 0.0018774326 0.32562047 0.9454987
vn 0.0018774326 0.32562047 0.9454987
vn 0.0018774326 0.32562047 0.9454987
vn 0.0018774326 0.3256205 0.9454987
vn 0.7762896 -0.49462864 0.39079002
vn 0.7762896 -0.49462867 0.39079008
vn 0.7762896 -0.49462867 0.39079002
vn 0.7762896 -0.49462867 0.39079002
vn -0.77421916 -0.48518524 0.40642342
vn -0.77421916 -0.48518524 0.4064235
vn -0.77421916 -0.48518524 0.40642345
vn -0.77421916 -0.48518518 0.40642342
g obj_outdoor_fence_2_1_0
f 3/3/3 2/2/2 1/1/1
f 4/4/4 3/3/3 1/1/1
f 7/7/7 6/6/6 5/5/5
f 5/5/5 8/8/8 7/7/7
f 8/8/8 9/9/9 7/7/7
f 8/8/8 10/10/10 9/9/9
f 13/13/13 12/12/12 11/11/11
f 14/14/14 13/13/13 11/11/11
f 17/17/17 16/16/16 15/15/15
f 15/15/15 18/18/18 17/17/17
f 15/15/15 19/19/19 18/18/18
f 19/19/19 20/20/20 18/18/18
f 23/23/23 22/22/22 21/21/21
f 24/24/24 23/23/23 21/21/21
f 27/27/27 26/26/26 25/25/25
f 28/28/28 27/27/27 25/25/25
f 31/31/31 30/30/30 29/29/29
f 32/32/32 31/31/31 29/29/29
f 35/35/35 34/34/34 33/33/33
f 34/34/34 36/36/36 33/33/33
f 37/37/37 36/36/36 34/34/34
f 38/38/38 37/37/37 34/34/34
f 39/39/39 37/37/37 38/38/38
f 40/40/40 39/39/39 38/38/38
f 43/43/43 42/42/42 41/41/41
f 44/44/44 43/43/43 41/41/41
f 47/47/47 46/46/46 45/45/45
f 48/48/48 47/47/47 45/45/45
f 51/51/51 50/50/50 49/49/49
f 52/52/52 51/51/51 49/49/49
f 55/55/55 54/54/54 53/53/53
f 54/54/54 56/56/56 53/53/53
f 57/57/57 56/56/56 54/54/54
f 58/58/58 57/57/57 54/54/54
f 60/60/60 59/59/59 58/58/58
f 61/61/61 60/60/60 58/58/58
f 64/64/64 63/63/63 62/62/62
f 63/63/63 65/65/65 62/62/62
f 65/65/65 63/63/63 66/66/66
f 63/63/63 67/67/67 66/66/66
f 70/70/70 69/69/69 68/68/68
f 71/71/71 70/70/70 68/68/68
f 74/74/74 73/73/73 72/72/72
f 75/75/75 74/74/74 72/72/72
f 78/78/78 77/77/77 76/76/76
f 77/77/77 79/79/79 76/76/76
f 79/79/79 77/77/77 80/80/80
f 77/77/77 81/81/81 80/80/80
f 84/84/84 83/83/83 82/82/82
f 82/82/82 85/85/85 84/84/84
f 82/82/82 86/86/86 85/85/85
f 82/82/82 87/87/87 86/86/86
f 90/90/90 89/89/89 88/88/88
f 89/89/89 91/91/91 88/88/88
f 91/91/91 89/89/89 92/92/92
f 89/89/89 93/93/93 92/92/92
f 96/96/96 95/95/95 94/94/94
f 94/94/94 97/97/97 96/96/96
f 94/94/94 98/98/98 97/97/97
f 98/98/98 99/99/99 97/97/97
f 102/102/102 101/101/101 100/100/100
f 103/103/103 102/102/102 100/100/100
f 106/106/106 105/105/105 104/104/104
f 107/107/107 106/106/106 104/104/104
f 110/110/110 109/109/109 108/108/108
f 111/111/111 110/110/110 108/108/108
f 114/114/114 113/113/113 112/112/112
f 115/115/115 114/114/114 112/112/112
f 118/118/118 117/117/117 116/116/116
f 119/119/119 118/118/118 116/116/116
f 122/122/122 121/121/121 120/120/120
f 123/123/123 122/122/122 120/120/120
f 126/126/126 125/125/125 124/124/124
f 125/125/125 127/127/127 124/124/124
f 127/127/127 128/128/128 124/124/124
f 129/129/129 128/128/128 127/127/127
f 130/130/130 129/129/129 127/127/127
f 133/133/133 132/132/132 131/131/131
f 132/132/132 134/134/134 131/131/131
f 134/134/134 135/135/135 131/131/131
f 136/136/136 135/135/135 134/134/134
f 137/137/137 136/136/136 134/134/134
f 140/140/140 139/139/139 138/138/138
f 139/139/139 141/141/141 138/138/138
f 141/141/141 142/142/142 138/138/138
f 143/143/143 142/142/142 141/141/141
f 144/144/144 143/143/143 141/141/141
f 147/147/147 146/146/146 145/145/145
f 146/146/146 148/148/148 145/145/145
f 148/148/148 149/149/149 145/145/145
f 150/150/150 149/149/149 148/148/148
f 151/151/151 150/150/150 148/148/148
f 154/154/154 153/153/153 152/152/152
f 155/155/155 154/154/154 152/152/152
f 158/158/158 157/157/157 156/156/156
f 159/159/159 158/158/158 156/156/156
f 162/162/162 161/161/161 160/160/160
f 163/163/163 162/162/162 160/160/160
f 166/166/166 165/165/165 164/164/164
f 167/167/167 166/166/166 164/164/164
f 170/170/170 169/169/169 168/168/168
f 171/171/171 170/170/170 168/168/168
f 174/174/174 173/173/173 172/172/172
f 172/172/172 175/175/175 174/174/174
f 175/175/175 176/176/176 174/174/174
f 175/175/175 177/177/177 176/176/176
f 175/175/175 178/178/178 177/177/177
f 175/175/175 179/179/179 178/178/178
f 182/182/182 181/181/181 180/180/180
f 183/183/183 182/182/182 180/180/180
f 186/186/186 185/185/185 184/184/184
f 187/187/187 186/186/186 184/184/184
