g obj_rock_1
v 0.48395318 0.021718647 -0.0374137
v -0.0650967 0.029919019 -0.009984521
v 0.43934262 0.021719504 -0.23122448
v 0.2841508 0.021693597 0.33806035
v -0.011606676 0.02169796 -0.4257986
v 0.0048380513 0.021697951 0.40279293
v -0.2744738 0.02169362 -0.41288844
v -0.27447426 0.021693597 0.3380605
v -0.4330309 0.021716056 -0.2325112
v -0.4330309 0.021716021 0.15768301
v -0.47402278 0.021732083 -0.037414007
v 0.43934262 0.021719504 -0.23122448
v 0.44300762 -3.5485646E-06 -0.46131563
v 0.59603155 1.091794E-06 -0.2525222
v 0.039343007 -3.1583422E-05 -0.5917184
v 0.61812377 1.4774274E-07 -0.049896024
v -0.011606676 0.02169796 -0.4257986
v 0.48395318 0.021718647 -0.0374137
v -0.2744738 0.02169362 -0.41288844
v -0.3045376 -3.8256654E-05 -0.57190627
v -0.4330309 0.021716056 -0.2325112
v -0.5593745 -3.8281064E-06 -0.36742854
v -0.47402278 0.021732083 -0.037414007
v -0.6170322 2.0756854E-05 -0.049896482
v -0.4330309 0.021716021 0.15768301
v -0.5489771 -3.8665203E-06 0.30874753
v -0.27447426 0.021693597 0.3380605
v -0.33015898 -3.8274662E-05 0.4982316
v 0.0048380513 0.021697951 0.40279293
v 0.029763859 -3.160023E-05 0.60046464
v 0.2841508 0.021693597 0.33806035
v 0.4856242 -2.989245E-05 0.38322276
v 0.32527202 -3.6316917E-05 0.53256965
vt 0.946539 0.922479
vt 0.97517025 0.913527
vt 0.9447363 0.9046106
vt 0.95929176 0.9430279
vt 0.9596863 0.8871032
vt 0.98223454 0.94223076
vt 0.97728765 0.885323
vt 0.99536175 0.9326378
vt 0.9918172 0.8894512
vt 0.99879915 0.9239019
vt 0.99879915 0.900489
vt 0.27517214 0.7538281
vt 0.27380934 0.72744924
vt 0.27672082 0.72744924
vt 0.2663127 0.72744924
vt 0.28060237 0.72744924
vt 0.26593813 0.7538281
vt 0.28060237 0.7538281
vt 0.2615473 0.7538281
vt 0.2612302 0.72744924
vt 0.25684795 0.7538281
vt 0.2565212 0.72744924
vt 0.25076455 0.7538281
vt 0.25076455 0.72744924
vt 0.2549727 0.7538281
vt 0.25567925 0.72744924
vt 0.26060742 0.7538281
vt 0.26020038 0.72744924
vt 0.26619565 0.7538281
vt 0.2660991 0.72744924
vt 0.2716049 0.7538281
vt 0.27421016 0.72744924
vt 0.27056172 0.72744924
vn 0.08747339 0.9961021 0.011356502
vn -0.0018752532 0.9999982 0.00037966072
vn 0.07404519 0.9960466 -0.049076412
vn 0.051175904 0.9969836 0.05834972
vn 0.009775429 0.9970094 -0.076658934
vn -0.0027427236 0.99733573 0.07289541
vn -0.037318073 0.9963163 -0.07720785
vn -0.041632533 0.99678886 0.06840115
vn -0.078681275 0.99623376 -0.03643511
vn -0.08137743 0.99609226 0.03432227
vn -0.09216367 0.9957431 0.001220847
vn 0.07404519 0.9960466 -0.049076412
vn 0.061504617 0.9930347 -0.10049485
vn 0.13660169 0.98926455 -0.051919494
vn 0.018920423 0.99300164 -0.11657518
vn 0.13566144 0.9907218 0.008142545
vn 0.009775429 0.9970094 -0.076658934
vn 0.08747339 0.9961021 0.011356502
vn -0.037318073 0.9963163 -0.07720785
vn -0.04328126 0.99205726 -0.11810655
vn -0.078681275 0.99623376 -0.03643511
vn -0.11169537 0.99120015 -0.07103779
vn -0.09216367 0.9957431 0.001220847
vn -0.14696208 0.9891416 -0.000982298
vn -0.08137743 0.99609226 0.03432227
vn -0.109294474 0.99158657 0.069359034
vn -0.041632533 0.99678886 0.06840115
vn -0.056080557 0.99282324 0.10562644
vn -0.0027427236 0.99733573 0.07289541
vn -2.7931257E-05 0.9937827 0.1113377
vn 0.051175904 0.9969836 0.05834972
vn 0.10957019 0.9917635 0.06632894
vn 0.048824955 0.9937093 0.10078647
g obj_rock_1_0
f 3/3/3 2/2/2 1/1/1
f 1/1/1 2/2/2 4/4/4
f 2/2/2 3/3/3 5/5/5
f 4/4/4 2/2/2 6/6/6
f 5/5/5 7/7/7 2/2/2
f 2/2/2 8/8/8 6/6/6
f 2/2/2 7/7/7 9/9/9
f 10/10/10 8/8/8 2/2/2
f 2/2/2 9/9/9 11/11/11
f 10/10/10 2/2/2 11/11/11
f 14/14/14 13/13/13 12/12/12
f 13/13/13 15/15/15 12/12/12
f 16/16/16 14/14/14 12/12/12
f 15/15/15 17/17/17 12/12/12
f 18/18/18 16/16/16 12/12/12
f 17/17/17 15/15/15 19/19/19
f 15/15/15 20/20/20 19/19/19
f 19/19/19 20/20/20 21/21/21
f 20/20/20 22/22/22 21/21/21
f 21/21/21 22/22/22 23/23/23
f 22/22/22 24/24/24 23/23/23
f 23/23/23 24/24/24 25/25/25
f 24/24/24 26/26/26 25/25/25
f 25/25/25 26/26/26 27/27/27
f 26/26/26 28/28/28 27/27/27
f 27/27/27 28/28/28 29/29/29
f 28/28/28 30/30/30 29/29/29
f 16/16/16 18/18/18 31/31/31
f 29/29/29 30/30/30 31/31/31
f 32/32/32 16/16/16 31/31/31
f 30/30/30 33/33/33 31/31/31
f 33/33/33 32/32/32 31/31/31
