g obj_microwave1
v -0.4920047 1.1276202 -0.054201867
v -0.46869335 1.1276202 -0.11891954
v -0.46869335 1.1758759 -0.054201886
v 0.46054494 1.1276202 -0.11891954
v 0.4865419 1.1276202 -0.054201867
v 0.46054494 1.1758759 -0.054201886
v 0.4432252 1.1535779 0.28008538
v -0.45130688 1.1535779 0.28008538
v -0.46869335 1.1758759 0.23592639
v 0.46054494 1.1758759 0.23592639
v 0.46054494 1.1758759 -0.054201886
v -0.46869335 1.1758759 -0.054201886
v 0.4682512 0.6614126 0.28008518
v 0.4682512 1.1053224 0.28008515
v 0.4865419 1.1276202 0.23592639
v 0.4865419 0.6614126 0.23589873
v 0.4865419 1.1276202 -0.054201867
v 0.4865419 0.6614126 -0.25856504
v 0.46054494 0.6614126 -0.32328272
v 0.46054494 1.1276202 -0.11891954
v -0.46869335 1.1276202 -0.11891954
v -0.46869335 0.6614126 -0.32328272
v -0.4920047 0.6614126 0.23589873
v -0.4920047 0.6614126 -0.25856504
v -0.4920047 1.1276202 -0.054201867
v -0.4920047 1.1276202 0.23592639
v -0.47374755 0.6614126 0.28008518
v -0.47374755 1.1053224 0.28008515
v 0.4682512 1.1053224 0.28008515
v 0.4432252 1.1535779 0.28008538
v 0.46054494 1.1758759 0.23592639
v 0.4865419 1.1276202 0.23592639
v 0.4865419 1.1276202 -0.054201867
v 0.46054494 1.1758759 -0.054201886
v 0.46054494 1.1758759 -0.054201886
v -0.46869335 1.1758759 -0.054201886
v -0.46869335 1.1276202 -0.11891954
v 0.46054494 1.1276202 -0.11891954
v -0.4920047 1.1276202 -0.054201867
v -0.46869335 1.1758759 -0.054201886
v -0.46869335 1.1758759 0.23592639
v -0.4920047 1.1276202 0.23592639
v -0.47374755 1.1053224 0.28008515
v -0.45130688 1.1535779 0.28008538
v 0.4865419 0.6614126 -0.25856504
v 0.4865419 1.1276202 -0.054201867
v 0.46054494 1.1276202 -0.11891954
v 0.46054494 0.6614126 -0.32328272
v -0.46869335 0.6614126 -0.32328272
v -0.46869335 1.1276202 -0.11891954
v -0.4920047 1.1276202 -0.054201867
v -0.4920047 0.6614126 -0.25856504
v 0.38460058 0.7237502 -0.30023393
v 0.38460058 1.0285207 -0.16663714
v -0.20565811 1.0285207 -0.16663714
v -0.20565811 0.7237502 -0.30023393
v -0.26607934 0.7239096 -0.31848928
v -0.26607934 0.8293944 -0.2722498
v -0.42517865 0.8293944 -0.2722498
v -0.42517865 0.7239096 -0.31848928
v -0.43892214 0.7237502 -0.2933618
v -0.42517865 0.7239096 -0.31848928
v -0.42517865 0.8293944 -0.2722498
v -0.43892214 0.82923496 -0.2471223
v -0.43892214 0.82923496 -0.2471223
v -0.42517865 0.8293944 -0.2722498
v -0.26607934 0.8293944 -0.2722498
v -0.25001672 0.82923496 -0.2471223
v -0.25001672 0.82923496 -0.2471223
v -0.26607934 0.8293944 -0.2722498
v -0.26607934 0.7239096 -0.31848928
v -0.25001672 0.7237502 -0.2933618
vt 0.552973 0.38278773
vt 0.55030024 0.38278773
vt 0.55030024 0.38776174
vt 0.55030024 0.38278773
vt 0.552973 0.38278773
vt 0.55030024 0.38776174
vt 0.57519674 0.3883449
vt 0.5780765 0.3883449
vt 0.5780765 0.38285884
vt 0.57519674 0.38285884
vt 0.57519674 0.35204974
vt 0.5780765 0.35204974
vt 0.57137156 0.35204974
vt 0.57137156 0.38278773
vt 0.56946355 0.38276318
vt 0.56955004 0.35204974
vt 0.55892146 0.38278773
vt 0.5547376 0.35204974
vt 0.5072902 0.35204974
vt 0.5072902 0.38278773
vt 0.5466883 0.38278773
vt 0.5466883 0.35204974
vt 0.5695517 0.35204974
vt 0.5547376 0.35204974
vt 0.55892146 0.38278773
vt 0.5694635 0.38276318
vt 0.57137156 0.35204974
vt 0.57137156 0.38278773
vt 0.57137156 0.38278773
vt 0.57137156 0.38776174
vt 0.5694531 0.3877819
vt 0.56946355 0.38276318
vt 0.55892146 0.38278773
vt 0.558833 0.38776174
vt 0.5072902 0.38776174
vt 0.5466883 0.38776174
vt 0.5466883 0.38278773
vt 0.5072902 0.38278773
vt 0.55892146 0.38278773
vt 0.558833 0.38776174
vt 0.5694531 0.38778022
vt 0.5694635 0.38276318
vt 0.57137156 0.38278773
vt 0.57137156 0.38776174
vt 0.552973 0.35204974
vt 0.552973 0.38278773
vt 0.55030024 0.38278773
vt 0.55030024 0.35204974
vt 0.55030024 0.35204974
vt 0.55030024 0.38278773
vt 0.552973 0.38278773
vt 0.552973 0.35204974
vt 0.5104123 0.3561529
vt 0.51040494 0.3762522
vt 0.5354257 0.3762785
vt 0.5354303 0.35616395
vt 0.6905182 0.372752
vt 0.69051987 0.37747654
vt 0.69443965 0.37747505
vt 0.69443816 0.3727498
vt 0.6788225 0.37272185
vt 0.68093514 0.37272185
vt 0.6809329 0.3774469
vt 0.6788225 0.3774469
vt 0.68911535 0.37281534
vt 0.6849548 0.3734169
vt 0.68495804 0.3770836
vt 0.68911535 0.37774554
vt 0.6788225 0.3774469
vt 0.6809329 0.3774469
vt 0.6809303 0.37272185
vt 0.6788225 0.37272185
vn -0.856514 0.41376463 -0.30851686
vn -0.856514 0.41376457 -0.30851686
vn -0.856514 0.41376457 -0.30851683
vn 0.8299985 0.44714788 -0.33340856
vn 0.8299985 0.44714788 -0.33340853
vn 0.8299985 0.44714788 -0.33340856
vn -0 0.8926538 0.4507428
vn -0 0.8926538 0.45074287
vn -0 0.9790412 0.20366241
vn -0 0.979018 0.20377414
vn -0 1 0
vn -0 1 0
vn 0.92392623 -1.1617865E-05 0.38257065
vn 0.92392623 -1.1617865E-05 0.38257065
vn 0.98654604 -4.9646596E-06 0.16348386
vn 0.98079866 -5.92245E-06 0.19502339
vn 1 0 0
vn 1 0 0
vn -0 0.4014739 -0.9158705
vn -0 0.4014739 -0.9158705
vn -0 0.4014739 -0.9158705
vn -0 0.4014739 -0.9158705
vn -0.98086184 -5.91275E-06 0.19470513
vn -1 0 0
vn -1 0 0
vn -0.9865915 -4.9562736E-06 0.16320863
vn -0.9241743 -1.1599586E-05 0.381971
vn -0.9241743 -1.1599586E-05 0.381971
vn 0.760592 0.40210322 0.5097184
vn 0.7605919 0.4021032 0.5097185
vn 0.85521257 0.4570629 0.24434616
vn 0.8467261 0.45194492 0.28071436
vn 0.88037115 0.47428542 0
vn 0.88037115 0.47428542 0
vn -0 0.8016769 -0.5977575
vn -0 0.8016769 -0.5977575
vn -0 0.8016769 -0.5977575
vn -0 0.8016769 -0.5977575
vn -0.90043837 0.4349836 0
vn -0.90043837 0.43498367 0
vn -0.8757693 0.41972005 0.23846017
vn -0.8664683 0.41467208 0.27799228
vn -0.78131574 0.37038803 0.50235295
vn -0.78131574 0.37038803 0.50235295
vn 0.9157881 0.16125664 -0.36787
vn 0.9157881 0.16125664 -0.36787
vn 0.9157881 0.16125664 -0.36787
vn 0.9157881 0.16125664 -0.36787
vn -0.93061507 0.1469392 -0.3352081
vn -0.93061507 0.1469392 -0.33520812
vn -0.93061507 0.1469392 -0.3352081
vn -0.93061507 0.1469392 -0.33520812
vn -0 0.40147376 -0.9158705
vn -0 0.40147376 -0.9158705
vn -0 0.40147376 -0.9158705
vn -0 0.40147376 -0.9158705
vn -0 0.40147403 -0.91587037
vn -0 0.40147403 -0.91587037
vn -0 0.40147403 -0.91587037
vn -0 0.40147403 -0.91587037
vn -0.8591804 0.20542334 -0.46862593
vn -0.8591804 0.20542331 -0.46862593
vn -0.8591804 0.20542334 -0.46862593
vn -0.8591804 0.20542331 -0.46862593
vn -0 0.99997985 0.006344244
vn -0 0.99997985 0.0063442443
vn -0 0.99997985 0.006344244
vn -0 0.99997985 0.006344244
vn 0.8207602 0.22935124 -0.5232119
vn 0.8207602 0.22935124 -0.52321196
vn 0.8207602 0.22935124 -0.5232119
vn 0.8207602 0.22935124 -0.52321196
g obj_microwave1_0
f 3/3/3 2/2/2 1/1/1
f 6/6/6 5/5/5 4/4/4
f 9/9/9 8/8/8 7/7/7
f 10/10/10 9/9/9 7/7/7
f 9/9/9 10/10/10 11/11/11
f 12/12/12 9/9/9 11/11/11
f 15/15/15 14/14/14 13/13/13
f 16/16/16 15/15/15 13/13/13
f 17/17/17 15/15/15 16/16/16
f 18/18/18 17/17/17 16/16/16
f 21/21/21 20/20/20 19/19/19
f 22/22/22 21/21/21 19/19/19
f 25/25/25 24/24/24 23/23/23
f 26/26/26 25/25/25 23/23/23
f 26/26/26 23/23/23 27/27/27
f 28/28/28 26/26/26 27/27/27
f 31/31/31 30/30/30 29/29/29
f 32/32/32 31/31/31 29/29/29
f 31/31/31 32/32/32 33/33/33
f 34/34/34 31/31/31 33/33/33
f 37/37/37 36/36/36 35/35/35
f 38/38/38 37/37/37 35/35/35
f 41/41/41 40/40/40 39/39/39
f 42/42/42 41/41/41 39/39/39
f 41/41/41 42/42/42 43/43/43
f 44/44/44 41/41/41 43/43/43
f 47/47/47 46/46/46 45/45/45
f 48/48/48 47/47/47 45/45/45
f 51/51/51 50/50/50 49/49/49
f 52/52/52 51/51/51 49/49/49
f 55/55/55 54/54/54 53/53/53
f 56/56/56 55/55/55 53/53/53
f 59/59/59 58/58/58 57/57/57
f 60/60/60 59/59/59 57/57/57
f 63/63/63 62/62/62 61/61/61
f 64/64/64 63/63/63 61/61/61
f 67/67/67 66/66/66 65/65/65
f 68/68/68 67/67/67 65/65/65
f 71/71/71 70/70/70 69/69/69
f 72/72/72 71/71/71 69/69/69
