g obj_roof1_8
v 0.59642565 1.4847094 -0.5940744
v 0.5289263 1.4016614 -0.5265752
v 0.46142712 1.4847094 -0.5940744
v 0.46142712 1.4847094 -0.5940744
v 0.5289263 1.4016614 -0.5265752
v 0.46142712 1.4847094 -0.4590758
v 0.46142712 1.4847094 -0.4590758
v 0.5289263 1.4016614 -0.5265752
v 0.59642565 1.4847094 -0.4590758
v 0.59642565 1.4847094 -0.4590758
v 0.5289263 1.4016614 -0.5265752
v 0.59642565 1.4847094 -0.5940744
v 0.1786356 1.4847094 -0.5940744
v 0.11113627 1.4016614 -0.5265752
v 0.043637075 1.4847094 -0.5940744
v 0.043637075 1.4847094 -0.5940744
v 0.11113627 1.4016614 -0.5265752
v 0.043637075 1.4847091 -0.4590758
v 0.043637075 1.4847091 -0.4590758
v 0.11113627 1.4016614 -0.5265752
v 0.1786356 1.4847091 -0.4590758
v 0.1786356 1.4847091 -0.4590758
v 0.11113627 1.4016614 -0.5265752
v 0.1786356 1.4847094 -0.5940744
v -0.50349385 0.935697 -0.58552647
v -0.50349385 0.070645034 -1.5538322
v 1.5155374 0.070645496 -1.5538316
v 1.5155374 0.9356976 -0.58552647
v -0.50349385 0.935697 -0.42147535
v 1.5155374 0.9356976 -0.42147595
v 1.5155368 0.07064535 0.56175435
v -0.5034951 0.070645034 0.56175345
v 1.5155374 1.0218006 -0.43333513
v -0.50349385 1.0217997 -0.43333453
v -0.50349385 1.0217997 -0.5736673
v 1.5155374 1.0218006 -0.5736673
v -0.50349385 1.0217997 -0.5736673
v -0.50349385 0.935697 -0.58552647
v 1.5155374 0.9356976 -0.58552647
v 1.5155374 1.0218006 -0.5736673
v 1.5155374 0.9356976 -0.42147595
v -0.50349385 0.935697 -0.42147535
v -0.50349385 1.0217997 -0.43333453
v 1.5155374 1.0218006 -0.43333513
v -0.50349385 0.070645034 -1.5538322
v -0.50349385 -0.040718842 -1.5538316
v 1.5155374 -0.040718533 -1.5538316
v 1.5155374 0.070645496 -1.5538316
v 1.5155368 0.07064535 0.56175435
v 1.5155368 -0.040718686 0.56175435
v -0.5034951 -0.040718686 0.56175345
v -0.5034951 0.070645034 0.56175345
v 0.44355187 1.12021 -0.61195004
v 0.6143026 1.4501476 -0.61195016
v 0.44355187 1.4501476 -0.61195016
v 0.6143026 1.12021 -0.61195004
v 0.44355187 1.4501476 -0.61195016
v 0.44355187 1.4501473 -0.4411994
v 0.44355187 1.12021 -0.61195004
v 0.44355187 1.1202097 -0.4411994
v 0.44355187 1.4501473 -0.4411994
v 0.6143026 1.4501473 -0.4411994
v 0.44355187 1.1202097 -0.4411994
v 0.6143026 1.1202097 -0.4411994
v 0.6143026 1.4501473 -0.4411994
v 0.6143026 1.4501476 -0.61195016
v 0.6143026 1.12021 -0.61195004
v 0.6143026 1.1202097 -0.4411994
v 0.64478093 1.3858515 -0.6424292
v 0.64478093 1.4847094 -0.64242905
v 0.41307274 1.3858515 -0.6424292
v 0.41307274 1.4847094 -0.64242905
v 0.41307274 1.4847094 -0.64242905
v 0.41307274 1.4847094 -0.4107208
v 0.41307274 1.3858511 -0.41072097
v 0.41307274 1.3858515 -0.6424292
v 0.64478093 1.4847094 -0.4107208
v 0.41307274 1.3858511 -0.41072097
v 0.41307274 1.4847094 -0.4107208
v 0.64478093 1.3858511 -0.41072097
v 0.64478093 1.4847094 -0.64242905
v 0.64478093 1.3858511 -0.41072097
v 0.64478093 1.4847094 -0.4107208
v 0.64478093 1.3858515 -0.6424292
v 0.41307274 1.4847094 -0.64242905
v 0.64478093 1.4847094 -0.64242905
v 0.59642565 1.4847094 -0.5940744
v 0.46142712 1.4847094 -0.5940744
v 0.41307274 1.4847094 -0.64242905
v 0.46142712 1.4847094 -0.4590758
v 0.41307274 1.4847094 -0.4107208
v 0.46142712 1.4847094 -0.5940744
v 0.41307274 1.4847094 -0.4107208
v 0.59642565 1.4847094 -0.4590758
v 0.64478093 1.4847094 -0.4107208
v 0.46142712 1.4847094 -0.4590758
v 0.64478093 1.4847094 -0.64242905
v 0.64478093 1.4847094 -0.4107208
v 0.59642565 1.4847094 -0.4590758
v 0.59642565 1.4847094 -0.5940744
v 0.025762005 1.12021 -0.61195004
v 0.19651268 1.4501476 -0.61195016
v 0.025762005 1.4501476 -0.61195016
v 0.19651268 1.12021 -0.61195004
v 0.025762005 1.4501476 -0.61195016
v 0.025762005 1.4501473 -0.4411994
v 0.025762005 1.12021 -0.61195004
v 0.025762005 1.1202097 -0.4411994
v 0.025762005 1.4501473 -0.4411994
v 0.19651268 1.4501473 -0.4411994
v 0.025762005 1.1202097 -0.4411994
v 0.19651268 1.1202097 -0.4411994
v 0.19651268 1.4501473 -0.4411994
v 0.19651268 1.4501476 -0.61195016
v 0.19651268 1.12021 -0.61195004
v 0.19651268 1.1202097 -0.4411994
v 0.22699086 1.3858515 -0.6424292
v 0.22699086 1.4847094 -0.64242905
v -0.004717316 1.3858515 -0.6424292
v -0.004717316 1.4847094 -0.64242905
v -0.004717316 1.4847094 -0.64242905
v -0.004717316 1.4847094 -0.4107208
v -0.004717316 1.3858508 -0.41072097
v -0.004717316 1.3858515 -0.6424292
v 0.22699086 1.4847094 -0.4107208
v -0.004717316 1.3858508 -0.41072097
v -0.004717316 1.4847094 -0.4107208
v 0.22699086 1.3858508 -0.41072097
v 0.22699086 1.4847094 -0.64242905
v 0.22699086 1.3858508 -0.41072097
v 0.22699086 1.4847094 -0.4107208
v 0.22699086 1.3858515 -0.6424292
v -0.004717316 1.4847094 -0.64242905
v 0.22699086 1.4847094 -0.64242905
v 0.1786356 1.4847094 -0.5940744
v 0.043637075 1.4847094 -0.5940744
v -0.004717316 1.4847094 -0.64242905
v 0.043637075 1.4847091 -0.4590758
v -0.004717316 1.4847094 -0.4107208
v 0.043637075 1.4847094 -0.5940744
v -0.004717316 1.4847094 -0.4107208
v 0.1786356 1.4847091 -0.4590758
v 0.22699086 1.4847094 -0.4107208
v 0.043637075 1.4847091 -0.4590758
v 0.22699086 1.4847094 -0.64242905
v 0.22699086 1.4847094 -0.4107208
v 0.1786356 1.4847091 -0.4590758
v 0.1786356 1.4847094 -0.5940744
v 0.7611424 1.045162 -0.36348236
v 0.7611424 1.045162 -0.674385
v 0.7850921 0.85510796 -0.6743849
v 0.79133826 0.85510516 -0.36348236
v -0.12595059 1.045162 -0.674385
v 0.7850921 0.85510796 -0.6743849
v 0.7611424 1.045162 -0.674385
v -0.14990035 0.85510796 -0.6743849
v -0.12595059 1.0451617 -0.36348265
v -0.14990035 0.85510796 -0.6743849
v -0.12595059 1.045162 -0.674385
v -0.15614676 0.85510516 -0.36348236
v -0.12595059 1.0451617 -0.36348265
v 0.7611424 1.045162 -0.36348236
v 0.79133826 0.85510516 -0.36348236
v -0.15614676 0.85510516 -0.36348236
v 0.794715 1.1607294 -0.34906784
v 0.794715 1.1607298 -0.68879944
v 0.807375 1.0405004 -0.68879944
v 0.807375 1.0404998 -0.34906787
v -0.13961922 1.1607298 -0.70870346
v -0.15175128 1.0405004 -0.70870346
v 0.7869425 1.0405004 -0.70870346
v 0.7748104 1.1607298 -0.70870346
v -0.1595232 1.1607292 -0.34906784
v -0.17218323 1.0404998 -0.34906787
v -0.17218323 1.0405004 -0.68879944
v -0.1595232 1.1607298 -0.68879944
v 0.7748104 1.1607294 -0.32916385
v 0.7869425 1.0404998 -0.32916388
v -0.15175067 1.0404998 -0.32916388
v -0.13961922 1.1607292 -0.32916385
v 0.794715 1.1607298 -0.68879944
v 0.7748104 1.1607298 -0.70870346
v 0.7869425 1.0405004 -0.70870346
v 0.807375 1.0405004 -0.68879944
v 0.7869425 1.0404998 -0.32916388
v 0.7748104 1.1607294 -0.32916385
v 0.794715 1.1607294 -0.34906784
v 0.807375 1.0404998 -0.34906787
v -0.15175128 1.0405004 -0.70870346
v -0.13961922 1.1607298 -0.70870346
v -0.1595232 1.1607298 -0.68879944
v -0.17218323 1.0405004 -0.68879944
v -0.1595232 1.1607292 -0.34906784
v -0.13961922 1.1607292 -0.32916385
v -0.15175067 1.0404998 -0.32916388
v -0.17218323 1.0404998 -0.34906787
v 0.67160726 1.1607294 -0.40777913
v 0.59570533 1.1228628 -0.4390383
v 0.59570533 1.122863 -0.5988292
v 0.67160726 1.1607298 -0.63008827
v 0.67160726 1.1607298 -0.63008827
v 0.59570533 1.122863 -0.5988292
v 0.03948742 1.122863 -0.5988292
v -0.036415473 1.1607298 -0.63008827
v -0.036415473 1.1607298 -0.63008827
v 0.03948742 1.122863 -0.5988292
v 0.03948742 1.1228625 -0.4390383
v -0.036415473 1.1607292 -0.40777913
v -0.036415473 1.1607292 -0.40777913
v 0.03948742 1.1228625 -0.4390383
v 0.59570533 1.1228628 -0.4390383
v 0.67160726 1.1607294 -0.40777913
v 0.03948742 1.1228625 -0.4390383
v 0.03948742 1.122863 -0.5988292
v 0.59570533 1.122863 -0.5988292
v 0.59570533 1.1228628 -0.4390383
v 0.7748104 1.1607294 -0.32916385
v 0.67160726 1.1607294 -0.40777913
v 0.794715 1.1607294 -0.34906784
v -0.13961922 1.1607292 -0.32916385
v 0.794715 1.1607298 -0.68879944
v -0.036415473 1.1607292 -0.40777913
v 0.67160726 1.1607298 -0.63008827
v -0.1595232 1.1607292 -0.34906784
v 0.7748104 1.1607298 -0.70870346
v -0.036415473 1.1607298 -0.63008827
v -0.1595232 1.1607298 -0.68879944
v -0.13961922 1.1607298 -0.70870346
vt 0.2113146 0.92263365
vt 0.21647544 0.9257457
vt 0.22204526 0.92263365
vt 0.2113146 0.92263365
vt 0.21647544 0.9257457
vt 0.22204526 0.92263365
vt 0.2113146 0.92263365
vt 0.21647544 0.9257457
vt 0.22204526 0.92263365
vt 0.2113146 0.92263365
vt 0.21647544 0.9257457
vt 0.22204526 0.92263365
vt 0.2113146 0.92263365
vt 0.21647544 0.9257457
vt 0.22204526 0.92263365
vt 0.2113146 0.92263365
vt 0.21647544 0.9257457
vt 0.22204526 0.92263365
vt 0.2113146 0.92263365
vt 0.21647544 0.9257457
vt 0.22204526 0.92263365
vt 0.2113146 0.92263365
vt 0.21647544 0.9257457
vt 0.22204526 0.92263365
vt 0.2976224 0.4477024
vt 0.38377967 0.4477024
vt 0.38388625 0.55713934
vt 0.29772878 0.55713934
vt 0.27903637 0.44770247
vt 0.27914295 0.5591208
vt 0.19574776 0.5591208
vt 0.19564119 0.44770247
vt 0.2838579 0.5591208
vt 0.28375134 0.44770247
vt 0.291706 0.4477024
vt 0.2918124 0.5591207
vt 0.291706 0.4477024
vt 0.2976224 0.4477024
vt 0.29772878 0.5591207
vt 0.2918124 0.5591207
vt 0.27914295 0.5591208
vt 0.27903637 0.44770247
vt 0.28375134 0.44770247
vt 0.2838579 0.5591208
vt 0.3863047 0.4477024
vt 0.38877624 0.4477024
vt 0.38884577 0.55713934
vt 0.38637424 0.55713934
vt 0.19391443 0.5591208
vt 0.19232205 0.5591208
vt 0.19221547 0.44770247
vt 0.19380786 0.44770247
vt 0.20896965 0.9214668
vt 0.198239 0.93080777
vt 0.20896965 0.93080777
vt 0.198239 0.9214668
vt 0.198239 0.93080777
vt 0.20896965 0.93080777
vt 0.198239 0.9214668
vt 0.20896965 0.9214668
vt 0.198239 0.93080777
vt 0.20896965 0.93080777
vt 0.198239 0.9214668
vt 0.20896965 0.9214668
vt 0.198239 0.93080777
vt 0.20896965 0.93080777
vt 0.20896965 0.9214668
vt 0.198239 0.9214668
vt 0.2113146 0.91472244
vt 0.2113146 0.91900194
vt 0.22204526 0.9147891
vt 0.22204526 0.9190686
vt 0.2113146 0.91900194
vt 0.22204526 0.9190686
vt 0.22204526 0.9147891
vt 0.2113146 0.91472244
vt 0.22204526 0.9190686
vt 0.2113146 0.91472244
vt 0.2113146 0.91900194
vt 0.22204526 0.9147891
vt 0.22204526 0.9190686
vt 0.2113146 0.91472244
vt 0.2113146 0.91900194
vt 0.22204526 0.9147892
vt 0.22204526 0.9190686
vt 0.2113146 0.91900194
vt 0.2113146 0.921643
vt 0.22204526 0.921643
vt 0.2113146 0.91900194
vt 0.22204526 0.921643
vt 0.22204526 0.9190686
vt 0.2113146 0.921643
vt 0.2113146 0.91900194
vt 0.22204526 0.921643
vt 0.22204526 0.9190686
vt 0.2113146 0.921643
vt 0.22204526 0.9190686
vt 0.2113146 0.91900194
vt 0.2113146 0.921643
vt 0.22204526 0.921643
vt 0.20896965 0.9214668
vt 0.198239 0.93080777
vt 0.20896965 0.93080777
vt 0.198239 0.9214668
vt 0.198239 0.93080777
vt 0.20896965 0.93080777
vt 0.198239 0.9214668
vt 0.20896965 0.9214668
vt 0.198239 0.93080777
vt 0.20896965 0.93080777
vt 0.198239 0.9214668
vt 0.20896965 0.9214668
vt 0.198239 0.93080777
vt 0.20896965 0.93080777
vt 0.20896965 0.9214668
vt 0.198239 0.9214668
vt 0.2113146 0.91472244
vt 0.2113146 0.91900194
vt 0.22204526 0.9147891
vt 0.22204526 0.9190686
vt 0.2113146 0.91900194
vt 0.22204526 0.9190686
vt 0.22204526 0.9147891
vt 0.2113146 0.91472244
vt 0.22204526 0.9190686
vt 0.2113146 0.91472244
vt 0.2113146 0.91900194
vt 0.22204526 0.9147891
vt 0.22204526 0.9190686
vt 0.2113146 0.91472244
vt 0.2113146 0.91900194
vt 0.22204526 0.9147892
vt 0.22204526 0.9190686
vt 0.2113146 0.91900194
vt 0.2113146 0.921643
vt 0.22204526 0.921643
vt 0.2113146 0.91900194
vt 0.22204526 0.921643
vt 0.22204526 0.9190686
vt 0.2113146 0.921643
vt 0.2113146 0.91900194
vt 0.22204526 0.921643
vt 0.22204526 0.9190686
vt 0.2113146 0.921643
vt 0.22204526 0.9190686
vt 0.2113146 0.91900194
vt 0.2113146 0.921643
vt 0.22204526 0.921643
vt 0.48869738 0.8224821
vt 0.48605597 0.8224821
vt 0.48605597 0.8149533
vt 0.48869738 0.8149533
vt 0.4692731 0.822482
vt 0.48386773 0.8149533
vt 0.48386773 0.8224821
vt 0.4692731 0.8149533
vt 0.46386003 0.822482
vt 0.46716917 0.8149532
vt 0.46716917 0.822482
vt 0.46386003 0.8149532
vt 0.4692731 0.822482
vt 0.48386773 0.8224821
vt 0.48386773 0.8149533
vt 0.4692731 0.8149532
vt 0.48509833 0.82633674
vt 0.4879437 0.82633674
vt 0.4879437 0.82279086
vt 0.48509833 0.82279086
vt 0.46929598 0.82633674
vt 0.46929598 0.82279086
vt 0.4833892 0.82279086
vt 0.4833892 0.82633674
vt 0.4879437 0.82633674
vt 0.4879437 0.82279086
vt 0.48509833 0.82279086
vt 0.48509833 0.82633674
vt 0.4833892 0.82633674
vt 0.4833892 0.82279086
vt 0.46929598 0.82279086
vt 0.46929598 0.82633674
vt 0.48509833 0.82633674
vt 0.4833892 0.82633674
vt 0.4833892 0.82279086
vt 0.48509833 0.82279086
vt 0.4833892 0.82279086
vt 0.4833892 0.82633674
vt 0.48509833 0.82633674
vt 0.48509833 0.82279086
vt 0.4833892 0.82279086
vt 0.4833892 0.82633674
vt 0.48509833 0.82633674
vt 0.48509833 0.82279086
vt 0.48509833 0.82633674
vt 0.4833892 0.82633674
vt 0.4833892 0.82279086
vt 0.48509833 0.82279086
vt 0.4833892 0.83533996
vt 0.4833892 0.8423461
vt 0.48509833 0.84234595
vt 0.48509833 0.83533996
vt 0.4691891 0.8353401
vt 0.4691891 0.8423461
vt 0.4833892 0.8423461
vt 0.4833892 0.8353401
vt 0.4833892 0.8353401
vt 0.4833892 0.8423461
vt 0.48509833 0.8423462
vt 0.48509833 0.8353401
vt 0.4691891 0.83533996
vt 0.4691891 0.84234613
vt 0.4833892 0.8423461
vt 0.4833892 0.83533996
vt 0.4339751 0.8211686
vt 0.4339751 0.8159905
vt 0.43785465 0.8159905
vt 0.43785465 0.8211686
vt 0.4978237 0.8454476
vt 0.4939522 0.8483966
vt 0.49857017 0.8461943
vt 0.46531302 0.8454476
vt 0.49857017 0.8584076
vt 0.46918446 0.8483966
vt 0.4939522 0.85620534
vt 0.46456635 0.8461943
vt 0.4978237 0.85915434
vt 0.46918446 0.85620534
vt 0.46456635 0.8584076
vt 0.46531302 0.85915434
vn -0 0.63072044 0.7760101
vn -0 0.63072044 0.7760101
vn -0 0.6307204 0.7760101
vn 0.77601016 0.6307203 0
vn 0.7760101 0.6307204 0
vn 0.7760101 0.6307204 0
vn -0 0.63072157 -0.77600926
vn -0 0.63072157 -0.77600926
vn -0 0.6307215 -0.77600926
vn -0.7760096 0.63072103 0
vn -0.7760096 0.63072103 0
vn -0.7760096 0.63072103 0
vn -0 0.63072044 0.7760101
vn -0 0.63072044 0.7760101
vn -0 0.6307204 0.7760101
vn 0.7760096 0.6307211 1.4357793E-06
vn 0.7760096 0.63072103 1.4357792E-06
vn 0.7760096 0.6307211 1.4357793E-06
vn -0 0.6307229 -0.7760081
vn -0 0.63072294 -0.7760081
vn -0 0.6307229 -0.7760081
vn -0.7760091 0.63072175 1.4357806E-06
vn -0.7760091 0.63072175 1.4357807E-06
vn -0.7760091 0.63072175 1.4357806E-06
vn -0 0.74574876 -0.6662272
vn -0 0.74574876 -0.66622734
vn -0 0.74574876 -0.6662272
vn -0 0.74574876 -0.6662272
vn -2.2471292E-07 0.75078547 0.6605461
vn -2.247129E-07 0.7507854 0.6605462
vn -2.2471289E-07 0.75078547 0.66054606
vn -2.2471289E-07 0.75078547 0.6605461
vn -4.5662296E-07 1 0
vn -4.5662296E-07 1 0
vn -4.5662296E-07 1 0
vn -4.5662296E-07 1 0
vn -0 0.13644452 -0.99064773
vn -0 0.13644451 -0.99064773
vn -0 0.13644451 -0.99064773
vn -0 0.13644452 -0.99064773
vn 2.4950327E-07 0.13644452 0.99064773
vn 2.4950324E-07 0.13644451 0.99064773
vn 2.4950327E-07 0.13644452 0.99064773
vn 2.4950327E-07 0.13644452 0.99064773
vn 1.522082E-07 -2.759529E-06 -1
vn 1.5220819E-07 -2.7595288E-06 -1
vn 1.5220819E-07 -2.759529E-06 -1
vn 1.5220819E-07 -2.7595288E-06 -1
vn -4.566228E-07 0 1
vn -4.5662276E-07 0 1
vn -4.5662276E-07 0 1
vn -4.566228E-07 0 1
vn -0 -2.328562E-07 -1
vn -0 -2.328562E-07 -1
vn -0 -2.328562E-07 -1
vn -0 -2.328562E-07 -1
vn -1 0 0
vn -1 0 0
vn -1 0 0
vn -1 0 0
vn -0 0 1
vn -0 0 1
vn -0 0 1
vn -0 0 1
vn 1 0 0
vn 1 0 0
vn 1 0 0
vn 1 0 0
vn -0 1.165733E-06 -1
vn -0 1.1657331E-06 -1
vn -0 1.1657331E-06 -1
vn -0 1.165733E-06 -1
vn -1 0 0
vn -1 0 0
vn -1 0 0
vn -1 0 0
vn -0 -1.5543059E-06 1
vn -0 -1.554306E-06 1
vn -0 -1.554306E-06 1
vn -0 -1.554306E-06 1
vn 1 0 0
vn 1 0 0
vn 1 0 0
vn 1 0 0
vn -0 1 0
vn -0 1 0
vn -0 1 0
vn -0 1 0
vn -0 1 0
vn -0 1 0
vn -0 1 0
vn -0 1 0
vn -0 1 0
vn -0 1 0
vn -0 1 0
vn -0 1 0
vn -0 1 0
vn -0 1 0
vn -0 1 0
vn -0 1 0
vn -0 -2.328562E-07 -1
vn -0 -2.328562E-07 -1
vn -0 -2.328562E-07 -1
vn -0 -2.328562E-07 -1
vn -1 0 0
vn -1 0 0
vn -1 0 0
vn -1 0 0
vn -0 0 1
vn -0 0 1
vn -0 0 1
vn -0 0 1
vn 1 0 0
vn 1 0 0
vn 1 0 0
vn 1 0 0
vn -0 1.165733E-06 -1
vn -0 1.1657331E-06 -1
vn -0 1.1657331E-06 -1
vn -0 1.165733E-06 -1
vn -1 0 0
vn -1 0 0
vn -1 0 0
vn -1 0 0
vn -0 -1.5543012E-06 1
vn -0 -1.554301E-06 1
vn -0 -1.554301E-06 1
vn -0 -1.554301E-06 1
vn 1 0 0
vn 1 0 0
vn 1 0 0
vn 1 0 0
vn -0 1 0
vn -0 1 0
vn -0 1 0
vn -0 1 0
vn 6.3554107E-06 1 0
vn 6.3554107E-06 1 0
vn 6.3554107E-06 1 0
vn -2.27642E-06 1 2.276409E-06
vn -0 1 -6.35533E-06
vn -0 1 -6.35533E-06
vn -0 1 -6.35533E-06
vn -0 1 -6.3553293E-06
vn -6.3552943E-06 1 0
vn -6.355294E-06 1 0
vn -6.3552943E-06 1 0
vn 2.2763784E-06 1 2.276409E-06
vn 0.99215335 0.12502666 0
vn 0.99215335 0.12502666 0
vn 0.99215335 0.12502666 0
vn 0.98741853 0.15687917 -0.019836107
vn -0 -4.042429E-07 -1
vn -0 -4.0424294E-07 -1
vn -0 -4.0424294E-07 -1
vn -0 -4.0424297E-07 -1
vn -0.99215335 0.12502669 1.2358286E-07
vn -0.99215335 0.12502669 1.2358284E-07
vn -0.99215335 0.12502669 1.2358286E-07
vn -0.9874183 0.15688099 -0.019837083
vn -3.464259E-07 0 1
vn -3.4642588E-07 0 1
vn -3.464259E-07 0 1
vn -0 1.616951E-06 1
vn 0.9945017 0.10471985 1.4186476E-07
vn 0.9945017 0.104719855 1.4186477E-07
vn 0.9945017 0.10471985 1.4186476E-07
vn 0.9945017 0.104719855 1.4186476E-07
vn -0 0 -1
vn -0 0 -1
vn -0 0 -1
vn -0 0 -1
vn -0.9945017 0.104719974 1.8954569E-07
vn -0.9945017 0.10471998 1.895457E-07
vn -0.9945017 0.10471996 1.8954569E-07
vn -0.9945017 0.10471997 1.8954567E-07
vn -0 -3.195056E-07 1
vn -0 -3.195056E-07 1
vn -0 -3.1950557E-07 1
vn -0 -3.1950555E-07 1
vn 0.7005877 0.072232895 -0.709901
vn 0.7005876 0.07223289 -0.709901
vn 0.7005876 0.07223289 -0.709901
vn 0.7005877 0.0722329 -0.709901
vn 0.70058763 0.072232485 0.70990103
vn 0.7005877 0.072232485 0.709901
vn 0.7005877 0.07223249 0.709901
vn 0.7005877 0.07223249 0.709901
vn -0.7005984 0.072234005 -0.7098901
vn -0.7005985 0.07223401 -0.70989025
vn -0.7005984 0.072234005 -0.7098901
vn -0.7005985 0.072234005 -0.7098901
vn -0.7053138 0.071167715 0.7053138
vn -0.7053138 0.071167715 0.7053138
vn -0.7053138 0.07116772 0.7053138
vn -0.69590497 0.07327783 0.71438557
vn -0.44641852 0.89482427 1.4441501E-06
vn -0.44641855 0.89482427 1.4441503E-06
vn -0.44641855 0.89482427 1.4441501E-06
vn -0.44641852 0.89482427 1.4441501E-06
vn -0 0.63661367 0.7711829
vn -0 0.63661367 0.7711829
vn -0 0.63661367 0.7711829
vn -0 0.63661367 0.77118295
vn 0.4464139 0.8948266 2.8793186E-06
vn 0.44641387 0.8948266 2.8793186E-06
vn 0.44641387 0.8948266 2.8793186E-06
vn 0.44641387 0.8948266 2.8793186E-06
vn -3.1001443E-07 0.63661504 -0.7711818
vn -3.1001443E-07 0.63661504 -0.7711818
vn -3.100144E-07 0.63661504 -0.77118176
vn -3.1001443E-07 0.63661504 -0.7711818
vn -2.7625146E-07 1 2.88482E-06
vn -2.7625146E-07 1 2.88482E-06
vn -2.7625146E-07 1 2.88482E-06
vn -2.7625146E-07 1 2.88482E-06
vn -0 1 0
vn -0 1 0
vn -0 1 0
vn -3.7882413E-07 1 0
vn -0 1 1.0935576E-06
vn -3.7882407E-07 1 0
vn -0 1 0
vn -0 1 2.1871151E-06
vn -0 1 0
vn -0 1 0
vn -0 1 0
vn -0 1 0
g obj_roof1_8_0
f 3/3/3 2/2/2 1/1/1
f 6/6/6 5/5/5 4/4/4
f 9/9/9 8/8/8 7/7/7
f 12/12/12 11/11/11 10/10/10
f 15/15/15 14/14/14 13/13/13
f 18/18/18 17/17/17 16/16/16
f 21/21/21 20/20/20 19/19/19
f 24/24/24 23/23/23 22/22/22
f 27/27/27 26/26/26 25/25/25
f 28/28/28 27/27/27 25/25/25
f 31/31/31 30/30/30 29/29/29
f 32/32/32 31/31/31 29/29/29
f 35/35/35 34/34/34 33/33/33
f 36/36/36 35/35/35 33/33/33
f 39/39/39 38/38/38 37/37/37
f 40/40/40 39/39/39 37/37/37
f 43/43/43 42/42/42 41/41/41
f 44/44/44 43/43/43 41/41/41
f 47/47/47 46/46/46 45/45/45
f 48/48/48 47/47/47 45/45/45
f 51/51/51 50/50/50 49/49/49
f 52/52/52 51/51/51 49/49/49
f 55/55/55 54/54/54 53/53/53
f 56/56/56 53/53/53 54/54/54
f 59/59/59 58/58/58 57/57/57
f 59/59/59 60/60/60 58/58/58
f 63/63/63 62/62/62 61/61/61
f 63/63/63 64/64/64 62/62/62
f 67/67/67 66/66/66 65/65/65
f 65/65/65 68/68/68 67/67/67
f 71/71/71 70/70/70 69/69/69
f 70/70/70 71/71/71 72/72/72
f 75/75/75 74/74/74 73/73/73
f 73/73/73 76/76/76 75/75/75
f 79/79/79 78/78/78 77/77/77
f 78/78/78 80/80/80 77/77/77
f 83/83/83 82/82/82 81/81/81
f 82/82/82 84/84/84 81/81/81
f 87/87/87 86/86/86 85/85/85
f 85/85/85 88/88/88 87/87/87
f 91/91/91 90/90/90 89/89/89
f 90/90/90 92/92/92 89/89/89
f 95/95/95 94/94/94 93/93/93
f 94/94/94 96/96/96 93/93/93
f 99/99/99 98/98/98 97/97/97
f 97/97/97 100/100/100 99/99/99
f 103/103/103 102/102/102 101/101/101
f 104/104/104 101/101/101 102/102/102
f 107/107/107 106/106/106 105/105/105
f 107/107/107 108/108/108 106/106/106
f 111/111/111 110/110/110 109/109/109
f 111/111/111 112/112/112 110/110/110
f 115/115/115 114/114/114 113/113/113
f 113/113/113 116/116/116 115/115/115
f 119/119/119 118/118/118 117/117/117
f 118/118/118 119/119/119 120/120/120
f 123/123/123 122/122/122 121/121/121
f 121/121/121 124/124/124 123/123/123
f 127/127/127 126/126/126 125/125/125
f 126/126/126 128/128/128 125/125/125
f 131/131/131 130/130/130 129/129/129
f 130/130/130 132/132/132 129/129/129
f 135/135/135 134/134/134 133/133/133
f 133/133/133 136/136/136 135/135/135
f 139/139/139 138/138/138 137/137/137
f 138/138/138 140/140/140 137/137/137
f 143/143/143 142/142/142 141/141/141
f 142/142/142 144/144/144 141/141/141
f 147/147/147 146/146/146 145/145/145
f 145/145/145 148/148/148 147/147/147
f 151/151/151 150/150/150 149/149/149
f 149/149/149 152/152/152 151/151/151
f 155/155/155 154/154/154 153/153/153
f 154/154/154 156/156/156 153/153/153
f 159/159/159 158/158/158 157/157/157
f 158/158/158 160/160/160 157/157/157
f 163/163/163 162/162/162 161/161/161
f 161/161/161 164/164/164 163/163/163
f 167/167/167 166/166/166 165/165/165
f 168/168/168 167/167/167 165/165/165
f 171/171/171 170/170/170 169/169/169
f 172/172/172 171/171/171 169/169/169
f 175/175/175 174/174/174 173/173/173
f 176/176/176 175/175/175 173/173/173
f 179/179/179 178/178/178 177/177/177
f 180/180/180 179/179/179 177/177/177
f 183/183/183 182/182/182 181/181/181
f 184/184/184 183/183/183 181/181/181
f 187/187/187 186/186/186 185/185/185
f 188/188/188 187/187/187 185/185/185
f 191/191/191 190/190/190 189/189/189
f 192/192/192 191/191/191 189/189/189
f 195/195/195 194/194/194 193/193/193
f 196/196/196 195/195/195 193/193/193
f 199/199/199 198/198/198 197/197/197
f 200/200/200 199/199/199 197/197/197
f 203/203/203 202/202/202 201/201/201
f 204/204/204 203/203/203 201/201/201
f 207/207/207 206/206/206 205/205/205
f 208/208/208 207/207/207 205/205/205
f 211/211/211 210/210/210 209/209/209
f 212/212/212 211/211/211 209/209/209
f 215/215/215 214/214/214 213/213/213
f 216/216/216 215/215/215 213/213/213
f 219/219/219 218/218/218 217/217/217
f 217/217/217 218/218/218 220/220/220
f 218/218/218 219/219/219 221/221/221
f 218/218/218 222/222/222 220/220/220
f 223/223/223 218/218/218 221/221/221
f 220/220/220 222/222/222 224/224/224
f 225/225/225 223/223/223 221/221/221
f 222/222/222 226/226/226 224/224/224
f 226/226/226 223/223/223 225/225/225
f 226/226/226 227/227/227 224/224/224
f 228/228/228 226/226/226 225/225/225
f 227/227/227 226/226/226 228/228/228
