g obj_book2
v 0.09087923 0.5229697 -0.08853726
v 0.08972863 0.37929958 -0.09035466
v -0.0026496442 0.37539434 0.35330808
v -0.0014987222 0.5190646 0.3551237
v -0.34620172 0.3783602 0.27868813
v -0.25382274 0.3822643 -0.16497365
v -0.2526714 0.52593404 -0.1631576
v -0.34504938 0.52202994 0.28050348
v -0.25382274 0.3822643 -0.16497365
v 0.08972863 0.37929958 -0.09035466
v 0.09087923 0.5229697 -0.08853726
v -0.2526714 0.52593404 -0.1631576
v -0.0014987222 0.5190646 0.3551237
v -0.0026496442 0.37539434 0.35330808
v -0.34620172 0.3783602 0.27868813
v -0.34504938 0.52202994 0.28050348
v -0.15235904 0.37776455 0.4248388
v -0.15236025 0.2271686 0.42483807
v -0.46160817 0.22716868 0.03265477
v -0.4616073 0.37776402 0.032654908
v -0.11480817 0.2271689 -0.23599826
v 0.19444096 0.22716898 0.15618584
v 0.1944418 0.3777649 0.15618612
v -0.11480766 0.3777644 -0.2359984
v -0.11480766 0.3777644 -0.2359984
v 0.1944418 0.3777649 0.15618612
v -0.15235904 0.37776455 0.4248388
v -0.4616073 0.37776402 0.032654908
v -0.4616073 0.37776402 0.032654908
v -0.46160817 0.22716868 0.03265477
v -0.11480817 0.2271689 -0.23599826
v -0.11480766 0.3777644 -0.2359984
v 0.19444096 0.22716898 0.15618584
v -0.15236025 0.2271686 0.42483807
v -0.15235904 0.37776455 0.4248388
v 0.1944418 0.3777649 0.15618612
v -0.34504938 0.52202994 0.28050348
v -0.2526714 0.52593404 -0.1631576
v 0.09087923 0.5229697 -0.08853726
v -0.0014987222 0.5190646 0.3551237
v -0.35223553 0.6578667 0.03504999
v -0.35223636 0.52822906 0.035050303
v -0.06001162 0.5282289 -0.12934957
v -0.06001158 0.6578674 -0.12934956
v 0.09050362 0.5282287 0.12788914
v -0.20172079 0.5282289 0.29228804
v -0.20172037 0.65786666 0.29228866
v 0.090504155 0.6578665 0.12788987
v 0.090504155 0.6578665 0.12788987
v -0.20172037 0.65786666 0.29228866
v -0.35223553 0.6578667 0.03504999
v -0.06001158 0.6578674 -0.12934956
v -0.20172079 0.5282289 0.29228804
v -0.35223636 0.52822906 0.035050303
v -0.35223553 0.6578667 0.03504999
v -0.20172037 0.65786666 0.29228866
v 0.09050362 0.5282287 0.12788914
v 0.090504155 0.6578665 0.12788987
v -0.06001158 0.6578674 -0.12934956
v -0.06001162 0.5282289 -0.12934957
v 0.22150408 0.21339315 -0.14449728
v 0.22150408 0.032176994 -0.14449725
v 0.12742111 0.032176975 0.39777306
v 0.12742022 0.21339306 0.39777306
v -0.45915356 0.032177128 0.2925476
v -0.36501357 0.032177165 -0.25003985
v -0.36501357 0.21339326 -0.25003892
v -0.45915356 0.21339315 0.29254767
v -0.45915356 0.21339315 0.29254767
v -0.36501357 0.21339326 -0.25003892
v 0.22150408 0.21339315 -0.14449728
v 0.12742022 0.21339306 0.39777306
v -0.36501357 0.032177165 -0.25003985
v 0.22150408 0.032176994 -0.14449725
v 0.22150408 0.21339315 -0.14449728
v -0.36501357 0.21339326 -0.25003892
v -0.45915356 0.032177128 0.2925476
v -0.45915356 0.21339315 0.29254767
v 0.12742022 0.21339306 0.39777306
v 0.12742111 0.032176975 0.39777306
v -0.43274423 0.027199844 -0.1382761
v -0.17505637 0.027199844 -0.23206681
v -0.0046361857 0.027199825 0.23615876
v -0.48495296 0.027199768 0.056022827
v -0.3708719 0.027199844 0.36945763
v -0.48876646 0.034415685 -0.118327096
v -0.5209009 0.034610137 -0.041420434
v -0.53902155 0.056103613 -0.09782725
v 0.17944708 0.22000793 -0.15348376
v 0.17944694 0.22000793 0.34479123
v -0.21029292 0.22000793 0.34479102
v -0.21029292 0.22000793 -0.15348361
v 0.44698974 0.1282536 -0.017699186
v 0.25130555 0.32967538 -0.013209567
v 0.3951266 0.096722074 -0.0092346165
v 0.29453045 0.35793844 -0.020477898
v 0.09929549 0.53941435 -0.04957596
v 0.48868525 0.15379661 0.019228794
v 0.14733867 0.5731776 -0.058071695
v 0.3278145 0.38312715 0.010789968
v 0.49578854 0.15838858 0.07991735
v 0.18247361 0.60572094 -0.023046907
v 0.33166057 0.39048654 0.06227819
v 0.4641388 0.13933957 0.1288162
v 0.18411888 0.6179809 0.03498108
v 0.30381587 0.37570548 0.10382586
v 0.15131058 0.6027757 0.08202021
v 0.3951266 0.096722074 -0.0092346165
v 0.22346093 0.31489444 0.028338201
v 0.36347657 0.07767298 0.039664097
v 0.25130555 0.32967538 -0.013209567
v 0.06648736 0.524209 -0.002536713
v 0.09929549 0.53941435 -0.04957596
v 0.4122755 0.107807994 0.13728055
v 0.30381587 0.37570548 0.10382586
v 0.4641388 0.13933957 0.1288162
v 0.2605911 0.34744242 0.11109419
v 0.15131058 0.6027757 0.08202021
v 0.10326765 0.56901234 0.09051608
v 0.09929549 0.53941435 -0.04957596
v 0.14733867 0.5731776 -0.058071695
v 0.18247361 0.60572094 -0.023046907
v 0.06648736 0.524209 -0.002536713
v 0.18411888 0.6179809 0.03498108
v 0.068132624 0.53646916 0.055491313
v 0.15131058 0.6027757 0.08202021
v 0.10326765 0.56901234 0.09051608
v 0.23310314 0.17385441 0.32934967
v 0.33500314 0.12806603 0.067688264
v 0.2739631 0.12876129 0.3365388
v 0.3012429 0.16651776 0.057602543
v 0.42708617 0.12718801 -0.1791448
v 0.17324914 0.17643653 0.3164864
v 0.3902284 0.1708439 -0.19514202
v 0.251319 0.16879264 0.04268799
v 0.12946282 0.13499512 0.30548385
v 0.33498153 0.17334373 -0.21663319
v 0.21447644 0.13355808 0.031681433
v 0.2937098 0.13322316 -0.23102845
v 0.12739399 0.073805995 0.30278733
v 0.21447644 0.13355808 0.031681433
v 0.12946282 0.13499512 0.30548385
v 0.21229678 0.08145418 0.031030744
v 0.2937098 0.13322316 -0.23102845
v 0.29058862 0.073984295 -0.22989538
v 0.42396507 0.067949 -0.17801201
v 0.42708617 0.12718801 -0.1791448
v 0.3902284 0.1708439 -0.19514202
v 0.38269284 0.02782849 -0.19240777
v 0.33498153 0.17334373 -0.21663319
v 0.32744646 0.030328397 -0.2138985
v 0.2937098 0.13322316 -0.23102845
v 0.29058862 0.073984295 -0.22989538
vt 0.33673602 0.36015832
vt 0.32771555 0.36015832
vt 0.32771552 0.33009434
vt 0.336736 0.33009434
vt 0.30052012 0.32793373
vt 0.30052012 0.36270648
vt 0.3069281 0.36270648
vt 0.3069281 0.32793373
vt 0.30729038 0.37292063
vt 0.3365389 0.37292063
vt 0.3365389 0.363019
vt 0.30729038 0.363019
vt 0.3365389 0.363019
vt 0.3365389 0.37292063
vt 0.30729038 0.37292063
vt 0.30729038 0.363019
vt 0.33666348 0.31429887
vt 0.32786465 0.31429887
vt 0.32786465 0.28430486
vt 0.33666348 0.28430486
vt 0.3005196 0.28207606
vt 0.3005196 0.3168488
vt 0.30692756 0.3168488
vt 0.30692756 0.28207606
vt 0.30692756 0.28207606
vt 0.30692756 0.3168488
vt 0.32748336 0.3168488
vt 0.32748336 0.28207606
vt 0.33644202 0.3173105
vt 0.33644202 0.32704628
vt 0.3076234 0.32704628
vt 0.3076234 0.3173105
vt 0.3076234 0.32704628
vt 0.33644202 0.32704628
vt 0.33644202 0.3173105
vt 0.3076234 0.3173105
vt 0.3656527 0.31968006
vt 0.3656527 0.2820544
vt 0.33758414 0.2820544
vt 0.33758414 0.31968006
vt 0.29963574 0.31423956
vt 0.2909048 0.31423956
vt 0.29090476 0.28435463
vt 0.29963574 0.28435463
vt 0.26351547 0.2820673
vt 0.26351547 0.31684
vt 0.26992345 0.31684
vt 0.26992345 0.2820673
vt 0.26992345 0.2820673
vt 0.26992345 0.31684
vt 0.2904792 0.31684
vt 0.2904792 0.2820673
vt 0.2703142 0.32700336
vt 0.2994948 0.32700336
vt 0.2994948 0.3172316
vt 0.2703142 0.3172316
vt 0.2703142 0.32700336
vt 0.2703142 0.3172316
vt 0.2994948 0.3172316
vt 0.2994948 0.32700336
vt 0.29963645 0.36010385
vt 0.29099643 0.36010385
vt 0.2909964 0.33018464
vt 0.29963648 0.33018464
vt 0.26351547 0.32793373
vt 0.26351547 0.36270648
vt 0.26992345 0.36270648
vt 0.26992345 0.32793373
vt 0.26992345 0.32793373
vt 0.26992345 0.36270648
vt 0.2904792 0.36270648
vt 0.2904792 0.32793373
vt 0.270056 0.37278372
vt 0.29958084 0.37278372
vt 0.29958084 0.36284053
vt 0.270056 0.36284363
vt 0.270056 0.37278372
vt 0.270056 0.36284053
vt 0.29958084 0.36284053
vt 0.29958084 0.37278372
vt 0.37780118 0.3241338
vt 0.4058913 0.3241338
vt 0.4058913 0.28032592
vt 0.3675265 0.30854475
vt 0.3675265 0.28032592
vt 0.37229076 0.3241338
vt 0.3675265 0.31841618
vt 0.3675265 0.3241338
vt 0.4058913 0.3241338
vt 0.4058913 0.28032592
vt 0.36745673 0.28032592
vt 0.36745673 0.3241338
vt 0.34250468 0.37630695
vt 0.3418727 0.34861696
vt 0.3418727 0.37630695
vt 0.34250468 0.34861696
vt 0.3418727 0.3209368
vt 0.3478198 0.37630695
vt 0.34250468 0.3209368
vt 0.3478198 0.34861696
vt 0.3543411 0.37630695
vt 0.3478198 0.3209368
vt 0.3543411 0.34861696
vt 0.35548073 0.37630695
vt 0.3543411 0.3209368
vt 0.35548073 0.34861696
vt 0.35548073 0.3209368
vt 0.3418727 0.37630695
vt 0.34250468 0.34861696
vt 0.34250468 0.37630695
vt 0.3418727 0.34861696
vt 0.34250468 0.3209368
vt 0.3418727 0.3209368
vt 0.3543411 0.37630695
vt 0.35548073 0.34861696
vt 0.35548073 0.37630695
vt 0.3543411 0.34861696
vt 0.35548073 0.3209368
vt 0.3543411 0.3209368
vt 0.25311258 0.23318619
vt 0.25570598 0.23947531
vt 0.26365337 0.24303329
vt 0.25496647 0.22643733
vt 0.27089274 0.2396285
vt 0.2630308 0.22392535
vt 0.2732802 0.23274148
vt 0.27058142 0.22521693
vt 0.3478198 0.37630695
vt 0.34250468 0.34861696
vt 0.34250468 0.37630695
vt 0.3478198 0.34861696
vt 0.34250468 0.3209368
vt 0.3543411 0.37630695
vt 0.3478198 0.3209368
vt 0.3543411 0.34861696
vt 0.35548073 0.37630695
vt 0.3543411 0.3209368
vt 0.35548073 0.34861696
vt 0.35548073 0.3209368
vt 0.3543411 0.37630695
vt 0.35548073 0.34861696
vt 0.35548073 0.37630695
vt 0.3543411 0.34861696
vt 0.35548073 0.3209368
vt 0.3543411 0.3209368
vt 0.25274494 0.23329604
vt 0.25544456 0.24025232
vt 0.2636533 0.2434259
vt 0.25532898 0.2266323
vt 0.27085024 0.24011397
vt 0.2630308 0.22392535
vt 0.27396786 0.23290265
vt 0.27035522 0.22549564
vn 0.9789683 -0.010417349 0.20374653
vn 0.9789683 -0.010417349 0.20374653
vn 0.9789683 -0.010417349 0.20374653
vn 0.9789683 -0.01041735 0.20374654
vn -0.97896796 0.010423662 -0.20374747
vn -0.97896796 0.010423662 -0.20374747
vn -0.97896796 0.010423663 -0.20374747
vn -0.97896796 0.010423663 -0.20374748
vn 0.21232793 0.010655097 -0.9771404
vn 0.21232794 0.010655096 -0.9771404
vn 0.21232793 0.010655097 -0.9771404
vn 0.21232791 0.010655095 -0.9771404
vn -0.21232884 -0.010645633 0.9771403
vn -0.21232884 -0.010645631 0.9771403
vn -0.21232884 -0.010645632 0.9771403
vn -0.21232884 -0.010645633 0.9771403
vn -0.78524345 3.6207139E-06 0.6191871
vn -0.78524345 3.6207136E-06 0.6191871
vn -0.78524345 3.6207139E-06 0.6191871
vn -0.78524345 3.6207139E-06 0.61918724
vn 0.7852428 -3.3121203E-06 -0.61918795
vn 0.7852428 -3.3121198E-06 -0.61918795
vn 0.7852428 -3.3121203E-06 -0.61918795
vn 0.7852428 -3.3121203E-06 -0.61918795
vn -1.2891558E-06 1 -3.057721E-07
vn -1.2891559E-06 1 -3.0577206E-07
vn -1.2891559E-06 1 -3.0577206E-07
vn -1.289156E-06 1 -3.057721E-07
vn -0.61240554 2.787156E-06 -0.7905438
vn -0.61240554 2.787156E-06 -0.7905438
vn -0.61240554 2.787156E-06 -0.7905438
vn -0.61240554 2.787156E-06 -0.7905438
vn 0.6124031 -6.8390395E-06 0.79054564
vn 0.6124031 -6.8390395E-06 0.79054564
vn 0.6124031 -6.8390405E-06 0.79054564
vn 0.61240304 -6.8390405E-06 0.7905457
vn 0.006427239 0.999928 0.010138473
vn 0.0064272387 0.999928 0.010138473
vn 0.0064272387 0.999928 0.010138472
vn 0.0064272387 0.999928 0.010138472
vn -0.49031448 7.0305197E-07 -0.8715456
vn -0.49031448 7.030518E-07 -0.8715456
vn -0.49031448 7.030519E-07 -0.8715456
vn -0.49031454 7.0305197E-07 -0.8715456
vn 0.49031237 -6.460977E-06 0.87154675
vn 0.49031243 -6.460978E-06 0.87154675
vn 0.49031243 -6.460978E-06 0.87154675
vn 0.49031243 -6.4609785E-06 0.87154675
vn 1.6507124E-07 1 1.6953967E-06
vn 1.6507121E-07 1 1.6953968E-06
vn 1.6507124E-07 1 1.6953968E-06
vn 1.6507124E-07 1 1.6953968E-06
vn -0.8631068 3.5642397E-06 0.5050215
vn -0.8631068 3.5642393E-06 0.50502145
vn -0.8631068 3.5642397E-06 0.5050215
vn -0.8631068 3.5642393E-06 0.5050215
vn 0.8631073 -4.6054492E-07 -0.50502056
vn 0.8631073 -4.6054498E-07 -0.5050206
vn 0.8631073 -4.6054492E-07 -0.5050206
vn 0.8631073 -4.6054498E-07 -0.5050207
vn 0.9852806 2.4046835E-06 0.1709453
vn 0.9852806 2.4046835E-06 0.17094529
vn 0.9852806 2.4046838E-06 0.17094532
vn 0.9852806 2.4046835E-06 0.17094529
vn -0.98528004 4.5352212E-07 -0.17094816
vn -0.98528004 4.5352215E-07 -0.17094818
vn -0.98528004 4.5352206E-07 -0.17094816
vn -0.98528004 4.5352212E-07 -0.17094818
vn 1.2793221E-07 1 1.9924279E-07
vn 1.2793221E-07 1 1.9924279E-07
vn 1.2793221E-07 1 1.9924279E-07
vn 1.2793221E-07 1 1.9924276E-07
vn 0.17710254 2.450063E-06 -0.9841925
vn 0.17710254 2.450063E-06 -0.9841925
vn 0.17710252 2.450063E-06 -0.9841925
vn 0.17710252 2.4500625E-06 -0.9841925
vn -0.17657116 -5.3013105E-07 0.98428786
vn -0.17657118 -5.3013105E-07 0.98428786
vn -0.17657119 -5.3013105E-07 0.98428786
vn -0.1765712 -5.3013105E-07 0.98428786
vn 0.038690608 0.99918133 0.011813334
vn -0 1 0
vn -0 1 0
vn 0.024698963 0.99966645 0.0075413045
vn -0 1 0
vn 0.2170999 0.9728927 0.07967077
vn 0.20832442 0.9751256 0.07570218
vn 0.45252612 0.87195 0.1868776
vn -0 1 0
vn -0 1 0
vn -0 1 0
vn -0 1 0
vn 0.22184165 0.13544455 -0.9656298
vn -0.38530934 -0.3377379 -0.8587606
vn -0.42445496 -0.2768687 -0.86207986
vn 0.2537059 0.08171633 -0.9638235
vn -0.3441407 -0.39683533 -0.8509342
vn 0.7193949 0.4863199 -0.49594757
vn 0.29030073 0.031587277 -0.95641404
vn 0.73903984 0.4531298 -0.49849114
vn 0.77939165 0.5708777 0.25816154
vn 0.7614704 0.4225055 -0.4915812
vn 0.788597 0.5594062 0.25530276
vn 0.37859288 0.34770304 0.85777044
vn 0.7958763 0.5471727 0.25919682
vn 0.38118213 0.3438766 0.8581661
vn 0.38377312 0.3400288 0.85854447
vn -0.42445496 -0.2768687 -0.86207986
vn -0.63852 -0.48298913 -0.59917754
vn -0.67412186 -0.42657903 -0.6029843
vn -0.38530934 -0.3377379 -0.8587606
vn -0.5999189 -0.5374416 -0.59266675
vn -0.3441407 -0.39683533 -0.8509342
vn 0.06832998 0.1508187 0.98619705
vn 0.38118213 0.3438766 0.8581661
vn 0.37859288 0.34770304 0.85777044
vn 0.07061234 0.14720011 0.98658305
vn 0.38377312 0.3400288 0.85854447
vn 0.07289343 0.14357868 0.9869507
vn -0.586141 0.7959114 -0.15153831
vn -0.58614093 0.7959114 -0.1515383
vn -0.58614093 0.79591143 -0.15153833
vn -0.58614093 0.7959114 -0.1515383
vn -0.58614093 0.7959114 -0.1515383
vn -0.58614093 0.7959114 -0.1515383
vn -0.586141 0.7959114 -0.15153831
vn -0.5861409 0.79591143 -0.15153831
vn 0.40307698 0.9119622 0.07650993
vn 0.7061219 0.6765896 0.20884985
vn 0.719135 0.67576987 0.16180238
vn 0.39758635 0.9103629 0.11473657
vn 0.69146556 0.6758008 0.25528142
vn -0.3317313 0.93560725 -0.12080348
vn 0.38267598 0.91157454 0.1503028
vn -0.33217332 0.93725264 -0.105917335
vn -0.86487514 0.42258692 -0.27094525
vn -0.33890557 0.93623006 -0.09282375
vn -0.8662421 0.4226047 -0.2665144
vn -0.8675953 0.4226137 -0.26206136
vn -0.9539604 0.044536702 -0.29660752
vn -0.8662421 0.4226047 -0.2665144
vn -0.86487514 0.42258692 -0.27094525
vn -0.95523185 0.0444123 -0.29250613
vn -0.8675953 0.4226137 -0.26206136
vn -0.95648557 0.04428709 -0.28839928
vn 0.36084273 -0.036830887 -0.9318991
vn 0.36084273 -0.036830887 -0.9318991
vn 0.36084273 -0.036830887 -0.9318991
vn 0.36084273 -0.036830883 -0.9318991
vn 0.36084273 -0.036830887 -0.9318991
vn 0.3608427 -0.036830883 -0.9318991
vn 0.36084273 -0.036830883 -0.9318991
vn 0.36084273 -0.036830887 -0.9318991
g obj_book2_0
f 3/3/3 2/2/2 1/1/1
f 4/4/4 3/3/3 1/1/1
f 7/7/7 6/6/6 5/5/5
f 8/8/8 7/7/7 5/5/5
f 11/11/11 10/10/10 9/9/9
f 12/12/12 11/11/11 9/9/9
f 15/15/15 14/14/14 13/13/13
f 16/16/16 15/15/15 13/13/13
f 19/19/19 18/18/18 17/17/17
f 20/20/20 19/19/19 17/17/17
f 23/23/23 22/22/22 21/21/21
f 24/24/24 23/23/23 21/21/21
f 27/27/27 26/26/26 25/25/25
f 28/28/28 27/27/27 25/25/25
f 31/31/31 30/30/30 29/29/29
f 32/32/32 31/31/31 29/29/29
f 35/35/35 34/34/34 33/33/33
f 36/36/36 35/35/35 33/33/33
f 39/39/39 38/38/38 37/37/37
f 40/40/40 39/39/39 37/37/37
f 43/43/43 42/42/42 41/41/41
f 44/44/44 43/43/43 41/41/41
f 47/47/47 46/46/46 45/45/45
f 48/48/48 47/47/47 45/45/45
f 51/51/51 50/50/50 49/49/49
f 52/52/52 51/51/51 49/49/49
f 55/55/55 54/54/54 53/53/53
f 56/56/56 55/55/55 53/53/53
f 59/59/59 58/58/58 57/57/57
f 60/60/60 59/59/59 57/57/57
f 63/63/63 62/62/62 61/61/61
f 64/64/64 63/63/63 61/61/61
f 67/67/67 66/66/66 65/65/65
f 68/68/68 67/67/67 65/65/65
f 71/71/71 70/70/70 69/69/69
f 72/72/72 71/71/71 69/69/69
f 75/75/75 74/74/74 73/73/73
f 76/76/76 75/75/75 73/73/73
f 79/79/79 78/78/78 77/77/77
f 80/80/80 79/79/79 77/77/77
f 83/83/83 82/82/82 81/81/81
f 81/81/81 84/84/84 83/83/83
f 84/84/84 85/85/85 83/83/83
f 81/81/81 86/86/86 84/84/84
f 86/86/86 87/87/87 84/84/84
f 87/87/87 86/86/86 88/88/88
f 91/91/91 90/90/90 89/89/89
f 92/92/92 91/91/91 89/89/89
f 95/95/95 94/94/94 93/93/93
f 94/94/94 96/96/96 93/93/93
f 94/94/94 97/97/97 96/96/96
f 93/93/93 96/96/96 98/98/98
f 97/97/97 99/99/99 96/96/96
f 96/96/96 100/100/100 98/98/98
f 96/96/96 99/99/99 100/100/100
f 98/98/98 100/100/100 101/101/101
f 99/99/99 102/102/102 100/100/100
f 100/100/100 103/103/103 101/101/101
f 100/100/100 102/102/102 103/103/103
f 101/101/101 103/103/103 104/104/104
f 102/102/102 105/105/105 103/103/103
f 103/103/103 106/106/106 104/104/104
f 103/103/103 105/105/105 106/106/106
f 105/105/105 107/107/107 106/106/106
f 110/110/110 109/109/109 108/108/108
f 109/109/109 111/111/111 108/108/108
f 109/109/109 112/112/112 111/111/111
f 112/112/112 113/113/113 111/111/111
f 116/116/116 115/115/115 114/114/114
f 115/115/115 117/117/117 114/114/114
f 115/115/115 118/118/118 117/117/117
f 118/118/118 119/119/119 117/117/117
f 122/122/122 121/121/121 120/120/120
f 120/120/120 123/123/123 122/122/122
f 123/123/123 124/124/124 122/122/122
f 123/123/123 125/125/125 124/124/124
f 125/125/125 126/126/126 124/124/124
f 125/125/125 127/127/127 126/126/126
f 130/130/130 129/129/129 128/128/128
f 129/129/129 131/131/131 128/128/128
f 129/129/129 132/132/132 131/131/131
f 128/128/128 131/131/131 133/133/133
f 132/132/132 134/134/134 131/131/131
f 131/131/131 135/135/135 133/133/133
f 131/131/131 134/134/134 135/135/135
f 133/133/133 135/135/135 136/136/136
f 134/134/134 137/137/137 135/135/135
f 135/135/135 138/138/138 136/136/136
f 135/135/135 137/137/137 138/138/138
f 137/137/137 139/139/139 138/138/138
f 142/142/142 141/141/141 140/140/140
f 141/141/141 143/143/143 140/140/140
f 141/141/141 144/144/144 143/143/143
f 144/144/144 145/145/145 143/143/143
f 148/148/148 147/147/147 146/146/146
f 146/146/146 149/149/149 148/148/148
f 149/149/149 150/150/150 148/148/148
f 149/149/149 151/151/151 150/150/150
f 151/151/151 152/152/152 150/150/150
f 151/151/151 153/153/153 152/152/152
