g obj_battlegate_base
v -1.3871167 0.015104995 0.29241562
v -0.50698155 2.3324969E-08 -0.004631192
v -1.358024 0.015104997 0.32733408
v 0.3182849 0.015104971 0.3273342
v 0.3637262 0.015104966 0.29241562
v 0.3637265 0.015104975 -0.2954807
v 0.3182849 0.015104968 -0.33039916
v -0.50698155 0.01510496 -0.33039925
v -1.358024 0.0151049495 -0.33039933
v -1.3871167 0.015104955 -0.2954807
v -1.3871167 0.015104955 -0.2954807
v -0.50698155 2.3324969E-08 -0.004631192
v -1.3871167 0.015104995 0.29241562
v 0.3637262 0.015104966 0.29241562
v -0.50698155 2.3324969E-08 -0.004631192
v 0.3637265 0.015104975 -0.2954807
v 0.3637265 0.015104975 -0.2954807
v 0.3182849 0.015104968 -0.33039916
v 0.3671982 0.015104959 -0.45288444
v 0.4279086 0.015104963 -0.38136217
v -0.5071327 -2.8293845E-08 -0.5035
v 0.43980283 -2.2291658E-08 -0.5034999
v -0.50710356 0.015104951 -0.45288447
v 0.3182849 0.015104968 -0.33039916
v -0.50698155 0.01510496 -0.33039925
v -1.358024 0.0151049495 -0.33039933
v -1.3754382 0.015104945 -0.45288455
v -1.4373904 -3.4296033E-08 -0.50350004
v -1.3871167 0.015104995 0.29241562
v -1.358024 0.015104997 0.32733408
v -1.3754382 0.015104967 0.45175415
v -1.4451194 0.0151049625 0.37975037
v -1.4451194 0.0151049495 -0.38136232
v -1.3871167 0.015104955 -0.2954807
v -1.3871167 0.015104995 0.29241562
v -1.4451194 0.0151049625 0.37975037
v -1.5104988 -2.8894064E-08 -0.4284595
v -1.5104988 -1.2840007E-09 0.42795414
v 0.3637262 0.015104966 0.29241562
v 0.3637265 0.015104975 -0.2954807
v 0.4279086 0.015104963 -0.38136217
v 0.4279086 0.015104987 0.37975052
v 0.5035 1.6122343E-08 0.4279543
v 0.5035 -1.628947E-08 -0.42845935
v -0.5071327 1.312125E-08 0.5035
v -1.4373904 4.7181867E-09 0.5034999
v -1.3754382 0.015104967 0.45175415
v -0.50710356 0.015104979 0.4517542
v -1.358024 0.015104997 0.32733408
v -0.50698155 0.015104983 0.32733417
v 0.3182849 0.015104971 0.3273342
v 0.3671982 0.015104991 0.4517543
v 0.43980283 2.1524313E-08 0.50350004
v 0.43980283 2.1524313E-08 0.50350004
v 0.4279086 0.015104987 0.37975052
v 0.5035 1.6122343E-08 0.4279543
v 0.3671982 0.015104991 0.4517543
v 0.3637262 0.015104966 0.29241562
v 0.3182849 0.015104971 0.3273342
v 0.5035 -1.628947E-08 -0.42845935
v 0.4279086 0.015104963 -0.38136217
v 0.3671982 0.015104959 -0.45288444
v 0.43980283 -2.2291658E-08 -0.5034999
v -1.4373904 -3.4296033E-08 -0.50350004
v -1.4451194 0.0151049495 -0.38136232
v -1.5104988 -2.8894064E-08 -0.4284595
v -1.3754382 0.015104945 -0.45288455
v -1.3871167 0.015104955 -0.2954807
v -1.358024 0.0151049495 -0.33039933
v -1.5104988 -1.2840007E-09 0.42795414
v -1.4451194 0.0151049625 0.37975037
v -1.3754382 0.015104967 0.45175415
v -1.4373904 4.7181867E-09 0.5034999
v -1.358024 0.015104997 0.32733408
v -0.50698155 2.3324969E-08 -0.004631192
v -0.50698155 0.015104983 0.32733417
v 0.3182849 0.015104971 0.3273342
v -1.3917798 -0.050617624 -0.29662877
v -1.3474913 0.019577315 -0.27717644
v -1.3472755 0.019616267 0.27160785
v -1.3916397 -0.05061755 0.2930399
v -1.3135197 0.019574933 -0.31725067
v -1.3573542 -0.050617624 -0.3372331
v -0.5058771 -0.050617624 -0.337233
v -0.50588596 0.019574933 -0.31725058
v 0.37987727 -0.05061755 0.2930402
v 0.33528754 0.019617727 0.27160814
v 0.3357064 0.019577391 -0.27717632
v 0.3800251 -0.050617624 -0.29662862
v 0.30174783 0.019574933 -0.31725052
v -0.506 0.019619416 0.3132581
v -0.50588596 0.019574933 -0.31725058
v 0.30127856 0.019620186 0.31325826
v 0.33528754 0.019617727 0.27160814
v 0.3357064 0.019577391 -0.27717632
v 0.30127856 0.019620186 0.31325826
v 0.3454356 -0.05061755 0.3352413
v -0.5058811 -0.05061755 0.33524114
v -0.506 0.019619416 0.3132581
v -1.3474913 0.019577315 -0.27717644
v -1.3917798 -0.050617624 -0.29662877
v -1.3573542 -0.050617624 -0.3372331
v -1.3135197 0.019574933 -0.31725067
v 0.30174783 0.019574933 -0.31725052
v 0.3456 -0.050617624 -0.33723295
v 0.3800251 -0.050617624 -0.29662862
v 0.3357064 0.019577391 -0.27717632
v 0.33528754 0.019617727 0.27160814
v 0.37987727 -0.05061755 0.2930402
v 0.3454356 -0.05061755 0.3352413
v 0.30127856 0.019620186 0.31325826
v -1.3132788 0.019618649 0.31325796
v -1.357198 -0.05061755 0.335241
v -1.3916397 -0.05061755 0.2930399
v -1.3472755 0.019616267 0.27160785
v -1.3474913 0.019577315 -0.27717644
v -1.3132788 0.019618649 0.31325796
v -1.3472755 0.019616267 0.27160785
v -1.3135197 0.019574933 -0.31725067
v -0.506 0.019619416 0.3132581
v -0.50588596 0.019574933 -0.31725058
v 0.30174783 0.019574933 -0.31725052
v -0.50588596 0.019574933 -0.31725058
v -0.5058771 -0.050617624 -0.337233
v 0.3456 -0.050617624 -0.33723295
v -1.3132788 0.019618649 0.31325796
v -0.506 0.019619416 0.3132581
v -0.5058811 -0.05061755 0.33524114
v -1.357198 -0.05061755 0.335241
vt 0.65953857 0.71026057
vt 0.66756517 0.7120266
vt 0.65953857 0.71026057
vt 0.6763031 0.71026057
vt 0.6763031 0.71026057
vt 0.65953857 0.71026057
vt 0.65953857 0.71026057
vt 0.6679209 0.71026057
vt 0.6763031 0.71026057
vt 0.6763031 0.71026057
vt 0.65953857 0.71026057
vt 0.66756517 0.71202654
vt 0.6763031 0.71026057
vt 0.65953857 0.71026057
vt 0.66756517 0.71202654
vt 0.6763031 0.71026057
vt 0.6763031 0.7070373
vt 0.6763031 0.7070373
vt 0.65953857 0.7042904
vt 0.65953857 0.7042904
vt 0.6679209 0.69308424
vt 0.65953857 0.69308424
vt 0.6679209 0.703308
vt 0.65953857 0.7070373
vt 0.6679209 0.7070373
vt 0.6763031 0.7070373
vt 0.6763031 0.703308
vt 0.6763031 0.69308424
vt 0.6763031 0.7070373
vt 0.6763031 0.7070373
vt 0.65953857 0.7042904
vt 0.65953857 0.7042904
vt 0.65953857 0.7042904
vt 0.65953857 0.7070373
vt 0.6763031 0.7070373
vt 0.6763031 0.7042904
vt 0.65953857 0.69308424
vt 0.6763031 0.69308424
vt 0.65953857 0.7070373
vt 0.6763031 0.7070373
vt 0.6763031 0.7042904
vt 0.65953857 0.7042904
vt 0.65953857 0.69308424
vt 0.6763031 0.69308424
vt 0.6679209 0.69308424
vt 0.65953857 0.69308424
vt 0.65953857 0.703308
vt 0.6679209 0.703308
vt 0.65953857 0.7070373
vt 0.6679209 0.7070373
vt 0.6763031 0.7070373
vt 0.6763031 0.703308
vt 0.6763031 0.69308424
vt 0.6763031 0.69308424
vt 0.65953857 0.703308
vt 0.65953857 0.69308424
vt 0.6763031 0.703308
vt 0.65953857 0.7070373
vt 0.6763031 0.7070373
vt 0.65953857 0.69308424
vt 0.65953857 0.703308
vt 0.6763031 0.703308
vt 0.6763031 0.69308424
vt 0.6763031 0.69308424
vt 0.65953857 0.703308
vt 0.65953857 0.69308424
vt 0.6763031 0.703308
vt 0.65953857 0.7070373
vt 0.6763031 0.7070373
vt 0.65953857 0.69308424
vt 0.65953857 0.703308
vt 0.6763031 0.703308
vt 0.6763031 0.69308424
vt 0.65953857 0.71026057
vt 0.66756517 0.7120265
vt 0.6679209 0.71026057
vt 0.6763031 0.71026057
vt 0.62221706 0.6437231
vt 0.6251083 0.6429021
vt 0.6251204 0.61403793
vt 0.6222248 0.61311346
vt 0.6278961 0.6450098
vt 0.62606305 0.64693844
vt 0.67314243 0.64693844
vt 0.67314243 0.6450098
vt 0.6222248 0.61311346
vt 0.6251329 0.6140379
vt 0.6251095 0.6429021
vt 0.62221664 0.6437231
vt 0.6278965 0.6450098
vt 0.67314243 0.6118473
vt 0.67314243 0.6450098
vt 0.6279227 0.6118473
vt 0.62601745 0.6140379
vt 0.625994 0.6429021
vt 0.6279227 0.6118473
vt 0.62607163 0.6095455
vt 0.67314243 0.6095456
vt 0.67314243 0.6118473
vt 0.6251083 0.6429021
vt 0.62221706 0.6437231
vt 0.6251785 0.64693844
vt 0.62701154 0.6450098
vt 0.62701195 0.6450098
vt 0.62517804 0.64693844
vt 0.62221664 0.6437231
vt 0.6251095 0.6429021
vt 0.6251329 0.6140379
vt 0.6222248 0.61311346
vt 0.6251871 0.6095455
vt 0.6270382 0.6118473
vt 0.627025 0.6118473
vt 0.62518716 0.6095456
vt 0.6222248 0.61311346
vt 0.6251204 0.61403793
vt 0.62599283 0.6429021
vt 0.62790954 0.6118473
vt 0.62600493 0.61403793
vt 0.6278961 0.6450098
vt 0.67314243 0.6118473
vt 0.67314243 0.6450098
vt 0.6278965 0.6450098
vt 0.67314243 0.6450098
vt 0.67314243 0.64693844
vt 0.6260626 0.64693844
vt 0.62790954 0.6118473
vt 0.67314243 0.6118473
vt 0.67314243 0.6095456
vt 0.6260717 0.6095456
vn 0.0059626023 0.99998 -0.0021342607
vn -4.440096E-05 0.9999999 0.0004235437
vn 0.0040361853 0.99997354 -0.006055961
vn -0.0040222113 0.99995995 -0.008003852
vn -0.0053102467 0.99998295 -0.0024482768
vn -0.0053277123 0.99998283 0.0024479846
vn -0.0040606456 0.99995935 0.00805858
vn -0 0.9997316 0.023164878
vn 0.0040684342 0.9999732 0.0060871933
vn 0.005978196 0.99997985 0.0021326975
vn 0.005978196 0.99997985 0.0021326975
vn -4.440096E-05 0.9999999 0.0004235437
vn 0.0059626023 0.99998 -0.0021342607
vn -0.0053102467 0.99998295 -0.0024482768
vn -4.440096E-05 0.9999999 0.0004235437
vn -0.0053277123 0.99998283 0.0024479846
vn -0.0053277123 0.99998283 0.0024479846
vn -0.0040606456 0.99995935 0.00805858
vn 0.030672256 0.98941237 -0.14185353
vn 0.10192945 0.99433774 -0.030049816
vn -0 0.9582404 -0.2859638
vn 0.09394776 0.9828708 -0.15855207
vn -0 0.98950505 -0.14449842
vn -0.0040606456 0.99995935 0.00805858
vn -0 0.9997316 0.023164878
vn 0.0040684342 0.9999732 0.0060871933
vn -0.031929802 0.98915184 -0.1433843
vn -0.09394612 0.97965074 -0.17736572
vn 0.0059626023 0.99998 -0.0021342607
vn 0.0040361853 0.99997354 -0.006055961
vn -0.032006167 0.9895648 0.14048897
vn -0.11550004 0.99268895 0.035047956
vn -0.11565086 0.99264413 -0.035811216
vn 0.005978196 0.99997985 0.0021326975
vn 0.0059626023 0.99998 -0.0021342607
vn -0.11550004 0.99268895 0.035047956
vn -0.17079312 0.9822206 -0.07792488
vn -0.16979146 0.9824234 0.07755796
vn -0.0053102467 0.99998295 -0.0024482768
vn -0.0053277123 0.99998283 0.0024479846
vn 0.10192945 0.99433774 -0.030049816
vn 0.10177759 0.99437124 0.029448705
vn 0.1564229 0.98564285 0.06356135
vn 0.1571648 0.985508 -0.0638209
vn -0 0.9599379 0.28021282
vn -0.092693955 0.98016995 0.17514203
vn -0.032006167 0.9895648 0.14048897
vn -0 0.9899338 0.14153111
vn 0.0040361853 0.99997354 -0.006055961
vn -0 0.9997416 -0.022733152
vn -0.0040222113 0.99995995 -0.008003852
vn 0.030768763 0.98982227 0.1389428
vn 0.092816375 0.9832609 0.1567899
vn 0.092816375 0.9832609 0.1567899
vn 0.10177759 0.99437124 0.029448705
vn 0.1564229 0.98564285 0.06356135
vn 0.030768763 0.98982227 0.1389428
vn -0.0053102467 0.99998295 -0.0024482768
vn -0.0040222113 0.99995995 -0.008003852
vn 0.1571648 0.985508 -0.0638209
vn 0.10192945 0.99433774 -0.030049816
vn 0.030672256 0.98941237 -0.14185353
vn 0.09394776 0.9828708 -0.15855207
vn -0.09394612 0.97965074 -0.17736572
vn -0.11565086 0.99264413 -0.035811216
vn -0.17079312 0.9822206 -0.07792488
vn -0.031929802 0.98915184 -0.1433843
vn 0.005978196 0.99997985 0.0021326975
vn 0.0040684342 0.9999732 0.0060871933
vn -0.16979146 0.9824234 0.07755796
vn -0.11550004 0.99268895 0.035047956
vn -0.032006167 0.9895648 0.14048897
vn -0.092693955 0.98016995 0.17514203
vn 0.0040361853 0.99997354 -0.006055961
vn -4.440096E-05 0.9999999 0.0004235437
vn -0 0.9997416 -0.022733152
vn -0.0040222113 0.99995995 -0.008003852
vn -0.8455936 0.5338272 0.00024602187
vn -0.8455936 0.5338272 0.00024602187
vn -0.8455936 0.5338272 0.00024602187
vn -0.8455936 0.5338272 0.00024602187
vn -0 0.27380136 -0.9617862
vn -0 0.27380136 -0.9617862
vn -0 0.2738014 -0.9617862
vn -0 0.2738014 -0.9617862
vn 0.8449001 0.53492403 0.00040157372
vn 0.8449001 0.53492403 0.00040157375
vn 0.8449001 0.53492403 0.00040157375
vn 0.8449001 0.53492403 0.00040157375
vn -8.493012E-07 1 -7.1598864E-05
vn -4.757314E-07 1 -7.0551636E-05
vn -4.757314E-07 1 -7.0551774E-05
vn -8.4176736E-07 1 -7.1590046E-05
vn -1.6827603E-06 1 -7.257558E-05
vn -1.6827604E-06 1 -7.257558E-05
vn -3.1531218E-07 0.29869393 0.954349
vn -3.1531218E-07 0.29869393 0.954349
vn -3.0977364E-07 0.29869545 0.9543485
vn -3.0976224E-07 0.29869545 0.9543485
vn -0.6364811 0.55110276 -0.5396087
vn -0.6364811 0.55110276 -0.5396087
vn -0.6364811 0.55110276 -0.5396087
vn -0.6364811 0.55110276 -0.53960866
vn 0.63645184 0.55126464 -0.53947806
vn 0.63645184 0.55126464 -0.539478
vn 0.63645184 0.55126464 -0.539478
vn 0.63645184 0.55126464 -0.539478
vn 0.63914704 0.5650459 0.52174157
vn 0.63914704 0.5650459 0.52174157
vn 0.63914704 0.5650459 0.52174157
vn 0.63914704 0.5650459 0.52174157
vn -0.63994586 0.5636239 0.5223002
vn -0.63994586 0.5636239 0.5223002
vn -0.63994586 0.5636239 0.5223002
vn -0.6399458 0.5636239 0.5223002
vn 1.6253085E-06 1 -7.009936E-05
vn 1.6163877E-07 1 -6.9989954E-05
vn 1.6253084E-06 1 -7.009935E-05
vn 1.7431562E-07 1 -6.999091E-05
vn -4.757314E-07 1 -7.0551636E-05
vn -4.757314E-07 1 -7.0551774E-05
vn -0 0.27380145 -0.9617862
vn -0 0.2738014 -0.9617862
vn -0 0.2738014 -0.9617862
vn -0 0.27380142 -0.9617862
vn -3.0422376E-07 0.29869696 0.9543481
vn -3.0976224E-07 0.29869545 0.9543485
vn -3.0977364E-07 0.29869545 0.9543485
vn -3.0422376E-07 0.29869694 0.95434797
g obj_battlegate_base_0
f 3/3/3 2/2/2 1/1/1
f 5/5/5 2/2/2 4/4/4
f 7/7/7 2/2/2 6/6/6
f 8/8/8 2/2/2 7/7/7
f 9/9/9 2/2/2 8/8/8
f 10/10/10 2/2/2 9/9/9
f 13/13/13 12/12/12 11/11/11
f 16/16/16 15/15/15 14/14/14
f 19/19/19 18/18/18 17/17/17
f 20/20/20 19/19/19 17/17/17
f 19/19/19 22/22/22 21/21/21
f 23/23/23 19/19/19 21/21/21
f 24/24/24 19/19/19 23/23/23
f 25/25/25 24/24/24 23/23/23
f 26/26/26 25/25/25 23/23/23
f 27/27/27 26/26/26 23/23/23
f 27/27/27 23/23/23 21/21/21
f 28/28/28 27/27/27 21/21/21
f 31/31/31 30/30/30 29/29/29
f 32/32/32 31/31/31 29/29/29
f 35/35/35 34/34/34 33/33/33
f 36/36/36 35/35/35 33/33/33
f 36/36/36 33/33/33 37/37/37
f 38/38/38 36/36/36 37/37/37
f 41/41/41 40/40/40 39/39/39
f 42/42/42 41/41/41 39/39/39
f 41/41/41 42/42/42 43/43/43
f 44/44/44 41/41/41 43/43/43
f 47/47/47 46/46/46 45/45/45
f 48/48/48 47/47/47 45/45/45
f 49/49/49 47/47/47 48/48/48
f 50/50/50 49/49/49 48/48/48
f 51/51/51 50/50/50 48/48/48
f 52/52/52 51/51/51 48/48/48
f 52/52/52 48/48/48 45/45/45
f 53/53/53 52/52/52 45/45/45
f 56/56/56 55/55/55 54/54/54
f 55/55/55 57/57/57 54/54/54
f 55/55/55 58/58/58 57/57/57
f 58/58/58 59/59/59 57/57/57
f 62/62/62 61/61/61 60/60/60
f 63/63/63 62/62/62 60/60/60
f 66/66/66 65/65/65 64/64/64
f 65/65/65 67/67/67 64/64/64
f 65/65/65 68/68/68 67/67/67
f 68/68/68 69/69/69 67/67/67
f 72/72/72 71/71/71 70/70/70
f 73/73/73 72/72/72 70/70/70
f 76/76/76 75/75/75 74/74/74
f 77/77/77 75/75/75 76/76/76
f 80/80/80 79/79/79 78/78/78
f 81/81/81 80/80/80 78/78/78
f 84/84/84 83/83/83 82/82/82
f 85/85/85 84/84/84 82/82/82
f 88/88/88 87/87/87 86/86/86
f 89/89/89 88/88/88 86/86/86
f 92/92/92 91/91/91 90/90/90
f 91/91/91 93/93/93 90/90/90
f 90/90/90 93/93/93 94/94/94
f 95/95/95 90/90/90 94/94/94
f 98/98/98 97/97/97 96/96/96
f 99/99/99 98/98/98 96/96/96
f 102/102/102 101/101/101 100/100/100
f 103/103/103 102/102/102 100/100/100
f 106/106/106 105/105/105 104/104/104
f 107/107/107 106/106/106 104/104/104
f 110/110/110 109/109/109 108/108/108
f 111/111/111 110/110/110 108/108/108
f 114/114/114 113/113/113 112/112/112
f 115/115/115 114/114/114 112/112/112
f 118/118/118 117/117/117 116/116/116
f 117/117/117 119/119/119 116/116/116
f 117/117/117 120/120/120 119/119/119
f 120/120/120 121/121/121 119/119/119
f 124/124/124 123/123/123 122/122/122
f 125/125/125 124/124/124 122/122/122
f 128/128/128 127/127/127 126/126/126
f 129/129/129 128/128/128 126/126/126
