g obj_smithy_glow
v 0.079817414 0.10474683 0.1209495
v -0.7586035 0.47115567 0.1732674
v -0.75860393 0.10474676 0.1209495
v 0.07981638 0.4711557 0.1732674
v 0.03830145 0.6368136 0.19533628
v -0.60076624 0.74756396 0.21003032
v -0.7170891 0.63150996 0.19463223
v -0.24610992 0.79613554 0.21646017
v -0.07802001 0.7528674 0.21073179
v -0.432676 0.79613554 0.21646024
vt 0.13207899 0.2718445
vt 0.13573477 0.30371717
vt 0.13572477 0.2718445
vt 0.13208897 0.30394876
vt 0.132273 0.3152208
vt 0.13505477 0.32409275
vt 0.13555777 0.31501198
vt 0.13351414 0.32921228
vt 0.13278167 0.32423708
vt 0.13432541 0.32916078
vn -0 1 0
vn -0 1 0
vn -0 1 0
vn -0 1 0
vn -0 1 0
vn -0 1 0
vn -0 1 0
vn -0 1 0
vn -0 1 0
vn -0 1 0
g obj_smithy_glow_0
f 3/3/3 2/2/2 1/1/1
f 4/4/4 1/1/1 2/2/2
f 4/4/4 2/2/2 5/5/5
f 2/2/2 6/6/6 5/5/5
f 7/7/7 6/6/6 2/2/2
f 5/5/5 6/6/6 8/8/8
f 9/9/9 5/5/5 8/8/8
f 6/6/6 10/10/10 8/8/8
