g obj_prop1_8
v -0.32094678 0.4044196 -0.30267674
v -0.30691126 0.39356753 0.27545926
v -0.3232245 0.40441945 0.28917423
v -0.32094678 0.4044196 -0.30267674
v -0.3047336 0.39356765 -0.29035744
v -0.30691126 0.39356753 0.27545926
v 0.32410142 0.4044197 -0.30019444
v 0.32182354 0.40441954 0.29165712
v 0.3056162 0.39356756 0.27781683
v -0.30691126 0.39356753 0.27545926
v 0.32182354 0.40441954 0.29165712
v -0.3232245 0.40441945 0.28917423
v -0.40854186 0.40494442 0.40747252
v 0.4067434 0.40494445 0.41061026
v 0.32182354 0.40441954 0.29165712
v 0.43180913 0.40494454 0.38433442
v 0.32410142 0.4044197 -0.30019444
v 0.32410142 0.4044197 -0.30019444
v 0.4347967 0.40494466 -0.39194918
v 0.40967178 0.40494457 -0.4172693
v -0.4056136 0.40494454 -0.4204071
v -0.32094678 0.4044196 -0.30267674
v -0.3047336 0.39356765 -0.29035744
v 0.30779383 0.39356774 -0.28799987
v 0.3056162 0.39356756 0.27781683
v 0.32410142 0.4044197 -0.30019444
v -0.4533282 0.01663367 -0.4646442
v -0.47267985 0.13092822 -0.43305063
v -0.49020422 0.016633665 -0.43687898
v -0.444911 0.13092822 -0.46060684
v 0.44925323 0.13092835 -0.45716545
v 0.46169403 0.016633706 -0.46112254
v 0.47680914 0.13092826 -0.4293964
v 0.49436006 0.0166337 -0.43308982
v 0.49105445 0.016633654 0.42580974
v 0.47353244 0.13092825 0.4219927
v 0.4132165 0.1304974 0.36363134
v 0.41604522 0.1304974 -0.37138984
v 0.3920036 0.13049741 -0.39561713
v -0.3881126 0.13049738 -0.39861998
v -0.4123401 0.13049738 -0.37457812
v -0.3881126 0.13049738 -0.39861998
v -0.4138487 0.29129288 -0.3762584
v -0.4123401 0.13049738 -0.37457812
v -0.38953334 0.2912928 -0.40038812
v 0.3934378 0.29129288 -0.39737454
v 0.3920036 0.13049741 -0.39561713
v 0.41604522 0.1304974 -0.37138984
v 0.4175667 0.29129288 -0.3730584
v 0.41472492 0.29129273 0.36531165
v 0.4132165 0.1304974 0.36363134
v -0.41096205 0.2912928 -0.4204271
v -0.43093288 0.4049446 -0.3952811
v -0.43938994 0.29129288 -0.39531392
v -0.4056136 0.40494454 -0.4204071
v 0.40967178 0.40494457 -0.4172693
v 0.4150201 0.29129288 -0.41724807
v 0.4347967 0.40494466 -0.39194918
v 0.4432134 0.29129288 -0.39191684
v 0.44022575 0.2912928 0.38436672
v 0.43180913 0.40494454 0.38433442
v -0.32094678 0.4044196 -0.30267674
v -0.3232245 0.40441945 0.28917423
v -0.43392047 0.40494448 0.38100246
v -0.40854186 0.40494442 0.40747252
v -0.43093288 0.4049446 -0.3952811
v -0.32094678 0.4044196 -0.30267674
v -0.4056136 0.40494454 -0.4204071
v -0.49020422 0.016633665 -0.43687898
v -0.47595653 0.13092822 0.4183384
v -0.49350986 0.016633619 0.42202064
v -0.47267985 0.13092822 -0.43305063
v -0.4123401 0.13049738 -0.37457812
v -0.4151689 0.13049738 0.36044368
v -0.4138487 0.29129288 -0.3762584
v -0.41669035 0.2912927 0.36211166
v -0.4151689 0.13049738 0.36044368
v -0.4123401 0.13049738 -0.37457812
v -0.43392047 0.40494448 0.38100246
v -0.4423371 0.2912928 0.3809701
v -0.43938994 0.29129288 -0.39531392
v -0.43093288 0.4049446 -0.3952811
v 0.45473945 0.01663356 0.4561209
v -0.4602827 0.016633527 0.45259857
v -0.44784442 0.13092811 0.44863054
v 0.44631967 0.13092811 0.45207256
v -0.39062014 0.13049725 0.3869708
v 0.389496 0.13049725 0.38997364
v -0.3920544 0.2912927 0.38872817
v 0.39091668 0.29129264 0.39174178
v 0.389496 0.13049725 0.38997364
v -0.39062014 0.13049725 0.3869708
v 0.4067434 0.40494445 0.41061026
v -0.41363668 0.2912927 0.4086017
v -0.40854186 0.40494442 0.40747252
v 0.4123454 0.29129264 0.41178077
v -0.47595653 0.13092822 0.4183384
v -0.4602827 0.016633527 0.45259857
v -0.49350986 0.016633619 0.42202064
v -0.44784442 0.13092811 0.44863054
v -0.39062014 0.13049725 0.3869708
v -0.4151689 0.13049738 0.36044368
v -0.3920544 0.2912927 0.38872817
v -0.39062014 0.13049725 0.3869708
v -0.4151689 0.13049738 0.36044368
v -0.41669035 0.2912927 0.36211166
v -0.41363668 0.2912927 0.4086017
v -0.43392047 0.40494448 0.38100246
v -0.40854186 0.40494442 0.40747252
v -0.4423371 0.2912928 0.3809701
v 0.47353244 0.13092825 0.4219927
v 0.49105445 0.016633654 0.42580974
v 0.45473945 0.01663356 0.4561209
v 0.44631967 0.13092811 0.45207256
v 0.389496 0.13049725 0.38997364
v 0.4132165 0.1304974 0.36363134
v 0.41472492 0.29129273 0.36531165
v 0.4132165 0.1304974 0.36363134
v 0.389496 0.13049725 0.38997364
v 0.39091668 0.29129264 0.39174178
v 0.43180913 0.40494454 0.38433442
v 0.44022575 0.2912928 0.38436672
v 0.4123454 0.29129264 0.41178077
v 0.4067434 0.40494445 0.41061026
v -0.3047336 0.39356765 -0.29035744
v 0.0015301344 0.39356768 -0.28917864
v -0.30691126 0.39356753 0.27545926
v -0.00064751663 0.39356753 0.27663806
v -0.00064751663 0.39356753 0.27663806
v 0.0015301344 0.39356768 -0.28917864
v 0.30779383 0.39356774 -0.28799987
v 0.3056162 0.39356756 0.27781683
vt 0.24418727 0.75768906
vt 0.24712291 0.77224153
vt 0.24418727 0.7761641
vt 0.24418727 0.75768906
vt 0.24712291 0.76159006
vt 0.24712291 0.77224153
vt 0.24418727 0.75768906
vt 0.24418727 0.7761641
vt 0.24712291 0.77224153
vt 0.24990742 0.77342767
vt 0.24418727 0.7761641
vt 0.24990742 0.776231
vt 0.24990742 0.78133386
vt 0.23817647 0.781334
vt 0.24418727 0.7761641
vt 0.23817647 0.77507204
vt 0.24418727 0.75768906
vt 0.24418727 0.75768906
vt 0.23817647 0.75754195
vt 0.23817647 0.7526069
vt 0.24990742 0.7526069
vt 0.24990742 0.7576967
vt 0.24990742 0.76019484
vt 0.24712291 0.76159006
vt 0.24712291 0.77224153
vt 0.24418727 0.75768906
vt 0.35195732 0.8079389
vt 0.35399956 0.8126482
vt 0.35399956 0.8079389
vt 0.35195732 0.8126482
vt 0.3006201 0.8126482
vt 0.3006201 0.8079389
vt 0.29863897 0.8126482
vt 0.29863897 0.8079389
vt 0.24691114 0.8079389
vt 0.24691114 0.8126482
vt 0.24691114 0.8129714
vt 0.29863897 0.8129714
vt 0.3006201 0.8129714
vt 0.35195732 0.8129714
vt 0.35399956 0.8129714
vt 0.35195732 0.7895741
vt 0.35399956 0.8075543
vt 0.35399956 0.7895741
vt 0.35195732 0.8075543
vt 0.3006201 0.8075543
vt 0.3006201 0.7895741
vt 0.29863897 0.7895741
vt 0.29863897 0.8075543
vt 0.24691114 0.8075543
vt 0.24691114 0.7895741
vt 0.35195732 0.8080707
vt 0.35399956 0.8124307
vt 0.35399956 0.8080707
vt 0.35195732 0.8124307
vt 0.3006201 0.8124307
vt 0.3006201 0.8080707
vt 0.29863897 0.8124307
vt 0.29863897 0.8080707
vt 0.24691114 0.8080707
vt 0.24691114 0.8124307
vt 0.24418727 0.75768906
vt 0.24418727 0.7761641
vt 0.23817647 0.77507204
vt 0.23817647 0.78133386
vt 0.23817647 0.75754195
vt 0.24418727 0.75768906
vt 0.23817647 0.7526069
vt 0.29846886 0.8079389
vt 0.24691114 0.8126482
vt 0.24691114 0.8079389
vt 0.29846886 0.8126482
vt 0.29846886 0.8129714
vt 0.24691114 0.8129714
vt 0.29846886 0.8075543
vt 0.24691114 0.8075543
vt 0.24691114 0.7895741
vt 0.29846886 0.7895741
vt 0.24691114 0.8124307
vt 0.24691114 0.8080707
vt 0.29846886 0.8080707
vt 0.29846886 0.8124307
vt 0.35195732 0.8079389
vt 0.3006201 0.8079389
vt 0.3006201 0.8126482
vt 0.35195732 0.8126482
vt 0.3006201 0.8129714
vt 0.35195732 0.8129714
vt 0.3006201 0.8075543
vt 0.35195732 0.8075543
vt 0.35195732 0.7895741
vt 0.3006201 0.7895741
vt 0.35195732 0.8124307
vt 0.3006201 0.8080707
vt 0.3006201 0.8124307
vt 0.35195732 0.8080707
vt 0.24691114 0.8126482
vt 0.24691114 0.7822837
vt 0.24691114 0.8079389
vt 0.24691114 0.7878825
vt 0.24691114 0.78846616
vt 0.24691114 0.8129714
vt 0.24691114 0.8075543
vt 0.24691114 0.7895741
vt 0.24691114 0.7895741
vt 0.24691114 0.8075543
vt 0.24691114 0.8080707
vt 0.24691114 0.8124307
vt 0.24691114 0.8124307
vt 0.24691114 0.8080707
vt 0.35195732 0.8126482
vt 0.35195732 0.8079389
vt 0.35195732 0.8079389
vt 0.35195732 0.8126482
vt 0.35195732 0.8129714
vt 0.35195732 0.8129714
vt 0.35195732 0.8075543
vt 0.35195732 0.7895741
vt 0.35195732 0.7895741
vt 0.35195732 0.8075543
vt 0.35195732 0.8124307
vt 0.35195732 0.8080707
vt 0.35195732 0.8080707
vt 0.35195732 0.8124307
vt 0.25174412 0.63706946
vt 0.27203792 0.63706946
vt 0.2517441 0.6672164
vt 0.2720379 0.6672164
vt 0.27203795 0.6672164
vt 0.27203792 0.63706946
vt 0.25174415 0.63706946
vt 0.25174415 0.6672164
vn 0.09003843 0.9923304 0.08469717
vn 0.22013302 0.9408112 -0.25771213
vn 0.086207464 0.99291164 -0.0818208
vn 0.09003843 0.9923304 0.08469717
vn 0.21511602 0.9336951 0.28624928
vn 0.22013302 0.9408112 -0.25771213
vn -0.09118231 0.9923229 0.08355199
vn -0.0858248 0.9928976 -0.082391806
vn -0.21818742 0.9406472 -0.2599558
vn 0.22013302 0.9408112 -0.25771213
vn -0.0858248 0.9928976 -0.082391806
vn 0.086207464 0.99291164 -0.0818208
vn -0.28962332 0.638774 0.7128016
vn 0.28833857 0.638464 0.7135998
vn -0.0858248 0.9928976 -0.082391806
vn 0.69418573 0.6579308 0.29194728
vn -0.09118231 0.9923229 0.08355199
vn -0.09118231 0.9923229 0.08355199
vn 0.69259214 0.65521663 -0.30167425
vn 0.27996162 0.63658845 -0.71859354
vn -0.27429876 0.6367241 -0.7206542
vn 0.09003843 0.9923304 0.08469717
vn 0.21511602 0.9336951 0.28624928
vn -0.21740337 0.9336903 0.28453144
vn -0.21818742 0.9406472 -0.2599558
vn -0.09118231 0.9923229 0.08355199
vn -0.35172385 0.025058415 -0.9357684
vn -0.67015254 0.6700573 -0.31924742
vn -0.909182 0.0839243 -0.40785378
vn -0.25901738 0.6397233 -0.72364646
vn 0.2696347 0.64367175 -0.71622896
vn 0.37985817 0.03248912 -0.924474
vn 0.6774526 0.67049116 -0.30248868
vn 0.9175257 0.089858554 -0.3873913
vn 0.9190736 0.084362864 0.38495025
vn 0.6748701 0.67477477 0.298713
vn 0.55847365 0.8005171 0.2174385
vn 0.5447727 0.8078125 -0.22508115
vn 0.2288266 0.80661374 -0.5449887
vn -0.22465809 0.8067094 -0.54657906
vn -0.54317987 0.80771303 -0.22924936
vn -0.22465809 0.8067094 -0.54657906
vn -0.92173237 -0.012780643 -0.38761595
vn -0.54317987 0.80771303 -0.22924936
vn -0.37988985 -0.013540249 -0.9249326
vn 0.38682723 -0.013542769 -0.92205274
vn 0.2288266 0.80661374 -0.5449887
vn 0.5447727 0.8078125 -0.22508115
vn 0.9246184 -0.012778348 -0.38068035
vn 0.9322455 -0.012587603 0.36160746
vn 0.55847365 0.8005171 0.2174385
vn -0.3745794 0.022886723 -0.92691237
vn -0.6901935 0.6551119 -0.30734584
vn -0.9174595 0.06329937 -0.3927611
vn -0.27429876 0.6367241 -0.7206542
vn 0.27996162 0.63658845 -0.71859354
vn 0.38199314 0.022896692 -0.9238815
vn 0.69259214 0.65521663 -0.30167425
vn 0.9208063 0.06312902 -0.38487723
vn 0.9249555 0.065822944 0.37433225
vn 0.69418573 0.6579308 0.29194728
vn 0.09003843 0.9923304 0.08469717
vn 0.086207464 0.99291164 -0.0818208
vn -0.69504917 0.6569016 0.29221058
vn -0.28962332 0.638774 0.7128016
vn -0.6901935 0.6551119 -0.30734584
vn 0.09003843 0.9923304 0.08469717
vn -0.27429876 0.6367241 -0.7206542
vn -0.909182 0.0839243 -0.40785378
vn -0.68044233 0.6731954 0.28949308
vn -0.9238142 0.09028032 0.37204415
vn -0.67015254 0.6700573 -0.31924742
vn -0.54317987 0.80771303 -0.22924936
vn -0.5546065 0.8032068 0.21741796
vn -0.92173237 -0.012780643 -0.38761595
vn -0.931062 -0.012587074 0.36464372
vn -0.5546065 0.8032068 0.21741796
vn -0.54317987 0.80771303 -0.22924936
vn -0.69504917 0.6569016 0.29221058
vn -0.9253322 0.06486865 0.37356713
vn -0.9174595 0.06329937 -0.3927611
vn -0.6901935 0.6551119 -0.30734584
vn 0.37657952 0.026803153 0.92599654
vn -0.39650032 0.033916235 0.9174079
vn -0.28201333 0.6416853 0.713238
vn 0.2785281 0.63565457 0.71997607
vn -0.23575325 0.8114032 0.5348319
vn 0.2364707 0.81401217 0.53053343
vn -0.4028423 -0.013542522 0.9151692
vn 0.40595853 -0.01373544 0.91378826
vn 0.2364707 0.81401217 0.53053343
vn -0.23575325 0.8114032 0.5348319
vn 0.28833857 0.638464 0.7135998
vn -0.39281517 0.030509915 0.91911113
vn -0.28962332 0.638774 0.7128016
vn 0.39325908 0.03184979 0.9188759
vn -0.68044233 0.6731954 0.28949308
vn -0.39650032 0.033916235 0.9174079
vn -0.9238142 0.09028032 0.37204415
vn -0.28201333 0.6416853 0.713238
vn -0.23575325 0.8114032 0.5348319
vn -0.5546065 0.8032068 0.21741796
vn -0.4028423 -0.013542522 0.9151692
vn -0.23575325 0.8114032 0.5348319
vn -0.5546065 0.8032068 0.21741796
vn -0.931062 -0.012587074 0.36464372
vn -0.39281517 0.030509915 0.91911113
vn -0.69504917 0.6569016 0.29221058
vn -0.28962332 0.638774 0.7128016
vn -0.9253322 0.06486865 0.37356713
vn 0.6748701 0.67477477 0.298713
vn 0.9190736 0.084362864 0.38495025
vn 0.37657952 0.026803153 0.92599654
vn 0.2785281 0.63565457 0.71997607
vn 0.2364707 0.81401217 0.53053343
vn 0.55847365 0.8005171 0.2174385
vn 0.9322455 -0.012587603 0.36160746
vn 0.55847365 0.8005171 0.2174385
vn 0.2364707 0.81401217 0.53053343
vn 0.40595853 -0.01373544 0.91378826
vn 0.69418573 0.6579308 0.29194728
vn 0.9249555 0.065822944 0.37433225
vn 0.39325908 0.03184979 0.9188759
vn 0.28833857 0.638464 0.7135998
vn -0 1 0
vn -0 1 0
vn -0 1 0
vn -0 1 0
vn -0 1 0
vn -0 1 0
vn -0 1 0
vn -0 1 0
g obj_prop1_8_0
f 3/3/3 2/2/2 1/1/1
f 6/6/6 5/5/5 4/4/4
f 9/9/9 8/8/8 7/7/7
f 11/11/11 9/9/9 10/10/10
f 10/10/10 12/12/12 11/11/11
f 11/11/11 12/12/12 13/13/13
f 13/13/13 14/14/14 11/11/11
f 16/16/16 15/15/15 14/14/14
f 17/17/17 15/15/15 16/16/16
f 19/19/19 18/18/18 16/16/16
f 20/20/20 18/18/18 19/19/19
f 17/17/17 20/20/20 21/21/21
f 21/21/21 22/22/22 17/17/17
f 22/22/22 23/23/23 17/17/17
f 23/23/23 24/24/24 17/17/17
f 26/26/26 24/24/24 25/25/25
f 29/29/29 28/28/28 27/27/27
f 28/28/28 30/30/30 27/27/27
f 27/27/27 30/30/30 31/31/31
f 32/32/32 27/27/27 31/31/31
f 32/32/32 31/31/31 33/33/33
f 34/34/34 32/32/32 33/33/33
f 35/35/35 34/34/34 33/33/33
f 36/36/36 35/35/35 33/33/33
f 37/37/37 36/36/36 33/33/33
f 33/33/33 38/38/38 37/37/37
f 39/39/39 38/38/38 33/33/33
f 33/33/33 31/31/31 39/39/39
f 40/40/40 39/39/39 31/31/31
f 30/30/30 40/40/40 31/31/31
f 40/40/40 30/30/30 28/28/28
f 28/28/28 41/41/41 40/40/40
f 44/44/44 43/43/43 42/42/42
f 43/43/43 45/45/45 42/42/42
f 42/42/42 45/45/45 46/46/46
f 47/47/47 42/42/42 46/46/46
f 47/47/47 46/46/46 48/48/48
f 46/46/46 49/49/49 48/48/48
f 48/48/48 49/49/49 50/50/50
f 50/50/50 51/51/51 48/48/48
f 54/54/54 53/53/53 52/52/52
f 53/53/53 55/55/55 52/52/52
f 52/52/52 55/55/55 56/56/56
f 57/57/57 52/52/52 56/56/56
f 57/57/57 56/56/56 58/58/58
f 59/59/59 57/57/57 58/58/58
f 60/60/60 59/59/59 58/58/58
f 61/61/61 60/60/60 58/58/58
f 64/64/64 63/63/63 62/62/62
f 65/65/65 63/63/63 64/64/64
f 67/67/67 66/66/66 64/64/64
f 66/66/66 67/67/67 68/68/68
f 71/71/71 70/70/70 69/69/69
f 70/70/70 72/72/72 69/69/69
f 70/70/70 73/73/73 72/72/72
f 70/70/70 74/74/74 73/73/73
f 77/77/77 76/76/76 75/75/75
f 78/78/78 77/77/77 75/75/75
f 81/81/81 80/80/80 79/79/79
f 82/82/82 81/81/81 79/79/79
f 85/85/85 84/84/84 83/83/83
f 83/83/83 86/86/86 85/85/85
f 87/87/87 85/85/85 86/86/86
f 86/86/86 88/88/88 87/87/87
f 91/91/91 90/90/90 89/89/89
f 89/89/89 92/92/92 91/91/91
f 95/95/95 94/94/94 93/93/93
f 94/94/94 96/96/96 93/93/93
f 99/99/99 98/98/98 97/97/97
f 100/100/100 97/97/97 98/98/98
f 97/97/97 100/100/100 101/101/101
f 101/101/101 102/102/102 97/97/97
f 105/105/105 104/104/104 103/103/103
f 103/103/103 106/106/106 105/105/105
f 109/109/109 108/108/108 107/107/107
f 110/110/110 107/107/107 108/108/108
f 113/113/113 112/112/112 111/111/111
f 111/111/111 114/114/114 113/113/113
f 115/115/115 114/114/114 111/111/111
f 111/111/111 116/116/116 115/115/115
f 119/119/119 118/118/118 117/117/117
f 117/117/117 120/120/120 119/119/119
f 123/123/123 122/122/122 121/121/121
f 121/121/121 124/124/124 123/123/123
f 127/127/127 126/126/126 125/125/125
f 128/128/128 126/126/126 127/127/127
f 131/131/131 130/130/130 129/129/129
f 129/129/129 132/132/132 131/131/131
