g obj_propup1_1
v -0.35433832 0.5070599 -0.32894728
v -0.33647245 0.49513665 -0.31548023
v -0.3364731 0.49513665 0.3061959
v -0.35433832 0.5070599 -0.32894728
v -0.3364731 0.49513665 0.3061959
v -0.35433832 0.5070599 0.3213336
v -0.41945103 0.5070598 -0.42917252
v -0.44540545 0.5070599 -0.4032178
v -0.44540545 0.5070599 0.39560378
v -0.35433832 0.5070599 -0.32894728
v -0.35433832 0.5070599 -0.32894728
v -0.35433832 0.5070599 0.3213336
v -0.4191854 0.5070598 0.4227412
v 0.33652556 0.49513665 0.3061959
v 0.33652556 0.49513668 -0.31548023
v 0.3543914 0.5070599 -0.32894728
v 0.3543914 0.5070599 -0.32894728
v -0.33647245 0.49513665 -0.31548023
v -0.35433832 0.5070599 -0.32894728
v -0.41945103 0.5070598 -0.42917252
v 0.41950414 0.5070598 -0.42917222
v 0.44545856 0.5070599 -0.40321746
v 0.3543914 0.5070599 -0.32894728
v 0.44545856 0.5070599 0.39560378
v 0.3543914 0.5070599 0.32133391
v 0.41976976 0.5070598 0.42274153
v 0.3543914 0.5070599 0.32133391
v 0.33652556 0.49513665 0.3061959
v 0.3543914 0.5070599 0.32133391
v -0.4191854 0.5070598 0.4227412
v -0.35433832 0.5070599 0.3213336
v -0.3364731 0.49513665 0.3061959
v 0.31208023 0.50181025 -0.4136563
v 0.27987012 0.54477555 -0.3903326
v 0.29347253 0.50181025 -0.40931663
v 0.43736807 0.50181025 -0.29244655
v 0.27987012 0.54477555 -0.3903326
v 0.41613185 0.54477555 -0.2606567
v -0.2824987 0.5447754 0.3945381
v -0.29610106 0.50181013 0.41352212
v 0.4363258 0.50181025 -0.27336767
v -0.4187604 0.5447755 0.26486188
v 0.29347253 0.50181025 -0.40931663
v -0.43895432 0.50181013 0.27757284
v 0.4363258 0.50181025 -0.27336767
v 0.41613185 0.54477555 -0.2606567
v 0.43736807 0.50181025 -0.29244655
v -0.43853816 0.50181025 -0.3163268
v -0.4258503 0.5538286 -0.29847425
v -0.43749586 0.50181025 -0.29724792
v -0.31526092 0.50181013 -0.41252258
v -0.3155974 0.55382854 -0.40333575
v -0.3338686 0.50181013 -0.41686195
v -0.4258503 0.5538286 -0.29847425
v -0.43853816 0.50181025 -0.3163268
v -0.3155974 0.55382854 -0.40333575
v 0.2980288 0.55382866 0.38278788
v -0.43749586 0.50181025 -0.29724792
v 0.3068719 0.50181025 0.39424843
v 0.41681615 0.55382854 0.27076435
v 0.4291075 0.50181013 0.27897343
v -0.31526092 0.50181013 -0.41252258
v -0.4236247 0.0014532785 -0.42917222
v -0.44540545 0.11906529 -0.40321743
v -0.45782134 0.0014532785 -0.40321746
v -0.41945103 0.11906529 -0.42917216
v 0.41950414 0.11906533 -0.42917216
v 0.4273935 0.0014532785 -0.42917222
v -0.40135562 0.11862188 -0.40682247
v -0.4261912 0.118621916 -0.3819872
v 0.40140936 0.118621916 -0.40682217
v 0.44545856 0.119065255 -0.40321743
v 0.45787442 0.0014532785 -0.40321746
v 0.45787442 0.0014533937 0.39560378
v 0.4262443 0.11862189 -0.3819872
v 0.44545856 0.11906537 0.39560384
v 0.4262443 0.118622035 0.37437394
v -0.42775023 0.3623742 -0.38371035
v -0.4261912 0.118621916 -0.3819872
v -0.40135562 0.11862188 -0.40682247
v -0.40282485 0.3623741 -0.4086364
v 0.40287793 0.3623742 -0.4086364
v 0.40140936 0.118621916 -0.40682217
v 0.4278033 0.3623742 -0.38371035
v 0.4262443 0.11862189 -0.3819872
v 0.4278033 0.36237413 0.37609676
v 0.4262443 0.118622035 0.37437394
v -0.44540545 0.5070599 -0.4032178
v -0.45410815 0.3623742 -0.40321743
v -0.42495474 0.3623741 -0.42917216
v -0.41945103 0.5070598 -0.42917252
v 0.42500782 0.3623742 -0.42917216
v 0.41950414 0.5070598 -0.42917222
v 0.44545856 0.5070599 -0.40321746
v 0.45411947 0.3623742 -0.40321714
v 0.44545856 0.5070599 0.39560378
v 0.45411947 0.3623742 0.39560413
v -0.45782134 0.0014532785 -0.40321746
v -0.44540545 0.11906529 -0.40321743
v -0.45782134 0.0014533937 0.39560378
v -0.44540545 0.11906535 0.39560384
v -0.4261912 0.118621916 -0.3819872
v -0.4261912 0.11862201 0.37437394
v -0.42775023 0.36237413 0.37609676
v -0.4261912 0.11862201 0.37437394
v -0.4261912 0.118621916 -0.3819872
v -0.42775023 0.3623742 -0.38371035
v -0.44540545 0.5070599 0.39560378
v -0.4540664 0.3623742 0.39560384
v -0.45410815 0.3623742 -0.40321743
v -0.44540545 0.5070599 -0.4032178
v -0.43895432 0.50181013 0.27757284
v -0.2824987 0.5447754 0.3945381
v -0.29610106 0.50181013 0.41352212
v -0.4187604 0.5447755 0.26486188
v 0.3068719 0.50181025 0.39424843
v 0.2980288 0.55382866 0.38278788
v 0.41681615 0.55382854 0.27076435
v 0.4291075 0.50181013 0.27897343
v 0.42420837 0.0014533169 0.42392394
v -0.42680976 0.0014533169 0.4239236
v -0.4189204 0.11906531 0.42392367
v 0.42003477 0.11906527 0.42392397
v -0.40082502 0.11862189 0.40157366
v 0.40194 0.118621856 0.40157428
v 0.4034086 0.362374 0.4033882
v -0.40082502 0.11862189 0.40157366
v -0.4022942 0.3623741 0.40338787
v 0.40194 0.118621856 0.40157428
v 0.41976976 0.5070598 0.42274153
v -0.4244241 0.3623741 0.42392367
v -0.4191854 0.5070598 0.4227412
v 0.42553848 0.362374 0.42392397
v -0.44540545 0.11906535 0.39560384
v -0.42680976 0.0014533169 0.4239236
v -0.45782134 0.0014533937 0.39560378
v -0.4189204 0.11906531 0.42392367
v -0.40082502 0.11862189 0.40157366
v -0.4261912 0.11862201 0.37437394
v -0.40082502 0.11862189 0.40157366
v -0.42775023 0.36237413 0.37609676
v -0.4022942 0.3623741 0.40338787
v -0.4261912 0.11862201 0.37437394
v -0.4244241 0.3623741 0.42392367
v -0.44540545 0.5070599 0.39560378
v -0.4191854 0.5070598 0.4227412
v -0.4540664 0.3623742 0.39560384
v 0.44545856 0.11906537 0.39560384
v 0.45787442 0.0014533937 0.39560378
v 0.42420837 0.0014533169 0.42392394
v 0.42003477 0.11906527 0.42392397
v 0.40194 0.118621856 0.40157428
v 0.4262443 0.118622035 0.37437394
v 0.4278033 0.36237413 0.37609676
v 0.4262443 0.118622035 0.37437394
v 0.40194 0.118621856 0.40157428
v 0.4034086 0.362374 0.4033882
v 0.45411947 0.3623742 0.39560413
v 0.41976976 0.5070598 0.42274153
v 0.44545856 0.5070599 0.39560378
v 0.42553848 0.362374 0.42392397
v -0.33647245 0.49513665 -0.31548023
v 2.6544074E-05 0.49513665 -0.31548023
v 2.6236763E-05 0.49513665 0.3061959
v -0.3364731 0.49513665 0.3061959
v 2.6544074E-05 0.49513665 -0.31548023
v 0.33652556 0.49513668 -0.31548023
v 0.33652556 0.49513665 0.3061959
v 2.6236763E-05 0.49513665 0.3061959
vt 0.24418727 0.75768906
vt 0.24712291 0.76159006
vt 0.24712291 0.77224153
vt 0.24418727 0.75768906
vt 0.24712291 0.77224153
vt 0.24418727 0.7761641
vt 0.23817647 0.7526069
vt 0.23817647 0.75754195
vt 0.23817647 0.77507204
vt 0.24418727 0.75768906
vt 0.24418727 0.75768906
vt 0.24418727 0.7761641
vt 0.23817647 0.78133386
vt 0.24712291 0.77224153
vt 0.24712291 0.76159006
vt 0.24418727 0.75768906
vt 0.24418727 0.75768906
vt 0.24990742 0.76019484
vt 0.24990742 0.7576967
vt 0.24990742 0.7526069
vt 0.23817647 0.7526069
vt 0.23817647 0.75754195
vt 0.24418727 0.75768906
vt 0.23817647 0.77507204
vt 0.24418727 0.7761641
vt 0.23817647 0.781334
vt 0.24418727 0.7761641
vt 0.24712291 0.77224153
vt 0.24418727 0.7761641
vt 0.24990742 0.78133386
vt 0.24990742 0.776231
vt 0.24990742 0.77342767
vt 0.23743919 0.78195626
vt 0.2368217 0.78238803
vt 0.23582117 0.7818888
vt 0.24335453 0.78195626
vt 0.23702651 0.78320986
vt 0.24372998 0.78320986
vt 0.24372998 0.8124307
vt 0.24490157 0.8124307
vt 0.24490157 0.78320986
vt 0.23702651 0.8124307
vt 0.23577252 0.78320986
vt 0.23577252 0.8124307
vt 0.23582117 0.7818888
vt 0.23582117 0.78238803
vt 0.2368217 0.7818888
vt 0.2368217 0.7818888
vt 0.23632143 0.78238803
vt 0.23582117 0.7818888
vt 0.23582117 0.7818888
vt 0.23632143 0.78238803
vt 0.23743919 0.78195626
vt 0.24372998 0.78320986
vt 0.24335453 0.78195626
vt 0.23702651 0.78320986
vt 0.24372998 0.8124307
vt 0.24490157 0.78320986
vt 0.24490157 0.8124307
vt 0.23702651 0.8124307
vt 0.23577252 0.8124307
vt 0.23577252 0.78320986
vt 0.35195732 0.7822837
vt 0.35399956 0.78706604
vt 0.35399956 0.7822837
vt 0.35195732 0.78706604
vt 0.3006201 0.78706604
vt 0.3006201 0.7822837
vt 0.35195732 0.78846616
vt 0.35399956 0.78846616
vt 0.3006201 0.78846616
vt 0.29863897 0.78706604
vt 0.29863897 0.7822837
vt 0.24691114 0.7822837
vt 0.29863897 0.78846616
vt 0.24691114 0.78706604
vt 0.24691114 0.78846616
vt 0.35399956 0.8075543
vt 0.35399956 0.7895741
vt 0.35195732 0.7895741
vt 0.35195732 0.8075543
vt 0.3006201 0.8075543
vt 0.3006201 0.7895741
vt 0.29863897 0.8075543
vt 0.29863897 0.7895741
vt 0.24691114 0.8075543
vt 0.24691114 0.7895741
vt 0.35399956 0.8124307
vt 0.35399956 0.8080707
vt 0.35195732 0.8080707
vt 0.35195732 0.8124307
vt 0.3006201 0.8080707
vt 0.3006201 0.8124307
vt 0.29863897 0.8124307
vt 0.29863897 0.8080707
vt 0.24691114 0.8124307
vt 0.24691114 0.8080707
vt 0.29846886 0.7822837
vt 0.29846886 0.78706604
vt 0.24691114 0.7822837
vt 0.24691114 0.78706604
vt 0.29846886 0.78846616
vt 0.24691114 0.78846616
vt 0.24691114 0.8075543
vt 0.24691114 0.7895741
vt 0.29846886 0.7895741
vt 0.29846886 0.8075543
vt 0.24691114 0.8124307
vt 0.24691114 0.8080707
vt 0.29846886 0.8080707
vt 0.29846886 0.8124307
vt 0.23702651 0.8124307
vt 0.24372998 0.8124307
vt 0.24372998 0.8124307
vt 0.23702651 0.8124307
vt 0.24490157 0.8124307
vt 0.24383774 0.8124307
vt 0.24383774 0.8124307
vt 0.24490157 0.8124307
vt 0.35195732 0.7822837
vt 0.3006201 0.7822837
vt 0.3006201 0.78706604
vt 0.35195732 0.78706604
vt 0.3006201 0.78846616
vt 0.35195732 0.78846616
vt 0.35195732 0.8075543
vt 0.3006201 0.7895741
vt 0.3006201 0.8075543
vt 0.35195732 0.7895741
vt 0.35195732 0.8124307
vt 0.3006201 0.8080707
vt 0.3006201 0.8124307
vt 0.35195732 0.8080707
vt 0.24691114 0.78706604
vt 0.24691114 0.7822837
vt 0.24691114 0.7822837
vt 0.24691114 0.78706604
vt 0.24691114 0.78846616
vt 0.24691114 0.78846616
vt 0.24691114 0.7895741
vt 0.24691114 0.8075543
vt 0.24691114 0.8075543
vt 0.24691114 0.7895741
vt 0.24691114 0.8080707
vt 0.24691114 0.8124307
vt 0.24691114 0.8124307
vt 0.24691114 0.8080707
vt 0.35195732 0.78706604
vt 0.35195732 0.7822837
vt 0.35195732 0.7822837
vt 0.35195732 0.78706604
vt 0.35195732 0.78846616
vt 0.35195732 0.78846616
vt 0.35195732 0.8075543
vt 0.35195732 0.7895741
vt 0.35195732 0.7895741
vt 0.35195732 0.8075543
vt 0.35195732 0.8080707
vt 0.35195732 0.8124307
vt 0.35195732 0.8124307
vt 0.35195732 0.8080707
vt 0.25174412 0.63706946
vt 0.27239174 0.63706946
vt 0.2723917 0.6672164
vt 0.2517441 0.6672164
vt 0.27239174 0.63706946
vt 0.25174415 0.63706946
vt 0.25174415 0.6672164
vt 0.27239177 0.6672164
vn 0.09062539 0.99229795 0.08445062
vn 0.21635437 0.9337068 0.28527594
vn 0.21900645 0.9407065 -0.2590511
vn 0.09062539 0.99229795 0.08445062
vn 0.21900645 0.9407065 -0.2590511
vn 0.085689396 0.9929276 -0.08217024
vn -0.27898106 0.63498485 -0.7203915
vn -0.6949963 0.6510766 -0.30508906
vn -0.69798 0.6524135 0.29526377
vn 0.09062539 0.99229795 0.08445062
vn 0.09062539 0.99229795 0.08445062
vn 0.085689396 0.9929276 -0.08217024
vn -0.28860098 0.636484 0.71526057
vn -0.21900238 0.9407072 -0.2590518
vn -0.21635126 0.93370765 0.2852755
vn -0.090624064 0.99229807 0.08445044
vn -0.090624064 0.99229807 0.08445044
vn 0.21635437 0.9337068 0.28527594
vn 0.09062539 0.99229795 0.08445062
vn -0.27898106 0.63498485 -0.7203915
vn 0.27911344 0.63499236 -0.7203335
vn 0.6951122 0.65101045 -0.3049664
vn -0.090624064 0.99229807 0.08445044
vn 0.6994827 0.65325767 0.28979024
vn -0.08568845 0.99292785 -0.082169056
vn 0.29316324 0.6362663 0.71359694
vn -0.08568845 0.99292785 -0.082169056
vn -0.21900238 0.9407072 -0.2590518
vn -0.08568845 0.99292785 -0.082169056
vn -0.28860098 0.636484 0.71526057
vn 0.085689396 0.9929276 -0.08217024
vn 0.21900645 0.9407065 -0.2590511
vn 0.28924885 0.61503834 -0.7335277
vn -0.18307026 0.7404045 -0.64675075
vn -0.39532173 0.26362407 -0.8798995
vn 0.7076211 0.61304873 -0.3513456
vn -0.18307026 0.7404045 -0.64675075
vn 0.6442666 0.740977 0.1894035
vn 0.11078795 0.71394 0.6913868
vn -0.090956114 0.42642832 0.8999366
vn 0.8902029 0.3235086 0.32075065
vn -0.68779564 0.71605223 -0.11918989
vn -0.39532173 0.26362407 -0.8798995
vn -0.8925729 0.4435334 0.08119033
vn 0.8902029 0.3235086 0.32075065
vn 0.6442666 0.740977 0.1894035
vn 0.7076211 0.61304873 -0.3513456
vn -0.85589325 0.3419193 -0.3879922
vn -0.7047781 0.7060881 0.068755776
vn -0.89347404 0.20710741 0.39851052
vn 0.45323262 0.15786906 -0.87730134
vn 0.073157944 0.6990881 -0.71128315
vn -0.30715185 0.3373567 -0.8898585
vn -0.7047781 0.7060881 0.068755776
vn -0.85589325 0.3419193 -0.3879922
vn 0.073157944 0.6990881 -0.71128315
vn -0.059258368 0.6556313 0.7527523
vn -0.89347404 0.20710741 0.39851052
vn 0.06449106 0.22515494 0.9721863
vn 0.7539292 0.65337545 -0.06849317
vn 0.9692759 0.23993315 0.054188598
vn 0.45323262 0.15786906 -0.87730134
vn -0.35530022 0.025058359 -0.93441623
vn -0.67132825 0.67017215 -0.3165244
vn -0.91072196 0.08391291 -0.40440598
vn -0.26167938 0.6397691 -0.72264737
vn 0.26688853 0.6437919 -0.7171489
vn 0.3764803 0.032499176 -0.92585444
vn -0.22647423 0.80798995 -0.5439318
vn -0.5424471 0.8089022 -0.22677836
vn 0.226476 0.8079905 -0.54393023
vn 0.6762372 0.67050666 -0.30516228
vn 0.91619307 0.089806564 -0.3905444
vn 0.92047226 0.08435394 0.38159576
vn 0.5424487 0.80890137 -0.22677721
vn 0.6760184 0.6746898 0.29629827
vn 0.55786324 0.8016263 0.21490428
vn -0.92346597 -0.008618848 -0.38358334
vn -0.5424471 0.8089022 -0.22677836
vn -0.22647423 0.80798995 -0.5439318
vn -0.3832793 -0.00918278 -0.92358685
vn 0.38328025 -0.00918251 -0.9235865
vn 0.226476 0.8079905 -0.54393023
vn 0.92346656 -0.008618571 -0.3835821
vn 0.5424487 0.80890137 -0.22677721
vn 0.93386203 -0.008492572 0.35753277
vn 0.55786324 0.8016263 0.21490428
vn -0.6949963 0.6510766 -0.30508906
vn -0.9192184 0.051143833 -0.3904124
vn -0.37647918 0.018481191 -0.9262408
vn -0.27898106 0.63498485 -0.7203915
vn 0.37665892 0.01843609 -0.92616856
vn 0.27911344 0.63499236 -0.7203335
vn 0.6951122 0.65101045 -0.3049664
vn 0.9192799 0.051013693 -0.39028466
vn 0.6994827 0.65325767 0.28979024
vn 0.9266396 0.053188957 0.37216923
vn -0.91072196 0.08391291 -0.40440598
vn -0.67132825 0.67017215 -0.3165244
vn -0.9224058 0.09025615 0.37552816
vn -0.67926025 0.67333996 0.2919228
vn -0.5424471 0.8089022 -0.22677836
vn -0.55207825 0.8043813 0.21950021
vn -0.93000674 -0.008541639 0.36744317
vn -0.55207825 0.8043813 0.21950021
vn -0.5424471 0.8089022 -0.22677836
vn -0.92346597 -0.008618848 -0.38358334
vn -0.69798 0.6524135 0.29526377
vn -0.924029 0.052493222 0.37870154
vn -0.9192184 0.051143833 -0.3904124
vn -0.6949963 0.6510766 -0.30508906
vn -0.8925729 0.4435334 0.08119033
vn 0.11078795 0.71394 0.6913868
vn -0.090956114 0.42642832 0.8999366
vn -0.68779564 0.71605223 -0.11918989
vn 0.06449106 0.22515494 0.9721863
vn -0.059258368 0.6556313 0.7527523
vn 0.7539292 0.65337545 -0.06849317
vn 0.9692759 0.23993315 0.054188598
vn 0.3799678 0.026797436 0.9246115
vn -0.3927278 0.033901103 0.9190297
vn -0.27946818 0.64146906 0.7144333
vn 0.2814537 0.635548 0.71893156
vn -0.2334115 0.8125536 0.53411216
vn 0.23748554 0.8153455 0.52802694
vn 0.40899837 -0.00926252 0.9124881
vn -0.2334115 0.8125536 0.53411216
vn -0.39928716 -0.009233557 0.91677946
vn 0.23748554 0.8153455 0.52802694
vn 0.29316324 0.6362663 0.71359694
vn -0.38766468 0.024556186 0.9214734
vn -0.28860098 0.636484 0.71526057
vn 0.39514023 0.025628725 0.9182632
vn -0.67926025 0.67333996 0.2919228
vn -0.3927278 0.033901103 0.9190297
vn -0.9224058 0.09025615 0.37552816
vn -0.27946818 0.64146906 0.7144333
vn -0.2334115 0.8125536 0.53411216
vn -0.55207825 0.8043813 0.21950021
vn -0.2334115 0.8125536 0.53411216
vn -0.93000674 -0.008541639 0.36744317
vn -0.39928716 -0.009233557 0.91677946
vn -0.55207825 0.8043813 0.21950021
vn -0.38766468 0.024556186 0.9214734
vn -0.69798 0.6524135 0.29526377
vn -0.28860098 0.636484 0.71526057
vn -0.924029 0.052493222 0.37870154
vn 0.6760184 0.6746898 0.29629827
vn 0.92047226 0.08435394 0.38159576
vn 0.3799678 0.026797436 0.9246115
vn 0.2814537 0.635548 0.71893156
vn 0.23748554 0.8153455 0.52802694
vn 0.55786324 0.8016263 0.21490428
vn 0.93386203 -0.008492572 0.35753277
vn 0.55786324 0.8016263 0.21490428
vn 0.23748554 0.8153455 0.52802694
vn 0.40899837 -0.00926252 0.9124881
vn 0.9266396 0.053188957 0.37216923
vn 0.29316324 0.6362663 0.71359694
vn 0.6994827 0.65325767 0.28979024
vn 0.39514023 0.025628725 0.9182632
vn -0 1 0
vn -0 1 0
vn -0 1 0
vn -0 1 0
vn -0 1 0
vn -0 1 0
vn -0 1 0
vn -0 1 0
g obj_propup1_1_0
f 3/3/3 2/2/2 1/1/1
f 6/6/6 5/5/5 4/4/4
f 8/8/8 4/4/4 7/7/7
f 10/10/10 8/8/8 9/9/9
f 9/9/9 12/12/12 11/11/11
f 13/13/13 12/12/12 9/9/9
f 16/16/16 15/15/15 14/14/14
f 18/18/18 15/15/15 17/17/17
f 19/19/19 18/18/18 17/17/17
f 20/20/20 19/19/19 17/17/17
f 17/17/17 21/21/21 20/20/20
f 21/21/21 23/23/23 22/22/22
f 22/22/22 23/23/23 24/24/24
f 17/17/17 25/25/25 24/24/24
f 24/24/24 25/25/25 26/26/26
f 28/28/28 27/27/27 23/23/23
f 30/30/30 26/26/26 29/29/29
f 31/31/31 30/30/30 29/29/29
f 31/31/31 29/29/29 28/28/28
f 32/32/32 31/31/31 28/28/28
f 35/35/35 34/34/34 33/33/33
f 33/33/33 37/37/37 36/36/36
f 38/38/38 36/36/36 37/37/37
f 39/39/39 38/38/38 37/37/37
f 39/39/39 40/40/40 38/38/38
f 41/41/41 38/38/38 40/40/40
f 37/37/37 42/42/42 39/39/39
f 37/37/37 43/43/43 42/42/42
f 44/44/44 42/42/42 43/43/43
f 47/47/47 46/46/46 45/45/45
f 50/50/50 49/49/49 48/48/48
f 53/53/53 52/52/52 51/51/51
f 55/55/55 54/54/54 53/53/53
f 56/56/56 53/53/53 54/54/54
f 56/56/56 54/54/54 57/57/57
f 54/54/54 58/58/58 57/57/57
f 59/59/59 57/57/57 58/58/58
f 56/56/56 57/57/57 60/60/60
f 60/60/60 61/61/61 56/56/56
f 62/62/62 56/56/56 61/61/61
f 65/65/65 64/64/64 63/63/63
f 63/63/63 64/64/64 66/66/66
f 63/63/63 66/66/66 67/67/67
f 67/67/67 68/68/68 63/63/63
f 69/69/69 66/66/66 64/64/64
f 66/66/66 69/69/69 67/67/67
f 64/64/64 70/70/70 69/69/69
f 69/69/69 71/71/71 67/67/67
f 68/68/68 67/67/67 72/72/72
f 72/72/72 67/67/67 71/71/71
f 72/72/72 73/73/73 68/68/68
f 74/74/74 73/73/73 72/72/72
f 71/71/71 75/75/75 72/72/72
f 76/76/76 74/74/74 72/72/72
f 72/72/72 75/75/75 76/76/76
f 75/75/75 77/77/77 76/76/76
f 80/80/80 79/79/79 78/78/78
f 80/80/80 78/78/78 81/81/81
f 80/80/80 81/81/81 82/82/82
f 82/82/82 83/83/83 80/80/80
f 83/83/83 82/82/82 84/84/84
f 84/84/84 85/85/85 83/83/83
f 85/85/85 84/84/84 86/86/86
f 86/86/86 87/87/87 85/85/85
f 90/90/90 89/89/89 88/88/88
f 90/90/90 88/88/88 91/91/91
f 92/92/92 90/90/90 91/91/91
f 93/93/93 92/92/92 91/91/91
f 92/92/92 93/93/93 94/94/94
f 94/94/94 95/95/95 92/92/92
f 95/95/95 94/94/94 96/96/96
f 96/96/96 97/97/97 95/95/95
f 100/100/100 99/99/99 98/98/98
f 99/99/99 100/100/100 101/101/101
f 101/101/101 102/102/102 99/99/99
f 101/101/101 103/103/103 102/102/102
f 106/106/106 105/105/105 104/104/104
f 104/104/104 107/107/107 106/106/106
f 110/110/110 109/109/109 108/108/108
f 108/108/108 111/111/111 110/110/110
f 114/114/114 113/113/113 112/112/112
f 112/112/112 113/113/113 115/115/115
f 118/118/118 117/117/117 116/116/116
f 116/116/116 119/119/119 118/118/118
f 122/122/122 121/121/121 120/120/120
f 120/120/120 123/123/123 122/122/122
f 124/124/124 122/122/122 123/123/123
f 123/123/123 125/125/125 124/124/124
f 128/128/128 127/127/127 126/126/126
f 127/127/127 129/129/129 126/126/126
f 132/132/132 131/131/131 130/130/130
f 131/131/131 133/133/133 130/130/130
f 136/136/136 135/135/135 134/134/134
f 137/137/137 134/134/134 135/135/135
f 134/134/134 137/137/137 138/138/138
f 138/138/138 139/139/139 134/134/134
f 142/142/142 141/141/141 140/140/140
f 143/143/143 140/140/140 141/141/141
f 146/146/146 145/145/145 144/144/144
f 147/147/147 144/144/144 145/145/145
f 150/150/150 149/149/149 148/148/148
f 148/148/148 151/151/151 150/150/150
f 152/152/152 151/151/151 148/148/148
f 148/148/148 153/153/153 152/152/152
f 156/156/156 155/155/155 154/154/154
f 154/154/154 157/157/157 156/156/156
f 160/160/160 159/159/159 158/158/158
f 161/161/161 158/158/158 159/159/159
f 164/164/164 163/163/163 162/162/162
f 162/162/162 165/165/165 164/164/164
f 168/168/168 167/167/167 166/166/166
f 166/166/166 169/169/169 168/168/168
