g obj_propup1_2
v 0.33333457 0.27318752 -0.3544758
v 0.22729042 0.2731874 -0.3544758
v 0.33333457 0.063129134 -0.39108956
v 0.22729042 0.06312912 -0.39108956
v 0.22729042 0.2731874 -0.3544758
v 0.19659364 0.27318743 -0.18194899
v 0.19659364 0.06312912 -0.21856275
v 0.22729042 0.06312912 -0.39108956
v 0.36403134 0.27318752 -0.18194899
v 0.3563295 0.27318743 -0.3314815
v 0.36403134 0.063129134 -0.21856338
v 0.3563295 0.06312912 -0.36809525
v 0.3563295 0.27318743 -0.3314815
v 0.33333457 0.27318752 -0.3544758
v 0.33333457 0.063129134 -0.39108956
v 0.3563295 0.06312912 -0.36809525
v -0.22729011 0.2731874 -0.3544758
v -0.33333364 0.2731875 -0.3544758
v -0.33333364 0.063129134 -0.39108956
v -0.22729011 0.06312911 -0.39108956
v -0.19659272 0.06312912 -0.21856338
v -0.19659272 0.27318743 -0.1819496
v -0.22729011 0.2731874 -0.3544758
v -0.22729011 0.06312911 -0.39108956
v -0.35632858 0.2731874 -0.3314815
v -0.36403105 0.27318752 -0.1819496
v -0.36403105 0.063129134 -0.21856338
v -0.35632858 0.06312911 -0.36809525
v -0.35632858 0.2731874 -0.3314815
v -0.35632858 0.06312911 -0.36809525
v -0.33333364 0.063129134 -0.39108956
v -0.33333364 0.2731875 -0.3544758
v 0.39741835 0.386955 0.3453511
v 0.39417496 0.38695502 -0.33447653
v 0.41725412 0.2720517 -0.34092396
v 0.41640654 0.2720517 0.35665217
v 0.39417496 0.38695502 -0.33447653
v 0.35635963 0.38695502 -0.37038657
v 0.37119603 0.27205175 -0.3775285
v 0.41725412 0.2720517 -0.34092396
v 0.39417496 0.38695502 -0.33447653
v 0.39741835 0.386955 0.3453511
v 0.35635963 0.38695502 -0.37038657
v 0.002839486 0.38695505 0.3453511
v 0.002839486 0.3869551 -0.37038657
v 0.002839486 0.27205175 -0.3775285
v 0.35635963 0.38695502 -0.37038657
v 0.37119603 0.27205175 -0.3775285
v -0.41157514 0.27205178 -0.34092396
v -0.388496 0.3869551 -0.3344765
v -0.39173937 0.38695514 0.34535113
v -0.41072756 0.27205178 0.35665217
v -0.388496 0.3869551 -0.3344765
v -0.41157514 0.27205178 -0.34092396
v -0.36551705 0.27205184 -0.3775285
v -0.35068065 0.38695517 -0.37038654
v -0.388496 0.3869551 -0.3344765
v -0.35068065 0.38695517 -0.37038654
v -0.39173937 0.38695514 0.34535113
v 0.002839486 0.38695505 0.3453511
v 0.002839486 0.3869551 -0.37038657
v -0.35068065 0.38695517 -0.37038654
v 0.002839486 0.27205175 -0.3775285
v -0.36551705 0.27205184 -0.3775285
vt 0.37109724 0.09609457
vt 0.3823875 0.09609457
vt 0.37109724 0.07454892
vt 0.3823875 0.07454892
vt 0.38476714 0.09609457
vt 0.3881748 0.09609457
vt 0.3881748 0.07454892
vt 0.38476714 0.07454892
vt 0.36495045 0.09609457
vt 0.36873206 0.09609457
vt 0.36495045 0.07454892
vt 0.36873206 0.07454892
vt 0.3690457 0.09609457
vt 0.37076554 0.09609457
vt 0.37076554 0.07454892
vt 0.3690457 0.07454892
vt 0.37109724 0.09609457
vt 0.3823875 0.09609457
vt 0.3823875 0.07454892
vt 0.37109724 0.07454892
vt 0.36495045 0.07454892
vt 0.36495045 0.09609457
vt 0.36873206 0.09609457
vt 0.36873206 0.07454892
vt 0.38476714 0.09609457
vt 0.3881748 0.09609457
vt 0.3881748 0.07454892
vt 0.38476714 0.07454892
vt 0.38442218 0.09609457
vt 0.38442218 0.07454892
vt 0.38273028 0.07454892
vt 0.38273028 0.09609457
vt 0.33959806 0.15576531
vt 0.34651768 0.15576531
vt 0.34651768 0.15029587
vt 0.33959806 0.15029587
vt 0.34667492 0.15576531
vt 0.349483 0.15576531
vt 0.349483 0.15029587
vt 0.34667492 0.15029587
vt 0.3490157 0.15751518
vt 0.34989178 0.18941052
vt 0.35076785 0.15576531
vt 0.3822801 0.18941052
vt 0.38226712 0.15576531
vt 0.38226712 0.15029587
vt 0.3496014 0.15576531
vt 0.3496014 0.15029587
vt 0.34651768 0.15029587
vt 0.34651768 0.15576531
vt 0.33959806 0.15576531
vt 0.33959806 0.15029587
vt 0.34667492 0.15576531
vt 0.34667492 0.15029587
vt 0.349483 0.15029587
vt 0.349483 0.15576531
vt 0.3490157 0.15751518
vt 0.35076785 0.15576531
vt 0.34989178 0.18941052
vt 0.3822801 0.18941052
vt 0.38226712 0.15576531
vt 0.3496014 0.15576531
vt 0.38226712 0.15029587
vt 0.3496014 0.15029587
vn 0.39331684 0.15787429 -0.90574694
vn -0.6734715 0.12693319 -0.7282335
vn 0.36388412 0.15994194 -0.9176094
vn -0.6038557 0.13687207 -0.7852543
vn -0.6734715 0.12693319 -0.7282335
vn -0.98407894 0.030519035 -0.17509197
vn -0.98407894 0.030519031 -0.17509194
vn -0.6038557 0.13687207 -0.7852543
vn 0.99863607 0.0089655295 -0.051436074
vn 0.9261148 0.064777695 -0.37163845
vn 0.99863607 0.0089655295 -0.05143607
vn 0.8962821 0.07615248 -0.43689722
vn 0.9261148 0.064777695 -0.37163845
vn 0.39331684 0.15787429 -0.90574694
vn 0.36388412 0.15994194 -0.9176094
vn 0.8962821 0.07615248 -0.43689722
vn 0.67346996 0.12693346 -0.728235
vn -0.39331675 0.15787429 -0.90574694
vn -0.36388412 0.15994194 -0.9176094
vn 0.6038543 0.13687226 -0.7852554
vn 0.98407817 0.030519728 -0.17509596
vn 0.98407817 0.030519728 -0.17509596
vn 0.67346996 0.12693346 -0.728235
vn 0.6038543 0.13687226 -0.7852554
vn -0.92611396 0.064778045 -0.37164065
vn -0.9986358 0.008966187 -0.051440276
vn -0.9986358 0.008966187 -0.051440276
vn -0.89628124 0.07615274 -0.43689892
vn -0.92611396 0.064778045 -0.37164065
vn -0.89628124 0.07615274 -0.43689892
vn -0.36388412 0.15994194 -0.9176094
vn -0.39331675 0.15787429 -0.90574694
vn 0.6603202 0.75098336 -0.0011485021
vn 0.64914596 0.69726896 -0.30401537
vn 0.89749503 0.18171537 -0.4018484
vn 0.98366 0.18002805 -0.001710936
vn 0.64914596 0.69726896 -0.30401537
vn 0.24295102 0.6714554 -0.7000875
vn 0.36624193 0.11652769 -0.9231945
vn 0.89749503 0.18171537 -0.4018484
vn 0.64914596 0.69726896 -0.30401537
vn 0.6603202 0.75098336 -0.0011485021
vn 0.24295102 0.6714554 -0.7000875
vn 2.053953E-07 1 0
vn 1.29553E-07 0.7287099 -0.6848225
vn -0 0.06203637 -0.99807394
vn 0.24295102 0.6714554 -0.7000875
vn 0.36624193 0.11652769 -0.9231945
vn -0.897495 0.18171546 -0.40184852
vn -0.64914685 0.6972683 -0.30401528
vn -0.6603199 0.75098354 -0.0011485042
vn -0.98366 0.180028 -0.0017109459
vn -0.64914685 0.6972683 -0.30401528
vn -0.897495 0.18171546 -0.40184852
vn -0.3662418 0.116527885 -0.9231945
vn -0.24295108 0.6714556 -0.7000872
vn -0.64914685 0.6972683 -0.30401528
vn -0.24295108 0.6714556 -0.7000872
vn -0.6603199 0.75098354 -0.0011485042
vn 2.053953E-07 1 0
vn 1.29553E-07 0.7287099 -0.6848225
vn -0.24295108 0.6714556 -0.7000872
vn -0 0.06203637 -0.99807394
vn -0.3662418 0.116527885 -0.9231945
g obj_propup1_2_0
f 3/3/3 2/2/2 1/1/1
f 3/3/3 4/4/4 2/2/2
f 7/7/7 6/6/6 5/5/5
f 5/5/5 8/8/8 7/7/7
f 11/11/11 10/10/10 9/9/9
f 11/11/11 12/12/12 10/10/10
f 15/15/15 14/14/14 13/13/13
f 13/13/13 16/16/16 15/15/15
f 19/19/19 18/18/18 17/17/17
f 17/17/17 20/20/20 19/19/19
f 23/23/23 22/22/22 21/21/21
f 21/21/21 24/24/24 23/23/23
f 27/27/27 26/26/26 25/25/25
f 25/25/25 28/28/28 27/27/27
f 31/31/31 30/30/30 29/29/29
f 29/29/29 32/32/32 31/31/31
f 35/35/35 34/34/34 33/33/33
f 33/33/33 36/36/36 35/35/35
f 39/39/39 38/38/38 37/37/37
f 37/37/37 40/40/40 39/39/39
f 43/43/43 42/42/42 41/41/41
f 44/44/44 42/42/42 43/43/43
f 44/44/44 43/43/43 45/45/45
f 47/47/47 46/46/46 45/45/45
f 46/46/46 47/47/47 48/48/48
f 51/51/51 50/50/50 49/49/49
f 49/49/49 52/52/52 51/51/51
f 55/55/55 54/54/54 53/53/53
f 53/53/53 56/56/56 55/55/55
f 59/59/59 58/58/58 57/57/57
f 58/58/58 59/59/59 60/60/60
f 60/60/60 61/61/61 58/58/58
f 61/61/61 63/63/63 62/62/62
f 63/63/63 64/64/64 62/62/62
