g obj_road1_CS2
v 0.31473097 0.014681994 0.5035
v 0.30210045 -2.2376155E-06 0.5035
v 0.30210045 -2.4296855E-06 0.30209994
v 0.31473097 0.014681857 0.31466138
v 0.5035006 -2.4296855E-06 0.30209994
v 0.5035006 0.014681857 0.3146613
v 0.49093792 0.014680885 0.5034988
v 0.5035006 0.014680743 0.49093738
v 0.5035006 -2.2376155E-06 0.5035
v -0.31473082 0.014681836 -0.50350004
v -0.3021004 -2.4016765E-06 -0.50350004
v -0.30210042 -2.5281224E-06 -0.30209997
v -0.31473097 0.0146817565 -0.31466138
v -0.5035006 -2.5281224E-06 -0.3021
v -0.5035006 0.0146817565 -0.31466138
v -0.49093786 0.014680717 -0.50349885
v -0.5035006 0.014680585 -0.4909375
v -0.5035005 -2.4016765E-06 -0.50350004
vt 0.87016994 0.5138609
vt 0.87018174 0.5150306
vt 0.8837809 0.5150306
vt 0.88265985 0.5138609
vt 0.8837809 0.5011296
vt 0.88265985 0.5010862
vt 0.87016994 0.5019739
vt 0.87104625 0.5010862
vt 0.87016994 0.5010862
vt 0.87016994 0.5138609
vt 0.87018174 0.5150306
vt 0.8837809 0.5150306
vt 0.88265985 0.5138609
vt 0.8837809 0.5011296
vt 0.88265985 0.5010862
vt 0.87016994 0.5019739
vt 0.87104625 0.5010862
vt 0.87016994 0.5010862
vn -0.4170708 0.908874 -7.008987E-07
vn -0.7581325 0.65210056 -5.4936197E-07
vn -0.45006037 0.7716238 -0.44949132
vn -0.3294374 0.8843485 -0.33075473
vn -1.4990978E-07 0.65004134 -0.7598989
vn -0 0.90830773 -0.41830266
vn 0.2155499 0.9524027 0.21556269
vn 0.21555787 0.9523983 0.21557425
vn 0.60496604 0.5176515 0.6050231
vn 0.41707107 0.9088739 6.251948E-07
vn 0.75813305 0.65209997 7.1688964E-07
vn 0.45006174 0.7716233 0.44949076
vn 0.32943738 0.88434833 0.33075547
vn -0 0.65004075 0.7598994
vn -0 0.90830785 0.4183024
vn -0.21554846 0.95240283 -0.21556385
vn -0.21555735 0.95239794 -0.21557632
vn -0.60496384 0.5176498 -0.60502684
g obj_road1_CS2_0
f 3/3/3 2/2/2 1/1/1
f 4/4/4 3/3/3 1/1/1
f 5/5/5 3/3/3 4/4/4
f 6/6/6 5/5/5 4/4/4
f 7/7/7 4/4/4 1/1/1
f 6/6/6 4/4/4 8/8/8
f 8/8/8 4/4/4 7/7/7
f 8/8/8 7/7/7 9/9/9
f 12/12/12 11/11/11 10/10/10
f 13/13/13 12/12/12 10/10/10
f 14/14/14 12/12/12 13/13/13
f 15/15/15 14/14/14 13/13/13
f 16/16/16 13/13/13 10/10/10
f 15/15/15 13/13/13 17/17/17
f 17/17/17 13/13/13 16/16/16
f 17/17/17 16/16/16 18/18/18
