g obj_grave_parts
v -0.18765071 0.33242485 0.28738913
v -0.30869272 0.33242482 0.2657256
v -0.20418681 0.40499678 0.23359823
v 0.34683004 0.33242482 0.064205855
v 0.25886074 0.33242473 0.15012376
v 0.24232413 0.4049968 0.09633321
v 0.25886026 0.07697993 0.15012361
v 0.34682986 0.07697996 0.064206086
v 0.24232382 0.0044080066 0.09633267
v -0.30869284 0.0769801 0.26572555
v -0.18765101 0.076979995 0.28738958
v -0.20418678 0.0044080834 0.2335987
v -0.30499893 0.0044079106 -0.094332956
v -0.41142815 0.076980166 -0.06846197
v -0.20418678 0.0044080834 0.2335987
v -0.30869284 0.0769801 0.26572555
v -0.20418678 0.0044080834 0.2335987
v 0.24409416 0.07697975 -0.2699821
v 0.14151165 0.004407834 -0.23159909
v 0.24232382 0.0044080066 0.09633267
v 0.24232382 0.0044080066 0.09633267
v 0.34682986 0.07697996 0.064206086
v 0.24409416 0.07697975 -0.2699821
v -0.30499893 0.0044079106 -0.094332956
v -0.20418678 0.0044080834 0.2335987
v 0.019068556 0.0044080066 0.16496454
v -0.08174361 0.0044078147 -0.16296703
v 0.019068556 0.0044080066 0.16496454
v -0.08174361 0.0044078147 -0.16296703
v 0.14151165 0.004407834 -0.23159909
v 0.24232382 0.0044080066 0.09633267
v 0.019068556 0.0044080066 0.16496454
v -0.20418678 0.0044080834 0.2335987
v -0.18765101 0.076979995 0.28738958
v 0.035604708 0.07697999 0.21875605
v 0.019068556 0.0044080066 0.16496454
v 0.25886026 0.07697993 0.15012361
v 0.24232382 0.0044080066 0.09633267
v 0.035604708 0.07697999 0.21875605
v 0.01906802 0.40499684 0.16496478
v -0.18765071 0.33242485 0.28738913
v -0.20418681 0.40499678 0.23359823
v 0.035604708 0.33242482 0.2187559
v 0.25886074 0.33242473 0.15012376
v 0.24232413 0.4049968 0.09633321
v 0.14151187 0.40499684 -0.23159859
v 0.2440947 0.33242458 -0.26998162
v 0.24232413 0.4049968 0.09633321
v 0.34683004 0.33242482 0.064205855
v -0.41142794 0.33242494 -0.06846266
v -0.304999 0.40499684 -0.094333604
v -0.20418681 0.40499678 0.23359823
v -0.30869272 0.33242482 0.2657256
v 0.14151187 0.40499684 -0.23159859
v 0.24232413 0.4049968 0.09633321
v 0.01906802 0.40499684 0.16496478
v -0.081744075 0.40499693 -0.1629669
v -0.304999 0.40499684 -0.094333604
v -0.20418681 0.40499678 0.23359823
v -0.18765071 0.33242485 0.28738913
v 0.039622735 0.2047024 0.23182604
v -0.18600813 0.20470242 0.30118927
v 0.035604708 0.33242482 0.2187559
v 0.25886074 0.33242473 0.15012376
v 0.26525375 0.20470239 0.16246319
v 0.34683004 0.33242482 0.064205855
v 0.2440947 0.33242458 -0.26998162
v 0.24646977 0.20470227 -0.27071214
v 0.35322312 0.20470238 0.076545544
v 0.34682986 0.07697996 0.064206086
v 0.24409416 0.07697975 -0.2699821
v -0.4138033 0.20470251 -0.06773222
v -0.41142794 0.33242494 -0.06846266
v -0.30869272 0.33242482 0.2657256
v -0.30704996 0.20470242 0.27952546
v -0.30869284 0.0769801 0.26572555
v -0.41142815 0.076980166 -0.06846197
v 0.25886074 0.33242473 0.15012376
v 0.34683004 0.33242482 0.064205855
v 0.35322312 0.20470238 0.076545544
v 0.26525375 0.20470239 0.16246319
v -0.30704996 0.20470242 0.27952546
v -0.30869272 0.33242482 0.2657256
v -0.18765071 0.33242485 0.28738913
v -0.18600813 0.20470242 0.30118927
v 0.25886026 0.07697993 0.15012361
v 0.039622735 0.2047024 0.23182604
v 0.26525375 0.20470239 0.16246319
v 0.035604708 0.07697999 0.21875605
v -0.18765101 0.076979995 0.28738958
v -0.18600813 0.20470242 0.30118927
v -0.18765101 0.076979995 0.28738958
v -0.30869284 0.0769801 0.26572555
v -0.30704996 0.20470242 0.27952546
v -0.18600813 0.20470242 0.30118927
v 0.35322312 0.20470238 0.076545544
v 0.34682986 0.07697996 0.064206086
v 0.25886026 0.07697993 0.15012361
v 0.26525375 0.20470239 0.16246319
v 0.078406855 0.41038123 -0.15441507
v 0.19045869 0.41038138 -0.094723545
v 0.13021363 0.4405399 -0.07225601
v 0.2157222 0.41038138 -0.038071077
v 0.054258354 0.44053984 -0.1173565
v -0.062058933 0.41038126 -0.15813765
v 0.14674418 0.4405399 0.01609366
v 0.20734933 0.41038135 0.023318643
v -0.07416503 0.4570291 0.0027862443
v -0.05927023 0.44053975 -0.12231863
v 0.06214064 0.44053978 0.10166696
v 0.10379455 0.4103814 0.12696035
v -0.050521325 0.4103814 0.17101729
v -0.17386496 0.44053996 -0.09541542
v -0.20376742 0.41038123 -0.12475055
v -0.2930783 0.41038147 -0.049008198
v -0.24524191 0.44053996 -0.037104238
v -0.32702607 0.4103814 0.020402905
v -0.066053875 0.44053996 0.13607277
v -0.1733386 0.44053984 0.12704793
v -0.2077251 0.41038147 0.16367637
v -0.25398198 0.44053978 0.08623905
v -0.3111231 0.41038126 0.11013816
v -0.2690768 0.44054 0.015771598
vt 0.17611301 0.55674005
vt 0.16984545 0.55674005
vt 0.17611301 0.5690611
vt 0.16984545 0.55674005
vt 0.17611301 0.55674005
vt 0.17611301 0.5690611
vt 0.17611301 0.55674005
vt 0.16984545 0.55674005
vt 0.17611301 0.5690611
vt 0.16984545 0.55674005
vt 0.17611301 0.55674005
vt 0.17611301 0.5690611
vt 0.21011099 0.5456168
vt 0.21011099 0.526612
vt 0.19309193 0.5456168
vt 0.19309193 0.526612
vt 0.19309193 0.5456168
vt 0.21011099 0.526612
vt 0.21011099 0.5456168
vt 0.19309193 0.5456168
vt 0.19309193 0.5456168
vt 0.19309193 0.526612
vt 0.21011099 0.526612
vt 0.21011099 0.5456168
vt 0.19309193 0.5456168
vt 0.19309197 0.5690612
vt 0.210111 0.5690612
vt 0.19309197 0.5690612
vt 0.210111 0.5690612
vt 0.21011099 0.5456168
vt 0.19309193 0.5456168
vt 0.1892967 0.5690611
vt 0.17611301 0.5690611
vt 0.17611301 0.55674005
vt 0.1892967 0.55674005
vt 0.1892967 0.5690611
vt 0.17611301 0.55674005
vt 0.17611301 0.5690611
vt 0.1892967 0.55674005
vt 0.1892967 0.5690611
vt 0.17611301 0.55674005
vt 0.17611301 0.5690611
vt 0.1892967 0.55674005
vt 0.17611301 0.55674005
vt 0.17611301 0.5690611
vt 0.21011099 0.5456168
vt 0.21011099 0.526612
vt 0.19309193 0.5456168
vt 0.19309193 0.526612
vt 0.21011099 0.526612
vt 0.21011099 0.5456168
vt 0.19309193 0.5456168
vt 0.19309193 0.526612
vt 0.21011099 0.5456168
vt 0.19309193 0.5456168
vt 0.19309197 0.5690612
vt 0.210111 0.5690612
vt 0.21011099 0.5456168
vt 0.19309193 0.5456168
vt 0.17455523 0.55663586
vt 0.1892967 0.5508305
vt 0.17429559 0.5508305
vt 0.1892967 0.55663586
vt 0.17455523 0.55663586
vt 0.17429559 0.5508305
vt 0.19309193 0.5133549
vt 0.21011099 0.5133549
vt 0.21011099 0.51114535
vt 0.19309193 0.51114535
vt 0.19309193 0.5133549
vt 0.21011099 0.5133549
vt 0.21011099 0.51114535
vt 0.21011099 0.5133549
vt 0.19309193 0.5133549
vt 0.19309193 0.51114535
vt 0.19309193 0.5133549
vt 0.21011099 0.5133549
vt 0.17455523 0.55663586
vt 0.1689801 0.55663586
vt 0.16883588 0.55083054
vt 0.17429559 0.5508305
vt 0.16883588 0.5508305
vt 0.1689801 0.55663586
vt 0.17455523 0.55663586
vt 0.17429559 0.5508305
vt 0.17455523 0.55663586
vt 0.1892967 0.5508305
vt 0.17429559 0.5508305
vt 0.1892967 0.55663586
vt 0.17455523 0.55663586
vt 0.17429559 0.5508305
vt 0.17455523 0.55663586
vt 0.1689801 0.55663586
vt 0.16883588 0.55083054
vt 0.17429559 0.5508305
vt 0.16883588 0.5508305
vt 0.1689801 0.55663586
vt 0.17455523 0.55663586
vt 0.17429559 0.5508305
vt 0.25954434 0.7383064
vt 0.25848317 0.7383064
vt 0.2586507 0.74151695
vt 0.25848386 0.7383064
vt 0.25954455 0.74151695
vt 0.2604989 0.7383064
vt 0.258652 0.74151695
vt 0.2584845 0.7383064
vt 0.2604093 0.75085527
vt 0.26044533 0.74151695
vt 0.25921384 0.74151695
vt 0.2590762 0.7383064
vt 0.26007414 0.7383064
vt 0.26131544 0.74151695
vt 0.26142275 0.7383064
vt 0.26194742 0.7383064
vt 0.26180643 0.74151695
vt 0.2621041 0.7383064
vt 0.2601819 0.74151695
vt 0.26103845 0.74151695
vt 0.2611458 0.7383064
vt 0.26172405 0.74151695
vt 0.26190194 0.7383064
vt 0.26192942 0.74151695
vn -0.14504263 0.5676305 0.8104062
vn -0.14504263 0.5676304 0.8104062
vn -0.14504264 0.56763047 0.8104062
vn 0.5752422 0.56762844 0.58897734
vn 0.5752422 0.56762844 0.58897734
vn 0.5752422 0.56762844 0.5889773
vn 0.57523894 -0.5676312 0.58897793
vn 0.57523894 -0.5676312 0.58897793
vn 0.57523894 -0.5676312 0.58897793
vn -0.14504674 -0.56763 0.81040585
vn -0.14504673 -0.56763 0.81040585
vn -0.14504674 -0.56763005 0.81040585
vn -0.37237448 -0.9209955 0.11447519
vn -0.5286158 -0.8331608 0.16250655
vn 0.31606206 -0.94375 -0.097162716
vn -0.52861464 -0.8331617 0.16250563
vn 0.09117951 -0.9954399 -0.028030017
vn 0.31606206 -0.94375 -0.097162716
vn 0.09117951 -0.9954399 -0.028030017
vn -0.37237448 -0.9209955 0.11447519
vn 0.52861464 -0.83316183 -0.16250552
vn 0.52861464 -0.83316183 -0.16250552
vn 0.52861464 -0.83316183 -0.16250554
vn -2.2850361E-07 -1 6.5594764E-07
vn -1.6635165E-07 -1 5.7827083E-07
vn 0.070236936 -0.9710141 0.22847003
vn 0.129295 -0.89799505 0.42058033
vn -2.285036E-07 -1 6.559476E-07
vn 2.4311E-07 -1 5.1096504E-07
vn 2.4311004E-07 -1 5.109651E-07
vn 1.4805572E-07 -1 4.8161604E-07
vn 0.070236936 -0.9710141 0.22847003
vn 0.23221536 -0.61278874 0.7553582
vn 0.23221534 -0.6127887 0.7553582
vn 0.129295 -0.89799505 0.42058033
vn 0.23220825 -0.61279035 0.7553591
vn 0.23220825 -0.61279035 0.7553591
vn 0.23220825 -0.61279035 0.7553591
vn 0.23220897 -0.61279315 0.7553566
vn 0.23221356 0.61278933 0.7553583
vn 0.23221354 0.61278933 0.7553583
vn 0.23221354 0.61278933 0.7553583
vn 0.23221205 0.6127914 0.75535697
vn 0.23220724 0.6127873 0.7553618
vn 0.23220728 0.6127873 0.7553618
vn 0.5286158 0.8331609 -0.16250607
vn 0.5286158 0.8331609 -0.16250607
vn 0.52861583 0.8331609 -0.16250607
vn 0.5286143 0.83316183 -0.16250627
vn -0.528615 0.8331614 0.16250601
vn -0.528615 0.8331614 0.16250601
vn -0.528615 0.8331614 0.16250601
vn -0.52861434 0.83316195 0.16250542
vn 3.8021417E-07 1 1.17395835E-07
vn 1.901069E-07 1 0
vn 3.802142E-07 1 1.1739585E-07
vn 3.8021417E-07 1 1.1739585E-07
vn -2.4860879E-07 1 3.107073E-07
vn -2.486087E-07 1 3.107072E-07
vn 0.2921782 0.1064496 0.95042115
vn 0.29217818 0.1064496 0.95042115
vn 0.29217818 0.1064496 0.95042115
vn 0.2921782 0.106449604 0.95042115
vn 0.29217488 0.10644826 0.95042235
vn 0.29217488 0.10644826 0.95042235
vn 0.9556718 0.019451573 -0.29379097
vn 0.9556718 0.019451572 -0.29379094
vn 0.9556718 0.019451575 -0.29379097
vn 0.9556718 0.019451572 -0.29379094
vn 0.95567167 -0.019453866 -0.29379117
vn 0.95567167 -0.019453866 -0.29379117
vn -0.9556719 0.019452257 0.29379052
vn -0.9556719 0.019452255 0.29379052
vn -0.9556719 0.019452253 0.29379052
vn -0.9556719 0.019452257 0.29379052
vn -0.9556718 -0.019450296 0.29379097
vn -0.9556718 -0.019450294 0.29379097
vn 0.6949608 0.10353075 0.71155524
vn 0.69496083 0.10353075 0.7115552
vn 0.6949608 0.10353075 0.71155524
vn 0.69496083 0.10353075 0.7115552
vn -0.17523028 0.10353157 0.97906876
vn -0.17523026 0.10353157 0.97906876
vn -0.17523026 0.10353156 0.97906876
vn -0.17523026 0.10353157 0.97906876
vn 0.2921757 -0.10644874 0.950422
vn 0.2921757 -0.10644875 0.950422
vn 0.2921757 -0.10644875 0.950422
vn 0.29217568 -0.10644873 0.950422
vn 0.2921786 -0.10644765 0.9504213
vn 0.2921786 -0.10644765 0.9504213
vn -0.17523256 -0.10352977 0.9790685
vn -0.17523257 -0.10352978 0.9790685
vn -0.17523256 -0.10352978 0.9790685
vn -0.17523256 -0.10352979 0.9790685
vn 0.69495934 -0.10353222 0.71155643
vn 0.69495934 -0.10353222 0.7115565
vn 0.69495934 -0.10353222 0.71155643
vn 0.69495934 -0.10353222 0.7115565
vn 0.17139521 0.8213628 -0.54404664
vn 0.3424088 0.89559287 -0.284024
vn 0.22475146 0.9497114 -0.21802513
vn 0.39385825 0.9171769 -0.06051648
vn 0.09695086 0.9195368 -0.3808578
vn -0.060609855 0.7679928 -0.6375841
vn 0.28195515 0.9497929 0.13562715
vn 0.4210396 0.8884036 0.18293351
vn -0.005144589 0.9999771 -0.004409224
vn -0.03892222 0.90582675 -0.42185667
vn 0.17765339 0.91803086 0.35448363
vn 0.3127645 0.82570636 0.46945435
vn 0.076306075 0.77349114 0.629197
vn -0.1719507 0.9103067 -0.37652978
vn -0.28869948 0.79913616 -0.5272894
vn -0.44441047 0.83635694 -0.3209462
vn -0.28382578 0.92737174 -0.24377151
vn -0.46258384 0.8854589 -0.044484224
vn 0.02598855 0.90481055 0.42502058
vn -0.08072908 0.92298925 0.37626272
vn -0.16836387 0.8315055 0.52938867
vn -0.24504164 0.94479245 0.2175358
vn -0.3693401 0.8957781 0.24732478
vn -0.31647122 0.94751287 -0.045446612
g obj_grave_parts_0
f 3/3/3 2/2/2 1/1/1
f 6/6/6 5/5/5 4/4/4
f 9/9/9 8/8/8 7/7/7
f 12/12/12 11/11/11 10/10/10
f 15/15/15 14/14/14 13/13/13
f 17/17/17 16/16/16 14/14/14
f 20/20/20 19/19/19 18/18/18
f 23/23/23 22/22/22 21/21/21
f 26/26/26 25/25/25 24/24/24
f 28/28/28 24/24/24 27/27/27
f 30/30/30 28/28/28 29/29/29
f 31/31/31 28/28/28 30/30/30
f 34/34/34 33/33/33 32/32/32
f 36/36/36 35/35/35 34/34/34
f 38/38/38 37/37/37 36/36/36
f 37/37/37 39/39/39 36/36/36
f 42/42/42 41/41/41 40/40/40
f 41/41/41 43/43/43 40/40/40
f 40/40/40 43/43/43 44/44/44
f 44/44/44 45/45/45 40/40/40
f 48/48/48 47/47/47 46/46/46
f 48/48/48 49/49/49 47/47/47
f 52/52/52 51/51/51 50/50/50
f 50/50/50 53/53/53 52/52/52
f 56/56/56 55/55/55 54/54/54
f 56/56/56 54/54/54 57/57/57
f 58/58/58 56/56/56 57/57/57
f 59/59/59 56/56/56 58/58/58
f 62/62/62 61/61/61 60/60/60
f 61/61/61 63/63/63 60/60/60
f 64/64/64 63/63/63 61/61/61
f 65/65/65 64/64/64 61/61/61
f 68/68/68 67/67/67 66/66/66
f 69/69/69 68/68/68 66/66/66
f 69/69/69 70/70/70 68/68/68
f 70/70/70 71/71/71 68/68/68
f 74/74/74 73/73/73 72/72/72
f 75/75/75 74/74/74 72/72/72
f 75/75/75 72/72/72 76/76/76
f 72/72/72 77/77/77 76/76/76
f 80/80/80 79/79/79 78/78/78
f 81/81/81 80/80/80 78/78/78
f 84/84/84 83/83/83 82/82/82
f 85/85/85 84/84/84 82/82/82
f 88/88/88 87/87/87 86/86/86
f 87/87/87 89/89/89 86/86/86
f 90/90/90 89/89/89 87/87/87
f 91/91/91 90/90/90 87/87/87
f 94/94/94 93/93/93 92/92/92
f 95/95/95 94/94/94 92/92/92
f 98/98/98 97/97/97 96/96/96
f 99/99/99 98/98/98 96/96/96
f 102/102/102 101/101/101 100/100/100
f 101/101/101 102/102/102 103/103/103
f 100/100/100 104/104/104 102/102/102
f 104/104/104 100/100/100 105/105/105
f 103/103/103 102/102/102 106/106/106
f 107/107/107 103/103/103 106/106/106
f 104/104/104 108/108/108 102/102/102
f 102/102/102 108/108/108 106/106/106
f 109/109/109 108/108/108 104/104/104
f 105/105/105 109/109/109 104/104/104
f 106/106/106 108/108/108 110/110/110
f 107/107/107 106/106/106 110/110/110
f 110/110/110 111/111/111 107/107/107
f 112/112/112 111/111/111 110/110/110
f 105/105/105 113/113/113 109/109/109
f 113/113/113 108/108/108 109/109/109
f 105/105/105 114/114/114 113/113/113
f 114/114/114 115/115/115 113/113/113
f 113/113/113 115/115/115 116/116/116
f 116/116/116 108/108/108 113/113/113
f 115/115/115 117/117/117 116/116/116
f 112/112/112 110/110/110 118/118/118
f 110/110/110 108/108/108 118/118/118
f 112/112/112 118/118/118 119/119/119
f 118/118/118 108/108/108 119/119/119
f 119/119/119 120/120/120 112/112/112
f 120/120/120 119/119/119 121/121/121
f 119/119/119 108/108/108 121/121/121
f 121/121/121 122/122/122 120/120/120
f 117/117/117 122/122/122 121/121/121
f 116/116/116 117/117/117 123/123/123
f 123/123/123 108/108/108 116/116/116
f 117/117/117 121/121/121 123/123/123
f 121/121/121 108/108/108 123/123/123
