g obj_billboard_lupina_1
v -0.39683554 0.37088433 0.10636057
v -0.5794162 0.5386574 0.18855703
v -0.5698072 0.46848604 0.15381142
v -0.47584698 0.6565807 0.2482416
v -0.45342472 0.8380244 0.3436568
v -0.17350882 0.92146754 0.38920578
v -0.40392336 0.32945168 0.086507946
v 0.49301296 0.35668948 0.09954017
v -0.5488824 0.06287181 -0.037502013
v -0.5794162 0.8002508 0.32340163
v -0.589026 0.7378261 0.29039198
v -0.25455883 0.93008596 0.39397684
v -0.41391885 1.0167593 0.44270223
v -0.46516943 1.0072334 0.43727812
v -0.66817236 0.14932138 0.0020461602
v -0.55794245 0.27424365 0.060309906
v -0.6002226 0.05990309 -0.038849425
v 0.5262325 0.031574905 -0.051672556
v 0.36617333 0.033071585 -0.050996624
v -0.4839528 -1.0113186E-08 -0.06589257
v 0.29822356 -1.0113168E-08 -0.06589257
v 0.41600364 0.007543059 -0.06250235
v 0.48546293 0.007543059 -0.06250235
v 0.5926721 0.0315749 -0.05167252
v 0.6681719 0.22513157 0.037240375
v 0.65760255 0.08653105 -0.026738526
v 0.5488826 0.34173882 0.092377916
v 0.5020728 0.570939 0.2047292
v 0.5549222 0.38637018 0.11382418
v 0.55794275 0.51118445 0.17488825
v 0.5020728 0.6611598 0.25059396
v 0.5352926 0.58966744 0.2141891
v 0.53378284 0.64834344 0.2440271
v 0.47489262 0.86146754 0.35633907
v 0.5020728 0.71403056 0.2779546
v 0.5972022 0.7750645 0.31001532
v 0.5926727 0.8243569 0.33630267
v 0.17866936 0.9316124 0.39482316
v 0.47489294 1.0326618 0.4517965
v 0.3103037 1.0306102 0.45062062
v 0.14129914 0.9475714 0.4036963
v -0.09893972 0.9346617 0.39651513
v 0.47489294 1.0326618 0.4517965
v 0.3103037 0.9900319 0.5406554
v 0.3103037 1.0306102 0.45062062
v 0.47489294 0.9919909 0.54181266
v 0.47489262 0.86146754 0.35633907
v 0.47489294 0.9919909 0.54181266
v 0.47489294 1.0326618 0.4517965
v 0.47489294 0.8282858 0.44785446
v 0.3103037 1.0306102 0.45062062
v 0.1786689 0.8954118 0.48573822
v 0.17866936 0.9316124 0.39482316
v 0.3103037 0.9900319 0.5406554
v -0.46516943 1.0072334 0.43727812
v -0.45342472 0.8058377 0.43536896
v -0.45342472 0.8380244 0.3436568
v -0.46516958 0.9677017 0.52752453
v -0.41391885 1.0167593 0.44270223
v -0.46516958 0.9677017 0.52752453
v -0.46516943 1.0072334 0.43727812
v -0.41391885 0.9768021 0.5328627
v -0.25455883 0.93008596 0.39397684
v -0.41391885 0.9768021 0.5328627
v -0.41391885 1.0167593 0.44270223
v -0.25455853 0.89395195 0.48490527
v -0.66817236 0.14932138 0.0020461602
v -0.6002226 0.057771124 0.05854993
v -0.6002226 0.05990309 -0.038849425
v -0.6681722 0.14396772 0.09885782
v -0.55794245 0.27424365 0.060309906
v -0.6681722 0.14396772 0.09885782
v -0.66817236 0.14932138 0.0020461602
v -0.55794245 0.2643047 0.15627661
v -0.40392336 0.32945168 0.086507946
v -0.55794245 0.2643047 0.15627661
v -0.55794245 0.27424365 0.060309906
v -0.4039232 0.31745243 0.18209158
v -0.39683554 0.37088433 0.10636057
v -0.4039232 0.31745243 0.18209158
v -0.40392336 0.32945168 0.086507946
v -0.3968349 0.35732442 0.20165266
v 0.5926727 0.8243569 0.33630267
v 0.47489294 0.8282858 0.44785446
v 0.47489262 0.86146754 0.35633907
v 0.5926724 0.7927469 0.42812857
v 0.5972022 0.7750645 0.31001532
v 0.5926724 0.7927469 0.42812857
v 0.5926727 0.8243569 0.33630267
v 0.5972025 0.74551666 0.40224627
v 0.5020728 0.71403056 0.2779546
v 0.5972025 0.74551666 0.40224627
v 0.5972022 0.7750645 0.31001532
v 0.5020728 0.68699807 0.37067643
v -0.5794162 0.8002508 0.32340163
v -0.589026 0.7098178 0.38292375
v -0.589026 0.7378261 0.29039198
v -0.5794162 0.7696531 0.4154266
v -0.45342472 0.8380244 0.3436568
v -0.5794162 0.7696531 0.4154266
v -0.5794162 0.8002508 0.32340163
v -0.45342472 0.8058377 0.43536896
v -0.589026 0.7378261 0.29039198
v -0.47584698 0.63187957 0.3414151
v -0.47584698 0.6565807 0.2482416
v -0.589026 0.7098178 0.38292375
v 0.5352926 0.58966744 0.2141891
v 0.53378284 0.6239729 0.33726448
v 0.53378284 0.64834344 0.2440271
v 0.5352926 0.56763875 0.30787677
v 0.5352926 0.58966744 0.2141891
v 0.5020728 0.5496529 0.29855922
v 0.5352926 0.56763875 0.30787677
v 0.5020728 0.570939 0.2047292
v 0.5549222 0.38637018 0.11382418
v 0.55794275 0.49224114 0.26916492
v 0.55794275 0.51118445 0.17488825
v 0.5549225 0.37222368 0.2090063
v 0.49301296 0.35668948 0.09954017
v 0.5549225 0.37222368 0.2090063
v 0.5549222 0.38637018 0.11382418
v 0.49301296 0.34366566 0.19493248
v 0.55794275 0.51118445 0.17488825
v 0.5020728 0.5496529 0.29855922
v 0.5020728 0.570939 0.2047292
v 0.55794275 0.49224114 0.26916492
v -0.17350882 0.92146754 0.38920578
v -0.25455853 0.89395195 0.48490527
v -0.25455883 0.93008596 0.39397684
v -0.17350912 0.88570756 0.4802088
v -0.5698072 0.46848604 0.15381142
v -0.3968349 0.35732442 0.20165266
v -0.39683554 0.37088433 0.10636057
v -0.5698069 0.45119798 0.24840194
v -0.5794162 0.5386574 0.18855703
v -0.5698069 0.45119798 0.24840194
v -0.5698072 0.46848604 0.15381142
v -0.5794162 0.51864076 0.28262943
v -0.47584698 0.6565807 0.2482416
v -0.5794162 0.51864076 0.28262943
v -0.5794162 0.5386574 0.18855703
v -0.47584698 0.63187957 0.3414151
v -0.09893972 0.9346617 0.39651513
v -0.17350912 0.88570756 0.4802088
v -0.17350882 0.92146754 0.38920578
v -0.09893941 0.89832836 0.4874036
v 0.14129914 0.9475714 0.4036963
v -0.09893941 0.89832836 0.4874036
v -0.09893972 0.9346617 0.39651513
v 0.14129914 0.91067475 0.4944722
v 0.17866936 0.9316124 0.39482316
v 0.14129914 0.91067475 0.4944722
v 0.14129914 0.9475714 0.4036963
v 0.1786689 0.8954118 0.48573822
v 0.5020728 0.6611598 0.25059396
v 0.5020728 0.68699807 0.37067643
v 0.5020728 0.71403056 0.2779546
v 0.5020728 0.636274 0.34373185
v 0.5488826 0.34173882 0.092377916
v 0.49301296 0.34366566 0.19493248
v 0.49301296 0.35668948 0.09954017
v 0.5488829 0.32927805 0.18787552
v 0.6681719 0.22513157 0.037240375
v 0.5488829 0.32927805 0.18787552
v 0.5488826 0.34173882 0.092377916
v 0.6681716 0.2170076 0.13354282
v 0.65760255 0.08653105 -0.026738526
v 0.6681716 0.2170076 0.13354282
v 0.6681719 0.22513157 0.037240375
v 0.65760255 0.08344471 0.07048731
v 0.5020728 0.6611598 0.25059396
v 0.53378284 0.6239729 0.33726448
v 0.5020728 0.636274 0.34373185
v 0.53378284 0.64834344 0.2440271
vt 0.16662745 0.18843143
vt 0.15771481 0.20009303
vt 0.15812948 0.1951936
vt 0.1629612 0.20851026
vt 0.16425014 0.22204782
vt 0.17822382 0.22933759
vt 0.16624105 0.1856987
vt 0.21035796 0.18729307
vt 0.15883593 0.16629428
vt 0.15796135 0.2191766
vt 0.15742333 0.21435814
vt 0.17421179 0.23012646
vt 0.16558588 0.23619732
vt 0.16303262 0.23541799
vt 0.15298477 0.17260985
vt 0.15855396 0.1822451
vt 0.15628648 0.16616113
vt 0.2121527 0.16343482
vt 0.20421267 0.16366953
vt 0.16200946 0.16246288
vt 0.20081635 0.16175488
vt 0.20666556 0.16209735
vt 0.21011169 0.16203453
vt 0.21544904 0.1633747
vt 0.21934646 0.1779914
vt 0.21871264 0.16663939
vt 0.2131173 0.18625441
vt 0.21140075 0.20140621
vt 0.2134546 0.18921316
vt 0.2137127 0.19774379
vt 0.21148397 0.20796347
vt 0.21306601 0.2027235
vt 0.21304527 0.20699157
vt 0.20978953 0.22308587
vt 0.21153411 0.21156369
vt 0.21577118 0.21614851
vt 0.21559544 0.22001506
vt 0.19570763 0.22909756
vt 0.21020813 0.23883495
vt 0.20414004 0.23968491
vt 0.19387044 0.23046522
vt 0.18193746 0.22960292
vt 0.1756489 0.24640492
vt 0.16740586 0.25653428
vt 0.16740586 0.24640492
vt 0.1756489 0.25653428
vt 0.19374155 0.24640492
vt 0.1756489 0.25653428
vt 0.1756489 0.24640492
vt 0.19374155 0.25653428
vt 0.16740586 0.24640492
vt 0.1571442 0.25653428
vt 0.1571442 0.24640492
vt 0.16740586 0.25653428
vt 0.1756489 0.24640492
vt 0.19374155 0.25653428
vt 0.19374155 0.24640492
vt 0.1756489 0.25653428
vt 0.16740586 0.24640492
vt 0.1756489 0.25653428
vt 0.1756489 0.24640492
vt 0.16740586 0.25653428
vt 0.1571442 0.24640492
vt 0.16740586 0.25653428
vt 0.16740586 0.24640492
vt 0.1571442 0.25653428
vt 0.28171575 0.24640492
vt 0.30621248 0.25653428
vt 0.30621248 0.24640492
vt 0.28171575 0.25653428
vt 0.26858643 0.24640492
vt 0.28171575 0.25653428
vt 0.28171575 0.24640492
vt 0.26858643 0.25653428
vt 0.2601158 0.24640492
vt 0.26858643 0.25653428
vt 0.26858643 0.24640492
vt 0.2601158 0.25653428
vt 0.24683951 0.24640492
vt 0.2601158 0.25653428
vt 0.2601158 0.24640492
vt 0.24683951 0.25653428
vt 0.20371829 0.24640492
vt 0.19374155 0.25653428
vt 0.19374155 0.24640492
vt 0.20371829 0.25653428
vt 0.20927642 0.24640492
vt 0.20371829 0.25653428
vt 0.20371829 0.24640492
vt 0.20927642 0.25653428
vt 0.21972802 0.24640492
vt 0.20927642 0.25653428
vt 0.20927642 0.24640492
vt 0.21972802 0.25653428
vt 0.20371829 0.24640492
vt 0.20927642 0.25653428
vt 0.20927642 0.24640492
vt 0.20371829 0.25653428
vt 0.19374155 0.24640492
vt 0.20371829 0.25653428
vt 0.20371829 0.24640492
vt 0.19374155 0.25653428
vt 0.20927642 0.24640492
vt 0.21972802 0.25653428
vt 0.21972802 0.24640492
vt 0.20927642 0.25653428
vt 0.23601256 0.24640492
vt 0.22893097 0.25653428
vt 0.22893097 0.24640492
vt 0.23601256 0.25653428
vt 0.24142604 0.24640492
vt 0.24683951 0.25653428
vt 0.24142604 0.25653428
vt 0.24683951 0.24640492
vt 0.2601158 0.24640492
vt 0.24683951 0.25653428
vt 0.24683951 0.24640492
vt 0.2601158 0.25653428
vt 0.2601158 0.24640492
vt 0.24683951 0.25653428
vt 0.24683951 0.24640492
vt 0.2601158 0.25653428
vt 0.26858643 0.24640492
vt 0.2601158 0.25653428
vt 0.2601158 0.24640492
vt 0.26858643 0.25653428
vt 0.1513852 0.24640492
vt 0.1499114 0.25653428
vt 0.1499114 0.24640492
vt 0.1513852 0.25653428
vt 0.23601256 0.24640492
vt 0.24683951 0.25653428
vt 0.24683951 0.24640492
vt 0.23601256 0.25653428
vt 0.22893097 0.24640492
vt 0.23601256 0.25653428
vt 0.23601256 0.24640492
vt 0.22893097 0.25653428
vt 0.21972802 0.24640492
vt 0.22893097 0.25653428
vt 0.22893097 0.24640492
vt 0.21972802 0.25653428
vt 0.15260954 0.24640492
vt 0.1513852 0.25653428
vt 0.1513852 0.24640492
vt 0.15260954 0.25653428
vt 0.15644959 0.24640492
vt 0.15260954 0.25653428
vt 0.15260954 0.24640492
vt 0.15644959 0.25653428
vt 0.1571442 0.24640492
vt 0.15644959 0.25653428
vt 0.15644959 0.24640492
vt 0.1571442 0.25653428
vt 0.22893097 0.24640492
vt 0.21972802 0.25653428
vt 0.21972802 0.24640492
vt 0.22893097 0.25653428
vt 0.26858643 0.24640492
vt 0.2601158 0.25653428
vt 0.2601158 0.24640492
vt 0.26858643 0.25653428
vt 0.28171575 0.24640492
vt 0.26858643 0.25653428
vt 0.26858643 0.24640492
vt 0.28171575 0.25653428
vt 0.30621248 0.24640492
vt 0.28171575 0.25653428
vt 0.28171575 0.24640492
vt 0.30621248 0.25653428
vt 0.21972802 0.24640492
vt 0.2243295 0.25653428
vt 0.21972802 0.25653428
vt 0.2243295 0.24640492
vn 0.09547553 0.42304507 -0.9010645
vn 0.0066947774 0.4458181 -0.8950985
vn 0.0049225483 0.44427156 -0.8958786
vn 0.040735282 0.457702 -0.88817203
vn 0.0072477087 0.46601367 -0.8847478
vn 0.0012535962 0.4605384 -0.88763887
vn 0.006376301 0.4308028 -0.9024236
vn -0.0044528204 0.43391916 -0.90094084
vn 0.0012902003 0.4181073 -0.9083968
vn 0.003842715 0.46571368 -0.8849272
vn 0.005709629 0.46676442 -0.88436323
vn -0.0013692344 0.48189598 -0.8762273
vn -0.00045370328 0.48477805 -0.8746371
vn 0.0025875133 0.48426214 -0.8749192
vn 0.003070727 0.41943297 -0.90778106
vn 0.0038699226 0.419877 -0.90757275
vn -0.00017540231 0.4158064 -0.9094531
vn 0.000126863 0.41997895 -0.90753376
vn 9.199223E-06 0.41237593 -0.91101384
vn -3.8388775E-05 0.41149977 -0.91140985
vn -0 0.41067952 -0.91177976
vn -7.286085E-06 0.4108802 -0.9116894
vn -0 0.41085237 -0.911702
vn -0.0032175456 0.42079508 -0.90715003
vn -0.0070605082 0.4201217 -0.90744025
vn -0.0064878785 0.41950807 -0.90772843
vn -0.0020708735 0.4257359 -0.9048452
vn -0.22504786 0.43954223 -0.86957234
vn -0.004952357 0.44069493 -0.8976432
vn -0.009506367 0.43963003 -0.8981287
vn -0.010636772 0.45278475 -0.89155644
vn -0.0015944554 0.4531805 -0.89141744
vn -0.0014048709 0.45325062 -0.891382
vn -0.0014571529 0.47391886 -0.8805674
vn -0.050491065 0.46155712 -0.8856724
vn -0.0027101468 0.4695258 -0.88291454
vn -0.0018942938 0.47042513 -0.8824379
vn 0.00035175928 0.48346353 -0.8753645
vn 0.0014500285 0.48790303 -0.8728966
vn 0.00010548301 0.49089766 -0.8712173
vn -5.1044808E-05 0.4858163 -0.874061
vn 0.0001538766 0.48392653 -0.8751086
vn -0.014297887 0.9115906 0.41085038
vn -0.014297889 0.9115907 0.41085038
vn -0.014297887 0.9115906 0.41085038
vn -0.013740572 0.9112148 0.41170236
vn 1 -1.4338698E-06 -6.478467E-07
vn 1 -1.4338698E-06 -6.478467E-07
vn 1 -1.4338698E-06 -6.478467E-07
vn 1 1.595343E-06 -2.779596E-06
vn -0.6500811 0.70596004 0.2810962
vn -0.6500811 0.70596004 0.2810962
vn -0.6500811 0.7059601 0.28109616
vn -0.6371839 0.70264554 0.31667963
vn -0.99810815 -0.05801319 -0.020359935
vn -0.99810815 -0.05801319 -0.020359935
vn -0.99810815 -0.058013197 -0.020359935
vn -0.9979961 -0.057958968 -0.025390152
vn -0.20806108 0.8959298 0.39245433
vn -0.20806107 0.89592975 0.39245433
vn -0.2080611 0.8959298 0.39245433
vn -0.20039196 0.89569604 0.3969529
vn 0.5276296 0.77662414 0.34418282
vn 0.5276296 0.77662414 0.34418288
vn 0.5276297 0.77662414 0.34418288
vn 0.5108735 0.7988883 0.3174678
vn -0.79901826 -0.60116285 -0.01315881
vn -0.79901826 -0.6011629 -0.01315881
vn -0.79901826 -0.6011629 -0.013158813
vn -0.7924777 -0.6089706 -0.033674676
vn -0.7576174 0.6517031 0.036040246
vn -0.7576174 0.6517032 0.036040246
vn -0.7576174 0.6517032 0.036040246
vn -0.7516288 0.65607727 0.06794774
vn -0.35035533 0.93163383 0.096486196
vn -0.35035536 0.93163383 0.0964862
vn -0.35035536 0.93163383 0.0964862
vn -0.34143212 0.9325866 0.11707452
vn -0.98703253 0.15926965 0.019995792
vn -0.98703253 0.15926965 0.019995792
vn -0.98703253 0.15926966 0.019995792
vn -0.9862045 0.16388018 0.02332625
vn 0.33387607 0.88616574 0.32130533
vn 0.33387607 0.88616574 0.32130533
vn 0.33387607 0.8861657 0.32130533
vn 0.3217534 0.8952634 0.30818543
vn 0.996646 0.0773753 0.026638916
vn 0.996646 0.07737531 0.026638916
vn 0.996646 0.07737531 0.026638916
vn 0.9963498 0.08129439 0.026040845
vn 0.58098924 -0.7751051 -0.24832128
vn 0.58098924 -0.7751051 -0.24832125
vn 0.58098924 -0.7751051 -0.24832128
vn 0.56425285 -0.7926041 -0.23107877
vn -0.9905248 0.13144466 0.039786737
vn -0.9905248 0.13144466 0.039786734
vn -0.9905248 0.13144466 0.039786737
vn -0.9898801 0.13465807 0.044772997
vn -0.31783742 0.8997159 0.29915017
vn -0.31783742 0.8997159 0.29915017
vn -0.31783742 0.8997159 0.29915017
vn -0.30771762 0.89779294 0.3150836
vn -0.6195672 -0.7587333 -0.20114727
vn -0.6195672 -0.75873333 -0.20114726
vn -0.6195672 -0.7587333 -0.20114727
vn -0.60777164 -0.7600566 -0.23006012
vn 0.99972457 0.022706358 0.005935033
vn 0.99972457 0.022706358 0.0059350333
vn 0.99972457 0.022706356 0.005935033
vn 0.9996995 0.02386581 0.0056115463
vn 0.50894374 -0.8379481 -0.197026
vn 0.5089438 -0.8379481 -0.197026
vn 0.5089438 -0.837948 -0.19702598
vn 0.52250046 -0.8315107 -0.18863516
vn 0.9997476 -0.022028876 -0.0044263266
vn 0.9997476 -0.022028876 -0.004426327
vn 0.9997476 -0.022028876 -0.004426327
vn 0.9997198 -0.023412338 -0.0034828992
vn 0.45300472 -0.8818216 -0.13106266
vn 0.45300472 -0.8818216 -0.13106266
vn 0.4530047 -0.8818216 -0.13106266
vn 0.43841836 -0.8905097 -0.121580295
vn 0.75774175 0.6363844 0.14436914
vn 0.7577417 0.63638437 0.14436913
vn 0.7577417 0.6363844 0.14436916
vn 0.7432917 0.6558586 0.1317836
vn 0.11969012 0.9226306 0.36664304
vn 0.119690105 0.9226306 0.36664295
vn 0.11969012 0.9226306 0.366643
vn 0.115096204 0.9245356 0.36330006
vn -0.51277965 -0.84995854 -0.120944425
vn -0.51277965 -0.84995854 -0.120944425
vn -0.51277965 -0.84995854 -0.120944425
vn -0.50330657 -0.8500278 -0.15535578
vn -0.9919505 -0.12456328 -0.02276289
vn -0.9919505 -0.12456328 -0.022762889
vn -0.9919505 -0.12456328 -0.022762887
vn -0.99146783 -0.1274977 -0.027128864
vn -0.77682173 0.6159318 0.13105749
vn -0.77682173 0.6159318 0.13105752
vn -0.77682173 0.6159318 0.13105749
vn -0.7688251 0.61810666 0.1638658
vn -0.19661526 0.9125541 0.35859084
vn -0.19661526 0.9125541 0.35859084
vn -0.19661522 0.9125541 0.3585908
vn -0.18947574 0.91173404 0.36447224
vn -0.06088035 0.9268322 0.37050742
vn -0.06088035 0.9268322 0.37050748
vn -0.06088035 0.9268322 0.37050742
vn -0.0585878 0.9248078 0.37589616
vn 0.43640307 0.8335289 0.338795
vn 0.436403 0.8335289 0.338795
vn 0.43640307 0.8335289 0.33879498
vn 0.4223269 0.8421384 0.33532515
vn 1 0 0
vn 1 0 0
vn 1 0 0
vn 1 0 0
vn 0.27184296 0.953496 0.13017973
vn 0.27184293 0.953496 0.13017972
vn 0.27184293 0.953496 0.13017972
vn 0.2621927 0.956904 0.12485844
vn 0.7171749 0.69103575 0.0901658
vn 0.7171749 0.6910357 0.0901658
vn 0.7171749 0.6910357 0.09016579
vn 0.6985121 0.7130653 0.060155626
vn 0.99729794 -0.07320274 -0.0061721182
vn 0.99729794 -0.07320274 -0.0061721182
vn 0.99729794 -0.073202744 -0.0061721187
vn 0.9969716 -0.077727325 -0.002467382
vn 0.3930297 0.88836133 0.23736411
vn 0.3930297 0.88836133 0.23736411
vn 0.3930297 0.88836133 0.23736413
vn 0.40534687 0.884449 0.23117903
g obj_billboard_lupina_1_0
f 3/3/3 2/2/2 1/1/1
f 2/2/2 4/4/4 1/1/1
f 4/4/4 5/5/5 1/1/1
f 5/5/5 6/6/6 1/1/1
f 6/6/6 7/7/7 1/1/1
f 8/8/8 7/7/7 6/6/6
f 9/9/9 7/7/7 8/8/8
f 10/10/10 5/5/5 4/4/4
f 11/11/11 10/10/10 4/4/4
f 12/12/12 6/6/6 5/5/5
f 13/13/13 12/12/12 5/5/5
f 14/14/14 13/13/13 5/5/5
f 15/15/15 7/7/7 9/9/9
f 16/16/16 7/7/7 15/15/15
f 17/17/17 15/15/15 9/9/9
f 18/18/18 9/9/9 8/8/8
f 19/19/19 9/9/9 18/18/18
f 20/20/20 9/9/9 19/19/19
f 21/21/21 20/20/20 19/19/19
f 22/22/22 19/19/19 18/18/18
f 23/23/23 22/22/22 18/18/18
f 24/24/24 18/18/18 8/8/8
f 25/25/25 24/24/24 8/8/8
f 26/26/26 24/24/24 25/25/25
f 27/27/27 25/25/25 8/8/8
f 29/29/29 8/8/8 28/28/28
f 30/30/30 29/29/29 28/28/28
f 28/28/28 8/8/8 31/31/31
f 32/32/32 28/28/28 31/31/31
f 33/33/33 32/32/32 31/31/31
f 31/31/31 8/8/8 6/6/6
f 34/34/34 31/31/31 6/6/6
f 35/35/35 31/31/31 34/34/34
f 36/36/36 35/35/35 34/34/34
f 37/37/37 36/36/36 34/34/34
f 38/38/38 34/34/34 6/6/6
f 39/39/39 34/34/34 38/38/38
f 40/40/40 39/39/39 38/38/38
f 41/41/41 38/38/38 6/6/6
f 42/42/42 41/41/41 6/6/6
f 45/45/45 44/44/44 43/43/43
f 46/46/46 43/43/43 44/44/44
f 49/49/49 48/48/48 47/47/47
f 50/50/50 47/47/47 48/48/48
f 53/53/53 52/52/52 51/51/51
f 54/54/54 51/51/51 52/52/52
f 57/57/57 56/56/56 55/55/55
f 58/58/58 55/55/55 56/56/56
f 61/61/61 60/60/60 59/59/59
f 62/62/62 59/59/59 60/60/60
f 65/65/65 64/64/64 63/63/63
f 66/66/66 63/63/63 64/64/64
f 69/69/69 68/68/68 67/67/67
f 70/70/70 67/67/67 68/68/68
f 73/73/73 72/72/72 71/71/71
f 74/74/74 71/71/71 72/72/72
f 77/77/77 76/76/76 75/75/75
f 78/78/78 75/75/75 76/76/76
f 81/81/81 80/80/80 79/79/79
f 82/82/82 79/79/79 80/80/80
f 85/85/85 84/84/84 83/83/83
f 86/86/86 83/83/83 84/84/84
f 89/89/89 88/88/88 87/87/87
f 90/90/90 87/87/87 88/88/88
f 93/93/93 92/92/92 91/91/91
f 94/94/94 91/91/91 92/92/92
f 97/97/97 96/96/96 95/95/95
f 98/98/98 95/95/95 96/96/96
f 101/101/101 100/100/100 99/99/99
f 102/102/102 99/99/99 100/100/100
f 105/105/105 104/104/104 103/103/103
f 106/106/106 103/103/103 104/104/104
f 109/109/109 108/108/108 107/107/107
f 110/110/110 107/107/107 108/108/108
f 113/113/113 112/112/112 111/111/111
f 114/114/114 111/111/111 112/112/112
f 117/117/117 116/116/116 115/115/115
f 118/118/118 115/115/115 116/116/116
f 121/121/121 120/120/120 119/119/119
f 122/122/122 119/119/119 120/120/120
f 125/125/125 124/124/124 123/123/123
f 126/126/126 123/123/123 124/124/124
f 129/129/129 128/128/128 127/127/127
f 130/130/130 127/127/127 128/128/128
f 133/133/133 132/132/132 131/131/131
f 134/134/134 131/131/131 132/132/132
f 137/137/137 136/136/136 135/135/135
f 138/138/138 135/135/135 136/136/136
f 141/141/141 140/140/140 139/139/139
f 142/142/142 139/139/139 140/140/140
f 145/145/145 144/144/144 143/143/143
f 146/146/146 143/143/143 144/144/144
f 149/149/149 148/148/148 147/147/147
f 150/150/150 147/147/147 148/148/148
f 153/153/153 152/152/152 151/151/151
f 154/154/154 151/151/151 152/152/152
f 157/157/157 156/156/156 155/155/155
f 158/158/158 155/155/155 156/156/156
f 161/161/161 160/160/160 159/159/159
f 162/162/162 159/159/159 160/160/160
f 165/165/165 164/164/164 163/163/163
f 166/166/166 163/163/163 164/164/164
f 169/169/169 168/168/168 167/167/167
f 170/170/170 167/167/167 168/168/168
f 173/173/173 172/172/172 171/171/171
f 174/174/174 171/171/171 172/172/172
