g obj_wall_under1_C
v 0.5 -0.27334502 0.020020243
v -0.019944532 -0.2733451 -0.5
v 0.033304553 -0.27334505 -0.18245268
v 0.12947069 -0.27334502 0.020020366
v -0.019944474 -0.27334505 -0.12908131
v 0.03334033 -4 -0.18254896
v 0.033232447 -4 -0.49999937
v 0.033232708 -0.2733451 -0.5
v 0.5000003 -4 -0.03315639
v 0.18286327 -4 -0.03330181
v 0.5 -0.27334502 -0.033156972
v 0.18279137 -0.27334502 -0.03325399
v -0.019944474 -0.27334505 -0.12908131
v 0.033304553 -0.27334505 -0.18245268
v 0.18279137 -0.27334502 -0.03325399
v 0.033304553 -0.27334505 -0.18245268
v 0.033232708 -0.2733451 -0.5
v 0.03334033 -4 -0.18254896
v 0.033304553 -0.27334505 -0.18245268
v 0.18286327 -4 -0.03330181
v 0.5 -0.27334502 -0.033156972
v 0.18279137 -0.27334502 -0.03325399
vt 0.05105416 0.85955215
vt 0.05105416 0.85955215
vt 0.03408798 0.8670655
vt 0.031548407 0.85955215
vt 0.031548403 0.85955215
vt 0.031100031 0.6865343
vt 0.05105834 0.68653476
vt 0.05105416 0.8670655
vt 0.05105834 0.68653476
vt 0.030591974 0.6865341
vt 0.05105416 0.8670655
vt 0.03408798 0.8670655
vt 0.023346558 0.85955215
vt 0.02588613 0.8670655
vt 0.030591715 0.85955215
vt 0.031099772 0.85955215
vt 0.05105416 0.85955215
vt 0.031552564 0.6865343
vt 0.031548407 0.85955215
vt 0.03155256 0.6865343
vt 0.05105416 0.85955215
vt 0.031548403 0.85955215
vn -0 1 0
vn -0 1 -1.9393883E-07
vn -0 1 -1.9049496E-07
vn -0 1 -1.236127E-07
vn -0 1 -1.8819435E-07
vn 0.706439 2.3890349E-05 -0.70777386
vn 1 4.7682865E-06 -0.0002830433
vn -0 1 -1.9393882E-07
vn 0.0003821865 6.3425005E-06 -1
vn 0.706439 2.3890352E-05 -0.70777386
vn -0 1 0
vn -0 1 0
vn -0 1 -1.8819435E-07
vn -0 1 -1.9049496E-07
vn 0.706439 2.3890349E-05 -0.70777386
vn 0.706439 2.3890354E-05 -0.7077739
vn 1 4.7682865E-06 -0.00028304328
vn 1 4.7682865E-06 -0.00028304328
vn 1 4.768287E-06 -0.00028304328
vn 0.0003821865 6.342501E-06 -1
vn 0.0003821865 6.3425005E-06 -1
vn 0.0003821865 6.3425005E-06 -1
g obj_wall_under1_C_0
f 12/12/12 4/4/4 1/1/1
f 11/11/11 12/12/12 1/1/1
f 3/3/3 8/8/8 2/2/2
f 5/5/5 3/3/3 2/2/2
f 12/12/12 14/14/14 13/13/13
f 4/4/4 12/12/12 13/13/13
f 16/16/16 15/15/15 10/10/10
f 6/6/6 16/16/16 10/10/10
f 18/18/18 7/7/7 17/17/17
f 19/19/19 18/18/18 17/17/17
f 21/21/21 9/9/9 20/20/20
f 22/22/22 21/21/21 20/20/20
