g obj_colmns2
v 0.13035657 -1.6088735 0.093490526
v 0.0048630205 -1.6088734 0.16588804
v 0.09637712 -1.6088736 0.059498236
v 0.13035657 -1.1622072 0.0934906
v 0.004862867 -1.1622071 0.1658883
v 0.09637712 -1.1622071 0.05949839
v -0.85572106 -5.696712 0.050609227
v -0.75020885 -5.696712 0.10883123
v -0.75020885 -1.728583 0.10883196
v -0.8557212 -1.728583 0.050610032
v -0.9612337 -5.696712 0.1088313
v -0.96123356 -1.728583 0.108831994
v -0.96123326 -5.696712 0.22527505
v -0.9612331 -1.728583 0.22527574
v -0.8557206 -5.696712 0.28349695
v -0.8557206 -1.728583 0.28349763
v -0.7502084 -5.696712 0.22527501
v -0.7502084 -1.728583 0.22527574
v -0.75020885 -5.696712 0.10883123
v -0.75020885 -1.728583 0.10883196
v -0.5256293 -1.6088734 0.16588844
v -0.52562904 -1.6088736 0.059497707
v 0.09637712 -1.6088736 0.059498236
v 0.0048630205 -1.6088734 0.16588804
v -0.52562904 -1.6283051 0.04349075
v -0.52562904 -1.7586153 0.002358831
v 0.10848663 -1.7586153 0.002359388
v 0.10848663 -1.6283051 0.043491237
v 0.09637712 -1.6088736 0.059498236
v -0.52562904 -1.6088736 0.059497707
v -0.52562904 -1.6283051 0.04349075
v 0.10848663 -1.6283051 0.043491237
v -0.5475608 -0.54654026 -0.07124812
v -0.54756075 -1.7489624 -0.07124837
v -0.46908793 -1.7263169 -0.031885255
v -0.469088 -0.54654026 -0.031884927
v -0.77901757 -0.54654026 -0.07124804
v -0.77901757 -1.7489624 -0.07124831
v -0.54756075 -1.7489624 -0.07124837
v -0.5475608 -0.54654026 -0.07124812
v 0.024291746 -0.57883906 0.087657765
v -0.5380077 -0.57883906 0.08765738
v -0.5380077 -1.6248901 0.087657325
v 0.024291286 -1.6248901 0.08765778
v -0.5256293 -1.1622071 0.16588864
v -0.52562904 -1.1622071 0.059497938
v 0.09637712 -1.1622071 0.05949839
v 0.004862867 -1.1622071 0.1658883
v -0.52562904 -1.1816387 0.04349094
v -0.52562904 -1.3119489 0.0023589847
v 0.10848663 -1.3119488 0.0023595032
v 0.10848663 -1.1816387 0.043491468
v 0.09637712 -1.1622071 0.05949839
v -0.52562904 -1.1622071 0.059497938
v -0.52562904 -1.1816387 0.04349094
v 0.10848663 -1.1816387 0.043491468
v 0.13035657 -1.6088735 0.093490526
v 0.13035588 -1.6088736 1.0232978
v 0.0048622903 -1.6088736 1.0232978
v 0.0048630205 -1.6088734 0.16588804
v 0.14578478 -1.7586154 0.039649453
v 0.14578402 -1.7586154 0.98216593
v 0.14578402 -1.6283053 1.0232978
v 0.14578456 -1.628305 0.08078132
v 0.14578402 -1.6283053 1.0232978
v 0.13035588 -1.6088736 1.0232978
v 0.13035657 -1.6088735 0.093490526
v 0.14578456 -1.628305 0.08078132
v 0.077006124 -1.6248901 1.0356765
v 0.07700605 -0.57883936 1.0356765
v 0.07700682 -0.57883906 0.1477557
v 0.07700644 -1.6248901 0.14775567
v 0.13035657 -1.1622072 0.0934906
v 0.1303558 -1.1622075 1.0232975
v 0.004862137 -1.1622075 1.0232975
v 0.004862867 -1.1622071 0.1658883
v 0.14578463 -1.3119488 0.03964957
v 0.14578386 -1.311949 0.98216605
v 0.14578386 -1.181639 1.0232977
v 0.14578456 -1.1816388 0.080781475
v 0.14578386 -1.181639 1.0232977
v 0.1303558 -1.1622075 1.0232975
v 0.13035657 -1.1622072 0.0934906
v 0.14578456 -1.1816388 0.080781475
v -1.0104738 -0.54654026 -0.071248025
v -1.0889469 -0.54654026 -0.031884983
v -1.0889469 -1.7263169 -0.03188535
v -1.0104738 -1.7489624 -0.07124827
v -1.0104738 -1.7489624 -0.07124827
v -0.77901757 -1.7489624 -0.07124831
v -0.77901757 -0.54654026 -0.07124804
v -1.0104738 -0.54654026 -0.071248025
v 0.10848663 -1.7586153 0.002359388
v 0.14578478 -1.7586154 0.039649453
v 0.14578456 -1.628305 0.08078132
v 0.10848663 -1.6283051 0.043491237
v 0.14578456 -1.628305 0.08078132
v 0.13035657 -1.6088735 0.093490526
v 0.09637712 -1.6088736 0.059498236
v 0.10848663 -1.6283051 0.043491237
v 0.10848663 -1.3119488 0.0023595032
v 0.14578463 -1.3119488 0.03964957
v 0.14578456 -1.1816388 0.080781475
v 0.10848663 -1.1816387 0.043491468
v 0.14578456 -1.1816388 0.080781475
v 0.13035657 -1.1622072 0.0934906
v 0.09637712 -1.1622071 0.05949839
v 0.10848663 -1.1816387 0.043491468
v 0.07700644 -1.6248901 0.14775567
v 0.07700682 -0.57883906 0.1477557
v 0.024291746 -0.57883906 0.087657765
v 0.024291286 -1.6248901 0.08765778
v -0.10368673 -1.6103346 0.08765755
v -0.73325413 -1.6103346 0.08765708
v -0.73325413 -5.6967115 0.08765648
v -0.10368761 -5.6967115 0.087657034
v -0.014549822 -5.6967115 0.14775504
v -0.014549053 -1.6103346 0.1477556
v -0.014549994 -5.696713 1.0356758
v -0.014549994 -1.6103349 1.0356764
v -0.014549053 -1.6103346 0.1477556
v -0.014549822 -5.6967115 0.14775504
v -0.73325413 -1.6103346 0.08765708
v -0.8246028 -1.6103346 0.14775507
v -0.82460356 -5.6967115 0.14775448
v -0.73325413 -5.6967115 0.08765648
vt 0.38112202 0.8237792
vt 0.38112205 0.8256185
vt 0.40882653 0.8237792
vt 0.38112202 0.8109535
vt 0.38112205 0.81341875
vt 0.40882653 0.8109535
vt 0.2686318 0.72863245
vt 0.2686318 0.729452
vt 0.21060161 0.729452
vt 0.21060161 0.72863245
vt 0.2686318 0.7278128
vt 0.21060161 0.7278128
vt 0.2686318 0.72699314
vt 0.21060161 0.72699314
vt 0.2686318 0.7261736
vt 0.21060161 0.7261736
vt 0.2686318 0.7253539
vt 0.21060161 0.7253539
vt 0.2686318 0.7245343
vt 0.21060161 0.7245343
vt 0.37839437 0.8256866
vt 0.37839434 0.8237792
vt 0.40882653 0.8237792
vt 0.40882653 0.8256866
vt 0.3783943 0.8219981
vt 0.3783943 0.8145469
vt 0.40882647 0.8145469
vt 0.40882647 0.8219981
vt 0.40882653 0.8237792
vt 0.37839434 0.8237792
vt 0.3783943 0.8219981
vt 0.40882647 0.8219981
vt 0.41237965 0.7620432
vt 0.41237965 0.7246877
vt 0.41629562 0.7246877
vt 0.41629562 0.7620432
vt 0.40260133 0.7620432
vt 0.40260133 0.7246877
vt 0.41237965 0.7246877
vt 0.41237965 0.7620432
vt 0.3044251 0.76054674
vt 0.27697614 0.76054674
vt 0.27697614 0.7272175
vt 0.3044251 0.7272175
vt 0.37839437 0.81321466
vt 0.37839434 0.8109535
vt 0.40882653 0.8109535
vt 0.40882653 0.81321466
vt 0.3783943 0.8091724
vt 0.3783943 0.8020749
vt 0.40882647 0.8020749
vt 0.40882647 0.8091724
vt 0.40882653 0.8109535
vt 0.37839434 0.8109535
vt 0.3783943 0.8091724
vt 0.40882647 0.8091724
vt 0.40882653 0.8237792
vt 0.37839434 0.8237792
vt 0.37839437 0.8256866
vt 0.40882653 0.8256866
vt 0.40882647 0.8145469
vt 0.3783943 0.8145469
vt 0.3783943 0.8219981
vt 0.40882647 0.8219981
vt 0.3783943 0.8219981
vt 0.37839434 0.8237792
vt 0.40882653 0.8237792
vt 0.40882647 0.8219981
vt 0.27697614 0.7272175
vt 0.27697614 0.76054674
vt 0.3044251 0.76054674
vt 0.3044251 0.7272175
vt 0.40882653 0.8109535
vt 0.37839434 0.8109535
vt 0.37839437 0.81321466
vt 0.40882653 0.81321466
vt 0.40882647 0.8020749
vt 0.3783943 0.8020749
vt 0.3783943 0.8091724
vt 0.40882647 0.8091724
vt 0.3783943 0.8091724
vt 0.37839434 0.8109535
vt 0.40882653 0.8109535
vt 0.40882647 0.8091724
vt 0.41237965 0.7620432
vt 0.41629562 0.7620432
vt 0.41629562 0.7246877
vt 0.41237965 0.7246877
vt 0.41237965 0.7246877
vt 0.40260133 0.7246877
vt 0.40260133 0.7620432
vt 0.41237965 0.7620432
vt 0.40882647 0.8145469
vt 0.381122 0.8145469
vt 0.381122 0.8219981
vt 0.40882647 0.8219981
vt 0.381122 0.8219981
vt 0.38112202 0.8237792
vt 0.40882653 0.8237792
vt 0.40882647 0.8219981
vt 0.40882647 0.8020749
vt 0.381122 0.8020749
vt 0.381122 0.8091724
vt 0.40882647 0.8091724
vt 0.381122 0.8091724
vt 0.38112202 0.8109535
vt 0.40882653 0.8109535
vt 0.40882647 0.8091724
vt 0.27308634 0.7272175
vt 0.27308634 0.76054674
vt 0.27697614 0.76054674
vt 0.27697614 0.7272175
vt 0.31535926 0.7570087
vt 0.31535926 0.7331389
vt 0.39800438 0.7331389
vt 0.39800438 0.7570087
vt 0.39800444 0.7606174
vt 0.31535932 0.7606174
vt 0.39800438 0.7331389
vt 0.31535926 0.7331389
vt 0.31535926 0.7570087
vt 0.39800438 0.7570087
vt 0.31535932 0.7570088
vt 0.31535932 0.7606174
vt 0.39800444 0.7606174
vt 0.39800444 0.7570088
vn -0 1 0
vn -0 1 0
vn -0 1 0
vn -0 1 0
vn -0 1 0
vn -0 1 0
vn -0 0 -1
vn 0.86113906 0 -0.50836945
vn 0.86113906 0 -0.50836945
vn -0 0 -1
vn -0.86113906 0 -0.50836945
vn -0.86113906 0 -0.50836945
vn -0.8612225 0 0.50822806
vn -0.8612225 0 0.50822806
vn -0 0 1
vn -0 0 1
vn 0.8612225 0 0.50822806
vn 0.8612225 0 0.50822806
vn 0.86113906 0 -0.50836945
vn 0.86113906 0 -0.50836945
vn -0 1 0
vn -0 1 0
vn -0 1 0
vn -0 1 0
vn -0 0.30062008 -0.95374393
vn -0 0.30062008 -0.95374393
vn 0.34414417 0.28233555 -0.89546156
vn 0.39528492 0.27624157 -0.8760368
vn 0.23311035 0.70047563 -0.67453206
vn -0 0.6361616 -0.77155584
vn -0 0.63597447 -0.77171004
vn 0.2923452 0.7098721 -0.6407932
vn 0.4482815 0 -0.8938924
vn 0.4482815 0 -0.8938924
vn 0.4482815 0 -0.8938924
vn 0.4482815 0 -0.8938924
vn -0 0 -1
vn -0 0 -1
vn -0 0 -1
vn -0 0 -1
vn 0.41285402 0 -0.9107972
vn -0 0 -1
vn -0 0 -1
vn 0.41271058 0 -0.9108622
vn -0 1 0
vn -0 1 0
vn -0 1 0
vn -0 1 0
vn -0 0.3013139 -0.95352507
vn -0 0.30072948 -0.9537094
vn 0.34414417 0.28233555 -0.89546156
vn 0.39528492 0.27624157 -0.8760368
vn 0.23304568 0.7010441 -0.67396355
vn -0 0.63552 -0.77208436
vn -0 0.63552 -0.77208436
vn 0.29218686 0.71025044 -0.64044607
vn -0 1 0
vn -0 1 0
vn -0 1 0
vn -0 1 0
vn 0.8881885 0.13887483 -0.43798983
vn 1 0 0
vn 1 0 0
vn 0.9442746 0.09915647 -0.31386834
vn 0.7827994 0.6222741 0
vn 0.7827994 0.6222741 0
vn 0.68361485 0.69277036 -0.22965187
vn 0.64335865 0.70517606 -0.29802078
vn 1 0 0
vn 1 0 0
vn 0.9359839 0 -0.35204282
vn 0.9359839 0 -0.35204282
vn -0 1 0
vn -0 1 0
vn -0 1 0
vn -0 1 0
vn 0.88804 0.13885161 -0.43829808
vn 1 0 0
vn 1 0 0
vn 0.9442746 0.09915647 -0.31386834
vn 0.78317094 0.62180644 0
vn 0.78317094 0.62180644 0
vn 0.68361485 0.69277036 -0.22965187
vn 0.64301246 0.70555943 -0.29786047
vn -0.44858631 0 -0.8937395
vn -0.44858631 0 -0.8937395
vn -0.44858631 0 -0.8937395
vn -0.44858631 0 -0.8937395
vn -0 0 -1
vn -0 0 -1
vn -0 0 -1
vn -0 0 -1
vn 0.34414417 0.28233555 -0.89546156
vn 0.8881885 0.13887483 -0.43798983
vn 0.9442746 0.09915647 -0.31386834
vn 0.39528492 0.27624157 -0.8760368
vn 0.64335865 0.70517606 -0.29802078
vn 0.68361485 0.69277036 -0.22965187
vn 0.23311035 0.70047563 -0.67453206
vn 0.2923452 0.7098721 -0.6407932
vn 0.34414417 0.28233555 -0.89546156
vn 0.88804 0.13885161 -0.43829808
vn 0.9442746 0.09915647 -0.31386834
vn 0.39528492 0.27624157 -0.8760368
vn 0.64301246 0.70555943 -0.29786047
vn 0.68361485 0.69277036 -0.22965187
vn 0.23304568 0.7010441 -0.67396355
vn 0.29218686 0.71025044 -0.64044607
vn 0.9359839 0 -0.35204282
vn 0.9359839 0 -0.35204282
vn 0.41285402 0 -0.9107972
vn 0.41271058 0 -0.9108622
vn 0.29220885 0 -0.9563545
vn -0.28689283 0 -0.9579627
vn -0.28689283 0 -0.9579627
vn 0.29220885 0 -0.9563545
vn 0.8829329 0 -0.4694991
vn 0.8829329 0 -0.4694991
vn 1 0 0
vn 1 0 0
vn 0.8829329 0 -0.4694991
vn 0.8829329 0 -0.4694991
vn -0.28689283 0 -0.9579627
vn -0.5494063 0 -0.8355553
vn -0.5494063 0 -0.8355553
vn -0.28689283 0 -0.9579627
g obj_colmns2_0
f 3/3/3 2/2/2 1/1/1
f 6/6/6 5/5/5 4/4/4
f 9/9/9 8/8/8 7/7/7
f 10/10/10 9/9/9 7/7/7
f 10/10/10 7/7/7 11/11/11
f 12/12/12 10/10/10 11/11/11
f 12/12/12 11/11/11 13/13/13
f 14/14/14 12/12/12 13/13/13
f 14/14/14 13/13/13 15/15/15
f 16/16/16 14/14/14 15/15/15
f 16/16/16 15/15/15 17/17/17
f 18/18/18 16/16/16 17/17/17
f 18/18/18 17/17/17 19/19/19
f 20/20/20 18/18/18 19/19/19
f 23/23/23 22/22/22 21/21/21
f 24/24/24 23/23/23 21/21/21
f 27/27/27 26/26/26 25/25/25
f 28/28/28 27/27/27 25/25/25
f 31/31/31 30/30/30 29/29/29
f 32/32/32 31/31/31 29/29/29
f 35/35/35 34/34/34 33/33/33
f 36/36/36 35/35/35 33/33/33
f 39/39/39 38/38/38 37/37/37
f 40/40/40 39/39/39 37/37/37
f 43/43/43 42/42/42 41/41/41
f 44/44/44 43/43/43 41/41/41
f 47/47/47 46/46/46 45/45/45
f 48/48/48 47/47/47 45/45/45
f 51/51/51 50/50/50 49/49/49
f 52/52/52 51/51/51 49/49/49
f 55/55/55 54/54/54 53/53/53
f 56/56/56 55/55/55 53/53/53
f 59/59/59 58/58/58 57/57/57
f 60/60/60 59/59/59 57/57/57
f 63/63/63 62/62/62 61/61/61
f 64/64/64 63/63/63 61/61/61
f 67/67/67 66/66/66 65/65/65
f 68/68/68 67/67/67 65/65/65
f 71/71/71 70/70/70 69/69/69
f 72/72/72 71/71/71 69/69/69
f 75/75/75 74/74/74 73/73/73
f 76/76/76 75/75/75 73/73/73
f 79/79/79 78/78/78 77/77/77
f 80/80/80 79/79/79 77/77/77
f 83/83/83 82/82/82 81/81/81
f 84/84/84 83/83/83 81/81/81
f 87/87/87 86/86/86 85/85/85
f 88/88/88 87/87/87 85/85/85
f 91/91/91 90/90/90 89/89/89
f 92/92/92 91/91/91 89/89/89
f 95/95/95 94/94/94 93/93/93
f 96/96/96 95/95/95 93/93/93
f 99/99/99 98/98/98 97/97/97
f 100/100/100 99/99/99 97/97/97
f 103/103/103 102/102/102 101/101/101
f 104/104/104 103/103/103 101/101/101
f 107/107/107 106/106/106 105/105/105
f 108/108/108 107/107/107 105/105/105
f 111/111/111 110/110/110 109/109/109
f 112/112/112 111/111/111 109/109/109
f 115/115/115 114/114/114 113/113/113
f 116/116/116 115/115/115 113/113/113
f 116/116/116 113/113/113 117/117/117
f 113/113/113 118/118/118 117/117/117
f 121/121/121 120/120/120 119/119/119
f 122/122/122 121/121/121 119/119/119
f 125/125/125 124/124/124 123/123/123
f 126/126/126 125/125/125 123/123/123
