g obj_wall_shadow_S2
v 0.1445901 0.035059307 -0.42024773
v -0.1445904 0.035059154 -0.42024407
v -0.1445903 -2.2417817 -0.4202446
v 0.14459004 -2.2417812 -0.4202414
v 0.20801596 -2.2417815 -0.34309652
v 0.20801604 0.035059206 -0.34310356
v 0.1445901 0.035059307 -0.42024773
v 0.14459004 -2.2417812 -0.4202414
v -0.20801641 0.035059053 -0.34309915
v -0.20801616 -2.2417822 -0.34310022
v -0.1445903 -2.2417817 -0.4202446
v -0.1445904 0.035059154 -0.42024407
v -1.5104994 -2.3480797 -0.51612616
v 0.5035015 -2.3480802 -0.51612616
v 0.5034997 -2.2417812 -0.49033168
v -1.5104982 -2.2417812 -0.49033168
v -1.5104982 -2.2417812 -0.49033168
v 0.5034997 -2.2417812 -0.49033168
v 0.5034997 -2.2417812 0.3091143
v -1.5104983 -2.241781 0.30911434
v 0.50349814 0.035059422 -0.25548917
v -1.510499 0.03505927 -0.25548548
v -1.5104988 -2.2417817 -0.2554859
v 0.503498 -2.2417812 -0.25548267
v -1.5104994 -3.053583 -0.6281015
v 0.5035015 -3.0535836 -0.6281015
v 0.5034997 -2.34808 -0.60230696
v -1.5104982 -2.3480797 -0.60230696
v -1.5104982 -2.3480797 -0.60230696
v 0.5034997 -2.34808 -0.60230696
v 0.5034997 -2.3480797 0.19713895
v -1.5104983 -2.3480797 0.19713897
v -0.87186307 0.035059307 -0.42024773
v -1.1606055 0.035059154 -0.42024407
v -1.1606053 -2.2417817 -0.4202446
v -0.8718631 -2.2417812 -0.4202414
v -0.8082181 -2.2417815 -0.34309652
v -0.80821806 0.035059206 -0.34310356
v -0.87186307 0.035059307 -0.42024773
v -0.8718631 -2.2417812 -0.4202414
v -1.2242506 0.035059053 -0.34309915
v -1.2242502 -2.2417822 -0.34310022
v -1.1606053 -2.2417817 -0.4202446
v -1.1606055 0.035059154 -0.42024407
vt 0.44410127 0.61712617
vt 0.43502456 0.61712605
vt 0.43502456 0.5730249
vt 0.44410127 0.57302505
vt 0.44715917 0.57302505
vt 0.44715917 0.61712617
vt 0.444652 0.61712617
vt 0.444652 0.57302505
vt 0.4320717 0.61712605
vt 0.43207175 0.5730249
vt 0.43447384 0.5730249
vt 0.43447384 0.61712605
vt 0.40109316 0.5465152
vt 0.40899277 0.5465152
vt 0.40899277 0.5552101
vt 0.40109327 0.5552101
vt 0.40109327 0.5552101
vt 0.40899277 0.5552101
vt 0.40899277 0.56969285
vt 0.40109327 0.56969285
vt 0.42951152 0.6172119
vt 0.41498712 0.6172119
vt 0.41498712 0.57290244
vt 0.42951152 0.5729025
vt 0.41256067 0.5465152
vt 0.4205964 0.5465152
vt 0.4205964 0.56231815
vt 0.41256073 0.56231815
vt 0.41256073 0.56231815
vt 0.4205964 0.56231815
vt 0.4205964 0.56969285
vt 0.41256073 0.56969285
vt 0.44410127 0.61712617
vt 0.43502456 0.61712605
vt 0.43502456 0.5730249
vt 0.44410127 0.57302505
vt 0.44715917 0.57302505
vt 0.44715917 0.61712617
vt 0.444652 0.61712617
vt 0.444652 0.57302505
vt 0.4320717 0.61712605
vt 0.43207175 0.5730249
vt 0.43447384 0.5730249
vt 0.43447384 0.61712605
vn -7.970239E-07 -1.2822435E-06 -1
vn -7.970239E-07 -1.2822435E-06 -1
vn -7.970239E-07 -1.2822435E-06 -1
vn -7.970239E-07 -1.2822437E-06 -1
vn 0.772445 -1.8923442E-06 -0.6350815
vn 0.772445 -1.8923442E-06 -0.6350815
vn 0.772445 -1.8923444E-06 -0.6350815
vn 0.772445 -1.8923442E-06 -0.6350815
vn -0.77244574 1.6628965E-07 -0.6350808
vn -0.77244574 1.6628964E-07 -0.6350807
vn -0.77244574 1.6628964E-07 -0.6350807
vn -0.77244574 1.6628964E-07 -0.6350808
vn -0 0.2358166 -0.9717975
vn -0 0.23581658 -0.9717975
vn -0 0.23581658 -0.9717975
vn -0 0.2358166 -0.9717975
vn -0 1 -1.922031E-07
vn -0 1 -1.9220309E-07
vn -0 1 -1.9220309E-07
vn -0 1 -1.922031E-07
vn -1.144408E-07 -1.341294E-06 -1
vn -1.144408E-07 -1.3412941E-06 -1
vn -1.144408E-07 -1.341294E-06 -1
vn -1.144408E-07 -1.341294E-06 -1
vn -0 0.03653748 -0.99933225
vn -0 0.036537483 -0.99933225
vn -0 0.03653748 -0.99933225
vn -0 0.03653748 -0.99933225
vn -0 1 0
vn -0 1 0
vn -0 1 0
vn -0 1 0
vn -7.9823303E-07 -1.2822435E-06 -1
vn -7.9823303E-07 -1.2822435E-06 -1
vn -7.9823315E-07 -1.2822435E-06 -1
vn -7.9823315E-07 -1.2822437E-06 -1
vn 0.77136946 -1.8996898E-06 -0.6363876
vn 0.77136946 -1.8996898E-06 -0.6363876
vn 0.7713694 -1.8996898E-06 -0.63638765
vn 0.7713694 -1.8996898E-06 -0.63638765
vn -0.77137035 1.473713E-07 -0.6363866
vn -0.77137035 1.473713E-07 -0.6363866
vn -0.77137035 1.4737132E-07 -0.6363866
vn -0.77137035 1.473713E-07 -0.6363866
g obj_wall_shadow_S2_0
f 3/3/3 2/2/2 1/1/1
f 4/4/4 3/3/3 1/1/1
f 7/7/7 6/6/6 5/5/5
f 8/8/8 7/7/7 5/5/5
f 11/11/11 10/10/10 9/9/9
f 12/12/12 11/11/11 9/9/9
f 15/15/15 14/14/14 13/13/13
f 16/16/16 15/15/15 13/13/13
f 19/19/19 18/18/18 17/17/17
f 20/20/20 19/19/19 17/17/17
f 23/23/23 22/22/22 21/21/21
f 24/24/24 23/23/23 21/21/21
f 27/27/27 26/26/26 25/25/25
f 28/28/28 27/27/27 25/25/25
f 31/31/31 30/30/30 29/29/29
f 32/32/32 31/31/31 29/29/29
f 35/35/35 34/34/34 33/33/33
f 36/36/36 35/35/35 33/33/33
f 39/39/39 38/38/38 37/37/37
f 40/40/40 39/39/39 37/37/37
f 43/43/43 42/42/42 41/41/41
f 44/44/44 43/43/43 41/41/41
