g obj_roof1_6
v 1.5081903 1.0583804 -0.5736661
v 1.508189 0.9722774 -0.42147473
v 1.508189 1.0583804 -0.4333339
v 1.5081894 0.8559623 -0.5657501
v 1.508189 0.8559623 -0.4402677
v 1.508189 0.10722516 0.561755
v 1.508189 -0.0041368804 0.49407023
v 1.508189 -0.004138878 0.561755
v 1.508189 0.10722531 -1.5538304
v 1.508189 -0.0041378024 -1.4877826
v 1.508189 -0.0041387244 -1.5538304
v -0.046385676 0.80287164 -1.2949322
v -0.01722914 0.75906557 -1.3063618
v -0.04216966 0.82031316 -1.2949322
v 0.0077126096 0.82031316 -1.2949322
v -0.04216966 0.82031316 -1.2949322
v -0.01722914 0.75906557 -1.3063618
v 0.011928008 0.80287164 -1.2949322
v 0.0077126096 0.82031316 -1.2949322
v -0.01722914 0.75906557 -1.3063618
v 0.9658755 0.706809 -1.2949322
v 0.995032 0.6630029 -1.3063618
v 0.9700915 0.7242505 -1.2949322
v 1.0199738 0.7242505 -1.2949322
v 0.9700915 0.7242505 -1.2949322
v 0.995032 0.6630029 -1.3063618
v 1.0241892 0.706809 -1.2949322
v 1.0199738 0.7242505 -1.2949322
v 0.995032 0.6630029 -1.3063618
v -0.5058097 0.107224844 -1.5538316
v 1.508189 0.10722531 -1.5538304
v 1.508189 0.9722774 -0.5855253
v -0.505811 0.9722771 -0.58552647
v 1.508189 0.9722774 -0.42147473
v 1.508189 0.10722516 0.561755
v -0.505811 0.107225 0.56175435
v -0.505811 0.9722771 -0.42147535
v -0.5058097 1.0583801 -0.43333453
v -0.5058097 1.0583801 -0.5736673
v 1.508189 1.0583804 -0.4333339
v 1.5081903 1.0583804 -0.5736661
v 1.508189 0.9722774 -0.5855253
v 1.5081903 1.0583804 -0.5736661
v -0.5058097 1.0583801 -0.5736673
v -0.505811 0.9722771 -0.58552647
v -0.5058097 1.0583801 -0.43333453
v 1.508189 1.0583804 -0.4333339
v 1.508189 0.9722774 -0.42147473
v -0.505811 0.9722771 -0.42147535
v 1.508189 -0.0041387244 -1.5538304
v 1.508189 0.10722531 -1.5538304
v -0.5058097 0.107224844 -1.5538316
v -0.5058097 -0.0041390317 -1.5538316
v -0.505811 0.107225 0.56175435
v 1.508189 0.10722516 0.561755
v 1.508189 -0.004138878 0.561755
v -0.505811 -0.004138878 0.56175435
v 1.508189 0.10722531 -1.5538304
v 1.5081894 0.8559623 -0.5657501
v 1.508189 0.9722774 -0.5855253
v 1.508189 0.9722774 -0.42147473
v 1.5081903 1.0583804 -0.5736661
v 1.192308 0.50901806 -1.2840694
v 0.9950308 0.6630029 -1.2840694
v 0.99502957 0.50901806 -1.2840694
v 0.9950308 0.32812947 -1.2840694
v 1.192308 0.32812917 -1.2840694
v 1.1995457 0.50901824 -1.2907504
v 1.192308 0.50901806 -1.2840694
v 1.192308 0.32812917 -1.2840694
v 1.1995457 0.32812887 -1.2907504
v 1.2537383 0.50901824 -1.2907504
v 1.1995457 0.50901824 -1.2907504
v 1.2537383 0.32812887 -1.2907504
v 1.1995457 0.32812887 -1.2907504
v 1.2663909 0.50901806 -1.2537783
v 1.2665485 0.32812887 -1.0977553
v 1.2665485 0.50901806 -1.0977553
v 1.2663909 0.32812887 -1.2537783
v 0.9950308 0.6630029 -1.2840694
v 0.7977537 0.50901806 -1.2840694
v 0.99502957 0.50901806 -1.2840694
v 0.7977537 0.32812887 -1.2840694
v 0.9950308 0.32812947 -1.2840694
v 0.79051465 0.50901806 -1.2907504
v 0.79051465 0.32812855 -1.2907504
v 0.7977537 0.32812887 -1.2840694
v 0.7977537 0.50901806 -1.2840694
v 0.79051465 0.50901806 -1.2907504
v 0.73632324 0.50901806 -1.2907504
v 0.73632324 0.32812917 -1.2907504
v 0.79051465 0.32812855 -1.2907504
v 0.7235106 0.50901794 -1.0977553
v 0.7235106 0.32812902 -1.0977553
v 0.7236683 0.50901794 -1.2537783
v 0.7236683 0.32812887 -1.2537783
v 1.2663909 0.50901806 -1.2537783
v 1.2537383 0.50901824 -1.2907504
v 1.2537383 0.32812887 -1.2907504
v 1.2663909 0.32812887 -1.2537783
v 0.73632324 0.50901806 -1.2907504
v 0.7236683 0.50901794 -1.2537783
v 0.73632324 0.32812917 -1.2907504
v 0.7236683 0.32812887 -1.2537783
v 0.18005103 0.6050801 -1.28407
v -0.017226066 0.7590653 -1.28407
v -0.017226066 0.6050801 -1.28407
v -0.017226066 0.32812947 -1.2840704
v 0.18005103 0.32812932 -1.2840704
v 0.18728885 0.6050801 -1.290751
v 0.18005103 0.6050801 -1.28407
v 0.18005103 0.32812932 -1.2840704
v 0.18728885 0.32812902 -1.2907513
v 0.24148147 0.32812902 -1.2907513
v 0.24148147 0.6050801 -1.290751
v 0.18728885 0.6050801 -1.290751
v 0.18728885 0.32812902 -1.2907513
v 0.25413465 0.6050804 -1.2537788
v 0.25429225 0.32812902 -1.0977563
v 0.25429225 0.6050814 -0.9894177
v 0.25413465 0.32812902 -1.2537792
v -0.017226066 0.7590653 -1.28407
v -0.21450317 0.6050801 -1.2840706
v -0.017226066 0.6050801 -1.28407
v -0.017226066 0.32812947 -1.2840704
v -0.21450317 0.32812902 -1.284071
v -0.22174221 0.6050801 -1.2907516
v -0.22174098 0.32812887 -1.2907519
v -0.21450317 0.32812902 -1.284071
v -0.21450317 0.6050801 -1.2840706
v -0.22174221 0.6050801 -1.2907516
v -0.2759336 0.6050801 -1.2907516
v -0.2759336 0.32812932 -1.2907519
v -0.22174098 0.32812887 -1.2907519
v -0.2887456 0.6050814 -0.98941827
v -0.2887456 0.32812932 -1.0977569
v -0.28858796 0.6050804 -1.2537788
v -0.28858796 0.32812932 -1.2537792
v 0.25413465 0.6050804 -1.2537788
v 0.24148147 0.6050801 -1.290751
v 0.25413465 0.32812902 -1.2537792
v 0.24148147 0.32812902 -1.2907513
v -0.2759336 0.6050801 -1.2907516
v -0.28858796 0.6050804 -1.2537788
v -0.28858796 0.32812932 -1.2537792
v -0.2759336 0.32812932 -1.2907519
v -0.046385676 0.80287164 -1.2949322
v -0.29628333 0.6050801 -1.294932
v -0.21449426 0.6050801 -1.3063616
v -0.01722914 0.75906557 -1.3063618
v -0.046385676 0.80287164 -1.2949322
v -0.28220093 0.6050804 -0.9211496
v -0.29628333 0.6050801 -1.294932
v -0.046385676 0.80287135 -0.64655006
v -0.04216966 0.82031316 -1.2949322
v 0.0077123023 0.82031286 -0.64655006
v -0.04216997 0.82031286 -0.64655006
v 0.0077126096 0.82031316 -1.2949322
v -0.046385676 0.80287135 -0.64655006
v -0.046385676 0.80287164 -1.2949322
v -0.04216997 0.82031286 -0.64655006
v -0.04216966 0.82031316 -1.2949322
v 0.26183537 0.60507953 -1.294932
v 0.011928008 0.80287164 -1.2949322
v 0.1800415 0.60507953 -1.3063616
v -0.01722914 0.75906557 -1.3063618
v 0.011928008 0.80287164 -1.2949322
v 0.26183537 0.6050798 -0.9211496
v 0.011928008 0.80287135 -0.64655006
v 0.26183537 0.60507953 -1.294932
v 0.0077123023 0.82031286 -0.64655006
v 0.0077126096 0.82031316 -1.2949322
v 0.011928008 0.80287164 -1.2949322
v 0.011928008 0.80287135 -0.64655006
v 0.9658755 0.706809 -1.2949322
v 0.71597785 0.5090173 -1.294932
v 0.7977669 0.5090173 -1.3063616
v 0.995032 0.6630029 -1.3063618
v 0.9658755 0.706809 -1.2949322
v 0.7300602 0.50901777 -0.9211496
v 0.71597785 0.5090173 -1.294932
v 0.9658755 0.7068087 -0.64655006
v 0.9700915 0.7242505 -1.2949322
v 1.0199735 0.7242502 -0.64655006
v 0.9700912 0.7242502 -0.64655006
v 1.0199738 0.7242505 -1.2949322
v 0.9658755 0.7068087 -0.64655006
v 0.9658755 0.706809 -1.2949322
v 0.9700912 0.7242502 -0.64655006
v 0.9700915 0.7242505 -1.2949322
v 1.2740965 0.5090169 -1.294932
v 1.0241892 0.706809 -1.2949322
v 1.1923027 0.5090167 -1.3063616
v 0.995032 0.6630029 -1.3063618
v 1.0241892 0.706809 -1.2949322
v 1.2740965 0.509017 -0.9211496
v 1.0241892 0.7068087 -0.64655006
v 1.2740965 0.5090169 -1.294932
v 1.0199735 0.7242502 -0.64655006
v 1.0199738 0.7242505 -1.2949322
v 1.0241892 0.706809 -1.2949322
v 1.0241892 0.7068087 -0.64655006
vt 0.09647514 0.5733358
vt 0.08380373 0.5733358
vt 0.089838974 0.5733358
vt 0.098833665 0.5733358
vt 0.086622566 0.5733358
vt 0.021529052 0.5733358
vt 0.019178513 0.5733358
vt 0.016828004 0.5733358
vt 0.16164587 0.5733358
vt 0.1634932 0.5733358
vt 0.16644292 0.5733358
vt 0.09633528 0.44494286
vt 0.09373431 0.44228563
vt 0.094671234 0.44494286
vt 0.09050439 0.44494286
vt 0.094671234 0.44494286
vt 0.09373431 0.44228563
vt 0.0890411 0.44494286
vt 0.09050439 0.44494286
vt 0.09373431 0.44228563
vt 0.09633528 0.44494286
vt 0.09373431 0.44228563
vt 0.094671234 0.44494286
vt 0.09050439 0.44494286
vt 0.094671234 0.44494286
vt 0.09373431 0.44228563
vt 0.0890411 0.44494286
vt 0.09050439 0.44494286
vt 0.09373431 0.44228563
vt 0.16164587 0.4483957
vt 0.16164587 0.5733358
vt 0.10200663 0.5733358
vt 0.10200663 0.4483957
vt 0.08380373 0.5733358
vt 0.021529052 0.5733358
vt 0.021529052 0.4483957
vt 0.08380373 0.4483957
vt 0.089838974 0.4483957
vt 0.09647529 0.4483957
vt 0.089838974 0.5733358
vt 0.09647514 0.5733358
vt 0.10200663 0.5733358
vt 0.09647514 0.5733358
vt 0.09647529 0.4483957
vt 0.10200663 0.4483957
vt 0.089838974 0.4483957
vt 0.089838974 0.5733358
vt 0.08380373 0.5733358
vt 0.08380373 0.4483957
vt 0.16644292 0.5733358
vt 0.16164587 0.5733358
vt 0.16164587 0.4483957
vt 0.16644292 0.4483957
vt 0.021529052 0.4483957
vt 0.021529052 0.5733358
vt 0.016828004 0.5733358
vt 0.016828004 0.4483957
vt 0.16164587 0.5733358
vt 0.098833665 0.5733358
vt 0.10200663 0.5733358
vt 0.08380373 0.5733358
vt 0.09647514 0.5733358
vt 0.48784465 0.7786371
vt 0.49953964 0.78506595
vt 0.49953964 0.7786371
vt 0.49953964 0.765531
vt 0.48784465 0.765531
vt 0.48694533 0.7786371
vt 0.48739702 0.7786371
vt 0.48739702 0.765531
vt 0.48694533 0.765531
vt 0.48404428 0.7786371
vt 0.48673597 0.7786371
vt 0.48404428 0.765531
vt 0.48673597 0.765531
vt 0.48012882 0.7786371
vt 0.47535354 0.765531
vt 0.47535354 0.7786371
vt 0.48012882 0.765531
vt 0.49953964 0.78506595
vt 0.48784465 0.7786371
vt 0.49953964 0.7786371
vt 0.48784465 0.765531
vt 0.49953964 0.765531
vt 0.48694533 0.7786371
vt 0.48694533 0.765531
vt 0.48739702 0.765531
vt 0.48739702 0.7786371
vt 0.48673597 0.7786371
vt 0.48404428 0.7786371
vt 0.48404428 0.765531
vt 0.48673597 0.765531
vt 0.47535354 0.7786371
vt 0.47535354 0.765531
vt 0.48012882 0.7786371
vt 0.48012882 0.765531
vt 0.48012882 0.7786371
vt 0.48370826 0.7786371
vt 0.48370826 0.765531
vt 0.48012882 0.765531
vt 0.48370826 0.7786371
vt 0.48012882 0.7786371
vt 0.48370826 0.765531
vt 0.48012882 0.765531
vt 0.48784465 0.7786371
vt 0.49953964 0.78506595
vt 0.49953964 0.7786371
vt 0.49953964 0.765531
vt 0.48784465 0.765531
vt 0.48694533 0.7786371
vt 0.48739702 0.7786371
vt 0.48739702 0.765531
vt 0.48694533 0.765531
vt 0.48404428 0.765531
vt 0.48404428 0.7786371
vt 0.48673597 0.7786371
vt 0.48673597 0.765531
vt 0.48012882 0.7786371
vt 0.47535354 0.765531
vt 0.47535354 0.7786371
vt 0.48012882 0.765531
vt 0.49953964 0.78506595
vt 0.48784465 0.7786371
vt 0.49953964 0.7786371
vt 0.49953964 0.765531
vt 0.48784465 0.765531
vt 0.48694533 0.7786371
vt 0.48694533 0.765531
vt 0.48739702 0.765531
vt 0.48739702 0.7786371
vt 0.48673597 0.7786371
vt 0.48404428 0.7786371
vt 0.48404428 0.765531
vt 0.48673597 0.765531
vt 0.47535354 0.7786371
vt 0.47535354 0.765531
vt 0.48012882 0.7786371
vt 0.48012882 0.765531
vt 0.48012882 0.7786371
vt 0.48370826 0.7786371
vt 0.48012882 0.765531
vt 0.48370826 0.765531
vt 0.48370826 0.7786371
vt 0.48012882 0.7786371
vt 0.48012882 0.765531
vt 0.48370826 0.765531
vt 0.09633528 0.44494286
vt 0.11989443 0.44494286
vt 0.11989443 0.44228563
vt 0.09373431 0.44228563
vt 0.10200663 0.4495171
vt 0.12722804 0.48893216
vt 0.12722804 0.4495171
vt 0.10200663 0.51723033
vt 0.09628555 0.4495171
vt 0.089838974 0.51723033
vt 0.09628555 0.51723033
vt 0.089838974 0.4495171
vt 0.10200663 0.51723033
vt 0.10200663 0.4495171
vt 0.09628555 0.51723033
vt 0.09628555 0.4495171
vt 0.062943965 0.44494286
vt 0.0890411 0.44494286
vt 0.062943965 0.44228563
vt 0.09373431 0.44228563
vt 0.08380373 0.4495171
vt 0.058500055 0.48893216
vt 0.08380373 0.51723033
vt 0.0585001 0.4495171
vt 0.089838974 0.51723033
vt 0.089838974 0.4495171
vt 0.08380373 0.4495171
vt 0.08380373 0.51723033
vt 0.09633528 0.44494286
vt 0.11989443 0.44494286
vt 0.11989443 0.44228563
vt 0.09373431 0.44228563
vt 0.10200663 0.4495171
vt 0.12722804 0.48893216
vt 0.12722804 0.4495171
vt 0.10200663 0.51723033
vt 0.09628555 0.4495171
vt 0.089838974 0.51723033
vt 0.09628555 0.51723033
vt 0.089838974 0.4495171
vt 0.10200663 0.51723033
vt 0.10200663 0.4495171
vt 0.09628555 0.51723033
vt 0.09628555 0.4495171
vt 0.062943965 0.44494286
vt 0.0890411 0.44494286
vt 0.062943965 0.44228563
vt 0.09373431 0.44228563
vt 0.08380373 0.4495171
vt 0.058500055 0.48893216
vt 0.08380373 0.51723033
vt 0.0585001 0.4495171
vt 0.089838974 0.51723033
vt 0.089838974 0.4495171
vt 0.08380373 0.4495171
vt 0.08380373 0.51723033
vn 1 1.206475E-06 8.75956E-06
vn 1 0 0
vn 1 1.206475E-06 8.759559E-06
vn 1 -1.9089778E-07 -3.218726E-07
vn 1 0 0
vn 1 0 0
vn 1 0 0
vn 1 0 0
vn 1 -1.908978E-07 -3.218726E-07
vn 1 -1.9089777E-07 -3.218726E-07
vn 1 0 0
vn -0.27575356 0.06665603 -0.9589145
vn -0.2757536 0.06665604 -0.9589145
vn -0.27575356 0.06665603 -0.9589145
vn -0 0.1834454 -0.9830299
vn -0 0.1834454 -0.9830299
vn -0 0.18344538 -0.9830299
vn 0.27575967 0.06664779 -0.95891327
vn 0.2757597 0.06664779 -0.95891327
vn 0.27575967 0.06664779 -0.95891327
vn -0.27575356 0.06665603 -0.9589145
vn -0.2757536 0.06665604 -0.9589145
vn -0.27575356 0.06665603 -0.9589145
vn -0 0.1834454 -0.9830299
vn -0 0.1834454 -0.9830299
vn -0 0.18344538 -0.9830299
vn 0.27575967 0.06664779 -0.95891327
vn 0.2757597 0.06664779 -0.95891327
vn 0.27575967 0.06664779 -0.95891327
vn 2.359448E-07 0.7457487 -0.6662274
vn 2.359448E-07 0.7457487 -0.6662274
vn 2.359448E-07 0.7457487 -0.6662274
vn 2.9284084E-07 0.7457486 -0.6662275
vn -2.6282004E-07 0.7507854 0.6605462
vn -2.6282E-07 0.7507854 0.6605462
vn -2.6282E-07 0.7507854 0.6605462
vn -3.3791142E-07 0.7507854 0.6605462
vn -1.5258799E-07 1 0
vn -1.52588E-07 1 0
vn -1.5258799E-07 1 0
vn -1.5258787E-07 1 0
vn 5.839499E-07 0.13644427 -0.99064773
vn 5.8394994E-07 0.13644429 -0.99064773
vn 5.8394994E-07 0.13644429 -0.99064773
vn 5.8394994E-07 0.13644429 -0.99064773
vn -3.2314165E-07 0.1364443 0.99064773
vn -3.2314165E-07 0.13644429 0.99064773
vn -3.2314165E-07 0.13644429 0.99064773
vn -3.2314142E-07 0.1364443 0.99064773
vn 6.10352E-07 0 -1
vn 6.1035195E-07 0 -1
vn 6.1035195E-07 0 -1
vn 6.103519E-07 0 -1
vn -3.051758E-07 0 1
vn -3.051758E-07 0 1
vn -3.0517577E-07 0 1
vn -3.0517577E-07 0 1
vn 1 3.4405327E-06 -3.0736599E-06
vn 1 3.440533E-06 -3.0736599E-06
vn 1 3.440533E-06 -3.0736599E-06
vn 1 3.9630954E-06 0
vn 1 -1.4276486E-05 0
vn -0 0 -1
vn -0 0 -1
vn -0 0 -1
vn -0 0 -1
vn -0 0 -1
vn -0.6782749 0 -0.73480827
vn -0.6782748 0 -0.73480827
vn -0.6782749 0 -0.73480827
vn -0.6782749 0 -0.7348082
vn -0 0 -1
vn -0 0 -1
vn -0 0 -1
vn -0 0 -1
vn 0.9999995 0 -0.0010099423
vn 0.9999995 0 -0.0010099423
vn 0.9999995 0 -0.0010099423
vn 0.9999995 0 -0.0010099423
vn -0 0 -1
vn -0 0 -1
vn -0 0 -1
vn -0 0 -1
vn -0 0 -1
vn 0.6782127 0 -0.73486567
vn 0.6782127 0 -0.73486567
vn 0.6782127 0 -0.73486567
vn 0.6782127 0 -0.73486567
vn -0 0 -1
vn -0 0 -1
vn -0 0 -1
vn -0 0 -1
vn -0.9999995 0 -0.0010104347
vn -0.9999995 0 -0.0010104348
vn -0.9999995 0 -0.0010104347
vn -0.9999995 0 -0.0010104348
vn 0.9461309 0 -0.32378447
vn 0.9461309 0 -0.32378453
vn 0.9461309 0 -0.3237845
vn 0.9461309 0 -0.3237845
vn -0.94611216 0 -0.323839
vn -0.94611216 0 -0.323839
vn -0.94611216 0 -0.32383898
vn -0.94611216 0 -0.32383904
vn -0 0 -1
vn -0 0 -1
vn -0 0 -1
vn -0 1.1096273E-06 -1
vn -0 1.1096267E-06 -1
vn -0.6782749 8.1536274E-07 -0.73480815
vn -0.6782749 8.1536274E-07 -0.7348082
vn -0.6782749 8.1536285E-07 -0.7348082
vn -0.6782749 8.1536183E-07 -0.7348082
vn -0 1.1096254E-06 -1
vn -0 1.1096254E-06 -1
vn -0 1.1096255E-06 -1
vn -0 1.1096254E-06 -1
vn 0.9999999 0.00023322346 -0.00059620274
vn 0.9999999 0.00023322344 -0.0005962027
vn 0.9999999 0.00023322346 -0.00059620274
vn 0.9999995 0 -0.0010101886
vn 3.1155369E-06 0 -1
vn 3.1155364E-06 0 -1
vn 3.1155364E-06 0 -1
vn 3.115534E-06 1.1096254E-06 -1
vn 3.115534E-06 1.1096254E-06 -1
vn 0.6782749 3.825884E-06 -0.7348082
vn 0.6782749 3.825884E-06 -0.7348082
vn 0.6782749 3.8258845E-06 -0.73480827
vn 0.6782127 8.154256E-07 -0.73486567
vn -0 1.1096267E-06 -1
vn -0 1.1096267E-06 -1
vn -0 1.1096267E-06 -1
vn -0 1.109625E-06 -1
vn -0.9999999 0.00023325265 -0.0005962768
vn -0.9999999 0.00023325268 -0.00059627683
vn -0.9999999 0.00023325266 -0.00059627683
vn -0.9999995 0 -0.0010103156
vn 0.94612634 4.4911695E-07 -0.32379746
vn 0.94612634 4.491169E-07 -0.3237975
vn 0.94612634 4.4911695E-07 -0.32379752
vn 0.94612616 3.592946E-07 -0.32379812
vn -0.94611865 4.4677546E-07 -0.32381997
vn -0.94611865 4.467755E-07 -0.32382
vn -0.94611865 4.467755E-07 -0.32381997
vn -0.9461185 3.574215E-07 -0.32382053
vn -0.13633086 0.17224428 -0.9755746
vn -0.13633086 0.17224428 -0.9755746
vn -0.13633086 0.1722443 -0.9755746
vn -0.13096194 0.16776861 -0.97708887
vn -0.62044823 0.7838989 0.023375006
vn -0.62044823 0.7838989 0.023375006
vn -0.62044823 0.7838989 0.023375006
vn -0.64263237 0.76617473 3.5666594E-07
vn -0 1 4.7396736E-07
vn -0 1 4.7396736E-07
vn -0 1 4.739674E-07
vn -0 1 4.739674E-07
vn -0.97200984 0.2349402 1.11353984E-07
vn -0.97200984 0.23494019 1.1135399E-07
vn -0.97200984 0.23494019 1.11353984E-07
vn -0.97200584 0.23495634 -3.4933737E-07
vn 0.13632315 0.17224069 -0.9755763
vn 0.13632315 0.1722407 -0.9755763
vn 0.13632314 0.1722407 -0.9755763
vn 0.13095896 0.16776882 -0.9770892
vn 0.6206033 0.78412473 3.7164952E-07
vn 0.6206033 0.78412473 3.7164952E-07
vn 0.6206033 0.78412473 3.7164952E-07
vn 0.62060434 0.78412396 -6.446819E-07
vn 0.9720138 0.23492403 5.720492E-07
vn 0.9720138 0.23492403 5.7204915E-07
vn 0.9720138 0.23492403 5.7204903E-07
vn 0.97200984 0.2349402 1.1169491E-07
vn -0.13633086 0.17224415 -0.9755746
vn -0.13633086 0.17224416 -0.9755746
vn -0.13633084 0.17224415 -0.9755746
vn -0.13096203 0.16776855 -0.97708887
vn -0.6204486 0.7838987 0.023374714
vn -0.6204486 0.7838987 0.023374718
vn -0.6204485 0.7838988 0.023374716
vn -0.64263237 0.76617473 3.5666594E-07
vn -0 1 4.7396736E-07
vn -0 1 4.7396736E-07
vn -0 1 4.739674E-07
vn -0 1 4.739674E-07
vn -0.97200984 0.2349402 1.11353984E-07
vn -0.97200984 0.23494019 1.1135399E-07
vn -0.97200984 0.23494019 1.11353984E-07
vn -0.97200584 0.23495634 -3.4933737E-07
vn 0.13632286 0.17224032 -0.9755764
vn 0.13632286 0.17224032 -0.9755764
vn 0.13632284 0.1722403 -0.9755764
vn 0.13095908 0.16776878 -0.9770892
vn 0.6206037 0.78412443 3.7164938E-07
vn 0.6206036 0.78412443 3.7164938E-07
vn 0.6206036 0.78412443 3.7164932E-07
vn 0.6206042 0.78412396 -3.2234092E-07
vn 0.9720138 0.23492403 5.720492E-07
vn 0.9720138 0.23492403 5.7204915E-07
vn 0.9720138 0.23492403 5.7204903E-07
vn 0.97200984 0.2349402 1.1169491E-07
g obj_roof1_6_0
f 3/3/3 2/2/2 1/1/1
f 5/5/5 4/4/4 2/2/2
f 5/5/5 2/2/2 6/6/6
f 6/6/6 7/7/7 5/5/5
f 8/8/8 7/7/7 6/6/6
f 10/10/10 9/9/9 4/4/4
f 9/9/9 10/10/10 11/11/11
f 14/14/14 13/13/13 12/12/12
f 17/17/17 16/16/16 15/15/15
f 20/20/20 19/19/19 18/18/18
f 23/23/23 22/22/22 21/21/21
f 26/26/26 25/25/25 24/24/24
f 29/29/29 28/28/28 27/27/27
f 32/32/32 31/31/31 30/30/30
f 30/30/30 33/33/33 32/32/32
f 36/36/36 35/35/35 34/34/34
f 34/34/34 37/37/37 36/36/36
f 40/40/40 39/39/39 38/38/38
f 39/39/39 40/40/40 41/41/41
f 44/44/44 43/43/43 42/42/42
f 42/42/42 45/45/45 44/44/44
f 48/48/48 47/47/47 46/46/46
f 46/46/46 49/49/49 48/48/48
f 52/52/52 51/51/51 50/50/50
f 50/50/50 53/53/53 52/52/52
f 56/56/56 55/55/55 54/54/54
f 54/54/54 57/57/57 56/56/56
f 60/60/60 59/59/59 58/58/58
f 61/61/61 59/59/59 60/60/60
f 61/61/61 60/60/60 62/62/62
f 65/65/65 64/64/64 63/63/63
f 66/66/66 65/65/65 63/63/63
f 63/63/63 67/67/67 66/66/66
f 70/70/70 69/69/69 68/68/68
f 68/68/68 71/71/71 70/70/70
f 74/74/74 73/73/73 72/72/72
f 74/74/74 75/75/75 73/73/73
f 78/78/78 77/77/77 76/76/76
f 77/77/77 79/79/79 76/76/76
f 82/82/82 81/81/81 80/80/80
f 83/83/83 81/81/81 82/82/82
f 82/82/82 84/84/84 83/83/83
f 87/87/87 86/86/86 85/85/85
f 85/85/85 88/88/88 87/87/87
f 91/91/91 90/90/90 89/89/89
f 89/89/89 92/92/92 91/91/91
f 95/95/95 94/94/94 93/93/93
f 96/96/96 94/94/94 95/95/95
f 99/99/99 98/98/98 97/97/97
f 97/97/97 100/100/100 99/99/99
f 103/103/103 102/102/102 101/101/101
f 103/103/103 104/104/104 102/102/102
f 107/107/107 106/106/106 105/105/105
f 108/108/108 107/107/107 105/105/105
f 105/105/105 109/109/109 108/108/108
f 112/112/112 111/111/111 110/110/110
f 110/110/110 113/113/113 112/112/112
f 116/116/116 115/115/115 114/114/114
f 114/114/114 117/117/117 116/116/116
f 120/120/120 119/119/119 118/118/118
f 119/119/119 121/121/121 118/118/118
f 124/124/124 123/123/123 122/122/122
f 123/123/123 124/124/124 125/125/125
f 125/125/125 126/126/126 123/123/123
f 129/129/129 128/128/128 127/127/127
f 127/127/127 130/130/130 129/129/129
f 133/133/133 132/132/132 131/131/131
f 131/131/131 134/134/134 133/133/133
f 137/137/137 136/136/136 135/135/135
f 138/138/138 136/136/136 137/137/137
f 141/141/141 140/140/140 139/139/139
f 141/141/141 142/142/142 140/140/140
f 145/145/145 144/144/144 143/143/143
f 143/143/143 146/146/146 145/145/145
f 149/149/149 148/148/148 147/147/147
f 150/150/150 149/149/149 147/147/147
f 153/153/153 152/152/152 151/151/151
f 154/154/154 151/151/151 152/152/152
f 157/157/157 156/156/156 155/155/155
f 158/158/158 155/155/155 156/156/156
f 161/161/161 160/160/160 159/159/159
f 160/160/160 161/161/161 162/162/162
f 165/165/165 164/164/164 163/163/163
f 166/166/166 164/164/164 165/165/165
f 169/169/169 168/168/168 167/167/167
f 170/170/170 167/167/167 168/168/168
f 173/173/173 172/172/172 171/171/171
f 174/174/174 173/173/173 171/171/171
f 177/177/177 176/176/176 175/175/175
f 178/178/178 177/177/177 175/175/175
f 181/181/181 180/180/180 179/179/179
f 182/182/182 179/179/179 180/180/180
f 185/185/185 184/184/184 183/183/183
f 186/186/186 183/183/183 184/184/184
f 189/189/189 188/188/188 187/187/187
f 188/188/188 189/189/189 190/190/190
f 193/193/193 192/192/192 191/191/191
f 194/194/194 192/192/192 193/193/193
f 197/197/197 196/196/196 195/195/195
f 198/198/198 195/195/195 196/196/196
f 201/201/201 200/200/200 199/199/199
f 202/202/202 201/201/201 199/199/199
