g obj_lotus1
v -0.5593188 -0.35838896 -0.03330949
v -0.5084019 -0.4260556 -0.16434015
v -0.49703366 -0.3583889 -0.15480107
v -0.5737001 -0.4260556 -0.036971413
v -0.56272244 -0.35838896 0.10317512
v -0.57726836 -0.4260556 0.106115684
v -0.5065705 -0.35838896 0.2276204
v -0.51840013 -0.42605564 0.23658088
v -0.41441828 -0.35838896 0.30494535
v -0.408755 -0.42605573 0.328584
v -0.30701265 -0.358389 0.185923
v -0.31215867 -0.42605567 0.22224414
v -0.25692105 -0.3583891 0.3464881
v -0.2700495 -0.42605576 0.36390278
v -0.13585941 -0.35838908 0.32201508
v -0.12975585 -0.42605573 0.33554175
v -0.02702929 -0.358389 0.23957929
v -0.015661081 -0.42605564 0.24911833
v 0.035255764 -0.358389 0.118087724
v -0.015661081 -0.42605564 0.24911833
v -0.02702929 -0.358389 0.23957929
v 0.04963705 -0.42605567 0.121749595
v 0.038659513 -0.35838896 -0.01839683
v 0.053205423 -0.4260556 -0.021337379
v -0.017492358 -0.3583889 -0.14284213
v -0.0056627905 -0.4260556 -0.15180272
v -0.12207823 -0.3583889 -0.23060009
v -0.11530798 -0.42605564 -0.24380593
v -0.2543836 -0.3583889 -0.26428908
v -0.2540136 -0.42605564 -0.27912468
v -0.38820368 -0.3583889 -0.2372367
v -0.3943073 -0.42605564 -0.25076362
v -0.49703366 -0.3583889 -0.15480107
v -0.5084019 -0.4260556 -0.16434015
v -0.49703366 -0.3583889 -0.15480107
v -0.56272244 -0.35838896 0.10317512
v -0.5593188 -0.35838896 -0.03330949
v -0.41441828 -0.35838896 0.30494535
v -0.5065705 -0.35838896 0.2276204
v -0.12207823 -0.3583889 -0.23060009
v -0.30701265 -0.358389 0.185923
v -0.2543836 -0.3583889 -0.26428908
v -0.38820368 -0.3583889 -0.2372367
v -0.017492358 -0.3583889 -0.14284213
v 0.038659513 -0.35838896 -0.01839683
v -0.02702929 -0.358389 0.23957929
v 0.035255764 -0.358389 0.118087724
v -0.25692105 -0.3583891 0.3464881
v -0.13585941 -0.35838908 0.32201508
v 0.103455685 -0.42605564 -0.07287724
v 0.1660453 -0.38003105 -0.1257566
v 0.1723861 -0.4260556 -0.11987321
v 0.10029552 -0.38003108 -0.08092911
v 0.020960728 -0.42605567 -0.060443163
v 0.021607127 -0.38003108 -0.06906881
v -0.05875961 -0.42605564 -0.08503361
v -0.054434676 -0.38003108 -0.09252455
v -0.11991568 -0.42605564 -0.14177816
v -0.11276883 -0.38003105 -0.14665076
v -0.15039492 -0.42605564 -0.21943794
v -0.1418417 -0.38003108 -0.22072713
v -0.14416046 -0.42605564 -0.30263147
v -0.13589485 -0.38003108 -0.30008185
v -0.10244705 -0.4260556 -0.37488115
v -0.09610626 -0.38003105 -0.36899775
v -0.0335166 -0.4260556 -0.42187715
v -0.030356472 -0.38003105 -0.41382518
v 0.048978336 -0.4260556 -0.43431118
v 0.04833194 -0.38003108 -0.4256855
v 0.12869863 -0.4260556 -0.4097207
v 0.12437374 -0.38003105 -0.4022298
v 0.18985474 -0.42605564 -0.35297614
v 0.18270792 -0.38003105 -0.34810352
v 0.22033396 -0.4260556 -0.27531633
v 0.21178073 -0.38003105 -0.27402714
v 0.21409945 -0.4260556 -0.1921229
v 0.2058339 -0.38003105 -0.19467248
v 0.1723861 -0.4260556 -0.11987321
v 0.1660453 -0.38003105 -0.1257566
v -0.054434676 -0.38003108 -0.09252455
v 0.10029552 -0.38003108 -0.08092911
v 0.021607127 -0.38003108 -0.06906881
v -0.1418417 -0.38003108 -0.22072713
v -0.11276883 -0.38003105 -0.14665076
v 0.18270792 -0.38003105 -0.34810352
v 0.2058339 -0.38003105 -0.19467248
v 0.1660453 -0.38003105 -0.1257566
v 0.21178073 -0.38003105 -0.27402714
v -0.09610626 -0.38003105 -0.36899775
v -0.13589485 -0.38003108 -0.30008185
v 0.04833194 -0.38003108 -0.4256855
v 0.12437374 -0.38003105 -0.4022298
v -0.030356472 -0.38003105 -0.41382518
v 0.32315603 -0.38003117 0.37015843
v 0.23869587 -0.42605567 0.33733812
v 0.24484462 -0.38003114 0.33001038
v 0.3207956 -0.42605573 0.3794284
v 0.41113177 -0.38003117 0.37235245
v 0.41302714 -0.42605573 0.3817283
v 0.49134704 -0.38003114 0.33615777
v 0.49712285 -0.42605567 0.34378296
v 0.54118943 -0.38003114 0.27675802
v 0.55642647 -0.42605567 0.27310756
v 0.46446955 -0.38003114 0.20752615
v 0.48788166 -0.42605567 0.21084318
v 0.56796724 -0.38003114 0.17523795
v 0.57919246 -0.42605564 0.18370028
v 0.5521922 -0.38003108 0.09720367
v 0.5609114 -0.42605564 0.09326941
v 0.49905565 -0.38003114 0.027053542
v 0.5052044 -0.42605567 0.019725822
v 0.42074424 -0.38003114 -0.01309437
v 0.5052044 -0.42605567 0.019725822
v 0.49905565 -0.38003114 0.027053542
v 0.42310455 -0.42605567 -0.022364313
v 0.3327685 -0.38003114 -0.015288364
v 0.33087316 -0.42605567 -0.024664449
v 0.25255316 -0.38003114 0.020906178
v 0.24677742 -0.42605567 0.013281025
v 0.19598591 -0.38003108 0.08832047
v 0.18747364 -0.42605567 0.08395648
v 0.17427051 -0.38003114 0.17360224
v 0.16470776 -0.42605567 0.17336375
v 0.19170803 -0.38003114 0.25986046
v 0.18298884 -0.42605573 0.26379466
v 0.24484462 -0.38003114 0.33001038
v 0.23869587 -0.42605567 0.33733812
v 0.24484462 -0.38003114 0.33001038
v 0.41113177 -0.38003117 0.37235245
v 0.32315603 -0.38003117 0.37015843
v 0.54118943 -0.38003114 0.27675802
v 0.49134704 -0.38003114 0.33615777
v 0.19598591 -0.38003108 0.08832047
v 0.46446955 -0.38003114 0.20752615
v 0.17427051 -0.38003114 0.17360224
v 0.19170803 -0.38003114 0.25986046
v 0.25255316 -0.38003114 0.020906178
v 0.3327685 -0.38003114 -0.015288364
v 0.49905565 -0.38003114 0.027053542
v 0.42074424 -0.38003114 -0.01309437
v 0.56796724 -0.38003114 0.17523795
v 0.5521922 -0.38003108 0.09720367
vt 0.75062114 0.72942734
vt 0.76063025 0.73326254
vt 0.75062114 0.7320039
vt 0.76063025 0.7305615
vt 0.75062114 0.72220755
vt 0.76063025 0.7229924
vt 0.75062114 0.7117746
vt 0.76063025 0.7120545
vt 0.75062114 0.7015712
vt 0.76063025 0.69991493
vt 0.75062114 0.701082
vt 0.76063025 0.6994362
vt 0.75062114 0.6890738
vt 0.76063025 0.688977
vt 0.75062114 0.6825421
vt 0.76063025 0.68140817
vt 0.75062114 0.67996526
vt 0.76063025 0.67870665
vt 0.75062114 0.6825421
vt 0.76063025 0.67870665
vt 0.75062114 0.67996526
vt 0.76063025 0.68140817
vt 0.75062114 0.6897621
vt 0.76063025 0.688977
vt 0.75062114 0.7001951
vt 0.76063025 0.69991493
vt 0.75062114 0.7117746
vt 0.76063025 0.7120545
vt 0.75062114 0.72220755
vt 0.76063025 0.7229924
vt 0.75062114 0.72942734
vt 0.76063025 0.7305615
vt 0.75062114 0.7320039
vt 0.76063025 0.73326254
vt 0.7287459 0.6817586
vt 0.7454439 0.69854444
vt 0.7390172 0.6883136
vt 0.74316853 0.7202726
vt 0.7467529 0.71042466
vt 0.6965254 0.6921433
vt 0.7295434 0.7158485
vt 0.7051646 0.68388397
vt 0.716664 0.6801777
vt 0.6924574 0.70332
vt 0.6937664 0.71520025
vt 0.71046454 0.73198605
vt 0.7001931 0.7254311
vt 0.7329493 0.73021406
vt 0.7225464 0.733567
vt 0.75975776 0.7303546
vt 0.7523209 0.73435044
vt 0.75975776 0.73435044
vt 0.7523209 0.7303546
vt 0.75975776 0.7263588
vt 0.7523209 0.7263588
vt 0.75975776 0.7223628
vt 0.7523209 0.7223628
vt 0.75975776 0.7183671
vt 0.7523209 0.7183671
vt 0.75975776 0.71437114
vt 0.7523209 0.71437114
vt 0.75975776 0.7103753
vt 0.7523209 0.7103753
vt 0.75975776 0.70637935
vt 0.7523209 0.70637935
vt 0.75975776 0.7023835
vt 0.7523209 0.7023835
vt 0.75975776 0.69838756
vt 0.7523209 0.69838756
vt 0.75975776 0.69439185
vt 0.7523209 0.69439185
vt 0.75975776 0.6903959
vt 0.7523209 0.6903959
vt 0.75975776 0.68640006
vt 0.7523209 0.68640006
vt 0.75975776 0.6824042
vt 0.7523209 0.6824042
vt 0.75975776 0.67840827
vt 0.7523209 0.67840827
vt 0.69303524 0.7068649
vt 0.703265 0.68507636
vt 0.6957259 0.69477314
vt 0.703265 0.72865343
vt 0.6957259 0.71895665
vt 0.74468434 0.69477314
vt 0.72625095 0.67969507
vt 0.71415925 0.67969507
vt 0.73714525 0.68507636
vt 0.726251 0.7340348
vt 0.71415925 0.7340348
vt 0.74468434 0.71895665
vt 0.74737495 0.7068649
vt 0.73714525 0.72865343
vt 0.75062114 0.72942734
vt 0.76063025 0.73326254
vt 0.75062114 0.7320039
vt 0.76063025 0.7305615
vt 0.75062114 0.72220755
vt 0.76063025 0.7229924
vt 0.75062114 0.7117746
vt 0.76063025 0.7120545
vt 0.75062114 0.7015712
vt 0.76063025 0.69991493
vt 0.75062114 0.701082
vt 0.76063025 0.6994362
vt 0.75062114 0.6890738
vt 0.76063025 0.688977
vt 0.75062114 0.6825421
vt 0.76063025 0.68140817
vt 0.75062114 0.67996526
vt 0.76063025 0.67870665
vt 0.75062114 0.6825421
vt 0.76063025 0.67870665
vt 0.75062114 0.67996526
vt 0.76063025 0.68140817
vt 0.75062114 0.6897621
vt 0.76063025 0.688977
vt 0.75062114 0.7001951
vt 0.76063025 0.69991493
vt 0.75062114 0.7117746
vt 0.76063025 0.7120545
vt 0.75062114 0.72220755
vt 0.76063025 0.7229924
vt 0.75062114 0.72942734
vt 0.76063025 0.7305615
vt 0.75062114 0.7320039
vt 0.76063025 0.73326254
vt 0.7287459 0.6817586
vt 0.7454439 0.69854444
vt 0.7390172 0.6883136
vt 0.74316853 0.7202726
vt 0.7467529 0.71042466
vt 0.6965254 0.6921433
vt 0.7295434 0.7158485
vt 0.7051646 0.68388397
vt 0.716664 0.6801777
vt 0.6924574 0.70332
vt 0.6937664 0.71520025
vt 0.71046454 0.73198605
vt 0.7001931 0.7254311
vt 0.7329493 0.73021406
vt 0.7225464 0.733567
vn -0 1 -0.00015892759
vn -0 1 -0.00015892759
vn -0 1 -0.00015892759
vn -0 1 -0.00015892759
vn -0 1 -0.00015892759
vn -0 1 -0.00015892759
vn -0 1 -0.00015892759
vn -0 1 -0.00015892759
vn -0 1 -0.00015892759
vn -0 1 -0.00015892759
vn -0 1 -0.00015892759
vn -0 1 -0.00015892759
vn -0 1 -0.00015892759
vn -0 1 -0.00015892759
vn -0 1 -0.00015892759
vn -0 1 -0.00015892759
vn -0 1 -0.00015892759
vn -0 1 -0.00015892759
vn -0 1 -0.00015892759
vn -0 1 -0.00015892759
vn -0 1 -0.00015892759
vn -0 1 -0.00015892759
vn -0 1 -0.00015892759
vn -0 1 -0.00015892759
vn -0 1 -0.00015892759
vn -0 1 -0.00015892759
vn -0 1 -0.00015892759
vn -0 1 -0.00015892759
vn -0 1 -0.00015892759
vn -0 1 -0.00015892759
vn -0 1 -0.00015892759
vn -0 1 -0.00015892759
vn -0 1 -0.00015892759
vn -0 1 -0.00015892759
vn -0 1 -0.00015892759
vn -0 1 -0.00015892759
vn -0 1 -0.00015892759
vn -0 1 -0.00015892759
vn -0 1 -0.00015892759
vn -0 1 -0.00015892759
vn -0 1 -0.00015892759
vn -0 1 -0.00015892759
vn -0 1 -0.00015892759
vn -0 1 -0.00015892759
vn -0 1 -0.00015892759
vn -0 1 -0.00015892759
vn -0 1 -0.00015892759
vn -0 1 -0.00015892759
vn -0 1 -0.00015892759
vn -0 1 -0.00015892759
vn -0 1 -0.00015892759
vn -0 1 -0.00015892759
vn -0 1 -0.00015892759
vn -0 1 -0.00015892759
vn -0 1 -0.00015892759
vn -0 1 -0.00015892759
vn -0 1 -0.00015892759
vn -0 1 -0.00015892759
vn -0 1 -0.00015892759
vn -0 1 -0.00015892759
vn -0 1 -0.00015892759
vn -0 1 -0.00015892759
vn -0 1 -0.00015892759
vn -0 1 -0.00015892759
vn -0 1 -0.00015892759
vn -0 1 -0.00015892759
vn -0 1 -0.00015892759
vn -0 1 -0.00015892759
vn -0 1 -0.00015892759
vn -0 1 -0.00015892759
vn -0 1 -0.00015892759
vn -0 1 -0.00015892759
vn -0 1 -0.00015892759
vn -0 1 -0.00015892759
vn -0 1 -0.00015892759
vn -0 1 -0.00015892759
vn -0 1 -0.00015892759
vn -0 1 -0.00015892759
vn -0 1 -0.00015892759
vn -0 1 -0.00015892759
vn -0 1 -0.00015892759
vn -0 1 -0.00015892759
vn -0 1 -0.00015892759
vn -0 1 -0.00015892759
vn -0 1 -0.00015892759
vn -0 1 -0.00015892759
vn -0 1 -0.00015892759
vn -0 1 -0.00015892759
vn -0 1 -0.00015892759
vn -0 1 -0.00015892759
vn -0 1 -0.00015892759
vn -0 1 -0.00015892759
vn -0 1 -0.00015892759
vn -0 1 -0.00015892759
vn -0 1 -0.00015892759
vn -0 1 -0.00015892759
vn -0 1 -0.00015892759
vn -0 1 -0.00015892759
vn -0 1 -0.00015892759
vn -0 1 -0.00015892759
vn -0 1 -0.00015892759
vn -0 1 -0.00015892759
vn -0 1 -0.00015892759
vn -0 1 -0.00015892759
vn -0 1 -0.00015892759
vn -0 1 -0.00015892759
vn -0 1 -0.00015892759
vn -0 1 -0.00015892759
vn -0 1 -0.00015892759
vn -0 1 -0.00015892759
vn -0 1 -0.00015892759
vn -0 1 -0.00015892759
vn -0 1 -0.00015892759
vn -0 1 -0.00015892759
vn -0 1 -0.00015892759
vn -0 1 -0.00015892759
vn -0 1 -0.00015892759
vn -0 1 -0.00015892759
vn -0 1 -0.00015892759
vn -0 1 -0.00015892759
vn -0 1 -0.00015892759
vn -0 1 -0.00015892759
vn -0 1 -0.00015892759
vn -0 1 -0.00015892759
vn -0 1 -0.00015892759
vn -0 1 -0.00015892759
vn -0 1 -0.00015892759
vn -0 1 -0.00015892759
vn -0 1 -0.00015892759
vn -0 1 -0.00015892759
vn -0 1 -0.00015892759
vn -0 1 -0.00015892759
vn -0 1 -0.00015892759
vn -0 1 -0.00015892759
vn -0 1 -0.00015892759
vn -0 1 -0.00015892759
vn -0 1 -0.00015892759
vn -0 1 -0.00015892759
vn -0 1 -0.00015892759
vn -0 1 -0.00015892759
vn -0 1 -0.00015892759
vn -0 1 -0.00015892759
g obj_lotus1_0
f 3/3/3 2/2/2 1/1/1
f 4/4/4 1/1/1 2/2/2
f 1/1/1 4/4/4 5/5/5
f 6/6/6 5/5/5 4/4/4
f 5/5/5 6/6/6 7/7/7
f 8/8/8 7/7/7 6/6/6
f 7/7/7 8/8/8 9/9/9
f 10/10/10 9/9/9 8/8/8
f 9/9/9 10/10/10 11/11/11
f 12/12/12 11/11/11 10/10/10
f 11/11/11 12/12/12 13/13/13
f 14/14/14 13/13/13 12/12/12
f 13/13/13 14/14/14 15/15/15
f 16/16/16 15/15/15 14/14/14
f 15/15/15 16/16/16 17/17/17
f 18/18/18 17/17/17 16/16/16
f 21/21/21 20/20/20 19/19/19
f 22/22/22 19/19/19 20/20/20
f 19/19/19 22/22/22 23/23/23
f 24/24/24 23/23/23 22/22/22
f 23/23/23 24/24/24 25/25/25
f 26/26/26 25/25/25 24/24/24
f 25/25/25 26/26/26 27/27/27
f 28/28/28 27/27/27 26/26/26
f 27/27/27 28/28/28 29/29/29
f 30/30/30 29/29/29 28/28/28
f 29/29/29 30/30/30 31/31/31
f 32/32/32 31/31/31 30/30/30
f 31/31/31 32/32/32 33/33/33
f 34/34/34 33/33/33 32/32/32
f 37/37/37 36/36/36 35/35/35
f 36/36/36 38/38/38 35/35/35
f 39/39/39 38/38/38 36/36/36
f 38/38/38 40/40/40 35/35/35
f 41/41/41 40/40/40 38/38/38
f 40/40/40 42/42/42 35/35/35
f 35/35/35 42/42/42 43/43/43
f 44/44/44 40/40/40 41/41/41
f 45/45/45 44/44/44 41/41/41
f 46/46/46 45/45/45 41/41/41
f 47/47/47 45/45/45 46/46/46
f 48/48/48 46/46/46 41/41/41
f 49/49/49 46/46/46 48/48/48
f 52/52/52 51/51/51 50/50/50
f 53/53/53 50/50/50 51/51/51
f 50/50/50 53/53/53 54/54/54
f 55/55/55 54/54/54 53/53/53
f 54/54/54 55/55/55 56/56/56
f 57/57/57 56/56/56 55/55/55
f 56/56/56 57/57/57 58/58/58
f 59/59/59 58/58/58 57/57/57
f 58/58/58 59/59/59 60/60/60
f 61/61/61 60/60/60 59/59/59
f 60/60/60 61/61/61 62/62/62
f 63/63/63 62/62/62 61/61/61
f 62/62/62 63/63/63 64/64/64
f 65/65/65 64/64/64 63/63/63
f 64/64/64 65/65/65 66/66/66
f 67/67/67 66/66/66 65/65/65
f 66/66/66 67/67/67 68/68/68
f 69/69/69 68/68/68 67/67/67
f 68/68/68 69/69/69 70/70/70
f 71/71/71 70/70/70 69/69/69
f 70/70/70 71/71/71 72/72/72
f 73/73/73 72/72/72 71/71/71
f 72/72/72 73/73/73 74/74/74
f 75/75/75 74/74/74 73/73/73
f 74/74/74 75/75/75 76/76/76
f 77/77/77 76/76/76 75/75/75
f 76/76/76 77/77/77 78/78/78
f 79/79/79 78/78/78 77/77/77
f 82/82/82 81/81/81 80/80/80
f 81/81/81 83/83/83 80/80/80
f 80/80/80 83/83/83 84/84/84
f 85/85/85 83/83/83 81/81/81
f 86/86/86 85/85/85 81/81/81
f 87/87/87 86/86/86 81/81/81
f 88/88/88 85/85/85 86/86/86
f 89/89/89 83/83/83 85/85/85
f 90/90/90 83/83/83 89/89/89
f 91/91/91 89/89/89 85/85/85
f 92/92/92 91/91/91 85/85/85
f 93/93/93 89/89/89 91/91/91
f 96/96/96 95/95/95 94/94/94
f 97/97/97 94/94/94 95/95/95
f 94/94/94 97/97/97 98/98/98
f 99/99/99 98/98/98 97/97/97
f 98/98/98 99/99/99 100/100/100
f 101/101/101 100/100/100 99/99/99
f 100/100/100 101/101/101 102/102/102
f 103/103/103 102/102/102 101/101/101
f 102/102/102 103/103/103 104/104/104
f 105/105/105 104/104/104 103/103/103
f 104/104/104 105/105/105 106/106/106
f 107/107/107 106/106/106 105/105/105
f 106/106/106 107/107/107 108/108/108
f 109/109/109 108/108/108 107/107/107
f 108/108/108 109/109/109 110/110/110
f 111/111/111 110/110/110 109/109/109
f 114/114/114 113/113/113 112/112/112
f 115/115/115 112/112/112 113/113/113
f 112/112/112 115/115/115 116/116/116
f 117/117/117 116/116/116 115/115/115
f 116/116/116 117/117/117 118/118/118
f 119/119/119 118/118/118 117/117/117
f 118/118/118 119/119/119 120/120/120
f 121/121/121 120/120/120 119/119/119
f 120/120/120 121/121/121 122/122/122
f 123/123/123 122/122/122 121/121/121
f 122/122/122 123/123/123 124/124/124
f 125/125/125 124/124/124 123/123/123
f 124/124/124 125/125/125 126/126/126
f 127/127/127 126/126/126 125/125/125
f 130/130/130 129/129/129 128/128/128
f 129/129/129 131/131/131 128/128/128
f 132/132/132 131/131/131 129/129/129
f 131/131/131 133/133/133 128/128/128
f 134/134/134 133/133/133 131/131/131
f 133/133/133 135/135/135 128/128/128
f 128/128/128 135/135/135 136/136/136
f 137/137/137 133/133/133 134/134/134
f 138/138/138 137/137/137 134/134/134
f 139/139/139 138/138/138 134/134/134
f 140/140/140 138/138/138 139/139/139
f 141/141/141 139/139/139 134/134/134
f 142/142/142 139/139/139 141/141/141
