g obj_table5
v 0.3001908 0.67209774 -0.22089201
v 0.3001908 -0.03519892 -0.29078227
v 0.3001908 -0.0351989 -0.40617055
v 0.3001908 0.67209774 -0.3635393
v 0.4540048 -0.0351989 -0.40617055
v 0.4540048 -0.03519892 -0.29078218
v 0.4540048 0.67209774 -0.22089194
v 0.4540048 0.67209774 -0.3635393
v 0.3001908 -0.0351989 -0.40617055
v 0.4540048 -0.0351989 -0.40617055
v 0.4540048 0.67209774 -0.3635393
v 0.3001908 0.67209774 -0.3635393
v 0.4540048 0.67209774 -0.22089194
v 0.4540048 -0.03519892 -0.29078218
v 0.3001908 -0.03519892 -0.29078227
v 0.3001908 0.67209774 -0.22089201
v -1.3198458 -0.03519889 -0.40617055
v -1.3198458 -0.03519893 -0.29078242
v -1.3198458 0.6720978 -0.22089201
v -1.3198458 0.67209774 -0.3635394
v -1.4736595 0.67209774 -0.22089201
v -1.4736595 -0.03519893 -0.29078233
v -1.4736595 -0.03519889 -0.40617055
v -1.4736595 0.6720977 -0.36353922
v -1.4736595 0.6720977 -0.36353922
v -1.4736595 -0.03519889 -0.40617055
v -1.3198458 -0.03519889 -0.40617055
v -1.3198458 0.67209774 -0.3635394
v -1.3198458 -0.03519893 -0.29078242
v -1.4736595 -0.03519893 -0.29078233
v -1.4736595 0.67209774 -0.22089201
v -1.3198458 0.6720978 -0.22089201
v 0.3001908 -0.035199035 0.40617016
v 0.3001908 -0.03519905 0.290782
v 0.3001908 0.67209756 0.22089174
v 0.3001908 0.67209756 0.36353913
v 0.4540048 0.67209756 0.22089174
v 0.4540048 -0.03519905 0.290782
v 0.4540048 -0.035199035 0.40617016
v 0.4540048 0.67209756 0.36353913
v 0.4540048 0.67209756 0.36353913
v 0.4540048 -0.035199035 0.40617016
v 0.3001908 -0.035199035 0.40617016
v 0.3001908 0.67209756 0.36353913
v 0.3001908 -0.03519905 0.290782
v 0.4540048 -0.03519905 0.290782
v 0.4540048 0.67209756 0.22089174
v 0.3001908 0.67209756 0.22089174
v -1.3198458 0.67209756 0.22089173
v -1.3198458 -0.03519905 0.29078197
v -1.3198458 -0.035199083 0.40617016
v -1.3198458 0.67209756 0.36353928
v -1.4736595 -0.035199083 0.40617016
v -1.4736595 -0.03519905 0.290782
v -1.4736595 0.67209756 0.22089168
v -1.4736595 0.6720975 0.36353928
v -1.3198458 -0.035199083 0.40617016
v -1.4736595 -0.035199083 0.40617016
v -1.4736595 0.6720975 0.36353928
v -1.3198458 0.67209756 0.36353928
v -1.4736595 0.67209756 0.22089168
v -1.4736595 -0.03519905 0.290782
v -1.3198458 -0.03519905 0.29078197
v -1.3198458 0.67209756 0.22089173
v 0.46144587 0.7530578 -0.37609005
v 0.4285108 0.7530578 -0.42669818
v 0.44787636 0.51605105 -0.44733977
v 0.48377946 0.516051 -0.39304325
v 0.46144587 0.7530578 -0.37609005
v 0.48377946 0.516051 -0.39304325
v 0.48377916 0.5160508 0.384621
v 0.46144557 0.75305784 0.36766782
v 0.41740355 0.75305784 0.42669818
v 0.46144557 0.75305784 0.36766782
v 0.48377916 0.5160508 0.384621
v 0.43653992 0.5160508 0.4473397
v 0.4285108 0.7530578 -0.42669818
v -1.4481658 0.7530578 -0.42669818
v -1.4675313 0.51605105 -0.44733968
v 0.44787636 0.51605105 -0.44733977
v -1.4481658 0.7530578 -0.42669818
v -1.4811009 0.7530578 -0.37608996
v -1.5034345 0.516051 -0.39304325
v -1.4675313 0.51605105 -0.44733968
v -1.4370586 0.75305784 0.42669818
v 0.41740355 0.75305784 0.42669818
v 0.43653992 0.5160508 0.4473397
v -1.4561949 0.5160508 0.4473397
v -1.4811009 0.7530578 -0.37608996
v -1.4811007 0.75305784 0.36766773
v -1.5034341 0.5160508 0.384621
v -1.5034345 0.516051 -0.39304325
v -1.4811007 0.75305784 0.36766773
v -1.4370586 0.75305784 0.42669818
v -1.4561949 0.5160508 0.4473397
v -1.5034341 0.5160508 0.384621
v -0.20646219 0.57197344 0.56602466
v -0.8131939 0.57197344 0.56602466
v -0.8131939 0.69713515 0.5660249
v -0.20646219 0.69713515 0.5660249
v -0.74110556 0.6971352 0.40188223
v -0.74110556 0.5719733 0.4018822
v -0.7411055 0.57197344 0.44540265
v -0.7411055 0.69713503 0.4454028
v -0.88757104 0.69713527 0.40188223
v -0.88757104 0.69713515 0.51998204
v -0.69087374 0.69713515 0.47739157
v -0.88757104 0.5719734 0.5199817
v -0.88757104 0.5719733 0.4018822
v -0.8131939 0.69713515 0.5660249
v -0.3287828 0.69713515 0.47739157
v -0.20646219 0.69713515 0.5660249
v -0.13208516 0.69713515 0.51998204
v -0.27855116 0.69713503 0.44540277
v -0.27855122 0.6971352 0.40188223
v -0.13208516 0.69713527 0.40188223
v -0.13208516 0.5719733 0.4018822
v -0.13208516 0.5719734 0.5199817
v -0.27855116 0.5719733 0.4018822
v -0.27855122 0.6971352 0.40188223
v -0.27855116 0.69713503 0.44540277
v -0.27855116 0.57197344 0.44540265
v -0.69087374 0.5719734 0.47739145
v -0.32878283 0.5719734 0.47739145
v -0.3287828 0.69713515 0.47739157
v -0.69087374 0.69713515 0.47739157
v -0.8131939 0.69713515 0.5660249
v -0.8131939 0.57197344 0.56602466
v -0.88757104 0.5719734 0.5199817
v -0.88757104 0.69713515 0.51998204
v -0.20646219 0.57197344 0.56602466
v -0.20646219 0.69713515 0.5660249
v -0.13208516 0.69713515 0.51998204
v -0.13208516 0.5719734 0.5199817
v -0.7411055 0.69713503 0.4454028
v -0.7411055 0.57197344 0.44540265
v -0.69087374 0.5719734 0.47739145
v -0.69087374 0.69713515 0.47739157
v -0.27855116 0.57197344 0.44540265
v -0.27855116 0.69713503 0.44540277
v -0.3287828 0.69713515 0.47739157
v -0.32878283 0.5719734 0.47739145
v -0.7871439 0.57197344 -0.5782131
v -0.1804122 0.57197344 -0.57821304
v -0.1804122 0.69713503 -0.5782133
v -0.7871439 0.69713503 -0.57821333
v -0.25250053 0.69713515 -0.41407055
v -0.25250053 0.5719734 -0.41407055
v -0.2525006 0.57197344 -0.457591
v -0.2525006 0.697135 -0.45759115
v -0.10603509 0.6971352 -0.41407046
v -0.10603509 0.69713503 -0.5321704
v -0.30273238 0.69713503 -0.48957992
v -0.10603509 0.5719734 -0.5321701
v -0.10603509 0.5719734 -0.41407046
v -0.1804122 0.69713503 -0.5782133
v -0.66482335 0.69713503 -0.48957998
v -0.7871439 0.69713503 -0.57821333
v -0.86152095 0.69713503 -0.5321705
v -0.715055 0.697135 -0.45759115
v -0.715055 0.69713515 -0.41407055
v -0.86152095 0.6971352 -0.41407064
v -0.86152095 0.5719734 -0.41407064
v -0.86152095 0.5719734 -0.5321702
v -0.715055 0.5719734 -0.41407055
v -0.715055 0.69713515 -0.41407055
v -0.715055 0.697135 -0.45759115
v -0.715055 0.57197344 -0.457591
v -0.30273238 0.5719734 -0.4895798
v -0.6648233 0.5719734 -0.4895799
v -0.66482335 0.69713503 -0.48957998
v -0.30273238 0.69713503 -0.48957992
v -0.1804122 0.69713503 -0.5782133
v -0.1804122 0.57197344 -0.57821304
v -0.10603509 0.5719734 -0.5321701
v -0.10603509 0.69713503 -0.5321704
v -0.7871439 0.57197344 -0.5782131
v -0.7871439 0.69713503 -0.57821333
v -0.86152095 0.69713503 -0.5321705
v -0.86152095 0.5719734 -0.5321702
v -0.2525006 0.697135 -0.45759115
v -0.2525006 0.57197344 -0.457591
v -0.30273238 0.5719734 -0.4895798
v -0.30273238 0.69713503 -0.48957992
v -0.715055 0.57197344 -0.457591
v -0.715055 0.697135 -0.45759115
v -0.66482335 0.69713503 -0.48957998
v -0.6648233 0.5719734 -0.4895799
v 0.46144587 0.7530578 -0.37609005
v -0.54712176 0.7530578 6.2830336E-06
v 0.4285108 0.7530578 -0.42669818
v 0.46144557 0.75305784 0.36766782
v -1.4481658 0.7530578 -0.42669818
v 0.41740355 0.75305784 0.42669818
v -1.4811009 0.7530578 -0.37608996
v -1.4370586 0.75305784 0.42669818
v -1.4811007 0.75305784 0.36766773
vt 0.08279245 0.79498243
vt 0.08279245 0.7553344
vt 0.08279245 0.7553344
vt 0.08279245 0.79498243
vt 0.06329634 0.7553344
vt 0.06329634 0.7553344
vt 0.06329634 0.79498243
vt 0.06329634 0.79498243
vt 0.08279245 0.7553344
vt 0.06329634 0.7553344
vt 0.06329634 0.79498243
vt 0.08279245 0.79498243
vt 0.06329634 0.79498243
vt 0.06329634 0.7553344
vt 0.08279245 0.7553344
vt 0.08279245 0.79498243
vt 0.08279245 0.7553344
vt 0.08279245 0.7553344
vt 0.08279245 0.79498243
vt 0.08279245 0.79498243
vt 0.06329634 0.79498243
vt 0.06329634 0.7553344
vt 0.06329634 0.7553344
vt 0.06329634 0.79498243
vt 0.06329634 0.79498243
vt 0.06329634 0.7553344
vt 0.08279245 0.7553344
vt 0.08279245 0.79498243
vt 0.08279245 0.7553344
vt 0.06329634 0.7553344
vt 0.06329634 0.79498243
vt 0.08279245 0.79498243
vt 0.08279245 0.7553344
vt 0.08279245 0.7553344
vt 0.08279245 0.79498243
vt 0.08279245 0.79498243
vt 0.06329634 0.79498243
vt 0.06329634 0.7553344
vt 0.06329634 0.7553344
vt 0.06329634 0.79498243
vt 0.06329634 0.79498243
vt 0.06329634 0.7553344
vt 0.08279245 0.7553344
vt 0.08279245 0.79498243
vt 0.08279245 0.7553344
vt 0.06329634 0.7553344
vt 0.06329634 0.79498243
vt 0.08279245 0.79498243
vt 0.08279245 0.79498243
vt 0.08279245 0.7553344
vt 0.08279245 0.7553344
vt 0.08279245 0.79498243
vt 0.06329634 0.7553344
vt 0.06329634 0.7553344
vt 0.06329634 0.79498243
vt 0.06329634 0.79498243
vt 0.08279245 0.7553344
vt 0.06329634 0.7553344
vt 0.06329634 0.79498243
vt 0.08279245 0.79498243
vt 0.06329634 0.79498243
vt 0.06329634 0.7553344
vt 0.08279245 0.7553344
vt 0.08279245 0.79498243
vt 0.006781048 0.7595273
vt 0.011680958 0.7558312
vt 0.009572522 0.7527093
vt 0.0025346556 0.7579107
vt 0.006781048 0.7595273
vt 0.0025346556 0.7579107
vt 0.0025346556 0.7893224
vt 0.006781048 0.7877352
vt 0.011464873 0.7916618
vt 0.006781048 0.7877352
vt 0.0025346556 0.7893224
vt 0.009329876 0.7949088
vt 0.011680958 0.7558312
vt 0.049057215 0.7558312
vt 0.05120189 0.7527093
vt 0.009572522 0.7527093
vt 0.049057215 0.7558312
vt 0.052871156 0.7596949
vt 0.058387633 0.75810075
vt 0.05120189 0.7527093
vt 0.04884221 0.7916618
vt 0.011464873 0.7916618
vt 0.009329876 0.7949088
vt 0.050948534 0.7949088
vt 0.052871156 0.7596949
vt 0.053637393 0.7879012
vt 0.058387633 0.7895138
vt 0.058387633 0.75810075
vt 0.053637393 0.7879012
vt 0.04884221 0.7916618
vt 0.050948534 0.7949088
vt 0.058387633 0.7895138
vt 0.028283533 0.7972327
vt 0.0050013447 0.7972327
vt 0.0050013447 0.7972327
vt 0.028283533 0.7972327
vt 0.0077675954 0.80535334
vt 0.0077675954 0.80535334
vt 0.007767602 0.80320024
vt 0.007767602 0.80320024
vt 0.0021472648 0.80535334
vt 0.0021472648 0.79951054
vt 0.009695149 0.8016177
vt 0.0021472648 0.7995106
vt 0.0021472648 0.80535334
vt 0.0050013447 0.7972327
vt 0.023589708 0.8016177
vt 0.028283533 0.7972327
vt 0.031137612 0.79951054
vt 0.025517253 0.80320024
vt 0.025517246 0.80535334
vt 0.031137612 0.80535334
vt 0.031137612 0.80535334
vt 0.031137612 0.7995106
vt 0.025517253 0.80535334
vt 0.025517246 0.80535334
vt 0.025517253 0.80320024
vt 0.025517253 0.80320024
vt 0.009695149 0.8016177
vt 0.023589708 0.8016177
vt 0.023589708 0.8016177
vt 0.009695149 0.8016177
vt 0.0050013447 0.7972327
vt 0.0050013447 0.7972327
vt 0.0021472648 0.7995106
vt 0.0021472648 0.79951054
vt 0.028283533 0.7972327
vt 0.028283533 0.7972327
vt 0.031137612 0.79951054
vt 0.031137612 0.7995106
vt 0.007767602 0.80320024
vt 0.007767602 0.80320024
vt 0.009695149 0.8016177
vt 0.009695149 0.8016177
vt 0.025517253 0.80320024
vt 0.025517253 0.80320024
vt 0.023589708 0.8016177
vt 0.023589708 0.8016177
vt 0.028283533 0.7972327
vt 0.0050013447 0.7972327
vt 0.0050013447 0.7972327
vt 0.028283533 0.7972327
vt 0.0077675954 0.80535334
vt 0.0077675954 0.80535334
vt 0.007767602 0.80320024
vt 0.007767602 0.80320024
vt 0.0021472648 0.80535334
vt 0.0021472648 0.79951054
vt 0.009695149 0.8016177
vt 0.0021472648 0.7995106
vt 0.0021472648 0.80535334
vt 0.0050013447 0.7972327
vt 0.023589708 0.8016177
vt 0.028283533 0.7972327
vt 0.031137612 0.79951054
vt 0.025517253 0.80320024
vt 0.025517246 0.80535334
vt 0.031137612 0.80535334
vt 0.031137612 0.80535334
vt 0.031137612 0.7995106
vt 0.025517253 0.80535334
vt 0.025517246 0.80535334
vt 0.025517253 0.80320024
vt 0.025517253 0.80320024
vt 0.009695149 0.8016177
vt 0.023589708 0.8016177
vt 0.023589708 0.8016177
vt 0.009695149 0.8016177
vt 0.0050013447 0.7972327
vt 0.0050013447 0.7972327
vt 0.0021472648 0.7995106
vt 0.0021472648 0.79951054
vt 0.028283533 0.7972327
vt 0.028283533 0.7972327
vt 0.031137612 0.79951054
vt 0.031137612 0.7995106
vt 0.007767602 0.80320024
vt 0.007767602 0.80320024
vt 0.009695149 0.8016177
vt 0.009695149 0.8016177
vt 0.025517253 0.80320024
vt 0.025517253 0.80320024
vt 0.023589708 0.8016177
vt 0.023589708 0.8016177
vt 0.006781048 0.7595273
vt 0.030260243 0.7737106
vt 0.011680958 0.7558312
vt 0.006781048 0.7877352
vt 0.049057215 0.7558312
vt 0.011464873 0.7916618
vt 0.052871156 0.7596949
vt 0.04884221 0.7916618
vt 0.053637393 0.7879012
vn -1 0 0
vn -1 0 0
vn -1 0 0
vn -1 0 0
vn 1 0 0
vn 1 0 0
vn 1 0 0
vn 1 0 0
vn -0 0.060164306 -0.99818844
vn -0 0.060164306 -0.99818844
vn -0 0.060164306 -0.99818844
vn -0 0.060164306 -0.99818844
vn -5.024583E-07 -0.09833432 0.9951534
vn -5.024583E-07 -0.09833432 0.9951534
vn -5.024583E-07 -0.09833432 0.9951534
vn -5.024583E-07 -0.09833432 0.9951534
vn 1 0 0
vn 1 0 0
vn 1 0 0
vn 1 0 0
vn -1 0 0
vn -1 0 0
vn -1 0 0
vn -1 0 0
vn -5.1108975E-07 0.060164317 -0.99818844
vn -5.1108975E-07 0.06016432 -0.99818844
vn -5.1108975E-07 0.06016432 -0.99818844
vn -5.110897E-07 0.06016432 -0.99818844
vn 2.7246003E-07 -0.09833445 0.9951534
vn 2.7246003E-07 -0.09833445 0.9951534
vn 2.7246003E-07 -0.09833445 0.9951534
vn 2.7246003E-07 -0.098334454 0.9951534
vn -1 0 0
vn -1 0 0
vn -1 0 0
vn -1 0 0
vn 1 0 0
vn 1 0 0
vn 1 0 0
vn 1 0 0
vn -0 0.06016404 0.99818844
vn -0 0.06016404 0.99818844
vn -0 0.06016404 0.99818844
vn -0 0.06016404 0.99818844
vn -0 -0.09833431 -0.9951534
vn -0 -0.09833431 -0.9951534
vn -0 -0.09833431 -0.9951534
vn -0 -0.09833431 -0.9951534
vn 1 0 0
vn 1 0 0
vn 1 0 0
vn 1 0 0
vn -1 0 0
vn -1 0 0
vn -1 0 0
vn -1 0 0
vn -0 0.060163844 0.99818856
vn -0 0.060163844 0.99818856
vn -0 0.060163844 0.99818856
vn -0 0.06016384 0.99818856
vn -0 -0.09833437 -0.9951534
vn -0 -0.09833437 -0.9951534
vn -0 -0.09833437 -0.9951534
vn -0 -0.09833437 -0.9951534
vn 0.83039767 0.11626775 -0.5449051
vn 0.83039767 0.11626776 -0.5449051
vn 0.83039767 0.11626775 -0.5449051
vn 0.83039767 0.11626775 -0.5449052
vn 0.9955895 0.09381623 4.0639026E-07
vn 0.9955895 0.09381623 4.0639026E-07
vn 0.9955895 0.09381621 4.0639026E-07
vn 0.9955895 0.09381622 4.063902E-07
vn 0.7946229 0.11677021 0.59576774
vn 0.79462296 0.1167702 0.5957677
vn 0.7946229 0.11677021 0.59576774
vn 0.79462296 0.1167702 0.5957677
vn -0 0.08676418 -0.9962289
vn -0 0.08676418 -0.9962289
vn -0 0.08676418 -0.9962289
vn -0 0.08676418 -0.9962289
vn -0.8303965 0.11626778 -0.5449068
vn -0.8303965 0.11626777 -0.5449068
vn -0.8303965 0.11626777 -0.5449068
vn -0.8303965 0.11626778 -0.54490674
vn -0 0.08676407 0.9962289
vn -0 0.08676407 0.9962289
vn -0 0.086764045 0.9962289
vn -0 0.086764045 0.9962289
vn -0.9955896 0.0938159 5.0705336E-07
vn -0.9955896 0.0938159 5.0705336E-07
vn -0.9955896 0.09381589 5.070534E-07
vn -0.9955896 0.09381589 5.070534E-07
vn -0.7946229 0.11676991 0.5957678
vn -0.7946229 0.11676991 0.5957678
vn -0.7946229 0.11676991 0.5957678
vn -0.7946229 0.11676991 0.5957678
vn -0 -1.8414902E-06 1
vn -0 -1.8414902E-06 1
vn -0 -1.8414902E-06 1
vn -0 -1.8414902E-06 1
vn 0.70710605 0.70710754 0
vn 1 0 -1.7653286E-06
vn 1 0 -1.7653286E-06
vn 0.35434526 0.9351147 0
vn -0.7071062 0.7071073 1.3445245E-06
vn -0.59440726 0.8041642 5.075062E-07
vn -0 1 -2.3556069E-07
vn -1 0 0
vn -1 0 0
vn -1.2002046E-07 1 -5.5429564E-07
vn -0 1 -2.3556076E-07
vn 1.2002045E-07 1 -5.5429643E-07
vn 0.59440714 0.80416423 5.075074E-07
vn -4.1641795E-07 1 5.6529564E-07
vn -1.0086446E-06 1 1.9014449E-06
vn 0.7071062 0.7071073 1.3445255E-06
vn 1 0 0
vn 1 0 0
vn -1 -1.534577E-07 4.4133233E-07
vn -1 -1.5345772E-07 4.4133233E-07
vn -1 -1.534577E-07 4.4133233E-07
vn -1 -1.5345773E-07 4.4133236E-07
vn -0 9.2074447E-07 -1
vn -0 9.207446E-07 -1
vn -0 9.207446E-07 -1
vn -0 9.2074447E-07 -1
vn -0.526354 -1.8239912E-06 0.8502655
vn -0.526354 -1.8239912E-06 0.8502655
vn -0.526354 -1.8239912E-06 0.8502655
vn -0.526354 -1.8239912E-06 0.8502655
vn 0.5263544 -1.819576E-06 0.8502653
vn 0.52635443 -1.8195764E-06 0.8502653
vn 0.52635443 -1.8195764E-06 0.8502653
vn 0.52635443 -1.8195761E-06 0.8502653
vn 0.53715175 9.0496366E-07 -0.84348565
vn 0.5371517 9.0496354E-07 -0.84348565
vn 0.5371517 9.0496354E-07 -0.84348565
vn 0.5371517 9.0496366E-07 -0.84348565
vn -0.53715295 8.5955463E-07 -0.84348476
vn -0.53715295 8.5955475E-07 -0.84348476
vn -0.53715295 8.5955475E-07 -0.84348476
vn -0.537153 8.5955486E-07 -0.8434849
vn 1.2662599E-07 -1.841491E-06 -1
vn 1.2662599E-07 -1.841491E-06 -1
vn 1.2662599E-07 -1.841491E-06 -1
vn 1.2662599E-07 -1.841491E-06 -1
vn -0.70710576 0.7071077 0
vn -1 0 1.7653281E-06
vn -1 0 1.7653281E-06
vn -0.3543453 0.9351147 0
vn 0.70710623 0.70710725 -1.3445228E-06
vn 0.59440726 0.8041642 -5.075048E-07
vn -0 1 2.3556069E-07
vn 1 0 0
vn 1 0 0
vn 1.2002054E-07 1 5.5429547E-07
vn -0 1 2.3556078E-07
vn -1.2002046E-07 1 5.5429604E-07
vn -0.59440714 0.80416423 -5.0750606E-07
vn 4.1641835E-07 1 -5.65295E-07
vn 1.0086453E-06 1 -1.9014426E-06
vn -0.70710605 0.70710754 -1.3445244E-06
vn -1 0 0
vn -1 0 0
vn 1 0 0
vn 1 0 0
vn 1 0 0
vn 1 0 0
vn -2.1217878E-07 9.20745E-07 1
vn -2.1217876E-07 9.20745E-07 1
vn -2.1217876E-07 9.20745E-07 1
vn -2.1217878E-07 9.20745E-07 1
vn 0.526354 -1.8195761E-06 -0.8502655
vn 0.526354 -1.819576E-06 -0.8502655
vn 0.526354 -1.819576E-06 -0.8502655
vn 0.526354 -1.819576E-06 -0.8502655
vn -0.52635443 -1.8195774E-06 -0.8502653
vn -0.52635443 -1.8195774E-06 -0.8502653
vn -0.52635443 -1.8195774E-06 -0.8502653
vn -0.52635443 -1.8195775E-06 -0.8502653
vn -0.5371517 9.082078E-07 0.84348565
vn -0.5371517 9.082078E-07 0.84348565
vn -0.5371517 9.082079E-07 0.8434857
vn -0.5371517 9.082078E-07 0.84348565
vn 0.5371535 1.0703886E-06 0.8434845
vn 0.5371535 1.0703886E-06 0.8434845
vn 0.5371535 1.0703886E-06 0.8434845
vn 0.5371535 1.0703886E-06 0.8434845
vn -0 1 0
vn -0 1 0
vn -0 1 0
vn -0 1 0
vn -0 1 0
vn -0 1 0
vn -0 1 0
vn -0 1 0
vn -0 1 0
g obj_table5_0
f 3/3/3 2/2/2 1/1/1
f 4/4/4 3/3/3 1/1/1
f 7/7/7 6/6/6 5/5/5
f 8/8/8 7/7/7 5/5/5
f 11/11/11 10/10/10 9/9/9
f 12/12/12 11/11/11 9/9/9
f 15/15/15 14/14/14 13/13/13
f 16/16/16 15/15/15 13/13/13
f 19/19/19 18/18/18 17/17/17
f 20/20/20 19/19/19 17/17/17
f 23/23/23 22/22/22 21/21/21
f 24/24/24 23/23/23 21/21/21
f 27/27/27 26/26/26 25/25/25
f 28/28/28 27/27/27 25/25/25
f 31/31/31 30/30/30 29/29/29
f 32/32/32 31/31/31 29/29/29
f 35/35/35 34/34/34 33/33/33
f 36/36/36 35/35/35 33/33/33
f 39/39/39 38/38/38 37/37/37
f 40/40/40 39/39/39 37/37/37
f 43/43/43 42/42/42 41/41/41
f 44/44/44 43/43/43 41/41/41
f 47/47/47 46/46/46 45/45/45
f 48/48/48 47/47/47 45/45/45
f 51/51/51 50/50/50 49/49/49
f 52/52/52 51/51/51 49/49/49
f 55/55/55 54/54/54 53/53/53
f 56/56/56 55/55/55 53/53/53
f 59/59/59 58/58/58 57/57/57
f 60/60/60 59/59/59 57/57/57
f 63/63/63 62/62/62 61/61/61
f 64/64/64 63/63/63 61/61/61
f 67/67/67 66/66/66 65/65/65
f 68/68/68 67/67/67 65/65/65
f 71/71/71 70/70/70 69/69/69
f 72/72/72 71/71/71 69/69/69
f 75/75/75 74/74/74 73/73/73
f 76/76/76 75/75/75 73/73/73
f 79/79/79 78/78/78 77/77/77
f 80/80/80 79/79/79 77/77/77
f 83/83/83 82/82/82 81/81/81
f 84/84/84 83/83/83 81/81/81
f 87/87/87 86/86/86 85/85/85
f 88/88/88 87/87/87 85/85/85
f 91/91/91 90/90/90 89/89/89
f 92/92/92 91/91/91 89/89/89
f 95/95/95 94/94/94 93/93/93
f 96/96/96 95/95/95 93/93/93
f 99/99/99 98/98/98 97/97/97
f 100/100/100 99/99/99 97/97/97
f 103/103/103 102/102/102 101/101/101
f 104/104/104 103/103/103 101/101/101
f 104/104/104 101/101/101 105/105/105
f 106/106/106 104/104/104 105/105/105
f 107/107/107 104/104/104 106/106/106
f 108/108/108 106/106/106 105/105/105
f 109/109/109 108/108/108 105/105/105
f 110/110/110 107/107/107 106/106/106
f 111/111/111 107/107/107 110/110/110
f 112/112/112 111/111/111 110/110/110
f 111/111/111 112/112/112 113/113/113
f 114/114/114 111/111/111 113/113/113
f 115/115/115 114/114/114 113/113/113
f 116/116/116 115/115/115 113/113/113
f 116/116/116 113/113/113 117/117/117
f 113/113/113 118/118/118 117/117/117
f 121/121/121 120/120/120 119/119/119
f 122/122/122 121/121/121 119/119/119
f 125/125/125 124/124/124 123/123/123
f 126/126/126 125/125/125 123/123/123
f 129/129/129 128/128/128 127/127/127
f 130/130/130 129/129/129 127/127/127
f 133/133/133 132/132/132 131/131/131
f 134/134/134 133/133/133 131/131/131
f 137/137/137 136/136/136 135/135/135
f 138/138/138 137/137/137 135/135/135
f 141/141/141 140/140/140 139/139/139
f 142/142/142 141/141/141 139/139/139
f 145/145/145 144/144/144 143/143/143
f 146/146/146 145/145/145 143/143/143
f 149/149/149 148/148/148 147/147/147
f 150/150/150 149/149/149 147/147/147
f 150/150/150 147/147/147 151/151/151
f 152/152/152 150/150/150 151/151/151
f 153/153/153 150/150/150 152/152/152
f 154/154/154 152/152/152 151/151/151
f 155/155/155 154/154/154 151/151/151
f 156/156/156 153/153/153 152/152/152
f 157/157/157 153/153/153 156/156/156
f 158/158/158 157/157/157 156/156/156
f 157/157/157 158/158/158 159/159/159
f 160/160/160 157/157/157 159/159/159
f 161/161/161 160/160/160 159/159/159
f 162/162/162 161/161/161 159/159/159
f 162/162/162 159/159/159 163/163/163
f 159/159/159 164/164/164 163/163/163
f 167/167/167 166/166/166 165/165/165
f 168/168/168 167/167/167 165/165/165
f 171/171/171 170/170/170 169/169/169
f 172/172/172 171/171/171 169/169/169
f 175/175/175 174/174/174 173/173/173
f 176/176/176 175/175/175 173/173/173
f 179/179/179 178/178/178 177/177/177
f 180/180/180 179/179/179 177/177/177
f 183/183/183 182/182/182 181/181/181
f 184/184/184 183/183/183 181/181/181
f 187/187/187 186/186/186 185/185/185
f 188/188/188 187/187/187 185/185/185
f 191/191/191 190/190/190 189/189/189
f 189/189/189 190/190/190 192/192/192
f 193/193/193 190/190/190 191/191/191
f 190/190/190 194/194/194 192/192/192
f 190/190/190 193/193/193 195/195/195
f 190/190/190 196/196/196 194/194/194
f 195/195/195 197/197/197 190/190/190
f 190/190/190 197/197/197 196/196/196
