g obj_tv_thumb
v -0.00027273942 -0.01121927 0.004003565
v -0.00018527072 0.34644136 -0.12363552
v 0.3746281 0.34655353 -0.12367551
v 0.37460628 -0.010770748 0.0038435897
v -0.37457427 0.3465142 -0.12366137
v 0.3746172 -0.34644136 0.12363517
v -0.37459612 -0.010928092 0.0038997126
v -0.00022967732 -0.34655353 0.1236752
v -0.37458536 -0.3464807 0.12364931
vt 0.49963313 0.48411328
vt 0.49974772 0.9905678
vt 0.9907386 0.9907266
vt 0.99070984 0.48474833
vt 0.0093129035 0.99067056
vt 0.990724 0.00943174
vt 0.009284239 0.48452544
vt 0.49968952 0.00927309
vt 0.009298337 0.009375815
vn 2.4207569E-07 0.33611074 0.9418224
vn -1.8903194E-07 0.33611032 0.94182265
vn -1.8903192E-07 0.3361103 0.94182265
vn -1.8903194E-07 0.3361103 0.94182265
vn 2.9018045E-07 0.33611012 0.94182277
vn -0 0.33611056 0.9418225
vn 2.420757E-07 0.33611074 0.9418224
vn 2.420757E-07 0.33611077 0.9418224
vn 2.4207574E-07 0.33611077 0.9418225
g obj_tv_thumb_0
f 3/3/3 2/2/2 1/1/1
f 4/4/4 3/3/3 1/1/1
f 2/2/2 5/5/5 1/1/1
f 6/6/6 4/4/4 1/1/1
f 5/5/5 7/7/7 1/1/1
f 8/8/8 6/6/6 1/1/1
f 7/7/7 9/9/9 1/1/1
f 9/9/9 8/8/8 1/1/1
