g obj_trainingDummy1
v 0.20005643 0.50847554 -0.2597839
v 0.4663011 0.49780044 -0.28075105
v 0.4663011 0.50878644 -0.22838439
v -0.1890608 0.50847554 -0.259784
v -0.46402422 0.50878644 -0.22838436
v -0.46402422 0.4978005 -0.28075117
v 0.28868163 0.48001713 0.033420537
v -0.2939192 0.48001713 0.033420537
v 0.00030715714 0.8706187 0.15486696
v 0.28868163 0.48001713 0.033420537
v 0.00030715714 0.8706187 0.15486696
v 0.21661997 0.8896046 0.084010065
v 0.00030715714 0.8706187 0.15486696
v -0.2939192 0.48001713 0.033420537
v -0.21106544 0.8896045 0.08401003
v -0.12546086 0.79654014 -0.34495643
v -0.18383771 0.86739266 -0.3105744
v -0.18383771 0.79654014 -0.34495643
v -0.12546077 0.8673929 -0.3105745
v 0.16875581 0.7965399 -0.34495634
v 0.11037903 0.8673932 -0.31057444
v 0.110379115 0.7965399 -0.34495646
v 0.16875581 0.8673929 -0.31057438
v -0.1158088 0.9731836 -0.25323108
v 0.15808108 0.5912387 -0.41535708
v 0.10186788 0.9731836 -0.25323105
v -0.16336475 0.5912387 -0.41535723
v -0.21106544 0.9503235 -0.16099201
v -0.16336475 0.5912387 -0.41535723
v -0.1158088 0.9731836 -0.25323108
v -0.2939192 0.5637669 -0.30450863
v 0.2886817 0.5637669 -0.3045085
v 0.10186788 0.9731836 -0.25323105
v 0.15808108 0.5912387 -0.41535708
v 0.21661997 0.95032364 -0.16099201
v -0.21106544 0.9503235 -0.16099201
v -0.2939192 0.48001713 0.033420537
v -0.2939192 0.5637669 -0.30450863
v -0.21106544 0.8896045 0.08401003
v 0.21661997 0.95032364 -0.16099201
v 0.28868163 0.48001713 0.033420537
v 0.21661997 0.8896046 0.084010065
v 0.2886817 0.5637669 -0.3045085
v 0.00030715714 0.8706187 0.15486696
v 0.21661997 0.95032364 -0.16099201
v 0.21661997 0.8896046 0.084010065
v 0.10186788 0.9731836 -0.25323105
v -0.1158088 0.9731836 -0.25323108
v -0.21106544 0.9503235 -0.16099201
v -0.21106544 0.8896045 0.08401003
v 0.46630126 0.4850403 -0.1170403
v 0.49689618 0.41328952 -0.314775
v 0.49689126 0.39513233 -0.15804312
v 0.4663011 0.49780044 -0.28075105
v 0.4663011 0.50878644 -0.22838439
v 0.4663011 0.50878644 -0.22838439
v 0.20005643 0.47750986 -0.114587694
v 0.20005643 0.50847554 -0.2597839
v 0.46630126 0.4850403 -0.1170403
v 0.49689618 0.41328952 -0.314775
v 0.20005643 0.50847554 -0.2597839
v 0.23262443 0.40462315 -0.3024649
v 0.4663011 0.49780044 -0.28075105
v -0.46402422 0.4850403 -0.117040396
v -0.49462405 0.3951324 -0.15804328
v -0.49461913 0.41328955 -0.3147752
v -0.46402422 0.4978005 -0.28075117
v -0.46402422 0.50878644 -0.22838436
v -0.46402422 0.50878644 -0.22838436
v -0.1890608 0.47750986 -0.11458778
v -0.46402422 0.4850403 -0.117040396
v -0.1890608 0.50847554 -0.259784
v -0.49461913 0.41328955 -0.3147752
v -0.1890608 0.50847554 -0.259784
v -0.46402422 0.4978005 -0.28075117
v -0.22162873 0.40462315 -0.30246496
v -0.12568547 0.58703655 -0.3725645
v 0.15741865 0.30198607 -0.49672323
v 0.11086112 0.5870365 -0.3725644
v -0.16283233 0.30198607 -0.4967234
v -0.22919975 0.5601645 -0.26535204
v -0.16283233 0.30198607 -0.4967234
v -0.12568547 0.58703655 -0.3725645
v -0.29290164 0.2725525 -0.37855306
v 0.2875337 0.2725525 -0.37855297
v 0.11086112 0.5870365 -0.3725644
v 0.15741865 0.30198607 -0.49672323
v 0.23556082 0.5601644 -0.26535198
v -0.22919975 0.5601645 -0.26535204
v -0.2929017 0.18282202 -0.018303024
v -0.29290164 0.2725525 -0.37855306
v -0.22919975 0.48878857 0.019421427
v 0.23556082 0.5601644 -0.26535198
v 0.2875337 0.18282187 -0.018302985
v 0.2355609 0.48878857 0.019421408
v 0.2875337 0.2725525 -0.37855297
v 0.029984396 0.6768173 -0.40257436
v -0.05041949 0.7640559 -0.35799226
v -0.05041949 0.6768173 -0.40257448
v 0.029984396 0.7640559 -0.3579922
v 0.12611154 -0.016639486 -0.4272767
v -0.097374335 0.25334805 -0.32866663
v -0.12930107 -0.016639486 -0.42727685
v 0.09418513 0.25334802 -0.32866642
v -0.12930107 -0.016639486 -0.42727685
v -0.11542846 0.21007398 -0.16716506
v -0.15337327 -0.016639408 -0.19681866
v -0.097374335 0.25334805 -0.32866663
v 0.11223933 0.21007392 -0.16716501
v 0.12611154 -0.016639486 -0.4272767
v 0.15018392 -0.016639408 -0.19681859
v 0.09418513 0.25334802 -0.32866642
v 0.2875337 0.2725525 -0.37855297
v -0.2929017 0.18282202 -0.018303024
v 0.2875337 0.18282187 -0.018302985
v -0.16283233 0.30198607 -0.4967234
v 0.15741865 0.30198607 -0.49672323
v -0.29290164 0.2725525 -0.37855306
v 0.23556082 0.5601644 -0.26535198
v -0.12568547 0.58703655 -0.3725645
v 0.11086112 0.5870365 -0.3725644
v -0.22919975 0.48878857 0.019421427
v 0.2355609 0.48878857 0.019421408
v -0.22919975 0.5601645 -0.26535204
v 0.2875337 0.18282187 -0.018302985
v -0.22919975 0.48878857 0.019421427
v 0.2355609 0.48878857 0.019421408
v -0.2929017 0.18282202 -0.018303024
v 0.2886817 0.5637669 -0.3045085
v -0.2939192 0.48001713 0.033420537
v 0.28868163 0.48001713 0.033420537
v -0.16336475 0.5912387 -0.41535723
v 0.15808108 0.5912387 -0.41535708
v -0.2939192 0.5637669 -0.30450863
v 0.23262443 0.40462315 -0.3024649
v 0.49689126 0.39513233 -0.15804312
v 0.49689618 0.41328952 -0.314775
v 0.2326146 0.38646597 -0.14573269
v -0.49461913 0.41328955 -0.3147752
v -0.22163856 0.38646597 -0.14573278
v -0.22162873 0.40462315 -0.30246496
v -0.49462405 0.3951324 -0.15804328
vt 0.95410204 0.10529455
vt 0.9824457 0.10661458
vt 0.9824457 0.10458418
vt 0.95410204 0.10529455
vt 0.9824457 0.10458418
vt 0.9824457 0.10661458
vt 0.90593505 0.09939714
vt 0.9482696 0.09939714
vt 0.9839166 0.15120715
vt 0.90593505 0.09939714
vt 0.9839166 0.15120715
vt 0.90593505 0.1277819
vt 0.9839166 0.15120715
vt 0.9482696 0.09939714
vt 0.9943237 0.14753568
vt 0.9472776 0.15214892
vt 0.94409937 0.14277607
vt 0.94409937 0.15214892
vt 0.9472776 0.14277607
vt 0.9473548 0.15214892
vt 0.94417644 0.14277607
vt 0.94417644 0.15214892
vt 0.9473548 0.14277607
vt 0.9332456 0.1277819
vt 0.9202766 0.09939714
vt 0.9202766 0.1277819
vt 0.9332456 0.09939714
vt 0.94529444 0.1277819
vt 0.9341647 0.09939714
vt 0.9341647 0.1277819
vt 0.94529444 0.09939714
vt 0.908634 0.09939714
vt 0.9193701 0.1277819
vt 0.9193701 0.09939714
vt 0.908634 0.1277819
vt 0.9456496 0.1277819
vt 0.9482696 0.09939714
vt 0.9456496 0.09939714
vt 0.9482696 0.1277819
vt 0.90829134 0.1277819
vt 0.90593505 0.09939714
vt 0.90593505 0.1277819
vt 0.90829134 0.09939714
vt 0.9839166 0.15120715
vt 0.9732662 0.13490483
vt 0.9732662 0.14753568
vt 0.9789161 0.1301496
vt 0.98963374 0.1301496
vt 0.9943237 0.13490483
vt 0.9943237 0.14753568
vt 0.97079355 0.13299315
vt 0.95545876 0.15129541
vt 0.97079355 0.15129541
vt 0.95545876 0.13825215
vt 0.9601947 0.13299315
vt 0.9824457 0.10823455
vt 0.95410204 0.12247407
vt 0.95410204 0.10823404
vt 0.9824457 0.12247407
vt 0.9824457 0.09501421
vt 0.95410204 0.10276029
vt 0.95410204 0.09501421
vt 0.9824457 0.10276029
vt 0.97079355 0.13299315
vt 0.97079355 0.15129541
vt 0.95545876 0.15129541
vt 0.95545876 0.13825215
vt 0.9601947 0.13299315
vt 0.9824457 0.10823455
vt 0.95410204 0.12247407
vt 0.9824457 0.12247407
vt 0.95410204 0.10823404
vt 0.9824457 0.09501421
vt 0.95410204 0.10276029
vt 0.9824457 0.10276029
vt 0.95410204 0.09501421
vt 0.9332456 0.09115541
vt 0.9202766 0.066152096
vt 0.9202766 0.09115541
vt 0.9332456 0.066152096
vt 0.94529444 0.09115541
vt 0.9341647 0.066152096
vt 0.9341647 0.09115541
vt 0.94529444 0.066152096
vt 0.908634 0.066152096
vt 0.9193701 0.09115541
vt 0.9193701 0.066152096
vt 0.908634 0.09115541
vt 0.9456496 0.09115541
vt 0.9482696 0.066152096
vt 0.9456496 0.066152096
vt 0.9482696 0.09115541
vt 0.90829134 0.09115541
vt 0.90593505 0.066152096
vt 0.90593505 0.09115541
vt 0.90829134 0.066152096
vt 0.9472776 0.15214892
vt 0.94409937 0.14277607
vt 0.94409937 0.15214892
vt 0.9472776 0.14277607
vt 0.94223124 0.13483897
vt 0.9460524 0.1524576
vt 0.9460524 0.13483897
vt 0.94223124 0.1524576
vt 0.9378949 0.13474157
vt 0.9353438 0.1523602
vt 0.9353438 0.13474157
vt 0.9378949 0.1523602
vt 0.9352394 0.1523602
vt 0.9377906 0.13474157
vt 0.9352394 0.13474157
vt 0.9377906 0.1523602
vt 0.908634 0.066152096
vt 0.9482696 0.066152096
vt 0.90593505 0.066152096
vt 0.9341647 0.066152096
vt 0.9202766 0.066152096
vt 0.9456496 0.066152096
vt 0.90829134 0.09115541
vt 0.9332456 0.09115541
vt 0.9193701 0.09115541
vt 0.9482696 0.09115541
vt 0.90593505 0.09115541
vt 0.94529444 0.09115541
vt 0.90593505 0.066152096
vt 0.9482696 0.09115541
vt 0.90593505 0.09115541
vt 0.9482696 0.066152096
vt 0.908634 0.09939714
vt 0.9482696 0.09939714
vt 0.90593505 0.09939714
vt 0.9341647 0.09939714
vt 0.9202766 0.09939714
vt 0.9456496 0.09939714
vt 0.95410204 0.09501421
vt 0.9824457 0.09501421
vt 0.9824457 0.09501421
vt 0.95410204 0.09501421
vt 0.9824457 0.09501421
vt 0.95410204 0.09501421
vt 0.95410204 0.09501421
vt 0.9824457 0.09501421
vn 0.023065435 0.9784345 -0.20526543
vn 0.023065435 0.97843456 -0.2052654
vn 0.023065433 0.9784345 -0.20526542
vn -0.022334334 0.97845113 -0.20526685
vn -0.022334332 0.97845113 -0.20526686
vn -0.022334332 0.97845113 -0.20526686
vn -0 -0.29690152 0.95490813
vn -0 -0.29690152 0.95490813
vn -0 -0.29690146 0.95490813
vn 0.3155691 -0.061435923 0.94691163
vn 0.3155691 -0.061435923 0.94691163
vn 0.3155691 -0.061435923 0.94691163
vn -0.3215879 -0.05172494 0.945466
vn -0.32158786 -0.05172494 0.945466
vn -0.3215879 -0.05172494 0.945466
vn -1.1807823E-06 0.43657348 -0.8996686
vn -1.7269226E-06 0.43657315 -0.8996688
vn -0 0.43657428 -0.8996682
vn -2.907702E-06 0.43657237 -0.8996692
vn 2.468916E-06 0.43657085 -0.8996698
vn 2.7893957E-06 0.4365711 -0.89966977
vn 1.7760472E-06 0.4365704 -0.89967006
vn 3.4822656E-06 0.43657154 -0.8996695
vn 2.7735766E-07 0.3907313 -0.9205048
vn 3.5327747E-07 0.3907313 -0.9205048
vn 1.6244401E-07 0.39073125 -0.9205048
vn 4.4001533E-07 0.3907314 -0.9205048
vn -0.68120915 0.36076105 -0.6370287
vn -0.65341884 0.3778553 -0.65594906
vn -0.6931902 0.3530376 -0.62837243
vn -0.6432591 0.3838356 -0.66248626
vn 0.64006466 0.37597653 -0.67004395
vn 0.63023716 0.37286556 -0.6810084
vn 0.6441314 0.37725216 -0.6654138
vn 0.6255219 0.37135908 -0.68615943
vn -0.9801608 0.19238384 0.047678746
vn -0.9801608 0.19238389 0.04767882
vn -0.9801608 0.19238392 0.04767894
vn -0.9801608 0.19238378 0.047678605
vn 0.9848836 0.16813111 0.041668262
vn 0.9848836 0.16813119 0.04166839
vn 0.9848836 0.16813104 0.041668016
vn 0.9848836 0.16813125 0.041668586
vn 4.657393E-05 0.97030413 0.24188827
vn -0.0033374582 0.9701399 0.24252294
vn -0.00639617 0.9706161 0.24054836
vn -0.0010330392 0.9698998 0.24350223
vn 0.0011507077 0.9699163 0.24343605
vn 0.0035409327 0.9701591 0.24244334
vn 0.006544895 0.9706151 0.2405482
vn 0.957575 0.28671068 0.02910473
vn 0.9461529 0.32238093 0.02941507
vn 0.95094615 0.30729762 0.035629872
vn 0.95705235 0.28903833 0.02252766
vn 1 3.2619928E-06 -6.8433224E-07
vn -0.02573195 0.97768205 0.20850815
vn -0.025731955 0.97768205 0.20850816
vn -0.025731955 0.97768205 0.20850816
vn -0.025731947 0.97768205 0.20850815
vn -0.058126844 0.3572764 -0.9321881
vn -0.056196544 0.36225376 -0.93038386
vn -0.055255897 0.3646734 -0.9294946
vn -0.059291616 0.35426524 -0.9332635
vn -0.9575562 0.28677613 0.029078223
vn -0.9509112 0.30741128 0.035583284
vn -0.9461398 0.3224209 0.02939858
vn -0.957053 0.28903642 0.022528546
vn -1 0 0
vn 0.024916574 0.97770226 0.20851259
vn 0.02491663 0.97770226 0.20851246
vn 0.024916535 0.97770226 0.20851268
vn 0.024916666 0.9777024 0.2085124
vn 0.05628827 0.3578034 -0.9320988
vn 0.054382138 0.36285788 -0.93025625
vn 0.05737708 0.3549089 -0.9331386
vn 0.05350337 0.36518246 -0.92939717
vn 4.8957855E-07 0.3993317 -0.9168065
vn 4.9908283E-07 0.39933166 -0.9168065
vn 4.2746876E-07 0.3993316 -0.9168066
vn 5.498532E-07 0.39933175 -0.9168065
vn -0.69929814 0.3689326 -0.61226696
vn -0.6797136 0.3848458 -0.6244062
vn -0.7153855 0.35528994 -0.6016582
vn -0.6648717 0.39643204 -0.63307756
vn 0.66111803 0.38368437 -0.6447552
vn 0.6549252 0.38036215 -0.6529912
vn 0.6664422 0.38653782 -0.637529
vn 0.6491671 0.3772702 -0.6604917
vn -0.9790414 0.19759105 0.049353167
vn -0.97903925 0.19759855 0.049365174
vn -0.9790702 0.19748911 0.049190037
vn -0.9790055 0.19771795 0.049556248
vn 0.9859016 0.16233891 0.0405475
vn 0.9859 0.162346 0.040558692
vn 0.98587716 0.16244534 0.04071515
vn 0.98592097 0.16225421 0.04041408
vn 9.0403165E-07 0.45505872 -0.89046144
vn 7.976865E-07 0.45505872 -0.89046144
vn 1.2762885E-06 0.45505908 -0.89046127
vn 4.2542965E-07 0.4550584 -0.8904616
vn 7.329816E-07 0.34307313 -0.9393087
vn 8.0618446E-07 0.34307316 -0.9393087
vn 5.6508725E-07 0.34307298 -0.9393087
vn 1.0106094E-06 0.34307337 -0.9393086
vn -0.98248327 0.16324171 -0.08988246
vn -0.9838495 0.15759066 -0.08488413
vn -0.97884905 0.17720242 -0.102244414
vn -0.9870941 0.14303154 -0.07202136
vn 0.98384964 0.15758978 -0.0848849
vn 0.98248327 0.16324086 -0.089883246
vn 0.97884905 0.17720155 -0.10224519
vn 0.9870942 0.14303072 -0.07202213
vn -2.408813E-07 -0.9703525 -0.24169418
vn -2.408813E-07 -0.9703525 -0.24169421
vn -2.408813E-07 -0.9703525 -0.24169418
vn -6.728979E-07 -0.9703526 -0.24169375
vn 1.3886034E-07 -0.9703527 -0.24169336
vn -6.728979E-07 -0.9703526 -0.24169374
vn 2.360812E-07 0.96999556 0.24312241
vn 2.3608123E-07 0.96999556 0.24312241
vn 2.3608123E-07 0.96999556 0.24312244
vn -1.5274622E-06 0.96999604 0.24312091
vn -0 0.96999615 0.2431206
vn -1.5274621E-06 0.96999604 0.24312088
vn -0 -0.12236911 0.9924846
vn -0 -0.122369125 0.9924846
vn -0 -0.1223691 0.9924846
vn -0 -0.12236936 0.9924846
vn -0 -0.97063553 -0.24055485
vn -0 -0.97063553 -0.24055485
vn -0 -0.97063553 -0.24055488
vn -3.4042216E-07 -0.97063553 -0.2405548
vn 1.1591252E-07 -0.97063565 -0.24055463
vn -3.404222E-07 -0.97063553 -0.24055478
vn 0.027204914 -0.99298877 -0.115035586
vn 0.027204914 -0.99298877 -0.1150356
vn 0.027204912 -0.99298877 -0.1150356
vn 0.027204327 -0.99298894 -0.11503454
vn -0.026336651 -0.99301165 -0.11504053
vn -0.026336648 -0.99301165 -0.115040526
vn -0.026336648 -0.99301165 -0.115040526
vn -0.02633718 -0.99301165 -0.115039654
g obj_trainingDummy1_0
f 3/3/3 2/2/2 1/1/1
f 6/6/6 5/5/5 4/4/4
f 9/9/9 8/8/8 7/7/7
f 12/12/12 11/11/11 10/10/10
f 15/15/15 14/14/14 13/13/13
f 18/18/18 17/17/17 16/16/16
f 19/19/19 16/16/16 17/17/17
f 22/22/22 21/21/21 20/20/20
f 23/23/23 20/20/20 21/21/21
f 26/26/26 25/25/25 24/24/24
f 27/27/27 24/24/24 25/25/25
f 30/30/30 29/29/29 28/28/28
f 31/31/31 28/28/28 29/29/29
f 34/34/34 33/33/33 32/32/32
f 35/35/35 32/32/32 33/33/33
f 38/38/38 37/37/37 36/36/36
f 39/39/39 36/36/36 37/37/37
f 42/42/42 41/41/41 40/40/40
f 43/43/43 40/40/40 41/41/41
f 46/46/46 45/45/45 44/44/44
f 45/45/45 47/47/47 44/44/44
f 44/44/44 47/47/47 48/48/48
f 49/49/49 44/44/44 48/48/48
f 50/50/50 44/44/44 49/49/49
f 53/53/53 52/52/52 51/51/51
f 52/52/52 54/54/54 51/51/51
f 55/55/55 51/51/51 54/54/54
f 58/58/58 57/57/57 56/56/56
f 59/59/59 56/56/56 57/57/57
f 62/62/62 61/61/61 60/60/60
f 63/63/63 60/60/60 61/61/61
f 66/66/66 65/65/65 64/64/64
f 66/66/66 64/64/64 67/67/67
f 68/68/68 67/67/67 64/64/64
f 71/71/71 70/70/70 69/69/69
f 72/72/72 69/69/69 70/70/70
f 75/75/75 74/74/74 73/73/73
f 76/76/76 73/73/73 74/74/74
f 79/79/79 78/78/78 77/77/77
f 80/80/80 77/77/77 78/78/78
f 83/83/83 82/82/82 81/81/81
f 84/84/84 81/81/81 82/82/82
f 87/87/87 86/86/86 85/85/85
f 88/88/88 85/85/85 86/86/86
f 91/91/91 90/90/90 89/89/89
f 92/92/92 89/89/89 90/90/90
f 95/95/95 94/94/94 93/93/93
f 96/96/96 93/93/93 94/94/94
f 99/99/99 98/98/98 97/97/97
f 100/100/100 97/97/97 98/98/98
f 103/103/103 102/102/102 101/101/101
f 104/104/104 101/101/101 102/102/102
f 107/107/107 106/106/106 105/105/105
f 108/108/108 105/105/105 106/106/106
f 111/111/111 110/110/110 109/109/109
f 112/112/112 109/109/109 110/110/110
f 115/115/115 114/114/114 113/113/113
f 114/114/114 116/116/116 113/113/113
f 113/113/113 116/116/116 117/117/117
f 118/118/118 116/116/116 114/114/114
f 121/121/121 120/120/120 119/119/119
f 120/120/120 122/122/122 119/119/119
f 119/119/119 122/122/122 123/123/123
f 124/124/124 122/122/122 120/120/120
f 127/127/127 126/126/126 125/125/125
f 128/128/128 125/125/125 126/126/126
f 131/131/131 130/130/130 129/129/129
f 130/130/130 132/132/132 129/129/129
f 129/129/129 132/132/132 133/133/133
f 134/134/134 132/132/132 130/130/130
f 137/137/137 136/136/136 135/135/135
f 138/138/138 135/135/135 136/136/136
f 141/141/141 140/140/140 139/139/139
f 142/142/142 139/139/139 140/140/140
