g obj_outdoor_road_CS
v -0.46939903 0.016592067 -0.28005987
v -0.46939892 0.028750936 -0.29927745
v -0.45013177 0.016592039 -0.29927742
v -0.69654924 0.016592067 -0.29927775
v -0.6772565 0.028750964 -0.29927775
v -0.6772565 0.016592091 -0.28006014
v -0.4501314 0.016592156 -0.5047202
v -0.4693987 0.028750954 -0.5047202
v -0.46939865 0.016155731 -0.51736206
v -0.6772565 0.016155755 -0.5173621
v -0.6772564 0.028750978 -0.5047203
v -0.6965492 0.016592184 -0.5047203
v -0.6965492 0.016592184 -0.5047203
v -0.69654924 0.016592067 -0.29927775
v -0.69654924 -0.0007492603 -0.2992779
v -0.6965492 -0.0007489866 -0.5047203
v -0.45013177 -0.0007492891 -0.29927757
v -0.45013177 0.016592039 -0.29927742
v -0.4501314 0.016592156 -0.5047202
v -0.4501314 -0.0007489962 -0.5047202
v -0.46939892 0.028750936 -0.29927745
v -0.46939903 0.016592067 -0.28005987
v -0.6772565 0.028750964 -0.29927775
v -0.6772565 0.016592091 -0.28006014
v -0.46939865 0.016155731 -0.51736206
v -0.4693987 0.028750954 -0.5047202
v -0.6772565 0.016155755 -0.5173621
v -0.6772564 0.028750978 -0.5047203
v -0.6772565 0.016592091 -0.28006014
v -0.6772565 -0.00074916903 -0.28006026
v -0.69654924 0.016592067 -0.29927775
v -0.69654924 -0.0007492603 -0.2992779
v -0.46939903 0.016592067 -0.28005987
v -0.45013177 0.016592039 -0.29927742
v -0.46939903 -0.0007491558 -0.28006002
v -0.45013177 -0.0007492891 -0.29927757
v -0.6965492 0.016592184 -0.5047203
v -0.6965492 -0.0007489866 -0.5047203
v -0.6772565 0.016155755 -0.5173621
v -0.6772565 -0.00088078383 -0.5173621
v -0.4501314 0.016592156 -0.5047202
v -0.46939865 0.016155731 -0.51736206
v -0.4501314 -0.0007489962 -0.5047202
v -0.46939865 -0.0008808078 -0.51736206
v -0.6772565 0.028750964 -0.29927775
v -0.4693987 0.028750954 -0.5047202
v -0.46939892 0.028750936 -0.29927745
v -0.6772564 0.028750978 -0.5047203
v -0.46939903 0.016592067 -0.28005987
v -0.6772565 -0.00074916903 -0.28006026
v -0.6772565 0.016592091 -0.28006014
v -0.46939903 -0.0007491558 -0.28006002
v -0.6772565 0.028750964 -0.29927775
v -0.69654924 0.016592067 -0.29927775
v -0.6965492 0.016592184 -0.5047203
v -0.6772564 0.028750978 -0.5047203
v -0.45013177 0.016592039 -0.29927742
v -0.46939892 0.028750936 -0.29927745
v -0.4693987 0.028750954 -0.5047202
v -0.4501314 0.016592156 -0.5047202
v -0.46939865 -0.0008808078 -0.51736206
v -0.46939865 0.016155731 -0.51736206
v -0.6772565 -0.00088078383 -0.5173621
v -0.6772565 0.016155755 -0.5173621
vt 0.2407301 0.40030918
vt 0.2407301 0.40030918
vt 0.2407301 0.39850613
vt 0.2407301 0.4315931
vt 0.2407301 0.42952934
vt 0.2407301 0.42952934
vt 0.22347093 0.39850613
vt 0.22347093 0.40030918
vt 0.22347093 0.40030918
vt 0.22347093 0.42952934
vt 0.22347093 0.42952934
vt 0.22347093 0.4315931
vt 0.22347093 0.4315931
vt 0.2407301 0.4315931
vt 0.2407301 0.44165075
vt 0.22347093 0.44165075
vt 0.2407301 0.3833866
vt 0.2407301 0.39850613
vt 0.22347093 0.39850613
vt 0.22347093 0.3833866
vt 0.2407301 0.40030918
vt 0.2407301 0.40030918
vt 0.2407301 0.42952934
vt 0.2407301 0.42952934
vt 0.22347093 0.40030918
vt 0.22347093 0.40030918
vt 0.22347093 0.42952934
vt 0.22347093 0.42952934
vt 0.2407301 0.42952934
vt 0.25256133 0.42952934
vt 0.2407301 0.4315931
vt 0.25256133 0.4315931
vt 0.2407301 0.40030918
vt 0.2407301 0.39850613
vt 0.25256133 0.40030918
vt 0.25256133 0.39850613
vt 0.2407301 0.43159315
vt 0.25256133 0.43159315
vt 0.2407301 0.42952934
vt 0.25256133 0.42952934
vt 0.2407301 0.39850613
vt 0.2407301 0.40030918
vt 0.25256133 0.39850613
vt 0.25256133 0.40030918
vt 0.2407301 0.42952934
vt 0.22347093 0.40030918
vt 0.2407301 0.40030918
vt 0.22347093 0.42952934
vt 0.2407301 0.40030918
vt 0.25256133 0.42952934
vt 0.2407301 0.42952934
vt 0.25256133 0.40030918
vt 0.2407301 0.42952934
vt 0.2407301 0.4315931
vt 0.22347093 0.4315931
vt 0.22347093 0.42952934
vt 0.2407301 0.39850613
vt 0.2407301 0.40030918
vt 0.22347093 0.40030918
vt 0.22347093 0.39850613
vt 0.25238928 0.4002459
vt 0.24089524 0.4002459
vt 0.25238928 0.4294105
vt 0.24089524 0.4294105
vn 0.47055858 0.74565595 0.4717751
vn 0.47055858 0.74565595 0.4717751
vn 0.47055858 0.74565595 0.47177517
vn -0.47007427 0.74587536 0.47191122
vn -0.47007424 0.7458753 0.47191122
vn -0.47007424 0.74587536 0.47191122
vn 0.40812364 0.6467289 -0.64434206
vn 0.40812367 0.6467289 -0.64434206
vn 0.40812367 0.64672893 -0.64434206
vn -0.40767598 0.6468723 -0.6444816
vn -0.40767598 0.6468722 -0.64448154
vn -0.40767592 0.6468723 -0.6444816
vn -1 0 -3.7396356E-07
vn -1 0 -3.7396356E-07
vn -1 0 -3.7396356E-07
vn -1 0 -3.739638E-07
vn 1 0 1.8698149E-06
vn 1 0 1.8698149E-06
vn 1 0 1.869815E-06
vn 1 0 1.8698162E-06
vn -6.2395327E-07 0.84506303 0.5346666
vn -6.2395316E-07 0.84506303 0.5346666
vn -6.239533E-07 0.84506303 0.5346666
vn -6.4347586E-07 0.845063 0.5346667
vn 3.4270155E-07 0.7084121 -0.70579904
vn 3.4270155E-07 0.7084121 -0.70579904
vn 3.4270155E-07 0.7084121 -0.70579904
vn 2.1226363E-07 0.70841324 -0.7057979
vn -0.7057258 -4.7082644E-06 0.70848507
vn -0.7057258 -4.7082644E-06 0.708485
vn -0.7057257 -4.708265E-06 0.7084851
vn -0.70572644 -6.2776553E-06 0.70848435
vn 0.7061925 -6.2735776E-06 0.70801985
vn 0.7061925 -6.2735776E-06 0.70801985
vn 0.7061925 -6.273577E-06 0.7080198
vn 0.7061925 -6.2735394E-06 0.70801985
vn -0.54808307 0 -0.8364239
vn -0.54808307 0 -0.83642393
vn -0.54808307 0 -0.8364239
vn -0.5480831 0 -0.8364239
vn 0.5485869 0 -0.8360935
vn 0.54858696 0 -0.8360936
vn 0.5485869 0 -0.8360935
vn 0.5485869 0 -0.8360935
vn 1.3860681E-07 1 0
vn 1.3860681E-07 1 0
vn 1.3860681E-07 1 0
vn 1.1550568E-07 1 0
vn -1.3860708E-06 -6.645539E-06 1
vn -1.386071E-06 -6.6455386E-06 1
vn -1.3860708E-06 -6.6455386E-06 1
vn -1.2012601E-06 -8.860737E-06 1
vn -0.533178 0.8460031 2.7866378E-07
vn -0.5331779 0.8460031 2.7866375E-07
vn -0.533178 0.8460031 2.786638E-07
vn -0.53317475 0.84600514 -1.3933223E-07
vn 0.53368443 0.8456837 6.7665894E-07
vn 0.5336844 0.8456837 6.7665894E-07
vn 0.5336844 0.8456837 6.7665894E-07
vn 0.5336783 0.8456876 1.482446E-06
vn 3.6961796E-07 0 -1
vn 3.6961802E-07 0 -1
vn 3.6961796E-07 0 -1
vn 3.6961796E-07 0 -1
g obj_outdoor_road_CS_0
f 3/3/3 2/2/2 1/1/1
f 6/6/6 5/5/5 4/4/4
f 9/9/9 8/8/8 7/7/7
f 12/12/12 11/11/11 10/10/10
f 15/15/15 14/14/14 13/13/13
f 13/13/13 16/16/16 15/15/15
f 19/19/19 18/18/18 17/17/17
f 17/17/17 20/20/20 19/19/19
f 23/23/23 22/22/22 21/21/21
f 22/22/22 23/23/23 24/24/24
f 27/27/27 26/26/26 25/25/25
f 26/26/26 27/27/27 28/28/28
f 31/31/31 30/30/30 29/29/29
f 32/32/32 30/30/30 31/31/31
f 35/35/35 34/34/34 33/33/33
f 35/35/35 36/36/36 34/34/34
f 39/39/39 38/38/38 37/37/37
f 40/40/40 38/38/38 39/39/39
f 43/43/43 42/42/42 41/41/41
f 43/43/43 44/44/44 42/42/42
f 47/47/47 46/46/46 45/45/45
f 46/46/46 48/48/48 45/45/45
f 51/51/51 50/50/50 49/49/49
f 50/50/50 52/52/52 49/49/49
f 55/55/55 54/54/54 53/53/53
f 53/53/53 56/56/56 55/55/55
f 59/59/59 58/58/58 57/57/57
f 57/57/57 60/60/60 59/59/59
f 63/63/63 62/62/62 61/61/61
f 62/62/62 63/63/63 64/64/64
