g obj_outdoor_mat
v -0.5035 0.01127958 0.5035
v -1.4536024 0.01127958 0.5035
v -1.4225479 0.015596699 0.46341252
v -1.5105 0.01127958 0.4466024
v -0.5034999 0.015596699 0.46341252
v -1.4794455 0.015596699 0.40651494
v -1.5105 0.01127958 -0.4466024
v -1.4794455 0.015596699 -0.40651494
v -0.5034999 0.015596699 -0.46341252
v -1.4536024 0.01127958 -0.5035
v -1.4225479 0.015596699 -0.46341252
v -0.5035 0.01127958 -0.5035
v -0.5035 0.01127958 -0.5035
v 0.4466024 0.01127958 -0.5035
v 0.41554806 0.015596699 -0.46341252
v -0.5034999 0.015596699 -0.46341252
v 0.5035 0.01127958 -0.4466024
v -0.5034999 0.015596699 0.46341252
v 0.47244567 0.015596699 -0.40651494
v 0.5035 0.01127958 0.4466024
v 0.47244567 0.015596699 0.40651494
v 0.4466024 0.01127958 0.5035
v 0.41554806 0.015596699 0.46341252
v -0.5035 0.01127958 0.5035
vt 0.5247086 0.46464664
vt 0.57435906 0.46464664
vt 0.5719192 0.46220246
vt 0.57715297 0.4626069
vt 0.5247086 0.46220246
vt 0.57465637 0.46028626
vt 0.57715297 0.43058494
vt 0.5746565 0.4329057
vt 0.5247086 0.4309895
vt 0.57435906 0.42854518
vt 0.5719192 0.4309895
vt 0.5247086 0.42854518
vt 0.5247086 0.42854518
vt 0.57435906 0.42854518
vt 0.5719192 0.4309895
vt 0.5247086 0.4309895
vt 0.57715297 0.43058494
vt 0.5247086 0.46220246
vt 0.5746565 0.4329057
vt 0.57715297 0.4626069
vt 0.57465637 0.46028626
vt 0.57435906 0.46464664
vt 0.5719192 0.46220246
vt 0.5247086 0.46464664
vn -0 0.99425113 0.10707338
vn -0.03705287 0.99621886 0.07858161
vn -0.016357737 0.99838614 0.054383982
vn -0.082259126 0.9956611 0.04350167
vn -0 0.9985618 0.0536138
vn -0.06839908 0.9975606 0.0139438175
vn -0.082259126 0.9956611 -0.04350167
vn -0.06839908 0.9975606 -0.0139438175
vn -0 0.9985618 -0.0536138
vn -0.03705287 0.99621886 -0.07858161
vn -0.016357737 0.99838614 -0.054383986
vn -0 0.99425113 -0.107073374
vn -0 0.99425113 -0.107073374
vn 0.03705289 0.99621886 -0.078581735
vn 0.016357794 0.99838614 -0.054384004
vn -0 0.9985618 -0.0536138
vn 0.08225934 0.9956611 -0.04350183
vn -0 0.9985618 0.0536138
vn 0.06839941 0.9975606 -0.013943829
vn 0.08225934 0.9956611 0.04350183
vn 0.06839941 0.9975606 0.013943829
vn 0.03705289 0.99621886 0.078581735
vn 0.016357794 0.99838614 0.054384008
vn -0 0.99425113 0.10707338
g obj_outdoor_mat_0
f 3/3/3 2/2/2 1/1/1
f 4/4/4 2/2/2 3/3/3
f 5/5/5 3/3/3 1/1/1
f 6/6/6 4/4/4 3/3/3
f 6/6/6 3/3/3 5/5/5
f 4/4/4 6/6/6 7/7/7
f 8/8/8 6/6/6 5/5/5
f 6/6/6 8/8/8 7/7/7
f 8/8/8 5/5/5 9/9/9
f 7/7/7 8/8/8 10/10/10
f 9/9/9 11/11/11 8/8/8
f 8/8/8 11/11/11 10/10/10
f 11/11/11 9/9/9 12/12/12
f 10/10/10 11/11/11 12/12/12
f 15/15/15 14/14/14 13/13/13
f 16/16/16 15/15/15 13/13/13
f 14/14/14 15/15/15 17/17/17
f 15/15/15 16/16/16 18/18/18
f 15/15/15 19/19/19 17/17/17
f 18/18/18 19/19/19 15/15/15
f 17/17/17 19/19/19 20/20/20
f 19/19/19 21/21/21 20/20/20
f 18/18/18 21/21/21 19/19/19
f 20/20/20 21/21/21 22/22/22
f 18/18/18 23/23/23 21/21/21
f 21/21/21 23/23/23 22/22/22
f 23/23/23 18/18/18 24/24/24
f 22/22/22 23/23/23 24/24/24
