g obj_rock6
v -0.38129207 1.1393341 -0.82046807
v -0.58220696 1.1393331 -1.0986531
v -0.421275 0.8599684 -0.85603297
v -0.5934148 0.85996777 -1.1258615
v -0.215127 0.6324395 -0.9067385
v -0.46988335 0.6324383 -1.2033656
v -0.20847401 0.3974832 -0.92619413
v -0.46372277 0.39748195 -1.2269785
v -1.2806902 1.2369388 -0.59059435
v -1.3751112 1.1393341 -0.7215812
v -0.92056596 1.2369388 -0.95778394
v -0.9950524 1.1393331 -1.0986662
v -0.6800956 1.2369388 -0.9577812
v -0.58220696 1.1393331 -1.0986531
v -0.5934148 0.85996777 -1.1258615
v -1.0264107 0.85996777 -1.125872
v -1.0478027 0.6324383 -1.2033745
v -0.46988335 0.6324383 -1.2033656
v -0.46372277 0.39748195 -1.2269785
v -1.0681332 0.39748195 -1.2269871
v -1.4683977 0.8599684 -0.81947607
v -1.5233685 0.6324395 -0.8492783
v -1.5513595 0.39748287 -0.8593338
v -1.664947 0.3974832 -0.33355492
v -1.6257647 0.6324395 -0.3249978
v -1.5569142 0.85996777 -0.30170786
v -1.5462146 0.6324392 0.78173906
v -1.5864835 0.39748287 0.7913591
v -1.2948732 0.6324395 1.0757979
v -1.334514 0.3974835 1.0805582
v -1.2032089 0.85996777 1.0389051
v -1.4680101 0.8599672 0.76827574
v -1.1520544 1.1393343 1.0548983
v -1.4520022 1.1393341 -0.28705645
v -1.2806902 1.2369388 -0.59059435
v -1.3385658 1.2369385 -0.17068231
v -1.3972263 1.1393337 0.75151986
v -1.2476217 1.2369376 0.6684085
v -0.98890543 1.2369382 0.95670223
v 0.39334738 1.2369376 0.66924566
v 0.31118122 1.2369394 -0.4979911
v 0.41681218 1.1393341 -0.5721716
v 0.44550544 1.1393337 0.8206853
v 0.4537491 0.8599672 0.8024648
v 0.42460275 0.8599684 -0.5965516
v 0.6665776 0.6324398 -0.642626
v 0.54314435 0.6324395 0.88803273
v 0.5560195 0.3974838 0.89692205
v 0.69208217 0.3974832 -0.65851617
v 0.41681218 1.1393341 -0.5721716
v 0.31118122 1.2369394 -0.4979911
v 0.20104237 1.2369394 -0.6469391
v 0.19921316 1.1393341 -0.78407645
v 0.19401564 0.8599687 -0.817874
v 0.42460275 0.8599684 -0.5965516
v 0.43012542 0.6324395 -0.86858356
v 0.6665776 0.6324398 -0.642626
v 0.45137835 0.3974832 -0.8876403
v 0.69208217 0.3974832 -0.65851617
v 0.20104237 1.2369394 -0.6469391
v -0.46735188 1.2369388 -0.7375875
v -0.38129207 1.1393341 -0.82046807
v 0.19921316 1.1393341 -0.78407645
v 0.19401564 0.8599687 -0.817874
v -0.421275 0.8599684 -0.85603297
v -0.215127 0.6324395 -0.9067385
v 0.43012542 0.6324395 -0.86858356
v -0.20847401 0.3974832 -0.92619413
v 0.45137835 0.3974832 -0.8876403
v -0.38129207 1.1393341 -0.82046807
v -0.46735188 1.2369388 -0.7375875
v -0.6800956 1.2369388 -0.9577812
v -0.58220696 1.1393331 -1.0986531
v -0.51068395 1.1393347 1.2002876
v -0.51068395 1.2369388 1.0491048
v 0.17556542 1.2369382 0.92784315
v 0.23884712 1.1393341 1.0765699
v 0.22051308 0.85996777 1.0742362
v -0.55855685 0.8599687 1.2046741
v -0.51068395 0.63244015 1.2654794
v 0.2929971 0.6324395 1.1398971
v -0.510684 0.3974835 1.2654802
v 0.30260277 0.3974838 1.1462651
v -0.98890543 1.2369382 0.95670223
v -0.51068395 1.2369388 1.0491048
v -0.51068395 1.1393347 1.2002876
v -1.1520544 1.1393343 1.0548983
v -0.55855685 0.8599687 1.2046741
v -1.2032089 0.85996777 1.0389051
v -0.51068395 0.63244015 1.2654794
v -1.2948732 0.6324395 1.0757979
v -0.510684 0.3974835 1.2654802
v -1.334514 0.3974835 1.0805582
v 0.54314435 0.6324395 0.88803273
v 0.5560195 0.3974838 0.89692205
v 0.30260277 0.3974838 1.1462651
v 0.2929971 0.6324395 1.1398971
v 0.22051308 0.85996777 1.0742362
v 0.4537491 0.8599672 0.8024648
v 0.44550544 1.1393337 0.8206853
v 0.23884712 1.1393341 1.0765699
v 0.17556542 1.2369382 0.92784315
v 0.39334738 1.2369376 0.66924566
v -1.2806902 1.2369388 -0.59059435
v -0.92056596 1.2369388 -0.95778394
v -0.6800956 1.2369388 -0.9577812
v -1.3385658 1.2369385 -0.17068231
v -0.46735188 1.2369388 -0.7375875
v -1.2476217 1.2369376 0.6684085
v -0.98890543 1.2369382 0.95670223
v -0.51068395 1.2369388 1.0491048
v 0.17556542 1.2369382 0.92784315
v 0.20104237 1.2369394 -0.6469391
v 0.31118122 1.2369394 -0.4979911
v 0.39334738 1.2369376 0.66924566
vt 0.4379725 0.07832261
vt 0.44444492 0.07832261
vt 0.4379725 0.04185104
vt 0.44444492 0.04185104
vt 0.4379725 0.025559094
vt 0.44444492 0.025559094
vt 0.4379725 0.0017894061
vt 0.44444492 0.0017894061
vt 0.48461455 0.090474345
vt 0.48461455 0.07832261
vt 0.4633522 0.09044834
vt 0.4633522 0.07832261
vt 0.44647926 0.09044834
vt 0.44647926 0.07832261
vt 0.44647926 0.04185104
vt 0.4633522 0.04185104
vt 0.4633522 0.025559094
vt 0.44647926 0.025559094
vt 0.44647926 0.0017894061
vt 0.4633522 0.0017894061
vt 0.48461455 0.04185104
vt 0.48461455 0.025559094
vt 0.48461455 0.0017894061
vt 0.49378622 0.0017894061
vt 0.49378622 0.025559094
vt 0.49378622 0.04185104
vt 0.49845237 0.025559094
vt 0.49845237 0.0017894061
vt 0.50084955 0.025559094
vt 0.50084955 0.0017894061
vt 0.50084955 0.04185104
vt 0.49845237 0.04185104
vt 0.50084955 0.07832261
vt 0.49378622 0.07832261
vt 0.48461455 0.09044834
vt 0.49378622 0.09044834
vt 0.49845237 0.07832261
vt 0.49845237 0.09044834
vt 0.50084955 0.09044834
vt 0.3964141 0.09044834
vt 0.40799662 0.09044834
vt 0.40799662 0.07832261
vt 0.39641777 0.07832261
vt 0.3964188 0.04185104
vt 0.40799662 0.04185104
vt 0.40799662 0.025559094
vt 0.39638066 0.025559094
vt 0.39637795 0.0017894061
vt 0.40799662 0.0017894061
vt 0.4105597 0.07832261
vt 0.4105597 0.09044834
vt 0.4176408 0.09044834
vt 0.4176408 0.07832261
vt 0.4176408 0.04185104
vt 0.4105597 0.04185104
vt 0.4176408 0.025559094
vt 0.4105597 0.025559094
vt 0.4176408 0.0017894061
vt 0.4105597 0.0017894061
vt 0.4185219 0.09044834
vt 0.43593818 0.09044834
vt 0.43593818 0.07832261
vt 0.4185219 0.07832261
vt 0.4185219 0.04185104
vt 0.43593818 0.04185104
vt 0.43593818 0.025559094
vt 0.4185219 0.025559094
vt 0.43593818 0.0017894061
vt 0.4185219 0.0017894061
vt 0.4379725 0.07832261
vt 0.4379725 0.09044834
vt 0.44444492 0.09044834
vt 0.44444492 0.07832261
vt 0.44474998 0.07832261
vt 0.44475058 0.09044834
vt 0.4484953 0.09044834
vt 0.4484947 0.07832261
vt 0.44849455 0.04185104
vt 0.4447498 0.04185104
vt 0.44475588 0.025559094
vt 0.44850063 0.025559094
vt 0.44475636 0.0017894061
vt 0.44850108 0.0017894061
vt 0.48386595 0.09044834
vt 0.44475058 0.09044834
vt 0.44474998 0.07832261
vt 0.4838623 0.07832261
vt 0.4447498 0.04185104
vt 0.48386124 0.04185104
vt 0.44475588 0.025559094
vt 0.48389938 0.025559094
vt 0.44475636 0.0017894061
vt 0.48390213 0.0017894061
vt 0.39773694 0.025559094
vt 0.39773706 0.0017894061
vt 0.39981908 0.0017894061
vt 0.39981908 0.025559094
vt 0.3998188 0.04185104
vt 0.39773542 0.04185104
vt 0.39773545 0.07832261
vt 0.39981884 0.07832261
vt 0.39981884 0.09044834
vt 0.3977356 0.09044834
vt 0.015748544 0.2628519
vt 0.026542157 0.2536949
vt 0.029877603 0.25369495
vt 0.015748544 0.27062458
vt 0.03570236 0.25717396
vt 0.015748544 0.2873517
vt 0.024256825 0.2934748
vt 0.034792095 0.29415646
vt 0.049910218 0.29312307
vt 0.051047783 0.25808707
vt 0.05289784 0.2630521
vt 0.054707944 0.28736913
vn 0.8265772 -0.012513234 -0.5626842
vn 0.8265772 -0.012513234 -0.5626842
vn 0.77325624 0.31332397 -0.5512739
vn 0.77106047 0.32034415 -0.550314
vn 0.73330474 0.327306 -0.595932
vn 0.7272215 0.35529825 -0.58729213
vn 0.75811493 0.07998935 -0.64719653
vn 0.75811493 0.07998936 -0.64719653
vn -0.3288572 0.9355508 -0.12883134
vn -0.6987578 0.5977939 -0.3929121
vn -0.11779842 0.94350874 -0.30970094
vn -0.28849927 0.538686 -0.7915716
vn 0.12987609 0.9412378 -0.3117749
vn 0.16587107 0.6159134 -0.7701542
vn 2.2557486E-05 0.22457166 -0.97445756
vn -0.31733793 0.2683493 -0.9095522
vn -0.29969516 0.2113264 -0.9303354
vn 1.622188E-05 0.19173647 -0.9814464
vn 1.4741178E-05 0.099994436 -0.99498796
vn -0.32425925 0.115276396 -0.9389181
vn -0.8017973 0.32004467 -0.5046708
vn -0.8242965 0.21630397 -0.5232092
vn -0.83951384 0.141551 -0.5245758
vn -0.985173 0.15772077 -0.06751629
vn -0.97256756 0.22470877 -0.06015257
vn -0.9486933 0.3126994 -0.046904907
vn -0.89486825 0.2459625 0.37244222
vn -0.9136494 0.1651651 0.3714367
vn -0.5099367 0.19013792 0.83893514
vn -0.5361495 0.09781431 0.8384367
vn -0.49643958 0.1971782 0.8453806
vn -0.87719685 0.29351836 0.37996387
vn -0.44333902 0.50123197 0.74311304
vn -0.8174635 0.57358277 -0.05249838
vn -0.3288572 0.9355508 -0.12883134
vn -0.34151044 0.9398769 0.0014440564
vn -0.762105 0.56038654 0.32428828
vn -0.30345806 0.94668 0.1082138
vn -0.13322261 0.94704443 0.2921619
vn 0.454109 0.8890212 0.058534037
vn 0.4208125 0.896322 -0.1397268
vn 0.85195714 0.3813898 -0.3587628
vn 0.8397352 0.4135108 0.35192832
vn 0.8974834 0.3016402 0.32177117
vn 0.83134675 0.41445267 -0.3702588
vn 0.873762 0.37164336 -0.31372154
vn 0.8635291 0.29885048 0.40620917
vn 0.9029889 0.07263497 0.42347986
vn 0.92697084 0.111911036 -0.35805148
vn 0.85195714 0.3813898 -0.3587628
vn 0.4208125 0.896322 -0.1397268
vn 0.21686949 0.9121058 -0.34789452
vn 0.35736337 0.44229722 -0.8225964
vn 0.3057402 0.28016898 -0.90996057
vn 0.83134675 0.41445267 -0.3702588
vn 0.41177124 0.34116116 -0.84501684
vn 0.873762 0.37164336 -0.31372154
vn 0.4060123 0.11054663 -0.9071567
vn 0.92697084 0.111911036 -0.35805148
vn 0.21686949 0.9121058 -0.34789452
vn 0.12382765 0.9705048 -0.20685071
vn 0.1964228 0.6425515 -0.7406386
vn 0.35736337 0.44229722 -0.8225964
vn 0.3057402 0.28016898 -0.90996057
vn 0.06059701 0.1761368 -0.98249876
vn 0.058542088 0.19646433 -0.9787618
vn 0.41177124 0.34116116 -0.84501684
vn 0.05846238 0.08499096 -0.99466515
vn 0.4060123 0.11054663 -0.9071567
vn 0.1964228 0.6425515 -0.7406386
vn 0.12382765 0.9705048 -0.20685071
vn 0.12987609 0.9412378 -0.3117749
vn 0.16587107 0.6159134 -0.7701542
vn -0.01571282 0.4521162 0.8918206
vn -0.008655551 0.94848776 0.31669536
vn 0.17476588 0.94370776 0.2808426
vn 0.45128784 0.43091616 0.78144145
vn 0.45640764 0.19093882 0.8690423
vn -0.06326688 0.13796154 0.9884149
vn -0.0277606 0.1478059 0.98862666
vn 0.45635822 0.21292175 0.8639453
vn -0.039264873 0.023140967 0.99896085
vn 0.45371127 0.038794994 0.8903039
vn -0.13322261 0.94704443 0.2921619
vn -0.008655551 0.94848776 0.31669536
vn -0.01571282 0.4521162 0.8918206
vn -0.44333902 0.50123197 0.74311304
vn -0.06326688 0.13796154 0.9884149
vn -0.49643958 0.1971782 0.8453806
vn -0.0277606 0.1478059 0.98862666
vn -0.5099367 0.19013792 0.83893514
vn -0.039264873 0.023140967 0.99896085
vn -0.5361495 0.09781431 0.8384367
vn 0.8635291 0.29885048 0.40620917
vn 0.9029889 0.07263497 0.42347986
vn 0.45371127 0.038794994 0.8903039
vn 0.45635822 0.21292175 0.8639453
vn 0.45640764 0.19093882 0.8690423
vn 0.8974834 0.3016402 0.32177117
vn 0.8397352 0.4135108 0.35192832
vn 0.45128784 0.43091616 0.78144145
vn 0.17476588 0.94370776 0.2808426
vn 0.454109 0.8890212 0.058534037
vn -0.3288572 0.9355508 -0.12883134
vn -0.11779842 0.94350874 -0.30970094
vn 0.12987609 0.9412378 -0.3117749
vn -0.34151044 0.9398769 0.0014440564
vn 0.12382765 0.9705048 -0.20685071
vn -0.30345806 0.94668 0.1082138
vn -0.13322261 0.94704443 0.2921619
vn -0.008655551 0.94848776 0.31669536
vn 0.17476588 0.94370776 0.2808426
vn 0.21686949 0.9121058 -0.34789452
vn 0.4208125 0.896322 -0.1397268
vn 0.454109 0.8890212 0.058534037
g obj_rock6_0
f 3/3/3 2/2/2 1/1/1
f 3/3/3 4/4/4 2/2/2
f 3/3/3 5/5/5 4/4/4
f 6/6/6 4/4/4 5/5/5
f 5/5/5 7/7/7 6/6/6
f 7/7/7 8/8/8 6/6/6
f 11/11/11 10/10/10 9/9/9
f 12/12/12 10/10/10 11/11/11
f 12/12/12 11/11/11 13/13/13
f 12/12/12 13/13/13 14/14/14
f 15/15/15 12/12/12 14/14/14
f 15/15/15 16/16/16 12/12/12
f 10/10/10 12/12/12 16/16/16
f 17/17/17 16/16/16 15/15/15
f 15/15/15 18/18/18 17/17/17
f 18/18/18 19/19/19 17/17/17
f 19/19/19 20/20/20 17/17/17
f 21/21/21 16/16/16 17/17/17
f 16/16/16 21/21/21 10/10/10
f 22/22/22 17/17/17 20/20/20
f 17/17/17 22/22/22 21/21/21
f 20/20/20 23/23/23 22/22/22
f 22/22/22 23/23/23 24/24/24
f 21/21/21 22/22/22 25/25/25
f 24/24/24 25/25/25 22/22/22
f 10/10/10 21/21/21 26/26/26
f 25/25/25 26/26/26 21/21/21
f 27/27/27 25/25/25 24/24/24
f 26/26/26 25/25/25 27/27/27
f 24/24/24 28/28/28 27/27/27
f 28/28/28 29/29/29 27/27/27
f 28/28/28 30/30/30 29/29/29
f 27/27/27 29/29/29 31/31/31
f 27/27/27 31/31/31 32/32/32
f 27/27/27 32/32/32 26/26/26
f 32/32/32 31/31/31 33/33/33
f 26/26/26 34/34/34 10/10/10
f 34/34/34 35/35/35 10/10/10
f 35/35/35 34/34/34 36/36/36
f 26/26/26 32/32/32 37/37/37
f 37/37/37 34/34/34 26/26/26
f 36/36/36 34/34/34 37/37/37
f 37/37/37 32/32/32 33/33/33
f 37/37/37 38/38/38 36/36/36
f 38/38/38 37/37/37 33/33/33
f 33/33/33 39/39/39 38/38/38
f 42/42/42 41/41/41 40/40/40
f 42/42/42 40/40/40 43/43/43
f 43/43/43 44/44/44 42/42/42
f 44/44/44 45/45/45 42/42/42
f 46/46/46 45/45/45 44/44/44
f 44/44/44 47/47/47 46/46/46
f 46/46/46 47/47/47 48/48/48
f 48/48/48 49/49/49 46/46/46
f 52/52/52 51/51/51 50/50/50
f 50/50/50 53/53/53 52/52/52
f 54/54/54 53/53/53 50/50/50
f 50/50/50 55/55/55 54/54/54
f 56/56/56 54/54/54 55/55/55
f 55/55/55 57/57/57 56/56/56
f 58/58/58 56/56/56 57/57/57
f 57/57/57 59/59/59 58/58/58
f 62/62/62 61/61/61 60/60/60
f 60/60/60 63/63/63 62/62/62
f 62/62/62 63/63/63 64/64/64
f 64/64/64 65/65/65 62/62/62
f 64/64/64 66/66/66 65/65/65
f 66/66/66 64/64/64 67/67/67
f 67/67/67 68/68/68 66/66/66
f 68/68/68 67/67/67 69/69/69
f 72/72/72 71/71/71 70/70/70
f 70/70/70 73/73/73 72/72/72
f 76/76/76 75/75/75 74/74/74
f 74/74/74 77/77/77 76/76/76
f 78/78/78 77/77/77 74/74/74
f 74/74/74 79/79/79 78/78/78
f 79/79/79 80/80/80 78/78/78
f 80/80/80 81/81/81 78/78/78
f 80/80/80 82/82/82 81/81/81
f 82/82/82 83/83/83 81/81/81
f 86/86/86 85/85/85 84/84/84
f 84/84/84 87/87/87 86/86/86
f 88/88/88 86/86/86 87/87/87
f 87/87/87 89/89/89 88/88/88
f 90/90/90 88/88/88 89/89/89
f 89/89/89 91/91/91 90/90/90
f 92/92/92 90/90/90 91/91/91
f 91/91/91 93/93/93 92/92/92
f 96/96/96 95/95/95 94/94/94
f 96/96/96 94/94/94 97/97/97
f 98/98/98 97/97/97 94/94/94
f 94/94/94 99/99/99 98/98/98
f 98/98/98 99/99/99 100/100/100
f 101/101/101 98/98/98 100/100/100
f 102/102/102 101/101/101 100/100/100
f 100/100/100 103/103/103 102/102/102
f 106/106/106 105/105/105 104/104/104
f 106/106/106 104/104/104 107/107/107
f 106/106/106 107/107/107 108/108/108
f 108/108/108 107/107/107 109/109/109
f 109/109/109 110/110/110 108/108/108
f 110/110/110 111/111/111 108/108/108
f 108/108/108 111/111/111 112/112/112
f 112/112/112 113/113/113 108/108/108
f 114/114/114 113/113/113 112/112/112
f 112/112/112 115/115/115 114/114/114
