g obj_stone6
v -0.24102487 0.023028554 -0.3200963
v 0.0041570226 0.023071585 -0.38108668
v 0.24933949 0.023028554 -0.3200967
v -0.36513087 0.023283305 -0.2274535
v -0.42437 0.023274982 -0.05714392
v -0.39730653 0.023283565 0.10914375
v -0.17705782 0.023071485 0.3810883
v 0.24933949 0.023028769 0.3874388
v 0.36184078 0.02324944 0.217489
v 0.42450413 0.023407422 0.03367099
v 0.3885212 0.023249488 -0.15014704
v -0.4732522 -0.00080484257 -0.057143938
v -0.39730653 0.023283565 0.10914375
v -0.44164285 -0.00079564814 0.13034426
v -0.42437 0.023274982 -0.05714392
v -0.44164285 -0.00079564814 0.13034426
v -0.17705782 0.023071485 0.3810883
v -0.17711252 -0.0010320109 0.42924103
v -0.39730653 0.023283565 0.10914375
v 0.24933949 0.023028769 0.3874388
v -0.17711252 -0.0010320109 0.42924103
v -0.17705782 0.023071485 0.3810883
v 0.27775016 -0.0010799515 0.42851126
v 0.40641087 -0.000833462 0.23883046
v 0.27775016 -0.0010799515 0.42851126
v 0.24933949 0.023028769 0.3874388
v 0.36184078 0.02324944 0.217489
v 0.40641087 -0.000833462 0.23883046
v 0.42450413 0.023407422 0.03367099
v 0.47325182 -0.0006573449 0.033670984
v 0.36184078 0.02324944 0.217489
v -0.40946782 -0.0007955977 -0.24865402
v -0.36513087 0.023283305 -0.2274535
v -0.42437 0.023274982 -0.05714392
v -0.4732522 -0.00080484257 -0.057143938
v -0.26954514 -0.0010798463 -0.3611687
v -0.36513087 0.023283305 -0.2274535
v -0.40946782 -0.0007955977 -0.24865402
v -0.24102487 0.023028554 -0.3200963
v 0.004102527 -0.0010318966 -0.42924005
v -0.24102487 0.023028554 -0.3200963
v -0.26954514 -0.0010798463 -0.3611687
v 0.0041570226 0.023071585 -0.38108668
v 0.004102527 -0.0010318966 -0.42924005
v 0.27775016 -0.0010798463 -0.3611691
v 0.24933949 0.023028554 -0.3200967
v 0.0041570226 0.023071585 -0.38108668
v 0.43309087 -0.00083340734 -0.1714885
v 0.3885212 0.023249488 -0.15014704
v 0.24933949 0.023028554 -0.3200967
v 0.27775016 -0.0010798463 -0.3611691
v 0.47325182 -0.0006573449 0.033670984
v 0.3885212 0.023249488 -0.15014704
v 0.43309087 -0.00083340734 -0.1714885
v 0.42450413 0.023407422 0.03367099
vt 0.201607 0.67728
vt 0.21004198 0.67959344
vt 0.21847695 0.67728
vt 0.19733751 0.673766
vt 0.19529946 0.66730624
vt 0.19623052 0.6609989
vt 0.20380765 0.65068406
vt 0.21847695 0.65044314
vt 0.22234726 0.6568894
vt 0.22450301 0.66386163
vt 0.22326519 0.6708338
vt 0.19009724 0.6678009
vt 0.19623052 0.6609989
vt 0.19141978 0.6591519
vt 0.19529946 0.66730624
vt 0.19141978 0.6591519
vt 0.20380765 0.65068406
vt 0.20248796 0.6453635
vt 0.19623052 0.6609989
vt 0.21847695 0.65044314
vt 0.20248796 0.6453635
vt 0.20380765 0.65068406
vt 0.22151977 0.6453972
vt 0.22690305 0.65414727
vt 0.22151977 0.6453972
vt 0.21847695 0.65044314
vt 0.22234726 0.6568894
vt 0.22690305 0.65414727
vt 0.22450301 0.66386163
vt 0.22969969 0.66361153
vt 0.22234726 0.6568894
vt 0.19276604 0.6766354
vt 0.19733751 0.673766
vt 0.19529946 0.66730624
vt 0.19009724 0.6678009
vt 0.19862045 0.68182576
vt 0.19733751 0.673766
vt 0.19276604 0.6766354
vt 0.201607 0.67728
vt 0.21007013 0.68496597
vt 0.201607 0.67728
vt 0.19862045 0.68182576
vt 0.21004198 0.67959344
vt 0.21007013 0.68496597
vt 0.22151977 0.6818259
vt 0.21847695 0.67728
vt 0.21004198 0.67959344
vt 0.2280194 0.6730757
vt 0.22326519 0.6708338
vt 0.21847695 0.67728
vt 0.22151977 0.6818259
vt 0.22969969 0.66361153
vt 0.22326519 0.6708338
vt 0.2280194 0.6730757
vt 0.22450301 0.66386163
vn -0 0.99999845 -0.0017861074
vn -0 0.9999999 0.00045834424
vn 0.00021110018 1 -6.783565E-05
vn 0.00028924923 1 0.00013238951
vn 0.00021110015 1 -6.783565E-05
vn 0.00021110017 1 -6.783565E-05
vn 0.0003852859 0.9999999 0.00019457332
vn 6.507673E-05 1 -1.4897002E-07
vn -0.00127441 0.99999917 -1.4897172E-07
vn -0.0014998205 0.9999989 4.7023084E-05
vn -0.00045945458 0.99999976 -0.00046810464
vn -0.30729893 0.95024896 0.050933745
vn -0.3072989 0.95024896 0.050933745
vn -0.3072989 0.95024896 0.050933745
vn -0.30729887 0.95024896 0.050933745
vn -0.28127027 0.9293029 0.2393391
vn -0.28127024 0.9293029 0.2393391
vn -0.28127027 0.9293029 0.2393391
vn -0.28127024 0.9293029 0.2393391
vn -0.0020529265 0.9433624 0.33175758
vn -0.0020529262 0.9433624 0.33175758
vn -0.0020529262 0.9433624 0.33175752
vn -0.0020529262 0.9433624 0.3317576
vn 0.25857168 0.9501561 0.17419541
vn 0.25857168 0.9501561 0.17419541
vn 0.25857165 0.9501561 0.17419541
vn 0.25857168 0.9501561 0.17419542
vn 0.29578006 0.95011157 0.09900571
vn 0.2957801 0.95011157 0.099005714
vn 0.29578006 0.95011157 0.09900571
vn 0.2957801 0.95011157 0.09900571
vn -0.2958915 0.94991183 -0.100577064
vn -0.29589146 0.94991183 -0.10057706
vn -0.29589146 0.94991183 -0.10057705
vn -0.29589146 0.94991183 -0.10057704
vn -0.19340344 0.9485961 -0.2505206
vn -0.19340345 0.9485961 -0.25052062
vn -0.19340344 0.9485961 -0.25052056
vn -0.19340347 0.9485961 -0.2505206
vn -0.07677818 0.9482134 -0.3082149
vn -0.07677819 0.9482134 -0.3082149
vn -0.07677818 0.9482134 -0.30821493
vn -0.07677818 0.9482134 -0.30821493
vn 0.07681665 0.9481593 -0.30837172
vn 0.07681664 0.9481593 -0.30837172
vn 0.07681665 0.9481593 -0.30837175
vn 0.07681664 0.9481593 -0.30837172
vn 0.23942274 0.9507445 -0.1968799
vn 0.23942274 0.9507445 -0.1968799
vn 0.23942274 0.9507445 -0.1968799
vn 0.23942274 0.9507445 -0.19687991
vn 0.3047925 0.95051473 -0.06019442
vn 0.3047925 0.95051473 -0.06019443
vn 0.30479246 0.95051473 -0.06019442
vn 0.30479246 0.95051473 -0.06019442
g obj_stone6_0
f 3/3/3 2/2/2 1/1/1
f 3/3/3 1/1/1 4/4/4
f 3/3/3 4/4/4 5/5/5
f 6/6/6 3/3/3 5/5/5
f 7/7/7 3/3/3 6/6/6
f 8/8/8 3/3/3 7/7/7
f 9/9/9 3/3/3 8/8/8
f 10/10/10 3/3/3 9/9/9
f 3/3/3 10/10/10 11/11/11
f 14/14/14 13/13/13 12/12/12
f 13/13/13 15/15/15 12/12/12
f 18/18/18 17/17/17 16/16/16
f 17/17/17 19/19/19 16/16/16
f 22/22/22 21/21/21 20/20/20
f 21/21/21 23/23/23 20/20/20
f 26/26/26 25/25/25 24/24/24
f 24/24/24 27/27/27 26/26/26
f 30/30/30 29/29/29 28/28/28
f 29/29/29 31/31/31 28/28/28
f 34/34/34 33/33/33 32/32/32
f 32/32/32 35/35/35 34/34/34
f 38/38/38 37/37/37 36/36/36
f 39/39/39 36/36/36 37/37/37
f 42/42/42 41/41/41 40/40/40
f 41/41/41 43/43/43 40/40/40
f 46/46/46 45/45/45 44/44/44
f 44/44/44 47/47/47 46/46/46
f 50/50/50 49/49/49 48/48/48
f 48/48/48 51/51/51 50/50/50
f 54/54/54 53/53/53 52/52/52
f 55/55/55 52/52/52 53/53/53
