g obj_outdoor_tree
v 0.6821584 0.5015973 -0.15974134
v 0.6139073 0.5579922 -0.09454819
v 0.5759607 0.55799216 -0.14254816
v 0.6188372 0.5015972 -0.22860308
v 0.40661332 0.49004745 -0.4825977
v 0.38523346 0.60077363 -0.43432727
v 0.35637093 0.60077363 -0.44970787
v 0.3685904 0.49004757 -0.5048925
v -0.32318908 0.4900475 -0.38904157
v -0.30042502 0.6355725 -0.33353856
v -0.3335701 0.63557243 -0.3109351
v -0.3823188 0.4900474 -0.3487501
v -0.55106115 0.5015973 -0.064420395
v -0.52273387 0.5239521 -0.019413995
v -0.5359012 0.5239521 0.046398986
v -0.57220185 0.5015973 0.026881984
v 0.26695433 0.7262697 -0.15360968
v 0.3743489 0.6814085 0.03733541
v 0.26655096 1.5023484 0.09015582
v 0.22208516 1.506544 -0.043037605
v 0.002144116 0.7687115 -0.23929818
v 0.035409104 2.0985901 0.190483
v -0.17465694 1.4655201 -0.05058492
v -0.30473426 0.7687115 -0.11815026
v -0.30888084 0.76871157 0.03733541
v -0.2568252 1.4442455 0.080379106
v -0.017506605 2.0840542 0.046264075
v -0.079337165 2.7034667 0.2922817
v -0.2730056 1.9754305 0.026836194
v -0.34497347 1.9384263 0.1646085
v -0.114467 2.7121294 0.193595
v -0.38397145 3.2942126 0.3734298
v -0.41132507 3.2944229 0.29953814
v -0.28408948 2.7344642 0.19748288
v -0.3192195 2.7350707 0.29759955
v -0.49825218 3.297306 0.31349006
v -0.5069178 3.2982965 0.3930679
v 0.41859442 0.5015973 -0.2448834
v 0.6188372 0.5015972 -0.22860308
v 0.5759607 0.55799216 -0.14254816
v 0.26695433 0.7262697 -0.15360968
v 0.26695433 0.7262697 -0.15360968
v 0.5759607 0.55799216 -0.14254816
v 0.6139073 0.5579922 -0.09454819
v 0.3743489 0.6814085 0.03733541
v -0 0.5015973 -0.3214027
v 0.3685904 0.49004757 -0.5048925
v 0.35637093 0.60077363 -0.44970787
v 0.002144116 0.7687115 -0.23929818
v 0.002144116 0.7687115 -0.23929818
v 0.35637093 0.60077363 -0.44970787
v 0.38523346 0.60077363 -0.43432727
v 0.26695433 0.7262697 -0.15360968
v 0.26695433 0.7262697 -0.15360968
v 0.38523346 0.60077363 -0.43432727
v 0.40661332 0.49004745 -0.4825977
v 0.41859442 0.5015973 -0.2448834
v -0.40255642 0.5015973 -0.17173226
v -0.3823188 0.4900474 -0.3487501
v -0.3335701 0.63557243 -0.3109351
v -0.30473426 0.7687115 -0.11815026
v -0.30473426 0.7687115 -0.11815026
v -0.3335701 0.63557243 -0.3109351
v -0.30042502 0.6355725 -0.33353856
v 0.002144116 0.7687115 -0.23929818
v 0.002144116 0.7687115 -0.23929818
v -0.30042502 0.6355725 -0.33353856
v -0.32318908 0.4900475 -0.38904157
v -0 0.5015973 -0.3214027
v -0.30888084 0.76871157 0.03733541
v -0.5359012 0.5239521 0.046398986
v -0.52273387 0.5239521 -0.019413995
v -0.30473426 0.7687115 -0.11815026
v -0.30473426 0.7687115 -0.11815026
v -0.52273387 0.5239521 -0.019413995
v -0.55106115 0.5015973 -0.064420395
v -0.40255642 0.5015973 -0.17173226
v 0.17373738 1.6172189 0.012255891
v 0.25351763 1.5057161 0.103883594
v 0.4073541 1.7334319 0.14873213
v 0.36006385 1.8166398 0.09983124
v 0.03621962 1.8136133 0.06748981
v 0.5464717 2.1930206 0.2299018
v 0.21552071 1.948183 0.12354431
v 0.002089568 1.8620719 0.17759116
v 0.17479496 1.9779564 0.18153247
v 0.52031887 2.2123897 0.19372423
v 0.82556057 2.440542 0.2804505
v 0.77129596 2.454316 0.2567345
v 0.41403928 2.277964 0.20598419
v 0.36605158 2.3137894 0.24898829
v 0.58540416 2.3597236 0.2413049
v 0.7123798 2.5060966 0.24733798
v 0.4814349 2.4120982 0.2742134
v 0.58540416 2.3597236 0.2413049
v 0.5854043 2.354852 0.29861167
v 0.4814349 2.4120982 0.2742134
v 0.7123798 2.5060966 0.24733798
v 0.7123802 2.5000641 0.3182978
v 0.77129626 2.4500468 0.30695015
v 0.77129596 2.454316 0.2567345
v 0.82556057 2.440542 0.2804505
v -0.32548434 0.52196425 -0.7719808
v -0.27047747 0.55762315 -0.716974
v -0.3207414 0.5902075 -0.7672379
v -0.37574813 0.5545485 -0.8222447
v -0.74118763 0.5219642 -0.35467118
v -0.7744288 0.55454856 -0.3879124
v -0.73805106 0.5902075 -0.35153455
v -0.7048098 0.5576232 -0.3182933
v -0.32548434 0.52196425 -0.7719808
v -0.74118763 0.5219642 -0.35467118
v -0.7048098 0.5576232 -0.3182933
v -0.27047747 0.55762315 -0.716974
v -0.27047747 0.55762315 -0.716974
v -0.7048098 0.5576232 -0.3182933
v -0.73805106 0.5902075 -0.35153455
v -0.3207414 0.5902075 -0.7672379
v -0.3207414 0.5902075 -0.7672379
v -0.73805106 0.5902075 -0.35153455
v -0.7744288 0.55454856 -0.3879124
v -0.37574813 0.5545485 -0.8222447
v -0.37574813 0.5545485 -0.8222447
v -0.7744288 0.55454856 -0.3879124
v -0.74118763 0.5219642 -0.35467118
v -0.32548434 0.52196425 -0.7719808
v 0.42809516 0.5257765 0.3278923
v 0.44754493 0.5574515 0.2514935
v 0.42977208 0.5863954 0.32130477
v 0.41032234 0.55472034 0.39770362
v 0.76839036 0.53791004 0.37417588
v 0.7764236 0.5552669 0.4166215
v 0.76763237 0.57426167 0.37017065
v 0.75959915 0.5569049 0.3277248
v 0.42809516 0.5257765 0.3278923
v 0.59437346 0.5571782 0.31435698
v 0.44754493 0.5574515 0.2514935
v 0.5896642 0.5318433 0.3772367
v 0.76839036 0.53791004 0.37417588
v 0.75959915 0.5569049 0.3277248
v 0.44754493 0.5574515 0.2514935
v 0.59007025 0.5803285 0.3718148
v 0.42977208 0.5863954 0.32130477
v 0.59437346 0.5571782 0.31435698
v 0.75959915 0.5569049 0.3277248
v 0.76763237 0.57426167 0.37017065
v 0.42977208 0.5863954 0.32130477
v 0.58536094 0.5549936 0.43469432
v 0.41032234 0.55472034 0.39770362
v 0.59007025 0.5803285 0.3718148
v 0.76763237 0.57426167 0.37017065
v 0.7764236 0.5552669 0.4166215
v 0.41032234 0.55472034 0.39770362
v 0.5896642 0.5318433 0.3772367
v 0.42809516 0.5257765 0.3278923
v 0.58536094 0.5549936 0.43469432
v 0.7764236 0.5552669 0.4166215
v 0.76839036 0.53791004 0.37417588
v -0.6407672 0.521468 -0.6958396
v -0.57924026 0.552578 -0.7466358
v -0.63990146 0.5907237 -0.6967512
v -0.70142853 0.55961365 -0.64595515
v -0.5511919 0.5214107 -0.5826365
v -0.60225964 0.55875874 -0.54065603
v -0.5512313 0.5907417 -0.582802
v -0.50016356 0.55339366 -0.6247826
v -0.6407672 0.521468 -0.6958396
v -0.5511919 0.5214107 -0.5826365
v -0.50016356 0.55339366 -0.6247826
v -0.57924026 0.552578 -0.7466358
v -0.57924026 0.552578 -0.7466358
v -0.50016356 0.55339366 -0.6247826
v -0.5512313 0.5907417 -0.582802
v -0.63990146 0.5907237 -0.6967512
v -0.63990146 0.5907237 -0.6967512
v -0.5512313 0.5907417 -0.582802
v -0.60225964 0.55875874 -0.54065603
v -0.70142853 0.55961365 -0.64595515
v -0.70142853 0.55961365 -0.64595515
v -0.60225964 0.55875874 -0.54065603
v -0.5511919 0.5214107 -0.5826365
v -0.6407672 0.521468 -0.6958396
v -0.6265007 2.4132967 0.3658309
v -0.5511985 2.45092 0.36191252
v -0.5341267 2.4573064 0.3807976
v -0.6406266 2.4041057 0.3862454
v -0.5482474 2.4481115 0.4012784
v -0.6235591 2.410497 0.40506425
v -0.58529305 2.428724 0.41131055
v -0.16446978 2.218678 0.2512246
v -0.14132173 2.244286 0.2922817
v -0.5341267 2.4573064 0.3807976
v -0.5511985 2.45092 0.36191252
v -0.25706536 2.086662 0.25511253
v -0.6265007 2.4132967 0.3658309
v -0.27228904 2.0575945 0.2975996
v -0.6406266 2.4041057 0.3862454
v -0.38397145 3.2942126 0.3734298
v -0.5069178 3.2982965 0.3930679
v -0.49825218 3.297306 0.31349006
v -0.41132507 3.2944229 0.29953814
vt 0.74589014 0.091861986
vt 0.74962616 0.091861986
vt 0.74962616 0.09592541
vt 0.74589014 0.094523154
vt 0.74589014 0.10170027
vt 0.7508701 0.10304209
vt 0.7508701 0.10816129
vt 0.74589014 0.10816129
vt 0.74589014 0.12135812
vt 0.7508701 0.12106439
vt 0.7508701 0.12476858
vt 0.74589014 0.12624344
vt 0.74589014 0.13329276
vt 0.7511279 0.13177523
vt 0.7511279 0.13607976
vt 0.74589014 0.13607976
vt 0.75565124 0.0982609
vt 0.75565124 0.091861986
vt 0.7732542 0.091861986
vt 0.7732542 0.0982609
vt 0.75565124 0.113755845
vt 0.784498 0.091861986
vt 0.7732542 0.12912217
vt 0.75565124 0.12912217
vt 0.75565124 0.13607976
vt 0.7732542 0.13607976
vt 0.784498 0.0982609
vt 0.79880184 0.091861986
vt 0.784498 0.12912217
vt 0.784498 0.13607976
vt 0.79880184 0.0982609
vt 0.80959505 0.091861986
vt 0.80959505 0.0982609
vt 0.79880184 0.12912217
vt 0.79880184 0.13607976
vt 0.80959505 0.12912217
vt 0.80959505 0.13607976
vt 0.74589014 0.0982609
vt 0.74589014 0.094523154
vt 0.74962616 0.09592541
vt 0.75565124 0.0982609
vt 0.75565124 0.0982609
vt 0.74962616 0.09592541
vt 0.74962616 0.091861986
vt 0.75565124 0.091861986
vt 0.74589014 0.113755845
vt 0.74589014 0.10816129
vt 0.7508701 0.10816129
vt 0.75565124 0.113755845
vt 0.75565124 0.113755845
vt 0.7508701 0.10816129
vt 0.7508701 0.10304209
vt 0.75565124 0.0982609
vt 0.75565124 0.0982609
vt 0.7508701 0.10304209
vt 0.74589014 0.10170027
vt 0.74589014 0.0982609
vt 0.74589014 0.12912217
vt 0.74589014 0.12624344
vt 0.7508701 0.12476858
vt 0.75565124 0.12912217
vt 0.75565124 0.12912217
vt 0.7508701 0.12476858
vt 0.7508701 0.12106439
vt 0.75565124 0.113755845
vt 0.75565124 0.113755845
vt 0.7508701 0.12106439
vt 0.74589014 0.12135812
vt 0.74589014 0.113755845
vt 0.75565124 0.13607976
vt 0.7511279 0.13607976
vt 0.7511279 0.13177523
vt 0.75565124 0.12912217
vt 0.75565124 0.12912217
vt 0.7511279 0.13177523
vt 0.74589014 0.13329276
vt 0.74589014 0.12912217
vt 0.55035216 0.11932038
vt 0.55035216 0.12073804
vt 0.5378178 0.12073804
vt 0.53808016 0.11932038
vt 0.55035216 0.11499873
vt 0.5209642 0.12073804
vt 0.53934723 0.11499873
vt 0.55035216 0.113138765
vt 0.5396096 0.113138765
vt 0.52140933 0.11932038
vt 0.50781673 0.12073804
vt 0.5082199 0.11932038
vt 0.52355915 0.11499873
vt 0.5240044 0.113138765
vt 0.5131541 0.11499873
vt 0.5094438 0.11745348
vt 0.51426154 0.113138765
vt 0.5131541 0.11499873
vt 0.5131541 0.11499873
vt 0.51426154 0.113138765
vt 0.5094438 0.11745348
vt 0.5094438 0.11745348
vt 0.5082199 0.11932038
vt 0.5082199 0.11932038
vt 0.50781673 0.12073804
vt 0.47603163 0.116701
vt 0.47603163 0.1202588
vt 0.47603163 0.116701
vt 0.47603163 0.1131432
vt 0.5059862 0.116701
vt 0.5059862 0.1131432
vt 0.5059862 0.116701
vt 0.5059862 0.1202588
vt 0.47603163 0.116701
vt 0.5059862 0.116701
vt 0.5059862 0.1202588
vt 0.47603163 0.1202588
vt 0.47603163 0.1202588
vt 0.5059862 0.1202588
vt 0.5059862 0.116701
vt 0.47603163 0.116701
vt 0.47603163 0.116701
vt 0.5059862 0.116701
vt 0.5059862 0.1131432
vt 0.47603163 0.1131432
vt 0.47603163 0.1131432
vt 0.5059862 0.1131432
vt 0.5059862 0.116701
vt 0.47603163 0.116701
vt 0.47603163 0.116701
vt 0.47603163 0.1202588
vt 0.47603163 0.116701
vt 0.47603163 0.1131432
vt 0.5059862 0.116701
vt 0.5059862 0.1131432
vt 0.5059862 0.116701
vt 0.5059862 0.1202588
vt 0.47603163 0.116701
vt 0.4910089 0.1202588
vt 0.47603163 0.1202588
vt 0.4910089 0.116701
vt 0.5059862 0.116701
vt 0.5059862 0.1202588
vt 0.47603163 0.1202588
vt 0.4910089 0.116701
vt 0.47603163 0.116701
vt 0.4910089 0.1202588
vt 0.5059862 0.1202588
vt 0.5059862 0.116701
vt 0.47603163 0.116701
vt 0.4910089 0.1131432
vt 0.47603163 0.1131432
vt 0.4910089 0.116701
vt 0.5059862 0.116701
vt 0.5059862 0.1131432
vt 0.47603163 0.1131432
vt 0.4910089 0.116701
vt 0.47603163 0.116701
vt 0.4910089 0.1131432
vt 0.5059862 0.1131432
vt 0.5059862 0.116701
vt 0.47603163 0.116701
vt 0.47603163 0.1202588
vt 0.47603163 0.116701
vt 0.47603163 0.1131432
vt 0.5059862 0.116701
vt 0.5059862 0.1131432
vt 0.5059862 0.116701
vt 0.5059862 0.1202588
vt 0.47603163 0.116701
vt 0.5059862 0.116701
vt 0.5059862 0.1202588
vt 0.47603163 0.1202588
vt 0.47603163 0.1202588
vt 0.5059862 0.1202588
vt 0.5059862 0.116701
vt 0.47603163 0.116701
vt 0.47603163 0.116701
vt 0.5059862 0.116701
vt 0.5059862 0.1131432
vt 0.47603163 0.1131432
vt 0.47603163 0.1131432
vt 0.5059862 0.1131432
vt 0.5059862 0.116701
vt 0.47603163 0.116701
vt 0.80959505 0.12912217
vt 0.80959505 0.0982609
vt 0.80959505 0.091861986
vt 0.80959505 0.13607976
vt 0.80959505 0.091861986
vt 0.80959505 0.13607976
vt 0.80959505 0.11319562
vt 0.79880184 0.0982609
vt 0.79880184 0.091861986
vt 0.80959505 0.091861986
vt 0.80959505 0.0982609
vt 0.79880184 0.12912217
vt 0.80959505 0.12912217
vt 0.79880184 0.13607976
vt 0.80959505 0.13607976
vt 0.80959505 0.091861986
vt 0.80959505 0.13607976
vt 0.80959505 0.12912217
vt 0.80959505 0.0982609
vn 0.39646903 0.8513373 -0.34356526
vn 0.39646897 0.8513373 -0.34356523
vn 0.39646903 0.8513373 -0.34356526
vn 0.39646903 0.8513373 -0.34356526
vn 0.44219038 0.43382683 -0.7850235
vn 0.44219038 0.43382683 -0.7850235
vn 0.44219038 0.4338269 -0.7850235
vn 0.44219032 0.43382683 -0.7850235
vn -0.52233315 0.37404466 -0.7663281
vn -0.5223332 0.37404466 -0.7663281
vn -0.5223332 0.37404466 -0.7663281
vn -0.52233315 0.3740447 -0.76632804
vn -0.49102834 0.86451995 -0.107221864
vn -0.49102834 0.86451995 -0.107221864
vn -0.49102828 0.86451995 -0.10722186
vn -0.4910284 0.86451995 -0.10722188
vn 0.6961451 0.15025212 -0.7020015
vn 0.9054192 0.12764142 -0.404875
vn 0.8926407 0.2647379 -0.36483756
vn 0.5816468 0.27316603 -0.7662032
vn -0.0033185224 0.18055859 -0.9835587
vn 0.89386 0.3043387 -0.3292298
vn -0.51394004 0.1462894 -0.8452603
vn -0.7341218 0.16934949 -0.6575605
vn -0.9498839 0.14824754 -0.27521482
vn -0.9171981 0.036805224 -0.39672774
vn 0.49761865 0.30330032 -0.81264055
vn 0.8842705 0.3480567 -0.31132326
vn -0.53835106 0.10661628 -0.8359492
vn -0.8891462 0.0016347612 -0.45762038
vn 0.5613319 0.3437257 -0.7528341
vn 0.835928 0.47302622 -0.2783352
vn 0.40292197 0.36655435 -0.83862495
vn -0.5517062 0.08454495 -0.82974243
vn -0.94312805 -0.12842664 -0.3066206
vn -0.7417062 -0.14091417 -0.65575546
vn -0.9304176 -0.28993678 -0.22418687
vn 0.24884437 0.63411075 -0.7321066
vn 0.24884439 0.63411075 -0.7321066
vn 0.24884437 0.63411075 -0.7321066
vn 0.24884437 0.6341108 -0.73210657
vn 0.44850385 0.8874501 -0.106191926
vn 0.44850385 0.8874501 -0.10619191
vn 0.44850385 0.8874501 -0.10619191
vn 0.44850385 0.8874501 -0.1061919
vn -0.39650035 0.30415732 -0.8661847
vn -0.39650032 0.30415726 -0.8661847
vn -0.39650035 0.3041573 -0.8661847
vn -0.39650032 0.30415726 -0.8661847
vn 0.24135748 0.917546 -0.31599998
vn 0.24135748 0.917546 -0.31599995
vn 0.24135748 0.917546 -0.31599995
vn 0.24135748 0.917546 -0.31599998
vn 0.89803404 0.43443507 0.069289185
vn 0.89803404 0.43443507 0.06928919
vn 0.89803404 0.43443504 0.069289185
vn 0.89803404 0.43443504 0.069289185
vn -0.92729867 0.35540408 -0.11749486
vn -0.92729867 0.35540408 -0.11749487
vn -0.92729867 0.35540408 -0.11749486
vn -0.92729867 0.35540408 -0.11749486
vn -0.21826392 0.828145 -0.5162719
vn -0.21826391 0.828145 -0.5162719
vn -0.21826388 0.828145 -0.5162719
vn -0.21826391 0.828145 -0.5162719
vn 0.17264132 0.3022102 -0.9374774
vn 0.17264134 0.3022102 -0.9374774
vn 0.17264132 0.3022102 -0.9374774
vn 0.17264132 0.3022102 -0.9374774
vn -0.7450356 0.66447294 -0.058289964
vn -0.7450355 0.664473 -0.05828997
vn -0.7450355 0.664473 -0.058289964
vn -0.7450355 0.664473 -0.05828996
vn -0.6514921 0.48313412 -0.58492696
vn -0.6514921 0.48313406 -0.5849269
vn -0.6514921 0.48313412 -0.58492696
vn -0.6514922 0.4831341 -0.58492684
vn 0.37507445 0.030692963 -0.9264864
vn 0.56772184 -0.20493639 -0.79730356
vn 0.6138135 -0.16773422 -0.771426
vn 0.41533673 0.04468585 -0.9085695
vn -0.15371282 0.5398477 -0.8276091
vn 0.5878527 -0.21824245 -0.77897334
vn -0.18960446 0.45068252 -0.8723161
vn -0.429233 0.7305099 -0.5311444
vn -0.47123194 0.60367477 -0.64305305
vn 0.30780262 0.056855157 -0.94975
vn 0.47515237 -0.32485682 -0.8177397
vn 0.32246822 -0.18850517 -0.92762065
vn -0.17083502 0.39752033 -0.9015503
vn -0.31543294 0.49018598 -0.8125391
vn -0.06463575 0.3409345 -0.9378624
vn 0.11020548 -0.054697063 -0.9924027
vn -0.13510475 0.5023155 -0.85406435
vn -0.254806 0.9635168 0.08191113
vn -0.25777248 0.962733 0.0818445
vn 0.4674302 0.88085294 0.0748809
vn -0.120243296 0.98917645 0.08409281
vn -0.08969917 0.99238926 0.08436583
vn 0.48783606 0.8697979 0.07394371
vn 0.49199522 0.8674689 0.07374567
vn 0.21103427 0.9739653 0.082802184
vn 0.70710677 -3.9582898E-07 -0.70710677
vn 0.70710677 -3.95829E-07 -0.70710677
vn 0.70710677 -3.9582898E-07 -0.70710677
vn 0.70710677 -3.9582898E-07 -0.70710677
vn -0.7071071 -3.641662E-07 0.70710635
vn -0.7071071 -3.641662E-07 0.70710635
vn -0.7071071 -3.641662E-07 0.70710635
vn -0.7071071 -3.641662E-07 0.70710635
vn 0.33464274 -0.87549347 0.34860492
vn 0.33464274 -0.87549347 0.34860492
vn 0.33464274 -0.87549347 0.34860492
vn 0.33464274 -0.87549347 0.3486049
vn 0.333981 0.8754849 0.34926045
vn 0.333981 0.8754849 0.34926048
vn 0.33398104 0.8754849 0.34926048
vn 0.33398104 0.8754849 0.34926048
vn -0.3486055 0.875493 -0.3346434
vn -0.34860548 0.875493 -0.3346434
vn -0.34860548 0.875493 -0.33464336
vn -0.34860548 0.875493 -0.33464336
vn -0.34926066 -0.8754849 -0.333981
vn -0.34926063 -0.8754849 -0.333981
vn -0.34926066 -0.8754849 -0.333981
vn -0.34926063 -0.87548476 -0.33398098
vn -0.96908844 -2.407155E-06 -0.24671336
vn -0.96908844 -2.4071549E-06 -0.24671336
vn -0.96908844 -2.4071553E-06 -0.24671336
vn -0.96908844 -2.4071549E-06 -0.24671336
vn 0.98255795 -1.027555E-06 -0.18595698
vn 0.98255795 -1.027555E-06 -0.18595698
vn 0.98255795 -1.027555E-06 -0.185957
vn 0.98255795 -1.027555E-06 -0.185957
vn 0.14579883 -0.9241924 -0.35300297
vn 0.09189817 -0.9267204 -0.36434054
vn 0.14579883 -0.9241924 -0.35300294
vn 0.08453965 -0.9268466 -0.3657982
vn 0.02687974 -0.9260356 -0.37647787
vn 0.02687974 -0.9260356 -0.37647787
vn 0.14912769 0.9239234 -0.3523158
vn 0.08744898 0.92666763 -0.36556768
vn 0.14912769 0.9239234 -0.35231584
vn 0.09509647 0.9265286 -0.36400765
vn 0.030003693 0.9259132 -0.3765427
vn 0.030003695 0.92591333 -0.37654263
vn -0.07942616 0.92730236 0.36578944
vn -0.023134202 0.92848104 0.37065867
vn -0.07942616 0.92730236 0.36578944
vn -0.025150277 0.92849 0.37050486
vn 0.034590375 0.9266145 0.37441826
vn 0.034590375 0.9266145 0.37441823
vn -0.076487936 -0.9273417 0.3663153
vn -0.022068419 -0.9284756 0.37073714
vn -0.076487936 -0.9273417 0.3663153
vn -0.020271279 -0.92846584 0.3708642
vn 0.03727699 -0.9265601 0.37429506
vn 0.03727699 -0.9265601 0.37429515
vn -0.6359884 -0.0022070631 -0.7716955
vn -0.6359884 -0.0022070634 -0.77169544
vn -0.6359884 -0.0022070631 -0.7716955
vn -0.6359884 -0.0022070634 -0.77169544
vn 0.6359881 0.002203946 0.77169573
vn 0.6359882 0.0022039458 0.7716957
vn 0.6359881 0.002203946 0.77169573
vn 0.6359881 0.0022039458 0.77169573
vn 0.3245048 -0.9175272 -0.22987059
vn 0.32450482 -0.9175272 -0.2298706
vn 0.3245048 -0.9175272 -0.2298706
vn 0.3245048 -0.9175272 -0.22987059
vn 0.3761515 0.88612604 -0.27072248
vn 0.37615147 0.88612616 -0.2707225
vn 0.37615147 0.88612616 -0.2707225
vn 0.37615147 0.88612616 -0.2707225
vn -0.2996423 0.91787815 0.26021934
vn -0.2996423 0.91787815 0.26021937
vn -0.2996423 0.91787815 0.26021934
vn -0.2996423 0.91787815 0.26021937
vn -0.352016 -0.8864876 0.3003739
vn -0.35201594 -0.8864876 0.30037385
vn -0.352016 -0.8864876 0.30037388
vn -0.35201597 -0.8864876 0.30037388
vn -0.440826 0.89236647 0.0967181
vn -0.440826 0.8923666 0.0967181
vn -0.440826 0.8923666 0.09671811
vn -0.44082603 0.89236647 0.09671811
vn -0.440826 0.89236647 0.0967181
vn -0.440826 0.8923666 0.09671811
vn -0.440826 0.89236647 0.0967181
vn 0.054737035 0.4962711 -0.8664403
vn 0.28052518 0.7558172 -0.59164685
vn 0.28052518 0.7558172 -0.59164685
vn -0.0068276976 0.41156316 -0.9113557
vn -0.45284668 -0.21279223 -0.865823
vn -0.5007383 -0.28566733 -0.8171018
vn -0.6224785 -0.50521314 -0.59772927
vn -0.6224785 -0.50521314 -0.59772927
vn 0.031746484 0.99945587 -0.008947184
vn 0.031746484 0.99945587 -0.008947184
vn 0.031746484 0.99945587 -0.008947183
vn 0.031746484 0.99945587 -0.008947184
g obj_outdoor_tree_0
f 3/3/3 2/2/2 1/1/1
f 4/4/4 3/3/3 1/1/1
f 7/7/7 6/6/6 5/5/5
f 8/8/8 7/7/7 5/5/5
f 11/11/11 10/10/10 9/9/9
f 12/12/12 11/11/11 9/9/9
f 15/15/15 14/14/14 13/13/13
f 16/16/16 15/15/15 13/13/13
f 19/19/19 18/18/18 17/17/17
f 20/20/20 19/19/19 17/17/17
f 20/20/20 17/17/17 21/21/21
f 22/22/22 19/19/19 20/20/20
f 23/23/23 20/20/20 21/21/21
f 24/24/24 23/23/23 21/21/21
f 23/23/23 24/24/24 25/25/25
f 26/26/26 23/23/23 25/25/25
f 27/27/27 22/22/22 20/20/20
f 27/27/27 20/20/20 23/23/23
f 28/28/28 22/22/22 27/27/27
f 29/29/29 23/23/23 26/26/26
f 29/29/29 27/27/27 23/23/23
f 30/30/30 29/29/29 26/26/26
f 31/31/31 28/28/28 27/27/27
f 31/31/31 27/27/27 29/29/29
f 32/32/32 28/28/28 31/31/31
f 33/33/33 32/32/32 31/31/31
f 34/34/34 29/29/29 30/30/30
f 34/34/34 31/31/31 29/29/29
f 33/33/33 31/31/31 34/34/34
f 35/35/35 34/34/34 30/30/30
f 36/36/36 33/33/33 34/34/34
f 36/36/36 34/34/34 35/35/35
f 37/37/37 36/36/36 35/35/35
f 40/40/40 39/39/39 38/38/38
f 41/41/41 40/40/40 38/38/38
f 44/44/44 43/43/43 42/42/42
f 45/45/45 44/44/44 42/42/42
f 48/48/48 47/47/47 46/46/46
f 49/49/49 48/48/48 46/46/46
f 52/52/52 51/51/51 50/50/50
f 53/53/53 52/52/52 50/50/50
f 56/56/56 55/55/55 54/54/54
f 57/57/57 56/56/56 54/54/54
f 60/60/60 59/59/59 58/58/58
f 61/61/61 60/60/60 58/58/58
f 64/64/64 63/63/63 62/62/62
f 65/65/65 64/64/64 62/62/62
f 68/68/68 67/67/67 66/66/66
f 69/69/69 68/68/68 66/66/66
f 72/72/72 71/71/71 70/70/70
f 73/73/73 72/72/72 70/70/70
f 76/76/76 75/75/75 74/74/74
f 77/77/77 76/76/76 74/74/74
f 80/80/80 79/79/79 78/78/78
f 81/81/81 80/80/80 78/78/78
f 81/81/81 78/78/78 82/82/82
f 83/83/83 80/80/80 81/81/81
f 84/84/84 81/81/81 82/82/82
f 84/84/84 82/82/82 85/85/85
f 86/86/86 84/84/84 85/85/85
f 87/87/87 83/83/83 81/81/81
f 87/87/87 81/81/81 84/84/84
f 88/88/88 83/83/83 87/87/87
f 89/89/89 88/88/88 87/87/87
f 90/90/90 84/84/84 86/86/86
f 90/90/90 87/87/87 84/84/84
f 91/91/91 90/90/90 86/86/86
f 89/89/89 87/87/87 92/92/92
f 92/92/92 87/87/87 90/90/90
f 92/92/92 90/90/90 91/91/91
f 93/93/93 89/89/89 92/92/92
f 94/94/94 92/92/92 91/91/91
f 97/97/97 96/96/96 95/95/95
f 95/95/95 96/96/96 98/98/98
f 96/96/96 99/99/99 98/98/98
f 98/98/98 99/99/99 100/100/100
f 101/101/101 98/98/98 100/100/100
f 102/102/102 101/101/101 100/100/100
f 105/105/105 104/104/104 103/103/103
f 106/106/106 105/105/105 103/103/103
f 109/109/109 108/108/108 107/107/107
f 110/110/110 109/109/109 107/107/107
f 113/113/113 112/112/112 111/111/111
f 114/114/114 113/113/113 111/111/111
f 117/117/117 116/116/116 115/115/115
f 118/118/118 117/117/117 115/115/115
f 121/121/121 120/120/120 119/119/119
f 122/122/122 121/121/121 119/119/119
f 125/125/125 124/124/124 123/123/123
f 126/126/126 125/125/125 123/123/123
f 129/129/129 128/128/128 127/127/127
f 130/130/130 129/129/129 127/127/127
f 133/133/133 132/132/132 131/131/131
f 134/134/134 133/133/133 131/131/131
f 137/137/137 136/136/136 135/135/135
f 136/136/136 138/138/138 135/135/135
f 139/139/139 138/138/138 136/136/136
f 140/140/140 139/139/139 136/136/136
f 143/143/143 142/142/142 141/141/141
f 142/142/142 144/144/144 141/141/141
f 145/145/145 144/144/144 142/142/142
f 146/146/146 145/145/145 142/142/142
f 149/149/149 148/148/148 147/147/147
f 148/148/148 150/150/150 147/147/147
f 151/151/151 150/150/150 148/148/148
f 152/152/152 151/151/151 148/148/148
f 155/155/155 154/154/154 153/153/153
f 154/154/154 156/156/156 153/153/153
f 157/157/157 156/156/156 154/154/154
f 158/158/158 157/157/157 154/154/154
f 161/161/161 160/160/160 159/159/159
f 162/162/162 161/161/161 159/159/159
f 165/165/165 164/164/164 163/163/163
f 166/166/166 165/165/165 163/163/163
f 169/169/169 168/168/168 167/167/167
f 170/170/170 169/169/169 167/167/167
f 173/173/173 172/172/172 171/171/171
f 174/174/174 173/173/173 171/171/171
f 177/177/177 176/176/176 175/175/175
f 178/178/178 177/177/177 175/175/175
f 181/181/181 180/180/180 179/179/179
f 182/182/182 181/181/181 179/179/179
f 185/185/185 184/184/184 183/183/183
f 183/183/183 186/186/186 185/185/185
f 186/186/186 187/187/187 185/185/185
f 186/186/186 188/188/188 187/187/187
f 188/188/188 189/189/189 187/187/187
f 192/192/192 191/191/191 190/190/190
f 193/193/193 192/192/192 190/190/190
f 193/193/193 190/190/190 194/194/194
f 195/195/195 193/193/193 194/194/194
f 195/195/195 194/194/194 196/196/196
f 197/197/197 195/195/195 196/196/196
f 200/200/200 199/199/199 198/198/198
f 201/201/201 200/200/200 198/198/198
