g obj_window
v -0.29596546 0.66661274 -0.02891135
v 0.00699587 0.66661274 -0.02891135
v 0.00699587 0.95493287 0.09498427
v 0.00699587 0.95493287 0.09498427
v -0.016078196 1.0074499 0.09812822
v 0.43332875 0.25592515 -0.25753313
v 0.45880896 0.24586351 -0.22989054
v 0.44249725 0.27272013 -0.2514203
v -0.44481573 0.24586327 -0.22989027
v -0.41933703 0.25592536 -0.25753307
v -0.4285048 0.27272013 -0.2514203
v 0.37892285 0.6568152 0.42402038
v 0.4320472 0.6145332 -0.07480901
v 0.43204653 0.2782174 -0.19410568
v 0.3789234 0.26600695 0.33838373
v 0.00699587 0.2782174 -0.14820766
v 0.30995762 0.2782174 -0.148208
v 0.30995807 0.66661274 -0.02891135
v 0.00699587 0.66661274 -0.02891135
v 0.035323173 0.82370174 0.65748334
v 0.039369218 1.00745 0.05223025
v 0.4320472 0.6145332 -0.07480901
v 0.37892285 0.6568152 0.42402038
v 0.00699587 0.66661274 -0.02891135
v 0.30995807 0.66661274 -0.02891135
v 0.030070374 1.00745 0.09812791
v 0.00699587 0.95493287 0.09498427
v 0.039245784 1.0127994 0.11077154
v 0.039245784 1.0409824 0.033339523
v 0.49659583 0.65613496 -0.10673438
v 0.49659583 0.62795174 -0.029302396
v 0.039061844 0.8913683 0.06657381
v 0.49659583 0.62795174 -0.029302396
v 0.4318507 0.5572675 -0.055029385
v 0.039245784 1.0127994 0.11077154
v -0.025069961 0.89136815 0.06657413
v -0.025253253 1.0127994 0.11077154
v 0.039061844 0.928249 -0.034754593
v 0.039061844 0.8913683 0.06657381
v 0.4318507 0.5572675 -0.055029385
v 0.43185008 0.5941482 -0.15635812
v 0.039217286 1.0307809 0.0025636351
v 0.43185008 0.5941482 -0.15635812
v 0.48262313 0.64957905 -0.13618298
v 0.039061844 0.928249 -0.034754593
v -0.025224755 1.0307809 0.0025636351
v -0.025069961 0.928249 -0.034754593
v 0.43185008 0.5941482 -0.15635812
v 0.4318507 0.5572675 -0.055029385
v 0.49659583 0.62795174 -0.029302396
v 0.48262313 0.64957905 -0.13618298
v 0.49659583 0.65613496 -0.10673438
v 0.35030547 0.3676498 -0.21686868
v 0.3015021 0.33143148 -0.117360845
v 0.0069959154 0.33143148 -0.117360845
v 0.0069959154 0.36764967 -0.21686837
v 0.35030547 0.3676498 -0.21686868
v 0.0069959154 0.36764967 -0.21686837
v 0.0069959154 0.25592482 -0.25753292
v 0.43332875 0.25592515 -0.25753313
v 0.44249725 0.27272013 -0.2514203
v 0.43905312 0.6137584 -0.13040493
v 0.35030547 0.6757805 -0.10783133
v 0.35030547 0.6757805 -0.10783133
v 0.3015021 0.639562 -0.008323157
v 0.3015021 0.33143148 -0.117360845
v 0.35030547 0.3676498 -0.21686868
v 0.4588082 0.5637342 -0.035922408
v 0.4588082 0.5898911 -0.10778723
v 0.45880896 0.24586351 -0.22989054
v 0.4588082 0.21970649 -0.15802534
v 0.18935603 0.86769897 -0.025502402
v 0.07874531 0.86769897 -0.025502402
v 0.07874602 0.3468161 -0.21197566
v 0.18935603 0.3468162 -0.2119759
v 0.18935603 0.840164 0.050148968
v 0.18935603 0.86769897 -0.025502402
v 0.18935603 0.3468162 -0.2119759
v 0.18935603 0.31928143 -0.13632452
v 0.07874531 0.86769897 -0.025502402
v 0.07874602 0.840164 0.050148968
v 0.07874602 0.3192813 -0.13632423
v 0.07874602 0.3468161 -0.21197566
v -0.36493033 0.26600695 0.33838373
v -0.41805404 0.2782174 -0.19410568
v -0.41805404 0.6145332 -0.07480901
v -0.36493033 0.65681505 0.42402023
v 0.00699587 0.2782174 -0.14820766
v 0.00699587 0.66661274 -0.02891135
v -0.29596546 0.66661274 -0.02891135
v -0.29596546 0.2782174 -0.148208
v -0.41805404 0.6145332 -0.07480901
v -0.025376687 1.0074499 0.052230556
v -0.021330647 0.82370144 0.65748334
v -0.36493033 0.65681505 0.42402023
v -0.025253253 1.0127994 0.11077154
v -0.4826027 0.6279514 -0.029302225
v -0.4826027 0.65613467 -0.10673447
v -0.025253253 1.0409824 0.033339523
v -0.025069961 0.89136815 0.06657413
v -0.41785756 0.5572672 -0.05502951
v -0.4826027 0.6279514 -0.029302225
v -0.025253253 1.0127994 0.11077154
v -0.025069961 0.928249 -0.034754593
v -0.41785756 0.5941481 -0.15635785
v -0.41785756 0.5572672 -0.05502951
v -0.025069961 0.89136815 0.06657413
v -0.025224755 1.0307809 0.0025636351
v -0.46863127 0.64957875 -0.13618305
v -0.41785756 0.5941481 -0.15635785
v -0.025069961 0.928249 -0.034754593
v -0.4826027 0.6279514 -0.029302225
v -0.41785756 0.5572672 -0.05502951
v -0.41785756 0.5941481 -0.15635785
v -0.46863127 0.64957875 -0.13618305
v -0.4826027 0.65613467 -0.10673447
v -0.33631223 0.36764967 -0.21686837
v 0.0069959154 0.36764967 -0.21686837
v 0.0069959154 0.33143148 -0.117360845
v -0.28750882 0.33143148 -0.117361166
v -0.41933703 0.25592536 -0.25753307
v 0.0069959154 0.25592482 -0.25753292
v 0.0069959154 0.36764967 -0.21686837
v -0.33631223 0.36764967 -0.21686837
v -0.4285048 0.27272013 -0.2514203
v -0.42505997 0.6137584 -0.13040493
v -0.33631223 0.67578 -0.10783111
v -0.33631223 0.67578 -0.10783111
v -0.33631223 0.36764967 -0.21686837
v -0.28750882 0.33143148 -0.117361166
v -0.28750882 0.639562 -0.008323157
v -0.44481573 0.5637342 -0.035922408
v -0.44481573 0.21970649 -0.15802534
v -0.44481573 0.24586327 -0.22989027
v -0.44481573 0.5898911 -0.10778723
v -0.17536426 0.86769927 -0.025502576
v -0.17536357 0.3468162 -0.2119759
v -0.06475283 0.3468162 -0.2119759
v -0.06475283 0.86769897 -0.025502402
v -0.17536284 0.8401641 0.05014868
v -0.17536284 0.3192813 -0.13632423
v -0.17536357 0.3468162 -0.2119759
v -0.17536426 0.86769927 -0.025502576
v -0.06475283 0.86769897 -0.025502402
v -0.06475283 0.3468162 -0.2119759
v -0.06475353 0.3192813 -0.13632423
v -0.06475353 0.840164 0.050148968
v 0.039245784 1.0409824 0.033339523
v 0.039245784 1.0127994 0.11077154
v -0.025253253 1.0127994 0.11077154
v -0.025253253 1.0409824 0.033339523
v 0.039061844 0.8913683 0.06657381
v 0.039061844 0.928249 -0.034754593
v -0.025069961 0.928249 -0.034754593
v -0.025069961 0.89136815 0.06657413
v 0.039369218 1.00745 0.05223025
v 0.035323173 0.82370174 0.65748334
v -0.021330647 0.82370144 0.65748334
v -0.025376687 1.0074499 0.052230556
v 0.49659583 0.65613496 -0.10673438
v 0.039245784 1.0409824 0.033339523
v 0.039217286 1.0307809 0.0025636351
v 0.48262313 0.64957905 -0.13618298
v -0.025253253 1.0409824 0.033339523
v -0.4826027 0.65613467 -0.10673447
v -0.46863127 0.64957875 -0.13618305
v -0.025224755 1.0307809 0.0025636351
v -0.025224755 1.0307809 0.0025636351
v 0.039217286 1.0307809 0.0025636351
v 0.039245784 1.0409824 0.033339523
v -0.025253253 1.0409824 0.033339523
v 0.43905312 0.6137584 -0.13040493
v 0.44249725 0.27272013 -0.2514203
v 0.45880896 0.24586351 -0.22989054
v 0.4588082 0.5898911 -0.10778723
v -0.4285048 0.27272013 -0.2514203
v -0.42505997 0.6137584 -0.13040493
v -0.44481573 0.5898911 -0.10778723
v -0.44481573 0.24586327 -0.22989027
vt 0.7502806 0.08721096
vt 0.7565438 0.08721096
vt 0.7565437 0.09472792
vt 0.7565437 0.09472792
vt 0.75588906 0.09472792
vt 0.77371264 0.086687624
vt 0.77371264 0.08693492
vt 0.77407515 0.08680892
vt 0.7737126 0.08693486
vt 0.7737126 0.086687565
vt 0.77407515 0.08680892
vt 0.7384878 0.078501076
vt 0.7491089 0.078501076
vt 0.74913174 0.06864482
vt 0.7385105 0.06864482
vt 0.7565438 0.07715851
vt 0.7502908 0.07715851
vt 0.7502806 0.08721096
vt 0.7565438 0.08721096
vt 0.7384878 0.09279035
vt 0.74913174 0.09279035
vt 0.7491089 0.078501076
vt 0.7384878 0.078501076
vt 0.7565438 0.08721096
vt 0.7502806 0.08721096
vt 0.75588906 0.09472792
vt 0.7565437 0.09472792
vt 0.7621519 0.098745085
vt 0.7654445 0.098745085
vt 0.7654445 0.0779289
vt 0.7621519 0.0779289
vt 0.75919026 0.098745085
vt 0.7621519 0.0779289
vt 0.75919026 0.0779289
vt 0.7621519 0.098745085
vt 0.75919026 0.103115045
vt 0.7621519 0.103115045
vt 0.7704822 0.098745085
vt 0.77293 0.098745085
vt 0.77293 0.0779289
vt 0.7704822 0.0779289
vt 0.76752883 0.098745085
vt 0.7704822 0.0779289
vt 0.76752883 0.0779289
vt 0.7704822 0.098745085
vt 0.76752883 0.103115045
vt 0.7704822 0.103115045
vt 0.76637626 0.07278874
vt 0.7629193 0.07278874
vt 0.7629193 0.07549245
vt 0.76637626 0.07475277
vt 0.76572967 0.07549245
vt 0.77408785 0.089030236
vt 0.77408785 0.09218986
vt 0.7833384 0.09218986
vt 0.7833384 0.089030236
vt 0.7760943 0.08471488
vt 0.7760943 0.07830892
vt 0.77371264 0.07830892
vt 0.77371264 0.086687624
vt 0.77407515 0.08680892
vt 0.78046674 0.08680892
vt 0.78046674 0.08471488
vt 0.7738578 0.089029334
vt 0.7738578 0.09219664
vt 0.7830826 0.09219664
vt 0.7830826 0.089029334
vt 0.78046674 0.08766256
vt 0.78046674 0.08693492
vt 0.77371264 0.08693492
vt 0.77371264 0.08766256
vt 0.7783513 0.08289754
vt 0.780208 0.08289754
vt 0.780208 0.07806947
vt 0.7783513 0.07806947
vt 0.77718085 0.08289754
vt 0.7783513 0.08289754
vt 0.7783513 0.07806947
vt 0.77718085 0.07806947
vt 0.7783513 0.08289754
vt 0.7771808 0.08289754
vt 0.77718085 0.07806947
vt 0.7783513 0.07806947
vt 0.7385105 0.06864487
vt 0.74913174 0.06864487
vt 0.7491089 0.07850111
vt 0.7384878 0.07850111
vt 0.7565438 0.07715851
vt 0.7565438 0.08721096
vt 0.7502806 0.08721096
vt 0.7502908 0.07715851
vt 0.7491089 0.07850111
vt 0.74913174 0.09279035
vt 0.7384878 0.09279035
vt 0.7384878 0.07850111
vt 0.7621519 0.098745085
vt 0.7621519 0.0779289
vt 0.7654445 0.0779289
vt 0.7654445 0.098745085
vt 0.75919026 0.098745085
vt 0.75919026 0.0779289
vt 0.7621519 0.0779289
vt 0.7621519 0.098745085
vt 0.7704822 0.098745085
vt 0.7704822 0.0779289
vt 0.77293 0.0779289
vt 0.77293 0.098745085
vt 0.76752883 0.098745085
vt 0.76752883 0.0779289
vt 0.7704822 0.0779289
vt 0.7704822 0.098745085
vt 0.7629193 0.07549245
vt 0.7629193 0.07278874
vt 0.76637626 0.07278874
vt 0.76637626 0.07475277
vt 0.76572967 0.07549245
vt 0.77408785 0.089030236
vt 0.7833384 0.089030236
vt 0.7833384 0.09218986
vt 0.77408785 0.09218986
vt 0.7737126 0.086687565
vt 0.7737126 0.07830892
vt 0.7760943 0.07830892
vt 0.7760943 0.08471488
vt 0.77407515 0.08680892
vt 0.78046674 0.08680892
vt 0.78046674 0.08471488
vt 0.7738578 0.089029334
vt 0.7830826 0.089029334
vt 0.7830826 0.09219664
vt 0.7738578 0.09219664
vt 0.78046674 0.0876625
vt 0.7737126 0.0876625
vt 0.7737126 0.08693486
vt 0.78046674 0.08693486
vt 0.780208 0.08289754
vt 0.780208 0.07806947
vt 0.7783513 0.07806947
vt 0.7783513 0.08289754
vt 0.7771808 0.08289754
vt 0.77718085 0.07806947
vt 0.7783513 0.07806947
vt 0.7783513 0.08289754
vt 0.7783513 0.08289754
vt 0.7783513 0.07806947
vt 0.77718085 0.07806947
vt 0.77718085 0.08289754
vt 0.7654445 0.098745085
vt 0.7621519 0.098745085
vt 0.7621519 0.103115045
vt 0.7654445 0.103115045
vt 0.77293 0.098745085
vt 0.7704822 0.098745085
vt 0.7704822 0.103115045
vt 0.77293 0.103115045
vt 0.74913174 0.09279035
vt 0.7384878 0.09279035
vt 0.7384878 0.09417849
vt 0.74913174 0.09417849
vt 0.7654445 0.0779289
vt 0.7654445 0.098745085
vt 0.76752883 0.098745085
vt 0.76752883 0.0779289
vt 0.7654445 0.098745085
vt 0.7654445 0.0779289
vt 0.76752883 0.0779289
vt 0.76752883 0.098745085
vt 0.76752883 0.103115045
vt 0.76752883 0.098745085
vt 0.7654445 0.098745085
vt 0.7654445 0.103115045
vt 0.78046674 0.08680892
vt 0.77407515 0.08680892
vt 0.77371264 0.08693492
vt 0.78046674 0.08693492
vt 0.77407515 0.08680892
vt 0.78046674 0.08680892
vt 0.78046674 0.08693486
vt 0.7737126 0.08693486
vn 0.047634106 0.35168973 -0.934904
vn 0.047634106 0.35168973 -0.934904
vn 0.047634106 0.3516897 -0.934904
vn 0.047634106 0.3516897 -0.934904
vn 0.047634106 0.35168973 -0.934904
vn 0.7047439 -0.13093834 -0.6972741
vn 0.7047439 -0.13093834 -0.6972741
vn 0.7047439 -0.13093834 -0.6972741
vn -0.7047667 -0.13093305 -0.6972522
vn -0.7047667 -0.13093303 -0.6972522
vn -0.7047667 -0.13093305 -0.6972522
vn 0.9942268 -0.029107269 0.10327495
vn 0.9942268 -0.029107269 0.10327495
vn 0.9942268 -0.029107263 0.10327494
vn 0.9942268 -0.029107265 0.10327495
vn -5.4680123E-07 0.29361424 -0.95592403
vn -5.468012E-07 0.29361418 -0.95592403
vn -5.468011E-07 0.29361418 -0.95592403
vn -5.4680123E-07 0.29361424 -0.95592403
vn 0.63969773 0.75752133 0.13018548
vn 0.63969785 0.7575213 0.13018548
vn 0.63969773 0.7575213 0.13018548
vn 0.63969773 0.7575213 0.13018548
vn -0.04763483 0.35168883 -0.93490416
vn -0.047634825 0.3516888 -0.93490416
vn -0.047634825 0.35168877 -0.93490416
vn -0.04763483 0.3516888 -0.93490416
vn 0.667101 0.7000398 0.2547949
vn 0.667101 0.7000398 0.2547949
vn 0.667101 0.70003974 0.2547949
vn 0.667101 0.7000398 0.2547949
vn -2.6309806E-07 -0.34202194 0.939692
vn -2.6309803E-07 -0.3420219 0.939692
vn -2.6309803E-07 -0.34202188 0.939692
vn -2.6309806E-07 -0.34202188 0.939692
vn 2.6471625E-06 -0.3420217 0.93969214
vn 2.6471628E-06 -0.3420217 0.93969214
vn -0.6710822 -0.69667244 -0.2535667
vn -0.6710822 -0.6966725 -0.25356674
vn -0.67108226 -0.69667244 -0.25356674
vn -0.6710822 -0.69667244 -0.2535667
vn -2.5884694E-06 0.34201896 -0.93969303
vn -2.5884692E-06 0.34201893 -0.93969303
vn -2.5884692E-06 0.3420189 -0.93969303
vn -2.5884692E-06 0.34201893 -0.93969303
vn -0 0.34201753 -0.93969357
vn -0 0.34201756 -0.93969357
vn 0.7579086 -0.61301666 -0.22312576
vn 0.75790864 -0.61301666 -0.22312576
vn 0.7579086 -0.6130166 -0.22312579
vn 0.7579086 -0.6130167 -0.2231258
vn 0.7579086 -0.61301666 -0.22312579
vn -0 0.93969125 0.34202376
vn -0 0.93969125 0.3420238
vn -0 0.93969125 0.34202376
vn -0 0.93969125 0.34202376
vn -8.4289366E-07 0.34201998 -0.9396926
vn -8.4289366E-07 0.34201998 -0.9396926
vn -8.4289366E-07 0.34201998 -0.9396926
vn -8.4289366E-07 0.34202 -0.9396926
vn -8.4289366E-07 0.34201998 -0.9396926
vn -0.007873922 0.33397862 -0.94254774
vn -0.0078739235 0.33397862 -0.94254774
vn -0.9081845 0.13963373 -0.39459273
vn -0.9081844 0.1396337 -0.39459273
vn -0.9081844 0.1396337 -0.39459273
vn -0.9081844 0.1396337 -0.39459273
vn 1 -6.5670696E-07 4.8390116E-06
vn 1 -6.5670696E-07 4.839011E-06
vn 1 -6.5670696E-07 4.8390116E-06
vn 1 -6.5670696E-07 4.839011E-06
vn -1.2389498E-06 0.3370477 -0.94148755
vn -1.2389498E-06 0.3370477 -0.94148755
vn -1.23895E-06 0.33704773 -0.94148755
vn -1.2389498E-06 0.3370477 -0.94148755
vn 1 0 0
vn 1 0 0
vn 1 0 0
vn 1 0 0
vn -1 -2.0911666E-06 3.9358097E-06
vn -1 -2.0911664E-06 3.9358097E-06
vn -1 -2.0911664E-06 3.935809E-06
vn -1 -2.0911664E-06 3.935809E-06
vn -0.9942268 -0.029107079 0.103274904
vn -0.9942268 -0.029107079 0.10327491
vn -0.9942268 -0.029107079 0.10327491
vn -0.9942268 -0.029107079 0.10327491
vn 5.468023E-07 0.29361415 -0.95592403
vn 5.4680237E-07 0.29361415 -0.95592403
vn 5.4680237E-07 0.29361415 -0.95592403
vn 5.468024E-07 0.29361418 -0.95592403
vn -0.63969797 0.75752115 0.13018538
vn -0.63969797 0.75752115 0.1301854
vn -0.63969797 0.75752115 0.13018538
vn -0.63969797 0.75752115 0.13018538
vn -0.6671019 0.7000392 0.25479463
vn -0.66710186 0.70003915 0.25479463
vn -0.66710186 0.70003915 0.25479463
vn -0.66710186 0.70003915 0.25479463
vn 1.10778515E-07 -0.34202185 0.939692
vn 1.1077852E-07 -0.3420219 0.939692
vn 1.10778515E-07 -0.34202185 0.939692
vn 1.1077851E-07 -0.34202182 0.939692
vn 0.6710833 -0.6966704 -0.25356945
vn 0.6710833 -0.6966704 -0.25356945
vn 0.6710833 -0.6966704 -0.25356945
vn 0.6710833 -0.6966704 -0.25356945
vn 3.330502E-06 0.34201783 -0.9396935
vn 3.330502E-06 0.3420178 -0.9396935
vn 3.3305023E-06 0.34201783 -0.9396935
vn 3.3305016E-06 0.3420178 -0.9396935
vn -0.75790864 -0.6130185 -0.2231206
vn -0.75790864 -0.6130185 -0.22312059
vn -0.7579087 -0.61301845 -0.2231206
vn -0.7579087 -0.61301845 -0.2231206
vn -0.7579087 -0.61301845 -0.22312063
vn -1.7468496E-07 0.93969107 0.34202427
vn -1.7468496E-07 0.93969107 0.3420243
vn -1.7468493E-07 0.93969107 0.3420243
vn -1.7468496E-07 0.93969107 0.34202433
vn 4.9288883E-07 0.34202147 -0.93969214
vn 4.928889E-07 0.34202144 -0.93969214
vn 4.9288883E-07 0.3420214 -0.93969214
vn 4.9288883E-07 0.34202147 -0.93969214
vn 4.928889E-07 0.3420215 -0.93969214
vn 0.0078776395 0.33397862 -0.94254774
vn 0.0078776395 0.33397862 -0.94254774
vn 0.90818346 0.13963461 -0.3945947
vn 0.90818346 0.13963461 -0.39459473
vn 0.90818346 0.13963461 -0.3945947
vn 0.90818346 0.13963461 -0.3945947
vn -1 0 0
vn -1 0 0
vn -1 0 0
vn -1 0 0
vn 1.2136575E-06 0.33704773 -0.94148755
vn 1.2136575E-06 0.33704773 -0.94148755
vn 1.2136575E-06 0.3370477 -0.94148755
vn 1.2136575E-06 0.33704776 -0.94148755
vn -1 -5.0903263E-06 1.23649925E-05
vn -1 -5.0903263E-06 1.23649925E-05
vn -1 -5.090327E-06 1.23649925E-05
vn -1 -5.0903263E-06 1.2364992E-05
vn 1 -2.9350663E-06 8.198627E-06
vn 1 -2.935066E-06 8.198626E-06
vn 1 -2.9350665E-06 8.198626E-06
vn 1 -2.935066E-06 8.198626E-06
vn -0 0.93969256 0.3420204
vn -0 0.93969256 0.3420204
vn -0 0.93969256 0.3420204
vn -0 0.93969256 0.3420204
vn 3.0765358E-07 -0.93969214 -0.34202147
vn 3.0765358E-07 -0.93969214 -0.3420215
vn 3.0765358E-07 -0.93969214 -0.3420215
vn 3.0765358E-07 -0.93969214 -0.34202147
vn -2.9016328E-06 0.95687586 0.2904974
vn -2.9016328E-06 0.95687586 0.29049736
vn -2.901633E-06 0.95687586 0.29049736
vn -2.9016328E-06 0.95687586 0.29049736
vn 0.5459672 0.76571995 -0.3399894
vn 0.5459672 0.76571995 -0.3399894
vn 0.5459672 0.76571995 -0.33998945
vn 0.5459672 0.76571995 -0.3399894
vn -0.54597175 0.7657212 -0.33997947
vn -0.54597175 0.7657212 -0.33997947
vn -0.54597175 0.7657212 -0.33997947
vn -0.54597175 0.7657212 -0.33997947
vn -0 0.9492103 -0.31464237
vn -0 0.9492103 -0.31464237
vn -0 0.9492103 -0.31464237
vn -0 0.9492103 -0.31464237
vn 0.85251206 0.1786204 -0.49124128
vn 0.85251206 0.1786204 -0.49124128
vn 0.85251206 0.17862041 -0.49124128
vn 0.85251206 0.1786204 -0.49124128
vn -0.8525141 0.17861904 -0.49123833
vn -0.8525141 0.17861906 -0.49123833
vn -0.85251397 0.178619 -0.49123833
vn -0.85251397 0.178619 -0.49123833
g obj_window_0
f 3/3/3 2/2/2 1/1/1
f 5/5/5 4/4/4 1/1/1
f 8/8/8 7/7/7 6/6/6
f 11/11/11 10/10/10 9/9/9
f 14/14/14 13/13/13 12/12/12
f 15/15/15 14/14/14 12/12/12
f 18/18/18 17/17/17 16/16/16
f 19/19/19 18/18/18 16/16/16
f 22/22/22 21/21/21 20/20/20
f 23/23/23 22/22/22 20/20/20
f 26/26/26 25/25/25 24/24/24
f 27/27/27 26/26/26 24/24/24
f 30/30/30 29/29/29 28/28/28
f 31/31/31 30/30/30 28/28/28
f 34/34/34 33/33/33 32/32/32
f 33/33/33 35/35/35 32/32/32
f 36/36/36 32/32/32 35/35/35
f 37/37/37 36/36/36 35/35/35
f 40/40/40 39/39/39 38/38/38
f 41/41/41 40/40/40 38/38/38
f 44/44/44 43/43/43 42/42/42
f 43/43/43 45/45/45 42/42/42
f 46/46/46 42/42/42 45/45/45
f 47/47/47 46/46/46 45/45/45
f 50/50/50 49/49/49 48/48/48
f 48/48/48 51/51/51 50/50/50
f 51/51/51 52/52/52 50/50/50
f 55/55/55 54/54/54 53/53/53
f 56/56/56 55/55/55 53/53/53
f 59/59/59 58/58/58 57/57/57
f 60/60/60 59/59/59 57/57/57
f 57/57/57 61/61/61 60/60/60
f 61/61/61 57/57/57 62/62/62
f 57/57/57 63/63/63 62/62/62
f 66/66/66 65/65/65 64/64/64
f 67/67/67 66/66/66 64/64/64
f 70/70/70 69/69/69 68/68/68
f 71/71/71 70/70/70 68/68/68
f 74/74/74 73/73/73 72/72/72
f 75/75/75 74/74/74 72/72/72
f 78/78/78 77/77/77 76/76/76
f 79/79/79 78/78/78 76/76/76
f 82/82/82 81/81/81 80/80/80
f 83/83/83 82/82/82 80/80/80
f 86/86/86 85/85/85 84/84/84
f 87/87/87 86/86/86 84/84/84
f 90/90/90 89/89/89 88/88/88
f 91/91/91 90/90/90 88/88/88
f 94/94/94 93/93/93 92/92/92
f 95/95/95 94/94/94 92/92/92
f 98/98/98 97/97/97 96/96/96
f 99/99/99 98/98/98 96/96/96
f 102/102/102 101/101/101 100/100/100
f 103/103/103 102/102/102 100/100/100
f 106/106/106 105/105/105 104/104/104
f 107/107/107 106/106/106 104/104/104
f 110/110/110 109/109/109 108/108/108
f 111/111/111 110/110/110 108/108/108
f 114/114/114 113/113/113 112/112/112
f 112/112/112 115/115/115 114/114/114
f 112/112/112 116/116/116 115/115/115
f 119/119/119 118/118/118 117/117/117
f 120/120/120 119/119/119 117/117/117
f 123/123/123 122/122/122 121/121/121
f 121/121/121 124/124/124 123/123/123
f 121/121/121 125/125/125 124/124/124
f 124/124/124 125/125/125 126/126/126
f 127/127/127 124/124/124 126/126/126
f 130/130/130 129/129/129 128/128/128
f 131/131/131 130/130/130 128/128/128
f 134/134/134 133/133/133 132/132/132
f 135/135/135 134/134/134 132/132/132
f 138/138/138 137/137/137 136/136/136
f 139/139/139 138/138/138 136/136/136
f 142/142/142 141/141/141 140/140/140
f 143/143/143 142/142/142 140/140/140
f 146/146/146 145/145/145 144/144/144
f 147/147/147 146/146/146 144/144/144
f 150/150/150 149/149/149 148/148/148
f 151/151/151 150/150/150 148/148/148
f 154/154/154 153/153/153 152/152/152
f 155/155/155 154/154/154 152/152/152
f 158/158/158 157/157/157 156/156/156
f 159/159/159 158/158/158 156/156/156
f 162/162/162 161/161/161 160/160/160
f 163/163/163 162/162/162 160/160/160
f 166/166/166 165/165/165 164/164/164
f 167/167/167 166/166/166 164/164/164
f 170/170/170 169/169/169 168/168/168
f 171/171/171 170/170/170 168/168/168
f 174/174/174 173/173/173 172/172/172
f 175/175/175 174/174/174 172/172/172
f 178/178/178 177/177/177 176/176/176
f 179/179/179 178/178/178 176/176/176
