g obj_propup2_4
v -0.19508266 0.1576321 -0.23991233
v -0.40522268 0.1576321 0.085444726
v -0.2474643 0.15763211 -0.29052386
v -0.26841292 0.15763211 0.15871589
v -0.19506061 0.1576321 -0.18974058
v -0.16483247 0.15763213 -0.19226146
v -0.19506061 0.1576321 -0.18974058
v -0.40522268 0.1576321 0.085444726
v -0.19508266 0.1576321 -0.23991233
v -0.19506061 0.1576321 -0.18974058
v -0.112864174 0.056214616 -0.20625368
v -0.16483247 0.15763213 -0.19226146
v -0.2794681 0.056214616 -0.3054998
v -0.20874237 0.056214616 -0.3080219
v -0.2474643 0.15763211 -0.29052386
v -0.19508266 0.1576321 -0.23991233
v -0.112864174 0.056214616 -0.20625368
v -0.19506061 0.1576321 -0.18974058
v -0.14627922 0.16608544 0.28014624
v 0.13616796 0.16608544 -0.11531606
v 0.039205406 0.1660854 0.26599792
v -0.09263506 0.16608544 -0.18894035
v -0.09263506 0.16608544 -0.18894035
v 0.19733258 0.056214616 -0.14830694
v 0.13616796 0.16608544 -0.11531606
v -0.1333781 0.056214616 -0.23634414
v -0.14627922 0.16608544 0.28014624
v -0.1333781 0.056214616 -0.23634414
v -0.09263506 0.16608544 -0.18894035
v -0.1814649 0.056214623 0.2900509
v 0.13616796 0.16608544 -0.11531606
v 0.07002603 0.056214623 0.29459512
v 0.039205406 0.1660854 0.26599792
v 0.19733258 0.056214616 -0.14830694
v -0.19508266 0.1576321 -0.23991233
v -0.20874237 0.056214616 -0.3080219
v -0.112864174 0.056214616 -0.20625368
v -0.2474643 0.15763211 -0.29052386
v -0.40522268 0.1576321 0.085444726
v -0.2794681 0.056214616 -0.3054998
v -0.2474643 0.15763211 -0.29052386
v -0.4220886 0.056214616 0.09586783
v -0.16483247 0.15763213 -0.19226146
v -0.23888576 0.056214616 0.18372525
v -0.26841292 0.15763211 0.15871589
v -0.112864174 0.056214616 -0.20625368
v 0.36433733 0.12393918 0.105283864
v 0.3918325 0.123939194 -0.10224885
v 0.4285001 0.123939194 0.057454437
v 0.2996312 0.123939194 -0.05491174
v 0.2996312 0.123939194 -0.05491174
v 0.40040958 0.056214623 -0.1245932
v 0.3918325 0.123939194 -0.10224885
v 0.27973092 0.056214616 -0.08054341
v 0.36433733 0.12393918 0.105283864
v 0.27973092 0.056214616 -0.08054341
v 0.2996312 0.123939194 -0.05491174
v 0.36158007 0.056214616 0.11446788
v 0.3918325 0.123939194 -0.10224885
v 0.44235831 0.056214616 0.06412126
v 0.4285001 0.123939194 0.057454437
v 0.40040958 0.056214623 -0.1245932
v 0.07002603 0.056214623 0.29459512
v -0.14627922 0.16608544 0.28014624
v 0.039205406 0.1660854 0.26599792
v -0.1814649 0.056214623 0.2900509
v -0.4220886 0.056214616 0.09586783
v -0.26841292 0.15763211 0.15871589
v -0.23888576 0.056214616 0.18372525
v -0.40522268 0.1576321 0.085444726
v 0.44235831 0.056214616 0.06412126
v 0.36433733 0.12393918 0.105283864
v 0.4285001 0.123939194 0.057454437
v 0.36158007 0.056214616 0.11446788
vt 0.3852889 0.7422729
vt 0.39417636 0.75227183
vt 0.39417636 0.7422729
vt 0.3765964 0.75227183
vt 0.3852889 0.7422729
vt 0.3765964 0.7422729
vt 0.3852889 0.7422729
vt 0.39417636 0.75227183
vt 0.3852889 0.7422729
vt 0.3852892 0.7420264
vt 0.37664786 0.73969823
vt 0.37664786 0.7420264
vt 0.39411792 0.73969823
vt 0.3938806 0.73969823
vt 0.39411792 0.7420264
vt 0.3938912 0.7420264
vt 0.3938912 0.73969823
vt 0.39381796 0.7420264
vt 0.39419138 0.7523239
vt 0.3765742 0.74222535
vt 0.3765742 0.7523239
vt 0.39419138 0.74222535
vt 0.394172 0.74205226
vt 0.37659287 0.7397037
vt 0.37659287 0.74205226
vt 0.394172 0.7397037
vt 0.39662743 0.74214286
vt 0.3944456 0.7397037
vt 0.3944456 0.74214286
vt 0.39662743 0.7397037
vt 0.37630993 0.74214286
vt 0.37421608 0.7397037
vt 0.37421608 0.74214286
vt 0.37630993 0.7397037
vt 0.3852892 0.7420264
vt 0.3852892 0.73969823
vt 0.37664786 0.73969823
vt 0.39411792 0.7420264
vt 0.39672387 0.7421425
vt 0.39431307 0.73969823
vt 0.39431307 0.7421425
vt 0.39672387 0.73969823
vt 0.37642473 0.7421425
vt 0.37423605 0.73969823
vt 0.37423605 0.7421425
vt 0.37642473 0.73969823
vt 0.39418003 0.75197
vt 0.37660348 0.74223536
vt 0.37660348 0.75197
vt 0.39418003 0.74223536
vt 0.3941722 0.7420867
vt 0.376594 0.73979074
vt 0.376594 0.7420867
vt 0.3941722 0.73979074
vt 0.39662027 0.7421501
vt 0.3944273 0.73979074
vt 0.3944273 0.7421501
vt 0.39662027 0.73979074
vt 0.37633854 0.7421501
vt 0.37440163 0.73979074
vt 0.37440163 0.7421501
vt 0.37633854 0.73979074
vt 0.37659287 0.7397037
vt 0.394172 0.74205226
vt 0.37659287 0.74205226
vt 0.394172 0.7397037
vt 0.3852892 0.73969823
vt 0.3852892 0.7420264
vt 0.37664786 0.73969823
vt 0.39411792 0.7420264
vt 0.376594 0.73979074
vt 0.3941722 0.7420867
vt 0.376594 0.7420867
vt 0.3941722 0.73979074
vn 1.1288891E-07 1 0
vn -0 1 0
vn 1.1288891E-07 1 0
vn -6.4909506E-07 1 -1.6419874E-07
vn -6.4909506E-07 1 -1.6419874E-07
vn -6.4909506E-07 1 -1.6419875E-07
vn -6.4909506E-07 1 -1.6419874E-07
vn -0 1 0
vn 1.1288891E-07 1 0
vn -0.082735 0.09447925 -0.99208295
vn -0.082735 0.09447925 -0.99208295
vn -0.08273499 0.09447924 -0.99208295
vn -0.03519666 0.15685251 -0.9869947
vn -0.03519666 0.15685251 -0.9869947
vn -0.03519666 0.1568525 -0.9869947
vn 0.77685577 0.62967855 -0.00034141494
vn 0.77685565 0.62967855 -0.0003414149
vn 0.77685577 0.62967855 -0.00034141494
vn -0 1 0
vn -0 1 0
vn 1.0951673E-07 1 0
vn -0 1 0
vn 0.24489896 0.30610192 -0.91995984
vn 0.24489896 0.30610195 -0.91995984
vn 0.27866602 0.41516975 -0.8660135
vn 0.24489896 0.3061019 -0.91995984
vn -0.9510036 0.29672348 -0.08687529
vn -0.9510036 0.29672343 -0.08687528
vn -0.91684556 0.38522822 -0.10484931
vn -0.9510036 0.29672346 -0.0868753
vn 0.8757507 0.4119418 0.25172335
vn 0.8757507 0.41194186 0.25172335
vn 0.91868323 0.31850982 0.23360765
vn 0.8757507 0.4119418 0.25172332
vn 0.6474976 0.3628423 -0.6701436
vn 0.64749765 0.3628423 -0.67014354
vn 0.68428665 0.3407881 -0.6446823
vn 0.64749753 0.3628423 -0.67014354
vn -0.935312 0.121386915 -0.33235037
vn -0.935312 0.121386886 -0.33235037
vn -0.870852 0.3287694 -0.36541408
vn -0.935312 0.1213869 -0.33235037
vn 0.8693037 0.40669122 0.28091523
vn 0.8693037 0.40669122 0.2809152
vn 0.9055304 0.32954118 0.2672401
vn 0.8693037 0.4066912 0.28091523
vn -0 1 0
vn -0 1 0
vn -1.2780079E-07 1 0
vn -0 1 0
vn -0.31195012 0.41511026 -0.8546173
vn -0.31195012 0.41511026 -0.8546173
vn -0.44455436 0.22937985 -0.8658847
vn -0.31195015 0.41511026 -0.8546173
vn -0.9183622 0.089659214 0.38545045
vn -0.9183622 0.089659214 0.38545045
vn -0.9193974 0.12960795 0.37136245
vn -0.9183622 0.089659214 0.38545048
vn 0.9580875 0.19160363 -0.21297024
vn 0.9580875 0.19160362 -0.21297026
vn 0.95965564 0.174681 -0.22033517
vn 0.9580875 0.19160363 -0.21297024
vn -0.01798364 0.095480986 0.99526876
vn -0.017983641 0.095480986 0.99526876
vn 0.07322354 0.27039927 0.95995975
vn -0.01798364 0.095480986 0.99526876
vn -0.4655126 0.16674599 0.8691914
vn -0.4655126 0.16674602 0.8691915
vn -0.4304137 0.096011855 0.8975109
vn -0.4655126 0.16674599 0.8691914
vn 0.52664304 0.09314378 0.84496826
vn 0.52664304 0.09314379 0.84496826
vn 0.58591306 0.19726706 0.78599715
vn 0.5266431 0.09314379 0.84496826
g obj_propup2_4_0
f 3/3/3 2/2/2 1/1/1
f 5/5/5 2/2/2 4/4/4
f 6/6/6 5/5/5 4/4/4
f 9/9/9 8/8/8 7/7/7
f 12/12/12 11/11/11 10/10/10
f 15/15/15 14/14/14 13/13/13
f 18/18/18 17/17/17 16/16/16
f 21/21/21 20/20/20 19/19/19
f 22/22/22 19/19/19 20/20/20
f 25/25/25 24/24/24 23/23/23
f 26/26/26 23/23/23 24/24/24
f 29/29/29 28/28/28 27/27/27
f 30/30/30 27/27/27 28/28/28
f 33/33/33 32/32/32 31/31/31
f 34/34/34 31/31/31 32/32/32
f 37/37/37 36/36/36 35/35/35
f 38/38/38 35/35/35 36/36/36
f 41/41/41 40/40/40 39/39/39
f 42/42/42 39/39/39 40/40/40
f 45/45/45 44/44/44 43/43/43
f 46/46/46 43/43/43 44/44/44
f 49/49/49 48/48/48 47/47/47
f 50/50/50 47/47/47 48/48/48
f 53/53/53 52/52/52 51/51/51
f 54/54/54 51/51/51 52/52/52
f 57/57/57 56/56/56 55/55/55
f 58/58/58 55/55/55 56/56/56
f 61/61/61 60/60/60 59/59/59
f 62/62/62 59/59/59 60/60/60
f 65/65/65 64/64/64 63/63/63
f 66/66/66 63/63/63 64/64/64
f 69/69/69 68/68/68 67/67/67
f 70/70/70 67/67/67 68/68/68
f 73/73/73 72/72/72 71/71/71
f 74/74/74 71/71/71 72/72/72
