g obj_end_L
v -0.49871668 1.3814917 -0.21850097
v -0.51793444 1.3814913 -0.19489425
v -0.51793414 1.4059306 -0.21850106
v -0.5179335 1.3814924 -0.5449825
v -0.49871606 1.3814921 -0.5227155
v -0.51793385 1.4059314 -0.5227157
v -0.7814385 1.3814914 -0.1948945
v -0.80065596 1.3816233 -0.21850143
v -0.7814382 1.4059311 -0.21850146
v -0.80065536 1.3816242 -0.5227162
v -0.7814379 1.3814921 -0.5449828
v -0.7814379 1.4059317 -0.5227163
v -0.7814379 1.3814921 -0.5449828
v -0.7915079 1.0051551 -0.544983
v -0.5179335 1.0051554 -0.5449825
v -0.5179335 1.3814924 -0.5449825
v -0.7814385 1.3814914 -0.1948945
v -0.51793444 1.3814913 -0.19489425
v -0.51793414 1.0051548 -0.19489422
v -0.7807013 1.0051551 -0.19489469
v -0.5179335 1.3814924 -0.5449825
v -0.5179335 1.0051554 -0.5449825
v -0.49871606 1.0051553 -0.5227156
v -0.49871606 1.3814921 -0.5227155
v -0.49871668 1.3814917 -0.21850097
v -0.49871638 1.005155 -0.218501
v -0.51793414 1.0051548 -0.19489422
v -0.51793444 1.3814913 -0.19489425
v -0.7999181 1.0059876 -0.52271616
v -0.7915079 1.0051551 -0.544983
v -0.7814379 1.3814921 -0.5449828
v -0.80065536 1.3816242 -0.5227162
v -0.7814385 1.3814914 -0.1948945
v -0.7807013 1.0051551 -0.19489469
v -0.7999184 1.0059874 -0.21850139
v -0.80065596 1.3816233 -0.21850143
v -0.49871606 1.3814921 -0.5227155
v -0.49871606 1.0051553 -0.5227156
v -0.49871638 1.005155 -0.218501
v -0.49871668 1.3814917 -0.21850097
v -0.7814379 1.3814921 -0.5449828
v -0.5179335 1.3814924 -0.5449825
v -0.51793385 1.4059314 -0.5227157
v -0.7814379 1.4059317 -0.5227163
v -0.51793444 1.3814913 -0.19489425
v -0.7814385 1.3814914 -0.1948945
v -0.7814382 1.4059311 -0.21850146
v -0.51793414 1.4059306 -0.21850106
v -0.7814382 1.4059311 -0.21850146
v -0.7814379 1.4059317 -0.5227163
v -0.51793385 1.4059314 -0.5227157
v -0.51793414 1.4059306 -0.21850106
v -0.7999181 1.0059876 -0.52271616
v -0.80065536 1.3816242 -0.5227162
v -0.80065596 1.3816233 -0.21850143
v -0.7999184 1.0059874 -0.21850139
v -0.7814382 1.4059311 -0.21850146
v -0.80065596 1.3816233 -0.21850143
v -0.80065536 1.3816242 -0.5227162
v -0.7814379 1.4059317 -0.5227163
v -0.49871668 1.3814917 -0.21850097
v -0.51793414 1.4059306 -0.21850106
v -0.51793385 1.4059314 -0.5227157
v -0.49871606 1.3814921 -0.5227155
vt 0.4136855 0.77051824
vt 0.4153188 0.7696572
vt 0.4136855 0.7696572
vt 0.38534707 0.7698408
vt 0.38721648 0.7705598
vt 0.38721648 0.7698408
vt 0.38534707 0.770822
vt 0.3869803 0.77198416
vt 0.3869803 0.7704178
vt 0.41344932 0.77198404
vt 0.4153188 0.770856
vt 0.41344932 0.7704178
vt 0.37520507 0.7535388
vt 0.38239032 0.7535388
vt 0.38239032 0.7696572
vt 0.37520507 0.7696572
vt 0.42758805 0.7517032
vt 0.42758805 0.7677876
vt 0.4153188 0.7677876
vt 0.4153188 0.7517032
vt 0.38534707 0.7696572
vt 0.38534707 0.7803686
vt 0.38721648 0.7803686
vt 0.38721648 0.77195233
vt 0.4136855 0.77195233
vt 0.4136855 0.7803686
vt 0.4153188 0.7803686
vt 0.4153188 0.76965725
vt 0.38721648 0.7803686
vt 0.38534704 0.7803686
vt 0.38534704 0.7696572
vt 0.38721648 0.7696572
vt 0.4153188 0.7696572
vt 0.4153188 0.7803686
vt 0.4136855 0.7803686
vt 0.4136855 0.7696572
vt 0.38721648 0.77195233
vt 0.38721648 0.7803686
vt 0.4136855 0.7803686
vt 0.4136855 0.77195233
vt 0.38534707 0.7535388
vt 0.38534707 0.7698408
vt 0.38721648 0.7698408
vt 0.38721648 0.7539819
vt 0.4153188 0.7696572
vt 0.4153188 0.7535728
vt 0.4136855 0.753977
vt 0.4136855 0.7696572
vt 0.4136855 0.7965017
vt 0.38721648 0.79644537
vt 0.38721648 0.7814925
vt 0.4136855 0.7814925
vt 0.38721648 0.8089976
vt 0.38721648 0.79807526
vt 0.4136855 0.7980337
vt 0.4136855 0.8089976
vt 0.4136855 0.7965017
vt 0.4136855 0.7980337
vt 0.38721648 0.79807526
vt 0.38721648 0.79644537
vt 0.3869803 0.77198845
vt 0.3869803 0.7704199
vt 0.41344932 0.7704199
vt 0.41344932 0.77198845
vn 0.6621087 0.5206472 0.53901637
vn 0.6621086 0.5206472 0.53901637
vn 0.6621087 0.5206472 0.53901637
vn 0.6505087 0.5115218 -0.56141233
vn 0.6505087 0.5115218 -0.56141233
vn 0.6505087 0.5115219 -0.5614124
vn -0.66010505 0.5218809 0.5402792
vn -0.66010505 0.5218809 0.5402792
vn -0.66010505 0.5218809 0.5402792
vn -0.64847094 0.51267856 -0.5627131
vn -0.648471 0.51267856 -0.5627131
vn -0.648471 0.51267856 -0.5627131
vn 1.5735269E-06 2.8516808E-07 -1
vn 1.5735268E-06 2.8516808E-07 -1
vn 1.573527E-06 2.8516808E-07 -1
vn 1.5735269E-06 2.8516808E-07 -1
vn -1.3138701E-06 -2.0543462E-07 1
vn -1.3138701E-06 -2.0543462E-07 1
vn -1.3138701E-06 -2.0543462E-07 1
vn -1.3138701E-06 -2.0543462E-07 1
vn 0.7570429 0 -0.6533652
vn 0.7570429 0 -0.6533652
vn 0.75704294 0 -0.6533652
vn 0.7570429 0 -0.6533652
vn 0.77551436 6.3313684E-07 0.6313299
vn 0.77551436 6.3313684E-07 0.6313299
vn 0.77551436 6.331368E-07 0.63132983
vn 0.77551436 6.3313684E-07 0.63132983
vn -0.8496086 0.010544645 -0.5273083
vn -0.8496086 0.010544645 -0.5273083
vn -0.8496086 0.010544645 -0.52730834
vn -0.8496086 0.010544645 -0.52730834
vn -0.77553713 -0.0015211351 0.63130015
vn -0.77553713 -0.0015211351 0.63130015
vn -0.77553713 -0.0015211351 0.63130015
vn -0.77553713 -0.0015211351 0.63130015
vn 1 4.082936E-07 1.5152731E-06
vn 1 4.0829363E-07 1.5152729E-06
vn 1 4.0829366E-07 1.5152731E-06
vn 1 4.082936E-07 1.5152729E-06
vn 1.2932146E-06 0.67348605 -0.7391999
vn 1.2932146E-06 0.6734861 -0.7391999
vn 1.2932146E-06 0.6734861 -0.7391999
vn 1.2932146E-06 0.67348605 -0.7391999
vn -0 0.69474965 0.71925163
vn -0 0.69474965 0.7192517
vn -0 0.69474965 0.7192517
vn -0 0.69474953 0.7192517
vn 1.4578098E-06 1 2.2729091E-06
vn 1.4578098E-06 1 2.2729091E-06
vn 1.4578098E-06 1 2.2729091E-06
vn 1.4578097E-06 1 2.2729091E-06
vn -0.9999981 -0.0019630522 -1.5189538E-06
vn -0.9999981 -0.0019630524 -1.5189539E-06
vn -0.9999981 -0.0019630524 -1.5189539E-06
vn -0.9999981 -0.0019630524 -1.5189539E-06
vn -0.7844528 0.6201886 3.7765787E-07
vn -0.7844528 0.6201886 3.7765787E-07
vn -0.7844528 0.6201886 3.776579E-07
vn -0.7844528 0.6201886 3.7765787E-07
vn 0.7860774 0.6181282 2.439913E-06
vn 0.7860774 0.6181282 2.4399128E-06
vn 0.7860774 0.6181282 2.4399124E-06
vn 0.7860774 0.6181282 2.4399128E-06
g obj_end_L_0
f 3/3/3 2/2/2 1/1/1
f 6/6/6 5/5/5 4/4/4
f 9/9/9 8/8/8 7/7/7
f 12/12/12 11/11/11 10/10/10
f 15/15/15 14/14/14 13/13/13
f 16/16/16 15/15/15 13/13/13
f 19/19/19 18/18/18 17/17/17
f 20/20/20 19/19/19 17/17/17
f 23/23/23 22/22/22 21/21/21
f 24/24/24 23/23/23 21/21/21
f 27/27/27 26/26/26 25/25/25
f 28/28/28 27/27/27 25/25/25
f 31/31/31 30/30/30 29/29/29
f 32/32/32 31/31/31 29/29/29
f 35/35/35 34/34/34 33/33/33
f 36/36/36 35/35/35 33/33/33
f 39/39/39 38/38/38 37/37/37
f 40/40/40 39/39/39 37/37/37
f 43/43/43 42/42/42 41/41/41
f 44/44/44 43/43/43 41/41/41
f 47/47/47 46/46/46 45/45/45
f 48/48/48 47/47/47 45/45/45
f 51/51/51 50/50/50 49/49/49
f 52/52/52 51/51/51 49/49/49
f 55/55/55 54/54/54 53/53/53
f 56/56/56 55/55/55 53/53/53
f 59/59/59 58/58/58 57/57/57
f 60/60/60 59/59/59 57/57/57
f 63/63/63 62/62/62 61/61/61
f 64/64/64 63/63/63 61/61/61
