g obj_outdoor_camp_deco4
v -0 0.10114305 -0.38064843
v -0.23599286 2.2835213E-17 -0.37292734
v -0 2.6331E-17 -0.43001786
v -0.23093167 0.10114305 -0.32744798
v -0.40875155 1.3284551E-17 -0.21695317
v -0.22156022 0.1238762 -0.3064705
v -7.6828E-08 0.12387622 -0.3570248
v -0.38375348 0.1238762 -0.16835335
v -0.3999853 0.101143025 -0.1821018
v -0.4719856 2.380966E-19 -0.0038884128
v -0.44312033 0.12387622 0.02031789
v -0.46186322 0.101143025 0.01644486
v -0.40875155 -1.28083525E-17 0.20917627
v -0.38375348 0.1238762 0.2089892
v -0.3999853 0.101143025 0.21499151
v -0.23599295 -2.235902E-17 0.3651505
v -0.2215603 0.12387622 0.34710622
v -0.23093171 0.101143025 0.36033773
v -2.30484E-07 -2.585481E-17 0.4222411
v -2.30484E-07 0.12387622 0.3976606
v -2.6889802E-07 0.101143025 0.41353825
v -2.6889802E-07 0.101143025 0.41353825
v 0.23599254 -2.2359034E-17 0.36515075
v -2.30484E-07 -2.585481E-17 0.4222411
v 0.23093134 0.10114305 0.36033797
v 0.40875143 -1.2808374E-17 0.20917663
v 0.22155993 0.12387622 0.34710643
v -2.30484E-07 0.12387622 0.3976606
v 0.3837533 0.123876244 0.20898953
v 0.39998513 0.101143025 0.21499184
v 0.47198558 2.3809456E-19 -0.0038883793
v 0.4431203 0.12387622 0.020317923
v 0.46186316 0.10114305 0.016444933
v 0.40875152 1.3284546E-17 -0.21695311
v 0.38375345 0.1238762 -0.16835335
v 0.39998528 0.101143025 -0.1821018
v 0.23599276 2.2835213E-17 -0.37292734
v 0.22156009 0.12387622 -0.3064705
v 0.23093157 0.10114305 -0.32744798
v -0 2.6331E-17 -0.43001786
v -7.6828E-08 0.12387622 -0.3570248
v -0 0.10114305 -0.38064843
v 0.4431203 0.12387622 0.020317923
v 0.22156009 0.12387622 -0.3064705
v 0.38375345 0.1238762 -0.16835335
v -2.30484E-07 0.12387622 0.3976606
v -7.6828E-08 0.12387622 -0.3570248
v 0.22155993 0.12387622 0.34710643
v 0.3837533 0.123876244 0.20898953
v -0.22156022 0.1238762 -0.3064705
v -0.44312033 0.12387622 0.02031789
v -0.38375348 0.1238762 -0.16835335
v -2.30484E-07 0.12387622 0.3976606
v -7.6828E-08 0.12387622 -0.3570248
v -0.2215603 0.12387622 0.34710622
v -0.38375348 0.1238762 0.2089892
v 0.14641458 0.39605552 -0.048056435
v -0.2808809 0.39605552 -0.051982325
v -0.2532416 0.39605552 -0.080260046
v 0.14641462 0.39605558 0.25684056
v -0.2532416 0.39605558 0.2890442
v -0.28088087 0.39605552 0.2607664
v 0.3888329 0.39605558 0.16345699
v 0.3617995 0.39605552 0.18497087
v 0.3617995 0.39605552 0.02381329
v 0.38883296 0.3960556 0.045327242
v -0.26558742 0.37094522 0.2974289
v 0.14281969 0.25496924 0.25801834
v -0.2987424 0.25496924 0.2977893
v 0.1480428 0.37094522 0.2628199
v 0.38246378 0.25496924 0.16926043
v 0.3725277 0.37094527 0.18558222
v 0.3617995 0.39605552 0.18497087
v 0.14641462 0.39605558 0.25684056
v -0.2532416 0.39605558 0.2890442
v 0.40050653 0.37094522 0.16246134
v 0.41233182 0.25496924 -0.0031975526
v 0.41233182 0.25496924 0.14269097
v 0.40050653 0.37094522 0.03550829
v 0.38883296 0.3960556 0.045327242
v 0.3888329 0.39605558 0.16345699
v 0.3725277 0.37094527 0.012387382
v 0.14281969 0.25496924 -0.11852484
v 0.38246378 0.25496924 -0.029766904
v 0.14804268 0.37094522 -0.06485025
v -0.29874244 0.25496924 -0.1582959
v -0.26558745 0.37094527 -0.09945921
v -0.2532416 0.39605552 -0.080260046
v 0.14641458 0.39605552 -0.048056435
v 0.3617995 0.39605552 0.02381329
v -0.29419318 0.37094522 -0.06906939
v -0.32927975 0.25496927 0.2628667
v -0.32927975 0.25496924 -0.123373225
v -0.29419318 0.37094522 0.26703903
v -0.28088087 0.39605552 0.2607664
v -0.2808809 0.39605552 -0.051982325
v 0.3725277 0.37094527 0.18558222
v 0.41233182 0.25496924 0.14269097
v 0.38246378 0.25496924 0.16926043
v 0.40050653 0.37094522 0.16246134
v 0.3888329 0.39605558 0.16345699
v 0.3617995 0.39605552 0.18497087
v -0.26558742 0.37094522 0.2974289
v -0.28088087 0.39605552 0.2607664
v -0.2532416 0.39605558 0.2890442
v -0.29419318 0.37094522 0.26703903
v -0.32927975 0.25496927 0.2628667
v -0.2987424 0.25496924 0.2977893
v 0.40050653 0.37094522 0.03550829
v 0.38246378 0.25496924 -0.029766904
v 0.41233182 0.25496924 -0.0031975526
v 0.3725277 0.37094527 0.012387382
v 0.3617995 0.39605552 0.02381329
v 0.38883296 0.3960556 0.045327242
v -0.26558745 0.37094527 -0.09945921
v -0.32927975 0.25496924 -0.123373225
v -0.29874244 0.25496924 -0.1582959
v -0.29419318 0.37094522 -0.06906939
v -0.2808809 0.39605552 -0.051982325
v -0.2532416 0.39605552 -0.080260046
v 0.18849535 0.15126134 0.2528622
v -0.18712912 0.32035148 0.25018692
v 0.15271571 0.32035148 0.2494084
v -0.22287199 0.15126133 0.25388592
v 0.2328702 0.15126131 -0.11939413
v 0.18937527 0.32035148 0.21586774
v 0.18937519 0.32035148 -0.033668585
v 0.2328702 0.15126134 0.20875502
v -0.22287203 0.15126131 -0.16377248
v 0.15271555 0.32035148 -0.06663704
v -0.1871292 0.32035148 -0.067415476
v 0.18849528 0.15126131 -0.16274878
v -0.26767123 0.15126134 0.2105295
v -0.22413933 0.32035148 -0.033874273
v -0.22413926 0.32035142 0.21721718
v -0.26767123 0.15126131 -0.11966465
v 0.2328702 0.15126134 0.20875502
v 0.15271571 0.32035148 0.2494084
v 0.18937527 0.32035148 0.21586774
v 0.18849535 0.15126134 0.2528622
v 0.18849528 0.15126131 -0.16274878
v 0.18937519 0.32035148 -0.033668585
v 0.15271555 0.32035148 -0.06663704
v 0.2328702 0.15126131 -0.11939413
v -0.26767123 0.15126131 -0.11966465
v -0.1871292 0.32035148 -0.067415476
v -0.22413933 0.32035148 -0.033874273
v -0.22287203 0.15126131 -0.16377248
v -0.26767123 0.15126134 0.2105295
v -0.18712912 0.32035148 0.25018692
v -0.22287199 0.15126133 0.25388592
v -0.22413926 0.32035142 0.21721718
v -0.46338728 0.34181377 0.06916025
v -0.4843142 0.2694689 0.098307066
v -0.4843142 0.2694689 0.04575239
v -0.46338728 0.34181374 0.11502038
v -0.4562792 0.36154777 0.11763973
v -0.4562792 0.36154777 0.074945256
v -0.45578238 0.34181386 0.12337252
v -0.28442883 0.26946884 0.2503926
v -0.47619575 0.26946896 0.107878365
v -0.27362615 0.34181374 0.24773295
v -0.2726348 0.36154786 0.24119127
v -0.44924992 0.36154777 0.12541531
v -0.2726347 0.36154777 -0.048606023
v -0.4562792 0.36154777 0.074945256
v -0.44924992 0.36154777 0.0671698
v -0.2726348 0.36154786 0.24119127
v -0.44924992 0.36154777 0.12541531
v -0.4562792 0.36154777 0.11763973
v -0.27362612 0.34181374 -0.06355207
v -0.47619575 0.269469 0.03618106
v -0.28442883 0.2694689 -0.10633297
v -0.45578238 0.3418138 0.060808226
v -0.44924992 0.36154777 0.0671698
v -0.2726347 0.36154777 -0.048606023
v -0.45578238 0.3418138 0.060808226
v -0.4843142 0.2694689 0.04575239
v -0.47619575 0.269469 0.03618106
v -0.46338728 0.34181377 0.06916025
v -0.4562792 0.36154777 0.074945256
v -0.44924992 0.36154777 0.0671698
v -0.46338728 0.34181374 0.11502038
v -0.47619575 0.26946896 0.107878365
v -0.4843142 0.2694689 0.098307066
v -0.45578238 0.34181386 0.12337252
v -0.44924992 0.36154777 0.12541531
v -0.4562792 0.36154777 0.11763973
vt 0.25195155 0.51014495
vt 0.22698222 0.50483495
vt 0.22698222 0.51014495
vt 0.25195158 0.504835
vt 0.2269822 0.49813434
vt 0.2547047 0.504835
vt 0.2547047 0.5101448
vt 0.2547047 0.49813423
vt 0.25195158 0.49813434
vt 0.22698222 0.48898104
vt 0.2547047 0.48898104
vt 0.25195158 0.48898104
vt 0.2269822 0.4798278
vt 0.2547047 0.4798278
vt 0.25195158 0.47982785
vt 0.22698222 0.47312713
vt 0.2547047 0.47312713
vt 0.25195158 0.47312713
vt 0.22698222 0.46769944
vt 0.2547047 0.46769944
vt 0.25195158 0.46769944
vt 0.25195158 0.46769944
vt 0.22698222 0.47312713
vt 0.22698222 0.46769944
vt 0.25195158 0.47312713
vt 0.2269822 0.4798278
vt 0.2547047 0.47312713
vt 0.2547047 0.46769944
vt 0.2547047 0.4798278
vt 0.25195158 0.47982785
vt 0.22698222 0.48898104
vt 0.2547047 0.48898104
vt 0.25195158 0.48898104
vt 0.2269822 0.49813434
vt 0.2547047 0.49813423
vt 0.25195158 0.49813434
vt 0.22698222 0.50483495
vt 0.2547047 0.504835
vt 0.25195158 0.504835
vt 0.22698222 0.51014495
vt 0.2547047 0.5101448
vt 0.25195155 0.51014495
vt 0.22275452 0.48937672
vt 0.21143143 0.5079044
vt 0.21972048 0.5000737
vt 0.20010832 0.4679828
vt 0.20010832 0.5107707
vt 0.21143143 0.47084907
vt 0.21972048 0.47867975
vt 0.21143143 0.5079044
vt 0.22275452 0.48937672
vt 0.21972048 0.5000737
vt 0.20010832 0.4679828
vt 0.20010832 0.5107707
vt 0.21143143 0.47084907
vt 0.21972048 0.47867975
vt 0.28012842 0.55153793
vt 0.2994851 0.5516957
vt 0.29823303 0.5528336
vt 0.28012842 0.53927153
vt 0.29823303 0.5379759
vt 0.2994851 0.5391136
vt 0.26914683 0.5430285
vt 0.27037135 0.542163
vt 0.27037135 0.54864657
vt 0.26914683 0.54778105
vt 0.27638817 0.5321142
vt 0.27513683 0.512639
vt 0.27638817 0.512639
vt 0.27513683 0.5321142
vt 0.27422798 0.512639
vt 0.27422798 0.5321142
vt 0.27422798 0.53498685
vt 0.27513683 0.53498685
vt 0.27638817 0.53498685
vt 0.27369016 0.5321142
vt 0.26935607 0.512639
vt 0.27369016 0.512639
vt 0.26935607 0.5321142
vt 0.26935607 0.53498685
vt 0.27369016 0.53498685
vt 0.26532584 0.5321142
vt 0.26353642 0.512639
vt 0.26532584 0.512639
vt 0.26353642 0.5321142
vt 0.25806117 0.512639
vt 0.25806117 0.5321142
vt 0.25799313 0.53498685
vt 0.26346838 0.53498685
vt 0.26532584 0.53498685
vt 0.26935607 0.5321142
vt 0.27369016 0.512639
vt 0.26935607 0.512639
vt 0.27369016 0.5321142
vt 0.27369016 0.53498685
vt 0.26935607 0.53498685
vt 0.27422798 0.5321142
vt 0.27379122 0.512639
vt 0.27422798 0.512639
vt 0.27379122 0.5321142
vt 0.27379122 0.53498685
vt 0.27422798 0.53498685
vt 0.27422798 0.5321142
vt 0.27379122 0.53498685
vt 0.27422798 0.53498685
vt 0.27379122 0.5321142
vt 0.27379122 0.512639
vt 0.27422798 0.512639
vt 0.26935607 0.5321142
vt 0.26532584 0.512639
vt 0.26935607 0.512639
vt 0.26532584 0.5321142
vt 0.26532584 0.53498685
vt 0.26935607 0.53498685
vt 0.2581759 0.5321142
vt 0.25714093 0.512639
vt 0.2581759 0.512639
vt 0.25714093 0.5321142
vt 0.25714093 0.53498685
vt 0.2581759 0.53498685
vt 0.28714278 0.51282704
vt 0.2780648 0.5356673
vt 0.28714278 0.5356673
vt 0.2780648 0.51282704
vt 0.2910118 0.51282704
vt 0.29890293 0.5356673
vt 0.2910118 0.5356673
vt 0.29890293 0.51282704
vt 0.2780648 0.51282704
vt 0.28714278 0.5356673
vt 0.2780648 0.5356673
vt 0.28714278 0.51282704
vt 0.29890293 0.51282704
vt 0.2910118 0.5356674
vt 0.29890293 0.5356673
vt 0.2910118 0.51282704
vt 0.2910118 0.51282704
vt 0.28714278 0.5356673
vt 0.2910118 0.5356673
vt 0.28714278 0.51282704
vt 0.28714278 0.51282704
vt 0.2910118 0.5356673
vt 0.28714278 0.5356673
vt 0.2910118 0.51282704
vt 0.2910118 0.51282704
vt 0.28714278 0.5356673
vt 0.2910118 0.5356673
vt 0.28714278 0.51282704
vt 0.2910118 0.51282704
vt 0.28714278 0.5356673
vt 0.28714278 0.51282704
vt 0.2910118 0.5356673
vt 0.2654819 0.53227067
vt 0.26983273 0.5128747
vt 0.2654819 0.5128747
vt 0.26983273 0.53227067
vt 0.26983273 0.5349152
vt 0.2654819 0.5349152
vt 0.2694986 0.53227067
vt 0.2730527 0.5128747
vt 0.2694986 0.5128747
vt 0.2730527 0.53227067
vt 0.2730527 0.5349152
vt 0.2694986 0.5349152
vt 0.28179342 0.5536386
vt 0.27076295 0.5511169
vt 0.27118513 0.5518106
vt 0.28179342 0.5447859
vt 0.27118513 0.5466139
vt 0.27076295 0.5473076
vt 0.25749186 0.53227067
vt 0.26444802 0.5128747
vt 0.25749186 0.5128747
vt 0.26444802 0.53227067
vt 0.26444802 0.5349152
vt 0.25749186 0.5349152
vt 0.2625696 0.53227067
vt 0.26360342 0.5128747
vt 0.2625696 0.5128747
vt 0.26360342 0.53227067
vt 0.26360342 0.5349152
vt 0.2625696 0.5349152
vt 0.26846468 0.53227067
vt 0.2694986 0.5128747
vt 0.26846468 0.5128747
vt 0.2694986 0.53227067
vt 0.2694986 0.5349152
vt 0.26846468 0.5349152
vn -0.0018752156 0.5755871 -0.8177383
vn -0.40807295 0.3943054 -0.82340735
vn -0.003233975 0.43588528 -0.8999964
vn -0.39317676 0.54203886 -0.7427017
vn -0.7901415 0.26695898 -0.55173296
vn -0.31965426 0.71068543 -0.6266956
vn 0.00075347314 0.72025806 -0.69370586
vn -0.6185958 0.68055075 -0.39267036
vn -0.754992 0.4570995 -0.47015664
vn -0.9929121 0.111978106 -0.039830755
vn -0.7729964 0.6339363 0.024522057
vn -0.9304468 0.3662746 0.010566857
vn -0.85110575 0.039306365 0.5235208
vn -0.65915954 0.59221107 0.46345952
vn -0.7930103 0.32245597 0.5168722
vn -0.4613808 0.05766228 0.88532645
vn -0.35740095 0.5744993 0.7363525
vn -0.43134198 0.32296905 0.84239846
vn 0.0039743297 0.082354456 0.9965951
vn -0.0008767411 0.57217467 0.8201313
vn 0.0018832831 0.32768413 0.9447854
vn 0.0018832831 0.32768413 0.9447854
vn 0.46538988 0.0686601 0.8824387
vn 0.0039743297 0.082354456 0.9965951
vn 0.4340639 0.31723186 0.84318
vn 0.849055 0.050653227 0.5258705
vn 0.35617816 0.5758028 0.7359268
vn -0.0008767411 0.57217467 0.8201313
vn 0.658877 0.5938236 0.46179488
vn 0.79347515 0.31603596 0.52011395
vn 0.9935184 0.10949217 -0.030539943
vn 0.77283394 0.63421756 0.02226347
vn 0.93082285 0.3651476 0.015363137
vn 0.79595846 0.25440243 -0.5492992
vn 0.6191775 0.6794039 -0.39373797
vn 0.7529273 0.46255988 -0.46812254
vn 0.40705687 0.38557628 -0.82803124
vn 0.32105228 0.7096527 -0.6271511
vn 0.3888067 0.5473742 -0.7410876
vn -0.003233975 0.43588528 -0.8999964
vn 0.00075347314 0.72025806 -0.69370586
vn -0.0018752156 0.5755871 -0.8177383
vn -0 1 0
vn -0 1 0
vn 2.8018587E-07 1 -1.8996398E-07
vn -0 1 0
vn -0 1 0
vn -0 1 0
vn -2.8018533E-07 1 -1.8996371E-07
vn -0 1 0
vn -0 1 0
vn -1.1842071E-07 1 -1.3906342E-07
vn -0 1 0
vn -0 1 0
vn -0 1 0
vn -2.8018604E-07 1 1.8996401E-07
vn -0 1 -1.4581263E-07
vn -0 1 0
vn -0 1 0
vn -0 1 0
vn -4.3167637E-07 1 0
vn -1.3898349E-06 1 0
vn -0 1 3.497528E-07
vn 1.3331081E-06 1 3.46067E-06
vn -7.124948E-07 1 -1.371551E-07
vn -3.100748E-06 1 3.2518278E-07
vn 0.08539523 0.08944159 0.9923245
vn 0.21468668 -0.04805318 0.97550017
vn 0.0896829 -0.02254416 0.9957152
vn 0.20926851 0.0895581 0.97374845
vn 0.3306142 -0.08964052 0.9394993
vn 0.32534325 0.004930897 0.9455831
vn 0.32041234 0.16458513 0.9328706
vn 0.1943198 0.24004918 0.95111316
vn 0.077070445 0.28148478 0.9564656
vn 0.96111137 0.27616096 3.3662994E-07
vn 0.994842 0.10143734 0
vn 0.994842 0.10143734 0
vn 0.97303843 0.23064318 0
vn 0.9067996 0.42156193 0
vn 0.9067985 0.4215644 7.268406E-07
vn 0.29888007 0.4260053 -0.8539263
vn 0.18623768 0.40029666 -0.8972615
vn 0.3256718 0.34750617 -0.87930506
vn 0.18433104 0.47995046 -0.85771185
vn 0.07650661 0.43006405 -0.8995508
vn 0.07252353 0.49341244 -0.8667668
vn 0.06760048 0.5837913 -0.80908465
vn 0.17423408 0.5532191 -0.8146111
vn 0.27535936 0.4931441 -0.82521886
vn -0.9360073 0.35198054 0
vn -0.9571563 0.28957158 0
vn -0.9571563 0.28957155 0
vn -0.92699236 0.37508008 0
vn -0.8835171 0.46839875 0
vn -0.88351774 0.46839777 1.0851988E-07
vn 0.6299655 0.12644392 0.7662607
vn 0.65827876 -0.051809438 0.75098926
vn 0.6638734 -0.04815258 0.7462931
vn 0.63559264 0.06670456 0.76913756
vn 0.6089411 0.26374197 0.74808484
vn 0.59884006 0.2741707 0.7524766
vn -0.6769061 0.36538953 0.63897455
vn -0.6288965 0.49379832 0.60054344
vn -0.6172691 0.5049479 0.60332954
vn -0.68842924 0.3257986 0.64801264
vn -0.73104596 0.20779717 0.649917
vn -0.7356295 0.21229942 0.64325595
vn 0.577244 0.42076218 -0.69982034
vn 0.6279428 0.3052424 -0.71590143
vn 0.6335484 0.30229035 -0.7122058
vn 0.577484 0.422096 -0.69881845
vn 0.53828436 0.5213668 -0.66213804
vn 0.5350317 0.5116206 -0.67229867
vn -0.602705 0.56125623 -0.56721956
vn -0.6563196 0.48040122 -0.5817725
vn -0.6598431 0.48134893 -0.5769839
vn -0.59753644 0.5714835 -0.562456
vn -0.54597193 0.65505135 -0.522324
vn -0.5352518 0.66317517 -0.5231675
vn 0.002351742 0.021042146 0.9997758
vn 0.002441026 0.021240417 0.9997714
vn 0.002290352 0.020905817 0.9997788
vn 0.0024880348 0.021344807 0.99976903
vn 0.96847266 0.24911992 -1.8227254E-07
vn 0.96847266 0.2491198 -1.13576775E-07
vn 0.96847254 0.24912009 -2.9817625E-07
vn 0.96847266 0.2491196 0
vn 0.0020498736 0.49469042 -0.8690669
vn 0.0021159276 0.4945798 -0.86912966
vn 0.0019905353 0.4947898 -0.86901045
vn 0.0021629557 0.49450105 -0.86917436
vn -0.9684216 0.24931836 2.3949048E-07
vn -0.9684217 0.24931821 1.3296608E-07
vn -0.9684216 0.24931854 3.7259952E-07
vn -0.9684217 0.24931808 0
vn 0.69066125 0.15771225 0.7057719
vn 0.67471296 0.14588533 0.7235192
vn 0.66826457 0.1411729 0.73040575
vn 0.69570893 0.1615093 0.69993126
vn 0.60897493 0.47929108 -0.63200444
vn 0.58894587 0.4884486 -0.6438638
vn 0.5824007 0.49133995 -0.64760685
vn 0.61429316 0.4767787 -0.6287495
vn -0.60993 0.48433712 -0.6272184
vn -0.5932881 0.48185644 -0.6448439
vn -0.588694 0.4811312 -0.6495785
vn -0.61360496 0.48485294 -0.62322277
vn -0.6813025 0.15682937 0.71500456
vn -0.6651064 0.14500321 0.73253495
vn -0.68641216 0.16061167 0.70925486
vn -0.65859294 0.1403136 0.739302
vn -0.9529759 0.30304593 1.2469852E-07
vn -0.96061754 0.2778741 0
vn -0.96061754 0.27787405 0
vn -0.9500934 0.31196558 2.6131295E-07
vn -0.9408291 0.33888137 2.037298E-07
vn -0.940829 0.33888185 0
vn -0.57391775 0.053375747 0.8171716
vn -0.56797487 0.09093597 0.8180069
vn -0.59647876 -0.003591117 0.8026209
vn -0.55231094 0.2011982 0.8089944
vn -0.5406115 0.27910495 0.79362434
vn -0.5457812 0.094481416 0.832584
vn -1.7620344E-07 1 -2.6190574E-07
vn -2.3700392E-07 1 -1.2698534E-07
vn -0 1 0
vn -2.2549769E-07 1 -2.1303738E-07
vn -3.797438E-07 1 0
vn -0 1 0
vn -0.4959292 0.50271523 -0.7080477
vn -0.51737386 0.42366806 -0.7435251
vn -0.51961255 0.49105445 -0.69919115
vn -0.5148888 0.40755278 -0.7541818
vn -0.5103689 0.42187414 -0.74936354
vn -0.45735982 0.5513962 -0.6976993
vn -0.6763748 0.40822795 -0.6130799
vn -0.6974563 0.39895698 -0.595305
vn -0.69921887 0.39918867 -0.5930779
vn -0.6748583 0.40862244 -0.61448675
vn -0.6726645 0.4196541 -0.6094366
vn -0.6734771 0.4192097 -0.6088447
vn -0.7365906 0.10773924 0.6677024
vn -0.7589853 0.070475385 0.64728254
vn -0.76068985 0.070980504 0.645223
vn -0.7331912 0.1294232 0.667593
vn -0.72965956 0.17444338 0.6611856
vn -0.73030776 0.17542142 0.66021043
g obj_outdoor_camp_deco4_0
f 3/3/3 2/2/2 1/1/1
f 4/4/4 1/1/1 2/2/2
f 2/2/2 5/5/5 4/4/4
f 4/4/4 6/6/6 1/1/1
f 7/7/7 1/1/1 6/6/6
f 6/6/6 4/4/4 8/8/8
f 9/9/9 4/4/4 5/5/5
f 9/9/9 8/8/8 4/4/4
f 5/5/5 10/10/10 9/9/9
f 8/8/8 9/9/9 11/11/11
f 12/12/12 9/9/9 10/10/10
f 12/12/12 11/11/11 9/9/9
f 10/10/10 13/13/13 12/12/12
f 11/11/11 12/12/12 14/14/14
f 15/15/15 12/12/12 13/13/13
f 15/15/15 14/14/14 12/12/12
f 13/13/13 16/16/16 15/15/15
f 14/14/14 15/15/15 17/17/17
f 18/18/18 15/15/15 16/16/16
f 18/18/18 17/17/17 15/15/15
f 16/16/16 19/19/19 18/18/18
f 17/17/17 18/18/18 20/20/20
f 21/21/21 18/18/18 19/19/19
f 21/21/21 20/20/20 18/18/18
f 24/24/24 23/23/23 22/22/22
f 25/25/25 22/22/22 23/23/23
f 23/23/23 26/26/26 25/25/25
f 25/25/25 27/27/27 22/22/22
f 28/28/28 22/22/22 27/27/27
f 27/27/27 25/25/25 29/29/29
f 30/30/30 25/25/25 26/26/26
f 30/30/30 29/29/29 25/25/25
f 26/26/26 31/31/31 30/30/30
f 29/29/29 30/30/30 32/32/32
f 33/33/33 30/30/30 31/31/31
f 33/33/33 32/32/32 30/30/30
f 31/31/31 34/34/34 33/33/33
f 32/32/32 33/33/33 35/35/35
f 36/36/36 33/33/33 34/34/34
f 36/36/36 35/35/35 33/33/33
f 34/34/34 37/37/37 36/36/36
f 35/35/35 36/36/36 38/38/38
f 39/39/39 36/36/36 37/37/37
f 39/39/39 38/38/38 36/36/36
f 37/37/37 40/40/40 39/39/39
f 38/38/38 39/39/39 41/41/41
f 42/42/42 39/39/39 40/40/40
f 42/42/42 41/41/41 39/39/39
f 45/45/45 44/44/44 43/43/43
f 44/44/44 46/46/46 43/43/43
f 47/47/47 46/46/46 44/44/44
f 46/46/46 48/48/48 43/43/43
f 43/43/43 48/48/48 49/49/49
f 52/52/52 51/51/51 50/50/50
f 51/51/51 53/53/53 50/50/50
f 50/50/50 53/53/53 54/54/54
f 55/55/55 53/53/53 51/51/51
f 56/56/56 55/55/55 51/51/51
f 59/59/59 58/58/58 57/57/57
f 57/57/57 58/58/58 60/60/60
f 60/60/60 58/58/58 61/61/61
f 61/61/61 58/58/58 62/62/62
f 63/63/63 57/57/57 60/60/60
f 64/64/64 63/63/63 60/60/60
f 65/65/65 57/57/57 63/63/63
f 66/66/66 65/65/65 63/63/63
f 69/69/69 68/68/68 67/67/67
f 70/70/70 67/67/67 68/68/68
f 68/68/68 71/71/71 70/70/70
f 72/72/72 70/70/70 71/71/71
f 72/72/72 73/73/73 70/70/70
f 74/74/74 70/70/70 73/73/73
f 70/70/70 74/74/74 67/67/67
f 75/75/75 67/67/67 74/74/74
f 78/78/78 77/77/77 76/76/76
f 79/79/79 76/76/76 77/77/77
f 79/79/79 80/80/80 76/76/76
f 81/81/81 76/76/76 80/80/80
f 84/84/84 83/83/83 82/82/82
f 85/85/85 82/82/82 83/83/83
f 83/83/83 86/86/86 85/85/85
f 87/87/87 85/85/85 86/86/86
f 87/87/87 88/88/88 85/85/85
f 89/89/89 85/85/85 88/88/88
f 85/85/85 89/89/89 82/82/82
f 90/90/90 82/82/82 89/89/89
f 93/93/93 92/92/92 91/91/91
f 94/94/94 91/91/91 92/92/92
f 94/94/94 95/95/95 91/91/91
f 96/96/96 91/91/91 95/95/95
f 99/99/99 98/98/98 97/97/97
f 100/100/100 97/97/97 98/98/98
f 100/100/100 101/101/101 97/97/97
f 102/102/102 97/97/97 101/101/101
f 105/105/105 104/104/104 103/103/103
f 106/106/106 103/103/103 104/104/104
f 106/106/106 107/107/107 103/103/103
f 108/108/108 103/103/103 107/107/107
f 111/111/111 110/110/110 109/109/109
f 112/112/112 109/109/109 110/110/110
f 112/112/112 113/113/113 109/109/109
f 114/114/114 109/109/109 113/113/113
f 117/117/117 116/116/116 115/115/115
f 118/118/118 115/115/115 116/116/116
f 118/118/118 119/119/119 115/115/115
f 120/120/120 115/115/115 119/119/119
f 123/123/123 122/122/122 121/121/121
f 124/124/124 121/121/121 122/122/122
f 127/127/127 126/126/126 125/125/125
f 128/128/128 125/125/125 126/126/126
f 131/131/131 130/130/130 129/129/129
f 132/132/132 129/129/129 130/130/130
f 135/135/135 134/134/134 133/133/133
f 136/136/136 133/133/133 134/134/134
f 139/139/139 138/138/138 137/137/137
f 140/140/140 137/137/137 138/138/138
f 143/143/143 142/142/142 141/141/141
f 144/144/144 141/141/141 142/142/142
f 147/147/147 146/146/146 145/145/145
f 148/148/148 145/145/145 146/146/146
f 151/151/151 150/150/150 149/149/149
f 152/152/152 149/149/149 150/150/150
f 155/155/155 154/154/154 153/153/153
f 156/156/156 153/153/153 154/154/154
f 156/156/156 157/157/157 153/153/153
f 158/158/158 153/153/153 157/157/157
f 161/161/161 160/160/160 159/159/159
f 162/162/162 159/159/159 160/160/160
f 162/162/162 163/163/163 159/159/159
f 164/164/164 159/159/159 163/163/163
f 167/167/167 166/166/166 165/165/165
f 166/166/166 168/168/168 165/165/165
f 169/169/169 168/168/168 166/166/166
f 170/170/170 169/169/169 166/166/166
f 173/173/173 172/172/172 171/171/171
f 174/174/174 171/171/171 172/172/172
f 174/174/174 175/175/175 171/171/171
f 176/176/176 171/171/171 175/175/175
f 179/179/179 178/178/178 177/177/177
f 180/180/180 177/177/177 178/178/178
f 180/180/180 181/181/181 177/177/177
f 182/182/182 177/177/177 181/181/181
f 185/185/185 184/184/184 183/183/183
f 186/186/186 183/183/183 184/184/184
f 186/186/186 187/187/187 183/183/183
f 188/188/188 183/183/183 187/187/187
