g obj_flag1
v -0.25175014 0.5981147 0.024507519
v -0.5034995 0.42786005 0.07525671
v -0.5034995 1.7019519 -0.28427884
v -0.2517502 1.7019515 -0.2842788
v -1.8246651E-07 0.42786005 0.07525671
v -2.400875E-07 1.7019519 -0.28427887
v 0.25174975 1.7019519 -0.28427875
v 0.2517497 0.5981147 0.024507519
v 0.5034994 1.7019519 -0.28427887
v 0.5034994 0.42786005 0.07525671
vt 0.0156213045 0.12001448
vt 0.003936345 0.10916866
vt 0.003936345 0.2007402
vt 0.015621295 0.2007402
vt 0.02873224 0.1104966
vt 0.028732164 0.2007402
vt 0.041843284 0.2007402
vt 0.041843276 0.12001445
vt 0.05366137 0.2007402
vt 0.05366137 0.10916877
vn -0 0.27056906 0.9627006
vn 0.005542547 0.27056488 0.96268576
vn 0.0055425474 0.2705649 0.96268576
vn -0 0.27056906 0.9627006
vn -1.2927963E-07 0.27056897 0.9627006
vn -1.2777163E-07 0.270569 0.9627006
vn -0 0.27056897 0.9627006
vn -0 0.270569 0.9627006
vn -0.005542202 0.27056482 0.96268576
vn -0.005542202 0.27056482 0.96268576
g obj_flag1_0
f 3/3/3 2/2/2 1/1/1
f 4/4/4 3/3/3 1/1/1
f 4/4/4 1/1/1 5/5/5
f 6/6/6 4/4/4 5/5/5
f 6/6/6 5/5/5 7/7/7
f 5/5/5 8/8/8 7/7/7
f 7/7/7 8/8/8 9/9/9
f 8/8/8 10/10/10 9/9/9
