g Object004
v -0.020226479 2.8417702 0.7317363
v -0.020226121 -0.008987427 0.42686647
v -0.02022624 -0.008987427 0.5987817
v -0.21890104 8.354664 0.9369912
v -0.25811183 8.394714 0.9439208
v -0.27041817 8.355087 0.8984835
v -0.080118775 8.394714 1.3731189
v -0.03172505 8.355095 1.3691229
v -0.060226917 8.355087 1.4076816
v -5.432007 8.394714 1.3731189
v -5.3870754 8.355087 1.4076816
v -5.4497423 8.362934 1.3700964
v -5.5702057 8.355087 0.8984835
v -5.587492 8.394714 0.9439208
v -5.611207 8.35989 0.93780273
v -0.06022632 0.086933136 0.64329886
v -0.02022624 -0.008987427 0.5987817
v -0.041889668 -0.015361786 0.59849715
v -0.021226048 -0.008998871 0.16966999
v -0.063673735 0.08837128 0.1341677
v -0.042400837 -0.015695572 0.16934434
v -0.16482472 4.132906 0.3227981
v -0.09261489 2.8454914 0.30279872
v -0.11668849 4.1328716 0.3643817
v -0.11668849 4.1328716 0.3643817
v -0.11442399 4.2129173 0.36837927
v -0.1668148 4.212492 0.33009887
v -0.1668148 4.212492 0.33009887
v -0.16482472 4.132906 0.3227981
v -0.11668849 4.1328716 0.3643817
v -5.587492 8.394714 0.9439208
v -0.25811183 8.394714 0.9439208
v -0.080118775 8.394714 1.3731189
v -5.432007 8.394714 1.3731189
v -5.3870754 8.355087 1.4076816
v -0.060226917 8.355087 1.4076816
v -0.06022668 4.212492 0.83929694
v -2.7182207 4.212492 0.83929694
v -0.06022656 4.132906 0.8319962
v -2.666834 4.132906 0.8319962
v -0.06022632 0.086933136 0.64329886
v -5.5702057 8.355087 0.8984835
v -0.1668148 4.212492 0.33009887
v -0.27041817 8.355087 0.8984835
v -2.8108482 4.212492 0.3300988
v -2.7577162 4.132906 0.32279804
v -0.16482472 4.132906 0.3227981
v -0.063673735 0.08837128 0.1341677
v -1.9483823 2.8457317 0.30279654
v -0.042400956 -0.01569748 0.34190306
v -0.042400837 -0.015695572 0.16934434
v -2.8252473 4.172863 0.3640211
v -0.44912946 0.6056881 0.41301313
v -2.7472725 4.172863 0.7945001
v -5.4497423 8.362934 1.3700964
v -5.611207 8.35989 0.93780273
v -1.88344 2.84309 0.7318105
v -0.04188955 -0.015361786 0.42611805
v -0.041889668 -0.015361786 0.59849715
v -0.021226168 -0.009000778 0.34181038
v -0.09261489 2.8454914 0.30279872
v -0.021226048 -0.008998871 0.16966999
v -0.028392076 0.6023197 0.41263288
v -0.11668849 4.1328716 0.3643817
v -0.21890104 8.354664 0.9369912
v -0.032637835 4.212557 0.8009982
v -0.03172505 8.355095 1.3691229
v -0.11442399 4.2129173 0.36837927
v -0.11668849 4.1328716 0.3643817
v -0.028392434 4.1328716 0.790202
v -0.028392076 0.6023197 0.41263288
v -0.020226121 -0.008987427 0.42686647
v -0.020226479 2.8417702 0.7317363
v -0.028392434 4.1328716 0.790202
v -0.020226479 2.8417702 0.7317363
v -0.06022656 4.132906 0.8319962
v -0.032637835 4.212557 0.8009982
v -0.06022668 4.212492 0.83929694
v -2.7472725 4.172863 0.7945001
v -2.7182207 4.212492 0.83929694
v -2.666834 4.132906 0.8319962
v -1.88344 2.84309 0.7318105
v -2.8108482 4.212492 0.3300988
v -2.8252473 4.172863 0.3640211
v -1.9483823 2.8457317 0.30279654
v -2.7577162 4.132906 0.32279804
v -0.25811183 8.394714 0.9439208
v -5.587492 8.394714 0.9439208
v -5.5702057 8.355087 0.8984835
v -0.27041817 8.355087 0.8984835
v -0.080118775 8.394714 1.3731189
v -0.25811183 8.394714 0.9439208
v -0.21890104 8.354664 0.9369912
v -0.03172505 8.355095 1.3691229
v -0.27041817 8.355087 0.8984835
v -0.1668148 4.212492 0.33009887
v -0.11442399 4.2129173 0.36837927
v -0.21890104 8.354664 0.9369912
v -0.06022632 0.086933136 0.64329886
v -0.06022656 4.132906 0.8319962
v -0.020226479 2.8417702 0.7317363
v -0.02022624 -0.008987427 0.5987817
v -5.432007 8.394714 1.3731189
v -0.080118775 8.394714 1.3731189
v -0.060226917 8.355087 1.4076816
v -5.3870754 8.355087 1.4076816
v -5.587492 8.394714 0.9439208
v -5.432007 8.394714 1.3731189
v -5.4497423 8.362934 1.3700964
v -5.611207 8.35989 0.93780273
v -5.3870754 8.355087 1.4076816
v -2.7182207 4.212492 0.83929694
v -2.7472725 4.172863 0.7945001
v -5.4497423 8.362934 1.3700964
v -0.063673735 0.08837128 0.1341677
v -2.7577162 4.132906 0.32279804
v -1.9483823 2.8457317 0.30279654
v -0.042400837 -0.015695572 0.16934434
v -0.042400837 -0.015695572 0.16934434
v -0.042400956 -0.01569748 0.34190306
v -0.021226168 -0.009000778 0.34181038
v -0.021226048 -0.008998871 0.16966999
v -0.16482472 4.132906 0.3227981
v -0.063673735 0.08837128 0.1341677
v -0.021226048 -0.008998871 0.16966999
v -0.09261489 2.8454914 0.30279872
v -0.06022668 4.212492 0.83929694
v -0.060226917 8.355087 1.4076816
v -0.03172505 8.355095 1.3691229
v -0.032637835 4.212557 0.8009982
v -2.666834 4.132906 0.8319962
v -0.06022632 0.086933136 0.64329886
v -0.041889668 -0.015361786 0.59849715
v -1.88344 2.84309 0.7318105
v -2.8108482 4.212492 0.3300988
v -5.5702057 8.355087 0.8984835
v -5.611207 8.35989 0.93780273
v -2.8252473 4.172863 0.3640211
v -0.04188955 -0.015361786 0.42611805
v -0.041889668 -0.015361786 0.59849715
v -0.02022624 -0.008987427 0.5987817
v -0.020226121 -0.008987427 0.42686647
vt 0.245 0.87333333
vt 0.125 0.87333333
vt 0.0050000027 0.75333333
vt 0.98375 0.51125
vt 0.98 0.505
vt 0.9922172 0.50657034
vt 0.02000001 0.505
vt 0.009919757 0.47383758
vt -0.026542256 0.5041904
vt 0.02000001 0.745
vt -0.039762918 0.7456337
vt 0.021752717 0.7655274
vt 0.7466133 0.99765337
vt 0.38529807 0.96938556
vt 0.44348627 0.9950067
vt -0.019510426 0.7705817
vt 0.0050000027 0.75333333
vt 0.0016666676 0.75
vt 0.25333333 0.995
vt 0.22943333 0.97893226
vt 0.25 0.99833333
vt 0.62354887 0.7512398
vt 0.61333334 0.755
vt 0.61333334 0.75333333
vt 0.61333334 0.75333333
vt 0.62375 0.75125
vt 0.6220732 0.751586
vt 0.6220732 0.751586
vt 0.62354887 0.7512398
vt 0.61333334 0.75333333
vt 0.98 0.745
vt 0.98 0.505
vt 0.02000001 0.505
vt 0.02000001 0.745
vt 0.25335416 0.99765337
vt 0.4981617 0.99765337
vt 0.4981617 0.75234663
vt 0.3760075 0.75234663
vt 0.4981617 0.74763393
vt 0.3783691 0.74763393
vt 0.4981617 0.5080487
vt 0.7466133 0.99765337
vt 0.5018479 0.75234663
vt 0.5018479 0.99765337
vt 0.62395996 0.75234663
vt 0.62159806 0.74763393
vt 0.5018479 0.74763393
vt 0.5018479 0.5081337
vt 0.37 0.99833333
vt 0.13 0.87833333
vt 0.25 0.99833333
vt 0.34601358 0.9710136
vt 0.12666667 0.87333333
vt 0.028986417 0.6539864
vt 0.008750005 0.51125
vt 0.48874998 0.99125
vt 0.0016666676 0.63
vt 0.12166666 0.87
vt 0.0016666676 0.75
vt 0.13333334 0.875
vt 0.61333334 0.755
vt 0.25333333 0.995
vt 0.13333334 0.87333333
vt 0.61333334 0.75333333
vt 0.98375 0.51125
vt 0.26375002 0.87125
vt 0.50375 0.99125
vt 0.62375 0.75125
vt 0.61333334 0.75333333
vt 0.25333333 0.87333333
vt 0.13333334 0.87333333
vt 0.125 0.87333333
vt 0.245 0.87333333
vt 0.25333333 0.87333333
vt 0.245 0.87333333
vt 0.24764454 0.88151664
vt 0.26375002 0.87125
vt 0.2588697 0.8783852
vt 0.028986417 0.6539864
vt 0.010826235 0.62946093
vt 0.008996182 0.6280236
vt 0.0016666676 0.63
vt 0.62395996 0.75234663
vt 0.6265462 0.7508328
vt 0.5884121 0.6723307
vt 0.62159806 0.74763393
vt 0.5021341 0.99836725
vt 0.7497259 0.99524164
vt 0.7466133 0.99765337
vt 0.5018479 0.99765337
vt 0.58655554 1.075735
vt 1.0511409 0.57782155
vt 0.98375 0.51125
vt 0.50375 0.99125
vt 0.9939384 0.5003455
vt 0.62500614 0.7462162
vt 0.62375 0.75125
vt 0.98375 0.51125
vt -0.18253605 0.72686887
vt 0.16805083 0.89730006
vt 0.245 0.87333333
vt 0.0050000027 0.75333333
vt 0.2501494 0.9960217
vt 0.4962107 0.9963938
vt 0.4981617 0.99765337
vt 0.25335416 0.99765337
vt 0.54839736 0.93094575
vt 0.052643143 0.46296784
vt 0.008750005 0.51125
vt 0.48874998 0.99125
vt 0.0019985326 0.50996906
vt 0.0013974569 0.63206136
vt 0.028986417 0.6539864
vt 0.008750005 0.51125
vt 0.17013556 1.02602
vt 0.32392824 1.0252695
vt 0.37 0.99833333
vt 0.25 0.99833333
vt 0.25 0.99833333
vt 0.13 0.87833333
vt 0.13333334 0.875
vt 0.25333333 0.995
vt 0.48924497 0.731802
vt -0.040094167 1.0771312
vt 0.25333333 0.995
vt 0.61333334 0.755
vt 0.25330132 0.8766311
vt 0.4980743 0.9997831
vt 0.50375 0.99125
vt 0.26375002 0.87125
vt -0.02686826 0.6744664
vt -0.028404677 0.82933366
vt 0.0016666676 0.75
vt 0.0016666676 0.63
vt 0.36808997 0.9983385
vt 0.49015 0.9977209
vt 0.48874998 0.99125
vt 0.34601358 0.9710136
vt 0.12166666 0.87
vt 0.0016666676 0.75
vt 0.0050000027 0.75333333
vt 0.125 0.87333333
vn 0.9949202 0.010704646 -0.10009534
vn 0.9999647 0.0008933193 -0.008352036
vn 1 0 0
vn 0.6229885 0.51712936 -0.5869093
vn 0.39230612 0.7404847 -0.5456907
vn 0.35609153 0.52591944 -0.7724038
vn 0.59109807 0.6779229 0.4370625
vn 0.59109807 0.6779229 0.4370625
vn 0.59109807 0.6779229 0.4370625
vn -0.48720473 0.19085422 0.8521773
vn -0.4872047 0.19085422 0.8521773
vn -0.48720473 0.19085422 0.8521773
vn -0.567607 0.501267 -0.6531107
vn -0.567607 0.501267 -0.6531107
vn -0.567607 0.501267 -0.6531107
vn 0.10090398 -0.383898 0.91784567
vn 0.10090399 -0.38389796 0.9178457
vn 0.10090399 -0.38389796 0.9178457
vn 0.1089116 -0.29826367 -0.94824946
vn 0.1089116 -0.29826367 -0.94824946
vn 0.10891159 -0.29826367 -0.94824946
vn 0.65030944 0.049052067 -0.75808406
vn 0.70561373 0.050569586 -0.70679
vn 0.64947563 0.049027868 -0.7588001
vn 0.64947563 0.049027868 -0.7588001
vn 0.6192371 0.08829818 -0.78022355
vn 0.6214568 0.0855019 -0.7787689
vn 0.6214568 0.0855019 -0.7787689
vn 0.65030944 0.049052067 -0.75808406
vn 0.64947563 0.049027868 -0.7588001
vn -0 1 0
vn -0 1 0
vn -0 1 0
vn -0 1 0
vn -0 -0.13593146 0.9907183
vn -0 -0.13593146 0.9907183
vn -0 -0.1136695 0.99351865
vn -0 -0.121761225 0.99255943
vn -0 -0.06898635 0.99761754
vn -0 -0.07713161 0.9970209
vn -0 -0.046587672 0.99891424
vn -0 0.13593146 -0.9907183
vn -0 0.11331721 -0.99355894
vn -0 0.13593148 -0.9907183
vn -0 0.12197816 -0.9925328
vn -0 0.07734959 -0.997004
vn -0 0.06863117 -0.9976421
vn -0 0.046587706 -0.99891424
vn -0.8304778 -0.5521739 0.07355726
vn -0.83229077 -0.5543186 0.004800001
vn -0.83227 -0.55437034 0
vn -0.81297517 -0.5517139 0.18623388
vn -0.8324202 -0.5489048 0.07602776
vn -0.81335914 -0.55148613 0.18522963
vn -0.80078405 -0.555411 0.22419521
vn -0.80078405 -0.555411 0.2241952
vn -0.8347607 -0.5456672 0.073633984
vn -0.8403888 -0.54196036 0.0050688307
vn -0.8406465 -0.5415843 0
vn 0.9996593 0.024893517 -0.00784515
vn 0.9947018 0.023509 -0.10007813
vn 0.99968743 0.025001451 0
vn 0.99442095 0.017287772 -0.10405888
vn 0.9801062 0.025835156 -0.19678572
vn 0.95355517 0.052617185 -0.29658717
vn 0.96734154 0.042352263 -0.24991336
vn 0.95355517 0.05261719 -0.2965872
vn 0.9692347 0.040776763 -0.24273719
vn 0.9801062 0.025835156 -0.19678572
vn 0.9801631 0.02594009 -0.1964876
vn 0.99442095 0.017287772 -0.10405888
vn 0.9999647 0.0008933193 -0.008352036
vn 0.9949202 0.010704646 -0.10009534
vn 0.79606205 -0.024904005 0.6047024
vn 0.70833826 -0.032842442 0.7051087
vn 0.79492867 -0.025018541 0.60618687
vn 0.8006056 -0.05063774 0.59704816
vn 0.801223 -0.054414425 0.5958866
vn -0.5304971 -0.40619424 0.74402905
vn -0.5250292 -0.41560134 0.7427112
vn -0.5412817 -0.38847306 0.7457229
vn -0.5864955 -0.4104775 0.6982344
vn -0.6517783 -0.36321136 -0.6657796
vn -0.6454401 -0.37382337 -0.66608053
vn -0.5967019 -0.36405835 -0.71512824
vn -0.6360792 -0.38808382 -0.666929
vn 0.39230612 0.7404847 -0.5456907
vn -0 0.7536487 -0.6572774
vn -0 0.7536487 -0.6572774
vn 0.35609153 0.52591944 -0.7724038
vn 0.62984544 0.7292429 -0.267394
vn 0.39230612 0.7404847 -0.5456907
vn 0.6229885 0.51712936 -0.5869093
vn 0.6298454 0.7292429 -0.267394
vn 0.35609153 0.52591944 -0.7724038
vn 0.6214568 0.0855019 -0.7787689
vn 0.6192371 0.08829818 -0.78022355
vn 0.6229885 0.51712936 -0.5869093
vn 0.707107 -0.032942407 0.70633876
vn 0.79492867 -0.025018541 0.60618687
vn 0.70833826 -0.032842442 0.7051087
vn 0.70710695 -0.032942403 0.70633876
vn -0 0.65730834 0.75362176
vn -0 0.6573084 0.75362176
vn -0 0.65730834 0.75362176
vn -0 0.6573084 0.75362176
vn -0.82726616 0.47329912 0.3026855
vn -0.82726616 0.47329912 0.3026855
vn -0.82726616 0.47329912 0.3026855
vn -0.82726616 0.47329912 0.30268553
vn -0.51451725 -0.43325353 0.73997533
vn -0.5250292 -0.41560134 0.7427112
vn -0.5304971 -0.40619424 0.74402905
vn -0.5145172 -0.4332535 0.73997533
vn -0.59625185 -0.36378378 -0.7156432
vn -0.6360792 -0.38808382 -0.666929
vn -0.5967019 -0.36405835 -0.71512824
vn -0.59625185 -0.36378378 -0.7156432
vn 0.30153778 -0.9534542 -1.0342831E-05
vn 0.15161444 -0.9884369 -0.0023438875
vn 0.15124168 -0.988494 -0.002349552
vn 0.3015378 -0.9534542 -1.0342832E-05
vn 0.65030944 0.049052067 -0.75808406
vn 0.7064745 0.050591744 -0.70592797
vn 0.7064745 0.05059174 -0.70592797
vn 0.70561373 0.050569586 -0.70679
vn 0.801223 -0.054414425 0.5958866
vn 0.8051659 -0.080683604 0.5875356
vn 0.8051659 -0.0806836 0.58753556
vn 0.8006056 -0.05063774 0.59704816
vn -0.5412817 -0.38847306 0.7457229
vn -0.58707243 -0.41075423 0.6975865
vn -0.58707243 -0.41075423 0.6975865
vn -0.5864955 -0.4104775 0.6982344
vn -0.6517783 -0.36321136 -0.6657796
vn -0.6603874 -0.34843057 -0.66519517
vn -0.6603874 -0.34843057 -0.66519517
vn -0.6454401 -0.37382337 -0.66608053
vn 0.14047538 -0.99008137 -0.0023685459
vn 0.28227893 -0.9593324 0
vn 0.28227893 -0.9593324 0
vn 0.14404285 -0.98956877 -0.0023101592
g Object004_0
f 3/3/3 2/2/2 1/1/1
f 6/6/6 5/5/5 4/4/4
f 9/9/9 8/8/8 7/7/7
f 12/12/12 11/11/11 10/10/10
f 15/15/15 14/14/14 13/13/13
f 18/18/18 17/17/17 16/16/16
f 21/21/21 20/20/20 19/19/19
f 24/24/24 23/23/23 22/22/22
f 27/27/27 26/26/26 25/25/25
f 30/30/30 29/29/29 28/28/28
f 33/33/33 32/32/32 31/31/31
f 34/34/34 33/33/33 31/31/31
f 37/37/37 36/36/36 35/35/35
f 38/38/38 37/37/37 35/35/35
f 39/39/39 37/37/37 38/38/38
f 40/40/40 39/39/39 38/38/38
f 41/41/41 39/39/39 40/40/40
f 44/44/44 43/43/43 42/42/42
f 43/43/43 45/45/45 42/42/42
f 46/46/46 45/45/45 43/43/43
f 47/47/47 46/46/46 43/43/43
f 48/48/48 46/46/46 47/47/47
f 51/51/51 50/50/50 49/49/49
f 49/49/49 50/50/50 52/52/52
f 50/50/50 53/53/53 52/52/52
f 52/52/52 53/53/53 54/54/54
f 52/52/52 54/54/54 55/55/55
f 56/56/56 52/52/52 55/55/55
f 57/57/57 54/54/54 53/53/53
f 58/58/58 57/57/57 53/53/53
f 59/59/59 57/57/57 58/58/58
f 62/62/62 61/61/61 60/60/60
f 60/60/60 61/61/61 63/63/63
f 61/61/61 64/64/64 63/63/63
f 67/67/67 66/66/66 65/65/65
f 66/66/66 68/68/68 65/65/65
f 68/68/68 66/66/66 69/69/69
f 66/66/66 70/70/70 69/69/69
f 71/71/71 69/69/69 70/70/70
f 72/72/72 71/71/71 70/70/70
f 73/73/73 72/72/72 70/70/70
f 76/76/76 75/75/75 74/74/74
f 74/74/74 77/77/77 76/76/76
f 77/77/77 78/78/78 76/76/76
f 81/81/81 80/80/80 79/79/79
f 82/82/82 81/81/81 79/79/79
f 85/85/85 84/84/84 83/83/83
f 86/86/86 85/85/85 83/83/83
f 89/89/89 88/88/88 87/87/87
f 90/90/90 89/89/89 87/87/87
f 93/93/93 92/92/92 91/91/91
f 94/94/94 93/93/93 91/91/91
f 97/97/97 96/96/96 95/95/95
f 98/98/98 97/97/97 95/95/95
f 101/101/101 100/100/100 99/99/99
f 102/102/102 101/101/101 99/99/99
f 105/105/105 104/104/104 103/103/103
f 106/106/106 105/105/105 103/103/103
f 109/109/109 108/108/108 107/107/107
f 110/110/110 109/109/109 107/107/107
f 113/113/113 112/112/112 111/111/111
f 114/114/114 113/113/113 111/111/111
f 117/117/117 116/116/116 115/115/115
f 118/118/118 117/117/117 115/115/115
f 121/121/121 120/120/120 119/119/119
f 122/122/122 121/121/121 119/119/119
f 125/125/125 124/124/124 123/123/123
f 126/126/126 125/125/125 123/123/123
f 129/129/129 128/128/128 127/127/127
f 130/130/130 129/129/129 127/127/127
f 133/133/133 132/132/132 131/131/131
f 134/134/134 133/133/133 131/131/131
f 137/137/137 136/136/136 135/135/135
f 138/138/138 137/137/137 135/135/135
f 141/141/141 140/140/140 139/139/139
f 142/142/142 141/141/141 139/139/139
