g orb
v 0.29486892 1.1028605 0.7422473
v 0.33325335 1.1325315 0.6104385
v 0.3881138 1.1522979 0.64957243
v 0.36727744 1.1225388 0.53728527
v 0.42295098 1.1509919 0.71053547
v 0.4284305 1.1289635 0.77699256
v 0.5085285 1.1172435 0.7844657
v 0.50039643 1.1499356 0.6858376
v 0.60103375 1.0711066 0.77720183
v 0.448695 1.151874 0.5953634
v 0.42020324 1.0772306 0.45927963
v 0.5914672 1.1122992 0.6501406
v 0.66762644 0.9976245 0.7522771
v 0.52524626 1.1145464 0.53364736
v 0.4735887 1.0048988 0.41272336
v 0.65645534 1.0425339 0.61679095
v 0.70161605 0.9131678 0.717887
v 0.58543265 1.0451964 0.4925057
v 0.51969594 0.9191112 0.39867088
v 0.6914619 0.9542505 0.5902271
v 0.6996605 0.81828 0.66999936
v 0.624912 0.95642287 0.47350267
v 0.6914709 0.85120326 0.5706734
v 0.63940364 0.8531553 0.47955897
v 0.55741006 0.82361263 0.42106992
v 0.6275132 0.7747219 0.5046792
v 0.5726527 0.7549554 0.46554524
v 0.5713035 0.6668732 0.574939
v 0.66235036 0.7734158 0.5656422
v 0.6678299 0.75138736 0.63209933
v 0.39258373 0.7648349 0.90446305
v 0.34197888 0.85736656 0.91974556
v 0.45679912 0.92388994 0.9326223
v 0.30830932 0.9477828 0.89525044
v 0.51527995 0.83729494 0.9183646
v 0.4400565 0.69818246 0.8639611
v 0.3976269 1.0005306 0.90537024
v 0.29351968 1.0147783 0.851641
v 0.5567678 0.7653936 0.8761527
v 0.49802464 0.6476201 0.7815679
v 0.3537033 1.0503205 0.85845995
v 0.29486892 1.1028605 0.7422473
v 0.4030841 1.0921153 0.8311367
v 0.4284305 1.1289635 0.77699256
v 0.47091225 1.0625576 0.8648202
v 0.5085285 1.1172435 0.7844657
v 0.5516352 1.0021154 0.88055575
v 0.60103375 1.0711066 0.77720183
v 0.66762644 0.9976245 0.7522771
v 0.6159527 0.9225019 0.8626607
v 0.70161605 0.9131678 0.717887
v 0.6524456 0.8440816 0.82255393
v 0.6617781 0.7632069 0.7509223
v 0.6996605 0.81828 0.66999936
v 0.58797425 0.7007411 0.79175925
v 0.53291905 0.6372021 0.70674783
v 0.59310263 0.6727444 0.71356666
v 0.5713035 0.6668732 0.574939
v 0.6424835 0.7145391 0.68624336
v 0.6678299 0.75138736 0.63209933
v 0.29486892 1.1028605 0.7422473
v 0.20382209 0.9963178 0.75154436
v 0.19834249 1.0183461 0.68508726
v 0.16705823 0.953078 0.64807034
v 0.23865938 0.9950119 0.8125073
v 0.29351968 1.0147783 0.851641
v 0.30830932 0.9477828 0.89525044
v 0.17519039 0.9203861 0.74669844
v 0.16161378 0.8634332 0.6034309
v 0.2268919 0.91844785 0.8371726
v 0.34197888 0.85736656 0.91974556
v 0.23773338 0.82028043 0.84556013
v 0.17174475 0.8224986 0.7298734
v 0.28074 0.7245374 0.824681
v 0.39258373 0.7648349 0.90446305
v 0.20971723 0.7271998 0.7003958
v 0.19854593 0.772109 0.56490964
v 0.26699147 0.6627898 0.6711582
v 0.25754902 0.70419794 0.54271764
v 0.3727637 0.6396563 0.7578719
v 0.4400565 0.69818246 0.8639611
v 0.49802464 0.6476201 0.7815679
v 0.3639639 0.6200295 0.6319647
v 0.35577416 0.65295273 0.53263885
v 0.4160312 0.61807764 0.7230791
v 0.4780588 0.6174358 0.66761404
v 0.53291905 0.6372021 0.70674783
v 0.5713035 0.6668732 0.574939
v 0.44322148 0.61874175 0.60665107
v 0.43774188 0.6407701 0.540194
v 0.29486892 1.1028605 0.7422473
v 0.19834249 1.0183461 0.68508726
v 0.22368884 1.0551945 0.63094306
v 0.16705823 0.953078 0.64807034
v 0.2730696 1.0969893 0.6036197
v 0.33325335 1.1325315 0.6104385
v 0.20467435 1.007764 0.56771576
v 0.16161378 0.8634332 0.6034309
v 0.27795964 1.0697908 0.5271656
v 0.36727744 1.1225388 0.53728527
v 0.30482277 1.0104498 0.44702497
v 0.42020324 1.0772306 0.45927963
v 0.21021982 0.93219626 0.49989262
v 0.35089207 0.93243843 0.3988219
v 0.4735887 1.0048988 0.41272336
v 0.40369067 0.8522241 0.38569453
v 0.51969594 0.9191112 0.39867088
v 0.55741006 0.82361263 0.42106992
v 0.25021955 0.84723157 0.45452592
v 0.19854593 0.772109 0.56490964
v 0.3077189 0.7735718 0.43828312
v 0.25754902 0.70419794 0.54271764
v 0.35577416 0.65295273 0.53263885
v 0.39365643 0.70802563 0.45171574
v 0.43774188 0.6407701 0.540194
v 0.46746022 0.7704914 0.4108786
v 0.5726527 0.7549554 0.46554524
v 0.46308818 0.6776184 0.48604977
v 0.5713035 0.6668732 0.574939
v 0.512469 0.7194131 0.45872647
vt 0.5662722 0.1554237
vt 0.5662722 0.15175682
vt 0.5714907 0.15298156
vt 0.5662722 0.14671093
vt 0.5746168 0.15298156
vt 0.576772 0.15264136
vt 0.58048016 0.14897412
vt 0.5782877 0.14826393
vt 0.58445835 0.14503986
vt 0.5732286 0.1475746
vt 0.5662722 0.1412976
vt 0.582226 0.14320275
vt 0.58727175 0.13465601
vt 0.5750931 0.14177388
vt 0.5662722 0.13465598
vt 0.58445835 0.13465601
vt 0.58445835 0.12427217
vt 0.576772 0.13465598
vt 0.5662722 0.12427217
vt 0.58202183 0.12427217
vt 0.5805807 0.12043731
vt 0.57536525 0.12427217
vt 0.5786637 0.12043731
vt 0.5734264 0.12043731
vt 0.5662722 0.12043731
vt 0.5715221 0.11667065
vt 0.5662722 0.11667065
vt 0.5662722 0.11388831
vt 0.57536525 0.11667065
vt 0.576772 0.11667065
vt 0.5662722 0.13465601
vt 0.5662722 0.1412976
vt 0.5750931 0.14177388
vt 0.5662722 0.14671093
vt 0.576772 0.13465601
vt 0.5662722 0.12427217
vt 0.5732286 0.1475746
vt 0.5662722 0.15175682
vt 0.57536525 0.12427217
vt 0.5662722 0.12043731
vt 0.57149065 0.15298156
vt 0.5662722 0.1554237
vt 0.5746168 0.15298156
vt 0.576772 0.15264136
vt 0.5782877 0.14826393
vt 0.58048016 0.14897412
vt 0.582226 0.14320275
vt 0.58445835 0.14503986
vt 0.58727175 0.13465601
vt 0.58445835 0.13465601
vt 0.58445835 0.12427217
vt 0.58202183 0.12427217
vt 0.5786637 0.12043731
vt 0.5805807 0.12043731
vt 0.57342637 0.12043731
vt 0.5662722 0.11667065
vt 0.57152206 0.11667065
vt 0.5662722 0.11388831
vt 0.57536525 0.11667065
vt 0.576772 0.11667065
vt 0.5662722 0.1554237
vt 0.5746168 0.15298156
vt 0.576772 0.15264136
vt 0.58048016 0.14897412
vt 0.57149065 0.15298156
vt 0.5662722 0.15175682
vt 0.5662722 0.14671093
vt 0.5782877 0.14826393
vt 0.58445835 0.14503986
vt 0.5732286 0.1475746
vt 0.5662722 0.1412976
vt 0.5750931 0.14177388
vt 0.582226 0.14320275
vt 0.576772 0.13465601
vt 0.5662722 0.13465601
vt 0.58445835 0.13465601
vt 0.58727175 0.13465601
vt 0.58202183 0.12427217
vt 0.58445835 0.12427217
vt 0.57536525 0.12427217
vt 0.5662722 0.12427217
vt 0.5662722 0.12043731
vt 0.5786637 0.12043731
vt 0.5805807 0.12043731
vt 0.57342637 0.12043731
vt 0.57152206 0.11667065
vt 0.5662722 0.11667065
vt 0.5662722 0.11388831
vt 0.57536525 0.11667065
vt 0.576772 0.11667065
vt 0.5662722 0.1554237
vt 0.576772 0.15264136
vt 0.5746168 0.15298156
vt 0.58048016 0.14897412
vt 0.5714907 0.15298156
vt 0.5662722 0.15175682
vt 0.5782877 0.14826393
vt 0.58445835 0.14503986
vt 0.5732286 0.1475746
vt 0.5662722 0.14671093
vt 0.5750931 0.14177388
vt 0.5662722 0.1412976
vt 0.582226 0.14320275
vt 0.576772 0.13465598
vt 0.5662722 0.13465598
vt 0.57536525 0.12427217
vt 0.5662722 0.12427217
vt 0.5662722 0.12043731
vt 0.58445835 0.13465601
vt 0.58727175 0.13465601
vt 0.58202183 0.12427217
vt 0.58445835 0.12427217
vt 0.5805807 0.12043731
vt 0.5786637 0.12043731
vt 0.576772 0.11667065
vt 0.5734264 0.12043731
vt 0.5662722 0.11667065
vt 0.57536525 0.11667065
vt 0.5662722 0.11388831
vt 0.5715221 0.11667065
vn -0.5093952 0.80340827 0.30830467
vn -0.38675958 0.91290003 -0.13050155
vn -0.20254806 0.97927195 0.0009033146
vn -0.23527822 0.8629743 -0.44712368
vn -0.08557092 0.97488654 0.20560591
vn -0.067171626 0.9009192 0.42875713
vn 0.28008705 0.8442698 0.45690235
vn 0.2517331 0.9630267 0.09596847
vn 0.6071355 0.6703839 0.42658165
vn 0.06300172 0.96990347 -0.23519781
vn -0.045895156 0.693715 -0.7187859
vn 0.5710095 0.8203651 -0.030810287
vn 0.84821403 0.40792266 0.3378342
vn 0.3319276 0.8289149 -0.450249
vn 0.14850108 0.43159896 -0.8897583
vn 0.8091495 0.5674296 -0.15264614
vn 0.97252345 0.09858215 0.21090217
vn 0.5530693 0.57609 -0.60185933
vn 0.31587103 0.12146077 -0.94099563
vn 0.93595695 0.24873629 -0.24922831
vn 0.97176313 -0.23111928 0.04754234
vn 0.6956075 0.25715336 -0.67082226
vn 0.941733 -0.10964676 -0.31798834
vn 0.7500724 -0.10223509 -0.65340596
vn 0.44816032 -0.21096002 -0.8687049
vn 0.7047562 -0.44987944 -0.54856825
vn 0.5200335 -0.5164357 -0.6803377
vn 0.50939536 -0.80340815 -0.30830458
vn 0.82205796 -0.45427704 -0.3432973
vn 0.8405083 -0.52844983 -0.1195269
vn -0.1521928 -0.44695684 0.881514
vn -0.3234731 -0.10736647 0.9401263
vn 0.09035539 0.13468799 0.9867599
vn -0.45382866 0.23057023 0.8607421
vn 0.29343706 -0.16409983 0.9417887
vn 0.02203417 -0.6917846 0.7217677
vn -0.12782905 0.42124906 0.8978914
vn -0.52017826 0.51750517 0.6794136
vn 0.45176074 -0.43817586 0.77711916
vn 0.23116799 -0.8585841 0.45759678
vn -0.31809238 0.63684976 0.70231026
vn -0.5093952 0.80340827 0.30830467
vn -0.15228042 0.777189 0.61056376
vn -0.067171626 0.9009192 0.42875713
vn 0.14090005 0.645848 0.75035167
vn 0.28008705 0.8442698 0.45690235
vn 0.43102175 0.41935194 0.7989769
vn 0.6071355 0.6703839 0.42658165
vn 0.84821403 0.40792266 0.3378342
vn 0.6595881 0.14020519 0.7384349
vn 0.97252345 0.09858215 0.21090217
vn 0.79538655 -0.1528657 0.5865086
vn 0.83217454 -0.4339321 0.34523684
vn 0.97176313 -0.23111928 0.04754234
vn 0.5604376 -0.6636576 0.49544767
vn 0.38624457 -0.9129278 0.13182525
vn 0.5888913 -0.79325193 0.1547853
vn 0.50939536 -0.80340815 -0.30830458
vn 0.75516325 -0.65252316 0.06278407
vn 0.8405083 -0.52844983 -0.1195269
vn -0.5093952 0.80340827 0.30830467
vn -0.82136685 0.45551854 0.3433067
vn -0.8397665 0.5294856 0.1201554
vn -0.9677635 0.24879168 -0.039196923
vn -0.7043894 0.4511332 0.5480095
vn -0.52017826 0.51750517 0.6794136
vn -0.45382866 0.23057023 0.8607421
vn -0.93820626 0.1311333 0.32027042
vn -0.9756679 -0.08417577 -0.20245183
vn -0.7501897 0.12449688 0.6493966
vn -0.3234731 -0.10736647 0.9401263
vn -0.69992477 -0.24213512 0.6719195
vn -0.93858963 -0.23365591 0.25387886
vn -0.53615636 -0.6022078 0.5915083
vn -0.1521928 -0.44695684 0.881514
vn -0.79881513 -0.57989246 0.1600594
vn -0.85254776 -0.39966694 -0.33679178
vn -0.577267 -0.81480306 0.05346793
vn -0.62315243 -0.6587399 -0.4215954
vn -0.28787616 -0.8621874 0.41684574
vn 0.02203417 -0.6917846 0.7217677
vn 0.23116799 -0.8585841 0.45759678
vn -0.26330906 -0.9601462 -0.09374213
vn -0.2940755 -0.8391518 -0.45754102
vn -0.07005704 -0.96795064 0.24117115
vn 0.201522 -0.9794841 5.6283516E-05
vn 0.38624457 -0.9129278 0.13182525
vn 0.50939536 -0.80340815 -0.30830458
vn 0.08422001 -0.9750866 -0.20521443
vn 0.06576925 -0.90091413 -0.42898503
vn -0.5093952 0.80340827 0.30830467
vn -0.8397665 0.5294856 0.1201554
vn -0.7546579 0.6532155 -0.061650913
vn -0.9677635 0.24879168 -0.039196923
vn -0.5888459 0.7935549 -0.15339807
vn -0.38675958 0.91290003 -0.13050155
vn -0.83050007 0.44635355 -0.3332239
vn -0.9756679 -0.08417577 -0.20245183
vn -0.56248647 0.6711951 -0.48281065
vn -0.23527822 0.8629743 -0.44712368
vn -0.4606707 0.45116 -0.7643541
vn -0.045895156 0.693715 -0.7187859
vn -0.8009184 0.16642657 -0.57517976
vn -0.29645503 0.17258939 -0.93932277
vn 0.14850108 0.43159896 -0.8897583
vn -0.101637684 -0.12187869 -0.9873274
vn 0.31587103 0.12146077 -0.94099563
vn 0.44816032 -0.21096002 -0.8687049
vn -0.6628662 -0.1316581 -0.73707163
vn -0.85254776 -0.39966694 -0.33679178
vn -0.44529784 -0.40747598 -0.79729116
vn -0.62315243 -0.6587399 -0.4215954
vn -0.2940755 -0.8391518 -0.45754102
vn -0.15468757 -0.6365701 -0.75554633
vn 0.06576925 -0.90091413 -0.42898503
vn 0.11697786 -0.4066032 -0.9060851
vn 0.5200335 -0.5164357 -0.6803377
vn 0.15111397 -0.77684087 -0.6112961
vn 0.50939536 -0.80340815 -0.30830458
vn 0.31738618 -0.636112 -0.7032976
g orb_0
f 3/3/3 2/2/2 1/1/1
f 4/4/4 2/2/2 3/3/3
f 5/5/5 3/3/3 1/1/1
f 6/6/6 5/5/5 1/1/1
f 5/5/5 6/6/6 7/7/7
f 7/7/7 8/8/8 5/5/5
f 3/3/3 5/5/5 8/8/8
f 8/8/8 7/7/7 9/9/9
f 3/3/3 10/10/10 4/4/4
f 10/10/10 3/3/3 8/8/8
f 11/11/11 4/4/4 10/10/10
f 9/9/9 12/12/12 8/8/8
f 8/8/8 12/12/12 10/10/10
f 12/12/12 9/9/9 13/13/13
f 10/10/10 14/14/14 11/11/11
f 14/14/14 10/10/10 12/12/12
f 11/11/11 14/14/14 15/15/15
f 13/13/13 16/16/16 12/12/12
f 14/14/14 12/12/12 16/16/16
f 16/16/16 13/13/13 17/17/17
f 18/18/18 15/15/15 14/14/14
f 16/16/16 18/18/18 14/14/14
f 15/15/15 18/18/18 19/19/19
f 17/17/17 20/20/20 16/16/16
f 18/18/18 16/16/16 20/20/20
f 17/17/17 21/21/21 20/20/20
f 22/22/22 19/19/19 18/18/18
f 20/20/20 22/22/22 18/18/18
f 23/23/23 20/20/20 21/21/21
f 20/20/20 23/23/23 22/22/22
f 22/22/22 24/24/24 19/19/19
f 23/23/23 24/24/24 22/22/22
f 24/24/24 25/25/25 19/19/19
f 24/24/24 26/26/26 25/25/25
f 26/26/26 24/24/24 23/23/23
f 26/26/26 27/27/27 25/25/25
f 27/27/27 26/26/26 28/28/28
f 29/29/29 23/23/23 21/21/21
f 23/23/23 29/29/29 26/26/26
f 26/26/26 29/29/29 28/28/28
f 21/21/21 30/30/30 29/29/29
f 29/29/29 30/30/30 28/28/28
f 33/33/33 32/32/32 31/31/31
f 34/34/34 32/32/32 33/33/33
f 31/31/31 35/35/35 33/33/33
f 35/35/35 31/31/31 36/36/36
f 33/33/33 37/37/37 34/34/34
f 38/38/38 34/34/34 37/37/37
f 36/36/36 39/39/39 35/35/35
f 36/36/36 40/40/40 39/39/39
f 37/37/37 41/41/41 38/38/38
f 38/38/38 41/41/41 42/42/42
f 41/41/41 43/43/43 42/42/42
f 43/43/43 41/41/41 37/37/37
f 43/43/43 44/44/44 42/42/42
f 45/45/45 43/43/43 37/37/37
f 44/44/44 43/43/43 45/45/45
f 45/45/45 37/37/37 33/33/33
f 45/45/45 46/46/46 44/44/44
f 46/46/46 45/45/45 47/47/47
f 47/47/47 45/45/45 33/33/33
f 47/47/47 48/48/48 46/46/46
f 49/49/49 48/48/48 47/47/47
f 50/50/50 47/47/47 33/33/33
f 49/49/49 47/47/47 50/50/50
f 33/33/33 35/35/35 50/50/50
f 51/51/51 49/49/49 50/50/50
f 52/52/52 50/50/50 35/35/35
f 51/51/51 50/50/50 52/52/52
f 52/52/52 35/35/35 39/39/39
f 53/53/53 51/51/51 52/52/52
f 53/53/53 52/52/52 39/39/39
f 54/54/54 51/51/51 53/53/53
f 39/39/39 55/55/55 53/53/53
f 55/55/55 39/39/39 40/40/40
f 40/40/40 56/56/56 55/55/55
f 56/56/56 57/57/57 55/55/55
f 53/53/53 55/55/55 57/57/57
f 57/57/57 56/56/56 58/58/58
f 59/59/59 54/54/54 53/53/53
f 53/53/53 57/57/57 59/59/59
f 59/59/59 57/57/57 58/58/58
f 60/60/60 54/54/54 59/59/59
f 60/60/60 59/59/59 58/58/58
f 63/63/63 62/62/62 61/61/61
f 62/62/62 63/63/63 64/64/64
f 62/62/62 65/65/65 61/61/61
f 65/65/65 66/66/66 61/61/61
f 67/67/67 66/66/66 65/65/65
f 64/64/64 68/68/68 62/62/62
f 65/65/65 62/62/62 68/68/68
f 68/68/68 64/64/64 69/69/69
f 70/70/70 67/67/67 65/65/65
f 68/68/68 70/70/70 65/65/65
f 71/71/71 67/67/67 70/70/70
f 72/72/72 70/70/70 68/68/68
f 70/70/70 72/72/72 71/71/71
f 69/69/69 73/73/73 68/68/68
f 68/68/68 73/73/73 72/72/72
f 71/71/71 72/72/72 74/74/74
f 74/74/74 72/72/72 73/73/73
f 74/74/74 75/75/75 71/71/71
f 76/76/76 73/73/73 69/69/69
f 73/73/73 76/76/76 74/74/74
f 69/69/69 77/77/77 76/76/76
f 78/78/78 76/76/76 77/77/77
f 74/74/74 76/76/76 78/78/78
f 77/77/77 79/79/79 78/78/78
f 75/75/75 74/74/74 80/80/80
f 80/80/80 74/74/74 78/78/78
f 80/80/80 81/81/81 75/75/75
f 82/82/82 81/81/81 80/80/80
f 78/78/78 79/79/79 83/83/83
f 80/80/80 78/78/78 83/83/83
f 79/79/79 84/84/84 83/83/83
f 80/80/80 85/85/85 82/82/82
f 83/83/83 85/85/85 80/80/80
f 86/86/86 82/82/82 85/85/85
f 86/86/86 85/85/85 83/83/83
f 87/87/87 82/82/82 86/86/86
f 87/87/87 86/86/86 88/88/88
f 89/89/89 83/83/83 84/84/84
f 83/83/83 89/89/89 86/86/86
f 86/86/86 89/89/89 88/88/88
f 84/84/84 90/90/90 89/89/89
f 89/89/89 90/90/90 88/88/88
f 93/93/93 92/92/92 91/91/91
f 92/92/92 93/93/93 94/94/94
f 95/95/95 93/93/93 91/91/91
f 96/96/96 95/95/95 91/91/91
f 93/93/93 97/97/97 94/94/94
f 97/97/97 93/93/93 95/95/95
f 98/98/98 94/94/94 97/97/97
f 99/99/99 95/95/95 96/96/96
f 95/95/95 99/99/99 97/97/97
f 96/96/96 100/100/100 99/99/99
f 101/101/101 99/99/99 100/100/100
f 97/97/97 99/99/99 101/101/101
f 100/100/100 102/102/102 101/101/101
f 97/97/97 103/103/103 98/98/98
f 101/101/101 103/103/103 97/97/97
f 104/104/104 101/101/101 102/102/102
f 101/101/101 104/104/104 103/103/103
f 102/102/102 105/105/105 104/104/104
f 106/106/106 104/104/104 105/105/105
f 105/105/105 107/107/107 106/106/106
f 106/106/106 107/107/107 108/108/108
f 103/103/103 109/109/109 98/98/98
f 109/109/109 103/103/103 104/104/104
f 104/104/104 106/106/106 109/109/109
f 98/98/98 109/109/109 110/110/110
f 109/109/109 111/111/111 110/110/110
f 111/111/111 109/109/109 106/106/106
f 112/112/112 110/110/110 111/111/111
f 111/111/111 113/113/113 112/112/112
f 114/114/114 113/113/113 111/111/111
f 114/114/114 111/111/111 106/106/106
f 115/115/115 113/113/113 114/114/114
f 108/108/108 116/116/116 106/106/106
f 106/106/106 116/116/116 114/114/114
f 116/116/116 108/108/108 117/117/117
f 114/114/114 118/118/118 115/115/115
f 118/118/118 114/114/114 116/116/116
f 115/115/115 118/118/118 119/119/119
f 120/120/120 117/117/117 119/119/119
f 117/117/117 120/120/120 116/116/116
f 118/118/118 120/120/120 119/119/119
f 116/116/116 120/120/120 118/118/118
