g picnic_basket_food
v -0.032102235 0.14786217 -0.035509706
v 0.044105534 0.18588386 -0.11811951
v -0.048086993 0.13587406 -0.10952761
v -0.20266703 0.21942331 -0.0039458065
v 0.043551125 0.1748517 -0.024416832
v 0.10045146 0.27025235 -0.09406624
v -0.15850748 0.21599491 0.08591221
v -0.32159126 0.3282633 0.101553135
v 0.077926256 0.2474019 -0.024056904
v 0.015230825 0.4165491 0.01873491
v -0.07132762 0.27956238 0.12372027
v -0.18678159 0.38979355 0.2323296
v 0.004050987 0.36305714 0.10283255
v -0.09816766 0.53038806 0.124809094
v -0.27634004 0.32387978 0.19382147
v -0.40136284 0.4487693 0.30707756
v -0.44641426 0.45305243 0.21803145
v -0.10877214 0.47547355 0.21126351
v -0.23880436 0.59583133 0.323998
v -0.2285166 0.6501784 0.24071242
v -0.49678335 0.5932544 0.38766927
v -0.5420001 0.60928464 0.34027284
v -0.49315235 0.70084 0.37115446
v -0.31466565 0.5127992 0.34532505
v -0.38675484 0.692794 0.39912185
v -0.39346167 0.743663 0.35573384
v -0.45422634 0.65196604 0.4289027
v 0.055176448 0.28633845 -0.14141032
v 0.044105534 0.18588386 -0.11811951
v 0.10045146 0.27025235 -0.09406624
v 0.015230825 0.4165491 0.01873491
v 0.012839073 0.22741601 -0.18284345
v -0.048086993 0.13587406 -0.10952761
v -0.02955992 0.42058307 -0.07054777
v -0.09816766 0.53038806 0.124809094
v -0.05485189 0.18679868 -0.15286294
v -0.20266703 0.21942331 -0.0039458065
v -0.116380796 0.3566713 -0.1086832
v -0.23297718 0.46885768 -0.005967288
v -0.19211848 0.2735207 -0.087468326
v -0.32159126 0.3282633 0.101553135
v -0.14341898 0.53477174 0.03254099
v -0.2724154 0.6533573 0.15061758
v -0.2285166 0.6501784 0.24071242
v -0.31098646 0.3831779 0.015098944
v -0.43497413 0.50629514 0.13369715
v -0.44641426 0.45305243 0.21803145
v -0.40950477 0.73173064 0.281769
v -0.39346167 0.743663 0.35573384
v -0.49315235 0.70084 0.37115446
v -0.3597189 0.5899081 0.1129216
v -0.5195333 0.6321912 0.27031633
v -0.5420001 0.60928464 0.34027284
v -0.48493838 0.70453024 0.27047563
vt 0.30055606 0.13293684
vt 0.29069254 0.12741768
vt 0.30379564 0.13042936
vt 0.30991417 0.15058243
vt 0.29090518 0.13015357
vt 0.27758944 0.13043137
vt 0.3052651 0.15070328
vt 0.31040153 0.17010756
vt 0.281144 0.13293833
vt 0.271471 0.15058538
vt 0.29100442 0.15069713
vt 0.29101232 0.17020166
vt 0.27658525 0.15070547
vt 0.27098355 0.17011057
vt 0.30571413 0.17017739
vt 0.30526504 0.19152398
vt 0.3099141 0.19155304
vt 0.27615058 0.17017965
vt 0.27658525 0.19152619
vt 0.271471 0.19155599
vt 0.30055606 0.21104342
vt 0.30379564 0.21344943
vt 0.29069254 0.21772341
vt 0.29100442 0.19159894
vt 0.281144 0.21104491
vt 0.27758944 0.21345142
vt 0.29090518 0.21382315
vt 0.280829 0.13293684
vt 0.29069254 0.12741768
vt 0.27758944 0.13042936
vt 0.2714709 0.15058243
vt 0.2904799 0.13015357
vt 0.30379564 0.13043137
vt 0.27611998 0.15070328
vt 0.27098355 0.17010756
vt 0.30024108 0.13293833
vt 0.30991408 0.15058538
vt 0.29038066 0.15069713
vt 0.29037276 0.17020166
vt 0.30479982 0.15070547
vt 0.31040153 0.17011057
vt 0.27567095 0.17017739
vt 0.27612004 0.19152398
vt 0.27147096 0.19155304
vt 0.3052345 0.17017965
vt 0.30479982 0.19152619
vt 0.30991408 0.19155599
vt 0.280829 0.21104342
vt 0.27758944 0.21344943
vt 0.29069254 0.21772341
vt 0.29038066 0.19159894
vt 0.30024108 0.21104491
vt 0.30379564 0.21345142
vt 0.2904799 0.21382315
vn 0.08767411 -0.95097136 0.29659164
vn 0.6418254 -0.6601781 -0.39016026
vn -0.11595307 -0.9361235 -0.3320057
vn -0.6346247 -0.76116806 -0.13369632
vn 0.60578996 -0.7084298 0.3621404
vn 0.9750597 0.06690663 -0.2116178
vn -0.16536 -0.84746975 0.50443155
vn -0.7280133 -0.6802744 -0.08498983
vn 0.89756244 -0.20595437 0.38982603
vn 0.8106642 0.5845503 0.03353407
vn 0.38183177 -0.51031065 0.77057606
vn 0.32317767 -0.4525811 0.83109957
vn 0.786707 0.03748438 0.6161875
vn 0.729276 0.6790127 0.084251605
vn -0.24308619 -0.78911144 0.56410307
vn -0.3253558 -0.7154241 0.6183138
vn -0.80473155 -0.5924354 -0.037779413
vn 0.72645485 0.1143575 0.6776325
vn 0.653025 0.19642 0.7314217
vn 0.6424089 0.7552974 0.12975617
vn -0.5491663 -0.3872109 0.7405971
vn -0.97451496 -0.1066287 0.19735986
vn -0.63857526 0.6525842 0.4078672
vn 0.25712028 -0.38580078 0.8860287
vn 0.3358203 0.43070698 0.83768505
vn 0.15619956 0.93360925 0.32245234
vn -0.18168454 0.08445533 0.97972345
vn 0.5726628 0.34443983 -0.7439211
vn 0.6418254 -0.6601781 -0.39016026
vn 0.9750597 0.06690663 -0.2116178
vn 0.8106642 0.5845503 0.03353407
vn 0.21610178 -0.123474814 -0.9685319
vn -0.11595307 -0.9361235 -0.3320057
vn 0.33284593 0.7081323 -0.6227055
vn 0.729276 0.6790127 0.084251605
vn -0.2958241 -0.45728424 -0.8386771
vn -0.6346247 -0.76116806 -0.13369632
vn -0.25081334 0.37936035 -0.8906056
vn -0.3222553 0.45166233 -0.83195716
vn -0.6458757 -0.20394923 -0.73569643
vn -0.7280133 -0.6802744 -0.08498983
vn 0.24434079 0.7881089 -0.56496197
vn 0.17147103 0.84320873 -0.50950634
vn 0.6424089 0.7552974 0.12975617
vn -0.7254424 -0.11560807 -0.67850435
vn -0.7822341 -0.043479778 -0.62146544
vn -0.80473155 -0.5924354 -0.037779413
vn -0.06196294 0.9451028 -0.32084468
vn 0.15619956 0.93360925 0.32245234
vn -0.63857526 0.6525842 0.4078672
vn -0.37733462 0.5059437 -0.77565426
vn -0.89077586 0.18181662 -0.41648653
vn -0.97451496 -0.1066287 0.19735986
vn -0.5928897 0.6987339 -0.40031573
g picnic_basket_food_0
f 3/3/3 2/2/2 1/1/1
f 4/4/4 3/3/3 1/1/1
f 2/2/2 5/5/5 1/1/1
f 5/5/5 2/2/2 6/6/6
f 7/7/7 4/4/4 1/1/1
f 8/8/8 4/4/4 7/7/7
f 9/9/9 5/5/5 6/6/6
f 6/6/6 10/10/10 9/9/9
f 5/5/5 11/11/11 1/1/1
f 11/11/11 5/5/5 9/9/9
f 11/11/11 7/7/7 1/1/1
f 7/7/7 11/11/11 12/12/12
f 10/10/10 13/13/13 9/9/9
f 13/13/13 11/11/11 9/9/9
f 12/12/12 11/11/11 13/13/13
f 13/13/13 10/10/10 14/14/14
f 15/15/15 8/8/8 7/7/7
f 15/15/15 7/7/7 12/12/12
f 15/15/15 16/16/16 8/8/8
f 15/15/15 12/12/12 16/16/16
f 16/16/16 17/17/17 8/8/8
f 18/18/18 13/13/13 14/14/14
f 18/18/18 12/12/12 13/13/13
f 18/18/18 14/14/14 19/19/19
f 18/18/18 19/19/19 12/12/12
f 14/14/14 20/20/20 19/19/19
f 17/17/17 16/16/16 21/21/21
f 22/22/22 17/17/17 21/21/21
f 23/23/23 22/22/22 21/21/21
f 12/12/12 24/24/24 16/16/16
f 19/19/19 24/24/24 12/12/12
f 16/16/16 24/24/24 21/21/21
f 19/19/19 20/20/20 25/25/25
f 24/24/24 19/19/19 25/25/25
f 20/20/20 26/26/26 25/25/25
f 27/27/27 23/23/23 21/21/21
f 24/24/24 27/27/27 21/21/21
f 27/27/27 24/24/24 25/25/25
f 26/26/26 23/23/23 27/27/27
f 25/25/25 26/26/26 27/27/27
f 30/30/30 29/29/29 28/28/28
f 31/31/31 30/30/30 28/28/28
f 29/29/29 32/32/32 28/28/28
f 32/32/32 29/29/29 33/33/33
f 34/34/34 31/31/31 28/28/28
f 35/35/35 31/31/31 34/34/34
f 36/36/36 32/32/32 33/33/33
f 33/33/33 37/37/37 36/36/36
f 32/32/32 38/38/38 28/28/28
f 38/38/38 32/32/32 36/36/36
f 38/38/38 34/34/34 28/28/28
f 34/34/34 38/38/38 39/39/39
f 37/37/37 40/40/40 36/36/36
f 40/40/40 38/38/38 36/36/36
f 39/39/39 38/38/38 40/40/40
f 40/40/40 37/37/37 41/41/41
f 42/42/42 35/35/35 34/34/34
f 42/42/42 34/34/34 39/39/39
f 42/42/42 43/43/43 35/35/35
f 42/42/42 39/39/39 43/43/43
f 43/43/43 44/44/44 35/35/35
f 45/45/45 40/40/40 41/41/41
f 45/45/45 39/39/39 40/40/40
f 45/45/45 41/41/41 46/46/46
f 45/45/45 46/46/46 39/39/39
f 41/41/41 47/47/47 46/46/46
f 44/44/44 43/43/43 48/48/48
f 49/49/49 44/44/44 48/48/48
f 50/50/50 49/49/49 48/48/48
f 39/39/39 51/51/51 43/43/43
f 46/46/46 51/51/51 39/39/39
f 43/43/43 51/51/51 48/48/48
f 46/46/46 47/47/47 52/52/52
f 51/51/51 46/46/46 52/52/52
f 47/47/47 53/53/53 52/52/52
f 54/54/54 50/50/50 48/48/48
f 51/51/51 54/54/54 48/48/48
f 54/54/54 51/51/51 52/52/52
f 53/53/53 50/50/50 54/54/54
f 52/52/52 53/53/53 54/54/54
