g Plane004
v -0.55340594 2.0079296 -0.0655465
v -1.0671558 1.4848363 -0.0655465
v -0.92654586 1.3442261 -0.0655465
v -0.267537 2.0075045 -0.0655465
v -0.7232589 1.1409389 -0.0655465
v 0.13326532 2.0068061 -0.0655465
v 0.13018973 6.2553997 -0.0655465
v -0.267537 6.2554 -0.0655465
v -0.5503145 6.2554 -0.0655465
v 0.13018896 7.1575575 -0.0655465
v -0.036830697 7.370826 -0.0655465
v -0.4737232 -3.5729008 -0.0655465
v -0.46673313 -2.8534565 -0.0655465
v -2.0031452 -1.3187526 -0.0655465
v -2.014951 -2.030319 -0.0655465
v -0.011804124 -3.1757658 -0.0655465
v -0.40451154 -2.7830582 -0.0655465
v -0.39025253 -5.7120953 -0.0655465
v 0.0012642639 -6.0875573 -0.0655465
v -0.15161477 -6.7033987 -0.0655465
v 0.36345997 -6.6682224 -0.0655465
v -0.4186221 -5.8861413 -0.0655465
v -0.6937468 -6.1612663 -0.0655465
v -0.267537 0.9665305 -0.0655465
v -0.5493827 0.9665303 -0.0655465
v -0.5493828 -0.3696352 -0.0655465
v -0.267537 -0.6624799 -0.0655465
v 0.13195415 0.96653074 -0.0655465
v 0.12548047 -1.040891 -0.0655465
v 0.036852207 -3.1271095 -0.0655465
v 1.495676 -1.668286 -0.0655465
v 0.7155463 -1.6630005 -0.0655465
v -0.35585523 -2.734402 -0.0655465
vt 0 0.75
vt 0 0.6875
vt 0.4088723 0.6875
vt 0.37822896 0.75
vt 1 0.6875
vt 1 0.75
vt 1 1
vt 0.5510833 1
vt 0 1
vt 1 1
vt 0.72 1
vt 1 0
vt 0 0
vt 0 0
vt 1 0
vt 1 0.75
vt 0 0.75
vt 0 0.5
vt 1 0.5
vt 1 0.5
vt 0 0.5
vt 0 0.25
vt 1 0.25
vt 0.42166084 0.625
vt 0 0.625
vt 0 0.5
vt 0.43626386 0.5
vt 1 0.625
vt 1 0.5
vt 1 0.75
vt 1 0.75
vt 0 0.75
vt 0 0.75
vn -0 0 -1
vn -0 0 -1
vn -0 0 -1
vn -0 0 -1
vn -0 0 -1
vn -0 0 -1
vn -0 0 -1
vn -0 0 -1
vn -0 0 -1
vn -0 0 -1
vn -0 0 -1
vn -0 0 -1
vn -0 0 -1
vn -0 0 -1
vn -0 0 -1
vn -0 0 -1
vn -0 0 -1
vn -0 0 -1
vn -0 0 -1
vn -0 0 -1
vn -0 0 -1
vn -0 0 -1
vn -0 0 -1
vn -0 0 -1
vn -0 0 -1
vn -0 0 -1
vn -0 0 -1
vn -0 0 -1
vn -0 0 -1
vn -0 0 -1
vn -0 0 -1
vn -0 0 -1
vn -0 0 -1
g Plane004_0
f 3/3/3 2/2/2 1/1/1
f 4/4/4 3/3/3 1/1/1
f 5/5/5 3/3/3 4/4/4
f 6/6/6 5/5/5 4/4/4
f 6/6/6 4/4/4 7/7/7
f 4/4/4 1/1/1 8/8/8
f 4/4/4 8/8/8 7/7/7
f 1/1/1 9/9/9 8/8/8
f 7/7/7 8/8/8 10/10/10
f 10/10/10 8/8/8 9/9/9
f 11/11/11 10/10/10 9/9/9
f 14/14/14 13/13/13 12/12/12
f 15/15/15 14/14/14 12/12/12
f 18/18/18 17/17/17 16/16/16
f 19/19/19 18/18/18 16/16/16
f 22/22/22 21/21/21 20/20/20
f 23/23/23 22/22/22 20/20/20
f 26/26/26 25/25/25 24/24/24
f 27/27/27 26/26/26 24/24/24
f 27/27/27 24/24/24 28/28/28
f 29/29/29 27/27/27 28/28/28
f 32/32/32 31/31/31 30/30/30
f 33/33/33 32/32/32 30/30/30
