g projector_glow
v 1.0563872 0.8151545 2.3778675
v 0.05375222 0.9425387 0.33806518
v 0.60847515 0.3740476 2.4556465
v 0.09557893 0.98373 0.33080187
v 1.2203344 1.417718 2.271619
v 0.11088856 1.0399982 0.32088044
v 1.0563868 2.0202823 2.1653705
v 0.095578894 1.0962665 0.3109587
v 0.6084745 2.4613888 2.0875914
v 0.05375217 1.1374577 0.30369574
v -0.0033846889 2.6228452 2.0591223
v -0.003384173 1.1525348 0.301037
v -0.61524373 2.4613883 2.0875916
v -0.0605205 1.1374577 0.30369574
v -1.0631555 2.0202813 2.1653707
v -0.10234718 1.0962664 0.3109589
v -1.2271026 1.4177178 2.271619
v -0.117656805 1.0399982 0.32088044
v -1.0631554 0.8151543 2.3778675
v -0.10234717 0.98373 0.33080187
v -0.61524343 0.3740476 2.4556463
v -0.06052047 0.9425387 0.33806518
v -0.0033841731 0.21259107 2.4841156
v -0.003384125 0.9274616 0.34072372
v 0.60847515 0.3740476 2.4556465
v 0.05375222 0.9425387 0.33806518
vt 0.90650254 0.982142
vt 0.9877525 0.007141925
vt 0.9877525 0.982142
vt 0.90650254 0.007141925
vt 0.8252525 0.982142
vt 0.8252525 0.007141925
vt 0.7440024 0.982142
vt 0.7440024 0.007141925
vt 0.6627524 0.982142
vt 0.6627524 0.007141925
vt 0.58150244 0.982142
vt 0.58150244 0.007141925
vt 0.5002524 0.982142
vt 0.5002524 0.007141925
vt 0.4190024 0.982142
vt 0.4190024 0.007141925
vt 0.3377524 0.982142
vt 0.3377524 0.007141925
vt 0.25650245 0.982142
vt 0.25650245 0.007141925
vt 0.17525244 0.982142
vt 0.17525244 0.007141925
vt 0.09400247 0.982142
vt 0.09400247 0.007141925
vt 0.0127524575 0.982142
vt 0.0127524575 0.007141925
vn 0.759613 -0.5137289 -0.39883664
vn 0.43818524 -0.83277214 -0.33835533
vn 0.44004956 -0.8317062 -0.33855757
vn 0.7577733 -0.5169033 -0.3982345
vn 0.8730717 -0.082816936 -0.48050722
vn 0.8731011 -0.08700672 -0.47971275
vn 0.7525995 0.34411982 -0.5614049
vn 0.7544526 0.34100965 -0.5608152
vn 0.4330363 0.6541474 -0.6201377
vn 0.4348647 0.6531185 -0.6199427
vn -5.200483E-07 0.7670957 -0.6415326
vn -4.6787963E-07 0.7670957 -0.6415326
vn -0.43303713 0.6541469 -0.6201376
vn -0.4348654 0.65311813 -0.6199426
vn -0.75259984 0.3441195 -0.56140476
vn -0.7544528 0.34100932 -0.5608151
vn -0.8730717 -0.082816936 -0.48050728
vn -0.8731011 -0.08700687 -0.47971275
vn -0.7596131 -0.5137288 -0.3988366
vn -0.7577732 -0.5169033 -0.39823458
vn -0.44004956 -0.8317061 -0.33855757
vn -0.43818524 -0.8327721 -0.33835533
vn -0 -0.9486294 -0.31638968
vn -0 -0.94862926 -0.3163897
vn 0.44004956 -0.8317062 -0.33855757
vn 0.43818524 -0.83277214 -0.33835533
g projector_glow_0
f 3/3/3 2/2/2 1/1/1
f 2/2/2 4/4/4 1/1/1
f 1/1/1 4/4/4 5/5/5
f 4/4/4 6/6/6 5/5/5
f 5/5/5 6/6/6 7/7/7
f 6/6/6 8/8/8 7/7/7
f 7/7/7 8/8/8 9/9/9
f 8/8/8 10/10/10 9/9/9
f 9/9/9 10/10/10 11/11/11
f 10/10/10 12/12/12 11/11/11
f 11/11/11 12/12/12 13/13/13
f 12/12/12 14/14/14 13/13/13
f 13/13/13 14/14/14 15/15/15
f 14/14/14 16/16/16 15/15/15
f 15/15/15 16/16/16 17/17/17
f 16/16/16 18/18/18 17/17/17
f 17/17/17 18/18/18 19/19/19
f 18/18/18 20/20/20 19/19/19
f 19/19/19 20/20/20 21/21/21
f 20/20/20 22/22/22 21/21/21
f 21/21/21 22/22/22 23/23/23
f 22/22/22 24/24/24 23/23/23
f 23/23/23 24/24/24 25/25/25
f 24/24/24 26/26/26 25/25/25
