g quest_fog
v 14.791982 5.1076403 -27.113659
v 14.791972 -8.358129 -27.113659
v 0.92594236 -7.1152043 -27.113659
v -0.0075390623 4.6110044 -27.113659
v -14.807055 5.1076403 -27.113659
v -14.80706 -8.3581295 -27.113659
v 14.791982 5.1076403 -27.113659
v 36.776943 7.878813 -27.113659
v 38.09445 -5.5869584 -27.113659
v 14.791972 -8.358129 -27.113659
v -36.35382 6.4606304 -27.113659
v -14.807055 5.1076403 -27.113659
v -14.80706 -8.3581295 -27.113659
v -38.595608 -6.7951126 -27.113659
vt 0.49215353 0.9927926
vt 0.67057705 0.9927926
vt 0.67057705 0.50139636
vt 0.49215353 0.50139636
vt 0.49215353 0.010000093
vt 0.67057705 0.010000093
vt 0.49215353 0.010000093
vt 0.49215353 0.9927926
vt 0.67057705 0.9927926
vt 0.67057705 0.010000093
vt 0.49215353 0.010000093
vt 0.49215353 0.9927926
vt 0.67057705 0.9927926
vt 0.67057705 0.010000093
vn -0 0 1
vn -0 0 1
vn -0 0 1
vn -0 0 1
vn -0 0 1
vn -0 0 1
vn -0 0 1
vn -0 0 1
vn -0 0 1
vn -0 0 1
vn -0 0 1
vn -0 0 1
vn -0 0 1
vn -0 0 1
g quest_fog_0
f 3/3/3 2/2/2 1/1/1
f 4/4/4 3/3/3 1/1/1
f 3/3/3 4/4/4 5/5/5
f 6/6/6 3/3/3 5/5/5
f 9/9/9 8/8/8 7/7/7
f 10/10/10 9/9/9 7/7/7
f 13/13/13 12/12/12 11/11/11
f 14/14/14 13/13/13 11/11/11
