g right_eye3
v 3.0517577E-07 -0.046823844 -0.2808847
v 1.0098425 -0.03782832 -0.28098145
v 1.0098425 0.029573774 -0.28121123
v 3.0517577E-07 0.020578241 -0.2811145
v 3.0517577E-07 0.020578241 -0.2811145
v 1.0098425 0.029573774 -0.28121123
v 1.0098425 0.04682392 0.28088516
v -0 0.03782841 0.28098205
v 3.0517577E-07 -0.046823844 -0.2808847
v -1.0098422 -0.03782833 -0.28098205
v -1.0098422 -0.020578222 0.28111434
v -0 -0.029573707 0.28121185
v -1.0098422 -0.03782833 -0.28098205
v 3.0517577E-07 -0.046823844 -0.2808847
v 3.0517577E-07 0.020578241 -0.2811145
v -1.0098422 0.029573755 -0.28121185
v -1.0098422 0.029573755 -0.28121185
v 3.0517577E-07 0.020578241 -0.2811145
v -0 0.03782841 0.28098205
v -1.0098422 0.04682392 0.28088453
v 1.0098425 -0.03782832 -0.28098145
v 3.0517577E-07 -0.046823844 -0.2808847
v -0 -0.029573707 0.28121185
v 1.0098425 -0.02057817 0.2811148
vt 0.9530477 0.5247063
vt 0.9530477 0.49661937
vt 0.93963355 0.49661937
vt 0.93963355 0.5247063
vt 0.93963355 0.5247063
vt 0.93963355 0.49661937
vt 0.8948418 0.49661937
vt 0.8948418 0.5247063
vt 0.9530477 0.5247063
vt 0.9530476 0.49661937
vt 0.9978395 0.49661937
vt 0.9978395 0.5247063
vt 0.9530476 0.49661937
vt 0.9530477 0.5247063
vt 0.93963355 0.5247063
vt 0.93963355 0.49661937
vt 0.93963355 0.49661937
vt 0.93963355 0.5247063
vt 0.8948418 0.5247063
vt 0.8948418 0.49661937
vt 0.9530477 0.49661937
vt 0.9530477 0.5247063
vt 0.9978395 0.5247063
vt 0.9978395 0.49661937
vn 3.0221142E-07 -0.0034093312 -0.99999416
vn -6.542748E-05 -0.0034093305 -0.99999416
vn -6.5427485E-05 -0.003409331 -0.99999416
vn 3.0220912E-07 -0.0034093305 -0.99999416
vn -0 0.9995295 -0.030674528
vn -0.008906245 0.9994898 -0.030673305
vn -0.008906245 0.9994898 -0.030673305
vn -0 0.9995295 -0.030674532
vn -0 -0.9995295 0.030674484
vn -0.008906241 -0.9994898 0.030673245
vn -0.008906241 -0.9994898 0.030673245
vn -0 -0.9995295 0.030674485
vn 6.6031906E-05 -0.003409331 -0.99999416
vn 3.0221142E-07 -0.0034093312 -0.99999416
vn 3.0220912E-07 -0.0034093305 -0.99999416
vn 6.603191E-05 -0.0034093314 -0.99999416
vn 0.008906253 0.9994898 -0.030673316
vn -0 0.9995295 -0.030674528
vn -0 0.9995295 -0.030674532
vn 0.008906253 0.9994898 -0.030673316
vn 0.008906254 -0.9994898 0.030673288
vn -0 -0.9995295 0.030674484
vn -0 -0.9995295 0.030674485
vn 0.008906253 -0.9994898 0.030673286
g right_eye3_0
f 3/3/3 2/2/2 1/1/1
f 4/4/4 3/3/3 1/1/1
f 7/7/7 6/6/6 5/5/5
f 8/8/8 7/7/7 5/5/5
f 11/11/11 10/10/10 9/9/9
f 12/12/12 11/11/11 9/9/9
f 15/15/15 14/14/14 13/13/13
f 16/16/16 15/15/15 13/13/13
f 19/19/19 18/18/18 17/17/17
f 20/20/20 19/19/19 17/17/17
f 23/23/23 22/22/22 21/21/21
f 24/24/24 23/23/23 21/21/21
