g road1_S3
v 0.5035 0.017054118 -0.14312612
v 0.5035 0.017054114 0.50350016
v -0.5035 0.017054114 0.5035
v -0.5035 0.017054118 -0.14312631
v 1.229248E-06 0.017054081 -0.14312619
v -0.5034988 0.017054081 -0.14312631
v -0.5034988 0.017054087 -0.35470814
v 1.229248E-06 0.017054087 -0.35470805
v 0.50350124 0.017054081 -0.14312612
v 0.50350124 0.017054087 -0.35470796
vt 0.93567985 0.95512146
vt 0.93567574 0.9991589
vt 0.8749484 0.9991589
vt 0.8749484 0.95512146
vt 0.4917808 0.74628884
vt 0.4917808 0.73119545
vt 0.49872613 0.73119545
vt 0.49872613 0.74628884
vt 0.4917808 0.7613822
vt 0.49872613 0.7613822
vn -0 1 0
vn -0 1 0
vn -0 1 0
vn -0 1 0
vn -0 1 0
vn -0 1 0
vn -0 1 0
vn -0 1 0
vn -0 1 0
vn -0 1 0
g road1_S3_0
f 3/3/3 2/2/2 1/1/1
f 4/4/4 3/3/3 1/1/1
f 7/7/7 6/6/6 5/5/5
f 8/8/8 7/7/7 5/5/5
f 8/8/8 5/5/5 9/9/9
f 10/10/10 8/8/8 9/9/9
