g road2
v 0.43270025 0.027302602 -0.438924
v 0.4327001 0.027302602 1.4511182
v -1.4534802 0.027302602 1.4511168
v -1.4534794 0.027302602 -0.43892464
v 0.5029633 -0.00051536283 1.5105
v 0.4327001 0.027302602 1.4511182
v 0.43270025 0.027302602 -0.438924
v 0.5029635 -0.00051519956 -0.5034999
v -1.5110373 -0.00051536283 1.5104986
v -1.4534802 0.027302602 1.4511168
v 0.4327001 0.027302602 1.4511182
v 0.5029633 -0.00051536283 1.5105
v -1.5110365 -0.00051520916 -0.5035009
v -1.4534794 0.027302602 -0.43892464
v -1.4534802 0.027302602 1.4511168
v -1.5110373 -0.00051536283 1.5104986
v 0.5029635 -0.00051519956 -0.5034999
v 0.43270025 0.027302602 -0.438924
v -1.4534794 0.027302602 -0.43892464
v -1.5110365 -0.00051520916 -0.5035009
vt 0.53133255 0.42350358
vt 0.53133255 0.47370976
vt 0.61203533 0.47370976
vt 0.61203533 0.42350358
vt 0.5063978 0.47650933
vt 0.5087013 0.4739557
vt 0.5087013 0.423279
vt 0.5063978 0.4199434
vt 0.61555874 0.47650933
vt 0.612214 0.4739557
vt 0.5087013 0.4739557
vt 0.5063978 0.47650933
vt 0.61555874 0.41994333
vt 0.612214 0.423279
vt 0.612214 0.4739557
vt 0.61555874 0.47650933
vt 0.5063978 0.4199434
vt 0.5087013 0.423279
vt 0.612214 0.423279
vt 0.61555874 0.41994333
vn -0 1 0
vn -0 1 0
vn -0 1 0
vn -0 1 0
vn 0.36810982 0.92978233 0
vn 0.36810988 0.92978233 0
vn 0.36810985 0.92978233 0
vn 0.36810982 0.92978233 0
vn -3.0098968E-07 0.9055599 0.42421848
vn -3.0098965E-07 0.9055599 0.42421848
vn -3.0098963E-07 0.9055599 0.42421848
vn -3.0098963E-07 0.9055598 0.42421848
vn -0.4351513 0.90035725 -1.3581533E-07
vn -0.43515134 0.90035725 -1.3581533E-07
vn -0.43515134 0.90035725 -1.3581533E-07
vn -0.43515137 0.90035725 -1.3581533E-07
vn 1.5375382E-07 0.9184105 -0.39562884
vn 1.5375382E-07 0.9184105 -0.39562884
vn 1.5375386E-07 0.9184105 -0.39562887
vn 1.5375385E-07 0.9184105 -0.39562884
g road2_0
f 3/3/3 2/2/2 1/1/1
f 4/4/4 3/3/3 1/1/1
f 7/7/7 6/6/6 5/5/5
f 8/8/8 7/7/7 5/5/5
f 11/11/11 10/10/10 9/9/9
f 12/12/12 11/11/11 9/9/9
f 15/15/15 14/14/14 13/13/13
f 16/16/16 15/15/15 13/13/13
f 19/19/19 18/18/18 17/17/17
f 20/20/20 19/19/19 17/17/17
