g shadow_ancient_step_CS
v -0.5363313 1.0120348 0.5268903
v -0.93542254 1.0120348 0.5268898
v -0.9354222 1.012035 -0.8597337
v -0.5363311 1.0120348 -0.46012148
v -0.8768426 1.012035 -0.92029005
v -0.47775155 1.0120348 -0.5206781
v 0.50338215 1.0120349 -0.92028975
v 0.5035015 1.0120348 -0.52067816
vt 0.9981972 0.5409257
vt 0.9981972 0.0014556609
vt 0.54095936 0.0014556609
vt 0.54095936 0.5409257
vt 0.44457993 0.0014556609
vt 0.44457993 0.5409257
vt 0.0017955936 0.0014556609
vt 0.0017198198 0.5409257
vn 2.7282067E-07 1 1.18974896E-07
vn 2.7282067E-07 1 1.18974896E-07
vn 2.7282067E-07 1 1.18974896E-07
vn 2.7282067E-07 1 1.18974896E-07
vn 1.7937676E-07 1 3.1164652E-07
vn 1.7937676E-07 1 3.1164652E-07
vn -0 1 3.7061542E-07
vn -0 1 3.7061542E-07
g shadow_ancient_step_CS_0
f 3/3/3 2/2/2 1/1/1
f 4/4/4 3/3/3 1/1/1
f 5/5/5 3/3/3 4/4/4
f 6/6/6 5/5/5 4/4/4
f 7/7/7 5/5/5 6/6/6
f 8/8/8 7/7/7 6/6/6
