g shadow_base
v -3.9193664 -0.18467416 -65
v 0.01913917 -0.18467407 -65
v 0.019158721 -0.1846684 65
v -3.9193468 -0.1846685 65
v -7.4296885 -0.18467423 -65
v -7.4296694 -0.18466857 65
v 7.4296885 -0.18466833 65
v 0.019158721 -0.1846684 65
v 0.01913917 -0.18467407 -65
v 7.4296694 -0.184674 -65
vt 1 0.009075044
vt 1 0.009075044
vt 0 0.009075044
vt 0 0.009075044
vt 1 0.99092495
vt 0 0.99092495
vt 0 0.99092495
vt 0 0.009075044
vt 1 0.009075044
vt 1 0.99092495
vn -0 1 0
vn -0 1 0
vn -0 1 0
vn -0 1 0
vn -0 1 0
vn -0 1 0
vn -0 1 0
vn -0 1 0
vn -0 1 0
vn -0 1 0
g shadow_base_0
f 3/3/3 2/2/2 1/1/1
f 4/4/4 3/3/3 1/1/1
f 4/4/4 1/1/1 5/5/5
f 6/6/6 4/4/4 5/5/5
f 9/9/9 8/8/8 7/7/7
f 10/10/10 9/9/9 7/7/7
