g shield_generator1_gear2
v -0.041412015 0.28841344 -1.538086E-07
v -0.041411974 0.2884135 -0.14555861
v 0.05395275 0.28633264 -0.14555858
v 0.05395251 0.2863327 -1.9226076E-07
v 0.17465632 0.2332219 -1.9226076E-07
v 0.17465651 0.2332219 -0.14555866
v 0.24061811 0.16431734 -0.14555866
v 0.24061808 0.16431734 -1.9226076E-07
v 0.2884135 0.041411888 -1.9226076E-07
v 0.2884136 0.041411813 -0.14555858
v 0.2863327 -0.053952865 -0.14555858
v 0.2863327 -0.053952865 -1.538086E-07
v 0.23322189 -0.17465666 -1.1535645E-07
v 0.23322198 -0.17465656 -0.14555849
v 0.16431753 -0.24061829 -0.14555846
v 0.16431746 -0.24061824 -3.845215E-08
v 0.04141186 -0.2884135 0
v 0.041412003 -0.28841355 -0.14555842
v -0.053952884 -0.28633267 -0.14555839
v -0.053952817 -0.28633285 7.69043E-08
v -0.17465666 -0.23322205 3.845215E-08
v -0.17465632 -0.23322186 -0.14555834
v -0.24061824 -0.16431761 -0.14555839
v -0.24061841 -0.16431741 0
v -0.28841344 -0.041411966 3.845215E-08
v -0.28841347 -0.041411888 -0.14555839
v -0.28633294 0.05395298 -0.14555842
v -0.28633308 0.053952903 7.162271E-17
v -0.23322192 0.17465644 -3.845215E-08
v -0.23322178 0.17465651 -0.14555842
v -0.16431753 0.2406181 -0.14555849
v -0.16431768 0.2406181 -7.69043E-08
v -0.041411974 0.2884135 -0.14555861
v 0.060697105 0.22240616 -0.14555858
v 0.05395275 0.28633264 -0.14555858
v -0.050938506 0.22484203 -0.14555849
v 2.307129E-07 -7.69043E-08 -0.14555854
v -0.08264201 0.21251312 -0.14555854
v 0.1229687 0.195006 -0.14555858
v 0.20018418 0.11434539 -0.14555858
v 0.21251309 0.082641825 -0.14555861
v 0.17465651 0.2332219 -0.14555866
v 0.24061811 0.16431734 -0.14555866
v 0.2884136 0.041411813 -0.14555858
v 0.22240603 -0.060697142 -0.14555858
v 0.2863327 -0.053952865 -0.14555858
v 0.22484197 0.050938256 -0.14555861
v 2.307129E-07 -7.69043E-08 -0.14555854
v 0.21251309 0.082641825 -0.14555861
v 0.19500636 -0.122968666 -0.14555854
v 0.114345565 -0.20018446 -0.14555846
v 0.08264196 -0.21251339 -0.14555846
v 0.23322198 -0.17465656 -0.14555849
v 0.16431753 -0.24061829 -0.14555846
v 0.041412003 -0.28841355 -0.14555842
v -0.060696833 -0.22240636 -0.14555839
v -0.053952884 -0.28633267 -0.14555839
v 0.050938353 -0.2248423 -0.14555839
v 2.307129E-07 -7.69043E-08 -0.14555854
v 0.08264196 -0.21251339 -0.14555846
v -0.12296834 -0.19500612 -0.14555839
v -0.20018427 -0.114345506 -0.14555842
v -0.21251315 -0.08264194 -0.14555846
v -0.17465632 -0.23322186 -0.14555834
v -0.24061824 -0.16431761 -0.14555839
v -0.28841347 -0.041411888 -0.14555839
v -0.22240598 0.060697105 -0.14555846
v -0.28633294 0.05395298 -0.14555842
v -0.22484198 -0.05093833 -0.14555839
v 2.307129E-07 -7.69043E-08 -0.14555854
v -0.21251315 -0.08264194 -0.14555846
v -0.19500606 0.122968435 -0.14555849
v -0.11434551 0.20018412 -0.14555849
v -0.08264201 0.21251312 -0.14555854
v -0.23322178 0.17465651 -0.14555842
v -0.16431753 0.2406181 -0.14555849
v -0.050938506 0.22484203 -0.14555849
v -0.041411974 0.2884135 -0.14555861
v -0.041412015 0.28841344 -1.538086E-07
v -0.050938558 0.22484195 -1.1535645E-07
v 0.060697015 0.22240607 -1.538086E-07
v 0.05395251 0.2863327 -1.9226076E-07
v 0.05395275 0.28633264 -0.14555858
v 0.060697105 0.22240616 -0.14555858
v 0.20018417 0.11434547 -1.9226076E-07
v 0.24061808 0.16431734 -1.9226076E-07
v 0.24061811 0.16431734 -0.14555866
v 0.20018418 0.11434539 -0.14555858
v 0.22240591 -0.06069722 -1.1535645E-07
v 0.2863327 -0.053952865 -1.538086E-07
v 0.2863327 -0.053952865 -0.14555858
v 0.22240603 -0.060697142 -0.14555858
v 0.11434534 -0.20018427 -3.845215E-08
v 0.16431746 -0.24061824 -3.845215E-08
v 0.16431753 -0.24061829 -0.14555846
v 0.114345565 -0.20018446 -0.14555846
v -0.06069715 -0.22240607 3.845215E-08
v -0.053952817 -0.28633285 7.69043E-08
v -0.053952884 -0.28633267 -0.14555839
v -0.060696833 -0.22240636 -0.14555839
v -0.2001843 -0.11434558 7.69043E-08
v -0.24061841 -0.16431741 0
v -0.24061824 -0.16431761 -0.14555839
v -0.20018427 -0.114345506 -0.14555842
v -0.22240612 0.06069718 -3.845215E-08
v -0.28633308 0.053952903 7.162271E-17
v -0.28633294 0.05395298 -0.14555842
v -0.22240598 0.060697105 -0.14555846
v 0.19500624 -0.122968666 -1.1535645E-07
v 0.22240591 -0.06069722 -1.1535645E-07
v 0.22240603 -0.060697142 -0.14555858
v 0.19500636 -0.122968666 -0.14555854
v 0.23322189 -0.17465666 -1.1535645E-07
v 0.19500624 -0.122968666 -1.1535645E-07
v 0.19500636 -0.122968666 -0.14555854
v 0.23322198 -0.17465656 -0.14555849
v 0.082641795 -0.21251322 0
v 0.11434534 -0.20018427 -3.845215E-08
v 0.114345565 -0.20018446 -0.14555846
v 0.08264196 -0.21251339 -0.14555846
v 0.050938245 -0.22484218 0
v 0.050938353 -0.2248423 -0.14555839
v 0.04141186 -0.2884135 0
v 0.050938245 -0.22484218 0
v 0.050938353 -0.2248423 -0.14555839
v 0.041412003 -0.28841355 -0.14555842
v -0.122968405 -0.19500639 3.845215E-08
v -0.06069715 -0.22240607 3.845215E-08
v -0.060696833 -0.22240636 -0.14555839
v -0.12296834 -0.19500612 -0.14555839
v -0.17465666 -0.23322205 3.845215E-08
v -0.122968405 -0.19500639 3.845215E-08
v -0.12296834 -0.19500612 -0.14555839
v -0.17465632 -0.23322186 -0.14555834
v -0.28841344 -0.041411966 3.845215E-08
v -0.22484224 -0.05093833 0
v -0.22484198 -0.05093833 -0.14555839
v -0.28841347 -0.041411888 -0.14555839
v -0.21251327 -0.082641974 0
v -0.2001843 -0.11434558 7.69043E-08
v -0.20018427 -0.114345506 -0.14555842
v -0.21251315 -0.08264194 -0.14555846
v -0.22484224 -0.05093833 0
v -0.22484198 -0.05093833 -0.14555839
v -0.1950063 0.12296852 -7.69043E-08
v -0.22240612 0.06069718 -3.845215E-08
v -0.22240598 0.060697105 -0.14555846
v -0.19500606 0.122968435 -0.14555849
v -0.23322192 0.17465644 -3.845215E-08
v -0.1950063 0.12296852 -7.69043E-08
v -0.19500606 0.122968435 -0.14555849
v -0.23322178 0.17465651 -0.14555842
v -0.16431753 0.2406181 -0.14555849
v -0.11434551 0.20018412 -0.14555849
v -0.11434548 0.2001842 -7.69043E-08
v -0.16431768 0.2406181 -7.69043E-08
v -0.08264201 0.21251312 -0.14555854
v -0.050938506 0.22484203 -0.14555849
v -0.050938558 0.22484195 -1.1535645E-07
v -0.082642026 0.21251312 -1.1535645E-07
v -0.11434551 0.20018412 -0.14555849
v -0.11434548 0.2001842 -7.69043E-08
v 0.12296833 0.195006 -1.9226076E-07
v 0.060697015 0.22240607 -1.538086E-07
v 0.060697105 0.22240616 -0.14555858
v 0.1229687 0.195006 -0.14555858
v 0.17465632 0.2332219 -1.9226076E-07
v 0.12296833 0.195006 -1.9226076E-07
v 0.1229687 0.195006 -0.14555858
v 0.17465651 0.2332219 -0.14555866
v 0.21251312 0.0826419 -1.9226076E-07
v 0.20018417 0.11434547 -1.9226076E-07
v 0.20018418 0.11434539 -0.14555858
v 0.21251309 0.082641825 -0.14555861
v 0.22484203 0.050938256 -1.9226076E-07
v 0.22484197 0.050938256 -0.14555861
v 0.2884135 0.041411888 -1.9226076E-07
v 0.22484203 0.050938256 -1.9226076E-07
v 0.22484197 0.050938256 -0.14555861
v 0.2884136 0.041411813 -0.14555858
v 0.05413457 0.055941958 -0.14555858
v -0.0018074241 0.07911399 -0.14555858
v -3.57605E-05 0.064205326 -0.20054393
v 0.045364268 0.04540007 -0.20054384
v 0.07730649 -3.845215E-08 -0.14555854
v 0.06416962 -1.1535645E-07 -0.20054388
v 0.05413457 -0.055942032 -0.14555854
v 0.045364268 -0.045400146 -0.20054384
v -0.0018074048 -0.07911403 -0.14555854
v -3.57605E-05 -0.06420551 -0.20054384
v -0.057749428 -0.055942073 -0.14555849
v -0.0018074048 -0.07911403 -0.14555854
v -3.57605E-05 -0.06420551 -0.20054384
v -0.045435876 -0.04540022 -0.20054388
v -0.08092136 -3.845215E-08 -0.14555854
v -0.064241245 -1.1535645E-07 -0.20054384
v -0.057749428 0.055941958 -0.14555849
v -0.045435876 0.04540007 -0.20054388
v -0.0018074241 0.07911399 -0.14555858
v -3.57605E-05 0.064205326 -0.20054393
v -3.57605E-05 0.064205326 -0.20054393
v -1.538086E-07 -1.538086E-07 -0.2070185
v 0.045364268 0.04540007 -0.20054384
v -0.045435876 0.04540007 -0.20054388
v 0.06416962 -1.1535645E-07 -0.20054388
v -0.064241245 -1.1535645E-07 -0.20054384
v 0.045364268 -0.045400146 -0.20054384
v -0.045435876 -0.04540022 -0.20054388
v -3.57605E-05 -0.06420551 -0.20054384
vt 0.5918989 0.60315335
vt 0.5918989 0.5601369
vt 0.5351114 0.5601369
vt 0.5351114 0.6031531
vt 0.5918993 0.6031531
vt 0.5918989 0.5601369
vt 0.5351114 0.5601369
vt 0.5351114 0.60315335
vt 0.5918989 0.60315335
vt 0.5918989 0.5601369
vt 0.5351114 0.5601369
vt 0.5351118 0.60315335
vt 0.5918989 0.6031531
vt 0.5918989 0.5601369
vt 0.5351114 0.5601367
vt 0.5351114 0.6031529
vt 0.5918989 0.60315335
vt 0.5918989 0.56013644
vt 0.5351114 0.5601369
vt 0.5351114 0.6031529
vt 0.59189284 0.60315335
vt 0.59189284 0.5601367
vt 0.535105 0.5601369
vt 0.535105 0.60315347
vt 0.5918989 0.60315335
vt 0.5918989 0.5601369
vt 0.5351114 0.5601369
vt 0.5351114 0.60315335
vt 0.5918925 0.6031529
vt 0.5918925 0.5601367
vt 0.53510535 0.5601369
vt 0.53510535 0.6031531
vt 0.57127446 0.6886672
vt 0.6050022 0.66427946
vt 0.58377033 0.65849996
vt 0.59037477 0.6995938
vt 0.6684286 0.71123815
vt 0.5903745 0.71123815
vt 0.62147003 0.6478118
vt 0.65678424 0.6331842
vt 0.6684286 0.6331843
vt 0.6156904 0.62657976
vt 0.64585763 0.6140841
vt 0.64585763 0.6140841
vt 0.62147003 0.6478118
vt 0.6156904 0.62657976
vt 0.65678424 0.6331842
vt 0.6684286 0.71123815
vt 0.6684286 0.6331843
vt 0.6050022 0.66427946
vt 0.59037477 0.6995938
vt 0.59037477 0.71123815
vt 0.58377033 0.65849996
vt 0.57127446 0.6886672
vt 0.57127446 0.6886672
vt 0.6050022 0.66427946
vt 0.58377033 0.65849996
vt 0.59037477 0.6995938
vt 0.6684286 0.71123815
vt 0.59037477 0.71123815
vt 0.62147003 0.6478118
vt 0.65678424 0.6331842
vt 0.6684286 0.6331841
vt 0.6156904 0.62657976
vt 0.64585763 0.6140841
vt 0.64585763 0.6140841
vt 0.62147003 0.6478118
vt 0.6156904 0.62657976
vt 0.65678424 0.6331842
vt 0.6684286 0.71123815
vt 0.6684286 0.6331841
vt 0.6050022 0.66427946
vt 0.59037477 0.6995938
vt 0.5903745 0.71123815
vt 0.58377033 0.65849996
vt 0.57127446 0.6886672
vt 0.6301619 0.5601369
vt 0.5918989 0.5601369
vt 0.5918989 0.60315335
vt 0.6301619 0.6031531
vt 0.49684238 0.6031531
vt 0.5351114 0.6031531
vt 0.5351114 0.5601369
vt 0.49684238 0.5601369
vt 0.49684215 0.60315335
vt 0.5351114 0.60315335
vt 0.5351114 0.5601369
vt 0.49684238 0.5601369
vt 0.49684215 0.60315335
vt 0.5351118 0.60315335
vt 0.5351114 0.5601369
vt 0.49684215 0.5601369
vt 0.49684215 0.6031529
vt 0.5351114 0.6031529
vt 0.5351114 0.5601367
vt 0.49684215 0.56013644
vt 0.49684238 0.6031529
vt 0.5351114 0.6031529
vt 0.5351114 0.5601369
vt 0.49684238 0.5601369
vt 0.4968357 0.60315335
vt 0.535105 0.60315347
vt 0.535105 0.5601369
vt 0.4968357 0.5601367
vt 0.4968419 0.60315335
vt 0.5351114 0.60315335
vt 0.5351114 0.5601369
vt 0.49684238 0.5601369
vt 0.6301619 0.60315335
vt 0.6706644 0.60315335
vt 0.6706644 0.5601369
vt 0.6301619 0.5601369
vt 0.5918989 0.6031531
vt 0.63016796 0.6031529
vt 0.63016796 0.5601367
vt 0.5918989 0.5601369
vt 0.6504135 0.60315335
vt 0.67066467 0.60315335
vt 0.67066467 0.5601369
vt 0.6504133 0.5601369
vt 0.63016224 0.60315335
vt 0.6301619 0.5601369
vt 0.5918989 0.60315335
vt 0.6301619 0.60315335
vt 0.6301619 0.56013644
vt 0.5918989 0.56013644
vt 0.63016224 0.60315335
vt 0.67066467 0.60315335
vt 0.67066467 0.5601369
vt 0.6301619 0.5601369
vt 0.59189284 0.60315335
vt 0.6301619 0.60315347
vt 0.6301619 0.5601369
vt 0.59189284 0.5601367
vt 0.5918989 0.60315335
vt 0.6301619 0.60315335
vt 0.6301619 0.5601369
vt 0.5918989 0.5601369
vt 0.65041316 0.60315335
vt 0.6706644 0.60315335
vt 0.6706644 0.5601369
vt 0.65041316 0.5601369
vt 0.6301619 0.60315335
vt 0.6301619 0.5601369
vt 0.6301619 0.6031536
vt 0.6706644 0.60315335
vt 0.6706644 0.5601369
vt 0.6301619 0.5601369
vt 0.5918925 0.6031529
vt 0.6301619 0.6031531
vt 0.6301619 0.5601369
vt 0.5918925 0.5601367
vt 0.53510535 0.5601369
vt 0.4968357 0.5601368
vt 0.4968357 0.6031529
vt 0.53510535 0.6031531
vt 0.65041316 0.5601369
vt 0.6301619 0.5601369
vt 0.6301619 0.6031536
vt 0.65041316 0.6031536
vt 0.6706644 0.5601369
vt 0.6706644 0.6031536
vt 0.6301615 0.60315335
vt 0.6706641 0.60315335
vt 0.6706644 0.5601369
vt 0.6301615 0.5601369
vt 0.5918993 0.6031531
vt 0.6301682 0.60315335
vt 0.6301682 0.5601369
vt 0.5918989 0.5601369
vt 0.65041316 0.6031536
vt 0.6706644 0.6031536
vt 0.6706644 0.5601369
vt 0.65041316 0.5601369
vt 0.6301619 0.6031536
vt 0.6301619 0.5601369
vt 0.5918989 0.60315335
vt 0.63016224 0.6031529
vt 0.63016224 0.56013644
vt 0.5918989 0.5601369
vt 0.25058395 0.9689397
vt 0.250584 0.9750157
vt 0.26036006 0.9750157
vt 0.26036 0.9689397
vt 0.25058395 0.9628598
vt 0.26036 0.9628598
vt 0.25058395 0.95677996
vt 0.26036 0.95677996
vt 0.25058395 0.9507039
vt 0.26036 0.9507039
vt 0.25058395 0.95677996
vt 0.25058395 0.9507039
vt 0.26036 0.9507039
vt 0.26036006 0.95677996
vt 0.25058395 0.9628598
vt 0.26036 0.9628598
vt 0.250584 0.9689397
vt 0.26036006 0.9689397
vt 0.250584 0.9750157
vt 0.26036006 0.9750157
vt 0.25524056 0.9945527
vt 0.25524545 0.98575
vt 0.26146495 0.9919744
vt 0.24901617 0.9919744
vt 0.2640432 0.98575
vt 0.24643797 0.98575
vt 0.26146495 0.9795256
vt 0.24901617 0.9795256
vt 0.25524056 0.97694737
vn 0.021814212 0.999762 0
vn 0.021814214 0.999762 0
vn 0.021814216 0.999762 0
vn 0.021814216 0.999762 0
vn 0.72236437 0.6915126 5.722766E-07
vn 0.7223644 0.69151247 5.722765E-07
vn 0.7223644 0.6915126 5.722765E-07
vn 0.72236437 0.6915126 5.7227646E-07
vn 0.999762 -0.021814696 4.6781065E-07
vn 0.999762 -0.021814696 4.6781065E-07
vn 0.999762 -0.021814696 4.6781068E-07
vn 0.999762 -0.021814696 4.6781065E-07
vn 0.6915131 -0.7223639 2.4077522E-07
vn 0.6915132 -0.7223639 2.4077522E-07
vn 0.6915131 -0.72236395 2.4077522E-07
vn 0.6915131 -0.7223639 2.407752E-07
vn -0.021813774 -0.999762 -5.3400163E-07
vn -0.021813774 -0.999762 -5.340016E-07
vn -0.021813774 -0.999762 -5.340016E-07
vn -0.021813774 -0.999762 -5.340016E-07
vn -0.722363 -0.6915141 -1.2387695E-06
vn -0.722363 -0.691514 -1.2387695E-06
vn -0.722363 -0.6915141 -1.2387698E-06
vn -0.722363 -0.691514 -1.2387695E-06
vn -0.9997621 0.021810329 -3.8460738E-07
vn -0.9997621 0.02181033 -3.8460738E-07
vn -0.9997621 0.021810329 -3.8460738E-07
vn -0.9997621 0.021810329 -3.8460735E-07
vn -0.69151396 0.7223631 -4.955093E-07
vn -0.69151384 0.7223631 -4.955093E-07
vn -0.69151384 0.7223631 -4.955093E-07
vn -0.69151384 0.7223631 -4.955093E-07
vn -2.0540317E-07 -9.0028885E-07 -1
vn -3.1157583E-07 -3.5765854E-07 -1
vn -2.0540317E-07 -9.0028885E-07 -1
vn -0 -1.6625984E-07 -1
vn -3.2532836E-07 -3.043064E-07 -1
vn -0 0 -1
vn -3.623511E-07 -3.771893E-07 -1
vn -5.849889E-07 0 -1
vn -5.1919335E-07 4.0452807E-07 -1
vn -8.712246E-07 -8.340137E-07 -1
vn -8.7122464E-07 -8.3401375E-07 -1
vn 2.973944E-07 -1.9224845E-07 -1
vn -0 -3.3734358E-07 -1
vn 2.973944E-07 -1.9224845E-07 -1
vn -0 -2.1480244E-07 -1
vn -3.2532836E-07 -3.043064E-07 -1
vn -5.1919335E-07 4.0452807E-07 -1
vn -2.8998514E-07 -5.6162617E-07 -1
vn -1.4507604E-07 -5.0426945E-07 -1
vn -9.312998E-07 -7.240418E-07 -1
vn -1.9395601E-07 -6.03079E-07 -1
vn -1.93956E-07 -6.0307906E-07 -1
vn -1.7909299E-07 3.0549964E-07 -1
vn -1.5860479E-07 -3.2175083E-07 -1
vn -1.7909299E-07 3.0549964E-07 -1
vn -7.39922E-07 -4.969499E-07 -1
vn -3.2532836E-07 -3.043064E-07 -1
vn -9.312998E-07 -7.240418E-07 -1
vn -2.1590039E-07 -6.5579684E-07 -1
vn -0 -8.4526175E-07 -1
vn -5.191925E-07 4.0452917E-07 -1
vn -1.7876158E-07 -6.853147E-07 -1
vn -1.7876158E-07 -6.853146E-07 -1
vn -3.1360105E-07 -5.5043427E-07 -1
vn -4.3164133E-07 -5.447642E-07 -1
vn -3.1360105E-07 -5.5043427E-07 -1
vn -6.6054116E-07 2.6971466E-07 -1
vn -3.2532836E-07 -3.043064E-07 -1
vn -5.191925E-07 4.0452917E-07 -1
vn -4.2941042E-07 0 -1
vn -6.3109627E-07 0 -1
vn -0 0 -1
vn -6.8531483E-07 1.7876212E-07 -1
vn -6.853148E-07 1.7876212E-07 -1
vn -0.98895735 0.1482007 -2.3301376E-07
vn -0.98895735 0.1482007 -2.3301376E-07
vn -0.98895735 0.14820069 -2.3301375E-07
vn -0.98895735 0.1482007 -2.3301376E-07
vn 0.9944806 0.10492051 1.1152297E-06
vn 0.9944806 0.10492051 1.1152297E-06
vn 0.9944806 0.1049205 1.1152296E-06
vn 0.9944806 0.1049205 1.1152296E-06
vn 0.77739346 -0.6290146 3.2104094E-07
vn 0.7773934 -0.6290147 3.2104091E-07
vn 0.77739346 -0.6290147 3.2104094E-07
vn 0.7773934 -0.6290147 3.2104091E-07
vn 0.1049184 -0.99448085 -2.1942057E-07
vn 0.104918405 -0.99448085 -2.1942058E-07
vn 0.10491839 -0.99448085 -2.1942058E-07
vn 0.1049184 -0.99448085 -2.1942057E-07
vn -0.62901336 -0.7773945 0
vn -0.6290134 -0.7773944 0
vn -0.6290134 -0.7773944 0
vn -0.6290134 -0.7773944 0
vn -0.9944811 -0.10491605 -8.252571E-07
vn -0.9944811 -0.10491606 -8.2525713E-07
vn -0.9944811 -0.10491606 -8.2525713E-07
vn -0.9944811 -0.10491606 -8.252571E-07
vn -0.77739286 0.62901527 -7.119845E-07
vn -0.77739286 0.62901527 -7.1198457E-07
vn -0.77739286 0.6290154 -7.1198457E-07
vn -0.77739286 0.6290152 -7.119845E-07
vn -0.10491628 0.9944811 -1.0485552E-07
vn -0.10491628 0.9944811 -1.0485554E-07
vn -0.104916275 0.9944811 -1.0485553E-07
vn -0.10491628 0.9944811 -1.0485553E-07
vn 0.91531384 -0.40274137 6.1646034E-07
vn 0.91531384 -0.40274137 6.1646034E-07
vn 0.91531384 -0.40274134 6.1646034E-07
vn 0.91531384 -0.40274137 6.1646034E-07
vn 0.80409056 0.59450686 8.2072745E-07
vn 0.80409056 0.5945068 8.2072734E-07
vn 0.80409056 0.5945068 8.2072745E-07
vn 0.80409056 0.5945068 8.2072745E-07
vn 0.36244023 -0.93200696 1.3919287E-06
vn 0.36244023 -0.93200696 1.5870189E-06
vn 0.3624402 -0.93200696 1.5870188E-06
vn 0.36244023 -0.93200696 1.3919288E-06
vn 0.36244017 -0.93200696 1.1968386E-06
vn 0.36244023 -0.93200696 1.1968386E-06
vn 0.9889576 -0.14819854 9.2688026E-07
vn 0.9889576 -0.14819854 9.2688026E-07
vn 0.9889576 -0.14819854 9.2688026E-07
vn 0.9889576 -0.14819854 9.2688026E-07
vn -0.4027455 -0.91531193 -5.33287E-07
vn -0.40274546 -0.91531205 -5.3328705E-07
vn -0.40274546 -0.91531193 -5.33287E-07
vn -0.40274546 -0.91531205 -5.3328705E-07
vn 0.5945062 -0.80409104 -4.2978033E-07
vn 0.5945063 -0.80409104 -4.2978039E-07
vn 0.59450626 -0.80409104 -4.2978033E-07
vn 0.5945062 -0.80409104 -4.2978039E-07
vn -0.14819904 -0.9889576 -3.6829218E-07
vn -0.14819905 -0.9889576 -3.682922E-07
vn -0.14819905 -0.9889576 -3.6829218E-07
vn -0.14819904 -0.9889576 -3.6829218E-07
vn -0.9320073 -0.36243945 -8.9594613E-07
vn -0.9320072 -0.3624399 -5.7365054E-07
vn -0.9320072 -0.3624399 -5.736506E-07
vn -0.9320073 -0.3624395 -8.9594636E-07
vn -0.9320075 -0.36243904 -1.2182422E-06
vn -0.9320075 -0.36243904 -1.2182423E-06
vn -0.91531235 0.40274465 -1.360128E-06
vn -0.91531235 0.40274465 -1.360128E-06
vn -0.91531235 0.40274465 -1.360128E-06
vn -0.91531235 0.40274465 -1.360128E-06
vn -0.80409056 -0.59450686 -1.0045487E-06
vn -0.80409056 -0.59450686 -1.0045487E-06
vn -0.80409056 -0.59450686 -1.0045487E-06
vn -0.80409056 -0.59450686 -1.0045487E-06
vn 0.62901324 0.7773946 0
vn 0.62901324 0.7773946 0
vn 0.62901324 0.77739453 0
vn 0.62901324 0.77739453 0
vn -0.36244068 0.9320069 0
vn -0.36243963 0.9320073 1.6818177E-07
vn -0.36243966 0.9320073 1.6818177E-07
vn -0.36244068 0.9320069 0
vn -0.36244172 0.9320065 -2.2261133E-07
vn -0.36244172 0.9320065 -2.2261133E-07
vn 0.4027469 0.91531134 8.806557E-07
vn 0.40274692 0.91531134 8.8065576E-07
vn 0.40274692 0.91531134 8.8065576E-07
vn 0.4027469 0.91531134 8.806557E-07
vn -0.5945097 0.8040884 -1.1598898E-06
vn -0.5945098 0.8040883 -1.1598898E-06
vn -0.5945098 0.8040884 -1.1598901E-06
vn -0.5945098 0.8040884 -1.1598901E-06
vn 0.9320073 0.36243972 -2.6633785E-07
vn 0.93200696 0.3624403 -1.9142085E-07
vn 0.93200696 0.36244035 -1.914209E-07
vn 0.9320073 0.36243966 -2.6633793E-07
vn 0.9320075 0.36243892 -3.4125483E-07
vn 0.9320075 0.36243892 -3.4125483E-07
vn 0.14819852 0.9889576 -2.2265745E-07
vn 0.14819852 0.9889576 -2.2265745E-07
vn 0.14819852 0.9889576 -2.2265745E-07
vn 0.14819852 0.9889576 -2.2265743E-07
vn 0.6828301 0.6896364 -0.24113235
vn -0.006685898 0.96507627 -0.26188374
vn 0.008067266 0.9651864 -0.26143828
vn 0.6903157 0.68222356 -0.24090508
vn 0.972626 0 -0.23237607
vn 0.972626 -6.775052E-07 -0.23237608
vn 0.68283015 -0.68963665 -0.24113135
vn 0.69031596 -0.68222356 -0.24090408
vn -0.0066852183 -0.9650766 -0.26188236
vn 0.0080677625 -0.9651869 -0.2614369
vn -0.6816651 -0.6751005 -0.2820848
vn -0.0066852183 -0.9650766 -0.26188236
vn 0.0080677625 -0.9651869 -0.2614369
vn -0.67440516 -0.6824433 -0.2818668
vn -0.95693785 2.1965495E-07 -0.29029265
vn -0.95693785 -4.1928055E-07 -0.29029265
vn -0.6816652 0.6751001 -0.2820859
vn -0.6744051 0.68244284 -0.28186783
vn -0.006685898 0.96507627 -0.26188374
vn 0.008067266 0.9651864 -0.26143828
vn -9.52829E-06 0.10033258 -0.99495393
vn 6.170705E-05 -4.3531676E-07 -1
vn 0.07096951 0.07097898 -0.99494994
vn -0.07092419 0.07091317 -0.99495786
vn 0.10038845 0 -0.99494827
vn -0.100278705 0 -0.99495935
vn 0.07096915 -0.070979714 -0.99494994
vn -0.07092375 -0.070913866 -0.99495786
vn -9.465119E-06 -0.10033395 -0.9949538
g shield_generator1_gear2_0
f 3/3/3 2/2/2 1/1/1
f 4/4/4 3/3/3 1/1/1
f 7/7/7 6/6/6 5/5/5
f 8/8/8 7/7/7 5/5/5
f 11/11/11 10/10/10 9/9/9
f 12/12/12 11/11/11 9/9/9
f 15/15/15 14/14/14 13/13/13
f 16/16/16 15/15/15 13/13/13
f 19/19/19 18/18/18 17/17/17
f 20/20/20 19/19/19 17/17/17
f 23/23/23 22/22/22 21/21/21
f 24/24/24 23/23/23 21/21/21
f 27/27/27 26/26/26 25/25/25
f 28/28/28 27/27/27 25/25/25
f 31/31/31 30/30/30 29/29/29
f 32/32/32 31/31/31 29/29/29
f 35/35/35 34/34/34 33/33/33
f 34/34/34 36/36/36 33/33/33
f 34/34/34 37/37/37 36/36/36
f 36/36/36 37/37/37 38/38/38
f 39/39/39 37/37/37 34/34/34
f 40/40/40 37/37/37 39/39/39
f 41/41/41 37/37/37 40/40/40
f 40/40/40 39/39/39 42/42/42
f 43/43/43 40/40/40 42/42/42
f 46/46/46 45/45/45 44/44/44
f 45/45/45 47/47/47 44/44/44
f 45/45/45 48/48/48 47/47/47
f 47/47/47 48/48/48 49/49/49
f 50/50/50 48/48/48 45/45/45
f 51/51/51 48/48/48 50/50/50
f 52/52/52 48/48/48 51/51/51
f 51/51/51 50/50/50 53/53/53
f 54/54/54 51/51/51 53/53/53
f 57/57/57 56/56/56 55/55/55
f 56/56/56 58/58/58 55/55/55
f 56/56/56 59/59/59 58/58/58
f 58/58/58 59/59/59 60/60/60
f 61/61/61 59/59/59 56/56/56
f 62/62/62 59/59/59 61/61/61
f 63/63/63 59/59/59 62/62/62
f 62/62/62 61/61/61 64/64/64
f 65/65/65 62/62/62 64/64/64
f 68/68/68 67/67/67 66/66/66
f 67/67/67 69/69/69 66/66/66
f 67/67/67 70/70/70 69/69/69
f 69/69/69 70/70/70 71/71/71
f 72/72/72 70/70/70 67/67/67
f 73/73/73 70/70/70 72/72/72
f 74/74/74 70/70/70 73/73/73
f 73/73/73 72/72/72 75/75/75
f 76/76/76 73/73/73 75/75/75
f 79/79/79 78/78/78 77/77/77
f 80/80/80 79/79/79 77/77/77
f 83/83/83 82/82/82 81/81/81
f 84/84/84 83/83/83 81/81/81
f 87/87/87 86/86/86 85/85/85
f 88/88/88 87/87/87 85/85/85
f 91/91/91 90/90/90 89/89/89
f 92/92/92 91/91/91 89/89/89
f 95/95/95 94/94/94 93/93/93
f 96/96/96 95/95/95 93/93/93
f 99/99/99 98/98/98 97/97/97
f 100/100/100 99/99/99 97/97/97
f 103/103/103 102/102/102 101/101/101
f 104/104/104 103/103/103 101/101/101
f 107/107/107 106/106/106 105/105/105
f 108/108/108 107/107/107 105/105/105
f 111/111/111 110/110/110 109/109/109
f 112/112/112 111/111/111 109/109/109
f 115/115/115 114/114/114 113/113/113
f 116/116/116 115/115/115 113/113/113
f 119/119/119 118/118/118 117/117/117
f 120/120/120 119/119/119 117/117/117
f 120/120/120 117/117/117 121/121/121
f 122/122/122 120/120/120 121/121/121
f 125/125/125 124/124/124 123/123/123
f 126/126/126 125/125/125 123/123/123
f 129/129/129 128/128/128 127/127/127
f 130/130/130 129/129/129 127/127/127
f 133/133/133 132/132/132 131/131/131
f 134/134/134 133/133/133 131/131/131
f 137/137/137 136/136/136 135/135/135
f 138/138/138 137/137/137 135/135/135
f 141/141/141 140/140/140 139/139/139
f 142/142/142 141/141/141 139/139/139
f 142/142/142 139/139/139 143/143/143
f 144/144/144 142/142/142 143/143/143
f 147/147/147 146/146/146 145/145/145
f 148/148/148 147/147/147 145/145/145
f 151/151/151 150/150/150 149/149/149
f 152/152/152 151/151/151 149/149/149
f 155/155/155 154/154/154 153/153/153
f 156/156/156 155/155/155 153/153/153
f 159/159/159 158/158/158 157/157/157
f 160/160/160 159/159/159 157/157/157
f 160/160/160 157/157/157 161/161/161
f 162/162/162 160/160/160 161/161/161
f 165/165/165 164/164/164 163/163/163
f 166/166/166 165/165/165 163/163/163
f 169/169/169 168/168/168 167/167/167
f 170/170/170 169/169/169 167/167/167
f 173/173/173 172/172/172 171/171/171
f 174/174/174 173/173/173 171/171/171
f 174/174/174 171/171/171 175/175/175
f 176/176/176 174/174/174 175/175/175
f 179/179/179 178/178/178 177/177/177
f 180/180/180 179/179/179 177/177/177
f 183/183/183 182/182/182 181/181/181
f 184/184/184 183/183/183 181/181/181
f 184/184/184 181/181/181 185/185/185
f 186/186/186 184/184/184 185/185/185
f 186/186/186 185/185/185 187/187/187
f 188/188/188 186/186/186 187/187/187
f 188/188/188 187/187/187 189/189/189
f 190/190/190 188/188/188 189/189/189
f 193/193/193 192/192/192 191/191/191
f 194/194/194 193/193/193 191/191/191
f 194/194/194 191/191/191 195/195/195
f 196/196/196 194/194/194 195/195/195
f 196/196/196 195/195/195 197/197/197
f 198/198/198 196/196/196 197/197/197
f 198/198/198 197/197/197 199/199/199
f 200/200/200 198/198/198 199/199/199
f 203/203/203 202/202/202 201/201/201
f 201/201/201 202/202/202 204/204/204
f 205/205/205 202/202/202 203/203/203
f 204/204/204 202/202/202 206/206/206
f 207/207/207 202/202/202 205/205/205
f 206/206/206 202/202/202 208/208/208
f 209/209/209 202/202/202 207/207/207
f 208/208/208 202/202/202 209/209/209
