g slot
v 0.18825255 0.06877047 -0.9912931
v 0.2993457 0.06877058 -0.8801997
v 0.18825255 0.06877049 -0.76910675
v 0.077159435 0.06877047 -0.88019973
v 0.18825255 0.06877047 -0.9912931
v 0.077159435 0.06877047 -0.88019973
v -0.03247285 0.0947831 -0.88020015
v 0.18825255 0.09478314 -1.1009253
v 0.077159435 0.06877047 -0.88019973
v 0.18825255 0.06877049 -0.76910675
v 0.18825258 0.09478324 -0.6594745
v -0.03247285 0.0947831 -0.88020015
v 0.18825255 0.06877049 -0.76910675
v 0.2993457 0.06877058 -0.8801997
v 0.408978 0.09478329 -0.88019997
v 0.18825258 0.09478324 -0.6594745
v 0.2993457 0.06877058 -0.8801997
v 0.18825255 0.06877047 -0.9912931
v 0.18825255 0.09478314 -1.1009253
v 0.408978 0.09478329 -0.88019997
v 0.54301655 0.068770394 -1.34383
v 0.65410966 0.068770565 -1.2327368
v 0.54301655 0.06877052 -1.1216435
v 0.4319234 0.06877045 -1.2327367
v 0.54301655 0.068770394 -1.34383
v 0.4319234 0.06877045 -1.2327367
v 0.32229102 0.094783105 -1.2327366
v 0.54301643 0.094783075 -1.453462
v 0.4319234 0.06877045 -1.2327367
v 0.54301655 0.06877052 -1.1216435
v 0.5430167 0.09478332 -1.0120114
v 0.32229102 0.094783105 -1.2327366
v 0.54301655 0.06877052 -1.1216435
v 0.65410966 0.068770565 -1.2327368
v 0.7637419 0.09478338 -1.2327368
v 0.5430167 0.09478332 -1.0120114
v 0.65410966 0.068770565 -1.2327368
v 0.54301655 0.068770394 -1.34383
v 0.54301643 0.094783075 -1.453462
v 0.7637419 0.09478338 -1.2327368
v 0.08554261 0.067263804 -1.6473919
v 0.19663577 0.06726384 -1.5362989
v 0.08554259 0.06726392 -1.4252055
v -0.025550481 0.06726385 -1.5362986
v 0.08554261 0.067263804 -1.6473919
v -0.025550481 0.06726385 -1.5362986
v -0.13518283 0.09327664 -1.5362983
v 0.085542575 0.09327653 -1.7570239
v -0.025550481 0.06726385 -1.5362986
v 0.08554259 0.06726392 -1.4252055
v 0.08554259 0.0932766 -1.3155733
v -0.13518283 0.09327664 -1.5362983
v 0.08554259 0.06726392 -1.4252055
v 0.19663577 0.06726384 -1.5362989
v 0.30626804 0.09327664 -1.536299
v 0.08554259 0.0932766 -1.3155733
v 0.19663577 0.06726384 -1.5362989
v 0.08554261 0.067263804 -1.6473919
v 0.085542575 0.09327653 -1.7570239
v 0.30626804 0.09327664 -1.536299
v 0.059353884 0.06726377 -2.2121947
v 0.17044704 0.06726384 -2.1011014
v 0.05935389 0.067263834 -1.9900081
v -0.051739227 0.06726371 -2.1011014
v 0.059353884 0.06726377 -2.2121947
v -0.051739227 0.06726371 -2.1011014
v -0.16137154 0.09327639 -2.1011014
v 0.059353855 0.093276545 -2.3218267
v -0.051739227 0.06726371 -2.1011014
v 0.05935389 0.067263834 -1.9900081
v 0.059353855 0.09327651 -1.8803761
v -0.16137154 0.09327639 -2.1011014
v 0.05935389 0.067263834 -1.9900081
v 0.17044704 0.06726384 -2.1011014
v 0.28007928 0.09327668 -2.1011019
v 0.059353855 0.09327651 -1.8803761
v 0.17044704 0.06726384 -2.1011014
v 0.059353884 0.06726377 -2.2121947
v 0.059353855 0.093276545 -2.3218267
v 0.28007928 0.09327668 -2.1011019
v -0.00733578 0.06724395 0.13632673
v 0.103757404 0.067244 0.2474199
v -0.00733578 0.067244 0.35851306
v -0.118428916 0.067243904 0.2474199
v -0.00733578 0.06724395 0.13632673
v -0.118428916 0.067243904 0.2474199
v -0.22806129 0.09325668 0.24742
v -0.0073358165 0.09325664 0.026694367
v -0.118428916 0.067243904 0.2474199
v -0.00733578 0.067244 0.35851306
v -0.0073358044 0.093256764 0.46814522
v -0.22806129 0.09325668 0.24742
v -0.00733578 0.067244 0.35851306
v 0.103757404 0.067244 0.2474199
v 0.21338964 0.09325678 0.24741995
v -0.0073358044 0.093256764 0.46814522
v 0.103757404 0.067244 0.2474199
v -0.00733578 0.06724395 0.13632673
v -0.0073358165 0.09325664 0.026694367
v 0.21338964 0.09325678 0.24741995
v -0.11439917 0.067244045 0.7509688
v -0.003306012 0.067244135 0.8620621
v -0.11439914 0.067244105 0.97315514
v -0.22549236 0.067244045 0.8620619
v -0.11439917 0.067244045 0.7509688
v -0.22549236 0.067244045 0.8620619
v -0.3351246 0.09325674 0.8620619
v -0.11439922 0.09325673 0.6413364
v -0.22549236 0.067244045 0.8620619
v -0.11439914 0.067244105 0.97315514
v -0.11439914 0.093256876 1.0827874
v -0.3351246 0.09325674 0.8620619
v -0.11439914 0.067244105 0.97315514
v -0.003306012 0.067244135 0.8620621
v 0.10632626 0.09325688 0.8620619
v -0.11439914 0.093256876 1.0827874
v -0.003306012 0.067244135 0.8620621
v -0.11439917 0.067244045 0.7509688
v -0.11439922 0.09325673 0.6413364
v 0.10632626 0.09325688 0.8620619
v -0.44397897 0.107728146 2.6915424
v -0.33288583 0.107728176 2.8026361
v -0.443979 0.10772824 2.9137287
v -0.55507207 0.10772816 2.8026354
v -0.44397897 0.107728146 2.6915424
v -0.55507207 0.10772816 2.8026354
v -0.66470444 0.133741 2.8026354
v -0.44397905 0.13374092 2.5819101
v -0.55507207 0.10772816 2.8026354
v -0.443979 0.10772824 2.9137287
v -0.4439789 0.133741 3.0233612
v -0.66470444 0.133741 2.8026354
v -0.443979 0.10772824 2.9137287
v -0.33288583 0.107728176 2.8026361
v -0.22325347 0.1337409 2.8026361
v -0.4439789 0.133741 3.0233612
v -0.33288583 0.107728176 2.8026361
v -0.44397897 0.107728146 2.6915424
v -0.44397905 0.13374092 2.5819101
v -0.22325347 0.1337409 2.8026361
v 1.0246978 0.15542483 2.4928625
v 1.135791 0.1554249 2.6039553
v 1.0246978 0.15542488 2.715049
v 0.9136046 0.15542488 2.6039553
v 1.0246978 0.15542483 2.4928625
v 0.9136046 0.15542488 2.6039553
v 0.80397224 0.18143766 2.6039553
v 1.0246979 0.1814376 2.3832304
v 0.9136046 0.15542488 2.6039553
v 1.0246978 0.15542488 2.715049
v 1.0246977 0.18143767 2.8246806
v 0.80397224 0.18143766 2.6039553
v 1.0246978 0.15542488 2.715049
v 1.135791 0.1554249 2.6039553
v 1.2454233 0.1814376 2.6039562
v 1.0246977 0.18143767 2.8246806
v 1.135791 0.1554249 2.6039553
v 1.0246978 0.15542483 2.4928625
v 1.0246979 0.1814376 2.3832304
v 1.2454233 0.1814376 2.6039562
v 0.6797623 0.15542482 2.8423326
v 0.7908554 0.15542495 2.953426
v 0.6797623 0.1554248 3.0645192
v 0.56866914 0.15542482 2.9534264
v 0.6797623 0.15542482 2.8423326
v 0.56866914 0.15542482 2.9534264
v 0.45903686 0.1814375 2.953426
v 0.67976224 0.1814376 2.732701
v 0.56866914 0.15542482 2.9534264
v 0.6797623 0.1554248 3.0645192
v 0.6797623 0.18143754 3.1741517
v 0.45903686 0.1814375 2.953426
v 0.6797623 0.1554248 3.0645192
v 0.7908554 0.15542495 2.953426
v 0.90048784 0.18143782 2.9534254
v 0.6797623 0.18143754 3.1741517
v 0.7908554 0.15542495 2.953426
v 0.6797623 0.15542482 2.8423326
v 0.67976224 0.1814376 2.732701
v 0.90048784 0.18143782 2.9534254
v 0.3414326 0.15542476 3.182342
v 0.4525257 0.1554249 3.2934358
v 0.34143263 0.15542486 3.4045286
v 0.23033942 0.15542482 3.293435
v 0.3414326 0.15542476 3.182342
v 0.23033942 0.15542482 3.293435
v 0.12070712 0.18143754 3.293435
v 0.34143254 0.18143743 3.07271
v 0.23033942 0.15542482 3.293435
v 0.34143263 0.15542486 3.4045286
v 0.3414326 0.1814376 3.5141606
v 0.12070712 0.18143754 3.293435
v 0.34143263 0.15542486 3.4045286
v 0.4525257 0.1554249 3.2934358
v 0.56215805 0.18143767 3.2934358
v 0.3414326 0.1814376 3.5141606
v 0.4525257 0.1554249 3.2934358
v 0.3414326 0.15542476 3.182342
v 0.34143254 0.18143743 3.07271
v 0.56215805 0.18143767 3.2934358
v 0.059353836 0.067263596 -2.846895
v 0.17044698 0.06726365 -2.7358022
v 0.059353832 0.06726366 -2.6247087
v -0.0517393 0.06726363 -2.7358017
v 0.059353836 0.067263596 -2.846895
v -0.0517393 0.06726363 -2.7358017
v -0.16137159 0.09327638 -2.7358022
v 0.059353784 0.09327632 -2.956527
v -0.0517393 0.06726363 -2.7358017
v 0.059353832 0.06726366 -2.6247087
v 0.05935382 0.09327647 -2.5150769
v -0.16137159 0.09327638 -2.7358022
v 0.059353832 0.06726366 -2.6247087
v 0.17044698 0.06726365 -2.7358022
v 0.28007928 0.093276426 -2.7358027
v 0.05935382 0.09327647 -2.5150769
v 0.17044698 0.06726365 -2.7358022
v 0.059353836 0.067263596 -2.846895
v 0.059353784 0.09327632 -2.956527
v 0.28007928 0.093276426 -2.7358027
v -0.0073358165 0.06877051 -0.49754483
v 0.103757314 0.068770565 -0.38645187
v -0.0073358165 0.0687706 -0.27535865
v -0.11842896 0.06877045 -0.3864518
v -0.0073358165 0.06877051 -0.49754483
v -0.11842896 0.06877045 -0.3864518
v -0.22806127 0.09478317 -0.38645172
v -0.0073358165 0.094783194 -0.6071773
v -0.11842896 0.06877045 -0.3864518
v -0.0073358165 0.0687706 -0.27535865
v -0.0073358407 0.094783306 -0.16572641
v -0.22806127 0.09478317 -0.38645172
v -0.0073358165 0.0687706 -0.27535865
v 0.103757314 0.068770565 -0.38645187
v 0.21338962 0.09478327 -0.3864518
v -0.0073358407 0.094783306 -0.16572641
v 0.103757314 0.068770565 -0.38645187
v -0.0073358165 0.06877051 -0.49754483
v -0.0073358165 0.094783194 -0.6071773
v 0.21338962 0.09478327 -0.3864518
vt 1 0
vt 1 1
vt 0 1
vt 0 0
vt 0 0
vt 1 0
vt 1 1
vt 0 1
vt 0 0
vt 1 0
vt 1 1
vt 0 1
vt 0 0
vt 1 0
vt 1 1
vt 0 1
vt 0 0
vt 1 0
vt 1 1
vt 0 1
vt 1 0
vt 1 1
vt 0 1
vt 0 0
vt 0 0
vt 1 0
vt 1 1
vt 0 1
vt 0 0
vt 1 0
vt 1 1
vt 0 1
vt 0 0
vt 1 0
vt 1 1
vt 0 1
vt 0 0
vt 1 0
vt 1 1
vt 0 1
vt 1 0
vt 1 1
vt 0 1
vt 0 0
vt 0 0
vt 1 0
vt 1 1
vt 0 1
vt 0 0
vt 1 0
vt 1 1
vt 0 1
vt 0 0
vt 1 0
vt 1 1
vt 0 1
vt 0 0
vt 1 0
vt 1 1
vt 0 1
vt 1 0
vt 1 1
vt 0 1
vt 0 0
vt 0 0
vt 1 0
vt 1 1
vt 0 1
vt 0 0
vt 1 0
vt 1 1
vt 0 1
vt 0 0
vt 1 0
vt 1 1
vt 0 1
vt 0 0
vt 1 0
vt 1 1
vt 0 1
vt 1 0
vt 1 1
vt 0 1
vt 0 0
vt 0 0
vt 1 0
vt 1 1
vt 0 1
vt 0 0
vt 1 0
vt 1 1
vt 0 1
vt 0 0
vt 1 0
vt 1 1
vt 0 1
vt 0 0
vt 1 0
vt 1 1
vt 0 1
vt 1 0
vt 1 1
vt 0 1
vt 0 0
vt 0 0
vt 1 0
vt 1 1
vt 0 1
vt 0 0
vt 1 0
vt 1 1
vt 0 1
vt 0 0
vt 1 0
vt 1 1
vt 0 1
vt 0 0
vt 1 0
vt 1 1
vt 0 1
vt 1 0
vt 1 1
vt 0 1
vt 0 0
vt 0 0
vt 1 0
vt 1 1
vt 0 1
vt 0 0
vt 1 0
vt 1 1
vt 0 1
vt 0 0
vt 1 0
vt 1 1
vt 0 1
vt 0 0
vt 1 0
vt 1 1
vt 0 1
vt 1 0
vt 1 1
vt 0 1
vt 0 0
vt 0 0
vt 1 0
vt 1 1
vt 0 1
vt 0 0
vt 1 0
vt 1 1
vt 0 1
vt 0 0
vt 1 0
vt 1 1
vt 0 1
vt 0 0
vt 1 0
vt 1 1
vt 0 1
vt 1 0
vt 1 1
vt 0 1
vt 0 0
vt 0 0
vt 1 0
vt 1 1
vt 0 1
vt 0 0
vt 1 0
vt 1 1
vt 0 1
vt 0 0
vt 1 0
vt 1 1
vt 0 1
vt 0 0
vt 1 0
vt 1 1
vt 0 1
vt 1 0
vt 1 1
vt 0 1
vt 0 0
vt 0 0
vt 1 0
vt 1 1
vt 0 1
vt 0 0
vt 1 0
vt 1 1
vt 0 1
vt 0 0
vt 1 0
vt 1 1
vt 0 1
vt 0 0
vt 1 0
vt 1 1
vt 0 1
vt 1 0
vt 1 1
vt 0 1
vt 0 0
vt 0 0
vt 1 0
vt 1 1
vt 0 1
vt 0 0
vt 1 0
vt 1 1
vt 0 1
vt 0 0
vt 1 0
vt 1 1
vt 0 1
vt 0 0
vt 1 0
vt 1 1
vt 0 1
vt 1 0
vt 1 1
vt 0 1
vt 0 0
vt 0 0
vt 1 0
vt 1 1
vt 0 1
vt 0 0
vt 1 0
vt 1 1
vt 0 1
vt 0 0
vt 1 0
vt 1 1
vt 0 1
vt 0 0
vt 1 0
vt 1 1
vt 0 1
vn -5.178575E-07 1 0
vn -5.1785753E-07 1 0
vn -5.178575E-07 1 0
vn -5.178575E-07 1 0
vn 0.22494517 0.9480503 0.2249453
vn 0.22494517 0.9480503 0.22494529
vn 0.22494514 0.9480503 0.22494529
vn 0.22494514 0.9480503 0.22494529
vn 0.22494604 0.9480498 -0.22494642
vn 0.22494604 0.9480498 -0.22494642
vn 0.22494605 0.9480498 -0.22494644
vn 0.22494605 0.9480498 -0.22494644
vn -0.22494654 0.94804966 -0.22494622
vn -0.22494656 0.94804966 -0.22494625
vn -0.22494656 0.94804966 -0.22494628
vn -0.22494656 0.94804966 -0.22494625
vn -0.22494608 0.9480501 0.22494516
vn -0.22494604 0.9480501 0.22494511
vn -0.22494605 0.9480501 0.22494516
vn -0.22494605 0.9480501 0.22494519
vn -4.90602E-07 1 -5.438865E-07
vn -4.90602E-07 1 -5.438865E-07
vn -4.90602E-07 1 -5.438865E-07
vn -4.90602E-07 1 -5.438865E-07
vn 0.22494599 0.94805 0.2249456
vn 0.22494599 0.94805 0.22494563
vn 0.22494599 0.94805 0.2249456
vn 0.22494599 0.94805 0.2249456
vn 0.22494565 0.9480498 -0.22494678
vn 0.2249457 0.9480498 -0.22494681
vn 0.22494566 0.9480498 -0.22494678
vn 0.22494565 0.9480498 -0.22494678
vn -0.22494717 0.9480495 -0.22494657
vn -0.22494717 0.9480495 -0.22494654
vn -0.22494718 0.9480495 -0.22494657
vn -0.22494718 0.9480495 -0.22494657
vn -0.2249472 0.94804955 0.224946
vn -0.22494718 0.94804955 0.22494598
vn -0.22494718 0.94804955 0.224946
vn -0.2249472 0.94804955 0.22494602
vn -0 1 -5.4388653E-07
vn -0 1 -5.4388653E-07
vn -0 1 -5.4388653E-07
vn -0 1 -5.4388653E-07
vn 0.22494721 0.9480495 0.2249465
vn 0.22494724 0.9480495 0.22494651
vn 0.22494721 0.9480495 0.2249465
vn 0.22494721 0.9480495 0.2249465
vn 0.22494571 0.94805 -0.22494614
vn 0.22494571 0.94805 -0.22494614
vn 0.2249457 0.9480499 -0.22494613
vn 0.22494571 0.9480499 -0.22494611
vn -0.22494663 0.94804966 -0.22494647
vn -0.22494663 0.94804966 -0.22494647
vn -0.2249466 0.94804966 -0.22494648
vn -0.2249466 0.94804955 -0.22494645
vn -0.22494644 0.94804966 0.22494648
vn -0.22494645 0.94804966 0.22494651
vn -0.22494645 0.94804966 0.22494651
vn -0.22494644 0.94804966 0.22494651
vn -5.9962446E-07 1 -2.9858572E-07
vn -5.9962446E-07 1 -2.9858572E-07
vn -5.9962446E-07 1 -2.9858572E-07
vn -5.9962446E-07 1 -2.9858575E-07
vn 0.22494604 0.94804966 0.22494663
vn 0.22494604 0.94804966 0.22494663
vn 0.22494604 0.94804966 0.22494665
vn 0.224946 0.9480498 0.22494663
vn 0.22494562 0.9480499 -0.2249463
vn 0.2249456 0.9480499 -0.2249463
vn 0.2249456 0.9480499 -0.22494629
vn 0.22494557 0.9480499 -0.22494629
vn -0.2249474 0.94804937 -0.22494662
vn -0.22494741 0.94804937 -0.22494665
vn -0.22494741 0.94804937 -0.22494663
vn -0.22494741 0.94804937 -0.22494665
vn -0.22494689 0.94804955 0.22494662
vn -0.22494689 0.94804955 0.22494659
vn -0.22494686 0.94804955 0.22494659
vn -0.22494689 0.94804955 0.22494662
vn -4.3609032E-07 1 0
vn -4.3609032E-07 1 0
vn -4.3609035E-07 1 0
vn -4.3609035E-07 1 0
vn 0.22494619 0.9480499 0.22494605
vn 0.22494619 0.9480499 0.22494604
vn 0.22494619 0.9480499 0.22494605
vn 0.22494619 0.9480499 0.22494605
vn 0.22494607 0.94804966 -0.22494675
vn 0.2249461 0.94804966 -0.22494681
vn 0.2249461 0.94804966 -0.22494678
vn 0.2249461 0.94804966 -0.22494675
vn -0.22494659 0.94804955 -0.22494668
vn -0.22494659 0.94804955 -0.22494668
vn -0.22494659 0.94804955 -0.2249467
vn -0.22494659 0.94804955 -0.22494665
vn -0.22494659 0.9480498 0.22494596
vn -0.2249466 0.9480498 0.22494596
vn -0.22494659 0.9480498 0.22494593
vn -0.22494659 0.9480498 0.22494596
vn -3.81579E-07 1 0
vn -3.81579E-07 1 0
vn -3.81579E-07 1 0
vn -3.81579E-07 1 0
vn 0.2249458 0.94805 0.22494571
vn 0.2249458 0.94805 0.22494574
vn 0.2249458 0.94805 0.22494574
vn 0.22494577 0.94805 0.22494571
vn 0.22494604 0.9480498 -0.22494657
vn 0.22494604 0.9480498 -0.22494657
vn 0.22494604 0.9480498 -0.22494654
vn 0.22494604 0.9480498 -0.22494654
vn -0.2249467 0.94804955 -0.22494662
vn -0.22494668 0.94804955 -0.2249466
vn -0.22494668 0.94804955 -0.22494659
vn -0.22494668 0.94804955 -0.22494659
vn -0.22494629 0.94805 0.22494549
vn -0.22494632 0.94805 0.2249455
vn -0.22494629 0.94805 0.22494549
vn -0.22494629 0.94805 0.2249455
vn -0 1 -4.3486395E-07
vn -0 1 -4.3486392E-07
vn -0 1 -4.3486392E-07
vn -0 1 -4.3486392E-07
vn 0.22494689 0.94804955 0.22494662
vn 0.22494689 0.94804955 0.22494662
vn 0.2249469 0.9480495 0.2249466
vn 0.22494686 0.94804955 0.22494662
vn 0.22494653 0.94804955 -0.22494665
vn 0.22494656 0.94804955 -0.22494662
vn 0.22494656 0.94804955 -0.22494662
vn 0.22494653 0.94804955 -0.22494662
vn -0.22494544 0.9480499 -0.22494653
vn -0.22494544 0.9480499 -0.22494653
vn -0.22494546 0.9480499 -0.22494653
vn -0.22494546 0.9480499 -0.22494653
vn -0.22494686 0.94804966 0.22494617
vn -0.22494683 0.94804966 0.22494617
vn -0.22494686 0.94804966 0.22494617
vn -0.22494686 0.94804966 0.22494614
vn -0 1 0
vn -0 1 0
vn -0 1 0
vn -0 1 0
vn 0.22494617 0.94804966 0.22494681
vn 0.22494614 0.94804966 0.22494681
vn 0.22494617 0.94804966 0.22494683
vn 0.22494614 0.94804966 0.2249468
vn 0.22494727 0.94804925 -0.2249471
vn 0.22494727 0.94804925 -0.2249471
vn 0.2249473 0.94804925 -0.2249471
vn 0.22494727 0.94804925 -0.2249471
vn -0.22494577 0.9480499 -0.22494645
vn -0.22494575 0.9480499 -0.22494645
vn -0.22494575 0.9480499 -0.22494645
vn -0.22494575 0.9480499 -0.22494645
vn -0.22494729 0.94804937 0.22494696
vn -0.22494729 0.94804937 0.22494696
vn -0.22494726 0.94804937 0.22494695
vn -0.2249473 0.94804937 0.22494699
vn -6.54135E-07 1 0
vn -6.54135E-07 1 0
vn -6.54135E-07 1 0
vn -6.54135E-07 1 0
vn 0.22494604 0.9480498 0.2249463
vn 0.22494604 0.9480498 0.2249463
vn 0.22494607 0.9480498 0.22494632
vn 0.22494604 0.9480498 0.22494632
vn 0.22494617 0.9480498 -0.22494628
vn 0.22494617 0.9480498 -0.2249463
vn 0.2249462 0.9480498 -0.22494628
vn 0.2249462 0.9480498 -0.2249463
vn -0.22494757 0.94804955 -0.22494587
vn -0.22494754 0.94804955 -0.22494583
vn -0.22494754 0.94804955 -0.22494584
vn -0.22494757 0.94804955 -0.22494584
vn -0.22494712 0.9480495 0.22494671
vn -0.22494712 0.9480495 0.22494671
vn -0.2249471 0.9480495 0.22494671
vn -0.22494712 0.9480495 0.22494671
vn -3.8157856E-07 1 -4.89375E-07
vn -3.8157847E-07 1 -4.8937494E-07
vn -3.815785E-07 1 -4.8937494E-07
vn -3.815785E-07 1 -4.8937494E-07
vn 0.22494625 0.9480498 0.22494625
vn 0.22494623 0.9480498 0.22494623
vn 0.22494626 0.9480498 0.22494626
vn 0.22494626 0.9480498 0.22494626
vn 0.22494633 0.9480498 -0.2249463
vn 0.22494636 0.9480498 -0.22494632
vn 0.22494633 0.9480498 -0.22494628
vn 0.22494633 0.9480498 -0.2249463
vn -0.22494645 0.94804955 -0.22494672
vn -0.22494642 0.94804955 -0.22494672
vn -0.22494645 0.94804955 -0.22494672
vn -0.22494648 0.94804955 -0.22494672
vn -0.22494733 0.94804966 0.2249457
vn -0.22494736 0.94804966 0.22494571
vn -0.22494733 0.94804966 0.22494571
vn -0.22494736 0.94804966 0.22494571
vn -0 1 -2.9858575E-07
vn -0 1 -2.9858575E-07
vn -0 1 -2.9858575E-07
vn -0 1 -2.9858575E-07
vn 0.22494602 0.9480499 0.22494602
vn 0.22494599 0.9480499 0.22494599
vn 0.22494599 0.9480499 0.22494599
vn 0.22494596 0.9480499 0.22494596
vn 0.2249473 0.94804925 -0.22494768
vn 0.22494727 0.94804925 -0.22494765
vn 0.22494726 0.94804925 -0.22494765
vn 0.2249473 0.94804925 -0.22494768
vn -0.22494778 0.9480491 -0.22494747
vn -0.22494775 0.9480491 -0.22494747
vn -0.22494778 0.9480491 -0.22494747
vn -0.22494778 0.9480491 -0.22494747
vn -0.22494604 0.9480498 0.22494644
vn -0.22494605 0.9480498 0.22494647
vn -0.22494604 0.9480498 0.22494644
vn -0.22494605 0.9480498 0.22494647
vn -4.9060174E-07 1 -4.0760838E-07
vn -4.906018E-07 1 -4.0760838E-07
vn -4.906018E-07 1 -4.0760835E-07
vn -4.906018E-07 1 -4.0760835E-07
vn 0.22494575 0.94805 0.22494595
vn 0.22494574 0.94805 0.22494598
vn 0.22494575 0.94805 0.22494595
vn 0.22494575 0.94805 0.22494595
vn 0.2249455 0.9480499 -0.22494635
vn 0.22494549 0.9480499 -0.22494635
vn 0.2249455 0.9480499 -0.22494636
vn 0.22494549 0.9480499 -0.22494635
vn -0.22494592 0.9480499 -0.22494611
vn -0.22494592 0.9480499 -0.22494605
vn -0.22494592 0.9480499 -0.22494605
vn -0.22494589 0.9480499 -0.22494608
vn -0.22494592 0.94805 0.2249456
vn -0.2249459 0.94805 0.22494557
vn -0.2249459 0.94805 0.22494557
vn -0.2249459 0.94805 0.22494557
g slot_0
f 3/3/3 2/2/2 1/1/1
f 4/4/4 3/3/3 1/1/1
f 7/7/7 6/6/6 5/5/5
f 8/8/8 7/7/7 5/5/5
f 11/11/11 10/10/10 9/9/9
f 12/12/12 11/11/11 9/9/9
f 15/15/15 14/14/14 13/13/13
f 16/16/16 15/15/15 13/13/13
f 19/19/19 18/18/18 17/17/17
f 20/20/20 19/19/19 17/17/17
f 23/23/23 22/22/22 21/21/21
f 24/24/24 23/23/23 21/21/21
f 27/27/27 26/26/26 25/25/25
f 28/28/28 27/27/27 25/25/25
f 31/31/31 30/30/30 29/29/29
f 32/32/32 31/31/31 29/29/29
f 35/35/35 34/34/34 33/33/33
f 36/36/36 35/35/35 33/33/33
f 39/39/39 38/38/38 37/37/37
f 40/40/40 39/39/39 37/37/37
f 43/43/43 42/42/42 41/41/41
f 44/44/44 43/43/43 41/41/41
f 47/47/47 46/46/46 45/45/45
f 48/48/48 47/47/47 45/45/45
f 51/51/51 50/50/50 49/49/49
f 52/52/52 51/51/51 49/49/49
f 55/55/55 54/54/54 53/53/53
f 56/56/56 55/55/55 53/53/53
f 59/59/59 58/58/58 57/57/57
f 60/60/60 59/59/59 57/57/57
f 63/63/63 62/62/62 61/61/61
f 64/64/64 63/63/63 61/61/61
f 67/67/67 66/66/66 65/65/65
f 68/68/68 67/67/67 65/65/65
f 71/71/71 70/70/70 69/69/69
f 72/72/72 71/71/71 69/69/69
f 75/75/75 74/74/74 73/73/73
f 76/76/76 75/75/75 73/73/73
f 79/79/79 78/78/78 77/77/77
f 80/80/80 79/79/79 77/77/77
f 83/83/83 82/82/82 81/81/81
f 84/84/84 83/83/83 81/81/81
f 87/87/87 86/86/86 85/85/85
f 88/88/88 87/87/87 85/85/85
f 91/91/91 90/90/90 89/89/89
f 92/92/92 91/91/91 89/89/89
f 95/95/95 94/94/94 93/93/93
f 96/96/96 95/95/95 93/93/93
f 99/99/99 98/98/98 97/97/97
f 100/100/100 99/99/99 97/97/97
f 103/103/103 102/102/102 101/101/101
f 104/104/104 103/103/103 101/101/101
f 107/107/107 106/106/106 105/105/105
f 108/108/108 107/107/107 105/105/105
f 111/111/111 110/110/110 109/109/109
f 112/112/112 111/111/111 109/109/109
f 115/115/115 114/114/114 113/113/113
f 116/116/116 115/115/115 113/113/113
f 119/119/119 118/118/118 117/117/117
f 120/120/120 119/119/119 117/117/117
f 123/123/123 122/122/122 121/121/121
f 124/124/124 123/123/123 121/121/121
f 127/127/127 126/126/126 125/125/125
f 128/128/128 127/127/127 125/125/125
f 131/131/131 130/130/130 129/129/129
f 132/132/132 131/131/131 129/129/129
f 135/135/135 134/134/134 133/133/133
f 136/136/136 135/135/135 133/133/133
f 139/139/139 138/138/138 137/137/137
f 140/140/140 139/139/139 137/137/137
f 143/143/143 142/142/142 141/141/141
f 144/144/144 143/143/143 141/141/141
f 147/147/147 146/146/146 145/145/145
f 148/148/148 147/147/147 145/145/145
f 151/151/151 150/150/150 149/149/149
f 152/152/152 151/151/151 149/149/149
f 155/155/155 154/154/154 153/153/153
f 156/156/156 155/155/155 153/153/153
f 159/159/159 158/158/158 157/157/157
f 160/160/160 159/159/159 157/157/157
f 163/163/163 162/162/162 161/161/161
f 164/164/164 163/163/163 161/161/161
f 167/167/167 166/166/166 165/165/165
f 168/168/168 167/167/167 165/165/165
f 171/171/171 170/170/170 169/169/169
f 172/172/172 171/171/171 169/169/169
f 175/175/175 174/174/174 173/173/173
f 176/176/176 175/175/175 173/173/173
f 179/179/179 178/178/178 177/177/177
f 180/180/180 179/179/179 177/177/177
f 183/183/183 182/182/182 181/181/181
f 184/184/184 183/183/183 181/181/181
f 187/187/187 186/186/186 185/185/185
f 188/188/188 187/187/187 185/185/185
f 191/191/191 190/190/190 189/189/189
f 192/192/192 191/191/191 189/189/189
f 195/195/195 194/194/194 193/193/193
f 196/196/196 195/195/195 193/193/193
f 199/199/199 198/198/198 197/197/197
f 200/200/200 199/199/199 197/197/197
f 203/203/203 202/202/202 201/201/201
f 204/204/204 203/203/203 201/201/201
f 207/207/207 206/206/206 205/205/205
f 208/208/208 207/207/207 205/205/205
f 211/211/211 210/210/210 209/209/209
f 212/212/212 211/211/211 209/209/209
f 215/215/215 214/214/214 213/213/213
f 216/216/216 215/215/215 213/213/213
f 219/219/219 218/218/218 217/217/217
f 220/220/220 219/219/219 217/217/217
f 223/223/223 222/222/222 221/221/221
f 224/224/224 223/223/223 221/221/221
f 227/227/227 226/226/226 225/225/225
f 228/228/228 227/227/227 225/225/225
f 231/231/231 230/230/230 229/229/229
f 232/232/232 231/231/231 229/229/229
f 235/235/235 234/234/234 233/233/233
f 236/236/236 235/235/235 233/233/233
f 239/239/239 238/238/238 237/237/237
f 240/240/240 239/239/239 237/237/237
