g socket_switch
v 0.0040966384 -0.014854206 -0.00024882954
v 0.0042713974 0.023162236 0.4030029
v -0.112406954 0.02316224 0.3998288
v 0.40970165 0.023162346 -0.20773777
v 0.41465786 0.0231623 0.0009985346
v 0.40205485 0.023162274 0.1821399
v -0.3690617 0.023162333 -0.31083187
v -0.28791282 0.023162339 -0.37354106
v -0.17426427 0.023162356 -0.39312574
v 0.0042716307 0.023162361 -0.40100667
v 0.17584582 0.02316235 -0.39080355
v 0.29458117 0.023162339 -0.36717668
v 0.0040967604 -0.003302088 -0.5016635
v 0.17584582 0.02316235 -0.39080355
v 0.21809882 -0.003302107 -0.4889372
v 0.0042716307 0.023162361 -0.40100667
v 0.36619583 -0.0033021322 -0.45946783
v 0.21809882 -0.003302107 -0.4889372
v 0.29458117 0.023162339 -0.36717668
v 0.37797815 0.023162337 -0.30403307
v 0.36619583 -0.0033021322 -0.45946783
v 0.47021556 -0.0033021432 -0.3807097
v 0.40970165 0.023162346 -0.20773777
v 0.5097839 -0.0033021322 -0.26060197
v 0.47021556 -0.0033021432 -0.3807097
v 0.41465786 0.0231623 0.0009985346
v 0.5159657 -0.0033022189 -0.00024809458
v 0.5002461 -0.0033022752 0.22568698
v 0.40205485 0.023162274 0.1821399
v 0.35475275 0.023162257 0.30098835
v 0.44124684 -0.0033023197 0.37392497
v 0.33554655 -0.0033023509 0.46707195
v 0.27000841 0.023162242 0.37566808
v 0.120949745 0.02316224 0.3998288
v 0.14962773 -0.0033023593 0.4972072
v 0.0042713974 0.023162236 0.4030029
v 0.14962773 -0.0033023593 0.4972072
v 0.0040964694 -0.003302364 0.50116634
v -0.14143477 -0.0033023593 0.4972072
v 0.0040964694 -0.003302364 0.50116634
v -0.112406954 0.02316224 0.3998288
v -0.26146573 0.023162248 0.37566808
v -0.32735366 -0.0033023509 0.46707192
v -0.43305355 -0.0033023197 0.37392476
v -0.34620956 0.023162257 0.30098817
v -0.3935117 0.023162276 0.1821396
v -0.49205288 -0.0033022752 0.22568661
v -0.40611494 0.0231623 0.000998299
v -0.5077726 -0.0033022189 -0.00024838868
v -0.49205288 -0.0033022752 0.22568661
v -0.40196624 0.02316234 -0.22029255
v -0.50259817 -0.0033021383 -0.27626133
v -0.3690617 0.023162333 -0.31083187
v -0.4615567 -0.003302136 -0.38918972
v -0.50259817 -0.0033021383 -0.27626133
v -0.28791282 0.023162339 -0.37354106
v -0.36034077 -0.0033021227 -0.467406
v -0.17426427 0.023162356 -0.39312574
v -0.21858852 -0.003302107 -0.4918337
v 0.0040967604 -0.003302088 -0.5016635
vt 0.16718341 0.8121979
vt 0.17485882 0.8044336
vt 0.17466846 0.8044336
vt 0.16767138 0.8044336
vt 0.17031538 0.8044336
vt 0.17210937 0.8044336
vt 0.16679108 0.8044336
vt 0.1662676 0.8044336
vt 0.16591066 0.8044336
vt 0.16577193 0.8044336
vt 0.16594273 0.8044336
vt 0.16634575 0.8044336
vt 0.16436043 0.79666924
vt 0.16594273 0.8044336
vt 0.16470204 0.79666924
vt 0.16577193 0.8044336
vt 0.16550806 0.7966692
vt 0.16470204 0.79666924
vt 0.16634575 0.8044336
vt 0.16686791 0.8044336
vt 0.16550806 0.7966692
vt 0.16655242 0.7966692
vt 0.16767138 0.8044336
vt 0.16815937 0.7966692
vt 0.16655242 0.7966692
vt 0.17031538 0.8044336
vt 0.17344734 0.7966691
vt 0.17703533 0.7966691
vt 0.17210937 0.8044336
vt 0.17337142 0.8044336
vt 0.17955941 0.7966691
vt 0.18133014 0.7966691
vt 0.17425677 0.8044336
vt 0.17466846 0.8044336
vt 0.18215352 0.7966691
vt 0.17485882 0.8044336
vt 0.18215352 0.7966691
vt 0.18253423 0.7966691
vt 0.18215352 0.7966691
vt 0.18253423 0.7966691
vt 0.17466846 0.8044336
vt 0.17425677 0.8044336
vt 0.18133014 0.7966691
vt 0.17955941 0.7966691
vt 0.1733714 0.8044336
vt 0.17210937 0.8044336
vt 0.17703533 0.79666924
vt 0.17031538 0.8044336
vt 0.17344734 0.79666924
vt 0.17703533 0.79666924
vt 0.16781434 0.8044336
vt 0.16844529 0.79666924
vt 0.16679108 0.8044336
vt 0.16639875 0.79666924
vt 0.16844529 0.79666924
vt 0.1662676 0.8044336
vt 0.1653518 0.79666924
vt 0.16591066 0.8044336
vt 0.1646379 0.79666924
vt 0.16436043 0.79666924
vn -0 1 0
vn -0 1 0
vn -0 1 0
vn -0 1 0
vn -0 1 0
vn -0 1 0
vn -0 1 0
vn -0 1 0
vn -0 1 0
vn -0 1 0
vn -0 1 0
vn -0 1 0
vn -0 1 0
vn 0.019717354 0.9873138 -0.15755226
vn -0 1 0
vn -0.008641863 0.99618787 -0.0868041
vn 0.04791487 0.9693931 -0.24079311
vn 0.04791487 0.9693931 -0.24079314
vn 0.00533677 0.99417514 -0.10764409
vn 0.08106998 0.99521196 -0.054596778
vn -0 1 0
vn -0 1 0
vn 0.13382025 0.9909147 -0.013425842
vn 0.23247397 0.9715034 -0.04622828
vn 0.21915577 0.97301495 -0.07219879
vn 0.2528123 0.9674964 0.0060475525
vn 0.2528071 0.96750087 0.005536027
vn 0.23582865 0.9700752 0.05778322
vn 0.13863456 0.99006534 0.023474593
vn 0.081028216 0.9952494 0.053972263
vn 0.18535529 0.97356874 0.13344377
vn 0.104177 0.97278726 0.20695907
vn 0.03873323 0.9944833 0.09748238
vn -0 1 0
vn 0.04066338 0.9671659 0.25087187
vn -0.00083847594 0.9891454 0.14693782
vn -0 1 0
vn -0 1 0
vn -0.025974743 0.96660477 0.25495186
vn -0.007080865 0.96550584 0.2602853
vn -0.009580697 0.9901254 0.13985655
vn -0.038598716 0.9944998 0.09736652
vn -0.10410457 0.972864 0.20663476
vn -0.18494894 0.97369516 0.13308452
vn -0.08071261 0.9952838 0.053811986
vn -0 1 0
vn -0.22178999 0.9710906 0.088273466
vn -0 1 0
vn -0 1 0
vn -0 1 0
vn -0.09404694 0.9955058 -0.0111043835
vn -0 1 0
vn -0.112768985 0.98987705 -0.08617842
vn -0.17130157 0.9769036 -0.12773062
vn -0.21306856 0.9739638 -0.077435225
vn -0.08153201 0.97393215 -0.21168065
vn -0.09567639 0.97489953 -0.20103931
vn -0.023564382 0.96821535 -0.24900542
vn -0.02947473 0.9686992 -0.24648115
vn -0.011222839 0.9670756 -0.25424165
g socket_switch_0
f 3/3/3 2/2/2 1/1/1
f 5/5/5 4/4/4 1/1/1
f 6/6/6 5/5/5 1/1/1
f 8/8/8 7/7/7 1/1/1
f 9/9/9 8/8/8 1/1/1
f 10/10/10 9/9/9 1/1/1
f 12/12/12 11/11/11 1/1/1
f 10/10/10 14/14/14 13/13/13
f 14/14/14 15/15/15 13/13/13
f 1/1/1 14/14/14 16/16/16
f 18/18/18 14/14/14 17/17/17
f 14/14/14 19/19/19 17/17/17
f 1/1/1 20/20/20 19/19/19
f 12/12/12 20/20/20 21/21/21
f 20/20/20 22/22/22 21/21/21
f 1/1/1 23/23/23 20/20/20
f 20/20/20 23/23/23 24/24/24
f 25/25/25 20/20/20 24/24/24
f 23/23/23 26/26/26 24/24/24
f 26/26/26 27/27/27 24/24/24
f 27/27/27 26/26/26 28/28/28
f 26/26/26 29/29/29 28/28/28
f 1/1/1 30/30/30 29/29/29
f 29/29/29 30/30/30 28/28/28
f 30/30/30 31/31/31 28/28/28
f 31/31/31 30/30/30 32/32/32
f 1/1/1 33/33/33 30/30/30
f 30/30/30 33/33/33 32/32/32
f 1/1/1 34/34/34 33/33/33
f 32/32/32 33/33/33 35/35/35
f 33/33/33 34/34/34 35/35/35
f 1/1/1 36/36/36 34/34/34
f 34/34/34 36/36/36 37/37/37
f 36/36/36 38/38/38 37/37/37
f 40/40/40 36/36/36 39/39/39
f 36/36/36 41/41/41 39/39/39
f 41/41/41 42/42/42 39/39/39
f 42/42/42 41/41/41 1/1/1
f 42/42/42 43/43/43 39/39/39
f 43/43/43 42/42/42 44/44/44
f 42/42/42 45/45/45 44/44/44
f 45/45/45 42/42/42 1/1/1
f 45/45/45 46/46/46 44/44/44
f 46/46/46 45/45/45 1/1/1
f 46/46/46 47/47/47 44/44/44
f 1/1/1 48/48/48 46/46/46
f 46/46/46 48/48/48 49/49/49
f 50/50/50 46/46/46 49/49/49
f 1/1/1 51/51/51 48/48/48
f 48/48/48 51/51/51 49/49/49
f 51/51/51 52/52/52 49/49/49
f 53/53/53 51/51/51 1/1/1
f 51/51/51 53/53/53 54/54/54
f 55/55/55 51/51/51 54/54/54
f 53/53/53 56/56/56 54/54/54
f 56/56/56 57/57/57 54/54/54
f 56/56/56 58/58/58 57/57/57
f 58/58/58 59/59/59 57/57/57
f 59/59/59 58/58/58 60/60/60
f 58/58/58 16/16/16 60/60/60
