g stair1_R
v 0.5035097 0.24792309 0.34249845
v 0.5035097 0.04998451 0.40392107
v -0.5034911 0.04998451 0.40392116
v -0.50349075 0.24792309 0.34249845
v 0.5035095 0.2910363 0.3030373
v -0.5034911 0.2910363 0.30303735
v 0.5035097 0.31836233 0.13146113
v -0.5034911 0.31836233 0.13146105
v 0.5035097 0.483168 0.07677124
v -0.5034911 0.483168 0.07677124
v 0.5035097 0.52657944 0.040443603
v -0.5034914 0.52657944 0.040443603
v 0.5035098 0.5541736 -0.12433706
v -0.50349075 0.55417365 -0.1243371
v 0.5035097 0.7189794 -0.17902677
v -0.5034911 0.7189794 -0.17902677
v 0.5035097 0.76877785 -0.21535423
v -0.5034911 0.76877785 -0.21535438
v 0.5035097 0.7963719 -0.40996405
v -0.5034911 0.7963719 -0.4099643
v 0.5035095 0.96117795 -0.44140008
v -0.5034911 0.9611776 -0.44140014
v 0.5035095 1.0045874 -0.50870633
v -0.5034911 1.0045874 -0.5087062
v 0.42363575 1.0910437 -0.20047691
v 0.5579028 0.12136806 0.5404279
v 0.423857 0.12136813 0.5404279
v 0.55768156 1.0910435 -0.20047694
v 0.42363483 1.1283673 -0.38202277
v 0.55768156 1.1283672 -0.38202277
v 0.37645414 1.0347636 -0.5087064
v 0.5703148 1.0347636 -0.5087066
v 0.55768156 1.1283672 -0.38202277
v 0.5703148 1.0347636 -0.5087066
v 0.5852674 0.121367306 -0.5087059
v 0.55768156 1.0910435 -0.20047694
v 0.5852674 0.12136739 0.1255523
v 0.5579028 0.12136806 0.5404279
v 0.43301445 1.3546338 -0.21735732
v 0.5438826 1.3546338 -0.21735732
v 0.5438826 0.51520646 0.4984984
v 0.43301445 0.51520646 0.49849865
v 0.43301445 0.51520646 0.49849865
v 0.43301445 0.44899708 0.4319955
v 0.43301445 1.2884245 -0.28386027
v 0.43301445 1.3546338 -0.21735732
v 0.43301445 1.3546338 -0.21735732
v 0.43301445 1.2884245 -0.28386027
v 0.5438826 1.2884246 -0.28386042
v 0.5438826 1.3546338 -0.21735732
v 0.5438826 1.3546338 -0.21735732
v 0.5438826 1.2884246 -0.28386042
v 0.5438826 0.44899717 0.4319952
v 0.5438826 0.51520646 0.4984984
v 0.5438826 0.51520646 0.4984984
v 0.5438826 0.44899717 0.4319952
v 0.43301445 0.44899708 0.4319955
v 0.43301445 0.51520646 0.49849865
v 0.42363483 1.1283673 -0.38202277
v 0.39140671 0.121367306 -0.50870603
v 0.37645414 1.0347636 -0.5087064
v 0.42363575 1.0910437 -0.20047691
v 0.39140671 0.12136754 0.12555228
v 0.423857 0.12136813 0.5404279
v 0.5579028 0.12136806 0.5404279
v 0.5579028 -1.4117145E-06 0.5404279
v 0.423857 -1.2964725E-06 0.5404279
v 0.423857 0.12136813 0.5404279
v 0.5852674 0.12136739 0.1255523
v 0.5852674 -2.1511842E-06 0.12555233
v 0.5579028 -1.4117145E-06 0.5404279
v 0.5579028 0.12136806 0.5404279
v 0.423857 0.12136813 0.5404279
v 0.423857 -1.2964725E-06 0.5404279
v 0.39140671 -1.997528E-06 0.12555233
v 0.39140671 0.12136754 0.12555228
v 0.5852674 0.121367306 -0.5087059
v 0.5852674 -2.30484E-06 -0.50870585
v 0.5852674 -2.1511842E-06 0.12555233
v 0.5852674 0.12136739 0.1255523
v 0.39140671 0.12136754 0.12555228
v 0.39140671 -1.997528E-06 0.12555233
v 0.39140671 -2.30484E-06 -0.50870603
v 0.39140671 0.121367306 -0.50870603
v 0.45648465 0.54277194 0.115685284
v 0.45648465 0.83322257 0.1156853
v 0.52596265 0.83322257 0.1156853
v 0.52596265 0.542772 0.11568529
v 0.45648465 0.9223298 0.04003544
v 0.45648465 0.83322257 0.1156853
v 0.45648465 0.54277194 0.115685284
v 0.45648465 0.6359837 0.04003544
v 0.52596265 0.542772 0.11568529
v 0.52596265 0.83322257 0.1156853
v 0.52596265 0.92233 0.04003544
v 0.52596265 0.63598394 0.04003544
v 0.52596265 0.63598394 0.04003544
v 0.52596265 0.92233 0.04003544
v 0.45648465 0.9223298 0.04003544
v 0.45648465 0.6359837 0.04003544
v 0.45648465 0.8115851 -0.10886671
v 0.45648465 1.1020358 -0.10886669
v 0.52596265 1.1020358 -0.10886669
v 0.52596265 0.8115852 -0.10886669
v 0.45648465 1.1911429 -0.18451655
v 0.45648465 1.1020358 -0.10886669
v 0.45648465 0.8115851 -0.10886671
v 0.45648465 0.9047969 -0.18451652
v 0.52596265 0.8115852 -0.10886669
v 0.52596265 1.1020358 -0.10886669
v 0.52596265 1.1911432 -0.18451656
v 0.52596265 0.9047971 -0.18451652
v 0.52596265 0.9047971 -0.18451652
v 0.52596265 1.1911432 -0.18451656
v 0.45648465 1.1911429 -0.18451655
v 0.45648465 0.9047969 -0.18451652
v 0.45648465 0.27395874 0.3402379
v 0.45648465 0.56440943 0.34023783
v 0.52596265 0.56440943 0.34023783
v 0.52596265 0.27395883 0.3402379
v 0.45648465 0.65351665 0.264588
v 0.45648465 0.56440943 0.34023783
v 0.45648465 0.27395874 0.3402379
v 0.45648465 0.36717057 0.264588
v 0.52596265 0.27395883 0.3402379
v 0.52596265 0.56440943 0.34023783
v 0.52596265 0.6535168 0.264588
v 0.52596265 0.36717078 0.264588
v 0.52596265 0.36717078 0.264588
v 0.52596265 0.6535168 0.264588
v 0.45648465 0.65351665 0.264588
v 0.45648465 0.36717057 0.264588
vt 0.300969 0.5143638
vt 0.300969 0.5021562
vt 0.27059674 0.5021562
vt 0.27059674 0.5143638
vt 0.300969 0.5177702
vt 0.27059674 0.5177702
vt 0.30096886 0.5270101
vt 0.27059674 0.5270101
vt 0.30096886 0.53697145
vt 0.27059674 0.53697145
vt 0.30096886 0.5403605
vt 0.27059674 0.5403605
vt 0.30096886 0.54944974
vt 0.27059674 0.54944974
vt 0.30096886 0.55947626
vt 0.27059674 0.55947626
vt 0.30096886 0.5630779
vt 0.27059674 0.5630779
vt 0.30096886 0.57335067
vt 0.27059674 0.57335067
vt 0.30096886 0.5833697
vt 0.27059674 0.5833697
vt 0.30096886 0.5906582
vt 0.27059674 0.5906582
vt 0.2510328 0.5228093
vt 0.25883657 0.5022348
vt 0.2510328 0.5022348
vt 0.25883657 0.5228093
vt 0.2510328 0.52865016
vt 0.25883657 0.52865016
vt 0.2510328 0.53596115
vt 0.25883657 0.53596115
vt 0.2600991 0.52865016
vt 0.2687024 0.52865016
vt 0.2687024 0.5228093
vt 0.2600991 0.5228093
vt 0.2687024 0.5022348
vt 0.2600991 0.5022348
vt 0.26189137 0.5662478
vt 0.26818818 0.5662478
vt 0.26818818 0.53932923
vt 0.26189137 0.53932923
vt 0.25989828 0.53932923
vt 0.25459555 0.53932923
vt 0.25459555 0.5662478
vt 0.25989828 0.5662478
vt 0.26189137 0.56855756
vt 0.26189137 0.5742221
vt 0.26818818 0.5742221
vt 0.26818818 0.56855756
vt 0.25989828 0.5662478
vt 0.25459555 0.5662478
vt 0.25459555 0.53932923
vt 0.25989828 0.53932923
vt 0.26818818 0.5373186
vt 0.26818818 0.5316614
vt 0.26189137 0.5316614
vt 0.26189137 0.5373186
vt 0.2600991 0.52865016
vt 0.2687024 0.5228093
vt 0.2687024 0.52865016
vt 0.2600991 0.5228093
vt 0.2687024 0.5022348
vt 0.2600991 0.5022348
vt 0.25883657 0.5022348
vt 0.25883657 0.5022348
vt 0.2510328 0.5022348
vt 0.2510328 0.5022348
vt 0.2687024 0.5022348
vt 0.2687024 0.5022348
vt 0.2600991 0.5022348
vt 0.2600991 0.5022348
vt 0.2600991 0.5022348
vt 0.2600991 0.5022348
vt 0.2687024 0.5022348
vt 0.2687024 0.5022348
vt 0.2687024 0.5228093
vt 0.2687024 0.5228093
vt 0.2687024 0.5022348
vt 0.2687024 0.5022348
vt 0.2687024 0.5022348
vt 0.2687024 0.5022348
vt 0.2687024 0.5228093
vt 0.2687024 0.5228093
vt 0.23664896 0.50287485
vt 0.23664896 0.52264535
vt 0.243154 0.52264535
vt 0.243154 0.50287485
vt 0.24315397 0.52264535
vt 0.24965826 0.52264535
vt 0.24965826 0.50287485
vt 0.24315397 0.50287485
vt 0.243154 0.50287485
vt 0.243154 0.52264535
vt 0.24965948 0.52264535
vt 0.24965948 0.50287485
vt 0.23664899 0.50287485
vt 0.23664899 0.52264535
vt 0.24315397 0.52264535
vt 0.24315397 0.50287485
vt 0.23664929 0.50287485
vt 0.23664929 0.52264535
vt 0.2431541 0.52264535
vt 0.2431541 0.50287485
vt 0.24315377 0.52264535
vt 0.24965858 0.52264535
vt 0.24965858 0.50287485
vt 0.24315377 0.50287485
vt 0.2431541 0.50287485
vt 0.2431541 0.52264535
vt 0.24965918 0.52264535
vt 0.24965918 0.50287485
vt 0.2366487 0.50287485
vt 0.2366487 0.52264535
vt 0.24315377 0.52264535
vt 0.24315377 0.50287485
vt 0.23664899 0.50287485
vt 0.23664899 0.52264535
vt 0.24315397 0.52264535
vt 0.24315397 0.50287485
vt 0.24315397 0.52264535
vt 0.24965829 0.52264535
vt 0.24965829 0.50287485
vt 0.24315391 0.50287485
vt 0.24315397 0.50287485
vt 0.24315397 0.52264535
vt 0.24965948 0.52264535
vt 0.24965948 0.50287485
vt 0.23664899 0.50287485
vt 0.23664899 0.52264535
vt 0.24315397 0.52264535
vt 0.24315391 0.50287485
vn -0 0.49778622 0.86729974
vn -0 0.29637027 0.9550731
vn -0 0.2963703 0.9550731
vn -0 0.4977866 0.86729956
vn -0 0.8805534 0.47394684
vn -0 0.8805538 0.47394618
vn -0 0.76215416 0.64739555
vn -0 0.7621542 0.6473955
vn -0 0.4869565 0.8734263
vn -0 0.48695678 0.87342614
vn -0 0.86783826 0.49684682
vn -0 0.86783826 0.4968467
vn -0 0.75956386 0.6504328
vn -0 0.75956404 0.6504326
vn -0 0.45762953 0.889143
vn -0 0.45762965 0.8891429
vn -0 0.8573478 0.5147375
vn -0 0.8573479 0.5147374
vn -1.2628851E-07 0.7237442 0.69006836
vn -1.2628854E-07 0.7237439 0.69006866
vn -1.6693207E-07 0.55903983 0.82914084
vn -1.6693205E-07 0.55903983 0.82914084
vn -1.283013E-07 0.8403744 0.54200643
vn -1.283013E-07 0.8403744 0.54200643
vn -0.61019546 0.64637727 0.45810255
vn 0.48642978 0.53053474 0.6942038
vn -0.48299754 0.53154993 0.6958219
vn 0.623376 0.65840507 0.421788
vn -0.5858458 0.80173147 -0.11836925
vn 0.6111224 0.7763508 -0.15430097
vn -0.88245034 0.43472052 -0.17972088
vn 0.8291878 0.46990427 -0.30271697
vn 0.6111224 0.7763508 -0.15430097
vn 0.8291878 0.46990427 -0.30271697
vn 0.9996007 0.027323425 0.007211917
vn 0.623376 0.65840507 0.421788
vn 0.9983417 0.041732986 0.03965092
vn 0.48642978 0.53053474 0.6942038
vn 7.084335E-07 0.64888036 0.7608904
vn 7.084335E-07 0.64888036 0.7608904
vn 7.084335E-07 0.6488803 0.7608904
vn 7.084335E-07 0.64888036 0.7608904
vn -1 0 0
vn -1 0 0
vn -1 0 0
vn -1 0 0
vn -9.759877E-07 0.7086704 -0.7055397
vn -9.759877E-07 0.7086704 -0.7055397
vn -9.759877E-07 0.7086704 -0.7055397
vn -9.759877E-07 0.7086704 -0.7055397
vn 1 0 0
vn 1 0 0
vn 1 0 0
vn 1 0 0
vn 2.0913985E-06 -0.7086707 0.7055394
vn 2.0913988E-06 -0.7086706 0.7055394
vn 2.0913985E-06 -0.7086706 0.7055394
vn 2.0913985E-06 -0.7086707 0.7055394
vn -0.5858458 0.80173147 -0.11836925
vn -0.99913603 0.029252473 0.029523866
vn -0.88245034 0.43472052 -0.17972088
vn -0.61019546 0.64637727 0.45810255
vn -0.99769694 0.04894807 0.046955816
vn -0.48299754 0.53154993 0.6958219
vn -0 -3.1650478E-07 1
vn -0 -3.1650478E-07 1
vn -0 -3.1650475E-07 1
vn -0 -3.1650475E-07 1
vn 0.99783176 0 0.065815546
vn 0.99783176 0 0.06581554
vn 0.99783176 0 0.065815546
vn 0.99783176 0 0.06581554
vn -0.99695504 0 0.07797878
vn -0.99695504 0 0.07797878
vn -0.99695504 0 0.07797878
vn -0.99695504 0 0.07797878
vn 1 0 0
vn 1 0 0
vn 1 0 0
vn 1 0 0
vn -1 0 0
vn -1 0 0
vn -1 0 0
vn -1 0 0
vn -0 0 1
vn -0 0 1
vn -0 0 1
vn -0 0 1
vn -1 0 0
vn -1 0 0
vn -1 0 0
vn -1 0 0
vn 1 0 0
vn 1 0 0
vn 1 0 0
vn 1 0 0
vn -0 0 -1
vn -0 0 -1
vn -0 0 -1
vn -0 0 -1
vn -1.3822356E-07 0 1
vn -1.3822356E-07 0 1
vn -1.3822356E-07 0 1
vn -1.3822356E-07 0 1
vn -1 0 0
vn -1 0 0
vn -1 0 0
vn -1 0 0
vn 1 0 0
vn 1 0 0
vn 1 0 0
vn 1 0 0
vn -1.3822327E-07 0 -1
vn -1.3822326E-07 0 -1
vn -1.3822326E-07 0 -1
vn -1.3822327E-07 0 -1
vn -0 1.3225655E-07 1
vn -0 1.3225655E-07 1
vn -0 1.3225655E-07 1
vn -0 1.3225655E-07 1
vn -1 0 0
vn -1 0 0
vn -1 0 0
vn -1 0 0
vn 1 0 0
vn 1 0 0
vn 1 0 0
vn 1 0 0
vn -0 0 -1
vn -0 0 -1
vn -0 0 -1
vn -0 0 -1
g stair1_R_0
f 3/3/3 2/2/2 1/1/1
f 4/4/4 3/3/3 1/1/1
f 4/4/4 1/1/1 5/5/5
f 6/6/6 4/4/4 5/5/5
f 6/6/6 5/5/5 7/7/7
f 8/8/8 6/6/6 7/7/7
f 8/8/8 7/7/7 9/9/9
f 10/10/10 8/8/8 9/9/9
f 10/10/10 9/9/9 11/11/11
f 12/12/12 10/10/10 11/11/11
f 12/12/12 11/11/11 13/13/13
f 14/14/14 12/12/12 13/13/13
f 14/14/14 13/13/13 15/15/15
f 16/16/16 14/14/14 15/15/15
f 16/16/16 15/15/15 17/17/17
f 18/18/18 16/16/16 17/17/17
f 18/18/18 17/17/17 19/19/19
f 20/20/20 18/18/18 19/19/19
f 20/20/20 19/19/19 21/21/21
f 22/22/22 20/20/20 21/21/21
f 22/22/22 21/21/21 23/23/23
f 24/24/24 22/22/22 23/23/23
f 27/27/27 26/26/26 25/25/25
f 26/26/26 28/28/28 25/25/25
f 25/25/25 28/28/28 29/29/29
f 28/28/28 30/30/30 29/29/29
f 29/29/29 30/30/30 31/31/31
f 30/30/30 32/32/32 31/31/31
f 35/35/35 34/34/34 33/33/33
f 36/36/36 35/35/35 33/33/33
f 37/37/37 35/35/35 36/36/36
f 38/38/38 37/37/37 36/36/36
f 41/41/41 40/40/40 39/39/39
f 42/42/42 41/41/41 39/39/39
f 45/45/45 44/44/44 43/43/43
f 46/46/46 45/45/45 43/43/43
f 49/49/49 48/48/48 47/47/47
f 50/50/50 49/49/49 47/47/47
f 53/53/53 52/52/52 51/51/51
f 54/54/54 53/53/53 51/51/51
f 57/57/57 56/56/56 55/55/55
f 58/58/58 57/57/57 55/55/55
f 61/61/61 60/60/60 59/59/59
f 60/60/60 62/62/62 59/59/59
f 60/60/60 63/63/63 62/62/62
f 63/63/63 64/64/64 62/62/62
f 67/67/67 66/66/66 65/65/65
f 68/68/68 67/67/67 65/65/65
f 71/71/71 70/70/70 69/69/69
f 72/72/72 71/71/71 69/69/69
f 75/75/75 74/74/74 73/73/73
f 76/76/76 75/75/75 73/73/73
f 79/79/79 78/78/78 77/77/77
f 80/80/80 79/79/79 77/77/77
f 83/83/83 82/82/82 81/81/81
f 84/84/84 83/83/83 81/81/81
f 87/87/87 86/86/86 85/85/85
f 88/88/88 87/87/87 85/85/85
f 91/91/91 90/90/90 89/89/89
f 92/92/92 91/91/91 89/89/89
f 95/95/95 94/94/94 93/93/93
f 96/96/96 95/95/95 93/93/93
f 99/99/99 98/98/98 97/97/97
f 100/100/100 99/99/99 97/97/97
f 103/103/103 102/102/102 101/101/101
f 104/104/104 103/103/103 101/101/101
f 107/107/107 106/106/106 105/105/105
f 108/108/108 107/107/107 105/105/105
f 111/111/111 110/110/110 109/109/109
f 112/112/112 111/111/111 109/109/109
f 115/115/115 114/114/114 113/113/113
f 116/116/116 115/115/115 113/113/113
f 119/119/119 118/118/118 117/117/117
f 120/120/120 119/119/119 117/117/117
f 123/123/123 122/122/122 121/121/121
f 124/124/124 123/123/123 121/121/121
f 127/127/127 126/126/126 125/125/125
f 128/128/128 127/127/127 125/125/125
f 131/131/131 130/130/130 129/129/129
f 132/132/132 131/131/131 129/129/129
