g stair_M
v 0.50350046 0.76877666 -0.17068446
v -0.50350034 0.76877666 -0.17068446
v -0.50350034 0.7963708 -0.3531794
v 0.50350046 0.7963708 -0.35317943
v 0.50350046 0.5265783 0.12061276
v -0.5035003 0.5265783 0.12061276
v -0.50350034 0.55417234 -0.0791409
v 0.50350046 0.55417234 -0.0791409
v 0.50350046 1.0317551 -0.4447232
v -0.5035003 1.0317551 -0.44472328
v -0.50350016 1.0337548 -0.6390607
v 0.5035006 1.0337548 -0.6390606
v 0.50350046 0.55417234 -0.0791409
v -0.50350034 0.55417234 -0.0791409
v -0.50350034 0.7189781 -0.13414682
v 0.50350046 0.7189781 -0.13414682
v 0.5035006 0.0060181255 0.53419566
v -0.50350016 0.0060181255 0.5341956
v -0.5035003 0.24792206 0.44195575
v 0.50350046 0.24792206 0.44195575
v 0.50350046 0.2910353 0.40226662
v -0.5035003 0.2910353 0.40226653
v -0.5035003 0.31836125 0.2121566
v 0.50350046 0.31836125 0.21215655
v 0.50350046 0.31836125 0.21215655
v -0.5035003 0.31836125 0.2121566
v -0.5035003 0.48316693 0.15715043
v 0.50350046 0.48316693 0.15715043
v 0.50350046 0.7963708 -0.35317943
v -0.50350034 0.7963708 -0.3531794
v -0.5035003 0.97712386 -0.4081854
v 0.50350046 0.97712386 -0.4081854
v 0.50350046 0.7189781 -0.13414682
v -0.50350034 0.7189781 -0.13414682
v -0.50350034 0.76877666 -0.17068446
v 0.50350046 0.76877666 -0.17068446
v 0.50350046 0.48316693 0.15715043
v -0.5035003 0.48316693 0.15715043
v -0.5035003 0.5265783 0.12061276
v 0.50350046 0.5265783 0.12061276
v 0.50350046 0.97712386 -0.4081854
v -0.5035003 0.97712386 -0.4081854
v -0.5035003 1.0317551 -0.44472328
v 0.50350046 1.0317551 -0.4447232
v 0.50350046 0.24792206 0.44195575
v -0.5035003 0.24792206 0.44195575
v -0.5035003 0.2910353 0.40226653
v 0.50350046 0.2910353 0.40226662
v 0.5035006 1.0337548 -0.6390606
v -0.50350016 1.0337548 -0.6390607
v -0.50350016 1.007 -0.69299525
v 0.5035006 1.007 -0.69299525
vt 0.25998044 0.8046058
vt 0.25998044 0.8046058
vt 0.25998044 0.8218478
vt 0.25998044 0.8218478
vt 0.25998044 0.8046058
vt 0.25998044 0.8046058
vt 0.25998044 0.8218478
vt 0.25998044 0.8218478
vt 0.25998044 0.8046058
vt 0.25998044 0.8046058
vt 0.25998044 0.8218478
vt 0.25998044 0.8218478
vt 0.25998038 0.79687285
vt 0.25998038 0.79687285
vt 0.25998038 0.8035827
vt 0.25998038 0.8035827
vt 0.25998038 0.7981093
vt 0.25998038 0.79811466
vt 0.25998038 0.8035827
vt 0.25998038 0.8035827
vt 0.25998044 0.8046058
vt 0.25998044 0.8046058
vt 0.25998044 0.8218478
vt 0.25998044 0.8218478
vt 0.25998038 0.79687285
vt 0.25998038 0.79687285
vt 0.25998038 0.8035827
vt 0.25998038 0.8035827
vt 0.25998038 0.79687285
vt 0.25998038 0.79687285
vt 0.25998038 0.8035827
vt 0.25998038 0.8035827
vt 0.25998038 0.8035827
vt 0.25998038 0.8035827
vt 0.25998044 0.8046058
vt 0.25998044 0.8046058
vt 0.25998038 0.8035827
vt 0.25998038 0.8035827
vt 0.25998044 0.8046058
vt 0.25998044 0.8046058
vt 0.25998038 0.8035827
vt 0.25998038 0.8035827
vt 0.25998044 0.8046058
vt 0.25998044 0.8046058
vt 0.25998038 0.8035827
vt 0.25998038 0.8035827
vt 0.25998044 0.8046058
vt 0.25998044 0.8046058
vt 0.25998044 0.8234877
vt 0.25998044 0.8234877
vt 0.25998038 0.82470924
vt 0.25998038 0.82470924
vn -0 0.9887609 0.14950563
vn -0 0.9887609 0.14950563
vn -0 0.9887609 0.14950563
vn -0 0.9887609 0.14950563
vn -0 0.990593 0.13684109
vn -0 0.990593 0.13684107
vn -0 0.990593 0.13684107
vn -0 0.990593 0.13684109
vn -0 0.9999471 0.0102899745
vn -0 0.9999471 0.0102899745
vn -0 0.9747717 -0.22320472
vn -0 0.9747717 -0.2232048
vn -0 0.31659386 0.94856125
vn -0 0.31659386 0.94856125
vn -0 0.31659386 0.94856125
vn -0 0.31659386 0.94856125
vn -0 0.35628545 0.93437713
vn -0 0.35628545 0.93437713
vn -0 0.35628542 0.93437713
vn -0 0.35628545 0.93437713
vn -0 0.98982716 0.14227536
vn -0 0.98982716 0.14227536
vn -0 0.98982716 0.14227536
vn -0 0.98982716 0.14227536
vn -0 0.31659508 0.9485607
vn -0 0.31659508 0.9485607
vn -0 0.31659508 0.9485607
vn -0 0.31659508 0.9485607
vn -0 0.2911334 0.95668244
vn -0 0.29113337 0.95668244
vn -0 0.2911334 0.95668244
vn -0 0.2911334 0.95668244
vn -0 0.59156066 0.8062605
vn -0 0.59156066 0.8062605
vn -0 0.59156066 0.8062605
vn -0 0.59156066 0.8062605
vn -0 0.6439372 0.7650783
vn -0 0.6439372 0.7650783
vn -0 0.6439372 0.7650783
vn -0 0.6439372 0.7650783
vn -0 0.5559326 0.8312275
vn -0 0.5559326 0.8312275
vn -0 0.5559325 0.8312275
vn -0 0.5559326 0.8312275
vn -0 0.6772873 0.73571867
vn -0 0.6772873 0.73571867
vn -0 0.67728734 0.73571867
vn -0 0.6772873 0.73571867
vn -0 0.9747717 -0.2232048
vn -0 0.9747717 -0.22320472
vn -0 0.89583397 -0.44438893
vn -0 0.89583397 -0.44438893
g stair_M_0
f 3/3/3 2/2/2 1/1/1
f 4/4/4 3/3/3 1/1/1
f 7/7/7 6/6/6 5/5/5
f 8/8/8 7/7/7 5/5/5
f 11/11/11 10/10/10 9/9/9
f 12/12/12 11/11/11 9/9/9
f 15/15/15 14/14/14 13/13/13
f 16/16/16 15/15/15 13/13/13
f 19/19/19 18/18/18 17/17/17
f 20/20/20 19/19/19 17/17/17
f 23/23/23 22/22/22 21/21/21
f 24/24/24 23/23/23 21/21/21
f 27/27/27 26/26/26 25/25/25
f 28/28/28 27/27/27 25/25/25
f 31/31/31 30/30/30 29/29/29
f 32/32/32 31/31/31 29/29/29
f 35/35/35 34/34/34 33/33/33
f 36/36/36 35/35/35 33/33/33
f 39/39/39 38/38/38 37/37/37
f 40/40/40 39/39/39 37/37/37
f 43/43/43 42/42/42 41/41/41
f 44/44/44 43/43/43 41/41/41
f 47/47/47 46/46/46 45/45/45
f 48/48/48 47/47/47 45/45/45
f 51/51/51 50/50/50 49/49/49
f 52/52/52 51/51/51 49/49/49
