g stair1_L
v -0.55324894 1.0910437 -0.20047691
v -0.41898188 0.12136806 0.5404279
v -0.5530277 0.121368155 0.5404279
v -0.41920316 1.0910435 -0.20047693
v -0.5532497 1.1283673 -0.38202277
v -0.41920316 1.1283672 -0.38202277
v -0.60043055 1.0347636 -0.5087064
v -0.40656975 1.0347636 -0.5087066
v -0.41920316 1.1283672 -0.38202277
v -0.40656975 1.0347636 -0.5087066
v -0.39161718 0.12136729 -0.5087059
v -0.41920316 1.0910435 -0.20047693
v -0.39161718 0.12136734 0.1255523
v -0.41898188 0.12136806 0.5404279
v -0.5438702 1.3546338 -0.21735731
v -0.43300194 1.3546338 -0.21735731
v -0.43300194 0.51520646 0.4984984
v -0.54387015 0.51520646 0.49849865
v -0.54387015 0.51520646 0.49849865
v -0.54387015 0.44899717 0.4319955
v -0.5438702 1.2884245 -0.28386027
v -0.5438702 1.3546338 -0.21735731
v -0.5438702 1.3546338 -0.21735731
v -0.5438702 1.2884245 -0.28386027
v -0.43300194 1.2884246 -0.28386042
v -0.43300194 1.3546338 -0.21735731
v -0.43300194 1.3546338 -0.21735731
v -0.43300194 1.2884246 -0.28386042
v -0.43300194 0.44899726 0.4319952
v -0.43300194 0.51520646 0.4984984
v -0.43300194 0.51520646 0.4984984
v -0.43300194 0.44899726 0.4319952
v -0.54387015 0.44899717 0.4319955
v -0.54387015 0.51520646 0.49849865
v -0.5231744 0.54277194 0.115685284
v -0.5231744 0.83322257 0.1156853
v -0.45369643 0.83322257 0.1156853
v -0.4536964 0.542772 0.11568529
v -0.5231744 0.9223298 0.04003544
v -0.5231744 0.83322257 0.1156853
v -0.5231744 0.54277194 0.115685284
v -0.5231744 0.6359837 0.04003544
v -0.4536964 0.542772 0.11568529
v -0.45369643 0.83322257 0.1156853
v -0.4536964 0.92233 0.04003544
v -0.4536964 0.63598394 0.04003544
v -0.4536964 0.63598394 0.04003544
v -0.4536964 0.92233 0.04003544
v -0.5231744 0.9223298 0.04003544
v -0.5231744 0.6359837 0.04003544
v -0.5231744 0.8115851 -0.10886671
v -0.5231744 1.1020358 -0.10886669
v -0.45369643 1.1020358 -0.10886669
v -0.4536964 0.8115852 -0.10886669
v -0.5231744 1.1911429 -0.18451655
v -0.5231744 1.1020358 -0.10886669
v -0.5231744 0.8115851 -0.10886671
v -0.5231744 0.9047969 -0.18451652
v -0.4536964 0.8115852 -0.10886669
v -0.45369643 1.1020358 -0.10886669
v -0.4536964 1.1911432 -0.18451656
v -0.4536964 0.9047971 -0.18451652
v -0.4536964 0.9047971 -0.18451652
v -0.4536964 1.1911432 -0.18451656
v -0.5231744 1.1911429 -0.18451655
v -0.5231744 0.9047969 -0.18451652
v -0.5231744 0.27395877 0.3402379
v -0.5231744 0.56440943 0.34023783
v -0.45369643 0.56440943 0.34023783
v -0.4536964 0.27395886 0.3402379
v -0.5231744 0.65351665 0.264588
v -0.5231744 0.56440943 0.34023783
v -0.5231744 0.27395877 0.3402379
v -0.5231744 0.36717057 0.264588
v -0.4536964 0.27395886 0.3402379
v -0.45369643 0.56440943 0.34023783
v -0.4536964 0.6535169 0.264588
v -0.4536964 0.36717078 0.264588
v -0.4536964 0.36717078 0.264588
v -0.4536964 0.6535169 0.264588
v -0.5231744 0.65351665 0.264588
v -0.5231744 0.36717057 0.264588
v -0.5532497 1.1283673 -0.38202277
v -0.58547795 0.12136729 -0.50870603
v -0.60043055 1.0347636 -0.5087064
v -0.55324894 1.0910437 -0.20047691
v -0.58547795 0.1213675 0.12555228
v -0.5530277 0.121368155 0.5404279
v -0.41898188 0.12136806 0.5404279
v -0.41898188 -1.3925076E-06 0.5404279
v -0.5530277 -1.3012743E-06 0.5404279
v -0.5530277 0.121368155 0.5404279
v -0.39161718 0.12136734 0.1255523
v -0.39161718 -2.1679903E-06 0.12555233
v -0.41898188 -1.3925076E-06 0.5404279
v -0.41898188 0.12136806 0.5404279
v -0.5530277 0.121368155 0.5404279
v -0.5530277 -1.3012743E-06 0.5404279
v -0.58547795 -2.0215368E-06 0.12555231
v -0.58547795 0.1213675 0.12555228
v 0.50350505 0.049984433 0.40392122
v -0.5034957 0.049984433 0.40392116
v -0.5034957 0.24792309 0.34249845
v 0.50350475 0.24792309 0.34249845
v -0.5034955 0.2910363 0.3030373
v 0.50350505 0.2910363 0.30303735
v -0.5034957 0.31836227 0.13146114
v 0.50350505 0.31836227 0.13146107
v -0.5034957 0.483168 0.07677124
v 0.50350505 0.483168 0.07677124
v -0.5034957 0.52657944 0.040443603
v 0.50350535 0.52657944 0.040443603
v -0.5034957 0.5541736 -0.1243371
v 0.50350475 0.55417365 -0.124337144
v -0.5034957 0.71897936 -0.17902677
v 0.50350505 0.71897936 -0.17902677
v -0.5034957 0.76877785 -0.21535426
v 0.50350505 0.76877785 -0.21535443
v -0.5034957 0.7963719 -0.40996397
v 0.50350505 0.7963719 -0.4099642
v -0.5034954 0.96117795 -0.44140008
v 0.50350505 0.9611776 -0.44140014
v -0.5034955 1.0045874 -0.5087062
v 0.50350523 1.0045874 -0.50870615
v -0.39161718 0.12136729 -0.5087059
v -0.39161718 -2.2952365E-06 -0.50870585
v -0.39161718 -2.1679903E-06 0.12555233
v -0.39161718 0.12136734 0.1255523
v -0.58547795 0.1213675 0.12555228
v -0.58547795 -2.0215368E-06 0.12555231
v -0.58547795 -2.2952365E-06 -0.50870603
v -0.58547795 0.12136729 -0.50870603
vt 0.2510328 0.5228093
vt 0.25883657 0.5022348
vt 0.2510328 0.5022348
vt 0.25883657 0.5228093
vt 0.2510328 0.52865016
vt 0.25883657 0.52865016
vt 0.2510328 0.53596115
vt 0.25883657 0.53596115
vt 0.2600991 0.52865016
vt 0.2687024 0.52865016
vt 0.2687024 0.5228093
vt 0.2600991 0.5228093
vt 0.2687024 0.5022348
vt 0.2600991 0.5022348
vt 0.26189137 0.5662478
vt 0.26818818 0.5662478
vt 0.26818818 0.53932923
vt 0.26189137 0.53932923
vt 0.25989828 0.53932923
vt 0.25459555 0.53932923
vt 0.25459555 0.5662478
vt 0.25989828 0.5662478
vt 0.26189137 0.56855756
vt 0.26189137 0.5742221
vt 0.26818818 0.5742221
vt 0.26818818 0.56855756
vt 0.25989828 0.5662478
vt 0.25459555 0.5662478
vt 0.25459555 0.53932923
vt 0.25989828 0.53932923
vt 0.26818818 0.5373186
vt 0.26818818 0.5316614
vt 0.26189137 0.5316614
vt 0.26189137 0.5373186
vt 0.23664896 0.50287485
vt 0.23664896 0.52264535
vt 0.243154 0.52264535
vt 0.243154 0.50287485
vt 0.24315397 0.52264535
vt 0.24965826 0.52264535
vt 0.24965826 0.50287485
vt 0.24315397 0.50287485
vt 0.243154 0.50287485
vt 0.243154 0.52264535
vt 0.24965948 0.52264535
vt 0.24965948 0.50287485
vt 0.23664899 0.50287485
vt 0.23664899 0.52264535
vt 0.24315397 0.52264535
vt 0.24315397 0.50287485
vt 0.23664929 0.50287485
vt 0.23664929 0.52264535
vt 0.2431541 0.52264535
vt 0.2431541 0.50287485
vt 0.24315377 0.52264535
vt 0.24965858 0.52264535
vt 0.24965858 0.50287485
vt 0.24315377 0.50287485
vt 0.2431541 0.50287485
vt 0.2431541 0.52264535
vt 0.24965918 0.52264535
vt 0.24965918 0.50287485
vt 0.2366487 0.50287485
vt 0.2366487 0.52264535
vt 0.24315377 0.52264535
vt 0.24315377 0.50287485
vt 0.23664899 0.50287485
vt 0.23664899 0.52264535
vt 0.24315397 0.52264535
vt 0.24315397 0.50287485
vt 0.24315397 0.52264535
vt 0.24965829 0.52264535
vt 0.24965829 0.50287485
vt 0.24315391 0.50287485
vt 0.24315397 0.50287485
vt 0.24315397 0.52264535
vt 0.24965948 0.52264535
vt 0.24965948 0.50287485
vt 0.23664899 0.50287485
vt 0.23664899 0.52264535
vt 0.24315397 0.52264535
vt 0.24315391 0.50287485
vt 0.2600991 0.52865016
vt 0.2687024 0.5228093
vt 0.2687024 0.52865016
vt 0.2600991 0.5228093
vt 0.2687024 0.5022348
vt 0.2600991 0.5022348
vt 0.25883657 0.5022348
vt 0.25883657 0.5022348
vt 0.2510328 0.5022348
vt 0.2510328 0.5022348
vt 0.2687024 0.5022348
vt 0.2687024 0.5022348
vt 0.2600991 0.5022348
vt 0.2600991 0.5022348
vt 0.2600991 0.5022348
vt 0.2600991 0.5022348
vt 0.2687024 0.5022348
vt 0.2687024 0.5022348
vt 0.27059674 0.5021562
vt 0.300969 0.5021562
vt 0.300969 0.5143638
vt 0.27059674 0.5143638
vt 0.300969 0.5177702
vt 0.27059674 0.5177702
vt 0.30096886 0.5270101
vt 0.27059674 0.5270101
vt 0.30096886 0.53697145
vt 0.27059674 0.53697145
vt 0.30096886 0.5403605
vt 0.27059674 0.5403605
vt 0.30096886 0.54944974
vt 0.27059674 0.54944974
vt 0.30096886 0.55947626
vt 0.27059674 0.55947626
vt 0.30096886 0.5630779
vt 0.27059674 0.5630779
vt 0.30096886 0.57335067
vt 0.27059674 0.57335067
vt 0.30096886 0.5833697
vt 0.27059674 0.5833697
vt 0.30096886 0.5906582
vt 0.27059674 0.5906582
vt 0.2687024 0.5228093
vt 0.2687024 0.5228093
vt 0.2687024 0.5022348
vt 0.2687024 0.5022348
vt 0.2687024 0.5022348
vt 0.2687024 0.5022348
vt 0.2687024 0.5228093
vt 0.2687024 0.5228093
vn -0.61019546 0.6463772 0.45810252
vn 0.48642984 0.53053474 0.6942038
vn -0.48299754 0.5315499 0.6958218
vn 0.623376 0.65840495 0.42178807
vn -0.5858457 0.80173165 -0.11836933
vn 0.61112237 0.7763509 -0.15430084
vn -0.8824504 0.43472043 -0.1797207
vn 0.829188 0.4699042 -0.3027165
vn 0.61112237 0.7763509 -0.15430084
vn 0.829188 0.4699042 -0.3027165
vn 0.9996007 0.027323531 0.007211981
vn 0.623376 0.65840495 0.42178807
vn 0.9983417 0.04173315 0.03965108
vn 0.48642984 0.53053474 0.6942038
vn 7.0843316E-07 0.6488803 0.7608904
vn 7.0843316E-07 0.6488803 0.7608904
vn 7.0843316E-07 0.6488803 0.76089054
vn 7.0843316E-07 0.64888036 0.7608904
vn -1 0 0
vn -1 0 0
vn -1 0 0
vn -1 0 0
vn -9.759868E-07 0.70867056 -0.7055395
vn -9.759868E-07 0.70867056 -0.7055395
vn -9.759868E-07 0.70867056 -0.7055395
vn -9.759868E-07 0.70867056 -0.7055395
vn 1 0 0
vn 1 0 0
vn 1 0 0
vn 1 0 0
vn 2.0728087E-06 -0.70867103 0.705539
vn 2.0728085E-06 -0.7086711 0.705539
vn 2.072809E-06 -0.7086711 0.7055389
vn 2.0728087E-06 -0.70867103 0.705539
vn -0 0 1
vn -0 0 1
vn -0 0 1
vn -0 0 1
vn -1 0 -3.3414634E-07
vn -1 0 -3.3414628E-07
vn -1 0 -3.3414628E-07
vn -1 0 -3.3414628E-07
vn 1 0 3.3414645E-07
vn 1 0 3.3414645E-07
vn 1 0 3.3414645E-07
vn 1 0 3.3414645E-07
vn -0 0 -1
vn -0 0 -1
vn -0 0 -1
vn -0 0 -1
vn -1.382236E-07 0 1
vn -1.382236E-07 0 1
vn -1.382236E-07 0 1
vn -1.3822361E-07 0 1
vn -1 0 -3.341464E-07
vn -1 0 -3.3414645E-07
vn -1 0 -3.341464E-07
vn -1 0 -3.3414642E-07
vn 1 0 3.341465E-07
vn 1 0 3.341465E-07
vn 1 0 3.341465E-07
vn 1 0 3.341465E-07
vn -1.3822331E-07 0 -1
vn -1.382233E-07 0 -1
vn -1.382233E-07 0 -1
vn -1.382233E-07 0 -1
vn -0 1.3225655E-07 1
vn -0 1.3225656E-07 1
vn -0 1.3225656E-07 1
vn -0 1.3225656E-07 1
vn -1 0 -3.341464E-07
vn -1 0 -3.341464E-07
vn -1 0 -3.3414636E-07
vn -1 0 -3.3414636E-07
vn 1 0 3.3414653E-07
vn 1 0 3.3414653E-07
vn 1 0 3.3414653E-07
vn 1 0 3.3414653E-07
vn -0 0 -1
vn -0 0 -1
vn -0 0 -1
vn -0 0 -1
vn -0.5858457 0.80173165 -0.11836933
vn -0.99913603 0.029252488 0.029523868
vn -0.8824504 0.43472043 -0.1797207
vn -0.61019546 0.6463772 0.45810252
vn -0.99769694 0.04894807 0.046955816
vn -0.48299754 0.5315499 0.6958218
vn -0 -3.1650467E-07 1
vn -0 -3.1650467E-07 1
vn -0 -3.1650467E-07 1
vn -0 -3.1650467E-07 1
vn 0.99783176 0 0.06581583
vn 0.99783176 0 0.06581583
vn 0.99783176 0 0.06581582
vn 0.99783176 0 0.06581582
vn -0.99695504 0 0.07797879
vn -0.99695504 0 0.07797879
vn -0.99695504 0 0.07797878
vn -0.99695504 0 0.07797879
vn -0 0.2963705 0.95507306
vn -0 0.2963705 0.95507306
vn -0 0.4977863 0.86729974
vn -0 0.4977867 0.86729944
vn -0 0.8805534 0.47394678
vn -0 0.8805539 0.47394615
vn -0 0.7621542 0.64739555
vn -0 0.7621542 0.6473955
vn -0 0.4869565 0.8734263
vn -0 0.48695678 0.87342614
vn -0 0.8678382 0.49684694
vn -0 0.86783826 0.4968467
vn -0 0.75956386 0.6504327
vn -0 0.75956404 0.6504326
vn -0 0.45762938 0.889143
vn -0 0.4576295 0.889143
vn -0 0.8573477 0.5147377
vn -0 0.8573477 0.5147377
vn 1.2628846E-07 0.7237444 0.69006807
vn 1.2628854E-07 0.723744 0.6900686
vn 1.672582E-07 0.55903995 0.8291408
vn 1.6725816E-07 0.55904 0.8291406
vn 1.2890091E-07 0.8403742 0.5420068
vn 1.2890091E-07 0.8403742 0.5420068
vn 1 0 0
vn 1 0 0
vn 1 0 0
vn 1 0 0
vn -1 0 0
vn -1 0 0
vn -1 0 0
vn -1 0 0
g stair1_L_0
f 3/3/3 2/2/2 1/1/1
f 2/2/2 4/4/4 1/1/1
f 1/1/1 4/4/4 5/5/5
f 4/4/4 6/6/6 5/5/5
f 5/5/5 6/6/6 7/7/7
f 6/6/6 8/8/8 7/7/7
f 11/11/11 10/10/10 9/9/9
f 12/12/12 11/11/11 9/9/9
f 13/13/13 11/11/11 12/12/12
f 14/14/14 13/13/13 12/12/12
f 17/17/17 16/16/16 15/15/15
f 18/18/18 17/17/17 15/15/15
f 21/21/21 20/20/20 19/19/19
f 22/22/22 21/21/21 19/19/19
f 25/25/25 24/24/24 23/23/23
f 26/26/26 25/25/25 23/23/23
f 29/29/29 28/28/28 27/27/27
f 30/30/30 29/29/29 27/27/27
f 33/33/33 32/32/32 31/31/31
f 34/34/34 33/33/33 31/31/31
f 37/37/37 36/36/36 35/35/35
f 38/38/38 37/37/37 35/35/35
f 41/41/41 40/40/40 39/39/39
f 42/42/42 41/41/41 39/39/39
f 45/45/45 44/44/44 43/43/43
f 46/46/46 45/45/45 43/43/43
f 49/49/49 48/48/48 47/47/47
f 50/50/50 49/49/49 47/47/47
f 53/53/53 52/52/52 51/51/51
f 54/54/54 53/53/53 51/51/51
f 57/57/57 56/56/56 55/55/55
f 58/58/58 57/57/57 55/55/55
f 61/61/61 60/60/60 59/59/59
f 62/62/62 61/61/61 59/59/59
f 65/65/65 64/64/64 63/63/63
f 66/66/66 65/65/65 63/63/63
f 69/69/69 68/68/68 67/67/67
f 70/70/70 69/69/69 67/67/67
f 73/73/73 72/72/72 71/71/71
f 74/74/74 73/73/73 71/71/71
f 77/77/77 76/76/76 75/75/75
f 78/78/78 77/77/77 75/75/75
f 81/81/81 80/80/80 79/79/79
f 82/82/82 81/81/81 79/79/79
f 85/85/85 84/84/84 83/83/83
f 84/84/84 86/86/86 83/83/83
f 84/84/84 87/87/87 86/86/86
f 87/87/87 88/88/88 86/86/86
f 91/91/91 90/90/90 89/89/89
f 92/92/92 91/91/91 89/89/89
f 95/95/95 94/94/94 93/93/93
f 96/96/96 95/95/95 93/93/93
f 99/99/99 98/98/98 97/97/97
f 100/100/100 99/99/99 97/97/97
f 103/103/103 102/102/102 101/101/101
f 104/104/104 103/103/103 101/101/101
f 105/105/105 103/103/103 104/104/104
f 106/106/106 105/105/105 104/104/104
f 107/107/107 105/105/105 106/106/106
f 108/108/108 107/107/107 106/106/106
f 109/109/109 107/107/107 108/108/108
f 110/110/110 109/109/109 108/108/108
f 111/111/111 109/109/109 110/110/110
f 112/112/112 111/111/111 110/110/110
f 113/113/113 111/111/111 112/112/112
f 114/114/114 113/113/113 112/112/112
f 115/115/115 113/113/113 114/114/114
f 116/116/116 115/115/115 114/114/114
f 117/117/117 115/115/115 116/116/116
f 118/118/118 117/117/117 116/116/116
f 119/119/119 117/117/117 118/118/118
f 120/120/120 119/119/119 118/118/118
f 121/121/121 119/119/119 120/120/120
f 122/122/122 121/121/121 120/120/120
f 123/123/123 121/121/121 122/122/122
f 124/124/124 123/123/123 122/122/122
f 127/127/127 126/126/126 125/125/125
f 128/128/128 127/127/127 125/125/125
f 131/131/131 130/130/130 129/129/129
f 132/132/132 131/131/131 129/129/129
