g stair1_M
v -0.5035002 0.7963709 -0.3538733
v 4.60968E-07 0.7963709 -0.35387322
v -0 0.76877666 -0.16849509
v -0.5035004 0.76877666 -0.16849524
v -0.5035002 0.71897805 -0.13099082
v 4.60968E-07 0.7189781 -0.13099083
v -1.53656E-07 0.55417246 -0.07431794
v -0.50350046 0.5541724 -0.074318014
v -1.53656E-07 0.55417246 -0.07431794
v -0.5035004 0.5265783 0.13391064
v -0.50350046 0.5541724 -0.074318014
v -0 0.5265782 0.13391066
v -0.5035004 0.48316687 0.17247286
v -0 0.48316687 0.17247286
v -0.5035002 0.31836125 0.23112716
v 1.53656E-07 0.31836125 0.23112719
v -0 0.24792194 0.48002812
v 4.60968E-07 0.04998336 0.546523
v -0.50350016 0.04998336 0.5465229
v -0.5035002 0.24792196 0.48002812
v -0 0.29103518 0.43703344
v -0.5035004 0.29103518 0.43703344
v -0.5035002 0.31836125 0.23112716
v 1.53656E-07 0.31836125 0.23112719
v -0 0.97712404 -0.4087571
v 4.60968E-07 0.7963709 -0.35387322
v -0.5035002 0.7963709 -0.3538733
v -0.5035004 0.9771241 -0.40875703
v -1.53656E-07 1.0317554 -0.44505075
v -0.50350046 1.0317554 -0.44505075
v -0.5035004 1.0337551 -0.63845354
v -0 1.0337551 -0.63845354
v -0.50350016 1.0070001 -0.6929953
v 4.60968E-07 1.0070002 -0.6929952
v 4.60968E-07 0.7963709 -0.35387322
v 0.5035006 0.7963709 -0.35387337
v 0.5035003 0.76877654 -0.16849516
v -0 0.76877666 -0.16849509
v 4.60968E-07 0.7189781 -0.13099083
v 0.50350094 0.7189781 -0.13099082
v 0.5035003 0.5541724 -0.07431794
v -1.53656E-07 0.55417246 -0.07431794
v 0.5035003 0.5541724 -0.07431794
v -0 0.5265782 0.13391066
v -1.53656E-07 0.55417246 -0.07431794
v 0.5035003 0.52657825 0.13391064
v -0 0.48316687 0.17247286
v 0.50350046 0.48316687 0.17247291
v 1.53656E-07 0.31836125 0.23112719
v 0.5035006 0.31836125 0.23112719
v 0.5035006 0.24792194 0.48002812
v 0.5035006 0.04998337 0.54652303
v 4.60968E-07 0.04998336 0.546523
v -0 0.24792194 0.48002812
v -0 0.29103518 0.43703344
v 0.5035006 0.29103523 0.4370335
v 1.53656E-07 0.31836125 0.23112719
v 0.5035006 0.31836125 0.23112719
v 0.50350046 0.97712404 -0.40875703
v 0.5035006 0.7963709 -0.35387337
v 4.60968E-07 0.7963709 -0.35387322
v -0 0.97712404 -0.4087571
v 0.5035003 1.0317553 -0.44505084
v -1.53656E-07 1.0317554 -0.44505075
v -0 1.0337551 -0.63845354
v 0.50350046 1.0337551 -0.6384534
v 4.60968E-07 1.0070002 -0.6929952
v 0.50350094 1.0070001 -0.6929952
vt 0.20298173 0.9905257
vt 0.22802068 0.9905257
vt 0.22802068 0.9745019
vt 0.20298173 0.9745019
vt 0.20298173 0.97175694
vt 0.22802068 0.97175694
vt 0.22802068 0.965696
vt 0.20298173 0.965696
vt 0.22802068 0.9905257
vt 0.20298173 0.9745019
vt 0.20298173 0.9905257
vt 0.22802068 0.9745019
vt 0.20298173 0.97175694
vt 0.22802068 0.97175694
vt 0.20298173 0.965696
vt 0.22802068 0.965696
vt 0.22802068 0.97175694
vt 0.22802068 0.9603305
vt 0.20298173 0.96033525
vt 0.20298173 0.97175694
vt 0.22802068 0.9745019
vt 0.20298173 0.9745019
vt 0.20298173 0.9905257
vt 0.22802068 0.9905257
vt 0.22802068 0.97175694
vt 0.22802068 0.965696
vt 0.20298173 0.965696
vt 0.20298173 0.97175694
vt 0.22802068 0.9745019
vt 0.20298173 0.9745019
vt 0.20298173 0.9905257
vt 0.22802068 0.9905257
vt 0.20298173 0.99530303
vt 0.22802068 0.99530303
vt 0.22802068 0.9905257
vt 0.20298173 0.9905257
vt 0.20298173 0.9745019
vt 0.22802068 0.9745019
vt 0.22802068 0.97175694
vt 0.20298173 0.97175694
vt 0.20298173 0.965696
vt 0.22802068 0.965696
vt 0.20298173 0.9905257
vt 0.22802068 0.9745019
vt 0.22802068 0.9905257
vt 0.20298173 0.9745019
vt 0.22802068 0.97175694
vt 0.20298173 0.97175694
vt 0.22802068 0.965696
vt 0.20298173 0.965696
vt 0.20298173 0.97175694
vt 0.20298173 0.9603237
vt 0.22802068 0.9603305
vt 0.22802068 0.97175694
vt 0.22802068 0.9745019
vt 0.20298173 0.9745019
vt 0.22802068 0.9905257
vt 0.20298173 0.9905257
vt 0.20298173 0.97175694
vt 0.20298173 0.965696
vt 0.22802068 0.965696
vt 0.22802068 0.97175694
vt 0.20298173 0.9745019
vt 0.22802068 0.9745019
vt 0.22802068 0.9905257
vt 0.20298173 0.9905257
vt 0.22802068 0.99530303
vt 0.20298173 0.99530303
vn -0 1 -0.00015896125
vn -0 1 -0.00015896125
vn -0 1 -0.00015896125
vn -0 1 -0.00015896125
vn -0 1 -0.00015896125
vn -0 1 -0.00015896125
vn -0 1 -0.00015896125
vn -0 1 -0.00015896125
vn -0 1 -0.00015896125
vn -0 1 -0.00015896125
vn -0 1 -0.00015896125
vn -0 1 -0.00015896125
vn -0 1 -0.00015896125
vn -0 1 -0.00015896125
vn -0 1 -0.00015896125
vn -0 1 -0.00015896125
vn -0 1 -0.00015896125
vn -0 1 -0.00015896125
vn -0 1 -0.00015896125
vn -0 1 -0.00015896125
vn -0 1 -0.00015896125
vn -0 1 -0.00015896125
vn -0 1 -0.00015896125
vn -0 1 -0.00015896125
vn -0 1 -0.00015896125
vn -0 1 -0.00015896125
vn -0 1 -0.00015896125
vn -0 1 -0.00015896125
vn -0 1 -0.00015896125
vn -0 1 -0.00015896125
vn -0 1 -0.00015896125
vn -0 1 -0.00015896125
vn -0 1 -0.00015896125
vn -0 1 -0.00015896125
vn -0 1 -0.00015896125
vn -0 1 -0.00015896125
vn -0 1 -0.00015896125
vn -0 1 -0.00015896125
vn -0 1 -0.00015896125
vn -0 1 -0.00015896125
vn -0 1 -0.00015896125
vn -0 1 -0.00015896125
vn -0 1 -0.00015896125
vn -0 1 -0.00015896125
vn -0 1 -0.00015896125
vn -0 1 -0.00015896125
vn -0 1 -0.00015896125
vn -0 1 -0.00015896125
vn -0 1 -0.00015896125
vn -0 1 -0.00015896125
vn -0 1 -0.00015896125
vn -0 1 -0.00015896125
vn -0 1 -0.00015896125
vn -0 1 -0.00015896125
vn -0 1 -0.00015896125
vn -0 1 -0.00015896125
vn -0 1 -0.00015896125
vn -0 1 -0.00015896125
vn -0 1 -0.00015896125
vn -0 1 -0.00015896125
vn -0 1 -0.00015896125
vn -0 1 -0.00015896125
vn -0 1 -0.00015896125
vn -0 1 -0.00015896125
vn -0 1 -0.00015896125
vn -0 1 -0.00015896125
vn -0 1 -0.00015896125
vn -0 1 -0.00015896125
g stair1_M_0
f 3/3/3 2/2/2 1/1/1
f 4/4/4 3/3/3 1/1/1
f 4/4/4 5/5/5 3/3/3
f 5/5/5 6/6/6 3/3/3
f 7/7/7 6/6/6 5/5/5
f 8/8/8 7/7/7 5/5/5
f 11/11/11 10/10/10 9/9/9
f 10/10/10 12/12/12 9/9/9
f 10/10/10 13/13/13 12/12/12
f 13/13/13 14/14/14 12/12/12
f 13/13/13 15/15/15 14/14/14
f 15/15/15 16/16/16 14/14/14
f 19/19/19 18/18/18 17/17/17
f 20/20/20 19/19/19 17/17/17
f 20/20/20 17/17/17 21/21/21
f 22/22/22 20/20/20 21/21/21
f 22/22/22 21/21/21 23/23/23
f 21/21/21 24/24/24 23/23/23
f 27/27/27 26/26/26 25/25/25
f 28/28/28 27/27/27 25/25/25
f 28/28/28 25/25/25 29/29/29
f 30/30/30 28/28/28 29/29/29
f 30/30/30 29/29/29 31/31/31
f 29/29/29 32/32/32 31/31/31
f 31/31/31 32/32/32 33/33/33
f 32/32/32 34/34/34 33/33/33
f 37/37/37 36/36/36 35/35/35
f 38/38/38 37/37/37 35/35/35
f 38/38/38 39/39/39 37/37/37
f 39/39/39 40/40/40 37/37/37
f 41/41/41 40/40/40 39/39/39
f 42/42/42 41/41/41 39/39/39
f 45/45/45 44/44/44 43/43/43
f 44/44/44 46/46/46 43/43/43
f 44/44/44 47/47/47 46/46/46
f 47/47/47 48/48/48 46/46/46
f 47/47/47 49/49/49 48/48/48
f 49/49/49 50/50/50 48/48/48
f 53/53/53 52/52/52 51/51/51
f 54/54/54 53/53/53 51/51/51
f 54/54/54 51/51/51 55/55/55
f 51/51/51 56/56/56 55/55/55
f 55/55/55 56/56/56 57/57/57
f 56/56/56 58/58/58 57/57/57
f 61/61/61 60/60/60 59/59/59
f 62/62/62 61/61/61 59/59/59
f 62/62/62 59/59/59 63/63/63
f 64/64/64 62/62/62 63/63/63
f 64/64/64 63/63/63 65/65/65
f 63/63/63 66/66/66 65/65/65
f 65/65/65 66/66/66 67/67/67
f 66/66/66 68/68/68 67/67/67
