g stair_R
v -0.49846473 0.7703549 -0.42112556
v -0.47046775 1.0271399 -0.42112556
v -0.49866378 1.0271399 -0.39292955
v 0.438254 0.25678477 -0.36974782
v 0.43825275 0.25678524 0.50350004
v 0.25706157 0.2567853 0.50350004
v 0.2570628 0.25678495 -0.36974782
v 0.3867954 0.2567848 -0.42112556
v 0.25121176 0.25678483 -0.42112556
v 0.20560418 0.25678498 -0.42112556
v -0.043019686 0.7703547 -0.36974767
v -0.043020915 0.7703557 0.5035003
v -0.23287597 0.7703557 0.5035002
v -0.23287474 0.7703549 -0.36974767
v -0.09447816 0.77035475 -0.42112556
v -0.23788361 0.7703547 -0.42112556
v -0.28433338 0.7703549 -0.42112556
v 0.438254 0.25678477 -0.36974782
v 0.50350016 0.001667107 0.50350004
v 0.43825275 0.25678524 0.50350004
v 0.50350016 0.0016671454 -0.36974782
v 0.45046255 0.0016671676 -0.42112556
v 0.3867954 0.2567848 -0.42112556
v 0.1943922 0.51356983 -0.36974767
v 0.25706157 0.2567853 0.50350004
v 0.19439098 0.51357025 0.5035004
v 0.2570628 0.25678495 -0.36974782
v 0.20560418 0.25678498 -0.42112556
v 0.14293358 0.5135698 -0.42112556
v 0.1943922 0.51356983 -0.36974767
v 0.19439098 0.51357025 0.5035004
v 0.016896322 0.5135703 0.5035003
v 0.01689755 0.51356995 -0.36974767
v 0.14293358 0.5135698 -0.42112556
v 0.011738397 0.5135699 -0.42112556
v -0.034561075 0.51356995 -0.42112556
v -0.043019686 0.7703547 -0.36974767
v 0.016896322 0.5135703 0.5035003
v -0.043020915 0.7703557 0.5035003
v 0.01689755 0.51356995 -0.36974767
v -0.034561075 0.51356995 -0.42112556
v -0.09447816 0.77035475 -0.42112556
v -0.29385266 1.0271397 -0.36974767
v -0.23287597 0.7703557 0.5035002
v -0.29385388 1.0271405 0.5035002
v -0.23287474 0.7703549 -0.36974767
v -0.28433338 0.7703549 -0.42112556
v -0.34531128 1.0271398 -0.42112556
v -0.49866378 1.0271399 -0.39292955
v -0.47046775 1.0271399 -0.42112556
v -0.34531128 1.0271398 -0.42112556
v -0.29385266 1.0271397 -0.36974767
v -0.49866512 1.0271404 0.5035001
v -0.29385388 1.0271405 0.5035002
v 0.45046255 0.0016671676 -0.42112556
v 0.3867954 0.2567848 -0.42112556
v 0.25121176 0.25678483 -0.42112556
v 0.31487894 0.0016670908 -0.42112556
v 0.20560418 0.25678498 -0.42112556
v 0.14293358 0.5135698 -0.42112556
v 0.011738397 0.5135699 -0.42112556
v 0.060512345 0.25678498 -0.42112556
v -0.034561075 0.51356995 -0.42112556
v -0.09447816 0.77035475 -0.42112556
v -0.23788361 0.7703547 -0.42112556
v -0.18910967 0.51357 -0.42112556
v -0.28433338 0.7703549 -0.42112556
v -0.34531128 1.0271398 -0.42112556
v -0.47046775 1.0271399 -0.42112556
v -0.49846473 0.7703549 -0.42112556
v 0.30382138 0.296891 -0.50881344
v 0.4946988 0.06707626 -0.50881344
v 0.49513027 0.06707767 -0.45348802
v 0.30425283 0.29689252 -0.45348793
v 0.30629206 0.30713218 -0.50881344
v 0.3067235 0.3071337 -0.45348793
v -0.03166568 0.7140304 -0.50881344
v -0.031234233 0.71403176 -0.45348784
v -0.050717007 0.72427297 -0.45348784
v -0.051148452 0.7242717 -0.50881344
v -0.28597417 1.0070006 -0.50881344
v -0.28554264 1.007001 -0.453488
v -0.49927515 1.007 -0.50881344
v -0.28597417 1.0070006 -0.50881344
v -0.28554264 1.007001 -0.453488
v -0.49884233 1.0070012 -0.45348808
v -0.49884236 1.0070013 -0.42112556
v -0.31940252 1.0070012 -0.42112556
v 0.51864386 0.0016671676 -0.50881344
v 0.5186053 0.001667187 -0.4413824
v 0.47347715 0.14328335 -0.4413826
v 0.47505224 0.14328273 -0.50881344
v 0.23732989 0.14328352 -0.40289268
v 0.2518495 0.14328419 -0.50881344
v 0.43197513 0.14328335 -0.40289268
v 0.47556472 0.0016671484 -0.40289268
v 0.2830422 0.0016671484 -0.40289268
v 0.23732989 0.14328352 -0.40289268
v -0.31940252 1.0070012 -0.42112556
v -0.24063581 0.72427315 -0.42112556
v -0.47546145 1.0070012 -0.42112556
v -0.084576905 0.72427315 -0.42112556
v -0.22115307 0.71403193 -0.42112556
v -0.06509413 0.71403193 -0.42112556
v 0.11680468 0.30713385 -0.42112556
v 0.2728636 0.30713385 -0.42112556
v 0.11433401 0.29689267 -0.42112556
v 0.27039292 0.29689267 -0.42112556
v 0.30521142 0.067077816 -0.42112556
v 0.46127033 0.067077816 -0.42112556
v -0.050717007 0.72427297 -0.45348784
v -0.31940252 1.0070012 -0.42112556
v -0.28554264 1.007001 -0.453488
v -0.084576905 0.72427315 -0.42112556
v -0.031234233 0.71403176 -0.45348784
v -0.06509413 0.71403193 -0.42112556
v 0.3067235 0.3071337 -0.45348793
v 0.2728636 0.30713385 -0.42112556
v 0.49513027 0.06707767 -0.45348802
v 0.46127033 0.067077816 -0.42112556
v 0.27039292 0.29689267 -0.42112556
v 0.30425283 0.29689252 -0.45348793
v 0.30425283 0.29689252 -0.45348793
v 0.27039292 0.29689267 -0.42112556
v 0.2728636 0.30713385 -0.42112556
v 0.3067235 0.3071337 -0.45348793
v 0.5186053 0.001667187 -0.4413824
v 0.47556472 0.0016671484 -0.40289268
v 0.43197513 0.14328335 -0.40289268
v 0.47347715 0.14328335 -0.4413826
vt 0.90557945 0.5018417
vt 0.90557945 0.54216856
vt 0.9174311 0.5430285
vt 0.9042194 0.541626
vt 0.88712204 0.541626
vt 0.88712204 0.57445943
vt 0.9042194 0.57445943
vt 0.90557945 0.54670244
vt 0.90557945 0.5643066
vt 0.896146 0.5648879
vt 0.9042194 0.541626
vt 0.88712204 0.541626
vt 0.88712204 0.57445943
vt 0.9042194 0.57445943
vt 0.90557945 0.5467044
vt 0.90557945 0.56430274
vt 0.89785385 0.5684566
vt 0.9042194 0.541626
vt 0.88712204 0.5018417
vt 0.88712204 0.541626
vt 0.9042194 0.5018417
vt 0.90557945 0.5018417
vt 0.90557945 0.54670244
vt 0.9042194 0.541626
vt 0.88712204 0.5018417
vt 0.88712204 0.541626
vt 0.9042194 0.5018417
vt 0.90557945 0.5018417
vt 0.90557945 0.5465505
vt 0.9042194 0.541626
vt 0.88712204 0.541626
vt 0.88712204 0.57445943
vt 0.9042194 0.57445943
vt 0.90557945 0.5465505
vt 0.90557945 0.56461054
vt 0.8960198 0.5649186
vt 0.9042194 0.541626
vt 0.88712204 0.5018417
vt 0.88712204 0.541626
vt 0.9042194 0.5018417
vt 0.90557945 0.5018417
vt 0.90557945 0.5467044
vt 0.9042194 0.541626
vt 0.88712204 0.5018417
vt 0.88712204 0.541626
vt 0.9042194 0.5018417
vt 0.90557945 0.5018417
vt 0.90557945 0.5445769
vt 0.9050166 0.57445943
vt 0.90557945 0.56896514
vt 0.90557945 0.5445769
vt 0.9042194 0.541626
vt 0.88712204 0.57445943
vt 0.88712204 0.541626
vt 0.90557945 0.5018417
vt 0.90557945 0.54670244
vt 0.90557945 0.541626
vt 0.90557945 0.5018417
vt 0.90557945 0.5018417
vt 0.90557945 0.5465505
vt 0.90557945 0.541626
vt 0.90557945 0.5018417
vt 0.90557945 0.5018417
vt 0.90557945 0.5467044
vt 0.90557945 0.541626
vt 0.90557945 0.5018417
vt 0.90557945 0.5018417
vt 0.90557945 0.5445769
vt 0.90557945 0.54216856
vt 0.90557945 0.5018417
vt 0.9677895 0.81159884
vt 0.9677895 0.788844
vt 0.95235735 0.788844
vt 0.95235735 0.81159884
vt 0.9677895 0.81743497
vt 0.95235735 0.81743497
vt 0.9677895 0.85152066
vt 0.95235735 0.85152066
vt 0.95235735 0.8551636
vt 0.9677895 0.8551636
vt 0.9677895 0.8836946
vt 0.95235735 0.8836946
vt 0.881214 0.8837088
vt 0.8812138 0.8713261
vt 0.9199552 0.8713261
vt 0.919955 0.8837088
vt 0.92727304 0.8837088
vt 0.92804456 0.8732917
vt 0.99574405 0.5034383
vt 0.8897165 0.5034383
vt 0.8897165 0.5425049
vt 0.99574405 0.5425049
vt 0.87932557 0.598455
vt 0.99574405 0.598455
vt 0.87932557 0.54919505
vt 0.87932557 0.5034383
vt 0.87932557 0.5034383
vt 0.87932557 0.5425049
vt 0.95008147 0.8836946
vt 0.9338703 0.8551636
vt 0.9338703 0.8836946
vt 0.95008147 0.8551636
vt 0.9338703 0.85152066
vt 0.95008147 0.85152066
vt 0.9338703 0.81743497
vt 0.95008147 0.81743497
vt 0.9338703 0.81159884
vt 0.95008147 0.81159884
vt 0.9338703 0.788844
vt 0.95008147 0.788844
vt 0.9470483 0.8551636
vt 0.95008147 0.8836946
vt 0.9470483 0.8836946
vt 0.95008147 0.8551636
vt 0.9470483 0.85152066
vt 0.95008147 0.85152066
vt 0.9470483 0.81743497
vt 0.95008147 0.81743497
vt 0.9470483 0.788844
vt 0.95008147 0.788844
vt 0.95008147 0.81159884
vt 0.9470483 0.81159884
vt 0.9470483 0.81159884
vt 0.95008147 0.81159884
vt 0.95008147 0.81743497
vt 0.9470483 0.81743497
vt 0.8897165 0.5034383
vt 0.87932557 0.5034383
vt 0.87932557 0.54919505
vt 0.8897165 0.5425049
vn -0.7050142 0.07686689 -0.7050152
vn -0.7050143 0.07686688 -0.7050151
vn -0.7050143 0.07686688 -0.7050151
vn 6.879471E-07 1 -5.136692E-07
vn 6.8794714E-07 1 -5.1366925E-07
vn 6.879471E-07 1 -5.136692E-07
vn 1.1753433E-06 1 -9.657522E-07
vn 6.879471E-07 1 -5.136692E-07
vn 2.125293E-06 1 -1.8468754E-06
vn 3.369089E-06 1 -3.0005554E-06
vn 5.998345E-07 1 -1.047951E-06
vn 5.9983455E-07 1 -1.047951E-06
vn 5.998345E-07 1 -1.0479511E-06
vn 1.4048728E-06 1 -1.7717286E-06
vn 5.998345E-07 1 -1.047951E-06
vn 2.9158628E-06 1 -3.1301993E-06
vn 4.962008E-06 1 -4.9698056E-06
vn 0.8884485 0.2260055 -0.39947563
vn 0.9688173 0.2477765 6.4008435E-07
vn 0.9688173 0.2477765 6.4008424E-07
vn 0.9054612 0.23048775 -0.35639235
vn 0.69039404 0.17443128 -0.7020896
vn 0.69039404 0.17443125 -0.7020896
vn 0.8923019 0.21777421 -0.39543858
vn 0.9714854 0.23709953 1.2686567E-06
vn 0.9714854 0.23709953 1.2686567E-06
vn 0.9082381 0.22166358 -0.35492077
vn 0.6962745 0.16993213 -0.69736993
vn 0.6962746 0.16993211 -0.6973699
vn 6.479532E-07 1 -4.897587E-07
vn 6.479532E-07 1 -4.8975875E-07
vn 6.479532E-07 1 -4.897587E-07
vn 8.3411436E-07 1 -7.0551715E-07
vn 6.479532E-07 1 -4.897587E-07
vn 1.1858824E-06 1 -1.1132117E-06
vn 1.659371E-06 1 -1.661979E-06
vn 0.89453715 0.20872785 -0.39526707
vn 0.97384053 0.22723222 1.1894134E-06
vn 0.97384053 0.22723222 1.1894134E-06
vn 0.909891 0.21231048 -0.35640252
vn 0.6971412 0.16266823 -0.69823575
vn 0.6971412 0.16266823 -0.69823575
vn 0.8936839 0.21222048 -0.39533737
vn 0.9729437 0.23104209 1.154751E-06
vn 0.9729437 0.23104209 1.154751E-06
vn 0.90926385 0.21592022 -0.3558339
vn 0.69681144 0.16546974 -0.6979065
vn 0.69681144 0.16546974 -0.6979065
vn 2.5981922E-07 1 -6.9087565E-07
vn 2.598192E-07 1 -6.908756E-07
vn 2.598192E-07 1 -6.908756E-07
vn 2.598192E-07 1 -6.908756E-07
vn 2.598192E-07 1 -6.908756E-07
vn 2.598192E-07 1 -6.908756E-07
vn -0 0 -1
vn -0 0 -1
vn -0 0 -1
vn -0 0 -1
vn -0 0 -1
vn -0 0 -1
vn -0 0 -1
vn -0 0 -1
vn -0 0 -1
vn -0 0 -1
vn -0 0 -1
vn -0 0 -1
vn -0 0 -1
vn -0 0 -1
vn -0 0 -1
vn -0 0 -1
vn 0.97416097 0.2257268 -0.0076027433
vn 0.7692515 0.63891774 -0.0060159867
vn 0.7692515 0.63891774 -0.0060159867
vn 0.9739367 0.2266926 -0.0076010204
vn 0.9739367 0.22669274 -0.007600745
vn 0.92886084 0.32269195 0.18189946
vn 0.6288421 0.7775175 -0.004923051
vn 0.62379026 0.7250433 0.2918869
vn 0.57591844 0.771598 0.27010095
vn 0.6300121 0.77656966 -0.00492898
vn 0.42316073 0.90604854 -0.003313758
vn 0.47385988 0.8450262 0.24776484
vn -1.260652E-06 1 -1.4571046E-05
vn 0.42316073 0.90604854 -0.003313758
vn 0.47385988 0.8450262 0.24776484
vn -4.3675627E-07 1 -9.569623E-06
vn 3.9124237E-07 1 -4.543294E-06
vn 0.21283318 0.9513764 0.22267677
vn 0.9542163 0.29889968 0.011415993
vn 0.9542163 0.29889968 0.011415993
vn 0.46906775 0.8831444 0.005612216
vn 0.59774405 0.8016552 0.007151598
vn 2.3431974E-06 0.7517139 0.6594894
vn 3.1171398E-06 1 5.996867E-07
vn 2.4567728E-06 0.78814965 0.61548364
vn -0 0 1
vn -0 0 1
vn 2.3431974E-06 0.7517139 0.6594894
vn -0 0 1
vn -0 0 1
vn -0 0 1
vn -0 0 1
vn -0 0 1
vn -0 0 1
vn -0 0 1
vn -0 0 1
vn -0 0 1
vn -0 0 1
vn -0 0 1
vn -0 0 1
vn 0.57591844 0.771598 0.27010095
vn 0.21283318 0.9513764 0.22267677
vn 0.47385988 0.8450262 0.24776484
vn 0.5543356 0.596935 0.5799833
vn 0.62379026 0.7250433 0.2918869
vn 0.48561078 0.7113637 0.5080787
vn 0.92886084 0.32269195 0.18189946
vn 0.5992719 0.4977378 0.6270011
vn 0.59927255 0.4977379 0.6270002
vn 0.5992726 0.49773794 0.6270002
vn 0.59927255 0.4977379 0.6270002
vn 0.59927255 0.49773794 0.6270002
vn 0.6815361 -0.16441998 0.713074
vn 0.6815361 -0.16441998 0.713074
vn 0.6815361 -0.16441998 0.713074
vn 0.6815361 -0.16441998 0.713074
vn 0.6587705 0.2063492 0.72349256
vn 0.65877044 0.20634921 0.7234926
vn 0.6587705 0.2063492 0.72349244
vn 0.6587705 0.2063492 0.72349256
g stair_R_0
f 3/3/3 2/2/2 1/1/1
f 6/6/6 5/5/5 4/4/4
f 7/7/7 6/6/6 4/4/4
f 7/7/7 4/4/4 8/8/8
f 8/8/8 9/9/9 7/7/7
f 10/10/10 7/7/7 9/9/9
f 13/13/13 12/12/12 11/11/11
f 14/14/14 13/13/13 11/11/11
f 14/14/14 11/11/11 15/15/15
f 15/15/15 16/16/16 14/14/14
f 17/17/17 14/14/14 16/16/16
f 20/20/20 19/19/19 18/18/18
f 19/19/19 21/21/21 18/18/18
f 21/21/21 22/22/22 18/18/18
f 22/22/22 23/23/23 18/18/18
f 26/26/26 25/25/25 24/24/24
f 25/25/25 27/27/27 24/24/24
f 27/27/27 28/28/28 24/24/24
f 28/28/28 29/29/29 24/24/24
f 32/32/32 31/31/31 30/30/30
f 33/33/33 32/32/32 30/30/30
f 33/33/33 30/30/30 34/34/34
f 34/34/34 35/35/35 33/33/33
f 36/36/36 33/33/33 35/35/35
f 39/39/39 38/38/38 37/37/37
f 38/38/38 40/40/40 37/37/37
f 40/40/40 41/41/41 37/37/37
f 41/41/41 42/42/42 37/37/37
f 45/45/45 44/44/44 43/43/43
f 44/44/44 46/46/46 43/43/43
f 46/46/46 47/47/47 43/43/43
f 47/47/47 48/48/48 43/43/43
f 51/51/51 50/50/50 49/49/49
f 49/49/49 52/52/52 51/51/51
f 49/49/49 53/53/53 52/52/52
f 53/53/53 54/54/54 52/52/52
f 57/57/57 56/56/56 55/55/55
f 58/58/58 57/57/57 55/55/55
f 61/61/61 60/60/60 59/59/59
f 62/62/62 61/61/61 59/59/59
f 65/65/65 64/64/64 63/63/63
f 66/66/66 65/65/65 63/63/63
f 69/69/69 68/68/68 67/67/67
f 70/70/70 69/69/69 67/67/67
f 73/73/73 72/72/72 71/71/71
f 74/74/74 73/73/73 71/71/71
f 74/74/74 71/71/71 75/75/75
f 76/76/76 74/74/74 75/75/75
f 76/76/76 75/75/75 77/77/77
f 78/78/78 76/76/76 77/77/77
f 78/78/78 77/77/77 79/79/79
f 77/77/77 80/80/80 79/79/79
f 79/79/79 80/80/80 81/81/81
f 82/82/82 79/79/79 81/81/81
f 85/85/85 84/84/84 83/83/83
f 86/86/86 85/85/85 83/83/83
f 86/86/86 87/87/87 85/85/85
f 87/87/87 88/88/88 85/85/85
f 91/91/91 90/90/90 89/89/89
f 92/92/92 91/91/91 89/89/89
f 93/93/93 91/91/91 92/92/92
f 92/92/92 94/94/94 93/93/93
f 93/93/93 95/95/95 91/91/91
f 97/97/97 96/96/96 95/95/95
f 98/98/98 97/97/97 95/95/95
f 101/101/101 100/100/100 99/99/99
f 100/100/100 102/102/102 99/99/99
f 100/100/100 103/103/103 102/102/102
f 103/103/103 104/104/104 102/102/102
f 103/103/103 105/105/105 104/104/104
f 105/105/105 106/106/106 104/104/104
f 105/105/105 107/107/107 106/106/106
f 107/107/107 108/108/108 106/106/106
f 107/107/107 109/109/109 108/108/108
f 109/109/109 110/110/110 108/108/108
f 113/113/113 112/112/112 111/111/111
f 112/112/112 114/114/114 111/111/111
f 111/111/111 114/114/114 115/115/115
f 114/114/114 116/116/116 115/115/115
f 115/115/115 116/116/116 117/117/117
f 116/116/116 118/118/118 117/117/117
f 121/121/121 120/120/120 119/119/119
f 122/122/122 121/121/121 119/119/119
f 125/125/125 124/124/124 123/123/123
f 126/126/126 125/125/125 123/123/123
f 129/129/129 128/128/128 127/127/127
f 130/130/130 129/129/129 127/127/127
