g stair_L
v -0.50350004 0.27692497 -0.22256005
v 0.42293978 0.27692524 -0.22256032
v 0.42294005 0.47505212 -0.14951001
v -0.50350004 0.47505248 -0.14950995
v 0.42294008 0.5135698 -0.11470172
v -0.50350004 0.51357025 -0.11470171
v -0.50350004 0.51357025 -0.11470171
v 0.42294008 0.5135698 -0.11470172
v 0.42294008 0.5337098 0.061043534
v -0.50350004 0.53371024 0.06104373
v -0.50350004 7.306255E-05 -0.52363944
v 0.42293993 7.294775E-05 -0.52363956
v 0.42293993 0.21827799 -0.43793494
v -0.50350004 0.21827811 -0.4379348
v 0.42293993 0.2567848 -0.40267056
v -0.50350004 0.2567849 -0.4026704
v -0.50350004 0.53371024 0.06104373
v 0.42294008 0.5337098 0.061043534
v 0.42294008 0.7318373 0.14139986
v -0.50350004 0.73183733 0.14140005
v 0.42294008 0.77035505 0.17572042
v -0.50350004 0.77035505 0.17572059
v -0.50350004 0.79049504 0.36606187
v 0.42294008 0.79049504 0.36606157
v 0.42294008 0.9886224 0.4374129
v -0.50350004 0.98862237 0.43741432
v 0.42294008 1.0271403 0.47192135
v -0.50350004 1.02714 0.47192296
v -0.50350004 1.02714 0.47192296
v 0.42294008 1.0271403 0.47192135
v 0.42294008 1.02714 0.6508238
v -0.50350004 1.02714 0.6508243
v 0.42294008 1.007 0.68193746
v -0.50350004 1.007 0.6819377
v 0.42293978 0.27692524 -0.22256032
v -0.50350004 0.27692497 -0.22256005
v -0.50350004 0.2567849 -0.4026704
v 0.42293993 0.2567848 -0.40267056
v 0.42294008 0.79049504 0.36606157
v -0.50350004 0.79049504 0.36606187
v -0.50350004 0.77035505 0.17572059
v 0.42294008 0.77035505 0.17572042
v 0.40061355 0.3710666 -0.7050333
v 0.5729346 0.3710663 -0.70503396
v 0.60791516 0.37106633 -0.6676863
v 0.36563298 0.37106666 -0.6676853
v 0.6079151 0.37106645 -0.5491827
v 0.36563298 0.37106693 -0.5491826
v 0.37050897 0.0016674174 -0.76232326
v 0.60303915 0.0016673405 -0.76232326
v 0.6030392 0.3005763 -0.76232326
v 0.3705089 0.3005767 -0.76232326
v 0.5729346 0.3710663 -0.70503396
v 0.40061355 0.3710666 -0.7050333
v 0.64640313 0.0016673213 -0.7149053
v 0.646403 0.30057624 -0.5290426
v 0.6464033 0.30057627 -0.7149053
v 0.646403 0.0016673722 -0.42799243
v 0.646403 1.3322864 -0.049462195
v 0.64640313 0.9616419 0.6023633
v 0.646403 1.3473912 -0.019928517
v 0.64640284 1.3473915 0.64671385
v 0.64640313 0.9616417 0.6469106
v 0.3271449 0.30057672 -0.7149053
v 0.32714504 0.001667449 -0.42799234
v 0.3271449 0.0016673981 -0.7149053
v 0.32714486 0.30057684 -0.5290426
v 0.32714504 0.93642324 0.6467137
v 0.3271449 1.3322867 -0.049462155
v 0.3271449 1.3473918 -0.019928575
v 0.32714513 1.3473918 0.6467137
v 0.6079151 0.37106645 -0.5491827
v 0.60791504 1.4027764 -0.069602124
v 0.36563304 1.4027767 -0.0696021
v 0.36563298 0.37106693 -0.5491826
v 0.60791504 1.4027764 -0.069602124
v 0.36563304 1.4178817 -0.04006857
v 0.36563304 1.4027767 -0.0696021
v 0.60791504 1.4178814 -0.040068515
v 0.3656332 1.4178817 0.6026721
v 0.60791504 1.4178814 0.60267174
v 0.57746935 1.4178814 0.6299497
v 0.39607897 1.4178817 0.6299499
v 0.60304195 0.9612031 0.68425846
v 0.37050626 0.95704544 0.68425846
v 0.37050912 1.3473918 0.68406177
v 0.603039 1.3473915 0.68406165
v 0.39607897 1.4178817 0.6299499
v 0.57746935 1.4178814 0.6299497
v 0.6079151 0.37106645 -0.5491827
v 0.60791516 0.37106633 -0.6676863
v 0.6464033 0.30057627 -0.7149053
v 0.646403 0.30057624 -0.5290426
v 0.36563298 0.37106666 -0.6676853
v 0.36563298 0.37106693 -0.5491826
v 0.32714486 0.30057684 -0.5290426
v 0.3271449 0.30057672 -0.7149053
v 0.36563298 0.37106693 -0.5491826
v 0.36563304 1.4027767 -0.0696021
v 0.3271449 1.3322867 -0.049462155
v 0.32714486 0.30057684 -0.5290426
v 0.60791504 1.4027764 -0.069602124
v 0.6079151 0.37106645 -0.5491827
v 0.646403 0.30057624 -0.5290426
v 0.646403 1.3322864 -0.049462195
v 0.36563304 1.4027767 -0.0696021
v 0.3271449 1.3473918 -0.019928575
v 0.3271449 1.3322867 -0.049462155
v 0.36563304 1.4178817 -0.04006857
v 0.3656332 1.4178817 0.6026721
v 0.32714513 1.3473918 0.6467137
v 0.60791504 1.4178814 0.60267174
v 0.646403 1.3473912 -0.019928517
v 0.64640284 1.3473915 0.64671385
v 0.60791504 1.4178814 -0.040068515
v 0.60791504 1.4027764 -0.069602124
v 0.646403 1.3322864 -0.049462195
v 0.64640284 1.3473915 0.64671385
v 0.64640313 0.9616417 0.6469106
v 0.60304195 0.9612031 0.68425846
v 0.603039 1.3473915 0.68406165
v 0.60791504 1.4178814 0.60267174
v 0.64640284 1.3473915 0.64671385
v 0.603039 1.3473915 0.68406165
v 0.57746935 1.4178814 0.6299497
v 0.32714513 1.3473918 0.6467137
v 0.3656332 1.4178817 0.6026721
v 0.39607897 1.4178817 0.6299499
v 0.37050912 1.3473918 0.68406177
v 0.32714504 0.93642324 0.6467137
v 0.32714513 1.3473918 0.6467137
v 0.37050912 1.3473918 0.68406177
v 0.37050626 0.95704544 0.68425846
v 0.6464033 0.30057627 -0.7149053
v 0.60791516 0.37106633 -0.6676863
v 0.5729346 0.3710663 -0.70503396
v 0.6030392 0.3005763 -0.76232326
v 0.6030392 0.3005763 -0.76232326
v 0.60303915 0.0016673405 -0.76232326
v 0.64640313 0.0016673213 -0.7149053
v 0.6464033 0.30057627 -0.7149053
v 0.37050897 0.0016674174 -0.76232326
v 0.3705089 0.3005767 -0.76232326
v 0.3271449 0.30057672 -0.7149053
v 0.3271449 0.0016673981 -0.7149053
v 0.36563298 0.37106666 -0.6676853
v 0.3271449 0.30057672 -0.7149053
v 0.3705089 0.3005767 -0.76232326
v 0.40061355 0.3710666 -0.7050333
vt 0.28980276 0.78364116
vt 0.19663544 0.7836413
vt 0.19663544 0.80146784
vt 0.28980276 0.80146784
vt 0.19663544 0.80461377
vt 0.28980276 0.80461377
vt 0.28980276 0.80461377
vt 0.19663544 0.80461377
vt 0.19663544 0.81802493
vt 0.28980276 0.8180248
vt 0.28980276 0.7492576
vt 0.19663544 0.74925774
vt 0.19663544 0.7670843
vt 0.28980276 0.7670843
vt 0.19663544 0.77023023
vt 0.28980276 0.77023023
vt 0.28980276 0.8180247
vt 0.19663544 0.8180248
vt 0.19663544 0.8358514
vt 0.28980276 0.8358514
vt 0.19663544 0.8389973
vt 0.28980276 0.8389973
vt 0.28980276 0.85240823
vt 0.19663544 0.85240835
vt 0.19663544 0.8702349
vt 0.28980276 0.8702349
vt 0.19663544 0.87338084
vt 0.28980276 0.87338084
vt 0.28980276 0.87338084
vt 0.19663544 0.87338084
vt 0.19663544 0.88721305
vt 0.28980276 0.88721293
vt 0.19663544 0.89107233
vt 0.28980276 0.8910722
vt 0.19663544 0.7836414
vt 0.28980276 0.7836413
vt 0.28980276 0.77023023
vt 0.19663544 0.77023023
vt 0.19663544 0.85240847
vt 0.28980276 0.85240835
vt 0.28980276 0.8389973
vt 0.19663544 0.8389973
vt 0.7971929 0.014646679
vt 0.78504616 0.014646679
vt 0.78329843 0.015780943
vt 0.7989406 0.01578095
vt 0.78329843 0.021877574
vt 0.7989406 0.021877574
vt 0.79940224 0.0011916478
vt 0.7828368 0.0011916478
vt 0.7828368 0.011759046
vt 0.79940224 0.011759046
vt 0.78504616 0.014646679
vt 0.7971929 0.014646679
vt 0.9039779 0.10845471
vt 0.90871215 0.11882471
vt 0.9039779 0.11882471
vt 0.90871215 0.10845471
vt 0.9554385 0.12340518
vt 0.9554385 0.10845471
vt 0.9565645 0.12340518
vt 0.9666986 0.12340518
vt 0.96335864 0.10845471
vt 0.9039779 0.11882471
vt 0.90871215 0.10845471
vt 0.9039779 0.10845471
vt 0.90871215 0.11882471
vt 0.9660757 0.10845471
vt 0.9554385 0.12340518
vt 0.9565645 0.12340518
vt 0.9666986 0.12340518
vt 0.78329843 0.021877574
vt 0.7832986 0.07337821
vt 0.79894066 0.07337821
vt 0.7989406 0.021877574
vt 0.7832986 0.07337821
vt 0.79894066 0.075619936
vt 0.79894066 0.07337821
vt 0.7832986 0.075619936
vt 0.79894066 0.09543679
vt 0.7832986 0.09543679
vt 0.78504634 0.09678753
vt 0.797193 0.09678753
vt 0.7828302 0.11676064
vt 0.7994091 0.11676064
vt 0.7994091 0.09957606
vt 0.7828302 0.09957606
vt 0.797193 0.09678753
vt 0.78504634 0.09678753
vt 0.78329843 0.021877574
vt 0.78329843 0.015780943
vt 0.78108907 0.013112161
vt 0.78108907 0.021877574
vt 0.7989406 0.01578095
vt 0.7989406 0.021877574
vt 0.80114996 0.021877574
vt 0.80114996 0.01311217
vt 0.7989406 0.021877574
vt 0.79894066 0.07337821
vt 0.80115 0.07337821
vt 0.80114996 0.021877574
vt 0.7832986 0.07337821
vt 0.78329843 0.021877574
vt 0.78108907 0.021877574
vt 0.78108925 0.07337821
vt 0.79894066 0.07337821
vt 0.80115 0.075785026
vt 0.80115 0.07337821
vt 0.79894066 0.075619936
vt 0.79894066 0.09543679
vt 0.80115 0.09789754
vt 0.7832986 0.09543679
vt 0.78108925 0.075785026
vt 0.78108925 0.09789754
vt 0.7832986 0.075619936
vt 0.7832986 0.07337821
vt 0.78108925 0.07337821
vt 0.78116345 0.09957606
vt 0.78116345 0.11676064
vt 0.7828302 0.11676064
vt 0.7828302 0.09957606
vt 0.7832986 0.09543679
vt 0.78108925 0.09789754
vt 0.7828302 0.09957606
vt 0.78504634 0.09678753
vt 0.80115 0.09789754
vt 0.79894066 0.09543679
vt 0.797193 0.09678753
vt 0.7994091 0.09957606
vt 0.8011613 0.11676064
vt 0.8011613 0.09957606
vt 0.7994091 0.09957606
vt 0.7994091 0.11676064
vt 0.78108907 0.013112161
vt 0.78329843 0.015780943
vt 0.78504616 0.014646679
vt 0.7828368 0.011759046
vt 0.7828368 0.011759046
vt 0.7828368 0.0011916478
vt 0.7806896 0.0011916483
vt 0.7806896 0.0117590455
vt 0.79940224 0.0011916478
vt 0.79940224 0.011759046
vt 0.8010322 0.011759046
vt 0.8010322 0.0011916478
vt 0.7989406 0.01578095
vt 0.80114996 0.01311217
vt 0.79940224 0.011759046
vt 0.7971929 0.014646679
vn -1.4829988E-07 0.34593874 -0.93825716
vn -1.4829989E-07 0.3459387 -0.93825716
vn -0 0.51760197 -0.8556216
vn -0 0.51760185 -0.8556216
vn 2.6490753E-07 0.6704777 -0.74192965
vn 2.6490747E-07 0.6704777 -0.7419297
vn 4.4080377E-07 0.9934977 -0.113852486
vn 4.4080377E-07 0.9934977 -0.113852486
vn 4.408038E-07 0.9934977 -0.113852486
vn 4.4080377E-07 0.9934977 -0.11385249
vn -1.1042695E-07 0.36558297 -0.93077874
vn -1.1042695E-07 0.36558297 -0.93077874
vn -0 0.52937734 -0.84838647
vn -0 0.52937734 -0.84838647
vn -0 0.6753756 -0.7374739
vn -0 0.6753756 -0.7374739
vn -0 0.37584355 -0.9266831
vn -0 0.37584352 -0.9266832
vn -1.06274086E-07 0.5282791 -0.8490707
vn -1.06274086E-07 0.5282791 -0.8490707
vn -1.11791614E-07 0.6652571 -0.74661434
vn -1.1179161E-07 0.6652571 -0.7466143
vn -8.912642E-07 0.33882892 -0.940848
vn -8.9126416E-07 0.33882892 -0.940848
vn -1.1177283E-06 0.5125157 -0.8586778
vn -1.1177284E-06 0.5125159 -0.8586778
vn -1.302927E-06 0.6672811 -0.74480605
vn -1.3029269E-06 0.6672811 -0.74480605
vn -0 1 6.441633E-07
vn -0 1 6.441633E-07
vn 1.14023905E-07 0.9590294 0.28330648
vn 1.1402401E-07 0.9590294 0.28330672
vn 2.6016806E-07 0.83947515 0.5433982
vn 2.6016806E-07 0.83947515 0.5433982
vn -1.1807517E-07 0.993806 -0.111129165
vn -1.1807517E-07 0.993806 -0.111129165
vn -1.1807517E-07 0.993806 -0.11112917
vn -1.1807517E-07 0.993806 -0.11112917
vn -0 0.99444866 -0.10522259
vn -0 0.99444866 -0.10522259
vn -0 0.99444866 -0.10522259
vn -0 0.99444866 -0.10522259
vn 1.563613E-06 1 -1.4950128E-06
vn 1.563613E-06 1 -1.4950128E-06
vn 1.563613E-06 1 -1.4950128E-06
vn 1.563613E-06 1 -1.4950128E-06
vn 1.563613E-06 1 -1.4950128E-06
vn 1.563613E-06 1 -1.4950128E-06
vn -0 0 -1
vn -0 0 -1
vn -1.1618878E-07 0.29644814 -0.955049
vn -1.1618907E-07 0.29644895 -0.9550487
vn -2.47195E-07 0.63070214 -0.77602506
vn -2.47195E-07 0.63070214 -0.77602506
vn 1 0 9.75025E-07
vn 0.99325645 0.11593788 5.0518713E-07
vn 0.98046964 0.19667034 1.0090533E-06
vn 1 0 4.2939666E-07
vn 0.9845606 0.1558439 -0.0797061
vn 1 5.3022245E-07 0
vn 0.96202135 0.2658162 -0.062101077
vn 0.9797891 0.20003344 1.2869619E-07
vn 1 7.7182153E-07 2.1605472E-07
vn -0.98046976 0.19666992 -1.4267346E-07
vn -1 -2.3690538E-07 2.5500594E-07
vn -1 -2.800822E-07 2.4375632E-07
vn -0.99325645 0.11593829 0
vn -1 0 2.9947594E-07
vn -0.9845606 0.1558433 -0.07970672
vn -0.9620208 0.26581815 -0.062102247
vn -0.9797808 0.20007399 3.1956068E-07
vn 4.93972E-07 0.42152518 -0.9068167
vn 4.9397204E-07 0.42152512 -0.9068167
vn 4.93972E-07 0.42152518 -0.9068167
vn 4.9397204E-07 0.42152518 -0.9068167
vn 1.1656701E-06 0.8903117 -0.45535156
vn 1.2552055E-06 0.9721913 -0.23418832
vn 1.1656703E-06 0.89031166 -0.4553516
vn 1.2552053E-06 0.9721913 -0.2341883
vn 1.2749292E-06 1 0
vn 1.2749292E-06 1 0
vn 1.2749293E-06 1 0
vn 1.2749292E-06 1 0
vn -4.199674E-06 0.0005067551 0.9999999
vn -4.199674E-06 0.0005067551 0.9999999
vn -1.6522093E-06 0.29016265 0.95697737
vn -1.6522116E-06 0.29016244 0.9569775
vn 1.6405827E-06 0.60892516 0.7932277
vn 1.6405828E-06 0.60892516 0.79322773
vn 0.87769216 0.4792248 9.850894E-07
vn 0.8776923 0.4792248 9.850894E-07
vn 0.98046964 0.19667034 1.0090533E-06
vn 0.99325645 0.11593788 5.0518713E-07
vn -0.8776911 0.47922677 -7.1607195E-07
vn -0.8776911 0.47922677 -7.16072E-07
vn -0.99325645 0.11593829 0
vn -0.98046976 0.19666992 -1.4267346E-07
vn -0.7800206 0.26377097 -0.567444
vn -0.7800206 0.26377097 -0.567444
vn -0.7800206 0.26377097 -0.567444
vn -0.7800206 0.26377097 -0.567444
vn 0.7800226 0.2637699 -0.5674418
vn 0.7800225 0.26376987 -0.5674418
vn 0.7800225 0.26376987 -0.5674418
vn 0.7800225 0.26376987 -0.5674418
vn -0.88171005 0.42004117 -0.21483201
vn -0.9620208 0.26581815 -0.062102247
vn -0.9845606 0.1558433 -0.07970672
vn -0.8852646 0.45164385 -0.11101543
vn -0.8776908 0.47922727 2.5749296E-07
vn -0.9797808 0.20007399 3.1956068E-07
vn 0.87769246 0.4792242 0
vn 0.96202135 0.2658162 -0.062101077
vn 0.9797891 0.20003344 1.2869619E-07
vn 0.885266 0.4516416 -0.11101366
vn 0.88171154 0.4200397 -0.21482848
vn 0.9845606 0.1558439 -0.0797061
vn 0.65260094 0.00038902572 0.7577017
vn 0.652601 0.0003890257 0.75770164
vn 0.652601 0.00038902572 0.75770164
vn 0.652601 0.0003890257 0.75770164
vn 0.5086072 0.6355255 0.580884
vn 0.50860715 0.63552547 0.580884
vn 0.50860715 0.63552547 0.580884
vn 0.50860715 0.63552547 0.580884
vn -0.5086073 0.6355251 0.5808842
vn -0.50860727 0.63552505 0.5808842
vn -0.50860727 0.63552505 0.5808842
vn -0.50860727 0.63552505 0.5808842
vn -0.6536146 0.00018814068 0.75682765
vn -0.65361446 0.00018814068 0.75682765
vn -0.65361446 0.00018814068 0.75682765
vn -0.6536146 0.00018814068 0.75682765
vn 0.68753374 0.35806745 -0.6317317
vn 0.556666 0.6522381 -0.51449823
vn 0.556666 0.652238 -0.51449823
vn 0.69781154 0.32002473 -0.6408145
vn 0.69781154 0.32002473 -0.6408145
vn 0.7379475 -2.8447977E-07 -0.6748581
vn 0.7379475 -2.8447977E-07 -0.6748581
vn 0.68753374 0.35806745 -0.6317317
vn -0.73794734 0 -0.6748583
vn -0.6978114 0.3200263 -0.64081395
vn -0.687533 0.35807124 -0.6317305
vn -0.73794734 0 -0.6748583
vn -0.5566641 0.6522421 -0.51449513
vn -0.687533 0.35807124 -0.6317305
vn -0.6978114 0.3200263 -0.64081395
vn -0.5566641 0.65224206 -0.5144952
g stair_L_0
f 3/3/3 2/2/2 1/1/1
f 4/4/4 3/3/3 1/1/1
f 5/5/5 3/3/3 4/4/4
f 6/6/6 5/5/5 4/4/4
f 9/9/9 8/8/8 7/7/7
f 10/10/10 9/9/9 7/7/7
f 13/13/13 12/12/12 11/11/11
f 14/14/14 13/13/13 11/11/11
f 15/15/15 13/13/13 14/14/14
f 16/16/16 15/15/15 14/14/14
f 19/19/19 18/18/18 17/17/17
f 20/20/20 19/19/19 17/17/17
f 21/21/21 19/19/19 20/20/20
f 22/22/22 21/21/21 20/20/20
f 25/25/25 24/24/24 23/23/23
f 26/26/26 25/25/25 23/23/23
f 27/27/27 25/25/25 26/26/26
f 28/28/28 27/27/27 26/26/26
f 31/31/31 30/30/30 29/29/29
f 32/32/32 31/31/31 29/29/29
f 33/33/33 31/31/31 32/32/32
f 34/34/34 33/33/33 32/32/32
f 37/37/37 36/36/36 35/35/35
f 38/38/38 37/37/37 35/35/35
f 41/41/41 40/40/40 39/39/39
f 42/42/42 41/41/41 39/39/39
f 45/45/45 44/44/44 43/43/43
f 43/43/43 46/46/46 45/45/45
f 46/46/46 47/47/47 45/45/45
f 46/46/46 48/48/48 47/47/47
f 51/51/51 50/50/50 49/49/49
f 52/52/52 51/51/51 49/49/49
f 53/53/53 51/51/51 52/52/52
f 54/54/54 53/53/53 52/52/52
f 57/57/57 56/56/56 55/55/55
f 56/56/56 58/58/58 55/55/55
f 56/56/56 59/59/59 58/58/58
f 59/59/59 60/60/60 58/58/58
f 59/59/59 61/61/61 60/60/60
f 61/61/61 62/62/62 60/60/60
f 62/62/62 63/63/63 60/60/60
f 66/66/66 65/65/65 64/64/64
f 65/65/65 67/67/67 64/64/64
f 65/65/65 68/68/68 67/67/67
f 68/68/68 69/69/69 67/67/67
f 70/70/70 69/69/69 68/68/68
f 71/71/71 70/70/70 68/68/68
f 74/74/74 73/73/73 72/72/72
f 75/75/75 74/74/74 72/72/72
f 78/78/78 77/77/77 76/76/76
f 77/77/77 79/79/79 76/76/76
f 79/79/79 77/77/77 80/80/80
f 80/80/80 81/81/81 79/79/79
f 80/80/80 82/82/82 81/81/81
f 80/80/80 83/83/83 82/82/82
f 86/86/86 85/85/85 84/84/84
f 87/87/87 86/86/86 84/84/84
f 88/88/88 86/86/86 87/87/87
f 89/89/89 88/88/88 87/87/87
f 92/92/92 91/91/91 90/90/90
f 93/93/93 92/92/92 90/90/90
f 96/96/96 95/95/95 94/94/94
f 97/97/97 96/96/96 94/94/94
f 100/100/100 99/99/99 98/98/98
f 101/101/101 100/100/100 98/98/98
f 104/104/104 103/103/103 102/102/102
f 105/105/105 104/104/104 102/102/102
f 108/108/108 107/107/107 106/106/106
f 107/107/107 109/109/109 106/106/106
f 110/110/110 109/109/109 107/107/107
f 111/111/111 110/110/110 107/107/107
f 114/114/114 113/113/113 112/112/112
f 113/113/113 115/115/115 112/112/112
f 116/116/116 115/115/115 113/113/113
f 117/117/117 116/116/116 113/113/113
f 120/120/120 119/119/119 118/118/118
f 121/121/121 120/120/120 118/118/118
f 124/124/124 123/123/123 122/122/122
f 125/125/125 124/124/124 122/122/122
f 128/128/128 127/127/127 126/126/126
f 129/129/129 128/128/128 126/126/126
f 132/132/132 131/131/131 130/130/130
f 133/133/133 132/132/132 130/130/130
f 136/136/136 135/135/135 134/134/134
f 137/137/137 136/136/136 134/134/134
f 140/140/140 139/139/139 138/138/138
f 141/141/141 140/140/140 138/138/138
f 144/144/144 143/143/143 142/142/142
f 145/145/145 144/144/144 142/142/142
f 148/148/148 147/147/147 146/146/146
f 149/149/149 148/148/148 146/146/146
