g stair_L
v -0.4970426 1.0337548 -0.6390606
v -0.4970426 1.0317551 -0.44472328
v -0.4970426 0.97712404 -0.4081854
v -0.4970426 1.0337548 -0.6390606
v -0.4970426 0.97712404 -0.4081854
v -0.4970426 1.007 -0.69299525
v 0.50350094 0.7963708 -0.35317943
v 0.50350094 0.76877666 -0.17068446
v -0.4970426 0.76877666 -0.1706843
v -0.4970426 0.7963711 -0.3531794
v 0.50350094 0.55417234 -0.07914089
v 0.50350094 0.5265783 0.12061278
v -0.4970426 0.52657837 0.12061276
v -0.4970426 0.55417234 -0.0791409
v -0.4970426 1.0317551 -0.44472328
v -0.4970426 1.0337548 -0.6390606
v 0.50350094 1.0337548 -0.6390606
v 0.50350094 1.0317551 -0.44472322
v -0.4970426 0.7189781 -0.13414663
v 0.50350094 0.7189781 -0.1341468
v 0.50350094 0.55417234 -0.07914089
v -0.4970426 0.55417234 -0.0791409
v -0.4970426 0.24792221 0.44195592
v 0.50350094 0.24792206 0.44195575
v 0.5035008 0.0060181255 0.5341957
v -0.4970426 0.0060180486 0.5341957
v -0.4970426 0.31836134 0.21215647
v 0.50350094 0.3183612 0.21215655
v 0.50350094 0.2910353 0.40226662
v -0.4970426 0.29103544 0.40226665
v -0.4970426 0.483167 0.15715036
v 0.50350094 0.48316693 0.15715043
v 0.50350094 0.3183612 0.21215655
v -0.4970426 0.31836134 0.21215647
v -0.4970426 0.97712404 -0.4081854
v 0.50350094 0.97712374 -0.4081854
v 0.50350094 0.7963708 -0.35317943
v -0.4970426 0.7963711 -0.3531794
v -0.4970426 0.76877666 -0.1706843
v 0.50350094 0.76877666 -0.17068446
v 0.50350094 0.7189781 -0.1341468
v -0.4970426 0.7189781 -0.13414663
v -0.4970426 0.52657837 0.12061276
v 0.50350094 0.5265783 0.12061278
v 0.50350094 0.48316693 0.15715043
v -0.4970426 0.483167 0.15715036
v -0.4970426 1.0317551 -0.44472328
v 0.50350094 1.0317551 -0.44472322
v 0.50350094 0.97712374 -0.4081854
v -0.4970426 0.97712404 -0.4081854
v -0.4970426 0.29103544 0.40226665
v 0.50350094 0.2910353 0.40226662
v 0.50350094 0.24792206 0.44195575
v -0.4970426 0.24792221 0.44195592
v 0.50350094 1.007 -0.69299525
v 0.50350094 1.0337548 -0.6390606
v -0.4970426 1.0337548 -0.6390606
v -0.4970426 1.007 -0.69299525
vt 0.27279475 0.8218478
vt 0.27279475 0.8046058
vt 0.25998038 0.79687285
vt 0.27279475 0.8218478
vt 0.25998038 0.79687285
vt 0.27279475 0.79687285
vt 0.25998044 0.8218478
vt 0.25998044 0.8046058
vt 0.27279475 0.8046058
vt 0.27279475 0.8218478
vt 0.25998044 0.8218478
vt 0.25998044 0.8046058
vt 0.27279475 0.8046058
vt 0.27279475 0.8218478
vt 0.27279475 0.8046058
vt 0.27279475 0.8218478
vt 0.25998044 0.8218478
vt 0.25998044 0.8046058
vt 0.27279475 0.8035827
vt 0.25998038 0.8035827
vt 0.25998038 0.79687285
vt 0.27279475 0.79687285
vt 0.27279475 0.8035827
vt 0.25998038 0.8035827
vt 0.25998038 0.79811037
vt 0.27279475 0.79811037
vt 0.27279475 0.8218478
vt 0.25998044 0.8218478
vt 0.25998044 0.8046058
vt 0.27279475 0.8046058
vt 0.27279475 0.8035827
vt 0.25998038 0.8035827
vt 0.25998038 0.79687285
vt 0.27279475 0.79687285
vt 0.27279475 0.8035827
vt 0.25998038 0.8035827
vt 0.25998038 0.79687285
vt 0.27279475 0.79687285
vt 0.27279475 0.8046058
vt 0.25998044 0.8046058
vt 0.25998038 0.8035827
vt 0.27279475 0.8035827
vt 0.27279475 0.8046058
vt 0.25998044 0.8046058
vt 0.25998038 0.8035827
vt 0.27279475 0.8035827
vt 0.27279475 0.8046058
vt 0.25998044 0.8046058
vt 0.25998038 0.8035827
vt 0.27279475 0.8035827
vt 0.27279475 0.8046058
vt 0.25998044 0.8046058
vt 0.25998038 0.8035827
vt 0.27279475 0.8035827
vt 0.25998038 0.82470924
vt 0.25998044 0.8234877
vt 0.27279475 0.8234877
vt 0.27279475 0.82470924
vn -1 0 0
vn -1 0 0
vn -1 0 0
vn -1 0 0
vn -1 0 0
vn -1 0 0
vn 1.6626734E-07 0.98876077 0.1495064
vn 1.6626734E-07 0.98876077 0.1495064
vn 1.6626734E-07 0.98876077 0.1495064
vn 1.6626734E-07 0.98876077 0.1495064
vn -0 0.990593 0.13684088
vn -0 0.990593 0.13684088
vn -0 0.990593 0.13684088
vn -0 0.990593 0.13684088
vn -0 0.9999471 0.010289978
vn -0 0.9747717 -0.2232046
vn -0 0.9747717 -0.2232046
vn -0 0.9999471 0.010289977
vn -0 0.3165933 0.9485614
vn -0 0.3165933 0.9485614
vn -0 0.3165933 0.9485614
vn -0 0.3165933 0.9485614
vn 1.0304127E-07 0.35628536 0.93437725
vn 1.0304127E-07 0.35628536 0.93437725
vn 1.0304127E-07 0.35628536 0.93437725
vn 1.0304127E-07 0.35628536 0.93437725
vn 1.4946296E-07 0.98982716 0.14227486
vn 1.4946298E-07 0.98982716 0.14227487
vn 1.4946298E-07 0.98982716 0.14227487
vn 1.4946296E-07 0.98982716 0.14227486
vn -0 0.31659487 0.94856083
vn -0 0.3165949 0.94856083
vn -0 0.31659487 0.94856083
vn -0 0.3165949 0.94856083
vn 1.06406645E-07 0.29113364 0.9566824
vn 1.0640666E-07 0.29113364 0.95668244
vn 1.06406645E-07 0.29113364 0.9566824
vn 1.0640666E-07 0.29113364 0.95668244
vn 1.3145016E-07 0.59156096 0.8062603
vn 1.3145016E-07 0.59156096 0.8062603
vn 1.3145016E-07 0.59156096 0.8062603
vn 1.3145016E-07 0.59156096 0.8062603
vn -0 0.64393663 0.7650787
vn -0 0.64393675 0.7650787
vn -0 0.64393663 0.7650787
vn -0 0.6439367 0.7650787
vn -0 0.55593276 0.8312273
vn -0 0.5559327 0.8312273
vn -0 0.55593276 0.8312273
vn -0 0.55593276 0.8312273
vn 1.8803071E-07 0.6772877 0.73571825
vn 1.8803073E-07 0.6772876 0.73571837
vn 1.8803073E-07 0.6772876 0.73571837
vn 1.8803071E-07 0.6772877 0.73571825
vn -0 0.89583415 -0.4443887
vn -0 0.9747717 -0.2232046
vn -0 0.9747717 -0.2232046
vn -0 0.89583415 -0.4443887
g stair_L_0
f 3/3/3 2/2/2 1/1/1
f 6/6/6 5/5/5 4/4/4
f 9/9/9 8/8/8 7/7/7
f 10/10/10 9/9/9 7/7/7
f 13/13/13 12/12/12 11/11/11
f 14/14/14 13/13/13 11/11/11
f 17/17/17 16/16/16 15/15/15
f 18/18/18 17/17/17 15/15/15
f 21/21/21 20/20/20 19/19/19
f 22/22/22 21/21/21 19/19/19
f 25/25/25 24/24/24 23/23/23
f 26/26/26 25/25/25 23/23/23
f 29/29/29 28/28/28 27/27/27
f 30/30/30 29/29/29 27/27/27
f 33/33/33 32/32/32 31/31/31
f 34/34/34 33/33/33 31/31/31
f 37/37/37 36/36/36 35/35/35
f 38/38/38 37/37/37 35/35/35
f 41/41/41 40/40/40 39/39/39
f 42/42/42 41/41/41 39/39/39
f 45/45/45 44/44/44 43/43/43
f 46/46/46 45/45/45 43/43/43
f 49/49/49 48/48/48 47/47/47
f 50/50/50 49/49/49 47/47/47
f 53/53/53 52/52/52 51/51/51
f 54/54/54 53/53/53 51/51/51
f 57/57/57 56/56/56 55/55/55
f 58/58/58 57/57/57 55/55/55
