g stair_M
v -0.5035046 0.04998445 0.53424317
v 0.50349015 0.25847355 0.45504704
v 0.50349045 0.04998445 0.5342432
v -0.5035046 0.25847355 0.45504704
v 0.50349075 0.3069854 0.2593666
v -0.50350016 0.3069854 0.25936663
v 0.50349015 0.4920073 0.1979863
v -0.5035 0.4920073 0.19798632
v 0.5035 0.5370729 0.004865311
v -0.50350016 0.5370729 0.004865311
v 0.5035 0.72245014 -0.059354797
v -0.50350016 0.72245014 -0.05935481
v -0.50350016 0.7758551 -0.26392835
v 0.5035 0.7758551 -0.26392835
v 0.5035003 0.959305 -0.32128572
v -0.5035046 0.959305 -0.32128572
v -0.50350493 1.0045873 -0.51338583
v 0.5035 1.0045873 -0.5133858
vt 0.0077253617 0.81487787
vt 0.038960077 0.8226612
vt 0.038960077 0.81487787
vt 0.0077253617 0.8226612
vt 0.038960077 0.83008415
vt 0.0077253617 0.83008415
vt 0.038960077 0.83751565
vt 0.0077253617 0.83751565
vt 0.038960077 0.8446039
vt 0.0077253617 0.8446039
vt 0.038960077 0.8523781
vt 0.0077253617 0.8523781
vt 0.0077253617 0.8603141
vt 0.038960077 0.8603141
vt 0.038960077 0.8662805
vt 0.0077253617 0.8662805
vt 0.0077253617 0.8716904
vt 0.038960077 0.8716904
vn -0 0.35510147 0.9348278
vn -0 0.7482384 0.6634301
vn -0 0.3551014 0.9348278
vn -0 0.7482357 0.66343313
vn -0 0.7339041 0.67925304
vn -0 0.73390675 0.6792501
vn -0 0.7385663 0.67418087
vn -0 0.73856074 0.674187
vn -0 0.7429779 0.6693159
vn -0 0.74298364 0.6693095
vn -0 0.7341848 0.6789497
vn -0 0.7341848 0.6789497
vn -0 0.72375685 0.69005513
vn -0 0.7237595 0.69005233
vn -0 0.7319402 0.6813689
vn -0 0.7319433 0.68136555
vn -0 0.9733242 0.22943419
vn -0 0.9733242 0.22943416
g stair_M_0
f 3/3/3 2/2/2 1/1/1
f 2/2/2 4/4/4 1/1/1
f 2/2/2 5/5/5 4/4/4
f 5/5/5 6/6/6 4/4/4
f 5/5/5 7/7/7 6/6/6
f 7/7/7 8/8/8 6/6/6
f 7/7/7 9/9/9 8/8/8
f 9/9/9 10/10/10 8/8/8
f 9/9/9 11/11/11 10/10/10
f 11/11/11 12/12/12 10/10/10
f 13/13/13 12/12/12 11/11/11
f 14/14/14 13/13/13 11/11/11
f 14/14/14 15/15/15 13/13/13
f 15/15/15 16/16/16 13/13/13
f 16/16/16 15/15/15 17/17/17
f 15/15/15 18/18/18 17/17/17
