g stair_R
v 0.5088346 0.76877666 -0.1706843
v -0.50349474 0.76877666 -0.17068446
v -0.50349474 0.7963709 -0.35317943
v 0.5088346 0.7963713 -0.3531794
v 0.5088346 0.52657837 0.12061276
v -0.50349474 0.5265783 0.12061276
v -0.50349474 0.55417234 -0.0791409
v 0.5088346 0.55417234 -0.07914094
v 0.5088346 1.0317551 -0.44472328
v -0.50349474 1.0317551 -0.44472322
v -0.50349474 1.0337548 -0.6390606
v 0.5088346 1.0337548 -0.6390606
v -0.50349474 1.007 -0.69299525
v 0.5088346 1.007 -0.69299525
v -0.50349474 0.55417234 -0.0791409
v -0.50349474 0.7189781 -0.13414682
v 0.5088346 0.7189781 -0.13414665
v 0.5088346 0.55417234 -0.07914094
v -0.50349486 0.0060181255 0.5341956
v -0.50349474 0.24792206 0.44195575
v 0.5088346 0.24792221 0.44195592
v 0.5088346 0.0060180486 0.5341957
v -0.50349474 0.2910353 0.40226662
v -0.50349474 0.31836125 0.21215655
v 0.5088346 0.3183614 0.21215647
v 0.5088346 0.29103544 0.40226665
v -0.50349474 0.31836125 0.21215655
v -0.50349474 0.48316693 0.1571504
v 0.5088346 0.483167 0.15715036
v 0.5088346 0.3183614 0.21215647
v -0.50349474 0.7963709 -0.35317943
v -0.50349474 0.97712374 -0.4081854
v 0.5088346 0.97712404 -0.4081854
v 0.5088346 0.7963713 -0.3531794
v -0.50349474 0.7189781 -0.13414682
v -0.50349474 0.76877666 -0.17068446
v 0.5088346 0.76877666 -0.1706843
v 0.5088346 0.7189781 -0.13414665
v -0.50349474 0.48316693 0.1571504
v -0.50349474 0.5265783 0.12061276
v 0.5088346 0.52657837 0.12061276
v 0.5088346 0.483167 0.15715036
v -0.50349474 0.97712374 -0.4081854
v -0.50349474 1.0317551 -0.44472322
v 0.5088346 1.0317551 -0.44472328
v 0.5088346 0.97712404 -0.4081854
v -0.50349474 0.24792206 0.44195575
v -0.50349474 0.2910353 0.40226662
v 0.5088346 0.29103544 0.40226665
v 0.5088346 0.24792221 0.44195592
v 0.5088346 1.0337548 -0.6390606
v 0.5088346 1.007 -0.69299525
v 0.5088346 0.97712404 -0.4081854
v 0.5088346 1.0317551 -0.44472328
v 0.49851355 1.151184 -0.26637474
v 0.4985137 0.17530705 0.7095022
v 0.46307725 0.0042551956 0.5384503
v 0.46307725 0.98013186 -0.43742684
v 0.53820276 1.1816697 -0.23588909
v 0.53820276 0.20579271 0.73998785
v 0.4985137 0.17530705 0.7095022
v 0.49851355 1.151184 -0.26637474
v 0.8556181 0.0042552724 0.5384503
v 0.82018197 0.17530714 0.7095023
v 0.82018197 1.151184 -0.26637474
v 0.8556184 0.98013186 -0.43742684
v 0.82018197 0.17530714 0.7095023
v 0.7804926 0.20579287 0.73998797
v 0.7804926 1.1816697 -0.23588909
v 0.82018197 1.151184 -0.26637474
v 0.53820276 1.1816697 -0.23588909
v 0.7804926 1.1816697 -0.23588909
v 0.7804926 0.20579287 0.73998797
v 0.53820276 0.20579271 0.73998785
v 0.46307725 0.98013186 -0.43742684
v 0.46307725 0.9801323 -0.71266854
v 0.49851355 1.1511844 -0.68507916
v 0.49851355 1.151184 -0.26637474
v 0.49851355 1.151184 -0.26637474
v 0.49851355 1.1511844 -0.68507916
v 0.5382029 1.1816703 -0.65797603
v 0.53820276 1.1816697 -0.23588909
v 0.82018197 1.151184 -0.26637474
v 0.82018197 1.1511844 -0.68507916
v 0.8556184 0.980132 -0.71266866
v 0.8556184 0.98013186 -0.43742684
v 0.7804926 1.1816697 -0.23588909
v 0.7804926 1.1816702 -0.6579762
v 0.82018197 1.1511844 -0.68507916
v 0.82018197 1.151184 -0.26637474
v 0.53820276 1.1816697 -0.23588909
v 0.5382029 1.1816703 -0.65797603
v 0.7804926 1.1816702 -0.6579762
v 0.7804926 1.1816697 -0.23588909
v 0.8556184 0.980132 -0.71266866
v 0.82018197 1.1511844 -0.68507916
v 0.49851355 1.1511844 -0.68507916
v 0.46307725 0.9801323 -0.71266854
v 0.82018197 1.1511844 -0.68507916
v 0.7804926 1.1816702 -0.6579762
v 0.5382029 1.1816703 -0.65797603
v 0.49851355 1.1511844 -0.68507916
vt 0.21886592 0.15891927
vt 0.26827845 0.15891927
vt 0.26827845 0.17662007
vt 0.21886592 0.17662007
vt 0.21886592 0.15891927
vt 0.26827845 0.15891927
vt 0.26827845 0.17662007
vt 0.21886592 0.17662007
vt 0.21886592 0.15891927
vt 0.26827845 0.15891927
vt 0.26827845 0.17662007
vt 0.21886592 0.17662007
vt 0.26827857 0.17884117
vt 0.21886592 0.17884117
vt 0.26827857 0.14985242
vt 0.26827857 0.15462345
vt 0.21886592 0.15462345
vt 0.21886592 0.14985242
vt 0.26827857 0.14985242
vt 0.26827857 0.15462345
vt 0.21886592 0.15462345
vt 0.21886592 0.14985242
vt 0.26827845 0.15891927
vt 0.26827845 0.17662007
vt 0.21886592 0.17662007
vt 0.21886592 0.15891927
vt 0.26827857 0.14985242
vt 0.26827857 0.15462345
vt 0.21886592 0.15462345
vt 0.21886592 0.14985242
vt 0.26827857 0.14985242
vt 0.26827857 0.15462345
vt 0.21886592 0.15462345
vt 0.21886592 0.14985242
vt 0.26827857 0.15462345
vt 0.26827845 0.15891927
vt 0.21886592 0.15891927
vt 0.21886592 0.15462345
vt 0.26827857 0.15462345
vt 0.26827845 0.15891927
vt 0.21886592 0.15891927
vt 0.21886592 0.15462345
vt 0.26827857 0.15462345
vt 0.26827845 0.15891927
vt 0.21886592 0.15891927
vt 0.21886592 0.15462345
vt 0.26827857 0.15462345
vt 0.26827845 0.15891927
vt 0.21886592 0.15891927
vt 0.21886592 0.15462345
vt 0.21886592 0.17662007
vt 0.21886592 0.17884117
vt 0.21543296 0.17884117
vt 0.21543296 0.17662007
vt 0.26827854 0.15462345
vt 0.2188659 0.15462345
vt 0.2188659 0.14985242
vt 0.26827854 0.14985242
vt 0.26827854 0.15891927
vt 0.21886602 0.15891927
vt 0.2188659 0.15462345
vt 0.26827854 0.15462345
vt 0.2188659 0.14985242
vt 0.2188659 0.15462345
vt 0.26827854 0.15462345
vt 0.26827854 0.14985242
vt 0.2188659 0.15462345
vt 0.21886602 0.15891927
vt 0.26827854 0.15891927
vt 0.26827854 0.15462345
vt 0.26827854 0.15891927
vt 0.26827854 0.18147844
vt 0.21886602 0.18147844
vt 0.21886602 0.15891927
vt 0.26827854 0.14985242
vt 0.26827854 0.14985242
vt 0.26827854 0.15462345
vt 0.26827854 0.15462345
vt 0.26827854 0.15462345
vt 0.26827854 0.15462345
vt 0.26827854 0.15891927
vt 0.26827854 0.15891927
vt 0.26827854 0.15462345
vt 0.26827854 0.15462345
vt 0.26827854 0.14985242
vt 0.26827854 0.14985242
vt 0.26827854 0.15891927
vt 0.26827854 0.15891927
vt 0.26827854 0.15462345
vt 0.26827854 0.15462345
vt 0.26827854 0.15891927
vt 0.26827854 0.15891927
vt 0.26827854 0.18147844
vt 0.26827854 0.18147844
vt 0.21321993 0.14949124
vt 0.21770677 0.15243517
vt 0.21770677 0.1791581
vt 0.21321996 0.18210201
vt 0.21770677 0.15243517
vt 0.2187631 0.15573238
vt 0.2187631 0.17586087
vt 0.21770677 0.1791581
vn -1.6407279E-07 0.98876053 0.1495072
vn -1.6407277E-07 0.98876053 0.14950721
vn -1.6407277E-07 0.98876053 0.14950721
vn -1.6407277E-07 0.98876053 0.14950721
vn -0 0.990593 0.13684088
vn -0 0.990593 0.13684088
vn -0 0.990593 0.13684088
vn -0 0.990593 0.13684087
vn -0 0.9999471 0.010289977
vn -0 0.9999471 0.010289978
vn -0 0.9747717 -0.2232046
vn -0 0.9747717 -0.2232046
vn -0 0.89583415 -0.4443887
vn -0 0.89583415 -0.4443887
vn -0 0.31659323 0.94856143
vn -0 0.31659323 0.94856143
vn -0 0.31659323 0.94856143
vn -0 0.31659323 0.94856143
vn -1.72688E-07 0.3562851 0.9343773
vn -1.7268802E-07 0.3562851 0.9343773
vn -1.7268799E-07 0.35628513 0.93437725
vn -1.7268799E-07 0.35628513 0.93437725
vn -1.4722548E-07 0.98982716 0.14227526
vn -1.4722548E-07 0.98982716 0.14227526
vn -1.4722548E-07 0.98982716 0.14227526
vn -1.4722548E-07 0.98982716 0.14227526
vn -0 0.3165951 0.9485607
vn -0 0.31659514 0.9485607
vn -0 0.31659514 0.9485607
vn -0 0.31659514 0.9485607
vn -1.0516792E-07 0.29113388 0.9566824
vn -1.0516792E-07 0.29113388 0.9566824
vn -1.0516792E-07 0.29113388 0.9566824
vn -1.0516792E-07 0.29113388 0.9566824
vn -1.2991978E-07 0.5915607 0.8062604
vn -1.2991978E-07 0.5915607 0.8062604
vn -1.2991978E-07 0.5915607 0.8062604
vn -1.2991978E-07 0.5915607 0.8062604
vn -0 0.6439366 0.76507884
vn -0 0.6439366 0.76507884
vn -0 0.6439366 0.76507884
vn -0 0.6439366 0.76507884
vn -0 0.55593276 0.8312273
vn -0 0.5559327 0.8312273
vn -0 0.55593276 0.8312273
vn -0 0.55593276 0.8312273
vn -1.858416E-07 0.6772876 0.73571837
vn -1.858416E-07 0.6772876 0.73571837
vn -1.8584157E-07 0.6772876 0.73571837
vn -1.8584157E-07 0.6772876 0.73571837
vn 1 0 0
vn 1 0 0
vn 1 0 0
vn 1 0 0
vn -0.98944014 0.10248979 0.10248984
vn -0.98944014 0.10248979 0.10248984
vn -0.98944014 0.102489784 0.10248983
vn -0.98944014 0.10248979 0.10248983
vn -0.7357189 0.4789142 0.4789142
vn -0.7357189 0.4789142 0.4789142
vn -0.7357189 0.4789142 0.4789142
vn -0.7357189 0.4789142 0.4789142
vn 0.98944014 0.1024895 0.10248961
vn 0.98944014 0.1024895 0.10248961
vn 0.98944014 0.1024895 0.10248961
vn 0.98944014 0.1024895 0.10248961
vn 0.7357172 0.47891563 0.4789156
vn 0.7357171 0.47891563 0.47891554
vn 0.7357171 0.47891563 0.4789156
vn 0.7357171 0.47891563 0.47891554
vn -2.9615134E-07 0.7071069 0.70710665
vn -2.9615134E-07 0.7071069 0.70710665
vn -2.961513E-07 0.7071068 0.70710665
vn -2.961513E-07 0.7071068 0.70710665
vn -0.97920793 0.20285912 2.4571415E-07
vn -0.97920793 0.2028591 2.4571415E-07
vn -0.97920793 0.2028591 2.4571415E-07
vn -0.97920793 0.20285912 2.4571415E-07
vn -0.6091537 0.7930522 9.0379126E-07
vn -0.6091537 0.7930522 9.0379115E-07
vn -0.6091537 0.7930522 9.0379115E-07
vn -0.6091537 0.7930522 9.0379115E-07
vn 0.9792078 0.20285982 1.563634E-07
vn 0.9792078 0.20285983 1.5636338E-07
vn 0.9792078 0.20285982 1.563634E-07
vn 0.9792078 0.20285983 1.563634E-07
vn 0.60915196 0.79305345 8.7104064E-07
vn 0.60915196 0.79305345 8.710407E-07
vn 0.60915196 0.79305345 8.710405E-07
vn 0.60915196 0.79305345 8.7104064E-07
vn 3.170919E-07 1 1.4561547E-06
vn 3.1709186E-07 1 1.4561549E-06
vn 3.1709186E-07 1 1.4561547E-06
vn 3.1709186E-07 1 1.4561547E-06
vn -1.4379557E-07 0.15923472 -0.98724085
vn -1.4379557E-07 0.15923472 -0.98724085
vn -1.4379557E-07 0.15923473 -0.98724085
vn -1.4379557E-07 0.15923473 -0.98724085
vn -0 0.66442454 -0.74735534
vn -0 0.66442454 -0.74735534
vn -0 0.66442454 -0.7473553
vn -0 0.66442454 -0.74735534
g stair_R_0
f 3/3/3 2/2/2 1/1/1
f 4/4/4 3/3/3 1/1/1
f 7/7/7 6/6/6 5/5/5
f 8/8/8 7/7/7 5/5/5
f 11/11/11 10/10/10 9/9/9
f 12/12/12 11/11/11 9/9/9
f 13/13/13 11/11/11 12/12/12
f 14/14/14 13/13/13 12/12/12
f 17/17/17 16/16/16 15/15/15
f 18/18/18 17/17/17 15/15/15
f 21/21/21 20/20/20 19/19/19
f 22/22/22 21/21/21 19/19/19
f 25/25/25 24/24/24 23/23/23
f 26/26/26 25/25/25 23/23/23
f 29/29/29 28/28/28 27/27/27
f 30/30/30 29/29/29 27/27/27
f 33/33/33 32/32/32 31/31/31
f 34/34/34 33/33/33 31/31/31
f 37/37/37 36/36/36 35/35/35
f 38/38/38 37/37/37 35/35/35
f 41/41/41 40/40/40 39/39/39
f 42/42/42 41/41/41 39/39/39
f 45/45/45 44/44/44 43/43/43
f 46/46/46 45/45/45 43/43/43
f 49/49/49 48/48/48 47/47/47
f 50/50/50 49/49/49 47/47/47
f 53/53/53 52/52/52 51/51/51
f 54/54/54 53/53/53 51/51/51
f 57/57/57 56/56/56 55/55/55
f 58/58/58 57/57/57 55/55/55
f 61/61/61 60/60/60 59/59/59
f 62/62/62 61/61/61 59/59/59
f 65/65/65 64/64/64 63/63/63
f 66/66/66 65/65/65 63/63/63
f 69/69/69 68/68/68 67/67/67
f 70/70/70 69/69/69 67/67/67
f 73/73/73 72/72/72 71/71/71
f 74/74/74 73/73/73 71/71/71
f 77/77/77 76/76/76 75/75/75
f 78/78/78 77/77/77 75/75/75
f 81/81/81 80/80/80 79/79/79
f 82/82/82 81/81/81 79/79/79
f 85/85/85 84/84/84 83/83/83
f 86/86/86 85/85/85 83/83/83
f 89/89/89 88/88/88 87/87/87
f 90/90/90 89/89/89 87/87/87
f 93/93/93 92/92/92 91/91/91
f 94/94/94 93/93/93 91/91/91
f 97/97/97 96/96/96 95/95/95
f 98/98/98 97/97/97 95/95/95
f 101/101/101 100/100/100 99/99/99
f 102/102/102 101/101/101 99/99/99
