g stair_L
v 0.50350094 0.7963708 -0.35317943
v 0.50350094 0.76877666 -0.17068446
v -0.4970426 0.76877666 -0.1706843
v -0.4970426 0.7963711 -0.3531794
v 0.50350094 0.55417234 -0.07914089
v 0.50350094 0.5265783 0.12061278
v -0.4970426 0.52657837 0.12061276
v -0.4970426 0.55417234 -0.0791409
v -0.4970426 1.0317551 -0.44472328
v -0.4970426 1.0337548 -0.6390606
v 0.50350094 1.0337548 -0.6390606
v 0.50350094 1.0317551 -0.44472322
v -0.4970426 0.7189781 -0.13414663
v 0.50350094 0.7189781 -0.1341468
v 0.50350094 0.55417234 -0.07914089
v -0.4970426 0.55417234 -0.0791409
v -0.4970426 0.24792221 0.44195592
v 0.50350094 0.24792206 0.44195575
v 0.5035008 0.008009721 0.53073996
v -0.4970426 0.008009644 0.53073996
v -0.4970426 0.31836134 0.21215647
v 0.50350094 0.3183612 0.21215655
v 0.50350094 0.2910353 0.40226662
v -0.4970426 0.29103544 0.40226665
v -0.4970426 0.483167 0.15715036
v 0.50350094 0.48316693 0.15715043
v 0.50350094 0.3183612 0.21215655
v -0.4970426 0.31836134 0.21215647
v -0.4970426 0.97712404 -0.4081854
v 0.50350094 0.97712374 -0.4081854
v 0.50350094 0.7963708 -0.35317943
v -0.4970426 0.7963711 -0.3531794
v -0.4970426 0.76877666 -0.1706843
v 0.50350094 0.76877666 -0.17068446
v 0.50350094 0.7189781 -0.1341468
v -0.4970426 0.7189781 -0.13414663
v -0.4970426 0.52657837 0.12061276
v 0.50350094 0.5265783 0.12061278
v 0.50350094 0.48316693 0.15715043
v -0.4970426 0.483167 0.15715036
v -0.4970426 1.0317551 -0.44472328
v 0.50350094 1.0317551 -0.44472322
v 0.50350094 0.97712374 -0.4081854
v -0.4970426 0.97712404 -0.4081854
v -0.4970426 0.29103544 0.40226665
v 0.50350094 0.2910353 0.40226662
v 0.50350094 0.24792206 0.44195575
v -0.4970426 0.24792221 0.44195592
v 0.50350094 1.007 -0.69299525
v 0.50350094 1.0337548 -0.6390606
v -0.4970426 1.0337548 -0.6390606
v -0.4970426 1.007 -0.69299525
v -0.4970426 1.0337548 -0.6390606
v -0.4970426 1.0317551 -0.44472328
v -0.4970426 0.97712404 -0.4081854
v -0.4970426 1.007 -0.69299525
v -0.4573148 0.008381264 -0.6937827
v -0.45731473 0.0083805425 0.535195
v -0.45731473 0.3896066 0.48278984
v -0.45731476 1.1328074 -0.69378006
v -0.45731473 1.1328071 -0.32760978
v -0.45731473 1.476542 -0.36896577
v -0.45731473 1.476542 -0.69377965
v -0.81618875 0.38960662 0.48278993
v -0.81618875 0.008380527 0.53519505
v -0.8161913 0.008381248 -0.69378257
v -0.8161913 1.1328074 -0.69378006
v -0.8161888 1.1328071 -0.32760975
v -0.8161913 1.476542 -0.6937796
v -0.8161888 1.4765421 -0.36896574
v -0.45731473 1.476542 -0.36896577
v -0.8161888 1.4765421 -0.36896574
v -0.8161913 1.476542 -0.6937796
v -0.45731473 1.476542 -0.69377965
v -0.45731473 0.3896066 0.48278984
v -0.81618875 0.38960662 0.48278993
v -0.8161888 1.1328071 -0.32760975
v -0.45731473 1.1328071 -0.32760978
v -0.45731473 0.0083805425 0.535195
v -0.81618875 0.008380527 0.53519505
v -0.81618875 0.38960662 0.48278993
v -0.45731473 0.3896066 0.48278984
v -0.45731473 1.1328071 -0.32760978
v -0.8161888 1.1328071 -0.32760975
v -0.8161888 1.4765421 -0.36896574
v -0.45731473 1.476542 -0.36896577
vt 0.44234592 0.60632914
vt 0.44234592 0.60133433
vt 0.4551943 0.60133433
vt 0.4551943 0.60632914
vt 0.44234592 0.60632914
vt 0.44234592 0.60133433
vt 0.4551943 0.60133433
vt 0.4551943 0.60632914
vt 0.4551943 0.60133433
vt 0.4551943 0.60632914
vt 0.44234592 0.60632914
vt 0.44234592 0.60133433
vt 0.4551943 0.6004875
vt 0.44234592 0.6004875
vt 0.44234592 0.5922056
vt 0.4551943 0.5922056
vt 0.4551943 0.6004875
vt 0.44234592 0.6004875
vt 0.44234592 0.5901389
vt 0.4551943 0.5901389
vt 0.4551943 0.60632914
vt 0.44234592 0.60632914
vt 0.44234592 0.60133433
vt 0.4551943 0.60133433
vt 0.4551943 0.6004875
vt 0.44234592 0.6004875
vt 0.44234592 0.5922056
vt 0.4551943 0.5922056
vt 0.4551943 0.6004875
vt 0.44234592 0.6004875
vt 0.44234592 0.5922056
vt 0.4551943 0.5922056
vt 0.4551943 0.60133433
vt 0.44234592 0.60133433
vt 0.44234592 0.6004875
vt 0.4551943 0.6004875
vt 0.4551943 0.60133433
vt 0.44234592 0.60133433
vt 0.44234592 0.6004875
vt 0.4551943 0.6004875
vt 0.4551943 0.60133433
vt 0.44234592 0.60133433
vt 0.44234592 0.6004875
vt 0.4551943 0.6004875
vt 0.4551943 0.60133433
vt 0.44234592 0.60133433
vt 0.44234592 0.6004875
vt 0.4551943 0.6004875
vt 0.44234592 0.6096902
vt 0.44234592 0.6078516
vt 0.4551943 0.6078516
vt 0.4551943 0.6096902
vt 0.4551943 0.60632914
vt 0.4551943 0.60133433
vt 0.44234592 0.5922056
vt 0.4551943 0.5922056
vt 0.47886747 0.5806738
vt 0.49718207 0.5806738
vt 0.49718207 0.5871794
vt 0.47886747 0.6129827
vt 0.49718207 0.6129827
vt 0.49718207 0.62285954
vt 0.47886747 0.62285954
vt 0.49718207 0.5871794
vt 0.49718207 0.5806738
vt 0.47886747 0.5806738
vt 0.47886747 0.6129827
vt 0.49718207 0.6129827
vt 0.47886747 0.62285954
vt 0.49718207 0.62285954
vt 0.4804958 0.5679585
vt 0.48893738 0.5679585
vt 0.48893738 0.576231
vt 0.4804958 0.576231
vt 0.4644802 0.5859343
vt 0.47886747 0.5859343
vt 0.47886747 0.60926205
vt 0.4644802 0.60926205
vt 0.4644802 0.5772118
vt 0.47886747 0.5772118
vt 0.47886747 0.5859343
vt 0.4644802 0.5859343
vt 0.4644802 0.60926205
vt 0.47886747 0.60926205
vt 0.47886747 0.6228879
vt 0.4644802 0.6228879
vn 1.6626734E-07 0.98876077 0.14950638
vn 1.6626734E-07 0.98876077 0.14950638
vn 1.6626734E-07 0.98876077 0.14950638
vn 1.6626734E-07 0.98876077 0.14950638
vn -0 0.990593 0.13684088
vn -0 0.990593 0.13684088
vn -0 0.990593 0.13684088
vn -0 0.990593 0.13684088
vn -0 0.9999471 0.010289978
vn -0 0.9999471 0.010289978
vn -0 0.9999471 0.010289978
vn -0 0.9999471 0.010289977
vn -0 0.3165933 0.9485614
vn -0 0.3165933 0.9485614
vn -0 0.3165933 0.9485614
vn -0 0.3165933 0.9485614
vn 1.0277046E-07 0.34706566 0.9378408
vn 1.0277046E-07 0.34706566 0.9378408
vn 1.0277046E-07 0.34706566 0.9378408
vn 1.0277046E-07 0.34706566 0.9378408
vn 1.4946296E-07 0.98982716 0.14227486
vn 1.4946298E-07 0.98982716 0.14227487
vn 1.4946298E-07 0.98982716 0.14227487
vn 1.4946296E-07 0.98982716 0.14227486
vn -0 0.31659487 0.94856083
vn -0 0.3165949 0.94856083
vn -0 0.31659487 0.94856083
vn -0 0.3165949 0.94856083
vn 1.06406645E-07 0.29113364 0.9566824
vn 1.0640666E-07 0.29113364 0.95668244
vn 1.06406645E-07 0.29113364 0.9566824
vn 1.0640666E-07 0.29113364 0.95668244
vn 1.3145016E-07 0.59156096 0.8062603
vn 1.3145016E-07 0.59156096 0.8062603
vn 1.3145016E-07 0.59156096 0.8062603
vn 1.3145016E-07 0.59156096 0.8062603
vn -0 0.64393663 0.7650787
vn -0 0.64393675 0.7650787
vn -0 0.64393663 0.7650787
vn -0 0.6439367 0.7650787
vn -0 0.55593276 0.8312273
vn -0 0.5559327 0.8312273
vn -0 0.55593276 0.8312273
vn -0 0.55593276 0.8312273
vn 1.8803071E-07 0.6772877 0.73571825
vn 1.8803073E-07 0.6772876 0.73571837
vn 1.8803073E-07 0.6772876 0.73571837
vn 1.8803071E-07 0.6772877 0.73571825
vn -0 0.89583415 -0.4443887
vn -0 0.89583415 -0.4443887
vn -0 0.89583415 -0.4443887
vn -0 0.89583415 -0.4443887
vn -1 0 0
vn -1 0 0
vn -1 0 0
vn -1 0 0
vn 1 0 0
vn 1 0 0
vn 1 0 0
vn 1 0 0
vn 1 0 0
vn 1 0 0
vn 1 0 0
vn -1 1.0483387E-06 2.8189468E-06
vn -1 1.0483387E-06 2.8189468E-06
vn -1 1.0483388E-06 2.818947E-06
vn -1 1.0483387E-06 2.818947E-06
vn -1 1.0483387E-06 2.8189468E-06
vn -1 4.4144406E-07 7.3382985E-06
vn -1 4.4144406E-07 7.3382985E-06
vn 2.140799E-07 1 -2.3653017E-07
vn 2.1407988E-07 1 -2.3653014E-07
vn 2.1407988E-07 1 -2.3653014E-07
vn 2.1407988E-07 1 -2.3653017E-07
vn 1.568436E-07 0.7370028 0.67588973
vn 1.568436E-07 0.7370028 0.67588973
vn 1.568436E-07 0.7370028 0.67588973
vn 1.5684361E-07 0.73700273 0.67588973
vn 2.1288398E-07 0.13618407 0.99068356
vn 2.1288398E-07 0.13618407 0.99068356
vn 2.1288398E-07 0.13618407 0.99068356
vn 2.1288398E-07 0.13618407 0.99068356
vn 1.3076207E-07 0.11945223 0.99283993
vn 1.3076207E-07 0.11945223 0.99283993
vn 1.3076207E-07 0.119452246 0.99283993
vn 1.3076206E-07 0.11945223 0.99283993
g stair_L_0
f 3/3/3 2/2/2 1/1/1
f 4/4/4 3/3/3 1/1/1
f 7/7/7 6/6/6 5/5/5
f 8/8/8 7/7/7 5/5/5
f 11/11/11 10/10/10 9/9/9
f 12/12/12 11/11/11 9/9/9
f 15/15/15 14/14/14 13/13/13
f 16/16/16 15/15/15 13/13/13
f 19/19/19 18/18/18 17/17/17
f 20/20/20 19/19/19 17/17/17
f 23/23/23 22/22/22 21/21/21
f 24/24/24 23/23/23 21/21/21
f 27/27/27 26/26/26 25/25/25
f 28/28/28 27/27/27 25/25/25
f 31/31/31 30/30/30 29/29/29
f 32/32/32 31/31/31 29/29/29
f 35/35/35 34/34/34 33/33/33
f 36/36/36 35/35/35 33/33/33
f 39/39/39 38/38/38 37/37/37
f 40/40/40 39/39/39 37/37/37
f 43/43/43 42/42/42 41/41/41
f 44/44/44 43/43/43 41/41/41
f 47/47/47 46/46/46 45/45/45
f 48/48/48 47/47/47 45/45/45
f 51/51/51 50/50/50 49/49/49
f 52/52/52 51/51/51 49/49/49
f 55/55/55 54/54/54 53/53/53
f 56/56/56 55/55/55 53/53/53
f 59/59/59 58/58/58 57/57/57
f 57/57/57 60/60/60 59/59/59
f 60/60/60 61/61/61 59/59/59
f 62/62/62 61/61/61 60/60/60
f 63/63/63 62/62/62 60/60/60
f 66/66/66 65/65/65 64/64/64
f 64/64/64 67/67/67 66/66/66
f 64/64/64 68/68/68 67/67/67
f 69/69/69 67/67/67 68/68/68
f 70/70/70 69/69/69 68/68/68
f 73/73/73 72/72/72 71/71/71
f 74/74/74 73/73/73 71/71/71
f 77/77/77 76/76/76 75/75/75
f 78/78/78 77/77/77 75/75/75
f 81/81/81 80/80/80 79/79/79
f 82/82/82 81/81/81 79/79/79
f 85/85/85 84/84/84 83/83/83
f 86/86/86 85/85/85 83/83/83
