g step1
v 0.2517512 1.007 -0.24646896
v 0.50350124 1.007 -0.25174794
v 0.50350124 0.92754513 -0.16650867
v 0.2517512 0.92754513 -0.16122843
v 0.50350124 0.66284204 0.25996393
v 0.06535512 0.92754513 -0.19954717
v 0.06535512 1.007 -0.28478765
v 0.06535513 0.66284204 0.22692545
v 0.25175127 0.662842 0.2652442
v 0.50350124 1.4380898E-09 0.5034994
v 0.06535512 -1.15242E-07 0.4704609
v 0.2517512 -7.6828E-08 0.5087796
v -0.25174877 1.007 -0.23367555
v 0.06535512 1.007 -0.28478765
v 0.06535512 0.92754513 -0.19954717
v -0.25174877 0.92754525 -0.14843504
v 0.06535513 0.66284204 0.22692545
v -0.5034988 0.92754513 -0.16650867
v -0.5034988 1.007 -0.25174794
v -0.5034988 0.66284204 0.25996396
v -0.25174874 0.66284204 0.27803758
v -0.5034988 1.4380898E-09 0.5034994
v -0.25174877 -7.6828E-08 0.521573
v 0.06535512 -1.15242E-07 0.4704609
v 0.3776262 1.007 -0.5035024
v 0.50350124 1.007 -0.5035024
v 0.50350124 1.007 -0.25174794
v 0.2517512 1.007 -0.24646896
v 0.28442815 1.007 -0.5035024
v 0.06535512 1.007 -0.28478765
v -0.3326086 1.007 -0.5035024
v -0.25174877 1.007 -0.23367555
v -0.5034988 1.007 -0.25174794
v -0.45848364 1.007 -0.5035024
v -0.5034988 1.007 -0.5035024
vt 0.48336908 0.80592704
vt 0.49710244 0.80592704
vt 0.49710244 0.7998373
vt 0.48336908 0.7998373
vt 0.49710244 0.7606337
vt 0.46970138 0.7998373
vt 0.46970138 0.80592704
vt 0.46970138 0.7606337
vt 0.48336908 0.7606337
vt 0.49710244 0.7275845
vt 0.46970138 0.7275845
vt 0.48336908 0.7275845
vt 0.48336908 0.80592704
vt 0.46970138 0.80592704
vt 0.46970138 0.7998373
vt 0.48336908 0.7998373
vt 0.46970138 0.7606337
vt 0.49710244 0.7998373
vt 0.49710244 0.80592704
vt 0.49710244 0.7606337
vt 0.48336908 0.7606337
vt 0.49710244 0.7275845
vt 0.48336908 0.7275845
vt 0.46970138 0.7275845
vt 0.3836324 0.78656423
vt 0.3885224 0.78656423
vt 0.3885224 0.7686056
vt 0.37717336 0.7686056
vt 0.37658158 0.78656423
vt 0.3635056 0.7686056
vt 0.33998686 0.78656423
vt 0.34369782 0.7686056
vt 0.3313184 0.7686056
vt 0.3336222 0.78656423
vt 0.3313184 0.78656423
vn -0.037352465 0.9209536 0.3878779
vn 0.007594796 0.9320901 0.36214665
vn 0.012756593 0.7936427 0.6082504
vn -0.05515201 0.7964752 0.6021508
vn 0.016221086 0.6337227 0.7733902
vn -0.013520263 0.788884 0.6143934
vn -0.006530719 0.9444107 0.3287032
vn -0.016666133 0.65054566 0.75928426
vn -0.071101315 0.61938673 0.7818597
vn 0.019683477 0.3448036 0.93846846
vn -0.020999797 0.34479433 0.93844336
vn -0.08322785 0.34367386 0.9353937
vn 0.018164922 0.9209955 0.38914976
vn -0.006530719 0.9444107 0.3287032
vn -0.013520263 0.788884 0.6143934
vn 0.026721165 0.7975146 0.60270756
vn -0.016666133 0.65054566 0.75928426
vn -0.043769445 0.79143745 0.60968095
vn -0.025244825 0.9357912 0.35165
vn -0.05513682 0.63806343 0.7680072
vn 0.034496624 0.61990863 0.78391534
vn -0.06723503 0.34409004 0.93652636
vn 0.0403477 0.34458953 0.937886
vn -0.020999797 0.34479433 0.93844336
vn -0 1 0
vn -0 1 0
vn 0.007594796 0.9320901 0.36214665
vn -0.037352465 0.9209536 0.3878779
vn -0 1 0
vn -0.006530719 0.9444107 0.3287032
vn -0 1 0
vn 0.018164922 0.9209955 0.38914976
vn -0.025244825 0.9357912 0.35165
vn -0 1 0
vn -0 1 0
g step1_0
f 3/3/3 2/2/2 1/1/1
f 1/1/1 4/4/4 3/3/3
f 5/5/5 3/3/3 4/4/4
f 6/6/6 4/4/4 1/1/1
f 1/1/1 7/7/7 6/6/6
f 4/4/4 6/6/6 8/8/8
f 4/4/4 9/9/9 5/5/5
f 8/8/8 9/9/9 4/4/4
f 5/5/5 9/9/9 10/10/10
f 9/9/9 8/8/8 11/11/11
f 12/12/12 10/10/10 9/9/9
f 11/11/11 12/12/12 9/9/9
f 15/15/15 14/14/14 13/13/13
f 13/13/13 16/16/16 15/15/15
f 17/17/17 15/15/15 16/16/16
f 18/18/18 16/16/16 13/13/13
f 13/13/13 19/19/19 18/18/18
f 16/16/16 18/18/18 20/20/20
f 20/20/20 21/21/21 16/16/16
f 16/16/16 21/21/21 17/17/17
f 21/21/21 20/20/20 22/22/22
f 22/22/22 23/23/23 21/21/21
f 17/17/17 21/21/21 23/23/23
f 23/23/23 24/24/24 17/17/17
f 27/27/27 26/26/26 25/25/25
f 25/25/25 28/28/28 27/27/27
f 28/28/28 25/25/25 29/29/29
f 29/29/29 30/30/30 28/28/28
f 31/31/31 30/30/30 29/29/29
f 31/31/31 32/32/32 30/30/30
f 32/32/32 31/31/31 33/33/33
f 31/31/31 34/34/34 33/33/33
f 33/33/33 34/34/34 35/35/35
