g step1_CS
v 0.50355226 -2.086665E-07 0.5035
v 0.24175805 0.92754495 0.5035
v 0.29037425 0.93365806 0.46514326
v 0.50355226 -2.086665E-07 0.5035
v 0.33899042 0.9397712 0.32230058
v 0.46722442 0.9336584 0.28202957
v 0.50355226 -2.086665E-07 0.5035
v 0.46722442 0.9336584 0.28202957
v 0.5035571 0.9275458 0.24175856
v 0.50355226 -2.086665E-07 0.5035
v 0.29037425 0.93365806 0.46514326
v 0.33899042 0.9397712 0.32230058
v 0.5035571 0.9275458 0.24175856
v 0.46722442 0.9336584 0.28202957
v 0.46722442 1.0070007 0.19632247
v 0.5035571 1.0070008 0.15651737
v 0.15651785 1.0069999 0.5035
v -0.5035036 1.007 0.5035
v -0.5035037 1.0069999 -0.5034999
v 0.19592836 1.0070002 0.46514326
v 0.27496985 1.0070006 0.26130503
v 0.46722442 1.0070007 0.19632247
v 0.50355226 1.0069999 -0.5034999
v 0.5035571 1.0070008 0.15651737
v 0.19592836 1.0070002 0.46514326
v 0.27496985 1.0070006 0.26130503
v 0.33899042 0.9397712 0.32230058
v 0.29037425 0.93365806 0.46514326
v 0.46722442 1.0070007 0.19632247
v 0.46722442 0.9336584 0.28202957
v 0.33899042 0.9397712 0.32230058
v 0.27496985 1.0070006 0.26130503
v 0.19592836 1.0070002 0.46514326
v 0.29037425 0.93365806 0.46514326
v 0.24175805 0.92754495 0.5035
v 0.15651785 1.0069999 0.5035
vt 0.82761216 0.5121311
vt 0.81077373 0.59901106
vt 0.82761216 0.59901106
vt 0.82761216 0.5121311
vt 0.8452701 0.59901106
vt 0.82761216 0.59901106
vt 0.82761216 0.5121311
vt 0.82761216 0.59901106
vt 0.81077373 0.59901106
vt 0.82761216 0.5121311
vt 0.82761216 0.59901106
vt 0.8452701 0.59901106
vt 0.81077373 0.60066736
vt 0.82761216 0.60066736
vt 0.82761216 0.6097264
vt 0.81077373 0.60972655
vt 0.6796011 0.6145482
vt 0.63761574 0.6145482
vt 0.63761574 0.67841446
vt 0.68210804 0.6169809
vt 0.6871361 0.62990844
vt 0.6993659 0.63403
vt 0.70167327 0.67841446
vt 0.7016877 0.6365634
vt 0.82761216 0.6097264
vt 0.8452701 0.60972655
vt 0.8452701 0.60066736
vt 0.82761216 0.60066736
vt 0.82761216 0.6097264
vt 0.82761216 0.60066736
vt 0.8452701 0.60066736
vt 0.8452701 0.60972655
vt 0.82761216 0.6097264
vt 0.82761216 0.60066736
vt 0.81077373 0.60066736
vt 0.81077373 0.60972655
vn 0.66922355 0.1755655 0.7220226
vn 0.597379 0.16860673 0.78403455
vn 0.5973791 0.16860673 0.78403455
vn 0.69662523 0.25153452 0.67189544
vn 0.6755703 0.25190306 0.69292843
vn 0.30151415 0.23115239 0.9250177
vn 0.66922355 0.1755655 0.7220226
vn 0.7436887 0.18155548 0.6434008
vn 0.7436887 0.18155546 0.6434008
vn 0.69662523 0.25153452 0.67189544
vn 0.9198204 0.22327217 0.32261407
vn 0.6755703 0.25190306 0.69292843
vn 0.6233106 0.58302474 0.52112
vn 0.62331057 0.5830248 0.5211201
vn 0.62331057 0.58302474 0.52111995
vn 0.62331057 0.58302474 0.52111995
vn -3.1405787E-07 1 2.82138E-07
vn -3.1405787E-07 1 2.82138E-07
vn -4.3508078E-07 1 -2.4250315E-07
vn -9.2675714E-07 1 5.8782706E-07
vn -1.2430809E-06 1 3.6120798E-07
vn -2.631827E-07 1 -8.392664E-07
vn -1.157441E-07 1 -1.1038298E-06
vn -1.1574409E-07 1 -1.1038297E-06
vn 0.5938954 0.7702842 0.23227245
vn 0.42790052 0.7902356 0.43866718
vn 0.41939783 0.78980494 0.4475641
vn 0.5938953 0.77028424 0.23227242
vn 0.21908614 0.7504872 0.62351453
vn 0.21908614 0.7504872 0.62351453
vn 0.41939783 0.78980494 0.4475641
vn 0.42790052 0.7902356 0.43866718
vn 0.50485224 0.59369534 0.6266181
vn 0.50485224 0.59369534 0.6266181
vn 0.50485224 0.5936954 0.6266181
vn 0.50485224 0.59369534 0.6266181
g step1_CS_0
f 3/3/3 2/2/2 1/1/1
f 6/6/6 5/5/5 4/4/4
f 9/9/9 8/8/8 7/7/7
f 12/12/12 11/11/11 10/10/10
f 15/15/15 14/14/14 13/13/13
f 16/16/16 15/15/15 13/13/13
f 19/19/19 18/18/18 17/17/17
f 20/20/20 19/19/19 17/17/17
f 21/21/21 19/19/19 20/20/20
f 21/21/21 22/22/22 19/19/19
f 23/23/23 19/19/19 22/22/22
f 24/24/24 23/23/23 22/22/22
f 27/27/27 26/26/26 25/25/25
f 28/28/28 27/27/27 25/25/25
f 31/31/31 30/30/30 29/29/29
f 32/32/32 31/31/31 29/29/29
f 35/35/35 34/34/34 33/33/33
f 36/36/36 35/35/35 33/33/33
