g step1_2
v -0.50349975 1.0070002 0.50349975
v -0.50349975 1.0070001 -0.5035001
v -0.31467068 1.0069999 -0.50350004
v -0.31467068 1.0070001 0.50349987
v -0.22943057 0.927543 0.50349975
v -0.22943057 0.92754275 -0.5035004
v 0.5034984 0.06707661 0.5034997
v 0.5034984 0.067076616 -0.5035006
v 0.17099155 0.52091867 0.03374934
v 0.045467474 0.6669494 0.03486508
v 0.046197753 0.6657356 -0.15480812
v 0.18805371 0.50103295 0.0072443066
v 0.18707086 0.5018697 -0.21665847
v 0.046445314 0.6653242 -0.21910468
v 0.16976853 0.5219431 -0.24331017
v 0.063733436 0.6451808 -0.24515735
v 0.046004366 0.66665465 0.20147026
v 0.028903825 0.68658096 0.22828576
v -0.11935903 0.8588911 0.23227935
v -0.13666917 0.87895167 0.20638998
v 0.045467474 0.6669494 0.03486508
v -0.13821335 0.880038 -0.11997215
v -0.12115412 0.8601617 -0.14711446
v 0.046197753 0.6657356 -0.15480812
v 0.15486771 0.4769374 -0.26507235
v 0.16976853 0.5219431 -0.24331017
v 0.063733436 0.6451808 -0.24515735
v 0.03388965 0.61754227 -0.26717988
v 0.016601527 0.63768584 -0.24112718
v 0.046445314 0.6653242 -0.21910468
v 0.046197753 0.6657356 -0.15480812
v 0.016316833 0.6381589 -0.16718334
v 0.016316833 0.6381589 -0.16718334
v 0.046197753 0.6657356 -0.15480812
v -0.12115412 0.8601617 -0.14711446
v -0.17067423 0.85540146 -0.15858681
v -0.18773349 0.8752777 -0.1314445
v -0.13821335 0.880038 -0.11997215
v -0.13666917 0.87895167 0.20638998
v -0.18599842 0.8740573 0.23525979
v -0.16868828 0.8539966 0.2611492
v -0.11935903 0.8588911 0.23227935
v 0.028903825 0.68658096 0.22828576
v -0.000988642 0.6590969 0.25663206
v 0.016111894 0.6391707 0.22981656
v 0.046004366 0.66665465 0.20147026
v 0.045467474 0.6669494 0.03486508
v 0.015508842 0.6395019 0.042675823
v 0.015508842 0.6395019 0.042675823
v 0.045467474 0.6669494 0.03486508
v 0.17099155 0.52091867 0.03374934
v 0.15621996 0.47580296 0.041425083
v 0.17328215 0.45591727 0.014920054
v 0.18805371 0.50103295 0.0072443066
v 0.18707086 0.5018697 -0.21665847
v 0.17217006 0.456864 -0.23842062
v 0.17217006 0.456864 -0.23842062
v 0.18707086 0.5018697 -0.21665847
v 0.16976853 0.5219431 -0.24331017
v 0.15486771 0.4769374 -0.26507235
v 0.03388965 0.61754227 -0.26717988
v 0.063733436 0.6451808 -0.24515735
v 0.046445314 0.6653242 -0.21910468
v 0.016601527 0.63768584 -0.24112718
v -0.17067423 0.85540146 -0.15858681
v -0.12115412 0.8601617 -0.14711446
v -0.13821335 0.880038 -0.11997215
v -0.18773349 0.8752777 -0.1314445
v -0.18599842 0.8740573 0.23525979
v -0.13666917 0.87895167 0.20638998
v -0.11935903 0.8588911 0.23227935
v -0.16868828 0.8539966 0.2611492
v -0.000988642 0.6590969 0.25663206
v 0.028903825 0.68658096 0.22828576
v 0.046004366 0.66665465 0.20147026
v 0.016111894 0.6391707 0.22981656
v 0.15621996 0.47580296 0.041425083
v 0.17099155 0.52091867 0.03374934
v 0.18805371 0.50103295 0.0072443066
v 0.17328215 0.45591727 0.014920054
vt 0.31918687 0.43721512
vt 0.37764066 0.4373472
vt 0.37764066 0.42549112
vt 0.31918687 0.4253768
vt 0.31918687 0.4166775
vt 0.37764066 0.4166775
vt 0.31918687 0.352192
vt 0.37764066 0.352192
vt 0.3463049 0.38385266
vt 0.3463049 0.3944308
vt 0.35664448 0.3944308
vt 0.347795 0.38240504
vt 0.36045587 0.38240504
vt 0.36040482 0.3944308
vt 0.361946 0.38387704
vt 0.361946 0.3929588
vt 0.27297378 0.39578706
vt 0.27170956 0.39716598
vt 0.27170956 0.40906218
vt 0.27295297 0.4104411
vt 0.28096646 0.39578706
vt 0.28835213 0.4104411
vt 0.28959554 0.4090765
vt 0.28959554 0.39578706
vt 0.3622924 0.38373545
vt 0.361946 0.38387704
vt 0.361946 0.3929588
vt 0.3622924 0.39310038
vt 0.36064842 0.3950352
vt 0.36040482 0.3944308
vt 0.35664448 0.3944308
vt 0.3570074 0.3950352
vt 0.29149014 0.39582732
vt 0.29069144 0.39582732
vt 0.29069144 0.40911677
vt 0.29149014 0.40924805
vt 0.28847176 0.4113193
vt 0.28835213 0.4108747
vt 0.27295297 0.4108747
vt 0.2728334 0.4113193
vt 0.26965857 0.40919483
vt 0.27019507 0.40906218
vt 0.27019507 0.39716598
vt 0.26965857 0.39703333
vt 0.27090257 0.39517498
vt 0.27105695 0.39517525
vt 0.281205 0.39519137
vt 0.281205 0.39519137
vt 0.34635752 0.3944308
vt 0.3463049 0.3944308
vt 0.3463049 0.38385266
vt 0.34635752 0.3837134
vt 0.3476517 0.3818751
vt 0.347795 0.38240504
vt 0.36045587 0.38240504
vt 0.3605992 0.3818751
vt 0.36220244 0.38320497
vt 0.361856 0.38331518
vt 0.361946 0.38387704
vt 0.3622924 0.38373545
vt 0.36183605 0.39485124
vt 0.3617335 0.39424682
vt 0.36040482 0.3944308
vt 0.36064842 0.3950352
vt 0.2883376 0.41107824
vt 0.28817737 0.41063365
vt 0.28835213 0.4108747
vt 0.28847176 0.4113193
vt 0.26982528 0.40983143
vt 0.27036178 0.40973344
vt 0.27019507 0.40906218
vt 0.26965857 0.40919483
vt 0.27045137 0.39517426
vt 0.27055776 0.39517444
vt 0.27105695 0.39517525
vt 0.27090257 0.39517498
vt 0.34766728 0.3821415
vt 0.3478484 0.38267145
vt 0.347795 0.38240504
vt 0.3476517 0.3818751
vn 5.5090334E-07 1 -2.7816634E-07
vn 1.6274611E-06 1 0
vn 0.36641297 0.9304523 -1.6091313E-07
vn 0.36641207 0.9304527 -2.693939E-07
vn 0.72275776 0.6911014 -1.3635942E-07
vn 0.72275776 0.6911014 -1.3635933E-07
vn 0.7612698 0.64843524 0
vn 0.76126987 0.64843524 0
vn 0.7582627 0.6519482 -0.0011314823
vn 0.7580698 0.65217215 -0.0013083683
vn 0.75808257 0.65215766 -0.0011161765
vn 0.75818384 0.65203995 -0.0010323651
vn 0.7580996 0.652138 -0.001004239
vn 0.7580992 0.6521385 -0.0010048241
vn 0.758055 0.6521898 -0.0010705051
vn 0.758055 0.65218985 -0.001070505
vn 0.75797504 0.6522821 -0.0013660041
vn 0.75799924 0.65225405 -0.001353327
vn 0.7579992 0.65225405 -0.0013533271
vn 0.7579753 0.6522819 -0.0013658646
vn 0.7580698 0.65217215 -0.0013083683
vn 0.75794065 0.65232205 -0.0013594826
vn 0.7579107 0.6523569 -0.0013238483
vn 0.75808257 0.65215766 -0.0011161765
vn 0.367803 0.3032859 -0.8790555
vn 0.367803 0.3032859 -0.8790555
vn 0.36780304 0.30328593 -0.8790555
vn 0.367803 0.3032859 -0.8790555
vn -0.676548 0.7363622 -0.0073159975
vn -0.676548 0.7363622 -0.0073159975
vn -0.676548 0.7363622 -0.0073159975
vn -0.676548 0.7363622 -0.0073159975
vn 0.20130028 0.21111888 -0.9565077
vn 0.2013003 0.21111888 -0.9565077
vn 0.20130028 0.21111888 -0.9565077
vn 0.2013003 0.21111888 -0.9565077
vn -0.09655081 0.995321 0.0037695966
vn -0.09655081 0.995321 0.0037695966
vn -0.09655081 0.995321 0.0037695968
vn -0.096550815 0.995321 0.003769597
vn 0.44363332 0.3627267 0.8195236
vn 0.44363338 0.36272666 0.8195235
vn 0.44363338 0.36272663 0.8195236
vn 0.44363338 0.36272666 0.8195235
vn 0.6750323 -0.73778 -0.0034808808
vn 0.6750323 -0.73778 -0.0034808803
vn 0.6750323 -0.73778 -0.0034808803
vn 0.6750323 -0.73778 -0.0034808803
vn 0.14706707 0.11891224 0.9819527
vn 0.14706707 0.11891225 0.9819527
vn 0.14706707 0.11891224 0.9819527
vn 0.14706707 0.11891224 0.9819527
vn 0.9500746 -0.31197703 -0.005336361
vn 0.9500746 -0.311977 -0.005336361
vn 0.9500746 -0.311977 -0.005336361
vn 0.9500746 -0.31197703 -0.005336361
vn 0.835069 -0.010510715 -0.55004483
vn 0.83506894 -0.010510712 -0.5500449
vn 0.835069 -0.010510713 -0.55004483
vn 0.835069 -0.010510713 -0.55004483
vn -0.17203645 0.7207908 -0.6714641
vn -0.17203645 0.7207908 -0.6714641
vn -0.17203645 0.7207908 -0.6714641
vn -0.17203645 0.7207908 -0.6714641
vn 0.05270235 0.82118237 -0.5682271
vn 0.052702352 0.82118237 -0.56822705
vn 0.05270235 0.82118237 -0.568227
vn 0.05270235 0.82118237 -0.56822705
vn 0.21290055 0.8361282 0.5055325
vn 0.21290052 0.8361282 0.5055325
vn 0.21290055 0.8361282 0.5055325
vn 0.21290052 0.8361282 0.5055325
vn 0.7604429 -0.18507922 0.6224727
vn 0.7604429 -0.18507922 0.6224727
vn 0.7604429 -0.18507922 0.6224727
vn 0.7604429 -0.18507922 0.62247264
vn 0.77629226 -0.15000236 0.612266
vn 0.77629226 -0.15000236 0.612266
vn 0.77629226 -0.15000235 0.61226594
vn 0.77629226 -0.15000236 0.612266
g step1_2_0
f 3/3/3 2/2/2 1/1/1
f 1/1/1 4/4/4 3/3/3
f 4/4/4 5/5/5 3/3/3
f 5/5/5 6/6/6 3/3/3
f 5/5/5 7/7/7 6/6/6
f 7/7/7 8/8/8 6/6/6
f 11/11/11 10/10/10 9/9/9
f 11/11/11 9/9/9 12/12/12
f 11/11/11 12/12/12 13/13/13
f 14/14/14 11/11/11 13/13/13
f 14/14/14 13/13/13 15/15/15
f 16/16/16 14/14/14 15/15/15
f 19/19/19 18/18/18 17/17/17
f 20/20/20 19/19/19 17/17/17
f 20/20/20 17/17/17 21/21/21
f 22/22/22 20/20/20 21/21/21
f 22/22/22 21/21/21 23/23/23
f 24/24/24 23/23/23 21/21/21
f 27/27/27 26/26/26 25/25/25
f 28/28/28 27/27/27 25/25/25
f 31/31/31 30/30/30 29/29/29
f 32/32/32 31/31/31 29/29/29
f 35/35/35 34/34/34 33/33/33
f 36/36/36 35/35/35 33/33/33
f 39/39/39 38/38/38 37/37/37
f 40/40/40 39/39/39 37/37/37
f 43/43/43 42/42/42 41/41/41
f 44/44/44 43/43/43 41/41/41
f 47/47/47 46/46/46 45/45/45
f 48/48/48 47/47/47 45/45/45
f 51/51/51 50/50/50 49/49/49
f 52/52/52 51/51/51 49/49/49
f 55/55/55 54/54/54 53/53/53
f 56/56/56 55/55/55 53/53/53
f 59/59/59 58/58/58 57/57/57
f 60/60/60 59/59/59 57/57/57
f 63/63/63 62/62/62 61/61/61
f 64/64/64 63/63/63 61/61/61
f 67/67/67 66/66/66 65/65/65
f 68/68/68 67/67/67 65/65/65
f 71/71/71 70/70/70 69/69/69
f 72/72/72 71/71/71 69/69/69
f 75/75/75 74/74/74 73/73/73
f 76/76/76 75/75/75 73/73/73
f 79/79/79 78/78/78 77/77/77
f 80/80/80 79/79/79 77/77/77
