g step1_wall_CS
v 0.49906826 1.388604 -0.4079649
v 0.469361 1.4350638 -0.35814017
v 0.23883337 1.348496 -0.35814017
v 0.276553 1.2988691 -0.40860507
v 0.09422847 1.335498 -0.35814017
v 0.09422847 1.2831866 -0.40867826
v -0.050376274 1.348496 -0.35814017
v -0.08809606 1.2988691 -0.40860507
v -0.3106113 1.388604 -0.4079649
v -0.28090408 1.4350636 -0.35814017
v 0.54721797 1.3314939 -0.35814017
v 0.49906826 1.388604 -0.4079649
v 0.276553 1.2988691 -0.40860507
v 0.29738614 1.2414621 -0.35814017
v 0.09422847 1.2831866 -0.40867826
v 0.09422847 1.2245572 -0.35814017
v -0.08809606 1.2988691 -0.40860507
v -0.1089292 1.2414621 -0.35814017
v -0.35876125 1.3314939 -0.35814017
v -0.3106113 1.388604 -0.4079649
v 0.49906826 1.388604 -0.30831552
v 0.54721797 1.3314939 -0.35814017
v 0.29738614 1.2414621 -0.35814017
v 0.276553 1.2988691 -0.30767533
v 0.09422847 1.2245572 -0.35814017
v 0.09422847 1.2831866 -0.30760214
v -0.1089292 1.2414621 -0.35814017
v -0.08809606 1.2988691 -0.30767533
v -0.3106113 1.388604 -0.30831552
v -0.35876125 1.3314939 -0.35814017
v 0.469361 1.4350638 -0.35814017
v 0.49906826 1.388604 -0.30831552
v 0.276553 1.2988691 -0.30767533
v 0.23883337 1.348496 -0.35814017
v 0.09422847 1.2831866 -0.30760214
v 0.09422847 1.335498 -0.35814017
v -0.08809606 1.2988691 -0.30767533
v -0.050376274 1.348496 -0.35814017
v -0.28090408 1.4350636 -0.35814017
v -0.3106113 1.388604 -0.30831552
v -0.40062162 1.3886042 -0.35469306
v -0.35079697 1.4350638 -0.3249859
v -0.35079697 1.3484962 -0.09445822
v -0.4012616 1.2988693 -0.13217783
v -0.35079697 1.3354981 0.050146714
v -0.40133473 1.2831867 0.050146714
v -0.35079697 1.348496 0.19475146
v -0.4012616 1.2988693 0.23247127
v -0.40062162 1.3886042 0.45498657
v -0.35079697 1.4350638 0.42527926
v -0.35079697 1.331494 -0.40284285
v -0.40062162 1.3886042 -0.35469306
v -0.4012616 1.2988693 -0.13217783
v -0.35079697 1.2414622 -0.153011
v -0.40133473 1.2831867 0.050146714
v -0.35079697 1.2245572 0.050146714
v -0.4012616 1.2988693 0.23247127
v -0.35079697 1.2414622 0.25330445
v -0.35079697 1.331494 0.5031365
v -0.40062162 1.3886042 0.45498657
v -0.300972 1.3886042 -0.35469306
v -0.35079697 1.331494 -0.40284285
v -0.35079697 1.2414622 -0.153011
v -0.3003319 1.2988693 -0.13217783
v -0.35079697 1.2245572 0.050146714
v -0.30025873 1.2831867 0.050146714
v -0.35079697 1.2414622 0.25330445
v -0.3003319 1.2988693 0.23247127
v -0.300972 1.3886042 0.45498657
v -0.35079697 1.331494 0.5031365
v -0.35079697 1.4350638 -0.3249859
v -0.300972 1.3886042 -0.35469306
v -0.3003319 1.2988693 -0.13217783
v -0.35079697 1.3484962 -0.09445822
v -0.30025873 1.2831867 0.050146714
v -0.35079697 1.3354981 0.050146714
v -0.3003319 1.2988693 0.23247127
v -0.35079697 1.348496 0.19475146
v -0.35079697 1.4350638 0.42527926
v -0.300972 1.3886042 0.45498657
v -0.26748118 0.9958352 -0.27482444
v -0.35079667 0.99583524 -0.35814
v -0.35079667 0.9958352 -0.24031407
v -0.23297073 0.99583524 -0.35814
v -0.26748118 0.99583524 -0.4414555
v -0.35079667 0.99583524 -0.47596595
v -0.43411216 0.99583524 -0.4414555
v -0.35079667 0.99583524 -0.47596595
v -0.46862257 0.99583524 -0.35814
v -0.43411216 0.9958352 -0.27482444
v -0.35079667 0.9958352 -0.24031407
v -0.35079667 1.56814 -0.24031404
v -0.35079667 1.56814 -0.35813987
v -0.2674811 1.56814 -0.27482447
v -0.2329707 1.56814 -0.3581399
v -0.2674811 1.56814 -0.44145542
v -0.35079667 1.56814 -0.47596577
v -0.35079667 1.56814 -0.47596577
v -0.43411225 1.56814 -0.4414554
v -0.46862262 1.56814 -0.3581399
v -0.43411225 1.56814 -0.2748244
v -0.35079667 1.56814 -0.24031404
v 0.4976723 0.99583536 -0.47596583
v 0.4976723 1.56814 -0.4759655
v 0.41435668 1.56814 -0.44145513
v 0.41435677 0.99583536 -0.4414554
v 0.37984633 1.56814 -0.35813963
v 0.37984636 0.99583536 -0.35813987
v 0.41435668 1.56814 -0.27482414
v 0.41435677 0.9958352 -0.27482432
v 0.4976723 1.56814 -0.24031377
v 0.4976723 0.9958352 -0.24031396
v 0.41435677 0.99583536 -0.4414554
v 0.4976723 0.99583536 -0.35813987
v 0.4976723 0.99583536 -0.47596583
v 0.37984636 0.99583536 -0.35813987
v 0.41435677 0.9958352 -0.27482432
v 0.4976723 0.9958352 -0.24031396
v 0.4976723 1.56814 -0.4759655
v 0.4976723 1.56814 -0.3581396
v 0.41435668 1.56814 -0.44145513
v 0.37984633 1.56814 -0.35813963
v 0.41435668 1.56814 -0.27482414
v 0.4976723 1.56814 -0.24031377
v -0.23297073 0.99583524 0.50350034
v -0.2329707 1.56814 0.5035005
v -0.2674811 1.56814 0.42018497
v -0.26748118 0.9958352 0.4201848
v -0.35079667 1.56814 0.38567466
v -0.35079667 0.9958352 0.38567433
v -0.43411225 1.56814 0.42018503
v -0.43411216 0.9958352 0.4201848
v -0.46862262 1.56814 0.5035005
v -0.46862257 0.99583524 0.50350034
v -0.26748118 0.9958352 0.4201848
v -0.35079667 0.99583524 0.50350034
v -0.23297073 0.99583524 0.50350034
v -0.35079667 0.9958352 0.38567433
v -0.43411216 0.9958352 0.4201848
v -0.35079667 0.9958352 0.38567433
v -0.46862257 0.99583524 0.50350034
v -0.2329707 1.56814 0.5035005
v -0.35079667 1.56814 0.5035005
v -0.2674811 1.56814 0.42018497
v -0.35079667 1.56814 0.38567466
v -0.35079667 1.56814 0.38567466
v -0.43411225 1.56814 0.42018503
v -0.46862262 1.56814 0.5035005
v -0.5035064 0.6347119 0.16546538
v 0.503496 0.6347119 0.16546538
v 0.503496 -4.3397415E-07 0.418039
v -0.5035064 -4.3397415E-07 0.418039
v 0.503496 0.6347119 0.16546538
v -0.5035064 0.6347119 0.16546538
v -0.5035064 0.92754513 -0.23797226
v 0.503496 0.92754513 -0.23797226
v 0.16546535 0.634712 0.50350213
v 0.1654653 0.6347119 -0.5035003
v 0.41803893 -4.300252E-07 -0.5035003
v 0.41803902 -3.860077E-07 0.5035022
v 0.1654653 0.6347119 -0.5035003
v 0.16546535 0.634712 0.50350213
v -0.23797229 0.92754525 0.50350213
v -0.23797233 0.9275451 -0.5035003
v 0.5034975 0.15072708 0.2439077
v 0.5035006 0.1507271 0.5035024
v 0.2439068 0.15072711 0.5035024
v 0.24390373 0.15072708 0.24390778
v 0.50349784 0.92754513 -0.1665066
v -0.13614212 0.94312495 -0.15444362
v -0.19808775 1.0070001 -0.21277954
v 0.50349784 1.0070001 -0.2517478
v -0.25175107 1.007 0.50350004
v -0.19808775 1.0070001 -0.21277954
v -0.13614212 0.94312495 -0.15444362
v -0.16651087 0.9275451 0.50350004
v -0.50350255 1.0070001 -0.3716556
v -0.50350225 1.0070001 0.50350016
v -0.50350225 9.363411E-08 0.50350016
v -0.50350255 1.3119174E-07 -0.3716557
v 0.50349885 1.0070001 -0.50349987
v -0.3716583 1.0070001 -0.50349987
v -0.3716583 1.3684988E-07 -0.5034999
v 0.5034989 1.3684988E-07 -0.5034999
v 0.50349784 0.92754513 -0.1665066
v 0.50349784 0.6796494 -0.16650663
v -0.13614212 0.6952292 -0.15444365
v -0.13614212 0.94312495 -0.15444362
v -0.16651087 0.9275451 0.50350004
v -0.13614212 0.94312495 -0.15444362
v -0.13614212 0.6952292 -0.15444365
v -0.16651087 0.6796493 0.50350004
v -0.3716583 1.0070001 -0.50349987
v -0.19808775 1.0070001 -0.21277954
v -0.45355818 1.0070001 -0.45824757
v 0.50349885 1.0070001 -0.50349987
v 0.50349784 1.0070001 -0.2517478
v -0.50350225 1.0070001 0.50350016
v -0.25175107 1.007 0.50350004
v -0.50350255 1.0070001 -0.3716556
v -0.45355818 1.0070001 -0.45824757
v -0.45355818 1.0070001 -0.45824757
v -0.50350255 1.0070001 -0.3716556
v -0.50350255 1.3119174E-07 -0.3716557
v -0.45355818 1.3145538E-07 -0.4582476
v -0.3716583 1.0070001 -0.50349987
v -0.3716583 1.3684988E-07 -0.5034999
v -0.26748118 0.99583524 -0.4414555
v -0.35079667 1.56814 -0.47596577
v -0.35079667 0.99583524 -0.47596595
v -0.2674811 1.56814 -0.44145542
v -0.43411225 1.56814 -0.4414554
v -0.23297073 0.99583524 -0.35814
v -0.43411216 0.99583524 -0.4414555
v -0.2329707 1.56814 -0.3581399
v -0.46862262 1.56814 -0.3581399
v -0.26748118 0.9958352 -0.27482444
v -0.46862257 0.99583524 -0.35814
v -0.2674811 1.56814 -0.27482447
v -0.43411225 1.56814 -0.2748244
v -0.35079667 0.9958352 -0.24031407
v -0.43411216 0.9958352 -0.27482444
v -0.35079667 1.56814 -0.24031404
vt 0.15021268 0.48566505
vt 0.15021268 0.49560148
vt 0.12560408 0.49560148
vt 0.12560408 0.48566505
vt 0.10701096 0.49560148
vt 0.10701096 0.48566505
vt 0.0884178 0.49560148
vt 0.0884178 0.48566505
vt 0.063809216 0.48566505
vt 0.063809216 0.49560148
vt 0.15021268 0.47572866
vt 0.15021268 0.48566505
vt 0.12560408 0.48566505
vt 0.12560408 0.47572866
vt 0.10701096 0.48566505
vt 0.10701096 0.47572866
vt 0.0884178 0.48566505
vt 0.08841781 0.47572866
vt 0.063809216 0.47572866
vt 0.063809216 0.48566505
vt 0.15021268 0.48566505
vt 0.15021268 0.47572866
vt 0.12560408 0.47572866
vt 0.12560408 0.48566505
vt 0.10701093 0.47572866
vt 0.10701093 0.48566505
vt 0.0884178 0.47572866
vt 0.0884178 0.48566505
vt 0.063809216 0.48566505
vt 0.063809216 0.47572866
vt 0.15021268 0.49560148
vt 0.15021268 0.48566505
vt 0.12560408 0.48566505
vt 0.12560408 0.49560148
vt 0.10701093 0.48566505
vt 0.10701096 0.49560148
vt 0.0884178 0.48566505
vt 0.0884178 0.49560148
vt 0.063809216 0.49560148
vt 0.063809216 0.48566505
vt 0.15021268 0.48566505
vt 0.15021268 0.49560148
vt 0.12560408 0.49560148
vt 0.12560408 0.48566505
vt 0.10701096 0.49560148
vt 0.10701096 0.48566505
vt 0.0884178 0.49560148
vt 0.0884178 0.48566505
vt 0.063809216 0.48566505
vt 0.063809216 0.49560148
vt 0.15021268 0.47572866
vt 0.15021268 0.48566505
vt 0.12560408 0.48566505
vt 0.12560408 0.47572866
vt 0.10701096 0.48566505
vt 0.10701096 0.47572866
vt 0.0884178 0.48566505
vt 0.08841781 0.47572866
vt 0.063809216 0.47572866
vt 0.063809216 0.48566505
vt 0.15021268 0.48566505
vt 0.15021268 0.47572866
vt 0.12560408 0.47572866
vt 0.12560408 0.48566505
vt 0.10701093 0.47572866
vt 0.10701093 0.48566505
vt 0.0884178 0.47572866
vt 0.0884178 0.48566505
vt 0.063809216 0.48566505
vt 0.063809216 0.47572866
vt 0.15021268 0.49560148
vt 0.15021268 0.48566505
vt 0.12560408 0.48566505
vt 0.12560408 0.49560148
vt 0.10701093 0.48566505
vt 0.10701096 0.49560148
vt 0.0884178 0.48566505
vt 0.0884178 0.49560148
vt 0.063809216 0.49560148
vt 0.063809216 0.48566505
vt 0.18434869 0.49221793
vt 0.17491995 0.4827892
vt 0.18825422 0.4827892
vt 0.17491995 0.49612346
vt 0.16549127 0.49221793
vt 0.1615858 0.4827892
vt 0.18434869 0.49221793
vt 0.18825422 0.4827892
vt 0.17491995 0.49612346
vt 0.16549127 0.49221793
vt 0.1615858 0.4827892
vt 0.18825422 0.4827892
vt 0.17491995 0.4827892
vt 0.18434869 0.49221793
vt 0.17491995 0.49612346
vt 0.16549127 0.49221793
vt 0.1615858 0.4827892
vt 0.18825422 0.4827892
vt 0.18434869 0.49221793
vt 0.17491995 0.49612346
vt 0.16549127 0.49221793
vt 0.1615858 0.4827892
vt 0.45084667 0.80065686
vt 0.45084667 0.8976332
vt 0.46296877 0.8976332
vt 0.46296877 0.80065686
vt 0.47509077 0.8976332
vt 0.47509077 0.80065686
vt 0.46296877 0.8976332
vt 0.46296877 0.80065686
vt 0.45084673 0.8976332
vt 0.45084673 0.80065686
vt 0.18434869 0.49221793
vt 0.17491995 0.4827892
vt 0.18825422 0.4827892
vt 0.17491995 0.49612346
vt 0.16549127 0.49221793
vt 0.1615858 0.4827892
vt 0.18825422 0.4827892
vt 0.17491995 0.4827892
vt 0.18434869 0.49221793
vt 0.17491995 0.49612346
vt 0.16549127 0.49221793
vt 0.1615858 0.4827892
vt 0.47509077 0.80065686
vt 0.47509077 0.8976332
vt 0.46296877 0.8976332
vt 0.46296877 0.80065686
vt 0.45084673 0.8976332
vt 0.45084673 0.80065686
vt 0.46296877 0.8976332
vt 0.46296877 0.80065686
vt 0.47509077 0.8976332
vt 0.47509077 0.80065686
vt 0.16549127 0.49221793
vt 0.17491995 0.4827892
vt 0.17491995 0.49612346
vt 0.1615858 0.4827892
vt 0.18434869 0.49221793
vt 0.18825422 0.4827892
vt 0.17491995 0.49612346
vt 0.17491995 0.49612346
vt 0.17491995 0.4827892
vt 0.16549127 0.49221793
vt 0.1615858 0.4827892
vt 0.18825422 0.4827892
vt 0.18434869 0.49221793
vt 0.17491995 0.49612346
vt 0.10659263 0.4425783
vt 0.08575812 0.4425783
vt 0.08575812 0.41778117
vt 0.10659263 0.41778117
vt 0.08575812 0.4425783
vt 0.10659263 0.4425783
vt 0.10659263 0.471993
vt 0.08575812 0.471993
vt 0.10659263 0.4425783
vt 0.08575812 0.4425783
vt 0.08575812 0.41778117
vt 0.10659263 0.41778117
vt 0.08575812 0.4425783
vt 0.10659263 0.4425783
vt 0.10659263 0.471993
vt 0.08575812 0.471993
vt 0.3196396 0.13998526
vt 0.35684815 0.13998526
vt 0.35684815 0.15593034
vt 0.3196396 0.15593034
vt 0.40378684 0.16748013
vt 0.38745946 0.16748013
vt 0.38729256 0.18291381
vt 0.40378684 0.18291381
vt 0.36787313 0.18291381
vt 0.38729256 0.18291381
vt 0.38745946 0.16748013
vt 0.36787313 0.16748013
vt 0.31716087 0.18252105
vt 0.27204707 0.18252105
vt 0.27204707 0.13061078
vt 0.31716087 0.13061078
vt 0.27204707 0.18252105
vt 0.31716087 0.18252105
vt 0.31716087 0.13061078
vt 0.27204707 0.13061078
vt 0.40378684 0.16748013
vt 0.40378684 0.15735927
vt 0.38745946 0.15735927
vt 0.38745946 0.16748013
vt 0.36787313 0.16748013
vt 0.38745946 0.16748013
vt 0.38745946 0.15735927
vt 0.36787313 0.15735927
vt 0.24864385 0.3296598
vt 0.23087862 0.3252559
vt 0.24441904 0.3310946
vt 0.24864385 0.30891553
vt 0.23087862 0.30891553
vt 0.24864385 0.30891553
vt 0.23087862 0.30891553
vt 0.24864385 0.329627
vt 0.2455388 0.33093026
vt 0.312355 0.18252105
vt 0.30754915 0.18252105
vt 0.30754915 0.13061078
vt 0.312355 0.13061078
vt 0.31716087 0.18252105
vt 0.31716087 0.13061078
vt 0.46296877 0.80065686
vt 0.45084673 0.8976332
vt 0.45084673 0.80065686
vt 0.46296877 0.8976332
vt 0.46296877 0.8976332
vt 0.47509077 0.80065686
vt 0.46296877 0.80065686
vt 0.47509077 0.8976332
vt 0.47509077 0.8976332
vt 0.46296877 0.80065686
vt 0.47509077 0.80065686
vt 0.46296877 0.8976332
vt 0.46296877 0.8976332
vt 0.45084667 0.80065686
vt 0.46296877 0.80065686
vt 0.45084667 0.8976332
vn -0.23867242 0.6160394 -0.75068694
vn -0.23867239 0.6160395 -0.75068694
vn -0.13285013 0.6639831 -0.7358514
vn -0.16967183 0.6484265 -0.74212843
vn -0 0.6924389 -0.72147655
vn -0 0.6924389 -0.72147655
vn 0.13284998 0.6639833 -0.7358513
vn 0.16967186 0.6484266 -0.7421283
vn 0.2386723 0.6160398 -0.7506867
vn 0.2386723 0.6160398 -0.75068665
vn 0.2165334 -0.5661214 -0.79537404
vn 0.21653338 -0.5661214 -0.795374
vn 0.13215926 -0.6128475 -0.77907115
vn 0.14205176 -0.60770696 -0.7813537
vn -0 -0.65090185 -0.75916195
vn -0 -0.65090185 -0.75916195
vn -0.1321592 -0.6128474 -0.7790712
vn -0.14205165 -0.60770684 -0.7813537
vn -0.21653324 -0.5661212 -0.7953743
vn -0.21653327 -0.5661212 -0.7953743
vn 0.21653332 -0.56612116 0.7953743
vn 0.21653333 -0.5661212 0.7953742
vn 0.14205171 -0.60770667 0.78135383
vn 0.13215923 -0.6128472 0.77907133
vn -0 -0.65090156 0.7591621
vn -0 -0.65090156 0.75916207
vn -0.14205164 -0.6077066 0.781354
vn -0.13215913 -0.61284715 0.77907145
vn -0.21653314 -0.566121 0.7953744
vn -0.21653314 -0.566121 0.7953744
vn -0.2386724 0.6160392 0.7506871
vn -0.23867239 0.6160392 0.7506872
vn -0.16967179 0.6484262 0.7421286
vn -0.1328501 0.66398287 0.73585165
vn -0 0.6924387 0.7214767
vn -0 0.69243866 0.72147673
vn 0.16967182 0.6484264 0.7421285
vn 0.13284993 0.6639831 0.73585147
vn 0.23867223 0.61603963 0.7506868
vn 0.23867223 0.61603963 0.7506868
vn -0.7506875 0.61603886 0.23867239
vn -0.7506875 0.61603886 0.23867236
vn -0.7358527 0.66398156 0.13284998
vn -0.74212956 0.6484252 0.1696718
vn -0.7214783 0.69243705 1.3009257E-07
vn -0.7214782 0.6924371 1.1872774E-07
vn -0.7358524 0.66398203 -0.13284971
vn -0.7421294 0.64842534 -0.16967195
vn -0.7506875 0.61603886 -0.23867245
vn -0.7506875 0.61603886 -0.23867245
vn -0.7953751 -0.5661201 -0.21653265
vn -0.79537517 -0.5661201 -0.21653263
vn -0.7790729 -0.6128454 -0.13215874
vn -0.7813553 -0.60770494 -0.14205119
vn -0.7591642 -0.65089923 0
vn -0.75916415 -0.6508993 0
vn -0.7790729 -0.6128454 0.13215864
vn -0.7813553 -0.60770494 0.14205112
vn -0.79537535 -0.56611997 0.2165325
vn -0.79537535 -0.56611997 0.21653247
vn 0.7953729 -0.5661228 -0.21653384
vn 0.7953729 -0.5661228 -0.21653387
vn 0.78135276 -0.607708 -0.14205196
vn 0.77907026 -0.6128485 -0.1321595
vn 0.75916123 -0.65090257 0
vn 0.75916123 -0.6509025 0
vn 0.7813528 -0.607708 0.14205192
vn 0.7790703 -0.6128485 0.13215943
vn 0.7953731 -0.56612265 0.21653375
vn 0.7953731 -0.56612265 0.21653374
vn 0.750685 0.61604154 0.23867317
vn 0.750685 0.61604154 0.23867314
vn 0.7421267 0.6484282 0.16967233
vn 0.73584986 0.6639847 0.13285056
vn 0.7214751 0.69244033 1.2614821E-07
vn 0.72147506 0.6924404 1.392219E-07
vn 0.7421266 0.6484284 -0.16967247
vn 0.73584956 0.66398513 -0.13285026
vn 0.7506849 0.61604154 -0.23867327
vn 0.750685 0.61604154 -0.23867327
vn -1.3504318E-07 -1 -7.870898E-07
vn -0 -1 -3.9354495E-07
vn -0 -1 -6.520467E-07
vn -0 -1 -4.610664E-07
vn -0 -1 0
vn -0 -1 0
vn -0 -1 0
vn -0 -1 0
vn -0 -1 -4.6106643E-07
vn 1.3504312E-07 -1 -7.870899E-07
vn -0 -1 -6.520467E-07
vn -0 1 0
vn -0 1 0
vn -0 1 0
vn -0 1 0
vn -0 1 0
vn -0 1 0
vn -0 1 0
vn -0 1 0
vn -0 1 0
vn -0 1 0
vn -0 1 0
vn -0.3826832 4.712583E-07 -0.9238796
vn -0.38268322 4.7125835E-07 -0.9238796
vn -0.7071068 2.9509962E-07 -0.70710677
vn -0.70710665 2.9509968E-07 -0.7071069
vn -1 0 0
vn -1 0 0
vn -0.7071066 -3.0828284E-07 0.7071069
vn -0.70710653 -3.0828286E-07 0.707107
vn -0.3826829 -3.363453E-07 0.92387974
vn -0.3826829 -3.363453E-07 0.92387974
vn -0 -1 0
vn 1.3504307E-07 -1 -7.870898E-07
vn -0 -1 0
vn -0 -1 -9.2213287E-07
vn 2.7008625E-07 -1 -1.5741798E-06
vn 5.401725E-07 -1 -1.3040935E-06
vn -0 1 0
vn -0 1 0
vn -0 1 0
vn -0 1 0
vn -0 1 0
vn -0 1 0
vn 0.9238796 0 -0.38268328
vn 0.9238796 0 -0.3826833
vn 0.70710677 2.1701479E-07 -0.70710677
vn 0.7071066 2.1701494E-07 -0.70710695
vn -0 4.251564E-07 -1
vn -0 4.2515637E-07 -1
vn -0.7071069 2.398318E-07 -0.70710665
vn -0.7071066 2.3983193E-07 -0.7071069
vn -0.9238796 0 -0.38268322
vn -0.9238796 0 -0.38268325
vn -1.3504342E-07 -1 7.870895E-07
vn -0 -1 7.8708956E-07
vn -0 -1 9.2213287E-07
vn -0 -1 6.5204625E-07
vn 1.3504341E-07 -1 7.8708945E-07
vn -0 -1 6.5204625E-07
vn -0 -1 9.221328E-07
vn -0 1 0
vn -0 1 0
vn -0 1 0
vn -0 1 0
vn -0 1 0
vn -0 1 0
vn -0 1 0
vn -0 0.3697352 0.9291372
vn -0 0.3697352 0.9291372
vn -0 0.3697352 0.9291372
vn -0 0.3697352 0.9291372
vn -0 0.8092854 0.58741575
vn -0 0.8092854 0.58741575
vn -0 0.8092854 0.58741575
vn -0 0.8092854 0.58741575
vn 0.9291372 0.36973533 0
vn 0.9291372 0.36973533 0
vn 0.9291372 0.36973533 0
vn 0.9291372 0.36973536 0
vn 0.5874158 0.8092854 -1.04797934E-07
vn 0.5874158 0.8092854 -1.04797934E-07
vn 0.5874158 0.8092854 -1.04797934E-07
vn 0.5874158 0.8092854 -1.04797934E-07
vn -0 1 0
vn -0 1 0
vn -0 1 0
vn -0 1 0
vn 0.034879096 0.7147687 0.6984906
vn 0.034879096 0.7147687 0.6984906
vn 0.034879096 0.7147687 0.6984906
vn 0.034879096 0.7147687 0.6984906
vn 0.686497 0.7253975 0.05020249
vn 0.686497 0.7253975 0.05020248
vn 0.686497 0.7253975 0.05020248
vn 0.68649703 0.7253975 0.05020248
vn -1 0 3.9504508E-07
vn -1 0 3.9504508E-07
vn -1 0 3.9504508E-07
vn -1 0 3.9504508E-07
vn -0 0 -1
vn -0 0 -1
vn -0 0 -1
vn -0 0 -1
vn 0.01885566 -1.3598216E-07 0.9998222
vn 0.018855663 -1.3598218E-07 0.9998222
vn 0.01885566 -1.3598216E-07 0.9998222
vn 0.018855663 -1.3598218E-07 0.9998222
vn 0.9989365 0 0.046107974
vn 0.9989365 0 0.04610797
vn 0.9989365 0 0.04610797
vn 0.9989365 0 0.04610797
vn -0 1 1.819813E-07
vn 1.0437786E-07 1 1.3365613E-07
vn 1.525856E-07 1 1.5418259E-07
vn -0 1 1.559825E-07
vn -0 1 1.5598249E-07
vn 2.458854E-07 1 1.0484307E-07
vn 2.458854E-07 1 1.0484307E-07
vn 2.1532742E-07 1 1.0878701E-07
vn 1.525856E-07 1 1.5418259E-07
vn -0.70057714 0 -0.7135768
vn -0.86623967 0 -0.4996286
vn -0.86623967 0 -0.4996286
vn -0.700577 0 -0.7135768
vn -0.4836195 0 -0.87527835
vn -0.4836195 0 -0.87527835
vn 0.70710665 0 -0.7071069
vn -0 2.2360639E-07 -1
vn -0 2.2360639E-07 -1
vn 0.70710665 0 -0.7071069
vn -0.70710677 1.0495808E-07 -0.70710677
vn 1 0 1.02679756E-07
vn -0.70710677 1.0495811E-07 -0.7071068
vn 1 0 0
vn -1 0 0
vn 0.7071066 0 0.7071069
vn -1 0 0
vn 0.70710677 0 0.70710677
vn -0.70710665 -1.18648344E-07 0.7071069
vn 2.464314E-07 0 1
vn -0.7071066 -1.1864832E-07 0.70710695
vn 2.464314E-07 0 1
g step1_wall_CS_0
f 3/3/3 2/2/2 1/1/1
f 4/4/4 3/3/3 1/1/1
f 5/5/5 3/3/3 4/4/4
f 6/6/6 5/5/5 4/4/4
f 7/7/7 5/5/5 6/6/6
f 8/8/8 7/7/7 6/6/6
f 7/7/7 8/8/8 9/9/9
f 10/10/10 7/7/7 9/9/9
f 13/13/13 12/12/12 11/11/11
f 14/14/14 13/13/13 11/11/11
f 15/15/15 13/13/13 14/14/14
f 16/16/16 15/15/15 14/14/14
f 17/17/17 15/15/15 16/16/16
f 18/18/18 17/17/17 16/16/16
f 17/17/17 18/18/18 19/19/19
f 20/20/20 17/17/17 19/19/19
f 23/23/23 22/22/22 21/21/21
f 24/24/24 23/23/23 21/21/21
f 25/25/25 23/23/23 24/24/24
f 26/26/26 25/25/25 24/24/24
f 27/27/27 25/25/25 26/26/26
f 28/28/28 27/27/27 26/26/26
f 27/27/27 28/28/28 29/29/29
f 30/30/30 27/27/27 29/29/29
f 33/33/33 32/32/32 31/31/31
f 34/34/34 33/33/33 31/31/31
f 35/35/35 33/33/33 34/34/34
f 36/36/36 35/35/35 34/34/34
f 37/37/37 35/35/35 36/36/36
f 38/38/38 37/37/37 36/36/36
f 37/37/37 38/38/38 39/39/39
f 40/40/40 37/37/37 39/39/39
f 43/43/43 42/42/42 41/41/41
f 44/44/44 43/43/43 41/41/41
f 45/45/45 43/43/43 44/44/44
f 46/46/46 45/45/45 44/44/44
f 47/47/47 45/45/45 46/46/46
f 48/48/48 47/47/47 46/46/46
f 47/47/47 48/48/48 49/49/49
f 50/50/50 47/47/47 49/49/49
f 53/53/53 52/52/52 51/51/51
f 54/54/54 53/53/53 51/51/51
f 55/55/55 53/53/53 54/54/54
f 56/56/56 55/55/55 54/54/54
f 57/57/57 55/55/55 56/56/56
f 58/58/58 57/57/57 56/56/56
f 57/57/57 58/58/58 59/59/59
f 60/60/60 57/57/57 59/59/59
f 63/63/63 62/62/62 61/61/61
f 64/64/64 63/63/63 61/61/61
f 65/65/65 63/63/63 64/64/64
f 66/66/66 65/65/65 64/64/64
f 67/67/67 65/65/65 66/66/66
f 68/68/68 67/67/67 66/66/66
f 67/67/67 68/68/68 69/69/69
f 70/70/70 67/67/67 69/69/69
f 73/73/73 72/72/72 71/71/71
f 74/74/74 73/73/73 71/71/71
f 75/75/75 73/73/73 74/74/74
f 76/76/76 75/75/75 74/74/74
f 77/77/77 75/75/75 76/76/76
f 78/78/78 77/77/77 76/76/76
f 77/77/77 78/78/78 79/79/79
f 80/80/80 77/77/77 79/79/79
f 83/83/83 82/82/82 81/81/81
f 81/81/81 82/82/82 84/84/84
f 84/84/84 82/82/82 85/85/85
f 85/85/85 82/82/82 86/86/86
f 88/88/88 82/82/82 87/87/87
f 87/87/87 82/82/82 89/89/89
f 89/89/89 82/82/82 90/90/90
f 90/90/90 82/82/82 91/91/91
f 94/94/94 93/93/93 92/92/92
f 95/95/95 93/93/93 94/94/94
f 96/96/96 93/93/93 95/95/95
f 97/97/97 93/93/93 96/96/96
f 99/99/99 93/93/93 98/98/98
f 100/100/100 93/93/93 99/99/99
f 101/101/101 93/93/93 100/100/100
f 102/102/102 93/93/93 101/101/101
f 105/105/105 104/104/104 103/103/103
f 106/106/106 105/105/105 103/103/103
f 107/107/107 105/105/105 106/106/106
f 108/108/108 107/107/107 106/106/106
f 109/109/109 107/107/107 108/108/108
f 110/110/110 109/109/109 108/108/108
f 111/111/111 109/109/109 110/110/110
f 112/112/112 111/111/111 110/110/110
f 115/115/115 114/114/114 113/113/113
f 113/113/113 114/114/114 116/116/116
f 116/116/116 114/114/114 117/117/117
f 117/117/117 114/114/114 118/118/118
f 121/121/121 120/120/120 119/119/119
f 122/122/122 120/120/120 121/121/121
f 123/123/123 120/120/120 122/122/122
f 124/124/124 120/120/120 123/123/123
f 127/127/127 126/126/126 125/125/125
f 128/128/128 127/127/127 125/125/125
f 129/129/129 127/127/127 128/128/128
f 130/130/130 129/129/129 128/128/128
f 131/131/131 129/129/129 130/130/130
f 132/132/132 131/131/131 130/130/130
f 133/133/133 131/131/131 132/132/132
f 134/134/134 133/133/133 132/132/132
f 137/137/137 136/136/136 135/135/135
f 135/135/135 136/136/136 138/138/138
f 140/140/140 136/136/136 139/139/139
f 139/139/139 136/136/136 141/141/141
f 144/144/144 143/143/143 142/142/142
f 145/145/145 143/143/143 144/144/144
f 147/147/147 143/143/143 146/146/146
f 148/148/148 143/143/143 147/147/147
f 151/151/151 150/150/150 149/149/149
f 152/152/152 151/151/151 149/149/149
f 155/155/155 154/154/154 153/153/153
f 156/156/156 155/155/155 153/153/153
f 159/159/159 158/158/158 157/157/157
f 160/160/160 159/159/159 157/157/157
f 163/163/163 162/162/162 161/161/161
f 164/164/164 163/163/163 161/161/161
f 167/167/167 166/166/166 165/165/165
f 168/168/168 167/167/167 165/165/165
f 171/171/171 170/170/170 169/169/169
f 172/172/172 171/171/171 169/169/169
f 175/175/175 174/174/174 173/173/173
f 176/176/176 175/175/175 173/173/173
f 179/179/179 178/178/178 177/177/177
f 180/180/180 179/179/179 177/177/177
f 183/183/183 182/182/182 181/181/181
f 184/184/184 183/183/183 181/181/181
f 187/187/187 186/186/186 185/185/185
f 188/188/188 187/187/187 185/185/185
f 191/191/191 190/190/190 189/189/189
f 192/192/192 191/191/191 189/189/189
f 195/195/195 194/194/194 193/193/193
f 196/196/196 193/193/193 194/194/194
f 197/197/197 196/196/196 194/194/194
f 199/199/199 194/194/194 198/198/198
f 194/194/194 200/200/200 198/198/198
f 200/200/200 194/194/194 201/201/201
f 204/204/204 203/203/203 202/202/202
f 205/205/205 204/204/204 202/202/202
f 205/205/205 202/202/202 206/206/206
f 207/207/207 205/205/205 206/206/206
f 210/210/210 209/209/209 208/208/208
f 209/209/209 211/211/211 208/208/208
f 212/212/212 209/209/209 210/210/210
f 208/208/208 211/211/211 213/213/213
f 214/214/214 212/212/212 210/210/210
f 211/211/211 215/215/215 213/213/213
f 216/216/216 212/212/212 214/214/214
f 213/213/213 215/215/215 217/217/217
f 218/218/218 216/216/216 214/214/214
f 215/215/215 219/219/219 217/217/217
f 220/220/220 216/216/216 218/218/218
f 217/217/217 219/219/219 221/221/221
f 222/222/222 220/220/220 218/218/218
f 219/219/219 223/223/223 221/221/221
f 223/223/223 220/220/220 222/222/222
f 221/221/221 223/223/223 222/222/222
