g step1_wall
v 0.23699671 1.1802359 -0.4367679
v 0.23699671 1.2942297 -0.40499148
v -0.2446638 1.1802359 -0.4367679
v -0.2446638 1.2942297 -0.40499148
v -0.2446638 1.1802359 -0.2563953
v -0.2446638 1.2942299 -0.2881718
v 0.23699671 1.1802359 -0.2563953
v 0.23699671 1.2942299 -0.2881718
v -0.2446638 1.2942297 -0.40499148
v 0.23699671 1.2942297 -0.40499148
v 0.23699671 1.3179108 -0.34658173
v -0.2446638 1.3179108 -0.34658173
v -0.2446638 1.2942299 -0.2881718
v 0.23699671 1.2942299 -0.2881718
v 0.2517512 1.007 -0.24646896
v 0.50350124 1.007 -0.25174794
v 0.50350124 0.92754513 -0.16650867
v 0.2517512 0.92754513 -0.16122843
v 0.50350124 0.66284204 0.25996393
v 0.06535512 0.92754513 -0.19954717
v 0.06535512 1.007 -0.28478765
v -0.25174877 1.007 -0.23367555
v 0.25175127 0.662842 0.2652442
v 0.50350124 1.4380898E-09 0.5034994
v 0.2517512 -7.6828E-08 0.5087796
v 0.06535512 -1.15242E-07 0.4704609
v 0.06535513 0.66284204 0.22692545
v -0.25174877 -7.6828E-08 0.521573
v -0.25174877 0.92754525 -0.14843504
v -0.25174874 0.66284204 0.27803758
v -0.5034988 1.4380898E-09 0.5034994
v -0.5034988 0.66284204 0.25996396
v -0.5034988 0.92754513 -0.16650867
v -0.5034988 1.007 -0.25174794
v 0.3776262 1.007 -0.5035024
v 0.50350124 1.007 -0.5035024
v 0.50350124 1.007 -0.25174794
v 0.2517512 1.007 -0.24646896
v 0.28442815 1.007 -0.5035024
v 0.06535512 1.007 -0.28478765
v -0.3326086 1.007 -0.5035024
v -0.25174877 1.007 -0.23367555
v -0.5034988 1.007 -0.25174794
v -0.45848364 1.007 -0.5035024
v -0.5034988 1.007 -0.5035024
v -0.3957899 0.06312892 0.4742575
v -0.4119031 0.00019694859 0.467907
v -0.4026922 0.0003300339 0.45927948
v -0.41652316 0.00019694859 0.568586
v -0.3995362 0.06310313 0.568294
v -0.30478328 0.063066974 0.48037818
v -0.40684444 0.00040181045 0.57856804
v -0.31138572 0.06307672 0.5736476
v -0.29176646 0.00035410025 0.47503802
v -0.3035625 0.00036038095 0.5885467
v -0.29444563 0.00031645453 0.5799187
v -0.038972 -0.019353954 0.5199128
v -0.036843177 0.0031788163 0.47152248
v -0.046584737 0.061584406 0.49257907
v -0.049480308 0.033845406 0.55206555
v -0.037035167 0.08064093 0.5073356
v -0.039670292 0.06440839 0.4861553
v 0.022434467 0.062337223 0.49040312
v -0.012337732 0.04308009 0.55980587
v 0.015715705 -0.021510918 0.5246131
v 0.019027377 0.07905014 0.5107471
v 0.02958654 0.059513718 0.49666938
v 0.024570286 0.03201847 0.55563295
v 0.019228436 0.000897716 0.4765876
v 0.3044938 0.0010106148 0.49015102
v 0.30053917 -0.024216475 0.5442168
v 0.30667555 0.034350723 0.5827026
v 0.23897319 -0.021788195 0.5389254
v 0.3121288 0.06858837 0.5092314
v 0.24136977 0.003578629 0.48444885
v 0.23429498 0.07091975 0.50453794
v 0.23123446 0.036342833 0.5785609
v 0.2993534 0.062599 0.5852081
v 0.30426747 0.08899265 0.52860695
v 0.24115357 0.09078354 0.5247663
v 0.23830679 0.06415579 0.5818697
v -0.14749286 0.044145025 0.5193497
v -0.13776828 -0.013370415 0.501018
v -0.099167585 -0.001440794 0.4729319
v -0.10685192 -0.023057755 0.53458416
v -0.10413467 0.058150306 0.48560736
v -0.06935072 -0.011412934 0.5070309
v -0.10865116 0.031926777 0.56147504
v -0.06690006 0.045598246 0.5285536
v -0.4721514 1.5464802 -0.28157124
v -0.4721514 1.5464802 -0.41159537
v -0.3644751 1.5464802 -0.34658334
v -0.4294872 1.5464802 -0.23890702
v -0.4294872 1.5464802 -0.45425957
v -0.29946303 1.5464802 -0.23890702
v -0.29946303 1.5464802 -0.45425957
v -0.25679883 1.5464802 -0.28157124
v -0.25679883 1.5464802 -0.41159537
v -0.26973113 0.9350317 -0.18966444
v -0.4592191 0.9350317 -0.18966444
v -0.44540757 1.5136914 -0.21253933
v -0.5213945 1.0072832 -0.25184014
v -0.28354266 1.5136914 -0.21253933
v -0.49851954 1.5136914 -0.26565135
v -0.49851954 1.5136914 -0.4275157
v -0.5213946 0.9687316 -0.4413275
v -0.44540757 1.5136917 -0.48062766
v -0.45921895 0.9350317 -0.5035032
v -0.20755577 1.0072832 -0.25184014
v -0.23043069 1.5136914 -0.26565135
v -0.23043069 1.5136914 -0.4275157
v -0.2075556 0.9687316 -0.4413275
v -0.28354266 1.5136917 -0.48062766
v -0.26973128 0.9350317 -0.5035032
v -0.4721514 1.5464802 -0.28157124
v -0.4294872 1.5464802 -0.23890702
v -0.44540757 1.5136914 -0.21253933
v -0.29946303 1.5464802 -0.23890702
v -0.49851954 1.5136914 -0.26565135
v -0.28354266 1.5136914 -0.21253933
v -0.25679883 1.5464802 -0.28157124
v -0.23043069 1.5136914 -0.26565135
v -0.4721514 1.5464802 -0.41159537
v -0.49851954 1.5136914 -0.4275157
v -0.44540757 1.5136917 -0.48062766
v -0.4294872 1.5464802 -0.45425957
v -0.25679883 1.5464802 -0.41159537
v -0.23043069 1.5136914 -0.4275157
v -0.28354266 1.5136917 -0.48062766
v -0.29946303 1.5464802 -0.45425957
v 0.26784793 1.5464802 -0.28157124
v 0.26784793 1.5464802 -0.41159537
v 0.37552422 1.5464802 -0.34658334
v 0.31051204 1.5464802 -0.23890702
v 0.31051204 1.5464802 -0.45425957
v 0.44053638 1.5464802 -0.23890702
v 0.44053638 1.5464802 -0.45425957
v 0.4832005 1.5464802 -0.28157124
v 0.4832005 1.5464802 -0.41159537
v 0.4702682 0.9350317 -0.18966444
v 0.28078023 0.9350317 -0.18966444
v 0.29459175 1.5136914 -0.21253933
v 0.21860486 1.0072832 -0.25184014
v 0.45645666 1.5136914 -0.21253933
v 0.24147978 1.5136914 -0.26565135
v 0.24147978 1.5136914 -0.4275157
v 0.2186047 0.9350317 -0.4413275
v 0.29459175 1.513692 -0.48062766
v 0.28078038 0.9350317 -0.5035032
v 0.5324436 1.0072832 -0.25184014
v 0.50956863 1.5136914 -0.26565135
v 0.50956863 1.5136914 -0.4275157
v 0.5324437 0.9687316 -0.4413275
v 0.45645666 1.513692 -0.48062766
v 0.47026804 0.9350317 -0.5035032
v 0.26784793 1.5464802 -0.28157124
v 0.31051204 1.5464802 -0.23890702
v 0.29459175 1.5136914 -0.21253933
v 0.44053638 1.5464802 -0.23890702
v 0.24147978 1.5136914 -0.26565135
v 0.45645666 1.5136914 -0.21253933
v 0.4832005 1.5464802 -0.28157124
v 0.50956863 1.5136914 -0.26565135
v 0.26784793 1.5464802 -0.41159537
v 0.24147978 1.5136914 -0.4275157
v 0.29459175 1.513692 -0.48062766
v 0.31051204 1.5464802 -0.45425957
v 0.4832005 1.5464802 -0.41159537
v 0.50956863 1.5136914 -0.4275157
v 0.45645666 1.513692 -0.48062766
v 0.44053638 1.5464802 -0.45425957
vt 0.47307286 0.87204736
vt 0.48945212 0.87204736
vt 0.47307286 0.8150465
vt 0.48945212 0.8150465
vt 0.47307286 0.8150465
vt 0.48945212 0.8150465
vt 0.47307286 0.87204736
vt 0.48945212 0.87204736
vt 0.48945212 0.8150465
vt 0.48945212 0.87204736
vt 0.49871296 0.87204736
vt 0.49871296 0.8150465
vt 0.48945212 0.8150465
vt 0.48945212 0.87204736
vt 0.17234823 0.9552251
vt 0.18607749 0.9552251
vt 0.18607749 0.9435704
vt 0.17234823 0.9435704
vt 0.18607749 0.9069838
vt 0.15868464 0.9435704
vt 0.15868464 0.9552251
vt 0.17234823 0.9552251
vt 0.17234823 0.9069838
vt 0.18607749 0.8764816
vt 0.17234823 0.8764816
vt 0.15868464 0.8764816
vt 0.15868464 0.9069838
vt 0.17234823 0.8764816
vt 0.17234823 0.9435704
vt 0.17234823 0.9069838
vt 0.18607749 0.8764816
vt 0.18607749 0.9069838
vt 0.18607749 0.9435704
vt 0.18607749 0.9552251
vt 0.118990704 0.70595217
vt 0.12387921 0.70595217
vt 0.12387921 0.68799907
vt 0.11253357 0.68799907
vt 0.111942045 0.70595217
vt 0.09886999 0.68799907
vt 0.075358346 0.70595217
vt 0.07906818 0.68799907
vt 0.066692516 0.68799907
vt 0.0689956 0.70595217
vt 0.066692516 0.70595217
vt 0.23159075 0.9807658
vt 0.23159075 0.9524366
vt 0.23159075 0.9524366
vt 0.24473709 0.9524366
vt 0.24473709 0.9807658
vt 0.23159075 0.98654795
vt 0.24473709 0.9524366
vt 0.24473709 0.98654795
vt 0.23159075 0.9524366
vt 0.24473709 0.9524366
vt 0.24473709 0.9524366
vt 0.021352435 0.53109384
vt 0.017195083 0.53109384
vt 0.017195083 0.53816324
vt 0.021352435 0.53816324
vt 0.017195083 0.53816324
vt 0.017195083 0.53816324
vt 0.017195083 0.53919125
vt 0.021352435 0.5389885
vt 0.021352435 0.53109384
vt 0.017195083 0.540436
vt 0.017195083 0.53919125
vt 0.021352435 0.53919125
vt 0.017195083 0.53109384
vt 0.0031494044 0.50316566
vt 0.007914947 0.50316566
vt 0.007914947 0.5159969
vt 0.007914947 0.50316566
vt 0.0031494044 0.5159969
vt 0.0031494044 0.50316566
vt 0.0031494044 0.5143679
vt 0.007914947 0.5143679
vt 0.007914947 0.51796925
vt 0.0031494044 0.51796925
vt 0.0031494044 0.5143679
vt 0.007914947 0.5143679
vt 0.017195083 0.53816324
vt 0.017195083 0.53109384
vt 0.017195083 0.53109384
vt 0.021352435 0.53109384
vt 0.017195083 0.53960615
vt 0.021352435 0.53109384
vt 0.021352435 0.53816324
vt 0.021352435 0.53960615
vt 0.49810117 0.80362344
vt 0.48036182 0.80362344
vt 0.48527724 0.8105154
vt 0.48967448 0.80362344
vt 0.47360057 0.80362344
vt 0.47360057 0.80362344
vt 0.48967448 0.80362344
vt 0.48036182 0.80362344
vt 0.49810117 0.80362344
vt 0.47360057 0.7505453
vt 0.48967448 0.7505453
vt 0.48967448 0.79722965
vt 0.49810117 0.7505453
vt 0.47360057 0.79722965
vt 0.49810117 0.79722965
vt 0.48036182 0.79722965
vt 0.48036182 0.7505453
vt 0.47360057 0.79722965
vt 0.47360057 0.7505453
vt 0.48036182 0.7505453
vt 0.48036182 0.79722965
vt 0.49810117 0.79722965
vt 0.49810117 0.7505453
vt 0.48967448 0.79722965
vt 0.48967448 0.7505453
vt 0.49810117 0.80362344
vt 0.48967448 0.80362344
vt 0.48967448 0.79722965
vt 0.47360057 0.80362344
vt 0.49810117 0.79722965
vt 0.47360057 0.79722965
vt 0.48036182 0.80362344
vt 0.48036182 0.79722965
vt 0.48036182 0.80362344
vt 0.48036182 0.79722965
vt 0.47360057 0.79722965
vt 0.47360057 0.80362344
vt 0.49810117 0.80362344
vt 0.49810117 0.79722965
vt 0.48967448 0.79722965
vt 0.48967448 0.80362344
vt 0.49810117 0.80362344
vt 0.48036182 0.80362344
vt 0.48527724 0.8105154
vt 0.48967448 0.80362344
vt 0.47360057 0.80362344
vt 0.47360057 0.80362344
vt 0.48967448 0.80362344
vt 0.48036182 0.80362344
vt 0.49810117 0.80362344
vt 0.47360057 0.7505453
vt 0.48967448 0.7505453
vt 0.48967448 0.79722965
vt 0.49810117 0.7505453
vt 0.47360057 0.79722965
vt 0.49810117 0.79722965
vt 0.48036182 0.79722965
vt 0.48036182 0.7505453
vt 0.47360057 0.79722965
vt 0.47360057 0.7505453
vt 0.48036182 0.7505453
vt 0.48036182 0.79722965
vt 0.49810117 0.79722965
vt 0.49810117 0.7505453
vt 0.48967448 0.79722965
vt 0.48967448 0.7505453
vt 0.49810117 0.80362344
vt 0.48967448 0.80362344
vt 0.48967448 0.79722965
vt 0.47360057 0.80362344
vt 0.49810117 0.79722965
vt 0.47360057 0.79722965
vt 0.48036182 0.80362344
vt 0.48036182 0.79722965
vt 0.48036182 0.80362344
vt 0.48036182 0.79722965
vt 0.47360057 0.79722965
vt 0.47360057 0.80362344
vt 0.49810117 0.80362344
vt 0.49810117 0.79722965
vt 0.48967448 0.79722965
vt 0.48967448 0.80362344
vn -0 0.26851833 -0.96327454
vn -0 0.26851833 -0.96327454
vn -0 0.26851833 -0.96327454
vn -0 0.26851833 -0.96327454
vn -0 0.26851833 0.96327454
vn -0 0.26851833 0.96327454
vn -0 0.26851833 0.96327454
vn -0 0.26851833 0.96327454
vn -0 0.92673177 -0.37572384
vn -0 0.92673177 -0.37572384
vn -0 1 -1.5764008E-06
vn -0 1 -1.5764008E-06
vn -0 0.9267329 0.37572086
vn -0 0.9267329 0.37572086
vn -0.037352465 0.9209536 0.3878779
vn 0.007594796 0.9320901 0.36214665
vn 0.012756593 0.7936427 0.6082504
vn -0.05515201 0.7964752 0.6021508
vn 0.016221086 0.6337227 0.7733902
vn -0.013520263 0.788884 0.6143934
vn -0.006530719 0.9444107 0.3287032
vn 0.018164922 0.9209955 0.38914976
vn -0.071101315 0.61938673 0.7818597
vn 0.019683477 0.3448036 0.93846846
vn -0.08322785 0.34367386 0.9353937
vn -0.020999797 0.34479433 0.93844336
vn -0.016666133 0.65054566 0.75928426
vn 0.0403477 0.34458953 0.937886
vn 0.026721165 0.7975146 0.60270756
vn 0.034496624 0.61990863 0.78391534
vn -0.06723503 0.34409004 0.93652636
vn -0.05513682 0.63806343 0.7680072
vn -0.043769445 0.79143745 0.60968095
vn -0.025244825 0.9357912 0.35165
vn -0 1 0
vn -0 1 0
vn 0.007594796 0.9320901 0.36214665
vn -0.037352465 0.9209536 0.3878779
vn -0 1 0
vn -0.006530719 0.9444107 0.3287032
vn -0 1 0
vn 0.018164922 0.9209955 0.38914976
vn -0.025244825 0.9357912 0.35165
vn -0 1 0
vn -0 1 0
vn -0.6494175 0.75649977 -0.07723322
vn -0.8780065 0.26735544 -0.39702073
vn -0.6652192 0.24161448 -0.70647436
vn -0.9140759 0.24570668 0.32263523
vn -0.5269637 0.6878393 0.49918556
vn 0.6381683 0.76931334 0.02996938
vn -0.42677668 0.20778145 0.8801639
vn 0.4693326 0.68934005 0.55184895
vn 0.9715765 0.23230343 0.045542527
vn 0.3308915 0.2437385 0.91164815
vn 0.88062274 0.25863102 0.3970057
vn -0.7261423 -0.44464347 0.52441347
vn -0.9860539 -0.1284724 -0.10579535
vn -0.8955296 0.4442157 -0.026439006
vn -0.7685619 -0.024033003 0.63932383
vn -0.319033 0.9444272 0.07921622
vn -0.29341373 0.77290034 -0.562613
vn 0.3524889 0.7543131 -0.5538623
vn -0.04776201 0.21426028 0.97560817
vn 0.6218359 -0.47927114 0.61937004
vn 0.3587316 0.926232 0.115784585
vn 0.9035385 0.42639855 0.042455044
vn 0.6994214 -0.044874452 0.7132993
vn 0.98565197 -0.1687903 -0.00015591038
vn 0.7616773 0.10596006 -0.63923407
vn 0.6553764 -0.4706072 0.5907712
vn 0.6453823 -0.22392786 0.7302999
vn -0.74973583 -0.43047917 0.5025772
vn 0.7380107 0.3816267 -0.5565081
vn -0.6607433 0.1397659 -0.73748475
vn -0.6525094 0.41010416 -0.6372174
vn -0.7267866 -0.19710241 0.6579756
vn 0.45974302 0.4488289 0.76628256
vn 0.528229 0.84527946 -0.080478825
vn -0.4749775 0.86873573 -0.14033693
vn -0.52713645 0.46952873 0.7082866
vn -0.8700319 0.48480928 0.0894683
vn -0.9827655 -0.13689162 -0.12422832
vn 0.11772569 0.22640651 -0.9668923
vn -0.08752749 -0.4314712 0.89787054
vn 0.0372692 0.7824411 -0.62160844
vn 0.9952625 -0.07702923 0.05932255
vn -0.08261206 0.22945975 0.96980596
vn 0.80745584 0.52465737 0.2697216
vn -0 1 0
vn -0 1 0
vn -0 1 0
vn -0 1 0
vn -0 1 0
vn -0 1 0
vn -0 1 0
vn -0 1 0
vn -0 1 0
vn 0.2669675 0.04548643 0.9626315
vn -0.2669675 0.04548643 0.9626315
vn -0.370898 0.04699063 0.9274839
vn -0.8972586 0.04985078 0.43868205
vn 0.370898 0.04699063 0.9274839
vn -0.9203571 0.04962015 0.38791832
vn -0.9207314 0.048522916 -0.38716808
vn -0.8888636 0.048651185 -0.45558155
vn -0.3762911 0.04622765 -0.92534745
vn -0.32872757 0.045718662 -0.94331753
vn 0.8972586 0.049850788 0.4386821
vn 0.9203571 0.04962015 0.38791838
vn 0.9207314 0.048522916 -0.38716808
vn 0.8888636 0.048651185 -0.45558155
vn 0.3762911 0.04622765 -0.92534745
vn 0.32872757 0.045718662 -0.94331753
vn -0.6876488 0.6784828 0.25845763
vn -0.25845596 0.67847943 0.6876527
vn -0.29361796 0.68156826 0.67026347
vn 0.25845596 0.67847943 0.68765265
vn -0.67026216 0.68157077 0.2936151
vn 0.293618 0.6815683 0.67026347
vn 0.6876488 0.6784828 0.25845763
vn 0.6702622 0.6815708 0.29361507
vn -0.6876479 0.6784849 -0.25845438
vn -0.67025995 0.68157345 -0.29361385
vn -0.2936163 0.68157494 -0.6702575
vn -0.25845513 0.67848635 -0.68764603
vn 0.6876479 0.6784849 -0.25845438
vn 0.67025995 0.68157345 -0.29361385
vn 0.2936163 0.68157494 -0.6702575
vn 0.25845513 0.67848635 -0.68764603
vn -0 1 0
vn -0 1 0
vn -0 1 0
vn -0 1 0
vn -0 1 0
vn -0 1 0
vn -0 1 0
vn -0 1 0
vn -0 1 0
vn 0.2669675 0.04548643 0.9626315
vn -0.2669675 0.04548643 0.9626315
vn -0.370898 0.04699063 0.9274839
vn -0.90620184 0.0491571 0.41997817
vn 0.370898 0.04699063 0.9274839
vn -0.9211516 0.048924204 0.3861167
vn -0.92183894 0.0469381 -0.38472036
vn -0.8980737 0.04706728 -0.43731955
vn -0.3807033 0.045597143 -0.92357236
vn -0.38381457 0.045620415 -0.9222826
vn 0.8972586 0.049850788 0.4386821
vn 0.9203571 0.04962015 0.38791838
vn 0.9207313 0.048522916 -0.3871685
vn 0.8888636 0.048651174 -0.4555815
vn 0.3762906 0.04622762 -0.9253477
vn 0.32872754 0.045718636 -0.94331753
vn -0.68764895 0.6784826 0.25845754
vn -0.25845644 0.67847925 0.6876526
vn -0.29361793 0.68156815 0.6702637
vn 0.25845644 0.67847925 0.6876526
vn -0.67026234 0.68157065 0.29361507
vn 0.29361793 0.68156815 0.6702637
vn 0.68764895 0.6784826 0.25845754
vn 0.67026234 0.68157065 0.29361507
vn -0.6876479 0.67848533 -0.25845316
vn -0.6702602 0.681574 -0.29361224
vn -0.29361665 0.68157744 -0.67025477
vn -0.25845551 0.6784891 -0.6876433
vn 0.6876479 0.67848533 -0.25845316
vn 0.6702602 0.681574 -0.29361224
vn 0.29361665 0.68157744 -0.67025477
vn 0.25845551 0.6784891 -0.6876433
g step1_wall_0
f 3/3/3 2/2/2 1/1/1
f 2/2/2 3/3/3 4/4/4
f 7/7/7 6/6/6 5/5/5
f 6/6/6 7/7/7 8/8/8
f 11/11/11 10/10/10 9/9/9
f 9/9/9 12/12/12 11/11/11
f 12/12/12 13/13/13 11/11/11
f 13/13/13 14/14/14 11/11/11
f 17/17/17 16/16/16 15/15/15
f 15/15/15 18/18/18 17/17/17
f 19/19/19 17/17/17 18/18/18
f 20/20/20 18/18/18 15/15/15
f 15/15/15 21/21/21 20/20/20
f 20/20/20 21/21/21 22/22/22
f 18/18/18 23/23/23 19/19/19
f 19/19/19 23/23/23 24/24/24
f 25/25/25 24/24/24 23/23/23
f 26/26/26 25/25/25 23/23/23
f 27/27/27 23/23/23 18/18/18
f 23/23/23 27/27/27 26/26/26
f 18/18/18 20/20/20 27/27/27
f 28/28/28 26/26/26 27/27/27
f 22/22/22 29/29/29 20/20/20
f 27/27/27 20/20/20 29/29/29
f 27/27/27 30/30/30 28/28/28
f 29/29/29 30/30/30 27/27/27
f 31/31/31 28/28/28 30/30/30
f 30/30/30 32/32/32 31/31/31
f 32/32/32 30/30/30 29/29/29
f 29/29/29 33/33/33 32/32/32
f 33/33/33 29/29/29 22/22/22
f 22/22/22 34/34/34 33/33/33
f 37/37/37 36/36/36 35/35/35
f 35/35/35 38/38/38 37/37/37
f 38/38/38 35/35/35 39/39/39
f 39/39/39 40/40/40 38/38/38
f 41/41/41 40/40/40 39/39/39
f 41/41/41 42/42/42 40/40/40
f 42/42/42 41/41/41 43/43/43
f 41/41/41 44/44/44 43/43/43
f 43/43/43 44/44/44 45/45/45
f 48/48/48 47/47/47 46/46/46
f 46/46/46 47/47/47 49/49/49
f 49/49/49 50/50/50 46/46/46
f 51/51/51 46/46/46 50/50/50
f 49/49/49 52/52/52 50/50/50
f 50/50/50 53/53/53 51/51/51
f 52/52/52 53/53/53 50/50/50
f 54/54/54 51/51/51 53/53/53
f 52/52/52 55/55/55 53/53/53
f 53/53/53 56/56/56 54/54/54
f 56/56/56 53/53/53 55/55/55
f 59/59/59 58/58/58 57/57/57
f 57/57/57 60/60/60 59/59/59
f 60/60/60 61/61/61 59/59/59
f 59/59/59 61/61/61 62/62/62
f 63/63/63 62/62/62 61/61/61
f 60/60/60 57/57/57 64/64/64
f 60/60/60 64/64/64 61/61/61
f 57/57/57 65/65/65 64/64/64
f 61/61/61 66/66/66 63/63/63
f 61/61/61 64/64/64 66/66/66
f 66/66/66 67/67/67 63/63/63
f 67/67/67 66/66/66 64/64/64
f 68/68/68 64/64/64 65/65/65
f 67/67/67 64/64/64 68/68/68
f 68/68/68 65/65/65 69/69/69
f 69/69/69 67/67/67 68/68/68
f 72/72/72 71/71/71 70/70/70
f 73/73/73 71/71/71 72/72/72
f 70/70/70 74/74/74 72/72/72
f 74/74/74 70/70/70 75/75/75
f 76/76/76 75/75/75 73/73/73
f 75/75/75 76/76/76 74/74/74
f 73/73/73 72/72/72 77/77/77
f 73/73/73 77/77/77 76/76/76
f 74/74/74 78/78/78 72/72/72
f 77/77/77 72/72/72 78/78/78
f 76/76/76 79/79/79 74/74/74
f 74/74/74 79/79/79 78/78/78
f 76/76/76 80/80/80 79/79/79
f 76/76/76 77/77/77 80/80/80
f 78/78/78 79/79/79 80/80/80
f 80/80/80 77/77/77 81/81/81
f 80/80/80 81/81/81 78/78/78
f 78/78/78 81/81/81 77/77/77
f 84/84/84 83/83/83 82/82/82
f 82/82/82 83/83/83 85/85/85
f 84/84/84 82/82/82 86/86/86
f 87/87/87 84/84/84 86/86/86
f 85/85/85 88/88/88 82/82/82
f 86/86/86 82/82/82 88/88/88
f 88/88/88 85/85/85 87/87/87
f 86/86/86 89/89/89 87/87/87
f 87/87/87 89/89/89 88/88/88
f 88/88/88 89/89/89 86/86/86
f 92/92/92 91/91/91 90/90/90
f 93/93/93 92/92/92 90/90/90
f 94/94/94 91/91/91 92/92/92
f 95/95/95 92/92/92 93/93/93
f 96/96/96 94/94/94 92/92/92
f 97/97/97 92/92/92 95/95/95
f 96/96/96 92/92/92 98/98/98
f 98/98/98 92/92/92 97/97/97
f 101/101/101 100/100/100 99/99/99
f 101/101/101 102/102/102 100/100/100
f 99/99/99 103/103/103 101/101/101
f 102/102/102 101/101/101 104/104/104
f 102/102/102 104/104/104 105/105/105
f 105/105/105 106/106/106 102/102/102
f 106/106/106 105/105/105 107/107/107
f 108/108/108 106/106/106 107/107/107
f 99/99/99 109/109/109 103/103/103
f 109/109/109 110/110/110 103/103/103
f 111/111/111 110/110/110 109/109/109
f 109/109/109 112/112/112 111/111/111
f 108/108/108 107/107/107 113/113/113
f 113/113/113 111/111/111 112/112/112
f 113/113/113 114/114/114 108/108/108
f 112/112/112 114/114/114 113/113/113
f 117/117/117 116/116/116 115/115/115
f 116/116/116 117/117/117 118/118/118
f 115/115/115 119/119/119 117/117/117
f 117/117/117 120/120/120 118/118/118
f 121/121/121 118/118/118 120/120/120
f 122/122/122 121/121/121 120/120/120
f 119/119/119 115/115/115 123/123/123
f 123/123/123 124/124/124 119/119/119
f 125/125/125 124/124/124 123/123/123
f 126/126/126 125/125/125 123/123/123
f 121/121/121 122/122/122 127/127/127
f 122/122/122 128/128/128 127/127/127
f 129/129/129 125/125/125 126/126/126
f 127/127/127 128/128/128 129/129/129
f 130/130/130 129/129/129 126/126/126
f 129/129/129 130/130/130 127/127/127
f 133/133/133 132/132/132 131/131/131
f 134/134/134 133/133/133 131/131/131
f 135/135/135 132/132/132 133/133/133
f 136/136/136 133/133/133 134/134/134
f 137/137/137 135/135/135 133/133/133
f 138/138/138 133/133/133 136/136/136
f 137/137/137 133/133/133 139/139/139
f 139/139/139 133/133/133 138/138/138
f 142/142/142 141/141/141 140/140/140
f 142/142/142 143/143/143 141/141/141
f 140/140/140 144/144/144 142/142/142
f 143/143/143 142/142/142 145/145/145
f 143/143/143 145/145/145 146/146/146
f 147/147/147 143/143/143 146/146/146
f 147/147/147 146/146/146 148/148/148
f 148/148/148 149/149/149 147/147/147
f 140/140/140 150/150/150 144/144/144
f 150/150/150 151/151/151 144/144/144
f 152/152/152 151/151/151 150/150/150
f 150/150/150 153/153/153 152/152/152
f 149/149/149 148/148/148 154/154/154
f 154/154/154 152/152/152 153/153/153
f 154/154/154 155/155/155 149/149/149
f 153/153/153 155/155/155 154/154/154
f 158/158/158 157/157/157 156/156/156
f 159/159/159 157/157/157 158/158/158
f 156/156/156 160/160/160 158/158/158
f 158/158/158 161/161/161 159/159/159
f 162/162/162 159/159/159 161/161/161
f 163/163/163 162/162/162 161/161/161
f 160/160/160 156/156/156 164/164/164
f 164/164/164 165/165/165 160/160/160
f 166/166/166 165/165/165 164/164/164
f 167/167/167 166/166/166 164/164/164
f 162/162/162 163/163/163 168/168/168
f 163/163/163 169/169/169 168/168/168
f 170/170/170 166/166/166 167/167/167
f 168/168/168 169/169/169 170/170/170
f 171/171/171 170/170/170 167/167/167
f 170/170/170 171/171/171 168/168/168
