g step1_wall_C
v -0.255469 1.5136914 -0.19568188
v -0.1699261 0.90000623 -0.2399252
v -0.23992056 0.90000594 -0.16993034
v -0.19567777 1.5136914 -0.25547317
v -0.16992594 0.9258652 -0.45324215
v -0.19567777 1.5136914 -0.43769327
v -0.23352055 1.5464802 -0.41484487
v -0.23352055 1.5464802 -0.27832118
v -0.27831742 1.5464802 -0.23352426
v -0.3465794 1.5464802 -0.34658307
v -0.19567777 1.5136914 -0.43769327
v -0.2399207 0.9258649 -0.523237
v -0.16992594 0.9258652 -0.45324215
v -0.255469 1.5136924 -0.4974845
v -0.4532381 0.9258649 -0.523237
v -0.4376898 1.5136924 -0.4974845
v -0.41484135 1.5464802 -0.45964175
v -0.27831742 1.5464802 -0.45964175
v -0.23352055 1.5464802 -0.41484487
v -0.3465794 1.5464802 -0.34658307
v -0.4376898 1.5136924 -0.4974845
v -0.52323294 0.9258652 -0.45324215
v -0.4532381 0.9258649 -0.523237
v -0.4974811 1.5136914 -0.43769327
v -0.5232327 0.90000623 -0.2399252
v -0.4974811 1.5136914 -0.25547317
v -0.4596382 1.5464802 -0.27832118
v -0.45963815 1.5464802 -0.41484487
v -0.41484135 1.5464802 -0.45964175
v -0.3465794 1.5464802 -0.34658307
v -0.1656171 0.92754495 -0.5034999
v -0.29581946 1.0069999 -0.29633728
v -0.29581848 1.0070003 -0.50350004
v -0.1845819 0.92748487 -0.18357092
v 0.1597329 0.6628423 -0.50349987
v -0.503498 0.92754614 -0.16650853
v -0.5034978 1.0069999 -0.29633445
v -0.503498 0.6628429 0.15637597
v 0.18806554 0.662615 -0.12653923
v 0.5243304 -7.160548E-08 -0.11947738
v 0.503502 5.6034746E-09 -0.50350016
v 0.513481 -1.5792843E-08 0.30547306
v 0.094773315 0.6623886 0.1239617
v 0.4501179 -1.9572898E-08 0.44777572
v 0.23073289 -5.9732656E-08 0.5447216
v -0.16806433 0.6626157 0.18591021
v -0.05903694 -1.0110359E-07 0.5553607
v -0.503498 -2.2008685E-08 0.5035
v 0.4509827 0.008003563 0.29888698
v 0.5152683 0.07798887 0.3586398
v 0.5109884 0.008003551 0.37039885
v 0.4633062 0.07798893 0.29671398
v 0.59487885 0.077988796 0.34460244
v 0.5109884 0.008003551 0.37039885
v 0.5152683 0.07798887 0.3586398
v 0.6029223 0.008003455 0.35418847
v 0.622527 0.07798883 0.2686391
v 0.6348505 0.008003526 0.26646608
v 0.5503194 0.07798883 0.2067133
v 0.55459934 0.0080035 0.19495417
v 0.47070903 0.0779889 0.22075072
v 0.46266514 0.008003577 0.21116462
v 0.59487885 0.077988796 0.34460244
v 0.5503194 0.07798883 0.2067133
v 0.622527 0.07798883 0.2686391
v 0.4633062 0.07798893 0.29671398
v 0.5152683 0.07798887 0.3586398
v 0.47070903 0.0779889 0.22075072
v 0.46698502 -0.0036977525 0.47647274
v 0.4997657 0.06043966 0.54676354
v 0.4968622 -0.0036977849 0.5547408
v 0.4738934 0.06043972 0.47898725
v 0.5401821 -0.0036978084 0.43572065
v 0.5372787 0.060439646 0.44369796
v 0.5808893 -0.0036977914 0.48423377
v 0.5725292 0.06043967 0.48570785
v 0.5592293 -0.0036978323 0.54374385
v 0.5537728 0.060439624 0.5372407
v 0.4968622 -0.0036977849 0.5547408
v 0.4997657 0.06043966 0.54676354
v 0.5537728 0.060439624 0.5372407
v 0.5372787 0.060439646 0.44369796
v 0.5725292 0.06043967 0.48570785
v 0.4738934 0.06043972 0.47898725
v 0.4997657 0.06043966 0.54676354
v 0.534699 0.0016458341 -0.34181416
v 0.5280021 0.045125786 -0.37979522
v 0.5642431 0.0016458062 -0.3666045
v 0.557546 0.0016458367 -0.40458566
v 0.5213049 0.0016458373 -0.41777626
v 0.5192141 -0.0011821142 -0.43479553
v 0.5092774 0.063331254 -0.49114984
v 0.5730276 -0.0011821607 -0.47157815
v 0.5630908 -0.0011821197 -0.52793264
v 0.509318 -0.0011821189 -0.5475041
v -0.2882167 -0.007655203 0.5125743
v -0.29600248 0.046253044 0.5646526
v -0.31281027 -0.007655205 0.5676163
v -0.27724597 0.046253122 0.5256487
v -0.26075193 0.046253003 0.60666245
v -0.31281027 -0.007655205 0.5676163
v -0.29600248 0.046253044 0.5646526
v -0.2665893 -0.0076552653 0.6227004
v -0.20674522 0.046253044 0.5971398
v -0.19577418 -0.007655226 0.61021394
v -0.18798845 0.046253044 0.5409089
v -0.17118062 -0.007655223 0.537945
v -0.26075193 0.046253003 0.60666245
v -0.18798845 0.046253044 0.5409089
v -0.20674522 0.046253044 0.5971398
v -0.27724597 0.046253122 0.5256487
v -0.29600248 0.046253044 0.5646526
v -0.48972857 -0.0011821178 0.5258377
v -0.43337432 0.063331254 0.5159011
v -0.4529458 -0.0011821586 0.57965124
v -0.3965915 -0.0011821197 0.5697144
v -0.37702006 -0.0011821174 0.5159417
v -0.50349784 1.0069999 -0.5034995
v -0.29581848 1.0070003 -0.50350004
v -0.29581946 1.0069999 -0.29633728
v -0.5034978 1.0069999 -0.29633445
v -0.43768978 1.5136913 -0.19568188
v -0.23992056 0.90000594 -0.16993034
v -0.45323828 0.90000594 -0.16993034
v -0.255469 1.5136914 -0.19568188
v -0.5232327 0.90000623 -0.2399252
v -0.4974811 1.5136914 -0.25547317
v -0.27831742 1.5464802 -0.23352426
v -0.4596382 1.5464802 -0.27832118
v -0.41484135 1.5464802 -0.23352426
v -0.3465794 1.5464802 -0.34658307
vt 0.2548095 0.9686952
vt 0.26194614 0.9235237
vt 0.2548095 0.9235237
vt 0.26194614 0.9686952
vt 0.2806704 0.9235237
vt 0.2806704 0.9686952
vt 0.2806704 0.9748818
vt 0.26194614 0.9748818
vt 0.2548095 0.9748818
vt 0.26713446 0.98155046
vt 0.2806704 0.9686952
vt 0.27177587 0.9235237
vt 0.2806704 0.9235237
vt 0.27177587 0.9686952
vt 0.2548095 0.9235237
vt 0.2548095 0.9686952
vt 0.2548095 0.9748818
vt 0.27177587 0.9748818
vt 0.2806704 0.9748818
vt 0.26713446 0.98155046
vt 0.2548095 0.9686952
vt 0.26194614 0.9235237
vt 0.2548095 0.9235237
vt 0.26194614 0.9686952
vt 0.2806704 0.9235237
vt 0.2806704 0.9686952
vt 0.2806704 0.9748818
vt 0.26194614 0.9748818
vt 0.2548095 0.9748818
vt 0.26713446 0.98155046
vt 0.08644288 0.87009
vt 0.061376777 0.8968882
vt 0.07417243 0.8968882
vt 0.06163615 0.87009
vt 0.1086291 0.8087821
vt 0.031761207 0.87009
vt 0.043631833 0.8968882
vt 0.011202671 0.8087821
vt 0.083171986 0.8087821
vt 0.096858755 0.7637638
vt 0.11403183 0.7637638
vt 0.071689226 0.7637638
vt 0.061252005 0.8087821
vt 0.06420337 0.7637638
vt 0.047159217 0.7637638
vt 0.034650527 0.8087821
vt 0.029102951 0.7637638
vt 0.0042136065 0.7637638
vt 0.5909425 0.91500294
vt 0.59035456 0.9079751
vt 0.59035456 0.91500294
vt 0.5909425 0.9079751
vt 0.5932941 0.9079751
vt 0.59388196 0.91500294
vt 0.59388196 0.9079751
vt 0.5932941 0.91500294
vt 0.5927062 0.9079751
vt 0.5927062 0.91500294
vt 0.59211826 0.9079751
vt 0.59211826 0.91500294
vt 0.5915304 0.9079751
vt 0.5915304 0.91500294
vt 0.59241223 0.91500294
vt 0.5908848 0.90973204
vt 0.5908848 0.9132459
vt 0.59393966 0.90973204
vt 0.59393966 0.9132459
vt 0.59241223 0.9079751
vt 0.57744503 0.89335984
vt 0.5764405 0.8818687
vt 0.5764405 0.89335984
vt 0.57744503 0.8818687
vt 0.57844955 0.89335984
vt 0.57844955 0.8818687
vt 0.57911927 0.89335984
vt 0.57911927 0.8818687
vt 0.5797889 0.89335984
vt 0.5797889 0.8818687
vt 0.5804586 0.89335984
vt 0.5804586 0.8818687
vt 0.5787844 0.89335984
vt 0.57704455 0.8847415
vt 0.57704455 0.89048713
vt 0.57965434 0.8833051
vt 0.58052427 0.89048713
vt 0.58671117 0.89345586
vt 0.5908188 0.90494704
vt 0.58876497 0.89345586
vt 0.5908188 0.89345586
vt 0.5928727 0.89345586
vt 0.59313995 0.9075851
vt 0.59431577 0.91461295
vt 0.5937279 0.9075851
vt 0.59431577 0.9075851
vt 0.5949037 0.9075851
vt 0.5803929 0.8988703
vt 0.58105564 0.91036147
vt 0.58105564 0.8988703
vt 0.5803929 0.91036147
vt 0.5777418 0.91036147
vt 0.57707906 0.89887035
vt 0.57707906 0.91036147
vt 0.5777418 0.89887035
vt 0.5784046 0.91036147
vt 0.5784046 0.8988703
vt 0.57906735 0.91036147
vt 0.57906735 0.8988703
vt 0.57939875 0.9106388
vt 0.57767683 0.90202045
vt 0.57767683 0.9077661
vt 0.58112067 0.90202045
vt 0.58112067 0.9077661
vt 0.59313995 0.9075851
vt 0.59431577 0.91461295
vt 0.5937279 0.9075851
vt 0.59431577 0.9075851
vt 0.5949037 0.9075851
vt 0.02267214 0.9013923
vt 0.03336876 0.9013922
vt 0.033408284 0.8968092
vt 0.022711707 0.8968092
vt 0.27177587 0.9686952
vt 0.2548095 0.9235237
vt 0.27177587 0.9235237
vt 0.2548095 0.9686952
vt 0.2806704 0.9235237
vt 0.2806704 0.9686952
vt 0.2548095 0.9748818
vt 0.2806704 0.9748818
vt 0.27177587 0.9748818
vt 0.26713446 0.98155046
vn -0 1 -0.00015896125
vn -0 1 -0.00015896125
vn -0 1 -0.00015896125
vn -0 1 -0.00015896125
vn -0 1 -0.00015896125
vn -0 1 -0.00015896125
vn -0 1 -0.00015896125
vn -0 1 -0.00015896125
vn -0 1 -0.00015896125
vn -0 1 -0.00015896125
vn -0 1 -0.00015896125
vn -0 1 -0.00015896125
vn -0 1 -0.00015896125
vn -0 1 -0.00015896125
vn -0 1 -0.00015896125
vn -0 1 -0.00015896125
vn -0 1 -0.00015896125
vn -0 1 -0.00015896125
vn -0 1 -0.00015896125
vn -0 1 -0.00015896125
vn -0 1 -0.00015896125
vn -0 1 -0.00015896125
vn -0 1 -0.00015896125
vn -0 1 -0.00015896125
vn -0 1 -0.00015896125
vn -0 1 -0.00015896125
vn -0 1 -0.00015896125
vn -0 1 -0.00015896125
vn -0 1 -0.00015896125
vn -0 1 -0.00015896125
vn -0 1 -0.00015896125
vn -0 1 -0.00015896125
vn -0 1 -0.00015896125
vn -0 1 -0.00015896125
vn -0 1 -0.00015896125
vn -0 1 -0.00015896125
vn -0 1 -0.00015896125
vn -0 1 -0.00015896125
vn -0 1 -0.00015896125
vn -0 1 -0.00015896125
vn -0 1 -0.00015896125
vn -0 1 -0.00015896125
vn -0 1 -0.00015896125
vn -0 1 -0.00015896125
vn -0 1 -0.00015896125
vn -0 1 -0.00015896125
vn -0 1 -0.00015896125
vn -0 1 -0.00015896125
vn -0 1 -0.00015896125
vn -0 1 -0.00015896125
vn -0 1 -0.00015896125
vn -0 1 -0.00015896125
vn -0 1 -0.00015896125
vn -0 1 -0.00015896125
vn -0 1 -0.00015896125
vn -0 1 -0.00015896125
vn -0 1 -0.00015896125
vn -0 1 -0.00015896125
vn -0 1 -0.00015896125
vn -0 1 -0.00015896125
vn -0 1 -0.00015896125
vn -0 1 -0.00015896125
vn -0 1 -0.00015896125
vn -0 1 -0.00015896125
vn -0 1 -0.00015896125
vn -0 1 -0.00015896125
vn -0 1 -0.00015896125
vn -0 1 -0.00015896125
vn -0 1 -0.00015896125
vn -0 1 -0.00015896125
vn -0 1 -0.00015896125
vn -0 1 -0.00015896125
vn -0 1 -0.00015896125
vn -0 1 -0.00015896125
vn -0 1 -0.00015896125
vn -0 1 -0.00015896125
vn -0 1 -0.00015896125
vn -0 1 -0.00015896125
vn -0 1 -0.00015896125
vn -0 1 -0.00015896125
vn -0 1 -0.00015896125
vn -0 1 -0.00015896125
vn -0 1 -0.00015896125
vn -0 1 -0.00015896125
vn -0 1 -0.00015896125
vn -0 1 -0.00015896125
vn -0 1 -0.00015896125
vn -0 1 -0.00015896125
vn -0 1 -0.00015896125
vn -0 1 -0.00015896125
vn -0 1 -0.00015896125
vn -0 1 -0.00015896125
vn -0 1 -0.00015896125
vn -0 1 -0.00015896125
vn -0 1 -0.00015896125
vn -0 1 -0.00015896125
vn -0 1 -0.00015896125
vn -0 1 -0.00015896125
vn -0 1 -0.00015896125
vn -0 1 -0.00015896125
vn -0 1 -0.00015896125
vn -0 1 -0.00015896125
vn -0 1 -0.00015896125
vn -0 1 -0.00015896125
vn -0 1 -0.00015896125
vn -0 1 -0.00015896125
vn -0 1 -0.00015896125
vn -0 1 -0.00015896125
vn -0 1 -0.00015896125
vn -0 1 -0.00015896125
vn -0 1 -0.00015896125
vn -0 1 -0.00015896125
vn -0 1 -0.00015896125
vn -0 1 -0.00015896125
vn -0 1 -0.00015896125
vn -0 1 -0.00015896125
vn -0 1 -0.00015896125
vn -0 1 -0.00015896125
vn -0 1 -0.00015896125
vn -0 1 -0.00015896125
vn -0 1 -0.00015896125
vn -0 1 -0.00015896125
vn -0 1 -0.00015896125
vn -0 1 -0.00015896125
vn -0 1 -0.00015896125
vn -0 1 -0.00015896125
vn -0 1 -0.00015896125
vn -0 1 -0.00015896125
vn -0 1 -0.00015896125
vn -0 1 -0.00015896125
vn -0 1 -0.00015896125
g step1_wall_C_0
f 3/3/3 2/2/2 1/1/1
f 4/4/4 1/1/1 2/2/2
f 2/2/2 5/5/5 4/4/4
f 6/6/6 4/4/4 5/5/5
f 6/6/6 7/7/7 4/4/4
f 4/4/4 8/8/8 1/1/1
f 8/8/8 4/4/4 7/7/7
f 9/9/9 1/1/1 8/8/8
f 7/7/7 10/10/10 8/8/8
f 8/8/8 10/10/10 9/9/9
f 13/13/13 12/12/12 11/11/11
f 14/14/14 11/11/11 12/12/12
f 12/12/12 15/15/15 14/14/14
f 16/16/16 14/14/14 15/15/15
f 16/16/16 17/17/17 14/14/14
f 14/14/14 18/18/18 11/11/11
f 18/18/18 14/14/14 17/17/17
f 19/19/19 11/11/11 18/18/18
f 18/18/18 17/17/17 20/20/20
f 18/18/18 20/20/20 19/19/19
f 23/23/23 22/22/22 21/21/21
f 24/24/24 21/21/21 22/22/22
f 22/22/22 25/25/25 24/24/24
f 26/26/26 24/24/24 25/25/25
f 26/26/26 27/27/27 24/24/24
f 24/24/24 28/28/28 21/21/21
f 28/28/28 24/24/24 27/27/27
f 29/29/29 21/21/21 28/28/28
f 30/30/30 28/28/28 27/27/27
f 29/29/29 28/28/28 30/30/30
f 33/33/33 32/32/32 31/31/31
f 34/34/34 31/31/31 32/32/32
f 31/31/31 34/34/34 35/35/35
f 34/34/34 32/32/32 36/36/36
f 37/37/37 36/36/36 32/32/32
f 36/36/36 38/38/38 34/34/34
f 34/34/34 39/39/39 35/35/35
f 35/35/35 39/39/39 40/40/40
f 41/41/41 35/35/35 40/40/40
f 40/40/40 39/39/39 42/42/42
f 39/39/39 43/43/43 42/42/42
f 39/39/39 34/34/34 43/43/43
f 43/43/43 44/44/44 42/42/42
f 45/45/45 44/44/44 43/43/43
f 46/46/46 43/43/43 34/34/34
f 43/43/43 46/46/46 45/45/45
f 38/38/38 46/46/46 34/34/34
f 46/46/46 47/47/47 45/45/45
f 46/46/46 38/38/38 47/47/47
f 38/38/38 48/48/48 47/47/47
f 51/51/51 50/50/50 49/49/49
f 52/52/52 49/49/49 50/50/50
f 55/55/55 54/54/54 53/53/53
f 56/56/56 53/53/53 54/54/54
f 53/53/53 56/56/56 57/57/57
f 58/58/58 57/57/57 56/56/56
f 57/57/57 58/58/58 59/59/59
f 60/60/60 59/59/59 58/58/58
f 59/59/59 60/60/60 61/61/61
f 62/62/62 61/61/61 60/60/60
f 65/65/65 64/64/64 63/63/63
f 64/64/64 66/66/66 63/63/63
f 66/66/66 67/67/67 63/63/63
f 68/68/68 66/66/66 64/64/64
f 71/71/71 70/70/70 69/69/69
f 72/72/72 69/69/69 70/70/70
f 69/69/69 72/72/72 73/73/73
f 74/74/74 73/73/73 72/72/72
f 73/73/73 74/74/74 75/75/75
f 76/76/76 75/75/75 74/74/74
f 75/75/75 76/76/76 77/77/77
f 78/78/78 77/77/77 76/76/76
f 77/77/77 78/78/78 79/79/79
f 80/80/80 79/79/79 78/78/78
f 83/83/83 82/82/82 81/81/81
f 82/82/82 84/84/84 81/81/81
f 84/84/84 85/85/85 81/81/81
f 88/88/88 87/87/87 86/86/86
f 89/89/89 87/87/87 88/88/88
f 90/90/90 87/87/87 89/89/89
f 93/93/93 92/92/92 91/91/91
f 94/94/94 92/92/92 93/93/93
f 95/95/95 92/92/92 94/94/94
f 98/98/98 97/97/97 96/96/96
f 99/99/99 96/96/96 97/97/97
f 102/102/102 101/101/101 100/100/100
f 103/103/103 100/100/100 101/101/101
f 100/100/100 103/103/103 104/104/104
f 105/105/105 104/104/104 103/103/103
f 104/104/104 105/105/105 106/106/106
f 107/107/107 106/106/106 105/105/105
f 110/110/110 109/109/109 108/108/108
f 109/109/109 111/111/111 108/108/108
f 111/111/111 112/112/112 108/108/108
f 115/115/115 114/114/114 113/113/113
f 116/116/116 114/114/114 115/115/115
f 117/117/117 114/114/114 116/116/116
f 120/120/120 119/119/119 118/118/118
f 121/121/121 120/120/120 118/118/118
f 124/124/124 123/123/123 122/122/122
f 125/125/125 122/122/122 123/123/123
f 124/124/124 122/122/122 126/126/126
f 127/127/127 126/126/126 122/122/122
f 125/125/125 128/128/128 122/122/122
f 127/127/127 122/122/122 129/129/129
f 130/130/130 122/122/122 128/128/128
f 130/130/130 129/129/129 122/122/122
f 128/128/128 131/131/131 130/130/130
f 130/130/130 131/131/131 129/129/129
