g step1_wall_CS
v -0.4962297 1.1997608 0.47883454
v -0.4962293 1.199761 -0.17373092
v -0.2435327 1.1997608 -0.17373031
v -0.2435331 1.1997603 0.47883487
v -0.4962297 1.1997608 -0.22912614
v -0.4962293 1.199761 -0.49610895
v -0.2435327 1.1997608 -0.49610832
v -0.2435331 1.1997603 -0.22912577
v -0.2000524 1.1997608 -0.4962298
v 0.4768608 1.199761 -0.49622935
v 0.4768602 1.1997608 -0.24353278
v -0.20005278 1.1997603 -0.24353318
v -0.49884355 1.0070002 0.5010307
v -0.5035004 1.0070002 -0.4958802
v -0.28533924 1.0070001 0.5010247
v -0.28533962 1.0069999 -0.2851766
v 0.51151663 1.0069999 -0.2851766
v 0.5115245 1.0070001 -0.4988416
v 0.4841947 0.0060527404 0.5942591
v 0.57217073 0.14328353 0.4620885
v 0.5943741 0.0060530477 0.4836444
v 0.4619915 0.143283 0.5727024
v 0.43420064 0.14328377 0.3230409
v 0.21638349 0.1432836 0.33515742
v 0.5131978 0.72427183 -0.050545588
v -0.28533962 1.0069999 -0.2851766
v 0.51151663 1.0069999 -0.2851766
v -0.050193943 0.724272 -0.050545607
v 0.5132595 0.7140307 -0.031412575
v -0.05071758 0.72427225 0.502706
v -0.28533924 1.0070001 0.5010247
v -0.031574734 0.7140301 0.5027674
v -0.031573907 0.7140304 -0.031412594
v 0.5156795 0.30713254 0.30693936
v 0.3067236 0.30713385 0.5051871
v 0.305957 0.30713314 0.30693936
v 0.30375576 0.29689136 0.3039184
v 0.5157409 0.2968913 0.3039184
v 0.30375573 0.2968915 0.5052479
v 0.5194188 0.09153204 0.4455806
v 0.44154698 0.09153211 0.5234524
v 0.48048285 0.09153211 0.48451647
v -0.49622914 1.1753213 -0.20275755
v -0.50629944 1.0051551 -0.20275775
v -0.24353237 1.0051553 -0.2027572
v -0.52551705 1.0059875 -0.17373073
v -0.24353261 1.1753217 -0.20275724
v -0.22431497 1.0051552 -0.1737302
v -0.22431512 1.1753216 -0.17373016
v -0.22431545 1.0051551 0.47883487
v -0.2435327 1.1997608 -0.17373031
v -0.22431558 1.1753213 0.47883502
v -0.2435331 1.005155 0.50244164
v -0.4962293 1.199761 -0.17373092
v -0.2435331 1.1997603 0.47883487
v -0.5154469 1.1754535 -0.17373085
v -0.4962297 1.1997608 0.47883454
v -0.2435333 1.1753211 0.50244164
v -0.5154473 1.1754531 0.47883454
v -0.52551746 1.0059875 0.47883448
v -0.49622983 1.1753212 0.50244147
v -0.50630015 1.0051551 0.50244117
v -0.49622914 1.1753213 -0.5251356
v -0.50629944 1.0051551 -0.52513576
v -0.24353237 1.0051553 -0.5251352
v -0.52551705 1.0059875 -0.49610874
v -0.24353261 1.1753217 -0.5251353
v -0.22431497 1.0051552 -0.4961082
v -0.22431512 1.1753216 -0.49610817
v -0.22431545 1.0051551 -0.22912571
v -0.2435327 1.1997608 -0.49610832
v -0.22431558 1.1753213 -0.2291257
v -0.2435331 1.005155 -0.20551892
v -0.4962293 1.199761 -0.49610895
v -0.2435331 1.1997603 -0.22912577
v -0.5154469 1.1754535 -0.49610886
v -0.4962297 1.1997608 -0.22912614
v -0.2435333 1.1753211 -0.20551898
v -0.5154473 1.1754531 -0.22912614
v -0.52551746 1.0059875 -0.2291261
v -0.49622983 1.1753212 -0.20551921
v -0.50630015 1.0051551 -0.20551938
v 0.5058875 1.1753215 -0.49622917
v 0.5058876 1.0051551 -0.5062995
v 0.5058871 1.0051553 -0.24353242
v 0.4768607 1.0059875 -0.5255171
v 0.5058872 1.1753217 -0.24353267
v 0.4768601 1.0051552 -0.224315
v 0.47686005 1.1753216 -0.22431518
v -0.20005274 1.0051551 -0.22431551
v 0.4768602 1.1997608 -0.24353278
v -0.20005286 1.1753213 -0.22431566
v -0.22365953 1.005155 -0.24353318
v 0.4768608 1.199761 -0.49622935
v -0.20005278 1.1997603 -0.24353318
v 0.4768608 1.1754535 -0.51544696
v -0.2000524 1.1997608 -0.4962298
v -0.2236596 1.1753211 -0.24353339
v -0.2000524 1.1754531 -0.5154474
v -0.20005232 1.0059875 -0.5255175
v -0.22365934 1.1753212 -0.49622995
v -0.22365902 1.0051551 -0.5063002
vt 0.21514606 0.0068531185
vt 0.21514606 0.1962526
vt 0.11325379 0.1962526
vt 0.113253795 0.006853536
vt 0.215146 0.30495998
vt 0.11325349 0.30495998
vt 0.11325379 0.20304334
vt 0.21514606 0.20304334
vt 0.21514606 0.0068531185
vt 0.21514606 0.1962526
vt 0.11325379 0.1962526
vt 0.113253795 0.006853536
vt 0.65854824 0.59544903
vt 0.69571275 0.59544903
vt 0.6752044 0.5429428
vt 0.6957474 0.5429428
vt 0.71629035 0.5429428
vt 0.73286444 0.59544903
vt 0.60126823 0.89858603
vt 0.63070893 0.9378467
vt 0.63070893 0.89858603
vt 0.60126823 0.9378467
vt 0.63070893 0.9684665
vt 0.60126823 0.9684665
vt 0.7647195 0.970561
vt 0.7543275 0.998717
vt 0.7647195 0.998717
vt 0.7545635 0.970561
vt 0.7647195 0.9674836
vt 0.7464514 0.970561
vt 0.746476 0.998717
vt 0.7464514 0.9674836
vt 0.7545635 0.9674836
vt 0.7647195 0.9321804
vt 0.7464514 0.9321804
vt 0.7545635 0.9321804
vt 0.7545635 0.9268557
vt 0.7647195 0.9268557
vt 0.7464514 0.9268557
vt 0.7647195 0.90381074
vt 0.7464514 0.90381074
vt 0.7545635 0.90381074
vt 0.55708766 0.90697074
vt 0.55708766 0.85913736
vt 0.5594183 0.8591375
vt 0.5568051 0.8593928
vt 0.5594183 0.9069708
vt 0.559576 0.8591375
vt 0.559576 0.9069708
vt 0.559576 0.85913736
vt 0.5594183 0.9174829
vt 0.559576 0.9069708
vt 0.5594183 0.85913736
vt 0.55708766 0.917483
vt 0.5594183 0.91748273
vt 0.5568051 0.9070113
vt 0.55708766 0.917483
vt 0.5594183 0.9069707
vt 0.5568051 0.9070112
vt 0.5568051 0.85939276
vt 0.55708766 0.9069707
vt 0.55708766 0.8591375
vt 0.55708766 0.90697074
vt 0.55708766 0.85913736
vt 0.5594183 0.8591375
vt 0.5568051 0.8593928
vt 0.5594183 0.9069708
vt 0.559576 0.8591375
vt 0.559576 0.9069708
vt 0.559576 0.85913736
vt 0.5594183 0.9174829
vt 0.559576 0.9069708
vt 0.5594183 0.85913736
vt 0.55708766 0.917483
vt 0.5594183 0.91748273
vt 0.5568051 0.9070113
vt 0.55708766 0.917483
vt 0.5594183 0.9069707
vt 0.5568051 0.9070112
vt 0.5568051 0.85939276
vt 0.55708766 0.9069707
vt 0.55708766 0.8591375
vt 0.55708766 0.90697074
vt 0.55708766 0.85913736
vt 0.5594183 0.8591375
vt 0.5568051 0.8593928
vt 0.5594183 0.9069708
vt 0.559576 0.8591375
vt 0.559576 0.9069708
vt 0.559576 0.85913736
vt 0.5594183 0.9174829
vt 0.559576 0.9069708
vt 0.5594183 0.85913736
vt 0.55708766 0.917483
vt 0.5594183 0.91748273
vt 0.5568051 0.9070113
vt 0.55708766 0.917483
vt 0.5594183 0.9069707
vt 0.5568051 0.9070112
vt 0.5568051 0.85939276
vt 0.55708766 0.9069707
vt 0.55708766 0.8591375
vn -0.38716346 0.85625815 0.34194514
vn -0.39351615 0.8688296 -0.30046675
vn 0.3945675 0.8684018 -0.3003244
vn 0.38819975 0.85584825 0.34179637
vn -0.38716367 0.8562581 0.34194493
vn -0.39351597 0.8688296 -0.30046672
vn 0.39456767 0.8684018 -0.30032408
vn 0.3881998 0.855848 0.34179676
vn -0.34194446 0.85625845 -0.38716334
vn 0.30046585 0.86882985 -0.393516
vn 0.30032378 0.8684021 0.3945675
vn -0.34179586 0.85584825 0.38820004
vn 6.456219E-07 1 0
vn 7.620067E-07 1 6.1064196E-07
vn 0.42541006 0.9050007 0.00016606673
vn 0.12662958 0.98384225 0.12656766
vn 1.0841773E-07 0.9048678 0.4256927
vn -0 1 1.6110828E-06
vn 0.6911455 0.21996352 0.6884287
vn 0.44203922 0.78149444 0.44030425
vn 0.6911455 0.21996349 0.6884287
vn 0.44000205 0.7837813 0.43827513
vn -9.1839E-07 1 3.1795164E-06
vn -9.183899E-07 1 3.1795164E-06
vn -0 0.77484876 0.6321466
vn 0.12662958 0.98384225 0.12656766
vn 1.0841773E-07 0.9048678 0.4256927
vn 0.3986738 0.82495135 0.40064237
vn -0 0.77457523 0.63248175
vn 0.63408613 0.7732623 0.00026992508
vn 0.42541006 0.9050007 0.00016606673
vn 0.6349282 0.7725712 -0.00029399784
vn 0.31515118 0.8964823 0.31144682
vn -1.7915659E-07 0.2003029 0.979734
vn 0.9756682 0.21924695 -0.0014964332
vn 0.673005 0.34796163 0.65267676
vn 0.6835404 0.18422394 0.706282
vn 0.06719259 0.20924117 0.9755528
vn 0.9694839 0.23499633 0.06984059
vn 0.11725517 0.6444013 0.75564426
vn 0.75832456 0.6401892 0.122889
vn 0.49225497 0.7193715 0.4900916
vn -0.4046881 0.3761682 -0.83350164
vn -0.4828249 0.02863224 -0.87524873
vn 0.47326982 7.632548E-07 -0.8809175
vn -0.95613277 0.056763317 -0.28738114
vn 0.41567785 0.3639804 -0.8335048
vn 0.9575548 9.337811E-07 -0.2882514
vn 0.91585547 0.30258676 -0.26391274
vn 0.94220865 6.925832E-07 0.33502662
vn 0.3945675 0.8684018 -0.3003244
vn 0.90434164 0.2977947 0.30575237
vn 0.42934233 -2.264973E-07 0.90314186
vn -0.39351615 0.8688296 -0.30046675
vn 0.38819975 0.85584825 0.34179637
vn -0.9061211 0.3308394 -0.26360926
vn -0.38716346 0.85625815 0.34194514
vn 0.3836264 0.32886338 0.8629483
vn -0.8946974 0.3256285 0.30574924
vn -0.940961 0.055864304 0.33387363
vn -0.37378925 0.34009793 0.8629108
vn -0.43820834 0.025985233 0.89849776
vn -0.4046881 0.37616807 -0.8335017
vn -0.482825 0.028632244 -0.8752487
vn 0.47326985 7.6325483E-07 -0.8809175
vn -0.95613265 0.05676332 -0.28738153
vn 0.41567782 0.36398017 -0.83350486
vn 0.957555 9.337814E-07 -0.28825083
vn 0.9158556 0.3025868 -0.2639122
vn 0.9422085 8.81444E-07 0.33502683
vn 0.39456767 0.8684018 -0.30032408
vn 0.90434176 0.2977945 0.30575213
vn 0.42934272 2.854181E-07 0.9031416
vn -0.39351597 0.8688296 -0.30046672
vn 0.3881998 0.855848 0.34179676
vn -0.90612096 0.33083954 -0.26360965
vn -0.38716367 0.8562581 0.34194493
vn 0.38362682 0.32886383 0.86294794
vn -0.8946976 0.32562852 0.30574876
vn -0.9409611 0.055864573 0.33387327
vn -0.37378934 0.34009856 0.86291045
vn -0.43820843 0.025985822 0.8984977
vn 0.83350146 0.37616885 -0.40468782
vn 0.87524885 0.028632006 -0.48282474
vn 0.8809174 5.8776146E-07 0.47327006
vn 0.2873813 0.056763295 -0.95613277
vn 0.83350456 0.3639808 0.41567802
vn 0.2882513 1.0092343E-06 0.9575548
vn 0.2639124 0.30258697 0.91585547
vn -0.3350264 7.6114924E-07 0.94220877
vn 0.30032378 0.8684021 0.3945675
vn -0.3057515 0.2977946 0.90434206
vn -0.90314174 -3.3754796E-07 0.42934248
vn 0.30046585 0.86882985 -0.393516
vn -0.34179586 0.85584825 0.38820004
vn 0.26360947 0.33083957 -0.90612096
vn -0.34194446 0.85625845 -0.38716334
vn -0.86294794 0.32886395 0.38362664
vn -0.30574888 0.32562858 -0.89469755
vn -0.33387345 0.055864252 -0.940961
vn -0.8629104 0.34009844 -0.37378982
vn -0.8984977 0.02598507 -0.4382086
g step1_wall_CS_0
f 3/3/3 2/2/2 1/1/1
f 4/4/4 3/3/3 1/1/1
f 7/7/7 6/6/6 5/5/5
f 8/8/8 7/7/7 5/5/5
f 11/11/11 10/10/10 9/9/9
f 12/12/12 11/11/11 9/9/9
f 15/15/15 14/14/14 13/13/13
f 16/16/16 14/14/14 15/15/15
f 17/17/17 14/14/14 16/16/16
f 17/17/17 18/18/18 14/14/14
f 21/21/21 20/20/20 19/19/19
f 20/20/20 22/22/22 19/19/19
f 20/20/20 23/23/23 22/22/22
f 23/23/23 24/24/24 22/22/22
f 27/27/27 26/26/26 25/25/25
f 26/26/26 28/28/28 25/25/25
f 25/25/25 28/28/28 29/29/29
f 30/30/30 28/28/28 26/26/26
f 31/31/31 30/30/30 26/26/26
f 30/30/30 32/32/32 28/28/28
f 28/28/28 33/33/33 29/29/29
f 32/32/32 33/33/33 28/28/28
f 34/34/34 29/29/29 33/33/33
f 32/32/32 35/35/35 33/33/33
f 36/36/36 34/34/34 33/33/33
f 35/35/35 36/36/36 33/33/33
f 36/36/36 37/37/37 34/34/34
f 37/37/37 36/36/36 35/35/35
f 37/37/37 38/38/38 34/34/34
f 39/39/39 37/37/37 35/35/35
f 40/40/40 38/38/38 37/37/37
f 39/39/39 41/41/41 37/37/37
f 42/42/42 40/40/40 37/37/37
f 41/41/41 42/42/42 37/37/37
f 45/45/45 44/44/44 43/43/43
f 44/44/44 46/46/46 43/43/43
f 47/47/47 45/45/45 43/43/43
f 48/48/48 45/45/45 47/47/47
f 49/49/49 48/48/48 47/47/47
f 48/48/48 49/49/49 50/50/50
f 51/51/51 49/49/49 47/47/47
f 51/51/51 47/47/47 43/43/43
f 49/49/49 52/52/52 50/50/50
f 49/49/49 51/51/51 52/52/52
f 53/53/53 50/50/50 52/52/52
f 54/54/54 51/51/51 43/43/43
f 51/51/51 55/55/55 52/52/52
f 54/54/54 43/43/43 56/56/56
f 46/46/46 56/56/56 43/43/43
f 54/54/54 56/56/56 57/57/57
f 55/55/55 58/58/58 52/52/52
f 58/58/58 53/53/53 52/52/52
f 55/55/55 57/57/57 58/58/58
f 59/59/59 56/56/56 46/46/46
f 56/56/56 59/59/59 57/57/57
f 60/60/60 59/59/59 46/46/46
f 53/53/53 58/58/58 61/61/61
f 57/57/57 61/61/61 58/58/58
f 57/57/57 59/59/59 61/61/61
f 59/59/59 60/60/60 61/61/61
f 62/62/62 53/53/53 61/61/61
f 60/60/60 62/62/62 61/61/61
f 65/65/65 64/64/64 63/63/63
f 64/64/64 66/66/66 63/63/63
f 67/67/67 65/65/65 63/63/63
f 68/68/68 65/65/65 67/67/67
f 69/69/69 68/68/68 67/67/67
f 68/68/68 69/69/69 70/70/70
f 71/71/71 69/69/69 67/67/67
f 71/71/71 67/67/67 63/63/63
f 69/69/69 72/72/72 70/70/70
f 69/69/69 71/71/71 72/72/72
f 73/73/73 70/70/70 72/72/72
f 74/74/74 71/71/71 63/63/63
f 71/71/71 75/75/75 72/72/72
f 74/74/74 63/63/63 76/76/76
f 66/66/66 76/76/76 63/63/63
f 74/74/74 76/76/76 77/77/77
f 75/75/75 78/78/78 72/72/72
f 78/78/78 73/73/73 72/72/72
f 75/75/75 77/77/77 78/78/78
f 79/79/79 76/76/76 66/66/66
f 76/76/76 79/79/79 77/77/77
f 80/80/80 79/79/79 66/66/66
f 73/73/73 78/78/78 81/81/81
f 77/77/77 81/81/81 78/78/78
f 77/77/77 79/79/79 81/81/81
f 79/79/79 80/80/80 81/81/81
f 82/82/82 73/73/73 81/81/81
f 80/80/80 82/82/82 81/81/81
f 85/85/85 84/84/84 83/83/83
f 84/84/84 86/86/86 83/83/83
f 87/87/87 85/85/85 83/83/83
f 88/88/88 85/85/85 87/87/87
f 89/89/89 88/88/88 87/87/87
f 88/88/88 89/89/89 90/90/90
f 91/91/91 89/89/89 87/87/87
f 91/91/91 87/87/87 83/83/83
f 89/89/89 92/92/92 90/90/90
f 89/89/89 91/91/91 92/92/92
f 93/93/93 90/90/90 92/92/92
f 94/94/94 91/91/91 83/83/83
f 91/91/91 95/95/95 92/92/92
f 94/94/94 83/83/83 96/96/96
f 86/86/86 96/96/96 83/83/83
f 94/94/94 96/96/96 97/97/97
f 95/95/95 98/98/98 92/92/92
f 98/98/98 93/93/93 92/92/92
f 95/95/95 97/97/97 98/98/98
f 99/99/99 96/96/96 86/86/86
f 96/96/96 99/99/99 97/97/97
f 100/100/100 99/99/99 86/86/86
f 93/93/93 98/98/98 101/101/101
f 97/97/97 101/101/101 98/98/98
f 97/97/97 99/99/99 101/101/101
f 99/99/99 100/100/100 101/101/101
f 102/102/102 93/93/93 101/101/101
f 100/100/100 102/102/102 101/101/101
