g step1_wall1
v -0.2889012 1.3422514 -0.08550273
v -0.30642018 1.3714191 -0.06530207
v -0.45138377 1.3714191 -0.06530205
v -0.47540975 1.3422515 -0.085502736
v -0.2889012 1.3422514 -0.08550273
v -0.28890124 1.3422514 0.2709976
v -0.30642015 1.3714191 0.29119828
v -0.45138368 1.3714191 0.29119837
v -0.47540972 1.3422515 0.27099767
v -0.28890124 1.3422514 0.2709976
v -0.28890124 1.3422514 -0.44708914
v -0.30642024 1.3714191 -0.42688847
v -0.45138377 1.3714188 -0.42688847
v -0.4754098 1.3422515 -0.44708914
v -0.28890124 1.3422514 -0.44708914
v -0.4513837 1.3714191 0.07073655
v -0.45138377 1.3714191 -0.06530205
v -0.30642018 1.3714191 -0.06530207
v -0.30642018 1.3714191 0.07073654
v -0.2889012 1.3422514 -0.08550273
v -0.47540975 1.3422515 -0.085502736
v -0.47504455 0.9659681 -0.085502796
v -0.28890148 0.9659679 -0.08550279
v -0.47540975 1.3422515 -0.085502736
v -0.4754098 1.3422515 0.08978209
v -0.47504458 0.965968 0.08978204
v -0.47504455 0.9659681 -0.085502796
v -0.28890124 1.3422514 0.08978207
v -0.28890157 0.9659679 0.08978202
v -0.47504458 0.965968 0.08978204
v -0.4754098 1.3422515 0.08978209
v -0.47540975 1.3422515 -0.085502736
v -0.45138377 1.3714191 -0.06530205
v -0.4754098 1.3422515 0.08978209
v -0.4513837 1.3714191 0.07073655
v -0.4754098 1.3422515 0.08978209
v -0.4513837 1.3714191 0.07073655
v -0.28890124 1.3422514 0.08978207
v -0.30642018 1.3714191 0.07073654
v -0.28890124 1.3422514 0.08978207
v -0.30642018 1.3714191 0.07073654
v -0.30642018 1.3714191 -0.06530207
v -0.2889012 1.3422514 -0.08550273
v -0.43385294 1.2668735 -0.30342588
v -0.4338529 1.2668735 -0.070671596
v -0.43385303 1.164047 -0.070671625
v -0.43385306 1.1640471 -0.3034259
v -0.43385294 1.2668735 -0.30342588
v -0.3311561 1.2668734 -0.30342594
v -0.33115608 1.2668732 -0.07067162
v -0.4338529 1.2668735 -0.070671596
v -0.28890124 1.3422514 0.08978207
v -0.2889012 1.3422514 -0.08550273
v -0.28890157 0.9659679 0.08978202
v -0.28890148 0.9659679 -0.08550279
v -0.3311561 1.2668734 -0.30342594
v -0.3311562 1.164047 -0.070671625
v -0.33115608 1.2668732 -0.07067162
v -0.33115622 1.164047 -0.303426
v -0.43385282 1.2668735 0.07461749
v -0.4338528 1.2668734 0.31083232
v -0.4338529 1.164047 0.31083226
v -0.433853 1.164047 0.07461746
v -0.43385282 1.2668735 0.07461749
v -0.33115605 1.2668732 0.07461749
v -0.4338528 1.2668734 0.31083232
v -0.33115596 1.2668731 0.31083235
v -0.33115605 1.2668732 0.07461749
v -0.33115608 1.164047 0.3108323
v -0.33115596 1.2668731 0.31083235
v -0.33115616 1.164047 0.07461746
v -0.45138365 1.3714188 0.4272369
v -0.45138368 1.3714191 0.29119837
v -0.30642015 1.3714191 0.29119828
v -0.30642015 1.3714191 0.42723694
v -0.28890124 1.3422514 0.2709976
v -0.47540972 1.3422515 0.27099767
v -0.47504443 0.965968 0.2709976
v -0.28890157 0.9659679 0.27099755
v -0.47540972 1.3422515 0.27099767
v -0.47540975 1.3422515 0.44628242
v -0.47504443 0.965968 0.2709976
v -0.4750445 0.965968 0.4462824
v -0.28890118 1.3422514 0.44628245
v -0.2889015 0.96596783 0.44628242
v -0.4750445 0.965968 0.4462824
v -0.47540975 1.3422515 0.44628242
v -0.47540972 1.3422515 0.27099767
v -0.45138368 1.3714191 0.29119837
v -0.47540975 1.3422515 0.44628242
v -0.45138365 1.3714188 0.4272369
v -0.47540975 1.3422515 0.44628242
v -0.45138365 1.3714188 0.4272369
v -0.28890118 1.3422514 0.44628245
v -0.30642015 1.3714191 0.42723694
v -0.28890118 1.3422514 0.44628245
v -0.30642015 1.3714191 0.42723694
v -0.30642015 1.3714191 0.29119828
v -0.28890124 1.3422514 0.2709976
v -0.28890118 1.3422514 0.44628245
v -0.28890124 1.3422514 0.2709976
v -0.28890157 0.9659679 0.27099755
v -0.2889015 0.96596783 0.44628242
v -0.45138377 1.3714188 -0.42688847
v -0.30642024 1.3714191 -0.42688847
v -0.30642018 1.3714188 -0.29084978
v -0.45138377 1.3714188 -0.2908497
v -0.28890124 1.3422514 -0.44708914
v -0.4754098 1.3422515 -0.44708914
v -0.47504452 0.965968 -0.4470892
v -0.28890157 0.965968 -0.4470892
v -0.4754098 1.3422515 -0.44708914
v -0.47540984 1.3422515 -0.27180418
v -0.47504452 0.965968 -0.4470892
v -0.47504458 0.9659679 -0.27180424
v -0.2889012 1.3422514 -0.27180424
v -0.2889015 0.9659679 -0.2718043
v -0.47504458 0.9659679 -0.27180424
v -0.47540984 1.3422515 -0.27180418
v -0.4754098 1.3422515 -0.44708914
v -0.45138377 1.3714188 -0.42688847
v -0.47540984 1.3422515 -0.27180418
v -0.45138377 1.3714188 -0.2908497
v -0.47540984 1.3422515 -0.27180418
v -0.45138377 1.3714188 -0.2908497
v -0.2889012 1.3422514 -0.27180424
v -0.30642018 1.3714188 -0.29084978
v -0.2889012 1.3422514 -0.27180424
v -0.30642018 1.3714188 -0.29084978
v -0.30642024 1.3714191 -0.42688847
v -0.28890124 1.3422514 -0.44708914
v -0.2889012 1.3422514 -0.27180424
v -0.28890124 1.3422514 -0.44708914
v -0.28890157 0.965968 -0.4470892
v -0.2889015 0.9659679 -0.2718043
v -0.5034983 1.0069995 0.5034995
v -0.5034983 1.0069991 -0.50350046
v -0.31466815 1.006999 -0.50350046
v -0.31466815 1.0069993 0.5034995
v -0.22942893 0.9275422 0.5034995
v -0.22942893 0.9275421 -0.50350046
v 0.36247912 0.23758753 -0.14777233
v 0.5034999 0.06707561 -0.50350064
v 0.50350016 0.067075685 -0.14410311
v 0.35932395 0.24169397 0.32304877
v 0.5034999 0.06707576 0.5034996
v 0.50350016 0.06707576 0.3293481
v 0.31957918 0.20112787 0.29051992
v 0.3225342 0.19728187 -0.12314857
v 0.45978487 0.03758549 -0.119924724
v 0.45978487 0.03758549 0.29605454
v 0.50350016 0.067075685 -0.14410311
v 0.45978487 0.03758549 -0.119924724
v 0.3225342 0.19728187 -0.12314857
v 0.36247912 0.23758753 -0.14777233
v 0.36247912 0.23758753 -0.14777233
v 0.3225342 0.19728187 -0.12314857
v 0.31957918 0.20112787 0.29051992
v 0.35932395 0.24169397 0.32304877
v 0.35932395 0.24169397 0.32304877
v 0.31957918 0.20112787 0.29051992
v 0.45978487 0.03758549 0.29605454
v 0.50350016 0.06707576 0.3293481
v 0.16209058 0.51414084 -0.014010556
v 0.06510027 0.6269648 -0.006307582
v 0.05005846 0.6444059 -0.028175734
v 0.17701496 0.49674255 -0.03826314
v 0.17589493 0.49757072 -0.37163365
v 0.049719997 0.6441416 -0.33909097
v 0.06452818 0.6268858 -0.36597997
v 0.1609693 0.51486945 -0.39086533
v 0.01672294 0.6389651 -0.36558014
v 0.049719997 0.6441416 -0.33909097
v 0.05005846 0.6444059 -0.028175734
v 0.017129378 0.63928235 0.0022536023
v 0.033189878 0.62066007 0.025602782
v 0.06510027 0.6269648 -0.006307582
v 0.16209058 0.51414084 -0.014010556
v 0.15118204 0.48340568 0.01623184
v 0.16711715 0.4648291 -0.009663227
v 0.17701496 0.49674255 -0.03826314
v 0.17589493 0.49757072 -0.37163365
v 0.16577387 0.46582228 -0.40402463
v 0.1498374 0.48429257 -0.4245588
v 0.1609693 0.51486945 -0.39086533
v 0.06452818 0.6268858 -0.36597997
v 0.032534014 0.62054044 -0.3942902
v 0.032534014 0.62054044 -0.3942902
v 0.06452818 0.6268858 -0.36597997
v 0.049719997 0.6441416 -0.33909097
v 0.01672294 0.6389651 -0.36558014
v 0.017129378 0.63928235 0.0022536023
v 0.05005846 0.6444059 -0.028175734
v 0.06510027 0.6269648 -0.006307582
v 0.033189878 0.62066007 0.025602782
v 0.15118204 0.48340568 0.01623184
v 0.16209058 0.51414084 -0.014010556
v 0.17701496 0.49674255 -0.03826314
v 0.16711715 0.4648291 -0.009663227
v 0.16577387 0.46582228 -0.40402463
v 0.17589493 0.49757072 -0.37163365
v 0.1609693 0.51486945 -0.39086533
v 0.1498374 0.48429257 -0.4245588
vt 0.2850535 0.93000054
vt 0.2860835 0.9291066
vt 0.2860835 0.9203365
vt 0.2850535 0.91943824
vt 0.2850535 0.93000054
vt 0.2850535 0.93000054
vt 0.2860835 0.9291066
vt 0.2860835 0.9203365
vt 0.2850535 0.91943824
vt 0.2850535 0.93000054
vt 0.2850535 0.93000054
vt 0.2860835 0.9291066
vt 0.2860835 0.9203365
vt 0.2850535 0.91943824
vt 0.2850535 0.93000054
vt 0.2953844 0.9203365
vt 0.2860835 0.9203365
vt 0.2860835 0.9291066
vt 0.29539633 0.9291066
vt 0.28491274 0.9301735
vt 0.29636133 0.9301735
vt 0.29636133 0.90691984
vt 0.28491274 0.90691984
vt 0.29636133 0.9301735
vt 0.30886465 0.9301735
vt 0.30886465 0.90691984
vt 0.29636133 0.90691984
vt 0.28491274 0.9301735
vt 0.28491274 0.90691984
vt 0.29636127 0.90691984
vt 0.29636127 0.9301735
vt 0.2850535 0.91943824
vt 0.2860835 0.9203365
vt 0.29642037 0.91943824
vt 0.2953844 0.9203365
vt 0.29642037 0.91943824
vt 0.2953844 0.9203365
vt 0.29642037 0.93000054
vt 0.29539633 0.9291066
vt 0.29642037 0.93000054
vt 0.29539633 0.9291066
vt 0.2860835 0.9291066
vt 0.2850535 0.93000054
vt 0.29639775 0.9025494
vt 0.29639775 0.8840449
vt 0.30779365 0.8840449
vt 0.30779365 0.9025494
vt 0.29639775 0.9025494
vt 0.28594247 0.9025494
vt 0.28594247 0.8840449
vt 0.29639775 0.8840449
vt 0.30886465 0.9301735
vt 0.29636133 0.9301735
vt 0.30886465 0.90691984
vt 0.29636133 0.90691984
vt 0.29639775 0.9025494
vt 0.30779365 0.8840449
vt 0.29639775 0.8840449
vt 0.30779365 0.9025494
vt 0.2963977 0.8840449
vt 0.2963977 0.9025495
vt 0.3077936 0.9025495
vt 0.3077936 0.8840449
vt 0.2963977 0.8840449
vt 0.2859424 0.8840449
vt 0.2963977 0.9025495
vt 0.2859424 0.9025495
vt 0.2963977 0.8840449
vt 0.3077936 0.9025495
vt 0.2963977 0.9025495
vt 0.3077936 0.8840449
vt 0.2953844 0.9203365
vt 0.2860835 0.9203365
vt 0.2860835 0.9291066
vt 0.29539633 0.9291066
vt 0.28491274 0.9301735
vt 0.29636133 0.9301735
vt 0.29636133 0.90691984
vt 0.28491274 0.90691984
vt 0.29636133 0.9301735
vt 0.30886465 0.9301735
vt 0.29636133 0.90691984
vt 0.30886465 0.90691984
vt 0.28491274 0.9301735
vt 0.28491274 0.90691984
vt 0.29636127 0.90691984
vt 0.29636127 0.9301735
vt 0.2850535 0.91943824
vt 0.2860835 0.9203365
vt 0.29642037 0.91943824
vt 0.2953844 0.9203365
vt 0.29642037 0.91943824
vt 0.2953844 0.9203365
vt 0.29642037 0.93000054
vt 0.29539633 0.9291066
vt 0.29642037 0.93000054
vt 0.29539633 0.9291066
vt 0.2860835 0.9291066
vt 0.2850535 0.93000054
vt 0.30886465 0.9301735
vt 0.29636133 0.9301735
vt 0.29636133 0.90691984
vt 0.30886465 0.90691984
vt 0.2860835 0.9203365
vt 0.2860835 0.9291066
vt 0.29539633 0.9291066
vt 0.2953844 0.9203365
vt 0.28491274 0.9301735
vt 0.29636133 0.9301735
vt 0.29636133 0.90691984
vt 0.28491274 0.90691984
vt 0.29636133 0.9301735
vt 0.30886465 0.9301735
vt 0.29636133 0.90691984
vt 0.30886465 0.90691984
vt 0.28491274 0.9301735
vt 0.28491274 0.90691984
vt 0.29636127 0.90691984
vt 0.29636127 0.9301735
vt 0.2850535 0.91943824
vt 0.2860835 0.9203365
vt 0.29642037 0.91943824
vt 0.2953844 0.9203365
vt 0.29642037 0.91943824
vt 0.2953844 0.9203365
vt 0.29642037 0.93000054
vt 0.29539633 0.9291066
vt 0.29642037 0.93000054
vt 0.29539633 0.9291066
vt 0.2860835 0.9291066
vt 0.2850535 0.93000054
vt 0.30886465 0.9301735
vt 0.29636133 0.9301735
vt 0.29636133 0.90691984
vt 0.30886465 0.90691984
vt 0.25520492 0.43721512
vt 0.3136587 0.4373472
vt 0.3136587 0.42549112
vt 0.25520492 0.4253768
vt 0.25520492 0.4166775
vt 0.3136587 0.4166775
vt 0.29292372 0.364961
vt 0.3136587 0.352192
vt 0.2927099 0.352192
vt 0.2654801 0.36525607
vt 0.25520492 0.352192
vt 0.26511297 0.352192
vt 0.2671466 0.36403766
vt 0.29010305 0.36403766
vt 0.29010305 0.35234502
vt 0.2671466 0.35234502
vt 0.26598087 0.35264045
vt 0.26552323 0.35264045
vt 0.26552323 0.3643331
vt 0.26598087 0.3643331
vt 0.29116467 0.36525556
vt 0.29116467 0.3643513
vt 0.2659833 0.3643513
vt 0.2659833 0.36525556
vt 0.2653349 0.36402234
vt 0.26596344 0.36402234
vt 0.26596344 0.3523297
vt 0.2653349 0.3523297
vt 0.34585044 0.3689511
vt 0.34585044 0.37532172
vt 0.34682357 0.3763078
vt 0.34682357 0.36796504
vt 0.3592541 0.36796504
vt 0.3592541 0.3763078
vt 0.36025587 0.37532628
vt 0.36025587 0.36894655
vt 0.3592541 0.37730342
vt 0.3592541 0.3763078
vt 0.34682357 0.3763078
vt 0.34682357 0.37730786
vt 0.34380212 0.37475178
vt 0.34393546 0.3746588
vt 0.34393546 0.36841312
vt 0.34380212 0.36832014
vt 0.3468624 0.37884364
vt 0.3469551 0.37922588
vt 0.3591512 0.37922588
vt 0.3592439 0.37884364
vt 0.3609455 0.36882308
vt 0.3607875 0.36891565
vt 0.3607875 0.37517032
vt 0.3609455 0.3752629
vt 0.36132398 0.37676242
vt 0.3611162 0.37576658
vt 0.36083624 0.3766225
vt 0.36096528 0.37761813
vt 0.34386584 0.3751708
vt 0.34399918 0.3751133
vt 0.34393546 0.3746588
vt 0.34380212 0.37475178
vt 0.34709403 0.37917566
vt 0.34725457 0.3795579
vt 0.3469551 0.37922588
vt 0.3468624 0.37884364
vt 0.3608762 0.36835957
vt 0.36071822 0.36841324
vt 0.3607875 0.36891565
vt 0.3609455 0.36882308
vn -0 0.5693564 -0.8220908
vn -0 0.56935644 -0.8220908
vn -0 0.56935644 -0.8220908
vn 3.9458735E-07 0.5693575 -0.8220901
vn 3.9458732E-07 0.56935745 -0.82208997
vn -4.3246067E-07 0.5693565 -0.82209074
vn -4.324607E-07 0.56935644 -0.8220908
vn -4.3246075E-07 0.56935644 -0.8220908
vn 1.0230052E-07 0.5693584 -0.8220894
vn 1.02300525E-07 0.5693584 -0.82208943
vn -6.1108585E-07 0.5693573 -0.82209027
vn -6.1108585E-07 0.5693572 -0.82209027
vn -6.1108585E-07 0.5693573 -0.82209027
vn 3.5074612E-07 0.5693609 -0.82208776
vn 3.5074606E-07 0.5693609 -0.82208776
vn 2.6499075E-07 1 0
vn 2.6499075E-07 1 0
vn 2.6499075E-07 1 0
vn 2.649908E-07 1 0
vn -0 1.5318189E-07 -1
vn -0 1.5318189E-07 -1
vn -0 1.5318189E-07 -1
vn -0 1.5313188E-07 -1
vn -0.9999995 -0.00097054924 -2.191518E-07
vn -0.9999995 -0.00097054936 -2.1915179E-07
vn -0.9999995 -0.00097054924 -2.1915181E-07
vn -0.9999995 -0.0009705495 -2.1936448E-07
vn 1.0318405E-07 -1.2761E-07 1
vn 1.0318406E-07 -1.2761001E-07 1
vn 1.0318405E-07 -1.2761E-07 1
vn 1.02981836E-07 -1.2750996E-07 1
vn -0.77185667 0.6357965 -1.6915388E-07
vn -0.7718568 0.63579655 -1.6915388E-07
vn -0.77185667 0.6357965 -1.6915385E-07
vn -0.7718557 0.63579774 2.1795333E-07
vn 3.1144256E-07 0.5467352 0.8373056
vn 3.1144256E-07 0.5467352 0.8373056
vn 3.1144256E-07 0.5467352 0.8373056
vn 2.0034925E-07 0.5467347 0.83730584
vn 0.85725456 0.5148928 0
vn 0.85725456 0.5148928 0
vn 0.85725456 0.5148928 0
vn 0.8572544 0.5148932 0
vn -1 1.1207433E-06 1.6504092E-07
vn -1 1.1207434E-06 1.6504092E-07
vn -1 1.1207433E-06 1.6504092E-07
vn -1 1.1207436E-06 1.650411E-07
vn 1.4962102E-06 1 3.3008172E-07
vn 1.4962101E-06 1 3.300817E-07
vn 1.4962101E-06 1 3.300817E-07
vn 2.431341E-06 1 0
vn 1 -8.1670345E-07 2.1915213E-07
vn 1 -8.167034E-07 2.1915213E-07
vn 1 -8.167034E-07 2.1915213E-07
vn 1 -7.1461557E-07 4.383035E-07
vn 1 -1.1207452E-06 -1.6504133E-07
vn 1 -1.1207452E-06 -1.650413E-07
vn 1 -1.1207452E-06 -1.6504133E-07
vn 1 -1.1207446E-06 -1.6504104E-07
vn -1 1.1207437E-06 1.6262354E-07
vn -1 1.1207437E-06 1.6262354E-07
vn -1 1.1207436E-06 1.6262354E-07
vn -1 1.4943241E-06 3.2524648E-07
vn 2.2443155E-06 1 3.2524596E-07
vn 2.2443155E-06 1 3.2524596E-07
vn 2.2443157E-06 1 3.2524596E-07
vn 2.4313406E-06 1 4.0655706E-07
vn 1 -1.1207453E-06 -3.2524673E-07
vn 1 -1.1207453E-06 -3.2524673E-07
vn 1 -1.1207453E-06 -3.2524673E-07
vn 1 -1.1207447E-06 -3.2524642E-07
vn -0 1 5.647518E-07
vn -0 1 5.647518E-07
vn -0 1 5.647519E-07
vn -5.299818E-07 1 0
vn -3.089457E-07 2.0387596E-07 -1
vn -3.089457E-07 2.0387598E-07 -1
vn -3.0894566E-07 2.0387596E-07 -1
vn -2.063683E-07 1.5313209E-07 -1
vn -0.9999995 -0.00097075367 -2.191519E-07
vn -0.9999995 -0.0009707535 -2.1915189E-07
vn -0.9999995 -0.00097075367 -2.1915191E-07
vn -0.9999995 -0.0009707533 -2.1938328E-07
vn -2.063683E-07 -1.0208773E-07 1
vn -2.0636831E-07 -1.0208774E-07 1
vn -2.0636833E-07 -1.0208774E-07 1
vn -2.059638E-07 -1.02287856E-07 1
vn -0.77185583 0.6357976 -1.6915374E-07
vn -0.7718558 0.6357976 -1.6915374E-07
vn -0.7718558 0.6357976 -1.6915374E-07
vn -0.7718539 0.63579994 5.770221E-07
vn 1.6536896E-07 0.5467361 0.837305
vn 1.6536897E-07 0.5467361 0.837305
vn 1.6536896E-07 0.5467361 0.837305
vn -5.116374E-07 0.54673344 0.8373067
vn 0.8572543 0.51489323 0
vn 0.8572543 0.51489323 0
vn 0.8572543 0.51489323 0
vn 0.85725516 0.51489174 -3.8105833E-07
vn 1 -8.1670345E-07 -4.3830374E-07
vn 1 -8.1670356E-07 -4.3830377E-07
vn 1 -8.1670345E-07 -4.3830377E-07
vn 1 -9.187914E-07 -2.1915216E-07
vn -1.0599633E-06 1 5.647514E-07
vn -1.0599632E-06 1 5.647514E-07
vn -1.0599632E-06 1 5.647514E-07
vn -5.299815E-07 1 0
vn -0 1.0208791E-07 -1
vn -0 1.0208791E-07 -1
vn -0 1.0208792E-07 -1
vn -0 1.02087924E-07 -1
vn -0.9999995 -0.00097075355 -2.1915162E-07
vn -0.9999995 -0.0009707535 -2.1915162E-07
vn -0.9999995 -0.00097075355 -2.1915162E-07
vn -0.9999995 -0.0009706512 -4.385829E-07
vn 2.0636814E-07 -1.5313205E-07 1
vn 2.0636813E-07 -1.5313205E-07 1
vn 2.0636813E-07 -1.5313205E-07 1
vn 3.0894543E-07 -2.0387593E-07 1
vn -0.7718538 0.6358002 -1.6915308E-07
vn -0.7718538 0.6358002 -1.6915308E-07
vn -0.7718538 0.6358002 -1.6915308E-07
vn -0.7718533 0.6358006 0
vn 5.965055E-07 0.5467374 0.8373042
vn 5.965055E-07 0.5467374 0.8373042
vn 5.9650546E-07 0.5467374 0.8373042
vn 1.5399651E-07 0.54673564 0.83730525
vn 0.8572535 0.51489466 0
vn 0.85725343 0.51489466 0
vn 0.85725343 0.51489466 0
vn 0.857254 0.5148937 -1.8647522E-07
vn 1 -8.1670345E-07 -2.1915179E-07
vn 1 -8.1670345E-07 -2.1915179E-07
vn 1 -8.1670345E-07 -2.1915179E-07
vn 1 -8.167033E-07 -2.1915204E-07
vn 1.1245635E-06 1 -1.7059433E-07
vn 4.068629E-07 1 -3.0517577E-07
vn 0.36641422 0.93045187 -2.145465E-07
vn 0.36641458 0.9304517 -1.4222603E-07
vn 0.7216495 0.6922576 0.0011256079
vn 0.7217916 0.69210947 -0.0011457785
vn 0.762346 0.64716053 -0.0034338688
vn 0.7645801 0.64450246 -0.0058291517
vn 0.7705989 0.63732034 -5.480643E-07
vn 0.7617018 0.6478618 0.009234781
vn 0.7668975 0.6417166 0.008241518
vn 0.7711215 0.6366881 8.2395616E-07
vn 0.758803 0.65132016 -0.00031663422
vn 0.758803 0.6513201 -0.00031663416
vn 0.758803 0.6513201 -0.00031663416
vn 0.758803 0.65132016 -0.00031663416
vn 0.30322257 0.27457884 0.9125035
vn 0.3032225 0.27457884 0.9125035
vn 0.30322257 0.27457884 0.9125035
vn 0.30322254 0.27457887 0.9125035
vn 0.7116993 -0.7023944 0.011231787
vn 0.71169925 -0.7023945 0.011231786
vn 0.71169925 -0.7023945 0.011231786
vn 0.71169925 -0.7023945 0.011231786
vn 0.41035703 0.3151501 -0.855738
vn 0.41035703 0.31515008 -0.855738
vn 0.41035703 0.31515008 -0.855738
vn 0.41035703 0.3151501 -0.855738
vn 0.7582438 0.6519698 -0.0013250534
vn 0.7582438 0.6519698 -0.0013250534
vn 0.7580771 0.6521638 -0.001207679
vn 0.75806993 0.65217215 -0.0012026256
vn 0.7578801 0.65239275 -0.0012128315
vn 0.75790644 0.65236205 -0.0011962526
vn 0.7577045 0.6525965 -0.0013230852
vn 0.75770444 0.65259653 -0.0013230854
vn -0.15440433 0.9880074 -0.0006770672
vn -0.1544043 0.9880074 -0.00067706715
vn -0.15440431 0.9880074 -0.0006770672
vn -0.15440431 0.9880074 -0.00067706715
vn 0.5830044 0.45524076 0.67295
vn 0.5830044 0.45524073 0.67294997
vn 0.5830044 0.45524076 0.67295
vn 0.5830044 0.45524076 0.67295
vn 0.9540075 -0.2997563 -0.00397947
vn 0.9540075 -0.29975632 -0.00397947
vn 0.9540075 -0.29975632 -0.00397947
vn 0.9540075 -0.29975632 -0.0039794706
vn 0.48176914 0.5638125 -0.6708308
vn 0.4817692 0.56381255 -0.6708307
vn 0.4817692 0.56381255 -0.6708307
vn 0.48176917 0.5638125 -0.6708308
vn 0.21652435 0.8714876 -0.44003004
vn 0.21652435 0.8714876 -0.44003007
vn 0.21652435 0.8714876 -0.44003004
vn 0.21652432 0.8714876 -0.44003007
vn 0.29703 0.83559257 0.46212372
vn 0.29703 0.83559257 0.46212372
vn 0.29703 0.83559257 0.46212372
vn 0.29703 0.83559257 0.46212372
vn 0.88330704 0.12975384 0.4504803
vn 0.88330704 0.12975384 0.4504803
vn 0.88330704 0.12975383 0.45048025
vn 0.88330704 0.12975383 0.45048025
vn 0.8549789 0.21088657 -0.47385412
vn 0.8549789 0.2108866 -0.47385412
vn 0.8549789 0.2108866 -0.47385412
vn 0.8549789 0.2108866 -0.47385412
g step1_wall1_0
f 3/3/3 2/2/2 1/1/1
f 5/5/5 4/4/4 3/3/3
f 8/8/8 7/7/7 6/6/6
f 10/10/10 9/9/9 8/8/8
f 13/13/13 12/12/12 11/11/11
f 15/15/15 14/14/14 13/13/13
f 18/18/18 17/17/17 16/16/16
f 16/16/16 19/19/19 18/18/18
f 22/22/22 21/21/21 20/20/20
f 20/20/20 23/23/23 22/22/22
f 26/26/26 25/25/25 24/24/24
f 24/24/24 27/27/27 26/26/26
f 30/30/30 29/29/29 28/28/28
f 28/28/28 31/31/31 30/30/30
f 34/34/34 33/33/33 32/32/32
f 34/34/34 35/35/35 33/33/33
f 38/38/38 37/37/37 36/36/36
f 38/38/38 39/39/39 37/37/37
f 42/42/42 41/41/41 40/40/40
f 40/40/40 43/43/43 42/42/42
f 46/46/46 45/45/45 44/44/44
f 44/44/44 47/47/47 46/46/46
f 50/50/50 49/49/49 48/48/48
f 48/48/48 51/51/51 50/50/50
f 54/54/54 53/53/53 52/52/52
f 54/54/54 55/55/55 53/53/53
f 58/58/58 57/57/57 56/56/56
f 57/57/57 59/59/59 56/56/56
f 62/62/62 61/61/61 60/60/60
f 60/60/60 63/63/63 62/62/62
f 66/66/66 65/65/65 64/64/64
f 66/66/66 67/67/67 65/65/65
f 70/70/70 69/69/69 68/68/68
f 69/69/69 71/71/71 68/68/68
f 74/74/74 73/73/73 72/72/72
f 72/72/72 75/75/75 74/74/74
f 78/78/78 77/77/77 76/76/76
f 76/76/76 79/79/79 78/78/78
f 82/82/82 81/81/81 80/80/80
f 82/82/82 83/83/83 81/81/81
f 86/86/86 85/85/85 84/84/84
f 84/84/84 87/87/87 86/86/86
f 90/90/90 89/89/89 88/88/88
f 90/90/90 91/91/91 89/89/89
f 94/94/94 93/93/93 92/92/92
f 94/94/94 95/95/95 93/93/93
f 98/98/98 97/97/97 96/96/96
f 96/96/96 99/99/99 98/98/98
f 102/102/102 101/101/101 100/100/100
f 100/100/100 103/103/103 102/102/102
f 106/106/106 105/105/105 104/104/104
f 104/104/104 107/107/107 106/106/106
f 110/110/110 109/109/109 108/108/108
f 108/108/108 111/111/111 110/110/110
f 114/114/114 113/113/113 112/112/112
f 114/114/114 115/115/115 113/113/113
f 118/118/118 117/117/117 116/116/116
f 116/116/116 119/119/119 118/118/118
f 122/122/122 121/121/121 120/120/120
f 122/122/122 123/123/123 121/121/121
f 126/126/126 125/125/125 124/124/124
f 126/126/126 127/127/127 125/125/125
f 130/130/130 129/129/129 128/128/128
f 128/128/128 131/131/131 130/130/130
f 134/134/134 133/133/133 132/132/132
f 132/132/132 135/135/135 134/134/134
f 138/138/138 137/137/137 136/136/136
f 136/136/136 139/139/139 138/138/138
f 139/139/139 140/140/140 138/138/138
f 140/140/140 141/141/141 138/138/138
f 142/142/142 141/141/141 140/140/140
f 141/141/141 142/142/142 143/143/143
f 143/143/143 142/142/142 144/144/144
f 145/145/145 142/142/142 140/140/140
f 140/140/140 146/146/146 145/145/145
f 146/146/146 147/147/147 145/145/145
f 150/150/150 149/149/149 148/148/148
f 151/151/151 150/150/150 148/148/148
f 154/154/154 153/153/153 152/152/152
f 155/155/155 154/154/154 152/152/152
f 158/158/158 157/157/157 156/156/156
f 159/159/159 158/158/158 156/156/156
f 162/162/162 161/161/161 160/160/160
f 163/163/163 162/162/162 160/160/160
f 166/166/166 165/165/165 164/164/164
f 167/167/167 166/166/166 164/164/164
f 166/166/166 167/167/167 168/168/168
f 169/169/169 166/166/166 168/168/168
f 170/170/170 169/169/169 168/168/168
f 171/171/171 170/170/170 168/168/168
f 174/174/174 173/173/173 172/172/172
f 175/175/175 174/174/174 172/172/172
f 178/178/178 177/177/177 176/176/176
f 179/179/179 178/178/178 176/176/176
f 182/182/182 181/181/181 180/180/180
f 183/183/183 182/182/182 180/180/180
f 186/186/186 185/185/185 184/184/184
f 187/187/187 186/186/186 184/184/184
f 190/190/190 189/189/189 188/188/188
f 191/191/191 190/190/190 188/188/188
f 194/194/194 193/193/193 192/192/192
f 195/195/195 194/194/194 192/192/192
f 198/198/198 197/197/197 196/196/196
f 199/199/199 198/198/198 196/196/196
f 202/202/202 201/201/201 200/200/200
f 203/203/203 202/202/202 200/200/200
