g step1_CS
v -0.5035077 0.6347119 0.16546538
v 0.50349474 0.6347119 0.16546538
v 0.50349474 -4.3397415E-07 0.418039
v -0.5035077 -4.3397415E-07 0.418039
v 0.50349474 0.6347119 0.16546538
v -0.5035077 0.6347119 0.16546538
v -0.5035077 0.92754513 -0.23797226
v 0.50349474 0.92754513 -0.23797226
v 0.16546412 0.634712 0.50350213
v 0.16546406 0.6347119 -0.5035003
v 0.4180377 -4.300252E-07 -0.5035003
v 0.4180378 -3.860077E-07 0.5035022
v 0.16546406 0.6347119 -0.5035003
v 0.16546412 0.634712 0.50350213
v -0.23797353 0.92754525 0.50350213
v -0.23797357 0.9275451 -0.5035003
v 0.5034963 0.15072708 0.2439077
v 0.5034993 0.1507271 0.5035024
v 0.24390557 0.15072711 0.5035024
v 0.24390249 0.15072708 0.24390778
v 0.5034966 1.0070001 -0.2517478
v 0.5034966 0.92754513 -0.1665066
v 0.18367662 0.93533504 -0.16047512
v 0.15270379 1.0070001 -0.23226367
v -0.13614334 0.94312495 -0.15444362
v -0.19808897 1.0070001 -0.21277954
v -0.22492065 1.0070001 0.14536028
v -0.19808897 1.0070001 -0.21277954
v -0.13614334 0.94312495 -0.15444362
v -0.15132771 0.93533504 0.17452821
v -0.2517523 1.007 0.50350004
v -0.16651209 0.9275451 0.50350004
v -0.5228606 1.0070001 0.065922275
v -0.50350344 1.0070001 0.50350016
v -0.50350344 9.363411E-08 0.50350016
v -0.5228606 1.0738346E-07 0.06592223
v -0.5035038 1.0070001 -0.3716556
v -0.5035038 1.3119174E-07 -0.3716557
v 0.06591908 1.0070001 -0.47637653
v -0.37165952 1.0070001 -0.50349987
v -0.37165952 1.3684988E-07 -0.5034999
v 0.06591908 1.3361652E-07 -0.4763766
v 0.50349766 1.0070001 -0.50349987
v 0.50349766 1.3684988E-07 -0.5034999
v 0.5034966 0.92754513 -0.1665066
v 0.5034966 0.6796494 -0.16650663
v 0.18367662 0.68743926 -0.16047513
v 0.18367662 0.93533504 -0.16047512
v -0.13614334 0.6952292 -0.15444365
v -0.13614334 0.94312495 -0.15444362
v -0.15132771 0.93533504 0.17452821
v -0.13614334 0.94312495 -0.15444362
v -0.13614334 0.6952292 -0.15444365
v -0.15132771 0.68743926 0.17452817
v -0.16651209 0.9275451 0.50350004
v -0.16651209 0.6796493 0.50350004
v -0.37165952 1.0070001 -0.50349987
v -0.19808897 1.0070001 -0.21277954
v -0.4535594 1.0070001 -0.45824757
v 0.06591908 1.0070001 -0.47637653
v 0.15270379 1.0070001 -0.23226367
v 0.50349766 1.0070001 -0.50349987
v 0.5034966 1.0070001 -0.2517478
v -0.4535594 1.0070001 -0.45824757
v -0.5035038 1.0070001 -0.3716556
v -0.5228606 1.0070001 0.065922275
v -0.22492065 1.0070001 0.14536028
v -0.50350344 1.0070001 0.50350016
v -0.2517523 1.007 0.50350004
v -0.4535594 1.0070001 -0.45824757
v -0.5035038 1.0070001 -0.3716556
v -0.5035038 1.3119174E-07 -0.3716557
v -0.4535594 1.3145538E-07 -0.4582476
v -0.37165952 1.0070001 -0.50349987
v -0.37165952 1.3684988E-07 -0.5034999
vt 0.10659263 0.4425783
vt 0.08575812 0.4425783
vt 0.08575812 0.41778117
vt 0.10659263 0.41778117
vt 0.08575812 0.4425783
vt 0.10659263 0.4425783
vt 0.10659263 0.471993
vt 0.08575812 0.471993
vt 0.10659263 0.4425783
vt 0.08575812 0.4425783
vt 0.08575812 0.41778117
vt 0.10659263 0.41778117
vt 0.08575812 0.4425783
vt 0.10659263 0.4425783
vt 0.10659263 0.471993
vt 0.08575812 0.471993
vt 0.3196396 0.13998526
vt 0.35684815 0.13998526
vt 0.35684815 0.15593034
vt 0.3196396 0.15593034
vt 0.40378684 0.18291381
vt 0.40378684 0.16748013
vt 0.395665 0.16748013
vt 0.3954981 0.18291381
vt 0.38745946 0.16748013
vt 0.38729256 0.18291381
vt 0.37933505 0.18291381
vt 0.38729256 0.18291381
vt 0.38745946 0.16748013
vt 0.37933505 0.16748013
vt 0.36787313 0.18291381
vt 0.36787313 0.16748013
vt 0.29460397 0.18252105
vt 0.27204707 0.18252105
vt 0.27204707 0.13061078
vt 0.29460397 0.13061078
vt 0.31716087 0.18252105
vt 0.31716087 0.13061078
vt 0.29460397 0.18252105
vt 0.31716087 0.18252105
vt 0.31716087 0.13061078
vt 0.29460397 0.13061078
vt 0.27204707 0.18252105
vt 0.27204707 0.13061078
vt 0.40378684 0.16748013
vt 0.40378684 0.15735927
vt 0.395665 0.15735927
vt 0.395665 0.16748013
vt 0.38745946 0.15735927
vt 0.38745946 0.16748013
vt 0.37933505 0.16748013
vt 0.38745946 0.16748013
vt 0.38745946 0.15735927
vt 0.37933505 0.15735927
vt 0.36787313 0.16748013
vt 0.36787313 0.15735927
vt 0.4942755 0.39722213
vt 0.4765103 0.39281824
vt 0.4900507 0.39865693
vt 0.4942755 0.38685003
vt 0.4765103 0.38464805
vt 0.4942755 0.37647787
vt 0.4765103 0.37647787
vt 0.49117047 0.3984926
vt 0.4942755 0.39718935
vt 0.4942755 0.38683358
vt 0.4765103 0.38464805
vt 0.4942755 0.37647787
vt 0.4765103 0.37647787
vt 0.312355 0.18252105
vt 0.30754915 0.18252105
vt 0.30754915 0.13061078
vt 0.312355 0.13061078
vt 0.31716087 0.18252105
vt 0.31716087 0.13061078
vn -0 0.3697352 0.9291372
vn -0 0.3697352 0.9291372
vn -0 0.3697352 0.9291372
vn -0 0.3697352 0.9291372
vn -0 0.8092854 0.58741575
vn -0 0.8092854 0.58741575
vn -0 0.8092854 0.58741575
vn -0 0.8092854 0.58741575
vn 0.9291372 0.36973533 0
vn 0.9291372 0.36973533 0
vn 0.9291372 0.36973533 0
vn 0.9291372 0.36973536 0
vn 0.5874158 0.8092854 -1.04797934E-07
vn 0.5874158 0.8092854 -1.04797934E-07
vn 0.5874158 0.8092854 -1.04797934E-07
vn 0.5874158 0.8092854 -1.04797934E-07
vn -0 1 0
vn -0 1 0
vn -0 1 0
vn -0 1 0
vn 0.034636553 0.7235075 0.68944705
vn 0.03463655 0.72350746 0.6894471
vn 0.03484805 0.7159048 0.6973276
vn 0.034939446 0.7125455 0.7007555
vn 0.035151836 0.7045554 0.7087777
vn 0.035151836 0.7045554 0.7087777
vn 0.6871243 0.72480124 0.05023408
vn 0.6897679 0.7222765 0.050367024
vn 0.6897679 0.7222765 0.050367024
vn 0.68617576 0.7257025 0.050186303
vn 0.6835928 0.72814506 0.050056126
vn 0.6835928 0.72814506 0.050056126
vn -1 0 3.9644348E-07
vn -0.99902296 0 0.044193756
vn -0.99902296 0 0.044193756
vn -1 0 3.9644345E-07
vn -0.9990231 0 -0.04419297
vn -0.9990231 0 -0.04419297
vn -0 0 -1
vn 0.061866365 0 -0.9980844
vn 0.061866365 0 -0.9980844
vn -0 0 -1
vn -0.061866377 0 -0.9980844
vn -0.061866377 0 -0.9980844
vn 0.018855667 -1.3598216E-07 0.9998222
vn 0.018855667 -1.3598218E-07 0.9998222
vn 0.018855661 -1.2607666E-07 0.9998222
vn 0.018855661 -1.2576476E-07 0.9998222
vn 0.018855654 -1.1585925E-07 0.9998222
vn 0.018855656 -1.1585925E-07 0.9998222
vn 0.9989365 0 0.04610797
vn 0.9989365 0 0.046107974
vn 0.9989365 0 0.046107974
vn 0.9989365 0 0.04610797
vn 0.9989365 0 0.04610797
vn 0.9989365 0 0.04610797
vn -0 1 1.9618128E-07
vn -0 1 1.1082036E-07
vn 1.525856E-07 1 1.5418259E-07
vn -0 1 1.16079995E-07
vn -0 1 0
vn -0 1 0
vn -0 1 0
vn 1.525856E-07 1 1.5418259E-07
vn 2.1714641E-07 1 0
vn 2.4992465E-07 1 0
vn 2.5026026E-07 1 1.15662154E-07
vn 2.5128432E-07 1 1.9546407E-07
vn 2.5128432E-07 1 1.9546407E-07
vn -0.70057714 0 -0.7135768
vn -0.86623967 0 -0.4996286
vn -0.86623967 0 -0.4996286
vn -0.700577 0 -0.7135768
vn -0.4836195 0 -0.87527835
vn -0.4836195 0 -0.87527835
g step1_CS_0
f 3/3/3 2/2/2 1/1/1
f 4/4/4 3/3/3 1/1/1
f 7/7/7 6/6/6 5/5/5
f 8/8/8 7/7/7 5/5/5
f 11/11/11 10/10/10 9/9/9
f 12/12/12 11/11/11 9/9/9
f 15/15/15 14/14/14 13/13/13
f 16/16/16 15/15/15 13/13/13
f 19/19/19 18/18/18 17/17/17
f 20/20/20 19/19/19 17/17/17
f 23/23/23 22/22/22 21/21/21
f 24/24/24 23/23/23 21/21/21
f 25/25/25 23/23/23 24/24/24
f 26/26/26 25/25/25 24/24/24
f 29/29/29 28/28/28 27/27/27
f 30/30/30 29/29/29 27/27/27
f 30/30/30 27/27/27 31/31/31
f 32/32/32 30/30/30 31/31/31
f 35/35/35 34/34/34 33/33/33
f 36/36/36 35/35/35 33/33/33
f 36/36/36 33/33/33 37/37/37
f 38/38/38 36/36/36 37/37/37
f 41/41/41 40/40/40 39/39/39
f 42/42/42 41/41/41 39/39/39
f 42/42/42 39/39/39 43/43/43
f 44/44/44 42/42/42 43/43/43
f 47/47/47 46/46/46 45/45/45
f 48/48/48 47/47/47 45/45/45
f 49/49/49 47/47/47 48/48/48
f 50/50/50 49/49/49 48/48/48
f 53/53/53 52/52/52 51/51/51
f 54/54/54 53/53/53 51/51/51
f 54/54/54 51/51/51 55/55/55
f 56/56/56 54/54/54 55/55/55
f 59/59/59 58/58/58 57/57/57
f 60/60/60 57/57/57 58/58/58
f 61/61/61 60/60/60 58/58/58
f 62/62/62 60/60/60 61/61/61
f 63/63/63 62/62/62 61/61/61
f 65/65/65 58/58/58 64/64/64
f 58/58/58 65/65/65 66/66/66
f 67/67/67 58/58/58 66/66/66
f 67/67/67 66/66/66 68/68/68
f 69/69/69 67/67/67 68/68/68
f 72/72/72 71/71/71 70/70/70
f 73/73/73 72/72/72 70/70/70
f 73/73/73 70/70/70 74/74/74
f 75/75/75 73/73/73 74/74/74
