g step2_futurecatle_stair_R
v -0.43036163 0.14997609 -0.28990048
v -0.43036163 2.290362E-17 -0.3740445
v 0.5034999 2.4959732E-07 -0.3809863
v 0.5034999 0.1499761 -0.2968451
v -0.43036163 0.22646256 -0.13519324
v 0.5034999 0.22646268 -0.14214875
v 0.5034999 0.39961788 -0.09584708
v -0.43036163 0.3995461 -0.09063821
v -0.43036163 0.64925945 0.11212369
v -0.43036163 0.47617623 0.06756874
v 0.5034999 0.47617614 0.060599286
v 0.5034999 0.6492596 0.105152525
v -0.43036163 0.7258897 0.2703307
v 0.5034999 0.7258894 0.2633595
v 0.5034999 0.9269803 0.3084989
v -0.43036163 0.9269805 0.31547004
v 0.5034999 0.17416999 -0.27866268
v -0.43036163 0.17417023 -0.27171683
v -0.43036163 0.14997609 -0.28990048
v 0.5034999 0.1499761 -0.2968451
v 0.5034999 0.4238111 -0.07781887
v -0.43036163 0.4237385 -0.07276314
v -0.43036163 0.3995461 -0.09063821
v 0.5034999 0.39961788 -0.09584708
v 0.5034999 0.67345214 0.12302768
v -0.43036163 0.67345214 0.12999877
v -0.43036163 0.64925945 0.11212369
v 0.5034999 0.6492596 0.105152525
v 0.5034999 0.95138025 0.3257896
v -0.43036163 0.9513801 0.33276078
v -0.43036163 0.9269805 0.31547004
v 0.5034999 0.9269803 0.3084989
v 0.5034999 1.0069999 0.43110573
v -0.43036163 1.0069999 0.4797821
v -0.43036163 0.9513801 0.33276078
v 0.5034999 0.95138025 0.3257896
v 0.5034999 0.7258894 0.2633595
v -0.43036163 0.7258897 0.2703307
v -0.43036163 0.67345214 0.12999877
v 0.5034999 0.67345214 0.12302768
v 0.5034999 1.0069999 0.43110573
v 0.5034999 1.0069999 0.50350046
v -0.43036163 1.0069999 0.5035002
v -0.43036163 1.0069999 0.4797821
v 0.5034999 0.47617614 0.060599286
v -0.43036163 0.47617623 0.06756874
v -0.43036163 0.4237385 -0.07276314
v 0.5034999 0.4238111 -0.07781887
v 0.5034999 0.22646268 -0.14214875
v -0.43036163 0.22646256 -0.13519324
v -0.43036163 0.17417023 -0.27171683
v 0.5034999 0.17416999 -0.27866268
v -0.50350094 0.7425957 0.10278301
v -0.50350094 0.29873532 -0.2071403
v -0.450615 0.29873532 -0.20714031
v -0.450615 0.7425957 0.10278297
v -0.5035 0.18174472 -0.42797634
v -0.49262267 0.18174472 -0.42797658
v -0.450615 0.18174486 -0.31129837
v -0.5035 0.18174472 -0.22003125
v -0.450615 0.18174495 -0.18822658
v -0.450615 0.18174465 -0.15104994
v -0.5035 0.18174453 -0.15104997
v -0.49262264 2.1129163E-07 -0.48348278
v -0.49262267 0.18174472 -0.42797658
v -0.5035 0.18174472 -0.42797634
v -0.5035 2.4970564E-07 -0.48348278
v -0.49236745 0.18174493 -0.35091415
v -0.49236745 0.3083797 -0.31926593
v -0.5035 0.30837968 -0.31926584
v -0.50350094 0.18174478 -0.3509141
v -0.5035 0.30837968 -0.31926584
v -0.49236745 0.3083797 -0.31926593
v -0.450615 0.30837944 -0.19897473
v -0.5035 0.30837944 -0.19506128
v -0.450615 0.30837953 -0.19506127
v -0.5034994 0.8711163 0.41607192
v -0.5034994 0.87111646 0.11023565
v -0.49262252 0.87111646 0.11023565
v -0.450615 0.87112665 0.18704163
v -0.450615 0.87112653 0.41607192
v -0.49262252 0.7212663 0.042883858
v -0.49262252 0.87111646 0.11023565
v -0.5034994 0.87111646 0.11023565
v -0.5034994 0.7212663 0.042883877
v -0.49383873 0.8631436 0.15111364
v -0.49383873 1.042245 0.2141882
v -0.5034994 1.042245 0.2141882
v -0.5034994 0.8631433 0.15111364
v -0.5034991 1.0422448 0.44014972
v -0.5034994 1.042245 0.2141882
v -0.49383873 1.042245 0.2141882
v -0.44539037 1.0422448 0.32852933
v -0.45061493 1.0422448 0.44014958
v -0.450615 0.18174486 -0.31129837
v -0.450615 1.3768098E-07 -0.1882318
v -0.450615 0.18174495 -0.18822658
v -0.45061493 1.2411117E-07 -0.3966399
v -0.49262264 2.1129163E-07 -0.48348278
v -0.49262267 0.18174472 -0.42797658
v -0.44539037 1.0422448 0.32852933
v -0.450615 0.86314344 0.41607192
v -0.45061493 1.0422448 0.44014958
v -0.44539037 0.86314356 0.2654566
v -0.49383873 0.8631436 0.15111364
v -0.49383873 1.042245 0.2141882
v -0.49236745 0.18174493 -0.35091415
v -0.450615 0.18174465 -0.22979069
v -0.450615 0.30837944 -0.19897473
v -0.49236745 0.3083797 -0.31926593
v -0.49262252 0.7212663 0.042883858
v -0.450615 0.7212663 0.092243224
v -0.450615 0.87112665 0.18704163
v -0.49262252 0.87111646 0.11023565
v -0.5034991 1.0422448 0.44014972
v -0.45061493 1.0422448 0.44014958
v -0.45061493 1.0069997 0.47124672
v -0.5034991 1.0069997 0.47124678
v -0.5034991 1.0069997 0.47124678
v -0.45061493 1.0069997 0.47124672
v -0.45061493 1.0069997 0.50350034
v -0.5034994 1.0069997 0.5035004
v -0.450615 0.87112665 0.18704163
v -0.450615 0.7212663 0.092243224
v -0.450615 0.7212662 0.4160717
v -0.450615 0.8501478 0.41607192
v -0.45061493 2.0108763E-07 -0.3978853
v -0.3413949 4.7431662E-08 -0.39788562
v -0.3413949 1.0857728 0.21455534
v -0.45061493 1.0857728 0.21455528
v -0.3413949 4.7431662E-08 -0.39788562
v -0.3413949 -5.209899E-07 0.5035
v -0.3413949 1.1076999 0.5035003
v -0.3413949 1.0857728 0.21455534
v -0.3413949 1.1077 0.25209865
v -0.45061493 1.1076998 0.5035003
v -0.45061493 -3.6733388E-07 0.5035
v -0.45061493 2.0108763E-07 -0.3978853
v -0.45061493 1.0857728 0.21455528
v -0.45061493 1.1077 0.2520986
v -0.3413949 1.1076999 0.5035003
v -0.45061493 1.1076998 0.5035003
v -0.45061493 1.1077 0.2520986
v -0.3413949 1.1077 0.25209865
v -0.3413949 1.1077 0.25209865
v -0.45061493 1.1077 0.2520986
v -0.45061493 1.0857728 0.21455528
v -0.3413949 1.0857728 0.21455534
v -0.3413949 1.1076999 0.5035003
v -0.3413949 1.0069988 0.5035003
v -0.45061493 1.0069987 0.5035003
v -0.45061493 1.1076998 0.5035003
vt 0.95450443 0.2545002
vt 0.95450443 0.23534088
vt 0.9982091 0.23534088
vt 0.9982091 0.2545002
vt 0.95450443 0.27184883
vt 0.9982091 0.27184883
vt 0.9982091 0.290812
vt 0.95450443 0.290812
vt 0.95450443 0.29081118
vt 0.95450443 0.27184883
vt 0.9982091 0.27184883
vt 0.9982091 0.29081118
vt 0.95450443 0.27184883
vt 0.9982091 0.27184883
vt 0.9982091 0.29081118
vt 0.95450443 0.29081118
vt 0.9982091 0.25787023
vt 0.95450443 0.25787023
vt 0.95450443 0.2545002
vt 0.9982091 0.2545002
vt 0.9982091 0.29416233
vt 0.95450443 0.29416233
vt 0.95450443 0.290812
vt 0.9982091 0.290812
vt 0.9982091 0.29416138
vt 0.95450443 0.29416138
vt 0.95450443 0.29081118
vt 0.9982091 0.29081118
vt 0.9982091 0.29416233
vt 0.95450443 0.29416233
vt 0.95450443 0.29081118
vt 0.9982091 0.29081118
vt 0.9982091 0.31418723
vt 0.95450443 0.31418723
vt 0.95450443 0.29416233
vt 0.9982091 0.29416233
vt 0.9982091 0.30850595
vt 0.95450443 0.30850595
vt 0.95450443 0.29416138
vt 0.9982091 0.29416138
vt 0.9982091 0.31418723
vt 0.9982091 0.3214923
vt 0.95450443 0.31697112
vt 0.95450443 0.31418723
vt 0.9982091 0.30849624
vt 0.95450443 0.30849624
vt 0.95450443 0.29416233
vt 0.9982091 0.29416233
vt 0.9982091 0.27184883
vt 0.95450443 0.27184883
vt 0.95450443 0.25787023
vt 0.9982091 0.25787023
vt 0.93182904 0.15448736
vt 0.93182904 0.1387636
vt 0.9409091 0.1387636
vt 0.9409091 0.1544873
vt 0.9876821 0.15631068
vt 0.97830546 0.15631068
vt 0.9755232 0.1573763
vt 0.9876821 0.16734804
vt 0.9755084 0.16734804
vt 0.9755084 0.16734804
vt 0.9876821 0.16734804
vt 0.98638463 0.13937666
vt 0.98638463 0.15369783
vt 0.9796264 0.15369783
vt 0.9796264 0.13937666
vt 0.97841275 0.17011835
vt 0.97841275 0.17808084
vt 0.9702177 0.17808084
vt 0.9702177 0.17011835
vt 0.9857942 0.18093391
vt 0.9951004 0.18093392
vt 0.99783695 0.18404034
vt 0.9857993 0.18751104
vt 0.99783695 0.18751104
vt 0.98733646 0.20911387
vt 0.9873362 0.20481037
vt 0.9966424 0.20481037
vt 0.99939746 0.20596592
vt 0.9994121 0.20911387
vt 0.9780568 0.18834218
vt 0.9780568 0.19902906
vt 0.9702941 0.19902906
vt 0.9702941 0.18834218
vt 0.9780568 0.21010938
vt 0.9780568 0.22273278
vt 0.9702941 0.22273278
vt 0.9702941 0.21010938
vt 0.9831747 0.23127803
vt 0.9831759 0.22699767
vt 0.99157727 0.22699767
vt 0.99432075 0.22885416
vt 0.99526477 0.23127803
vt 0.99314284 0.15369783
vt 0.99964726 0.13937666
vt 0.99964726 0.15369783
vt 0.99314284 0.13937666
vt 0.98638463 0.13937666
vt 0.98638463 0.15369783
vt 0.99488795 0.22273278
vt 0.9997889 0.21010938
vt 0.9997889 0.22273278
vt 0.99488795 0.21010938
vt 0.98930335 0.21010938
vt 0.98930335 0.22273278
vt 0.97841275 0.17011835
vt 0.9852735 0.17011835
vt 0.9852735 0.17808084
vt 0.97841275 0.17808084
vt 0.9892414 0.18834218
vt 0.99488795 0.18834218
vt 0.99488795 0.19902906
vt 0.9892414 0.19902906
vt 0.9824241 0.2314764
vt 0.9887714 0.2314764
vt 0.9888385 0.23305084
vt 0.9824912 0.23305084
vt 0.92263883 0.15974775
vt 0.92454296 0.15974775
vt 0.92454284 0.16054945
vt 0.9226388 0.16054945
vt 0.99488795 0.19902906
vt 0.99488795 0.18834218
vt 0.9997889 0.18834218
vt 0.9997889 0.19902906
vt 0.91092956 0.1397574
vt 0.9192871 0.1397574
vt 0.9192871 0.20024341
vt 0.91092956 0.20024341
vt 0.9905424 0.15554056
vt 0.99929273 0.15554056
vt 0.99929273 0.16634734
vt 0.99452853 0.16613342
vt 0.9948908 0.16634734
vt 0.99929273 0.16634734
vt 0.99929273 0.15554056
vt 0.9905424 0.15554056
vt 0.99452853 0.16613342
vt 0.9948908 0.16634734
vt 0.9192871 0.21587402
vt 0.91092956 0.21587402
vt 0.91092956 0.20312756
vt 0.9192871 0.20312756
vt 0.9192871 0.20312756
vt 0.91092956 0.20312756
vt 0.91092956 0.20024341
vt 0.9192871 0.20024341
vt 0.9192871 0.21587402
vt 0.9192871 0.21978366
vt 0.91092956 0.21978366
vt 0.91092956 0.21587402
vn -0.0064840834 0.48928383 -0.8721006
vn -0.0064840834 0.48928383 -0.8721006
vn -0.0064840834 0.48928383 -0.8721006
vn -0.0064840834 0.48928383 -0.8721006
vn -0.0063093035 0.25381213 -0.96723294
vn -0.0063093035 0.25381213 -0.96723294
vn -0.006309304 0.2538121 -0.967233
vn -0.006309304 0.2538121 -0.967233
vn -0.0072281454 0.24928088 -0.96840423
vn -0.0072281454 0.24928088 -0.96840423
vn -0.007228145 0.24928088 -0.96840423
vn -0.007228145 0.24928088 -0.96840423
vn -0.007283393 0.21901649 -0.975694
vn -0.007283393 0.21901649 -0.975694
vn -0.007283392 0.21901648 -0.975694
vn -0.007283393 0.21901649 -0.975694
vn -0.0059450762 0.60078275 -0.7993902
vn -0.0059450762 0.60078275 -0.7993902
vn -0.0059450762 0.60078275 -0.7993902
vn -0.0059450767 0.6007827 -0.79939026
vn -0.0044594915 0.59588677 -0.8030561
vn -0.0044594915 0.59588677 -0.8030561
vn -0.004459492 0.59588677 -0.8030561
vn -0.0044594915 0.59588677 -0.80305606
vn -0.0060037416 0.5942435 -0.8042627
vn -0.0060037416 0.5942435 -0.8042627
vn -0.0060037416 0.5942435 -0.8042627
vn -0.0060037416 0.5942435 -0.8042627
vn -0.006090543 0.5781752 -0.81589
vn -0.006090543 0.5781752 -0.81589
vn -0.006090543 0.5781751 -0.81589
vn -0.0060905423 0.5781752 -0.8158899
vn -0.012017654 0.9149668 -0.40334997
vn -0.012017652 0.9149668 -0.40334994
vn -0.012017652 0.9149668 -0.40334994
vn -0.012017654 0.9149668 -0.40335003
vn -0.0026127526 0.9367358 -0.35002747
vn -0.0026127528 0.9367358 -0.3500275
vn -0.0026127526 0.9367358 -0.3500275
vn -0.0026127524 0.9367358 -0.35002744
vn -0 1 0
vn -0 1 0
vn -0 1 0
vn -0 1 0
vn -0.0023021668 0.93602663 -0.35192177
vn -0.0023021665 0.93602663 -0.35192168
vn -0.0023021668 0.93602663 -0.3519217
vn -0.0023021665 0.93602663 -0.35192174
vn -0.0026622575 0.93383354 -0.35769805
vn -0.002662257 0.93383354 -0.35769808
vn -0.0026622575 0.93383354 -0.35769808
vn -0.0026622578 0.93383354 -0.35769808
vn -4.323617E-07 0.57249635 -0.81990725
vn -4.3236176E-07 0.5724963 -0.8199073
vn -4.323617E-07 0.5724963 -0.81990725
vn -4.3236167E-07 0.5724963 -0.81990725
vn -2.8372733E-06 1 -3.484027E-07
vn -2.837273E-06 1 -3.484027E-07
vn -2.837273E-06 1 -3.484027E-07
vn -3.4420905E-06 1 1.307081E-06
vn -4.0783607E-06 1 3.0486592E-06
vn -4.683178E-06 1 4.704143E-06
vn -4.683178E-06 1 4.704143E-06
vn -9.637806E-06 0.29208988 -0.9563909
vn -9.637806E-06 0.29208988 -0.9563909
vn -9.637807E-06 0.2920899 -0.9563909
vn -9.637807E-06 0.2920899 -0.9563909
vn -8.784395E-06 0.24246016 -0.9701614
vn -8.784395E-06 0.24246016 -0.9701614
vn -8.784395E-06 0.24246016 -0.9701614
vn -8.7843955E-06 0.24246016 -0.9701614
vn -2.1061719E-07 1 1.3176099E-06
vn -2.1061719E-07 1 1.3176096E-06
vn -2.1061719E-07 1 1.3176096E-06
vn -2.1061719E-07 1 1.3176099E-06
vn -2.1061722E-07 1 1.3176096E-06
vn -0.00018807869 1 -3.2583816E-06
vn -0.00018807869 1 -3.2583816E-06
vn -0.00018807869 1 -3.2583816E-06
vn -0.0001880787 1 -3.2583819E-06
vn -0.00018807869 1 -3.2583816E-06
vn -7.576559E-07 0.4099559 -0.9121053
vn -7.5765576E-07 0.40995586 -0.9121053
vn -7.5765576E-07 0.40995586 -0.9121053
vn -7.5765587E-07 0.4099559 -0.9121053
vn -5.271873E-06 0.3321751 -0.94321775
vn -5.2718733E-06 0.3321751 -0.94321775
vn -5.2718733E-06 0.3321751 -0.94321775
vn -5.2718724E-06 0.33217508 -0.94321775
vn 1.2775263E-06 1 7.75639E-07
vn 1.2775263E-06 1 7.75639E-07
vn 1.2775262E-06 1 7.75639E-07
vn 1.2775263E-06 1 7.75639E-07
vn 1.2775262E-06 1 7.7563897E-07
vn 0.9885145 0.05460366 -0.1409166
vn 1 0 1.15886344E-07
vn 1 0 1.1588634E-07
vn 0.96505415 0.09468189 -0.24434745
vn 0.91439676 0.14626597 -0.3774717
vn 0.91439676 0.14626598 -0.37747175
vn 0.98986477 0.0495491 -0.1330891
vn 0.9991602 -0.009686606 0.039813086
vn 0.9991602 -0.009686605 0.039813086
vn 0.9713802 0.08046464 -0.22348575
vn 0.91218716 0.13611506 -0.38650653
vn 0.91218716 0.13611506 -0.38650653
vn 0.94200414 0.08036176 -0.32583767
vn 0.94200414 0.08036176 -0.32583764
vn 0.94200414 0.080361746 -0.32583767
vn 0.94200414 0.08036175 -0.32583764
vn 0.79725266 0.287242 -0.53092396
vn 0.7972527 0.287242 -0.5309239
vn 0.7972527 0.287242 -0.5309239
vn 0.79725266 0.287242 -0.53092384
vn 1.6340357E-06 0.66160446 0.749853
vn 1.6340357E-06 0.66160446 0.749853
vn 1.6340357E-06 0.66160446 0.749853
vn 1.6340356E-06 0.6616044 0.749853
vn -0 1 0
vn -0 1 0
vn -0 1 0
vn -0 1 0
vn 1 0 0
vn 1 0 0
vn 1 0 0
vn 1 0 0
vn -6.36416E-07 0.49129295 -0.8709944
vn -6.3641613E-07 0.49129295 -0.8709944
vn -6.3641613E-07 0.49129295 -0.8709944
vn -6.3641613E-07 0.49129295 -0.8709944
vn 1 0 0
vn 1 0 0
vn 1 0 0
vn 1 0 0
vn 1 0 0
vn -1 0 0
vn -1 0 0
vn -1 0 0
vn -1 0 0
vn -1 0 0
vn -3.5171226E-07 1 7.639965E-07
vn -3.5171226E-07 1 7.639965E-07
vn -3.517122E-07 1 7.639965E-07
vn -3.5171226E-07 1 7.639965E-07
vn 2.6474916E-07 0.8635094 -0.50433266
vn 2.6474913E-07 0.8635094 -0.50433266
vn 2.6474916E-07 0.8635094 -0.50433266
vn 2.6474913E-07 0.8635094 -0.50433266
vn -0 0 1
vn -0 0 1
vn -0 0 1
vn -0 0 1
g step2_futurecatle_stair_R_0
f 3/3/3 2/2/2 1/1/1
f 4/4/4 3/3/3 1/1/1
f 7/7/7 6/6/6 5/5/5
f 8/8/8 7/7/7 5/5/5
f 11/11/11 10/10/10 9/9/9
f 12/12/12 11/11/11 9/9/9
f 15/15/15 14/14/14 13/13/13
f 16/16/16 15/15/15 13/13/13
f 19/19/19 18/18/18 17/17/17
f 20/20/20 19/19/19 17/17/17
f 23/23/23 22/22/22 21/21/21
f 24/24/24 23/23/23 21/21/21
f 27/27/27 26/26/26 25/25/25
f 28/28/28 27/27/27 25/25/25
f 31/31/31 30/30/30 29/29/29
f 32/32/32 31/31/31 29/29/29
f 35/35/35 34/34/34 33/33/33
f 36/36/36 35/35/35 33/33/33
f 39/39/39 38/38/38 37/37/37
f 40/40/40 39/39/39 37/37/37
f 43/43/43 42/42/42 41/41/41
f 44/44/44 43/43/43 41/41/41
f 47/47/47 46/46/46 45/45/45
f 48/48/48 47/47/47 45/45/45
f 51/51/51 50/50/50 49/49/49
f 52/52/52 51/51/51 49/49/49
f 55/55/55 54/54/54 53/53/53
f 56/56/56 55/55/55 53/53/53
f 59/59/59 58/58/58 57/57/57
f 57/57/57 60/60/60 59/59/59
f 60/60/60 61/61/61 59/59/59
f 62/62/62 61/61/61 60/60/60
f 63/63/63 62/62/62 60/60/60
f 66/66/66 65/65/65 64/64/64
f 67/67/67 66/66/66 64/64/64
f 70/70/70 69/69/69 68/68/68
f 71/71/71 70/70/70 68/68/68
f 74/74/74 73/73/73 72/72/72
f 72/72/72 75/75/75 74/74/74
f 75/75/75 76/76/76 74/74/74
f 79/79/79 78/78/78 77/77/77
f 77/77/77 80/80/80 79/79/79
f 77/77/77 81/81/81 80/80/80
f 84/84/84 83/83/83 82/82/82
f 85/85/85 84/84/84 82/82/82
f 88/88/88 87/87/87 86/86/86
f 89/89/89 88/88/88 86/86/86
f 92/92/92 91/91/91 90/90/90
f 90/90/90 93/93/93 92/92/92
f 90/90/90 94/94/94 93/93/93
f 97/97/97 96/96/96 95/95/95
f 96/96/96 98/98/98 95/95/95
f 95/95/95 98/98/98 99/99/99
f 100/100/100 95/95/95 99/99/99
f 103/103/103 102/102/102 101/101/101
f 102/102/102 104/104/104 101/101/101
f 101/101/101 104/104/104 105/105/105
f 106/106/106 101/101/101 105/105/105
f 109/109/109 108/108/108 107/107/107
f 110/110/110 109/109/109 107/107/107
f 113/113/113 112/112/112 111/111/111
f 114/114/114 113/113/113 111/111/111
f 117/117/117 116/116/116 115/115/115
f 118/118/118 117/117/117 115/115/115
f 121/121/121 120/120/120 119/119/119
f 122/122/122 121/121/121 119/119/119
f 125/125/125 124/124/124 123/123/123
f 126/126/126 125/125/125 123/123/123
f 129/129/129 128/128/128 127/127/127
f 130/130/130 129/129/129 127/127/127
f 133/133/133 132/132/132 131/131/131
f 131/131/131 134/134/134 133/133/133
f 134/134/134 135/135/135 133/133/133
f 138/138/138 137/137/137 136/136/136
f 136/136/136 139/139/139 138/138/138
f 136/136/136 140/140/140 139/139/139
f 143/143/143 142/142/142 141/141/141
f 144/144/144 143/143/143 141/141/141
f 147/147/147 146/146/146 145/145/145
f 148/148/148 147/147/147 145/145/145
f 151/151/151 150/150/150 149/149/149
f 152/152/152 151/151/151 149/149/149
