g step1_wall_C
v -0.16722234 1.1070873 -0.4258047
v -0.16722263 1.1070874 -0.2140127
v -0.5114572 1.1070874 -0.1603948
v -0.51145685 1.107087 -0.47942317
v -0.22084059 1.1070871 -0.479423
v -0.16722234 1.1070873 -0.4258047
v -0.16722263 1.1070874 -0.2140127
v -0.2208409 1.1070874 -0.16039461
v -0.5114572 1.1070874 -0.1603948
v -0.50349885 0.7573709 -0.118349396
v -0.50349885 0.75711304 -0.5035003
v -0.11834501 0.75737107 -0.5034999
v -0.51145685 1.107087 -0.47942317
v -0.53724617 1.0069997 -0.50763184
v -0.19794147 1.0069999 -0.5076318
v -0.22084059 1.1070871 -0.479423
v -0.2208409 1.1070874 -0.16039461
v -0.19794184 1.0070002 -0.1168749
v -0.5372463 1.0070001 -0.11687494
v -0.5114572 1.1070874 -0.1603948
v -0.16722234 1.1070873 -0.4258047
v -0.14142802 1.0069999 -0.44870377
v -0.14142838 1.0070002 -0.19111365
v -0.16722263 1.1070874 -0.2140127
v -0.19794147 1.0069999 -0.5076318
v -0.14142802 1.0069999 -0.44870377
v -0.16722234 1.1070873 -0.4258047
v -0.22084059 1.1070871 -0.479423
v -0.14142838 1.0070002 -0.19111365
v -0.19794184 1.0070002 -0.1168749
v -0.2208409 1.1070874 -0.16039461
v -0.16722263 1.1070874 -0.2140127
v -0.22621544 1.16088 -0.41607907
v -0.22621498 1.1608803 -0.22326206
v -0.46668485 1.16088 -0.2232621
v -0.4666842 1.1608797 -0.4160791
v -0.21336028 1.1054872 -0.43035245
v -0.22621544 1.16088 -0.41607907
v -0.4666842 1.1608797 -0.4160791
v -0.48017898 1.1054866 -0.4303525
v -0.48017898 1.1054869 -0.2089888
v -0.46668485 1.16088 -0.2232621
v -0.22621498 1.1608803 -0.22326206
v -0.21336046 1.1054872 -0.20898873
v -0.4666842 1.1608797 -0.4160791
v -0.46668485 1.16088 -0.2232621
v -0.48017898 1.1054869 -0.2089888
v -0.48017898 1.1054866 -0.4303525
v -0.22621544 1.16088 -0.41607907
v -0.21336028 1.1054872 -0.43035245
v -0.21336046 1.1054872 -0.20898873
v -0.22621498 1.1608803 -0.22326206
v -0.53724617 1.0069997 -0.50763184
v -0.51145685 1.107087 -0.47942317
v -0.5114572 1.1070874 -0.1603948
v -0.5372463 1.0070001 -0.11687494
v -0.44628936 1.1582092 -0.25023142
v -0.44628924 1.5260408 -0.25023153
v -0.24044852 1.5260408 -0.27052644
v -0.2404486 1.1582092 -0.27052635
v -0.2404486 1.1582092 -0.3727498
v -0.24044867 1.5260408 -0.37274992
v -0.4462893 1.5260408 -0.39304492
v -0.44628936 1.1582092 -0.39304468
v -0.5147253 1.7101812 -0.14677456
v -0.17486109 1.710181 -0.1467723
v -0.16980515 1.4887165 -0.14675042
v -0.51978236 1.4887165 -0.14674765
v -0.174861 1.7101808 -0.49827147
v -0.51472527 1.7101805 -0.4982737
v -0.51978225 1.4887165 -0.4982929
v -0.169805 1.4887161 -0.49829555
v -0.19409971 1.7412169 -0.16862147
v -0.17486109 1.710181 -0.1467723
v -0.5147253 1.7101812 -0.14677456
v -0.49599114 1.7412169 -0.16862419
v -0.49599093 1.7412169 -0.47642472
v -0.51472527 1.7101805 -0.4982737
v -0.174861 1.7101808 -0.49827147
v -0.1940996 1.7412169 -0.47642195
v -0.49599114 1.7412169 -0.16862419
v -0.49599093 1.7412169 -0.47642472
v -0.1940996 1.7412169 -0.47642195
v -0.19409971 1.7412169 -0.16862147
v -0.51978236 1.4887165 -0.14674765
v -0.51978225 1.4887165 -0.4982929
v -0.51472527 1.7101805 -0.4982737
v -0.5147253 1.7101812 -0.14677456
v -0.5147253 1.7101812 -0.14677456
v -0.51472527 1.7101805 -0.4982737
v -0.49599093 1.7412169 -0.47642472
v -0.49599114 1.7412169 -0.16862419
v -0.16980515 1.4887165 -0.14675042
v -0.17486109 1.710181 -0.1467723
v -0.174861 1.7101808 -0.49827147
v -0.169805 1.4887161 -0.49829555
v -0.17486109 1.710181 -0.1467723
v -0.19409971 1.7412169 -0.16862147
v -0.1940996 1.7412169 -0.47642195
v -0.174861 1.7101808 -0.49827147
v -0.2404486 1.1582092 -0.3727498
v -0.2404486 1.1582092 -0.27052635
v -0.24044852 1.5260408 -0.27052644
v -0.24044867 1.5260408 -0.37274992
v -0.44628936 1.1582092 -0.39304468
v -0.4462893 1.5260408 -0.39304492
v -0.44628924 1.5260408 -0.25023153
v -0.44628936 1.1582092 -0.25023142
v -0.06772665 0.75711304 -0.18722577
v -0.06772665 0.7571132 -0.3354505
v 0.0027633496 0.7269032 -0.33545062
v 0.0027633496 0.7269032 -0.11495843
v 0.51825166 0.05527794 -0.3354507
v 0.52205235 0.05527794 0.35651255
v -0.12431708 0.7269032 0.011754634
v -0.20036651 0.7571132 -0.05873533
v 0.3921432 0.05527794 0.52088416
v -0.048309833 0.72694105 -0.5034999
v 0.44115484 0.055278055 -0.50349987
v 0.51825166 0.05527794 -0.3354507
v 0.0027633496 0.7269032 -0.33545062
v -0.06772665 0.7571132 -0.3354505
v -0.11834501 0.75737107 -0.5034999
v -0.11834501 0.75737107 -0.5034999
v -0.06772665 0.7571132 -0.3354505
v -0.50349885 0.7573709 -0.118349396
v -0.06772665 0.75711304 -0.18722577
v -0.20036651 0.7571132 -0.05873533
v -0.34492207 0.75724214 -0.05873535
v -0.50349885 0.055278014 0.44115096
v -0.34492207 0.726922 0.011754634
v -0.34492207 0.05527794 0.5206812
v -0.50349885 0.7269409 -0.048314203
v -0.34492207 0.75724214 -0.05873535
v -0.50349885 0.7573709 -0.118349396
v -0.34492207 0.05527794 0.5206812
v -0.12431708 0.7269032 0.011754634
v 0.3921432 0.05527794 0.52088416
v -0.34492207 0.726922 0.011754634
v -0.20036651 0.7571132 -0.05873533
v -0.34492207 0.75724214 -0.05873535
v -0.14990522 0.75545555 -0.5035003
v -0.25116372 1.0290059 -0.34903157
v -0.31934103 1.0290065 -0.5035003
v -0.098636016 0.75509924 -0.3490314
v -0.26451474 1.0290059 -0.3128402
v -0.098636016 0.7550991 -0.1990238
v -0.50349885 0.75545543 -0.14990935
v -0.50349885 1.029006 -0.31934527
v -0.3491031 1.0290059 -0.25979042
v -0.34910303 0.75509924 -0.09046291
v -0.3131716 1.0290059 -0.26651937
v -0.2260415 0.75509924 -0.089074045
v -0.26451474 1.0290059 -0.3128402
v -0.098636016 0.7550991 -0.1990238
vt 0.25909626 0.7596315
vt 0.25909626 0.7702018
vt 0.3042855 0.7702018
vt 0.3042855 0.7596315
vt 0.26171583 0.7596315
vt 0.25909626 0.7596315
vt 0.25909626 0.7702018
vt 0.26171583 0.7702018
vt 0.3042855 0.7702018
vt 0.05291829 0.96115434
vt 0.05607094 0.96299684
vt 0.05905123 0.96115434
vt 0.3042855 0.7596315
vt 0.3042855 0.75020623
vt 0.26197004 0.75020623
vt 0.26197004 0.7596315
vt 0.26171583 0.7596315
vt 0.26171583 0.75020623
vt 0.3042855 0.75020623
vt 0.3042855 0.7596315
vt 0.25935444 0.7596315
vt 0.25935444 0.75020623
vt 0.2526025 0.75020623
vt 0.2526025 0.7596315
vt 0.26165497 0.75020623
vt 0.25950456 0.75020623
vt 0.25950456 0.7596315
vt 0.26165497 0.7596315
vt 0.25950456 0.75020623
vt 0.26165497 0.75020623
vt 0.26165497 0.7596315
vt 0.25950456 0.7596315
vt 0.26300102 0.7755109
vt 0.26300102 0.78474796
vt 0.3042855 0.78474796
vt 0.3042855 0.7755109
vt 0.26189968 0.7708592
vt 0.26189968 0.77526116
vt 0.3042855 0.77526116
vt 0.3042855 0.7708592
vt 0.3042855 0.7708592
vt 0.3042855 0.77526116
vt 0.26189968 0.77526116
vt 0.26189968 0.7708592
vt 0.25204694 0.77592504
vt 0.25891274 0.77592504
vt 0.25891274 0.77038455
vt 0.25204694 0.77038455
vt 0.25204694 0.77592504
vt 0.25204694 0.77038455
vt 0.25891274 0.77038455
vt 0.25891274 0.77592504
vt 0.31887048 0.75070494
vt 0.31887048 0.75953954
vt 0.31912708 0.75953954
vt 0.31912708 0.75070494
vt 0.30861956 0.7889771
vt 0.30861962 0.8175357
vt 0.3149266 0.8175357
vt 0.3149265 0.7889771
vt 0.2822133 0.7889771
vt 0.28221336 0.8175357
vt 0.28898522 0.8175357
vt 0.28898522 0.7889771
vt 0.27870196 0.8023994
vt 0.27870196 0.8023994
vt 0.27870196 0.78770095
vt 0.27870196 0.78770095
vt 0.2523122 0.8024095
vt 0.2523122 0.8024095
vt 0.2523122 0.78770095
vt 0.2523122 0.78770095
vt 0.27870876 0.8048318
vt 0.2795476 0.8027814
vt 0.2795476 0.8027814
vt 0.27870876 0.8048318
vt 0.2523657 0.8048717
vt 0.2512405 0.8027814
vt 0.2512405 0.8027814
vt 0.2523657 0.8048717
vt 0.27721813 0.80472505
vt 0.25390023 0.80472505
vt 0.25390023 0.8179106
vt 0.27721813 0.81766367
vt 0.2523546 0.7878097
vt 0.27861264 0.7878096
vt 0.27861264 0.8026259
vt 0.2523546 0.8026259
vt 0.25236708 0.8026259
vt 0.27862516 0.8026259
vt 0.27764994 0.80459934
vt 0.25334227 0.80459934
vt 0.2523546 0.7878097
vt 0.2523546 0.8026259
vt 0.27861264 0.8026259
vt 0.27861264 0.7878096
vt 0.25236708 0.8026259
vt 0.25334227 0.80459934
vt 0.27764994 0.80459934
vt 0.27862516 0.8026259
vt 0.28898522 0.7889771
vt 0.30861956 0.7889771
vt 0.30861962 0.8175357
vt 0.28898522 0.8175357
vt 0.28898522 0.7889771
vt 0.28898522 0.8175357
vt 0.30861962 0.8175357
vt 0.30861956 0.7889771
vt 0.008982547 0.9556665
vt 0.013158182 0.9556665
vt 0.013158182 0.9531748
vt 0.008982547 0.9531748
vt 0.013158182 0.93277526
vt 0.008982547 0.93277526
vt 0.006933054 0.9531748
vt 0.006933054 0.9556665
vt 0.006933054 0.93277526
vt 0.0201574 0.9531748
vt 0.0201574 0.93277526
vt 0.019171845 0.93277526
vt 0.019171845 0.9531748
vt 0.019171845 0.9556665
vt 0.0201574 0.9556665
vt 0.05905123 0.96115434
vt 0.05835883 0.96115434
vt 0.05291829 0.96115434
vt 0.057666425 0.96115434
vt 0.05462632 0.96115434
vt 0.05377231 0.96115434
vt 0.0201574 0.93277526
vt 0.019171845 0.9531748
vt 0.019171845 0.93277526
vt 0.0201574 0.9531748
vt 0.019171845 0.9556665
vt 0.0201574 0.9556665
vt 0.013158182 0.93277526
vt 0.008982547 0.9531748
vt 0.008982547 0.93277526
vt 0.013158182 0.9531748
vt 0.008982547 0.9556665
vt 0.013158182 0.9556665
vt 0.020345533 0.9650737
vt 0.0176241 0.97231966
vt 0.020345533 0.97231966
vt 0.0176241 0.9650737
vt 0.014750803 0.97231966
vt 0.014750803 0.9650737
vt 0.020345533 0.9650737
vt 0.020345533 0.97231966
vt 0.0176241 0.97231966
vt 0.0176241 0.9650737
vt 0.014750803 0.97231966
vt 0.014750803 0.9650737
vt 0.008207432 0.97231966
vt 0.008207432 0.9650737
vn -3.2451706E-07 1 -9.699107E-07
vn -3.2451712E-07 1 -9.699107E-07
vn -3.2451706E-07 1 -9.699107E-07
vn -3.2451712E-07 1 -9.699107E-07
vn -3.2451706E-07 1 -9.699107E-07
vn -3.2451706E-07 1 -9.699107E-07
vn -3.2451712E-07 1 -9.699107E-07
vn -3.245171E-07 1 -9.699107E-07
vn -3.2451706E-07 1 -9.699107E-07
vn -0.058986463 0.9858059 0.1571859
vn 0.00022388108 1 9.181637E-05
vn 0.16557017 0.98494685 -0.049662445
vn 3.122528E-07 0.27127293 -0.9625024
vn 3.1225278E-07 0.2712729 -0.9625024
vn 3.1225278E-07 0.2712729 -0.9625024
vn 3.122528E-07 0.27127296 -0.9625024
vn -4.8108E-07 0.39875373 0.91705805
vn -4.8108E-07 0.39875373 0.91705805
vn -4.8107995E-07 0.39875373 0.91705805
vn -4.8107995E-07 0.39875373 0.91705805
vn 0.9683585 0.24956337 1.1003453E-06
vn 0.9683585 0.24956334 1.1003452E-06
vn 0.9683585 0.24956334 1.1003452E-06
vn 0.9683585 0.24956334 1.1003452E-06
vn 0.67409337 0.3323913 -0.6596317
vn 0.6740935 0.33239132 -0.6596318
vn 0.6740935 0.33239132 -0.6596318
vn 0.67409337 0.3323913 -0.6596317
vn 0.70327413 0.37207413 0.6057774
vn 0.7032742 0.37207413 0.60577744
vn 0.7032742 0.37207413 0.60577744
vn 0.70327425 0.37207416 0.6057774
vn -1.4377134E-06 1 -1.394577E-06
vn -1.4377134E-06 1 -1.394577E-06
vn -1.4377134E-06 1 -1.3945769E-06
vn -1.4377134E-06 1 -1.394577E-06
vn -1.957938E-07 0.24952462 -0.9683685
vn -1.9579379E-07 0.24952462 -0.9683685
vn -1.9579379E-07 0.2495246 -0.9683685
vn -1.9579379E-07 0.2495246 -0.9683685
vn -5.607178E-07 0.24952269 0.9683689
vn -5.6071775E-07 0.24952269 0.9683689
vn -5.6071775E-07 0.24952269 0.9683689
vn -5.607178E-07 0.24952269 0.9683689
vn -0.97158515 0.23669013 -1.7958257E-06
vn -0.97158515 0.23669013 -1.7958256E-06
vn -0.97158515 0.23669015 -1.7958257E-06
vn -0.97158515 0.23669013 -1.7958256E-06
vn 0.97411364 0.2260589 -8.001661E-07
vn 0.97411364 0.22605887 -8.0016605E-07
vn 0.97411364 0.22605889 -8.0016605E-07
vn 0.97411364 0.22605889 -8.0016605E-07
vn -0.9683704 0.24951713 -7.401918E-07
vn -0.9683704 0.24951713 -7.401919E-07
vn -0.9683704 0.24951713 -7.401919E-07
vn -0.9683704 0.24951713 -7.4019187E-07
vn 0.09811952 2.872675E-07 0.9951747
vn 0.09811951 2.8726748E-07 0.9951747
vn 0.09811951 2.8726748E-07 0.9951747
vn 0.09811951 2.8726748E-07 0.9951747
vn 0.09811965 -4.690342E-07 -0.9951747
vn 0.09811965 -4.690342E-07 -0.9951747
vn 0.09811965 -4.690342E-07 -0.9951747
vn 0.09811965 -4.690342E-07 -0.9951747
vn 7.2393226E-07 0.00011018687 1
vn 7.2393226E-07 0.00011018687 1
vn 7.239323E-07 0.00011018687 1
vn 7.2393226E-07 0.00011018687 1
vn -6.125165E-07 9.7741664E-05 -1
vn -6.1251654E-07 9.774166E-05 -1
vn -6.1251654E-07 9.774166E-05 -1
vn -6.1251654E-07 9.774166E-05 -1
vn -6.2253093E-06 0.57565844 0.81769025
vn -6.225309E-06 0.57565844 0.81769025
vn -6.225309E-06 0.57565844 0.81769025
vn -6.2253084E-06 0.57565844 0.81769025
vn 6.2247664E-06 0.5756499 -0.8176963
vn 6.2247664E-06 0.5756499 -0.8176963
vn 6.2247664E-06 0.5756499 -0.8176963
vn 6.2247664E-06 0.5756499 -0.8176963
vn -0 1 0
vn -0 1 0
vn -0 1 0
vn -0 1 0
vn -0.99973935 0.022828467 -2.3844618E-07
vn -0.99973935 0.02282847 -2.384462E-07
vn -0.99973935 0.022828469 -2.384462E-07
vn -0.99973935 0.022828469 -2.384462E-07
vn -0.85611933 0.5167783 -8.309818E-07
vn -0.8561192 0.5167783 -8.309817E-07
vn -0.8561192 0.5167783 -8.309817E-07
vn -0.8561192 0.51677835 -8.3098166E-07
vn 0.99973947 0.022823727 3.3484903E-07
vn 0.99973947 0.022823729 3.3484906E-07
vn 0.99973947 0.022823729 3.3484906E-07
vn 0.99973947 0.022823727 3.3484903E-07
vn 0.8499485 0.52686566 0
vn 0.8499485 0.52686566 0
vn 0.8499485 0.52686566 0
vn 0.84994847 0.5268657 0
vn 1 0 -7.515692E-07
vn 1 0 -7.515692E-07
vn 1 0 -7.515692E-07
vn 1 0 -7.515692E-07
vn -1 2.6108427E-07 1.344902E-07
vn -1 2.6108427E-07 1.344902E-07
vn -1 2.610843E-07 1.344902E-07
vn -1 2.610843E-07 1.344902E-07
vn 0.20085411 0.97824025 0.05199681
vn 0.21936172 0.97499824 -0.03548077
vn 0.6252205 0.7722697 -0.11268857
vn 0.5422984 0.82028306 0.18179199
vn 0.78889805 0.59926456 -0.13609463
vn 0.64807624 0.706882 0.28339908
vn 0.1972344 0.82279927 0.53301024
vn 0.049483806 0.97820926 0.20163813
vn 0.32084677 0.7124825 0.62404007
vn 0.574554 0.7935684 -0.2003422
vn 0.7658265 0.57293725 -0.29198068
vn 0.78889805 0.59926456 -0.13609463
vn 0.6252205 0.7722697 -0.11268857
vn 0.21936172 0.97499824 -0.03548077
vn 0.16557017 0.98494685 -0.049662445
vn 0.16557017 0.98494685 -0.049662445
vn 0.21936172 0.97499824 -0.03548077
vn -0.058986463 0.9858059 0.1571859
vn 0.20085411 0.97824025 0.05199681
vn 0.049483806 0.97820926 0.20163813
vn -0.045722593 0.9736506 0.2234143
vn -0.33306912 0.5624593 0.7567724
vn -0.13180317 0.76639354 0.6287042
vn -0.15286581 0.5936612 0.7900623
vn -0.2332633 0.7918583 0.5644012
vn -0.045722593 0.9736506 0.2234143
vn -0.058986463 0.9858059 0.1571859
vn -0.15286581 0.5936612 0.7900623
vn 0.1972344 0.82279927 0.53301024
vn 0.32084677 0.7124825 0.62404007
vn -0.13180317 0.76639354 0.6287042
vn 0.049483806 0.97820926 0.20163813
vn -0.045722593 0.9736506 0.2234143
vn 0.8179067 0.48101643 -0.31567672
vn 0.8530291 0.5051465 -0.1310276
vn 0.8179067 0.4810165 -0.31567675
vn 0.8541977 0.5060449 -0.119435824
vn 0.7395962 0.5730458 0.35300982
vn 0.72635746 0.57555944 0.37568098
vn -0.31089315 0.500123 0.80822176
vn -0.31089315 0.500123 0.80822176
vn -0.14811176 0.52626616 0.8373213
vn -0.1318877 0.5280401 0.8389155
vn 0.29910612 0.58058757 0.75726724
vn 0.30929032 0.5812932 0.7526206
vn 0.7395962 0.5730458 0.35300982
vn 0.72635746 0.57555944 0.37568098
g step1_wall_C_0
f 3/3/3 2/2/2 1/1/1
f 5/5/5 4/4/4 3/3/3
f 3/3/3 6/6/6 5/5/5
f 9/9/9 8/8/8 7/7/7
f 12/12/12 11/11/11 10/10/10
f 15/15/15 14/14/14 13/13/13
f 16/16/16 15/15/15 13/13/13
f 19/19/19 18/18/18 17/17/17
f 20/20/20 19/19/19 17/17/17
f 23/23/23 22/22/22 21/21/21
f 24/24/24 23/23/23 21/21/21
f 27/27/27 26/26/26 25/25/25
f 28/28/28 27/27/27 25/25/25
f 31/31/31 30/30/30 29/29/29
f 32/32/32 31/31/31 29/29/29
f 35/35/35 34/34/34 33/33/33
f 36/36/36 35/35/35 33/33/33
f 39/39/39 38/38/38 37/37/37
f 40/40/40 39/39/39 37/37/37
f 43/43/43 42/42/42 41/41/41
f 44/44/44 43/43/43 41/41/41
f 47/47/47 46/46/46 45/45/45
f 48/48/48 47/47/47 45/45/45
f 51/51/51 50/50/50 49/49/49
f 52/52/52 51/51/51 49/49/49
f 55/55/55 54/54/54 53/53/53
f 56/56/56 55/55/55 53/53/53
f 59/59/59 58/58/58 57/57/57
f 60/60/60 59/59/59 57/57/57
f 63/63/63 62/62/62 61/61/61
f 64/64/64 63/63/63 61/61/61
f 67/67/67 66/66/66 65/65/65
f 68/68/68 67/67/67 65/65/65
f 71/71/71 70/70/70 69/69/69
f 72/72/72 71/71/71 69/69/69
f 75/75/75 74/74/74 73/73/73
f 76/76/76 75/75/75 73/73/73
f 79/79/79 78/78/78 77/77/77
f 80/80/80 79/79/79 77/77/77
f 83/83/83 82/82/82 81/81/81
f 84/84/84 83/83/83 81/81/81
f 87/87/87 86/86/86 85/85/85
f 88/88/88 87/87/87 85/85/85
f 91/91/91 90/90/90 89/89/89
f 92/92/92 91/91/91 89/89/89
f 95/95/95 94/94/94 93/93/93
f 96/96/96 95/95/95 93/93/93
f 99/99/99 98/98/98 97/97/97
f 100/100/100 99/99/99 97/97/97
f 103/103/103 102/102/102 101/101/101
f 104/104/104 103/103/103 101/101/101
f 107/107/107 106/106/106 105/105/105
f 108/108/108 107/107/107 105/105/105
f 111/111/111 110/110/110 109/109/109
f 112/112/112 111/111/111 109/109/109
f 113/113/113 111/111/111 112/112/112
f 114/114/114 113/113/113 112/112/112
f 115/115/115 112/112/112 109/109/109
f 112/112/112 115/115/115 114/114/114
f 116/116/116 115/115/115 109/109/109
f 115/115/115 117/117/117 114/114/114
f 120/120/120 119/119/119 118/118/118
f 121/121/121 120/120/120 118/118/118
f 122/122/122 121/121/121 118/118/118
f 123/123/123 122/122/122 118/118/118
f 126/126/126 125/125/125 124/124/124
f 126/126/126 127/127/127 125/125/125
f 126/126/126 128/128/128 127/127/127
f 126/126/126 129/129/129 128/128/128
f 132/132/132 131/131/131 130/130/130
f 131/131/131 133/133/133 130/130/130
f 131/131/131 134/134/134 133/133/133
f 134/134/134 135/135/135 133/133/133
f 138/138/138 137/137/137 136/136/136
f 137/137/137 139/139/139 136/136/136
f 137/137/137 140/140/140 139/139/139
f 140/140/140 141/141/141 139/139/139
f 144/144/144 143/143/143 142/142/142
f 143/143/143 145/145/145 142/142/142
f 145/145/145 143/143/143 146/146/146
f 147/147/147 145/145/145 146/146/146
f 150/150/150 149/149/149 148/148/148
f 151/151/151 150/150/150 148/148/148
f 152/152/152 150/150/150 151/151/151
f 153/153/153 152/152/152 151/151/151
f 152/152/152 153/153/153 154/154/154
f 153/153/153 155/155/155 154/154/154
