g tent_wall_S
v -0.003034706 1.8839687 -0.20844309
v -0.503484 1.8839687 -0.2084429
v -0.5034874 1.8671701 -0.38087484
v -0.0030420816 1.86717 -0.38087463
v 0.5035146 1.8381032 -0.027393332
v 0.5035115 1.7453796 0.016238578
v -0.0030367037 1.7453796 0.016238578
v -0.0030340916 1.838103 -0.027393198
v -0.0030367037 1.7453796 0.016238578
v 0.5035115 1.7453796 0.016238578
v 0.5035115 1.6997695 -0.0179674
v -0.0030367037 1.6997695 -0.0179674
v -0.503484 1.838103 -0.027393062
v -0.503484 1.8839687 -0.2084429
v -0.003034706 1.8839687 -0.20844309
v -0.0030340916 1.838103 -0.027393198
v 0.5035 1.7962974 -0.4596014
v 0.5035024 1.8671699 -0.3808743
v -0.0030420816 1.86717 -0.38087463
v -0.0030448474 1.7962976 -0.45960182
v -0.50349045 1.7962976 -0.45960215
v -0.5034923 -1.037178E-06 -0.45960206
v -0.003045462 -1.037178E-06 -0.4596018
v -0.0030448474 1.7962976 -0.45960182
v 0.5035 1.7962974 -0.4596014
v 0.5035003 -1.037178E-06 -0.4596014
v 0.5035135 1.8839687 -0.20844324
v -0.003034706 1.8839687 -0.20844309
v -0.0030420816 1.86717 -0.38087463
v 0.5035024 1.8671699 -0.3808743
v -0.503484 1.838103 -0.027393062
v -0.0030340916 1.838103 -0.027393198
v -0.0030367037 1.7453796 0.016238578
v -0.50348586 1.7453796 0.016238578
v -0.50348586 1.7453796 0.016238578
v -0.0030367037 1.7453796 0.016238578
v -0.0030367037 1.6997695 -0.0179674
v -0.50348586 1.6997695 -0.0179674
v 0.5035146 1.8381032 -0.027393332
v -0.0030340916 1.838103 -0.027393198
v -0.003034706 1.8839687 -0.20844309
v 0.5035135 1.8839687 -0.20844324
v -0.50349045 1.7962976 -0.45960215
v -0.0030448474 1.7962976 -0.45960182
v -0.0030420816 1.86717 -0.38087463
v -0.5034874 1.8671701 -0.38087484
v -0.5034725 0.7336602 0.32935676
v 0.5035247 0.73366016 0.32935676
v 0.5035247 0.7771833 0.25397244
v -0.5034725 0.7771834 0.25397244
v -0.5034725 0.7771834 0.25397244
v 0.5035247 0.7771833 0.25397244
v 0.5035247 0.86422956 0.2539724
v -0.5034725 0.8642297 0.2539724
v -0.5034725 0.8642297 0.2539724
v 0.5035247 0.86422956 0.2539724
v 0.5035247 0.90775275 0.32935673
v -0.5034725 0.9077528 0.32935673
v -0.5034725 0.9077528 0.32935673
v 0.5035247 0.90775275 0.32935673
v 0.5035247 0.8642297 0.40474102
v -0.5034725 0.8642297 0.40474102
v -0.5034725 0.8642297 0.40474102
v 0.5035247 0.8642297 0.40474102
v 0.5035247 0.7771834 0.40474102
v -0.5034725 0.7771834 0.40474102
v -0.5034725 0.7771834 0.40474102
v 0.5035247 0.7771834 0.40474102
v 0.5035247 0.73366016 0.32935676
v -0.5034725 0.7336602 0.32935676
v -0.5034862 1.6846637 -0.052959852
v 0.5035109 1.6846637 -0.052959837
v 0.5035006 -1.0418461E-06 0.50350004
v -0.5034926 -9.787101E-07 0.5034993
vt 0.04733131 0.9992139
vt 0.021487383 0.9992139
vt 0.021487383 0.9933476
vt 0.04733131 0.9933476
vt 0.021487383 0.9926165
vt 0.021487383 0.99157137
vt 0.04733155 0.99157137
vt 0.04733155 0.9926165
vt 0.04733155 0.99157137
vt 0.021487383 0.99157137
vt 0.021487383 0.9888076
vt 0.04733155 0.9888076
vt 0.021487383 0.9926165
vt 0.021487383 0.9992139
vt 0.04733131 0.9992139
vt 0.04733131 0.9926165
vt 0.021487383 0.98663825
vt 0.021487383 0.9933476
vt 0.04733155 0.9933476
vt 0.04733155 0.98663825
vt 0.061020084 0.8972186
vt 0.061020084 0.8976943
vt 0.061275877 0.8976943
vt 0.061275877 0.8972186
vt 0.061531674 0.8972186
vt 0.061531674 0.8976943
vt 0.021487383 0.9992139
vt 0.04733155 0.9992139
vt 0.04733155 0.9933476
vt 0.021487383 0.9933476
vt 0.021487383 0.9926165
vt 0.04733131 0.9926165
vt 0.04733131 0.99157137
vt 0.021487383 0.99157137
vt 0.021487383 0.99157137
vt 0.04733131 0.99157137
vt 0.04733131 0.9888076
vt 0.021487383 0.9888076
vt 0.021487383 0.9926165
vt 0.04733155 0.9926165
vt 0.04733155 0.9992139
vt 0.021487383 0.9992139
vt 0.021487383 0.98663825
vt 0.04733131 0.98663825
vt 0.04733131 0.9933476
vt 0.021487383 0.9933476
vt 0.001034631 0.9117421
vt 0.04384374 0.9117421
vt 0.04384374 0.9144409
vt 0.001034631 0.9144409
vt 0.001034631 0.9144409
vt 0.04384374 0.9144409
vt 0.04384374 0.9171396
vt 0.001034631 0.9171396
vt 0.001034631 0.9171396
vt 0.04384374 0.9171396
vt 0.04384374 0.9198383
vt 0.001034631 0.9198383
vt 0.001034631 0.9198383
vt 0.04384374 0.9198383
vt 0.04384374 0.9171396
vt 0.001034631 0.9171396
vt 0.001034631 0.9171396
vt 0.04384374 0.9171396
vt 0.04384374 0.9144409
vt 0.001034631 0.9144409
vt 0.001034631 0.9144409
vt 0.04384374 0.9144409
vt 0.04384374 0.9117421
vt 0.001034631 0.9117421
vt 0.0023849458 0.9833885
vt 0.043315448 0.9833885
vt 0.043315 0.9214185
vt 0.0023847446 0.9214185
vn 1.5671425E-07 0.995288 -0.09696309
vn 1.5671425E-07 0.995288 -0.0969631
vn 1.5671426E-07 0.995288 -0.096963115
vn 1.5671426E-07 0.995288 -0.0969631
vn -0 0.42577514 0.90482897
vn -0 0.42577514 0.90482897
vn -0 0.42577514 0.90482897
vn -0 0.42577514 0.90482897
vn -0 -0.59998155 0.8000139
vn -0 -0.59998155 0.8000139
vn -0 -0.59998155 0.8000139
vn -0 -0.59998155 0.8000139
vn -0 0.9693777 0.24557433
vn -0 0.9693777 0.24557433
vn -0 0.9693777 0.24557433
vn -0 0.9693777 0.2455743
vn 7.101078E-07 0.74320954 -0.66905874
vn 7.101078E-07 0.7432096 -0.66905874
vn 7.1010777E-07 0.74320954 -0.66905874
vn 7.101078E-07 0.74320954 -0.66905886
vn 6.1407593E-07 0 -1
vn 6.1407593E-07 0 -1
vn 6.14076E-07 0 -1
vn 6.1407593E-07 0 -1
vn 7.9627046E-07 0 -1
vn 7.9627046E-07 0 -1
vn 1.6529653E-07 0.9952879 -0.09696424
vn 1.6529653E-07 0.9952879 -0.09696423
vn 1.6529654E-07 0.9952879 -0.09696424
vn 1.6529653E-07 0.9952879 -0.09696423
vn 1.2068575E-07 0.4257744 0.9048294
vn 1.2068574E-07 0.4257744 0.9048294
vn 1.2068577E-07 0.4257744 0.9048294
vn 1.2068574E-07 0.42577434 0.9048294
vn -0 -0.59998155 0.8000139
vn -0 -0.59998155 0.8000139
vn -0 -0.59998155 0.8000139
vn -0 -0.59998155 0.8000139
vn -0 0.9693778 0.24557386
vn -0 0.9693778 0.24557383
vn -0 0.9693778 0.2455739
vn -0 0.9693778 0.2455739
vn 5.007615E-07 0.74320966 -0.66905856
vn 5.007615E-07 0.74320966 -0.66905856
vn 5.007615E-07 0.74320966 -0.66905856
vn 5.007615E-07 0.74320966 -0.6690586
vn -0 -0.8660255 -0.4999998
vn -0 -0.8660255 -0.4999998
vn -0 -0.8660255 -0.4999998
vn -0 -0.8660255 -0.4999998
vn -0 -2.2065274E-07 -1
vn -0 -2.2065274E-07 -1
vn -0 -2.2065274E-07 -1
vn -0 -2.2065274E-07 -1
vn -0 0.86602545 -0.4999999
vn -0 0.86602545 -0.4999999
vn -0 0.86602545 -0.4999999
vn -0 0.86602545 -0.4999999
vn -0 0.8660256 0.4999997
vn -0 0.8660256 0.4999997
vn -0 0.8660256 0.4999997
vn -0 0.8660256 0.4999997
vn -0 0 1
vn -0 0 1
vn -0 0 1
vn -0 0 1
vn -0 -0.8660251 0.50000054
vn -0 -0.8660251 0.50000054
vn -0 -0.8660251 0.50000054
vn -0 -0.8660251 0.50000054
vn -3.464272E-07 0.31364182 0.94954145
vn -3.464272E-07 0.31364182 0.94954145
vn -3.464272E-07 0.31364182 0.94954145
vn -3.464272E-07 0.31364182 0.94954145
g tent_wall_S_0
f 3/3/3 2/2/2 1/1/1
f 4/4/4 3/3/3 1/1/1
f 7/7/7 6/6/6 5/5/5
f 8/8/8 7/7/7 5/5/5
f 11/11/11 10/10/10 9/9/9
f 12/12/12 11/11/11 9/9/9
f 15/15/15 14/14/14 13/13/13
f 16/16/16 15/15/15 13/13/13
f 19/19/19 18/18/18 17/17/17
f 20/20/20 19/19/19 17/17/17
f 23/23/23 22/22/22 21/21/21
f 24/24/24 23/23/23 21/21/21
f 23/23/23 24/24/24 25/25/25
f 26/26/26 23/23/23 25/25/25
f 29/29/29 28/28/28 27/27/27
f 30/30/30 29/29/29 27/27/27
f 33/33/33 32/32/32 31/31/31
f 34/34/34 33/33/33 31/31/31
f 37/37/37 36/36/36 35/35/35
f 38/38/38 37/37/37 35/35/35
f 41/41/41 40/40/40 39/39/39
f 42/42/42 41/41/41 39/39/39
f 45/45/45 44/44/44 43/43/43
f 46/46/46 45/45/45 43/43/43
f 49/49/49 48/48/48 47/47/47
f 50/50/50 49/49/49 47/47/47
f 53/53/53 52/52/52 51/51/51
f 54/54/54 53/53/53 51/51/51
f 57/57/57 56/56/56 55/55/55
f 58/58/58 57/57/57 55/55/55
f 61/61/61 60/60/60 59/59/59
f 62/62/62 61/61/61 59/59/59
f 65/65/65 64/64/64 63/63/63
f 66/66/66 65/65/65 63/63/63
f 69/69/69 68/68/68 67/67/67
f 70/70/70 69/69/69 67/67/67
f 73/73/73 72/72/72 71/71/71
f 74/74/74 73/73/73 71/71/71
