g upper3_CO_2
v -1.107453 0.5941495 -0.17302626
v -1.5105 0.60420007 -0.5034999
v -0.5034999 0.60420007 -0.50349987
v -0.6702045 0.6289804 0.04527084
v -0.37058482 0.60070884 -0.17763408
v -1.0165507 0.5538993 0.053080034
v -0.3968939 0.5605336 -0.0103106825
v -0.8728589 0.53410125 0.14628822
v -0.4847327 0.54081327 0.16110446
v -0.688681 0.5278496 0.16763476
v -0.5558378 0.52905405 0.15615834
v -0.17428923 0.5724514 -1.539184
v -0.5034999 0.60420007 -1.5105006
v -0.33195844 0.58771867 -1.5695844
v -0.086227484 0.5877186 -1.4187001
v -0.08560126 0.6238151 -1.2252715
v -0.16506968 0.60419995 -1.0379982
v -0.5034999 0.60420007 -0.50349987
v -0.023180313 0.6021635 -0.4751121
v -0.054266114 0.60216343 -0.15124272
v 0.10710565 0.5059875 -0.2964358
v 0.16475147 0.4958229 -0.14343281
v 0.13044462 0.50187206 0.0011395897
v 0.02774409 0.5199809 0.036117382
v -0.11820007 0.5457148 0.030553345
v -0.2657479 0.57173145 -0.029931882
v -0.37058482 0.60070884 -0.17763408
v -0.16506968 0.60419995 -1.0379982
v 0.19533624 0.600213 -0.7610142
v 0.08194738 0.5609785 -1.0145566
v -0.023180313 0.6021635 -0.4751121
v 0.26054844 0.5256323 -0.92837054
v 0.14393134 0.5487115 -0.50856155
v 0.33151594 0.51158756 -0.83069277
v 0.2720967 0.52334684 -0.5644426
v 0.34596956 0.5087271 -0.66686547
v -1.5105 0.60420007 -0.5034999
v -1.107453 0.5941495 -0.17302626
v -1.513625 0.576024 -0.26436025
v -1.4795936 0.5700434 -0.12360529
v -1.3864089 0.5499829 -0.059574537
v -1.2617928 0.5319225 -0.08158774
vt 0.2635366 0.5171541
vt 0.2629859 0.50610507
vt 0.26214445 0.5063024
vt 0.26207006 0.52840066
vt 0.26120353 0.52840066
vt 0.2624488 0.5958042
vt 0.26081583 0.5718793
vt 0.2618126 0.6008447
vt 0.26080057 0.58858657
vt 0.26128954 0.60114807
vt 0.26078883 0.5950644
vt 0.25686198 0.6175124
vt 0.25645736 0.52840066
vt 0.25649947 0.61036724
vt 0.25740573 0.6160622
vt 0.25800076 0.6056543
vt 0.25848916 0.52840066
vt 0.25809142 0.5063024
vt 0.25623 0.52840066
vt 0.25680488 0.52840066
vt 0.2554731 0.58225435
vt 0.25557998 0.5946665
vt 0.25614667 0.6007504
vt 0.25699654 0.5995155
vt 0.2579268 0.59065336
vt 0.25857067 0.57956976
vt 0.25869018 0.52840066
vt 0.25742534 0.52840066
vt 0.2572437 0.52840066
vt 0.2563092 0.5761909
vt 0.258739 0.52840066
vt 0.25620288 0.58836055
vt 0.25804925 0.5954237
vt 0.2563658 0.59516466
vt 0.25748992 0.6000138
vt 0.25685236 0.60031044
vt 0.2687417 0.50610507
vt 0.26783532 0.5171541
vt 0.26850268 0.5421107
vt 0.26821145 0.59629995
vt 0.26794532 0.59786063
vt 0.26776788 0.59017074
vn -0.042006798 0.99307644 0.10970179
vn -0.0399003 0.99607927 0.07895603
vn 0.0045422483 0.9999584 -0.00791504
vn 0.01655736 0.95045024 0.31043535
vn 0.063142814 0.9954737 0.07102914
vn -0.19506413 0.93169445 0.30642357
vn 0.28412503 0.92257875 0.26100057
vn -0.14476489 0.84945256 0.50741845
vn 0.14424379 0.88500905 0.44266543
vn -0.0024249095 0.77099204 0.63684005
vn -0.094398454 0.6891796 0.71841514
vn 0.08086306 0.98368394 -0.16070744
vn 0.024358036 0.9982058 -0.054698452
vn 0.096113615 0.9953694 0.0013949004
vn 0.078904964 0.97999495 -0.1827127
vn -0.031076102 0.99924797 -0.023187185
vn 0.005439546 0.9999113 -0.012159885
vn 0.0045422483 0.9999584 -0.00791504
vn 0.14076464 0.9890176 0.04505029
vn 0.21050903 0.9697837 0.123310484
vn 0.49860302 0.86660254 -0.019875836
vn 0.4371304 0.8992917 -0.013844275
vn 0.35789084 0.9180799 0.17042127
vn 0.2184301 0.9252285 0.3102268
vn 0.09310772 0.9411299 0.32497
vn 0.0010941942 0.96949357 0.24511431
vn 0.063142814 0.9954737 0.07102914
vn 0.005439546 0.9999113 -0.012159885
vn 0.29362237 0.9556515 -0.022715388
vn 0.22380449 0.9430711 -0.2460253
vn 0.14076464 0.9890176 0.04505029
vn 0.37468007 0.89234465 -0.2516663
vn 0.3230569 0.91224396 0.2518832
vn 0.4955481 0.85956776 -0.124800876
vn 0.3475164 0.91134024 0.22066095
vn 0.47279403 0.8760554 0.09483018
vn -0.0399003 0.99607927 0.07895603
vn -0.042006798 0.99307644 0.10970179
vn -0.06520835 0.9935456 0.092816554
vn -0.045277216 0.9889131 0.14142455
vn 0.016905634 0.9169906 0.39855033
vn 0.22259817 0.5892169 0.77670693
g upper3_CO_2_0
f 3/3/3 2/2/2 1/1/1
f 1/1/1 4/4/4 3/3/3
f 3/3/3 4/4/4 5/5/5
f 6/6/6 4/4/4 1/1/1
f 5/5/5 4/4/4 7/7/7
f 8/8/8 4/4/4 6/6/6
f 7/7/7 4/4/4 9/9/9
f 10/10/10 4/4/4 8/8/8
f 9/9/9 4/4/4 11/11/11
f 11/11/11 4/4/4 10/10/10
f 14/14/14 13/13/13 12/12/12
f 12/12/12 13/13/13 15/15/15
f 15/15/15 13/13/13 16/16/16
f 13/13/13 17/17/17 16/16/16
f 18/18/18 17/17/17 13/13/13
f 18/18/18 20/20/20 19/19/19
f 19/19/19 20/20/20 21/21/21
f 21/21/21 20/20/20 22/22/22
f 22/22/22 20/20/20 23/23/23
f 23/23/23 20/20/20 24/24/24
f 24/24/24 20/20/20 25/25/25
f 25/25/25 20/20/20 26/26/26
f 26/26/26 20/20/20 27/27/27
f 27/27/27 20/20/20 18/18/18
f 18/18/18 29/29/29 28/28/28
f 28/28/28 29/29/29 30/30/30
f 31/31/31 29/29/29 18/18/18
f 30/30/30 29/29/29 32/32/32
f 33/33/33 29/29/29 31/31/31
f 32/32/32 29/29/29 34/34/34
f 35/35/35 29/29/29 33/33/33
f 34/34/34 29/29/29 36/36/36
f 36/36/36 29/29/29 35/35/35
f 39/39/39 38/38/38 37/37/37
f 40/40/40 38/38/38 39/39/39
f 41/41/41 38/38/38 40/40/40
f 42/42/42 38/38/38 41/41/41
