g upper2_C_2
v -0.07534837 0.6042001 -0.50349987
v -0.50350016 0.6042002 -0.20140007
v -0.50350034 0.6042001 -0.5034999
v -0.0039010954 0.6042001 0.12070881
v -0.26882118 0.60357153 0.25280246
v -0.5411121 0.54474807 0.2936644
v -0.0069742925 0.57132655 0.19706212
v -0.3824802 0.51257175 0.44499955
v -0.0336118 0.5338026 0.35748887
v -0.25509644 0.5125718 0.4889366
v -0.12982973 0.5125718 0.49776036
v 0.32583094 0.6042001 0.21851186
v -0.0039010954 0.6042001 0.12070881
v 0.0870655 0.5877186 0.30012456
v 0.1942487 0.5877186 0.40273058
v 0.33963516 0.5877186 0.42290658
v 0.46167505 0.58771867 0.37702265
v 0.53743947 0.58771867 0.27328622
v 0.47045934 0.6042002 0.08124975
v 1.5105003 0.6042001 -0.5035001
v 0.5765636 0.6042002 0.43190992
v 1.5105 0.6042002 0.81827044
v 1.5105004 0.60419995 1.5019989
v 1.0400426 0.60419995 1.0030986
v 1.1746061 0.60348815 1.3518463
v 1.1431174 0.5641798 1.5144792
v 0.99583966 0.56417984 1.1391888
v 1.0352224 0.5641798 1.50212
v 0.96225464 0.56417984 1.286783
v 0.976262 0.56417966 1.4216721
v 1.0400426 0.60419995 1.0030986
v 0.5765636 0.6042002 0.43190992
v 1.5105 0.6042002 0.81827044
v 0.70743906 0.61978865 0.833014
v 0.7897239 0.50338733 1.0734694
v 0.53484267 0.4260901 0.63414156
v 0.6778101 0.45988083 1.0714715
v 0.48796895 0.40929583 0.843419
v 0.53204334 0.42965817 1.0186266
v 0.34157592 0.49382105 0.48027524
v 0.09502886 0.49382105 0.4708365
v 0.54806983 0.49382105 -0.48538983
v 0.19123746 0.49382105 0.6221866
v -0.04960039 0.49382105 0.21119376
v 0.07374175 0.49382105 0.6564716
v -0.10942122 0.49382105 0.31352013
v -0.037108243 0.49382105 0.5503371
v -0.097830184 0.49382105 0.46854994
v -0.2531399 0.624313 0.02455637
v -0.44430426 0.624313 0.1535756
v -0.28700417 0.624313 -0.20633781
v -0.30055904 0.624313 0.17587593
v -0.5066737 0.624313 -0.24051423
v -0.38642588 0.624313 0.30638587
v -0.6037839 0.624313 -0.029997263
v -0.48155007 0.624313 0.34108007
v -0.6042255 0.624313 0.12863086
v -0.5617478 0.624313 0.27910897
v 0.71376777 0.62644196 0.48381668
v 0.44156426 0.62644196 0.5388453
v 0.7351699 0.62644196 0.2863446
v 0.59360534 0.62644196 0.6124016
v 0.5578427 0.62644196 0.16355978
v 0.445038 0.62644196 0.70187634
v 0.3896747 0.62644196 0.2622393
v 0.33330983 0.62644196 0.69121414
v 0.31293234 0.62644196 0.42051
v 0.2829915 0.62644196 0.5910883
vt 0.22597362 0.88194126
vt 0.22776055 0.89646256
vt 0.22597362 0.88194126
vt 0.22392343 0.89646256
vt 0.22569585 0.94023883
vt 0.22727798 0.9739628
vt 0.22390115 0.95694196
vt 0.2258417 0.982825
vt 0.2237666 0.96944004
vt 0.22474009 0.98252374
vt 0.22393276 0.9781564
vt 0.22567633 0.93991154
vt 0.22585377 0.89646256
vt 0.22761957 0.96238
vt 0.22682874 0.9739628
vt 0.22568622 0.9832237
vt 0.22464226 0.984514
vt 0.22394618 0.9781564
vt 0.2238758 0.89646256
vt 0.22412534 0.88194126
vt 0.22397351 0.89646256
vt 0.22412534 0.88194126
vt 0.22386536 0.89646256
vt 0.22585377 0.89646256
vt 0.22569454 0.9465165
vt 0.22437625 0.9807959
vt 0.22762908 0.9624083
vt 0.22496876 0.9832025
vt 0.22683558 0.9740138
vt 0.2256297 0.9821316
vt 0.22392343 0.89646256
vt 0.22597128 0.89646256
vt 0.22597362 0.88194126
vt 0.2253736 0.9522743
vt 0.22345151 0.96205246
vt 0.22664958 0.98318565
vt 0.22327936 0.9728202
vt 0.22465062 0.98577696
vt 0.22362757 0.9797651
vt 0.23368743 0.95538443
vt 0.23914142 0.9642669
vt 0.23569223 0.8809139
vt 0.23571499 0.9840074
vt 0.2437915 0.94371396
vt 0.23802608 0.99247056
vt 0.24404949 0.9664115
vt 0.24022382 0.9964128
vt 0.24265066 0.98719245
vt 0.22585228 0.9267341
vt 0.22939754 0.96188825
vt 0.2306907 0.8862992
vt 0.22477882 0.95266163
vt 0.23798487 0.8978352
vt 0.22520564 0.97826326
vt 0.23749112 0.9468899
vt 0.22753361 0.9909067
vt 0.23484616 0.9699238
vt 0.23102508 0.98834085
vt 0.22585228 0.9267341
vt 0.22924335 0.965227
vt 0.2306907 0.8862992
vt 0.22477882 0.95266163
vt 0.23798217 0.8978352
vt 0.22520564 0.97826326
vt 0.23749112 0.9468899
vt 0.22753361 0.9909067
vt 0.23484616 0.9699238
vt 0.23102508 0.98834085
vn -0 1 0
vn -0.034457527 0.9992392 0.018264465
vn -0 1 -1.2715662E-07
vn 0.03295846 0.9951944 0.0922049
vn -0.031043824 0.9792277 0.20037329
vn -0.17640293 0.9618426 0.20914319
vn 0.18526383 0.92342025 0.3361136
vn -0.13587908 0.92409927 0.3571799
vn 0.1688461 0.9520487 0.25513566
vn -0.06709479 0.92969114 0.36217764
vn 0.07519947 0.9479284 0.30947822
vn 0.009782802 0.99881256 0.047724996
vn 0.03295846 0.9951944 0.0922049
vn -0.039257303 0.99550503 0.08618996
vn -0.033652823 0.9973053 0.06518903
vn 0.008437483 0.99677473 0.07980605
vn 0.048207037 0.99689 0.062340155
vn 0.06333964 0.9964678 0.05513648
vn 0.011073219 0.99987066 0.011667564
vn -0 1 0
vn -0.1963031 0.9789699 0.05552609
vn -1.9294936E-07 1 2.656971E-07
vn -0.029449727 0.99755484 0.063380994
vn -0.07839743 0.9926807 0.09186245
vn -0.093057096 0.9921234 0.08385344
vn -0.05859822 0.97287256 0.22379756
vn -0.314704 0.9449242 0.08988715
vn -0.102772735 0.98152 0.16141935
vn -0.17771137 0.98397636 -0.014465152
vn -0.17176406 0.98296136 0.06545301
vn -0.07839743 0.9926807 0.09186245
vn -0.1963031 0.9789699 0.05552609
vn -1.9294936E-07 1 2.656971E-07
vn -0.32556078 0.93152696 0.16207294
vn -0.2641405 0.8295723 0.4919751
vn -0.7951944 0.59643906 0.10920742
vn -0.33389407 0.8015458 0.49602324
vn -0.6922688 0.72163236 -0.0032611615
vn -0.54083866 0.7874809 0.2955795
vn -0 1 0
vn -0 1 0
vn -0 1 0
vn -0 1 0
vn -0 1 0
vn -0 1 0
vn -0 1 0
vn -0 1 0
vn -0 1 0
vn -0 1 0
vn -0 1 0
vn -0 1 0
vn -0 1 0
vn -0 1 0
vn -0 1 0
vn -0 1 0
vn -0 1 0
vn -0 1 0
vn -0 1 0
vn -0 1 0
vn -0 1 0
vn -0 1 0
vn -0 1 0
vn -0 1 0
vn -0 1 0
vn -0 1 0
vn -0 1 0
vn -0 1 0
vn -0 1 0
g upper2_C_2_0
f 3/3/3 2/2/2 1/1/1
f 1/1/1 2/2/2 4/4/4
f 5/5/5 4/4/4 2/2/2
f 6/6/6 5/5/5 2/2/2
f 4/4/4 5/5/5 7/7/7
f 8/8/8 5/5/5 6/6/6
f 7/7/7 5/5/5 9/9/9
f 10/10/10 5/5/5 8/8/8
f 9/9/9 5/5/5 11/11/11
f 11/11/11 5/5/5 10/10/10
f 13/13/13 12/12/12 1/1/1
f 14/14/14 12/12/12 13/13/13
f 15/15/15 12/12/12 14/14/14
f 16/16/16 12/12/12 15/15/15
f 17/17/17 12/12/12 16/16/16
f 18/18/18 12/12/12 17/17/17
f 19/19/19 12/12/12 18/18/18
f 19/19/19 1/1/1 12/12/12
f 20/20/20 1/1/1 19/19/19
f 20/20/20 19/19/19 21/21/21
f 21/21/21 22/22/22 20/20/20
f 22/22/22 24/24/24 23/23/23
f 24/24/24 25/25/25 23/23/23
f 23/23/23 25/25/25 26/26/26
f 27/27/27 25/25/25 24/24/24
f 26/26/26 25/25/25 28/28/28
f 29/29/29 25/25/25 27/27/27
f 28/28/28 25/25/25 30/30/30
f 30/30/30 25/25/25 29/29/29
f 33/33/33 32/32/32 31/31/31
f 32/32/32 34/34/34 31/31/31
f 31/31/31 34/34/34 35/35/35
f 36/36/36 34/34/34 32/32/32
f 35/35/35 34/34/34 37/37/37
f 38/38/38 34/34/34 36/36/36
f 37/37/37 34/34/34 39/39/39
f 39/39/39 34/34/34 38/38/38
f 42/42/42 41/41/41 40/40/40
f 40/40/40 41/41/41 43/43/43
f 44/44/44 41/41/41 42/42/42
f 43/43/43 41/41/41 45/45/45
f 46/46/46 41/41/41 44/44/44
f 45/45/45 41/41/41 47/47/47
f 48/48/48 41/41/41 46/46/46
f 47/47/47 41/41/41 48/48/48
f 51/51/51 50/50/50 49/49/49
f 49/49/49 50/50/50 52/52/52
f 50/50/50 51/51/51 53/53/53
f 52/52/52 50/50/50 54/54/54
f 55/55/55 50/50/50 53/53/53
f 54/54/54 50/50/50 56/56/56
f 57/57/57 50/50/50 55/55/55
f 56/56/56 50/50/50 58/58/58
f 58/58/58 50/50/50 57/57/57
f 61/61/61 60/60/60 59/59/59
f 59/59/59 60/60/60 62/62/62
f 60/60/60 61/61/61 63/63/63
f 62/62/62 60/60/60 64/64/64
f 65/65/65 60/60/60 63/63/63
f 64/64/64 60/60/60 66/66/66
f 67/67/67 60/60/60 65/65/65
f 66/66/66 60/60/60 68/68/68
f 68/68/68 60/60/60 67/67/67
