g upper3_3_extra
v 1.6838175 0.6248021 -0.47085354
v 2.2179863 0.6248021 0.35066417
v 1.8223712 0.6248021 0.5764358
v 1.2753538 0.6248021 -0.22846612
v 3.6820574 0.3899662 0.13870929
v 3.9970303 0.46551785 -0.28976512
v 4.2272806 0.4333411 -0.10728196
v 3.9001029 0.3585433 0.31691775
v 0.00779374 0.50204957 -0.28497562
v 0.22877258 0.5020497 0.6696951
v -0.22020227 0.5020497 0.7465428
v -0.4589382 0.5020497 -0.1969089
v 6.5601482 0.43837124 -0.4876667
v 6.611993 0.43837136 0.49087313
v 6.1564946 0.43837148 0.48858976
v 6.085214 0.43837148 -0.48198497
v 5.7890544 0.40035084 -0.52871734
v 5.761756 0.26233792 0.25399354
v 5.3936615 0.26825312 0.22044681
v 5.4046836 0.4053866 -0.5572762
v 4.4270363 0.52850133 -0.50341266
v 4.759397 0.3904884 0.018841183
v 4.4426684 0.39640355 0.2082591
v 4.0992355 0.5335371 -0.30143085
v 2.3134634 0.4637346 -0.3278959
v 2.6302583 0.60086805 -0.8545561
v 2.9518511 0.59583235 -0.6428287
v 2.6189897 0.45781943 -0.12089358
v 0.42660746 0.27879092 0.5203342
v 0.9523043 0.3543425 0.44007644
v 0.98608065 0.32216576 0.73192316
v 0.4547769 0.24736805 0.80052817
v 1.949364 0.64790475 -0.9722059
v 2.2307606 0.632763 -0.4203496
v 1.9047263 0.63738525 -0.26635912
v 1.6114311 0.65260434 -0.80695164
v 2.8627982 0.63838 -0.46635446
v 3.0856516 0.650731 -0.91297394
v 3.3528152 0.64691705 -0.76524436
v 3.1169348 0.6346288 -0.32129157
v 6.184131 0.6469167 -0.4172958
v 6.1579733 0.6346284 0.08474937
v 5.866341 0.63837963 0.060680598
v 5.8795657 0.6507306 -0.43827623
v 0.49921238 0.6383803 0.32533798
v 0.91551906 0.6507314 0.04998111
v 1.0730244 0.6469173 0.3115002
v 0.64676976 0.6346291 0.5780345
v 3.1842945 0.27004218 -0.44396666
v 3.036202 0.21260999 0.07149476
v 2.7584124 0.22610047 -0.039661307
v 2.8931704 0.28364807 -0.55572104
v 4.805901 0.6745949 0.037546437
v 5.1324697 0.69005275 -0.49498418
v 5.4494514 0.6852794 -0.28165478
v 5.1069326 0.6699 0.24613018
vt 0.003896081 0.99738574
vt 0.003896081 0.49920633
vt 0.4996632 0.49920633
vt 0.4996632 0.99738574
vt 0.4996632 0.49920633
vt 0.4996632 0.99738574
vt 0.003896081 0.99738574
vt 0.003896081 0.49920633
vt 0.003896081 0.99738574
vt 0.003896081 0.49920633
vt 0.4996632 0.49920633
vt 0.4996632 0.99738574
vt 0.003896081 0.99738574
vt 0.003896081 0.49920633
vt 0.4996632 0.49920633
vt 0.4996632 0.99738574
vt 0.003896081 0.99738574
vt 0.003896081 0.49920633
vt 0.4996632 0.49920633
vt 0.4996632 0.99738574
vt 0.003896081 0.99738574
vt 0.003896081 0.49920633
vt 0.4996632 0.49920633
vt 0.4996632 0.99738574
vt 0.4996632 0.49920633
vt 0.4996632 0.99738574
vt 0.003896081 0.99738574
vt 0.003896081 0.49920633
vt 0.4996632 0.49920633
vt 0.4996632 0.99738574
vt 0.003896081 0.99738574
vt 0.003896081 0.49920633
vt 0.003896081 0.99738574
vt 0.003896081 0.49920633
vt 0.4996632 0.49920633
vt 0.4996632 0.99738574
vt 0.4996632 0.49920633
vt 0.4996632 0.99738574
vt 0.003896081 0.99738574
vt 0.003896081 0.49920633
vt 0.003896081 0.99738574
vt 0.003896081 0.49920633
vt 0.4996632 0.49920633
vt 0.4996632 0.99738574
vt 0.4996632 0.49920633
vt 0.4996632 0.99738574
vt 0.003896081 0.99738574
vt 0.003896081 0.49920633
vt 0.003896081 0.99738574
vt 0.003896081 0.49920633
vt 0.4996632 0.49920633
vt 0.4996632 0.99738574
vt 0.4996632 0.49920633
vt 0.4996632 0.99738574
vt 0.003896081 0.99738574
vt 0.003896081 0.49920633
vn -0 1 0
vn -0 1 0
vn -0 1 0
vn -0 1 0
vn -0 0.9848077 0.17364804
vn -0 0.9848077 0.17364839
vn -0 0.9848077 0.17364827
vn -1.2125741E-07 0.98480785 0.17364794
vn 1.6510921E-07 1 0
vn -0 1 -1.1611355E-07
vn -0 1 0
vn 2.3566061E-07 1 0
vn 4.2103528E-07 1 0
vn 2.5365978E-07 1 -1.312088E-07
vn 3.1890664E-07 1 -1.04231106E-07
vn 4.8487107E-07 1 0
vn 1.4434873E-07 0.9848077 0.17364803
vn -0 0.98480785 0.173648
vn -0 0.98480785 0.17364804
vn 1.833161E-07 0.9848077 0.17364806
vn 0.1249282 0.9759922 0.17841591
vn 0.12492814 0.9759922 0.17841591
vn 0.124928154 0.9759922 0.17841586
vn 0.12492826 0.9759922 0.17841592
vn -0.108902775 0.9759922 0.18862505
vn -0.10890272 0.9759922 0.18862523
vn -0.10890275 0.9759922 0.18862516
vn -0.10890279 0.9759922 0.18862498
vn -0.12278765 0.98480785 0.12278767
vn -0.12278771 0.9848077 0.122787826
vn -0.122787684 0.9848077 0.12278775
vn -0.12278763 0.98480785 0.12278758
vn 0.021862444 0.9996284 0.016280388
vn 0.02186132 0.9996284 0.01628032
vn 0.021861903 0.9996284 0.016280357
vn 0.021863017 0.9996284 0.016280426
vn -0.00079655624 0.9996284 0.027246118
vn -0.000795951 0.9996284 0.027247112
vn -0.00079626194 0.9996284 0.027246604
vn -0.0007968742 0.9996284 0.0272456
vn 0.010793261 0.9996284 0.025030248
vn 0.010792285 0.9996284 0.025029596
vn 0.010792789 0.9996284 0.025029933
vn 0.010793756 0.9996284 0.025030576
vn -0.014312761 0.9996284 0.023197673
vn -0.0143127255 0.9996284 0.023199223
vn -0.014312744 0.9996284 0.023198431
vn -0.014312783 0.9996284 0.02319686
vn 0.003548081 0.9937311 0.11174053
vn 0.0035471867 0.9937312 0.11173961
vn 0.0035476144 0.9937311 0.11174004
vn 0.0035484994 0.993731 0.111740954
vn -0.0031681054 0.9996284 0.027073024
vn -0.003167692 0.9996284 0.02707386
vn -0.003167904 0.9996284 0.02707343
vn -0.0031683224 0.9996284 0.027072588
g upper3_3_extra_0
f 3/3/3 2/2/2 1/1/1
f 1/1/1 4/4/4 3/3/3
f 7/7/7 6/6/6 5/5/5
f 5/5/5 8/8/8 7/7/7
f 11/11/11 10/10/10 9/9/9
f 9/9/9 12/12/12 11/11/11
f 15/15/15 14/14/14 13/13/13
f 13/13/13 16/16/16 15/15/15
f 19/19/19 18/18/18 17/17/17
f 17/17/17 20/20/20 19/19/19
f 23/23/23 22/22/22 21/21/21
f 21/21/21 24/24/24 23/23/23
f 27/27/27 26/26/26 25/25/25
f 25/25/25 28/28/28 27/27/27
f 31/31/31 30/30/30 29/29/29
f 29/29/29 32/32/32 31/31/31
f 35/35/35 34/34/34 33/33/33
f 33/33/33 36/36/36 35/35/35
f 39/39/39 38/38/38 37/37/37
f 37/37/37 40/40/40 39/39/39
f 43/43/43 42/42/42 41/41/41
f 41/41/41 44/44/44 43/43/43
f 47/47/47 46/46/46 45/45/45
f 45/45/45 48/48/48 47/47/47
f 51/51/51 50/50/50 49/49/49
f 49/49/49 52/52/52 51/51/51
f 55/55/55 54/54/54 53/53/53
f 53/53/53 56/56/56 55/55/55
