g upper1_CO
v -0.4068884 0.3777558 0.05065908
v -0.53906506 0.53380954 -0.031214027
v -0.36614066 0.41143313 -0.15395327
v -0.4319867 0.38442636 0.096064314
v -0.49013758 0.47978097 -0.84176415
v -0.5028324 0.38591972 0.13573349
v -0.71357554 0.41633835 -0.15641181
v -0.5906929 0.3855094 0.14861551
v -0.70280415 0.37483498 0.0172739
v -0.66125816 0.38100582 0.087805726
v -0.3537835 0.5989809 -0.46292228
v -0.17097627 0.5989809 -0.13571092
v -0.53767806 0.5989809 -0.33302546
v -0.14921983 0.5988057 -0.3614495
v -0.4101536 0.5713007 -0.07506866
v 0.00509289 0.5118806 -0.1930044
v -0.27090436 0.54778653 0.06518407
v 0.007823453 0.50269365 -0.09357457
v -0.19166626 0.5245279 0.08404602
v -0.06700253 0.50816095 0.059663713
vt 0.20526503 0.98192185
vt 0.20590311 0.97758317
vt 0.20539695 0.9281767
vt 0.20547105 0.99260634
vt 0.20603311 0.92835623
vt 0.20580068 0.9947002
vt 0.2065537 0.96214455
vt 0.20600188 0.99702114
vt 0.2064234 0.99227154
vt 0.20624089 0.9961683
vt 0.19367954 0.8802311
vt 0.19235633 0.90232927
vt 0.19429539 0.90232927
vt 0.19176507 0.90232927
vt 0.19417243 0.9534985
vt 0.19098654 0.956183
vt 0.19351023 0.96458215
vt 0.19109647 0.9685952
vt 0.1925535 0.9734443
vt 0.19167936 0.97467905
vn 0.6667143 0.6995755 0.25707254
vn 0.011837367 0.9666804 0.25571263
vn 0.6101854 0.7888761 0.07313136
vn 0.5139238 0.7392201 0.43524253
vn 0.02392483 0.997595 -0.06505221
vn 0.21099806 0.7539662 0.62210506
vn -0.5726373 0.8192791 0.029469568
vn -0.1971115 0.78338856 0.5894483
vn -0.6321543 0.73017836 0.25926942
vn -0.5429351 0.7413868 0.39442003
vn 0.00034447925 1 -0.00019245449
vn 0.1969454 0.9705997 0.13837905
vn -0.028048582 0.99824643 0.05212727
vn 0.14805716 0.98888665 0.01350223
vn -0.06991991 0.9824913 0.17269051
vn 0.45770767 0.88722277 0.05778695
vn 0.077532105 0.95620656 0.28223717
vn 0.44717392 0.8855245 0.126023
vn 0.18927799 0.9244456 0.3310198
vn 0.2998728 0.9160714 0.26625088
g upper1_CO_0
f 3/3/3 2/2/2 1/1/1
f 1/1/1 2/2/2 4/4/4
f 5/5/5 2/2/2 3/3/3
f 4/4/4 2/2/2 6/6/6
f 7/7/7 2/2/2 5/5/5
f 6/6/6 2/2/2 8/8/8
f 9/9/9 2/2/2 7/7/7
f 8/8/8 2/2/2 10/10/10
f 10/10/10 2/2/2 9/9/9
f 13/13/13 12/12/12 11/11/11
f 11/11/11 12/12/12 14/14/14
f 15/15/15 12/12/12 13/13/13
f 14/14/14 12/12/12 16/16/16
f 17/17/17 12/12/12 15/15/15
f 16/16/16 12/12/12 18/18/18
f 19/19/19 12/12/12 17/17/17
f 18/18/18 12/12/12 20/20/20
f 20/20/20 12/12/12 19/19/19
