g upper4_CO_2_extra
v -1.0795096 0.32642436 0.21910982
v -0.7715257 0.31605318 0.07499166
v -0.48907265 0.08344536 0.65910065
v -0.8248517 0.09475228 0.81622547
v 0.6231959 0.3528664 -1.3723451
v 0.7290847 0.36338332 -1.0554674
v 0.041403227 0.5396221 -0.8513152
v -0.080474794 0.52644473 -1.2296482
v -1.0607235 0.7068252 0.21475264
v -1.2538986 0.6666705 0.14659831
v -1.0718222 0.70436895 -0.43913165
v -0.82978344 0.704369 -0.3537377
v -0.43415558 0.395506 0.017074581
v -0.029606516 0.4499538 -0.08489703
v -0.23890105 0.3299465 0.32269466
v -0.03662696 0.35717034 0.2717091
v -0.78918594 0.35445347 0.72167844
v -1.0504001 0.3570088 0.54693425
v -0.5082422 0.53735983 0.16910483
v -0.9098957 0.4590321 0.08532827
v 0.4183492 0.29789016 -0.8478668
v 1.0216434 0.104665935 -0.6356756
v 0.8897815 0.09392541 -0.3320787
v 0.3895233 0.25549418 -0.2876445
v -0.25647685 0.7027998 -0.1973165
v -0.74031615 0.7111401 -0.5771836
v -0.46832582 0.71114033 -0.859449
v -0.02679968 0.73881686 -0.4404367
vt 0.003896081 0.49920633
vt 0.4996632 0.49920633
vt 0.4996632 0.0024219693
vt 0.003896081 0.0024219693
vt 0.4996632 0.0024219693
vt 0.003896081 0.0024219693
vt 0.003896081 0.49920633
vt 0.4996632 0.49920633
vt 0.4996632 0.0024219693
vt 0.003896081 0.0024219693
vt 0.003896081 0.49920633
vt 0.4996632 0.49920633
vt 0.003896081 0.49920633
vt 0.4996632 0.49920633
vt 0.003896081 0.0024219693
vt 0.4996632 0.0024219693
vt 0.4996632 0.0024219693
vt 0.003896081 0.0024219693
vt 0.4996632 0.49920633
vt 0.003896081 0.49920633
vt 0.4996632 0.49920633
vt 0.4996632 0.0024219693
vt 0.003896081 0.0024219693
vt 0.003896081 0.49920633
vt 0.003896081 0.0024219693
vt 0.003896081 0.49920633
vt 0.4996632 0.49920633
vt 0.4996632 0.0024219693
vn 0.16884512 0.9410529 0.2931054
vn 0.1688452 0.9410529 0.29310527
vn 0.168845 0.94105285 0.29310557
vn 0.16884495 0.94105285 0.29310572
vn 0.21776272 0.97037417 -0.1046585
vn 0.21754989 0.9703954 -0.104903705
vn 0.21805654 0.9703446 -0.10431979
vn 0.2182446 0.97032565 -0.104103014
vn -0.15324214 0.9881881 -0.0011110133
vn -0.20344047 0.97908735 -0.0002247897
vn -0.042015944 0.9991123 -0.0030399375
vn 0.0013329632 0.999992 -0.0037790209
vn -0.06698717 0.9659257 0.25000042
vn -0.06698724 0.9659257 0.25000036
vn -0.066987254 0.9659257 0.25000036
vn -0.06698734 0.9659257 0.2500003
vn -0.15142688 0.95879495 0.24037932
vn -0.17514884 0.96231514 0.20802033
vn -0.1939272 0.9640077 0.18188263
vn -0.2187174 0.96470624 0.14664397
vn 0.29202896 0.950197 0.108833075
vn 0.25528786 0.955976 0.14469981
vn 0.28045473 0.9523056 0.120245785
vn 0.31319913 0.9456315 0.087678075
vn -0.0649555 0.9973309 0.03334532
vn 0.009812241 0.99990714 0.009455867
vn -0.027359001 0.9993979 0.021342373
vn -0.106456146 0.9932261 0.046571724
g upper4_CO_2_extra_0
f 3/3/3 2/2/2 1/1/1
f 1/1/1 4/4/4 3/3/3
f 7/7/7 6/6/6 5/5/5
f 5/5/5 8/8/8 7/7/7
f 11/11/11 10/10/10 9/9/9
f 9/9/9 12/12/12 11/11/11
f 15/15/15 14/14/14 13/13/13
f 15/15/15 16/16/16 14/14/14
f 19/19/19 18/18/18 17/17/17
f 20/20/20 18/18/18 19/19/19
f 23/23/23 22/22/22 21/21/21
f 21/21/21 24/24/24 23/23/23
f 27/27/27 26/26/26 25/25/25
f 25/25/25 28/28/28 27/27/27
