g upper2_CO_2_extra
v -1.1227666 0.46842435 0.09030304
v -0.8147827 0.4615679 -0.053815097
v -0.5323297 0.30778927 0.530294
v -0.8681087 0.31526434 0.6874187
v 0.53088236 0.4745664 -1.3174131
v 0.58013725 0.48079756 -0.986962
v -0.13254741 0.58521664 -0.90532595
v -0.18687703 0.5774092 -1.2990751
v -1.3617766 0.62562525 -0.4005883
v -1.1063261 0.62562525 -0.42548507
v -1.0753745 0.62562525 0.18734163
v -1.2792538 0.62562525 0.2072122
v -0.29265314 0.395506 0.0755499
v 0.11189592 0.4499538 -0.026421688
v -0.09739862 0.3299465 0.38117
v 0.10487545 0.35717034 0.33018437
v -0.57072616 0.3570088 0.3798157
v -0.83402234 0.4590321 -0.024531517
v -0.51166797 0.53735983 -0.27836537
v -0.26895916 0.35445347 0.29203746
v 0.22289144 0.464964 -0.8478668
v 0.8261856 0.36137617 -0.6356755
v 0.6943237 0.35561818 -0.33207858
v 0.19406554 0.4422354 -0.28764442
v -0.22483237 0.6027034 -0.24521783
v -0.7086716 0.6110437 -0.62508506
v -0.4366813 0.61104393 -0.90735036
v 0.0048448504 0.63872045 -0.48833802
vt 0.4996632 0.49920633
vt 0.99559283 0.49920633
vt 0.99559283 0.0024219693
vt 0.4996632 0.0024219693
vt 0.99559283 0.0024219693
vt 0.4996632 0.0024219693
vt 0.4996632 0.49920633
vt 0.99559283 0.49920633
vt 0.4996632 0.49920633
vt 0.99559283 0.49920633
vt 0.99559283 0.0024219693
vt 0.4996632 0.0024219693
vt 0.4996632 0.49920633
vt 0.99559283 0.49920633
vt 0.4996632 0.0024219693
vt 0.99559283 0.0024219693
vt 0.4996632 0.0024219693
vt 0.4996632 0.49920633
vt 0.99559283 0.49920633
vt 0.99559283 0.0024219693
vt 0.99559283 0.49920633
vt 0.99559283 0.0024219693
vt 0.4996632 0.0024219693
vt 0.4996632 0.49920633
vt 0.4996632 0.0024219693
vt 0.4996632 0.49920633
vt 0.99559283 0.49920633
vt 0.99559283 0.0024219693
vn 0.11540311 0.9729074 0.20033325
vn 0.11540319 0.9729074 0.20033316
vn 0.11540304 0.9729074 0.20033337
vn 0.11540296 0.9729074 0.20033345
vn 0.14051774 0.98929334 -0.039413728
vn 0.1404134 0.9893014 -0.03958382
vn 0.14065687 0.9892826 -0.039186828
vn 0.14074914 0.9892754 -0.03903635
vn -0 1 0
vn -0 1 0
vn -0 1 0
vn -0 1 0
vn -0.06698719 0.9659257 0.2500003
vn -0.0669872 0.9659257 0.25000033
vn -0.06698722 0.9659257 0.25000036
vn -0.06698724 0.9659257 0.25000033
vn 0.046769273 0.96231514 0.26788473
vn -0.028253091 0.96470624 0.26180822
vn 0.014676126 0.9640077 0.26546884
vn 0.08680592 0.95879495 0.2705126
vn 0.16201217 0.98491883 0.060720626
vn 0.1412629 0.98672885 0.08006923
vn 0.15598051 0.9855283 0.06636275
vn 0.17461662 0.9834223 0.048882846
vn -0.06495551 0.9973309 0.033345312
vn 0.00981224 0.99990714 0.00945587
vn -0.027359001 0.9993979 0.02134237
vn -0.10645612 0.9932261 0.046571705
g upper2_CO_2_extra_0
f 3/3/3 2/2/2 1/1/1
f 1/1/1 4/4/4 3/3/3
f 7/7/7 6/6/6 5/5/5
f 5/5/5 8/8/8 7/7/7
f 11/11/11 10/10/10 9/9/9
f 9/9/9 12/12/12 11/11/11
f 15/15/15 14/14/14 13/13/13
f 15/15/15 16/16/16 14/14/14
f 19/19/19 18/18/18 17/17/17
f 17/17/17 20/20/20 19/19/19
f 23/23/23 22/22/22 21/21/21
f 21/21/21 24/24/24 23/23/23
f 27/27/27 26/26/26 25/25/25
f 25/25/25 28/28/28 27/27/27
