g upper2_1_extra
v 0.014917299 0.24417661 0.7661011
v -0.23562871 0.25193423 0.7222694
v -0.14376882 0.41088304 0.28646627
v 0.086037286 0.40376744 0.32666966
v -0.47686663 0.29015803 0.60648793
v -0.700418 0.29733983 0.5609154
v -0.5863511 0.41768864 0.08452536
v -0.32099655 0.4086901 0.14162523
v -0.45670006 0.70682514 0.21475264
v -0.64987516 0.66667044 0.1465983
v -0.4677987 0.7043689 -0.43913165
v -0.22576 0.7043689 -0.35373774
v 0.41641226 0.32994643 0.6747767
v 0.14871062 0.39550588 0.4301059
v 0.51308274 0.44995376 0.2269039
v 0.598598 0.35717022 0.573176
v -0.1851625 0.3544534 0.6341099
v -0.44637677 0.35700873 0.4593657
v 0.09578122 0.5373598 0.08153627
v -0.30587223 0.45903203 -0.0022403046
v 1.2998693 0.37126836 0.45595434
v 1.0531291 0.4586651 0.16511221
v 1.4032787 0.50116193 -0.057772428
v 1.5394357 0.39251664 0.4060942
v 0.21844886 0.71114 -0.27151868
v 0.5705766 0.7111402 -0.44373527
v 0.5431869 0.70279956 0.25092235
v 0.8421648 0.7388171 0.10101832
vt 0.99559283 0.0024219693
vt 0.4996632 0.0024219693
vt 0.4996632 0.49920633
vt 0.99559283 0.49920633
vt 0.99559283 0.0024219693
vt 0.4996632 0.0024219693
vt 0.4996632 0.49920633
vt 0.99559283 0.49920633
vt 0.99559283 0.0024219693
vt 0.4996632 0.0024219693
vt 0.4996632 0.49920633
vt 0.99559283 0.49920633
vt 0.4996632 0.0024219693
vt 0.4996632 0.49920633
vt 0.99559283 0.49920633
vt 0.99559283 0.0024219693
vt 0.99559283 0.0024219693
vt 0.4996632 0.0024219693
vt 0.99559283 0.49920633
vt 0.4996632 0.49920633
vt 0.4996632 0.0024219693
vt 0.4996632 0.49920633
vt 0.99559283 0.49920633
vt 0.99559283 0.0024219693
vt 0.4996632 0.49920633
vt 0.99559283 0.49920633
vt 0.4996632 0.0024219693
vt 0.99559283 0.0024219693
vn -0.029808642 0.9410529 0.3369434
vn -0.02980879 0.9410529 0.3369434
vn -0.029808458 0.9410529 0.3369433
vn -0.029808292 0.9410529 0.33694324
vn -0.018244108 0.97037417 0.2409174
vn -0.017925248 0.9703954 0.24085568
vn -0.018684449 0.9703446 0.24100251
vn -0.018966295 0.97032565 0.24105702
vn -0.15324208 0.9881881 -0.0011110143
vn -0.20344047 0.97908735 -0.0002247897
vn -0.04201571 0.9991123 -0.0030399421
vn 0.0013332819 0.999992 -0.0037790267
vn 1.3586231E-07 0.9659257 0.25881946
vn -0 0.9659257 0.25881934
vn 1.1310486E-07 0.9659257 0.25881943
vn 2.4988216E-07 0.9659257 0.2588195
vn -0.15142687 0.95879495 0.24037932
vn -0.17514884 0.96231514 0.2080203
vn -0.19392723 0.9640077 0.18188262
vn -0.21871741 0.96470624 0.14664392
vn -0.0019171999 0.96957976 0.24476808
vn 0.043871317 0.96642214 0.2531866
vn 0.0141699575 0.96871096 0.24778666
vn -0.03653993 0.9705658 0.23804808
vn 0.0059864484 0.99990714 0.012241706
vn -0.03300902 0.9993979 0.010698034
vn -0.07244393 0.9973308 0.009118333
vn -0.11596601 0.993226 0.007353012
g upper2_1_extra_0
f 3/3/3 2/2/2 1/1/1
f 1/1/1 4/4/4 3/3/3
f 7/7/7 6/6/6 5/5/5
f 5/5/5 8/8/8 7/7/7
f 11/11/11 10/10/10 9/9/9
f 9/9/9 12/12/12 11/11/11
f 15/15/15 14/14/14 13/13/13
f 13/13/13 16/16/16 15/15/15
f 19/19/19 18/18/18 17/17/17
f 20/20/20 18/18/18 19/19/19
f 23/23/23 22/22/22 21/21/21
f 21/21/21 24/24/24 23/23/23
f 27/27/27 26/26/26 25/25/25
f 27/27/27 28/28/28 26/26/26
