g upper3_2
v -0.06326037 0.5003575 -0.6503364
v 0.39851406 0.50035745 -0.1265214
v 0.19802995 0.60032386 -0.0040030656
v -0.040855996 0.50035745 0.021112084
v 0.4394978 0.5003575 0.046815433
v 0.0589922 0.50035745 0.15656437
v 0.42292428 0.5003573 0.20899658
v 0.20323928 0.5003573 0.27236024
v 0.33504304 0.50035733 0.28849298
v 0.014670222 0.5880807 0.018501585
v -0.2433429 0.7151157 0.061528012
v -0.0039010474 0.6042 -0.28260452
v -0.044074733 0.5880805 0.27646658
v -0.21049948 0.5880806 0.44896856
v -0.3751002 0.5880806 0.48362175
v -0.49746415 0.58808047 0.3829651
v -0.54111207 0.5880807 0.16214484
v -0.5400949 0.58808064 0.008476511
v -0.5035004 0.6042 -0.5034999
v 0.50350004 0.60420007 -0.5034999
v 0.2824749 0.6042 -0.36548963
v 0.6065825 0.5877187 -0.24840324
v -0.0039010474 0.6042 -0.28260452
v 0.5891763 0.5877188 -0.088684544
v 0.15647407 0.5877186 -0.13286729
v 0.46170995 0.58771867 -0.032240488
v 0.29034668 0.5877186 -0.062226474
vt 0.26749024 0.5063136
vt 0.26484746 0.552022
vt 0.26694342 0.55481225
vt 0.2691512 0.54339087
vt 0.26491478 0.57709026
vt 0.26865786 0.57002836
vt 0.26553243 0.5995484
vt 0.26768425 0.5952325
vt 0.2665444 0.6055177
vt 0.25532326 0.55979437
vt 0.25726983 0.52931076
vt 0.25709668 0.5100981
vt 0.25493276 0.5704216
vt 0.25508627 0.58052963
vt 0.25593954 0.58561707
vt 0.25721928 0.5845847
vt 0.2586198 0.57717377
vt 0.25958923 0.5679051
vt 0.25887764 0.5063025
vt 0.25597835 0.5100981
vt 0.25768095 0.5100981
vt 0.25604874 0.58052963
vt 0.25954923 0.5100981
vt 0.25668657 0.58561707
vt 0.2594147 0.5679051
vt 0.25764313 0.5845847
vt 0.25869 0.57717377
vn -0.05264186 0.98987496 -0.13181958
vn 0.34679818 0.91989714 -0.18308535
vn 0.0053703142 0.99907887 0.042575225
vn -0.37297615 0.9205173 0.116347335
vn 0.38535383 0.9226282 -0.016112152
vn -0.3063526 0.9041848 0.2976539
vn 0.27427343 0.9489505 0.15577875
vn -0.12157807 0.93265927 0.3396548
vn 0.096609645 0.9548116 0.281072
vn 0.44851574 0.89202636 0.05588101
vn 0.04203612 0.99789953 0.049288943
vn 0.090344675 0.99504507 -0.041511618
vn 0.3536271 0.91132903 0.21077755
vn 0.14220512 0.9440745 0.29749116
vn -0.06901911 0.9610296 0.26769117
vn -0.25582644 0.9510084 0.17359744
vn -0.3803744 0.923931 0.04082655
vn -0.39342576 0.91935605 -0.0007648975
vn -0.08237072 0.99085337 -0.10688649
vn 0.022983147 0.99905807 0.036808066
vn 0.008561404 0.99953854 0.029146455
vn 0.043582182 0.99885046 0.01995991
vn 0.090344675 0.99504507 -0.041511618
vn 0.03174665 0.99920005 0.024317952
vn -0.0046920935 0.99766445 0.06814372
vn 0.008024265 0.9989507 0.045088828
vn -0.016837817 0.9983612 0.054694884
g upper3_2_0
f 3/3/3 2/2/2 1/1/1
f 3/3/3 1/1/1 4/4/4
f 2/2/2 3/3/3 5/5/5
f 6/6/6 3/3/3 4/4/4
f 5/5/5 3/3/3 7/7/7
f 8/8/8 3/3/3 6/6/6
f 7/7/7 3/3/3 9/9/9
f 9/9/9 3/3/3 8/8/8
f 12/12/12 11/11/11 10/10/10
f 10/10/10 11/11/11 13/13/13
f 13/13/13 11/11/11 14/14/14
f 14/14/14 11/11/11 15/15/15
f 15/15/15 11/11/11 16/16/16
f 16/16/16 11/11/11 17/17/17
f 17/17/17 11/11/11 18/18/18
f 19/19/19 11/11/11 12/12/12
f 18/18/18 11/11/11 19/19/19
f 19/19/19 21/21/21 20/20/20
f 20/20/20 21/21/21 22/22/22
f 23/23/23 21/21/21 19/19/19
f 22/22/22 21/21/21 24/24/24
f 25/25/25 21/21/21 23/23/23
f 24/24/24 21/21/21 26/26/26
f 27/27/27 21/21/21 25/25/25
f 26/26/26 21/21/21 27/27/27
