g wall_table2_S
v 0.5035 0.16866083 0.4479847
v -0.50349987 0.16866083 0.4479847
v -0.50349987 0.1686607 -0.44767743
v 0.5035 0.1686607 -0.44767743
v 0.5035 5.7621E-08 0.46604446
v -0.5035 5.7621E-08 0.46604446
v -0.50349987 0.16866083 0.4479847
v 0.5035 0.16866083 0.4479847
v 0.5035 0.1686607 -0.44767743
v -0.50349987 0.1686607 -0.44767743
v -0.5035 -5.7621E-08 -0.46573725
v 0.5035 -5.7621E-08 -0.46573725
v -0.5035 0.6709808 0.39438072
v 0.50350004 0.6709808 0.39438072
v 0.50349975 0.16866067 0.39438072
v -0.5035003 0.16866067 0.39438072
v -0.50349987 0.16866075 -0.39427316
v 0.5035 0.16866075 -0.39427316
v 0.50349987 0.67098045 -0.39427313
v -0.5035 0.67098045 -0.39427313
v 0.50350004 0.7830376 0.46439785
v -0.5035 0.7830376 0.46439785
v -0.5035 0.7830373 -0.46439812
v 0.50350004 0.7830373 -0.46439812
v 0.5035 0.64054084 0.5034999
v -0.5035 0.64054084 0.5034999
v -0.5035 0.7830376 0.46439785
v 0.50350004 0.7830376 0.46439785
v 0.50350004 0.7830373 -0.46439812
v -0.5035 0.7830373 -0.46439812
v -0.5035 0.64054066 -0.50350004
v 0.5035 0.64054066 -0.50350004
vt 0.65805477 0.083707854
vt 0.69321454 0.083707854
vt 0.69321454 0.052275818
vt 0.65805477 0.052275818
vt 0.6761966 0.04542109
vt 0.6702672 0.04542109
vt 0.6702672 0.05023059
vt 0.6761966 0.05023059
vt 0.6702672 0.05023059
vt 0.6761966 0.05023059
vt 0.6761966 0.04542109
vt 0.6702672 0.04542109
vt 0.62428176 0.11735941
vt 0.66778105 0.11735941
vt 0.66778105 0.08639165
vt 0.62428176 0.08639165
vt 0.66778105 0.08639165
vt 0.62428176 0.08639165
vt 0.62428176 0.11735933
vt 0.66778105 0.11735933
vt 0.62112224 0.083707854
vt 0.6562821 0.083707854
vt 0.6562821 0.052275818
vt 0.62112224 0.052275818
vt 0.638157 0.04530204
vt 0.64274645 0.04530204
vt 0.64274645 0.050204355
vt 0.638157 0.050204355
vt 0.638157 0.050204355
vt 0.64274645 0.050204355
vt 0.64274645 0.045302037
vt 0.638157 0.045302037
vn -0 1 -1.5011129E-07
vn -0 1 -1.5011129E-07
vn -0 1 -1.5011129E-07
vn -0 1 -1.5011129E-07
vn -0 0.10646882 0.99431604
vn -0 0.10646882 0.99431604
vn -0 0.10646881 0.99431604
vn -0 0.10646882 0.99431604
vn -0 0.1064693 -0.99431604
vn -0 0.1064693 -0.99431604
vn -0 0.106469296 -0.99431604
vn -0 0.1064693 -0.99431604
vn -0 0 1
vn -0 0 1
vn -0 0 1
vn -0 0 1
vn -0 0 -1
vn -0 0 -1
vn -0 0 -1
vn -0 0 -1
vn -0 1 -3.308714E-07
vn -0 1 -3.308714E-07
vn -0 1 -3.308714E-07
vn -0 1 -3.308714E-07
vn -0 0.26462474 0.9643515
vn -0 0.26462477 0.9643515
vn -0 0.26462477 0.9643515
vn -0 0.26462474 0.9643515
vn -0 0.2646241 -0.9643516
vn -0 0.2646241 -0.9643516
vn -0 0.2646241 -0.9643516
vn -0 0.26462412 -0.9643516
g wall_table2_S_0
f 3/3/3 2/2/2 1/1/1
f 4/4/4 3/3/3 1/1/1
f 7/7/7 6/6/6 5/5/5
f 8/8/8 7/7/7 5/5/5
f 11/11/11 10/10/10 9/9/9
f 12/12/12 11/11/11 9/9/9
f 15/15/15 14/14/14 13/13/13
f 16/16/16 15/15/15 13/13/13
f 19/19/19 18/18/18 17/17/17
f 20/20/20 19/19/19 17/17/17
f 23/23/23 22/22/22 21/21/21
f 24/24/24 23/23/23 21/21/21
f 27/27/27 26/26/26 25/25/25
f 28/28/28 27/27/27 25/25/25
f 31/31/31 30/30/30 29/29/29
f 32/32/32 31/31/31 29/29/29
