g wall_object4_end
v 0.10054393 0.85472775 -0.28769675
v 0.5034982 0.88444823 -0.27433035
v 0.5034988 1.0164406 -0.072551765
v 0.1005439 0.9927315 -0.12107444
v 0.100543864 0.9927315 0.12107615
v 0.50349814 1.0164406 0.07255359
v 0.50349814 0.88444823 0.2743322
v 0.100543834 0.8547278 0.28769848
v -0.11467413 0.7678304 0.2758219
v -0.07972286 0.8998226 -0.11584609
v -0.114674665 0.76783025 -0.27582029
v -0.19020091 0.7677297 -0.096589565
v -0.0797229 0.8998226 0.115847744
v -0.19020095 0.76772994 0.09659116
v 0.5034982 0.78393334 -0.38889417
v 0.5034982 0.88444823 -0.27433035
v 0.10054393 0.85472775 -0.28769675
v 0.10054394 0.72215 -0.40536523
v 0.5034982 0.0007560761 -0.45253444
v 0.10054395 0.0007560645 -0.46486762
v -0.114674665 0.76783025 -0.27582029
v -0.19544792 0.3340355 -0.42063996
v -0.1954479 0.00075598614 -0.45191678
v -0.19544792 0.66731495 -0.3893631
v -0.3194692 0.30410224 -0.33105534
v -0.30983806 1.0235349E-07 -0.35567108
v -0.40500647 0.282217 -0.15321942
v -0.37047443 -1.4881224E-08 -0.17783514
v -0.3704745 3.4038766E-10 0.17783673
v -0.36264288 0.5562349 -0.30643964
v -0.27961087 0.699962 -0.27046975
v -0.19020091 0.7677297 -0.096589565
v -0.40870157 0.5567912 -0.14673108
v -0.33162162 0.7056142 -0.12166032
v -0.19020095 0.76772994 0.09659116
v -0.40500653 0.282217 0.15322095
v -0.30983818 1.3279671E-07 0.35567263
v -0.40870166 0.55679107 0.1467326
v -0.33162162 0.7056142 0.12166189
v -0.11467413 0.7678304 0.2758219
v -0.31946933 0.30410227 0.33105686
v -0.19544806 0.000756032 0.45191845
v -0.36264294 0.5562349 0.3064411
v -0.27961093 0.6999621 0.2704713
v -0.19544804 0.33403552 0.4206416
v 0.10054382 0.00075610727 0.4648695
v -0.19544804 0.6673149 0.38936475
v 0.10054383 0.72214997 0.40536702
v 0.5034981 0.0007561529 0.45253643
v 0.100543834 0.8547278 0.28769848
v 0.5034981 0.78393304 0.3888959
v 0.50349814 0.88444823 0.2743322
vt 0.2066002 0.66619563
vt 0.20599134 0.66619563
vt 0.20599134 0.6813917
vt 0.2066002 0.6813917
vt 0.2066002 0.6813917
vt 0.20599134 0.6813917
vt 0.20599134 0.66619563
vt 0.2066002 0.66619563
vt 0.20702177 0.66619563
vt 0.20702177 0.68139166
vt 0.20702177 0.66619563
vt 0.20840155 0.6634768
vt 0.20702177 0.68139166
vt 0.20840155 0.6634768
vt 0.20109642 0.6735667
vt 0.20109642 0.6846484
vt 0.19972107 0.6846484
vt 0.19962198 0.6735667
vt 0.20109645 0.65506494
vt 0.19959067 0.65506494
vt 0.19787535 0.6846484
vt 0.19837195 0.67063004
vt 0.19843315 0.65506494
vt 0.19831076 0.6735667
vt 0.19778478 0.6706092
vt 0.1978783 0.65502316
vt 0.19703037 0.67097193
vt 0.19717018 0.65502316
vt 0.19717018 0.65502316
vt 0.19769129 0.6735667
vt 0.1976767 0.67910755
vt 0.19692026 0.6846484
vt 0.19704446 0.6735667
vt 0.19698235 0.67910755
vt 0.19692028 0.6846484
vt 0.19703037 0.67097193
vt 0.1978783 0.65502316
vt 0.19704446 0.6735667
vt 0.19698237 0.67910755
vt 0.19787535 0.6846484
vt 0.19778481 0.6706092
vt 0.19843316 0.65506494
vt 0.19769129 0.6735667
vt 0.19767672 0.67910755
vt 0.19837195 0.67063004
vt 0.19959068 0.65506494
vt 0.19831076 0.6735667
vt 0.19962198 0.6735667
vt 0.20109645 0.65506494
vt 0.19972107 0.6846484
vt 0.20109642 0.6735667
vt 0.20109642 0.6846484
vn -0.17059553 0.75231767 -0.63632965
vn -0.030020954 0.7604243 -0.6487323
vn -0.03729201 0.9575267 -0.28592306
vn -0.22801527 0.92214286 -0.31250852
vn -0.22801547 0.92214286 0.31250846
vn -0.037292123 0.9575269 0.2859224
vn -0.030020932 0.76042396 0.6487328
vn -0.17059578 0.7523173 0.6363299
vn -0.38556132 0.7811988 0.49098977
vn -0.58304197 0.7711096 -0.2558359
vn -0.38556147 0.78119916 -0.49098906
vn -0.577929 0.80882055 -0.10866216
vn -0.58304226 0.77110934 0.25583598
vn -0.5779288 0.80882055 0.10866225
vn -0.01709204 0.44918546 -0.893275
vn -0.030020954 0.7604243 -0.6487323
vn -0.17059553 0.75231767 -0.63632965
vn -0.08778624 0.42955983 -0.89876133
vn 0.02935599 0.08153775 -0.99623775
vn -0.011437841 0.08365756 -0.9964289
vn -0.38556147 0.78119916 -0.49098906
vn -0.3240873 0.0714404 -0.9433258
vn -0.34611022 0.07633 -0.93508375
vn -0.357019 0.44098648 -0.823449
vn -0.7776312 0.002706347 -0.62871486
vn -0.78967196 0.013842995 -0.61337316
vn -0.9807593 -0.06059296 -0.18557903
vn -0.9750992 -0.07828636 -0.20749179
vn -0.9750992 -0.07828633 0.20749152
vn -0.7933942 0.20662922 -0.5725643
vn -0.5823462 0.72465014 -0.3684495
vn -0.577929 0.80882055 -0.10866216
vn -0.9581845 0.22990024 -0.17037739
vn -0.6786568 0.7256579 -0.113338485
vn -0.5779288 0.80882055 0.10866225
vn -0.98075944 -0.060592946 0.18557881
vn -0.7896722 0.0138430325 0.6133728
vn -0.9581845 0.22990009 0.17037712
vn -0.6786568 0.7256579 0.11333831
vn -0.38556132 0.7811988 0.49098977
vn -0.7776315 0.002706397 0.6287145
vn -0.3461108 0.07633006 0.9350834
vn -0.79339445 0.2066292 0.57256395
vn -0.5823461 0.72465014 0.3684498
vn -0.32408795 0.071440496 0.94332564
vn -0.011438287 0.08365777 0.9964289
vn -0.35701934 0.4409865 0.8234489
vn -0.08778656 0.42955974 0.89876133
vn 0.029355783 0.08153803 0.99623775
vn -0.17059578 0.7523173 0.6363299
vn -0.017091973 0.44918504 0.8932752
vn -0.030020932 0.76042396 0.6487328
g wall_object4_end_0
f 3/3/3 2/2/2 1/1/1
f 4/4/4 3/3/3 1/1/1
f 4/4/4 5/5/5 3/3/3
f 5/5/5 6/6/6 3/3/3
f 7/7/7 6/6/6 5/5/5
f 8/8/8 7/7/7 5/5/5
f 9/9/9 8/8/8 5/5/5
f 10/10/10 4/4/4 1/1/1
f 4/4/4 10/10/10 5/5/5
f 11/11/11 10/10/10 1/1/1
f 10/10/10 11/11/11 12/12/12
f 13/13/13 9/9/9 5/5/5
f 10/10/10 13/13/13 5/5/5
f 10/10/10 12/12/12 13/13/13
f 14/14/14 9/9/9 13/13/13
f 12/12/12 14/14/14 13/13/13
f 17/17/17 16/16/16 15/15/15
f 18/18/18 17/17/17 15/15/15
f 18/18/18 15/15/15 19/19/19
f 20/20/20 18/18/18 19/19/19
f 21/21/21 17/17/17 18/18/18
f 22/22/22 18/18/18 20/20/20
f 23/23/23 22/22/22 20/20/20
f 24/24/24 21/21/21 18/18/18
f 24/24/24 18/18/18 22/22/22
f 25/25/25 22/22/22 23/23/23
f 26/26/26 25/25/25 23/23/23
f 27/27/27 25/25/25 26/26/26
f 28/28/28 27/27/27 26/26/26
f 27/27/27 28/28/28 29/29/29
f 22/22/22 25/25/25 30/30/30
f 24/24/24 22/22/22 30/30/30
f 25/25/25 27/27/27 30/30/30
f 24/24/24 31/31/31 21/21/21
f 30/30/30 31/31/31 24/24/24
f 21/21/21 31/31/31 32/32/32
f 31/31/31 30/30/30 33/33/33
f 27/27/27 33/33/33 30/30/30
f 31/31/31 34/34/34 32/32/32
f 34/34/34 31/31/31 33/33/33
f 32/32/32 34/34/34 35/35/35
f 36/36/36 27/27/27 29/29/29
f 29/29/29 37/37/37 36/36/36
f 33/33/33 27/27/27 38/38/38
f 34/34/34 33/33/33 38/38/38
f 27/27/27 36/36/36 38/38/38
f 34/34/34 39/39/39 35/35/35
f 39/39/39 34/34/34 38/38/38
f 35/35/35 39/39/39 40/40/40
f 37/37/37 41/41/41 36/36/36
f 41/41/41 37/37/37 42/42/42
f 43/43/43 38/38/38 36/36/36
f 41/41/41 43/43/43 36/36/36
f 44/44/44 39/39/39 38/38/38
f 39/39/39 44/44/44 40/40/40
f 43/43/43 44/44/44 38/38/38
f 45/45/45 41/41/41 42/42/42
f 43/43/43 41/41/41 45/45/45
f 45/45/45 42/42/42 46/46/46
f 44/44/44 43/43/43 47/47/47
f 40/40/40 44/44/44 47/47/47
f 47/47/47 43/43/43 45/45/45
f 48/48/48 45/45/45 46/46/46
f 47/47/47 45/45/45 48/48/48
f 40/40/40 47/47/47 48/48/48
f 48/48/48 46/46/46 49/49/49
f 50/50/50 40/40/40 48/48/48
f 51/51/51 48/48/48 49/49/49
f 50/50/50 48/48/48 51/51/51
f 52/52/52 50/50/50 51/51/51
