g wall_desk1
v -1.4694588 0.744978 0.5035
v -1.4694588 0.744978 -0.3715841
v 0.46245885 0.744978 -0.3715841
v 0.46245885 0.744978 0.5035
v 0.5035 0.7066807 -0.4586124
v 0.5035 0.6220793 -0.4599733
v 0.5035 0.6220793 0.50350004
v 0.5035 0.7039369 0.5035
v 0.46245885 0.744978 0.5035
v 0.46245885 0.744978 -0.3715841
v -1.5105 0.7066807 -0.4586124
v -1.5105 0.6220793 -0.4599734
v 0.5035 0.6220793 -0.4599733
v 0.5035 0.7066807 -0.4586124
v 0.46245885 0.744978 -0.3715841
v -1.4694588 0.744978 -0.3715841
v -1.5105 0.7039369 0.5035
v -1.5105 0.6220793 0.5035
v -1.5105 0.6220793 -0.4599734
v -1.5105 0.7066807 -0.4586124
v -1.4694588 0.744978 -0.3715841
v -1.4694588 0.744978 0.5035
v 0.43879467 6.53038E-07 -0.22846666
v 0.43879467 6.53038E-07 0.5035
v 0.43879467 0.62207997 0.50350016
v 0.43879467 0.62207997 -0.45997322
v -1.4457976 5.7621E-08 0.5035
v -1.4457976 7.6828E-08 -0.22846666
v -1.4457976 0.62207943 -0.45997328
v -1.4457976 0.62207943 0.5035001
v 0.43879467 0.62207997 -0.45997322
v 0.19094808 0.62207997 -0.45997322
v 0.21839765 6.53038E-07 -0.22846666
v 0.43879467 6.53038E-07 -0.22846666
v -1.4457976 7.6828E-08 -0.22846666
v -1.2254002 7.6828E-08 -0.22846666
v -1.1979505 0.62207943 -0.45997328
v -1.4457976 0.62207943 -0.45997328
v 0.19094808 0.62207997 0.50350016
v 0.21839765 6.53038E-07 0.5035
v 0.21839765 6.53038E-07 -0.22846666
v 0.19094808 0.62207997 -0.45997322
v -1.1979505 0.62207943 -0.45997328
v -1.2254002 7.6828E-08 -0.22846666
v -1.2254002 5.7621E-08 0.5035
v -1.1979505 0.62207943 0.5035001
vt 0.59069276 0.9014008
vt 0.59069246 0.9657237
vt 0.6633858 0.96572345
vt 0.6633858 0.9014008
vt 0.6649301 0.9582483
vt 0.6649301 0.93507063
vt 0.58914846 0.93507063
vt 0.58914846 0.9574966
vt 0.5891169 0.9713136
vt 0.6614934 0.96992064
vt 0.6649301 0.9582483
vt 0.6649301 0.93507063
vt 0.58914846 0.93507063
vt 0.58914846 0.9582483
vt 0.59069276 0.96829003
vt 0.6633858 0.96829003
vt 0.6649301 0.9574966
vt 0.6649301 0.93507063
vt 0.58914846 0.93507063
vt 0.58914846 0.9582483
vt 0.59258515 0.96992064
vt 0.6649617 0.9713136
vt 0.6649301 0.9014008
vt 0.58914846 0.9014008
vt 0.58914846 0.93507063
vt 0.6649301 0.93507063
vt 0.6649301 0.9014008
vt 0.58914846 0.9014008
vt 0.58914846 0.93507063
vt 0.6649301 0.93507063
vt 0.6649301 0.93507063
vt 0.6649301 0.93507063
vt 0.6649301 0.9014008
vt 0.6649301 0.9014008
vt 0.58914846 0.9014008
vt 0.58914846 0.9014008
vt 0.58914846 0.93507063
vt 0.58914846 0.93507063
vt 0.58914846 0.93507063
vt 0.6649301 0.93507063
vt 0.58914846 0.93507063
vt 0.6649301 0.93507063
vt 0.58914846 0.93507063
vt 0.58914846 0.9014008
vt 0.6649301 0.9014008
vt 0.6649301 0.93507063
vn -0 1 0
vn -0 1 0
vn -0 1 0
vn -0 1 0
vn 0.9790127 0.20379871 0.00030437135
vn 1 0 0
vn 1 0 0
vn 0.9210096 0.3895395 0.00058177346
vn 0.6955745 0.7184532 0.0010730029
vn 0.6955745 0.7184532 0.0010730028
vn -0 0.4714279 -0.8819046
vn -0 0.016084315 -0.99987066
vn -0 0.016084315 -0.99987066
vn -0 0.47142807 -0.88190454
vn -0 0.91529626 -0.4027812
vn -0 0.91529626 -0.40278113
vn -0.9210093 0.38954 0.00058177416
vn -1 0 0
vn -1 0 0
vn -0.9790127 0.20379896 0.0003043718
vn -0.69557387 0.71845376 0.0010730039
vn -0.6955738 0.7184538 0.0010730039
vn 1 0 0
vn 1 0 0
vn 1 0 0
vn 1 0 0
vn -1 0 0
vn -1 0 0
vn -1 0 0
vn -1 0 0
vn -0 -0.34878024 -0.9372045
vn -0 -0.34878024 -0.9372045
vn -0 -0.34878024 -0.9372045
vn -0 -0.34878024 -0.9372045
vn -0 -0.34878033 -0.9372045
vn -0 -0.3487803 -0.9372045
vn -0 -0.34878033 -0.9372045
vn -0 -0.34878033 -0.9372045
vn -0.99902785 -0.044082627 0
vn -0.99902785 -0.04408262 0
vn -0.99902785 -0.044082627 0
vn -0.99902785 -0.04408262 0
vn 0.99902785 -0.044082865 0
vn 0.99902785 -0.044082865 0
vn 0.99902785 -0.044082865 0
vn 0.99902785 -0.04408287 0
g wall_desk1_0
f 3/3/3 2/2/2 1/1/1
f 4/4/4 3/3/3 1/1/1
f 7/7/7 6/6/6 5/5/5
f 8/8/8 7/7/7 5/5/5
f 8/8/8 5/5/5 9/9/9
f 5/5/5 10/10/10 9/9/9
f 13/13/13 12/12/12 11/11/11
f 14/14/14 13/13/13 11/11/11
f 14/14/14 11/11/11 15/15/15
f 11/11/11 16/16/16 15/15/15
f 19/19/19 18/18/18 17/17/17
f 20/20/20 19/19/19 17/17/17
f 20/20/20 17/17/17 21/21/21
f 17/17/17 22/22/22 21/21/21
f 25/25/25 24/24/24 23/23/23
f 26/26/26 25/25/25 23/23/23
f 29/29/29 28/28/28 27/27/27
f 30/30/30 29/29/29 27/27/27
f 33/33/33 32/32/32 31/31/31
f 34/34/34 33/33/33 31/31/31
f 37/37/37 36/36/36 35/35/35
f 38/38/38 37/37/37 35/35/35
f 41/41/41 40/40/40 39/39/39
f 42/42/42 41/41/41 39/39/39
f 45/45/45 44/44/44 43/43/43
f 46/46/46 45/45/45 43/43/43
