g wall_desk_C
v 0.38332617 0.9509789 -0.48591956
v -0.5047953 0.78707874 -0.5000254
v 0.39743155 0.78707874 -0.50002515
v -0.5047953 0.9509055 -0.48592612
v 0.36818382 0.97097135 -0.45048717
v -0.5047953 0.97097135 -0.44536328
v -0.5047953 0.18783273 -0.38902393
v 0.28611854 0.18783267 -0.38902372
v 0.28611854 0.78642786 -0.38902324
v -0.5047953 0.7864279 -0.38902357
v -0.5047953 0.97097135 -0.44536328
v -0.46880162 0.97097135 0.27106783
v -0.5047953 0.97097135 0.26718983
v 0.36818382 0.97097135 -0.45048717
v -0.34720656 0.97097135 0.3462877
v 0.4228397 0.97097135 -0.4248339
v 0.4482088 0.97097135 -0.36818376
v -0.2722529 0.97097135 0.46880168
v 0.44308496 0.97097117 0.5045071
v -0.26712888 0.9699953 0.5045073
v -0.28710842 0.78642756 0.5045071
v -0.2885039 0.18783247 0.50450706
v -0.37332892 0.1878325 0.37258208
v -0.37263116 0.78642756 0.37258223
v -0.5047953 0.78642756 0.2879514
v -0.5047953 0.18783255 0.28795126
v 0.5000255 0.7870786 0.504507
v 0.48591956 0.9509789 -0.38332614
v 0.5000252 0.7870786 -0.3974317
v 0.48592615 0.9509053 0.5045071
v 0.44308496 0.97097117 0.5045071
v 0.4482088 0.97097135 -0.36818376
v 0.3887119 0.78642774 -0.28642988
v 0.3887119 0.18783264 -0.28643024
v 0.3887125 0.18783244 0.5045069
v 0.3887125 0.78642774 0.50450724
v -0.5047953 0.7870786 0.32140917
v -0.5047953 0.9508963 0.30822468
v -0.38283798 0.95090216 0.38271892
v -0.39000753 0.7870786 0.3893111
v -0.32186112 0.7870786 0.5045072
v -0.30752197 0.950908 0.5045073
v 0.45303556 0.9509789 -0.45519173
v 0.39743155 0.78707874 -0.50002515
v 0.4671411 0.7870787 -0.46929732
v 0.38332617 0.9509789 -0.48591956
v 0.45303556 0.9509789 -0.45519173
v 0.36818382 0.97097135 -0.45048717
v 0.4228397 0.97097135 -0.4248339
v 0.4482088 0.97097135 -0.36818376
v 0.48591956 0.9509789 -0.38332614
v 0.45303556 0.9509789 -0.45519173
v 0.4671411 0.7870787 -0.46929732
v 0.5000252 0.7870786 -0.3974317
v 0.3887119 0.18783264 -0.28643024
v 0.3887119 0.78642774 -0.28642988
v 0.28611854 0.78642786 -0.38902324
v 0.28611854 0.18783267 -0.38902372
v 0.3816056 0.18139817 -0.43608946
v -0.5035003 0.18139824 -0.43608972
v -0.5035003 -0.0024943363 -0.45191607
v 0.39743155 -0.0024943363 -0.45191574
v -0.5035003 0.18139824 -0.43608972
v -0.38572642 0.18139827 0.38471815
v -0.5047953 0.18139829 0.3066089
v 0.3816056 0.18139817 -0.43608946
v 0.43219408 0.18139815 -0.3816056
v 0.43219438 0.1813981 0.50450706
v -0.30716142 0.18139824 0.5045072
v -0.5047953 0.18139829 0.3066089
v -0.39320716 -0.0024946437 0.3926972
v -0.5047953 -0.0024946437 0.32140902
v -0.38572642 0.18139827 0.38471815
v -0.30716142 0.18139824 0.5045072
v -0.32325658 -0.0024946053 0.50450706
v 0.44802064 -0.0024946053 0.5045068
v 0.43219438 0.1813981 0.50450706
v 0.43219408 0.18139815 -0.3816056
v 0.44802034 -0.002494509 -0.39743188
v 0.3816056 0.18139817 -0.43608946
v 0.39743155 -0.0024943363 -0.45191574
v 0.44802034 -0.002494509 -0.39743188
v 0.43219408 0.18139815 -0.3816056
v 0.38961077 1.0386275E-17 -0.16962075
v 0.38961077 0.822225 -0.16962077
v 0.47678843 0.822225 -0.22153822
v 0.47678843 1.9207E-08 -0.22153819
v 0.47678843 1.9207E-08 -0.22153819
v 0.47678843 0.822225 -0.22153822
v 0.47678843 0.822225 -0.3953476
v 0.47678843 2.4208058E-17 -0.3953476
v 0.39763516 1.9207E-08 -0.47450083
v 0.39763516 0.822225 -0.47450083
v 0.22254491 0.822225 -0.47450083
v 0.22254491 3.8414E-08 -0.47450083
v 0.22254491 3.8414E-08 -0.47450083
v 0.22254491 0.822225 -0.47450083
v 0.17732425 0.822225 -0.38997623
v 0.17732425 2.3879159E-17 -0.3899763
v 0.47678843 2.4208058E-17 -0.3953476
v 0.47678843 0.822225 -0.3953476
v 0.39763516 0.822225 -0.47450083
v 0.39763516 1.9207E-08 -0.47450083
v -0.46880162 0.97097135 0.27106783
v -0.5047953 0.9508963 0.30822468
v -0.5047953 0.97097135 0.26718983
v -0.34720656 0.97097135 0.3462877
v -0.38283798 0.95090216 0.38271892
v -0.2722529 0.97097135 0.46880168
v -0.30752197 0.950908 0.5045073
v -0.26712888 0.9699953 0.5045073
vt 0.26133114 0.14198755
vt 0.28108454 0.13483094
vt 0.26112145 0.13483088
vt 0.28127867 0.1419843
vt 0.26165548 0.14410622
vt 0.28129792 0.14410622
vt 0.41568324 0.14939028
vt 0.33764672 0.14939028
vt 0.33764672 0.19735515
vt 0.41568324 0.19735515
vt 0.27564326 0.14724803
vt 0.273951 0.1914691
vt 0.27564326 0.19122578
vt 0.2345996 0.14700472
vt 0.2739135 0.19150695
vt 0.23222533 0.1494027
vt 0.22985104 0.15180066
vt 0.27387604 0.19154479
vt 0.23009196 0.19324026
vt 0.27363515 0.19324026
vt 0.38980007 0.19440308
vt 0.38980007 0.14825103
vt 0.38980007 0.14825103
vt 0.38980007 0.19440308
vt 0.38980007 0.19440308
vt 0.38980007 0.14825103
vt 0.28108454 0.13483094
vt 0.26133114 0.14198755
vt 0.26112145 0.13483088
vt 0.28127867 0.1419843
vt 0.28129792 0.14410622
vt 0.26165557 0.14410622
vt 0.33764672 0.19735515
vt 0.33764672 0.14939028
vt 0.41568324 0.14939028
vt 0.41568324 0.19735515
vt 0.3018331 0.13483094
vt 0.3018331 0.141984
vt 0.3018331 0.14198425
vt 0.3018331 0.13483094
vt 0.3018331 0.13483094
vt 0.3018331 0.14198452
vt 0.26496762 0.14210865
vt 0.26966423 0.13482843
vt 0.26539284 0.13482966
vt 0.26860413 0.14210851
vt 0.26496762 0.14210865
vt 0.26842847 0.14410622
vt 0.2649247 0.14410622
vt 0.26142097 0.14410622
vt 0.26133114 0.14210878
vt 0.26496762 0.14210865
vt 0.26539284 0.13482966
vt 0.26112145 0.13483088
vt 0.4212206 0.14833719
vt 0.42122054 0.19606966
vt 0.42671138 0.19606966
vt 0.42671144 0.1483373
vt 0.45321777 0.15342465
vt 0.47316352 0.15342465
vt 0.4729456 0.14621152
vt 0.45298252 0.14621146
vt 0.4732056 0.13970587
vt 0.4707863 0.14330913
vt 0.47180137 0.14330913
vt 0.46565992 0.13970587
vt 0.46522865 0.13970587
vt 0.46308273 0.13970587
vt 0.47011653 0.14330913
vt 0.49369413 0.15342465
vt 0.49369413 0.14667147
vt 0.49369413 0.14667147
vt 0.49369413 0.15342465
vt 0.49369413 0.15342465
vt 0.49369413 0.14667147
vt 0.4729456 0.14621152
vt 0.47316352 0.15342465
vt 0.45321777 0.15342465
vt 0.45298252 0.14621146
vt 0.46033588 0.15342465
vt 0.4615253 0.14620902
vt 0.45298252 0.14621146
vt 0.45321777 0.15342465
vt 0.43106696 0.15923767
vt 0.4310663 0.19500783
vt 0.43363938 0.19500796
vt 0.43364057 0.15923782
vt 0.43364057 0.15923782
vt 0.43363938 0.19500796
vt 0.4381609 0.19500844
vt 0.43816248 0.15923823
vt 0.4404328 0.15923853
vt 0.44043124 0.19500875
vt 0.4453363 0.1950092
vt 0.44533753 0.159239
vt 0.44533753 0.159239
vt 0.4453363 0.1950092
vt 0.447825 0.19500934
vt 0.44782567 0.15923914
vt 0.43816248 0.15923823
vt 0.4381609 0.19500844
vt 0.44043124 0.19500875
vt 0.4404328 0.15923853
vt 0.25687447 0.1440426
vt 0.25748616 0.14199854
vt 0.2582431 0.1440426
vt 0.2568212 0.1440426
vt 0.25685546 0.14199854
vt 0.25676793 0.1440426
vt 0.25622472 0.14199854
vt 0.25539872 0.1440426
vn -0 1 0
vn -0 1 0
vn -0 1 0
vn -0 1 0
vn 0.00016648545 0.99999964 -0.00087572203
vn -2.7453575E-06 0.99999964 -0.0009197973
vn -0 1 0
vn -0 1 0
vn -0 1 0
vn -0 1 0
vn -0 1 0
vn -0 1 0
vn -0 1 0
vn -0 1 0
vn -0 1 0
vn -0 1 0
vn -0 1 0
vn -0 1 0
vn -0 1 0
vn -0 1 0
vn -0 1 0
vn -0 1 0
vn -0 1 0
vn -0 1 0
vn -0.0011035958 0.999998 0.0017188865
vn -0.0011035958 0.999998 0.0017188865
vn -0 1 0
vn -0 1 0
vn -0 1 0
vn -0 1 0
vn 0.0008779479 0.99999964 2.6257378E-06
vn 0.0008448722 0.99999964 -0.00016405577
vn -0 1 0
vn -0 1 0
vn -0 1 0
vn -0 1 0
vn -0 1 0
vn -0 1 0
vn -0 1 0
vn -0 1 0
vn -0.0017388063 0.999998 0.0010526113
vn -0.0017388059 0.999998 0.0010526113
vn -0 1 0
vn -0 1 0
vn -0 1 0
vn -0 1 0
vn 0.00059100747 0.99999964 -0.00059404585
vn 0.00016648545 0.99999964 -0.00087572203
vn 0.0005915232 0.99999964 -0.0005935013
vn 0.0008448722 0.99999964 -0.00016405577
vn 0.000836915 0.99999964 -0.00019996903
vn 0.0018368961 0.999998 -0.0008405214
vn 0.0018368961 0.999998 -0.0008405214
vn 0.0018368961 0.999998 -0.0008405214
vn -0 1 0
vn -0 1 0
vn -0 1 0
vn -0 1 0
vn -0 1 0
vn -0 1 0
vn -0 1 0
vn -0 1 0
vn -0 1 0
vn -0 1 0
vn -0 1 0
vn -0 1 0
vn -0 1 0
vn -0 1 0
vn -0 1 0
vn -0 1 0
vn -0 1 0
vn -0 1 0
vn -0 1 0
vn -0 1 0
vn -0 1 0
vn -0 1 0
vn -0 1 0
vn -0 1 0
vn -0 1 0
vn -0 1 0
vn -0 1 0
vn -0 1 0
vn -0 1 0
vn -0 1 2.246276E-06
vn -0 1 2.2475622E-06
vn -0 1 2.2475622E-06
vn -0 1 2.246276E-06
vn 2.9950336E-06 1 0
vn 2.996748E-06 1 0
vn 2.9944626E-06 1 0
vn 2.9950336E-06 1 0
vn -0 1 -2.246276E-06
vn -0 1 -2.245848E-06
vn -0 1 -2.245848E-06
vn -0 1 -2.246276E-06
vn -2.9950336E-06 1 0
vn -2.9944626E-06 1 0
vn -2.9944626E-06 1 0
vn -2.9950336E-06 1 0
vn 2.995033E-06 1 -1.4975165E-06
vn 2.9944615E-06 1 -1.4972308E-06
vn 2.9944615E-06 1 -1.4972308E-06
vn 2.995033E-06 1 -1.4975165E-06
vn -0.00028261208 0.99999976 0.00071135384
vn -0.00028561967 0.99999976 0.000708796
vn -9.319971E-05 0.99999964 0.000865032
vn -0.00050958904 0.99999976 0.00050984643
vn -0.0005113036 0.99999976 0.00050825276
vn -0.0007075565 0.99999976 0.0003138055
vn -0.0007076005 0.99999976 0.00031375862
vn -0.0008387285 0.99999964 0.00016888187
g wall_desk_C_0
f 3/3/3 2/2/2 1/1/1
f 2/2/2 4/4/4 1/1/1
f 1/1/1 4/4/4 5/5/5
f 4/4/4 6/6/6 5/5/5
f 9/9/9 8/8/8 7/7/7
f 10/10/10 9/9/9 7/7/7
f 13/13/13 12/12/12 11/11/11
f 12/12/12 14/14/14 11/11/11
f 12/12/12 15/15/15 14/14/14
f 15/15/15 16/16/16 14/14/14
f 16/16/16 15/15/15 17/17/17
f 15/15/15 18/18/18 17/17/17
f 19/19/19 17/17/17 18/18/18
f 20/20/20 19/19/19 18/18/18
f 23/23/23 22/22/22 21/21/21
f 24/24/24 23/23/23 21/21/21
f 23/23/23 24/24/24 25/25/25
f 26/26/26 23/23/23 25/25/25
f 29/29/29 28/28/28 27/27/27
f 28/28/28 30/30/30 27/27/27
f 30/30/30 28/28/28 31/31/31
f 28/28/28 32/32/32 31/31/31
f 35/35/35 34/34/34 33/33/33
f 36/36/36 35/35/35 33/33/33
f 39/39/39 38/38/38 37/37/37
f 40/40/40 39/39/39 37/37/37
f 39/39/39 40/40/40 41/41/41
f 42/42/42 39/39/39 41/41/41
f 45/45/45 44/44/44 43/43/43
f 44/44/44 46/46/46 43/43/43
f 46/46/46 48/48/48 47/47/47
f 48/48/48 49/49/49 47/47/47
f 47/47/47 49/49/49 50/50/50
f 51/51/51 47/47/47 50/50/50
f 53/53/53 52/52/52 51/51/51
f 54/54/54 53/53/53 51/51/51
f 57/57/57 56/56/56 55/55/55
f 58/58/58 57/57/57 55/55/55
f 61/61/61 60/60/60 59/59/59
f 62/62/62 61/61/61 59/59/59
f 65/65/65 64/64/64 63/63/63
f 64/64/64 66/66/66 63/63/63
f 66/66/66 64/64/64 67/67/67
f 68/68/68 67/67/67 64/64/64
f 69/69/69 68/68/68 64/64/64
f 72/72/72 71/71/71 70/70/70
f 71/71/71 73/73/73 70/70/70
f 74/74/74 73/73/73 71/71/71
f 75/75/75 74/74/74 71/71/71
f 78/78/78 77/77/77 76/76/76
f 79/79/79 78/78/78 76/76/76
f 82/82/82 81/81/81 80/80/80
f 83/83/83 82/82/82 80/80/80
f 86/86/86 85/85/85 84/84/84
f 87/87/87 86/86/86 84/84/84
f 90/90/90 89/89/89 88/88/88
f 91/91/91 90/90/90 88/88/88
f 94/94/94 93/93/93 92/92/92
f 95/95/95 94/94/94 92/92/92
f 98/98/98 97/97/97 96/96/96
f 99/99/99 98/98/98 96/96/96
f 102/102/102 101/101/101 100/100/100
f 103/103/103 102/102/102 100/100/100
f 106/106/106 105/105/105 104/104/104
f 104/104/104 105/105/105 107/107/107
f 105/105/105 108/108/108 107/107/107
f 107/107/107 108/108/108 109/109/109
f 108/108/108 110/110/110 109/109/109
f 111/111/111 109/109/109 110/110/110
