g wall_restaurant_S1
v 0.5035 0.0020886415 -0.5034248
v 0.5034999 1.9687619 -0.39751077
v -0.5035 1.9687619 -0.39751077
v -0.5035 0.0020886415 -0.50342464
v 0.5035 0.15029643 0.48094368
v 0.5035 -0.0016975316 0.50339276
v -0.5035 -0.0016976851 0.50339276
v -0.5035 0.15029643 0.48094368
v 0.5035 0.17225042 0.45409602
v -0.5035 0.17225036 0.45409602
v 0.5034999 2.2620597 0.014859267
v 0.5034999 2.0841744 0.059322916
v -0.50350004 2.0841744 0.059322953
v -0.50350004 2.2620597 0.014859267
v -0.5035 2.2620606 -0.3757063
v -0.5035 1.944918 -0.4210724
v 0.5034999 1.944918 -0.4210724
v 0.5034999 2.2620606 -0.3757063
v -0.50350004 2.2903285 -0.02453719
v 0.5034999 2.2903285 -0.02453721
v 0.5034999 2.2620597 0.014859267
v -0.50350004 2.2620597 0.014859267
v 0.5034999 2.2903283 -0.33524767
v -0.5035 2.2903283 -0.33524767
v -0.5035 2.2620606 -0.3757063
v 0.5034999 2.2620606 -0.3757063
v 0.5034999 2.2903283 -0.33524767
v 0.5034999 2.2903285 -0.02453721
v -0.50350004 2.2903285 -0.02453719
v -0.5035 2.2903283 -0.33524767
v 0.50350004 0.7099005 0.39821568
v 0.5035 0.17225042 0.45409602
v -0.5035 0.17225036 0.45409602
v -0.5035 0.70990056 0.3982157
v 0.5034999 2.1080182 0.038245488
v 0.5035 0.925561 0.33631513
v -0.5035 0.925561 0.33631513
v -0.50350004 2.1080182 0.038245488
v 0.50350004 0.9255609 0.39516798
v 0.5035 0.7290705 0.41649392
v -0.5035 0.72907037 0.4164939
v -0.5035 0.9255609 0.39516795
v -0.5035 0.70990056 0.3982157
v -0.5035 0.72907037 0.4164939
v 0.5035 0.7290705 0.41649392
v 0.50350004 0.7099005 0.39821568
v 0.5035 0.925561 0.33631513
v 0.50350004 0.9255609 0.39516798
v -0.5035 0.9255609 0.39516795
v -0.5035 0.925561 0.33631513
vt 0.32180333 0.7363585
vt 0.32180333 0.846085
vt 0.32180333 0.846085
vt 0.32180333 0.7363585
vt 0.34616897 0.7474819
vt 0.34616897 0.7360937
vt 0.38112402 0.7360937
vt 0.38112402 0.7474819
vt 0.346169 0.75079393
vt 0.38112402 0.75079393
vt 0.35281384 0.8610182
vt 0.3462012 0.8610182
vt 0.3462012 0.8645686
vt 0.35281384 0.8645686
vt 0.3914052 0.8645686
vt 0.4005084 0.8645686
vt 0.4005084 0.8610182
vt 0.3914052 0.8610182
vt 0.35736856 0.8610182
vt 0.35736856 0.8645686
vt 0.35281384 0.8645686
vt 0.35281384 0.8610182
vt 0.38515675 0.8645686
vt 0.38515675 0.8610182
vt 0.3914052 0.8610182
vt 0.3914052 0.8645686
vt 0.38515675 0.8645686
vt 0.35736856 0.8645686
vt 0.35736856 0.8610182
vt 0.38515675 0.8610182
vt 0.33125973 0.7756555
vt 0.33125973 0.7515789
vt 0.3862964 0.7515789
vt 0.3862964 0.7756555
vt 0.3445492 0.846085
vt 0.3445492 0.79263574
vt 0.36527422 0.79263574
vt 0.36527422 0.846085
vt 0.3445492 0.786129
vt 0.3445492 0.7775969
vt 0.36527422 0.7775969
vt 0.36527422 0.786129
vt 0.36527422 0.7756555
vt 0.36527422 0.7775969
vt 0.3445492 0.7775969
vt 0.3445492 0.7756555
vt 0.3445492 0.78999853
vt 0.3445492 0.786129
vt 0.36527422 0.786129
vt 0.36527422 0.78999853
vn -0 0.053776436 -0.998553
vn -0 0.05377644 -0.998553
vn -0 0.05377644 -0.998553
vn -0 0.05377644 -0.998553
vn -0 0.49339572 0.8698049
vn -0 0.1461122 0.989268
vn -0 0.1461122 0.989268
vn -0 0.49339572 0.8698049
vn -0 0.47454944 0.8802288
vn -0 0.4745495 0.8802288
vn -0 0.24249637 0.97015226
vn -0 0.24249637 0.97015226
vn -0 0.24249637 0.97015226
vn -0 0.24249637 0.97015226
vn -0 0.14160497 -0.9899233
vn -0 0.14160497 -0.9899233
vn -0 0.14160497 -0.9899233
vn -0 0.14160497 -0.9899233
vn -0 0.81247944 0.58298993
vn -0 0.81247944 0.58298993
vn -0 0.81247944 0.58298993
vn -0 0.81247944 0.58298993
vn -0 0.81973994 -0.5727359
vn -0 0.81973994 -0.5727359
vn -0 0.81973994 -0.5727359
vn -0 0.81973994 -0.5727359
vn -0 1 -9.890623E-07
vn -0 1 -9.890623E-07
vn -0 1 -9.890623E-07
vn -0 1 -9.890624E-07
vn -0 0.103377506 0.99464214
vn -0 0.47454944 0.8802288
vn -0 0.4745495 0.8802288
vn -0 0.103377506 0.99464214
vn -0 0.2444302 0.96966696
vn -0 0.2444302 0.96966696
vn -0 0.2444302 0.96966696
vn -0 0.2444302 0.96966696
vn -0 0.10790062 0.99416167
vn -0 0.10790062 0.99416167
vn -0 0.107900634 0.99416167
vn -0 0.10790062 0.99416167
vn -0 -0.6900745 0.7237384
vn -0 -0.6900745 0.7237384
vn -0 -0.6900745 0.7237384
vn -0 -0.6900745 0.7237384
vn -0 1 1.3054254E-06
vn -0 1 1.3054256E-06
vn -0 1 1.3054255E-06
vn -0 1 1.3054255E-06
g wall_restaurant_S1_0
f 3/3/3 2/2/2 1/1/1
f 4/4/4 3/3/3 1/1/1
f 7/7/7 6/6/6 5/5/5
f 8/8/8 7/7/7 5/5/5
f 8/8/8 5/5/5 9/9/9
f 10/10/10 8/8/8 9/9/9
f 13/13/13 12/12/12 11/11/11
f 14/14/14 13/13/13 11/11/11
f 17/17/17 16/16/16 15/15/15
f 18/18/18 17/17/17 15/15/15
f 21/21/21 20/20/20 19/19/19
f 22/22/22 21/21/21 19/19/19
f 25/25/25 24/24/24 23/23/23
f 26/26/26 25/25/25 23/23/23
f 29/29/29 28/28/28 27/27/27
f 30/30/30 29/29/29 27/27/27
f 33/33/33 32/32/32 31/31/31
f 34/34/34 33/33/33 31/31/31
f 37/37/37 36/36/36 35/35/35
f 38/38/38 37/37/37 35/35/35
f 41/41/41 40/40/40 39/39/39
f 42/42/42 41/41/41 39/39/39
f 45/45/45 44/44/44 43/43/43
f 46/46/46 45/45/45 43/43/43
f 49/49/49 48/48/48 47/47/47
f 50/50/50 49/49/49 47/47/47
