g wall_CS_part
v -0.5 0.30365834 -0.077605665
v -0.15863453 0.30365825 -0.077605724
v 0.06042 0.30365822 0.1581657
v -0.5 0.30365834 0.1581656
v -0.077605575 0.3036583 -0.15899947
v -0.07760566 0.3036583 -0.5
v 0.15816565 0.30365834 -0.5
v 0.15816565 0.30365825 0.060420018
v -0.15863453 0.30365825 -0.077605724
v -0.077605575 0.3036583 -0.15899947
v 0.15816565 0.30365825 0.060420018
v 0.06042 0.30365822 0.1581657
vt 0.0063014124 0.64299494
vt 0.0063014124 0.6631381
vt 0.054750852 0.6743287
vt 0.054751102 0.6429949
vt 0.0063014124 0.6631381
vt 0.0063014124 0.64299494
vt 0.054751102 0.6429949
vt 0.054750852 0.6743287
vt 0.0063014124 0.6631381
vt 0.0063014124 0.6631381
vt 0.054750852 0.6743287
vt 0.054750852 0.6743287
vn 2.1134802E-07 1 0
vn 2.11348E-07 1 0
vn 2.1134801E-07 1 0
vn 2.1134802E-07 1 0
vn -0 1 1.05716445E-07
vn -0 1 1.05716445E-07
vn -0 1 1.05716445E-07
vn -0 1 1.05716445E-07
vn -0 1 2.6635018E-07
vn -0 1 2.6635018E-07
vn -0 1 2.6635018E-07
vn -0 1 2.6635018E-07
g wall_CS_part_0
f 3/3/3 2/2/2 1/1/1
f 4/4/4 3/3/3 1/1/1
f 7/7/7 6/6/6 5/5/5
f 8/8/8 7/7/7 5/5/5
f 11/11/11 10/10/10 9/9/9
f 12/12/12 11/11/11 9/9/9
