g wall_forest_CS
v 0.04319324 -1.0069999 -0.5037383
v -0.43891498 2.1933046E-07 -0.5037381
v 0.503499 -1.0069999 -0.043195866
v 0.5034994 6.301169E-08 0.438675
v 0.5034996 -1.1694884E-07 0.50326246
v -0.50350016 8.488245E-08 -0.50374293
v -0.19369514 -0.25174993 -0.50373816
v 0.50349927 -0.25174987 0.19345582
v -0.50350046 -1.1694893E-07 0.5032629
v 0.04457215 -1.0069999 -0.3143556
v -0.17545594 -0.2237766 -0.22439843
v -0.42277136 -0.019467274 0.0945584
v 0.013837645 -0.019467305 0.42586115
v 0.26743206 -1.007 -0.03660299
v 0.20290706 -0.22377664 0.18163107
v -0.32726407 -0.05816649 -0.5037381
v 0.5034993 -0.05816655 0.32702723
v -0.30329758 -0.066672705 -0.10929522
v 0.13445061 -0.06667275 0.31064373
v -0.31347045 -0.019467322 0.32052344
v 0.100254394 -1.007 -0.108194396
v -0.18856324 -0.06667274 0.18812716
v -0.073202595 -0.22377665 0.0779939
v -0.42277136 -0.019467274 0.0945584
v -0.30329758 -0.066672705 -0.10929522
v 0.013837645 -0.019467305 0.42586115
v 0.5034994 6.301169E-08 0.438675
v 0.26743206 -1.007 -0.03660299
v 0.20290706 -0.22377664 0.18163107
v -0.42277136 -0.019467274 0.0945584
v -0.50350046 -1.1694893E-07 0.5032629
v -0.43891498 2.1933046E-07 -0.5037381
v 0.013837645 -0.019467305 0.42586115
v -0.50350046 -1.1694893E-07 0.5032629
v -0.31347045 -0.019467322 0.32052344
v -0.17545594 -0.2237766 -0.22439843
v -0.30329758 -0.066672705 -0.10929522
v -0.32726407 -0.05816649 -0.5037381
v -0.19369514 -0.25174993 -0.50373816
v -0.17545594 -0.2237766 -0.22439843
v -0.18856324 -0.06667274 0.18812716
v -0.30329758 -0.066672705 -0.10929522
v 0.5034993 -0.05816655 0.32702723
v 0.13445061 -0.06667275 0.31064373
v 0.20290706 -0.22377664 0.18163107
v 0.50349927 -0.25174987 0.19345582
v -0.31347045 -0.019467322 0.32052344
v -0.50350046 -1.1694893E-07 0.5032629
v -0.42277136 -0.019467274 0.0945584
v -0.17545594 -0.2237766 -0.22439843
v 0.100254394 -1.007 -0.108194396
v -0.073202595 -0.22377665 0.0779939
v 0.100254394 -1.007 -0.108194396
v -0.17545594 -0.2237766 -0.22439843
v 0.04457215 -1.0069999 -0.3143556
v -0.31347045 -0.019467322 0.32052344
v -0.18856324 -0.06667274 0.18812716
v 0.13445061 -0.06667275 0.31064373
v 0.013837645 -0.019467305 0.42586115
v -0.18856324 -0.06667274 0.18812716
v -0.073202595 -0.22377665 0.0779939
v 0.20290706 -0.22377664 0.18163107
v 0.13445061 -0.06667275 0.31064373
v -0.073202595 -0.22377665 0.0779939
vt 0.12563522 0.9384103
vt 0.12563522 0.9964767
vt 0.18674666 0.9384103
vt 0.18674666 0.9964767
vt 0.18674666 0.9993096
vt 0.12563522 0.9993096
vt 0.12563522 0.9730844
vt 0.18674666 0.9730844
vt 0.15551603 0.9993096
vt 0.13954102 0.9384103
vt 0.13954102 0.9730844
vt 0.13954102 0.9964767
vt 0.17189384 0.9964767
vt 0.17189384 0.9384103
vt 0.17189384 0.9730844
vt 0.12563522 0.9904359
vt 0.18674666 0.9904359
vt 0.13954102 0.9904359
vt 0.17189384 0.9904359
vt 0.15551603 0.9964767
vt 0.15551603 0.9384103
vt 0.15369555 0.9904359
vt 0.1536923 0.9730844
vt 0.13954102 0.9964767
vt 0.13954102 0.9904359
vt 0.17189384 0.9964767
vt 0.18674666 0.9964767
vt 0.17189384 0.9384103
vt 0.17189384 0.9730844
vt 0.13954102 0.9964767
vt 0.15551603 0.9993096
vt 0.12563522 0.9964767
vt 0.17189384 0.9964767
vt 0.15551603 0.9993096
vt 0.15551603 0.9964767
vt 0.13954102 0.9730844
vt 0.13954102 0.9904359
vt 0.12563522 0.9904359
vt 0.12563522 0.9730844
vt 0.13954102 0.9730844
vt 0.15369555 0.9904359
vt 0.13954102 0.9904359
vt 0.18674666 0.9904359
vt 0.17189384 0.9904359
vt 0.17189384 0.9730844
vt 0.18674666 0.9730844
vt 0.15551603 0.9964767
vt 0.15551603 0.9993096
vt 0.13954102 0.9964767
vt 0.13954102 0.9730844
vt 0.15551603 0.9384103
vt 0.1536923 0.9730844
vt 0.15551603 0.9384103
vt 0.13954102 0.9730844
vt 0.13954102 0.9384103
vt 0.15551603 0.9964767
vt 0.15369555 0.9904359
vt 0.17189384 0.9904359
vt 0.17189384 0.9964767
vt 0.15369555 0.9904359
vt 0.1536923 0.9730844
vt 0.17189384 0.9730844
vt 0.17189384 0.9904359
vt 0.1536923 0.9730844
vn 0.95613116 0.2873072 -0.057164777
vn 0.42104757 0.90699834 0.008545881
vn 0.024167031 0.28438833 -0.95840454
vn -0.011295376 0.9843066 -0.17610514
vn -0.011295376 0.9843066 -0.17610516
vn 0.1613007 0.98685104 0.010345581
vn 0.95613116 0.2873072 -0.057164777
vn 0.02416703 0.28438836 -0.95840454
vn -0.011295375 0.9843066 -0.17610514
vn 0.95613116 0.28730723 -0.057164777
vn 0.95613116 0.2873072 -0.057164777
vn 0.4210475 0.90699834 0.008545881
vn -0.011295375 0.9843066 -0.17610513
vn 0.02416703 0.28438833 -0.95840454
vn 0.02416703 0.28438833 -0.95840454
vn 0.42104757 0.90699834 0.008545881
vn -0.014899631 0.90379477 -0.4277069
vn 0.4210476 0.90699834 0.008545881
vn -0.014899632 0.90379465 -0.42770687
vn 0.2350501 0.9667618 -0.100612715
vn 0.37822548 0.27725595 -0.8832184
vn 0.23505014 0.9667618 -0.10061272
vn 0.67440546 0.6968897 -0.24397133
vn 0.23505014 0.9667618 -0.10061272
vn 0.23505011 0.9667618 -0.100612715
vn -0.014899632 0.90379465 -0.42770693
vn -0.014899633 0.90379477 -0.4277069
vn 0.37822548 0.2772559 -0.8832184
vn 0.37822554 0.27725592 -0.8832184
vn 0.16130069 0.98685104 0.01034558
vn 0.16130069 0.98685104 0.01034558
vn 0.1613007 0.98685104 0.010345581
vn 0.025597788 0.9965031 -0.07953828
vn 0.025597788 0.9965031 -0.07953828
vn 0.025597788 0.9965031 -0.07953827
vn 0.7892778 0.61036175 -0.067075044
vn 0.7892778 0.6103617 -0.06707504
vn 0.7892778 0.61036175 -0.067075044
vn 0.7892778 0.6103617 -0.06707504
vn 0.67440534 0.69688976 -0.24397133
vn 0.67440546 0.6968897 -0.24397133
vn 0.6744054 0.6968897 -0.2439713
vn 0.051059507 0.6049553 -0.7946207
vn 0.0510595 0.6049552 -0.7946207
vn 0.051059507 0.60495526 -0.7946207
vn 0.051059507 0.60495526 -0.7946207
vn 0.06970988 0.99699736 -0.03371896
vn 0.06970988 0.99699736 -0.03371895
vn 0.06970988 0.99699736 -0.033718955
vn 0.9108021 0.27492592 -0.3079858
vn 0.9108021 0.2749259 -0.30798584
vn 0.9108021 0.2749259 -0.3079858
vn 0.9243975 0.28836367 -0.24967115
vn 0.9243975 0.28836367 -0.24967115
vn 0.9243975 0.28836364 -0.24967112
vn 0.094969094 0.95786816 -0.27105257
vn 0.094969094 0.95786816 -0.27105257
vn 0.094969094 0.95786816 -0.27105257
vn 0.0949691 0.95786816 -0.2710526
vn 0.26006836 0.67652446 -0.6889696
vn 0.26006836 0.67652446 -0.68896955
vn 0.26006836 0.67652446 -0.68896955
vn 0.2600683 0.67652446 -0.68896955
vn 0.3365531 0.28768545 -0.8966433
g wall_forest_CS_0
f 16/16/16 2/2/2 12/12/12
f 18/18/18 16/16/16 12/12/12
f 13/13/13 9/9/9 5/5/5
f 4/4/4 13/13/13 5/5/5
f 15/15/15 8/8/8 3/3/3
f 14/14/14 15/15/15 3/3/3
f 11/11/11 10/10/10 1/1/1
f 7/7/7 11/11/11 1/1/1
f 25/25/25 24/24/24 20/20/20
f 22/22/22 25/25/25 20/20/20
f 17/17/17 19/19/19 26/26/26
f 27/27/27 17/17/17 26/26/26
f 21/21/21 29/29/29 28/28/28
f 6/6/6 31/31/31 30/30/30
f 32/32/32 6/6/6 30/30/30
f 35/35/35 34/34/34 33/33/33
f 38/38/38 37/37/37 36/36/36
f 39/39/39 38/38/38 36/36/36
f 41/41/41 23/23/23 40/40/40
f 42/42/42 41/41/41 40/40/40
f 45/45/45 44/44/44 43/43/43
f 46/46/46 45/45/45 43/43/43
f 49/49/49 48/48/48 47/47/47
f 52/52/52 51/51/51 50/50/50
f 55/55/55 54/54/54 53/53/53
f 58/58/58 57/57/57 56/56/56
f 59/59/59 58/58/58 56/56/56
f 62/62/62 61/61/61 60/60/60
f 63/63/63 62/62/62 60/60/60
f 29/29/29 21/21/21 64/64/64
