g wall_boss_C
v -0.48239672 0.42080957 0.87142754
v -0.47852722 0.42080963 -0.3820671
v 0.28223243 3.8083925 0.35792542
v 0.2822318 3.8083932 0.8714271
v -0.3670009 0.4208064 -0.48990566
v 0.89819676 0.4207987 -0.4899058
v 0.89819676 3.8083827 0.2734994
v 0.36324555 3.8083882 0.27349815
v -0.47852722 0.42080963 -0.3820671
v -0.3670009 0.4208064 -0.48990566
v 0.36324555 3.8083882 0.27349815
v 0.28223243 3.8083925 0.35792542
v -0.8185587 0.19694468 0.40802413
v -0.65646714 0.1969447 -0.5545493
v -0.65646714 0.19694464 0.40802413
v -0.8185587 0.1969447 -0.71705574
v -0.5446257 0.19694483 -0.656468
v -0.7081 0.19694486 -0.81855947
v -0.5034992 0.4208064 0.40802413
v -0.11940977 0.42080647 -0.017813647
v -0.11940969 0.42080656 0.40802413
v -0.5034994 0.4208064 -0.40110087
v -0.009746016 0.4208064 -0.11941027
v -0.39326963 0.42080647 -0.5034999
v -0.65646714 0.19694464 0.40802413
v -0.5502827 0.38751498 -0.44852275
v -0.55028254 0.38751507 0.40802413
v -0.65646714 0.1969447 -0.5545493
v -0.4393864 0.38751507 -0.5502831
v -0.5446257 0.19694483 -0.656468
v -0.86756605 0.16365325 -0.7651999
v -0.86756605 0.16365321 0.40802413
v -0.96875733 5.7621E-08 0.40802413
v -0.96875745 1.15242E-07 -0.86558646
v -0.7593013 0.16365336 -0.86756676
v -0.8650225 1.9207E-07 -0.96875817
v -0.55028254 0.38751507 0.40802413
v -0.5034994 0.4208064 -0.40110087
v -0.5034992 0.4208064 0.40802413
v -0.5502827 0.38751498 -0.44852275
v -0.39326963 0.42080647 -0.5034999
v -0.4393864 0.38751507 -0.5502831
v -0.8185587 0.1969447 -0.71705574
v -0.8185587 0.19694468 0.40802413
v -0.86756605 0.16365321 0.40802413
v -0.86756605 0.16365325 -0.7651999
v -0.7081 0.19694486 -0.81855947
v -0.7593013 0.16365336 -0.86756676
v -0.7081 0.19694486 -0.81855947
v 0.4181527 0.19694477 -0.81855935
v 0.4181527 0.19694476 -0.65646785
v -0.5446257 0.19694483 -0.656468
v -0.39326963 0.42080647 -0.5034999
v 0.4181527 0.42080647 -0.50349975
v 0.4181527 0.4208064 -0.11941027
v -0.009746016 0.4208064 -0.11941027
v -0.5446257 0.19694483 -0.656468
v 0.4181527 0.19694476 -0.65646785
v 0.4181527 0.38751498 -0.550283
v -0.4393864 0.38751507 -0.5502831
v 0.41815254 0.16365328 -0.8675667
v -0.7593013 0.16365336 -0.86756676
v -0.8650225 1.9207E-07 -0.96875817
v 0.4181527 1.9207E-07 -0.9687581
v -0.4393864 0.38751507 -0.5502831
v 0.4181527 0.38751498 -0.550283
v 0.4181527 0.42080647 -0.50349975
v -0.39326963 0.42080647 -0.5034999
v 0.4181527 0.19694477 -0.81855935
v -0.7081 0.19694486 -0.81855947
v -0.7593013 0.16365336 -0.86756676
v 0.41815254 0.16365328 -0.8675667
v 1.3331202 3.918044 1.1684327
v 0.75944436 3.9180431 0.78635305
v 0.75944436 3.9180431 -0.5035
v 1.3331202 3.918044 -0.50350016
v 1.3084898 3.07312E-07 1.1157895
v 1.3084902 2.9520233 1.1157895
v 1.3084902 2.952024 -0.50350016
v 1.3084898 3.0830494E-17 -0.50350016
v 1.3331202 3.918044 1.1684327
v 1.3331202 3.918044 -0.50350016
v 1.3890566 3.8594885 -0.50350016
v 1.3890566 3.8594885 1.215722
v 0.75944436 3.9180431 -0.5035
v 0.75944436 3.9180431 0.78635305
v 0.70208883 3.8594885 0.78635305
v 0.70208883 3.8594885 -0.5035
v 0.55817103 3.2608883 0.78635305
v 0.558171 3.2608883 -0.5035
v 0.5476827 3.3451836 -0.5035
v 0.54768276 3.3451836 0.78635305
v 0.64955264 3.4756603 -0.5035
v 0.6495527 3.4756603 0.78635305
v 0.6259725 3.5910232 -0.5035
v 0.62597257 3.5910232 0.78635305
v 0.70208883 3.8594885 -0.5035
v 0.70208883 3.8594885 0.78635305
v 1.3890541 2.9520235 -0.5035001
v 1.3890541 2.9520235 1.2157212
v 1.3890566 3.8594885 1.215722
v 1.3890566 3.8594885 -0.50350016
v 0.6593987 3.2564301 0.78635305
v -0.034913946 0.42949036 0.78635305
v -0.034913946 0.42949066 -0.50350004
v 0.6593986 3.2564301 -0.5035006
v -0.5035 3.918044 1.3331207
v -0.5035 3.9180431 0.75944436
v 0.6401137 3.9180431 0.75944436
v 1.1639209 3.918044 1.3331207
v -0.5035 2.922364E-07 1.3084886
v -0.5035 2.9520233 1.3084888
v 1.1154369 2.9520235 1.3084888
v 1.1154369 2.922364E-07 1.3084886
v -0.5035 3.918044 1.3331207
v 1.1639209 3.918044 1.3331207
v 1.217467 3.8594885 1.3890548
v -0.5035 3.8594885 1.3890545
v 0.6401137 3.9180431 0.75944436
v -0.5035 3.9180431 0.75944436
v -0.5035 3.8594885 0.7020907
v 0.6401137 3.8594885 0.7020907
v -0.5035 3.2608883 0.5581697
v 0.6401137 3.2608883 0.5581697
v 0.6401137 3.3451836 0.5476833
v -0.5035 3.3451836 0.5476833
v 0.6401137 3.4756603 0.6495502
v -0.5035 3.4756603 0.6495502
v 0.6401137 3.5910232 0.62597567
v -0.5035 3.5910232 0.62597555
v 0.6401137 3.8594885 0.7020907
v -0.5035 3.8594885 0.7020907
v 1.217467 2.9520235 1.3890541
v -0.5035 2.9520235 1.3890541
v -0.5035 3.8594885 1.3890545
v 1.217467 3.8594885 1.3890548
v -0.5035 3.256432 0.61947817
v -0.5035 0.42949188 -0.034915254
v 0.5035 0.42949194 -0.034915272
v 0.5035 3.256432 0.61947817
v 1.1154369 2.922364E-07 1.3084886
v 1.1154369 2.9520235 1.3084888
v 1.3084902 2.9520233 1.1157895
v 1.3084898 3.07312E-07 1.1157895
v 1.1639209 3.918044 1.3331207
v 1.3331202 3.918044 1.1684327
v 1.3890566 3.8594885 1.215722
v 1.217467 3.8594885 1.3890548
v 1.3890541 2.9520235 1.2157212
v 1.217467 2.9520235 1.3890541
v 1.217467 3.8594885 1.3890548
v 1.3890566 3.8594885 1.215722
v 0.38910156 4.3601 0.3772648
v 1.4576411 4.3600955 0.37726378
v 1.5002317 4.3600955 0.4161541
v 0.34651196 4.3601007 0.41615513
v 1.5044398 4.3600955 1.3996384
v 0.34230554 4.3601007 1.3996384
v 0.38489568 4.3601 1.4458046
v 1.4618491 4.3600955 1.4458046
v 1.6378633 3.8083868 0.33502725
v 1.6420707 3.8083868 1.4807651
v 1.5898325 4.314641 1.4319366
v 1.5856246 4.314641 0.38385537
v 1.5432048 3.8083868 1.5783187
v 0.3035399 3.8083935 1.5783191
v 0.34952477 4.3146453 1.5237795
v 1.497221 4.3146405 1.5237795
v 0.20467363 3.8083954 1.4807656
v 0.20887952 3.8083954 0.33502847
v 0.26111925 4.314648 0.38385662
v 0.25691283 4.314648 1.4319366
v 0.30774578 3.8083935 0.24475104
v 1.5389973 3.8083868 0.24474974
v 1.4930127 4.3146405 0.29928955
v 0.35373092 4.3146453 0.29929048
v 1.6420707 3.8083868 1.4807651
v 1.5432048 3.8083868 1.5783187
v 1.497221 4.3146405 1.5237795
v 1.5898325 4.314641 1.4319366
v 1.5856246 4.314641 0.38385537
v 1.4930127 4.3146405 0.29928955
v 1.5389973 3.8083868 0.24474974
v 1.6378633 3.8083868 0.33502725
v 0.3035399 3.8083935 1.5783191
v 0.20467363 3.8083954 1.4807656
v 0.25691283 4.314648 1.4319366
v 0.34952477 4.3146453 1.5237795
v 0.20887952 3.8083954 0.33502847
v 0.30774578 3.8083935 0.24475104
v 0.35373092 4.3146453 0.29929048
v 0.26111925 4.314648 0.38385662
v 1.5002317 4.3600955 0.4161541
v 1.5856246 4.314641 0.38385537
v 1.5898325 4.314641 1.4319366
v 1.5044398 4.3600955 1.3996384
v 1.4618491 4.3600955 1.4458046
v 1.497221 4.3146405 1.5237795
v 0.34952477 4.3146453 1.5237795
v 0.38489568 4.3601 1.4458046
v 0.34230554 4.3601007 1.3996384
v 0.25691283 4.314648 1.4319366
v 0.26111925 4.314648 0.38385662
v 0.34651196 4.3601007 0.41615513
v 0.38910156 4.3601 0.3772648
v 0.35373092 4.3146453 0.29929048
v 1.4930127 4.3146405 0.29928955
v 1.4576411 4.3600955 0.37726378
v 1.5856246 4.314641 0.38385537
v 1.5002317 4.3600955 0.4161541
v 1.4576411 4.3600955 0.37726378
v 1.4930127 4.3146405 0.29928955
v 1.497221 4.3146405 1.5237795
v 1.4618491 4.3600955 1.4458046
v 1.5044398 4.3600955 1.3996384
v 1.5898325 4.314641 1.4319366
v 0.25691283 4.314648 1.4319366
v 0.34230554 4.3601007 1.3996384
v 0.38489568 4.3601 1.4458046
v 0.34952477 4.3146453 1.5237795
v 0.35373092 4.3146453 0.29929048
v 0.38910156 4.3601 0.3772648
v 0.34651196 4.3601007 0.41615513
v 0.26111925 4.314648 0.38385662
vt 0.001815662 0.74528617
vt 0.007412861 0.74528617
vt 0.007412861 0.81071454
vt 0.001815662 0.81071454
vt 0.013743444 0.74528617
vt 0.018350463 0.74528617
vt 0.018350463 0.81071454
vt 0.013743444 0.81071454
vt 0.007412861 0.74528617
vt 0.013743444 0.74528617
vt 0.013743444 0.81071454
vt 0.007412861 0.81071454
vt 0.0065948972 0.85575897
vt 0.023399523 0.87089825
vt 0.0065948972 0.87089825
vt 0.023399523 0.85575897
vt 0.029099965 0.87089825
vt 0.029099965 0.85575897
vt 0.03563082 0.7923762
vt 0.04882883 0.8097745
vt 0.03563082 0.8097745
vt 0.04882883 0.7923762
vt 0.054710478 0.8097745
vt 0.054710478 0.7923762
vt 0.03563082 0.77612686
vt 0.04882883 0.78824896
vt 0.03563082 0.78824896
vt 0.04882883 0.77612686
vt 0.054710478 0.78824896
vt 0.054710478 0.77612686
vt 0.023399523 0.85114807
vt 0.0065948972 0.85114807
vt 0.0065948972 0.83869225
vt 0.023399523 0.83869225
vt 0.029099965 0.85114807
vt 0.029099965 0.83869225
vt 0.03563082 0.78824896
vt 0.04882883 0.7923762
vt 0.03563082 0.7923762
vt 0.04882883 0.78824896
vt 0.054710478 0.7923762
vt 0.054710478 0.78824896
vt 0.023399523 0.85575897
vt 0.0065948972 0.85575897
vt 0.0065948972 0.85114807
vt 0.023399523 0.85114807
vt 0.029099965 0.85575897
vt 0.029099965 0.85114807
vt 0.023399523 0.85575897
vt 0.0065948972 0.85575897
vt 0.0065948972 0.87089825
vt 0.023399523 0.87089825
vt 0.04882883 0.7923762
vt 0.03563082 0.7923762
vt 0.03563082 0.8097745
vt 0.04882883 0.8097745
vt 0.04882883 0.77612686
vt 0.03563082 0.77612686
vt 0.03563082 0.78824896
vt 0.04882883 0.78824896
vt 0.0065948972 0.85114807
vt 0.023399523 0.85114807
vt 0.023399523 0.83869225
vt 0.0065948972 0.83869225
vt 0.04882883 0.78824896
vt 0.03563082 0.78824896
vt 0.03563082 0.7923762
vt 0.04882883 0.7923762
vt 0.0065948972 0.85575897
vt 0.023399523 0.85575897
vt 0.023399523 0.85114807
vt 0.0065948972 0.85114807
vt 0.03199425 0.8897814
vt 0.03199425 0.87028027
vt 0.04622814 0.87028027
vt 0.04622814 0.8897814
vt 0.03199425 0.9089477
vt 0.03199425 0.90949535
vt 0.04622814 0.90949535
vt 0.04622814 0.9089477
vt 0.03199425 0.8897814
vt 0.04622814 0.8897814
vt 0.04622814 0.892366
vt 0.03199425 0.892366
vt 0.04622814 0.87028027
vt 0.03199425 0.87028027
vt 0.03199425 0.86807734
vt 0.04622814 0.86807734
vt 0.03199425 0.8386551
vt 0.04622814 0.8386551
vt 0.04622814 0.84192693
vt 0.03199425 0.84192693
vt 0.04622814 0.85282284
vt 0.03199425 0.85282284
vt 0.04622814 0.85522854
vt 0.03199425 0.85522854
vt 0.04622814 0.86807734
vt 0.03199425 0.86807734
vt 0.04622814 0.9085972
vt 0.03199425 0.9085972
vt 0.03199425 0.892366
vt 0.04622814 0.892366
vt 0.12813945 0.8386899
vt 0.12813944 0.7706809
vt 0.13116358 0.7706809
vt 0.13116358 0.8386899
vt 0.03199425 0.8897814
vt 0.03199425 0.87028027
vt 0.04622814 0.87028027
vt 0.04622814 0.8897814
vt 0.03199425 0.9089477
vt 0.03199425 0.90949535
vt 0.04622814 0.90949535
vt 0.04622814 0.9089477
vt 0.03199425 0.8897814
vt 0.04622814 0.8897814
vt 0.04622814 0.892366
vt 0.03199425 0.892366
vt 0.04622814 0.87028027
vt 0.03199425 0.87028027
vt 0.03199425 0.86807734
vt 0.04622814 0.86807734
vt 0.03199425 0.8386551
vt 0.04622814 0.8386551
vt 0.04622814 0.84192693
vt 0.03199425 0.84192693
vt 0.04622814 0.85282284
vt 0.03199425 0.85282284
vt 0.04622814 0.85522854
vt 0.03199425 0.85522854
vt 0.04622814 0.86807734
vt 0.03199425 0.86807734
vt 0.04622814 0.9085972
vt 0.03199425 0.9085972
vt 0.03199425 0.892366
vt 0.04622814 0.892366
vt 0.12813945 0.8386899
vt 0.12813944 0.7706809
vt 0.13116358 0.7706809
vt 0.13116358 0.8386899
vt 0.03199425 0.9089477
vt 0.03199425 0.90949535
vt 0.04622814 0.90949535
vt 0.04622814 0.9089477
vt 0.03199425 0.8897814
vt 0.04622814 0.8897814
vt 0.04622814 0.892366
vt 0.03199425 0.892366
vt 0.04622814 0.9085972
vt 0.03199425 0.9085972
vt 0.03199425 0.892366
vt 0.04622814 0.892366
vt 0.048861668 0.8389858
vt 0.048861668 0.8566846
vt 0.049322426 0.85726833
vt 0.049322464 0.8384019
vt 0.065689944 0.85726833
vt 0.065689944 0.8384019
vt 0.066150784 0.8389858
vt 0.066150784 0.8566846
vt 0.07612532 0.86022806
vt 0.08519498 0.86022806
vt 0.08519498 0.8777448
vt 0.07612532 0.8777448
vt 0.08519498 0.86022806
vt 0.07612532 0.86022806
vt 0.07612532 0.8777448
vt 0.08519498 0.8777448
vt 0.07293329 0.86022806
vt 0.05198836 0.86022806
vt 0.05198836 0.8777448
vt 0.07293329 0.8777448
vt 0.05198836 0.86022806
vt 0.07293329 0.86022806
vt 0.07293329 0.8777448
vt 0.05198836 0.8777448
vt 0.08519498 0.86022806
vt 0.08802805 0.86022806
vt 0.08802805 0.8777448
vt 0.08519498 0.8777448
vt 0.07293329 0.8777448
vt 0.07612532 0.8777448
vt 0.07612532 0.86022806
vt 0.07293329 0.86022806
vt 0.07612532 0.86022806
vt 0.07293329 0.86022806
vt 0.07293329 0.8777448
vt 0.07612532 0.8777448
vt 0.05198836 0.86022806
vt 0.04931353 0.86022806
vt 0.04931353 0.8777448
vt 0.05198836 0.8777448
vt 0.07612532 0.8811947
vt 0.07612532 0.8777448
vt 0.08519498 0.8777448
vt 0.08519498 0.8811947
vt 0.08519498 0.8811947
vt 0.08519498 0.8777448
vt 0.07612532 0.8777448
vt 0.07612532 0.8811947
vt 0.07293329 0.8811947
vt 0.07293329 0.8777448
vt 0.05198836 0.8777448
vt 0.05198836 0.8811947
vt 0.05198836 0.8811947
vt 0.05198836 0.8777448
vt 0.07293329 0.8777448
vt 0.07293329 0.8811947
vt 0.07293329 0.8777448
vt 0.07293329 0.8811947
vt 0.07612532 0.8811947
vt 0.07612532 0.8777448
vt 0.08802805 0.8777448
vt 0.08802805 0.8811947
vt 0.08519498 0.8811947
vt 0.08519498 0.8777448
vt 0.07293329 0.8777448
vt 0.07293329 0.8811947
vt 0.07612532 0.8811947
vt 0.07612532 0.8777448
vt 0.04931353 0.8777448
vt 0.04931353 0.8811947
vt 0.05198836 0.8811947
vt 0.05198836 0.8777448
vn -0.9755274 0.21986754 -0.0021366882
vn -0.9755274 0.21986751 -0.0021366882
vn -0.9755274 0.21986751 -0.0021366882
vn -0.9755274 0.21986751 -0.0021366882
vn 2.1940837E-06 0.2198404 -0.9755358
vn 2.1940837E-06 0.21984042 -0.9755358
vn 2.194084E-06 0.21984042 -0.9755358
vn 2.194084E-06 0.21984042 -0.9755358
vn -0.67442983 0.2982916 -0.675401
vn -0.67442983 0.2982916 -0.675401
vn -0.67442983 0.29829156 -0.67540103
vn -0.67442983 0.2982916 -0.675401
vn -0 1 0
vn -2.0398666E-07 1 3.1003043E-07
vn -0 1 0
vn -3.9421474E-07 1 4.8098474E-07
vn -2.0892548E-07 1 3.2711716E-07
vn -4.1268854E-07 1 5.0435926E-07
vn -2.6899906E-07 1 0
vn -1.5977493E-07 1 0
vn -2.6899903E-07 1 0
vn -0 1 0
vn -0 1 1.2115575E-07
vn -0 1 0
vn -0.8735493 0.4867358 0
vn -0.7683269 0.57917947 -0.27244264
vn -0.8735493 0.4867358 0
vn -0.7173486 0.5979692 -0.3575526
vn -0.24188772 0.5711363 -0.7844066
vn -0.3274282 0.591872 -0.7365313
vn -0.746234 0.6176529 -0.24827346
vn -0.85053897 0.525912 0
vn -0.85053897 0.525912 0
vn -0.6925945 0.6389286 -0.33478805
vn -0.23364094 0.61352533 -0.75432
vn -0.327655 0.6374784 -0.6973259
vn -0.5797923 0.8147642 0
vn -0.47722697 0.86754227 -0.14008857
vn -0.57979244 0.8147642 0
vn -0.41432405 0.8843809 -0.21495576
vn -0.12674706 0.86368877 -0.48782873
vn -0.19956248 0.8815981 -0.42773774
vn -0.4599464 0.87767786 -0.13465068
vn -0.5619229 0.8271896 0
vn -0.5619229 0.8271896 0
vn -0.400344 0.89335436 -0.20406552
vn -0.119315326 0.8732834 -0.47237703
vn -0.19536392 0.8918532 -0.4079594
vn -4.1268854E-07 1 5.0435926E-07
vn -0 1 0
vn -0 1 0
vn -2.0892548E-07 1 3.2711716E-07
vn -0 1 0
vn -0 1 2.000263E-07
vn -0 1 2.0002629E-07
vn -0 1 1.2115575E-07
vn -0.3274282 0.591872 -0.7365313
vn 1.5001149E-07 0.48673713 -0.87354845
vn 1.5001149E-07 0.48673713 -0.87354845
vn -0.24188772 0.5711363 -0.7844066
vn -0 0.5259123 -0.8505388
vn -0.23364094 0.61352533 -0.75432
vn -0.327655 0.6374784 -0.6973259
vn -0 0.5259123 -0.8505388
vn -0.19956248 0.8815981 -0.42773774
vn 1.17565456E-07 0.8147629 -0.5797943
vn 1.17565484E-07 0.8147629 -0.57979435
vn -0.12674706 0.86368877 -0.48782873
vn 1.11952254E-07 0.82718915 -0.56192344
vn -0.119315326 0.8732834 -0.47237703
vn -0.19536392 0.8918532 -0.4079594
vn 1.1195226E-07 0.82718915 -0.56192344
vn -1.6070678E-06 1 0
vn -1.6070677E-06 1 0
vn -1.6070677E-06 1 0
vn -1.6070678E-06 1 0
vn 0.9237039 0 0.38310707
vn 0.9237039 0 0.38310716
vn 1 -1.0410216E-07 0
vn 1 -1.0410217E-07 0
vn 0.6174504 0.7610641 0.19883749
vn 0.7230941 0.6907496 0
vn 0.7230941 0.6907496 0
vn 0.5712665 0.7759859 0.2673956
vn -0.71438384 0.69975406 0
vn -0.71438384 0.69975406 0
vn -0.71438384 0.69975406 0
vn -0.71438384 0.69975406 0
vn -0.9923482 -0.12347054 0
vn -0.9923482 -0.12347054 0
vn -0.96388984 0.26630116 0
vn -0.96388984 0.26630118 0
vn -0.9735213 0.22859631 0
vn -0.9735213 0.22859627 0
vn -0.99930346 0.037316736 0
vn -0.99930346 0.037316743 0
vn -0.96207863 0.2727722 0
vn -0.96207863 0.2727722 0
vn 1 -2.709191E-06 0
vn 0.9248442 -2.259324E-06 0.38034606
vn 0.9248443 -2.2593244E-06 0.3803459
vn 1 -2.709191E-06 0
vn -0.9711383 0.23851714 0
vn -0.9711383 0.23851712 0
vn -0.9711383 0.23851714 0
vn -0.9711383 0.23851712 0
vn -0 1 -1.6070665E-06
vn -0 1 -1.6070665E-06
vn -0 1 -1.6070667E-06
vn -0 1 -1.6070666E-06
vn -0 -1.0410218E-07 1
vn -0 -1.04102185E-07 1
vn 0.38225952 0 0.924055
vn 0.38225964 0 0.924055
vn -0 0.6907342 0.7231087
vn 0.18942511 0.75854963 0.62347454
vn 0.27358574 0.77698344 0.56696343
vn -0 0.6907342 0.7231087
vn -0 0.69974256 -0.7143951
vn -0 0.69974256 -0.7143951
vn -0 0.69974256 -0.7143951
vn -0 0.69974256 -0.7143951
vn -0 -0.1234492 -0.9923509
vn -0 -0.1234492 -0.9923509
vn -0 0.2663045 -0.96388894
vn -0 0.2663045 -0.96388894
vn -0 0.22861172 -0.97351766
vn -0 0.22861172 -0.97351766
vn -0 0.037337765 -0.99930274
vn -0 0.037337765 -0.99930274
vn -0 0.27276808 -0.9620798
vn -0 0.27276808 -0.9620798
vn 0.3850184 -1.1173859E-06 0.9229089
vn -0 -5.9263556E-07 1
vn -0 -5.9263556E-07 1
vn 0.38501835 -1.117386E-06 0.9229089
vn -0 0.22552127 -0.9742382
vn -0 0.22552127 -0.9742382
vn -0 0.22552127 -0.9742382
vn -0 0.22552127 -0.9742382
vn 0.38225964 0 0.924055
vn 0.38225952 0 0.924055
vn 0.9237039 0 0.38310716
vn 0.9237039 0 0.38310707
vn 0.18942511 0.75854963 0.62347454
vn 0.6174504 0.7610641 0.19883749
vn 0.5712665 0.7759859 0.2673956
vn 0.27358574 0.77698344 0.56696343
vn 0.9248442 -2.259324E-06 0.38034606
vn 0.3850184 -1.1173859E-06 0.9229089
vn 0.38501835 -1.117386E-06 0.9229089
vn 0.9248443 -2.2593244E-06 0.3803459
vn 4.7487047E-06 1 0
vn 4.748705E-06 1 0
vn 4.7487047E-06 1 0
vn 4.7487047E-06 1 0
vn 4.7487047E-06 1 0
vn 4.7487047E-06 1 0
vn 4.748705E-06 1 0
vn 4.748704E-06 1 0
vn 0.9947113 0.10264044 -0.003815686
vn 0.9947113 0.10264044 -0.003815686
vn 0.9947113 0.10264044 -0.0038156859
vn 0.9947113 0.10264044 -0.0038156859
vn 7.159958E-07 0.10711171 0.99424696
vn 7.159958E-07 0.107111715 0.99424696
vn 7.159957E-07 0.10711172 0.99424696
vn 7.159958E-07 0.10711172 0.99424696
vn -0.99471104 0.102642715 -0.0038142612
vn -0.99471104 0.10264271 -0.0038142612
vn -0.99471104 0.10264271 -0.003814261
vn -0.99471104 0.102642715 -0.003814261
vn -4.0700866E-07 0.107112244 -0.9942469
vn -4.0700868E-07 0.10711224 -0.9942469
vn -4.0700866E-07 0.10711224 -0.9942469
vn -4.0700866E-07 0.10711224 -0.9942469
vn 0.6963638 0.13942665 0.7040154
vn 0.69636375 0.13942663 0.7040154
vn 0.69636375 0.13942663 0.7040154
vn 0.6963638 0.13942663 0.7040154
vn 0.6677157 0.13942839 -0.7312424
vn 0.6677157 0.13942838 -0.73124236
vn 0.66771585 0.13942839 -0.73124236
vn 0.6677157 0.13942838 -0.73124236
vn -0.6963607 0.13942921 0.704018
vn -0.6963607 0.1394292 0.7040179
vn -0.69636077 0.13942921 0.704018
vn -0.69636077 0.13942921 0.704018
vn -0.66771424 0.13942952 -0.73124355
vn -0.66771424 0.13942951 -0.7312435
vn -0.66771424 0.13942952 -0.73124355
vn -0.66771424 0.13942952 -0.7312435
vn 0.46987656 0.88273 -0.0019465309
vn 0.46987656 0.88273 -0.0019465309
vn 0.46987656 0.88273 -0.0019465307
vn 0.46987656 0.88273 -0.0019465309
vn 3.5814471E-06 0.86392605 0.5036186
vn 3.5814467E-06 0.86392605 0.5036186
vn 3.5814471E-06 0.86392605 0.50361866
vn 3.5814471E-06 0.86392605 0.50361866
vn -0.469862 0.8827377 -0.001945725
vn -0.46986195 0.8827377 -0.001945725
vn -0.469862 0.8827377 -0.001945725
vn -0.469862 0.8827377 -0.0019457251
vn 3.169076E-06 0.8639244 -0.50362164
vn 3.1690759E-06 0.8639244 -0.5036216
vn 3.169076E-06 0.8639244 -0.50362164
vn 3.169076E-06 0.8639244 -0.50362164
vn 0.32865435 0.87317663 -0.35992903
vn 0.32865435 0.87317663 -0.35992903
vn 0.32865432 0.87317663 -0.359929
vn 0.32865432 0.87317663 -0.359929
vn 0.3472358 0.87390316 0.34017724
vn 0.34723586 0.87390316 0.3401772
vn 0.3472358 0.87390316 0.34017718
vn 0.34723583 0.87390316 0.34017724
vn -0.34721878 0.87390745 0.3401835
vn -0.34721875 0.87390745 0.3401835
vn -0.34721875 0.87390745 0.3401835
vn -0.34721878 0.87390745 0.3401835
vn -0.32863873 0.8731806 -0.35993353
vn -0.3286387 0.8731806 -0.35993347
vn -0.32863873 0.8731806 -0.35993353
vn -0.3286387 0.8731806 -0.3599335
g wall_boss_C_0
f 3/3/3 2/2/2 1/1/1
f 4/4/4 3/3/3 1/1/1
f 7/7/7 6/6/6 5/5/5
f 8/8/8 7/7/7 5/5/5
f 11/11/11 10/10/10 9/9/9
f 12/12/12 11/11/11 9/9/9
f 15/15/15 14/14/14 13/13/13
f 14/14/14 16/16/16 13/13/13
f 14/14/14 17/17/17 16/16/16
f 17/17/17 18/18/18 16/16/16
f 21/21/21 20/20/20 19/19/19
f 20/20/20 22/22/22 19/19/19
f 20/20/20 23/23/23 22/22/22
f 23/23/23 24/24/24 22/22/22
f 27/27/27 26/26/26 25/25/25
f 26/26/26 28/28/28 25/25/25
f 26/26/26 29/29/29 28/28/28
f 29/29/29 30/30/30 28/28/28
f 33/33/33 32/32/32 31/31/31
f 34/34/34 33/33/33 31/31/31
f 34/34/34 31/31/31 35/35/35
f 36/36/36 34/34/34 35/35/35
f 39/39/39 38/38/38 37/37/37
f 38/38/38 40/40/40 37/37/37
f 38/38/38 41/41/41 40/40/40
f 41/41/41 42/42/42 40/40/40
f 45/45/45 44/44/44 43/43/43
f 46/46/46 45/45/45 43/43/43
f 46/46/46 43/43/43 47/47/47
f 48/48/48 46/46/46 47/47/47
f 51/51/51 50/50/50 49/49/49
f 52/52/52 51/51/51 49/49/49
f 55/55/55 54/54/54 53/53/53
f 56/56/56 55/55/55 53/53/53
f 59/59/59 58/58/58 57/57/57
f 60/60/60 59/59/59 57/57/57
f 63/63/63 62/62/62 61/61/61
f 64/64/64 63/63/63 61/61/61
f 67/67/67 66/66/66 65/65/65
f 68/68/68 67/67/67 65/65/65
f 71/71/71 70/70/70 69/69/69
f 72/72/72 71/71/71 69/69/69
f 75/75/75 74/74/74 73/73/73
f 76/76/76 75/75/75 73/73/73
f 79/79/79 78/78/78 77/77/77
f 80/80/80 79/79/79 77/77/77
f 83/83/83 82/82/82 81/81/81
f 84/84/84 83/83/83 81/81/81
f 87/87/87 86/86/86 85/85/85
f 88/88/88 87/87/87 85/85/85
f 91/91/91 90/90/90 89/89/89
f 92/92/92 91/91/91 89/89/89
f 93/93/93 91/91/91 92/92/92
f 94/94/94 93/93/93 92/92/92
f 95/95/95 93/93/93 94/94/94
f 96/96/96 95/95/95 94/94/94
f 97/97/97 95/95/95 96/96/96
f 98/98/98 97/97/97 96/96/96
f 101/101/101 100/100/100 99/99/99
f 102/102/102 101/101/101 99/99/99
f 105/105/105 104/104/104 103/103/103
f 106/106/106 105/105/105 103/103/103
f 109/109/109 108/108/108 107/107/107
f 110/110/110 109/109/109 107/107/107
f 113/113/113 112/112/112 111/111/111
f 114/114/114 113/113/113 111/111/111
f 117/117/117 116/116/116 115/115/115
f 118/118/118 117/117/117 115/115/115
f 121/121/121 120/120/120 119/119/119
f 122/122/122 121/121/121 119/119/119
f 125/125/125 124/124/124 123/123/123
f 126/126/126 125/125/125 123/123/123
f 127/127/127 125/125/125 126/126/126
f 128/128/128 127/127/127 126/126/126
f 129/129/129 127/127/127 128/128/128
f 130/130/130 129/129/129 128/128/128
f 131/131/131 129/129/129 130/130/130
f 132/132/132 131/131/131 130/130/130
f 135/135/135 134/134/134 133/133/133
f 136/136/136 135/135/135 133/133/133
f 139/139/139 138/138/138 137/137/137
f 140/140/140 139/139/139 137/137/137
f 143/143/143 142/142/142 141/141/141
f 144/144/144 143/143/143 141/141/141
f 147/147/147 146/146/146 145/145/145
f 148/148/148 147/147/147 145/145/145
f 151/151/151 150/150/150 149/149/149
f 152/152/152 151/151/151 149/149/149
f 155/155/155 154/154/154 153/153/153
f 153/153/153 156/156/156 155/155/155
f 156/156/156 157/157/157 155/155/155
f 156/156/156 158/158/158 157/157/157
f 158/158/158 159/159/159 157/157/157
f 159/159/159 160/160/160 157/157/157
f 163/163/163 162/162/162 161/161/161
f 164/164/164 163/163/163 161/161/161
f 167/167/167 166/166/166 165/165/165
f 168/168/168 167/167/167 165/165/165
f 171/171/171 170/170/170 169/169/169
f 172/172/172 171/171/171 169/169/169
f 175/175/175 174/174/174 173/173/173
f 176/176/176 175/175/175 173/173/173
f 179/179/179 178/178/178 177/177/177
f 180/180/180 179/179/179 177/177/177
f 183/183/183 182/182/182 181/181/181
f 184/184/184 183/183/183 181/181/181
f 187/187/187 186/186/186 185/185/185
f 188/188/188 187/187/187 185/185/185
f 191/191/191 190/190/190 189/189/189
f 192/192/192 191/191/191 189/189/189
f 195/195/195 194/194/194 193/193/193
f 196/196/196 195/195/195 193/193/193
f 199/199/199 198/198/198 197/197/197
f 200/200/200 199/199/199 197/197/197
f 203/203/203 202/202/202 201/201/201
f 204/204/204 203/203/203 201/201/201
f 207/207/207 206/206/206 205/205/205
f 208/208/208 207/207/207 205/205/205
f 211/211/211 210/210/210 209/209/209
f 212/212/212 211/211/211 209/209/209
f 215/215/215 214/214/214 213/213/213
f 216/216/216 215/215/215 213/213/213
f 219/219/219 218/218/218 217/217/217
f 220/220/220 219/219/219 217/217/217
f 223/223/223 222/222/222 221/221/221
f 224/224/224 223/223/223 221/221/221
