g wall_desk_2
v -1.487282 0.13408297 0.4764175
v -1.487282 0.13408288 -0.4823905
v 0.48024085 0.13408281 -0.48239034
v 0.4802407 0.13408291 0.47641763
v 0.48024085 0.13408281 -0.48239034
v -1.487282 0.13408288 -0.4823905
v -1.5105001 -0.0020534974 -0.50350004
v 0.50350314 -0.0020535842 -0.5034999
v -1.5105001 -0.0020534974 -0.50350004
v -1.487282 0.13408288 -0.4823905
v -1.487282 0.13408297 0.4764175
v -1.5105001 -0.0020535355 0.5035
v 0.50350296 -0.0020535353 0.5035
v 0.4802407 0.13408291 0.47641763
v 0.48024085 0.13408281 -0.48239034
v 0.50350314 -0.0020535842 -0.5034999
v -1.3932037 0.16205615 -0.48083213
v 0.38615113 0.16205609 -0.48083198
v 0.38615113 0.48505244 -0.480832
v 0.36317527 0.50669813 -0.48083204
v -1.3702282 0.50669825 -0.48083213
v -1.3932037 0.48505256 -0.48083213
v -1.3965826 0.52834046 -0.46294472
v -1.3702282 0.50669825 -0.48083213
v 0.36317527 0.50669813 -0.48083204
v 0.38952973 0.52834034 -0.4629446
v -1.3932037 0.16205615 -0.48083213
v -1.3932037 0.48505256 -0.48083213
v -1.4195087 0.50669473 -0.46294472
v -1.4195087 0.15170822 -0.46294472
v -1.4195087 0.50669473 -0.46294472
v -1.3932037 0.48505256 -0.48083213
v -1.3702282 0.50669825 -0.48083213
v -1.3965826 0.52834046 -0.46294472
v 0.4125056 0.5066946 -0.4629446
v 0.38615113 0.48505244 -0.480832
v 0.38615113 0.16205609 -0.48083198
v 0.4125056 0.15170817 -0.46294457
v 0.36317527 0.50669813 -0.48083204
v 0.38615113 0.48505244 -0.480832
v 0.4125056 0.5066946 -0.4629446
v 0.38952973 0.52834034 -0.4629446
v 0.46848124 0.55398196 -0.46348912
v -1.4755173 0.5539821 -0.46348926
v -1.4755176 0.13322446 -0.46348926
v 0.46848124 0.1332244 -0.46348912
v -1.4755176 0.13322446 -0.46348926
v -1.4755173 0.5539821 -0.46348926
v -1.4755173 0.5539821 0.4635659
v -1.4755176 0.1332245 0.46356604
v 0.4684811 0.13322444 0.46356615
v 0.4684811 0.5539821 0.46356604
v 0.46848124 0.55398196 -0.46348912
v 0.46848124 0.1332244 -0.46348912
v -1.1834782 0.35038984 -0.49905297
v -1.1834782 0.29745284 -0.49905297
v -1.1754569 0.29282144 -0.4797387
v -1.1754569 0.3550212 -0.4797387
v -1.229323 0.37685832 -0.49905297
v -1.1834782 0.35038984 -0.49905297
v -1.1754569 0.3550212 -0.4797387
v -1.229323 0.38612095 -0.4797387
v -1.275168 0.35038984 -0.49905297
v -1.229323 0.37685832 -0.49905297
v -1.229323 0.38612095 -0.4797387
v -1.2831897 0.3550212 -0.4797387
v -1.275168 0.29745287 -0.49905297
v -1.275168 0.35038984 -0.49905297
v -1.2831897 0.3550212 -0.4797387
v -1.2831897 0.29282156 -0.4797387
v -1.229323 0.27098432 -0.49905297
v -1.1834782 0.29745284 -0.49905297
v -1.1834782 0.35038984 -0.49905297
v -1.229323 0.37685832 -0.49905297
v -1.275168 0.29745287 -0.49905297
v -1.275168 0.35038984 -0.49905297
v 0.17647523 0.2974528 -0.49905285
v 0.17647523 0.35038975 -0.49905285
v 0.16845377 0.3550211 -0.4797386
v 0.16845377 0.2928214 -0.4797386
v 0.22232004 0.3768582 -0.49905285
v 0.22232004 0.38612083 -0.4797386
v 0.16845377 0.3550211 -0.4797386
v 0.17647523 0.35038975 -0.49905285
v 0.26816484 0.35038975 -0.49905285
v 0.2761863 0.3550211 -0.4797386
v 0.22232004 0.38612083 -0.4797386
v 0.22232004 0.3768582 -0.49905285
v 0.26816484 0.29745284 -0.49905285
v 0.2761863 0.29282153 -0.4797386
v 0.2761863 0.3550211 -0.4797386
v 0.26816484 0.35038975 -0.49905285
v 0.22232004 0.27098432 -0.49905285
v 0.26816484 0.29745284 -0.49905285
v 0.26816484 0.35038975 -0.49905285
v 0.22232004 0.3768582 -0.49905285
v 0.17647523 0.2974528 -0.49905285
v 0.17647523 0.35038975 -0.49905285
v -1.4932821 0.7831387 -0.452809
v -1.4659691 0.7831387 -0.48419937
v 0.45892814 0.7831387 -0.48419923
v 0.4862408 0.7831387 -0.45280883
v -1.4932821 0.7831389 0.4366385
v 0.48624066 0.7831389 0.43663865
v -1.447697 0.7831389 0.48222354
v 0.44065562 0.7831389 0.48222372
v -1.4659691 0.7831387 -0.48419937
v -1.4823291 0.554633 -0.5000256
v 0.4752876 0.5546329 -0.5000255
v 0.45892814 0.7831387 -0.48419923
v -1.4932821 0.7831389 0.4366385
v -1.511467 0.554633 0.45143864
v -1.511467 0.554633 -0.4676091
v -1.4932821 0.7831387 -0.452809
v 0.4862408 0.7831387 -0.45280883
v 0.5044484 0.5546329 -0.467609
v 0.5044483 0.554633 0.4514386
v 0.48624066 0.7831389 0.43663865
v -1.4932821 0.7831387 -0.452809
v -1.511467 0.554633 -0.4676091
v -1.4823291 0.554633 -0.5000256
v -1.4659691 0.7831387 -0.48419937
v 0.4752876 0.5546329 -0.5000255
v 0.5044484 0.5546329 -0.467609
v 0.4862408 0.7831387 -0.45280883
v 0.45892814 0.7831387 -0.48419923
v 0.4175803 0.7818055 -0.42892224
v -1.4246215 0.7818055 -0.42892233
v -1.4499722 0.7818055 -0.40032563
v 0.44293094 0.7818055 -0.40032548
v -1.4499722 0.7818056 0.397615
v 0.4429308 0.7818056 0.39761513
v -1.4153703 0.7818056 0.43041077
v 0.408329 0.7818056 0.43041086
v -1.398075 0.8055998 -0.3607732
v -1.3745147 0.8055998 -0.38864678
v 0.3674734 0.8055998 -0.38864663
v 0.39103395 0.8055998 -0.36077312
v -1.398075 0.8056 0.35178533
v 0.39103395 0.8056 0.35178548
v -1.3634732 0.8056 0.38458112
v 0.35643214 0.8056 0.38458127
v -1.3745147 0.8055998 -0.38864678
v -1.4246215 0.7818055 -0.42892233
v 0.4175803 0.7818055 -0.42892224
v 0.3674734 0.8055998 -0.38864663
v -1.398075 0.8056 0.35178533
v -1.4499722 0.7818055 -0.40032563
v -1.398075 0.8055998 -0.3607732
v -1.4499722 0.7818056 0.397615
v -1.3634732 0.8056 0.38458112
v -1.4153703 0.7818056 0.43041077
v 0.39103395 0.8055998 -0.36077312
v 0.44293094 0.7818055 -0.40032548
v 0.4429308 0.7818056 0.39761513
v 0.39103395 0.8056 0.35178548
v 0.408329 0.7818056 0.43041086
v 0.35643214 0.8056 0.38458127
v -1.3634732 0.8056 0.38458112
v -1.4153703 0.7818056 0.43041077
v -1.4499722 0.7818055 -0.40032563
v -1.4246215 0.7818055 -0.42892233
v -1.3745147 0.8055998 -0.38864678
v -1.398075 0.8055998 -0.3607732
v 0.4175803 0.7818055 -0.42892224
v 0.44293094 0.7818055 -0.40032548
v 0.39103395 0.8055998 -0.36077312
v 0.3674734 0.8055998 -0.38864663
v -0.4576892 0.35038984 -0.49905297
v -0.4576892 0.29745278 -0.49905297
v -0.44966772 0.2928214 -0.4797387
v -0.44966772 0.3550212 -0.4797387
v -0.50353396 0.37685832 -0.49905297
v -0.4576892 0.35038984 -0.49905297
v -0.44966772 0.3550212 -0.4797387
v -0.50353396 0.38612095 -0.4797387
v -0.5493788 0.35038984 -0.49905297
v -0.50353396 0.37685832 -0.49905297
v -0.50353396 0.38612095 -0.4797387
v -0.5574006 0.3550212 -0.4797387
v -0.5493788 0.29745284 -0.49905297
v -0.5493788 0.35038984 -0.49905297
v -0.5574006 0.3550212 -0.4797387
v -0.5574006 0.29282153 -0.4797387
v -0.50353396 0.2709843 -0.49905297
v -0.4576892 0.29745278 -0.49905297
v -0.4576892 0.35038984 -0.49905297
v -0.50353396 0.37685832 -0.49905297
v -0.5493788 0.29745284 -0.49905297
v -0.5493788 0.35038984 -0.49905297
v -1.447697 0.7831389 0.48222354
v 0.44065562 0.7831389 0.48222372
v 0.45886323 0.554633 0.49702367
v -1.465882 0.554633 0.4970237
v -1.511467 0.554633 0.45143864
v -1.4932821 0.7831389 0.4366385
v -1.447697 0.7831389 0.48222354
v -1.465882 0.554633 0.4970237
v 0.45886323 0.554633 0.49702367
v 0.44065562 0.7831389 0.48222372
v 0.48624066 0.7831389 0.43663865
v 0.5044483 0.554633 0.4514386
v -1.487282 0.13408297 0.4764175
v 0.4802407 0.13408291 0.47641763
v 0.50350296 -0.0020535353 0.5035
v -1.5105001 -0.0020535355 0.5035
v -1.4755173 0.5539821 0.4635659
v 0.4684811 0.5539821 0.46356604
v 0.4684811 0.13322444 0.46356615
v -1.4755176 0.1332245 0.46356604
vt 0.8316903 0.8217972
vt 0.8316903 0.8217972
vt 0.7914093 0.8217972
vt 0.7914093 0.8217972
vt 0.7914428 0.8198729
vt 0.8315999 0.8198729
vt 0.8315999 0.81426144
vt 0.7914428 0.81426144
vt 0.8332225 0.8140723
vt 0.8332225 0.82005626
vt 0.8436667 0.82005626
vt 0.8436667 0.8140723
vt 0.77925456 0.8140723
vt 0.77925456 0.82005626
vt 0.7897976 0.82005626
vt 0.7897976 0.8140723
vt 0.8580455 0.78047657
vt 0.800349 0.78047657
vt 0.800349 0.8037846
vt 0.8005838 0.80627453
vt 0.8572786 0.80627453
vt 0.8580455 0.8039863
vt 0.8572981 0.811839
vt 0.8572981 0.8083673
vt 0.79960155 0.8083673
vt 0.79960155 0.811839
vt 0.800349 0.7796105
vt 0.7995353 0.8062241
vt 0.7905812 0.8062928
vt 0.79058117 0.7796105
vt 0.7904729 0.8117244
vt 0.7904718 0.8084152
vt 0.79960155 0.8084152
vt 0.79960155 0.8117244
vt 0.7905812 0.8062928
vt 0.7999422 0.8062264
vt 0.800349 0.7796105
vt 0.79058117 0.7796105
vt 0.79960155 0.8084152
vt 0.7904718 0.8084152
vt 0.7904729 0.8117244
vt 0.79960155 0.8117244
vt 0.7891379 0.84584594
vt 0.83049786 0.84584594
vt 0.830498 0.82602006
vt 0.7891379 0.82602006
vt 0.8333493 0.82602006
vt 0.8333493 0.84584594
vt 0.84328544 0.84584594
vt 0.84328544 0.82602006
vt 0.77752656 0.82602006
vt 0.77752656 0.84584594
vt 0.78720087 0.84584594
vt 0.78720087 0.82602006
vt 0.77074534 0.87833154
vt 0.77074534 0.87464
vt 0.77524537 0.87464
vt 0.77524537 0.87833154
vt 0.77074534 0.88595545
vt 0.77074534 0.87833154
vt 0.77524537 0.87833154
vt 0.77524537 0.88595533
vt 0.77074534 0.8930053
vt 0.77074534 0.88595545
vt 0.77524537 0.88595533
vt 0.77524537 0.8930053
vt 0.77074534 0.89738244
vt 0.77074534 0.8930053
vt 0.77524537 0.8930053
vt 0.77524537 0.89738244
vt 0.7686608 0.88595545
vt 0.7693722 0.87833154
vt 0.77074534 0.87833154
vt 0.77074534 0.88595545
vt 0.7693722 0.8930053
vt 0.77074534 0.8930053
vt 0.77074534 0.87464
vt 0.77074534 0.87833154
vt 0.77524537 0.87833154
vt 0.77524537 0.87464
vt 0.77074534 0.88595545
vt 0.77524537 0.88595533
vt 0.77524537 0.87833154
vt 0.77074534 0.87833154
vt 0.77074534 0.8930053
vt 0.77524537 0.8930053
vt 0.77524537 0.88595533
vt 0.77074534 0.88595545
vt 0.77074534 0.89738244
vt 0.77524537 0.89738244
vt 0.77524537 0.8930053
vt 0.77074534 0.8930053
vt 0.7686608 0.88595545
vt 0.7693722 0.8930053
vt 0.77074534 0.8930053
vt 0.77074534 0.88595545
vt 0.7693722 0.87833154
vt 0.77074534 0.87833154
vt 0.8329803 0.8606101
vt 0.8310802 0.8606101
vt 0.7918339 0.8606101
vt 0.7899409 0.8606101
vt 0.8329803 0.8606101
vt 0.7917416 0.8606101
vt 0.8320328 0.8606101
vt 0.7927814 0.8606101
vt 0.83039695 0.8565045
vt 0.83039695 0.8475706
vt 0.7891474 0.8475706
vt 0.7891474 0.8565045
vt 0.8428352 0.8565045
vt 0.8428508 0.8475706
vt 0.8331839 0.8475706
vt 0.8331839 0.8565045
vt 0.78692526 0.8565045
vt 0.78692526 0.8475706
vt 0.7775823 0.8475706
vt 0.7775978 0.8565045
vt 0.83299047 0.8565045
vt 0.83299047 0.8475706
vt 0.8305329 0.8475706
vt 0.8305329 0.8565045
vt 0.78901154 0.8475706
vt 0.78711855 0.8475706
vt 0.78711855 0.8565045
vt 0.78901154 0.8565045
vt 0.78948534 0.8664948
vt 0.8307886 0.8664948
vt 0.8326887 0.8664948
vt 0.78759235 0.8664948
vt 0.8308636 0.8664948
vt 0.78759235 0.8664948
vt 0.83003664 0.8664948
vt 0.7883443 0.8664948
vt 0.75729626 0.8727151
vt 0.7566666 0.8710498
vt 0.75666624 0.8167915
vt 0.7572955 0.8151733
vt 0.77351874 0.8727151
vt 0.7735184 0.8151733
vt 0.7743061 0.8715822
vt 0.77430576 0.81630623
vt 0.8305656 0.87090003
vt 0.8305656 0.8664948
vt 0.7897083 0.8664948
vt 0.7897083 0.87090003
vt 0.8416687 0.87090003
vt 0.8329165 0.8664948
vt 0.8329165 0.87090003
vt 0.8417088 0.8664948
vt 0.84268713 0.87090605
vt 0.8427376 0.8664683
vt 0.78736454 0.87090003
vt 0.78736454 0.8664948
vt 0.7772583 0.8664948
vt 0.7773059 0.87090003
vt 0.77684295 0.8664948
vt 0.77684295 0.87090003
vt 0.77684295 0.87090003
vt 0.77684295 0.8664948
vt 0.8326887 0.8664948
vt 0.8307886 0.8664948
vt 0.8307886 0.87090003
vt 0.8326887 0.87090003
vt 0.78948534 0.8664948
vt 0.78759235 0.8664948
vt 0.78759235 0.87090003
vt 0.78948534 0.87090003
vt 0.77074534 0.87833154
vt 0.77074534 0.87464
vt 0.77524537 0.87464
vt 0.77524537 0.87833154
vt 0.77074534 0.88595545
vt 0.77074534 0.87833154
vt 0.77524537 0.87833154
vt 0.77524537 0.88595533
vt 0.77074534 0.8930053
vt 0.77074534 0.88595545
vt 0.77524537 0.88595533
vt 0.77524537 0.8930053
vt 0.77074534 0.89738244
vt 0.77074534 0.8930053
vt 0.77524537 0.8930053
vt 0.77524537 0.89738244
vt 0.7686608 0.88595545
vt 0.7693722 0.87833154
vt 0.77074534 0.87833154
vt 0.77074534 0.88595545
vt 0.7693722 0.8930053
vt 0.77074534 0.8930053
vt 0.8433426 0.8565045
vt 0.8433426 0.8565045
vt 0.8433426 0.8475706
vt 0.8433426 0.8475706
vt 0.8428508 0.8475706
vt 0.8428352 0.8565045
vt 0.8433426 0.8565045
vt 0.8433426 0.8475706
vt 0.7820443 0.84756243
vt 0.7818345 0.8565004
vt 0.7775978 0.8565045
vt 0.7775823 0.8475706
vt 0.8436667 0.82005626
vt 0.8436667 0.82350594
vt 0.8436667 0.817522
vt 0.8436667 0.8140723
vt 0.84328544 0.84584594
vt 0.84328544 0.84584594
vt 0.84328544 0.82602006
vt 0.84328544 0.82602006
vn -0 1 -1.05168866E-07
vn -0 1 -1.05168866E-07
vn -0 1 -1.05168866E-07
vn -0 1 -1.05168866E-07
vn -0 0.1532307 -0.98819053
vn -0 0.1532307 -0.98819053
vn -0 0.15323071 -0.98819053
vn -0 0.15323071 -0.98819053
vn -0.9857662 0.16812219 0
vn -0.9857662 0.16812219 0
vn -0.9857662 0.1681222 0
vn -0.9857662 0.16812219 0
vn 0.985713 0.16843356 1.4105527E-07
vn 0.985713 0.16843356 1.4105527E-07
vn 0.985713 0.16843356 1.4105527E-07
vn 0.985713 0.16843355 1.4105527E-07
vn -0.32081494 0 -0.94714195
vn 0.32033125 -1.0632565E-07 -0.9473056
vn 0.29755464 0.097024806 -0.94976175
vn 0.08013501 0.33899978 -0.9373673
vn -0.08020993 0.3389917 -0.93736386
vn -0.29795378 0.096971884 -0.94964206
vn -0.22100596 0.4473816 -0.8666062
vn -0.08020993 0.3389917 -0.93736386
vn 0.08013501 0.33899978 -0.9373673
vn 0.22083904 0.44737202 -0.8666535
vn -0.32081494 0 -0.94714195
vn -0.29795378 0.096971884 -0.94964206
vn -0.42663458 0.20858356 -0.88004315
vn -0.5623103 0 -0.82692635
vn -0.42663458 0.20858356 -0.88004315
vn -0.29795378 0.096971884 -0.94964206
vn -0.08020993 0.3389917 -0.93736386
vn -0.22100596 0.4473816 -0.8666062
vn 0.42626104 0.20846193 -0.88025296
vn 0.29755464 0.097024806 -0.94976175
vn 0.32033125 -1.0632565E-07 -0.9473056
vn 0.56158775 0 -0.8274172
vn 0.08013501 0.33899978 -0.9373673
vn 0.29755464 0.097024806 -0.94976175
vn 0.42626104 0.20846193 -0.88025296
vn 0.22083904 0.44737202 -0.8666535
vn -0 0 -1
vn -0 0 -1
vn -0 0 -1
vn -0 0 -1
vn -1 7.3037785E-07 0
vn -1 7.3037785E-07 0
vn -1 7.303779E-07 0
vn -1 7.3037785E-07 0
vn 1 0 1.6574634E-07
vn 1 0 1.6574633E-07
vn 1 0 1.6574633E-07
vn 1 0 1.6574634E-07
vn 0.92352015 0 -0.38354987
vn 0.92352015 0 -0.38354987
vn 0.92352015 0 -0.38354987
vn 0.92352015 0 -0.38354987
vn 0.46175873 0.7997894 -0.38355672
vn 0.46175876 0.7997895 -0.3835567
vn 0.46175876 0.7997895 -0.3835567
vn 0.46175876 0.7997895 -0.3835567
vn -0.46175697 0.79978895 -0.38355985
vn -0.46175697 0.79978895 -0.38355985
vn -0.46175697 0.79978895 -0.38355985
vn -0.46175697 0.79978895 -0.38355976
vn -0.92351496 0 -0.38356242
vn -0.92351496 0 -0.38356242
vn -0.92351496 0 -0.38356242
vn -0.92351496 0 -0.3835624
vn -0 0 -1
vn -0 0 -1
vn -0 0 -1
vn -0 0 -1
vn -0 0 -1
vn -0 0 -1
vn -0.92352015 0 -0.38354978
vn -0.92352015 0 -0.38354978
vn -0.92352015 0 -0.38354978
vn -0.92352015 0 -0.38354975
vn -0.46175873 0.7997894 -0.38355672
vn -0.4617587 0.7997895 -0.3835567
vn -0.4617587 0.7997895 -0.3835567
vn -0.4617587 0.7997895 -0.3835567
vn 0.46175876 0.7997895 -0.3835567
vn 0.46175876 0.7997895 -0.3835567
vn 0.4617587 0.7997895 -0.3835567
vn 0.46175876 0.7997895 -0.3835567
vn 0.92352015 0 -0.3835498
vn 0.92352015 0 -0.3835498
vn 0.92352015 0 -0.38354987
vn 0.92352015 0 -0.3835498
vn -0 0 -1
vn -0 0 -1
vn -0 0 -1
vn -0 0 -1
vn -0 0 -1
vn -0 0 -1
vn -0 1 -1.5923891E-07
vn -0 1 -1.5923888E-07
vn -0 1 -1.5923892E-07
vn -0 1 -1.5923891E-07
vn -0 1 -1.5923891E-07
vn -0 1 -1.5923891E-07
vn -0 1 -1.5923891E-07
vn -0 1 -1.5923891E-07
vn -0 0.069094196 -0.9976102
vn -0 0.069094196 -0.9976102
vn -0 0.06909418 -0.9976102
vn -0 0.069094196 -0.9976102
vn -0.9968483 0.07933089 0
vn -0.9968483 0.079330884 0
vn -0.9968483 0.07933089 0
vn -0.9968483 0.07933089 0
vn 0.9968405 0.07942947 1.5769459E-07
vn 0.9968405 0.07942948 1.5769457E-07
vn 0.9968405 0.07942948 1.5769457E-07
vn 0.9968405 0.07942948 1.5769457E-07
vn -0.7451681 0.100506246 -0.65925956
vn -0.745168 0.10050622 -0.6592595
vn -0.7451681 0.10050623 -0.65925956
vn -0.745168 0.10050623 -0.6592595
vn 0.7450335 0.100541994 -0.65940607
vn 0.7450335 0.10054202 -0.65940607
vn 0.7450335 0.100542 -0.65940607
vn 0.7450335 0.100542 -0.65940607
vn -0 -1 0
vn -0 -1 0
vn -0 -1 0
vn -0 -1 0
vn -0 -1 0
vn -0 -1 0
vn -0 -1 0
vn -0 -1 0
vn -0.21811742 0.97407573 -0.06000944
vn -0.067257024 0.96306276 -0.26074246
vn 0.067256525 0.96306276 -0.2607424
vn 0.2181181 0.97407556 -0.060009904
vn -0.2147055 0.9745594 0.06430781
vn 0.21470632 0.9745592 0.064307965
vn -0.055008855 0.9698887 0.23725504
vn 0.055009056 0.9698887 0.2372552
vn -0.067257024 0.96306276 -0.26074246
vn -0.1812091 0.9295458 -0.32110396
vn 0.18120867 0.9295458 -0.32110447
vn 0.067256525 0.96306276 -0.2607424
vn -0.2147055 0.9745594 0.06430781
vn -0.32488996 0.9355027 -0.13885666
vn -0.21811742 0.97407573 -0.06000944
vn -0.2999749 0.9421637 0.14947437
vn -0.055008855 0.9698887 0.23725504
vn -0.15406394 0.9374264 0.31224364
vn 0.2181181 0.97407556 -0.060009904
vn 0.32489008 0.9355026 -0.13885726
vn 0.2999757 0.94216335 0.14947519
vn 0.21470632 0.9745592 0.064307965
vn 0.15406415 0.9374261 0.31224447
vn 0.055009056 0.9698887 0.2372552
vn -0.055008855 0.9698887 0.23725504
vn -0.15406394 0.9374264 0.31224364
vn -0.32488996 0.9355027 -0.13885666
vn -0.1812091 0.9295458 -0.32110396
vn -0.067257024 0.96306276 -0.26074246
vn -0.21811742 0.97407573 -0.06000944
vn 0.18120867 0.9295458 -0.32110447
vn 0.32489008 0.9355026 -0.13885726
vn 0.2181181 0.97407556 -0.060009904
vn 0.067256525 0.96306276 -0.2607424
vn 0.92352015 0 -0.38354975
vn 0.92352015 0 -0.38354975
vn 0.92352015 0 -0.38354978
vn 0.92352015 0 -0.38354978
vn 0.46175873 0.7997894 -0.38355672
vn 0.46175876 0.7997895 -0.3835567
vn 0.46175876 0.7997895 -0.3835567
vn 0.46175876 0.7997895 -0.3835567
vn -0.46175697 0.79978895 -0.38355985
vn -0.46175697 0.79978895 -0.38355985
vn -0.46175697 0.79978895 -0.38355985
vn -0.46175697 0.79978895 -0.38355976
vn -0.92351496 0 -0.38356233
vn -0.92351496 0 -0.38356233
vn -0.92351496 0 -0.38356233
vn -0.92351496 0 -0.38356227
vn -0 0 -1
vn -0 0 -1
vn -0 0 -1
vn -0 0 -1
vn -0 0 -1
vn -0 0 -1
vn -0 0.064633384 0.99790907
vn -0 0.064633384 0.99790907
vn -0 0.064633384 0.99790907
vn -0 0.06463339 0.99790907
vn -0.7034524 0.10154393 0.7034512
vn -0.7034524 0.101543926 0.7034512
vn -0.7034524 0.10154393 0.7034512
vn -0.7034524 0.101543926 0.7034512
vn 0.70344687 0.10161262 0.70344687
vn 0.70344687 0.101612635 0.70344687
vn 0.70344687 0.10161262 0.70344687
vn 0.70344687 0.101612635 0.70344687
vn -0 0.19511247 0.9807809
vn -0 0.19511247 0.9807809
vn -0 0.19511247 0.9807809
vn -0 0.19511247 0.9807809
vn -0 3.195403E-07 1
vn -0 3.195403E-07 1
vn -0 3.195403E-07 1
vn -0 3.195403E-07 1
g wall_desk_2_0
f 3/3/3 2/2/2 1/1/1
f 4/4/4 3/3/3 1/1/1
f 7/7/7 6/6/6 5/5/5
f 8/8/8 7/7/7 5/5/5
f 11/11/11 10/10/10 9/9/9
f 12/12/12 11/11/11 9/9/9
f 15/15/15 14/14/14 13/13/13
f 16/16/16 15/15/15 13/13/13
f 19/19/19 18/18/18 17/17/17
f 17/17/17 20/20/20 19/19/19
f 17/17/17 21/21/21 20/20/20
f 17/17/17 22/22/22 21/21/21
f 25/25/25 24/24/24 23/23/23
f 26/26/26 25/25/25 23/23/23
f 29/29/29 28/28/28 27/27/27
f 30/30/30 29/29/29 27/27/27
f 33/33/33 32/32/32 31/31/31
f 34/34/34 33/33/33 31/31/31
f 37/37/37 36/36/36 35/35/35
f 38/38/38 37/37/37 35/35/35
f 41/41/41 40/40/40 39/39/39
f 42/42/42 41/41/41 39/39/39
f 45/45/45 44/44/44 43/43/43
f 46/46/46 45/45/45 43/43/43
f 49/49/49 48/48/48 47/47/47
f 50/50/50 49/49/49 47/47/47
f 53/53/53 52/52/52 51/51/51
f 54/54/54 53/53/53 51/51/51
f 57/57/57 56/56/56 55/55/55
f 58/58/58 57/57/57 55/55/55
f 61/61/61 60/60/60 59/59/59
f 62/62/62 61/61/61 59/59/59
f 65/65/65 64/64/64 63/63/63
f 66/66/66 65/65/65 63/63/63
f 69/69/69 68/68/68 67/67/67
f 70/70/70 69/69/69 67/67/67
f 73/73/73 72/72/72 71/71/71
f 71/71/71 74/74/74 73/73/73
f 71/71/71 75/75/75 74/74/74
f 75/75/75 76/76/76 74/74/74
f 79/79/79 78/78/78 77/77/77
f 80/80/80 79/79/79 77/77/77
f 83/83/83 82/82/82 81/81/81
f 84/84/84 83/83/83 81/81/81
f 87/87/87 86/86/86 85/85/85
f 88/88/88 87/87/87 85/85/85
f 91/91/91 90/90/90 89/89/89
f 92/92/92 91/91/91 89/89/89
f 95/95/95 94/94/94 93/93/93
f 93/93/93 96/96/96 95/95/95
f 93/93/93 97/97/97 96/96/96
f 97/97/97 98/98/98 96/96/96
f 101/101/101 100/100/100 99/99/99
f 99/99/99 102/102/102 101/101/101
f 99/99/99 103/103/103 102/102/102
f 103/103/103 104/104/104 102/102/102
f 103/103/103 105/105/105 104/104/104
f 105/105/105 106/106/106 104/104/104
f 109/109/109 108/108/108 107/107/107
f 110/110/110 109/109/109 107/107/107
f 113/113/113 112/112/112 111/111/111
f 114/114/114 113/113/113 111/111/111
f 117/117/117 116/116/116 115/115/115
f 118/118/118 117/117/117 115/115/115
f 121/121/121 120/120/120 119/119/119
f 122/122/122 121/121/121 119/119/119
f 125/125/125 124/124/124 123/123/123
f 126/126/126 125/125/125 123/123/123
f 129/129/129 128/128/128 127/127/127
f 127/127/127 130/130/130 129/129/129
f 130/130/130 131/131/131 129/129/129
f 130/130/130 132/132/132 131/131/131
f 132/132/132 133/133/133 131/131/131
f 132/132/132 134/134/134 133/133/133
f 137/137/137 136/136/136 135/135/135
f 135/135/135 138/138/138 137/137/137
f 135/135/135 139/139/139 138/138/138
f 139/139/139 140/140/140 138/138/138
f 139/139/139 141/141/141 140/140/140
f 141/141/141 142/142/142 140/140/140
f 145/145/145 144/144/144 143/143/143
f 146/146/146 145/145/145 143/143/143
f 149/149/149 148/148/148 147/147/147
f 148/148/148 150/150/150 147/147/147
f 147/147/147 150/150/150 151/151/151
f 150/150/150 152/152/152 151/151/151
f 155/155/155 154/154/154 153/153/153
f 156/156/156 155/155/155 153/153/153
f 157/157/157 155/155/155 156/156/156
f 158/158/158 157/157/157 156/156/156
f 158/158/158 159/159/159 157/157/157
f 159/159/159 160/160/160 157/157/157
f 163/163/163 162/162/162 161/161/161
f 164/164/164 163/163/163 161/161/161
f 167/167/167 166/166/166 165/165/165
f 168/168/168 167/167/167 165/165/165
f 171/171/171 170/170/170 169/169/169
f 172/172/172 171/171/171 169/169/169
f 175/175/175 174/174/174 173/173/173
f 176/176/176 175/175/175 173/173/173
f 179/179/179 178/178/178 177/177/177
f 180/180/180 179/179/179 177/177/177
f 183/183/183 182/182/182 181/181/181
f 184/184/184 183/183/183 181/181/181
f 187/187/187 186/186/186 185/185/185
f 185/185/185 188/188/188 187/187/187
f 185/185/185 189/189/189 188/188/188
f 189/189/189 190/190/190 188/188/188
f 193/193/193 192/192/192 191/191/191
f 194/194/194 193/193/193 191/191/191
f 197/197/197 196/196/196 195/195/195
f 198/198/198 197/197/197 195/195/195
f 201/201/201 200/200/200 199/199/199
f 202/202/202 201/201/201 199/199/199
f 205/205/205 204/204/204 203/203/203
f 206/206/206 205/205/205 203/203/203
f 209/209/209 208/208/208 207/207/207
f 210/210/210 209/209/209 207/207/207
