g wall_boss_S2
v -1.5105 3.918045 1.3331211
v -1.5105001 3.9180436 0.7594442
v 0.5034997 3.9180431 0.7594442
v 0.5035 3.918045 1.3331211
v 0.5035 -3.1010688E-07 1.308488
v -1.5105 -3.1010688E-07 1.308488
v -1.5105 2.9520245 1.3084877
v 0.5035 2.9520245 1.3084877
v -1.5105 0.1969446 -0.25989324
v -1.5105 0.19694474 -0.3933494
v 0.5035 0.1969446 -0.39334926
v 0.5035 0.1969446 -0.25989324
v -1.5105 3.918045 1.3331211
v 0.5035 3.918045 1.3331211
v 0.5035 3.8594885 1.389054
v -1.5105 3.8594885 1.389054
v 0.5034997 3.9180431 0.7594442
v -1.5105001 3.9180436 0.7594442
v -1.5105 3.8594885 0.7020903
v 0.5035 3.8594885 0.7020903
v -1.5105 3.3451836 0.5476831
v -1.5105 3.2608883 0.55817115
v 0.5035 3.2608876 0.55817115
v 0.5035 3.3451836 0.54768306
v -1.5105 3.4756603 0.64955
v 0.5035 3.4756603 0.64955
v -1.5105 3.5910232 0.6259756
v 0.5035 3.5910232 0.62597543
v -1.5105 3.8594885 0.7020903
v 0.5035 3.8594885 0.7020903
v -1.5105 0.42080665 0.20648743
v -1.5105 0.42080647 -0.15088129
v 0.5035 0.42080647 -0.15088129
v 0.5035 0.42080665 0.20648758
v -1.5105 0.38751507 -0.1881805
v -1.5105 0.1969446 -0.25989324
v 0.5035 0.1969446 -0.25989324
v 0.5035 0.38751507 -0.18818067
v 0.5035 2.2008685E-08 -0.5035
v 0.5034997 0.16365317 -0.4328727
v -1.5105 0.16365333 -0.43287286
v -1.5105 2.2008685E-08 -0.50349987
v 0.5035 3.8594885 1.389054
v 0.5035 2.9520245 1.3890541
v -1.5105 2.9520245 1.3890541
v -1.5105 3.8594885 1.389054
v -1.5105 3.256431 0.6194803
v -1.5105 0.42949128 -0.034914486
v 0.5035003 0.42949128 -0.034914486
v 0.5035 3.2564316 0.6194803
v -1.5105 0.38751507 -0.1881805
v 0.5035 0.38751507 -0.18818067
v 0.5035 0.42080647 -0.15088129
v -1.5105 0.42080647 -0.15088129
v 0.5035 0.1969446 -0.39334926
v -1.5105 0.19694474 -0.3933494
v -1.5105 0.16365333 -0.43287286
v 0.5034997 0.16365317 -0.4328727
vt 0.03199425 0.8897814
vt 0.03199425 0.87028027
vt 0.04622814 0.87028027
vt 0.04622814 0.8897814
vt 0.04622814 0.9089477
vt 0.03199425 0.9089477
vt 0.03199425 0.90949535
vt 0.04622814 0.90949535
vt 0.0026959071 0.87089825
vt 0.0026959071 0.85575897
vt 0.006425417 0.85575897
vt 0.006425417 0.87089825
vt 0.03199425 0.8897814
vt 0.04622814 0.8897814
vt 0.04622814 0.892366
vt 0.03199425 0.892366
vt 0.04622814 0.87028027
vt 0.03199425 0.87028027
vt 0.03199425 0.86807734
vt 0.04622814 0.86807734
vt 0.03199425 0.84192693
vt 0.03199425 0.8386551
vt 0.04622814 0.8386551
vt 0.04622814 0.84192693
vt 0.03199425 0.85282284
vt 0.04622814 0.85282284
vt 0.03199425 0.85522854
vt 0.04622814 0.85522854
vt 0.03199425 0.86807734
vt 0.04622814 0.86807734
vt 0.02902556 0.8097745
vt 0.02902556 0.7923762
vt 0.032526962 0.7923762
vt 0.032526962 0.8097745
vt 0.02902556 0.78824896
vt 0.02902556 0.77612686
vt 0.032526962 0.77612686
vt 0.032526962 0.78824896
vt 0.006425417 0.83869225
vt 0.006425417 0.85114807
vt 0.0026959071 0.85114807
vt 0.0026959071 0.83869225
vt 0.04622814 0.892366
vt 0.04622814 0.9085972
vt 0.03199425 0.9085972
vt 0.03199425 0.892366
vt 0.12858172 0.8386899
vt 0.1285817 0.7706809
vt 0.13072132 0.7706809
vt 0.13072132 0.8386899
vt 0.02902556 0.78824896
vt 0.032526962 0.78824896
vt 0.032526962 0.7923762
vt 0.02902556 0.7923762
vt 0.006425417 0.85575897
vt 0.0026959071 0.85575897
vt 0.0026959071 0.85114807
vt 0.006425417 0.85114807
vn 1.5258792E-07 1 -2.6784423E-06
vn 1.5258792E-07 1 -2.6784421E-06
vn 1.5258792E-07 1 -2.6784421E-06
vn 1.5258792E-07 1 -2.6784421E-06
vn -0 1.04102114E-07 1
vn -0 1.04102114E-07 1
vn -0 1.04102114E-07 1
vn -0 1.04102114E-07 1
vn -0 1 5.756799E-07
vn -0 1 5.756799E-07
vn -0 1 5.756799E-07
vn -0 1 5.756799E-07
vn -0 0.6907221 0.7231203
vn -0 0.6907221 0.7231203
vn -0 0.6907221 0.7231203
vn -0 0.6907221 0.7231203
vn 1.0662184E-07 0.69974214 -0.71439546
vn 1.06621854E-07 0.69974214 -0.71439546
vn 1.06621854E-07 0.69974214 -0.71439546
vn 1.06621854E-07 0.6997422 -0.71439546
vn -0 0.2662956 -0.9638914
vn -0 -0.1234679 -0.99234855
vn -0 -0.1234679 -0.99234855
vn -0 0.26629558 -0.9638914
vn -0 0.22861207 -0.97351754
vn -0 0.22861207 -0.97351754
vn -0 0.03733748 -0.99930274
vn -0 0.037337467 -0.99930274
vn -0 0.27276725 -0.96208006
vn -0 0.27276725 -0.96208006
vn -0 1 -4.299648E-07
vn -0 1 -4.299648E-07
vn -0 1 -4.299648E-07
vn -0 1 -4.299648E-07
vn -0 0.3521941 -0.93592703
vn -0 0.3521941 -0.93592703
vn -0 0.3521941 -0.93592703
vn -0 0.3521941 -0.93592703
vn -0 0.39624074 -0.9181467
vn -0 0.39624074 -0.9181467
vn -0 0.3962407 -0.9181467
vn -0 0.39624065 -0.9181467
vn -0 1.693246E-07 1
vn -0 1.693246E-07 1
vn -0 1.693246E-07 1
vn -0 1.693246E-07 1
vn -0 0.22552168 -0.9742381
vn -0 0.22552171 -0.9742381
vn -0 0.22552171 -0.9742381
vn -0 0.22552168 -0.9742381
vn -0 0.74605227 -0.6658874
vn -0 0.74605227 -0.6658874
vn -0 0.74605227 -0.6658874
vn -0 0.74605227 -0.6658874
vn 1.0755505E-07 0.76482993 -0.6442323
vn 1.0755505E-07 0.76482993 -0.6442323
vn 1.0755505E-07 0.76482993 -0.6442323
vn 1.0755505E-07 0.76482993 -0.64423215
g wall_boss_S2_0
f 3/3/3 2/2/2 1/1/1
f 4/4/4 3/3/3 1/1/1
f 7/7/7 6/6/6 5/5/5
f 8/8/8 7/7/7 5/5/5
f 11/11/11 10/10/10 9/9/9
f 12/12/12 11/11/11 9/9/9
f 15/15/15 14/14/14 13/13/13
f 16/16/16 15/15/15 13/13/13
f 19/19/19 18/18/18 17/17/17
f 20/20/20 19/19/19 17/17/17
f 23/23/23 22/22/22 21/21/21
f 24/24/24 23/23/23 21/21/21
f 24/24/24 21/21/21 25/25/25
f 26/26/26 24/24/24 25/25/25
f 26/26/26 25/25/25 27/27/27
f 28/28/28 26/26/26 27/27/27
f 28/28/28 27/27/27 29/29/29
f 30/30/30 28/28/28 29/29/29
f 33/33/33 32/32/32 31/31/31
f 34/34/34 33/33/33 31/31/31
f 37/37/37 36/36/36 35/35/35
f 38/38/38 37/37/37 35/35/35
f 41/41/41 40/40/40 39/39/39
f 42/42/42 41/41/41 39/39/39
f 45/45/45 44/44/44 43/43/43
f 46/46/46 45/45/45 43/43/43
f 49/49/49 48/48/48 47/47/47
f 50/50/50 49/49/49 47/47/47
f 53/53/53 52/52/52 51/51/51
f 54/54/54 53/53/53 51/51/51
f 57/57/57 56/56/56 55/55/55
f 58/58/58 57/57/57 55/55/55
