g wall_police_desk_C
v 0.5035015 0.13267142 -0.34392327
v -0.3374186 0.49829766 -0.3440308
v -0.3374186 0.13267142 -0.34403077
v 0.5034999 0.49829766 -0.34403095
v 0.5034999 0.13267162 0.39763469
v -0.167392 0.13267155 -0.40651235
v 0.5034997 0.13267155 -0.40651235
v -0.16739193 0.1326716 -0.25427926
v -0.19573055 0.1326716 -0.1957306
v 0.4033581 0.13267161 0.40335822
v 0.39732754 0.13267161 0.5034997
v -0.19573055 0.1326716 -0.1957306
v -0.25427926 0.1326716 -0.16739194
v -0.40666476 0.13267161 -0.1673919
v -0.40666476 0.13267174 0.5034999
v -0.16740637 -3.8414E-08 -0.40651235
v -0.32053256 0.13267155 -0.4065123
v -0.32053226 -3.8414E-08 -0.40651235
v -0.167392 0.13267155 -0.40651235
v 0.5035 -3.8414E-08 -0.40651235
v 0.5034997 0.13267155 -0.40651235
v -0.32053226 0.47714815 -0.40651232
v -0.16762395 0.47714815 -0.40651235
v -0.32053256 0.78303766 -0.4065124
v -0.167392 0.78303766 -0.4065124
v 0.5035 0.69385195 -0.40651235
v 0.5034997 0.78303766 -0.4065124
v -0.12003323 0.69385195 -0.40651235
v 0.5034999 0.47714815 -0.40651235
v -0.12018196 0.52454853 -0.40651235
v 0.5035 0.52454853 -0.4065124
v -0.12003323 0.69385195 -0.40651235
v -0.16762395 0.47714815 -0.40651235
v -0.167392 0.78303766 -0.4065124
v 0.41538727 3.8414E-08 0.4153872
v 0.5034999 0.13267162 0.39763469
v 0.5035 3.8414E-08 0.41538715
v 0.4033581 0.13267161 0.40335822
v -0.34403056 0.13267155 0.50350034
v -0.3440309 0.49829763 -0.33741853
v -0.34403056 0.4982978 0.5035
v -0.3440309 0.13267142 -0.33741853
v -0.40666476 0.13267161 -0.3205324
v -0.40666476 3.8414E-08 -0.16710313
v -0.40666476 0 -0.32053223
v -0.40666476 0.13267161 -0.1673919
v -0.40666476 1.9207E-07 0.5035001
v -0.40666476 0.13267174 0.5034999
v -0.40666476 0.47714815 -0.167274
v -0.40666476 0.47714815 -0.32053217
v -0.40666476 0.78303766 -0.32053244
v -0.40666476 0.78303754 -0.1673918
v -0.40666476 0.52454853 0.50357085
v -0.40666476 0.4771482 0.50350016
v -0.40666476 0.52454853 -0.119894795
v -0.40666476 0.78303766 0.50350004
v -0.40666476 0.6938519 -0.119970314
v -0.40666476 0.69385195 0.50357085
v -0.40666476 0.52454853 -0.119894795
v -0.40666476 0.78303754 -0.1673918
v -0.40666476 0.47714815 -0.167274
v 0.41538727 3.8414E-08 0.4153872
v 0.39732754 0.13267161 0.5034997
v 0.4033581 0.13267161 0.40335822
v 0.41538742 3.8414E-08 0.5034999
v -0.32053226 -3.8414E-08 -0.40651235
v -0.40666476 0.13267161 -0.3205324
v -0.40666476 0 -0.32053223
v -0.32053256 0.13267155 -0.4065123
v -0.40666476 0.47714815 -0.32053217
v -0.32053226 0.47714815 -0.40651232
v -0.40666476 0.78303766 -0.32053244
v -0.32053256 0.78303766 -0.4065124
v 0.5034999 0.7830376 0.39732733
v -0.167392 0.78303766 -0.4065124
v 0.5034997 0.78303766 -0.4065124
v -0.16739193 0.78303754 -0.25427917
v -0.32053256 0.78303766 -0.4065124
v 0.39732754 0.7830376 0.50349987
v -0.40666476 0.78303766 0.50350004
v -0.25427926 0.78303754 -0.1673919
v -0.40666476 0.78303754 -0.1673918
v -0.40666476 0.78303766 -0.32053244
v 0.5034999 0.7830376 0.39732733
v 0.41538742 0.47714812 0.50349987
v 0.39732754 0.7830376 0.50349987
v 0.5035 0.47714812 0.4153872
v 0.41538742 0.47714812 0.4153873
v -0.16739193 0.78303754 -0.25427917
v -0.40666476 0.78303766 -0.32053244
v -0.32053256 0.78303766 -0.4065124
v -0.25427926 0.78303754 -0.1673919
v 0.39732754 0.7830376 0.50349987
v 0.5034999 0.7830376 0.39732733
v -0.09965398 0.6788123 -0.37630236
v 0.5035 0.53958803 -0.37630248
v 0.5035 0.6788123 -0.37630236
v -0.099802725 0.53958803 -0.37630254
v -0.37645474 0.5395881 0.5035708
v -0.37645474 0.67881227 -0.09898828
v -0.37645474 0.6788123 0.50357085
v -0.37645474 0.53958803 -0.098912746
v -0.167392 0.13267155 -0.40651235
v -0.15755396 0.47714815 -0.33559453
v -0.16762395 0.47714815 -0.40651235
v -0.157322 0.13267154 -0.33559453
v -0.40666476 0.47714815 -0.167274
v -0.335227 0.13267164 -0.15732194
v -0.40666476 0.13267161 -0.1673919
v -0.335227 0.47714815 -0.15720405
v -0.40666476 0.69385195 0.50357085
v -0.37645474 0.67881227 -0.09898828
v -0.40666476 0.6938519 -0.119970314
v -0.37645474 0.6788123 0.50357085
v -0.40666476 0.6938519 -0.119970314
v -0.37645474 0.53958803 -0.098912746
v -0.40666476 0.52454853 -0.119894795
v -0.37645474 0.67881227 -0.09898828
v -0.40666476 0.52454853 -0.119894795
v -0.37645474 0.5395881 0.5035708
v -0.40666476 0.52454853 0.50357085
v -0.37645474 0.53958803 -0.098912746
v -0.12003323 0.69385195 -0.40651235
v 0.5035 0.6788123 -0.37630236
v 0.5035 0.69385195 -0.40651235
v -0.09965398 0.6788123 -0.37630236
v 0.5035 0.52454853 -0.4065124
v -0.099802725 0.53958803 -0.37630254
v -0.12018196 0.52454853 -0.40651235
v 0.5035 0.53958803 -0.37630248
v -0.12018196 0.52454853 -0.40651235
v -0.09965398 0.6788123 -0.37630236
v -0.12003323 0.69385195 -0.40651235
v -0.099802725 0.53958803 -0.37630254
v 0.50350004 0.49829742 0.34392288
v 0.34392333 0.13267161 0.34392312
v 0.34392324 0.49829742 0.34392297
v 0.5034999 0.13267161 0.3439231
v 0.34392333 0.49829742 0.5034998
v 0.34392333 0.13267161 0.34392312
v 0.34392333 0.13267162 0.50349975
v 0.34392324 0.49829742 0.34392297
vt 0.6397983 0.31705013
vt 0.6726386 0.33695394
vt 0.6726386 0.31705
vt 0.6397983 0.33695406
vt 0.56775904 0.2948054
vt 0.56161475 0.3262375
vt 0.56775904 0.3262375
vt 0.56161475 0.31837946
vt 0.56161475 0.3183728
vt 0.56775904 0.2948054
vt 0.56775904 0.2948054
vt 0.56161475 0.3183728
vt 0.56161475 0.3183728
vt 0.56161475 0.3262375
vt 0.56775904 0.3262375
vt 0.6124351 0.27749455
vt 0.62857884 0.28935164
vt 0.62857884 0.27749455
vt 0.6124351 0.28935164
vt 0.561292 0.27749455
vt 0.561292 0.28935164
vt 0.62857884 0.3304128
vt 0.6124351 0.3304128
vt 0.62857884 0.35849318
vt 0.6124351 0.35849318
vt 0.561292 0.35067105
vt 0.561292 0.35849318
vt 0.6080168 0.35067105
vt 0.561292 0.3304128
vt 0.6080168 0.33499467
vt 0.561292 0.33499467
vt 0.6080168 0.35067105
vt 0.6124351 0.3304128
vt 0.6124351 0.35849318
vt 0.57363427 0.27749455
vt 0.5797993 0.28935164
vt 0.5797993 0.27749455
vt 0.57363427 0.28935164
vt 0.6397983 0.31705013
vt 0.6726386 0.33695394
vt 0.6397983 0.33695406
vt 0.6726386 0.31705
vt 0.62857884 0.28935164
vt 0.6124351 0.27749455
vt 0.62857884 0.27749455
vt 0.6124351 0.28935164
vt 0.561292 0.27749455
vt 0.561292 0.28935164
vt 0.6124351 0.3304128
vt 0.62857884 0.3304128
vt 0.62857884 0.35849318
vt 0.6124351 0.35849318
vt 0.561292 0.33499467
vt 0.561292 0.3304128
vt 0.6080168 0.33499467
vt 0.561292 0.35849318
vt 0.6080168 0.35067105
vt 0.561292 0.35067105
vt 0.6080168 0.33499467
vt 0.6124351 0.35849318
vt 0.6124351 0.3304128
vt 0.57363427 0.27749455
vt 0.5669004 0.28935164
vt 0.57363427 0.28935164
vt 0.5669004 0.27749455
vt 0.62857884 0.27749455
vt 0.6355936 0.28935164
vt 0.6355936 0.27749455
vt 0.62857884 0.28935164
vt 0.6355936 0.3304128
vt 0.62857884 0.3304128
vt 0.6355936 0.35849318
vt 0.62857884 0.35849318
vt 0.60876936 0.2948054
vt 0.5853449 0.3262375
vt 0.60876936 0.3262375
vt 0.5853449 0.31837946
vt 0.57753676 0.3262375
vt 0.60876936 0.2948054
vt 0.60876936 0.3262375
vt 0.5853449 0.31837946
vt 0.5853449 0.3262375
vt 0.57753676 0.3262375
vt 0.6336152 0.35659844
vt 0.63055605 0.35132316
vt 0.6305571 0.35659844
vt 0.6336141 0.35132316
vt 0.632111 0.35132316
vt 0.5873537 0.31635785
vt 0.57753676 0.3262375
vt 0.5795358 0.32423848
vt 0.5853449 0.31837946
vt 0.60876936 0.2948054
vt 0.60876936 0.2948054
vt 0.6041042 0.34824783
vt 0.5653355 0.33951783
vt 0.56534374 0.34824783
vt 0.6041036 0.33951783
vt 0.6041036 0.33951783
vt 0.56534374 0.34824783
vt 0.6041042 0.34824783
vt 0.5653355 0.33951783
vt 0.6124351 0.28935164
vt 0.6124351 0.3304128
vt 0.6124351 0.3304128
vt 0.6124351 0.28935164
vt 0.6124351 0.3304128
vt 0.6124351 0.28935164
vt 0.6124351 0.28935164
vt 0.6124351 0.3304128
vt 0.561292 0.35067105
vt 0.6080168 0.35067105
vt 0.6080168 0.35067105
vt 0.561292 0.35067105
vt 0.6080168 0.35067105
vt 0.6080168 0.33499467
vt 0.6080168 0.33499467
vt 0.6080168 0.35067105
vt 0.6080168 0.33499467
vt 0.561292 0.33499467
vt 0.561292 0.33499467
vt 0.6080168 0.33499467
vt 0.6080168 0.35067105
vt 0.561292 0.35067105
vt 0.561292 0.35067105
vt 0.6080168 0.35067105
vt 0.561292 0.33499467
vt 0.6080168 0.33499467
vt 0.6080168 0.33499467
vt 0.561292 0.33499467
vt 0.6080168 0.33499467
vt 0.6080168 0.35067105
vt 0.6080168 0.35067105
vt 0.6080168 0.33499467
vt 0.67923254 0.359204
vt 0.6726386 0.33930007
vt 0.6726386 0.35920388
vt 0.67923254 0.3393002
vt 0.67923254 0.359204
vt 0.6726386 0.33930007
vt 0.67923254 0.3393002
vt 0.6726386 0.35920388
vn 3.3237735E-05 -0.00021762802 -1
vn 9.439486E-05 -7.697005E-05 -1
vn 0.00012781522 -1.0506358E-07 -1
vn -1.8272402E-07 -0.00029449325 -1
vn -0 1 0
vn -0 1 -1.6494494E-07
vn -0 1 0
vn 1.0896144E-07 1 -1.7105836E-07
vn -0 1 0
vn -1.0675149E-07 1 0
vn -0 1 0
vn -0 1 0
vn -0 1 -1.0523788E-07
vn 1.4899412E-07 1 -1.7855363E-07
vn 1.6722667E-07 1 -2.0040342E-07
vn -1.3684765E-07 1.3161589E-07 -1
vn -2.2802251E-07 3.1590625E-07 -1
vn -0 5.790841E-07 -1
vn -2.5082417E-07 0 -1
vn -0 0 -1
vn -0 0 -1
vn -2.5122247E-07 -2.5116285E-07 -1
vn -1.7699952E-07 -2.1406014E-07 -1
vn -0 -1.6264126E-07 -1
vn -0 -1.255813E-07 -1
vn -0 -4.3071924E-07 -1
vn -0 -4.3071927E-07 -1
vn -0 -4.3071927E-07 -1
vn -0 0 -1
vn -0 0 -1
vn -0 -8.1041463E-07 -1
vn 5.738142E-07 -1.2601637E-07 -1
vn 5.738142E-07 -1.2601637E-07 -1
vn 5.738142E-07 -1.2601637E-07 -1
vn 0.02302829 0.11755062 0.9927999
vn 0.03568178 0.109224066 0.99337655
vn 8.642262E-07 0.13262549 0.9911663
vn 0.056801654 0.095258266 0.99383074
vn -1 0 3.65448E-07
vn -1 0 3.6544793E-07
vn -1 0 3.6544802E-07
vn -1 0 3.654479E-07
vn -1 0 0
vn -1 0 0
vn -1 0 0
vn -1 0 0
vn -1 0 0
vn -1 0 0
vn -1 0 0
vn -1 0 0
vn -1 0 0
vn -1 0 0
vn -1 0 0
vn -1 0 0
vn -1 0 0
vn -1 0 0
vn -1 0 0
vn -1 0 0
vn -1 0 0
vn -1 0 0
vn -1 0 0
vn 0.9925971 0.119006224 0.024256416
vn 0.9931947 0.11023284 0.03758904
vn 0.9936278 0.095516145 0.059836827
vn 0.9908619 0.13488083 -1.7279223E-06
vn -0.7064807 -1.0660175E-06 -0.70773244
vn -0.7064807 -1.0827252E-06 -0.70773244
vn -0.7064805 -9.221323E-07 -0.70773256
vn -0.7064808 -1.2266105E-06 -0.70773226
vn -0.70648074 -6.665844E-07 -0.70773226
vn -0.7064808 -7.1984454E-07 -0.70773226
vn -0.70648104 -8.34262E-07 -0.707732
vn -0.7064811 -8.875222E-07 -0.70773196
vn -0 1 0
vn -2.4237906E-07 1 7.5475316E-07
vn -0 1 0
vn -2.9720835E-07 1 6.136998E-07
vn 3.358497E-07 1 6.714944E-07
vn -0 1 -1.08761405E-07
vn -0 1 -2.1041369E-07
vn 1.2599466E-07 1 1.547689E-07
vn -0 1 3.871662E-07
vn 3.3566025E-07 1 6.695865E-07
vn 0.70649177 0.041711684 0.70649093
vn 0.64584947 -0.40713364 0.64584875
vn 0.7064919 0.04171166 0.7064908
vn 0.6458494 -0.40713364 0.6458489
vn -0 -1 0
vn -2.9720835E-07 1 6.136998E-07
vn 3.3566025E-07 1 6.695865E-07
vn 3.358497E-07 1 6.714944E-07
vn 1.2599466E-07 1 1.547689E-07
vn -0 1 -1.08761405E-07
vn -0 1 0
vn 1.08966894E-07 1.2998152E-06 -1
vn -0 9.0741895E-07 -1
vn -0 8.277436E-07 -1
vn 1.273456E-07 1.3794362E-06 -1
vn -1 0 0
vn -1 0 0
vn -1 0 0
vn -1 0 0
vn 0.9900684 0.0006666351 -0.14058511
vn 0.9900684 0.000666635 -0.1405851
vn 0.9900684 0.00066663505 -0.14058511
vn 0.9900684 0.0006666349 -0.14058511
vn -0.13958126 -0.00033888652 0.99021053
vn -0.13958126 -0.00033888652 0.99021053
vn -0.13958126 -0.00033888652 0.99021053
vn -0.13958128 -0.00033888657 0.99021053
vn -0.44566306 -0.8952008 1.1029983E-07
vn -0.44566306 -0.8952007 1.1029982E-07
vn -0.44566306 -0.8952008 1.1029983E-07
vn -0.44566306 -0.8952008 1.1414066E-07
vn -0.5705715 0.00036633774 0.8212478
vn -0.57057154 0.00036633774 0.8212478
vn -0.57057154 0.00036633774 0.8212478
vn -0.5702987 0.00044564385 0.8214373
vn -0.44566116 0.89520174 0
vn -0.4456612 0.89520174 0
vn -0.44566116 0.89520174 0
vn -0.4456612 0.89520174 0
vn -0 -0.8952008 -0.44566298
vn -0 -0.8952008 -0.445663
vn -0 -0.8952008 -0.44566306
vn -0 -0.8952008 -0.44566298
vn -0 0.8952011 -0.44566256
vn -0 0.8952011 -0.44566247
vn -0 0.8952011 -0.44566253
vn -0 0.89520174 -0.44566116
vn 0.8288395 -0.00072816445 -0.5594859
vn 0.8288395 -0.00072816457 -0.5594859
vn 0.8288395 -0.00072816445 -0.5594859
vn 0.8292101 -0.0008851076 -0.55893624
vn 4.1838211E-07 4.477801E-07 1
vn 3.0379087E-07 4.977932E-07 1
vn 4.8144835E-07 4.2025488E-07 1
vn 2.4072452E-07 5.253184E-07 1
vn 1 1.5507676E-07 -3.5531554E-07
vn 1 0 -1.2613295E-07
vn 1 0 0
vn 1 2.1012717E-07 -4.8144835E-07
g wall_police_desk_C_0
f 3/3/3 2/2/2 1/1/1
f 4/4/4 1/1/1 2/2/2
f 7/7/7 6/6/6 5/5/5
f 8/8/8 5/5/5 6/6/6
f 8/8/8 9/9/9 5/5/5
f 10/10/10 5/5/5 9/9/9
f 10/10/10 12/12/12 11/11/11
f 13/13/13 11/11/11 12/12/12
f 13/13/13 14/14/14 11/11/11
f 15/15/15 11/11/11 14/14/14
f 18/18/18 17/17/17 16/16/16
f 19/19/19 16/16/16 17/17/17
f 16/16/16 19/19/19 20/20/20
f 21/21/21 20/20/20 19/19/19
f 17/17/17 22/22/22 19/19/19
f 23/23/23 19/19/19 22/22/22
f 22/22/22 24/24/24 23/23/23
f 25/25/25 23/23/23 24/24/24
f 27/27/27 26/26/26 25/25/25
f 28/28/28 25/25/25 26/26/26
f 23/23/23 30/30/30 29/29/29
f 31/31/31 29/29/29 30/30/30
f 30/30/30 33/33/33 32/32/32
f 34/34/34 32/32/32 33/33/33
f 37/37/37 36/36/36 35/35/35
f 38/38/38 35/35/35 36/36/36
f 41/41/41 40/40/40 39/39/39
f 42/42/42 39/39/39 40/40/40
f 45/45/45 44/44/44 43/43/43
f 46/46/46 43/43/43 44/44/44
f 44/44/44 47/47/47 46/46/46
f 48/48/48 46/46/46 47/47/47
f 46/46/46 49/49/49 43/43/43
f 50/50/50 43/43/43 49/49/49
f 50/50/50 49/49/49 51/51/51
f 52/52/52 51/51/51 49/49/49
f 54/54/54 53/53/53 49/49/49
f 55/55/55 49/49/49 53/53/53
f 52/52/52 57/57/57 56/56/56
f 58/58/58 56/56/56 57/57/57
f 57/57/57 60/60/60 59/59/59
f 61/61/61 59/59/59 60/60/60
f 64/64/64 63/63/63 62/62/62
f 65/65/65 62/62/62 63/63/63
f 68/68/68 67/67/67 66/66/66
f 69/69/69 66/66/66 67/67/67
f 67/67/67 70/70/70 69/69/69
f 71/71/71 69/69/69 70/70/70
f 70/70/70 72/72/72 71/71/71
f 73/73/73 71/71/71 72/72/72
f 76/76/76 75/75/75 74/74/74
f 75/75/75 77/77/77 74/74/74
f 78/78/78 77/77/77 75/75/75
f 81/81/81 80/80/80 79/79/79
f 82/82/82 80/80/80 81/81/81
f 83/83/83 82/82/82 81/81/81
f 86/86/86 85/85/85 84/84/84
f 85/85/85 87/87/87 84/84/84
f 88/88/88 87/87/87 85/85/85
f 91/91/91 90/90/90 89/89/89
f 92/92/92 89/89/89 90/90/90
f 92/92/92 93/93/93 89/89/89
f 94/94/94 89/89/89 93/93/93
f 97/97/97 96/96/96 95/95/95
f 98/98/98 95/95/95 96/96/96
f 101/101/101 100/100/100 99/99/99
f 102/102/102 99/99/99 100/100/100
f 105/105/105 104/104/104 103/103/103
f 106/106/106 103/103/103 104/104/104
f 109/109/109 108/108/108 107/107/107
f 110/110/110 107/107/107 108/108/108
f 113/113/113 112/112/112 111/111/111
f 114/114/114 111/111/111 112/112/112
f 117/117/117 116/116/116 115/115/115
f 118/118/118 115/115/115 116/116/116
f 121/121/121 120/120/120 119/119/119
f 122/122/122 119/119/119 120/120/120
f 125/125/125 124/124/124 123/123/123
f 126/126/126 123/123/123 124/124/124
f 129/129/129 128/128/128 127/127/127
f 130/130/130 127/127/127 128/128/128
f 133/133/133 132/132/132 131/131/131
f 134/134/134 131/131/131 132/132/132
f 137/137/137 136/136/136 135/135/135
f 138/138/138 135/135/135 136/136/136
f 141/141/141 140/140/140 139/139/139
f 142/142/142 139/139/139 140/140/140
