g wall_plywood_S
v -0.50349563 -1.0063786E-06 -0.6136096
v 0.50350475 -1.0063786E-06 -0.613609
v 0.5035035 0.1749842 -0.54017735
v -0.5034976 0.17498413 -0.5401778
v 0.5035035 0.1749842 -0.54017735
v 0.5035037 0.17498425 -0.46657032
v -0.5034976 0.17498417 -0.46657076
v -0.5034976 0.17498413 -0.5401778
v -0.50350666 2.023318 0.08956246
v -0.5034976 0.1749841 -0.46657145
v 0.5035037 0.17498425 -0.4665709
v 0.50349814 2.023318 0.08956229
v 0.5034963 2.2472255 0.148793
v 0.50349975 2.24723 0.44099906
v -0.5034975 2.2472293 0.44099876
v -0.5035087 2.2472255 0.14879346
v -0.50350666 2.0833602 0.06983668
v -0.50350666 2.023318 0.08956246
v 0.50349814 2.023318 0.08956229
v 0.50349814 2.0833602 0.06983655
v 0.50349814 2.0833602 0.06983655
v 0.5034963 2.2472255 0.148793
v -0.5035087 2.2472255 0.14879346
v -0.50350666 2.0833602 0.06983668
v -0.5034952 2.1896448 0.50011617
v -0.5034975 2.2472293 0.44099876
v 0.50349975 2.24723 0.44099906
v 0.50350034 2.1896455 0.50011665
v 0.5035052 2.1896443 0.50011677
v 0.50350475 -8.5770773E-07 0.50011724
v -0.5034952 -8.577076E-07 0.5001169
v -0.5034948 2.189644 0.50011647
v 0.50350064 2.0661676 0.07807099
v 0.41064352 2.0661676 0.078071065
v 0.41064522 0.17498405 -0.50527
v 0.503502 0.17498413 -0.50526977
v -0.41064125 2.0661676 0.078070894
v -0.50349844 2.0661676 0.07807099
v -0.50349706 0.17498413 -0.50526977
v -0.4106402 0.1749842 -0.50526947
v -0.4106402 0.1749842 -0.50526947
v -0.37824354 0.1749842 -0.45515025
v -0.3782449 2.0661676 0.12819014
v -0.41064125 2.0661676 0.078070894
v 0.41064352 2.0661676 0.078071065
v 0.37824675 2.0661676 0.12819031
v 0.37824914 0.17498405 -0.45515078
v 0.41064522 0.17498405 -0.50527
v 0.50341195 1.4265462 -0.100746736
v 0.50341195 1.5194032 -0.07376488
v -0.50356954 1.5194014 -0.07402963
v -0.50356954 1.4265447 -0.101011485
v 0.50341195 1.5194032 -0.07376488
v 0.50385064 1.5517999 -0.03993752
v -0.50320834 1.5517976 -0.03996579
v -0.50356954 1.5194014 -0.07402963
v 0.50341195 0.73417884 -0.315616
v 0.50341195 0.8270359 -0.28863418
v -0.50356954 0.82703406 -0.28889892
v -0.50356954 0.7341773 -0.31588078
v 0.50341195 0.8270359 -0.28863418
v 0.50385064 0.8594326 -0.25480682
v -0.50320834 0.8594303 -0.25483507
v -0.50356954 0.82703406 -0.28889892
v 0.5034121 0.7589912 -0.29526323
v 0.5034121 0.85184824 -0.27785975
v -0.5035694 1.4928312 -0.09154916
v -0.5035694 1.3999745 -0.10895274
v 0.5034121 0.85184824 -0.27785975
v 0.5038508 0.88424444 -0.22995214
v -0.5032082 1.5252274 -0.04340519
v -0.5035694 1.4928312 -0.09154916
v 0.50333434 2.1112475 0.102188006
v -0.5036472 1.5516735 -0.064491525
v -0.5036472 1.4588164 -0.08152634
v 0.50333434 2.0183907 0.08515317
v -0.5036472 1.5516735 -0.064491525
v 0.50333434 2.1112475 0.102188006
v 0.50297326 2.1436436 0.15033196
v -0.5040859 1.5840702 -0.016584033
v 0.50333434 0.7953446 -0.29755595
v -0.5036472 0.17798851 -0.48370683
v -0.5036472 0.08513144 -0.51574093
v 0.50333434 0.7024879 -0.32959014
v -0.5036472 0.17798851 -0.48370683
v 0.50333434 0.7953446 -0.29755595
v 0.50297326 0.8277409 -0.24941203
v -0.5040859 0.21038526 -0.4357993
vt 0.57447386 0.75394505
vt 0.5561569 0.75394505
vt 0.5561569 0.7591842
vt 0.57447386 0.7591841
vt 0.5561569 0.7591842
vt 0.5561569 0.762106
vt 0.57447386 0.76210594
vt 0.57447386 0.7591841
vt 0.5963429 0.7796916
vt 0.5963429 0.754252
vt 0.5923693 0.75425196
vt 0.5923693 0.77969146
vt 0.5585209 0.7687839
vt 0.5585209 0.77662385
vt 0.5722928 0.7766238
vt 0.5722928 0.7687839
vt 0.5747527 0.76523614
vt 0.5747527 0.7639887
vt 0.556061 0.7639887
vt 0.556061 0.76523614
vt 0.556061 0.76523614
vt 0.556061 0.76831275
vt 0.5747527 0.76831275
vt 0.5747527 0.76523614
vt 0.5722928 0.7782411
vt 0.5722928 0.7770281
vt 0.5585209 0.7770281
vt 0.5585209 0.7782411
vt 0.122555435 0.7648911
vt 0.122555435 0.7659151
vt 0.123563826 0.7659151
vt 0.123563826 0.7648911
vt 0.6032101 0.82404363
vt 0.6064795 0.8240437
vt 0.6064795 0.79437244
vt 0.6032101 0.79437244
vt 0.6064795 0.8240436
vt 0.6032101 0.82404363
vt 0.6032101 0.79437244
vt 0.6064795 0.7943724
vt 0.6064795 0.7943724
vt 0.6080637 0.7943724
vt 0.6080637 0.8240436
vt 0.6064795 0.8240436
vt 0.6064795 0.8240437
vt 0.6080637 0.8240437
vt 0.6080637 0.79437244
vt 0.6064795 0.79437244
vt 0.6032101 0.82404363
vt 0.6064795 0.8240437
vt 0.6064795 0.79437244
vt 0.6032101 0.79437244
vt 0.6064795 0.8240437
vt 0.6080637 0.8240437
vt 0.6080637 0.79437244
vt 0.6064795 0.79437244
vt 0.6032101 0.82404363
vt 0.6064795 0.8240437
vt 0.6064795 0.79437244
vt 0.6032101 0.79437244
vt 0.6064795 0.8240437
vt 0.6080637 0.8240437
vt 0.6080637 0.79437244
vt 0.6064795 0.79437244
vt 0.6032101 0.82404363
vt 0.6064795 0.8240437
vt 0.6064795 0.79437244
vt 0.6032101 0.79437244
vt 0.6064795 0.8240437
vt 0.6080637 0.8240437
vt 0.6080637 0.79437244
vt 0.6064795 0.79437244
vt 0.6064795 0.79437244
vt 0.6064795 0.8240437
vt 0.6032101 0.82404363
vt 0.6032101 0.79437244
vt 0.6064795 0.8240437
vt 0.6064795 0.79437244
vt 0.6080637 0.79437244
vt 0.6080637 0.8240437
vt 0.6064795 0.79437244
vt 0.6064795 0.8240437
vt 0.6032101 0.82404363
vt 0.6032101 0.79437244
vt 0.6064795 0.8240437
vt 0.6064795 0.79437244
vt 0.6080637 0.79437244
vt 0.6080637 0.8240437
vn 4.782305E-07 0.38695446 -0.9220989
vn 4.7823045E-07 0.38695446 -0.9220989
vn 4.782305E-07 0.38695446 -0.9220989
vn 4.782305E-07 0.3869545 -0.92209876
vn -0 1 -5.218792E-07
vn -0 1 -5.218792E-07
vn -0 1 -5.218792E-07
vn -0 1 -5.2187926E-07
vn 1.5284458E-07 0.28812417 -0.957593
vn 1.5284458E-07 0.28812414 -0.957593
vn 1.5284456E-07 0.28812414 -0.957593
vn 1.5284459E-07 0.28812414 -0.957593
vn -3.0517663E-07 1 -1.4197909E-05
vn -3.051766E-07 1 -1.419791E-05
vn -3.051766E-07 1 -1.419791E-05
vn -3.0517663E-07 1 -1.419791E-05
vn -1.4473729E-07 -0.31212014 -0.95004267
vn -1.4473729E-07 -0.31212014 -0.95004267
vn -1.4473729E-07 -0.31212014 -0.95004267
vn -1.4473729E-07 -0.31212014 -0.95004267
vn -2.7084607E-07 0.43407652 -0.9008759
vn -2.7084613E-07 0.43407655 -0.90087605
vn -2.7084616E-07 0.43407655 -0.90087605
vn -2.708461E-07 0.43407652 -0.9008759
vn -7.587137E-07 0.71633345 0.69775814
vn -7.587138E-07 0.7163335 0.6977581
vn -7.5871367E-07 0.7163335 0.6977581
vn -7.5871367E-07 0.7163335 0.6977581
vn -3.051758E-07 1.929784E-07 1
vn -3.0517577E-07 1.929784E-07 1
vn -3.0517577E-07 1.9297839E-07 1
vn -3.051758E-07 1.929784E-07 1
vn 9.4300395E-07 0.29474968 -0.95557445
vn 9.4300384E-07 0.29474965 -0.95557445
vn 9.4300395E-07 0.29474968 -0.9555746
vn 9.4300384E-07 0.29474968 -0.95557445
vn 8.082887E-07 0.2947495 -0.9555746
vn 8.0828875E-07 0.2947495 -0.9555746
vn 8.0828875E-07 0.29474947 -0.9555746
vn 8.0828875E-07 0.2947495 -0.9555746
vn 0.8282953 0.16514616 -0.53540045
vn 0.8282953 0.16514614 -0.5354004
vn 0.8282953 0.16514617 -0.5354004
vn 0.8282953 0.16514616 -0.53540045
vn -0.8282962 0.16514462 -0.5353995
vn -0.8282962 0.16514462 -0.5353995
vn -0.8282962 0.16514465 -0.5353995
vn -0.8282962 0.16514462 -0.5353995
vn 0.0002520031 0.2790332 -0.9602814
vn 0.00025200305 0.27903318 -0.9602814
vn 0.00025200308 0.2790332 -0.9602814
vn 0.00025200308 0.2790332 -0.9602814
vn 9.895705E-05 0.7234207 -0.69040745
vn 9.895706E-05 0.7234207 -0.69040745
vn 9.895705E-05 0.7234207 -0.69040745
vn 9.8957054E-05 0.72342074 -0.69040745
vn 0.00025200236 0.2790331 -0.9602815
vn 0.00025200238 0.2790331 -0.9602815
vn 0.00025200236 0.2790331 -0.9602815
vn 0.00025200238 0.2790331 -0.9602815
vn 9.895731E-05 0.72342074 -0.69040745
vn 9.89573E-05 0.7234207 -0.69040745
vn 9.895731E-05 0.72342074 -0.69040745
vn 9.89573E-05 0.72342074 -0.69040745
vn -0.06445768 0.18383245 -0.9808419
vn -0.06445768 0.18383245 -0.9808419
vn -0.06445768 0.18383245 -0.9808419
vn -0.06445768 0.18383244 -0.9808419
vn 0.3893186 0.7621049 -0.5173269
vn 0.3893186 0.7621049 -0.5173269
vn 0.3893186 0.7621049 -0.5173269
vn 0.38931856 0.76210487 -0.5173269
vn 0.062414885 0.18008937 -0.98166806
vn 0.06241487 0.18008935 -0.98166806
vn 0.062414885 0.18008938 -0.98166806
vn 0.062414877 0.18008937 -0.98166806
vn -0.34444648 0.7769531 -0.5269729
vn -0.34444648 0.7769531 -0.5269729
vn -0.34444654 0.7769531 -0.52697295
vn -0.34444648 0.7769531 -0.5269729
vn -0.025176616 0.32601938 -0.94502777
vn -0.025176616 0.32601938 -0.94502777
vn -0.025176616 0.32601938 -0.94502777
vn -0.025176616 0.32601935 -0.94502777
vn -0.37411222 0.7673682 -0.5207554
vn -0.37411225 0.7673682 -0.5207554
vn -0.3741122 0.7673682 -0.52075535
vn -0.37411216 0.7673681 -0.5207554
g wall_plywood_S_0
f 3/3/3 2/2/2 1/1/1
f 4/4/4 3/3/3 1/1/1
f 7/7/7 6/6/6 5/5/5
f 8/8/8 7/7/7 5/5/5
f 11/11/11 10/10/10 9/9/9
f 12/12/12 11/11/11 9/9/9
f 15/15/15 14/14/14 13/13/13
f 16/16/16 15/15/15 13/13/13
f 19/19/19 18/18/18 17/17/17
f 20/20/20 19/19/19 17/17/17
f 23/23/23 22/22/22 21/21/21
f 24/24/24 23/23/23 21/21/21
f 27/27/27 26/26/26 25/25/25
f 28/28/28 27/27/27 25/25/25
f 31/31/31 30/30/30 29/29/29
f 32/32/32 31/31/31 29/29/29
f 35/35/35 34/34/34 33/33/33
f 36/36/36 35/35/35 33/33/33
f 39/39/39 38/38/38 37/37/37
f 40/40/40 39/39/39 37/37/37
f 43/43/43 42/42/42 41/41/41
f 44/44/44 43/43/43 41/41/41
f 47/47/47 46/46/46 45/45/45
f 48/48/48 47/47/47 45/45/45
f 51/51/51 50/50/50 49/49/49
f 52/52/52 51/51/51 49/49/49
f 55/55/55 54/54/54 53/53/53
f 56/56/56 55/55/55 53/53/53
f 59/59/59 58/58/58 57/57/57
f 60/60/60 59/59/59 57/57/57
f 63/63/63 62/62/62 61/61/61
f 64/64/64 63/63/63 61/61/61
f 67/67/67 66/66/66 65/65/65
f 68/68/68 67/67/67 65/65/65
f 71/71/71 70/70/70 69/69/69
f 72/72/72 71/71/71 69/69/69
f 75/75/75 74/74/74 73/73/73
f 76/76/76 75/75/75 73/73/73
f 79/79/79 78/78/78 77/77/77
f 80/80/80 79/79/79 77/77/77
f 83/83/83 82/82/82 81/81/81
f 84/84/84 83/83/83 81/81/81
f 87/87/87 86/86/86 85/85/85
f 88/88/88 87/87/87 85/85/85
