g wall_cone
v -0.33948857 0.2288434 0.41305175
v 0.4130518 0.22884335 0.33948857
v 0.33948857 0.2288434 0.41305175
v 0.33948857 0.22884344 -0.41305184
v 0.4130518 0.22884347 -0.33948857
v -0.4130518 0.22884347 -0.33948857
v -0.4130518 0.22884335 0.33948857
v -0.33948857 0.22884344 -0.41305184
v -0.3500529 0.15375772 0.42073143
v 0.33948857 0.2288434 0.41305175
v 0.3500529 0.15375772 0.42073143
v -0.33948857 0.2288434 0.41305175
v 0.42073143 0.15375772 0.3500529
v 0.4130518 0.22884347 -0.33948857
v 0.42073143 0.1537578 -0.3500529
v 0.4130518 0.22884335 0.33948857
v 0.3500529 0.1537578 -0.42073143
v -0.33948857 0.22884344 -0.41305184
v -0.3500529 0.1537578 -0.42073143
v 0.33948857 0.22884344 -0.41305184
v -0.42073143 0.1537578 -0.3500529
v -0.4130518 0.22884335 0.33948857
v -0.42073143 0.15375772 0.3500529
v -0.4130518 0.22884347 -0.33948857
v 0.3500529 0.15375772 0.42073143
v 0.4130518 0.22884335 0.33948857
v 0.42073143 0.15375772 0.3500529
v 0.33948857 0.2288434 0.41305175
v -0.33948857 0.2288434 0.41305175
v -0.42073143 0.15375772 0.3500529
v -0.4130518 0.22884335 0.33948857
v -0.3500529 0.15375772 0.42073143
v 0.42073143 0.1537578 -0.3500529
v 0.33948857 0.22884344 -0.41305184
v 0.3500529 0.1537578 -0.42073143
v 0.4130518 0.22884347 -0.33948857
v -0.3500529 0.1537578 -0.42073143
v -0.4130518 0.22884347 -0.33948857
v -0.42073143 0.1537578 -0.3500529
v -0.33948857 0.22884344 -0.41305184
v 0.23259336 0.21992841 -0.23259337
v -3.1776004E-09 1.0414187 0.25251126
v -1.4378281E-08 0.21992841 -0.3289368
v 0.033308916 1.0414187 0.26630822
v 0.3289367 0.21992849 1.922676E-08
v 0.047105916 1.0414187 0.29961723
v 0.23259336 0.21992843 0.23259348
v 0.033308893 1.0414187 0.33292606
v 3.9225316E-09 0.21992843 0.3289367
v -5.568052E-10 1.0414187 0.346723
v -3.1776004E-09 1.0414187 0.25251126
v 0.033308916 1.0414187 0.26630822
v -5.568052E-10 1.0414187 0.346723
v 0.033308893 1.0414187 0.33292606
v -0.047105912 1.0414187 0.29961723
v -0.033308923 1.0414187 0.26630822
v -0.0333089 1.0414187 0.33292606
v -0.033308923 1.0414187 0.26630822
v -1.4378281E-08 0.21992841 -0.3289368
v -3.1776004E-09 1.0414187 0.25251126
v -0.23259336 0.21992841 -0.23259337
v -0.047105912 1.0414187 0.29961723
v -0.3289367 0.21992849 5.7640765E-08
v -0.0333089 1.0414187 0.33292606
v -0.23259336 0.21992843 0.23259348
v -5.568052E-10 1.0414187 0.346723
v 3.9225316E-09 0.21992843 0.3289367
v -0.417775 0.14986856 0.29891127
v 0.29891127 0.14986853 0.417775
v 0.21234815 0.14986853 0.46775222
v 0.417775 0.1498686 -0.29891127
v 0.46775222 0.14986853 -0.2123481
v -0.29891127 0.14986861 -0.417775
v -0.46775228 0.1498686 0.21234818
v -0.21234815 0.14986861 -0.46775222
v -0.44701838 0.070854194 0.31579497
v 0.21234815 0.14986853 0.46775222
v 0.2292318 0.07085417 0.4969957
v -0.417775 0.14986856 0.29891127
v 0.315795 0.07085418 0.44701838
v 0.46775222 0.14986853 -0.2123481
v 0.4969957 0.07085424 -0.22923182
v 0.29891127 0.14986853 0.417775
v 0.44701838 0.07085425 -0.31579503
v -0.21234815 0.14986861 -0.46775222
v -0.2292318 0.07085427 -0.4969957
v 0.417775 0.1498686 -0.29891127
v -0.315795 0.07085426 -0.44701838
v -0.46775228 0.1498686 0.21234818
v -0.4969957 0.07085418 0.22923179
v -0.29891127 0.14986861 -0.417775
v 0.2292318 0.07085417 0.4969957
v 0.29891127 0.14986853 0.417775
v 0.315795 0.07085418 0.44701838
v 0.21234815 0.14986853 0.46775222
v -0.417775 0.14986856 0.29891127
v -0.4969957 0.07085418 0.22923179
v -0.46775228 0.1498686 0.21234818
v -0.44701838 0.070854194 0.31579497
v 0.4969957 0.07085424 -0.22923182
v 0.417775 0.1498686 -0.29891127
v 0.44701838 0.07085425 -0.31579503
v 0.46775222 0.14986853 -0.2123481
v -0.2292318 0.07085427 -0.4969957
v -0.29891127 0.14986861 -0.417775
v -0.315795 0.07085426 -0.44701838
v -0.21234815 0.14986861 -0.46775222
v -0.29844537 0.07311435 0.43559295
v 0.43559295 0.073114395 0.29844537
v 0.36955124 0.07311436 0.3771508
v 0.29844537 0.073114425 -0.43559295
v 0.3771508 0.07311442 -0.36955124
v -0.43559295 0.07311442 -0.29844537
v -0.3771508 0.07311437 0.36955124
v -0.36955124 0.07311443 -0.3771508
v -0.31205168 -0.007962447 0.44963953
v 0.36955124 0.07311436 0.3771508
v 0.38539 -0.00796244 0.38862127
v -0.29844537 0.07311435 0.43559295
v 0.44963953 -0.007962435 0.31205168
v 0.3771508 0.07311442 -0.36955124
v 0.38862127 -0.007962368 -0.38539
v 0.43559295 0.073114395 0.29844537
v 0.31205168 -0.0079623675 -0.44963953
v -0.36955124 0.07311443 -0.3771508
v -0.38539 -0.007962373 -0.38862127
v 0.29844537 0.073114425 -0.43559295
v -0.44963953 -0.007962369 -0.31205168
v -0.3771508 0.07311437 0.36955124
v -0.38862127 -0.0079624355 0.38539
v -0.43559295 0.07311442 -0.29844537
v 0.38539 -0.00796244 0.38862127
v 0.43559295 0.073114395 0.29844537
v 0.44963953 -0.007962435 0.31205168
v 0.36955124 0.07311436 0.3771508
v -0.29844537 0.07311435 0.43559295
v -0.38862127 -0.0079624355 0.38539
v -0.3771508 0.07311437 0.36955124
v -0.31205168 -0.007962447 0.44963953
v 0.38862127 -0.007962368 -0.38539
v 0.29844537 0.073114425 -0.43559295
v 0.31205168 -0.0079623675 -0.44963953
v 0.3771508 0.07311442 -0.36955124
v -0.38539 -0.007962373 -0.38862127
v -0.43559295 0.07311442 -0.29844537
v -0.44963953 -0.007962369 -0.31205168
v -0.36955124 0.07311443 -0.3771508
vt 0.15763465 0.30647227
vt 0.13663892 0.3043222
vt 0.13869132 0.30647227
vt 0.13869132 0.28232768
vt 0.13663892 0.28447774
vt 0.15968703 0.28447774
vt 0.15968703 0.3043222
vt 0.15763465 0.28232768
vt 0.13609861 0.3296513
vt 0.15115373 0.3575024
vt 0.13609861 0.3575024
vt 0.15115371 0.3296513
vt 0.13609861 0.3090827
vt 0.15115371 0.3215677
vt 0.13609861 0.3215677
vt 0.15115371 0.3090827
vt 0.13609861 0.3575024
vt 0.15115371 0.3296513
vt 0.13609861 0.3296513
vt 0.15115373 0.3575024
vt 0.13609861 0.3215677
vt 0.15115371 0.3090827
vt 0.13609861 0.3090827
vt 0.15115371 0.3215677
vt 0.13609861 0.3296513
vt 0.15115371 0.3215677
vt 0.13609861 0.3215677
vt 0.15115371 0.3296513
vt 0.15115371 0.3296513
vt 0.13609861 0.3215677
vt 0.15115371 0.3215677
vt 0.13609861 0.3296513
vt 0.13609861 0.3215677
vt 0.15115371 0.3296513
vt 0.13609861 0.3296513
vt 0.15115371 0.3215677
vt 0.13609861 0.3296513
vt 0.15115371 0.3215677
vt 0.13609861 0.3215677
vt 0.15115371 0.3296513
vt 0.1453234 0.24112798
vt 0.13663873 0.27968308
vt 0.13663873 0.24112798
vt 0.1453234 0.27968308
vt 0.15336156 0.24112798
vt 0.15336156 0.27968308
vt 0.16063866 0.24112798
vt 0.16063866 0.27968308
vt 0.1647565 0.24112798
vt 0.1647565 0.27968308
vt 0.13663873 0.27968308
vt 0.1453234 0.27968308
vt 0.1647565 0.27968308
vt 0.16063866 0.27968308
vt 0.15336156 0.27968308
vt 0.1453234 0.27968308
vt 0.16063866 0.27968308
vt 0.1453234 0.27968308
vt 0.13663873 0.24112798
vt 0.13663873 0.27968308
vt 0.1453234 0.24112798
vt 0.15336156 0.27968308
vt 0.15336156 0.24112798
vt 0.16063866 0.27968308
vt 0.16063866 0.24112798
vt 0.1647565 0.27968308
vt 0.1647565 0.24112798
vt 0.15763465 0.30647227
vt 0.13663892 0.3043222
vt 0.13869132 0.30647227
vt 0.13869132 0.28232768
vt 0.13663892 0.28447774
vt 0.15968703 0.28447774
vt 0.15968703 0.3043222
vt 0.15763465 0.28232768
vt 0.13609861 0.3296513
vt 0.15115373 0.3575024
vt 0.13609861 0.3575024
vt 0.15115371 0.3296513
vt 0.13609861 0.3090827
vt 0.15115371 0.3215677
vt 0.13609861 0.3215677
vt 0.15115371 0.3090827
vt 0.13609861 0.3575024
vt 0.15115371 0.3296513
vt 0.13609861 0.3296513
vt 0.15115373 0.3575024
vt 0.13609861 0.3215677
vt 0.15115371 0.3090827
vt 0.13609861 0.3090827
vt 0.15115371 0.3215677
vt 0.13609861 0.3296513
vt 0.15115371 0.3215677
vt 0.13609861 0.3215677
vt 0.15115371 0.3296513
vt 0.15115371 0.3296513
vt 0.13609861 0.3215677
vt 0.15115371 0.3215677
vt 0.13609861 0.3296513
vt 0.13609861 0.3215677
vt 0.15115371 0.3296513
vt 0.13609861 0.3296513
vt 0.15115371 0.3215677
vt 0.13609861 0.3296513
vt 0.15115371 0.3215677
vt 0.13609861 0.3215677
vt 0.15115371 0.3296513
vt 0.15763465 0.30647227
vt 0.13663892 0.3043222
vt 0.13869132 0.30647227
vt 0.13869132 0.28232768
vt 0.13663892 0.28447774
vt 0.15968703 0.28447774
vt 0.15968703 0.3043222
vt 0.15763465 0.28232768
vt 0.13609861 0.3296513
vt 0.15115373 0.3575024
vt 0.13609861 0.3575024
vt 0.15115371 0.3296513
vt 0.13609861 0.3090827
vt 0.15115371 0.3215677
vt 0.13609861 0.3215677
vt 0.15115371 0.3090827
vt 0.13609861 0.3575024
vt 0.15115371 0.3296513
vt 0.13609861 0.3296513
vt 0.15115373 0.3575024
vt 0.13609861 0.3215677
vt 0.15115371 0.3090827
vt 0.13609861 0.3090827
vt 0.15115371 0.3215677
vt 0.13609861 0.3296513
vt 0.15115371 0.3215677
vt 0.13609861 0.3215677
vt 0.15115371 0.3296513
vt 0.15115371 0.3296513
vt 0.13609861 0.3215677
vt 0.15115371 0.3215677
vt 0.13609861 0.3296513
vt 0.13609861 0.3215677
vt 0.15115371 0.3296513
vt 0.13609861 0.3296513
vt 0.15115371 0.3215677
vt 0.13609861 0.3296513
vt 0.15115371 0.3215677
vt 0.13609861 0.3215677
vt 0.15115371 0.3296513
vn -2.3795965E-07 1 0
vn -0 1 -1.4235363E-07
vn -0 1 -7.8328566E-07
vn -0 1 1.0288068E-07
vn -4.308241E-07 1 1.6972885E-07
vn -0 1 0
vn -9.5301414E-07 1 1.6972885E-07
vn -0 1 -2.6109498E-07
vn -0 0.10174769 0.9948102
vn -0 0.10174769 0.9948102
vn -0 0.10174769 0.9948102
vn -0 0.1017477 0.9948102
vn 0.9948102 0.10174725 0
vn 0.9948102 0.10174723 0
vn 0.99481034 0.10174723 0
vn 0.9948102 0.10174728 0
vn -0 0.101746745 -0.99481034
vn -0 0.10174674 -0.99481034
vn -0 0.101746745 -0.99481034
vn -0 0.10174674 -0.99481034
vn -0.9948102 0.10174722 0
vn -0.9948102 0.10174726 0
vn -0.9948102 0.10174727 0
vn -0.99481034 0.10174723 0
vn 0.69689584 0.16932835 0.696896
vn 0.69689584 0.16932835 0.696896
vn 0.69689596 0.16932821 0.69689596
vn 0.6968958 0.16932845 0.696896
vn -0.6968959 0.16932836 0.69689596
vn -0.6968958 0.16932833 0.696896
vn -0.6968958 0.16932823 0.696896
vn -0.6968959 0.1693285 0.6968959
vn 0.69689614 0.16932805 -0.6968959
vn 0.696896 0.16932794 -0.69689584
vn 0.696896 0.16932787 -0.696896
vn 0.69689614 0.16932817 -0.69689584
vn -0.696896 0.16932799 -0.69689584
vn -0.696896 0.16932803 -0.69689596
vn -0.69689596 0.16932817 -0.69689596
vn -0.69689614 0.16932788 -0.6968959
vn 0.5755354 0.5219497 -0.6295455
vn 1.0449695E-07 0.84143865 -0.54035264
vn 2.691423E-07 0.5777256 -0.81623095
vn 0.43615943 0.8142977 -0.3829939
vn 0.9358461 0.34581363 -0.06786064
vn 0.6718295 0.7381702 0.06123553
vn 0.74405736 0.09981567 0.6606176
vn 0.49933437 0.65548825 0.5665689
vn -0 -0.021646222 0.9997657
vn -0 0.6221187 0.782923
vn 1.0449695E-07 0.84143865 -0.54035264
vn 0.43615943 0.8142977 -0.3829939
vn -0 0.6221187 0.782923
vn 0.49933437 0.65548825 0.5665689
vn -0.6718297 0.7381702 0.06123551
vn -0.4361597 0.8142976 -0.38299373
vn -0.49933448 0.655488 0.566569
vn -0.4361597 0.8142976 -0.38299373
vn 2.691423E-07 0.5777256 -0.81623095
vn 1.0449695E-07 0.84143865 -0.54035264
vn -0.5755353 0.52194965 -0.6295455
vn -0.6718297 0.7381702 0.06123551
vn -0.9358461 0.34581363 -0.06786061
vn -0.49933448 0.655488 0.566569
vn -0.7440575 0.09981574 0.66061735
vn -0 0.6221187 0.782923
vn -0 -0.021646222 0.9997657
vn 1.5235226E-07 1 1.036906E-07
vn -0 1 0
vn -0 1 0
vn 2.3952248E-07 1 1.1814794E-07
vn 7.87476E-07 1 2.1100354E-07
vn -0 1 0
vn 4.88924E-07 1 1.6148813E-07
vn -0 1 0
vn -0.24775398 0.2892682 0.92463064
vn -0.24775401 0.2892689 0.92463046
vn -0.24775404 0.28926897 0.92463046
vn -0.24775395 0.2892681 0.92463064
vn 0.9246305 0.2892686 0.24775398
vn 0.92463046 0.289269 0.247754
vn 0.92463046 0.28926903 0.24775401
vn 0.9246305 0.28926858 0.24775398
vn 0.24775393 0.289269 -0.92463046
vn 0.24775393 0.28926903 -0.92463046
vn 0.24775393 0.28926903 -0.92463046
vn 0.24775393 0.28926903 -0.92463046
vn -0.9246305 0.2892686 -0.24775401
vn -0.9246305 0.28926855 -0.24775401
vn -0.9246305 0.2892685 -0.24775401
vn -0.9246305 0.28926858 -0.24775401
vn 0.45977435 0.39297614 0.79635245
vn 0.45977435 0.39297614 0.79635245
vn 0.45977452 0.39297602 0.79635245
vn 0.4597742 0.39297637 0.79635245
vn -0.79635257 0.39297575 0.4597747
vn -0.79635257 0.3929757 0.4597747
vn -0.79635245 0.39297557 0.45977482
vn -0.79635257 0.39297584 0.45977458
vn 0.79635245 0.39297667 -0.45977402
vn 0.79635245 0.39297658 -0.4597741
vn 0.7963524 0.39297634 -0.4597744
vn 0.79635245 0.39297694 -0.45977378
vn -0.45977435 0.39297614 -0.79635245
vn -0.45977443 0.39297625 -0.79635245
vn -0.4597746 0.39297602 -0.79635245
vn -0.4597742 0.39297643 -0.79635245
vn -0 1 0
vn -0 1 1.839591E-07
vn -0 1 5.137231E-07
vn -0 1 0
vn 1.0564728E-07 1 0
vn -0 1 1.4240656E-07
vn 3.4298006E-07 1 0
vn -0 1 2.763902E-07
vn 0.08608829 0.15602987 0.98399365
vn 0.086088315 0.15602973 0.98399365
vn 0.086088315 0.15602973 0.98399365
vn 0.08608829 0.15602987 0.98399365
vn 0.98399365 0.15602978 -0.086088285
vn 0.98399365 0.15602976 -0.0860883
vn 0.98399365 0.15602973 -0.0860883
vn 0.98399365 0.15602979 -0.08608829
vn -0.08608829 0.15602987 -0.98399365
vn -0.08608832 0.15602972 -0.98399365
vn -0.086088315 0.1560297 -0.98399365
vn -0.08608829 0.15602987 -0.98399365
vn -0.98399365 0.15602985 0.0860883
vn -0.98399365 0.15602973 0.086088344
vn -0.98399365 0.1560297 0.08608833
vn -0.98399365 0.15602988 0.0860883
vn 0.744792 0.23391512 0.62495476
vn 0.744792 0.23391512 0.62495476
vn 0.744792 0.2339152 0.62495494
vn 0.74479204 0.23391509 0.6249548
vn -0.62495476 0.23391518 0.74479204
vn -0.62495476 0.23391518 0.74479216
vn -0.62495476 0.23391514 0.74479216
vn -0.6249548 0.23391525 0.744792
vn 0.6249548 0.23391524 -0.744792
vn 0.62495476 0.23391521 -0.744792
vn 0.6249548 0.23391525 -0.744792
vn 0.62495476 0.23391514 -0.74479204
vn -0.744792 0.23391517 -0.62495476
vn -0.744792 0.2339152 -0.62495476
vn -0.744792 0.2339153 -0.6249548
vn -0.74479216 0.23391514 -0.62495476
g wall_cone_0
f 3/3/3 2/2/2 1/1/1
f 2/2/2 4/4/4 1/1/1
f 5/5/5 4/4/4 2/2/2
f 4/4/4 6/6/6 1/1/1
f 1/1/1 6/6/6 7/7/7
f 8/8/8 6/6/6 4/4/4
f 11/11/11 10/10/10 9/9/9
f 12/12/12 9/9/9 10/10/10
f 15/15/15 14/14/14 13/13/13
f 16/16/16 13/13/13 14/14/14
f 19/19/19 18/18/18 17/17/17
f 20/20/20 17/17/17 18/18/18
f 23/23/23 22/22/22 21/21/21
f 24/24/24 21/21/21 22/22/22
f 27/27/27 26/26/26 25/25/25
f 28/28/28 25/25/25 26/26/26
f 31/31/31 30/30/30 29/29/29
f 32/32/32 29/29/29 30/30/30
f 35/35/35 34/34/34 33/33/33
f 36/36/36 33/33/33 34/34/34
f 39/39/39 38/38/38 37/37/37
f 40/40/40 37/37/37 38/38/38
f 43/43/43 42/42/42 41/41/41
f 44/44/44 41/41/41 42/42/42
f 41/41/41 44/44/44 45/45/45
f 46/46/46 45/45/45 44/44/44
f 45/45/45 46/46/46 47/47/47
f 48/48/48 47/47/47 46/46/46
f 47/47/47 48/48/48 49/49/49
f 50/50/50 49/49/49 48/48/48
f 52/52/52 51/51/51 46/46/46
f 51/51/51 53/53/53 46/46/46
f 46/46/46 53/53/53 54/54/54
f 55/55/55 53/53/53 51/51/51
f 56/56/56 55/55/55 51/51/51
f 57/57/57 53/53/53 55/55/55
f 60/60/60 59/59/59 58/58/58
f 61/61/61 58/58/58 59/59/59
f 58/58/58 61/61/61 62/62/62
f 63/63/63 62/62/62 61/61/61
f 62/62/62 63/63/63 64/64/64
f 65/65/65 64/64/64 63/63/63
f 64/64/64 65/65/65 66/66/66
f 67/67/67 66/66/66 65/65/65
f 70/70/70 69/69/69 68/68/68
f 69/69/69 71/71/71 68/68/68
f 72/72/72 71/71/71 69/69/69
f 71/71/71 73/73/73 68/68/68
f 68/68/68 73/73/73 74/74/74
f 75/75/75 73/73/73 71/71/71
f 78/78/78 77/77/77 76/76/76
f 79/79/79 76/76/76 77/77/77
f 82/82/82 81/81/81 80/80/80
f 83/83/83 80/80/80 81/81/81
f 86/86/86 85/85/85 84/84/84
f 87/87/87 84/84/84 85/85/85
f 90/90/90 89/89/89 88/88/88
f 91/91/91 88/88/88 89/89/89
f 94/94/94 93/93/93 92/92/92
f 95/95/95 92/92/92 93/93/93
f 98/98/98 97/97/97 96/96/96
f 99/99/99 96/96/96 97/97/97
f 102/102/102 101/101/101 100/100/100
f 103/103/103 100/100/100 101/101/101
f 106/106/106 105/105/105 104/104/104
f 107/107/107 104/104/104 105/105/105
f 110/110/110 109/109/109 108/108/108
f 109/109/109 111/111/111 108/108/108
f 112/112/112 111/111/111 109/109/109
f 111/111/111 113/113/113 108/108/108
f 108/108/108 113/113/113 114/114/114
f 115/115/115 113/113/113 111/111/111
f 118/118/118 117/117/117 116/116/116
f 119/119/119 116/116/116 117/117/117
f 122/122/122 121/121/121 120/120/120
f 123/123/123 120/120/120 121/121/121
f 126/126/126 125/125/125 124/124/124
f 127/127/127 124/124/124 125/125/125
f 130/130/130 129/129/129 128/128/128
f 131/131/131 128/128/128 129/129/129
f 134/134/134 133/133/133 132/132/132
f 135/135/135 132/132/132 133/133/133
f 138/138/138 137/137/137 136/136/136
f 139/139/139 136/136/136 137/137/137
f 142/142/142 141/141/141 140/140/140
f 143/143/143 140/140/140 141/141/141
f 146/146/146 145/145/145 144/144/144
f 147/147/147 144/144/144 145/145/145
