g wall_1_CS
v 0.24441938 0.79496425 -0.6967258
v 0.24441938 0.0802591 -0.6967258
v 0.6948269 0.08025914 -0.23608968
v 0.6948269 0.79496425 -0.23608968
v -0.33275336 0.09357201 0.071328424
v -0.33253917 0.09357648 -0.97134864
v 0.5515578 0.09357641 -0.97134835
v 0.65776056 0.0935763 -0.91178775
v 0.71065384 0.09357628 -0.81908923
v 0.71065617 0.093575045 0.071328424
v 0.7328032 0.0719194 0.07119083
v 0.71065617 0.093575045 0.071328424
v 0.71065384 0.09357628 -0.81908923
v 0.73280126 0.07339585 -0.841348
v 0.65776056 0.0935763 -0.91178775
v 0.68434 0.073395826 -0.93717545
v 0.57563597 0.07339584 -0.9947855
v 0.5515578 0.09357641 -0.97134835
v -0.33257622 0.07191912 -0.9941014
v -0.33253917 0.09357648 -0.97134864
v -0.33257622 0.07191912 -0.9941014
v -0.33257404 -0.100700065 -1.0377381
v 0.57563597 0.07339584 -0.9947855
v 0.62256557 -0.100700065 -1.0377378
v 0.68434 0.073395826 -0.93717545
v 0.7293578 -0.100700125 -0.9860605
v 0.7771102 -0.10070006 -0.8857451
v 0.73280126 0.07339585 -0.841348
v 0.7771099 -0.10069801 0.07119259
v 0.7328032 0.0719194 0.07119083
vt 0.19647607 0.9590024
vt 0.19647607 0.948148
vt 0.1923862 0.948148
vt 0.1923862 0.9590024
vt 0.5871208 0.78594196
vt 0.5871208 0.7207948
vt 0.5311114 0.7207948
vt 0.5253897 0.72663236
vt 0.5226908 0.7350124
vt 0.52269137 0.78594196
vt 0.5187141 0.78594196
vt 0.52269137 0.78594196
vt 0.5226908 0.7350124
vt 0.5188329 0.73347485
vt 0.5253897 0.72663236
vt 0.5232065 0.7240703
vt 0.529642 0.7178142
vt 0.5311114 0.7207948
vt 0.5871208 0.71776164
vt 0.5871208 0.7207948
vt 0.5871208 0.71776164
vt 0.5871208 0.70474005
vt 0.529642 0.7178142
vt 0.5268712 0.70474005
vt 0.5232065 0.7240703
vt 0.50963223 0.7123177
vt 0.5021653 0.7306105
vt 0.5188329 0.73347485
vt 0.5021653 0.78594196
vt 0.5187141 0.78594196
vn 0.7150006 0 -0.69912386
vn 0.7150006 0 -0.69912386
vn 0.7150006 0 -0.69912386
vn 0.7150006 0 -0.69912386
vn -1.4457303E-06 1 2.8161992E-06
vn -0 1 4.292076E-06
vn -5.53025E-07 1 3.749349E-06
vn -1.7866901E-06 1 2.556587E-06
vn -2.7653737E-06 1 1.5589852E-06
vn -2.9084517E-06 1 1.3913225E-06
vn 0.6868037 0.72684276 0.0005940764
vn 0.6868037 0.72684276 0.0005940764
vn 0.61107403 0.7858419 -0.0950844
vn 0.5456411 0.82120556 -0.1670249
vn 0.35700056 0.86372495 -0.35571045
vn 0.35936436 0.8636632 -0.3534731
vn 0.16697434 0.829902 -0.5323366
vn 0.09268302 0.7956576 -0.5986142
vn -0.0008666475 0.74093527 -0.6715759
vn -0.00086664764 0.74093527 -0.67157596
vn -0.0005479959 0.24222934 -0.97021884
vn -0.0005479959 0.24222931 -0.97021884
vn 0.19382499 0.290598 -0.9370084
vn 0.2463863 0.30190888 -0.92094785
vn 0.6699266 0.3474898 -0.6560863
vn 0.6653603 0.34754768 -0.66068625
vn 0.9235989 0.30035874 -0.23822221
vn 0.9375639 0.291039 -0.19044778
vn 0.9688612 0.24760427 0.00019440257
vn 0.9688612 0.24760427 0.0001944026
g wall_1_CS_0
f 3/3/3 2/2/2 1/1/1
f 1/1/1 4/4/4 3/3/3
f 7/7/7 6/6/6 5/5/5
f 8/8/8 7/7/7 5/5/5
f 9/9/9 8/8/8 5/5/5
f 10/10/10 9/9/9 5/5/5
f 13/13/13 12/12/12 11/11/11
f 11/11/11 14/14/14 13/13/13
f 15/15/15 13/13/13 14/14/14
f 14/14/14 16/16/16 15/15/15
f 15/15/15 16/16/16 17/17/17
f 17/17/17 18/18/18 15/15/15
f 19/19/19 18/18/18 17/17/17
f 19/19/19 20/20/20 18/18/18
f 23/23/23 22/22/22 21/21/21
f 22/22/22 23/23/23 24/24/24
f 24/24/24 23/23/23 25/25/25
f 25/25/25 26/26/26 24/24/24
f 27/27/27 26/26/26 25/25/25
f 27/27/27 25/25/25 28/28/28
f 29/29/29 27/27/27 28/28/28
f 28/28/28 30/30/30 29/29/29
