g wall_stalagmite1
v 0.008013648 1.0978456 -0.068636194
v -0.055177197 1.132611 -0.036605824
v -0.055177923 1.0978457 -0.100666426
v -0.11836959 1.0978456 -0.068636246
v -0.118369564 1.0978454 -0.004575793
v -0.23065476 0.8947661 0.0712537
v -0.11836959 1.0978456 -0.068636246
v -0.24470563 0.89476603 -0.12555069
v -0.3473305 0.43614385 0.14048575
v -0.026564311 0.43614388 0.30307424
v -0.036519647 0.8947662 0.16965592
v -0.36913934 0.43614382 -0.18469104
v -0.118369564 1.0978454 -0.004575793
v -0.4513357 0.17155272 -0.013736219
v -0.43174347 0.17155278 -0.21444507
v -0.4060319 0.1715527 0.18697263
v -0.5074616 0.017237581 -0.011787552
v -0.48967618 0.017237624 -0.2419786
v -0.46035108 0.017237537 0.21840347
v -0.18587017 0.017237626 0.35753116
v -0.17232421 0.17155272 0.30543324
v -0.010058639 0.17155275 0.3461651
v -0.006214996 0.017237682 0.4070774
v 0.19470195 0.017237622 0.34675527
v 0.1672797 0.17155276 0.29779357
v 0.38591507 0.17155278 0.18697307
v 0.4479254 0.017237537 0.21840389
v 0.4956921 0.017237581 -0.011787113
v 0.2942023 0.43614385 0.14048602
v 0.43162104 0.17155276 -0.013735797
v 0.41285974 0.17155278 -0.21444468
v 0.47899154 0.017237624 -0.24197811
v 0.31504902 0.43614382 -0.1846907
v 0.16938075 0.89476603 -0.12555066
v 0.15761562 0.8947661 0.07125377
v 0.008013648 1.0978456 -0.068636194
v -0.05517804 1.0978454 0.027454436
v -0.055177197 1.132611 -0.036605824
v 0.008013581 1.0978454 -0.0045757643
v -0.48728675 -0.00869136 0.39438695
v -0.50765395 -0.008691317 0.16158646
v -0.46732986 0.12223575 0.18039049
v -0.4508264 0.122235715 0.3690244
v -0.27486148 -0.008691503 0.49270737
v -0.27921277 0.12223575 0.44904906
v -0.08406372 -0.008691467 0.35910964
v -0.12410248 0.12223577 0.34043986
v -0.14060572 0.122235715 0.15180603
v -0.10443125 -0.008691464 0.12630919
v -0.3509786 0.5172157 0.2527844
v -0.3065304 0.56448746 0.2735109
v -0.34670407 0.5172158 0.301641
v -0.4144529 0.33418283 0.20844139
v -0.4029978 0.33418286 0.3393741
v -0.46732986 0.12223575 0.18039049
v -0.4508264 0.122235715 0.3690244
v -0.30225587 0.5172161 0.32236758
v -0.3065304 0.56448746 0.2735109
v -0.262082 0.5172158 0.29423755
v -0.28387883 0.33418277 0.39492005
v -0.27921277 0.12223575 0.44904906
v -0.176215 0.33418286 0.31953323
v -0.12410248 0.12223577 0.34043986
v -0.14060572 0.122235715 0.15180603
v -0.18767019 0.3341828 0.18860057
v -0.2663564 0.5172157 0.24538094
v -0.3065304 0.56448746 0.2735109
v -0.3509786 0.5172157 0.2527844
v -0.3108045 0.5172157 0.22465447
v -0.3065304 0.56448746 0.2735109
v -0.2663564 0.5172157 0.24538094
v 0.35683143 0.3507398 -0.43682098
v 0.33058858 0.36803958 -0.45519623
v 0.35962343 0.3507397 -0.4687355
v 0.41609332 0.21928039 -0.3953252
v 0.4243839 0.2192804 -0.49008614
v 0.45787358 0.04931592 -0.33722275
v 0.4732847 0.049315866 -0.5133734
v 0.4916037 -0.017361166 -0.5222974
v 0.47398648 -0.017361218 -0.32093313
v 0.2907911 -0.017361153 -0.23550773
v 0.32779634 0.35073972 -0.42328173
v 0.33058858 0.36803958 -0.45519623
v 0.30155367 0.3507398 -0.44165698
v 0.32988253 0.21928039 -0.3551247
v 0.29761675 0.04931583 -0.26249388
v 0.12529215 -0.017361151 -0.3513711
v 0.25196245 0.2192804 -0.4096849
v 0.15277138 0.049315818 -0.363916
v 0.14283016 -0.017361138 -0.55281115
v 0.16818272 0.04931582 -0.54006624
v 0.26025298 0.2192804 -0.5044458
v 0.3043459 0.3507397 -0.47357166
v 0.33058858 0.36803958 -0.45519623
v 0.35962343 0.3507397 -0.4687355
v 0.33058858 0.36803958 -0.45519623
v 0.33338067 0.35073978 -0.48711073
v 0.3043459 0.3507397 -0.47357166
v 0.44199106 0.09686193 0.21877308
v 0.4854287 0.01723828 0.19788419
v 0.46753618 0.017238287 0.40239388
v 0.38256368 0.17202127 0.30851054
v 0.38901797 0.17202118 0.23473553
v 0.32189962 0.18124135 0.2660334
v 0.31544486 0.17202123 0.3398086
v 0.28147894 0.017238325 0.48915377
v 0.25478107 0.17202124 0.29733136
v 0.113394536 0.017238297 0.37148038
v 0.113394536 0.017238297 0.37148038
v 0.13120647 0.01723829 0.16689384
v 0.20370941 0.096861914 0.19792615
v 0.25478107 0.17202124 0.29733136
v 0.26123565 0.17202117 0.22355616
v 0.33626667 0.16973476 0.19429462
v 0.32189962 0.18124135 0.2660334
v 0.32835382 0.17202127 0.19225848
v 0.44199106 0.09686193 0.21877308
v 0.38901797 0.17202118 0.23473553
vt 0.7586233 0.28995216
vt 0.74879754 0.2954599
vt 0.74879754 0.28995216
vt 0.7401197 0.28995216
vt 0.7401197 0.28995216
vt 0.7357343 0.2644289
vt 0.7401197 0.28995216
vt 0.7269011 0.2644289
vt 0.7304522 0.22805372
vt 0.74895537 0.22805372
vt 0.74879754 0.2644289
vt 0.71712226 0.22805385
vt 0.7401197 0.28995216
vt 0.71721596 0.19057533
vt 0.7089792 0.19057533
vt 0.7254527 0.19057533
vt 0.71721596 0.1653712
vt 0.7089792 0.1653712
vt 0.7254527 0.1653712
vt 0.7395624 0.1653712
vt 0.73923105 0.19057533
vt 0.74879754 0.19057533
vt 0.74879754 0.1653712
vt 0.75920177 0.16537121
vt 0.7593298 0.19057533
vt 0.77231467 0.19057533
vt 0.77231467 0.1653712
vt 0.7811382 0.1653712
vt 0.7683709 0.22805376
vt 0.7811382 0.19057533
vt 0.7899617 0.19057533
vt 0.7899617 0.1653712
vt 0.78265023 0.22805387
vt 0.7703241 0.2644289
vt 0.7608619 0.2644289
vt 0.7586233 0.28995216
vt 0.74879754 0.28995216
vt 0.74879754 0.2954599
vt 0.7586233 0.28995216
vt 0.74333453 0.0026801354
vt 0.73319364 0.0026801354
vt 0.73319364 0.018785048
vt 0.74333453 0.018785048
vt 0.75796926 0.0026801354
vt 0.75796926 0.018785048
vt 0.7721819 0.0026801755
vt 0.7721819 0.018785112
vt 0.7830452 0.018785112
vt 0.7830452 0.0026801755
vt 0.7437314 0.091924176
vt 0.75796926 0.101339385
vt 0.7493602 0.091924176
vt 0.7358731 0.06017506
vt 0.74492395 0.06017506
vt 0.73319364 0.029742898
vt 0.74333453 0.029742898
vt 0.75796926 0.091924176
vt 0.75796926 0.101339385
vt 0.7664507 0.091924176
vt 0.75796926 0.06017506
vt 0.75796926 0.029742898
vt 0.7706702 0.060175106
vt 0.7721819 0.029743003
vt 0.7830452 0.029743003
vt 0.7803656 0.060175106
vt 0.77250737 0.091924176
vt 0.75796926 0.101339385
vt 0.7437314 0.091924176
vt 0.75796926 0.091924176
vt 0.75796926 0.101339385
vt 0.77250737 0.091924176
vt 0.7586233 0.23656385
vt 0.7489263 0.23957218
vt 0.7624488 0.23656385
vt 0.765072 0.21263465
vt 0.77702075 0.21263465
vt 0.77231467 0.19057533
vt 0.7899617 0.19057533
vt 0.7899617 0.1653712
vt 0.77231467 0.1653712
vt 0.74879754 0.1653712
vt 0.7489263 0.23656385
vt 0.7489263 0.23957218
vt 0.7401197 0.23656385
vt 0.7489139 0.21263465
vt 0.7488042 0.19057533
vt 0.7254527 0.1653712
vt 0.73289466 0.21263465
vt 0.7254527 0.19057533
vt 0.7089792 0.1653712
vt 0.7089792 0.19057533
vt 0.72177964 0.21263465
vt 0.7356604 0.23656385
vt 0.7489263 0.23957218
vt 0.7624488 0.23656385
vt 0.7489263 0.23957218
vt 0.7489263 0.23656385
vt 0.7356604 0.23656385
vt 0.77471447 0.14563078
vt 0.7791 0.13392226
vt 0.7651993 0.13392226
vt 0.7537278 0.15567464
vt 0.75876683 0.15567464
vt 0.74706346 0.16050908
vt 0.7471164 0.15567464
vt 0.7469611 0.13392223
vt 0.7356428 0.15567464
vt 0.71530944 0.13392223
vt 0.71530944 0.13392223
vt 0.72828585 0.13392223
vt 0.73088723 0.14563075
vt 0.7356428 0.15567464
vt 0.7403466 0.15567464
vt 0.7471164 0.15543468
vt 0.74706346 0.16050908
vt 0.7471164 0.15567464
vt 0.77471447 0.14563078
vt 0.75876683 0.15567464
vn 0.59447306 0.79669976 -0.10895486
vn 4.876593E-06 1 2.3126322E-06
vn -7.651056E-07 0.87891275 -0.47698244
vn -0.63997555 0.7611728 -0.105105944
vn -0.59395415 0.71207285 0.3743938
vn -0.7601961 0.40895382 0.50483537
vn -0.63997555 0.7611728 -0.105105944
vn -0.9283826 0.3670369 0.058220077
vn -0.78903705 0.29658714 0.5380117
vn -0.0059011127 0.26397958 0.96451026
vn 0.0026936796 0.41518903 0.9097312
vn -0.960055 0.27806297 0.031233164
vn -0.59395415 0.71207285 0.3743938
vn -0.94660765 0.3166465 0.060572658
vn -0.9500404 0.2996657 -0.08731364
vn -0.7429532 0.3242699 0.5855507
vn -0.9335865 0.35370848 0.05750193
vn -0.93272036 0.35140687 -0.08090715
vn -0.7435747 0.36790097 0.5583418
vn -0.33335763 0.3333964 0.88188404
vn -0.35491157 0.27454764 0.8936786
vn 0.012847767 0.26381293 0.96448827
vn 0.013017735 0.35505334 0.9347554
vn 0.34571272 0.3455964 0.8723794
vn 0.3605879 0.3045154 0.881616
vn 0.7274961 0.37956986 0.57155603
vn 0.73581374 0.3997698 0.5465914
vn 0.9169511 0.39457187 0.059276693
vn 0.766764 0.35798913 0.53283846
vn 0.91915405 0.38917598 0.06081043
vn 0.92359257 0.37474418 -0.080892526
vn 0.9164858 0.3928933 -0.075424224
vn 0.9343836 0.35508394 0.029032059
vn 0.89769 0.4377817 0.04999721
vn 0.74152184 0.46188945 0.48662472
vn 0.59447306 0.79669976 -0.10895486
vn -0.014442966 0.71326464 0.70074594
vn 4.876593E-06 1 2.3126322E-06
vn 0.5512765 0.75045925 0.36456162
vn -0.77574694 0.3201284 0.5438147
vn -0.95566744 0.28232798 0.08360999
vn -0.96217483 0.25910097 0.08417955
vn -0.7842353 0.29135334 0.54780304
vn 0.084384546 0.31884253 0.9440438
vn 0.08321649 0.28701577 0.95430446
vn 0.85874057 0.31971115 0.40043652
vn 0.8678535 0.29089 0.40275714
vn 0.96251786 0.2578138 -0.08420949
vn 0.95620537 0.28048655 -0.08365726
vn -0.81491107 0.56458247 -0.13102143
vn -1.4933945E-06 1 -2.2254972E-06
vn -0.70042384 0.51679575 0.4922689
vn -0.96067816 0.26463807 0.08404903
vn -0.78090197 0.29771453 0.54914325
vn -0.96217483 0.25910097 0.08417955
vn -0.7842353 0.29135334 0.54780304
vn 0.061057366 0.5296828 0.8459954
vn -1.4933945E-06 1 -2.2254972E-06
vn 0.7444729 0.5605299 0.36272073
vn 0.089898705 0.3062616 0.947693
vn 0.08321649 0.28701577 0.95430446
vn 0.85479677 0.33793205 0.39385825
vn 0.8678535 0.29089 0.40275714
vn 0.96251786 0.2578138 -0.08420949
vn 0.94652146 0.31183273 -0.08281015
vn 0.74926203 0.606695 -0.26557028
vn -1.4933945E-06 1 -2.2254972E-06
vn -0.81491107 0.56458247 -0.13102143
vn -0.06048279 0.71998936 -0.69134456
vn -1.4933945E-06 1 -2.2254972E-06
vn 0.74926203 0.606695 -0.26557028
vn 0.6103693 0.66692716 0.4273844
vn 3.0838956E-07 1 -8.530461E-07
vn 0.684858 0.7242239 -0.0804314
vn 0.7596051 0.41591004 0.500019
vn 0.9368824 0.3399012 0.08196626
vn 0.76764953 0.34335873 0.5411274
vn 0.96230346 0.25861943 0.084190786
vn 0.96366143 0.25347322 0.08430967
vn 0.76691896 0.32107964 0.5556465
vn -0.0958477 0.38190994 0.919216
vn -0.07802731 0.6549978 0.75159144
vn 3.0838956E-07 1 -8.530461E-07
vn -0.7083795 0.6308956 0.3164953
vn -0.045924824 0.47270674 0.8800222
vn -0.07818175 0.42875123 0.90003335
vn -0.8257335 0.41286698 0.3843244
vn -0.7895747 0.48571715 0.37503418
vn -0.80044496 0.4684807 0.37391677
vn -0.9266115 0.36722356 -0.080858134
vn -0.9028305 0.42270103 -0.07887303
vn -0.9039019 0.42036587 -0.079082005
vn -0.6936484 0.69096035 -0.2035327
vn 3.0838956E-07 1 -8.530461E-07
vn 0.684858 0.7242239 -0.0804314
vn 3.0838956E-07 1 -8.530461E-07
vn 0.041411705 0.8799036 -0.47334424
vn -0.6936484 0.69096035 -0.2035327
vn 0.84381694 0.53631675 -0.018365083
vn 0.8549475 0.5100574 0.09437226
vn 0.62074107 0.6220831 0.4771721
vn 0.48996124 0.81481534 0.30986097
vn 0.5470087 0.7974821 -0.25456595
vn -0 1 -2.7958677E-07
vn -0.024060367 0.85149497 0.5238106
vn -0.07847367 0.70108247 0.70874906
vn -0.46450567 0.8618638 0.20353203
vn -0.62838346 0.72095853 0.29215235
vn -0.62838346 0.72095853 0.29215235
vn -0.74844426 0.6582467 -0.08088648
vn -0.7228264 0.66238415 -0.19689882
vn -0.46450567 0.8618638 0.20353203
vn -0.42632866 0.8179513 -0.38626358
vn 0.34237847 0.53943634 -0.76927584
vn -0 1 -2.7958677E-07
vn -0.11679413 0.79219335 -0.59898984
vn 0.84381694 0.53631675 -0.018365083
vn 0.5470087 0.7974821 -0.25456595
g wall_stalagmite1_0
f 3/3/3 2/2/2 1/1/1
f 3/3/3 4/4/4 2/2/2
f 4/4/4 5/5/5 2/2/2
f 5/5/5 7/7/7 6/6/6
f 7/7/7 8/8/8 6/6/6
f 6/6/6 8/8/8 9/9/9
f 6/6/6 9/9/9 10/10/10
f 11/11/11 6/6/6 10/10/10
f 8/8/8 12/12/12 9/9/9
f 13/13/13 6/6/6 11/11/11
f 9/9/9 12/12/12 14/14/14
f 14/14/14 12/12/12 15/15/15
f 16/16/16 9/9/9 14/14/14
f 10/10/10 9/9/9 16/16/16
f 17/17/17 14/14/14 15/15/15
f 14/14/14 17/17/17 16/16/16
f 18/18/18 17/17/17 15/15/15
f 17/17/17 19/19/19 16/16/16
f 19/19/19 20/20/20 16/16/16
f 20/20/20 21/21/21 16/16/16
f 21/21/21 10/10/10 16/16/16
f 22/22/22 21/21/21 20/20/20
f 22/22/22 10/10/10 21/21/21
f 23/23/23 22/22/22 20/20/20
f 23/23/23 24/24/24 22/22/22
f 24/24/24 25/25/25 22/22/22
f 25/25/25 10/10/10 22/22/22
f 26/26/26 25/25/25 24/24/24
f 10/10/10 25/25/25 26/26/26
f 27/27/27 26/26/26 24/24/24
f 26/26/26 27/27/27 28/28/28
f 29/29/29 10/10/10 26/26/26
f 11/11/11 10/10/10 29/29/29
f 30/30/30 26/26/26 28/28/28
f 26/26/26 30/30/30 29/29/29
f 31/31/31 30/30/30 28/28/28
f 32/32/32 31/31/31 28/28/28
f 33/33/33 30/30/30 31/31/31
f 29/29/29 30/30/30 33/33/33
f 33/33/33 34/34/34 29/29/29
f 34/34/34 35/35/35 29/29/29
f 35/35/35 11/11/11 29/29/29
f 34/34/34 36/36/36 35/35/35
f 37/37/37 11/11/11 35/35/35
f 37/37/37 13/13/13 11/11/11
f 38/38/38 13/13/13 37/37/37
f 36/36/36 39/39/39 35/35/35
f 39/39/39 37/37/37 35/35/35
f 36/36/36 38/38/38 39/39/39
f 38/38/38 37/37/37 39/39/39
f 42/42/42 41/41/41 40/40/40
f 43/43/43 42/42/42 40/40/40
f 43/43/43 40/40/40 44/44/44
f 45/45/45 43/43/43 44/44/44
f 45/45/45 44/44/44 46/46/46
f 47/47/47 45/45/45 46/46/46
f 47/47/47 46/46/46 48/48/48
f 46/46/46 49/49/49 48/48/48
f 52/52/52 51/51/51 50/50/50
f 52/52/52 50/50/50 53/53/53
f 54/54/54 52/52/52 53/53/53
f 53/53/53 55/55/55 54/54/54
f 55/55/55 56/56/56 54/54/54
f 57/57/57 52/52/52 54/54/54
f 57/57/57 58/58/58 52/52/52
f 57/57/57 59/59/59 58/58/58
f 54/54/54 56/56/56 60/60/60
f 60/60/60 57/57/57 54/54/54
f 59/59/59 57/57/57 60/60/60
f 56/56/56 61/61/61 60/60/60
f 60/60/60 61/61/61 62/62/62
f 62/62/62 59/59/59 60/60/60
f 61/61/61 63/63/63 62/62/62
f 62/62/62 63/63/63 64/64/64
f 65/65/65 62/62/62 64/64/64
f 59/59/59 62/62/62 65/65/65
f 66/66/66 59/59/59 65/65/65
f 59/59/59 66/66/66 67/67/67
f 70/70/70 69/69/69 68/68/68
f 70/70/70 71/71/71 69/69/69
f 74/74/74 73/73/73 72/72/72
f 74/74/74 72/72/72 75/75/75
f 76/76/76 74/74/74 75/75/75
f 75/75/75 77/77/77 76/76/76
f 77/77/77 78/78/78 76/76/76
f 78/78/78 77/77/77 79/79/79
f 77/77/77 80/80/80 79/79/79
f 81/81/81 80/80/80 77/77/77
f 72/72/72 82/82/82 75/75/75
f 83/83/83 82/82/82 72/72/72
f 83/83/83 84/84/84 82/82/82
f 82/82/82 85/85/85 75/75/75
f 75/75/75 85/85/85 77/77/77
f 82/82/82 84/84/84 85/85/85
f 86/86/86 81/81/81 77/77/77
f 85/85/85 86/86/86 77/77/77
f 87/87/87 81/81/81 86/86/86
f 84/84/84 88/88/88 85/85/85
f 85/85/85 88/88/88 86/86/86
f 89/89/89 87/87/87 86/86/86
f 88/88/88 89/89/89 86/86/86
f 90/90/90 87/87/87 89/89/89
f 91/91/91 90/90/90 89/89/89
f 92/92/92 91/91/91 89/89/89
f 88/88/88 92/92/92 89/89/89
f 93/93/93 92/92/92 88/88/88
f 84/84/84 93/93/93 88/88/88
f 93/93/93 84/84/84 94/94/94
f 97/97/97 96/96/96 95/95/95
f 97/97/97 98/98/98 96/96/96
f 101/101/101 100/100/100 99/99/99
f 99/99/99 102/102/102 101/101/101
f 99/99/99 103/103/103 102/102/102
f 103/103/103 104/104/104 102/102/102
f 102/102/102 105/105/105 101/101/101
f 104/104/104 105/105/105 102/102/102
f 105/105/105 106/106/106 101/101/101
f 104/104/104 107/107/107 105/105/105
f 105/105/105 107/107/107 106/106/106
f 107/107/107 108/108/108 106/106/106
f 111/111/111 110/110/110 109/109/109
f 109/109/109 112/112/112 111/111/111
f 112/112/112 113/113/113 111/111/111
f 111/111/111 113/113/113 114/114/114
f 113/113/113 112/112/112 115/115/115
f 113/113/113 116/116/116 114/114/114
f 116/116/116 113/113/113 115/115/115
f 114/114/114 116/116/116 117/117/117
f 116/116/116 115/115/115 118/118/118
f 116/116/116 118/118/118 117/117/117
