g wall_bar_S1
v -0.5034989 2.208692 0.00650568
v -0.5034989 2.208692 -0.29143384
v 0.50350785 2.208692 -0.29143384
v 0.50350785 2.208692 0.0065057566
v 0.5035055 2.0364494 0.059245374
v -0.5035006 2.0364494 0.059245184
v -0.5035031 1.9978453 0.0014402536
v 0.5035031 1.9978449 0.0014404841
v 0.5034992 1.8635818 0.011839843
v -0.50350654 1.863582 0.0118396515
v -0.5035058 0.91998804 0.24787045
v -0.5035024 1.8627567 -0.047086038
v 0.50350076 1.8627567 -0.047085848
v 0.50350386 0.9199882 0.24787061
v -0.5035058 -3.6955237E-07 0.5927779
v 0.50350535 0.17407972 0.552662
v 0.50350386 -3.6955237E-07 0.5927779
v -0.50350696 0.17407963 0.552662
v -0.5035077 0.1740799 0.47891203
v 0.5035057 0.17407998 0.47891223
v 0.50350416 0.7567602 0.29810897
v -0.5035061 0.7567602 0.29810885
v 0.5034992 1.8687768 -0.3441732
v 0.50350785 2.208692 -0.29143384
v -0.5034989 2.208692 -0.29143384
v -0.50350416 1.8687768 -0.34417352
v 0.5034992 4.60968E-07 -0.3441733
v -0.50350416 4.60968E-07 -0.34417346
v -0.5035061 0.75660706 0.335296
v -0.5035058 0.9198351 0.28505766
v 0.503504 0.9198351 0.2850578
v 0.50350446 0.7566072 0.3352962
v 0.50350386 0.9199882 0.24787061
v 0.503504 0.9198351 0.2850578
v -0.5035058 0.9198351 0.28505766
v -0.5035058 0.91998804 0.24787045
vt 0.15788226 0.45174867
vt 0.15788226 0.49192506
vt 0.16598332 0.49195468
vt 0.16598332 0.45174867
vt 0.16598332 0.44194257
vt 0.15788226 0.44194257
vt 0.15788226 0.43563068
vt 0.16598332 0.43563068
vt 0.16598332 0.42572153
vt 0.15788226 0.42569134
vt 0.17072815 0.47893414
vt 0.17072846 0.53547394
vt 0.227525 0.53547394
vt 0.22752532 0.47893414
vt 0.17072815 0.4249832
vt 0.22752549 0.43275037
vt 0.22752532 0.4249832
vt 0.17072801 0.43275037
vt 0.17072791 0.43740866
vt 0.22752552 0.43740866
vt 0.22752535 0.46681598
vt 0.17072807 0.46681598
vt 0.15532719 0.51814914
vt 0.15532719 0.53520477
vt 0.14717731 0.5352344
vt 0.14717731 0.51817834
vt 0.15532719 0.42581782
vt 0.14717731 0.42584673
vt 0.17072807 0.46680763
vt 0.17072815 0.4747298
vt 0.22752532 0.4747298
vt 0.22752535 0.4668077
vt 0.22752532 0.47893414
vt 0.22752532 0.4747298
vt 0.17072815 0.4747298
vt 0.17072815 0.47893414
vn -0 0.8039814 0.5946544
vn -0 0.75937873 -0.65064883
vn -0 0.7593859 -0.6506405
vn -0 0.8039845 0.59465027
vn -2.7052965E-07 -0.33576345 0.94194627
vn -2.7053304E-07 -0.3357843 0.941939
vn -2.8523118E-07 -0.43706235 0.89943117
vn -2.8523394E-07 -0.43708313 0.8994211
vn -1.855931E-07 0.07722385 0.9970138
vn -1.8559311E-07 0.07722385 0.9970138
vn -1.8976823E-07 0.29858977 0.9543815
vn -1.8976823E-07 0.29858977 0.9543815
vn -1.8976824E-07 0.29858974 0.9543815
vn -1.8976823E-07 0.2985897 0.9543815
vn -0 0.22455962 0.97446036
vn -0 0.782484 0.6226707
vn -0 0.22455965 0.97446036
vn -0 0.7824844 0.6226702
vn -1.4592224E-07 0.8050931 0.5931484
vn -1.4592217E-07 0.8050939 0.5931474
vn -1.5866941E-07 0.29635644 0.9550774
vn -1.586694E-07 0.29635644 0.9550774
vn 1.9038362E-07 0.07688844 -0.9970396
vn -0 0.7593859 -0.6506405
vn -0 0.75937873 -0.65064883
vn 1.9038411E-07 0.07688745 -0.99703974
vn 2.2888109E-07 0 -1
vn 2.2888109E-07 0 -1
vn -1.9343533E-07 0.29416278 0.9557554
vn -1.9343533E-07 0.29416275 0.9557554
vn -1.9343533E-07 0.29416278 0.9557554
vn -1.9343533E-07 0.29416272 0.9557554
vn -0 0.99999154 0.0041153957
vn -0 0.99999154 0.0041153952
vn -0 0.99999154 0.0041153957
vn -0 0.99999154 0.0041153952
g wall_bar_S1_0
f 3/3/3 2/2/2 1/1/1
f 4/4/4 3/3/3 1/1/1
f 5/5/5 4/4/4 1/1/1
f 6/6/6 5/5/5 1/1/1
f 6/6/6 7/7/7 5/5/5
f 7/7/7 8/8/8 5/5/5
f 9/9/9 8/8/8 7/7/7
f 10/10/10 9/9/9 7/7/7
f 13/13/13 12/12/12 11/11/11
f 14/14/14 13/13/13 11/11/11
f 17/17/17 16/16/16 15/15/15
f 16/16/16 18/18/18 15/15/15
f 18/18/18 16/16/16 19/19/19
f 16/16/16 20/20/20 19/19/19
f 20/20/20 21/21/21 19/19/19
f 21/21/21 22/22/22 19/19/19
f 25/25/25 24/24/24 23/23/23
f 26/26/26 25/25/25 23/23/23
f 23/23/23 27/27/27 26/26/26
f 27/27/27 28/28/28 26/26/26
f 31/31/31 30/30/30 29/29/29
f 32/32/32 31/31/31 29/29/29
f 35/35/35 34/34/34 33/33/33
f 36/36/36 35/35/35 33/33/33
