g wall_object2
v 0.53307694 1.1654081 -0.28757456
v 0.51991224 0.1135574 -0.26707348
v 0.51991224 0.1135574 0.25819632
v 0.53307694 1.165408 0.27869904
v 0.53307694 1.165408 0.27869904
v 0.51991224 0.1135574 0.25819632
v 0.32504183 0.1135574 0.40354806
v 0.3408905 1.1654081 0.43539682
v 0.3408905 1.1654084 -0.44427288
v 0.51991224 0.1135574 -0.26707348
v 0.53307694 1.1654081 -0.28757456
v 0.32504183 0.1135574 -0.41242534
v -0.36151895 1.1654084 -0.44427288
v -0.32650748 0.1135574 -0.41242534
v -0.5229439 1.1654081 -0.28757453
v -0.48764104 0.1135574 -0.26707348
v -0.5229439 1.165408 0.27869904
v -0.48764104 0.1135574 0.25819632
v -0.36151895 1.1654081 0.43539682
v -0.32650748 0.1135574 0.40354806
v 0.32504183 0.1135574 0.40354806
v 0.3408905 1.1654081 0.43539682
v -0.2930299 1.2163085 -0.52228177
v -0.2930299 1.0295366 -0.52228177
v -0.00010322232 1.0535927 -0.5540751
v -0.44089538 1.0420166 -0.4498455
v -0.00010322232 1.2163082 -0.5540751
v 0.30137882 1.1050956 -0.522282
v -0.44089538 1.2163081 -0.449846
v -0.5244336 1.0544966 -0.31016016
v -0.2542519 1.2563848 -0.41278136
v -0.5244336 1.2163079 -0.310161
v -0.5455838 1.0797963 1.1092043E-06
v -0.54558283 1.2163088 2.1127701E-07
v -0.5244412 1.105095 0.32407004
v -0.4184117 1.2563847 -0.27506295
v -0.42803958 1.2563856 2.0647525E-07
v -0.35589984 1.2563848 -0.36206117
v -0.52443963 1.2163085 0.32407016
v -0.44098723 1.1050951 0.45143127
v -0.41841644 1.2563851 0.28166664
v -0.00011037753 1.2563856 0.43267694
v 0.4357382 1.2563856 2.0647525E-07
v -0.00010322232 1.2563844 -0.4326775
v -0.44098505 1.2163087 0.4514319
v -0.2930374 1.1050954 0.5313879
v 0.2599445 1.2563848 -0.41278327
v -0.3559872 1.2563853 0.36364713
v -0.2930357 1.2163088 0.53138906
v -0.00011705076 1.1050951 0.5540744
v -0.25425565 1.2563854 0.42188868
v -0.000114651084 1.2163087 0.5540754
v 0.30137113 1.1050954 0.5313889
v 0.30137202 1.2163088 0.53138906
v 0.46108678 1.1050951 0.45756292
v 0.25993985 1.2563854 0.4218896
v 0.46108797 1.2163087 0.45756307
v 0.5368335 1.105095 0.32407004
v 0.37609765 1.2563853 0.36977878
v 0.4308188 1.2563851 0.28166664
v 0.5368344 1.2163085 0.32407016
v 0.5532757 1.1050955 -7.49073E-07
v 0.5532757 1.2163088 2.1127701E-07
v 0.5368426 1.1050951 -0.31016195
v 0.5368426 1.2163079 -0.3101619
v 0.451761 1.1050954 -0.45444503
v 0.43082216 1.2563847 -0.2750639
v 0.451761 1.2163081 -0.45444492
v 0.36676666 1.2563848 -0.366661
v 0.30137882 1.2163085 -0.52228177
v -0.34485808 0.2740364 -0.31608844
v 0.0036402356 2.851197E-07 -0.6223712
v -0.00013747411 0.274036 -0.39084184
v 0.35450292 0.2740364 -0.3174751
v -0.36225832 2.8528996E-07 -0.5866827
v 0.3802254 2.8528996E-07 -0.5866829
v -0.54695904 2.8567786E-07 -0.50537205
v -0.6513077 2.8642592E-07 -0.3485733
v 0.56806976 2.8565321E-07 -0.51053506
v 0.67434627 2.8642592E-07 -0.34857532
v 0.67433494 2.8982237E-07 0.36335865
v -0.6777266 2.880869E-07 -0.00041311077
v -0.4305326 0.27403703 0.00021738512
v 0.35762843 0.2740368 0.32358152
v -0.34489024 0.2740368 0.32173398
v 0.57971877 2.905373E-07 0.5132062
v 0.38021576 2.909326E-07 0.5960769
v -0.6513171 2.8982237E-07 0.36335865
v 0.0036229636 2.910541E-07 0.6215417
v -0.00014467193 0.27403703 0.39127576
v -0.5470738 2.9050443E-07 0.5063234
v -0.36226773 2.9093263E-07 0.59607583
vt 0.3926999 0.6844141
vt 0.3926999 0.61662406
vt 0.38331598 0.61662406
vt 0.38331598 0.6844141
vt 0.38224086 0.6844141
vt 0.38224086 0.61662406
vt 0.3765255 0.61662406
vt 0.3765255 0.6844141
vt 0.39995375 0.6844141
vt 0.393737 0.61662406
vt 0.393737 0.6844141
vt 0.39995375 0.61662406
vt 0.41247186 0.6844141
vt 0.41247186 0.61662406
vt 0.4193163 0.6844141
vt 0.4193163 0.61662406
vt 0.42969295 0.6844141
vt 0.42969295 0.61662406
vt 0.4356189 0.6844141
vt 0.4356189 0.61662406
vt 0.4356189 0.61662406
vt 0.4356189 0.6844141
vt 0.313168 0.94108695
vt 0.313168 0.9338317
vt 0.31439853 0.9338317
vt 0.31276354 0.9338317
vt 0.31439853 0.94108695
vt 0.3156291 0.9338317
vt 0.31276354 0.94108695
vt 0.3123591 0.9338317
vt 0.31343767 0.95232564
vt 0.3123591 0.94108695
vt 0.31235904 0.9338317
vt 0.31235904 0.94108695
vt 0.31235904 0.9338317
vt 0.31280598 0.95232564
vt 0.31280598 0.95232564
vt 0.31312183 0.95232564
vt 0.31235904 0.941087
vt 0.3127635 0.9338317
vt 0.31280598 0.9523257
vt 0.31439847 0.9523257
vt 0.3159912 0.95232564
vt 0.31439853 0.95232564
vt 0.3127635 0.941087
vt 0.313168 0.9338317
vt 0.3153594 0.95232564
vt 0.3131218 0.9523257
vt 0.313168 0.941087
vt 0.31439847 0.9338317
vt 0.3134376 0.9523257
vt 0.31439847 0.941087
vt 0.315629 0.9338317
vt 0.31562904 0.941087
vt 0.31603348 0.9338317
vt 0.3153594 0.9523257
vt 0.31603348 0.941087
vt 0.31643793 0.9338317
vt 0.31567532 0.9523257
vt 0.3159912 0.9523257
vt 0.31643793 0.941087
vt 0.31643802 0.9338317
vt 0.31643802 0.94108695
vt 0.31643808 0.9338317
vt 0.31643808 0.94108695
vt 0.3160336 0.9338317
vt 0.3159912 0.95232564
vt 0.3160336 0.94108695
vt 0.31567532 0.95232564
vt 0.3156291 0.94108695
vt 0.31567526 0.9415831
vt 0.31439865 0.9523257
vt 0.31439865 0.9415831
vt 0.3131218 0.9415831
vt 0.31562912 0.9523257
vt 0.31316805 0.9523257
vt 0.3160336 0.9523257
vt 0.31643808 0.9523257
vt 0.31276357 0.9523257
vt 0.3123591 0.9523257
vt 0.3123592 0.9523257
vt 0.31643808 0.9523257
vt 0.31599116 0.9415831
vt 0.3131218 0.9415831
vt 0.31567538 0.9415831
vt 0.3127637 0.9523257
vt 0.31316817 0.9523257
vt 0.31643808 0.9523257
vt 0.31439865 0.9523257
vt 0.31439865 0.9415831
vt 0.3160336 0.9523257
vt 0.31562912 0.9523257
vn 0.89695436 -0.022653023 -0.44154236
vn 0.89990073 -0.022533841 -0.4355122
vn 0.89990073 -0.022534445 0.43551233
vn 0.8969541 -0.022653647 0.44154304
vn 0.8969541 -0.022653647 0.44154304
vn 0.89990073 -0.022534445 0.43551233
vn 0.32422686 -0.03085863 0.9454759
vn 0.32594904 -0.03085255 0.94488376
vn 0.3259495 -0.030851357 -0.94488364
vn 0.89990073 -0.022533841 -0.4355122
vn 0.89695436 -0.022653023 -0.44154236
vn 0.32422724 -0.03085744 -0.94547576
vn -0.37138107 -0.03836216 -0.92768776
vn -0.36276266 -0.03822697 -0.93109727
vn -0.9162439 -0.040617555 -0.39855644
vn -0.9171559 -0.040596154 -0.39645544
vn -0.9162436 -0.040618114 0.39855713
vn -0.9171558 -0.040596705 0.39645553
vn -0.37138054 -0.03836332 0.9276878
vn -0.3627622 -0.038228136 0.9310973
vn 0.32422686 -0.03085863 0.9454759
vn 0.32594904 -0.03085255 0.94488376
vn -0.23193732 0.55411726 -0.7994743
vn -0.27842823 -7.352949E-07 -0.9604571
vn -0.0102700265 2.6336483E-07 -0.9999473
vn -0.66635215 -1.7204674E-06 -0.7456371
vn -0.00118623 0.5637188 -0.8259659
vn 0.25345087 9.798628E-07 -0.9673483
vn -0.5696222 0.5380744 -0.6212941
vn -0.95061207 2.388694E-07 -0.31038126
vn -0.048525352 0.98332083 -0.1752867
vn -0.80028415 0.54373723 -0.25277495
vn -0.9999883 6.155116E-06 -0.0048388434
vn -0.82479095 0.5654368 -0.0010935107
vn -0.9504097 1.1365598E-05 0.31100056
vn -0.18448561 0.98102427 -0.059635367
vn -0.17351303 0.9848316 -0.00016445824
vn -0.122677706 0.982605 -0.13941826
vn -0.7959507 0.5422692 0.26908487
vn -0.67657775 7.045199E-06 0.73637116
vn -0.18291198 0.9812463 0.060819585
vn -0.00013787078 0.9856213 0.16896972
vn 0.17217422 0.98506653 -0.000108775654
vn -0.00022155642 0.98515505 -0.17166696
vn -0.5671898 0.54384476 0.6184891
vn -0.28248549 -3.2954872E-06 0.95927155
vn 0.04348006 0.98371756 -0.17438245
vn -0.12084835 0.9833799 0.13549839
vn -0.23692578 0.54976594 0.80101407
vn -0.0010958109 -7.1735462E-06 0.9999994
vn -0.05050489 0.9827292 0.17802382
vn -0.0008349296 0.568009 0.8230219
vn 0.2513183 -5.812863E-06 0.96790445
vn 0.2100238 0.5532893 0.80607754
vn 0.6771095 -7.3596198E-06 0.73588216
vn 0.041628897 0.98335415 0.17686574
vn 0.5707385 0.53697073 0.62122446
vn 0.9601087 -6.800785E-06 0.27962708
vn 0.124725506 0.9821974 0.14046969
vn 0.18394798 0.98163134 0.05062723
vn 0.80441934 0.54469526 0.23710047
vn 0.9999994 -2.0751443E-06 -0.0011209478
vn 0.82334656 0.5675384 -0.00081721216
vn 0.9574202 3.2702877E-07 -0.2886981
vn 0.8033129 0.5431123 -0.24437164
vn 0.6675257 8.7051785E-07 -0.7445868
vn 0.18553168 0.9809837 -0.05700145
vn 0.56244 0.536194 -0.62941015
vn 0.12119818 0.9821993 -0.14351091
vn 0.217476 0.5559398 -0.8022687
vn -0.44482628 0.7483356 -0.4920604
vn -0.0014798575 0.6773945 -0.7356185
vn -0.0032077127 0.6773868 -0.7356201
vn 0.43997273 0.78635013 -0.433679
vn -0.19698578 0.6794438 -0.7067905
vn 0.18606609 0.682513 -0.70679235
vn -0.46083507 0.7087802 -0.534099
vn -0.6557529 0.71549 -0.24096075
vn 0.44857785 0.7213439 -0.52767503
vn 0.63197744 0.75516623 -0.17415072
vn 0.6313913 0.75657135 0.17013204
vn -0.69959646 0.7145356 -0.0018943629
vn -0.6995963 0.71453595 -0.0018274395
vn 0.43455467 0.7904686 0.43165013
vn -0.44018236 0.7509252 0.49229142
vn 0.45353925 0.7256309 0.51745725
vn 0.17973155 0.6849102 0.70611227
vn -0.6497419 0.717333 0.25153282
vn -0.0017760332 0.67853296 0.73456776
vn -0.003278869 0.6785322 0.7345633
vn -0.46233818 0.7041308 0.53892773
vn -0.1996184 0.6822578 0.7033326
g wall_object2_0
f 3/3/3 2/2/2 1/1/1
f 4/4/4 3/3/3 1/1/1
f 7/7/7 6/6/6 5/5/5
f 8/8/8 7/7/7 5/5/5
f 11/11/11 10/10/10 9/9/9
f 10/10/10 12/12/12 9/9/9
f 9/9/9 12/12/12 13/13/13
f 12/12/12 14/14/14 13/13/13
f 13/13/13 14/14/14 15/15/15
f 14/14/14 16/16/16 15/15/15
f 15/15/15 16/16/16 17/17/17
f 16/16/16 18/18/18 17/17/17
f 19/19/19 17/17/17 18/18/18
f 20/20/20 19/19/19 18/18/18
f 19/19/19 20/20/20 21/21/21
f 22/22/22 19/19/19 21/21/21
f 25/25/25 24/24/24 23/23/23
f 23/23/23 24/24/24 26/26/26
f 27/27/27 25/25/25 23/23/23
f 28/28/28 25/25/25 27/27/27
f 29/29/29 23/23/23 26/26/26
f 29/29/29 26/26/26 30/30/30
f 27/27/27 23/23/23 31/31/31
f 31/31/31 23/23/23 29/29/29
f 32/32/32 29/29/29 30/30/30
f 32/32/32 30/30/30 33/33/33
f 34/34/34 32/32/32 33/33/33
f 34/34/34 33/33/33 35/35/35
f 32/32/32 36/36/36 29/29/29
f 36/36/36 32/32/32 34/34/34
f 37/37/37 36/36/36 34/34/34
f 36/36/36 38/38/38 29/29/29
f 38/38/38 31/31/31 29/29/29
f 38/38/38 36/36/36 37/37/37
f 31/31/31 38/38/38 37/37/37
f 39/39/39 34/34/34 35/35/35
f 39/39/39 35/35/35 40/40/40
f 39/39/39 41/41/41 34/34/34
f 41/41/41 37/37/37 34/34/34
f 42/42/42 37/37/37 41/41/41
f 42/42/42 43/43/43 37/37/37
f 37/37/37 44/44/44 31/31/31
f 43/43/43 44/44/44 37/37/37
f 44/44/44 27/27/27 31/31/31
f 45/45/45 39/39/39 40/40/40
f 41/41/41 39/39/39 45/45/45
f 45/45/45 40/40/40 46/46/46
f 27/27/27 44/44/44 47/47/47
f 47/47/47 44/44/44 43/43/43
f 41/41/41 48/48/48 42/42/42
f 48/48/48 41/41/41 45/45/45
f 49/49/49 45/45/45 46/46/46
f 49/49/49 46/46/46 50/50/50
f 51/51/51 48/48/48 45/45/45
f 49/49/49 51/51/51 45/45/45
f 48/48/48 51/51/51 42/42/42
f 52/52/52 49/49/49 50/50/50
f 51/51/51 49/49/49 52/52/52
f 42/42/42 51/51/51 52/52/52
f 52/52/52 50/50/50 53/53/53
f 54/54/54 52/52/52 53/53/53
f 54/54/54 53/53/53 55/55/55
f 54/54/54 56/56/56 52/52/52
f 56/56/56 42/42/42 52/52/52
f 57/57/57 54/54/54 55/55/55
f 56/56/56 54/54/54 57/57/57
f 57/57/57 55/55/55 58/58/58
f 42/42/42 56/56/56 59/59/59
f 59/59/59 56/56/56 57/57/57
f 42/42/42 59/59/59 60/60/60
f 60/60/60 59/59/59 57/57/57
f 60/60/60 43/43/43 42/42/42
f 61/61/61 57/57/57 58/58/58
f 61/61/61 60/60/60 57/57/57
f 61/61/61 58/58/58 62/62/62
f 60/60/60 61/61/61 63/63/63
f 63/63/63 61/61/61 62/62/62
f 43/43/43 60/60/60 63/63/63
f 63/63/63 62/62/62 64/64/64
f 65/65/65 63/63/63 64/64/64
f 65/65/65 64/64/64 66/66/66
f 67/67/67 43/43/43 63/63/63
f 65/65/65 67/67/67 63/63/63
f 68/68/68 65/65/65 66/66/66
f 67/67/67 65/65/65 68/68/68
f 68/68/68 66/66/66 28/28/28
f 43/43/43 67/67/67 69/69/69
f 69/69/69 67/67/67 68/68/68
f 43/43/43 69/69/69 47/47/47
f 47/47/47 69/69/69 68/68/68
f 70/70/70 68/68/68 28/28/28
f 70/70/70 47/47/47 68/68/68
f 70/70/70 28/28/28 27/27/27
f 70/70/70 27/27/27 47/47/47
f 73/73/73 72/72/72 71/71/71
f 72/72/72 73/73/73 74/74/74
f 72/72/72 75/75/75 71/71/71
f 76/76/76 72/72/72 74/74/74
f 77/77/77 71/71/71 75/75/75
f 78/78/78 71/71/71 77/77/77
f 76/76/76 74/74/74 79/79/79
f 79/79/79 74/74/74 80/80/80
f 80/80/80 74/74/74 81/81/81
f 71/71/71 78/78/78 82/82/82
f 83/83/83 71/71/71 82/82/82
f 74/74/74 84/84/84 81/81/81
f 85/85/85 83/83/83 82/82/82
f 81/81/81 84/84/84 86/86/86
f 86/86/86 84/84/84 87/87/87
f 88/88/88 85/85/85 82/82/82
f 87/87/87 84/84/84 89/89/89
f 84/84/84 90/90/90 89/89/89
f 90/90/90 85/85/85 89/89/89
f 91/91/91 85/85/85 88/88/88
f 85/85/85 92/92/92 89/89/89
f 92/92/92 85/85/85 91/91/91
