g wall2_corner_outer
v 0.50350064 -0.004188521 0.31112632
v 0.2507188 0.9431245 0.10233734
v 0.50350016 0.943125 0.0913881
v 0.3110977 8.4101694E-09 0.5034999
v 0.5035003 1.0070002 -0.057790983
v 0.102976106 0.9431246 0.24075034
v 0.09135971 0.94312495 0.5034999
v -0.05781985 1.007 0.5034999
v 0.1468471 1.0069997 -0.006874954
v 0.5034994 1.007 -0.5035
v -0.0057421634 1.0069996 0.1369511
v -0.50349987 1.0070001 0.5035001
v -0.18594284 1.0069999 -0.19241624
v -0.50349987 1.0069999 -0.5035
vt 0.2272623 0.50569344
vt 0.23084646 0.5784479
vt 0.24010585 0.5784479
vt 0.22614565 0.50569344
vt 0.247631 0.58579886
vt 0.22354576 0.5784479
vt 0.21475677 0.5784479
vt 0.20676133 0.58579886
vt 0.22949517 0.58579886
vt 0.247631 0.62301975
vt 0.22489706 0.58579886
vt 0.20676133 0.62301975
vt 0.2271961 0.623042
vt 0.22719616 0.623042
vn 0.58946997 0.3242327 0.7398637
vn 0.2757541 0.7203702 0.6364169
vn 0.047564402 0.6320802 0.77344185
vn 0.729782 0.32476828 0.60161763
vn 0.02037858 0.97942847 0.20076002
vn 0.6257002 0.726257 0.28469273
vn 0.7732631 0.6322672 0.047982085
vn 0.20119163 0.9793402 0.020362748
vn 0.07513031 0.98699164 0.14213708
vn -4.7534402E-07 1 1.8205586E-07
vn 0.13537954 0.98779756 0.07699669
vn 5.5021235E-07 1 -3.1304802E-07
vn -0 1 0
vn -0 1 0
g wall2_corner_outer_0
f 3/3/3 2/2/2 1/1/1
f 4/4/4 1/1/1 2/2/2
f 2/2/2 3/3/3 5/5/5
f 4/4/4 2/2/2 6/6/6
f 7/7/7 4/4/4 6/6/6
f 8/8/8 7/7/7 6/6/6
f 5/5/5 9/9/9 2/2/2
f 6/6/6 2/2/2 9/9/9
f 9/9/9 5/5/5 10/10/10
f 6/6/6 11/11/11 8/8/8
f 9/9/9 11/11/11 6/6/6
f 12/12/12 8/8/8 11/11/11
f 10/10/10 13/13/13 9/9/9
f 9/9/9 13/13/13 11/11/11
f 11/11/11 13/13/13 12/12/12
f 10/10/10 14/14/14 13/13/13
f 12/12/12 13/13/13 14/14/14
