g wall_hill_2
v 0.19423579 -3.2231748E-07 0.4209303
v 0.20262778 0.58036095 0.26805675
v 0.2753091 -3.2231748E-07 0.33881932
v 0.2753203 1.1607231 0.12150775
v 0.43730482 -3.45726E-07 0.33966783
v 0.17016204 1.1607229 0.13927895
v 0.46267116 1.1607229 0.034023993
v 0.5034956 -3.2231748E-07 0.2761206
v 0.5035029 1.1607224 -0.02952287
v 0.39273587 1.742642 -0.11879791
v 0.5035066 1.7426416 -0.18234462
v 0.24885827 1.7426423 -0.037900493
v -0.005513168 1.151592 0.13994
v 0.3201276 1.7426425 -0.119645
v 0.41304556 2.033602 -0.19520885
v 0.50350845 2.0336015 -0.2587555
v -0.23019788 1.7426419 -0.036054034
v -0.19816734 1.0584592 0.14060102
v 0.23686288 2.0336022 -0.077824086
v 0.31382778 2.0336027 -0.19605573
v 0.43335527 2.324562 -0.2716198
v 0.50351024 2.3245616 -0.3351664
v 0.5034952 2.3245668 -0.50683534
v 0.2753315 2.3245628 -0.27246645
v -2.420082E-06 2.3245666 -0.50683594
v 0.20406212 2.3245623 -0.096632876
v -0.21506715 2.324562 -0.09478647
v -0.5035003 2.3245676 -0.50683594
v -0.42603263 1.160722 -0.01759102
v -0.27295277 0.5292291 0.26927468
v -0.23644225 2.0336018 -0.07597766
v -0.42602867 2.3245614 -0.32323253
v -0.5034959 2.3245616 -0.33516607
v -0.503497 2.0336015 -0.25875536
v -0.44324547 2.0336015 -0.24682218
v -0.50349814 1.7426418 -0.18234462
v -0.4432477 1.7426414 -0.17041178
v -0.5034954 1.1607223 -0.029523138
v -0.5035048 -3.2231748E-07 0.27611983
v -0.42604643 -3.2231748E-07 0.28805047
v -0.24821462 -3.45726E-07 0.4220441
v 0.19423579 -3.2231748E-07 0.4209303
v 0.1320004 -3.45726E-07 0.5084081
v 0.14810199 0.5454303 0.35553464
v 0.20262778 0.58036095 0.26805675
v 0.118541785 1.0908617 0.23570322
v 0.17016204 1.1607229 0.13927895
v -0.005513168 1.151592 0.13994
v 0.17016204 1.1607229 0.13927895
v 0.118541785 1.0908617 0.23570322
v -0.0049656145 1.0889058 0.26479402
v -0.27295277 0.5292291 0.26927468
v -0.19816734 1.0584592 0.14060102
v -0.15025605 1.0029482 0.22807884
v -0.21700723 0.5014736 0.3567526
v -0.24821462 -3.45726E-07 0.4220441
v -0.27295277 0.5292291 0.26927468
v -0.21700723 0.5014736 0.3567526
v -0.18423489 -3.8414E-07 0.5095219
v -0.005513168 1.151592 0.13994
v -0.0049656145 1.0889058 0.26479402
v -0.15025605 1.0029482 0.22807884
v -0.19816734 1.0584592 0.14060102
v 0.14810199 0.5454303 0.35553464
v -0.0049656145 1.0889058 0.26479402
v 0.118541785 1.0908617 0.23570322
v -0.010704892 -3.2097344E-07 0.54636526
v 0.1320004 -3.45726E-07 0.5084081
v -0.21700723 0.5014736 0.3567526
v -0.15025605 1.0029482 0.22807884
v -0.18423489 -3.8414E-07 0.5095219
vt 0.3378314 0.7513396
vt 0.3378314 0.8044076
vt 0.35092998 0.7513396
vt 0.35092998 0.85747564
vt 0.36614826 0.7513396
vt 0.3378314 0.85747564
vt 0.36614826 0.85747564
vt 0.37694952 0.7513396
vt 0.37694952 0.85747564
vt 0.36614826 0.9105437
vt 0.37694952 0.9105437
vt 0.3378314 0.9105437
vt 0.3161741 0.85747564
vt 0.35092998 0.9105437
vt 0.36614826 0.9380702
vt 0.37694952 0.9380702
vt 0.29451674 0.9105437
vt 0.29451674 0.85747564
vt 0.3378314 0.9380702
vt 0.35092998 0.9380702
vt 0.36614826 0.9655967
vt 0.37694952 0.9655967
vt 0.37694952 0.99703133
vt 0.35092998 0.9655967
vt 0.3025743 0.99703133
vt 0.3378314 0.9655967
vt 0.29451674 0.9655967
vt 0.24884152 0.99703133
vt 0.27407676 0.85747564
vt 0.29451674 0.8044076
vt 0.29451674 0.9380702
vt 0.27407676 0.9655967
vt 0.24884152 0.9655967
vt 0.24884152 0.9380702
vt 0.27407676 0.9380702
vt 0.24884152 0.9105437
vt 0.27407676 0.9105437
vt 0.24884152 0.8574757
vt 0.24884152 0.7513396
vt 0.27407676 0.7513396
vt 0.29451674 0.7513396
vt 0.3378314 0.7513396
vt 0.33152324 0.7513396
vt 0.33152324 0.79962933
vt 0.3378314 0.8044076
vt 0.33152324 0.847919
vt 0.3378314 0.85747564
vt 0.3161741 0.85747564
vt 0.3378314 0.85747564
vt 0.33152324 0.847919
vt 0.31611395 0.847919
vt 0.29451674 0.8044076
vt 0.29451674 0.85747564
vt 0.30070466 0.847919
vt 0.30070466 0.79962933
vt 0.29451674 0.7513396
vt 0.29451674 0.8044076
vt 0.30070466 0.79962933
vt 0.30070466 0.7513396
vt 0.3161741 0.85747564
vt 0.31611395 0.847919
vt 0.30070466 0.847919
vt 0.29451674 0.85747564
vt 0.33152324 0.79962933
vt 0.31611395 0.847919
vt 0.33152324 0.847919
vt 0.3154503 0.7513396
vt 0.33152324 0.7513396
vt 0.30070466 0.79962933
vt 0.30070466 0.847919
vt 0.30070466 0.7513396
vn 0.7009626 0.17217197 0.6921043
vn 0.45703593 0.16840784 0.87335956
vn 0.48425817 0.1973381 0.85238
vn 0.3059857 0.24781619 0.919217
vn 0.50023806 0.19630203 0.843343
vn 0.1947973 0.26327297 0.9448499
vn 0.507912 0.23464896 0.82883364
vn 0.7551688 0.15919404 0.6359068
vn 0.68388724 0.20215534 0.7010217
vn 0.36377048 0.2613411 0.894076
vn 0.5712128 0.21540375 0.79203355
vn 0.35400453 0.22212783 0.90848225
vn -0.056740876 0.26872405 0.9615446
vn 0.42021233 0.25292033 0.8714659
vn 0.28999582 0.23347443 0.92811203
vn 0.57160556 0.18969533 0.79829997
vn -0.2916686 0.19974908 0.9354302
vn -0.38225785 0.2486016 0.88998663
vn 0.49274844 0.15126261 0.856924
vn 0.46478 0.24060571 0.8521083
vn 0.24954271 0.71498924 0.653084
vn 0.29381448 0.88079786 0.37130603
vn 7.7489985E-06 1 2.1481555E-05
vn 0.22037347 0.90384054 0.36675304
vn 1.3212513E-06 1 1.2421393E-05
vn 0.38608217 0.64851135 0.65602857
vn -0.26660684 0.6704475 0.69240236
vn -9.637165E-06 1 2.5027335E-05
vn -0.33892968 0.23773164 0.9102803
vn -0.5877898 0.21060407 0.7811205
vn -0.3447219 0.13869071 0.9284027
vn -0.23414439 0.8476005 0.47618252
vn -0.09797973 0.8189856 0.5653871
vn -0.17627245 0.25238195 0.95143646
vn -0.4169104 0.21320675 0.8835885
vn -0.1771406 0.24887744 0.9521981
vn -0.36874604 0.21613517 0.90405303
vn -0.15659618 0.2500044 0.9554975
vn -0.14732803 0.25186315 0.9564828
vn -0.39505622 0.23079766 0.8891924
vn -0.58981824 0.198392 0.7827867
vn 0.81113344 0.13678603 0.5686406
vn 0.81113344 0.13678601 0.56864053
vn 0.81113344 0.13678603 0.56864053
vn 0.81113344 0.13678603 0.5686406
vn 0.80890495 0.16892713 0.5631487
vn 0.8089049 0.16892715 0.5631487
vn 0.019714752 0.8556891 0.51711446
vn 0.019714752 0.8556891 0.51711446
vn 0.019714752 0.8556891 0.51711446
vn 0.019714752 0.8556891 0.51711446
vn -0.7751554 0.25118235 0.5796908
vn -0.77515537 0.25118235 0.5796909
vn -0.7751554 0.25118235 0.5796908
vn -0.7751554 0.25118238 0.5796909
vn -0.8089754 0.12512626 0.5743711
vn -0.8089754 0.12512626 0.5743711
vn -0.8089754 0.12512626 0.5743711
vn -0.80897546 0.12512624 0.57437104
vn -0.44443107 0.73576903 0.51100385
vn -0.44443104 0.7357691 0.51100385
vn -0.444431 0.73576903 0.51100385
vn -0.444431 0.7357691 0.5110038
vn 0.28622425 0.23790418 0.92815804
vn -0.0030564014 0.25194559 0.9677366
vn 0.22030033 0.22068536 0.9501398
vn 0.018853998 0.26635084 0.9636918
vn 0.24857482 0.25459886 0.9345534
vn -0.27003616 0.24881126 0.930147
vn -0.38628802 0.2771554 0.8797537
vn -0.1997643 0.2735746 0.94087785
g wall_hill_2_0
f 3/3/3 2/2/2 1/1/1
f 4/4/4 2/2/2 3/3/3
f 4/4/4 3/3/3 5/5/5
f 6/6/6 2/2/2 4/4/4
f 7/7/7 4/4/4 5/5/5
f 7/7/7 5/5/5 8/8/8
f 9/9/9 7/7/7 8/8/8
f 10/10/10 7/7/7 9/9/9
f 4/4/4 7/7/7 10/10/10
f 11/11/11 10/10/10 9/9/9
f 12/12/12 6/6/6 4/4/4
f 13/13/13 6/6/6 12/12/12
f 14/14/14 4/4/4 10/10/10
f 14/14/14 12/12/12 4/4/4
f 15/15/15 10/10/10 11/11/11
f 14/14/14 10/10/10 15/15/15
f 16/16/16 15/15/15 11/11/11
f 17/17/17 13/13/13 12/12/12
f 18/18/18 13/13/13 17/17/17
f 19/19/19 12/12/12 14/14/14
f 12/12/12 19/19/19 17/17/17
f 20/20/20 14/14/14 15/15/15
f 20/20/20 19/19/19 14/14/14
f 21/21/21 15/15/15 16/16/16
f 20/20/20 15/15/15 21/21/21
f 22/22/22 21/21/21 16/16/16
f 21/21/21 22/22/22 23/23/23
f 24/24/24 21/21/21 23/23/23
f 24/24/24 20/20/20 21/21/21
f 25/25/25 24/24/24 23/23/23
f 24/24/24 26/26/26 20/20/20
f 26/26/26 24/24/24 25/25/25
f 26/26/26 19/19/19 20/20/20
f 27/27/27 26/26/26 25/25/25
f 19/19/19 26/26/26 27/27/27
f 28/28/28 27/27/27 25/25/25
f 29/29/29 18/18/18 17/17/17
f 18/18/18 29/29/29 30/30/30
f 19/19/19 31/31/31 17/17/17
f 31/31/31 19/19/19 27/27/27
f 32/32/32 27/27/27 28/28/28
f 33/33/33 32/32/32 28/28/28
f 33/33/33 34/34/34 32/32/32
f 32/32/32 35/35/35 27/27/27
f 34/34/34 35/35/35 32/32/32
f 35/35/35 31/31/31 27/27/27
f 34/34/34 36/36/36 35/35/35
f 37/37/37 17/17/17 31/31/31
f 35/35/35 37/37/37 31/31/31
f 36/36/36 37/37/37 35/35/35
f 37/37/37 29/29/29 17/17/17
f 36/36/36 38/38/38 37/37/37
f 38/38/38 29/29/29 37/37/37
f 29/29/29 38/38/38 39/39/39
f 40/40/40 29/29/29 39/39/39
f 30/30/30 29/29/29 40/40/40
f 41/41/41 30/30/30 40/40/40
f 44/44/44 43/43/43 42/42/42
f 45/45/45 44/44/44 42/42/42
f 46/46/46 44/44/44 45/45/45
f 47/47/47 46/46/46 45/45/45
f 50/50/50 49/49/49 48/48/48
f 51/51/51 50/50/50 48/48/48
f 54/54/54 53/53/53 52/52/52
f 55/55/55 54/54/54 52/52/52
f 58/58/58 57/57/57 56/56/56
f 59/59/59 58/58/58 56/56/56
f 62/62/62 61/61/61 60/60/60
f 63/63/63 62/62/62 60/60/60
f 66/66/66 65/65/65 64/64/64
f 64/64/64 65/65/65 67/67/67
f 68/68/68 64/64/64 67/67/67
f 69/69/69 67/67/67 65/65/65
f 70/70/70 69/69/69 65/65/65
f 71/71/71 67/67/67 69/69/69
