g wall_hill_1
v -0.8182929 -3.45726E-07 0.529955
v -0.8556748 0.47363567 0.41533893
v -0.78171486 0.85888135 0.30072284
v -0.9109857 -3.45726E-07 0.2900022
v -0.8556748 0.47363567 0.41533893
v -0.8182929 -3.45726E-07 0.529955
v -0.93188596 0.47363567 0.17538604
v -0.8414444 0.956781 0.060769893
v -0.78171486 0.85888135 0.30072284
v -0.43141818 1.0600141 0.0014338506
v -0.50350124 1.0600141 -0.0026122576
v -0.5034951 1.1607217 -0.029522408
v -0.39587826 0.849372 0.32239637
v -0.8182929 -3.45726E-07 0.529955
v -0.3629168 -4.0640754E-07 0.5516285
v -0.25515357 0.87968194 0.2724333
v -0.20531729 -4.03347E-07 0.5014803
v -0.052250378 -3.45726E-07 0.36832827
v -0.15002911 1.0600142 0.1252923
v -0.4423998 1.1607219 -0.02547628
v -0.39077094 1.7426423 -0.17829835
v -0.50349754 1.742642 -0.18234453
v -0.5034963 2.033602 -0.25875524
v -0.29406497 1.1607225 0.048881605
v -0.093848236 1.0600144 0.15290006
v -0.4366321 2.033602 -0.25470906
v -0.3098794 1.7426423 -0.050332338
v -0.44240224 2.324562 -0.33111978
v -0.5034951 2.324562 -0.335166
v -0.37071 2.0336022 -0.0944064
v -0.09106285 1.6196083 -0.04991552
v -0.067164 1.1607225 0.07648937
v -1.382904E-06 2.3245673 -0.50683564
v -0.5034991 2.3245676 -0.5068357
v 0.37784395 2.3245623 -0.31690878
v 0.5034963 2.324567 -0.5068356
v 0.50351167 2.324562 -0.3351666
v 0.50350976 2.0336022 -0.2587557
v -0.39144954 2.324562 -0.17081709
v 0.40023747 2.0336025 -0.24049795
v 0.50350785 1.742642 -0.18234482
v 0.42263103 1.7426425 -0.1640871
v 0.5034991 1.1607214 -0.012204781
v 0.24444807 2.060634 0.021413395
v 0.25217625 2.3245628 -0.05499738
v -0.10787568 2.3245623 -0.10165713
v -0.076167725 2.0336025 -0.025246378
v -0.026452312 2.3245623 -0.04727524
v -0.04483957 1.6196083 0.004466386
v -0.012344387 2.0336025 0.029135482
v 0.2277873 1.673671 -0.003255654
v -0.028420214 1.2154412 0.20704044
v 0.0029175433 1.5744488 0.15348807
v -0.06874034 1.1147331 0.23320796
v 0.032953028 0.054718364 0.4624401
v 0.13733757 1.1147331 0.25267696
v 0.07784508 0.05471844 0.4667955
v 0.16443066 -3.45726E-07 0.40160117
v 0.19507378 1.2154413 0.22650927
v 0.18161453 1.0600144 0.17236893
v 0.22519863 0.056766905 0.5870787
v 0.17292133 1.5863606 0.14576605
v 0.23314798 1.1607226 0.09595824
v 0.44399893 1.1607217 0.0060527595
v 0.5035021 1.060014 0.012679099
v 0.42746192 1.0600141 0.030936562
v 0.2748214 0.9073092 0.3578465
v 0.7442445 0.90730906 0.34275317
v 0.7969303 0.056766827 0.5719855
v 0.79843915 1.0052086 0.24120183
v 0.84592885 1.0052085 0.02107609
v 0.9533529 0.58721596 0.13569239
v 0.85266834 0.587216 0.35581806
v 0.79847443 0.58721596 0.4573693
v 0.8511236 0.056766827 0.4704343
v 0.9414913 0.056766886 0.25030875
v -0.41858453 -0.012285993 0.4720921
v -0.531038 0.118730895 0.62314785
v -0.43173534 0.12373058 0.46501088
v -0.5176195 -0.012619504 0.6303292
v -0.5629643 -0.01268448 0.66199046
v -0.5765398 0.12006697 0.65516883
v -0.76536125 0.13012272 0.59250265
v -0.7052381 0.14504091 0.3669403
v -0.59913987 0.13739528 0.32091317
v -0.43173534 0.12373058 0.46501088
v -0.721522 0.14416495 0.39268154
v -0.7235127 -0.012696331 0.36113337
v -0.73702306 -0.012695131 0.3818359
v -0.78718656 0.13531685 0.56063193
v -0.531038 0.118730895 0.62314785
v -0.7930812 -0.0126911355 0.559955
v -0.76536125 0.13012272 0.59250265
v -0.7681581 -0.012689023 0.5914851
v -0.5765398 0.12006697 0.65516883
v -0.5629643 -0.01268448 0.66199046
v -0.44932884 0.38865384 0.08585414
v -0.24980566 0.36991256 0.056205716
v -0.032830063 0.33641776 0.3745379
v -0.48838437 0.38650745 0.12186972
v -0.4774947 0.0020007933 0.06782314
v -0.50960326 0.002004212 0.09660046
v -0.6748257 0.3648187 0.37517518
v -0.2715112 0.3241623 0.59612554
v -0.68445134 0.0020140267 0.3713738
v -0.65244377 0.35208645 0.43872002
v -0.6641847 0.0020191942 0.44783133
v -0.36262268 0.32743734 0.62953126
v -0.35032058 0.0020303724 0.6592399
v -0.2715112 0.3241623 0.59612554
v -0.36262268 0.32743734 0.62953126
v -0.65244377 0.35208645 0.43872002
v -0.35032058 0.0020303724 0.6592399
v -0.2521469 0.0021897133 0.61428165
v -0.013871027 0.0030070671 0.39240387
v -0.032830063 0.33641776 0.3745379
v -0.23084514 0.036501117 0.07407049
v -0.24980566 0.36991256 0.056205716
v -0.4774947 0.0020007933 0.06782314
v -0.44932884 0.38865384 0.08585414
v 0.6297499 -0.012689123 0.44999635
v 0.77331746 0.12006685 0.5919877
v 0.7824649 -0.012684608 0.60411793
v 0.63180643 0.1301226 0.45214757
v 0.6213763 -0.0126912305 0.41068715
v 0.6263609 0.13531676 0.41390583
v 0.75055057 -0.01269519 0.27584296
v 0.9673083 0.12691203 0.43832442
v 0.75964206 0.14416489 0.29243413
v 0.771835 -0.012696398 0.2632693
v 0.90115434 0.13739519 0.28231803
v 0.785645 0.14504085 0.27657223
v 0.21850848 0.2958641 0.17927346
v 0.40333158 0.2771228 0.09847141
v 0.69601434 0.24362794 0.34897187
v 0.19023246 0.29371768 0.22425038
v 0.18660705 0.0020007933 0.16923691
v 0.16314293 0.0020042313 0.20541054
v 0.07653371 0.27202886 0.5175021
v 0.5235987 0.23137248 0.62527335
v 0.05003264 0.0020140365 0.5171325
v 0.11475685 0.25929663 0.5729809
v 0.10006461 0.0020192044 0.5971783
v 0.44439614 0.23464751 0.68134665
v 0.45829725 0.002030373 0.71913576
v 0.5235987 0.23137248 0.62527335
v 0.44439614 0.23464751 0.68134665
v 0.11475685 0.25929663 0.5729809
v 0.45829725 0.002030373 0.71913576
v 0.54703766 0.0021897133 0.6377328
v 0.7189863 0.0030070671 0.36125717
v 0.69601434 0.24362794 0.34897187
v 0.4263046 0.036501147 0.11075513
v 0.40333158 0.2771228 0.09847141
v 0.18660705 0.0020007933 0.16923691
v 0.21850848 0.2958641 0.17927346
v 0.90115434 0.13739519 0.28231803
v 0.785645 0.14504085 0.27657223
v 0.771835 -0.012696398 0.2632693
v 0.9043879 -0.012286148 0.27281347
v 0.9673083 0.12691203 0.43832442
v 0.9809896 -0.012286139 0.44798937
v 0.95767987 -0.012375253 0.5220878
v 0.9435024 0.12235135 0.5126402
v 0.63180643 0.1301226 0.45214757
v 0.77331746 0.12006685 0.5919877
v 0.8282962 0.11873076 0.58344144
v 0.8371443 -0.012619639 0.59582514
v 0.7824649 -0.012684608 0.60411793
vt 0.3979485 0.75284237
vt 0.3979481 0.78502953
vt 0.39794767 0.81721663
vt 0.3773762 0.75284237
vt 0.3979481 0.78502953
vt 0.3979485 0.75284237
vt 0.3773762 0.78502953
vt 0.3773762 0.81721663
vt 0.39794767 0.81721663
vt 0.39732763 0.8375311
vt 0.37675616 0.8375311
vt 0.3773762 0.87206155
vt 0.4055081 0.81721663
vt 0.3979485 0.75284237
vt 0.40550905 0.75284237
vt 0.41048437 0.81721663
vt 0.4124462 0.75284237
vt 0.42962795 0.75284237
vt 0.4185191 0.81721663
vt 0.39794725 0.87206155
vt 0.39794645 0.9129482
vt 0.3773762 0.9129482
vt 0.3773762 0.9392724
vt 0.4185183 0.87206155
vt 0.4371757 0.81721663
vt 0.39794606 0.9392724
vt 0.4185167 0.9129482
vt 0.39794564 0.9655967
vt 0.3773762 0.9655967
vt 0.41851592 0.9392724
vt 0.43741524 0.9129482
vt 0.43717504 0.87206155
vt 0.43738747 0.9976576
vt 0.3773762 0.9976576
vt 0.4801709 0.9655967
vt 0.4973987 0.9976576
vt 0.4973987 0.9655967
vt 0.4973987 0.9392724
vt 0.41851512 0.9655967
vt 0.48017117 0.9392724
vt 0.4973987 0.9129482
vt 0.48017144 0.9129482
vt 0.4973987 0.87206155
vt 0.46743447 0.9392724
vt 0.46743447 0.9655967
vt 0.43741393 0.9655967
vt 0.4374146 0.9392724
vt 0.44404435 0.9655967
vt 0.4440456 0.9129482
vt 0.44404498 0.9392724
vt 0.46743447 0.9129482
vt 0.44767517 0.87206155
vt 0.44767517 0.9044937
vt 0.44715136 0.81721663
vt 0.44715255 0.75284237
vt 0.45927474 0.81721663
vt 0.45927474 0.75284237
vt 0.47098064 0.75284237
vt 0.45927474 0.87206155
vt 0.47097945 0.81721663
vt 0.47802085 0.75284237
vt 0.45927474 0.9044937
vt 0.4681435 0.87206155
vt 0.48017195 0.87206155
vt 0.49677867 0.8375311
vt 0.47955218 0.8375311
vt 0.47801998 0.81721663
vt 0.48286468 0.81721663
vt 0.48286533 0.75284237
vt 0.48770934 0.81721663
vt 0.49739873 0.81721663
vt 0.49739873 0.78502953
vt 0.48770958 0.78502953
vt 0.482865 0.78502953
vt 0.48770982 0.75284237
vt 0.49739873 0.75284237
vt 0.45355955 0.7515897
vt 0.45845088 0.8006499
vt 0.45333025 0.8006499
vt 0.45868343 0.7513486
vt 0.45970863 0.75130165
vt 0.45948777 0.8006499
vt 0.45745856 0.8006499
vt 0.45015457 0.8006499
vt 0.4486642 0.8006499
vt 0.45333025 0.8006499
vt 0.4509881 0.8006499
vt 0.44996655 0.7512931
vt 0.45063692 0.75129396
vt 0.45642653 0.8006499
vt 0.45845088 0.8006499
vt 0.45640466 0.7512969
vt 0.45745856 0.8006499
vt 0.45742562 0.7512984
vt 0.45948777 0.8006499
vt 0.45970863 0.75130165
vt 0.45015457 0.8006499
vt 0.4486642 0.8006499
vt 0.45333025 0.8006499
vt 0.4509881 0.8006499
vt 0.44996655 0.7512931
vt 0.45063692 0.75129396
vt 0.45642653 0.8006499
vt 0.45845088 0.8006499
vt 0.45640466 0.7512969
vt 0.45745856 0.8006499
vt 0.45742562 0.7512984
vt 0.45948777 0.8006499
vt 0.45970863 0.75130165
vt 0.45845088 0.8006499
vt 0.45948777 0.8006499
vt 0.45745856 0.8006499
vt 0.45970863 0.75130165
vt 0.45868343 0.7513486
vt 0.45355955 0.7515897
vt 0.45333025 0.8006499
vt 0.45355955 0.7515897
vt 0.45333025 0.8006499
vt 0.45355955 0.7515897
vt 0.45333025 0.8006499
vt 0.45742562 0.7512984
vt 0.45948777 0.8006499
vt 0.45970863 0.75130165
vt 0.45745856 0.8006499
vt 0.45640466 0.7512969
vt 0.45642653 0.8006499
vt 0.45063692 0.75129396
vt 0.45333025 0.8006499
vt 0.4509881 0.8006499
vt 0.44996655 0.7512931
vt 0.4486642 0.8006499
vt 0.45015457 0.8006499
vt 0.45015457 0.8006499
vt 0.4486642 0.8006499
vt 0.45333025 0.8006499
vt 0.4509881 0.8006499
vt 0.44996655 0.7512931
vt 0.45063692 0.75129396
vt 0.45642653 0.8006499
vt 0.45845088 0.8006499
vt 0.45640466 0.7512969
vt 0.45745856 0.8006499
vt 0.45742562 0.7512984
vt 0.45948777 0.8006499
vt 0.45970863 0.75130165
vt 0.45845088 0.8006499
vt 0.45948777 0.8006499
vt 0.45745856 0.8006499
vt 0.45970863 0.75130165
vt 0.45868343 0.7513486
vt 0.45355955 0.7515897
vt 0.45333025 0.8006499
vt 0.45355955 0.7515897
vt 0.45333025 0.8006499
vt 0.45355955 0.7515897
vt 0.45333025 0.8006499
vt 0.45333025 0.8006499
vt 0.45333025 0.8006499
vt 0.45355955 0.7515897
vt 0.45355955 0.7515897
vt 0.45333025 0.8006499
vt 0.45355955 0.7515897
vt 0.45492873 0.7515253
vt 0.45474273 0.8006499
vt 0.45745856 0.8006499
vt 0.45948777 0.8006499
vt 0.45845088 0.8006499
vt 0.45868343 0.7513486
vt 0.45970863 0.75130165
vn -0.5274803 0.18622735 0.8289052
vn -0.60893637 0.22605988 0.76032454
vn -0.467595 0.5539276 0.6888535
vn -0.9430482 0.022296872 0.33190808
vn -0.60893637 0.22605988 0.76032454
vn -0.5274803 0.18622735 0.8289052
vn -0.93374765 0.15524672 0.3225117
vn -0.5160957 0.7313311 0.44586992
vn -0.467595 0.5539276 0.6888535
vn -0.21127467 0.5321952 0.8198362
vn -0.13324678 0.7131694 0.6882112
vn -0.051733043 0.25517914 0.9655088
vn 0.08189727 0.5505675 0.8307636
vn -0.5274803 0.18622735 0.8289052
vn 0.12825221 0.26178148 0.9565677
vn 0.3083101 0.50393003 0.8068454
vn 0.46209395 0.24876417 0.85122585
vn -0.07654497 -0.07853844 0.993968
vn -0.20002908 0.4625068 0.8637568
vn -0.2948118 0.22021922 0.92983294
vn -0.49324322 0.15664358 0.8556716
vn -0.0442657 0.25306615 0.96643573
vn -0.052408922 0.25177684 0.9663653
vn -0.35220823 0.21774662 0.9102394
vn -0.6942843 0.29315272 0.65729034
vn -0.5610044 0.1530845 0.813535
vn -0.4503781 0.082947806 0.8889765
vn -0.24870758 0.8940585 0.37256372
vn -0.037564047 0.80360013 0.593983
vn -0.62578785 0.065008186 0.7772795
vn -0.39672756 0.11627387 0.91054255
vn -0.61721575 0.37093616 0.6938667
vn -3.6429046E-07 1 1.31589595E-05
vn -0 1 3.1464228E-05
vn 0.26744822 0.8805051 0.39138502
vn 1.7141115E-06 1 2.5404855E-05
vn 0.0906098 0.8179571 0.5680987
vn 0.16964991 0.25642318 0.95155984
vn -0.5365147 0.66301537 0.52207524
vn 0.54179424 0.1975495 0.8169659
vn 0.21406142 0.26604933 0.9398912
vn 0.45433035 0.20158787 0.8677247
vn 0.24791119 0.24601825 0.93702465
vn 0.45797408 0.12393689 0.8802837
vn 0.4131295 0.6928984 0.5909447
vn -0.26336914 0.75566334 0.59967464
vn -0.4474549 0.10431628 0.88820165
vn -0.22947885 0.7271071 0.64703524
vn -0.61429507 0.25345117 0.74726444
vn -0.31154191 0.089821815 0.9459776
vn 0.45977545 0.254978 0.85064256
vn -0.6039768 0.28300378 0.74506444
vn -0.50221825 0.50608736 0.7011792
vn -0.64669895 0.29304093 0.7042069
vn -0.40958616 -0.32708734 0.85161793
vn 0.37808663 0.11978279 0.91798836
vn 0.25476605 -0.31107205 0.9156028
vn -0.2239694 -0.21034972 0.9516252
vn 0.6005978 0.08088611 0.7954494
vn 0.60734856 0.27394077 0.7457106
vn -0.5529521 0.22715095 0.8016524
vn 0.43395722 0.5393345 0.72166437
vn 0.6907132 0.13510092 0.7103964
vn 0.352282 0.24673338 0.90278465
vn 0.21353073 0.8566704 0.4695961
vn 0.25710928 0.6314633 0.7315387
vn -0.41222873 0.52115524 0.7473049
vn 0.3183314 0.5352682 0.7824021
vn 0.47702953 0.2138455 0.8524746
vn 0.46305352 0.745754 0.47899097
vn 0.6225072 0.7499219 0.2238343
vn 0.91971207 0.17896192 0.34943146
vn 0.87854826 0.18192437 0.44165206
vn 0.49240902 0.24977706 0.8337534
vn 0.8948755 0.08803419 0.43754745
vn 0.91481507 0.07421992 0.39699492
vn 0.8411083 0.11181311 0.5291829
vn 0.53114384 0.6741033 0.51329416
vn 0.5532415 0.7485321 0.36554545
vn 0.723039 0.10892128 0.68216616
vn 0.1682153 0.06399727 0.9836707
vn 0.10878568 0.61695325 0.7794449
vn -0.42716283 0.6289417 0.64958775
vn -0.37565035 0.9005623 -0.21880192
vn 0.053437658 0.9968123 0.059241585
vn 0.5532415 0.7485321 0.36554545
vn -0.6058753 0.74724895 -0.27300903
vn -0.8368089 0.11813915 -0.534597
vn -0.8944042 0.099244975 -0.4361097
vn -0.7388741 0.660864 0.13162026
vn 0.53114384 0.6741033 0.51329416
vn -0.9875871 0.056243386 0.14665753
vn -0.42716283 0.6289417 0.64958775
vn -0.59211016 0.0147576025 0.8057219
vn 0.10878568 0.61695325 0.7794449
vn 0.1682153 0.06399727 0.9836707
vn -0.26134574 0.71472347 -0.648744
vn 0.35789156 0.61969215 -0.698495
vn 0.8045728 0.58518285 0.1011126
vn -0.51897633 0.7478193 -0.41404083
vn -0.41127098 0.04883063 -0.91020423
vn -0.75308245 0.07074862 -0.6541112
vn -0.745916 0.66049457 -0.085768886
vn 0.40322065 0.651116 0.6430095
vn -0.98741364 0.0481743 -0.15064415
vn -0.5889542 0.6371137 0.49721125
vn -0.8003417 0.04152113 0.5981047
vn -0.06492715 0.61679524 0.7844413
vn -0.08307301 0.07650257 0.9936027
vn 0.40322065 0.651116 0.6430095
vn -0.06492715 0.61679524 0.7844413
vn -0.5889542 0.6371137 0.49721125
vn -0.08307301 0.07650257 0.9936027
vn 0.5398438 0.08453431 0.8375098
vn 0.9853572 0.065915495 0.15724641
vn 0.8045728 0.58518285 0.1011126
vn 0.45680147 0.010450334 -0.8895073
vn 0.35789156 0.61969215 -0.698495
vn -0.41127098 0.04883063 -0.91020423
vn -0.26134574 0.71472347 -0.648744
vn -0.88780713 0.014758269 0.4599791
vn -0.24766263 0.61690396 0.74705607
vn -0.28502992 0.063998364 0.9563797
vn -0.6706381 0.62896293 0.39325583
vn -0.9503403 0.056244165 -0.30608803
vn -0.72066426 0.66094893 -0.20925918
vn -0.6085993 0.09924603 -0.78724647
vn 0.7489383 0.6625387 -0.011568457
vn -0.42209974 0.74735814 -0.5131155
vn -0.2482304 0.10043587 -0.96348035
vn 0.4588385 0.6446265 -0.6114932
vn -0.15716176 0.7163024 -0.679861
vn -0.41743937 0.7186886 -0.55608547
vn 0.15548891 0.62290925 -0.76668584
vn 0.7954411 0.59447646 -0.11777617
vn -0.5941491 0.7593493 -0.26528385
vn -0.63729185 0.06481587 -0.76789194
vn -0.89041096 0.10644357 -0.44253606
vn -0.7221174 0.6831017 0.10917168
vn 0.5540471 0.6662276 0.49917188
vn -0.98813194 0.10677012 0.11043275
vn -0.42004496 0.6628497 0.6198325
vn -0.60177547 0.11094361 0.79092205
vn 0.15206906 0.64459765 0.7492456
vn 0.18844226 0.14472973 0.9713613
vn 0.5540471 0.6662276 0.49917188
vn 0.15206906 0.64459765 0.7492456
vn -0.42004496 0.6628497 0.6198325
vn 0.18844226 0.14472973 0.9713613
vn 0.7468689 0.12402914 0.6533021
vn 0.99090976 0.0921516 -0.09801003
vn 0.7954411 0.59447646 -0.11777617
vn 0.21682535 0.014688867 -0.97609985
vn 0.15548891 0.62290925 -0.76668584
vn -0.63729185 0.06481587 -0.76789194
vn -0.41743937 0.7186886 -0.55608547
vn 0.4588385 0.6446265 -0.6114932
vn -0.15716176 0.7163024 -0.679861
vn -0.2482304 0.10043587 -0.96348035
vn 0.5694885 0.07352466 -0.81870437
vn 0.7489383 0.6625387 -0.011568457
vn 0.99520266 0.09276064 -0.031098763
vn 0.78094506 0.12349768 0.612269
vn 0.5772533 0.65942657 0.48159656
vn -0.6706381 0.62896293 0.39325583
vn -0.24766263 0.61690396 0.74705607
vn 0.24812102 0.6744774 0.69535327
vn 0.34504694 0.11023396 0.9320896
vn -0.28502992 0.063998364 0.9563797
g wall_hill_1_0
f 3/3/3 2/2/2 1/1/1
f 6/6/6 5/5/5 4/4/4
f 5/5/5 7/7/7 4/4/4
f 8/8/8 7/7/7 5/5/5
f 9/9/9 8/8/8 5/5/5
f 8/8/8 9/9/9 10/10/10
f 11/11/11 8/8/8 10/10/10
f 12/12/12 11/11/11 10/10/10
f 9/9/9 13/13/13 10/10/10
f 13/13/13 9/9/9 14/14/14
f 14/14/14 15/15/15 13/13/13
f 16/16/16 13/13/13 15/15/15
f 13/13/13 16/16/16 10/10/10
f 17/17/17 16/16/16 15/15/15
f 16/16/16 17/17/17 18/18/18
f 10/10/10 16/16/16 19/19/19
f 19/19/19 16/16/16 18/18/18
f 20/20/20 12/12/12 10/10/10
f 20/20/20 10/10/10 19/19/19
f 12/12/12 20/20/20 21/21/21
f 22/22/22 12/12/12 21/21/21
f 22/22/22 21/21/21 23/23/23
f 24/24/24 20/20/20 19/19/19
f 21/21/21 20/20/20 24/24/24
f 25/25/25 19/19/19 18/18/18
f 24/24/24 19/19/19 25/25/25
f 21/21/21 26/26/26 23/23/23
f 27/27/27 21/21/21 24/24/24
f 26/26/26 21/21/21 27/27/27
f 23/23/23 26/26/26 28/28/28
f 29/29/29 23/23/23 28/28/28
f 30/30/30 26/26/26 27/27/27
f 28/28/28 26/26/26 30/30/30
f 27/27/27 24/24/24 31/31/31
f 27/27/27 31/31/31 30/30/30
f 32/32/32 24/24/24 25/25/25
f 24/24/24 32/32/32 31/31/31
f 29/29/29 28/28/28 33/33/33
f 34/34/34 29/29/29 33/33/33
f 35/35/35 33/33/33 28/28/28
f 33/33/33 35/35/35 36/36/36
f 35/35/35 37/37/37 36/36/36
f 37/37/37 35/35/35 38/38/38
f 39/39/39 28/28/28 30/30/30
f 28/28/28 39/39/39 35/35/35
f 35/35/35 40/40/40 38/38/38
f 38/38/38 40/40/40 41/41/41
f 40/40/40 42/42/42 41/41/41
f 41/41/41 42/42/42 43/43/43
f 44/44/44 40/40/40 35/35/35
f 42/42/42 40/40/40 44/44/44
f 39/39/39 45/45/45 35/35/35
f 45/45/45 44/44/44 35/35/35
f 39/39/39 30/30/30 46/46/46
f 39/39/39 46/46/46 45/45/45
f 30/30/30 47/47/47 46/46/46
f 31/31/31 47/47/47 30/30/30
f 46/46/46 48/48/48 45/45/45
f 45/45/45 48/48/48 44/44/44
f 46/46/46 47/47/47 48/48/48
f 31/31/31 49/49/49 47/47/47
f 31/31/31 32/32/32 49/49/49
f 47/47/47 50/50/50 48/48/48
f 48/48/48 50/50/50 44/44/44
f 49/49/49 50/50/50 47/47/47
f 44/44/44 50/50/50 51/51/51
f 51/51/51 42/42/42 44/44/44
f 50/50/50 49/49/49 51/51/51
f 32/32/32 52/52/52 49/49/49
f 49/49/49 53/53/53 51/51/51
f 52/52/52 53/53/53 49/49/49
f 54/54/54 52/52/52 32/32/32
f 25/25/25 54/54/54 32/32/32
f 55/55/55 54/54/54 25/25/25
f 18/18/18 55/55/55 25/25/25
f 52/52/52 54/54/54 56/56/56
f 56/56/56 54/54/54 55/55/55
f 57/57/57 55/55/55 18/18/18
f 57/57/57 56/56/56 55/55/55
f 58/58/58 57/57/57 18/18/18
f 56/56/56 57/57/57 58/58/58
f 53/53/53 52/52/52 59/59/59
f 59/59/59 52/52/52 56/56/56
f 60/60/60 56/56/56 58/58/58
f 59/59/59 56/56/56 60/60/60
f 58/58/58 61/61/61 60/60/60
f 53/53/53 62/62/62 51/51/51
f 62/62/62 53/53/53 59/59/59
f 51/51/51 62/62/62 63/63/63
f 62/62/62 59/59/59 63/63/63
f 63/63/63 59/59/59 60/60/60
f 51/51/51 63/63/63 42/42/42
f 63/63/63 64/64/64 42/42/42
f 42/42/42 64/64/64 43/43/43
f 43/43/43 64/64/64 65/65/65
f 64/64/64 63/63/63 66/66/66
f 63/63/63 60/60/60 66/66/66
f 64/64/64 66/66/66 65/65/65
f 61/61/61 67/67/67 60/60/60
f 60/60/60 67/67/67 66/66/66
f 68/68/68 67/67/67 61/61/61
f 67/67/67 68/68/68 66/66/66
f 68/68/68 61/61/61 69/69/69
f 66/66/66 70/70/70 65/65/65
f 68/68/68 70/70/70 66/66/66
f 70/70/70 71/71/71 65/65/65
f 71/71/71 70/70/70 72/72/72
f 70/70/70 68/68/68 73/73/73
f 70/70/70 73/73/73 72/72/72
f 69/69/69 74/74/74 68/68/68
f 68/68/68 74/74/74 73/73/73
f 73/73/73 74/74/74 69/69/69
f 75/75/75 73/73/73 69/69/69
f 72/72/72 73/73/73 75/75/75
f 76/76/76 72/72/72 75/75/75
f 79/79/79 78/78/78 77/77/77
f 78/78/78 80/80/80 77/77/77
f 80/80/80 78/78/78 81/81/81
f 78/78/78 82/82/82 81/81/81
f 83/83/83 82/82/82 78/78/78
f 86/86/86 85/85/85 84/84/84
f 84/84/84 87/87/87 86/86/86
f 84/84/84 88/88/88 87/87/87
f 88/88/88 89/89/89 87/87/87
f 87/87/87 90/90/90 86/86/86
f 90/90/90 87/87/87 89/89/89
f 90/90/90 91/91/91 86/86/86
f 92/92/92 90/90/90 89/89/89
f 90/90/90 93/93/93 91/91/91
f 93/93/93 90/90/90 92/92/92
f 94/94/94 93/93/93 92/92/92
f 95/95/95 93/93/93 94/94/94
f 96/96/96 95/95/95 94/94/94
f 99/99/99 98/98/98 97/97/97
f 97/97/97 100/100/100 99/99/99
f 97/97/97 101/101/101 100/100/100
f 101/101/101 102/102/102 100/100/100
f 100/100/100 103/103/103 99/99/99
f 103/103/103 100/100/100 102/102/102
f 103/103/103 104/104/104 99/99/99
f 105/105/105 103/103/103 102/102/102
f 103/103/103 106/106/106 104/104/104
f 106/106/106 103/103/103 105/105/105
f 107/107/107 106/106/106 105/105/105
f 108/108/108 106/106/106 107/107/107
f 109/109/109 108/108/108 107/107/107
f 112/112/112 111/111/111 110/110/110
f 110/110/110 111/111/111 113/113/113
f 114/114/114 110/110/110 113/113/113
f 110/110/110 114/114/114 115/115/115
f 116/116/116 110/110/110 115/115/115
f 115/115/115 117/117/117 116/116/116
f 117/117/117 118/118/118 116/116/116
f 117/117/117 119/119/119 118/118/118
f 119/119/119 120/120/120 118/118/118
f 123/123/123 122/122/122 121/121/121
f 122/122/122 124/124/124 121/121/121
f 121/121/121 124/124/124 125/125/125
f 124/124/124 126/126/126 125/125/125
f 125/125/125 126/126/126 127/127/127
f 126/126/126 124/124/124 128/128/128
f 126/126/126 129/129/129 127/127/127
f 129/129/129 126/126/126 128/128/128
f 130/130/130 127/127/127 129/129/129
f 129/129/129 128/128/128 131/131/131
f 132/132/132 130/130/130 129/129/129
f 131/131/131 132/132/132 129/129/129
f 135/135/135 134/134/134 133/133/133
f 133/133/133 136/136/136 135/135/135
f 133/133/133 137/137/137 136/136/136
f 137/137/137 138/138/138 136/136/136
f 136/136/136 139/139/139 135/135/135
f 139/139/139 136/136/136 138/138/138
f 139/139/139 140/140/140 135/135/135
f 141/141/141 139/139/139 138/138/138
f 139/139/139 142/142/142 140/140/140
f 142/142/142 139/139/139 141/141/141
f 143/143/143 142/142/142 141/141/141
f 144/144/144 142/142/142 143/143/143
f 145/145/145 144/144/144 143/143/143
f 148/148/148 147/147/147 146/146/146
f 146/146/146 147/147/147 149/149/149
f 150/150/150 146/146/146 149/149/149
f 146/146/146 150/150/150 151/151/151
f 152/152/152 146/146/146 151/151/151
f 151/151/151 153/153/153 152/152/152
f 153/153/153 154/154/154 152/152/152
f 153/153/153 155/155/155 154/154/154
f 155/155/155 156/156/156 154/154/154
f 159/159/159 158/158/158 157/157/157
f 160/160/160 159/159/159 157/157/157
f 160/160/160 157/157/157 161/161/161
f 162/162/162 160/160/160 161/161/161
f 162/162/162 161/161/161 163/163/163
f 161/161/161 164/164/164 163/163/163
f 165/165/165 164/164/164 161/161/161
f 165/165/165 166/166/166 164/164/164
f 164/164/164 167/167/167 163/163/163
f 166/166/166 167/167/167 164/164/164
f 167/167/167 168/168/168 163/163/163
f 167/167/167 166/166/166 169/169/169
f 168/168/168 167/167/167 169/169/169
