g wall2_outdoor_2
v 0.5034994 1.007 0.4978225
v -0.5035 1.007 0.4978225
v -0.5035 1.02714 0.4690382
v 0.5034994 1.02714 0.4690382
v 0.5034994 1.02714 0.36804363
v -0.5035006 1.0271399 0.36804363
v 0.5034988 1.2774913 0.01093685
v -0.5035006 1.0312303 -0.070948966
v 0.5034988 1.0312303 -0.07094889
v -0.5035006 1.2774913 0.01093685
v 0.5034994 1.3370383 0.07927874
v -0.5035006 1.3370383 0.07927874
v 0.5035 1.3370383 0.34273946
v -0.5035 1.3370383 0.34273946
v 0.5034994 1.2986406 0.37951484
v -0.5035 1.2986406 0.3795148
v -0.5035006 1.0271399 0.36804363
v 0.5034994 1.02714 0.36804363
v 0.5034988 1.007 0.0077462997
v -0.5035006 1.007 0.007746344
v -0.50350183 -1.9207E-08 -0.4228485
v 0.50349754 -1.9207E-08 -0.42284834
v 0.33359393 2.534739E-17 -0.41395426
v 0.33359456 0.40056905 -0.23807245
v 0.2299161 0.36609545 -0.4363689
v 0.22991548 2.7396588E-08 -0.6104344
v -0.22895482 2.7396583E-08 -0.6104346
v -0.33263266 0.40056905 -0.23807245
v -0.3326339 2.534739E-17 -0.41395426
v -0.22895482 0.36609548 -0.4363689
v -0.20165014 0.39340004 -0.42364419
v -0.33263266 0.40056905 -0.23807245
v -0.305328 0.42787373 -0.22665213
v 0.2026108 0.39340004 -0.42364419
v 0.22991548 2.7396588E-08 -0.6104344
v 0.30628988 0.42787373 -0.2266522
v 0.2299161 0.36609545 -0.4363689
v 0.33359456 0.40056905 -0.23807245
vt 0.19609478 0.20957182
vt 0.26735106 0.20957182
vt 0.26735106 0.20646738
vt 0.19609478 0.20646738
vt 0.19609478 0.19787072
vt 0.26735106 0.19787072
vt 0.20791072 0.14272878
vt 0.26095113 0.1237869
vt 0.20791079 0.12378682
vt 0.26095107 0.14272882
vt 0.20791064 0.14925848
vt 0.26095098 0.14925848
vt 0.20791048 0.17485462
vt 0.2609509 0.17485465
vt 0.20791039 0.17852318
vt 0.26095077 0.17852324
vt 0.26095074 0.19482175
vt 0.20791036 0.19482164
vt 0.27201176 0.19310154
vt 0.341516 0.19310154
vt 0.34151605 0.12433465
vt 0.27201176 0.12433465
vt 0.38574266 0.06293633
vt 0.38574266 0.094575085
vt 0.36824694 0.094575085
vt 0.36824694 0.06293633
vt 0.36824694 0.06293633
vt 0.38574266 0.094575085
vt 0.38574266 0.06293633
vt 0.36824694 0.094575085
vt 0.36527792 0.094575085
vt 0.36824694 0.11892189
vt 0.36527792 0.11892189
vt 0.3331405 0.094575085
vt 0.33023626 0.06293633
vt 0.3331405 0.11892189
vt 0.33023626 0.094575085
vt 0.33023626 0.11892189
vn -0 0.8193514 0.5732916
vn -0 0.8193514 0.5732916
vn -0 0.9537695 0.3005389
vn -0 0.9537693 0.3005395
vn -0 0.69202155 0.72187686
vn -0 0.6920207 0.72187763
vn -0 0.55431354 -0.83230793
vn -0 0.31552994 -0.94891566
vn -0 0.31552994 -0.94891566
vn -0 0.55431306 -0.83230823
vn -0 0.93647075 -0.35074562
vn -0 0.9364703 -0.35074693
vn -0 0.9196975 0.39262772
vn -0 0.9196971 0.39262858
vn -0 0.3530214 0.9356152
vn -0 0.35301968 0.93561584
vn -0 0.6920207 0.72187763
vn -0 0.69202155 0.72187686
vn -0 0.39316574 -0.9194677
vn -0 0.39316574 -0.9194677
vn -0 0.39316574 -0.9194677
vn -0 0.39316574 -0.9194677
vn 0.8569817 0.21399242 -0.46881744
vn 0.70034707 0.54939014 -0.45572412
vn 0.49791315 0.4883376 -0.7166651
vn 0.42124736 0.3855661 -0.8209077
vn -0.42124733 0.38556725 -0.8209072
vn -0.70034844 0.54938954 -0.4557229
vn -0.85698116 0.21399511 -0.46881717
vn -0.49791256 0.48833755 -0.71666557
vn -0.16853903 0.79186255 -0.58698237
vn -0.70034844 0.54938954 -0.4557229
vn -0.3362824 0.8818744 -0.330472
vn 0.1685367 0.79186255 -0.5869831
vn 0.42124736 0.3855661 -0.8209077
vn 0.3362811 0.8818745 -0.33047298
vn 0.49791315 0.4883376 -0.7166651
vn 0.70034707 0.54939014 -0.45572412
g wall2_outdoor_2_0
f 3/3/3 2/2/2 1/1/1
f 4/4/4 3/3/3 1/1/1
f 3/3/3 4/4/4 5/5/5
f 6/6/6 3/3/3 5/5/5
f 9/9/9 8/8/8 7/7/7
f 8/8/8 10/10/10 7/7/7
f 7/7/7 10/10/10 11/11/11
f 10/10/10 12/12/12 11/11/11
f 11/11/11 12/12/12 13/13/13
f 12/12/12 14/14/14 13/13/13
f 15/15/15 13/13/13 14/14/14
f 16/16/16 15/15/15 14/14/14
f 16/16/16 17/17/17 15/15/15
f 17/17/17 18/18/18 15/15/15
f 21/21/21 20/20/20 19/19/19
f 22/22/22 21/21/21 19/19/19
f 25/25/25 24/24/24 23/23/23
f 26/26/26 25/25/25 23/23/23
f 29/29/29 28/28/28 27/27/27
f 28/28/28 30/30/30 27/27/27
f 27/27/27 30/30/30 31/31/31
f 30/30/30 32/32/32 31/31/31
f 32/32/32 33/33/33 31/31/31
f 27/27/27 31/31/31 34/34/34
f 34/34/34 31/31/31 33/33/33
f 35/35/35 27/27/27 34/34/34
f 36/36/36 34/34/34 33/33/33
f 34/34/34 37/37/37 35/35/35
f 37/37/37 34/34/34 36/36/36
f 38/38/38 37/37/37 36/36/36
