g wall_brick1
v -0.038203903 1.7645417 -0.21288574
v -0.038203903 2.1089478 -0.34543222
v 0.22668907 1.7749 -0.61602914
v 0.033603903 2.1089497 -0.8293269
v 0.033599954 2.1089478 -0.34543222
v -0.20690134 1.7751373 -0.6159723
v 0.033599954 2.1089478 -0.34543222
v 0.033598863 1.7645417 -0.21288574
v -0.20690134 1.7751373 -0.6159723
v -0.038203903 2.1089478 -0.34543222
v -0.03820292 2.1089497 -0.8293269
v 0.22668907 1.7749 -0.61602914
v -0.9690319 2.1089482 -0.34543228
v -0.9690313 1.7645421 -0.21288583
v -1.2355559 1.7749 -0.61602926
v -0.9690286 2.1089497 -0.8293269
v -0.9690319 2.1089482 -0.34543228
v -1.2355559 1.7749 -0.61602926
v 0.03360417 2.0565822 -0.8723669
v -0.20690134 1.7751373 -0.6159723
v 0.03360334 1.4136341 -0.81450427
v -0.038202807 2.0565822 -0.8723669
v -0.038202878 1.4136341 -0.81450427
v 0.22668907 1.7749 -0.61602914
v -0.9690281 2.0565822 -0.87236696
v -1.2355559 1.7749 -0.61602926
v -0.9690273 1.4136341 -0.81450444
v 0.9787679 1.4136341 -0.81450456
v 1.1606901 1.7759418 -0.6161483
v 0.97876686 2.0565822 -0.87236744
v 0.9787664 2.1089497 -0.82932746
v 1.1606901 1.7759418 -0.6161483
v 0.9787645 2.1089482 -0.34544536
v 0.9787645 2.1089482 -0.34544536
v 1.1606901 1.7759418 -0.6161483
v 0.97876614 1.7645421 -0.21288843
v 0.033603903 2.1089497 -0.8293269
v -0.20690134 1.7751373 -0.6159723
v 0.03360417 2.0565822 -0.8723669
v 0.22668907 1.7749 -0.61602914
v -0.03820292 2.1089497 -0.8293269
v -0.038202807 2.0565822 -0.8723669
v -0.9690286 2.1089497 -0.8293269
v -1.2355559 1.7749 -0.61602926
v -0.9690281 2.0565822 -0.87236696
v 0.97876686 2.0565822 -0.87236744
v 1.1606901 1.7759418 -0.6161483
v 0.9787664 2.1089497 -0.82932746
v -9.21936E-07 0.31475067 0.013802957
v -1.0070012 0.3147508 0.013802765
v -1.0070015 1.7642885 -0.39687946
v -4.60968E-07 1.7642885 -0.3956759
v 1.0069993 0.31475058 0.01380315
v 1.0070007 1.7642885 -0.3944723
v -9.21936E-07 0.31475067 0.013802957
v 1.0069993 0.31475058 0.01380315
v 1.0069982 0.314751 0.23991406
v -1.306076E-06 0.3147511 0.23991412
v -1.0070012 0.3147508 0.013802765
v -1.0070008 0.31475118 0.23991418
v -1.306076E-06 0.3147511 0.23991412
v 1.0069982 0.314751 0.23991406
v 1.006999 0.00073374825 0.35766685
v -9.21936E-07 0.00073374825 0.3576667
v -1.0070008 0.31475118 0.23991418
v -1.0070008 0.00073374825 0.35766655
v -1.0070012 1.7642888 -0.67620885
v 1.006999 0.038612545 -0.9055457
v 1.0069997 1.7642888 -0.6762092
v -1.0070008 0.038612526 -0.9055457
v -0.9690319 2.1089482 -0.34543228
v -0.038203903 2.1089478 -0.34543222
v -0.038203903 1.7645417 -0.21288574
v -0.9690313 1.7645421 -0.21288583
v 0.97876686 2.0565822 -0.87236744
v 0.03360417 2.0565822 -0.8723669
v 0.03360334 1.4136341 -0.81450427
v 0.9787679 1.4136341 -0.81450456
v 0.9787645 2.1089482 -0.34544536
v 0.033599954 2.1089478 -0.34543222
v 0.033603903 2.1089497 -0.8293269
v 0.9787664 2.1089497 -0.82932746
v 0.033599954 2.1089478 -0.34543222
v 0.9787645 2.1089482 -0.34544536
v 0.97876614 1.7645421 -0.21288843
v 0.033598863 1.7645417 -0.21288574
v -0.038202807 2.0565822 -0.8723669
v -0.9690281 2.0565822 -0.87236696
v -0.9690273 1.4136341 -0.81450444
v -0.038202878 1.4136341 -0.81450427
v -0.038203903 2.1089478 -0.34543222
v -0.9690319 2.1089482 -0.34543228
v -0.9690286 2.1089497 -0.8293269
v -0.03820292 2.1089497 -0.8293269
v 0.03360417 2.0565822 -0.8723669
v 0.97876686 2.0565822 -0.87236744
v 0.9787664 2.1089497 -0.82932746
v 0.033603903 2.1089497 -0.8293269
v -0.9690281 2.0565822 -0.87236696
v -0.038202807 2.0565822 -0.8723669
v -0.03820292 2.1089497 -0.8293269
v -0.9690286 2.1089497 -0.8293269
vt 0.42061004 0.3336025
vt 0.41176367 0.3350396
vt 0.42061004 0.33649945
vt 0.40853623 0.3454327
vt 0.40853623 0.33749977
vt 0.4177943 0.33945036
vt 0.41176367 0.3350396
vt 0.42061004 0.3336025
vt 0.42061004 0.33649945
vt 0.40853623 0.33749977
vt 0.40853623 0.3454327
vt 0.4177943 0.33945036
vt 0.41176367 0.3350396
vt 0.42061004 0.3336025
vt 0.42061004 0.33649945
vt 0.40853623 0.3454327
vt 0.40853623 0.33749977
vt 0.4177943 0.33945036
vt 0.41363475 0.3475532
vt 0.4237925 0.33975148
vt 0.4237925 0.35606122
vt 0.41363475 0.3475532
vt 0.4237925 0.35606122
vt 0.4237925 0.33975148
vt 0.41363475 0.3475532
vt 0.4237925 0.33975148
vt 0.4237925 0.35606122
vt 0.4237925 0.35606122
vt 0.4237925 0.33975148
vt 0.41363475 0.3475532
vt 0.40853623 0.3454327
vt 0.4177943 0.33945036
vt 0.40853623 0.33749977
vt 0.41176367 0.3350396
vt 0.42061004 0.33649945
vt 0.42061004 0.3336025
vt 0.41352987 0.34548056
vt 0.4203941 0.34444994
vt 0.41365397 0.3473585
vt 0.4203941 0.34439382
vt 0.41352987 0.34548056
vt 0.41365397 0.3473585
vt 0.41352987 0.34548056
vt 0.4203941 0.34439382
vt 0.41365397 0.3473585
vt 0.4136701 0.34550044
vt 0.4203648 0.3443653
vt 0.41365924 0.34734875
vt 0.21803756 0.753821
vt 0.16722536 0.753821
vt 0.16722536 0.8899991
vt 0.21803756 0.8899991
vt 0.26884976 0.753821
vt 0.26884976 0.8899991
vt 0.39876062 0.66082495
vt 0.43395412 0.66082495
vt 0.43395412 0.6516075
vt 0.39876062 0.6516075
vt 0.3635671 0.66082495
vt 0.3635671 0.6516075
vt 0.39876062 0.6516075
vt 0.43395412 0.6516075
vt 0.43395412 0.6270635
vt 0.39876062 0.6270635
vt 0.3635671 0.6516075
vt 0.3635671 0.6270635
vt 0.4059754 0.73382765
vt 0.4176116 0.7475946
vt 0.4176116 0.73382765
vt 0.4059754 0.7475946
vt 0.36509773 0.6802646
vt 0.43188336 0.6802646
vt 0.43188336 0.6647841
vt 0.36509773 0.6647841
vt 0.43188336 0.72069734
vt 0.36509773 0.72069734
vt 0.36509773 0.73307884
vt 0.43188336 0.73307884
vt 0.43188336 0.6808634
vt 0.36509773 0.6808634
vt 0.36509773 0.6991719
vt 0.43188336 0.69917184
vt 0.36509773 0.6802646
vt 0.43188336 0.6802646
vt 0.43188336 0.6647841
vt 0.36509773 0.6647841
vt 0.43188336 0.72069734
vt 0.36509773 0.72069734
vt 0.36509773 0.73307884
vt 0.43188336 0.73307884
vt 0.43188336 0.6808634
vt 0.36509773 0.6808634
vt 0.36509773 0.6991719
vt 0.43188336 0.6991719
vt 0.36509785 0.7080115
vt 0.43188348 0.7080115
vt 0.43188336 0.7030049
vt 0.36509773 0.70300496
vt 0.3650978 0.7080115
vt 0.4318834 0.7080115
vt 0.43188336 0.70300496
vt 0.36509773 0.70300496
vn 0.81496686 0.20814404 0.5408373
vn 0.81496686 0.20814407 0.5408374
vn 0.81496686 0.20814404 0.5408373
vn -0.8113509 0.5845594 -4.3905843E-06
vn -0.8113509 0.5845594 -4.3905848E-06
vn -0.8113509 0.5845594 -4.3905848E-06
vn -0.8400361 0.19486517 0.50632685
vn -0.8400361 0.19486517 0.50632685
vn -0.8400361 0.19486517 0.5063268
vn 0.7835466 0.6213329 3.961501E-06
vn 0.7835466 0.6213329 3.961501E-06
vn 0.7835466 0.6213329 3.961501E-06
vn -0.81328154 0.20899142 0.5430429
vn -0.81328154 0.20899142 0.5430429
vn -0.81328154 0.20899144 0.54304296
vn -0.78168243 0.62367654 -3.3562117E-06
vn -0.78168243 0.62367654 -3.3562117E-06
vn -0.78168243 0.62367654 -3.3562117E-06
vn -0.6913596 -0.06476031 -0.71960264
vn -0.6913595 -0.06476031 -0.71960276
vn -0.6913596 -0.06476031 -0.7196027
vn 0.65571916 -0.067673825 -0.7519658
vn 0.6557192 -0.067673825 -0.7519658
vn 0.65571916 -0.067673825 -0.7519658
vn -0.65341556 -0.067853294 -0.75395226
vn -0.6534155 -0.0678533 -0.7539523
vn -0.6534155 -0.0678533 -0.7539523
vn 0.7843554 -0.055599734 -0.61781484
vn 0.7843554 -0.05559974 -0.61781496
vn 0.7843554 -0.05559974 -0.61781496
vn 0.87758046 0.47942942 5.0058493E-06
vn 0.87758046 0.47942936 5.0058493E-06
vn 0.87758046 0.47942936 5.0058493E-06
vn 0.8984465 0.15772195 0.40977773
vn 0.8984465 0.15772195 0.40977773
vn 0.8984465 0.15772195 0.40977773
vn -0.8429154 0.34162927 -0.41567177
vn -0.8429155 0.34162927 -0.4156717
vn -0.8429155 0.3416293 -0.41567177
vn 0.8181394 0.36510935 -0.4442331
vn 0.81813943 0.36510935 -0.44423306
vn 0.81813943 0.36510935 -0.44423306
vn -0.8164684 0.3666094 -0.44606823
vn -0.8164684 0.3666094 -0.4460683
vn -0.8164684 0.3666094 -0.4460683
vn 0.90023255 0.27646747 -0.33637333
vn 0.90023255 0.2764675 -0.33637336
vn 0.90023255 0.2764675 -0.33637333
vn -0.00057517795 0.27185047 0.96233934
vn -0.0005751094 0.27222037 0.9622348
vn -0.00057510944 0.27222037 0.9622348
vn -0.00057517795 0.27185053 0.96233934
vn -0.00057524646 0.2714805 0.96244377
vn -0.0005752465 0.2714805 0.96244377
vn 1.049043E-07 1 -1.7838437E-06
vn 1.049043E-07 1 -1.8263167E-06
vn 1.0490431E-07 1 -1.8263169E-06
vn 1.049043E-07 1 -1.7838437E-06
vn 1.0490429E-07 1 -1.7413705E-06
vn 1.0490428E-07 1 -1.7413705E-06
vn -0 0.35111314 0.93633306
vn -0 0.3511135 0.9363329
vn -0 0.3511135 0.9363329
vn -0 0.3511131 0.93633306
vn -0 0.35111284 0.9363332
vn -0 0.35111287 0.9363332
vn -0 0.13173842 -0.9912845
vn -0 0.13173841 -0.9912845
vn -1.5125795E-07 0.13173835 -0.9912846
vn -0 0.13173851 -0.9912845
vn -0 0.359174 0.93327063
vn -0 0.35917395 0.93327063
vn -0 0.35917404 0.93327063
vn -0 0.35917398 0.93327063
vn -4.4569708E-07 -0.089633726 -0.99597484
vn -4.4569708E-07 -0.089633726 -0.99597484
vn -4.45697E-07 -0.08963372 -0.99597484
vn -4.4569705E-07 -0.08963373 -0.99597484
vn -1.6254549E-07 1 3.4929863E-06
vn -1.6254546E-07 1 3.4929863E-06
vn -1.6254548E-07 1 3.4929863E-06
vn -1.6254549E-07 1 3.4929863E-06
vn 7.696708E-06 0.35918638 0.93326586
vn 7.696707E-06 0.35918635 0.93326586
vn 7.696707E-06 0.3591864 0.93326586
vn 7.696708E-06 0.35918638 0.93326586
vn 1.2360177E-07 -0.08963348 -0.99597484
vn 1.2360175E-07 -0.08963347 -0.99597484
vn 1.2360177E-07 -0.08963348 -0.99597484
vn 1.2360177E-07 -0.08963348 -0.99597484
vn 1.650746E-07 1 3.4929426E-06
vn 1.6507458E-07 1 3.4929428E-06
vn 1.650746E-07 1 3.4929428E-06
vn 1.650746E-07 1 3.4929426E-06
vn -4.400054E-07 0.6349491 -0.77255404
vn -4.4000544E-07 0.6349491 -0.77255404
vn -4.4000535E-07 0.634949 -0.77255404
vn -4.400054E-07 0.6349491 -0.77255404
vn -0 0.6349494 -0.77255374
vn -0 0.63494945 -0.7725537
vn -0 0.63494945 -0.7725537
vn -0 0.63494945 -0.7725537
g wall_brick1_0
f 3/3/3 2/2/2 1/1/1
f 6/6/6 5/5/5 4/4/4
f 9/9/9 8/8/8 7/7/7
f 12/12/12 11/11/11 10/10/10
f 15/15/15 14/14/14 13/13/13
f 18/18/18 17/17/17 16/16/16
f 21/21/21 20/20/20 19/19/19
f 24/24/24 23/23/23 22/22/22
f 27/27/27 26/26/26 25/25/25
f 30/30/30 29/29/29 28/28/28
f 33/33/33 32/32/32 31/31/31
f 36/36/36 35/35/35 34/34/34
f 39/39/39 38/38/38 37/37/37
f 42/42/42 41/41/41 40/40/40
f 45/45/45 44/44/44 43/43/43
f 48/48/48 47/47/47 46/46/46
f 51/51/51 50/50/50 49/49/49
f 52/52/52 51/51/51 49/49/49
f 52/52/52 49/49/49 53/53/53
f 54/54/54 52/52/52 53/53/53
f 57/57/57 56/56/56 55/55/55
f 58/58/58 57/57/57 55/55/55
f 58/58/58 55/55/55 59/59/59
f 60/60/60 58/58/58 59/59/59
f 63/63/63 62/62/62 61/61/61
f 64/64/64 63/63/63 61/61/61
f 64/64/64 61/61/61 65/65/65
f 66/66/66 64/64/64 65/65/65
f 69/69/69 68/68/68 67/67/67
f 68/68/68 70/70/70 67/67/67
f 73/73/73 72/72/72 71/71/71
f 74/74/74 73/73/73 71/71/71
f 77/77/77 76/76/76 75/75/75
f 78/78/78 77/77/77 75/75/75
f 81/81/81 80/80/80 79/79/79
f 82/82/82 81/81/81 79/79/79
f 85/85/85 84/84/84 83/83/83
f 86/86/86 85/85/85 83/83/83
f 89/89/89 88/88/88 87/87/87
f 90/90/90 89/89/89 87/87/87
f 93/93/93 92/92/92 91/91/91
f 94/94/94 93/93/93 91/91/91
f 97/97/97 96/96/96 95/95/95
f 98/98/98 97/97/97 95/95/95
f 101/101/101 100/100/100 99/99/99
f 102/102/102 101/101/101 99/99/99
