g wall_guardrail_C
v -0.4717946 0.535021 -0.4344517
v -0.43437016 0.5350211 -0.47187585
v 0.44145432 0.5350214 -0.47187585
v 0.47887847 0.5350213 -0.4344514
v -0.47179493 0.5350209 0.49018112
v 0.47887847 0.5350212 0.49018067
v 0.441454 0.5350211 0.5276054
v -0.43437076 0.5350208 0.5276054
v -0.44830307 0.5045914 -0.5055115
v -0.4660608 3.2657627E-17 -0.5333395
v 0.47314447 3.07312E-07 -0.5333395
v 0.4553866 0.5045914 -0.5055112
v -0.5054305 0.4264771 0.5041128
v -0.5322487 -1.9207E-07 0.51651675
v -0.53224796 2.8215074E-17 -0.46078715
v -0.5054302 0.42647728 -0.44838405
v 0.51251405 0.5045914 -0.44838405
v 0.5393321 2.8215074E-17 -0.46078715
v 0.5393319 -1.9207E-07 0.5165171
v 0.51251405 0.50459117 0.50411326
v -0.53224796 2.8215074E-17 -0.46078715
v -0.4660608 3.2657627E-17 -0.5333395
v -0.44830307 0.5045914 -0.5055115
v -0.5054302 0.42647728 -0.44838405
v 0.47314447 3.07312E-07 -0.5333395
v 0.5393321 2.8215074E-17 -0.46078715
v 0.51251405 0.5045914 -0.44838405
v 0.4553866 0.5045914 -0.5055112
v -0.47179493 0.5350209 0.49018112
v -0.5054305 0.4264771 0.5041128
v -0.5054302 0.42647728 -0.44838405
v -0.4717946 0.535021 -0.4344517
v 0.47887847 0.5350213 -0.4344514
v 0.51251405 0.5045914 -0.44838405
v 0.51251405 0.50459117 0.50411326
v 0.47887847 0.5350212 0.49018067
v -0.43437016 0.5350211 -0.47187585
v -0.44830307 0.5045914 -0.5055115
v 0.4553866 0.5045914 -0.5055112
v 0.44145432 0.5350214 -0.47187585
v -0.44830307 0.5045914 -0.5055115
v -0.43437016 0.5350211 -0.47187585
v -0.4717946 0.535021 -0.4344517
v -0.5054302 0.42647728 -0.44838405
v 0.51251405 0.5045914 -0.44838405
v 0.47887847 0.5350213 -0.4344514
v 0.44145432 0.5350214 -0.47187585
v 0.4553866 0.5045914 -0.5055112
v 0.45538354 0.5045909 0.560672
v 0.47314116 7.6828E-08 0.5885
v -0.466064 2.30484E-07 0.5884999
v -0.44830614 0.5045913 0.56067157
v 0.5393319 -1.9207E-07 0.5165171
v 0.47314116 7.6828E-08 0.5885
v 0.45538354 0.5045909 0.560672
v 0.51251405 0.50459117 0.50411326
v -0.466064 2.30484E-07 0.5884999
v -0.5322487 -1.9207E-07 0.51651675
v -0.5054305 0.4264771 0.5041128
v -0.44830614 0.5045913 0.56067157
v 0.441454 0.5350211 0.5276054
v 0.45538354 0.5045909 0.560672
v -0.44830614 0.5045913 0.56067157
v -0.43437076 0.5350208 0.5276054
v 0.45538354 0.5045909 0.560672
v 0.441454 0.5350211 0.5276054
v 0.47887847 0.5350212 0.49018067
v 0.51251405 0.50459117 0.50411326
v -0.5054305 0.4264771 0.5041128
v -0.47179493 0.5350209 0.49018112
v -0.43437076 0.5350208 0.5276054
v -0.44830614 0.5045913 0.56067157
v -0.14245813 0.62957233 -0.116970174
v -0.12641808 0.62957233 -0.13308369
v 0.13349931 0.6295727 -0.13308369
v 0.14954038 0.6295727 -0.11697043
v 0.14954038 0.6295725 0.17264712
v -0.1424584 0.62957233 0.17264712
v -0.12641783 0.6295723 0.18876049
v 0.13349931 0.6295726 0.18876049
v -0.30566758 0.69268316 -0.339457
v -0.32944033 0.5350213 -0.37215587
v 0.33652323 0.5350216 -0.37215587
v 0.31275052 0.6926835 -0.339457
v -0.34476167 0.69268316 0.35603955
v -0.3763724 0.5350212 0.3763901
v -0.37637177 0.5350213 -0.32071123
v -0.34476167 0.69268316 -0.3003632
v 0.35184428 0.6926835 -0.3003632
v 0.383455 0.5350213 -0.32071123
v 0.3834547 0.5350212 0.3763904
v 0.35184428 0.6926835 0.35603985
v -0.37637177 0.5350213 -0.32071123
v -0.32944033 0.5350213 -0.37215587
v -0.30566758 0.69268316 -0.339457
v -0.34476167 0.69268316 -0.3003632
v 0.33652323 0.5350216 -0.37215587
v 0.383455 0.5350213 -0.32071123
v 0.35184428 0.6926835 -0.3003632
v 0.31275052 0.6926835 -0.339457
v -0.321744 0.7231131 0.34650567
v -0.34476167 0.69268316 0.35603955
v -0.34476167 0.69268316 -0.3003632
v -0.3217437 0.7231131 -0.29082918
v 0.3288263 0.7231135 -0.29082885
v 0.35184428 0.6926835 -0.3003632
v 0.35184428 0.6926835 0.35603985
v 0.3288266 0.7231135 0.34650534
v -0.29613322 0.7231131 -0.31643933
v -0.30566758 0.69268316 -0.339457
v 0.31275052 0.6926835 -0.339457
v 0.30321646 0.7231135 -0.31643933
v -0.30566758 0.69268316 -0.339457
v -0.29613322 0.7231131 -0.31643933
v -0.3217437 0.7231131 -0.29082918
v -0.34476167 0.69268316 -0.3003632
v 0.35184428 0.6926835 -0.3003632
v 0.3288263 0.7231135 -0.29082885
v 0.30321646 0.7231135 -0.31643933
v 0.31275052 0.6926835 -0.339457
v 0.31274834 0.69268334 0.39474443
v 0.3365208 0.53502154 0.4274314
v -0.32944277 0.53502166 0.4274314
v -0.30567005 0.69268364 0.39474413
v 0.3834547 0.5350212 0.3763904
v 0.3365208 0.53502154 0.4274314
v 0.31274834 0.69268334 0.39474443
v 0.35184428 0.6926835 0.35603985
v -0.32944277 0.53502166 0.4274314
v -0.3763724 0.5350212 0.3763901
v -0.34476167 0.69268316 0.35603955
v -0.30567005 0.69268364 0.39474413
v 0.30321616 0.7231135 0.37211612
v 0.31274834 0.69268334 0.39474443
v -0.30567005 0.69268364 0.39474413
v -0.29613352 0.7231131 0.37211612
v 0.31274834 0.69268334 0.39474443
v 0.30321616 0.7231135 0.37211612
v 0.3288266 0.7231135 0.34650534
v 0.35184428 0.6926835 0.35603985
v -0.34476167 0.69268316 0.35603955
v -0.321744 0.7231131 0.34650567
v -0.29613352 0.7231131 0.37211612
v -0.30567005 0.69268364 0.39474413
v 0.16669627 0.72311354 -0.17307763
v 0.13349931 0.6295727 -0.13308369
v -0.12641808 0.62957233 -0.13308369
v -0.15961468 0.72311324 -0.17307763
v -0.15961468 0.72311324 -0.17307763
v -0.12641808 0.62957233 -0.13308369
v -0.14245813 0.62957233 -0.116970174
v -0.17975213 0.72311324 -0.15284829
v -0.17975213 0.72311324 -0.15284829
v -0.14245813 0.62957233 -0.116970174
v -0.1424584 0.62957233 0.17264712
v -0.17975213 0.72311324 0.20852521
v -0.17975213 0.72311324 0.20852521
v -0.1424584 0.62957233 0.17264712
v -0.12641783 0.6295723 0.18876049
v -0.1596144 0.7231131 0.22875442
v -0.1596144 0.7231131 0.22875442
v -0.12641783 0.6295723 0.18876049
v 0.13349931 0.6295726 0.18876049
v 0.16669598 0.7231135 0.22875442
v 0.16669598 0.7231135 0.22875442
v 0.13349931 0.6295726 0.18876049
v 0.14954038 0.6295725 0.17264712
v 0.18683457 0.72311336 0.2085251
v 0.18683457 0.72311336 0.2085251
v 0.14954038 0.6295725 0.17264712
v 0.14954038 0.6295727 -0.11697043
v 0.18683457 0.72311354 -0.15284857
v 0.18683457 0.72311354 -0.15284857
v 0.14954038 0.6295727 -0.11697043
v 0.13349931 0.6295727 -0.13308369
v 0.16669627 0.72311354 -0.17307763
v 0.30321646 0.7231135 -0.31643933
v 0.16669627 0.72311354 -0.17307763
v -0.15961468 0.72311324 -0.17307763
v -0.29613322 0.7231131 -0.31643933
v 0.3288263 0.7231135 -0.29082885
v -0.17975213 0.72311324 -0.15284829
v 0.18683457 0.72311354 -0.15284857
v -0.3217437 0.7231131 -0.29082918
v 0.3288266 0.7231135 0.34650534
v -0.17975213 0.72311324 0.20852521
v 0.18683457 0.72311336 0.2085251
v -0.321744 0.7231131 0.34650567
v 0.30321616 0.7231135 0.37211612
v -0.1596144 0.7231131 0.22875442
v 0.16669598 0.7231135 0.22875442
v -0.29613352 0.7231131 0.37211612
vt 0.58005947 0.7425462
vt 0.5812893 0.74238944
vt 0.5812893 0.73872083
vt 0.58005947 0.73856413
vt 0.54838663 0.7425462
vt 0.54838663 0.73856413
vt 0.5471568 0.73872083
vt 0.5471568 0.74238944
vt 0.55145204 0.7281471
vt 0.55145204 0.71355367
vt 0.54641974 0.71355367
vt 0.54641974 0.7281471
vt 0.57424986 0.7281471
vt 0.57424986 0.71355367
vt 0.55379707 0.71355367
vt 0.55379707 0.7281471
vt 0.55379707 0.7281471
vt 0.55379707 0.71355367
vt 0.57424986 0.71355367
vt 0.57424986 0.7281471
vt 0.55379707 0.71355367
vt 0.55145204 0.71355367
vt 0.55145204 0.7281471
vt 0.55379707 0.7281471
vt 0.55145204 0.71355367
vt 0.55379707 0.71355367
vt 0.55379707 0.7281471
vt 0.55145204 0.7281471
vt 0.57424986 0.73506546
vt 0.57424986 0.72914016
vt 0.55379707 0.72914016
vt 0.55379707 0.73506546
vt 0.55379707 0.73506546
vt 0.55379707 0.72914016
vt 0.57424986 0.72914016
vt 0.57424986 0.73506546
vt 0.55145204 0.73506546
vt 0.55145204 0.72914016
vt 0.54641974 0.72914016
vt 0.54641974 0.73506546
vt 0.55145204 0.72914016
vt 0.55145204 0.73506546
vt 0.55379707 0.73506546
vt 0.55379707 0.72914016
vt 0.55379707 0.72914016
vt 0.55379707 0.73506546
vt 0.55145204 0.73506546
vt 0.55145204 0.72914016
vt 0.57646555 0.7281471
vt 0.57646555 0.71355367
vt 0.5818834 0.71355367
vt 0.5818834 0.7281471
vt 0.57424986 0.71355367
vt 0.57646555 0.71355367
vt 0.57646555 0.7281471
vt 0.57424986 0.7281471
vt 0.57646555 0.71355367
vt 0.57424986 0.71355367
vt 0.57424986 0.7281471
vt 0.57646555 0.7281471
vt 0.57646555 0.73506546
vt 0.57646555 0.72914016
vt 0.5818834 0.72914016
vt 0.5818834 0.73506546
vt 0.57646555 0.72914016
vt 0.57646555 0.73506546
vt 0.57424986 0.73506546
vt 0.57424986 0.72914016
vt 0.57424986 0.72914016
vt 0.57424986 0.73506546
vt 0.57646555 0.73506546
vt 0.57646555 0.72914016
vt 0.579622 0.6992711
vt 0.581928 0.6990949
vt 0.581928 0.6949716
vt 0.579622 0.6947954
vt 0.54854214 0.6947954
vt 0.54854214 0.6992711
vt 0.5462347 0.6990949
vt 0.54623604 0.6949716
vt 0.55145204 0.7281471
vt 0.55145204 0.71355367
vt 0.54641974 0.71355367
vt 0.54641974 0.7281471
vt 0.57424986 0.7281471
vt 0.57424986 0.71355367
vt 0.55379707 0.71355367
vt 0.55379707 0.7281471
vt 0.55379707 0.7281471
vt 0.55379707 0.71355367
vt 0.57424986 0.71355367
vt 0.57424986 0.7281471
vt 0.55379707 0.71355367
vt 0.55145204 0.71355367
vt 0.55145204 0.7281471
vt 0.55379707 0.7281471
vt 0.55145204 0.71355367
vt 0.55379707 0.71355367
vt 0.55379707 0.7281471
vt 0.55145204 0.7281471
vt 0.57424986 0.73506546
vt 0.57424986 0.72914016
vt 0.55379707 0.72914016
vt 0.55379707 0.73506546
vt 0.55379707 0.73506546
vt 0.55379707 0.72914016
vt 0.57424986 0.72914016
vt 0.57424986 0.73506546
vt 0.55145204 0.73506546
vt 0.55145204 0.72914016
vt 0.54641974 0.72914016
vt 0.54641974 0.73506546
vt 0.55145204 0.72914016
vt 0.55145204 0.73506546
vt 0.55379707 0.73506546
vt 0.55379707 0.72914016
vt 0.55379707 0.72914016
vt 0.55379707 0.73506546
vt 0.55145204 0.73506546
vt 0.55145204 0.72914016
vt 0.57646555 0.7281471
vt 0.57646555 0.71355367
vt 0.5818834 0.71355367
vt 0.5818834 0.7281471
vt 0.57424986 0.71355367
vt 0.57646555 0.71355367
vt 0.57646555 0.7281471
vt 0.57424986 0.7281471
vt 0.57646555 0.71355367
vt 0.57424986 0.71355367
vt 0.57424986 0.7281471
vt 0.57646555 0.7281471
vt 0.57646555 0.73506546
vt 0.57646555 0.72914016
vt 0.5818834 0.72914016
vt 0.5818834 0.73506546
vt 0.57646555 0.72914016
vt 0.57646555 0.73506546
vt 0.57424986 0.73506546
vt 0.57424986 0.72914016
vt 0.57424986 0.72914016
vt 0.57424986 0.73506546
vt 0.57646555 0.73506546
vt 0.57646555 0.72914016
vt 0.57663435 0.7111588
vt 0.57663435 0.7034331
vt 0.57428366 0.7034331
vt 0.57428366 0.7111588
vt 0.57428366 0.7111588
vt 0.57428366 0.7034331
vt 0.57270724 0.7034331
vt 0.57270724 0.7111588
vt 0.57270724 0.7111588
vt 0.57270724 0.7034331
vt 0.56138533 0.7034331
vt 0.56138533 0.7111588
vt 0.56138533 0.7111588
vt 0.56138533 0.7034331
vt 0.5595036 0.7034331
vt 0.5595036 0.7111588
vt 0.5595036 0.7111588
vt 0.5595036 0.7034331
vt 0.5487613 0.7034331
vt 0.5487613 0.7111588
vt 0.5595036 0.7111588
vt 0.5595036 0.7034331
vt 0.56138533 0.7034331
vt 0.56138533 0.7111588
vt 0.56138533 0.7111588
vt 0.56138533 0.7034331
vt 0.57270724 0.7034331
vt 0.57270724 0.7111588
vt 0.56138533 0.7111588
vt 0.56138533 0.7034331
vt 0.5595036 0.7034331
vt 0.5595036 0.7111588
vt 0.5812893 0.73872083
vt 0.5812893 0.73872083
vt 0.5812893 0.74238944
vt 0.5812893 0.74238944
vt 0.58005947 0.73856413
vt 0.58005947 0.7425462
vt 0.58005947 0.73856413
vt 0.58005947 0.7425462
vt 0.54838663 0.73856413
vt 0.54838663 0.7425462
vt 0.54838663 0.73856413
vt 0.54838663 0.7425462
vt 0.5471568 0.73872083
vt 0.5471568 0.74238944
vt 0.5471568 0.73872083
vt 0.5471568 0.74238944
vn -3.242131E-07 1 2.9927568E-07
vn -3.242131E-07 1 2.992757E-07
vn -3.242131E-07 1 2.9927568E-07
vn -3.242131E-07 1 2.992757E-07
vn -3.242131E-07 1 2.9927568E-07
vn -3.242131E-07 1 2.992757E-07
vn -3.242131E-07 1 2.9927568E-07
vn -3.242131E-07 1 2.9927568E-07
vn 1.5741945E-07 0.055066258 -0.99848276
vn 1.5741946E-07 0.05506626 -0.99848276
vn 1.5741945E-07 0.055066258 -0.99848276
vn 1.5741945E-07 0.055066258 -0.99848276
vn -0.9980287 0.062758505 -5.249086E-07
vn -0.9980287 0.06275851 -5.249087E-07
vn -0.9980287 0.06275851 -5.2490867E-07
vn -0.9980287 0.06275851 -5.2490867E-07
vn 0.99859065 0.053072933 1.1107389E-07
vn 0.99859065 0.053072933 1.11073895E-07
vn 0.99859065 0.053072937 1.1107391E-07
vn 0.99859065 0.053072933 1.1107389E-07
vn -0.7422386 0.06435758 -0.66703826
vn -0.74223864 0.06435758 -0.6670382
vn -0.7422386 0.06435758 -0.66703826
vn -0.7422386 0.06435758 -0.66703826
vn 0.7233874 0.05937504 -0.68788475
vn 0.7233874 0.059375037 -0.68788475
vn 0.7233874 0.05937504 -0.68788475
vn 0.7233874 0.059375037 -0.6878847
vn -0.9551895 0.29599476 -2.765536E-07
vn -0.95518965 0.29599476 -2.7655366E-07
vn -0.95518965 0.29599476 -2.7655366E-07
vn -0.95518965 0.29599476 -2.7655366E-07
vn 0.670886 0.7415606 1.2153349E-07
vn 0.670886 0.7415606 1.2153349E-07
vn 0.67088586 0.7415606 1.2153347E-07
vn 0.670886 0.7415606 1.2153346E-07
vn -0 0.74156016 -0.67088634
vn -0 0.7415602 -0.6708863
vn -0 0.7415602 -0.6708863
vn -0 0.7415602 -0.6708863
vn -0.7912122 0.42223778 -0.44237828
vn -0.7912122 0.42223772 -0.4423783
vn -0.7912122 0.42223778 -0.44237828
vn -0.7912122 0.42223778 -0.44237828
vn 0.47438854 0.7415606 -0.4743874
vn 0.47438854 0.7415606 -0.47438735
vn 0.47438854 0.7415606 -0.4743874
vn 0.47438854 0.74156064 -0.47438738
vn -3.189927E-07 0.055066295 0.99848276
vn -3.1899273E-07 0.055066295 0.99848276
vn -3.189927E-07 0.0550663 0.99848276
vn -3.1899273E-07 0.0550663 0.99848276
vn 0.72033536 0.059367657 0.69108063
vn 0.7203354 0.059367657 0.69108063
vn 0.7203354 0.059367657 0.6910806
vn 0.72033536 0.059367657 0.69108063
vn -0.7393974 0.06435889 0.6701861
vn -0.7393974 0.06435888 0.6701861
vn -0.7393974 0.06435888 0.6701861
vn -0.7393974 0.06435888 0.6701861
vn -1.7535514E-07 0.73583305 0.67716295
vn -1.7535514E-07 0.73583305 0.67716306
vn -1.7535514E-07 0.73583305 0.67716306
vn -1.7535514E-07 0.73583305 0.67716306
vn 0.47451964 0.7395359 0.47740722
vn 0.47451964 0.73953587 0.47740725
vn 0.47451964 0.73953587 0.47740725
vn 0.47451964 0.7395359 0.47740725
vn -0.7903119 0.4210522 0.4451091
vn -0.7903119 0.42105222 0.44510916
vn -0.7903119 0.4210522 0.44510916
vn -0.7903119 0.42105222 0.44510916
vn -8.069439E-07 1 2.4003285E-07
vn -8.069439E-07 1 2.4003288E-07
vn -8.06944E-07 1 2.4003285E-07
vn -8.069439E-07 1 2.4003285E-07
vn -8.069439E-07 1 2.4003285E-07
vn -8.069439E-07 1 2.4003285E-07
vn -8.06944E-07 1 2.4003285E-07
vn -8.069439E-07 1 2.4003285E-07
vn -0 0.20307712 -0.9791627
vn -0 0.20307712 -0.9791627
vn -0 0.20307711 -0.9791627
vn -0 0.20307712 -0.9791627
vn -0.9804873 0.19658278 -4.33675E-07
vn -0.9804873 0.19658276 -4.3367498E-07
vn -0.9804873 0.19658276 -4.3367498E-07
vn -0.9804873 0.19658278 -4.33675E-07
vn 0.98048717 0.19658329 2.3372179E-07
vn 0.98048717 0.19658332 2.337218E-07
vn 0.98048717 0.19658329 2.337218E-07
vn 0.98048717 0.19658329 2.337218E-07
vn -0.70441 0.23631726 -0.6692987
vn -0.70441 0.23631726 -0.66929877
vn -0.70441 0.23631723 -0.66929877
vn -0.70441 0.23631723 -0.6692987
vn 0.70441014 0.2363183 -0.6692981
vn 0.70441014 0.2363183 -0.6692981
vn 0.70441014 0.2363183 -0.6692981
vn 0.70441014 0.2363183 -0.6692981
vn -0.7975356 0.60327184 -1.8954509E-07
vn -0.7975357 0.60327184 -1.8954512E-07
vn -0.7975357 0.6032718 -1.8954509E-07
vn -0.7975357 0.60327184 -1.8954512E-07
vn 0.7975357 0.60327184 -1.8954515E-07
vn 0.7975356 0.60327184 -1.8954512E-07
vn 0.7975357 0.60327184 -1.8954515E-07
vn 0.7975357 0.6032718 -1.8954515E-07
vn -3.0387662E-07 0.6032692 -0.7975377
vn -3.0387662E-07 0.6032692 -0.7975377
vn -3.0387656E-07 0.6032692 -0.7975377
vn -3.0387665E-07 0.6032692 -0.7975377
vn -0.56394076 0.6032707 -0.56394607
vn -0.56394076 0.6032707 -0.5639461
vn -0.5639408 0.60327077 -0.5639461
vn -0.5639408 0.60327077 -0.5639461
vn 0.5639461 0.6032707 -0.5639409
vn 0.5639461 0.6032707 -0.5639409
vn 0.5639461 0.6032707 -0.5639409
vn 0.5639461 0.6032707 -0.5639409
vn -1.6179891E-07 0.20300716 0.9791773
vn -1.617989E-07 0.20300718 0.9791773
vn -1.6179891E-07 0.20300719 0.9791773
vn -1.6179892E-07 0.20300718 0.9791773
vn 0.70144933 0.23629996 0.67240703
vn 0.7014493 0.23629995 0.67240703
vn 0.7014493 0.23629995 0.67240703
vn 0.7014493 0.23629995 0.67240703
vn -0.70148474 0.23630194 0.6723693
vn -0.7014847 0.23630196 0.6723694
vn -0.7014847 0.23630194 0.6723693
vn -0.7014847 0.23630196 0.6723694
vn -2.0261196E-07 0.59671736 0.8024515
vn -2.0261193E-07 0.59671736 0.8024515
vn -2.0261196E-07 0.5967174 0.8024515
vn -2.0261197E-07 0.59671736 0.8024515
vn 0.5634664 0.6009468 0.5668939
vn 0.5634664 0.6009468 0.5668939
vn 0.56346637 0.6009467 0.5668938
vn 0.5634664 0.6009468 0.5668939
vn -0.56347406 0.6009706 0.5668608
vn -0.56347406 0.6009707 0.5668608
vn -0.56347406 0.6009706 0.5668608
vn -0.56347406 0.6009706 0.56686085
vn -4.1187755E-07 0.39313018 0.9194828
vn -4.1187755E-07 0.39313018 0.9194828
vn -4.1187758E-07 0.39313027 0.9194828
vn -4.1187758E-07 0.39313024 0.9194828
vn 0.6201615 0.4840365 0.61733973
vn 0.6201615 0.48403654 0.61733985
vn 0.6201615 0.4840365 0.61733973
vn 0.6201615 0.4840365 0.61733973
vn 0.9288955 0.37034205 3.6879896E-07
vn 0.9288955 0.37034202 3.6879894E-07
vn 0.9288955 0.37034205 3.68799E-07
vn 0.9288955 0.37034208 3.6879896E-07
vn 0.6201534 0.484036 -0.61734825
vn 0.6201534 0.48403597 -0.61734825
vn 0.6201534 0.484036 -0.61734825
vn 0.6201534 0.48403597 -0.61734825
vn -4.0863497E-07 0.39313006 -0.9194828
vn -4.08635E-07 0.39313012 -0.9194828
vn -4.08635E-07 0.39313015 -0.9194828
vn -4.08635E-07 0.3931301 -0.9194828
vn -0.62014014 0.48403737 -0.61736053
vn -0.62014014 0.4840374 -0.61736053
vn -0.62014014 0.48403737 -0.61736053
vn -0.62014014 0.48403737 -0.61736053
vn -0.92889434 0.3703448 1.7702317E-07
vn -0.92889434 0.3703448 1.7702317E-07
vn -0.92889434 0.3703448 1.7702317E-07
vn -0.92889434 0.3703448 1.7702317E-07
vn -0.62013996 0.4840385 0.61736
vn -0.62013996 0.48403853 0.61735994
vn -0.62013996 0.4840385 0.6173599
vn -0.62013996 0.4840385 0.61735994
vn -6.6398417E-07 1 -5.359072E-07
vn -6.6398417E-07 1 -5.359072E-07
vn -6.6398417E-07 1 -5.359072E-07
vn -6.639842E-07 1 -5.3590725E-07
vn -0 1 1.538548E-07
vn -2.7473376E-07 1 -2.7418486E-07
vn -0 1 1.538548E-07
vn -2.7473376E-07 1 -2.7418486E-07
vn 7.057116E-07 1 -9.716905E-07
vn -5.410738E-07 1 0
vn 7.057116E-07 1 -9.716905E-07
vn -5.410738E-07 1 0
vn -6.6398457E-07 1 0
vn 7.057246E-07 1 9.716996E-07
vn -6.6398457E-07 1 0
vn 7.057245E-07 1 9.716996E-07
g wall_guardrail_C_0
f 3/3/3 2/2/2 1/1/1
f 1/1/1 4/4/4 3/3/3
f 1/1/1 5/5/5 4/4/4
f 5/5/5 6/6/6 4/4/4
f 5/5/5 7/7/7 6/6/6
f 5/5/5 8/8/8 7/7/7
f 11/11/11 10/10/10 9/9/9
f 12/12/12 11/11/11 9/9/9
f 15/15/15 14/14/14 13/13/13
f 16/16/16 15/15/15 13/13/13
f 19/19/19 18/18/18 17/17/17
f 20/20/20 19/19/19 17/17/17
f 23/23/23 22/22/22 21/21/21
f 24/24/24 23/23/23 21/21/21
f 27/27/27 26/26/26 25/25/25
f 28/28/28 27/27/27 25/25/25
f 31/31/31 30/30/30 29/29/29
f 32/32/32 31/31/31 29/29/29
f 35/35/35 34/34/34 33/33/33
f 36/36/36 35/35/35 33/33/33
f 39/39/39 38/38/38 37/37/37
f 40/40/40 39/39/39 37/37/37
f 43/43/43 42/42/42 41/41/41
f 44/44/44 43/43/43 41/41/41
f 47/47/47 46/46/46 45/45/45
f 48/48/48 47/47/47 45/45/45
f 51/51/51 50/50/50 49/49/49
f 52/52/52 51/51/51 49/49/49
f 55/55/55 54/54/54 53/53/53
f 56/56/56 55/55/55 53/53/53
f 59/59/59 58/58/58 57/57/57
f 60/60/60 59/59/59 57/57/57
f 63/63/63 62/62/62 61/61/61
f 64/64/64 63/63/63 61/61/61
f 67/67/67 66/66/66 65/65/65
f 68/68/68 67/67/67 65/65/65
f 71/71/71 70/70/70 69/69/69
f 72/72/72 71/71/71 69/69/69
f 75/75/75 74/74/74 73/73/73
f 73/73/73 76/76/76 75/75/75
f 73/73/73 77/77/77 76/76/76
f 73/73/73 78/78/78 77/77/77
f 78/78/78 79/79/79 77/77/77
f 79/79/79 80/80/80 77/77/77
f 83/83/83 82/82/82 81/81/81
f 84/84/84 83/83/83 81/81/81
f 87/87/87 86/86/86 85/85/85
f 88/88/88 87/87/87 85/85/85
f 91/91/91 90/90/90 89/89/89
f 92/92/92 91/91/91 89/89/89
f 95/95/95 94/94/94 93/93/93
f 96/96/96 95/95/95 93/93/93
f 99/99/99 98/98/98 97/97/97
f 100/100/100 99/99/99 97/97/97
f 103/103/103 102/102/102 101/101/101
f 104/104/104 103/103/103 101/101/101
f 107/107/107 106/106/106 105/105/105
f 108/108/108 107/107/107 105/105/105
f 111/111/111 110/110/110 109/109/109
f 112/112/112 111/111/111 109/109/109
f 115/115/115 114/114/114 113/113/113
f 116/116/116 115/115/115 113/113/113
f 119/119/119 118/118/118 117/117/117
f 120/120/120 119/119/119 117/117/117
f 123/123/123 122/122/122 121/121/121
f 124/124/124 123/123/123 121/121/121
f 127/127/127 126/126/126 125/125/125
f 128/128/128 127/127/127 125/125/125
f 131/131/131 130/130/130 129/129/129
f 132/132/132 131/131/131 129/129/129
f 135/135/135 134/134/134 133/133/133
f 136/136/136 135/135/135 133/133/133
f 139/139/139 138/138/138 137/137/137
f 140/140/140 139/139/139 137/137/137
f 143/143/143 142/142/142 141/141/141
f 144/144/144 143/143/143 141/141/141
f 147/147/147 146/146/146 145/145/145
f 148/148/148 147/147/147 145/145/145
f 151/151/151 150/150/150 149/149/149
f 152/152/152 151/151/151 149/149/149
f 155/155/155 154/154/154 153/153/153
f 156/156/156 155/155/155 153/153/153
f 159/159/159 158/158/158 157/157/157
f 160/160/160 159/159/159 157/157/157
f 163/163/163 162/162/162 161/161/161
f 164/164/164 163/163/163 161/161/161
f 167/167/167 166/166/166 165/165/165
f 168/168/168 167/167/167 165/165/165
f 171/171/171 170/170/170 169/169/169
f 172/172/172 171/171/171 169/169/169
f 175/175/175 174/174/174 173/173/173
f 176/176/176 175/175/175 173/173/173
f 179/179/179 178/178/178 177/177/177
f 180/180/180 179/179/179 177/177/177
f 177/177/177 178/178/178 181/181/181
f 182/182/182 179/179/179 180/180/180
f 178/178/178 183/183/183 181/181/181
f 184/184/184 182/182/182 180/180/180
f 181/181/181 183/183/183 185/185/185
f 186/186/186 182/182/182 184/184/184
f 183/183/183 187/187/187 185/185/185
f 188/188/188 186/186/186 184/184/184
f 185/185/185 187/187/187 189/189/189
f 190/190/190 186/186/186 188/188/188
f 187/187/187 191/191/191 189/189/189
f 192/192/192 190/190/190 188/188/188
f 189/189/189 191/191/191 192/192/192
f 191/191/191 190/190/190 192/192/192
