g wall_undercliff2_CS2
v 0.17886116 -1.2530676 0.484562
v 0.2604994 -1.3953087 0.5556159
v 0.14770173 -1.3914849 0.5668798
v 0.38951924 -1.3242228 0.47379008
v 0.3860167 -1.123497 0.24999759
v 0.45803592 -1.2625562 0.33267075
v -0.44178963 -0.107398085 -0.5126548
v -0.4183339 -2.284972 -0.3509864
v -0.47277656 -0.107398115 -0.8305906
v -0.41617933 -2.284972 -0.32887977
v -0.3873447 -2.284972 0.031123862
v -0.36012727 -2.284972 0.031318683
v -0.048747104 -0.09612388 -0.51265484
v -0.0044945176 -2.284972 0.031318516
v 0.5277665 -0.089947045 -0.42916194
v 0.035303406 -2.284972 0.03718689
v 0.5277666 -2.284972 0.04426987
v 0.69906515 -2.284972 -0.12744722
v 0.7117641 -2.284972 -0.14017726
v 0.71176404 -0.08994737 -0.6136097
v -0.37361124 -0.08994737 -0.5912695
v 0.02400649 -2.284972 -0.5907838
v 0.024006374 -2.284972 -0.5212836
v -0.373613 -0.089946486 0.41573018
v -0.05882049 -2.284972 0.41621444
v -0.2612309 -2.284972 0.4859792
v -0.59102887 -0.089946635 0.49066654
v -0.2762363 -2.284972 0.49115112
v 0.3473378 -1.2701395 -0.24384105
v 0.5266079 -1.1715655 0.07851453
v 0.43046704 -1.0395315 0.01882654
v 0.27861956 -1.0395302 -0.2592352
v 0.6275073 -1.6995858 0.19135508
v 0.5544653 -2.284972 0.031995874
v 0.6835452 -2.2849722 0.25030085
v 0.40768844 -1.6392525 -0.1775477
v 0.54838866 -1.3759426 0.10160508
v 0.36704037 -1.3906434 -0.22219835
v 0.5266079 -1.1715655 0.07851453
v 0.3473378 -1.2701395 -0.24384105
v -0.15015554 -2.284972 0.56593275
v -0.21136056 -2.284972 0.54357046
v -0.24570006 -1.4818988 0.4340605
v 0.14770173 -1.3914849 0.5668798
v 0.18560804 -2.284972 0.62673837
v 0.29591826 -1.9294242 0.59931624
v 0.2604994 -1.3953087 0.5556159
v 0.31794587 -2.284972 0.6264943
v 0.38951924 -1.3242228 0.47379008
v 0.5831041 -2.284972 0.47506538
v 0.48053053 -1.5302824 0.35769168
v 0.45803592 -1.2625562 0.33267075
v 0.548851 -1.812272 0.43723038
v 0.6835452 -2.2849722 0.25030085
v 0.6275073 -1.6995858 0.19135508
v 0.54838866 -1.3759426 0.10160508
v 0.5266079 -1.1715655 0.07851453
v 0.43046704 -1.0395315 0.01882654
v 0.5266079 -1.1715655 0.07851453
v 0.45803592 -1.2625562 0.33267075
v 0.3860167 -1.123497 0.24999759
v -0.24124344 -1.3473737 0.16927867
v 0.17886116 -1.2530676 0.484562
v 0.14770173 -1.3914849 0.5668798
v -0.24570006 -1.4818988 0.4340605
v 0.17886116 -1.2530676 0.484562
v 0.3860167 -1.123497 0.24999759
v 0.38951924 -1.3242228 0.47379008
v 0.2604994 -1.3953087 0.5556159
v 0.43046704 -1.0395315 0.01882654
v -0.22711204 -1.1118613 -0.26715562
v 0.27861956 -1.0395302 -0.2592352
v 0.3860167 -1.123497 0.24999759
v 0.17886116 -1.2530676 0.484562
v -0.24124344 -1.3473737 0.16927867
v 0.5037527 -0.048384834 -0.2623469
v 0.5037527 -0.08630898 -0.26234582
v 0.20920202 -0.17144148 -0.2857962
v 0.1261302 -0.045940496 -0.32080755
v 0.04305846 -0.17144148 -0.28579623
v -0.15940414 -0.106889665 -0.27984303
v 0.12699777 0.13501342 -0.3704262
v 0.5037528 0.1344028 -0.3216111
v -0.15739079 -0.0479371 -0.32386252
v -0.23173247 -0.08630898 -0.23265596
v 0.12587403 0.19223519 -0.5035008
v 0.50349915 0.19223519 -0.50350064
v -0.18403706 0.13451435 -0.38805792
v -0.40300992 0.1922349 -0.52998066
v -0.27033716 -0.04838422 -0.26867467
v -0.32991153 0.13440248 -0.33483738
v -0.49143833 0.19223519 -0.48355272
v -0.5213128 0.19223522 -0.39436892
v -0.37696734 0.13440247 0.064638756
v -0.5198192 0.19223487 0.12587357
v -0.30708045 -0.04838453 0.064638674
v -0.28363314 -0.08630898 0.06463863
v -0.26234722 -0.086309 0.503834
v -0.26234838 -0.048384238 0.5038341
v -0.32161075 0.1344025 0.5038332
v -0.50350106 0.1922349 0.5038351
v 0.12587403 0.19223519 -0.5035008
v 0.5037529 0.15217434 -0.6212326
v 0.50349915 0.19223519 -0.50350064
v 0.12587479 0.13860314 -0.62696373
v 0.5034964 1.9207E-07 -0.6766341
v -0.40300992 0.1922349 -0.52998066
v 0.12587391 4.99382E-07 -0.6883201
v -0.40587577 0.13860312 -0.65506023
v -0.40587658 4.99382E-07 -0.71641684
v -0.49143833 0.19223519 -0.48355272
v -0.5270578 0.13860312 -0.64302355
v -0.54255664 4.99382E-07 -0.70391923
v -0.6069122 0.13860314 -0.6016816
v -0.6423921 2.1127701E-07 -0.6455412
v -0.69903994 -9.6035E-08 -0.53920484
v -0.6481999 0.13860281 -0.5165135
v -0.5213128 0.19223522 -0.39436892
v -0.70901364 -1.15242E-07 -0.39260203
v -0.65743625 0.13860251 -0.3926029
v -0.5198192 0.19223487 0.12587357
v -0.6446865 0.13860251 0.12587415
v -0.6962639 -1.15242E-07 0.12587485
v -0.50350106 0.1922349 0.5038351
v -0.67663765 -7.2986603E-07 0.504091
v -0.62123275 0.15217404 0.50383514
vt 0.80676883 0.6675821
vt 0.80676883 0.6614489
vt 0.80676883 0.6614489
vt 0.81605935 0.6614489
vt 0.82479715 0.6675821
vt 0.82479715 0.6614489
vt 0.6476629 0.7449316
vt 0.62805647 0.6054603
vt 0.62805647 0.7449316
vt 0.62941974 0.6054603
vt 0.6476629 0.6054603
vt 0.64918023 0.6054603
vt 0.66959023 0.7449316
vt 0.66959023 0.6054603
vt 0.68626773 0.7449316
vt 0.67074126 0.6054603
vt 0.68626773 0.6054603
vt 0.702282 0.6054603
vt 0.7034692 0.6054603
vt 0.70346916 0.7449316
vt 0.7721718 0.7449316
vt 0.7721718 0.6054603
vt 0.7683448 0.6054603
vt 0.71672255 0.7449316
vt 0.71672255 0.6054603
vt 0.70491374 0.6054603
vt 0.70403826 0.7449316
vt 0.70403826 0.6054603
vt 0.8450604 0.6614489
vt 0.8389448 0.6614489
vt 0.8389448 0.6675821
vt 0.8450604 0.6675821
vt 0.8389448 0.6522669
vt 0.8450604 0.63821185
vt 0.8389448 0.63821185
vt 0.8450604 0.652877
vt 0.8389448 0.65574974
vt 0.8450604 0.65566736
vt 0.8389448 0.65839654
vt 0.8450604 0.65839654
vt 0.8321393 0.63821185
vt 0.8411742 0.63821185
vt 0.8411742 0.65839654
vt 0.80676883 0.65839654
vt 0.80676883 0.63821185
vt 0.80676883 0.6499429
vt 0.80676883 0.65839654
vt 0.80676883 0.63821185
vt 0.81605935 0.65839654
vt 0.82479715 0.63821185
vt 0.82479715 0.6548848
vt 0.82479715 0.65839654
vt 0.82479715 0.65112746
vt 0.83621 0.63821185
vt 0.83621 0.6522669
vt 0.83621 0.65574974
vt 0.83621 0.65839654
vt 0.83621 0.6675821
vt 0.83621 0.6614489
vt 0.82479715 0.6614489
vt 0.82479715 0.6675821
vt 0.8411742 0.6675821
vt 0.80676883 0.6675821
vt 0.80676883 0.6614489
vt 0.8411742 0.6614489
vt 0.80676883 0.6675821
vt 0.82479715 0.6675821
vt 0.81605935 0.6614489
vt 0.80676883 0.6614489
vt 0.83067936 0.6727321
vt 0.82749194 0.68587464
vt 0.83859545 0.68166137
vt 0.8202414 0.67061734
vt 0.80598885 0.6720896
vt 0.8093628 0.68166137
vt 0.27349132 0.69265306
vt 0.27349132 0.6861966
vt 0.2759206 0.6861966
vt 0.27660564 0.69265306
vt 0.2772908 0.6861966
vt 0.2783534 0.6861966
vt 0.2765985 0.7021872
vt 0.27349132 0.7021872
vt 0.2783104 0.69265306
vt 0.27892342 0.6861966
vt 0.27660564 0.71085423
vt 0.27349132 0.71085423
vt 0.27859303 0.7021872
vt 0.27972004 0.71085423
vt 0.27892342 0.69265306
vt 0.27944708 0.7021872
vt 0.28179634 0.71085423
vt 0.28179634 0.71085423
vt 0.27969754 0.7021872
vt 0.28179634 0.71085423
vt 0.27920872 0.69265306
vt 0.27920872 0.6861966
vt 0.27972004 0.6861966
vt 0.27972004 0.69265306
vt 0.2802089 0.7021872
vt 0.28179634 0.71085423
vt 0.25866237 0.7104564
vt 0.25718835 0.7021872
vt 0.25718835 0.7104564
vt 0.25866237 0.7021872
vt 0.25718835 0.6861826
vt 0.26013663 0.7104564
vt 0.25866237 0.6861826
vt 0.26013663 0.7021872
vt 0.26013663 0.6861826
vt 0.26111916 0.7104564
vt 0.26111916 0.7021872
vt 0.26111916 0.6861826
vt 0.26123968 0.7021872
vt 0.26129046 0.6861826
vt 0.26146272 0.6861826
vt 0.26135984 0.7021872
vt 0.26111916 0.7104564
vt 0.26146272 0.6861826
vt 0.26135984 0.7021872
vt 0.26111916 0.7104564
vt 0.26135984 0.7021872
vt 0.26146272 0.6861826
vt 0.26111916 0.7104564
vt 0.26146272 0.6861826
vt 0.26135984 0.7021872
vn 0.103023484 0.49119294 0.8649368
vn 0.10302347 0.49119288 0.8649368
vn 0.10302349 0.49119294 0.8649368
vn 0.5668547 0.6176648 0.54512924
vn 0.5668547 0.6176648 0.54512924
vn 0.5668547 0.6176649 0.54512924
vn -0.7223459 0.14870852 0.67535335
vn -0.9952779 -0.0035189397 0.09700252
vn -0.9952779 -0.00351894 0.09700253
vn -0.99611473 -0.004291916 0.08796003
vn -0.6171319 0.17607997 0.7669056
vn -0.0037736136 0.2416878 0.9703466
vn -0.07339275 0.2396205 0.9680885
vn -0.07271711 0.23916051 0.9682532
vn 0.33738786 0.21111347 0.9173879
vn -0.0862238 0.22551659 0.97041625
vn 0.3524076 0.19730993 0.9148102
vn 0.69989645 0.1505884 0.69818926
vn 0.69989705 0.15058836 0.69818854
vn 0.69989705 0.15058836 0.69818854
vn 0.98398626 0.17824419 1.5634859E-06
vn 0.98398626 0.17824419 1.5634859E-06
vn 0.9858013 0.16477628 0.032321405
vn 0.7811404 0.12833567 0.61102355
vn 0.79981595 0.11483299 0.58915865
vn 0.32549837 0.046888705 0.9443793
vn 0.32549778 0.046888683 0.9443795
vn 0.32549778 0.046888683 0.9443795
vn 0.8526948 0.15493548 -0.4989052
vn 0.9349317 0.3528013 -0.03786784
vn 0.87023556 0.4349604 -0.23129971
vn 0.8233696 0.2710814 -0.49857548
vn 0.9843417 0.17363125 -0.03038938
vn 0.86067927 0.030956471 -0.50820553
vn 0.9956072 0.08310948 -0.04311746
vn 0.8638608 0.05264503 -0.5009723
vn 0.9863201 0.12641223 -0.10579514
vn 0.86756146 0.05247919 -0.4945532
vn 0.9349317 0.3528013 -0.03786784
vn 0.8526948 0.15493548 -0.4989052
vn -0.2766407 0.09120835 0.95663524
vn -0.3409922 0.11268563 0.93328786
vn -0.34099227 0.11268564 0.93328786
vn -0.11946039 0.08800841 0.98893064
vn -0.079907976 0.06775176 0.994497
vn 0.29382074 0.10955428 0.94956166
vn 0.42250133 0.06264644 0.9041948
vn 0.26514477 0.09231534 0.95977926
vn 0.7758648 0.07798196 0.6260612
vn 0.7468836 0.1131319 0.65526026
vn 0.80069196 0.19984046 0.5647621
vn 0.8896363 0.24443436 0.38574508
vn 0.7075851 0.22771691 0.66893077
vn 0.9956072 0.08310948 -0.04311746
vn 0.9843417 0.17363125 -0.03038938
vn 0.9863201 0.12641223 -0.10579514
vn 0.9349317 0.3528013 -0.03786784
vn 0.87023556 0.4349604 -0.23129971
vn 0.9349317 0.3528013 -0.03786784
vn 0.8896363 0.24443436 0.38574508
vn 0.68102425 0.6238197 0.38347748
vn -0.47004595 0.7604912 0.4480067
vn -0.38492236 0.81667566 0.4299717
vn -0.4519067 0.72317576 0.5222999
vn -0.4519067 0.7231757 0.52229995
vn 0.2606309 0.6657658 0.6991619
vn 0.2606309 0.6657658 0.6991619
vn 0.2606309 0.6657659 0.6991619
vn 0.2606309 0.6657659 0.6991619
vn -0.2065712 0.94985324 0.23474905
vn -0.3044789 0.9072013 0.2903076
vn -0.1423468 0.98675936 0.07773917
vn -0.23368998 0.92555624 0.2978836
vn -0.38492236 0.81667566 0.4299717
vn -0.47004595 0.7604912 0.4480067
vn -0 1 0
vn -0 1 0
vn -0 1 0
vn -0 1 0
vn -0 1 0
vn -0 1 0
vn -0 1 0
vn -0 1 0
vn -0 1 0
vn -0 1 0
vn -0 1 0
vn -0 1 0
vn -0 1 0
vn -0 1 0
vn -0 1 0
vn -0 1 0
vn -0 1 0
vn -0 1 0
vn -0 1 0
vn -0 1 0
vn -0 1 0
vn -0 1 0
vn -0 1 0
vn -0 1 0
vn -0 1 0
vn -0 1 0
vn -0 1 0
vn -0 1 0
vn -0 1 0
vn -0 1 0
vn -0 1 0
vn -0 1 0
vn -0 1 0
vn -0 1 0
vn -0 1 0
vn -0 1 0
vn -0 1 0
vn -0 1 0
vn -0 1 0
vn -0 1 0
vn -0 1 0
vn -0 1 0
vn -0 1 0
vn -0 1 0
vn -0 1 0
vn -0 1 0
vn -0 1 0
vn -0 1 0
vn -0 1 0
vn -0 1 0
vn -0 1 0
g wall_undercliff2_CS2_0
f 3/3/3 2/2/2 1/1/1
f 6/6/6 5/5/5 4/4/4
f 9/9/9 8/8/8 7/7/7
f 8/8/8 10/10/10 7/7/7
f 10/10/10 11/11/11 7/7/7
f 7/7/7 11/11/11 12/12/12
f 13/13/13 7/7/7 12/12/12
f 12/12/12 14/14/14 13/13/13
f 15/15/15 13/13/13 14/14/14
f 16/16/16 15/15/15 14/14/14
f 16/16/16 17/17/17 15/15/15
f 17/17/17 18/18/18 15/15/15
f 18/18/18 19/19/19 15/15/15
f 19/19/19 20/20/20 15/15/15
f 23/23/23 22/22/22 21/21/21
f 24/24/24 23/23/23 21/21/21
f 24/24/24 25/25/25 23/23/23
f 26/26/26 25/25/25 24/24/24
f 26/26/26 24/24/24 27/27/27
f 28/28/28 26/26/26 27/27/27
f 31/31/31 30/30/30 29/29/29
f 32/32/32 31/31/31 29/29/29
f 35/35/35 34/34/34 33/33/33
f 34/34/34 36/36/36 33/33/33
f 37/37/37 33/33/33 36/36/36
f 38/38/38 37/37/37 36/36/36
f 39/39/39 37/37/37 38/38/38
f 40/40/40 39/39/39 38/38/38
f 43/43/43 42/42/42 41/41/41
f 44/44/44 43/43/43 41/41/41
f 44/44/44 41/41/41 45/45/45
f 45/45/45 46/46/46 44/44/44
f 46/46/46 47/47/47 44/44/44
f 48/48/48 46/46/46 45/45/45
f 47/47/47 46/46/46 49/49/49
f 48/48/48 50/50/50 46/46/46
f 46/46/46 51/51/51 49/49/49
f 52/52/52 49/49/49 51/51/51
f 50/50/50 53/53/53 46/46/46
f 51/51/51 46/46/46 53/53/53
f 53/53/53 50/50/50 54/54/54
f 55/55/55 53/53/53 54/54/54
f 51/51/51 53/53/53 55/55/55
f 56/56/56 51/51/51 55/55/55
f 52/52/52 51/51/51 56/56/56
f 57/57/57 52/52/52 56/56/56
f 60/60/60 59/59/59 58/58/58
f 61/61/61 60/60/60 58/58/58
f 64/64/64 63/63/63 62/62/62
f 65/65/65 64/64/64 62/62/62
f 68/68/68 67/67/67 66/66/66
f 69/69/69 68/68/68 66/66/66
f 72/72/72 71/71/71 70/70/70
f 71/71/71 73/73/73 70/70/70
f 74/74/74 73/73/73 71/71/71
f 75/75/75 74/74/74 71/71/71
f 78/78/78 77/77/77 76/76/76
f 76/76/76 79/79/79 78/78/78
f 80/80/80 78/78/78 79/79/79
f 81/81/81 80/80/80 79/79/79
f 79/79/79 76/76/76 82/82/82
f 76/76/76 83/83/83 82/82/82
f 79/79/79 84/84/84 81/81/81
f 79/79/79 82/82/82 84/84/84
f 85/85/85 81/81/81 84/84/84
f 86/86/86 82/82/82 83/83/83
f 87/87/87 86/86/86 83/83/83
f 88/88/88 82/82/82 86/86/86
f 82/82/82 88/88/88 84/84/84
f 89/89/89 88/88/88 86/86/86
f 85/85/85 84/84/84 90/90/90
f 84/84/84 88/88/88 90/90/90
f 91/91/91 88/88/88 89/89/89
f 88/88/88 91/91/91 90/90/90
f 89/89/89 92/92/92 91/91/91
f 92/92/92 93/93/93 91/91/91
f 91/91/91 93/93/93 94/94/94
f 91/91/91 94/94/94 90/90/90
f 93/93/93 95/95/95 94/94/94
f 96/96/96 85/85/85 90/90/90
f 94/94/94 96/96/96 90/90/90
f 97/97/97 85/85/85 96/96/96
f 98/98/98 97/97/97 96/96/96
f 99/99/99 98/98/98 96/96/96
f 96/96/96 94/94/94 99/99/99
f 94/94/94 100/100/100 99/99/99
f 94/94/94 95/95/95 100/100/100
f 95/95/95 101/101/101 100/100/100
f 104/104/104 103/103/103 102/102/102
f 103/103/103 105/105/105 102/102/102
f 105/105/105 103/103/103 106/106/106
f 102/102/102 105/105/105 107/107/107
f 108/108/108 105/105/105 106/106/106
f 105/105/105 109/109/109 107/107/107
f 109/109/109 105/105/105 108/108/108
f 110/110/110 109/109/109 108/108/108
f 107/107/107 109/109/109 111/111/111
f 112/112/112 109/109/109 110/110/110
f 109/109/109 112/112/112 111/111/111
f 113/113/113 112/112/112 110/110/110
f 114/114/114 112/112/112 113/113/113
f 112/112/112 114/114/114 111/111/111
f 115/115/115 114/114/114 113/113/113
f 115/115/115 116/116/116 114/114/114
f 114/114/114 117/117/117 111/111/111
f 116/116/116 117/117/117 114/114/114
f 111/111/111 117/117/117 118/118/118
f 116/116/116 119/119/119 117/117/117
f 117/117/117 120/120/120 118/118/118
f 119/119/119 120/120/120 117/117/117
f 118/118/118 120/120/120 121/121/121
f 122/122/122 120/120/120 119/119/119
f 120/120/120 122/122/122 121/121/121
f 123/123/123 122/122/122 119/119/119
f 121/121/121 122/122/122 124/124/124
f 123/123/123 125/125/125 122/122/122
f 122/122/122 126/126/126 124/124/124
f 125/125/125 126/126/126 122/122/122
