g wall_indoor_1_S1
v 0.5034996 4.807203 0.5470746
v 0.5034997 -0.057873975 0.60439754
v -0.50350004 -0.057873975 0.60439754
v -0.50350016 4.807203 0.5470746
v 0.3826918 0.2251338 -0.5257358
v -0.3826938 0.2251338 -0.52573556
v -0.3826939 -1.2698882E-08 -0.5882934
v 0.3826917 -1.269887E-08 -0.5882936
v 0.48391572 -2.51841E-08 -0.52236736
v 0.48391584 0.2251338 -0.46064955
v 0.50349855 0.2251338 -0.46064955
v 0.50349844 -3.1161203E-08 -0.52236736
v -0.50350016 5.2176294 0.48292392
v 0.50349987 5.2176294 0.48292398
v 0.5034996 5.19597 0.5160455
v -0.5035001 5.195969 0.51604545
v 0.50349814 0.22513378 -0.31449577
v 0.48391584 0.2251338 -0.46064955
v 0.50349855 0.2251338 -0.46064955
v -0.48391742 0.2251338 -0.4606494
v -0.50350004 0.2251338 -0.31449586
v -0.5035 0.2251338 -0.46064934
v 0.3826918 0.2251338 -0.5257358
v -0.3826938 0.2251338 -0.52573556
v -0.50350004 -3.1161225E-08 -0.522367
v -0.48391742 0.2251338 -0.4606494
v -0.5035 0.2251338 -0.46064934
v -0.4839175 -2.5184114E-08 -0.522367
v -0.3826939 -1.2698882E-08 -0.5882934
v -0.3826938 0.2251338 -0.52573556
v -0.41143507 4.8163524 -0.10102285
v 0.4114348 4.816352 -0.10102281
v 0.41143477 5.19597 -0.060656216
v -0.41143513 5.19597 -0.060656253
v 0.4114353 5.2176294 -0.024852173
v -0.41143507 5.2176294 -0.024852173
v -0.3446839 1.3013439 -0.25941598
v 0.3446848 1.3013439 -0.25941598
v 0.34468436 4.390086 -0.073374055
v -0.3446838 4.390086 -0.0733741
v -0.4370765 1.3013439 -0.04847601
v -0.42018187 1.3013439 -0.20973189
v -0.42018244 4.390086 -0.028379789
v -0.4370773 4.390086 0.052765932
v -0.42018187 1.3013439 -0.20973189
v -0.3446839 1.3013439 -0.25941598
v -0.3446838 4.390086 -0.0733741
v -0.42018244 4.390086 -0.028379789
v 0.43707642 1.3013439 -0.04847609
v 0.43707627 4.390086 0.052765895
v 0.42018172 4.390086 -0.02837977
v 0.42018256 1.3013439 -0.2097318
v 0.42018256 1.3013439 -0.2097318
v 0.42018172 4.390086 -0.02837977
v 0.34468436 4.390086 -0.073374055
v 0.3446848 1.3013439 -0.25941598
v 0.44694257 4.3591647 0.047426637
v 0.46013385 4.442231 -0.04464142
v 0.41520762 4.3591647 -0.034297857
v 0.4953028 4.442231 0.05017583
v 0.46013317 4.831472 -0.0059070243
v 0.49530303 4.831472 0.06463811
v 0.3914396 4.831472 -0.06396399
v 0.46013385 4.442231 -0.04464142
v 0.46013317 4.831472 -0.0059070243
v 0.3914396 4.442231 -0.103501916
v 0.41520762 4.3591647 -0.034297857
v 0.3532203 4.3591647 -0.09334682
v 0.3914396 4.831472 -0.06396399
v -0.3914401 4.831472 -0.06396401
v -0.3914401 4.442231 -0.10350184
v 0.3914396 4.442231 -0.103501916
v 0.3532203 4.3591647 -0.09334682
v -0.35322082 4.3591638 -0.093346715
v -0.41520795 4.359164 -0.03429788
v -0.35322082 4.3591638 -0.093346715
v -0.3914401 4.442231 -0.10350184
v -0.46013436 4.442231 -0.04464144
v -0.3914401 4.831472 -0.06396401
v -0.46013436 4.831472 -0.0059070243
v -0.446943 4.3591647 0.04742662
v -0.41520795 4.359164 -0.03429788
v -0.46013436 4.442231 -0.04464144
v -0.49530324 4.442231 0.050175782
v -0.46013436 4.831472 -0.0059070243
v -0.49530324 4.831472 0.06463807
v -0.5035 0.9193921 0.15255424
v -0.5035 0.83875966 -0.19642024
v 0.5034992 0.8387598 -0.1964202
v 0.5034992 0.9193921 0.15255454
v 0.50349987 0.63362 -0.18797494
v -0.5035 0.6336198 -0.18797494
v -0.50350004 0.377194 -0.24836963
v 0.50349987 0.3771939 -0.24836974
v -0.50350004 0.377194 -0.24836963
v -0.50350004 0.377194 -0.32866988
v 0.50349927 0.3771939 -0.32866988
v 0.50349987 0.3771939 -0.24836974
v 0.5034992 0.8387598 -0.1964202
v -0.5035 0.83875966 -0.19642024
v -0.5035 0.6178941 -0.23217493
v 0.5034989 0.6178941 -0.23217493
v 0.50349927 0.3771939 -0.32866988
v -0.50350004 0.377194 -0.32866988
v -0.50350004 0.2251338 -0.33958757
v 0.50349927 0.2251338 -0.33958748
v -0.35764956 1.3188589 -0.33035028
v 0.3576491 1.3188589 -0.3303502
v 0.32700557 1.3434267 -0.29397237
v -0.32700598 1.3434267 -0.29397237
v -0.49830702 1.3188591 -0.034636732
v -0.45389143 1.3434266 -0.19922034
v -0.4610148 1.3434266 -0.034636732
v -0.4964259 1.3188589 -0.22948284
v -0.49830702 0.9838685 -0.03463673
v -0.4964259 0.9838681 -0.2809669
v -0.45389143 1.3434266 -0.19922034
v -0.32700598 1.3434267 -0.29397237
v 0.32700557 1.3434267 -0.29397237
v 0.45389095 1.3434266 -0.19922039
v 0.46101418 1.3434267 -0.034636695
v -0.4610148 1.3434266 -0.034636732
v 0.46101418 1.3434267 -0.034636695
v 0.45389095 1.3434266 -0.19922039
v 0.4964251 1.3188589 -0.22948287
v 0.4983071 1.3188591 -0.034636714
v 0.49830675 0.9838685 -0.034636766
v 0.49642617 0.9838685 -0.2809669
v -0.35764956 1.3188589 -0.33035028
v -0.32700598 1.3434267 -0.29397237
v -0.45389143 1.3434266 -0.19922034
v -0.4964259 1.3188589 -0.22948284
v -0.4964259 0.9838681 -0.2809669
v -0.35764956 0.9838681 -0.38288087
v 0.32700557 1.3434267 -0.29397237
v 0.4964251 1.3188589 -0.22948287
v 0.45389095 1.3434266 -0.19922039
v 0.3576491 1.3188589 -0.3303502
v 0.49642617 0.9838685 -0.2809669
v 0.3576491 0.9838685 -0.38288087
v -0.35764956 1.3188589 -0.33035028
v -0.35764956 0.9838681 -0.38288087
v 0.3576491 0.9838685 -0.38288087
v 0.3576491 1.3188589 -0.3303502
v -0.34468383 0.16911013 -0.4413005
v 0.3446848 0.16911013 -0.4413005
v 0.34468442 1.0203564 -0.31066552
v -0.3446839 1.0203562 -0.31066555
v -0.43707642 0.16911013 -0.24186684
v -0.42018187 0.16911013 -0.39682317
v -0.42018226 1.020356 -0.27173835
v -0.4370773 1.0203562 -0.1551356
v -0.42018187 0.16911013 -0.39682317
v -0.34468383 0.16911013 -0.4413005
v -0.3446839 1.0203562 -0.31066555
v -0.42018226 1.020356 -0.27173835
v 0.43707636 0.16911013 -0.24186692
v 0.43707642 1.0203565 -0.15513565
v 0.42018178 1.0203564 -0.27173835
v 0.4201827 0.16911013 -0.39682308
v 0.4201827 0.16911013 -0.39682308
v 0.42018178 1.0203564 -0.27173835
v 0.34468442 1.0203564 -0.31066552
v 0.3446848 0.16911013 -0.4413005
v 0.5035003 0.91939235 -0.06668586
v 0.50349975 4.816352 0.0636786
v -0.50350004 4.8163524 0.06367856
v -0.5035 0.9193924 -0.06668586
v -0.5035001 5.195969 0.51604545
v 0.5034996 5.19597 0.5160455
v 0.5034996 4.807203 0.5685816
v -0.50350016 4.807203 0.5685815
v -0.41143507 5.2176294 -0.024852173
v -0.50350016 5.2176294 0.48292392
v -0.50350004 5.2176294 0.11396758
v 0.50349987 5.2176294 0.48292398
v 0.4114353 5.2176294 -0.024852173
v 0.5035003 5.2176294 0.11396758
v -0.50350004 4.8163524 0.06367856
v -0.41143507 4.8163524 -0.10102285
v -0.41143513 5.19597 -0.060656253
v -0.50350004 5.19597 0.07816349
v -0.41143507 5.2176294 -0.024852173
v -0.50350004 5.2176294 0.11396758
v 0.5034997 5.19597 0.078163534
v 0.4114348 4.816352 -0.10102281
v 0.50349975 4.816352 0.0636786
v 0.41143477 5.19597 -0.060656216
v 0.5035003 5.2176294 0.11396758
v 0.4114353 5.2176294 -0.024852173
vt 0.04240112 0.12082737
vt 0.042402454 0.07350999
vt 0.035508525 0.07350999
vt 0.03550719 0.12082898
vt 0.016603101 0.014444049
vt 0.0020546855 0.014444059
vt 0.0020546855 0.0007780349
vt 0.016603101 0.0007780307
vt 0.023531877 0.0007780305
vt 0.023531877 0.014444049
vt 0.026665794 0.0144440485
vt 0.026665794 0.0007780298
vt 0.00216294 0.14561835
vt 0.014853456 0.14561835
vt 0.016133128 0.14807057
vt 0.0021656344 0.1480682
vt 0.010585223 0.027470918
vt 0.010585223 0.020828415
vt 0.011648677 0.020828415
vt 0.0027196235 0.020828415
vt 0.0016561765 0.027470918
vt 0.0016561765 0.020828415
vt 0.009355328 0.01635532
vt 0.0039495393 0.016355332
vt 0.026665794 0.00077803584
vt 0.023531877 0.014444059
vt 0.026665794 0.01444406
vt 0.023531877 0.00077803514
vt 0.016690103 0.0007780349
vt 0.016690103 0.014444059
vt 0.0016000004 0.11282641
vt 0.009577172 0.112826414
vt 0.009577172 0.12833229
vt 0.0016000004 0.12833229
vt 0.009577172 0.13092577
vt 0.0016000004 0.13092577
vt 0.019785734 0.101432
vt 0.02718463 0.101432
vt 0.02718463 0.15465035
vt 0.019785734 0.15465035
vt 0.03208171 0.101432
vt 0.0293737 0.101432
vt 0.0293737 0.15465035
vt 0.03208171 0.15465035
vt 0.0293737 0.101432
vt 0.02718463 0.101432
vt 0.02718463 0.15465035
vt 0.0293737 0.15465035
vt 0.03208171 0.101432
vt 0.03208171 0.15465035
vt 0.0293737 0.15465035
vt 0.0293737 0.101432
vt 0.0293737 0.101432
vt 0.0293737 0.15465035
vt 0.02718463 0.15465035
vt 0.02718463 0.101432
vt 0.044104416 0.031114409
vt 0.041183453 0.033602264
vt 0.041183453 0.031114409
vt 0.044104416 0.033602264
vt 0.041183453 0.04420839
vt 0.044104416 0.04420839
vt 0.035616715 0.04420839
vt 0.041183453 0.033602294
vt 0.041183453 0.04420839
vt 0.035616715 0.033602294
vt 0.041183453 0.031114439
vt 0.035616715 0.031114439
vt 0.035616715 0.04420839
vt 0.031383887 0.04420839
vt 0.031383887 0.033602264
vt 0.035616715 0.033602294
vt 0.035616715 0.031114439
vt 0.031383887 0.031114409
vt 0.041183453 0.031114409
vt 0.035616715 0.031114409
vt 0.035616715 0.033602264
vt 0.041183453 0.033602264
vt 0.035616715 0.04420839
vt 0.041183453 0.04420839
vt 0.044104416 0.031114409
vt 0.041183453 0.031114409
vt 0.041183453 0.033602264
vt 0.044104416 0.033602264
vt 0.041183453 0.04420839
vt 0.044104416 0.04420839
vt 0.002094571 0.06998461
vt 0.002094571 0.061935578
vt 0.007792219 0.061935578
vt 0.007792219 0.06998461
vt 0.09250745 0.12399766
vt 0.07804318 0.12399766
vt 0.07804318 0.09971155
vt 0.09250745 0.09971155
vt 0.001311216 0.04833327
vt 0.001311216 0.039865643
vt 0.010087328 0.039865643
vt 0.010087328 0.04833327
vt 0.002094571 0.059775133
vt 0.008240304 0.059775133
vt 0.008240304 0.049088288
vt 0.002094571 0.049088288
vt 0.008596287 0.039401166
vt 0.002315982 0.039401166
vt 0.002315982 0.029404959
vt 0.008596287 0.029404959
vt 0.032239247 0.0140261
vt 0.037743367 0.0140261
vt 0.037743367 0.016250009
vt 0.032239247 0.016250009
vt 0.04408126 0.0140261
vt 0.04184603 0.016250009
vt 0.04408126 0.016250009
vt 0.04184603 0.0140261
vt 0.04408126 0.00038778194
vt 0.04184603 0.00038778194
vt 0.031140054 0.019416505
vt 0.032201678 0.017135391
vt 0.041895337 0.017135391
vt 0.042956963 0.019416505
vt 0.042956963 0.026479656
vt 0.031140054 0.026479686
vt 0.04408126 0.016250009
vt 0.04184603 0.016250009
vt 0.04184603 0.0140261
vt 0.04408126 0.0140261
vt 0.04408126 0.00038778194
vt 0.04184603 0.00038778194
vt 0.037743367 0.0140261
vt 0.037743367 0.016250009
vt 0.04184603 0.016250009
vt 0.04184603 0.0140261
vt 0.04184603 0.00038779684
vt 0.037743367 0.00038779684
vt 0.037743367 0.016250009
vt 0.04184603 0.0140261
vt 0.04184603 0.016250009
vt 0.037743367 0.0140261
vt 0.04184603 0.00038781174
vt 0.037743367 0.00038781174
vt 0.032239247 0.0140261
vt 0.032239247 0.00038779684
vt 0.037743367 0.00038781174
vt 0.037743367 0.0140261
vt 0.019785734 0.07081112
vt 0.02718463 0.07081112
vt 0.02718463 0.09929754
vt 0.019785734 0.09929754
vt 0.03208171 0.07081112
vt 0.0293737 0.07081112
vt 0.0293737 0.09929754
vt 0.03208171 0.09929754
vt 0.0293737 0.07081112
vt 0.02718463 0.07081112
vt 0.02718463 0.09929754
vt 0.0293737 0.09929754
vt 0.03208171 0.07081112
vt 0.03208171 0.09929754
vt 0.0293737 0.09929754
vt 0.0293737 0.07081112
vt 0.0293737 0.07081112
vt 0.0293737 0.09929754
vt 0.02718463 0.09929754
vt 0.02718463 0.07081112
vt 0.042126883 0.12324451
vt 0.042126883 0.15395206
vt 0.035486415 0.15395206
vt 0.035486415 0.12324451
vt 0.0021656344 0.1480682
vt 0.016133128 0.14807057
vt 0.016127732 0.15428941
vt 0.0021602379 0.15428704
vt 0.0033604503 0.13174227
vt 0.0020828191 0.14555858
vt 0.0020828191 0.13174227
vt 0.014779827 0.14555858
vt 0.014779827 0.13174227
vt 0.016057458 0.13174227
vt 0.016490659 0.11282641
vt 0.009577172 0.11282641
vt 0.009577172 0.12833229
vt 0.016490659 0.12833229
vt 0.009577172 0.13092577
vt 0.016490659 0.13092577
vt 0.016490659 0.12833229
vt 0.009577172 0.112826414
vt 0.016490659 0.112826414
vt 0.009577172 0.12833229
vt 0.016490659 0.13092577
vt 0.009577172 0.13092577
vn -0 0.0117817065 0.9999306
vn -0 0.0117817065 0.9999306
vn -0 0.0117817065 0.9999306
vn -0 0.011781707 0.9999306
vn 0.28741956 0.25565973 -0.92305374
vn -0.28742066 0.2556597 -0.9230533
vn -0.261771 0.25768963 -0.93009245
vn 0.26176986 0.25768963 -0.9300929
vn 0.2873787 0.25400156 -0.92352414
vn 0.26207498 0.25584534 -0.9305159
vn -0 0.2643837 -0.9644176
vn -0 0.2643837 -0.96441764
vn -2.8695277E-07 0.83693177 0.54730725
vn -2.869527E-07 0.83693177 0.5473072
vn -2.8695277E-07 0.83693177 0.54730725
vn -2.869528E-07 0.83693177 0.54730725
vn -0 1 0
vn -0 1 0
vn -0 1 1.3141637E-07
vn -0 1 0
vn -0 1 0
vn -0 1 0
vn -0 1 0
vn -0 1 0
vn -1.9462627E-06 0.26438317 -0.96441764
vn -0.26207682 0.25584504 -0.93051547
vn -1.9462627E-06 0.26438317 -0.96441764
vn -0.28738034 0.2540013 -0.9235236
vn -0.261771 0.25768963 -0.93009245
vn -0.28742066 0.2556597 -0.9230533
vn -0 0.10573867 -0.99439394
vn -0 0.10573868 -0.99439394
vn -0 0.53655225 -0.84386706
vn -0 0.5365505 -0.84386826
vn -0 0.8556221 -0.5176011
vn -0 0.8556221 -0.5176011
vn -0 0.060123287 -0.99819094
vn -0 0.060123287 -0.99819094
vn -0 0.06012329 -0.99819094
vn -0 0.06012329 -0.99819094
vn -0.9904041 0.006315311 -0.13805705
vn -0.9904041 0.006315311 -0.13805705
vn -0.9904041 0.006315311 -0.13805705
vn -0.9904041 0.006315312 -0.13805707
vn -0.530558 0.05032331 -0.84615356
vn -0.530558 0.050323315 -0.84615356
vn -0.530558 0.05032331 -0.84615356
vn -0.53055805 0.050323315 -0.84615356
vn 0.9904047 0.0063155 -0.1380529
vn 0.9904047 0.0063155 -0.13805288
vn 0.9904047 0.0063155 -0.1380529
vn 0.9904047 0.0063155 -0.1380529
vn 0.53056204 0.05032331 -0.846151
vn 0.53056204 0.050323308 -0.846151
vn 0.53056204 0.050323304 -0.846151
vn 0.53056204 0.050323304 -0.846151
vn 0.8223641 -0.47601607 -0.31165054
vn 0.8993309 -0.24556178 -0.36180568
vn 0.8223641 -0.47601607 -0.31165054
vn 0.90576404 -0.2117092 -0.36711136
vn 0.91988206 0.026738422 -0.39128253
vn 0.91988206 0.02673842 -0.3912825
vn 0.6462001 0.07634831 -0.75933945
vn 0.6514384 -0.13317591 -0.7469218
vn 0.6462001 0.07634831 -0.75933945
vn 0.64820814 -0.18542501 -0.73854166
vn 0.6161073 -0.3925997 -0.68284506
vn 0.6161073 -0.3925997 -0.68284506
vn -0 0.10105694 -0.9948807
vn -0 0.10105694 -0.9948807
vn -0 0.007458175 -0.9999722
vn -0 0.007458312 -0.9999722
vn -0 -0.12134874 -0.9926099
vn -0 -0.121348746 -0.9926099
vn -0.6161076 -0.39259985 -0.68284464
vn -0.6161076 -0.39259985 -0.6828446
vn -0.64820737 -0.18542531 -0.7385423
vn -0.6514374 -0.1331761 -0.7469227
vn -0.64619803 0.076347776 -0.75934124
vn -0.64619803 0.07634779 -0.75934124
vn -0.8223639 -0.4760169 -0.31164938
vn -0.82236403 -0.4760169 -0.3116494
vn -0.8993317 -0.24556328 -0.3618028
vn -0.9057651 -0.21170962 -0.36710832
vn -0.919884 0.026737574 -0.391278
vn -0.919884 0.026737574 -0.391278
vn -0 0.9743301 -0.22512397
vn -0 0.9743301 -0.22512396
vn -0 0.9743301 -0.22512397
vn -0 0.9743301 -0.22512396
vn -0 0.22925234 -0.9733671
vn -0 0.22925235 -0.9733671
vn -0 0.22925234 -0.9733671
vn -0 0.22925237 -0.9733671
vn -0 1 0
vn -0 1 0
vn -0 1 0
vn -0 1 0
vn -0 0.15980406 -0.9871487
vn -0 0.15980406 -0.9871487
vn -0 0.15980406 -0.9871487
vn -0 0.15980406 -0.9871487
vn -0 0.07161384 -0.9974324
vn -0 0.07161384 -0.9974324
vn -0 0.07161384 -0.9974324
vn -0 0.07161384 -0.9974324
vn -0 0.8287128 -0.559674
vn -0 0.8287128 -0.5596741
vn -0 0.8287128 -0.5596741
vn -0 0.8287128 -0.5596741
vn -0.8724353 0.4885735 -0.012359187
vn -0.52054816 0.85373265 -0.0130416155
vn -0.52054816 0.85373265 -0.0130416155
vn -0.9319609 0.36237323 -0.011594275
vn -0.9999634 0.00065528735 -0.008527498
vn -0.9999634 0.00065528735 -0.008527498
vn -0 1 2.2130781E-07
vn -0 1 2.2130781E-07
vn -0 1 2.2130781E-07
vn -0 1 2.2130784E-07
vn -0 1 2.2130784E-07
vn -0 1 2.2130781E-07
vn 0.5205474 0.8537332 -0.013043009
vn 0.5205474 0.8537332 -0.013043009
vn 0.93196046 0.3623745 -0.011595426
vn 0.872435 0.48857382 -0.012360431
vn 0.9999634 0.0006564375 -0.008528282
vn 0.9999634 0.0006564374 -0.008528282
vn -0.48465073 0.5720149 -0.66174954
vn -0.2678264 0.89217454 -0.36372197
vn -0.2678264 0.89217454 -0.36372197
vn -0.4959723 0.54332834 -0.6773521
vn -0.58534884 0.124383874 -0.80118376
vn -0.58534884 0.124383874 -0.80118376
vn 0.26782712 0.892174 -0.3637227
vn 0.49597174 0.54332876 -0.67735213
vn 0.26782712 0.892174 -0.3637227
vn 0.48465043 0.5720149 -0.66174984
vn 0.58534807 0.12438505 -0.8011842
vn 0.58534807 0.12438504 -0.8011842
vn -0 0.15491916 -0.98792714
vn -0 0.15491915 -0.98792714
vn -0 0.15491916 -0.98792714
vn -0 0.15491916 -0.98792714
vn -0 0.15168741 -0.98842853
vn -0 0.15168741 -0.98842853
vn -0 0.15168741 -0.98842853
vn -0 0.15168741 -0.98842853
vn -0.9922305 0.015359759 -0.12346148
vn -0.9922305 0.015359759 -0.12346149
vn -0.9922305 0.015359759 -0.12346148
vn -0.9922305 0.015359759 -0.12346148
vn -0.47937924 0.13035712 -0.8678725
vn -0.47937918 0.13035712 -0.8678725
vn -0.4793792 0.13035712 -0.86787236
vn -0.47937918 0.1303571 -0.8678725
vn 0.9922311 0.015360391 -0.123456724
vn 0.9922311 0.015360391 -0.123456724
vn 0.9922311 0.015360391 -0.123456724
vn 0.9922311 0.015360391 -0.12345672
vn 0.47938195 0.13035731 -0.8678709
vn 0.4793819 0.1303573 -0.8678709
vn 0.47938195 0.1303573 -0.8678709
vn 0.4793819 0.1303573 -0.8678709
vn -0 0.033434153 -0.99944085
vn -0 0.033434153 -0.99944085
vn -0 0.033434153 -0.99944085
vn -0 0.033434153 -0.99944085
vn -0 0.13391788 0.9909924
vn -0 0.13391788 0.9909924
vn -0 0.13391788 0.9909924
vn -0 0.13391788 0.9909924
vn -0 1 0
vn -0 1 0
vn -0 1 0
vn -0 1 0
vn -0 1 0
vn -0 1 0
vn -0.85437626 0.03744522 -0.51830405
vn -0.85437626 0.03744522 -0.5183041
vn -0.8216716 0.25410542 -0.51018256
vn -0.75357616 0.44962806 -0.47953895
vn -0.6152581 0.6745093 -0.4080379
vn -0.615258 0.6745093 -0.4080379
vn 0.7535789 0.4496216 -0.47954077
vn 0.85437626 0.037445314 -0.5183039
vn 0.85437626 0.037445314 -0.51830393
vn 0.821673 0.2540996 -0.5101833
vn 0.6152654 0.67449963 -0.40804267
vn 0.6152654 0.67449963 -0.40804267
g wall_indoor_1_S1_0
f 3/3/3 2/2/2 1/1/1
f 4/4/4 3/3/3 1/1/1
f 7/7/7 6/6/6 5/5/5
f 8/8/8 7/7/7 5/5/5
f 9/9/9 8/8/8 5/5/5
f 10/10/10 9/9/9 5/5/5
f 9/9/9 10/10/10 11/11/11
f 12/12/12 9/9/9 11/11/11
f 15/15/15 14/14/14 13/13/13
f 16/16/16 15/15/15 13/13/13
f 19/19/19 18/18/18 17/17/17
f 18/18/18 20/20/20 17/17/17
f 20/20/20 21/21/21 17/17/17
f 22/22/22 21/21/21 20/20/20
f 18/18/18 23/23/23 20/20/20
f 23/23/23 24/24/24 20/20/20
f 27/27/27 26/26/26 25/25/25
f 26/26/26 28/28/28 25/25/25
f 28/28/28 26/26/26 29/29/29
f 26/26/26 30/30/30 29/29/29
f 33/33/33 32/32/32 31/31/31
f 34/34/34 33/33/33 31/31/31
f 35/35/35 33/33/33 34/34/34
f 36/36/36 35/35/35 34/34/34
f 39/39/39 38/38/38 37/37/37
f 40/40/40 39/39/39 37/37/37
f 43/43/43 42/42/42 41/41/41
f 44/44/44 43/43/43 41/41/41
f 47/47/47 46/46/46 45/45/45
f 48/48/48 47/47/47 45/45/45
f 51/51/51 50/50/50 49/49/49
f 52/52/52 51/51/51 49/49/49
f 55/55/55 54/54/54 53/53/53
f 56/56/56 55/55/55 53/53/53
f 59/59/59 58/58/58 57/57/57
f 58/58/58 60/60/60 57/57/57
f 60/60/60 58/58/58 61/61/61
f 62/62/62 60/60/60 61/61/61
f 65/65/65 64/64/64 63/63/63
f 64/64/64 66/66/66 63/63/63
f 66/66/66 64/64/64 67/67/67
f 68/68/68 66/66/66 67/67/67
f 71/71/71 70/70/70 69/69/69
f 72/72/72 71/71/71 69/69/69
f 71/71/71 72/72/72 73/73/73
f 74/74/74 71/71/71 73/73/73
f 77/77/77 76/76/76 75/75/75
f 78/78/78 77/77/77 75/75/75
f 79/79/79 77/77/77 78/78/78
f 80/80/80 79/79/79 78/78/78
f 83/83/83 82/82/82 81/81/81
f 84/84/84 83/83/83 81/81/81
f 85/85/85 83/83/83 84/84/84
f 86/86/86 85/85/85 84/84/84
f 89/89/89 88/88/88 87/87/87
f 90/90/90 89/89/89 87/87/87
f 93/93/93 92/92/92 91/91/91
f 94/94/94 93/93/93 91/91/91
f 97/97/97 96/96/96 95/95/95
f 95/95/95 98/98/98 97/97/97
f 101/101/101 100/100/100 99/99/99
f 102/102/102 101/101/101 99/99/99
f 105/105/105 104/104/104 103/103/103
f 106/106/106 105/105/105 103/103/103
f 109/109/109 108/108/108 107/107/107
f 110/110/110 109/109/109 107/107/107
f 113/113/113 112/112/112 111/111/111
f 112/112/112 114/114/114 111/111/111
f 111/111/111 114/114/114 115/115/115
f 114/114/114 116/116/116 115/115/115
f 119/119/119 118/118/118 117/117/117
f 117/117/117 120/120/120 119/119/119
f 117/117/117 121/121/121 120/120/120
f 117/117/117 122/122/122 121/121/121
f 125/125/125 124/124/124 123/123/123
f 126/126/126 125/125/125 123/123/123
f 125/125/125 126/126/126 127/127/127
f 128/128/128 125/125/125 127/127/127
f 131/131/131 130/130/130 129/129/129
f 132/132/132 131/131/131 129/129/129
f 132/132/132 129/129/129 133/133/133
f 129/129/129 134/134/134 133/133/133
f 137/137/137 136/136/136 135/135/135
f 136/136/136 138/138/138 135/135/135
f 136/136/136 139/139/139 138/138/138
f 139/139/139 140/140/140 138/138/138
f 143/143/143 142/142/142 141/141/141
f 144/144/144 143/143/143 141/141/141
f 147/147/147 146/146/146 145/145/145
f 148/148/148 147/147/147 145/145/145
f 151/151/151 150/150/150 149/149/149
f 152/152/152 151/151/151 149/149/149
f 155/155/155 154/154/154 153/153/153
f 156/156/156 155/155/155 153/153/153
f 159/159/159 158/158/158 157/157/157
f 160/160/160 159/159/159 157/157/157
f 163/163/163 162/162/162 161/161/161
f 164/164/164 163/163/163 161/161/161
f 167/167/167 166/166/166 165/165/165
f 168/168/168 167/167/167 165/165/165
f 171/171/171 170/170/170 169/169/169
f 172/172/172 171/171/171 169/169/169
f 175/175/175 174/174/174 173/173/173
f 174/174/174 176/176/176 173/173/173
f 176/176/176 177/177/177 173/173/173
f 178/178/178 177/177/177 176/176/176
f 181/181/181 180/180/180 179/179/179
f 182/182/182 181/181/181 179/179/179
f 183/183/183 181/181/181 182/182/182
f 184/184/184 183/183/183 182/182/182
f 187/187/187 186/186/186 185/185/185
f 186/186/186 188/188/188 185/185/185
f 185/185/185 188/188/188 189/189/189
f 188/188/188 190/190/190 189/189/189
