g wall_fence2
v 0.5467047 1.2748795 -0.29472122
v 0.5764619 0.6883051 -0.094295494
v 0.54670453 1.2748784 -0.11584742
v 0.576462 0.688307 -0.31601006
v 0.36578155 1.2748795 -0.2947212
v 0.33602414 0.688307 -0.3160101
v 0.36578155 1.2748795 -0.2947212
v 0.36578134 1.2748781 -0.11584745
v 0.33602405 0.68830514 -0.09429553
v 0.33602414 0.688307 -0.3160101
v 0.33602405 0.68830514 -0.09429553
v 0.36578134 1.2748781 -0.11584745
v 0.54670453 1.2748784 -0.11584742
v 0.5764619 0.6883051 -0.094295494
v 0.37307006 1.1753814 -0.2654705
v 0.060876932 0.92972594 -0.26546985
v 0.37306997 0.92972594 -0.26546976
v 0.06087701 1.1753814 -0.26547062
v 0.37307006 1.1753805 -0.14558801
v 0.060876995 1.1753805 -0.14558806
v 0.37307006 1.1753805 -0.14558801
v 0.37306997 0.92972505 -0.14558725
v 0.060876995 0.92972505 -0.14558728
v 0.060876995 1.1753805 -0.14558806
v 0.05908938 1.2748795 -0.29472128
v 0.08884673 0.6883051 -0.09429555
v 0.05908936 1.2748781 -0.11584749
v 0.08884671 0.688307 -0.31601012
v -0.12183372 1.2748795 -0.29472122
v -0.15159112 0.6883068 -0.31601015
v -0.12183372 1.2748795 -0.29472122
v -0.12183382 1.2748781 -0.11584751
v -0.15159115 0.6883051 -0.094295576
v -0.15159112 0.6883068 -0.31601015
v -0.15159115 0.6883051 -0.094295576
v -0.12183382 1.2748781 -0.11584751
v 0.05908936 1.2748781 -0.11584749
v 0.08884673 0.6883051 -0.09429555
v -0.13294482 1.1753814 -0.2654706
v -0.44513783 0.92972594 -0.26546982
v -0.13294482 0.92972594 -0.26546982
v -0.44513783 1.1753814 -0.2654706
v -0.13294476 1.1753803 -0.14558809
v -0.44513777 1.1753803 -0.14558811
v -0.13294476 1.1753803 -0.14558809
v -0.13294479 0.929725 -0.14558731
v -0.4451378 0.929725 -0.14558734
v -0.44513777 1.1753803 -0.14558811
v -0.44692546 1.2748795 -0.29472134
v -0.41716817 0.68830514 -0.094295606
v -0.44692555 1.2748781 -0.11584755
v -0.41716814 0.6883068 -0.31601018
v -0.6278487 1.2748795 -0.2947213
v -0.6576059 0.688307 -0.3160102
v -0.6278487 1.2748795 -0.2947213
v -0.62784874 1.2748781 -0.11584757
v -0.65760607 0.6883051 -0.094295636
v -0.6576059 0.688307 -0.3160102
v -0.65760607 0.6883051 -0.094295636
v -0.62784874 1.2748781 -0.11584757
v -0.44692555 1.2748781 -0.11584755
v -0.41716817 0.68830514 -0.094295606
v -0.66029817 1.2577794 -0.27828884
v -0.6332099 1.2437707 -0.326213
v -0.5857204 1.35902 -0.29815957
v -0.5845781 1.23536 -0.34740797
v -0.5365833 1.3602337 -0.31694442
v -0.5089011 1.2349848 -0.34740797
v -0.46874654 1.3458238 -0.31694442
v -0.43230793 1.2120843 -0.32665652
v -0.53659916 1.3602319 -0.09263879
v -0.5857339 1.3590146 -0.11142505
v -0.61022013 1.3514727 -0.27263832
v -0.6200823 1.3484343 -0.18099049
v -0.67104757 1.2680947 -0.18098998
v -0.66030496 1.2577785 -0.13129
v -0.61022466 1.3514708 -0.13694184
v -0.6332301 1.2437686 -0.08337063
v -0.5846012 1.2353576 -0.06217415
v -0.5089012 1.2349823 -0.06217418
v -0.4687466 1.3458217 -0.092638746
v -0.43230802 1.2120824 -0.08292494
v -0.40971366 1.3063958 -0.108068995
v -0.40971363 1.306397 -0.30151328
v -0.33920845 1.2836453 -0.12349932
v -0.3557148 1.0940936 -0.10367561
v -0.28752294 1.0636399 -0.109366484
v -0.33920833 1.2836461 -0.28608248
v -0.35571477 1.0940952 -0.30590504
v -0.27450496 1.2829094 -0.1277312
v -0.21933118 1.0709784 -0.10367546
v -0.27450472 1.2829093 -0.28185055
v -0.2875227 1.0636402 -0.30021375
v -0.21933061 1.0709776 -0.3059049
v -0.20980158 1.282173 -0.12349932
v -0.20980111 1.2821723 -0.2860824
v -0.1320197 1.3214073 -0.08507479
v -0.13544323 1.2113665 -0.063615024
v -0.033037722 1.2423127 -0.05406744
v -0.13199838 1.3214124 -0.32450804
v -0.13540922 1.2113727 -0.34596676
v -0.03303772 1.3366984 -0.07551607
v -0.033037756 1.3367009 -0.33406693
v -0.033037756 1.2423152 -0.35551462
v 0.06933371 1.2113725 -0.3459668
v 0.06592286 1.3214124 -0.32450798
v 0.15325502 1.0709774 -0.30590484
v 0.065944254 1.3214073 -0.085074775
v 0.06936778 1.2113665 -0.06361502
v 0.15325582 1.0709784 -0.10367543
v 0.14372571 1.2821723 -0.28608233
v 0.14372608 1.282173 -0.12349931
v 0.20842934 1.2829093 -0.2818505
v 0.22144715 1.0636402 -0.30021366
v 0.2896393 1.0940951 -0.30590495
v 0.20842955 1.2829094 -0.12773119
v 0.22144759 1.06364 -0.109366424
v 0.27313295 1.2836461 -0.28608236
v 0.3662325 1.2120843 -0.3266564
v 0.27313295 1.2836453 -0.12349928
v 0.2896393 1.0940936 -0.10367553
v 0.36623234 1.2120824 -0.08292482
v 0.34363818 1.3063968 -0.30151322
v 0.34363812 1.3063958 -0.10806893
v 0.40267128 1.3458236 -0.3169443
v 0.44282573 1.2349848 -0.34740782
v 0.40267107 1.3458217 -0.09263868
v 0.44282553 1.2349824 -0.062174074
v 0.47052357 1.3602319 -0.09263871
v 0.5185257 1.2353578 -0.06217405
v 0.5196583 1.3590146 -0.11142493
v 0.56715447 1.2437686 -0.083370484
v 0.59422946 1.2577785 -0.1312899
v 0.47050795 1.3602337 -0.31694433
v 0.5185027 1.2353603 -0.34740788
v 0.51964515 1.35902 -0.29815942
v 0.5671345 1.2437706 -0.32621297
v 0.59422266 1.2577792 -0.2782887
v 0.5441448 1.3514727 -0.27263817
v 0.55400705 1.3484343 -0.18099035
v 0.6049721 1.2680947 -0.18098983
v 0.5441493 1.3514708 -0.13694167
vt 0.4103044 0.7643553
vt 0.38704607 0.77580607
vt 0.4103044 0.77580607
vt 0.38704607 0.7643553
vt 0.4103044 0.7527172
vt 0.38704607 0.7527172
vt 0.4103044 0.7643553
vt 0.4103044 0.77580607
vt 0.38704607 0.77580607
vt 0.38704607 0.7643553
vt 0.38704607 0.7527172
vt 0.4103044 0.7527172
vt 0.4103044 0.7643553
vt 0.38704607 0.7643553
vt 0.3641667 0.7643188
vt 0.38267496 0.7529207
vt 0.3641667 0.7529207
vt 0.38267496 0.7643188
vt 0.3641667 0.7747762
vt 0.38267496 0.7747762
vt 0.3641667 0.7643188
vt 0.3641667 0.7529207
vt 0.38267496 0.7529207
vt 0.38267496 0.7643188
vt 0.4103044 0.7643553
vt 0.38704607 0.77580607
vt 0.4103044 0.77580607
vt 0.38704607 0.7643553
vt 0.4103044 0.7527172
vt 0.38704607 0.7527172
vt 0.4103044 0.7643553
vt 0.4103044 0.77580607
vt 0.38704607 0.77580607
vt 0.38704607 0.7643553
vt 0.38704607 0.7527172
vt 0.4103044 0.7527172
vt 0.4103044 0.7643553
vt 0.38704607 0.7643553
vt 0.3641667 0.7643188
vt 0.38267496 0.7529207
vt 0.3641667 0.7529207
vt 0.38267496 0.7643188
vt 0.3641667 0.7747762
vt 0.38267496 0.7747762
vt 0.3641667 0.7643188
vt 0.3641667 0.7529207
vt 0.38267496 0.7529207
vt 0.38267496 0.7643188
vt 0.4103044 0.7643553
vt 0.38704607 0.77580607
vt 0.4103044 0.77580607
vt 0.38704607 0.7643553
vt 0.4103044 0.7527172
vt 0.38704607 0.7527172
vt 0.4103044 0.7643553
vt 0.4103044 0.77580607
vt 0.38704607 0.77580607
vt 0.38704607 0.7643553
vt 0.38704607 0.7527172
vt 0.4103044 0.7527172
vt 0.4103044 0.7643553
vt 0.38704607 0.7643553
vt 0.3148018 0.9355896
vt 0.31474733 0.9355896
vt 0.31465176 0.9569924
vt 0.3146495 0.9355896
vt 0.31455293 0.9569924
vt 0.31449726 0.9355896
vt 0.3144165 0.9569924
vt 0.31434318 0.9355896
vt 0.314553 0.9569924
vt 0.31465182 0.9569924
vt 0.31470108 0.9569924
vt 0.3147209 0.9569924
vt 0.31482342 0.9355896
vt 0.3148018 0.9355896
vt 0.31470108 0.9569924
vt 0.31474736 0.9355896
vt 0.31464952 0.9355896
vt 0.31449726 0.9355896
vt 0.3144165 0.9569924
vt 0.31434318 0.9355896
vt 0.31430212 0.94815344
vt 0.31430212 0.94815344
vt 0.31415594 0.9461855
vt 0.31418914 0.9355896
vt 0.314052 0.9355896
vt 0.31415594 0.9461856
vt 0.31418914 0.9355896
vt 0.3140258 0.9460722
vt 0.3139148 0.9355896
vt 0.3140258 0.94607204
vt 0.314052 0.9355896
vt 0.3139148 0.9355896
vt 0.3138956 0.94595885
vt 0.3138956 0.9459586
vt 0.31373918 0.9569924
vt 0.31374604 0.9355896
vt 0.3135401 0.9355896
vt 0.31373915 0.9569924
vt 0.313746 0.9355896
vt 0.3135401 0.9569924
vt 0.3135401 0.9569924
vt 0.3135401 0.9355896
vt 0.31333414 0.9355896
vt 0.31334102 0.9569924
vt 0.31316537 0.9355896
vt 0.313341 0.9569924
vt 0.31333408 0.9355896
vt 0.31316537 0.9355896
vt 0.31318453 0.9459586
vt 0.31318453 0.94595885
vt 0.31305438 0.94607204
vt 0.3130282 0.9355896
vt 0.31289104 0.9355896
vt 0.31305438 0.9460722
vt 0.3130282 0.9355896
vt 0.31292424 0.9461856
vt 0.31273696 0.9355896
vt 0.31292424 0.9461855
vt 0.31289104 0.9355896
vt 0.31273696 0.9355896
vt 0.31277803 0.94815344
vt 0.31277803 0.94815344
vt 0.31266367 0.9569924
vt 0.31258288 0.9355896
vt 0.31266367 0.9569924
vt 0.31258288 0.9355896
vt 0.31252718 0.9569924
vt 0.31243065 0.9355896
vt 0.31242836 0.9569924
vt 0.3123328 0.9355896
vt 0.31227836 0.9355896
vt 0.3125272 0.9569924
vt 0.31243068 0.9355896
vt 0.31242839 0.9569924
vt 0.31233287 0.9355896
vt 0.3122784 0.9355896
vt 0.3123791 0.9569924
vt 0.31235924 0.9569924
vt 0.31225675 0.9355896
vt 0.3123791 0.9569924
vn -0 1 0
vn -0 1 0
vn -0 1 0
vn -0 1 0
vn -0 1 0
vn -0 1 0
vn -0 1 0
vn -0 1 0
vn -0 1 0
vn -0 1 0
vn -0 1 0
vn -0 1 0
vn -0 1 0
vn -0 1 0
vn -0 1 0
vn -0 1 0
vn -0 1 0
vn -0 1 0
vn -0 1 0
vn -0 1 0
vn -0 1 0
vn -0 1 0
vn -0 1 0
vn -0 1 0
vn -0 1 0
vn -0 1 0
vn -0 1 0
vn -0 1 0
vn -0 1 0
vn -0 1 0
vn -0 1 0
vn -0 1 0
vn -0 1 0
vn -0 1 0
vn -0 1 0
vn -0 1 0
vn -0 1 0
vn -0 1 0
vn -0 1 0
vn -0 1 0
vn -0 1 0
vn -0 1 0
vn -0 1 0
vn -0 1 0
vn -0 1 0
vn -0 1 0
vn -0 1 0
vn -0 1 0
vn -0 1 0
vn -0 1 0
vn -0 1 0
vn -0 1 0
vn -0 1 0
vn -0 1 0
vn -0 1 0
vn -0 1 0
vn -0 1 0
vn -0 1 0
vn -0 1 0
vn -0 1 0
vn -0 1 0
vn -0 1 0
vn -0 1 0
vn -0 1 0
vn -0 1 0
vn -0 1 0
vn -0 1 0
vn -0 1 0
vn -0 1 0
vn -0 1 0
vn -0 1 0
vn -0 1 0
vn -0 1 0
vn -0 1 0
vn -0 1 0
vn -0 1 0
vn -0 1 0
vn -0 1 0
vn -0 1 0
vn -0 1 0
vn -0 1 0
vn -0 1 0
vn -0 1 0
vn -0 1 0
vn -0 1 0
vn -0 1 0
vn -0 1 0
vn -0 1 0
vn -0 1 0
vn -0 1 0
vn -0 1 0
vn -0 1 0
vn -0 1 0
vn -0 1 0
vn -0 1 0
vn -0 1 0
vn -0 1 0
vn -0 1 0
vn -0 1 0
vn -0 1 0
vn -0 1 0
vn -0 1 0
vn -0 1 0
vn -0 1 0
vn -0 1 0
vn -0 1 0
vn -0 1 0
vn -0 1 0
vn -0 1 0
vn -0 1 0
vn -0 1 0
vn -0 1 0
vn -0 1 0
vn -0 1 0
vn -0 1 0
vn -0 1 0
vn -0 1 0
vn -0 1 0
vn -0 1 0
vn -0 1 0
vn -0 1 0
vn -0 1 0
vn -0 1 0
vn -0 1 0
vn -0 1 0
vn -0 1 0
vn -0 1 0
vn -0 1 0
vn -0 1 0
vn -0 1 0
vn -0 1 0
vn -0 1 0
vn -0 1 0
vn -0 1 0
vn -0 1 0
vn -0 1 0
vn -0 1 0
vn -0 1 0
vn -0 1 0
vn -0 1 0
vn -0 1 0
vn -0 1 0
g wall_fence2_0
f 3/3/3 2/2/2 1/1/1
f 2/2/2 4/4/4 1/1/1
f 1/1/1 4/4/4 5/5/5
f 4/4/4 6/6/6 5/5/5
f 9/9/9 8/8/8 7/7/7
f 10/10/10 9/9/9 7/7/7
f 13/13/13 12/12/12 11/11/11
f 14/14/14 13/13/13 11/11/11
f 17/17/17 16/16/16 15/15/15
f 16/16/16 18/18/18 15/15/15
f 15/15/15 18/18/18 19/19/19
f 18/18/18 20/20/20 19/19/19
f 23/23/23 22/22/22 21/21/21
f 24/24/24 23/23/23 21/21/21
f 27/27/27 26/26/26 25/25/25
f 26/26/26 28/28/28 25/25/25
f 25/25/25 28/28/28 29/29/29
f 28/28/28 30/30/30 29/29/29
f 33/33/33 32/32/32 31/31/31
f 34/34/34 33/33/33 31/31/31
f 37/37/37 36/36/36 35/35/35
f 38/38/38 37/37/37 35/35/35
f 41/41/41 40/40/40 39/39/39
f 40/40/40 42/42/42 39/39/39
f 39/39/39 42/42/42 43/43/43
f 42/42/42 44/44/44 43/43/43
f 47/47/47 46/46/46 45/45/45
f 48/48/48 47/47/47 45/45/45
f 51/51/51 50/50/50 49/49/49
f 50/50/50 52/52/52 49/49/49
f 49/49/49 52/52/52 53/53/53
f 52/52/52 54/54/54 53/53/53
f 57/57/57 56/56/56 55/55/55
f 58/58/58 57/57/57 55/55/55
f 61/61/61 60/60/60 59/59/59
f 62/62/62 61/61/61 59/59/59
f 65/65/65 64/64/64 63/63/63
f 64/64/64 65/65/65 66/66/66
f 65/65/65 67/67/67 66/66/66
f 66/66/66 67/67/67 68/68/68
f 67/67/67 69/69/69 68/68/68
f 68/68/68 69/69/69 70/70/70
f 71/71/71 67/67/67 65/65/65
f 69/69/69 67/67/67 71/71/71
f 72/72/72 71/71/71 65/65/65
f 73/73/73 65/65/65 63/63/63
f 72/72/72 65/65/65 73/73/73
f 74/74/74 73/73/73 63/63/63
f 73/73/73 74/74/74 72/72/72
f 75/75/75 74/74/74 63/63/63
f 74/74/74 75/75/75 76/76/76
f 77/77/77 74/74/74 76/76/76
f 74/74/74 77/77/77 72/72/72
f 72/72/72 77/77/77 76/76/76
f 78/78/78 72/72/72 76/76/76
f 72/72/72 78/78/78 79/79/79
f 71/71/71 72/72/72 79/79/79
f 79/79/79 80/80/80 71/71/71
f 80/80/80 81/81/81 71/71/71
f 81/81/81 69/69/69 71/71/71
f 80/80/80 82/82/82 81/81/81
f 69/69/69 81/81/81 83/83/83
f 82/82/82 83/83/83 81/81/81
f 84/84/84 69/69/69 83/83/83
f 69/69/69 84/84/84 70/70/70
f 83/83/83 82/82/82 85/85/85
f 84/84/84 83/83/83 85/85/85
f 82/82/82 86/86/86 85/85/85
f 86/86/86 87/87/87 85/85/85
f 84/84/84 88/88/88 70/70/70
f 88/88/88 84/84/84 85/85/85
f 88/88/88 89/89/89 70/70/70
f 87/87/87 90/90/90 85/85/85
f 88/88/88 85/85/85 90/90/90
f 87/87/87 91/91/91 90/90/90
f 88/88/88 92/92/92 89/89/89
f 92/92/92 88/88/88 90/90/90
f 92/92/92 93/93/93 89/89/89
f 93/93/93 92/92/92 94/94/94
f 91/91/91 95/95/95 90/90/90
f 92/92/92 90/90/90 95/95/95
f 92/92/92 96/96/96 94/94/94
f 96/96/96 92/92/92 95/95/95
f 95/95/95 91/91/91 97/97/97
f 96/96/96 95/95/95 97/97/97
f 91/91/91 98/98/98 97/97/97
f 98/98/98 99/99/99 97/97/97
f 96/96/96 100/100/100 94/94/94
f 100/100/100 96/96/96 97/97/97
f 100/100/100 101/101/101 94/94/94
f 99/99/99 102/102/102 97/97/97
f 100/100/100 97/97/97 102/102/102
f 100/100/100 103/103/103 101/101/101
f 103/103/103 100/100/100 102/102/102
f 103/103/103 104/104/104 101/101/101
f 104/104/104 103/103/103 105/105/105
f 103/103/103 106/106/106 105/105/105
f 106/106/106 103/103/103 102/102/102
f 105/105/105 106/106/106 107/107/107
f 102/102/102 99/99/99 108/108/108
f 108/108/108 106/106/106 102/102/102
f 99/99/99 109/109/109 108/108/108
f 109/109/109 110/110/110 108/108/108
f 106/106/106 111/111/111 107/107/107
f 111/111/111 106/106/106 108/108/108
f 110/110/110 112/112/112 108/108/108
f 112/112/112 111/111/111 108/108/108
f 111/111/111 113/113/113 107/107/107
f 113/113/113 111/111/111 112/112/112
f 113/113/113 114/114/114 107/107/107
f 114/114/114 113/113/113 115/115/115
f 112/112/112 110/110/110 116/116/116
f 116/116/116 113/113/113 112/112/112
f 110/110/110 117/117/117 116/116/116
f 113/113/113 118/118/118 115/115/115
f 118/118/118 113/113/113 116/116/116
f 115/115/115 118/118/118 119/119/119
f 116/116/116 117/117/117 120/120/120
f 120/120/120 118/118/118 116/116/116
f 117/117/117 121/121/121 120/120/120
f 121/121/121 122/122/122 120/120/120
f 118/118/118 123/123/123 119/119/119
f 123/123/123 118/118/118 120/120/120
f 122/122/122 124/124/124 120/120/120
f 124/124/124 123/123/123 120/120/120
f 123/123/123 125/125/125 119/119/119
f 125/125/125 123/123/123 124/124/124
f 125/125/125 126/126/126 119/119/119
f 124/124/124 122/122/122 127/127/127
f 127/127/127 125/125/125 124/124/124
f 122/122/122 128/128/128 127/127/127
f 127/127/127 128/128/128 129/129/129
f 125/125/125 127/127/127 129/129/129
f 128/128/128 130/130/130 129/129/129
f 131/131/131 129/129/129 130/130/130
f 132/132/132 131/131/131 130/130/130
f 131/131/131 132/132/132 133/133/133
f 125/125/125 134/134/134 126/126/126
f 134/134/134 125/125/125 129/129/129
f 134/134/134 135/135/135 126/126/126
f 134/134/134 129/129/129 136/136/136
f 134/134/134 136/136/136 135/135/135
f 129/129/129 131/131/131 136/136/136
f 136/136/136 137/137/137 135/135/135
f 137/137/137 136/136/136 138/138/138
f 136/136/136 139/139/139 138/138/138
f 139/139/139 136/136/136 131/131/131
f 139/139/139 140/140/140 138/138/138
f 131/131/131 140/140/140 139/139/139
f 140/140/140 141/141/141 138/138/138
f 141/141/141 140/140/140 133/133/133
f 142/142/142 131/131/131 133/133/133
f 140/140/140 142/142/142 133/133/133
f 131/131/131 142/142/142 140/140/140
