g wall_desk_endL
v 0.35216695 0.18028301 -0.39961055
v 0.35216665 0.5273937 -0.34115788
v -0.51427513 0.5273939 -0.34115788
v -0.51427525 0.18028304 -0.3996105
v 0.40093616 0.52739364 0.19330429
v 0.40093616 0.5273937 -0.30398005
v 0.40093645 0.18028301 -0.35484087
v 0.40093645 0.180283 0.24399036
v 0.35216695 0.180283 0.28876004
v -0.51427543 0.180283 0.28876007
v -0.51427513 0.5273936 0.23048218
v 0.35216695 0.52739364 0.23048218
v -0.51427543 0.18028301 -0.45218134
v 0.43972477 0.180283 0.34330007
v -0.51427543 0.18028298 0.34330013
v 0.4579969 0.18028301 -0.4521815
v 0.4853099 0.180283 0.31681877
v 0.4853099 0.18028301 -0.42752653
v -0.51427543 0.18028301 -0.45218134
v -0.51427543 -0.0025590835 -0.5034931
v 0.47435698 -0.0025591024 -0.50349337
v 0.4579969 0.18028301 -0.4521815
v 0.5034951 -0.0025591024 -0.4710774
v 0.50349444 -0.0025595634 0.36482313
v 0.4853099 0.180283 0.31681877
v 0.4853099 0.18028301 -0.42752653
v 0.47435698 -0.0025591024 -0.50349337
v 0.5034951 -0.0025591024 -0.4710774
v 0.4853099 0.18028301 -0.42752653
v 0.4579969 0.18028301 -0.4521815
v -0.51427543 0.18028298 0.34330013
v 0.43972477 0.180283 0.34330007
v 0.45790994 -0.0025596018 0.39366987
v -0.51427543 -0.0025596018 0.39366993
v 0.50349444 -0.0025595634 0.36482313
v 0.45790994 -0.0025596018 0.39366987
v 0.43972477 0.180283 0.34330007
v 0.4853099 0.180283 0.31681877
v 0.35216665 0.5273937 -0.34115788
v 0.35216695 0.18028301 -0.39961055
v 0.40093645 0.18028301 -0.35484087
v 0.40093616 0.5273937 -0.30398005
v 0.40093616 0.52739364 0.19330429
v 0.40093645 0.180283 0.24399036
v 0.35216695 0.180283 0.28876004
v 0.35216695 0.52739364 0.23048218
v -0.51427543 0.71200246 -0.31906506
v 0.43818942 0.71200246 -0.31906515
v 0.45453504 0.71200246 -0.30682415
v -0.51427543 0.71200234 0.21318069
v 0.42074794 0.71200234 0.21318066
v 0.45453504 0.71200234 0.19116403
v -0.51427543 0.69193673 -0.3506433
v -0.51427543 0.5280449 -0.39295694
v 0.4851378 0.5280449 -0.39295703
v 0.47055554 0.69201493 -0.35062355
v 0.51427555 0.5280448 -0.3682549
v 0.51427555 0.5280444 0.25218824
v 0.4980661 0.692024 0.21346854
v 0.4980658 0.6920242 -0.32893255
v 0.4851378 0.5280449 -0.39295703
v 0.51427555 0.5280448 -0.3682549
v 0.4980658 0.6920242 -0.32893255
v 0.47055554 0.69201493 -0.35062355
v -0.51427543 0.69192713 0.24487764
v 0.45248067 0.692024 0.24485365
v 0.46869075 0.52804464 0.28692514
v -0.51427543 0.52804464 0.2869251
v 0.51427555 0.5280444 0.25218824
v 0.46869075 0.52804464 0.28692514
v 0.45248067 0.692024 0.24485365
v 0.4980661 0.692024 0.21346854
v -0.51427543 0.71200246 -0.31906506
v -0.51427543 0.69193673 -0.3506433
v 0.47055554 0.69201493 -0.35062355
v 0.43818942 0.71200246 -0.31906515
v 0.43818942 0.71200246 -0.31906515
v 0.47055554 0.69201493 -0.35062355
v 0.4980658 0.6920242 -0.32893255
v 0.45453504 0.71200246 -0.30682415
v 0.45453504 0.71200246 -0.30682415
v 0.4980658 0.6920242 -0.32893255
v 0.4980661 0.692024 0.21346854
v 0.45453504 0.71200234 0.19116403
v 0.45453504 0.71200234 0.19116403
v 0.4980661 0.692024 0.21346854
v 0.45248067 0.692024 0.24485365
v 0.42074794 0.71200234 0.21318066
v 0.42074794 0.71200234 0.21318066
v 0.45248067 0.692024 0.24485365
v -0.51427543 0.69192713 0.24487764
v -0.51427543 0.71200234 0.21318069
vt 0.93777955 0.12153647
vt 0.93777955 0.1550653
vt 0.9967824 0.1550653
vt 0.9967824 0.12153647
vt 0.9967824 0.1550653
vt 0.93777955 0.1550653
vt 0.93777955 0.12153647
vt 0.9967824 0.12153647
vt 0.93777955 0.12153647
vt 0.9967824 0.12153647
vt 0.9967824 0.1550653
vt 0.93777955 0.1550653
vt 0.85570925 0.1866536
vt 0.84797114 0.19025686
vt 0.85451645 0.19025686
vt 0.84903264 0.1866536
vt 0.8476436 0.19025686
vt 0.8488364 0.1866536
vt 0.8211311 0.20497808
vt 0.8211311 0.19568142
vt 0.84585273 0.19568142
vt 0.84585273 0.20497808
vt 0.8211311 0.19568142
vt 0.84585273 0.19568142
vt 0.84585273 0.20497808
vt 0.8211311 0.20497808
vt 0.85072106 0.19568142
vt 0.855472 0.19568142
vt 0.855472 0.20497808
vt 0.85072106 0.20497808
vt 0.84585273 0.20497808
vt 0.8211311 0.20497808
vt 0.8211311 0.19568142
vt 0.84585273 0.19568142
vt 0.85072106 0.19568142
vt 0.855472 0.19568142
vt 0.855472 0.20497808
vt 0.85072106 0.20497808
vt 0.93372095 0.1550653
vt 0.93372095 0.12153648
vt 0.9243753 0.12153647
vt 0.9243753 0.1550653
vt 0.93372095 0.1550653
vt 0.93372095 0.12153648
vt 0.9243753 0.12153647
vt 0.9243753 0.1550653
vt 0.82332444 0.21956313
vt 0.8372471 0.21956313
vt 0.83748084 0.22033444
vt 0.82332444 0.25758958
vt 0.8369977 0.25758952
vt 0.83748084 0.25620228
vt 0.80134386 0.2152291
vt 0.80129164 0.2067477
vt 0.8184747 0.2067477
vt 0.8184747 0.21523154
vt 0.8212616 0.2067477
vt 0.8309285 0.2067477
vt 0.8309146 0.21523182
vt 0.8212616 0.21523182
vt 0.8593869 0.2079009
vt 0.8628731 0.2079009
vt 0.8628731 0.21640316
vt 0.8593869 0.21640316
vt 0.83142036 0.21522877
vt 0.83142036 0.21523182
vt 0.83142036 0.2067477
vt 0.83142036 0.2067477
vt 0.8593869 0.2079009
vt 0.8628731 0.2079009
vt 0.8628731 0.21640316
vt 0.8593869 0.21640316
vt 0.8042708 0.21729977
vt 0.80134386 0.2157696
vt 0.8184747 0.21577205
vt 0.8090562 0.21729977
vt 0.8115031 0.21729977
vt 0.8186106 0.21577205
vt 0.8210682 0.21577233
vt 0.815566 0.21729977
vt 0.81659776 0.21729977
vt 0.8212616 0.21577233
vt 0.8309146 0.21577233
vt 0.82628363 0.21729977
vt 0.82798034 0.21729977
vt 0.8309146 0.21577233
vt 0.83142036 0.21577233
vt 0.8315403 0.21729977
vt 0.8317685 0.21729846
vt 0.83142036 0.21577233
vt 0.83142036 0.21576928
vt 0.8322633 0.21729846
vn -0 0.16605954 -0.9861157
vn -0 0.16605952 -0.9861157
vn -0 0.16605954 -0.9861157
vn -0 0.16605954 -0.9861157
vn 1 8.85343E-07 0
vn 1 8.85343E-07 0
vn 1 8.85343E-07 0
vn 1 8.85343E-07 0
vn -0 0.16557677 0.98619694
vn -0 0.16557677 0.98619694
vn -0 0.16557676 0.98619694
vn -0 0.16557677 0.98619694
vn -0 1 0
vn -0 1 0
vn -0 1 0
vn -0 1 0
vn -0 1 0
vn -0 1 0
vn -2.238577E-07 0.27019638 -0.9628052
vn -2.2385767E-07 0.2701964 -0.9628052
vn -2.2385767E-07 0.2701964 -0.9628052
vn -2.2385767E-07 0.27019638 -0.9628052
vn 0.9950906 0.098968364 4.1698902E-07
vn 0.9950906 0.098968364 4.16989E-07
vn 0.9950906 0.098968364 4.16989E-07
vn 0.9950906 0.098968364 4.16989E-07
vn 0.68979627 0.242161 -0.68230444
vn 0.6897962 0.242161 -0.6823044
vn 0.68979627 0.242161 -0.6823044
vn 0.68979627 0.242161 -0.68230444
vn -0 0.2655883 0.9640866
vn -0 0.2655883 0.9640866
vn -0 0.26558828 0.9640866
vn -0 0.26558828 0.9640866
vn 0.49938756 0.2710362 0.82289207
vn 0.49938756 0.27103624 0.82289207
vn 0.49938756 0.2710362 0.82289207
vn 0.49938756 0.2710362 0.82289207
vn 0.6386355 0.11969427 -0.7601434
vn 0.6386355 0.11969427 -0.7601434
vn 0.6386356 0.11969427 -0.76014334
vn 0.6386355 0.11969427 -0.7601434
vn 0.6386662 0.11931655 0.76017696
vn 0.6386662 0.11931653 0.76017696
vn 0.6386662 0.11931655 0.76017696
vn 0.6386662 0.119316556 0.760177
vn -0 1 1.4115523E-07
vn -0 1 1.4115523E-07
vn -0 1 1.4447127E-07
vn -0 1 1.4329026E-07
vn -0 1 1.4796328E-07
vn -0 1 1.4796325E-07
vn -2.5677622E-07 0.24998206 -0.96825045
vn -2.567762E-07 0.24998203 -0.96825045
vn -2.567762E-07 0.24998203 -0.96825045
vn -2.5677622E-07 0.24998203 -0.96825045
vn 0.9951498 0.09837216 -2.175273E-07
vn 0.9951498 0.09837218 -2.175273E-07
vn 0.9951498 0.098372154 -2.1752729E-07
vn 0.9951498 0.098372154 -2.1752729E-07
vn 0.6143535 0.24447511 -0.75020105
vn 0.6143536 0.24447513 -0.75020105
vn 0.6143535 0.24447511 -0.75020105
vn 0.6143535 0.24447513 -0.75020105
vn -4.3902844E-07 0.24851902 0.9686271
vn -4.3902844E-07 0.24851899 0.9686271
vn -4.3902838E-07 0.24851902 0.968627
vn -4.3902844E-07 0.24851902 0.9686271
vn 0.5685641 0.24932557 0.78394616
vn 0.5685641 0.24932557 0.78394616
vn 0.5685642 0.24932557 0.78394616
vn 0.5685641 0.24932556 0.7839462
vn -2.8651106E-05 0.84440917 -0.5356987
vn -2.865111E-05 0.84440917 -0.53569883
vn -2.8651106E-05 0.84440917 -0.5356988
vn -2.865111E-05 0.84440917 -0.5356988
vn 0.25084084 0.9120366 -0.32445037
vn 0.25084087 0.9120366 -0.32445043
vn 0.25084087 0.9120367 -0.3244504
vn 0.2508408 0.9120367 -0.32445043
vn 0.41711456 0.9088539 0
vn 0.4171145 0.9088539 0
vn 0.41711447 0.9088539 0
vn 0.41711447 0.9088539 0
vn 0.23342419 0.9083734 0.34694505
vn 0.23342417 0.9083734 0.34694505
vn 0.23342422 0.9083734 0.34694508
vn 0.23342422 0.9083734 0.34694508
vn -3.6315723E-05 0.84529716 0.5342966
vn -3.6315716E-05 0.84529716 0.5342966
vn -3.6315716E-05 0.84529716 0.5342966
vn -3.6315723E-05 0.84529716 0.5342966
g wall_desk_endL_0
f 3/3/3 2/2/2 1/1/1
f 4/4/4 3/3/3 1/1/1
f 7/7/7 6/6/6 5/5/5
f 8/8/8 7/7/7 5/5/5
f 11/11/11 10/10/10 9/9/9
f 12/12/12 11/11/11 9/9/9
f 15/15/15 14/14/14 13/13/13
f 14/14/14 16/16/16 13/13/13
f 16/16/16 14/14/14 17/17/17
f 18/18/18 16/16/16 17/17/17
f 21/21/21 20/20/20 19/19/19
f 22/22/22 21/21/21 19/19/19
f 25/25/25 24/24/24 23/23/23
f 26/26/26 25/25/25 23/23/23
f 29/29/29 28/28/28 27/27/27
f 30/30/30 29/29/29 27/27/27
f 33/33/33 32/32/32 31/31/31
f 34/34/34 33/33/33 31/31/31
f 37/37/37 36/36/36 35/35/35
f 38/38/38 37/37/37 35/35/35
f 41/41/41 40/40/40 39/39/39
f 42/42/42 41/41/41 39/39/39
f 45/45/45 44/44/44 43/43/43
f 46/46/46 45/45/45 43/43/43
f 49/49/49 48/48/48 47/47/47
f 50/50/50 49/49/49 47/47/47
f 49/49/49 50/50/50 51/51/51
f 52/52/52 49/49/49 51/51/51
f 55/55/55 54/54/54 53/53/53
f 56/56/56 55/55/55 53/53/53
f 59/59/59 58/58/58 57/57/57
f 60/60/60 59/59/59 57/57/57
f 63/63/63 62/62/62 61/61/61
f 64/64/64 63/63/63 61/61/61
f 67/67/67 66/66/66 65/65/65
f 68/68/68 67/67/67 65/65/65
f 71/71/71 70/70/70 69/69/69
f 72/72/72 71/71/71 69/69/69
f 75/75/75 74/74/74 73/73/73
f 76/76/76 75/75/75 73/73/73
f 79/79/79 78/78/78 77/77/77
f 80/80/80 79/79/79 77/77/77
f 83/83/83 82/82/82 81/81/81
f 84/84/84 83/83/83 81/81/81
f 87/87/87 86/86/86 85/85/85
f 88/88/88 87/87/87 85/85/85
f 91/91/91 90/90/90 89/89/89
f 92/92/92 91/91/91 89/89/89
