g wall_outdoor_1_S3
v 0.2875857 0.38042077 -0.22780658
v -0.20368268 0.39642948 -0.41511053
v 0.2674203 0.39043093 -0.40601158
v 0.4590898 0.20426048 -0.45619637
v 0.26501 0.20276874 -0.5974636
v 0.45227277 0.20158783 -0.58575606
v 0.5032941 0.47493514 -0.22411534
v 0.26603264 -0.0054110344 -0.5188006
v 0.5032941 -0.0054111113 -0.5709519
v 0.29972202 0.479525 -0.15515485
v 0.5032941 0.5196741 -0.17433503
v 0.07458401 -0.005411188 -0.39897865
v 0.3238039 0.51967424 -0.097073406
v 0.08794747 0.47952506 -0.055510595
v -0.13938266 -0.0054111113 -0.4167681
v 0.09858654 0.5196741 0.006411681
v -0.16163075 0.47952506 -0.073971614
v -0.16443451 0.519674 -0.016038498
v -0.31839198 0.4749351 -0.16827622
v -0.30256212 -0.0054111113 -0.51830626
v -0.5037071 -0.0054111113 -0.5709519
v -0.5037071 0.47493514 -0.22411534
v -0.33486462 0.5196742 -0.1131446
v -0.5037071 0.5196741 -0.17433506
v -0.5037071 0.51967305 0.503347
v 0.5032941 0.51967305 0.503347
v 0.5032941 0.5196741 -0.17433503
v 0.09858654 0.5196741 0.006411681
v -0.12374749 0.37838927 -0.16029967
v -0.2717863 0.39218587 -0.28479883
v -0.20368268 0.39642948 -0.41511053
v 0.2875857 0.38042077 -0.22780658
v -0.47970235 0.0029873415 -0.38425094
v -0.33376074 0.35041746 -0.27575192
v -0.14055364 0.326874 -0.11947724
v -0.2665849 0.0029873415 -0.028078215
v 0.47054285 0.0029873992 -0.3656784
v -0.14055364 0.326874 -0.11947724
v 0.3311466 0.32897907 -0.20255433
v -0.31081298 0.0029875913 -0.5910352
v 0.3095571 0.3415 -0.43608898
v -0.23393147 0.3493893 -0.45024052
v 0.4342459 0.0029875336 -0.57536024
v 0.47054285 0.0029873992 -0.3656784
v 0.3095571 0.3415 -0.43608898
v 0.3311466 0.32897907 -0.20255433
v -0.47970235 0.0029873415 -0.38425094
v -0.31081298 0.0029875913 -0.5910352
v -0.23393147 0.3493893 -0.45024052
v -0.33376074 0.35041746 -0.27575192
v 0.2875857 0.38042077 -0.22780658
v 0.3311466 0.32897907 -0.20255433
v -0.14055364 0.326874 -0.11947724
v -0.12374749 0.37838927 -0.16029967
v -0.2717863 0.39218587 -0.28479883
v -0.33376074 0.35041746 -0.27575192
v -0.20368268 0.39642948 -0.41511053
v -0.23393147 0.3493893 -0.45024052
v 0.3095571 0.3415 -0.43608898
v 0.2674203 0.39043093 -0.40601158
v 0.3095571 0.3415 -0.43608898
v 0.3311466 0.32897907 -0.20255433
v 0.2875857 0.38042077 -0.22780658
v -0.33376074 0.35041746 -0.27575192
v -0.23393147 0.3493893 -0.45024052
v -0.20368268 0.39642948 -0.41511053
v -0.2717863 0.39218587 -0.28479883
v 0.35144147 0.20311871 -0.4115965
v 0.22004792 0.20528671 -0.4926272
v 0.26501 0.20276874 -0.5974636
v 0.4590898 0.20426048 -0.45619637
v 0.3505957 -0.005747671 -0.4667444
v 0.16390373 -0.0059191124 -0.5513865
v 0.19838442 0.18998764 -0.49200237
v 0.3490171 0.18768504 -0.40739903
v 0.22004792 0.20528671 -0.4926272
v 0.35144147 0.20311871 -0.4115965
v 0.4590898 0.20426048 -0.45619637
v 0.47556284 0.1886947 -0.44848922
v 0.5109115 -0.0061566886 -0.50456595
v 0.23558079 -0.0066528777 -0.6777293
v 0.46597135 0.18620324 -0.6002095
v 0.25377917 0.18754406 -0.61415684
v 0.50016344 -0.0069081867 -0.6567576
v 0.5109115 -0.0061566886 -0.50456595
v 0.46597135 0.18620324 -0.6002095
v 0.47556284 0.1886947 -0.44848922
v 0.45227277 0.20158783 -0.58575606
v 0.4590898 0.20426048 -0.45619637
v 0.16390373 -0.0059191124 -0.5513865
v 0.23558079 -0.0066528777 -0.6777293
v 0.25377917 0.18754406 -0.61415684
v 0.19838442 0.18998764 -0.49200237
v 0.26501 0.20276874 -0.5974636
v 0.22004792 0.20528671 -0.4926272
v 0.26501 0.20276874 -0.5974636
v 0.25377917 0.18754406 -0.61415684
v 0.46597135 0.18620324 -0.6002095
v 0.45227277 0.20158783 -0.58575606
vt 0.1197773 0.82547253
vt 0.14017501 0.85607386
vt 0.14017501 0.82547253
vt 0.1197773 0.82547253
vt 0.14017501 0.85607386
vt 0.14017501 0.82547253
vt 0.4737548 0.84314364
vt 0.48740974 0.7736263
vt 0.4737548 0.7736263
vt 0.48740974 0.84314364
vt 0.4737548 0.8485053
vt 0.4997502 0.7736263
vt 0.48740974 0.8485053
vt 0.4997502 0.84314364
vt 0.5153756 0.7736263
vt 0.4997502 0.8485053
vt 0.5153756 0.84314364
vt 0.5153756 0.8485053
vt 0.5276015 0.84314364
vt 0.5276015 0.7736263
vt 0.5421506 0.7736263
vt 0.5421506 0.84314364
vt 0.5276015 0.8485053
vt 0.5421506 0.8485053
vt 0.5421506 0.877462
vt 0.4737548 0.877462
vt 0.4737548 0.8485053
vt 0.4997502 0.8485053
vt 0.1197773 0.8406366
vt 0.1197773 0.85607386
vt 0.14017501 0.85607386
vt 0.1197773 0.82547253
vt 0.18211994 0.82547253
vt 0.14316788 0.82547253
vt 0.14316788 0.8409018
vt 0.18211994 0.8409018
vt 0.18211994 0.85605806
vt 0.14316788 0.8409018
vt 0.14316788 0.85605806
vt 0.18211994 0.85607386
vt 0.14313689 0.82547253
vt 0.14313689 0.85607386
vt 0.18211994 0.82547253
vt 0.18211994 0.810736
vt 0.14313689 0.82547253
vt 0.14313689 0.810736
vt 0.18211994 0.810736
vt 0.18211994 0.82547253
vt 0.14313689 0.82547253
vt 0.14313689 0.810736
vt 0.14019969 0.85605806
vt 0.14316788 0.85605806
vt 0.14316788 0.8409018
vt 0.14019969 0.8409018
vt 0.14019969 0.82547253
vt 0.14316788 0.82547253
vt 0.14017501 0.85607386
vt 0.14313689 0.85607386
vt 0.14313689 0.82547253
vt 0.14017501 0.82547253
vt 0.14313689 0.82547253
vt 0.14313689 0.810736
vt 0.14017501 0.810736
vt 0.14313689 0.810736
vt 0.14313689 0.82547253
vt 0.14017501 0.82547253
vt 0.14017501 0.810736
vt 0.1197773 0.8406366
vt 0.1197773 0.85607386
vt 0.14017501 0.85607386
vt 0.1197773 0.82547253
vt 0.18211994 0.8103005
vt 0.18211994 0.81285805
vt 0.14316788 0.81285805
vt 0.14316788 0.8103005
vt 0.14019969 0.81285805
vt 0.14019969 0.8103005
vt 0.14019969 0.8077883
vt 0.14316788 0.8077883
vt 0.18211994 0.8077883
vt 0.18211994 0.85607386
vt 0.14313689 0.82547253
vt 0.14313689 0.85607386
vt 0.18211994 0.82547253
vt 0.18211994 0.810736
vt 0.14313689 0.82547253
vt 0.14313689 0.810736
vt 0.14017501 0.82547253
vt 0.14017501 0.810736
vt 0.18211994 0.810736
vt 0.18211994 0.82547253
vt 0.14313689 0.82547253
vt 0.14313689 0.810736
vt 0.14017501 0.82547253
vt 0.14017501 0.810736
vt 0.14017501 0.85607386
vt 0.14313689 0.85607386
vt 0.14313689 0.82547253
vt 0.14017501 0.82547253
vn -0 1 0
vn -0 1 0
vn -0 1 0
vn 1.4712176E-06 1 -7.4491345E-06
vn 1.9137315E-06 1 -8.647364E-06
vn 1.9137315E-06 1 -8.647364E-06
vn -3.9032595E-05 1 -0.00012943761
vn -5.4247947E-05 1 -0.00014108348
vn -3.8608323E-05 1 -0.00014461507
vn -5.031567E-05 1 -0.00012137666
vn -3.8644317E-05 1 -0.00010580175
vn -3.4519162E-05 1 -0.00014620829
vn -4.051473E-05 1 -9.834699E-05
vn -2.2968741E-05 1 -0.000121478704
vn 4.981552E-05 1 -0.0001438059
vn -1.7157725E-05 1 -9.770301E-05
vn 3.9387956E-05 1 -0.00012269973
vn -0 1 0
vn 5.5966637E-05 1 -0.00012548974
vn 5.813809E-05 1 -0.00014111873
vn 4.079077E-05 1 -0.00014531074
vn 3.9654657E-05 1 -0.00013238488
vn 4.7424637E-05 1 -0.00010595986
vn 3.7490212E-05 1 -0.000113453796
vn -0 1 0
vn -0 1 0
vn -0 1 0
vn -0 1 0
vn -0.000127421 1 0
vn -0 1 0
vn 0.00012745349 1 0.00025490698
vn -0 1 0
vn -0 1 0
vn -0.7443517 0.28619298 0.6033525
vn -0 1 0.00012750222
vn -0 1 0.00012748827
vn -0 1 0.00012748851
vn 0.32727125 -0.09700748 0.9399378
vn -0.00012750224 1 0.00025495572
vn -0 1 0
vn -0 1 -0.00025493946
vn -0 0.9999999 -0.000509953
vn -0 1 0
vn -0 1 0.00012748851
vn 0.0005099438 0.9999999 0
vn 0.9063461 0.40880963 -0.1068245
vn -0 1 0
vn -0 0.9999999 -0.000509953
vn -0.7393274 0.42506722 -0.5222191
vn -0 1 0
vn -0.00025503698 1 0.00025503698
vn -0.00012750224 1 0.00025495572
vn -0 1 0.00012750222
vn -0.00025490698 1 0.00025490698
vn -0 1 0
vn -0 1 0
vn 0.00012745349 1 0.00025490698
vn -0 1 -0.00025493946
vn -0 1 0
vn -0 1 0
vn 0.0005099438 0.9999999 0
vn -0.00012750224 1 0.00025495572
vn -0.00025503698 1 0.00025503698
vn -0 1 0
vn -0 1 -0.00025493946
vn 0.00012745349 1 0.00025490698
vn -0 1 0
vn 1.1172652E-06 1 -6.490591E-06
vn 1.1172651E-06 1 -6.490591E-06
vn 1.4137403E-06 1 -7.2934868E-06
vn 1.4712176E-06 1 -7.4491345E-06
vn -4.0141986E-05 1 0.00017782775
vn -0.00018336464 1 1.3978542E-05
vn -0.00016748052 1 4.7386784E-05
vn -4.0855433E-05 1 0.00017909863
vn -0.00013178022 1 4.3820513E-05
vn -3.0762367E-05 1 0.00015851035
vn 0.000107844004 1 9.628616E-05
vn 0.0001247696 1 0.00012642
vn 0.00015509696 1 0.00010085262
vn 4.5441353E-05 1 -0.0001622753
vn -7.844608E-05 1 -0.00013635668
vn -7.6488286E-05 1 -0.00015217444
vn 0.00014307136 1 -8.979053E-05
vn 0.00015509696 1 0.00010085262
vn 0.00013817355 1 -7.654157E-05
vn 0.0001247696 1 0.00012642
vn 0.00011890163 1 -6.3754174E-05
vn 0.000107844004 1 9.628616E-05
vn -0.00018336464 1 1.3978542E-05
vn -7.6488286E-05 1 -0.00015217444
vn -7.844608E-05 1 -0.00013635668
vn -0.00016748052 1 4.7386784E-05
vn -6.3120184E-05 1 -0.0001146793
vn -0.00013178022 1 4.3820513E-05
vn -6.3120184E-05 1 -0.0001146793
vn -7.844608E-05 1 -0.00013635668
vn 0.00011890163 1 -6.3754174E-05
vn 3.6368412E-05 1 -0.0001367803
g wall_outdoor_1_S3_0
f 3/3/3 2/2/2 1/1/1
f 6/6/6 5/5/5 4/4/4
f 9/9/9 8/8/8 7/7/7
f 8/8/8 10/10/10 7/7/7
f 7/7/7 10/10/10 11/11/11
f 8/8/8 12/12/12 10/10/10
f 10/10/10 13/13/13 11/11/11
f 12/12/12 14/14/14 10/10/10
f 10/10/10 14/14/14 13/13/13
f 14/14/14 12/12/12 15/15/15
f 14/14/14 16/16/16 13/13/13
f 16/16/16 14/14/14 17/17/17
f 17/17/17 14/14/14 15/15/15
f 18/18/18 16/16/16 17/17/17
f 19/19/19 17/17/17 15/15/15
f 20/20/20 19/19/19 15/15/15
f 19/19/19 20/20/20 21/21/21
f 22/22/22 19/19/19 21/21/21
f 19/19/19 23/23/23 17/17/17
f 23/23/23 19/19/19 22/22/22
f 23/23/23 18/18/18 17/17/17
f 24/24/24 23/23/23 22/22/22
f 24/24/24 25/25/25 23/23/23
f 23/23/23 25/25/25 18/18/18
f 18/18/18 25/25/25 26/26/26
f 27/27/27 13/13/13 26/26/26
f 28/28/28 18/18/18 26/26/26
f 13/13/13 28/28/28 26/26/26
f 31/31/31 30/30/30 29/29/29
f 32/32/32 31/31/31 29/29/29
f 35/35/35 34/34/34 33/33/33
f 36/36/36 35/35/35 33/33/33
f 38/38/38 36/36/36 37/37/37
f 39/39/39 38/38/38 37/37/37
f 42/42/42 41/41/41 40/40/40
f 41/41/41 43/43/43 40/40/40
f 43/43/43 45/45/45 44/44/44
f 45/45/45 46/46/46 44/44/44
f 49/49/49 48/48/48 47/47/47
f 50/50/50 49/49/49 47/47/47
f 53/53/53 52/52/52 51/51/51
f 54/54/54 53/53/53 51/51/51
f 53/53/53 54/54/54 55/55/55
f 56/56/56 53/53/53 55/55/55
f 59/59/59 58/58/58 57/57/57
f 60/60/60 59/59/59 57/57/57
f 62/62/62 61/61/61 60/60/60
f 63/63/63 62/62/62 60/60/60
f 66/66/66 65/65/65 64/64/64
f 67/67/67 66/66/66 64/64/64
f 70/70/70 69/69/69 68/68/68
f 71/71/71 70/70/70 68/68/68
f 74/74/74 73/73/73 72/72/72
f 75/75/75 74/74/74 72/72/72
f 74/74/74 75/75/75 76/76/76
f 75/75/75 77/77/77 76/76/76
f 77/77/77 75/75/75 78/78/78
f 75/75/75 79/79/79 78/78/78
f 79/79/79 75/75/75 72/72/72
f 80/80/80 79/79/79 72/72/72
f 83/83/83 82/82/82 81/81/81
f 82/82/82 84/84/84 81/81/81
f 84/84/84 86/86/86 85/85/85
f 86/86/86 87/87/87 85/85/85
f 87/87/87 86/86/86 88/88/88
f 89/89/89 87/87/87 88/88/88
f 92/92/92 91/91/91 90/90/90
f 93/93/93 92/92/92 90/90/90
f 94/94/94 92/92/92 93/93/93
f 95/95/95 94/94/94 93/93/93
f 98/98/98 97/97/97 96/96/96
f 99/99/99 98/98/98 96/96/96
