g wall7_3
v -0.19007964 -0.8905518 0.3004317
v -0.19007972 -0.89055145 -0.038983863
v -0.19007964 0.05244931 0.24609025
v -0.19007964 0.052449156 0.5993648
v 0.17734507 0.05244934 0.24609025
v 0.177345 -0.89055145 -0.038983613
v 0.17734505 -0.89055145 0.30043122
v 0.1773451 0.052449185 0.5993647
v -0.12982671 0.08914322 0.5971291
v -0.12982683 0.0891433 0.2261388
v 0.11709223 0.089143306 0.22613896
v 0.11709235 0.089143194 0.59712905
v -0.12982683 0.0891433 0.2261388
v 0.117092095 -0.89055157 -0.06997977
v 0.11709223 0.089143306 0.22613896
v -0.12982695 -0.89055157 -0.069979794
v 0.11709212 -0.91585124 -0.06320027
v -0.12982693 -0.91585124 -0.06320004
v -0.12982693 -0.91585124 -0.06320004
v -0.12982695 -0.89055157 -0.069979794
v -0.19007972 -0.89055145 -0.038983863
v -0.19007964 0.05244931 0.24609025
v -0.12982683 0.0891433 0.2261388
v 0.11709212 -0.91585124 -0.06320027
v 0.177345 -0.89055145 -0.038983613
v 0.117092095 -0.89055157 -0.06997977
v 0.17734507 0.05244934 0.24609025
v 0.11709223 0.089143306 0.22613896
v -0.19007964 0.052449156 0.5993648
v -0.19007964 0.05244931 0.24609025
v -0.12982683 0.0891433 0.2261388
v -0.12982671 0.08914322 0.5971291
v 0.1773451 0.052449185 0.5993647
v 0.11709235 0.089143194 0.59712905
v 0.11709223 0.089143306 0.22613896
v 0.17734507 0.05244934 0.24609025
v -0.19007964 0.052449156 0.5993648
v -0.12982671 0.08914322 0.5971291
v -0.13169058 0.05244918 0.6442299
v 0.118956015 0.05244918 0.6442298
v 0.11709235 0.089143194 0.59712905
v 0.1773451 0.052449185 0.5993647
v -0.19007964 -0.8905518 0.3004317
v -0.19007964 0.052449156 0.5993648
v -0.13169058 0.05244918 0.6442299
v -0.13169065 -0.8905517 0.3452966
v 0.118956015 0.05244918 0.6442298
v 0.11895595 -0.89055157 0.34529626
v 0.17734505 -0.89055145 0.30043122
v 0.1773451 0.052449185 0.5993647
vt 0.0044565955 0.68540376
vt 0.00755622 0.68540376
vt 0.00755622 0.73283565
vt 0.00755622 0.74892133
vt 0.0071215546 0.73283565
vt 0.0071215546 0.68540376
vt 0.0045115473 0.68540376
vt 0.0071215546 0.74892133
vt 0.012062513 0.74892133
vt 0.012062513 0.73283565
vt 0.030851752 0.73283565
vt 0.030851752 0.74892133
vt 0.0121838115 0.73283565
vt 0.041964754 0.68540376
vt 0.041964754 0.73283565
vt 0.0121838115 0.68540376
vt 0.041964754 0.6785971
vt 0.0121838115 0.67859715
vt 0.010445213 0.67859715
vt 0.010445213 0.68540376
vt 0.00755622 0.68540376
vt 0.00755622 0.73283565
vt 0.010445213 0.73283565
vt 0.010067565 0.6785971
vt 0.0071215546 0.68540376
vt 0.010067565 0.68540376
vt 0.0071215546 0.73283565
vt 0.010067565 0.73283565
vt 0.00755622 0.74892133
vt 0.00755622 0.73283565
vt 0.010445213 0.73283565
vt 0.010445213 0.74892133
vt 0.0071215546 0.74892133
vt 0.010067565 0.74892133
vt 0.010067565 0.73283565
vt 0.0071215546 0.73283565
vt 0.012062513 0.74892133
vt 0.012062513 0.74892133
vt 0.017613448 0.74892133
vt 0.026237939 0.74892133
vt 0.030851752 0.74892133
vt 0.030851752 0.74892133
vt 0.0044565955 0.68540376
vt 0.00755622 0.74892133
vt 0.00755622 0.74892133
vt 0.0044565955 0.68540376
vt 0.00755622 0.74892133
vt 0.0044565955 0.68540376
vt 0.0044565955 0.68540376
vt 0.00755622 0.74892133
vn -1 0 1.109125E-07
vn -1 0 1.109125E-07
vn -1 0 1.109125E-07
vn -1 0 1.1091251E-07
vn 1 0 -1.1091263E-07
vn 1 0 -1.10912644E-07
vn 1 0 -1.10912644E-07
vn 1 0 -1.10912644E-07
vn -0 1 2.571004E-07
vn -0 1 2.5710042E-07
vn -0 1 2.571004E-07
vn -0 1 2.5710042E-07
vn -0.19257678 0.2839211 -0.93930984
vn 0.2264987 0.014937134 -0.973897
vn 0.19257711 0.283921 -0.93930984
vn -0.22649813 0.01493507 -0.9738971
vn 0.20755087 -0.25320175 -0.9448869
vn -0.20754988 -0.25320587 -0.9448861
vn -0.20754988 -0.25320587 -0.9448861
vn -0.22649813 0.01493507 -0.9738971
vn -0.45080623 0.17261107 -0.8757735
vn -0.442041 0.25954518 -0.8586245
vn -0.19257678 0.2839211 -0.93930984
vn 0.20755087 -0.25320175 -0.9448869
vn 0.45080632 0.17261292 -0.8757731
vn 0.2264987 0.014937134 -0.973897
vn 0.44204086 0.2595451 -0.85862464
vn 0.19257711 0.283921 -0.93930984
vn -0.52013683 0.85408294 3.54433E-07
vn -0.5201367 0.85408294 3.54433E-07
vn -0.5201368 0.85408294 3.54433E-07
vn -0.5201368 0.85408294 3.54433E-07
vn 0.520137 0.8540829 2.086942E-07
vn 0.5201371 0.8540829 2.0869417E-07
vn 0.5201371 0.8540829 2.0869417E-07
vn 0.5201371 0.8540829 2.0869415E-07
vn -0.6072171 0.082359806 0.79025596
vn -0.18348205 0.7789785 0.59960544
vn -0.28656167 0.26780665 0.9198707
vn 0.28656235 0.26780632 0.91987056
vn 0.18348311 0.77897805 0.59960586
vn 0.6072176 0.082359225 0.7902555
vn -0.5909044 -0.24378297 0.7690266
vn -0.6072171 0.082359806 0.79025596
vn -0.28656167 0.26780665 0.9198707
vn -0.32810014 -0.2854544 0.900481
vn 0.28656235 0.26780632 0.91987056
vn 0.32810122 -0.28545448 0.90048057
vn 0.59090513 -0.24378312 0.7690259
vn 0.6072176 0.082359225 0.7902555
g wall7_3_0
f 3/3/3 2/2/2 1/1/1
f 4/4/4 3/3/3 1/1/1
f 7/7/7 6/6/6 5/5/5
f 8/8/8 7/7/7 5/5/5
f 11/11/11 10/10/10 9/9/9
f 12/12/12 11/11/11 9/9/9
f 15/15/15 14/14/14 13/13/13
f 14/14/14 16/16/16 13/13/13
f 14/14/14 17/17/17 16/16/16
f 17/17/17 18/18/18 16/16/16
f 21/21/21 20/20/20 19/19/19
f 21/21/21 22/22/22 20/20/20
f 22/22/22 23/23/23 20/20/20
f 26/26/26 25/25/25 24/24/24
f 27/27/27 25/25/25 26/26/26
f 28/28/28 27/27/27 26/26/26
f 31/31/31 30/30/30 29/29/29
f 32/32/32 31/31/31 29/29/29
f 35/35/35 34/34/34 33/33/33
f 36/36/36 35/35/35 33/33/33
f 39/39/39 38/38/38 37/37/37
f 38/38/38 39/39/39 40/40/40
f 41/41/41 38/38/38 40/40/40
f 42/42/42 41/41/41 40/40/40
f 45/45/45 44/44/44 43/43/43
f 46/46/46 45/45/45 43/43/43
f 47/47/47 45/45/45 46/46/46
f 48/48/48 47/47/47 46/46/46
f 47/47/47 48/48/48 49/49/49
f 50/50/50 47/47/47 49/49/49
