g wall_CS
v 0.4817901 -0.003118104 0.50352114
v 0.38840097 0.32878315 0.5035197
v 0.38839948 0.32878327 0.41441524
v 0.38839948 0.32878327 0.41441524
v 0.38840097 0.32878315 0.5035197
v -0.506562 0.32878494 0.5035339
v 0.5034669 0.32878488 -0.50656193
v 0.5034817 0.3287832 0.38840088
v 0.41441375 0.32878327 0.38840058
v 0.5034817 0.3287832 0.38840088
v 0.5034793 -0.0031184363 0.48179027
v 0.41441375 0.32878327 0.38840058
v 0.5034793 -0.0031184363 0.48179027
v 0.50349635 -0.003118271 0.503521
v 0.4817901 -0.003118104 0.50352114
v 0.29073375 0.34257245 -0.5065619
v 0.41441375 0.32878327 0.38840058
v 0.29073265 0.34257072 0.2912334
v 0.5034669 0.32878488 -0.50656193
v 0.41441375 0.32878327 0.38840058
v 0.5034817 0.3287832 0.38840088
v 0.50346464 -0.0031166377 -0.506562
v 0.5034793 -0.0031184363 0.48179027
v -0.0065481104 1.6256775 0.47591943
v -0.0065481956 1.6256771 -0.0065482464
v 0.23613465 0.91871905 0.23613426
v 0.23613453 0.9187192 0.47591946
v -0.0065481104 1.6256775 0.47591943
v -0.059500128 1.6256769 0.503512
v -0.059501436 1.6256769 -0.05950009
v -0.0065481956 1.6256771 -0.0065482464
v -0.0065481104 1.6256775 0.47591943
v 0.23613453 0.9187192 0.47591946
v 0.18484212 0.9187189 0.50351685
v -0.059500128 1.6256769 0.503512
v 0.30425346 0.34257084 0.4759195
v 0.23613453 0.9187192 0.47591946
v 0.23613465 0.91871905 0.23613426
v 0.30425406 0.34257084 0.30425337
v -0.059500128 1.6256769 0.503512
v 0.18484212 0.9187189 0.50351685
v -0.39479694 0.91872084 0.503527
v -0.39479658 1.6256793 0.50351936
v 0.23613453 0.9187192 0.47591946
v 0.30425346 0.34257084 0.4759195
v 0.2661554 0.34257075 0.50351954
v 0.18484212 0.9187189 0.50351685
v 0.18484212 0.9187189 0.50351685
v 0.2661554 0.34257075 0.50351954
v -0.506562 0.34257257 0.50353336
v -0.39479694 0.91872084 0.503527
v -0.50656193 0.91872126 0.503529
v -0.059501436 1.6256769 -0.05950009
v -0.292084 1.625679 -0.39479667
v 0.5034826 1.6256788 -0.39479637
v 0.5034938 1.6256769 -0.059500147
v -0.0065481956 1.6256771 -0.0065482464
v 0.47835818 1.6256769 -0.0065481258
v 0.47835833 0.91871893 0.2361345
v 0.23613465 0.91871905 0.23613426
v 0.50347155 0.9187208 -0.5065619
v 0.5034741 0.9187205 -0.39479682
v 0.5034826 1.6256788 -0.39479637
v 0.5034789 1.6256795 -0.50656176
v -0.0065481956 1.6256771 -0.0065482464
v -0.059501436 1.6256769 -0.05950009
v 0.5034938 1.6256769 -0.059500147
v 0.47835818 1.6256769 -0.0065481258
v 0.30425406 0.34257084 0.30425337
v 0.23613465 0.91871905 0.23613426
v 0.47835833 0.91871893 0.2361345
v 0.47835848 0.34257084 0.3042534
v 0.5034864 0.91871876 0.18484208
v 0.47835833 0.91871893 0.2361345
v 0.47835818 1.6256769 -0.0065481258
v 0.5034938 1.6256769 -0.059500147
v 0.5034864 0.91871876 0.18484208
v 0.5034672 0.34257236 -0.506562
v 0.50348204 0.3425707 0.26615536
v 0.5034741 0.9187205 -0.39479682
v 0.50347155 0.9187208 -0.5065619
v 0.50348204 0.3425707 0.26615536
v 0.47835848 0.34257084 0.3042534
v 0.47835833 0.91871893 0.2361345
v 0.5034864 0.91871876 0.18484208
v -0.3947979 1.625679 -0.29208276
v -0.292084 1.625679 -0.39479667
v -0.059501436 1.6256769 -0.05950009
v -0.39479658 1.6256793 0.50351936
v -0.059500128 1.6256769 0.503512
v 0.38840097 0.32878315 0.5035197
v 0.4817901 -0.003118104 0.50352114
v -0.5065619 -0.0031166372 0.503536
v -0.506562 0.32878494 0.5035339
v 0.38839948 0.32878327 0.41441524
v -0.506562 0.34257254 0.29123363
v 0.41441375 0.32878327 0.38840058
v 0.29073265 0.34257072 0.2912334
v 0.38839948 0.32878327 0.41441524
v 0.38839948 0.32878327 0.41441524
v 0.41441375 0.32878327 0.38840058
v 0.5034793 -0.0031184363 0.48179027
v 0.4817901 -0.003118104 0.50352114
v 0.50350153 -0.7005551 -0.59107035
v 0.50350153 1.0406915 -0.59107006
v -0.46009275 1.0406915 -0.59107006
v -0.46010366 -0.70055467 -0.59107035
v 0.50350153 1.0644227 -0.5065094
v -0.46009275 1.0406915 -0.59107006
v 0.50350153 1.0406915 -0.59107006
v -0.37375352 1.0644231 -0.5065094
v -0.5044702 1.064423 -0.37545702
v -0.5911123 1.0406915 -0.4601345
v -0.59112304 -0.70055467 -0.46013477
v -0.5911123 1.0406915 -0.4601345
v -0.59111696 1.0406917 0.5054344
v -0.5911265 -0.70055455 0.5054343
v -0.5044702 1.064423 -0.37545702
v -0.5044702 1.0644232 0.5054344
v -0.59111696 1.0406917 0.5054344
v -0.5911123 1.0406915 -0.4601345
v -0.5911123 1.0406915 -0.4601345
v -0.59112304 -0.70055467 -0.46013477
v -0.46010366 -0.70055467 -0.59107035
v -0.46009275 1.0406915 -0.59107006
v -0.50656205 1.6256801 0.5035218
v -0.50656205 0.91872126 0.5035218
v -0.50656337 0.91872084 -0.36961025
v -0.50656337 1.6256797 -0.3696103
v -0.36961153 1.6256797 -0.5065622
v -0.36961153 0.91872084 -0.5065622
v 0.5034789 0.91872054 -0.5065617
v 0.5034789 1.6256795 -0.50656176
v -0.50656337 1.6256797 -0.3696103
v -0.50656337 0.91872084 -0.36961025
v -0.36961153 0.91872084 -0.5065622
v -0.36961153 1.6256797 -0.5065622
v 0.5034789 1.6256795 -0.50656176
v 0.5034826 1.6256788 -0.39479637
v -0.292084 1.625679 -0.39479667
v -0.36961153 1.6256797 -0.5065622
v -0.3947979 1.625679 -0.29208276
v -0.50656337 1.6256797 -0.3696103
v -0.3947979 1.625679 -0.29208276
v -0.39479658 1.6256793 0.50351936
v -0.50656205 1.6256801 0.5035218
v -0.50656337 1.6256797 -0.3696103
v 0.5034938 1.6256769 -0.059500147
v 0.5034826 1.6256788 -0.39479637
v 0.5034741 0.9187205 -0.39479682
v 0.5034864 0.91871876 0.18484208
v -0.50656205 1.6256801 0.5035218
v -0.39479658 1.6256793 0.50351936
v -0.39479694 0.91872084 0.503527
v -0.50656193 0.91872126 0.503529
v 0.5034871 -0.9574161 -0.59081024
v 0.5034871 -0.9380364 -0.67107034
v -0.49962232 -0.9380364 -0.67106956
v -0.46172738 -0.9574161 -0.59080946
v 0.5034871 -0.9380364 -0.67107034
v 0.5034871 -0.7199334 -0.67107034
v -0.49962232 -0.7199334 -0.67106956
v -0.49962232 -0.9380364 -0.67106956
v 0.5034871 -0.7199334 -0.67107034
v 0.5034871 -0.70055306 -0.59080225
v -0.46172738 -0.70055306 -0.5908016
v -0.49962232 -0.7199334 -0.67106956
v -0.591138 -0.9574161 -0.46765465
v -0.67139804 -0.9380361 -0.4924021
v -0.67139715 -0.9380354 0.50544196
v -0.59113705 -0.9574151 0.50544214
v -0.67139804 -0.9380361 -0.4924021
v -0.67139804 -0.7199334 -0.49240172
v -0.67139715 -0.719933 0.505442
v -0.67139715 -0.9380354 0.50544196
v -0.67139804 -0.7199334 -0.49240172
v -0.59113 -0.70055366 -0.46765482
v -0.59112906 -0.7005527 0.5054417
v -0.67139715 -0.719933 0.505442
v -0.591138 -0.9574161 -0.46765465
v -0.46172738 -0.9574161 -0.59080946
v -0.49962232 -0.9380364 -0.67106956
v -0.67139804 -0.9380361 -0.4924021
v -0.59113 -0.70055366 -0.46765482
v -0.67139804 -0.7199334 -0.49240172
v -0.49962232 -0.7199334 -0.67106956
v -0.46172738 -0.70055306 -0.5908016
v -0.67139804 -0.9380361 -0.4924021
v -0.49962232 -0.9380364 -0.67106956
v -0.49962232 -0.7199334 -0.67106956
v -0.67139804 -0.7199334 -0.49240172
v 0.50350153 -2.6986613 -0.5910718
v 0.50350153 -0.95741737 -0.59107137
v -0.46012813 -0.9574167 -0.59107137
v -0.4601392 -2.6986601 -0.5910718
v -0.5911583 -2.6986601 -0.46014366
v -0.59114754 -0.9574167 -0.46014315
v -0.5911509 -0.95741665 0.5054332
v -0.5911604 -2.6986601 0.50543284
v -0.59114754 -0.9574167 -0.46014315
v -0.5911583 -2.6986601 -0.46014366
v -0.4601392 -2.6986601 -0.5910718
v -0.46012813 -0.9574167 -0.59107137
vt 0.050152395 0.8749126
vt 0.050152395 0.88767815
vt 0.055288915 0.88767815
vt 0.055288915 0.88767815
vt 0.050152395 0.88767815
vt 0.045138944 0.88767815
vt 0.092741 0.88767815
vt 0.08560049 0.88767815
vt 0.08560793 0.88767815
vt 0.08560049 0.88767815
vt 0.08560049 0.8749126
vt 0.08499992 0.88767815
vt 0.056788567 0.8749126
vt 0.05347048 0.8749126
vt 0.050152395 0.8749126
vt 0.092741 0.89097625
vt 0.08560793 0.88767815
vt 0.08560049 0.89097625
vt 0.092741 0.88767815
vt 0.08560793 0.88767815
vt 0.08560049 0.88767815
vt 0.092741 0.8749126
vt 0.08560049 0.8749126
vt 0.037281364 0.98006874
vt 0.009808958 0.98006874
vt 0.018553898 0.9292032
vt 0.037281364 0.9292032
vt 0.05265248 0.9811508
vt 0.05265248 0.98383504
vt 0.025180073 0.98383504
vt 0.025180073 0.9811508
vt 0.15983889 0.98006874
vt 0.15983889 0.9292032
vt 0.15312047 0.9292032
vt 0.15312047 0.98006874
vt 0.037281364 0.8941901
vt 0.037281364 0.9272341
vt 0.018553898 0.9272341
vt 0.020322323 0.8941901
vt 0.18058395 0.98006874
vt 0.18058395 0.9292032
vt 0.19459507 0.9292032
vt 0.19459507 0.98006874
vt 0.15983889 0.9272341
vt 0.15983889 0.8941901
vt 0.15312047 0.8941901
vt 0.15312047 0.9272341
vt 0.18058395 0.9272341
vt 0.18058395 0.8941901
vt 0.2012195 0.8941901
vt 0.19459507 0.9272341
vt 0.2012195 0.9272341
vt 0.037281364 0.9851771
vt 0.03510541 0.998759
vt 0.009808958 0.998759
vt 0.009808958 0.9851771
vt 0.009808958 0.98006874
vt 0.037281364 0.98006874
vt 0.037281364 0.9292032
vt 0.018553898 0.9292032
vt 0.5432818 0.39628547
vt 0.5375326 0.39628547
vt 0.5375326 0.4612017
vt 0.5432818 0.4612017
vt 0.025180073 0.9811508
vt 0.025180073 0.98383504
vt 0.05265248 0.98383504
vt 0.05265248 0.9811508
vt 0.020322323 0.8941901
vt 0.018553898 0.9272341
vt 0.037281364 0.9272341
vt 0.037281364 0.8941901
vt 0.15312047 0.9292032
vt 0.15983889 0.9292032
vt 0.15983889 0.98006874
vt 0.15312047 0.98006874
vt 0.18058395 0.9272341
vt 0.2012195 0.8941901
vt 0.18058395 0.8941901
vt 0.19459507 0.9272341
vt 0.2012195 0.9272341
vt 0.15312047 0.8941901
vt 0.15983889 0.8941901
vt 0.15983889 0.9272341
vt 0.15312047 0.9272341
vt 0.03510541 0.998759
vt 0.037281364 0.998759
vt 0.037281364 0.9851771
vt 0.009808958 0.998759
vt 0.009808958 0.9851771
vt 0.050152395 0.88767815
vt 0.050152395 0.8749126
vt 0.045138944 0.8749126
vt 0.045138944 0.88767815
vt 0.055288915 0.88767815
vt 0.045138944 0.89097625
vt 0.056757037 0.88767815
vt 0.05347048 0.89097625
vt 0.055288915 0.88767815
vt 0.055288915 0.88767815
vt 0.05681757 0.88767815
vt 0.056788567 0.8749126
vt 0.050152395 0.8749126
vt 0.6662472 0.16776907
vt 0.6662472 0.28736427
vt 0.5989066 0.28736427
vt 0.59890676 0.16776907
vt 0.6662472 0.29282907
vt 0.60830635 0.28736427
vt 0.6662472 0.28736427
vt 0.60830635 0.29282907
vt 0.5989062 0.29282907
vt 0.5989062 0.28736427
vt 0.59890616 0.16776907
vt 0.5989062 0.28736427
vt 0.6662472 0.28736427
vt 0.66624707 0.16776907
vt 0.60830635 0.29282907
vt 0.6662472 0.29282907
vt 0.6662472 0.28736427
vt 0.60830635 0.28736427
vt 0.60830635 0.28736427
vt 0.60830635 0.16776907
vt 0.59890676 0.16776907
vt 0.5989066 0.28736427
vt 0.5844349 0.4612017
vt 0.5844349 0.39628547
vt 0.60812455 0.39628547
vt 0.60812455 0.4612017
vt 0.60812455 0.4612017
vt 0.60812455 0.39628547
vt 0.5844366 0.39628547
vt 0.5844366 0.4612017
vt 0.6130306 0.4612017
vt 0.6130306 0.39628547
vt 0.60812455 0.39628547
vt 0.60812455 0.4612017
vt 0.5844366 0.46646363
vt 0.5844366 0.47867134
vt 0.60812455 0.47867134
vt 0.60812455 0.46646363
vt 0.6130306 0.47867134
vt 0.6130306 0.46646363
vt 0.60812455 0.47867134
vt 0.5844349 0.47867134
vt 0.5844349 0.46646363
vt 0.60812455 0.46646363
vt 0.18058395 0.98006874
vt 0.19459507 0.98006874
vt 0.19459507 0.9292032
vt 0.18058395 0.9292032
vt 0.5844349 0.4612017
vt 0.57755727 0.4612017
vt 0.57755727 0.39628547
vt 0.5844349 0.39628547
vt 0.84168917 0.2582926
vt 0.84168917 0.26559722
vt 0.9312698 0.26559722
vt 0.9312698 0.2582926
vt 0.84168917 0.26858586
vt 0.84168917 0.29438493
vt 0.9312698 0.29438493
vt 0.9312698 0.26858586
vt 0.84168917 0.29681998
vt 0.84168917 0.31022346
vt 0.9312698 0.31022346
vt 0.9312698 0.29681998
vt 0.9312698 0.2582926
vt 0.9312698 0.26559722
vt 0.84168917 0.26559722
vt 0.84168917 0.2582926
vt 0.9312698 0.26858586
vt 0.9312698 0.29438493
vt 0.84168917 0.29438493
vt 0.84168917 0.26858586
vt 0.9312698 0.29681998
vt 0.9312698 0.31022346
vt 0.84168917 0.31022346
vt 0.84168917 0.29681998
vt 0.9531314 0.2582926
vt 0.9338315 0.2582926
vt 0.9338315 0.26559722
vt 0.9531314 0.26559722
vt 0.9531314 0.31022346
vt 0.9531314 0.29681998
vt 0.9338315 0.29681998
vt 0.9338315 0.31022346
vt 0.9531314 0.26858586
vt 0.9338315 0.26858586
vt 0.9338315 0.29438493
vt 0.9531314 0.29438493
vt 0.66597015 0.01785913
vt 0.66597015 0.13781667
vt 0.59842575 0.13781667
vt 0.59842575 0.01785913
vt 0.5984251 0.01785913
vt 0.5984253 0.13781667
vt 0.66597015 0.13781667
vt 0.66597015 0.01785913
vt 0.6078539 0.13781667
vt 0.6078539 0.01785913
vt 0.59842575 0.01785913
vt 0.59842575 0.13781667
vn 0.72463095 0.36138982 0.5867772
vn 0.96261925 0.2708582 -1.5915206E-05
vn 0.85696226 0.34411103 0.38367105
vn 0.025041323 0.99759537 0.064624526
vn 0.0028980088 0.63343096 0.7737938
vn 0.0031584138 0.6907543 0.72308266
vn 0.72306114 0.690777 0.003130611
vn 0.77378744 0.6334389 0.0028690253
vn 0.064557925 0.99760157 0.024967363
vn -3.0876972E-06 0.2708586 0.9626192
vn -3.0876975E-06 0.27085862 0.9626192
vn -3.0876972E-06 0.2708586 0.9626192
vn 7.687185E-06 1 -7.615536E-06
vn 7.687184E-06 1 -7.615536E-06
vn 7.687184E-06 1 -7.6155366E-06
vn 0.05137539 0.9986708 0.0041442155
vn 0.064557925 0.99760157 0.024967363
vn 0.0558439 0.99685884 0.05616009
vn 0.72306114 0.690777 0.003130611
vn 0.064557925 0.99760157 0.024967363
vn 0.77378744 0.6334389 0.0028690253
vn 1 -9.203219E-06 -1.5644524E-05
vn 1 -9.203219E-06 -1.5644524E-05
vn 0.9458239 0.32467997 -1.3757753E-07
vn 0.6361103 0.4367243 0.63610965
vn 0.66884595 0.3244829 0.6688468
vn 0.97497684 0.22230655 8.027316E-07
vn -8.634909E-06 1 -2.9393206E-07
vn 5.6566535E-07 1 -2.5395778E-07
vn 1.6214203E-06 1 1.8584914E-06
vn -4.1707963E-06 1 -1.6363903E-06
vn 0.4619372 0.15911771 0.87252253
vn 0.4979816 0.1076482 0.8604803
vn 0.48992297 0.119451016 0.8635433
vn 0.4619372 0.15911773 0.87252253
vn 0.993083 0.117414296 1.733946E-06
vn 0.97497684 0.22230655 8.027316E-07
vn 0.66884595 0.3244829 0.6688468
vn 0.6974239 0.16491564 0.69742584
vn 1.901948E-05 1.2062225E-05 1
vn 1.8268367E-05 9.356709E-06 1
vn 1.8827292E-05 9.373298E-06 1
vn 1.9563071E-05 1.1288211E-05 1
vn 0.4979816 0.1076482 0.8604803
vn 0.52417827 0.067978516 0.848891
vn 0.52417827 0.067978516 0.848891
vn 0.48992297 0.119451016 0.8635433
vn 1.8268367E-05 9.356709E-06 1
vn 1.7724888E-05 7.399095E-06 1
vn 1.7826756E-05 7.4155673E-06 1
vn 1.8827292E-05 9.373298E-06 1
vn 1.9333333E-05 9.024172E-06 1
vn 1.6214203E-06 1 1.8584914E-06
vn 2.0824864E-06 1 5.023495E-06
vn 1.9467272E-07 1 6.119112E-06
vn 1.8838819E-07 1 2.3336986E-06
vn 0.6361103 0.4367243 0.63610965
vn -2.391459E-07 0.3246798 0.945824
vn -4.1983577E-07 0.22230619 0.97497696
vn 0.66884595 0.3244829 0.6688468
vn 1 -9.330438E-06 -2.5605903E-05
vn 1 -1.09413395E-05 -2.4149584E-05
vn 1 -1.3440799E-05 -2.6939428E-05
vn 1 -1.119341E-05 -2.8183662E-05
vn -4.1707963E-06 1 -1.6363903E-06
vn 1.6214203E-06 1 1.8584914E-06
vn 1.8838819E-07 1 2.3336986E-06
vn 2.9326435E-07 1 -2.9788332E-06
vn 0.6974239 0.16491564 0.69742584
vn 0.66884595 0.3244829 0.6688468
vn -4.1983577E-07 0.22230619 0.97497696
vn -5.9576854E-07 0.1174139 0.993083
vn 0.882941 0.111239515 0.4561152
vn 0.8801774 0.10007107 0.46397573
vn 0.89084554 0.14795096 0.42954007
vn 0.89084566 0.14795095 0.42954007
vn 1 -1.1926349E-05 -2.2422279E-05
vn 1 -8.992533E-06 -2.0416892E-05
vn 1 -9.2044065E-06 -2.0054124E-05
vn 1 -1.09413395E-05 -2.4149584E-05
vn 1 -9.330438E-06 -2.5605903E-05
vn 0.869948 0.063417695 0.48904866
vn 0.869948 0.06341769 0.48904866
vn 0.8801774 0.10007107 0.46397573
vn 0.882941 0.111239515 0.4561152
vn 5.4627276E-06 1 1.8070492E-06
vn 2.0824864E-06 1 5.023495E-06
vn 1.6214203E-06 1 1.8584914E-06
vn 6.9771368E-06 1 -2.9726942E-07
vn 5.6566535E-07 1 -2.5395778E-07
vn 0.0028980088 0.63343096 0.7737938
vn 1.5399759E-05 7.5484363E-06 1
vn 1.5399759E-05 7.5484363E-06 1
vn 0.0031584138 0.6907543 0.72308266
vn 0.025041323 0.99759537 0.064624526
vn 0.0041543464 0.9986671 0.051446628
vn 0.064557925 0.99760157 0.024967363
vn 0.0558439 0.99685884 0.05616009
vn 0.025041323 0.99759537 0.064624526
vn 0.85696226 0.34411103 0.38367105
vn 0.65934724 0.36234164 0.65876377
vn 0.65934724 0.36234164 0.65876377
vn 0.72463095 0.36138982 0.5867772
vn -0 1.5442849E-07 -1
vn -0 1.5442845E-07 -1
vn -0 1.5442848E-07 -1
vn -0 1.5442848E-07 -1
vn 2.009783E-07 0.9628031 -0.27020407
vn -0.09102469 0.97914565 -0.18162683
vn 2.0097828E-07 0.962803 -0.27020407
vn -0.054639634 0.97451484 -0.2175672
vn -0.2132871 0.97542506 -0.055268206
vn -0.18081915 0.97941774 -0.08969554
vn -1 5.8241612E-06 -4.217084E-06
vn -1 5.8241617E-06 -4.217084E-06
vn -1 5.8241612E-06 -4.217084E-06
vn -1 5.8241612E-06 -4.217084E-06
vn -0.2132871 0.97542506 -0.055268206
vn -0.2641659 0.9644773 -9.112316E-07
vn -0.2641659 0.9644773 -9.1123167E-07
vn -0.18081915 0.97941774 -0.08969554
vn -0.7068804 4.5071693E-06 -0.7073332
vn -0.7068804 4.5071697E-06 -0.7073332
vn -0.70688033 4.507169E-06 -0.7073332
vn -0.70688033 4.507169E-06 -0.7073332
vn -1 0 1.4958518E-06
vn -1 0 1.4958518E-06
vn -1 0 1.4958517E-06
vn -1 0 1.4958518E-06
vn 5.05974E-07 0 -1
vn 5.0597396E-07 0 -1
vn 5.05974E-07 0 -1
vn 5.0597396E-07 0 -1
vn -0.70710695 0 -0.7071066
vn -0.70710695 0 -0.7071066
vn -0.70710695 0 -0.7071066
vn -0.70710695 0 -0.7071066
vn 2.7624824E-07 1 6.090818E-06
vn 1.9467272E-07 1 6.119112E-06
vn 2.0824864E-06 1 5.023495E-06
vn 2.510618E-06 1 4.890387E-06
vn 5.4627276E-06 1 1.8070492E-06
vn 5.263224E-06 1 2.2468093E-06
vn 5.4627276E-06 1 1.8070492E-06
vn 6.9771368E-06 1 -2.9726942E-07
vn 7.001782E-06 1 -3.6832847E-07
vn 5.263224E-06 1 2.2468093E-06
vn 1 -1.5688202E-05 -2.5695184E-05
vn 1 -1.3440799E-05 -2.6939428E-05
vn 1 -1.09413395E-05 -2.4149584E-05
vn 1 -1.1926349E-05 -2.2422279E-05
vn 2.0106656E-05 1.0514204E-05 1
vn 1.9563071E-05 1.1288211E-05 1
vn 1.8827292E-05 9.373298E-06 1
vn 1.9333333E-05 9.024172E-06 1
vn -1.832771E-07 -0.972064 -0.23471579
vn -1.8327711E-07 -0.972064 -0.23471582
vn -1.8327711E-07 -0.972064 -0.23471582
vn -1.832771E-07 -0.972064 -0.23471579
vn -7.6589856E-07 0 -1
vn -7.6589856E-07 0 -1
vn -7.6589856E-07 0 -1
vn -7.6589856E-07 0 -1
vn -1.7403723E-07 0.9720676 -0.23470098
vn -1.7403724E-07 0.9720676 -0.234701
vn -1.7403724E-07 0.9720676 -0.234701
vn -1.7403723E-07 0.9720676 -0.23470098
vn -0.23471786 -0.97206354 1.0530388E-06
vn -0.2347179 -0.97206354 1.0530388E-06
vn -0.23471789 -0.97206354 1.0530387E-06
vn -0.23471786 -0.97206354 1.0530388E-06
vn -1 0 9.239279E-07
vn -1 0 9.239281E-07
vn -1 0 9.239281E-07
vn -1 0 9.2392804E-07
vn -0.23469731 0.9720685 -4.625922E-07
vn -0.23469733 0.9720685 -4.625922E-07
vn -0.23469731 0.9720685 -4.625922E-07
vn -0.23469733 0.9720685 -4.6259217E-07
vn -0.16883866 -0.97113717 -0.16848196
vn -0.16883865 -0.97113717 -0.16848196
vn -0.16883865 -0.97113717 -0.16848195
vn -0.16883865 -0.97113717 -0.16848195
vn -0.16882952 0.9711405 -0.16847165
vn -0.16882952 0.9711405 -0.16847165
vn -0.16882955 0.9711405 -0.16847166
vn -0.16882955 0.9711405 -0.16847168
vn -0.7208735 6.154167E-07 -0.69306666
vn -0.7208735 6.1541675E-07 -0.69306666
vn -0.7208735 6.1541675E-07 -0.69306666
vn -0.7208735 6.1541675E-07 -0.69306666
vn -0 2.2061242E-07 -1
vn -0 2.2061242E-07 -1
vn -0 2.2061242E-07 -1
vn -0 2.2061242E-07 -1
vn -1 5.82417E-06 -2.8644122E-06
vn -1 5.8241703E-06 -2.8644117E-06
vn -1 5.82417E-06 -2.8644122E-06
vn -1 5.82417E-06 -2.864412E-06
vn -0.70686096 4.608056E-06 -0.7073525
vn -0.70686096 4.6080563E-06 -0.7073526
vn -0.70686096 4.6080563E-06 -0.7073526
vn -0.70686096 4.6080563E-06 -0.7073526
g wall_CS_0
f 3/3/3 2/2/2 1/1/1
f 6/6/6 5/5/5 4/4/4
f 9/9/9 8/8/8 7/7/7
f 12/12/12 11/11/11 10/10/10
f 15/15/15 14/14/14 13/13/13
f 18/18/18 17/17/17 16/16/16
f 16/16/16 20/20/20 19/19/19
f 22/22/22 19/19/19 21/21/21
f 23/23/23 22/22/22 21/21/21
f 26/26/26 25/25/25 24/24/24
f 27/27/27 26/26/26 24/24/24
f 30/30/30 29/29/29 28/28/28
f 31/31/31 30/30/30 28/28/28
f 34/34/34 33/33/33 32/32/32
f 35/35/35 34/34/34 32/32/32
f 38/38/38 37/37/37 36/36/36
f 39/39/39 38/38/38 36/36/36
f 42/42/42 41/41/41 40/40/40
f 43/43/43 42/42/42 40/40/40
f 46/46/46 45/45/45 44/44/44
f 47/47/47 46/46/46 44/44/44
f 50/50/50 49/49/49 48/48/48
f 51/51/51 50/50/50 48/48/48
f 52/52/52 50/50/50 51/51/51
f 55/55/55 54/54/54 53/53/53
f 56/56/56 55/55/55 53/53/53
f 59/59/59 58/58/58 57/57/57
f 60/60/60 59/59/59 57/57/57
f 63/63/63 62/62/62 61/61/61
f 64/64/64 63/63/63 61/61/61
f 67/67/67 66/66/66 65/65/65
f 68/68/68 67/67/67 65/65/65
f 71/71/71 70/70/70 69/69/69
f 72/72/72 71/71/71 69/69/69
f 75/75/75 74/74/74 73/73/73
f 76/76/76 75/75/75 73/73/73
f 79/79/79 78/78/78 77/77/77
f 78/78/78 80/80/80 77/77/77
f 81/81/81 80/80/80 78/78/78
f 84/84/84 83/83/83 82/82/82
f 85/85/85 84/84/84 82/82/82
f 88/88/88 87/87/87 86/86/86
f 88/88/88 86/86/86 89/89/89
f 90/90/90 88/88/88 89/89/89
f 93/93/93 92/92/92 91/91/91
f 94/94/94 93/93/93 91/91/91
f 96/96/96 94/94/94 95/95/95
f 98/98/98 95/95/95 97/97/97
f 98/98/98 96/96/96 99/99/99
f 102/102/102 101/101/101 100/100/100
f 103/103/103 102/102/102 100/100/100
f 106/106/106 105/105/105 104/104/104
f 107/107/107 106/106/106 104/104/104
f 110/110/110 109/109/109 108/108/108
f 109/109/109 111/111/111 108/108/108
f 111/111/111 109/109/109 112/112/112
f 109/109/109 113/113/113 112/112/112
f 116/116/116 115/115/115 114/114/114
f 117/117/117 116/116/116 114/114/114
f 120/120/120 119/119/119 118/118/118
f 121/121/121 120/120/120 118/118/118
f 124/124/124 123/123/123 122/122/122
f 125/125/125 124/124/124 122/122/122
f 128/128/128 127/127/127 126/126/126
f 129/129/129 128/128/128 126/126/126
f 132/132/132 131/131/131 130/130/130
f 133/133/133 132/132/132 130/130/130
f 136/136/136 135/135/135 134/134/134
f 137/137/137 136/136/136 134/134/134
f 140/140/140 139/139/139 138/138/138
f 141/141/141 140/140/140 138/138/138
f 142/142/142 140/140/140 141/141/141
f 143/143/143 142/142/142 141/141/141
f 146/146/146 145/145/145 144/144/144
f 147/147/147 146/146/146 144/144/144
f 150/150/150 149/149/149 148/148/148
f 151/151/151 150/150/150 148/148/148
f 154/154/154 153/153/153 152/152/152
f 155/155/155 154/154/154 152/152/152
f 158/158/158 157/157/157 156/156/156
f 159/159/159 158/158/158 156/156/156
f 162/162/162 161/161/161 160/160/160
f 163/163/163 162/162/162 160/160/160
f 166/166/166 165/165/165 164/164/164
f 167/167/167 166/166/166 164/164/164
f 170/170/170 169/169/169 168/168/168
f 171/171/171 170/170/170 168/168/168
f 174/174/174 173/173/173 172/172/172
f 175/175/175 174/174/174 172/172/172
f 178/178/178 177/177/177 176/176/176
f 179/179/179 178/178/178 176/176/176
f 182/182/182 181/181/181 180/180/180
f 183/183/183 182/182/182 180/180/180
f 186/186/186 185/185/185 184/184/184
f 187/187/187 186/186/186 184/184/184
f 190/190/190 189/189/189 188/188/188
f 191/191/191 190/190/190 188/188/188
f 194/194/194 193/193/193 192/192/192
f 195/195/195 194/194/194 192/192/192
f 198/198/198 197/197/197 196/196/196
f 199/199/199 198/198/198 196/196/196
f 202/202/202 201/201/201 200/200/200
f 203/203/203 202/202/202 200/200/200
