g wall1
v -0.5035 0.62613887 -0.5035
v 0.5035 0.62613887 -0.5035
v 0.5035 0.6261389 0.04056605
v -0.5035 0.6261389 0.04056605
v -0.5035 0.56226397 0.18974563
v 0.5035 0.56226397 0.18974563
v -0.5035 0.30991444 0.45459232
v 0.5035 0.30991435 0.45459232
v -0 -3.8414E-08 0.5550632
v -0.5035 -3.2063704E-17 0.52364
v 0.5035 -3.2063704E-17 0.52364
v -0.32369888 0.046253145 0.5256487
v -0.3424553 0.04625307 0.5646526
v -0.3592631 -0.0076551805 0.5676163
v -0.33466947 -0.0076551805 0.5125743
v -0.30720484 0.04625303 0.60666245
v -0.3592631 -0.0076551805 0.5676163
v -0.3424553 0.04625307 0.5646526
v -0.31304207 -0.0076552383 0.6227004
v -0.2531979 0.04625307 0.5971398
v -0.24222709 -0.0076551996 0.61021394
v -0.2176336 -0.0076551996 0.537945
v -0.23444119 0.04625307 0.5409089
v -0.32369888 0.046253145 0.5256487
v -0.23444119 0.04625307 0.5409089
v -0.2531979 0.04625307 0.5971398
v -0.30720484 0.04625303 0.60666245
v -0.3424553 0.04625307 0.5646526
v -0.5361814 -0.0011820948 0.5258377
v -0.47982705 0.06333128 0.515901
v -0.49939877 -0.0011821332 0.57965124
v -0.44304428 -0.0011820948 0.5697144
v -0.42347273 -0.0011820948 0.5159417
vt 0.1515319 0.99664444
vt 0.20912966 0.99664444
vt 0.20912966 0.9593533
vt 0.1515319 0.9593533
vt 0.1515319 0.95269614
vt 0.20912966 0.95269614
vt 0.1515319 0.90778345
vt 0.20912966 0.90778345
vt 0.18030533 0.8766248
vt 0.1515319 0.8766248
vt 0.20912966 0.8766248
vt 0.4287479 0.1403237
vt 0.42918533 0.1403237
vt 0.42918533 0.13133812
vt 0.4287479 0.13133812
vt 0.42699817 0.1403237
vt 0.42656076 0.13133812
vt 0.42656076 0.1403237
vt 0.42699817 0.13133812
vt 0.4274356 0.1403237
vt 0.4274356 0.13133812
vt 0.42787305 0.13133812
vt 0.42787305 0.1403237
vt 0.42922822 0.1403237
vt 0.42695528 0.1403237
vt 0.42695528 0.1403237
vt 0.42809176 0.1403237
vt 0.42922822 0.1403237
vt 0.39000955 0.3712836
vt 0.39102978 0.38110363
vt 0.39051965 0.3712836
vt 0.39102978 0.3712836
vt 0.39153987 0.3712836
vn -0 1 0
vn -0 1 0
vn -0 1 0
vn -0 1 0
vn -0 1 0
vn -0 1 0
vn -0 1 0
vn -0 1 0
vn -0 1 0
vn -0 1 0
vn -0 1 0
vn -0 1 0
vn -0 1 0
vn -0 1 0
vn -0 1 0
vn -0 1 0
vn -0 1 0
vn -0 1 0
vn -0 1 0
vn -0 1 0
vn -0 1 0
vn -0 1 0
vn -0 1 0
vn -0 1 0
vn -0 1 0
vn -0 1 0
vn -0 1 0
vn -0 1 0
vn -0 1 0
vn -0 1 0
vn -0 1 0
vn -0 1 0
vn -0 1 0
g wall1_0
f 3/3/3 2/2/2 1/1/1
f 4/4/4 3/3/3 1/1/1
f 4/4/4 5/5/5 3/3/3
f 5/5/5 6/6/6 3/3/3
f 5/5/5 7/7/7 6/6/6
f 7/7/7 8/8/8 6/6/6
f 8/8/8 7/7/7 9/9/9
f 9/9/9 7/7/7 10/10/10
f 11/11/11 8/8/8 9/9/9
f 14/14/14 13/13/13 12/12/12
f 12/12/12 15/15/15 14/14/14
f 18/18/18 17/17/17 16/16/16
f 19/19/19 16/16/16 17/17/17
f 16/16/16 19/19/19 20/20/20
f 21/21/21 20/20/20 19/19/19
f 20/20/20 21/21/21 22/22/22
f 22/22/22 23/23/23 20/20/20
f 26/26/26 25/25/25 24/24/24
f 24/24/24 27/27/27 26/26/26
f 24/24/24 28/28/28 27/27/27
f 31/31/31 30/30/30 29/29/29
f 32/32/32 30/30/30 31/31/31
f 33/33/33 30/30/30 32/32/32
