g wall_forest_C
v 0.04319685 -1.0070001 0.50327027
v -0.0753705 -1.007 0.04490223
v -0.43868652 1.10076854E-07 0.5032703
v -0.19345859 -0.25174952 0.5032703
v -0.24403772 -0.25175008 0.23811512
v 0.051916678 -1.0070001 0.3015142
v -0.16945967 -0.25175005 0.3813817
v -0.33831412 -1.007 -0.058633845
v -0.45213276 -7.348247E-08 0.4486434
v -0.39195973 -0.25175005 0.17312297
v -0.32703006 -0.058166638 0.5032704
v -0.3522733 -0.080465324 0.35228828
v -0.3242502 -0.0626491 0.4414801
v -0.4275553 -0.06252241 0.32909137
v -0.5034992 -1.007 -0.04319473
v -0.503499 2.7425645E-07 0.43867695
v -0.50349885 1.1007807E-07 0.50326294
v -0.5034991 -0.25174996 0.19345771
v -0.50349903 -0.058166534 0.3270292
v -0.45213276 -7.348247E-08 0.4486434
v -0.45213276 -7.348247E-08 0.4486434
v -0.45213276 -7.348247E-08 0.4486434
v -0.3242502 -0.0626491 0.4414801
v -0.43868652 1.10076854E-07 0.5032703
v -0.0753705 -1.007 0.04490223
v 0.051916678 -1.0070001 0.3015142
v -0.16945967 -0.25175005 0.3813817
v -0.24403772 -0.25175008 0.23811512
v -0.45213276 -7.348247E-08 0.4486434
v -0.4275553 -0.06252241 0.32909137
v -0.3522733 -0.080465324 0.35228828
v -0.33831412 -1.007 -0.058633845
v -0.39195973 -0.25175005 0.17312297
v -0.3522733 -0.080465324 0.35228828
v -0.24403772 -0.25175008 0.23811512
v -0.16945967 -0.25175005 0.3813817
v -0.3242502 -0.0626491 0.4414801
v -0.4275553 -0.06252241 0.32909137
v -0.50349903 -0.058166534 0.3270292
v -0.5034991 -0.25174996 0.19345771
v -0.39195973 -0.25175005 0.17312297
v -0.32703006 -0.058166638 0.5032704
v -0.3242502 -0.0626491 0.4414801
v -0.16945967 -0.25175005 0.3813817
v -0.19345859 -0.25174952 0.5032703
v -0.3522733 -0.080465324 0.35228828
v -0.4275553 -0.06252241 0.32909137
v -0.39195973 -0.25175005 0.17312297
v -0.24403772 -0.25175008 0.23811512
v -0.45213276 -7.348247E-08 0.4486434
v -0.50349885 1.1007807E-07 0.50326294
v -0.503499 2.7425645E-07 0.43867695
vt 0.15687793 0.9384103
vt 0.14189194 0.9384103
vt 0.15687793 0.9964767
vt 0.15687793 0.9730844
vt 0.14189194 0.9730844
vt 0.14910892 0.9384103
vt 0.14910892 0.9730844
vt 0.1309439 0.9384103
vt 0.14189194 0.9964767
vt 0.1309439 0.9730844
vt 0.15687793 0.9904359
vt 0.14189194 0.9904359
vt 0.14910892 0.9904359
vt 0.1309439 0.9904359
vt 0.12553191 0.9384103
vt 0.12553191 0.9964767
vt 0.14189194 0.9993096
vt 0.12553191 0.9730844
vt 0.12553191 0.9904359
vt 0.14189194 0.9964767
vt 0.14189194 0.9964767
vt 0.14189194 0.9964767
vt 0.14910892 0.9904359
vt 0.15687793 0.9964767
vt 0.14189194 0.9384103
vt 0.14910892 0.9384103
vt 0.14910892 0.9730844
vt 0.14189194 0.9730844
vt 0.14189194 0.9964767
vt 0.1309439 0.9904359
vt 0.14189194 0.9904359
vt 0.1309439 0.9384103
vt 0.1309439 0.9730844
vt 0.14189194 0.9904359
vt 0.14189194 0.9730844
vt 0.14910892 0.9730844
vt 0.14910892 0.9904359
vt 0.1309439 0.9904359
vt 0.12553191 0.9904359
vt 0.12553191 0.9730844
vt 0.1309439 0.9730844
vt 0.15687793 0.9904359
vt 0.14910892 0.9904359
vt 0.14910892 0.9730844
vt 0.15687793 0.9730844
vt 0.14189194 0.9904359
vt 0.1309439 0.9904359
vt 0.1309439 0.9730844
vt 0.14189194 0.9730844
vt 0.14189194 0.9964767
vt 0.14189194 0.9993096
vt 0.12553191 0.9964767
vn 0.9539152 0.28415844 0.09643523
vn 0.36184192 0.3014447 -0.88215727
vn -0 1 -3.3603314E-06
vn 0.9539152 0.28415844 0.09643522
vn 0.3618419 0.30144474 -0.8821573
vn 0.9539152 0.2841584 0.09643521
vn 0.9539152 0.28415844 0.09643523
vn 0.3618419 0.30144474 -0.8821573
vn 0.40606952 0.8631937 -0.30000708
vn 0.3618419 0.3014447 -0.8821573
vn 0.4472565 0.89123076 -0.075295344
vn 0.4060695 0.86319363 -0.3000071
vn 0.40606952 0.86319363 -0.30000708
vn 0.07338467 0.8872742 -0.4553671
vn -0.12270059 0.28997168 -0.9491369
vn 0.073384665 0.8872742 -0.45536703
vn -0 1 -3.3603314E-06
vn -0.12270059 0.28997168 -0.9491369
vn 0.07338467 0.8872742 -0.45536703
vn 0.07338467 0.8872742 -0.45536703
vn -0 1 -3.3603314E-06
vn 0.44725648 0.89123076 -0.075295344
vn 0.4472565 0.89123076 -0.075295344
vn 0.4472565 0.89123076 -0.075295344
vn 0.8521895 0.29782856 -0.43019915
vn 0.8521895 0.29782856 -0.43019915
vn 0.8521895 0.29782856 -0.4301991
vn 0.8521895 0.29782856 -0.43019915
vn 0.3245675 0.8639249 -0.3850839
vn 0.32456747 0.8639249 -0.38508388
vn 0.32456747 0.8639249 -0.38508388
vn -0.12270059 0.28997168 -0.9491369
vn -0.12270059 0.28997168 -0.9491369
vn 0.67020375 0.65652275 -0.34612828
vn 0.67020375 0.65652275 -0.34612828
vn 0.67020375 0.65652275 -0.34612828
vn 0.6702038 0.65652275 -0.34612826
vn -0.06395232 0.5982131 -0.7987811
vn -0.06395231 0.598213 -0.7987811
vn -0.06395231 0.5982131 -0.7987811
vn -0.06395231 0.5982131 -0.7987811
vn 0.8021097 0.5883 0.10258213
vn 0.8021097 0.58829993 0.10258211
vn 0.8021097 0.5883 0.10258213
vn 0.8021097 0.5883 0.10258211
vn 0.32468194 0.64670765 -0.69018173
vn 0.32468194 0.6467078 -0.69018173
vn 0.32468194 0.64670765 -0.69018173
vn 0.32468194 0.64670765 -0.69018173
vn 6.2765794E-06 1 2.5419977E-06
vn 6.2765794E-06 1 2.5419977E-06
vn 6.276579E-06 1 2.5419977E-06
g wall_forest_C_0
f 13/13/13 12/12/12 9/9/9
f 19/19/19 16/16/16 20/20/20
f 14/14/14 19/19/19 20/20/20
f 21/21/21 17/17/17 3/3/3
f 7/7/7 4/4/4 1/1/1
f 6/6/6 7/7/7 1/1/1
f 8/8/8 10/10/10 5/5/5
f 2/2/2 8/8/8 5/5/5
f 11/11/11 23/23/23 22/22/22
f 24/24/24 11/11/11 22/22/22
f 27/27/27 26/26/26 25/25/25
f 28/28/28 27/27/27 25/25/25
f 31/31/31 30/30/30 29/29/29
f 33/33/33 32/32/32 15/15/15
f 18/18/18 33/33/33 15/15/15
f 36/36/36 35/35/35 34/34/34
f 37/37/37 36/36/36 34/34/34
f 40/40/40 39/39/39 38/38/38
f 41/41/41 40/40/40 38/38/38
f 44/44/44 43/43/43 42/42/42
f 45/45/45 44/44/44 42/42/42
f 48/48/48 47/47/47 46/46/46
f 49/49/49 48/48/48 46/46/46
f 52/52/52 51/51/51 50/50/50
