g wall_2_3
v -0.36848032 1.27213 -0.49503177
v 0.4535747 1.8788887 -0.49503192
v 0.3686988 1.9422586 -0.49503177
v -0.45335528 1.3380601 -0.4950317
v 0.3614914 1.9568478 -0.45799753
v -0.46056235 1.3530508 -0.45799762
v 0.36848092 1.2721297 -0.48375097
v -0.36869758 1.9422585 -0.48375097
v -0.45357284 1.8788887 -0.48375112
v 0.45335498 1.3380601 -0.48375097
v -0.36149082 1.9568479 -0.45799762
v 0.46056327 1.3530508 -0.45799753
v -0.42328665 0.48350978 -0.39089718
v 0.42351097 0.48350978 -0.39089665
v 0.42351067 0.6381212 -0.39089665
v -0.42328635 0.6381215 -0.39089733
v -0.42328665 0.65261716 -0.35756242
v 0.42351097 0.6526169 -0.35756174
v -0.5035003 1.0878394 -0.40791267
v -0.5035006 0.4810968 -0.40791243
v -0.4193054 0.48109692 -0.40791237
v -0.4193057 1.0878395 -0.40791267
v -0.3927303 1.0878395 -0.3575626
v -0.3927303 0.48109692 -0.35756242
v -0.40620655 1.2171887 -0.35827547
v 0.40620255 0.64375407 -0.35827455
v 0.40620285 1.2171888 -0.3582747
v -0.40620747 0.64375395 -0.35827518
v -0.41930512 1.2076627 -0.52051526
v -0.3927303 1.2076625 -0.47016516
v -0.3927297 2.0139985 -0.4701654
v -0.4193045 2.0139987 -0.5205153
v -0.5034997 2.0139987 -0.5205151
v -0.5035 1.2076627 -0.52051526
v 0.42351067 2.0139997 -0.50350004
v -0.42328635 2.0139995 -0.5035
v -0.42328635 1.9146376 -0.50350004
v 0.42351097 1.9146378 -0.5035003
v -0.42328694 1.2167158 -0.50350004
v 0.42351067 1.2167156 -0.5035002
v 0.42351067 1.3192085 -0.5034999
v -0.42328694 1.3192084 -0.5034999
v -0.42328665 1.3299375 -0.4701653
v 0.42351097 1.3299376 -0.4701653
v -0.35650805 1.2196878 -0.552318
v -0.34413597 1.2196878 -0.36707082
v -0.5035 1.2196878 -0.36707082
v -0.5034997 1.2196876 -0.552318
v -0.5035 1.0861708 -0.53681195
v -0.350694 1.0861708 -0.53681195
v -0.34413597 1.2196878 -0.36707082
v -0.33832195 1.0861712 -0.3670706
v 0.42124423 1.9206698 -0.47087827
v -0.42124733 1.9206698 -0.47087836
v 0.4212433 1.314716 -0.4708782
v -0.42124793 1.314716 -0.47087827
v 0.5035006 0.48109686 -0.40791175
v 0.5035006 1.0878394 -0.4079119
v 0.41930112 1.0878392 -0.4079119
v 0.41930172 0.48109686 -0.40791175
v 0.39273 0.48109686 -0.35756168
v 0.39273 1.0878394 -0.35756183
v 0.34310985 1.2196878 -0.36707014
v 0.33733332 1.086171 -0.36707014
v 0.34970725 1.0861709 -0.53681207
v 0.35548285 1.2196879 -0.552318
v 0.50350124 1.0861709 -0.53681207
v 0.50350094 1.2196878 -0.5523178
v 0.5035006 1.2196878 -0.3670702
v 0.34310985 1.2196878 -0.36707014
v 0.41930112 1.2076627 -0.52051526
v 0.50350094 1.2076627 -0.5205153
v 0.5035006 2.0139987 -0.5205154
v 0.41930112 2.0139987 -0.5205153
v 0.3927306 2.0139987 -0.4701653
v 0.39273 1.2076627 -0.47016525
v -0.5037077 0.49260753 -0.53964674
v 0.50329345 0.4926075 -0.5396463
v 0.5030753 0.49260348 0.5030299
v -0.50392437 0.49260354 0.5030295
v 0.50326335 0.32806775 -0.606036
v 0.5032606 0.47390115 -0.5623988
v -0.50373757 0.32806778 -0.6060365
v -0.5037412 0.47390115 -0.56239885
v 0.5032606 0.47390115 -0.5623988
v 0.50329345 0.4926075 -0.5396463
v -0.5037077 0.49260753 -0.53964674
v -0.5037412 0.47390115 -0.56239885
vt 0.19268768 0.9485233
vt 0.19268768 0.9589243
vt 0.19686998 0.9589243
vt 0.19686998 0.9485233
vt 0.19814394 0.9589243
vt 0.19814394 0.9485233
vt 0.19268768 0.9485233
vt 0.19686998 0.9589243
vt 0.19268768 0.9589243
vt 0.19686998 0.9485233
vt 0.19814394 0.9589243
vt 0.19814394 0.9485233
vt 0.17886105 0.921945
vt 0.16926944 0.921945
vt 0.16926944 0.9290298
vt 0.17886105 0.9290298
vt 0.17886105 0.9315599
vt 0.16926944 0.9315599
vt 0.19268768 0.9589243
vt 0.19268768 0.9485233
vt 0.19686998 0.9485233
vt 0.19686998 0.9589243
vt 0.19816048 0.9589243
vt 0.19816048 0.9485233
vt 0.16437657 0.7969588
vt 0.10605527 0.75047624
vt 0.10605528 0.7969588
vt 0.16437654 0.75047624
vt 0.19686998 0.9485233
vt 0.19814394 0.9485233
vt 0.19814394 0.9589243
vt 0.19686998 0.9589243
vt 0.19268768 0.9589243
vt 0.19268768 0.9485233
vt 0.18036671 0.93146026
vt 0.19005199 0.93146026
vt 0.19005199 0.92565024
vt 0.18036671 0.92565024
vt 0.19268768 0.9485233
vt 0.19268768 0.9589243
vt 0.19686998 0.9589243
vt 0.19686998 0.9485233
vt 0.19814394 0.9485233
vt 0.19814394 0.9589243
vt 0.14493467 0.9083836
vt 0.14507298 0.9119539
vt 0.13295488 0.9119539
vt 0.13256852 0.9083836
vt 0.13256852 0.89483976
vt 0.14493467 0.89483976
vt 0.14750545 0.90853834
vt 0.14750545 0.89483976
vt 0.093162835 0.8540304
vt 0.12078606 0.8540304
vt 0.093162835 0.8411962
vt 0.12078606 0.8411962
vt 0.19268768 0.9485233
vt 0.19268768 0.9589243
vt 0.19686998 0.9589243
vt 0.19686998 0.9485233
vt 0.19816048 0.9485233
vt 0.19816048 0.9589243
vt 0.14750545 0.90853834
vt 0.14750545 0.89483976
vt 0.14493467 0.89483976
vt 0.14493467 0.9083836
vt 0.1325777 0.89483976
vt 0.1325777 0.9083836
vt 0.13296242 0.9119539
vt 0.14507298 0.9119539
vt 0.19686998 0.9485233
vt 0.19268768 0.9485233
vt 0.19268768 0.9589243
vt 0.19686998 0.9589243
vt 0.19814394 0.9589243
vt 0.19814394 0.9485233
vt 0.6487659 0.7228514
vt 0.5875656 0.7228514
vt 0.5875529 0.78594196
vt 0.6487533 0.78594196
vt 0.5875674 0.704502
vt 0.58756757 0.7179631
vt 0.6487677 0.704502
vt 0.64876795 0.7179631
vt 0.58756757 0.7179631
vt 0.5875656 0.7228514
vt 0.6487659 0.7228514
vt 0.64876795 0.7179631
vn -0.0030487664 0 -0.99999535
vn -0 0 -1
vn -0.3983518 0.3082484 -0.86388594
vn -0.35248485 0.27762085 -0.8936896
vn -0.6864476 0.52829546 -0.49969348
vn -0.68099195 0.53744954 -0.49739116
vn -0 0.003053421 -0.99999535
vn 0.34309646 0.27069998 -0.8994478
vn -0 0.0015255513 -0.9999988
vn 0.29503915 0.23447849 -0.9262677
vn 0.6095227 0.46784985 -0.63999885
vn 0.60268384 0.47918308 -0.63808745
vn -0 0.00038138826 -1
vn -0.0030580896 0 -0.99999535
vn 0.0031575349 0.47757715 -0.87858415
vn -0.0063197347 0.47635 -0.879233
vn 0.0033871143 0.86964166 -0.4936719
vn -0.003380722 0.8696907 -0.4935854
vn -0 -0.0015290502 -0.9999988
vn -0 0 -1
vn 0.51505584 -0.00038095846 -0.85715646
vn 0.5205249 -0.0022830039 -0.85384345
vn 0.8841038 -0.00076479564 -0.46729013
vn 0.88410395 0 -0.46729022
vn -0.0061114226 0 -0.9999814
vn -0.006106756 0 -0.9999814
vn -0 -0.0015255513 -0.9999988
vn -0.0030510921 0 -0.99999535
vn 0.51674163 -0.0015288214 -0.85614
vn 0.88480276 0 -0.46596572
vn 0.8850837 0 -0.46543196
vn 0.51449585 0 -0.8574929
vn 0.003046441 0.0015232204 -0.9999943
vn 0.0030464446 0 -0.99999535
vn 0.0030487664 0 -0.99999535
vn -0 0 -1
vn 0.0030510921 0 -0.99999535
vn 0.006106756 0 -0.9999814
vn 0.003053421 0 -0.99999535
vn -0 0 -1
vn 0.0032592446 0.45955345 -0.8881441
vn 0.0032543566 0.4621186 -0.88681215
vn 0.0037581157 0.8812781 -0.47258303
vn -0 0.8816755 -0.4718562
vn 0.5754823 0.47084913 -0.6686712
vn 0.78898674 0.6121449 -0.052712478
vn -0 1 0
vn -0 0.5822695 -0.81299585
vn -0.0030598643 -0.07037688 -0.9975158
vn 0.70876086 -0.026731284 -0.7049421
vn 0.78898674 0.6121449 -0.052712478
vn 0.9972735 0.023563627 -0.06993077
vn 0.003053421 0 -0.99999535
vn 0.0060974406 0.0015243602 -0.99998033
vn 0.006106756 0 -0.9999814
vn 0.003048763 0.0015243815 -0.9999943
vn 0.003053421 0 -0.99999535
vn -0 0 -1
vn -0.51348346 0.0015282247 -0.85809815
vn -0.51382095 0 -0.85789746
vn -0.883433 -0.000766869 -0.46855694
vn -0.8837879 0 -0.46788773
vn -0.7893395 0.61148405 -0.055050503
vn -0.99716824 0.025390858 -0.07078664
vn -0.7150487 -0.031056141 -0.69838446
vn -0.58243036 0.46692038 -0.66540223
vn -0.0061143124 -0.07184317 -0.9973972
vn -0.0033592798 0.5811555 -0.8137856
vn -0 1 0
vn -0.7893395 0.61148405 -0.055050503
vn -0.51348406 0 -0.8580991
vn 0.0030487664 0 -0.99999535
vn 0.006102091 0.0015255228 -0.9999802
vn -0.5141576 0.0015302307 -0.8576944
vn -0.88476926 0 -0.4660293
vn -0.8834717 0 -0.46848458
vn -0 1 3.8499734E-06
vn -0 1 3.8499734E-06
vn -0 1 3.8499734E-06
vn -0 1 3.8499734E-06
vn 2.6087133E-07 0.2866692 -0.9580296
vn 2.608713E-07 0.28666914 -0.9580296
vn 2.6087133E-07 0.28666916 -0.9580296
vn 2.608713E-07 0.28666914 -0.9580296
vn 1.6016688E-07 0.77244353 -0.63508344
vn 1.6016685E-07 0.7724435 -0.63508344
vn 1.6016685E-07 0.7724435 -0.63508344
vn 1.601669E-07 0.7724435 -0.63508344
g wall_2_3_0
f 3/3/3 2/2/2 1/1/1
f 3/3/3 1/1/1 4/4/4
f 5/5/5 3/3/3 4/4/4
f 4/4/4 6/6/6 5/5/5
f 9/9/9 8/8/8 7/7/7
f 10/10/10 7/7/7 8/8/8
f 10/10/10 8/8/8 11/11/11
f 11/11/11 12/12/12 10/10/10
f 15/15/15 14/14/14 13/13/13
f 13/13/13 16/16/16 15/15/15
f 16/16/16 17/17/17 15/15/15
f 17/17/17 18/18/18 15/15/15
f 21/21/21 20/20/20 19/19/19
f 19/19/19 22/22/22 21/21/21
f 21/21/21 22/22/22 23/23/23
f 23/23/23 24/24/24 21/21/21
f 27/27/27 26/26/26 25/25/25
f 26/26/26 28/28/28 25/25/25
f 31/31/31 30/30/30 29/29/29
f 29/29/29 32/32/32 31/31/31
f 29/29/29 33/33/33 32/32/32
f 29/29/29 34/34/34 33/33/33
f 37/37/37 36/36/36 35/35/35
f 35/35/35 38/38/38 37/37/37
f 41/41/41 40/40/40 39/39/39
f 39/39/39 42/42/42 41/41/41
f 42/42/42 43/43/43 41/41/41
f 43/43/43 44/44/44 41/41/41
f 47/47/47 46/46/46 45/45/45
f 47/47/47 45/45/45 48/48/48
f 49/49/49 48/48/48 45/45/45
f 45/45/45 50/50/50 49/49/49
f 50/50/50 45/45/45 51/51/51
f 51/51/51 52/52/52 50/50/50
f 55/55/55 54/54/54 53/53/53
f 55/55/55 56/56/56 54/54/54
f 59/59/59 58/58/58 57/57/57
f 57/57/57 60/60/60 59/59/59
f 59/59/59 60/60/60 61/61/61
f 61/61/61 62/62/62 59/59/59
f 65/65/65 64/64/64 63/63/63
f 63/63/63 66/66/66 65/65/65
f 67/67/67 65/65/65 66/66/66
f 67/67/67 66/66/66 68/68/68
f 69/69/69 68/68/68 66/66/66
f 66/66/66 70/70/70 69/69/69
f 73/73/73 72/72/72 71/71/71
f 71/71/71 74/74/74 73/73/73
f 71/71/71 75/75/75 74/74/74
f 71/71/71 76/76/76 75/75/75
f 79/79/79 78/78/78 77/77/77
f 77/77/77 80/80/80 79/79/79
f 83/83/83 82/82/82 81/81/81
f 82/82/82 83/83/83 84/84/84
f 87/87/87 86/86/86 85/85/85
f 85/85/85 88/88/88 87/87/87
