g wall_bar_S3
v -0.5034991 2.208692 0.00650568
v -0.5034991 2.208692 -0.29143384
v 0.5035074 2.208692 -0.2914337
v 0.5035074 2.208692 0.0065058335
v 0.5035055 2.0364494 0.059245374
v -0.5035006 2.0364494 0.059245147
v -0.5035031 1.9978453 0.0014402536
v 0.5035031 1.9978449 0.0014404072
v 0.5034991 1.863582 0.011839843
v -0.5035068 1.8635821 0.0118396515
v -0.5035061 0.91998804 0.24787045
v -0.50350213 1.8627564 -0.047086038
v 0.5035006 1.8627567 -0.047085885
v 0.5035037 0.9199881 0.24787061
v -0.5035055 -3.6955237E-07 0.5927779
v 0.50350523 0.17407969 0.552662
v 0.5035037 -3.6955237E-07 0.5927779
v -0.5035068 0.17407961 0.552662
v -0.503508 0.17407988 0.4789121
v 0.5035058 0.17407998 0.47891223
v 0.5035046 0.7567602 0.29810894
v -0.5035068 0.7567601 0.29810882
v 0.5034994 1.8687769 -0.34417334
v 0.5035074 2.208692 -0.2914337
v -0.5034991 2.208692 -0.29143384
v -0.503504 1.8687769 -0.34417352
v 0.5034994 4.60968E-07 -0.3441733
v -0.503504 4.60968E-07 -0.34417346
v -0.5035061 0.75660706 0.335296
v -0.5035064 0.91983503 0.28505766
v 0.5035037 0.9198351 0.2850578
v 0.503504 0.7566072 0.3352962
v 0.5035037 0.9199881 0.24787061
v 0.5035037 0.9198351 0.2850578
v -0.5035064 0.91983503 0.28505766
v -0.5035061 0.91998804 0.24787045
vt 0.15788226 0.45174867
vt 0.15788226 0.49192506
vt 0.16598332 0.49195468
vt 0.16598332 0.45174867
vt 0.16598332 0.44194257
vt 0.15788226 0.44194257
vt 0.15788226 0.43563068
vt 0.16598332 0.43563068
vt 0.16598332 0.42572153
vt 0.15788226 0.42569134
vt 0.26300204 0.47893414
vt 0.26300222 0.53547394
vt 0.2917008 0.53547394
vt 0.29170096 0.47893414
vt 0.26300204 0.4249832
vt 0.29170108 0.43275037
vt 0.29170096 0.4249832
vt 0.26300198 0.43275037
vt 0.26300192 0.43740866
vt 0.29170108 0.43740866
vt 0.291701 0.46681598
vt 0.26300204 0.46681598
vt 0.15532719 0.51814914
vt 0.15532719 0.53520477
vt 0.14717731 0.5352344
vt 0.14717731 0.51817834
vt 0.15532719 0.42581782
vt 0.14717731 0.42584673
vt 0.26300204 0.46680763
vt 0.26300204 0.4747298
vt 0.29170096 0.4747298
vt 0.291701 0.4668077
vt 0.29170096 0.47893414
vt 0.29170096 0.4747298
vt 0.26300204 0.4747298
vt 0.26300204 0.47893414
vn -1.1272752E-07 0.8039814 0.5946544
vn -0 0.759379 -0.65064853
vn -0 0.75938576 -0.65064067
vn -1.1272686E-07 0.8039841 0.59465086
vn -2.974123E-07 -0.3357642 0.941946
vn -2.9741435E-07 -0.33578423 0.941939
vn -2.5702565E-07 -0.43706205 0.8994314
vn -2.5702914E-07 -0.43708324 0.8994211
vn -1.4761886E-07 0.07722422 0.9970138
vn -1.4761888E-07 0.07722423 0.9970138
vn -2.0532308E-07 0.29858977 0.9543815
vn -2.0532306E-07 0.29858977 0.9543815
vn -2.0532306E-07 0.29858977 0.9543815
vn -2.0532306E-07 0.29858977 0.9543815
vn -0 0.2245597 0.97446036
vn -0 0.78248465 0.6226699
vn -0 0.22455968 0.97446036
vn -0 0.7824856 0.6226686
vn -1.5028074E-07 0.80509204 0.59314996
vn -1.5028061E-07 0.80509317 0.5931483
vn -1.5615076E-07 0.29635656 0.9550774
vn -1.5615076E-07 0.2963566 0.9550774
vn 1.526839E-07 0.076888636 -0.9970396
vn -0 0.75938576 -0.65064067
vn -0 0.759379 -0.65064853
vn 1.5268392E-07 0.07688772 -0.99703974
vn 1.5258739E-07 0 -1
vn 1.5258739E-07 0 -1
vn -2.0468158E-07 0.2941628 0.9557553
vn -2.046816E-07 0.29416284 0.9557553
vn -2.0468158E-07 0.2941628 0.9557553
vn -2.046816E-07 0.29416284 0.9557553
vn -0 0.99999154 0.0041153957
vn -0 0.99999154 0.0041153952
vn -0 0.99999154 0.0041153952
vn -0 0.99999154 0.0041153957
g wall_bar_S3_0
f 3/3/3 2/2/2 1/1/1
f 4/4/4 3/3/3 1/1/1
f 5/5/5 4/4/4 1/1/1
f 6/6/6 5/5/5 1/1/1
f 6/6/6 7/7/7 5/5/5
f 7/7/7 8/8/8 5/5/5
f 9/9/9 8/8/8 7/7/7
f 10/10/10 9/9/9 7/7/7
f 13/13/13 12/12/12 11/11/11
f 14/14/14 13/13/13 11/11/11
f 17/17/17 16/16/16 15/15/15
f 16/16/16 18/18/18 15/15/15
f 18/18/18 16/16/16 19/19/19
f 16/16/16 20/20/20 19/19/19
f 20/20/20 21/21/21 19/19/19
f 21/21/21 22/22/22 19/19/19
f 25/25/25 24/24/24 23/23/23
f 26/26/26 25/25/25 23/23/23
f 23/23/23 27/27/27 26/26/26
f 27/27/27 28/28/28 26/26/26
f 31/31/31 30/30/30 29/29/29
f 32/32/32 31/31/31 29/29/29
f 35/35/35 34/34/34 33/33/33
f 36/36/36 35/35/35 33/33/33
