g wall_hill_C
v -0.03321133 1.1750504 0.15428975
v 0.122655004 1.0658323 0.21160565
v 0.14779148 0.9010835 0.31703863
v -0.03321133 1.1750504 0.15428975
v 0.14779148 0.9010835 0.31703863
v 0.06153293 -3.07312E-07 0.4045145
v 0.17551132 1.176664 -0.09028773
v 0.3572251 0.8974 0.066969834
v 0.2538337 1.0670693 0.059714496
v 0.2692333 -3.2711924E-07 -0.21917757
v -0.029523445 1.160722 -0.5068356
v 0.27611607 -3.07312E-07 -0.50683546
v 0.026676394 1.1593448 -0.29942435
v 0.17551132 1.176664 -0.09028773
v -0.09264066 1.8639948 -0.2902048
v 0.41733205 -3.07312E-07 -0.043946706
v 0.3572251 0.8974 0.066969834
v -0.18234357 1.7426419 -0.50683546
v -0.02529245 1.819109 -0.19005196
v -0.27607957 2.0311475 -0.41751993
v -0.25875363 2.0336018 -0.5068356
v -0.1337462 1.8194458 -0.056122836
v -0.3648861 2.326508 -0.45361915
v -0.33516368 2.324562 -0.50683546
v -0.50350124 2.3245664 -0.50683546
v -0.44356617 2.3243165 -0.36113527
v -0.50349385 2.3245616 -0.3351636
v -0.40346017 2.0337431 -0.26871157
v -0.5034935 2.0336015 -0.25875315
v -0.24956316 1.8658252 -0.10320607
v -0.5034931 1.7426416 -0.1823427
v -0.03321133 1.1750504 0.15428975
v -0.27172363 1.1528034 0.037483677
v -0.50350213 1.160721 -0.012204147
v -0.5034914 -3.2711924E-07 0.27612078
v -0.16189352 -3.2831966E-07 0.2957458
v 0.06153293 -3.07312E-07 0.4045145
v 0.122655004 1.0658323 0.21160565
v 0.2538337 1.0670693 0.059714496
v 0.3572251 0.8974 0.066969834
v 0.14779148 0.9010835 0.31703863
v 0.2768357 -3.8414E-07 0.47554135
v 0.5248116 -3.07312E-07 0.16151424
v 0.29693025 -3.8414E-07 0.04996396
v 0.2870811 0.7666016 -0.23506157
v 0.47758937 -4.60968E-07 -0.21481913
v 0.1797503 0.7912509 -0.07414032
v 0.2320656 -3.8414E-07 0.06674337
v -0.016273418 0.8278183 -0.18853964
v 0.1442534 0.8039831 -0.061875362
v 0.00020858803 -3.45726E-07 -0.08274971
v 0.0036728971 0.8256718 -0.16664867
v -0.024004314 -3.45726E-07 -0.1100925
v -0.03213583 0.8090771 -0.29986003
v -0.016273418 0.8278183 -0.18853964
v -0.024004314 -3.45726E-07 -0.1100925
v -0.017463868 -3.8414E-07 -0.31898135
v 0.1460371 0.77558213 -0.41974965
v 0.2532737 -3.07312E-07 -0.50683546
v 0.26876307 0.76332676 -0.28596175
v 0.44000533 -4.2255402E-07 -0.2982033
v -0.03213583 0.8090771 -0.29986003
v 0.47758937 -4.60968E-07 -0.21481913
v -0.016273418 0.8278183 -0.18853964
v 0.2870811 0.7666016 -0.23506157
vt 0.035616342 0.8570748
vt 0.051712964 0.8384096
vt 0.051712964 0.8234775
vt 0.035616342 0.8570748
vt 0.051712964 0.8234775
vt 0.035616342 0.7534359
vt 0.088608705 0.8570748
vt 0.07441156 0.8234775
vt 0.07441156 0.8384096
vt 0.101300776 0.7534359
vt 0.120132476 0.8570748
vt 0.120132476 0.7534359
vt 0.101300776 0.8570748
vt 0.088608705 0.8570748
vt 0.101300776 0.9145565
vt 0.088608705 0.7534359
vt 0.07441156 0.8234775
vt 0.120132476 0.9145565
vt 0.088608705 0.89723
vt 0.101300776 0.934628
vt 0.120132476 0.934628
vt 0.035616342 0.89723
vt 0.101300776 0.96494037
vt 0.120132476 0.96494037
vt 0.059598047 0.9970259
vt 0.023115527 0.96494037
vt 0.0013296143 0.96494037
vt 0.023115527 0.934628
vt 0.0013296143 0.934628
vt 0.023115527 0.9145565
vt 0.0013296143 0.9145565
vt 0.035616342 0.8570748
vt 0.023115527 0.8570748
vt 0.0013296143 0.8570748
vt 0.0013296143 0.7534359
vt 0.023115527 0.7534359
vt 0.035616342 0.7534359
vt 0.051712964 0.8384096
vt 0.07441156 0.8384096
vt 0.07441156 0.8234775
vt 0.051712964 0.8234775
vt 0.051712964 0.7534359
vt 0.07441156 0.7534359
vt 0.39415452 0.75523555
vt 0.39729294 0.8181171
vt 0.3976291 0.7552396
vt 0.3942046 0.8181171
vt 0.39260063 0.75523365
vt 0.38308844 0.8181171
vt 0.39263394 0.8181171
vt 0.38382253 0.7552299
vt 0.384357 0.8181171
vt 0.38280225 0.7552288
vt 0.3879216 0.8181171
vt 0.3879216 0.8181171
vt 0.38827056 0.7556067
vt 0.38827056 0.7556067
vt 0.3879216 0.8181171
vt 0.38827056 0.7556067
vt 0.3957149 0.8181171
vt 0.39606878 0.7552995
vt 0.38082013 0.8181171
vt 0.3976291 0.7552396
vt 0.38308844 0.8181171
vt 0.39729294 0.8181171
vn 0.0694041 0.45744327 0.8865262
vn 0.43407324 0.4460831 0.78268147
vn -0.32735184 0.18966661 0.9256713
vn -0.5442605 0.13251895 0.8283835
vn -0.54426056 0.13251895 0.8283835
vn -0.54426056 0.13251893 0.8283835
vn 0.85326535 0.5170568 -0.06775304
vn 0.85326535 0.51705676 -0.06775303
vn 0.85326535 0.51705676 -0.06775305
vn 0.90394354 0.18082792 -0.38753995
vn 0.94724345 0.21171854 -0.24063471
vn 0.96944964 0.22574751 -0.09594516
vn 0.8942276 0.18268941 -0.4086336
vn 0.901951 0.40611342 -0.14682041
vn 0.773364 0.62285185 -0.11816835
vn 0.83079207 0.12333453 -0.542746
vn 0.81980455 0.5701006 0.053906213
vn 0.8917839 0.26945478 -0.36347708
vn 0.8045968 0.5921979 0.043882538
vn 0.83375597 0.50320536 0.22723426
vn 0.9355946 0.35169506 -0.031195164
vn 0.2029023 0.61103594 0.76515734
vn 0.52775085 0.7964501 0.29520544
vn 0.6990882 0.68216795 0.21429522
vn -0.008000837 0.9999603 -0.0039234073
vn 0.33387133 0.7719162 0.54099476
vn 0.15518881 0.7156009 0.68105197
vn 0.26029637 0.5079446 0.8211201
vn -0.05060158 0.33738932 0.9400042
vn -0.025106324 0.6345074 0.7725089
vn -0.3003151 0.2818594 0.91124433
vn 0.0694041 0.45744327 0.8865262
vn -0.30832744 0.20637926 0.9286236
vn -0.21293023 0.22655453 0.9504387
vn -0.113941625 0.22330305 0.96806663
vn -0.29548034 0.18871309 0.9365248
vn -0.32735184 0.18966661 0.9256713
vn 0.5747565 0.6548102 0.49079373
vn 0.81980455 0.5701006 0.053906213
vn 0.77948004 0.3182344 0.53957194
vn 0.43407324 0.4460831 0.78268147
vn 0.30212724 0.2038222 0.9312226
vn 0.9724452 0.19781676 0.123364784
vn 0.59272873 0.21053623 0.7773977
vn 0.7539247 0.6559138 0.037075657
vn 0.9670201 0.23783308 0.091146216
vn 0.49264652 0.68510306 0.5365942
vn -0.10884871 0.1517424 0.98240834
vn -0.6224224 0.7484079 0.22907625
vn -0.08756185 0.70793486 0.700829
vn -0.6511117 0.0753564 0.7552318
vn -0.37992537 0.774934 0.5051079
vn -0.9205175 0.037929613 0.38885573
vn -0.67562824 0.6224029 -0.39514688
vn -0.6224224 0.7484079 0.22907625
vn -0.9205175 0.037929613 0.38885573
vn -0.8871 0.0050864723 -0.4615493
vn 0.09734311 0.58791274 -0.803046
vn 0.1655275 0.13093224 -0.977475
vn 0.636707 0.65978676 -0.39910597
vn 0.8338126 0.19687109 -0.5157503
vn -0.67562824 0.6224029 -0.39514688
vn 0.9670201 0.23783308 0.091146216
vn -0.6224224 0.7484079 0.22907625
vn 0.7539247 0.6559138 0.037075657
g wall_hill_C_0
f 3/3/3 2/2/2 1/1/1
f 6/6/6 5/5/5 4/4/4
f 9/9/9 8/8/8 7/7/7
f 12/12/12 11/11/11 10/10/10
f 11/11/11 13/13/13 10/10/10
f 13/13/13 14/14/14 10/10/10
f 15/15/15 13/13/13 11/11/11
f 14/14/14 16/16/16 10/10/10
f 14/14/14 17/17/17 16/16/16
f 18/18/18 15/15/15 11/11/11
f 19/19/19 14/14/14 13/13/13
f 15/15/15 19/19/19 13/13/13
f 20/20/20 15/15/15 18/18/18
f 21/21/21 20/20/20 18/18/18
f 19/19/19 22/22/22 14/14/14
f 22/22/22 19/19/19 15/15/15
f 23/23/23 20/20/20 21/21/21
f 24/24/24 23/23/23 21/21/21
f 24/24/24 25/25/25 23/23/23
f 25/25/25 26/26/26 23/23/23
f 23/23/23 26/26/26 20/20/20
f 26/26/26 25/25/25 27/27/27
f 26/26/26 28/28/28 20/20/20
f 26/26/26 27/27/27 28/28/28
f 20/20/20 28/28/28 15/15/15
f 27/27/27 29/29/29 28/28/28
f 28/28/28 30/30/30 15/15/15
f 28/28/28 29/29/29 30/30/30
f 30/30/30 22/22/22 15/15/15
f 29/29/29 31/31/31 30/30/30
f 22/22/22 32/32/32 14/14/14
f 32/32/32 22/22/22 30/30/30
f 30/30/30 31/31/31 33/33/33
f 33/33/33 32/32/32 30/30/30
f 31/31/31 34/34/34 33/33/33
f 33/33/33 34/34/34 35/35/35
f 36/36/36 33/33/33 35/35/35
f 36/36/36 37/37/37 33/33/33
f 37/37/37 32/32/32 33/33/33
f 32/32/32 38/38/38 14/14/14
f 38/38/38 39/39/39 14/14/14
f 39/39/39 38/38/38 40/40/40
f 38/38/38 41/41/41 40/40/40
f 42/42/42 41/41/41 37/37/37
f 40/40/40 41/41/41 42/42/42
f 43/43/43 40/40/40 42/42/42
f 40/40/40 43/43/43 16/16/16
f 46/46/46 45/45/45 44/44/44
f 45/45/45 47/47/47 44/44/44
f 44/44/44 47/47/47 48/48/48
f 49/49/49 47/47/47 45/45/45
f 47/47/47 50/50/50 48/48/48
f 48/48/48 50/50/50 51/51/51
f 49/49/49 52/52/52 47/47/47
f 52/52/52 50/50/50 47/47/47
f 50/50/50 52/52/52 51/51/51
f 49/49/49 53/53/53 52/52/52
f 53/53/53 51/51/51 52/52/52
f 56/56/56 55/55/55 54/54/54
f 57/57/57 56/56/56 54/54/54
f 57/57/57 54/54/54 58/58/58
f 59/59/59 57/57/57 58/58/58
f 58/58/58 60/60/60 59/59/59
f 60/60/60 61/61/61 59/59/59
f 60/60/60 58/58/58 62/62/62
f 61/61/61 60/60/60 63/63/63
f 62/62/62 64/64/64 60/60/60
f 60/60/60 65/65/65 63/63/63
f 64/64/64 65/65/65 60/60/60
