g wall1_2
v -0.5035 8.203056E-08 -0.5035
v 0.5035 8.203056E-08 -0.5035
v 0.5035 -8.203056E-08 0.5035
v -0.5035 -8.203056E-08 0.5035
v 0.50350046 -3.1651103E-07 0.50350136
v -0.50350016 3.07312E-07 0.50350004
v -0.5035 1.9133774 0.41347575
v 0.5035006 1.9133767 0.413477
v 0.5035006 2.0139992 0.3281712
v -0.5035 2.0139997 0.32816988
v -0.5035 2.0139997 -0.00042931488
v 0.5035006 2.0139992 -0.00042793198
v -0.5035 1.9133774 0.41347575
v -0.5035 2.0139997 0.32816988
v 0.5035006 2.0139992 0.3281712
v 0.5035006 1.9133767 0.413477
v -0.5035 2.0139997 -0.00042931488
v -0.5035 7.049 -0.5035005
v 0.5035007 7.049 -0.5034989
v 0.5035006 2.0139992 -0.00042793198
vt 0.542006 0.9804051
vt 0.6009995 0.9804051
vt 0.6009995 0.92141163
vt 0.542006 0.92141163
vt 0.3789588 0.7855558
vt 0.3789588 0.7855558
vt 0.42771232 0.7855558
vt 0.42771232 0.7855558
vt 0.43028045 0.7855558
vt 0.43028045 0.7855558
vt 0.43751848 0.7855558
vt 0.43751848 0.7855558
vt 0.42861602 0.7855558
vt 0.43180925 0.7855558
vt 0.43180925 0.7855558
vt 0.42861602 0.7855558
vt 0.0031696036 0.0026978704
vt 0.0031696036 0.20879471
vt 0.039971165 0.20879471
vt 0.039971165 0.0026978704
vn -0 1 1.6292067E-07
vn -0 1 1.6292067E-07
vn -0 1 1.6292067E-07
vn -0 1 1.6292067E-07
vn -1.2449738E-06 0.046997983 0.998895
vn -1.244974E-06 0.046997983 0.998895
vn -1.2449739E-06 0.046997983 0.998895
vn -1.244974E-06 0.046997987 0.998895
vn 6.103512E-07 1 0
vn 6.103512E-07 1 0
vn 6.103512E-07 1 0
vn 6.103512E-07 1 0
vn -5.2998246E-07 0.64666533 0.7627739
vn -5.299824E-07 0.6466653 0.76277393
vn -5.2998246E-07 0.64666533 0.7627739
vn -5.299824E-07 0.6466652 0.7627739
vn -1.4284335E-06 0.09941979 0.99504554
vn -1.4284336E-06 0.099419795 0.99504554
vn -1.4284334E-06 0.099419795 0.99504554
vn -1.4284336E-06 0.099419795 0.99504554
g wall1_2_0
f 3/3/3 2/2/2 1/1/1
f 4/4/4 3/3/3 1/1/1
f 7/7/7 6/6/6 5/5/5
f 8/8/8 7/7/7 5/5/5
f 11/11/11 10/10/10 9/9/9
f 12/12/12 11/11/11 9/9/9
f 15/15/15 14/14/14 13/13/13
f 16/16/16 15/15/15 13/13/13
f 19/19/19 18/18/18 17/17/17
f 20/20/20 19/19/19 17/17/17
