g wall_forest_S3_opacity
v 0.3304072 -1.007 -0.039406918
v 0.5034997 -1.007 -0.043194566
v 0.5034998 -0.47635826 0.1230781
v 0.32914805 -0.47635815 0.13413537
v 0.14001714 -0.47635823 0.17623101
v 0.14732765 -1.0070001 0.028322557
v -0.1598152 -0.47635823 0.1779867
v -0.15989657 -1.0070001 0.023594255
v -0.33824235 -0.47635812 0.1270782
v -0.34094128 -1.007 -0.047484722
v -0.5035 -1.007 -0.043195162
v -0.5035 -0.47635826 0.12307792
vt 0.10532725 0.41141704
vt 0.12941419 0.41141704
vt 0.12941419 0.4576141
vt 0.10532725 0.4576141
vt 0.0779652 0.4576141
vt 0.07796807 0.41141704
vt 0.05198199 0.4576141
vt 0.05198199 0.41141704
vt 0.023090405 0.4576141
vt 0.023090405 0.41141704
vt 0.0047081583 0.41141704
vt 0.0047081583 0.4576141
vn -0 1 -0.00015896125
vn -0 1 -0.00015896125
vn -0 1 -0.00015896125
vn -0 1 -0.00015896125
vn -0 1 -0.00015896125
vn -0 1 -0.00015896125
vn -0 1 -0.00015896125
vn -0 1 -0.00015896125
vn -0 1 -0.00015896125
vn -0 1 -0.00015896125
vn -0 1 -0.00015896125
vn -0 1 -0.00015896125
g wall_forest_S3_opacity_0
f 3/3/3 2/2/2 1/1/1
f 4/4/4 3/3/3 1/1/1
f 4/4/4 1/1/1 5/5/5
f 1/1/1 6/6/6 5/5/5
f 5/5/5 6/6/6 7/7/7
f 6/6/6 8/8/8 7/7/7
f 7/7/7 8/8/8 9/9/9
f 8/8/8 10/10/10 9/9/9
f 9/9/9 10/10/10 11/11/11
f 12/12/12 9/9/9 11/11/11
