g wall_brick_C1
v -1.0033269 1.7647266 -0.4005726
v -0.3892735 1.7647263 -0.3968578
v -1.003327 0.31475005 0.010055172
v 0.013821666 0.31474888 0.013822931
v -1.003327 0.31475073 0.23726362
v -1.003327 0.31475005 0.010055172
v 0.013821666 0.31474888 0.013822931
v 0.24241127 0.3147493 0.23939078
v 0.24463303 0.3147505 -1.0107266
v 0.01754206 0.31475005 -1.0107266
v -1.003327 -0.008574082 0.3527285
v -1.003327 0.31475073 0.23726362
v 0.24241127 0.3147493 0.23939078
v 0.3602745 -0.008809322 0.3527287
v 0.36027563 -0.008809483 -1.0107266
v 0.24463303 0.3147505 -1.0107266
v 0.01754206 0.31475005 -1.0107266
v 0.013821666 0.31474888 0.013822931
v -0.3892735 1.7647263 -0.3968578
v -0.39315408 1.7647266 -1.0107261
v -0.39315408 1.7647266 -1.0107261
v -0.92584777 1.7647266 -1.0107673
v -0.92594004 0.31475025 -1.0107694
v 0.01754206 0.31475005 -1.0107266
v -1.003327 0.31475005 0.010055172
v -1.0032357 0.3147502 -0.93328637
v -1.0032389 1.7647266 -0.9333803
v -1.0033269 1.7647266 -0.4005726
v 0.24463303 0.3147505 -1.0107266
v -0.92594004 0.31475025 -1.0107694
v -0.92593783 -0.0087354975 -1.0107698
v 0.36027563 -0.008809483 -1.0107266
v -1.003327 0.31475073 0.23726362
v -1.003327 -0.008574082 0.3527285
v -1.0032344 -0.008722129 -0.93328834
v -1.0032357 0.3147502 -0.93328637
v -0.92594004 0.31475025 -1.0107694
v -1.0032344 -0.008722129 -0.93328834
v -0.92593783 -0.0087354975 -1.0107698
v -1.0032357 0.3147502 -0.93328637
v -1.0032389 1.7647266 -0.9333803
v -0.92584777 1.7647266 -1.0107673
v -0.28042012 1.7645581 -0.20687222
v -0.96300066 1.764715 -0.2149614
v -0.9630006 2.1091764 -0.34806034
v -0.41357645 2.1091373 -0.34754333
v -0.20152763 1.764715 -0.9629909
v -0.2094598 1.7645578 -0.27618033
v -0.3433627 2.1091423 -0.41762742
v -0.34285894 2.1092193 -0.962991
v -0.92585754 2.0693214 -1.0107684
v -0.92587036 1.7647256 -1.0107689
v -0.25469273 1.7647262 -1.0107268
v -0.39655468 2.0692804 -1.0107268
v -1.003327 2.0692809 -0.40410417
v -1.0033271 1.7647257 -0.26224315
v -1.0032371 1.7647257 -0.93335706
v -1.0032382 2.0693164 -0.93336934
v -0.89766043 2.1092513 -0.96299106
v -0.34285894 2.1092193 -0.962991
v -0.3433627 2.1091423 -0.41762742
v -0.41357645 2.1091373 -0.34754333
v -0.96300083 2.1092463 -0.8924923
v -0.9630006 2.1091764 -0.34806034
v -0.92587036 1.7647256 -1.0107689
v -0.92585754 2.0693214 -1.0107684
v -1.0032382 2.0693164 -0.93336934
v -1.0032371 1.7647257 -0.93335706
v -0.92585754 2.0693214 -1.0107684
v -0.89766043 2.1092513 -0.96299106
v -0.96300083 2.1092463 -0.8924923
v -1.0032382 2.0693164 -0.93336934
v -0.28042012 1.7645581 -0.20687222
v -0.41357645 2.1091373 -0.34754333
v -0.3433627 2.1091423 -0.41762742
v -0.2094598 1.7645578 -0.27618033
v -1.0032382 2.0693164 -0.93336934
v -0.96300083 2.1092463 -0.8924923
v -0.9630006 2.1091764 -0.34806034
v -1.003327 2.0692809 -0.40410417
v -1.003327 2.0692809 -0.40410417
v -0.9630006 2.1091764 -0.34806034
v -0.96300066 1.764715 -0.2149614
v -1.0033271 1.7647257 -0.26224315
v -0.25469273 1.7647262 -1.0107268
v -0.20152763 1.764715 -0.9629909
v -0.34285894 2.1092193 -0.962991
v -0.39655468 2.0692804 -1.0107268
v -0.34285894 2.1092193 -0.962991
v -0.89766043 2.1092513 -0.96299106
v -0.92585754 2.0693214 -1.0107684
v -0.39655468 2.0692804 -1.0107268
vt 0.27354443 0.89020026
vt 0.32831067 0.89020026
vt 0.27354443 0.753821
vt 0.36082298 0.753821
vt 0.3635671 0.6516075
vt 0.3635671 0.6608291
vt 0.3635671 0.6608291
vt 0.3635671 0.6516075
vt 0.3635671 0.6516075
vt 0.3635671 0.6608291
vt 0.3635671 0.6270635
vt 0.3635671 0.6516075
vt 0.3635671 0.6516075
vt 0.3635671 0.6270635
vt 0.3635671 0.6270635
vt 0.3635671 0.6516075
vt 0.27354443 0.753821
vt 0.36082298 0.753821
vt 0.32831067 0.89020026
vt 0.27354443 0.89020026
vt 0.41446465 0.73382765
vt 0.40705281 0.73382765
vt 0.4070515 0.74617827
vt 0.420179 0.74617827
vt 0.420179 0.74617827
vt 0.40705347 0.74617827
vt 0.40705216 0.73382765
vt 0.4144656 0.73382765
vt 0.42333794 0.74617726
vt 0.40705067 0.74617726
vt 0.40705073 0.7475936
vt 0.42494696 0.7475939
vt 0.42334038 0.74617827
vt 0.42494696 0.7475939
vt 0.40705347 0.74759454
vt 0.40705347 0.74617827
vt 0.3810985 0.7457309
vt 0.38685468 0.74895114
vt 0.38109848 0.74895126
vt 0.38685483 0.7457309
vt 0.38684785 0.7329674
vt 0.38109866 0.7329674
vt 0.42652047 0.665424
vt 0.3674199 0.665424
vt 0.3673381 0.6816407
vt 0.4252933 0.6816407
vt 0.42876565 0.665424
vt 0.37461418 0.665424
vt 0.37580895 0.6816407
vt 0.4288453 0.6816407
vt 0.3914692 0.35295644
vt 0.3912036 0.33477914
vt 0.40412864 0.33477843
vt 0.40352643 0.3543046
vt 0.40450472 0.35301098
vt 0.4046196 0.3353382
vt 0.39120293 0.33477914
vt 0.3913528 0.3529459
vt 0.3942966 0.7024387
vt 0.40520805 0.69188255
vt 0.39460444 0.68127894
vt 0.3919019 0.681277
vt 0.39174125 0.7024387
vt 0.3812409 0.69193804
vt 0.3810991 0.7210596
vt 0.38109845 0.7329674
vt 0.3868478 0.7329674
vt 0.3868484 0.7210597
vt 0.41174918 0.34986475
vt 0.41174918 0.34249234
vt 0.41268563 0.34249234
vt 0.41268563 0.34986475
vt 0.37011003 0.665424
vt 0.37125725 0.6816407
vt 0.37580895 0.6816407
vt 0.37461418 0.665424
vt 0.41756225 0.34068236
vt 0.41174918 0.34068236
vt 0.41174918 0.33943027
vt 0.41756225 0.33943027
vt 0.41756225 0.33943027
vt 0.41174918 0.33943027
vt 0.41174918 0.32516032
vt 0.41756225 0.32516032
vt 0.41756225 0.32516032
vt 0.41174918 0.32516032
vt 0.41174918 0.33943027
vt 0.41756225 0.33943027
vt 0.41174918 0.33943027
vt 0.41174918 0.34068236
vt 0.41756225 0.34068236
vt 0.41756225 0.33943027
vn -0.0058204737 0.2724758 0.9621451
vn -0.0050227083 0.27216393 0.9622378
vn -0.0041203215 0.27181095 0.96234185
vn -0.003564669 0.27159348 0.96240544
vn 1.145285E-06 1 -3.0386E-06
vn 1.145285E-06 1 -3.0386E-06
vn 1.145285E-06 1 -3.0386004E-06
vn 1.145285E-06 1 -3.0386002E-06
vn -2.4456826E-06 1 1.0237637E-06
vn -2.4456826E-06 1 1.0237637E-06
vn -0.0007384221 0.33333665 0.9428075
vn -0.00073842204 0.33333665 0.9428075
vn 0.6274777 0.45093048 0.63477045
vn 0.633236 0.4509658 0.6290007
vn 0.94059044 0.33954212 0.0008001205
vn 0.94059044 0.3395421 0.0008001205
vn 0.9629465 0.2696902 0.0011358254
vn 0.96320045 0.26876143 0.0034979237
vn 0.9625233 0.27118602 -0.0026777806
vn 0.9621316 0.27251735 -0.006082009
vn 5.6885507E-05 8.875688E-06 -1
vn 5.6885507E-05 8.875688E-06 -1
vn 5.6885507E-05 8.875688E-06 -1
vn 5.6885507E-05 8.875688E-06 -1
vn -1 -1.8230538E-05 -0.00012142384
vn -1 -1.823054E-05 -0.00012142385
vn -1 -1.8230538E-05 -0.00012142384
vn -1 -1.823054E-05 -0.00012142384
vn 3.502456E-05 6.9722705E-06 -1
vn -0.5059785 1.8537365E-06 -0.862546
vn -0.3831992 3.178681E-06 -0.9236657
vn 3.502456E-05 6.9722705E-06 -1
vn -1 -1.5503543E-05 -7.487032E-05
vn -1 -1.5503543E-05 -7.487032E-05
vn -0.9240826 -8.98323E-06 -0.38219297
vn -0.8631599 -6.178539E-06 -0.5049308
vn -0.5059785 1.8537365E-06 -0.862546
vn -0.9240826 -8.98323E-06 -0.38219297
vn -0.3831992 3.178681E-06 -0.9236657
vn -0.8631599 -6.178539E-06 -0.5049308
vn -0.7075251 -6.8557546E-07 -0.70668834
vn -0.7075251 -6.8557546E-07 -0.70668834
vn -0.0064361123 0.36816087 0.9297398
vn -0.41155425 0.3420748 0.8447532
vn -0.42305893 0.34031528 0.8397659
vn -0.0064361123 0.36816087 0.9297398
vn 0.8559701 0.3534941 -0.3773025
vn 0.92818886 0.37205395 0.0064254366
vn 0.92818886 0.37205395 0.0064254366
vn 0.8508447 0.35179004 -0.39026532
vn 6.9758076E-05 1.7000875E-05 -1
vn 6.9758076E-05 1.7000875E-05 -1
vn 6.9758076E-05 1.7000875E-05 -1
vn 6.975808E-05 1.7000875E-05 -1
vn -1 -3.621646E-05 -0.00014900033
vn -1 -3.621646E-05 -0.00014900033
vn -1 -3.621646E-05 -0.00014900033
vn -1 -3.621646E-05 -0.00014900033
vn -0.13243742 0.9269105 -0.35113707
vn 6.770243E-05 0.9707907 -0.23992808
vn 6.2886924E-05 1 0.00013607155
vn 6.7528956E-05 1 0.0001315985
vn -0.38598746 0.915966 -0.1096357
vn -0.25255686 0.967582 9.548251E-05
vn -0.7072519 0 -0.7069617
vn -0.70725185 0 -0.70696163
vn -0.7072519 0 -0.7069617
vn -0.7072519 0 -0.7069617
vn -0.23583266 0.8151938 -0.52900094
vn -0.13243742 0.9269105 -0.35113707
vn -0.38598746 0.915966 -0.1096357
vn -0.5434057 0.797637 -0.26169714
vn 0.6120839 0.4909644 0.6199252
vn 0.6120839 0.49096447 0.6199252
vn 0.612084 0.4909644 0.6199252
vn 0.6120839 0.4909644 0.6199252
vn -0.5434057 0.797637 -0.26169714
vn -0.38598746 0.915966 -0.1096357
vn -0.25255686 0.967582 9.548251E-05
vn -0.70385134 0.7103473 1.1617003E-05
vn -0.8082324 0.2297114 0.54221123
vn -0.42305893 0.34031528 0.8397659
vn -0.41155425 0.3420748 0.8447532
vn -0.80823237 0.22971138 0.5422113
vn 0.58874834 0.25687885 -0.76641285
vn 0.8559701 0.3534941 -0.3773025
vn 0.8508447 0.35179004 -0.39026532
vn 0.5887484 0.25687885 -0.76641285
vn 6.770243E-05 0.9707907 -0.23992808
vn -0.13243742 0.9269105 -0.35113707
vn -0.23583266 0.8151938 -0.52900094
vn 7.617647E-05 0.7671048 -0.6415217
g wall_brick_C1_0
f 3/3/3 2/2/2 1/1/1
f 4/4/4 2/2/2 3/3/3
f 7/7/7 6/6/6 5/5/5
f 8/8/8 7/7/7 5/5/5
f 8/8/8 9/9/9 7/7/7
f 9/9/9 10/10/10 7/7/7
f 13/13/13 12/12/12 11/11/11
f 14/14/14 13/13/13 11/11/11
f 14/14/14 15/15/15 13/13/13
f 15/15/15 16/16/16 13/13/13
f 19/19/19 18/18/18 17/17/17
f 20/20/20 19/19/19 17/17/17
f 23/23/23 22/22/22 21/21/21
f 24/24/24 23/23/23 21/21/21
f 27/27/27 26/26/26 25/25/25
f 28/28/28 27/27/27 25/25/25
f 31/31/31 30/30/30 29/29/29
f 32/32/32 31/31/31 29/29/29
f 35/35/35 34/34/34 33/33/33
f 36/36/36 35/35/35 33/33/33
f 39/39/39 38/38/38 37/37/37
f 38/38/38 40/40/40 37/37/37
f 40/40/40 41/41/41 37/37/37
f 41/41/41 42/42/42 37/37/37
f 45/45/45 44/44/44 43/43/43
f 46/46/46 45/45/45 43/43/43
f 49/49/49 48/48/48 47/47/47
f 50/50/50 49/49/49 47/47/47
f 53/53/53 52/52/52 51/51/51
f 54/54/54 53/53/53 51/51/51
f 57/57/57 56/56/56 55/55/55
f 58/58/58 57/57/57 55/55/55
f 61/61/61 60/60/60 59/59/59
f 61/61/61 59/59/59 62/62/62
f 59/59/59 63/63/63 62/62/62
f 62/62/62 63/63/63 64/64/64
f 67/67/67 66/66/66 65/65/65
f 68/68/68 67/67/67 65/65/65
f 71/71/71 70/70/70 69/69/69
f 72/72/72 71/71/71 69/69/69
f 75/75/75 74/74/74 73/73/73
f 76/76/76 75/75/75 73/73/73
f 79/79/79 78/78/78 77/77/77
f 80/80/80 79/79/79 77/77/77
f 83/83/83 82/82/82 81/81/81
f 84/84/84 83/83/83 81/81/81
f 87/87/87 86/86/86 85/85/85
f 88/88/88 87/87/87 85/85/85
f 91/91/91 90/90/90 89/89/89
f 92/92/92 91/91/91 89/89/89
