g wall_1_S
v 0.5 -0.20915413 0.019944102
v -0.49999994 0.040845904 0.25000006
v 0.50000006 0.040845927 0.4999999
v -0.4999999 0.040845927 0.50000006
v 0.5 0.040845904 0.24999993
v -0.5 -0.20915413 0.019944252
v 0.50000006 6.532485E-08 0.54798454
v -0.4999999 6.5324876E-08 0.5479847
v 0.5 -0.27334502 0.019944109
v -0.5 -0.27334502 0.01994426
v 0.5 0.040845904 0.24999993
v -0.49999994 0.040845904 0.25000006
v 0.50000006 0.040845927 0.4999999
v -0.4999999 0.040845927 0.50000006
v -0.5 -0.20915413 0.019944252
v 0.5 -0.20915413 0.019944102
vt 0.010565848 0.8750026
vt 0.029615944 0.9043399
vt 0.010565848 0.9336015
vt 0.029616075 0.9336015
vt 0.010565848 0.9043401
vt 0.029615736 0.8750026
vt 0.010565848 0.9366391
vt 0.029616104 0.9366391
vt 0.010565848 0.8703064
vt 0.029615676 0.8703064
vt 0.010565848 0.9043401
vt 0.029615944 0.9043399
vt 0.010565848 0.9336015
vt 0.029616075 0.9336015
vt 0.029615736 0.8750026
vt 0.010565848 0.8750026
vn -1.1228166E-07 0.6771454 -0.73584926
vn -0 1 0
vn -0 1 0
vn -0 1 0
vn -0 1 0
vn -1.1228166E-07 0.6771454 -0.73584926
vn -0 0.7614779 0.6481909
vn -0 0.7614778 0.6481909
vn -1.502037E-07 -1.1142633E-07 -1
vn -1.502037E-07 -1.1142633E-07 -1
vn -1.1228166E-07 0.6771454 -0.73584926
vn -1.1228166E-07 0.6771454 -0.73584926
vn -0 0.7614778 0.6481909
vn -0 0.7614779 0.6481909
vn -1.502037E-07 -1.1142633E-07 -1
vn -1.502037E-07 -1.1142633E-07 -1
g wall_1_S_0
f 4/4/4 3/3/3 5/5/5
f 2/2/2 4/4/4 5/5/5
f 6/6/6 12/12/12 11/11/11
f 1/1/1 6/6/6 11/11/11
f 8/8/8 7/7/7 13/13/13
f 14/14/14 8/8/8 13/13/13
f 9/9/9 10/10/10 15/15/15
f 16/16/16 9/9/9 15/15/15
