g wall_police_CS
v -0.49135962 2.2903287 -0.492194
v -0.5043027 2.2819297 -0.5034999
v -0.49135962 2.2903287 -0.5034999
v -0.5043027 2.2903287 -0.49219406
v -0.5043027 2.2819297 -0.5034999
v -0.49135962 2.2903287 -0.492194
v -0.18035702 2.2903285 -0.18035704
v -0.5043027 2.2903285 -0.18035704
v -0.50430256 2.290329 -0.4921941
v -0.49135962 2.2903287 -0.492194
v -0.5043027 2.2620597 -0.14096057
v -0.5043027 2.2903285 -0.18035704
v -0.18035702 2.2903285 -0.18035704
v -0.14096059 2.2620597 -0.1409606
v 0.43867552 0.12868644 0.43867555
v 0.5029326 -0.0016975916 0.50293267
v -0.5034999 -0.0016977452 0.5029326
v -0.50349987 0.12868644 0.43867555
v 0.3793537 0.15064035 0.3793537
v -0.50349987 0.15064035 0.37935367
v -0.14096059 2.2620597 -0.1409606
v -0.09649693 2.0841744 -0.09649693
v -0.5043027 2.0841744 -0.09649691
v -0.5043027 2.2620597 -0.14096057
v -0.11757435 2.1080182 -0.11757436
v 0.3793537 0.15064035 0.3793537
v -0.50349987 0.15064035 0.37935367
v -0.50349885 2.1080182 -0.11757435
v -0.18035702 2.2903285 -0.50430274
v -0.18035702 2.2903285 -0.18035704
v -0.49135962 2.2903287 -0.492194
v -0.49135962 2.290329 -0.503528
v -0.18035702 2.2903285 -0.18035704
v -0.18035702 2.2903285 -0.50430274
v -0.14096056 2.2620597 -0.5043027
v -0.14096059 2.2620597 -0.1409606
v 0.43867552 0.12868644 0.43867555
v 0.5029327 -0.0016977452 -0.5034999
v 0.5029326 -0.0016975916 0.50293267
v 0.43867564 0.12868644 -0.50349987
v 0.3793537 0.15064035 0.3793537
v 0.37935373 0.15064035 -0.50349987
v -0.14096059 2.2620597 -0.1409606
v -0.14096056 2.2620597 -0.5043027
v -0.096496895 2.0841744 -0.50430274
v -0.09649693 2.0841744 -0.09649693
v -0.11757435 2.1080182 -0.11757436
v -0.11757433 2.1080182 -0.50349885
v 0.37935373 0.15064035 -0.50349987
v 0.3793537 0.15064035 0.3793537
vt 0.06602817 0.99863625
vt 0.0667865 0.9968609
vt 0.06602817 0.9950858
vt 0.06602817 0.99863625
vt 0.0667865 0.9968609
vt 0.06602817 0.9950858
vt 0.03823999 0.996227
vt 0.03823999 0.9950858
vt 0.06602817 0.9950858
vt 0.06602817 0.9951139
vt 0.033702232 0.9950858
vt 0.03823999 0.9950858
vt 0.03823999 0.996227
vt 0.033702232 0.99636585
vt 0.029290596 0.88127077
vt 0.027060097 0.8741894
vt 0.06199543 0.8741894
vt 0.061995436 0.88127077
vt 0.031349797 0.88584924
vt 0.06199544 0.88584924
vt 0.033702232 0.9973562
vt 0.027089586 0.99719954
vt 0.027089588 0.99863625
vt 0.033702232 0.99863625
vt 0.038202956 0.9785353
vt 0.027975697 0.8886397
vt 0.04614564 0.8886396
vt 0.04614564 0.9785353
vt 0.03823999 0.9950858
vt 0.03823999 0.996227
vt 0.06602817 0.995114
vt 0.06602817 0.9950857
vt 0.03823999 0.996227
vt 0.03823999 0.9950858
vt 0.033702232 0.9950858
vt 0.033702232 0.99636585
vt 0.029290596 0.88127077
vt 0.06199543 0.8741894
vt 0.027060097 0.8741894
vt 0.061995436 0.88127077
vt 0.031349797 0.88584924
vt 0.06199544 0.88584924
vt 0.033702232 0.9973562
vt 0.033702232 0.99863625
vt 0.027089588 0.99863625
vt 0.027089586 0.99719954
vt 0.038202956 0.9785353
vt 0.04614564 0.9785353
vt 0.04614564 0.8886396
vt 0.027975697 0.8886397
vn -0.31611025 0.898222 -0.30540383
vn -0.2734115 0.89517015 -0.35201803
vn -0.54435855 0.83885264 0
vn 3.5398357E-06 0.80272657 -0.5963473
vn -0.2734115 0.89517015 -0.35201803
vn -0.31611025 0.898222 -0.30540383
vn 9.67918E-07 1 9.700587E-07
vn 9.122063E-07 1 1.0233513E-06
vn 9.122064E-07 1 1.0233513E-06
vn 9.680447E-07 1 9.699373E-07
vn -0 0.81247926 0.58299005
vn -0 0.81247926 0.58299005
vn 0.31994563 0.8917789 0.31994557
vn 0.31994557 0.89177895 0.3199456
vn 0.46953714 0.74770963 0.4695372
vn 0.5801102 0.57179046 0.58011025
vn -0 0.44206044 0.8969853
vn -0 0.7427175 0.66960484
vn 0.17901275 0.9674239 0.1790127
vn -0 0.9378371 0.34707588
vn 0.66667944 0.3332823 0.66667944
vn 0.6666794 0.33328226 0.66667944
vn -0 0.24249631 0.9701524
vn -0 0.2424963 0.9701524
vn -0 0.24606833 0.96925247
vn -0 0.24606837 0.96925247
vn -0 0.24606836 0.96925247
vn -0 0.24606836 0.96925247
vn 1.02382E-06 1 9.16584E-07
vn 9.67918E-07 1 9.700587E-07
vn 9.680447E-07 1 9.699373E-07
vn 1.02382E-06 1 9.16584E-07
vn 0.31994563 0.8917789 0.31994557
vn 0.58299017 0.8124792 0
vn 0.58299017 0.8124792 0
vn 0.31994557 0.89177895 0.3199456
vn 0.46953714 0.74770963 0.4695372
vn 0.8969852 0.44206053 0
vn 0.5801102 0.57179046 0.58011025
vn 0.66960484 0.7427175 0
vn 0.17901275 0.9674239 0.1790127
vn 0.3470759 0.937837 0
vn 0.66667944 0.3332823 0.66667944
vn 0.9701524 0.24249625 1.3131742E-07
vn 0.9701524 0.24249628 1.3131742E-07
vn 0.6666794 0.33328226 0.66667944
vn 0.96925247 0.24606836 0
vn 0.96925247 0.24606836 0
vn 0.96925247 0.24606837 0
vn 0.96925247 0.24606837 0
g wall_police_CS_0
f 3/3/3 2/2/2 1/1/1
f 6/6/6 5/5/5 4/4/4
f 9/9/9 8/8/8 7/7/7
f 10/10/10 9/9/9 7/7/7
f 13/13/13 12/12/12 11/11/11
f 14/14/14 13/13/13 11/11/11
f 17/17/17 16/16/16 15/15/15
f 18/18/18 17/17/17 15/15/15
f 18/18/18 15/15/15 19/19/19
f 20/20/20 18/18/18 19/19/19
f 23/23/23 22/22/22 21/21/21
f 24/24/24 23/23/23 21/21/21
f 27/27/27 26/26/26 25/25/25
f 28/28/28 27/27/27 25/25/25
f 31/31/31 30/30/30 29/29/29
f 32/32/32 31/31/31 29/29/29
f 35/35/35 34/34/34 33/33/33
f 36/36/36 35/35/35 33/33/33
f 39/39/39 38/38/38 37/37/37
f 38/38/38 40/40/40 37/37/37
f 37/37/37 40/40/40 41/41/41
f 40/40/40 42/42/42 41/41/41
f 45/45/45 44/44/44 43/43/43
f 46/46/46 45/45/45 43/43/43
f 49/49/49 48/48/48 47/47/47
f 50/50/50 49/49/49 47/47/47
