g wall_partition_03
v -0.47582114 0.43649477 0.50349796
v -0.47582117 0.33966193 0.50349796
v -0.4758209 0.33966208 -0.503502
v -0.4758209 0.43649498 -0.503502
v -0.30065894 0.5670877 -0.5034995
v -0.3009376 1.7956021 -0.5034989
v -0.30093786 1.795602 0.50350106
v -0.3006592 0.5670876 0.5035005
v -0.47004002 0.5661591 0.5035002
v -0.45253113 0.5661593 0.23552755
v -0.45244324 0.7531094 0.2818019
v -0.45244333 0.7531093 0.5035002
v -0.45244324 0.7531094 0.2818019
v -0.30075955 0.75310963 0.26639724
v -0.30075964 0.7531093 0.50349975
v -0.45244333 0.7531093 0.5035002
v -0.42149323 1.606376 0.30596286
v -0.4214933 1.6063758 0.4870481
v -0.4214933 0.7520487 0.48704785
v -0.42149323 0.75204897 0.3059628
v -0.4701581 1.7929283 0.2412308
v -0.47004002 1.7929282 0.50350034
v -0.47004002 1.6059781 0.5035003
v -0.4701581 1.6059781 0.26982692
v -0.49653795 2.0024936 0.5034981
v -0.50593096 1.7915276 0.5034981
v -0.5059307 1.7915274 -0.5035018
v -0.49653772 2.0024936 -0.5035018
v -0.49653772 2.0024936 -0.5035018
v -0.039121933 2.0118864 -0.5035018
v -0.039122164 2.0118864 0.5034982
v -0.49653795 2.0024936 0.5034981
v -0.50353 0.3403595 0.5034994
v -0.50352776 -0.0042345054 0.5034992
v -0.5035275 -0.004234369 -0.5035006
v -0.5035298 0.34035966 -0.5035006
v -0.30075958 0.340361 0.5034995
v -0.50353 0.3403595 0.5034994
v -0.5035298 0.34035966 -0.5035006
v -0.30075932 0.34036112 -0.5035005
v -0.50352997 0.5670946 0.50349927
v -0.5035277 0.43628973 0.50349957
v -0.50352746 0.4362899 -0.5035005
v -0.5035297 0.5670948 -0.5035006
v -0.3006592 0.5670876 0.5035005
v -0.50352997 0.5670946 0.50349927
v -0.5035297 0.5670948 -0.5035006
v -0.30065894 0.5670877 -0.5034995
v -0.45244318 0.75310946 -0.28180394
v -0.3007595 0.7531097 -0.26639923
v -0.30075952 0.5661592 -0.22011498
v -0.47003514 0.56615937 -0.23553155
v -0.42149317 1.6063768 -0.3002966
v -0.3007595 1.6063764 -0.28861687
v -0.3007595 0.75204885 -0.28861693
v -0.42149317 0.7520491 -0.30029666
v -0.47016525 1.7929283 -0.24123271
v -0.30075952 1.7929283 -0.21613456
v -0.30075952 1.6059778 -0.24473082
v -0.47016528 1.6059781 -0.2698289
v -0.45244318 0.75310946 -0.28180394
v -0.45244303 0.7531094 -0.50350004
v -0.30075938 0.75310946 -0.50350004
v -0.3007595 0.7531097 -0.26639923
v -0.42149314 1.6063764 -0.48364052
v -0.42149317 1.6063768 -0.3002966
v -0.42149317 0.7520491 -0.30029666
v -0.42149314 0.7520488 -0.48364052
v -0.4700397 1.7929282 -0.5034999
v -0.47016525 1.7929283 -0.24123271
v -0.47016528 1.6059781 -0.2698289
v -0.4700397 1.6059781 -0.5034999
v -0.4700397 0.5661593 -0.50350004
v -0.45244303 0.7531094 -0.50350004
v -0.45244318 0.75310946 -0.28180394
v -0.47003514 0.56615937 -0.23553155
v -0.30075955 0.5661591 0.22011386
v -0.30075955 0.75310963 0.26639724
v -0.45244324 0.7531094 0.2818019
v -0.45253113 0.5661593 0.23552755
v -0.30075958 0.7520487 0.28858835
v -0.30075958 1.6063764 0.2885884
v -0.42149323 1.606376 0.30596286
v -0.42149323 0.75204897 0.3059628
v -0.30075955 1.6059778 0.24472986
v -0.30075955 1.7929283 0.21613365
v -0.4701581 1.7929283 0.2412308
v -0.4701581 1.6059781 0.26982692
v -0.3007595 0.7520488 -0.50130945
v -0.3007595 1.6063764 -0.50130934
v -0.42149314 1.6063764 -0.48364052
v -0.42149314 0.7520488 -0.48364052
v -0.4214933 1.6063758 0.4870481
v -0.3007596 1.6063758 0.5018231
v -0.3007596 0.7520485 0.501823
v -0.4214933 0.7520487 0.48704785
vt 0.37497705 0.52382
vt 0.37497705 0.51817054
vt 0.31606412 0.51817054
vt 0.31606412 0.52382004
vt 0.34247845 0.5868549
vt 0.34247845 0.61622196
vt 0.3757575 0.61622196
vt 0.3757575 0.5868549
vt 0.3218528 0.53573644
vt 0.33406538 0.53573644
vt 0.33406538 0.54875
vt 0.3218528 0.54875
vt 0.33369645 0.5502444
vt 0.33371434 0.5546156
vt 0.32178125 0.5546156
vt 0.32178125 0.5502444
vt 0.33498266 0.5968877
vt 0.32056206 0.5968877
vt 0.32056206 0.5583363
vt 0.33498257 0.5583363
vt 0.3346611 0.61541665
vt 0.32155985 0.61541665
vt 0.32155985 0.60135514
vt 0.3346611 0.601355
vt 0.37064826 0.6300435
vt 0.37064826 0.6167929
vt 0.3219218 0.6167929
vt 0.3219218 0.6300436
vt 0.3219218 0.63226485
vt 0.3219218 0.6435896
vt 0.37064826 0.6435896
vt 0.37064826 0.6322648
vt 0.37497705 0.5146616
vt 0.37497705 0.5025809
vt 0.31606412 0.5025809
vt 0.31606412 0.5146616
vt 0.37497705 0.5221916
vt 0.37497705 0.51576954
vt 0.31606412 0.51576954
vt 0.31606412 0.5221916
vt 0.37497705 0.53078234
vt 0.37497705 0.5245816
vt 0.31606412 0.5245816
vt 0.31606415 0.53078234
vt 0.34552062 0.5336812
vt 0.34552062 0.531863
vt 0.34552062 0.531863
vt 0.34552062 0.5336812
vt 0.3353103 0.54875
vt 0.3411514 0.54875
vt 0.3411514 0.53573644
vt 0.3353103 0.53573644
vt 0.33587882 0.5968877
vt 0.3409929 0.5968877
vt 0.3409929 0.5583363
vt 0.33587882 0.5583363
vt 0.33584556 0.61541665
vt 0.3411831 0.61541665
vt 0.3411831 0.601355
vt 0.33584556 0.601355
vt 0.3337055 0.5502675
vt 0.32178125 0.5502675
vt 0.32178125 0.5546156
vt 0.33372337 0.5546156
vt 0.32076105 0.5968877
vt 0.33518165 0.5968877
vt 0.3351816 0.5583363
vt 0.32076108 0.5583363
vt 0.32155985 0.61541665
vt 0.3346611 0.61541665
vt 0.3346611 0.601355
vt 0.32155985 0.60135514
vt 0.32178125 0.5366287
vt 0.32190818 0.54837424
vt 0.33383065 0.54837424
vt 0.33383065 0.5366287
vt 0.3411514 0.53573644
vt 0.3411514 0.54875
vt 0.3353103 0.54875
vt 0.3353103 0.53573644
vt 0.3409929 0.5583363
vt 0.3409929 0.5968877
vt 0.33587882 0.5968877
vt 0.33587882 0.5583363
vt 0.3411831 0.601355
vt 0.3411831 0.61541665
vt 0.33584556 0.61541665
vt 0.33584556 0.601355
vt 0.3409929 0.5583363
vt 0.3409929 0.5968877
vt 0.3356646 0.5968877
vt 0.3356646 0.5583363
vt 0.3356646 0.5968877
vt 0.3409929 0.5968877
vt 0.3409929 0.5583363
vt 0.3356646 0.5583363
vn -1 1.9835213E-07 -2.4795534E-07
vn -1 1.9835213E-07 -2.479553E-07
vn -1 1.9835211E-07 -2.479553E-07
vn -1 1.9835213E-07 -2.479553E-07
vn -1 -0.00022682287 -2.6705885E-07
vn -1 -0.00022682289 -2.6705882E-07
vn -1 -0.00022682289 -2.6705882E-07
vn -1 -0.00022682289 -2.6705882E-07
vn -0.99802893 0.051620908 -0.035686042
vn -0.99802893 0.051620908 -0.035686046
vn -0.99802893 0.05162091 -0.035686046
vn -0.99802893 0.05162091 -0.035686046
vn -7.002282E-07 1 1.1721773E-06
vn -7.0022827E-07 1 1.1721773E-06
vn -7.002282E-07 1 1.1721773E-06
vn -7.002282E-07 1 1.1721773E-06
vn -1 0 -2.121323E-07
vn -1 0 -2.1213228E-07
vn -1 0 -2.1213228E-07
vn -1 0 -2.1213228E-07
vn -0.9999999 3.6420224E-05 0.0004762025
vn -0.9999999 3.642022E-05 0.00047620255
vn -0.9999999 3.642022E-05 0.0004762025
vn -0.9999999 3.6420224E-05 0.0004762025
vn -0.9990103 0.044479646 -2.3193013E-07
vn -0.9990103 0.044479646 -2.3193013E-07
vn -0.9990103 0.044479646 -2.3193012E-07
vn -0.9990103 0.044479646 -2.3193013E-07
vn -0.020530244 0.9997893 0
vn -0.020530242 0.9997893 0
vn -0.020530244 0.9997893 0
vn -0.02053024 0.9997893 0
vn -1 -6.5213535E-06 -2.479563E-07
vn -1 -6.521353E-06 -2.4795628E-07
vn -1 -6.5213535E-06 -2.479563E-07
vn -1 -6.521354E-06 -2.4795628E-07
vn -7.2936614E-06 1 1.3351247E-07
vn -7.2936614E-06 1 1.3351249E-07
vn -7.2936605E-06 1 1.3351247E-07
vn -7.2936614E-06 1 1.3351247E-07
vn -1 -1.7326767E-05 -2.670314E-07
vn -1 -1.7326767E-05 -2.670314E-07
vn -1 -1.7326767E-05 -2.670314E-07
vn -1 -1.7326769E-05 -2.6703142E-07
vn 3.4746106E-05 1 1.3352371E-07
vn 3.474611E-05 1 1.3352373E-07
vn 3.4746106E-05 1 1.3352371E-07
vn 3.4746106E-05 1 1.3352373E-07
vn -0.092715055 0.24336383 0.96549356
vn -0.09271504 0.2433638 0.96549356
vn -0.09271505 0.2433638 0.96549356
vn -0.092715055 0.2433638 0.96549356
vn -0.09629003 0 0.99535334
vn -0.09629003 0 0.99535334
vn -0.09629003 0 0.99535334
vn -0.09629002 0 0.99535334
vn -0.14490484 -0.149607 0.97806966
vn -0.14490484 -0.14960702 0.9780698
vn -0.14490484 -0.14960703 0.9780698
vn -0.14490484 -0.14960703 0.9780698
vn -9.789899E-07 1 -6.6982204E-07
vn -9.789899E-07 1 -6.6982204E-07
vn -9.7899E-07 1 -6.698221E-07
vn -9.789899E-07 1 -6.69822E-07
vn -1 0 -2.0951884E-07
vn -1 0 -2.0951882E-07
vn -1 0 -2.0951884E-07
vn -1 0 -2.0951883E-07
vn -0.9999999 3.8827882E-05 -0.0005063378
vn -0.9999999 3.8827886E-05 -0.0005063378
vn -0.9999999 3.8827882E-05 -0.0005063378
vn -0.9999999 3.8827882E-05 -0.0005063378
vn -0.99560046 0.093699455 8.950541E-06
vn -0.99560046 0.09369945 8.95054E-06
vn -0.99560046 0.093699455 8.950541E-06
vn -0.99560046 0.09369945 8.950541E-06
vn -0.098106556 0.23915593 -0.96601224
vn -0.09810655 0.23915593 -0.96601224
vn -0.09810655 0.2391559 -0.96601224
vn -0.09810654 0.2391559 -0.96601224
vn -0.14243989 0 -0.98980343
vn -0.14243989 0 -0.98980343
vn -0.14243989 0 -0.98980343
vn -0.14243989 0 -0.98980343
vn -0.1449053 -0.14960682 -0.97806966
vn -0.14490531 -0.14960682 -0.97806966
vn -0.1449053 -0.14960682 -0.97806966
vn -0.14490533 -0.14960684 -0.97806966
vn -0.14480324 0 -0.98946047
vn -0.14480324 0 -0.98946047
vn -0.14480324 0 -0.98946047
vn -0.14480324 0 -0.98946047
vn -0.12147142 -2.233519E-07 0.9925949
vn -0.12147142 -2.233519E-07 0.9925949
vn -0.12147142 -2.2335189E-07 0.9925949
vn -0.12147142 -2.233519E-07 0.9925949
g wall_partition_03_0
f 3/3/3 2/2/2 1/1/1
f 4/4/4 3/3/3 1/1/1
f 7/7/7 6/6/6 5/5/5
f 8/8/8 7/7/7 5/5/5
f 11/11/11 10/10/10 9/9/9
f 12/12/12 11/11/11 9/9/9
f 15/15/15 14/14/14 13/13/13
f 16/16/16 15/15/15 13/13/13
f 19/19/19 18/18/18 17/17/17
f 20/20/20 19/19/19 17/17/17
f 23/23/23 22/22/22 21/21/21
f 24/24/24 23/23/23 21/21/21
f 27/27/27 26/26/26 25/25/25
f 28/28/28 27/27/27 25/25/25
f 31/31/31 30/30/30 29/29/29
f 32/32/32 31/31/31 29/29/29
f 35/35/35 34/34/34 33/33/33
f 36/36/36 35/35/35 33/33/33
f 39/39/39 38/38/38 37/37/37
f 40/40/40 39/39/39 37/37/37
f 43/43/43 42/42/42 41/41/41
f 44/44/44 43/43/43 41/41/41
f 47/47/47 46/46/46 45/45/45
f 48/48/48 47/47/47 45/45/45
f 51/51/51 50/50/50 49/49/49
f 52/52/52 51/51/51 49/49/49
f 55/55/55 54/54/54 53/53/53
f 56/56/56 55/55/55 53/53/53
f 59/59/59 58/58/58 57/57/57
f 60/60/60 59/59/59 57/57/57
f 63/63/63 62/62/62 61/61/61
f 64/64/64 63/63/63 61/61/61
f 67/67/67 66/66/66 65/65/65
f 68/68/68 67/67/67 65/65/65
f 71/71/71 70/70/70 69/69/69
f 72/72/72 71/71/71 69/69/69
f 75/75/75 74/74/74 73/73/73
f 76/76/76 75/75/75 73/73/73
f 79/79/79 78/78/78 77/77/77
f 80/80/80 79/79/79 77/77/77
f 83/83/83 82/82/82 81/81/81
f 84/84/84 83/83/83 81/81/81
f 87/87/87 86/86/86 85/85/85
f 88/88/88 87/87/87 85/85/85
f 91/91/91 90/90/90 89/89/89
f 92/92/92 91/91/91 89/89/89
f 95/95/95 94/94/94 93/93/93
f 96/96/96 95/95/95 93/93/93
