g wall_fence2
v 0.49185732 0.53375345 0.2380943
v 0.2892273 0.6062817 0.22645336
v 0.46723747 0.6064152 0.22645336
v 0.26119784 0.12511028 0.07111558
v 0.28210413 -0.012302621 0.0711156
v 0.2892273 0.6062817 0.09439798
v -0.251876 0.065649025 0.0711156
v -0.22467189 -0.012302621 0.0711156
v -0.25671187 0.5638624 0.09439798
v 0.503374 -0.012302852 0.24973531
v 0.28210413 -0.012302852 0.24973531
v 0.49185732 0.53375345 0.2380943
v 0.2892273 0.6062817 0.22645336
v 0.26119784 0.12511021 0.24973531
v 0.22114387 -0.012302852 0.24973531
v -0.00012599792 -0.012302852 0.24973531
v 0.03129604 0.6803144 0.22645336
v 0.05889366 0.7983065 0.21102469
v 0.26019248 0.7773092 0.21102472
v -0.251876 0.06564872 0.24973531
v -0.22467189 -0.012302852 0.24973531
v -0.25671187 0.5638624 0.22645332
v -0.2790801 -0.012302852 0.24973531
v -0.503626 -0.012302852 0.24973531
v -0.22665074 0.74039716 0.21538064
v 0.01601618 0.7701881 0.21538064
v -0.44945034 0.58959854 0.22645336
v -0.498579 0.54160535 0.22845869
v -0.498579 0.54160535 0.09239258
v -0.25671187 0.5638624 0.09439798
v -0.44945034 0.58959854 0.094398
v -0.251876 0.065649025 0.0711156
v -0.503626 -0.012302621 0.0711156
v -0.2790801 -0.012302621 0.0711156
v -0.00012599792 -0.012302621 0.0711156
v 0.22114387 -0.012302621 0.0711156
v 0.26119784 0.12511028 0.07111558
v 0.03129604 0.7098889 0.09439798
v 0.2892273 0.6062817 0.09439798
v 0.26019248 0.7773092 0.10982648
v 0.05889366 0.7983065 0.10982648
v -0.25671187 0.5638624 0.09439798
v -0.22467189 -0.012302621 0.0711156
v 0.01601618 0.7701881 0.105470605
v -0.22665074 0.74039716 0.10547062
v 0.2892273 0.6062817 0.09439798
v 0.49185732 0.53375345 0.0827568
v 0.46723747 0.6064153 0.094398
v 0.503374 -0.012302621 0.0711156
v 0.28210413 -0.012302621 0.0711156
v 0.49185732 0.53375345 0.2380943
v 0.46723747 0.6064153 0.094398
v 0.49185732 0.53375345 0.0827568
v 0.46723747 0.6064152 0.22645336
v 0.26019248 0.7773092 0.10982648
v 0.05889366 0.7983065 0.21102469
v 0.05889366 0.7983065 0.10982648
v 0.26019248 0.7773092 0.21102472
v 0.01601618 0.7701881 0.105470605
v -0.22665074 0.74039716 0.21538064
v -0.22665074 0.74039716 0.10547062
v 0.01601618 0.7701881 0.21538064
v -0.25671187 0.5638624 0.09439798
v -0.44945034 0.58959854 0.22645336
v -0.44945034 0.58959854 0.094398
v -0.25671187 0.5638624 0.22645332
v 0.03129604 0.6803144 0.22645336
v 0.05889366 0.7983065 0.10982648
v 0.05889366 0.7983065 0.21102469
v 0.03129604 0.7098889 0.09439798
v 0.2892273 0.6062817 0.09439798
v 0.26019248 0.7773092 0.21102472
v 0.26019248 0.7773092 0.10982648
v 0.2892273 0.6062817 0.22645336
v -0.25671187 0.5638624 0.22645332
v -0.22665074 0.74039716 0.10547062
v -0.22665074 0.74039716 0.21538064
v -0.25671187 0.5638624 0.09439798
v 0.03129604 0.7098889 0.09439798
v 0.01601618 0.7701881 0.21538064
v 0.01601618 0.7701881 0.105470605
v 0.03129604 0.6803144 0.22645336
v 0.503374 0.37053305 0.25845832
v 0.32732615 0.33784333 0.25845832
v 0.503374 0.46068347 0.2584585
v -0.00012599792 0.4812562 0.2584585
v -0.503626 0.37053305 0.25845832
v -0.503626 0.46068347 0.2584585
v 0.32732615 0.31483898 0.2321016
v 0.503374 0.37053305 0.25845832
v 0.503374 0.34752858 0.23210156
v 0.32732615 0.33784333 0.25845832
v -0.503626 0.34752858 0.23210156
v -0.503626 0.37053305 0.25845832
v -0.00012599792 0.50426173 0.23210177
v -0.503626 0.46068347 0.2584585
v -0.503626 0.483689 0.23210177
v -0.00012599792 0.4812562 0.2584585
v 0.503374 0.46068347 0.2584585
v 0.503374 0.483689 0.23210177
v 0.503374 0.10254176 0.2584583
v -0.28806305 0.23641677 0.25845852
v 0.503374 0.19269228 0.25845852
v -0.503626 0.10254176 0.2584583
v -0.503626 0.19269228 0.25845852
v 0.503374 0.0795373 0.23210156
v -0.503626 0.10254176 0.2584583
v 0.503374 0.10254176 0.2584583
v -0.503626 0.0795373 0.23210156
v -0.28806305 0.2594223 0.2321018
v -0.503626 0.19269228 0.25845852
v -0.503626 0.21569772 0.23210181
v -0.28806305 0.23641677 0.25845852
v 0.503374 0.21569772 0.23210181
v 0.503374 0.19269228 0.25845852
v 0.2892273 0.6062817 0.22645336
v 0.46723747 0.6064153 0.094398
v 0.46723747 0.6064152 0.22645336
v 0.2892273 0.6062817 0.09439798
v -0.44945034 0.58959854 0.22645336
v -0.498579 0.54160535 0.09239258
v -0.44945034 0.58959854 0.094398
v -0.498579 0.54160535 0.22845869
v -0.093966335 -0.036360886 0.26708454
v -0.012287947 0.027591202 0.29997262
v -0.009677563 -0.02209239 0.27962118
v -0.08649212 0.014505396 0.28720072
v -0.04711408 0.07874498 0.2897454
v -0.09622984 0.016084403 0.18651071
v -0.08289234 0.0587342 0.22401781
v -0.0052643316 0.032126512 0.20216718
v -0.08289234 0.0587342 0.22401781
v -0.09622984 0.016084403 0.18651071
v -0.008688018 0.071820006 0.23679002
v -0.04711408 0.07874498 0.2897454
v -0.012287947 0.027591202 0.29997262
v -0.009677563 -0.02209239 0.27962118
v 0.34583202 -0.03706052 0.3285926
v 0.4462742 0.009640224 0.29966316
v 0.428573 -0.066137 0.31235436
v 0.37259552 0.033359293 0.31290922
v 0.4233564 0.086204514 0.26894757
v 0.32294127 -0.031015119 0.2352736
v 0.36010575 0.038290884 0.23678432
v 0.41326243 -0.060091637 0.21903478
v 0.36010575 0.038290884 0.23678432
v 0.32294127 -0.031015119 0.2352736
v 0.43378472 0.014571928 0.22353856
v 0.4233564 0.086204514 0.26894757
v 0.4462742 0.009640224 0.29966316
v 0.428573 -0.066137 0.31235436
v 0.49185732 0.53375345 0.2380943
v 0.503374 -0.012302621 0.0711156
v 0.503374 -0.012302852 0.24973531
v 0.49185732 0.53375345 0.0827568
v -0.503626 -0.012302852 0.24973531
v -0.498579 0.54160535 0.09239258
v -0.498579 0.54160535 0.22845869
v -0.503626 -0.012302621 0.0711156
v -0.47658554 0.025913125 0.25651684
v -0.42851925 0.03013759 0.32574564
v -0.42263514 -0.08946852 0.28081217
v -0.41717768 0.022232296 0.20229287
v -0.42205587 0.081709765 0.2430246
v -0.41717768 0.022232296 0.20229287
v -0.3691114 0.026456606 0.27152163
v -0.42205587 0.081709765 0.2430246
v -0.42263514 -0.08946852 0.28081217
v -0.42851925 0.03013759 0.32574564
vt 0.78129107 0.19156988
vt 0.7566159 0.19279857
vt 0.77040607 0.19208822
vt 0.83158714 0.14035054
vt 0.8315487 0.13168804
vt 0.83158714 0.16839823
vt 0.799996 0.13648412
vt 0.7997377 0.1315701
vt 0.799996 0.1680172
vt 0.78129107 0.13283323
vt 0.75882345 0.13302529
vt 0.78129107 0.19156988
vt 0.7566159 0.19279857
vt 0.7567547 0.14712994
vt 0.7527911 0.13302529
vt 0.73032343 0.13283323
vt 0.73032343 0.19664294
vt 0.7354808 0.20890407
vt 0.75511205 0.20890407
vt 0.7036963 0.14083453
vt 0.7063883 0.13283323
vt 0.7036963 0.19217819
vt 0.7010043 0.13283323
vt 0.6815639 0.13283323
vt 0.70750076 0.20890407
vt 0.72789955 0.20890407
vt 0.68706983 0.1957066
vt 0.6815639 0.19114669
vt 0.7846774 0.16738369
vt 0.799996 0.1680172
vt 0.7880177 0.1701842
vt 0.799996 0.13648412
vt 0.7846774 0.1315701
vt 0.7964714 0.1315701
vt 0.8142585 0.1315701
vt 0.82788897 0.13168804
vt 0.83158714 0.14035054
vt 0.8142585 0.17075923
vt 0.83158714 0.16839823
vt 0.82981765 0.17944953
vt 0.8173873 0.17944953
vt 0.799996 0.1680172
vt 0.7997377 0.1315701
vt 0.812788 0.17944953
vt 0.8004126 0.17944953
vt 0.83158714 0.16839823
vt 0.8451792 0.14960688
vt 0.8385756 0.16796197
vt 0.8451792 0.1315701
vt 0.8315487 0.13168804
vt 0.78129107 0.20890407
vt 0.77040607 0.23391901
vt 0.78129107 0.23391901
vt 0.77040607 0.20890407
vt 0.7552245 0.23391901
vt 0.7354808 0.20890407
vt 0.7354808 0.23391901
vt 0.7552245 0.20890407
vt 0.728117 0.23391901
vt 0.70750076 0.20890407
vt 0.70750076 0.23391901
vt 0.728117 0.20890407
vt 0.7014044 0.23391901
vt 0.68706983 0.20890407
vt 0.68706983 0.23391901
vt 0.7014044 0.20890407
vt 0.7316809 0.20890407
vt 0.7354808 0.23391901
vt 0.7354808 0.20890407
vt 0.7316809 0.23391901
vt 0.759568 0.23391901
vt 0.7552245 0.20890407
vt 0.7552245 0.23391901
vt 0.759568 0.20890407
vt 0.7014044 0.20890407
vt 0.70750076 0.23391901
vt 0.70750076 0.20890407
vt 0.7014044 0.23391901
vt 0.7316809 0.23391901
vt 0.728117 0.20890407
vt 0.728117 0.23391901
vt 0.7316809 0.20890407
vt 0.8454383 0.21376933
vt 0.8349802 0.21376933
vt 0.8454383 0.22659482
vt 0.8164977 0.22659482
vt 0.78755695 0.21376933
vt 0.78755695 0.22659482
vt 0.8350173 0.20837975
vt 0.8454383 0.21376933
vt 0.8454383 0.20837975
vt 0.8349802 0.21376933
vt 0.78755695 0.20837975
vt 0.78755695 0.21376933
vt 0.8164977 0.23148483
vt 0.78755695 0.22659482
vt 0.78755695 0.23148483
vt 0.8164977 0.22659482
vt 0.8454383 0.22659482
vt 0.8454383 0.23148483
vt 0.8454383 0.18738137
vt 0.7999468 0.19830805
vt 0.8454383 0.19830805
vt 0.78755695 0.18738137
vt 0.78755695 0.19830805
vt 0.8454383 0.18143927
vt 0.78755695 0.18738137
vt 0.8454383 0.18738137
vt 0.78755695 0.18143927
vt 0.7998316 0.2031164
vt 0.78755695 0.19830805
vt 0.78755695 0.2031164
vt 0.7999468 0.19830805
vt 0.8454383 0.2031164
vt 0.8454383 0.19830805
vt 0.759568 0.20890407
vt 0.77040607 0.23391901
vt 0.77040607 0.20890407
vt 0.759568 0.23391901
vt 0.68706983 0.20890407
vt 0.6815639 0.23391901
vt 0.68706983 0.23391901
vt 0.6815639 0.20890407
vt 0.40629005 0.4624154
vt 0.40409744 0.47375208
vt 0.40373075 0.4605698
vt 0.4063468 0.47537428
vt 0.40631557 0.48388284
vt 0.40866137 0.46101397
vt 0.40843093 0.4741426
vt 0.40610206 0.45916837
vt 0.40843093 0.4741426
vt 0.40866137 0.46101397
vt 0.40618157 0.47252065
vt 0.40631557 0.48388284
vt 0.40409744 0.47375208
vt 0.40373075 0.4605698
vt 0.40629005 0.4624154
vt 0.40409744 0.47375208
vt 0.40373075 0.4605698
vt 0.4063468 0.47537428
vt 0.40631557 0.48388284
vt 0.40866137 0.46101397
vt 0.40843093 0.4741426
vt 0.40610206 0.45916837
vt 0.40843093 0.4741426
vt 0.40866137 0.46101397
vt 0.40618157 0.47252065
vt 0.40631557 0.48388284
vt 0.40409744 0.47375208
vt 0.40373075 0.4605698
vt 0.78129107 0.19156988
vt 0.78129107 0.13283323
vt 0.78129107 0.13283323
vt 0.78129107 0.19156988
vt 0.6815639 0.13283323
vt 0.6815639 0.19114669
vt 0.6815639 0.19114669
vt 0.6815639 0.13283323
vt 0.40613478 0.4691109
vt 0.40353858 0.46897274
vt 0.40680444 0.44875234
vt 0.40856045 0.46931022
vt 0.40615445 0.48386592
vt 0.40856045 0.46931022
vt 0.40596426 0.46917218
vt 0.40615445 0.48386592
vt 0.40680444 0.44875234
vt 0.40353858 0.46897274
vn -0.023956431 0.07402917 0.9969683
vn -0.0042435713 0.0619759 0.99806863
vn -0.00011863037 0.15815079 0.9874149
vn 0.10938891 0.030258333 -0.9935383
vn 0.021689536 0.03735328 -0.99906677
vn 0.009111456 0.06067217 -0.99811614
vn 0.06589616 0.037412606 -0.99712485
vn 0.020227702 0.041490994 -0.9989341
vn -0.007351103 0.048176248 -0.99881184
vn -0 0.021313503 0.99977285
vn 0.0126654105 0.026066551 0.99957997
vn -0.023956431 0.07402917 0.9969683
vn -0.0042435713 0.0619759 0.99806863
vn 0.011454794 0.047660556 0.9987979
vn -0.019452259 0.03974159 0.9990207
vn 0.0054846676 0.03158599 0.99948597
vn 0.004268301 0.08009268 0.9967783
vn 0.026029754 0.111045636 0.9934743
vn 0.009538789 0.09144871 0.995764
vn -0.06326574 0.0346709 0.9973943
vn -0 0 1
vn -0.013669451 0.04821096 0.9987437
vn -0.020276222 0.041153163 0.9989471
vn 0.0011996997 0.039831236 0.99920577
vn -0.02480564 0.07718912 0.9967078
vn -0.014707464 0.11980189 0.99268883
vn 0.0045372336 0.038243603 0.9992581
vn 0.0033208812 0.038353097 0.9992587
vn 0.00096120505 0.042125415 -0.99911183
vn -0.007351103 0.048176248 -0.99881184
vn 0.0049051647 0.03673561 -0.999313
vn 0.06589616 0.037412606 -0.99712485
vn -0.009627979 0.03109419 -0.99947006
vn -0 0 -1
vn -0.008216183 0.03060603 -0.9994978
vn -0 -1.397758E-07 -1
vn 0.10938891 0.030258333 -0.9935383
vn -0.01953719 0.1052122 -0.9942578
vn 0.009111456 0.06067217 -0.99811614
vn 0.03412392 0.111428455 -0.99318635
vn 0.017378591 0.16660586 -0.9858704
vn -0.007351103 0.048176248 -0.99881184
vn 0.020227702 0.041490994 -0.9989341
vn -0.0585316 0.13048312 -0.98972124
vn -0.00784824 0.06392839 -0.9979236
vn 0.009111456 0.06067217 -0.99811614
vn -0.03433553 0.06415311 -0.99734926
vn -0.00011859455 0.15815409 -0.9874144
vn -0.010103596 0.034116596 -0.9993668
vn 0.021689536 0.03735328 -0.99906677
vn 0.9471106 0.32090747 1.2223228E-07
vn 0.9471106 0.3209073 0
vn 0.9471106 0.3209072 0
vn 0.94711053 0.32090756 1.8669962E-07
vn 0.10374673 0.9946037 0
vn 0.10374673 0.9946037 0
vn 0.10374673 0.9946037 0
vn 0.10374673 0.9946037 0
vn -0.1218501 0.9925485 0
vn -0.121850125 0.9925485 0
vn -0.12185013 0.9925485 0
vn -0.1218501 0.9925485 0
vn 0.13235416 0.9912025 0
vn 0.13235416 0.9912025 0
vn 0.13235416 0.9912025 0
vn 0.13235414 0.9912025 0
vn -0.96604383 0.25652048 0.03092682
vn -0.9650211 0.2598832 0.03457085
vn -0.9737204 0.22774708 0
vn -0.955742 0.2870943 0.06429624
vn 0.9858937 0.16737238 0
vn 0.9858937 0.16737236 0
vn 0.9858937 0.16737235 0
vn 0.9858937 0.16737236 0
vn -0.9858095 0.16786799 0
vn -0.9858095 0.16786802 0
vn -0.9858095 0.16786802 0
vn -0.9858095 0.16786797 0
vn 0.97663 0.21429035 0.016541436
vn 0.9808332 0.19286332 0.02775178
vn 0.9693619 0.24563688 0
vn 0.9843255 0.17209847 0.03854233
vn 3.1649145E-07 -1.7044401E-06 1
vn -0 -1.2573257E-06 1
vn 1.6935789E-07 -1.4935762E-06 1
vn -0 -1.2079731E-06 1
vn -0 -1.6206773E-06 1
vn -0 -1.70444E-06 1
vn 0.05199229 -0.7523753 0.6566797
vn 0.13854572 -0.7461282 0.651228
vn 0.13854568 -0.746128 0.6512281
vn 0.057079356 -0.7521661 0.65649694
vn -0.029625537 -0.75306296 0.65728104
vn -0.029625533 -0.753063 0.65728104
vn -0 0.7533778 0.65758795
vn -0.030767972 0.7530211 0.6572766
vn -0.030767974 0.75302106 0.65727663
vn -0 0.7533778 0.65758795
vn 0.030767972 0.7530211 0.6572766
vn 0.030767974 0.75302106 0.65727663
vn -1.261797E-07 -2.4675799E-06 1
vn -0 -1.8570337E-06 1
vn -1.4124763E-07 -2.5566578E-06 1
vn 3.3511074E-07 -2.2612244E-06 1
vn 5.185892E-07 -2.5566578E-06 1
vn -0 -0.75339323 0.6575702
vn -0 -0.75339323 0.6575702
vn -0 -0.7533933 0.6575702
vn -0 -0.7533933 0.6575702
vn -0.051908515 0.75236243 0.656701
vn -0.15106091 0.74473333 0.6500407
vn -0.15106095 0.7447334 0.6500405
vn -0.057766598 0.75211996 0.6564896
vn 0.0415859 0.7527271 0.65701795
vn 0.0415859 0.75272715 0.6570179
vn -0.0007503653 0.99999976 2.3639625E-07
vn -0.0007502845 0.99999976 3.4538988E-07
vn -0.000750109 0.99999976 5.8178614E-07
vn -0.00075054064 0.99999976 0
vn -0.6987923 0.7153246 0
vn -0.69879234 0.7153246 0
vn -0.6987923 0.7153246 0
vn -0.69879234 0.7153246 0
vn -0.747098 -0.15315387 0.64682955
vn 0.58692414 0.039801538 0.8086631
vn 0.5601593 -0.28862965 0.77647555
vn -0.69214374 0.037827052 0.7207677
vn -0.10720529 0.80191326 0.5877433
vn -0.7575313 0.53261864 -0.3774438
vn -0.6087817 0.7327589 -0.3040547
vn 0.6587675 0.5260059 -0.5379063
vn -0.6087817 0.7327589 -0.3040547
vn -0.7575313 0.53261864 -0.3774438
vn 0.62872523 0.74297434 -0.229551
vn -0.10720529 0.80191326 0.5877433
vn 0.58692414 0.039801538 0.8086631
vn 0.5601593 -0.28862965 0.77647555
vn -0.42224756 0.34050107 0.84009886
vn 0.85180056 0.11900868 0.5101692
vn 0.805643 -0.09013343 0.58550435
vn -0.3851166 0.54673904 0.7434793
vn 0.3082196 0.9512509 0.011060402
vn -0.7550629 0.38727966 -0.5290505
vn -0.59054524 0.58761716 -0.55313855
vn 0.5724495 -0.10832404 -0.8127531
vn -0.59054524 0.58761716 -0.55313855
vn -0.7550629 0.38727966 -0.5290505
vn 0.6198283 0.1561121 -0.7690527
vn 0.3082196 0.9512509 0.011060402
vn 0.85180056 0.11900868 0.5101692
vn 0.805643 -0.09013343 0.58550435
vn 0.99977773 0.021085942 0
vn 0.99977773 0.021085942 0
vn 0.99977773 0.021085944 0
vn 0.99977773 0.02108595 0
vn -0.9999585 0.0091112135 0
vn -0.9999585 0.0091112135 0
vn -0.9999585 0.0091112135 0
vn -0.9999585 0.009111216 0
vn -0.9862779 0.12388392 -0.10912663
vn -0.106397614 0.2674016 0.957693
vn 0.0009331145 -0.9913522 0.13122475
vn 0.10792773 -0.016403146 -0.9940234
vn 0.011836977 0.9713832 -0.23722269
vn 0.10792773 -0.016403146 -0.9940234
vn 0.9813898 0.15221135 0.11707166
vn 0.011836977 0.9713832 -0.23722269
vn 0.0009331145 -0.9913522 0.13122475
vn -0.106397614 0.2674016 0.957693
g wall_fence2_0
f 3/3/3 2/2/2 1/1/1
f 6/6/6 5/5/5 4/4/4
f 9/9/9 8/8/8 7/7/7
f 12/12/12 11/11/11 10/10/10
f 13/13/13 11/11/11 12/12/12
f 14/14/14 11/11/11 13/13/13
f 13/13/13 15/15/15 14/14/14
f 16/16/16 15/15/15 13/13/13
f 17/17/17 16/16/16 13/13/13
f 17/17/17 13/13/13 18/18/18
f 19/19/19 18/18/18 13/13/13
f 17/17/17 20/20/20 16/16/16
f 20/20/20 21/21/21 16/16/16
f 22/22/22 20/20/20 17/17/17
f 22/22/22 23/23/23 20/20/20
f 24/24/24 23/23/23 22/22/22
f 22/22/22 17/17/17 25/25/25
f 26/26/26 25/25/25 17/17/17
f 27/27/27 24/24/24 22/22/22
f 28/28/28 24/24/24 27/27/27
f 31/31/31 30/30/30 29/29/29
f 30/30/30 32/32/32 29/29/29
f 29/29/29 32/32/32 33/33/33
f 32/32/32 34/34/34 33/33/33
f 37/37/37 36/36/36 35/35/35
f 38/38/38 37/37/37 35/35/35
f 39/39/39 37/37/37 38/38/38
f 39/39/39 38/38/38 40/40/40
f 41/41/41 40/40/40 38/38/38
f 38/38/38 35/35/35 42/42/42
f 35/35/35 43/43/43 42/42/42
f 38/38/38 42/42/42 44/44/44
f 45/45/45 44/44/44 42/42/42
f 48/48/48 47/47/47 46/46/46
f 47/47/47 49/49/49 46/46/46
f 49/49/49 50/50/50 46/46/46
f 53/53/53 52/52/52 51/51/51
f 54/54/54 51/51/51 52/52/52
f 57/57/57 56/56/56 55/55/55
f 58/58/58 55/55/55 56/56/56
f 61/61/61 60/60/60 59/59/59
f 62/62/62 59/59/59 60/60/60
f 65/65/65 64/64/64 63/63/63
f 66/66/66 63/63/63 64/64/64
f 69/69/69 68/68/68 67/67/67
f 70/70/70 67/67/67 68/68/68
f 73/73/73 72/72/72 71/71/71
f 74/74/74 71/71/71 72/72/72
f 77/77/77 76/76/76 75/75/75
f 78/78/78 75/75/75 76/76/76
f 81/81/81 80/80/80 79/79/79
f 82/82/82 79/79/79 80/80/80
f 85/85/85 84/84/84 83/83/83
f 85/85/85 86/86/86 84/84/84
f 86/86/86 87/87/87 84/84/84
f 88/88/88 87/87/87 86/86/86
f 91/91/91 90/90/90 89/89/89
f 92/92/92 89/89/89 90/90/90
f 89/89/89 92/92/92 93/93/93
f 94/94/94 93/93/93 92/92/92
f 97/97/97 96/96/96 95/95/95
f 98/98/98 95/95/95 96/96/96
f 98/98/98 99/99/99 95/95/95
f 100/100/100 95/95/95 99/99/99
f 103/103/103 102/102/102 101/101/101
f 102/102/102 104/104/104 101/101/101
f 102/102/102 105/105/105 104/104/104
f 108/108/108 107/107/107 106/106/106
f 109/109/109 106/106/106 107/107/107
f 112/112/112 111/111/111 110/110/110
f 113/113/113 110/110/110 111/111/111
f 110/110/110 113/113/113 114/114/114
f 115/115/115 114/114/114 113/113/113
f 118/118/118 117/117/117 116/116/116
f 119/119/119 116/116/116 117/117/117
f 122/122/122 121/121/121 120/120/120
f 123/123/123 120/120/120 121/121/121
f 126/126/126 125/125/125 124/124/124
f 127/127/127 124/124/124 125/125/125
f 128/128/128 127/127/127 125/125/125
f 124/124/124 127/127/127 129/129/129
f 128/128/128 130/130/130 127/127/127
f 130/130/130 129/129/129 127/127/127
f 133/133/133 132/132/132 131/131/131
f 134/134/134 131/131/131 132/132/132
f 135/135/135 134/134/134 132/132/132
f 135/135/135 136/136/136 134/134/134
f 131/131/131 134/134/134 136/136/136
f 136/136/136 137/137/137 131/131/131
f 140/140/140 139/139/139 138/138/138
f 141/141/141 138/138/138 139/139/139
f 142/142/142 141/141/141 139/139/139
f 138/138/138 141/141/141 143/143/143
f 142/142/142 144/144/144 141/141/141
f 144/144/144 143/143/143 141/141/141
f 147/147/147 146/146/146 145/145/145
f 148/148/148 145/145/145 146/146/146
f 149/149/149 148/148/148 146/146/146
f 149/149/149 150/150/150 148/148/148
f 145/145/145 148/148/148 150/150/150
f 150/150/150 151/151/151 145/145/145
f 154/154/154 153/153/153 152/152/152
f 155/155/155 152/152/152 153/153/153
f 158/158/158 157/157/157 156/156/156
f 159/159/159 156/156/156 157/157/157
f 162/162/162 161/161/161 160/160/160
f 162/162/162 160/160/160 163/163/163
f 160/160/160 161/161/161 164/164/164
f 163/163/163 160/160/160 164/164/164
f 167/167/167 166/166/166 165/165/165
f 168/168/168 165/165/165 166/166/166
f 167/167/167 169/169/169 166/166/166
f 168/168/168 166/166/166 169/169/169
