g wall_house_S1
v -0.5037545 -0.0005636102 0.49054387
v 0.503577 0.31391114 0.46296614
v 0.5035769 -0.0005636102 0.49054524
v -0.5037545 0.31391114 0.46297193
v 0.5035771 0.31391108 0.3258481
v -0.5037544 0.31391108 0.3258482
v 0.5035772 2.1880474 0.09012278
v 0.5035771 1.8195815 0.14378291
v -0.50377 1.8195815 0.14378192
v -0.50376993 2.1880476 0.09012216
v -0.5037584 0.31391114 0.32584813
v -0.5037588 1.8528473 0.2112309
v 0.5035771 1.8528473 0.21123168
v 0.50357705 0.31391114 0.32584813
v 0.5035771 1.8528473 0.21123168
v -0.5037588 1.8528473 0.2112309
v -0.5037578 1.8528477 0.044829637
v 0.5035772 1.8528477 0.044830598
v -0.50287896 2.5840216 -0.37079123
v -0.50287944 2.783687 -0.38661432
v 0.50447166 2.7836869 -0.38661325
v 0.50447166 2.5840206 -0.37078992
v 0.38480833 2.2762022 0.26996052
v 0.31047848 2.2762022 0.26996037
v 0.34752044 2.3687942 0.041923426
v 0.12477764 2.3687952 0.04192335
v 0.36755902 2.4159677 0.02627556
v 0.16181907 2.2762022 0.26995963
v 0.23614894 2.2762022 0.26995984
v 0.08748937 2.2762022 0.26995915
v 0.104739055 2.4159675 0.026275216
v 0.3477526 2.5071666 -0.2510873
v 0.12454667 2.5071666 -0.2510873
v 0.3678637 2.5505204 -0.27437016
v 0.10443604 2.5505197 -0.27436963
v 0.35466155 2.6557157 -0.50412714
v 0.11763934 2.6557148 -0.50412726
v 0.08748937 2.2762022 0.26995915
v 0.031228343 2.1882615 0.3259099
v 0.0826278 2.2749832 0.01801148
v 0.12477764 2.3687952 0.04192335
v 0.104739055 2.4159675 0.026275216
v 0.0550335 2.3234875 -0.0033326067
v 0.12454667 2.5071666 -0.2510873
v 0.08262796 2.4177134 -0.30818853
v 0.10443604 2.5505197 -0.27436963
v 0.055033818 2.4596775 -0.33816642
v 0.07142269 2.5236704 -0.50412726
v 0.11763934 2.6557148 -0.50412726
v 0.34752044 2.3687942 0.041923426
v 0.4410692 2.1882613 0.32591015
v 0.38480833 2.2762022 0.26996052
v 0.38966954 2.274984 0.018011902
v 0.4172631 2.3234875 -0.003332453
v 0.36755902 2.4159677 0.02627556
v 0.38967094 2.417714 -0.3081886
v 0.3477526 2.5071666 -0.2510873
v 0.4172645 2.459678 -0.3381662
v 0.3678637 2.5505204 -0.27437016
v 0.40087622 2.5236707 -0.50412714
v 0.35466155 2.6557157 -0.50412714
v 0.38480833 2.2762022 0.26996052
v 0.4410692 2.1882613 0.32591015
v 0.36536404 2.092181 0.38667318
v 0.31047848 2.2762022 0.26996037
v 0.23614894 2.2762022 0.26995984
v 0.23614886 2.0695462 0.40248322
v 0.1069334 2.092181 0.3866731
v 0.16181907 2.2762022 0.26995963
v 0.08748937 2.2762022 0.26995915
v 0.031228343 2.1882615 0.3259099
v -0.1047555 2.2762022 0.2699603
v -0.17908521 2.2762022 0.26996017
v -0.14204325 2.3687942 0.041923195
v -0.3647861 2.3687952 0.04192308
v -0.12200481 2.4159677 0.026275292
v -0.32774463 2.2762022 0.2699594
v -0.25341493 2.2762022 0.26995963
v -0.40207437 2.2762022 0.2699589
v -0.38482466 2.4159675 0.026274985
v -0.1418114 2.5071666 -0.25108755
v -0.36501688 2.5071666 -0.25108755
v -0.121700116 2.5505204 -0.2743704
v -0.3851278 2.5505197 -0.2743699
v -0.13490228 2.6557157 -0.5041274
v -0.37192452 2.6557148 -0.5041275
v -0.40207437 2.2762022 0.2699589
v -0.45833534 2.1882615 0.32590967
v -0.40693602 2.2749832 0.01801125
v -0.3647861 2.3687952 0.04192308
v -0.38482466 2.4159675 0.026274985
v -0.43453035 2.3234875 -0.003332837
v -0.36501688 2.5071666 -0.25108755
v -0.40693587 2.4177134 -0.30818874
v -0.3851278 2.5505197 -0.2743699
v -0.43453005 2.4596775 -0.33816662
v -0.418141 2.5236704 -0.5041275
v -0.37192452 2.6557148 -0.5041275
v -0.14204325 2.3687942 0.041923195
v -0.048494536 2.1882613 0.3259099
v -0.1047555 2.2762022 0.2699603
v -0.09989448 2.274984 0.018011672
v -0.07230061 2.3234875 -0.0033326836
v -0.12200481 2.4159677 0.026275292
v -0.09989279 2.417714 -0.3081888
v -0.1418114 2.5071666 -0.25108755
v -0.07229922 2.459678 -0.33816645
v -0.121700116 2.5505204 -0.2743704
v -0.08868748 2.5236707 -0.5041274
v -0.13490228 2.6557157 -0.5041274
v -0.1047555 2.2762022 0.2699603
v -0.048494536 2.1882613 0.3259099
v -0.12419965 2.092181 0.38667294
v -0.17908521 2.2762022 0.26996017
v -0.25341493 2.2762022 0.26995963
v -0.253415 2.0695462 0.40248302
v -0.3826303 2.092181 0.38667288
v -0.32774463 2.2762022 0.2699594
v -0.40207437 2.2762022 0.2699589
v -0.45833534 2.1882615 0.32590967
v 0.5036671 2.0624084 0.31443518
v 0.39808175 2.0809035 0.30151626
v 0.5036671 2.231272 0.2061469
v 0.44293028 2.231272 0.20614666
v 0.38219377 2.231272 0.20614627
v 0.33622113 2.1594133 0.2518651
v 0.11166271 2.231272 0.2061472
v 0.15763502 2.1594129 0.251865
v 0.09577432 2.0809035 0.30151618
v 0.05092587 2.231272 0.20614697
v -0.009810814 2.231272 0.20614666
v -0.009810865 2.0624084 0.31443498
v -0.115396045 2.0809035 0.30151603
v -0.0705475 2.231272 0.20614643
v -0.13128433 2.231272 0.20614605
v -0.1772567 2.1594133 0.25186485
v -0.38176283 2.231272 0.20614697
v -0.3357905 2.1594129 0.2518648
v -0.39765123 2.0809035 0.30151594
v -0.44249952 2.231272 0.20614673
v -0.50323635 2.231272 0.20614643
v -0.5032364 2.0624084 0.31443474
v 0.33622113 2.1594133 0.2518651
v 0.15763502 2.1594129 0.251865
v 0.11166271 2.231272 0.2061472
v 0.38219377 2.231272 0.20614627
v -0.1772567 2.1594133 0.25186485
v -0.3357905 2.1594129 0.2518648
v -0.38176283 2.231272 0.20614697
v -0.13128433 2.231272 0.20614605
v 0.5044716 2.4397023 -0.24478656
v -0.5028791 2.5873373 -0.5041264
v 0.5044717 2.5873363 -0.50412595
v -0.5028804 2.4397027 -0.24478571
v -0.5028805 2.3216658 0.013825621
v 0.5044715 2.3216658 0.01382543
v -0.5028805 2.2358868 0.21721658
v 0.50447106 2.2358868 0.21721688
v -0.50287944 2.783687 -0.38661432
v -0.5028792 2.783687 -0.50358486
v 0.5044717 2.783687 -0.5035832
v 0.50447166 2.7836869 -0.38661325
v 0.14634904 -0.025220215 0.5631185
v 0.14946443 0.007754782 0.492304
v 0.15854488 0.067339495 0.52902657
v 0.15608047 0.039496955 0.5886328
v 0.16630481 0.08690966 0.5499164
v 0.21212834 0.08560939 0.5527068
v 0.20856053 0.06644641 0.59380054
v 0.1642379 0.06757671 0.5913765
v -0.27361894 0.046250496 0.5278268
v -0.30112997 -0.0076577496 0.4829273
v -0.284322 0.046250593 0.48589224
v -0.2845895 -0.0076577566 0.54090106
v -0.21377468 -0.0076578166 0.5533878
v -0.2845895 -0.0076577566 0.54090106
v -0.27361894 0.046250496 0.5278268
v -0.21961208 0.04625045 0.537351
v -0.16755342 -0.0076577733 0.4983052
v -0.18436138 0.046250515 0.49534026
v -0.20613767 0.04625052 0.44020846
v -0.19516724 -0.0076577445 0.4271342
v -0.284322 0.046250593 0.48589224
v -0.20613767 0.04625052 0.44020846
v -0.18436138 0.046250515 0.49534026
v -0.21961208 0.04625045 0.537351
v -0.27361894 0.046250496 0.5278268
v -0.42484042 -0.0011846402 0.4681665
v -0.36848614 0.06332876 0.45822924
v -0.38805777 -0.001184685 0.521978
v -0.33170336 -0.0011846455 0.5120408
v -0.31213173 -0.0011846414 0.45826858
v 0.23152095 0.0044165784 0.49971637
v 0.22638024 -0.028376779 0.5699974
v 0.21682821 0.037892837 0.5919665
v 0.14634904 -0.025220215 0.5631185
v 0.15608047 0.039496955 0.5886328
v 0.20856053 0.06644641 0.59380054
v 0.22121932 0.06546216 0.53280526
v 0.14946443 0.007754782 0.492304
v 0.21212834 0.08560939 0.5527068
v 0.15854488 0.067339495 0.52902657
vt 0.053819958 0.55901235
vt 0.08019316 0.56520283
vt 0.08019316 0.55901235
vt 0.053819958 0.56520283
vt 0.08019316 0.5700818
vt 0.053819958 0.5700818
vt 0.38647023 0.3363694
vt 0.38647023 0.33282918
vt 0.3889911 0.33282918
vt 0.3889911 0.3363694
vt 0.38437054 0.8737367
vt 0.38437054 0.9677136
vt 0.32663208 0.9677136
vt 0.32663208 0.8737367
vt 0.38589656 0.97146297
vt 0.39505053 0.97146297
vt 0.39505053 0.9717387
vt 0.38589656 0.9717387
vt 0.03773844 0.45084497
vt 0.03773844 0.4410056
vt 0.03773844 0.4410056
vt 0.03773844 0.45084497
vt 0.117517896 0.6102191
vt 0.11866604 0.6102191
vt 0.117517896 0.6465807
vt 0.12211048 0.6465807
vt 0.117517896 0.6533807
vt 0.12096234 0.6102191
vt 0.11981419 0.6102191
vt 0.12211048 0.6102191
vt 0.12211048 0.6533807
vt 0.117517896 0.6720921
vt 0.12211048 0.6720921
vt 0.117517896 0.67767715
vt 0.12211048 0.67767715
vt 0.117517896 0.69651896
vt 0.122110486 0.69651896
vt 0.12211048 0.6102191
vt 0.12459615 0.6102191
vt 0.12459615 0.6465807
vt 0.12211048 0.6465807
vt 0.12211048 0.6533807
vt 0.12459615 0.6533807
vt 0.12211048 0.6720921
vt 0.12459615 0.6720921
vt 0.12211048 0.67767715
vt 0.12459615 0.67767715
vt 0.12459615 0.69439465
vt 0.122110486 0.69651896
vt 0.117517896 0.6465807
vt 0.11508833 0.6102191
vt 0.117517896 0.6102191
vt 0.11508833 0.6465807
vt 0.11508833 0.6533807
vt 0.117517896 0.6533807
vt 0.11508833 0.6720921
vt 0.117517896 0.6720921
vt 0.11508833 0.67767715
vt 0.117517896 0.67767715
vt 0.11508833 0.69439465
vt 0.117517896 0.69651896
vt 0.24518019 0.498421
vt 0.25122425 0.483203
vt 0.24309137 0.46657652
vt 0.2371951 0.498421
vt 0.22921005 0.498421
vt 0.22921005 0.46265966
vt 0.21532866 0.46657652
vt 0.22122493 0.498421
vt 0.21323982 0.498421
vt 0.20719583 0.483203
vt 0.117517896 0.6102191
vt 0.11866604 0.6102191
vt 0.117517896 0.6465807
vt 0.12211048 0.6465807
vt 0.117517896 0.6533807
vt 0.12096234 0.6102191
vt 0.11981419 0.6102191
vt 0.12211048 0.6102191
vt 0.12211048 0.6533807
vt 0.117517896 0.6720921
vt 0.12211048 0.6720921
vt 0.117517896 0.67767715
vt 0.12211048 0.67767715
vt 0.117517896 0.69651896
vt 0.122110486 0.69651896
vt 0.12211048 0.6102191
vt 0.12459615 0.6102191
vt 0.12459615 0.6465807
vt 0.12211048 0.6465807
vt 0.12211048 0.6533807
vt 0.12459615 0.6533807
vt 0.12211048 0.6720921
vt 0.12459615 0.6720921
vt 0.12211048 0.67767715
vt 0.12459615 0.67767715
vt 0.12459615 0.69439465
vt 0.122110486 0.69651896
vt 0.117517896 0.6465807
vt 0.11508833 0.6102191
vt 0.117517896 0.6102191
vt 0.11508833 0.6465807
vt 0.11508833 0.6533807
vt 0.117517896 0.6533807
vt 0.11508833 0.6720921
vt 0.117517896 0.6720921
vt 0.11508833 0.67767715
vt 0.117517896 0.67767715
vt 0.11508833 0.69439465
vt 0.117517896 0.69651896
vt 0.24518016 0.498421
vt 0.25122416 0.483203
vt 0.24309134 0.46657652
vt 0.23719504 0.498421
vt 0.22920996 0.498421
vt 0.22920996 0.46265966
vt 0.21532863 0.46657652
vt 0.2212249 0.498421
vt 0.21323982 0.498421
vt 0.2071958 0.483203
vt 0.21897599 0.42456812
vt 0.21173581 0.42848498
vt 0.21897599 0.46032947
vt 0.21481118 0.46032947
vt 0.21064635 0.46032947
vt 0.20749395 0.4451115
vt 0.22730556 0.46032953
vt 0.23045796 0.4451115
vt 0.22621611 0.42848498
vt 0.22314079 0.46032953
vt 0.21897599 0.46032953
vt 0.21897599 0.42456812
vt 0.21173584 0.42848498
vt 0.21481118 0.46032953
vt 0.21064636 0.46032953
vt 0.20749396 0.4451115
vt 0.22730556 0.46032947
vt 0.23045796 0.4451114
vt 0.22621611 0.42848486
vt 0.22314079 0.46032947
vt 0.21897599 0.46032947
vt 0.21897599 0.424568
vt 0.21064635 0.46032947
vt 0.21897599 0.42456812
vt 0.21481118 0.46032947
vt 0.21173581 0.42848498
vt 0.21064636 0.46032953
vt 0.22314079 0.46032947
vt 0.21481118 0.46032953
vt 0.21173584 0.42848498
vt 0.1753553 0.2609902
vt 0.13956812 0.27520704
vt 0.1753553 0.27520704
vt 0.13956812 0.2609902
vt 0.13956812 0.24762577
vt 0.1753553 0.24762577
vt 0.13956812 0.23269099
vt 0.1753553 0.23269099
vt 0.051740885 0.45084497
vt 0.051740885 0.4459253
vt 0.051740885 0.4459253
vt 0.051740885 0.45084497
vt 0.38662755 0.36955515
vt 0.38186204 0.36955515
vt 0.38186204 0.38075736
vt 0.38662755 0.38075736
vt 0.38186204 0.38075736
vt 0.38186204 0.38435873
vt 0.38662755 0.38435873
vt 0.38662755 0.38075736
vt 0.42918533 0.13775992
vt 0.4287479 0.13395888
vt 0.4287479 0.13775992
vt 0.42918533 0.13395888
vt 0.42699817 0.13395888
vt 0.42656076 0.13395888
vt 0.42656076 0.13775992
vt 0.42699817 0.13775992
vt 0.4274356 0.13395888
vt 0.4274356 0.13775992
vt 0.42787305 0.13775992
vt 0.42787305 0.13395888
vt 0.42922822 0.1446886
vt 0.42695528 0.1446886
vt 0.42695528 0.13672864
vt 0.42809176 0.13787019
vt 0.42922822 0.13672864
vt 0.43134418 0.13358873
vt 0.43217224 0.14374202
vt 0.4317582 0.13358873
vt 0.43217224 0.13358873
vt 0.43258625 0.13358873
vt 0.38186204 0.36955515
vt 0.38662755 0.36955515
vt 0.38662755 0.38238636
vt 0.38662755 0.36955515
vt 0.38662755 0.38075736
vt 0.38662755 0.38435873
vt 0.38186204 0.38238636
vt 0.38186204 0.36955515
vt 0.38186204 0.38435873
vt 0.38186204 0.38075736
vn -0 0.99983823 0.017984293
vn -0 0.99983823 0.017984293
vn -0 0.99983823 0.017984293
vn -0 0.99983823 0.017984293
vn -0 1 0
vn -0 1 0
vn -0 0.99984074 0.01784661
vn -0 0.99984074 0.01784661
vn -0 0.99984074 0.017846609
vn -0 0.99984074 0.01784661
vn -0 0.9998379 0.018007684
vn -0 0.9998379 0.018007684
vn -0 0.9998379 0.018007684
vn -0 0.9998379 0.018007684
vn -0 1 0
vn -0 1 0
vn -0 1 0
vn -0 1 0
vn -0 0.999838 0.017999588
vn -0 0.999838 0.017999588
vn -0 0.999838 0.017999586
vn -0 0.999838 0.017999588
vn -0 0.9999776 0.006691372
vn -0 0.9999776 0.0066913934
vn -0 0.99991035 0.013393358
vn -0 0.99991035 0.013393388
vn -0 0.99993 0.011833226
vn -0 0.9999776 0.0066921134
vn -0 1 0
vn -0 0.9999776 0.006691455
vn -0 0.99993 0.011833214
vn -0 0.9999287 0.011944174
vn -0 0.9999287 0.011944163
vn -0 0.99993217 0.011653945
vn -0 0.99993217 0.0116539765
vn -0 0.9999726 0.007406581
vn -0 0.9999726 0.0074065826
vn -0.015743818 0.999876 0.00026231952
vn -0.015743822 0.999876 0.00026231955
vn -0.015382946 0.9998578 0.006912205
vn -0.014022014 0.9998472 0.01043906
vn -0.015473209 0.9998534 0.007331202
vn -0.014415058 0.9998468 0.009921727
vn -0.016231893 0.99984455 0.0068875235
vn -0.016221728 0.99984443 0.0069321054
vn -0.016347006 0.99984324 0.0068082707
vn -0.016349586 0.99984324 0.0067980154
vn -0.01660274 0.9998609 0.0016070209
vn -0.016602736 0.9998609 0.0016070207
vn 0.0140220765 0.9998472 0.010438989
vn 0.01574383 0.999876 0.00026231812
vn 0.015743826 0.999876 0.00026231806
vn 0.015382983 0.9998578 0.006912145
vn 0.014415119 0.9998468 0.009921688
vn 0.015473286 0.9998534 0.007331107
vn 0.01622176 0.99984443 0.006932089
vn 0.016231934 0.99984455 0.0068874727
vn 0.016349643 0.99984324 0.006797971
vn 0.01634707 0.99984324 0.0068081897
vn 0.016602835 0.9998609 0.0016069945
vn 0.016602835 0.9998609 0.0016069944
vn -1.1420228E-05 0.9998857 0.015123318
vn -4.0220668E-05 0.9998857 0.015121871
vn 7.098008E-05 0.99988604 0.015097444
vn -0 0.9998857 0.01512388
vn -0 0.9998859 0.015107097
vn -0 0.9998864 0.015074552
vn -7.0986665E-05 0.99988604 0.01509742
vn -0 0.9998857 0.015123835
vn 1.1366314E-05 0.9998857 0.015123272
vn 4.03873E-05 0.9998857 0.015121812
vn -0 0.9999776 0.006691374
vn -0 0.9999776 0.006691395
vn -0 0.99991035 0.0133933555
vn -0 0.99991035 0.013393388
vn -0 0.99993 0.011833234
vn -0 0.9999776 0.00669143
vn -0 1 0
vn -0 0.9999776 0.0066914544
vn -0 0.99993 0.011833215
vn -0 0.9999287 0.011944178
vn -0 0.9999287 0.011944168
vn -0 0.99993217 0.011653938
vn -0 0.99993217 0.011653965
vn -0 0.9999726 0.007406581
vn -0 0.9999726 0.0074065826
vn -0.015743814 0.999876 0.00026232662
vn -0.015743814 0.999876 0.00026232665
vn -0.015382935 0.9998578 0.0069122184
vn -0.014022003 0.9998472 0.010439073
vn -0.015473195 0.9998534 0.0073312125
vn -0.014415045 0.9998468 0.009921737
vn -0.01623188 0.99984455 0.0068875444
vn -0.016221713 0.99984443 0.006932133
vn -0.016346999 0.99984324 0.006808293
vn -0.016349582 0.99984324 0.0067980317
vn -0.01660274 0.9998609 0.0016070104
vn -0.01660274 0.9998609 0.0016070105
vn 0.01402208 0.9998472 0.010438993
vn 0.015743839 0.999876 0.00026230633
vn 0.015743839 0.999876 0.00026230633
vn 0.015382988 0.9998578 0.006912143
vn 0.014415116 0.9998468 0.009921686
vn 0.015473279 0.9998534 0.0073311077
vn 0.016221745 0.99984443 0.006932114
vn 0.01623192 0.99984455 0.0068874927
vn 0.01634963 0.99984324 0.0067979936
vn 0.016347056 0.99984324 0.0068082167
vn 0.016602827 0.9998609 0.0016070018
vn 0.016602827 0.9998609 0.0016070015
vn -1.1420219E-05 0.9998857 0.01512332
vn -4.0220624E-05 0.9998857 0.015121871
vn 7.097995E-05 0.99988604 0.015097444
vn -0 0.9998857 0.015123881
vn -0 0.9998859 0.015107097
vn -0 0.9998864 0.015074552
vn -7.0986825E-05 0.99988604 0.015097422
vn -0 0.9998857 0.015123835
vn 1.136631E-05 0.9998857 0.015123272
vn 4.038731E-05 0.9998857 0.015121812
vn -0.00015109725 0.9998864 0.015074012
vn -7.10078E-05 0.99988604 0.015097414
vn -5.1539904E-05 0.9998859 0.015107014
vn -0 0.9998857 0.01512383
vn 1.1352181E-05 0.9998857 0.015123269
vn 4.0353054E-05 0.9998857 0.015121811
vn -1.1398208E-05 0.9998857 0.015123311
vn -4.0151393E-05 0.9998857 0.01512187
vn 7.1001006E-05 0.99988604 0.015097435
vn -0 0.9998857 0.015123871
vn -0 0.9998859 0.015107091
vn -0 0.9998864 0.015074544
vn -7.100797E-05 0.99988604 0.015097414
vn -0 0.9998857 0.01512383
vn 1.1352211E-05 0.9998857 0.015123269
vn 4.0353163E-05 0.9998857 0.015121811
vn -1.1398206E-05 0.9998857 0.015123311
vn -4.015138E-05 0.9998857 0.01512187
vn 7.1001E-05 0.99988604 0.015097437
vn -0 0.9998857 0.015123871
vn 5.1437903E-05 0.9998859 0.015107042
vn 0.00015107558 0.9998864 0.015074012
vn -0 0.9998858 0.015109948
vn -0 0.9998858 0.015109952
vn -0 0.9998858 0.015109948
vn -0 0.9998858 0.015109948
vn -0 0.9998858 0.015109948
vn -0 0.9998858 0.015109948
vn -0 0.9998858 0.015109948
vn -0 0.9998858 0.015109948
vn -0 0.9999672 0.0081054885
vn -0 0.99996126 0.008808168
vn -0 0.99996126 0.008808168
vn -0 0.9999672 0.008105487
vn -0 0.9999745 0.007150584
vn -0 0.9999745 0.007150584
vn -0 0.99997616 0.0069123292
vn -0 0.99997616 0.00691233
vn -0 1 0
vn -0 1 0
vn -0 1 0
vn -0 1 0
vn -0.013616393 0.9998386 0.011723001
vn -0.011828669 0.9998727 -0.010713883
vn -0.011286123 0.99989176 -0.009441965
vn -0.0126677435 0.99983644 0.012903174
vn -0.008234439 0.99996364 -0.002228827
vn 0.009227947 0.9999567 -0.0012377199
vn 0.008002575 0.99987435 0.0136862565
vn -0.009271475 0.99987686 0.012665853
vn -0.008424581 0.9999229 0.009133464
vn -0.016748369 0.9998493 0.0045660716
vn -0.009923059 0.99994755 0.0025327103
vn -0.011441154 0.999853 0.0127705345
vn 0.005863851 0.999853 0.01611132
vn -0.011441154 0.999853 0.0127705345
vn -0.008424581 0.9999229 0.009133464
vn 0.004221619 0.9999238 0.011599531
vn 0.01690678 0.99985313 0.0027903337
vn 0.012221879 0.99992335 0.0019649193
vn 0.01100296 0.99993026 -0.004299835
vn 0.016165845 0.9998497 -0.006272228
vn -0.009923059 0.99994755 0.0025327103
vn 0.01100296 0.99993026 -0.004299835
vn 0.012221879 0.99992335 0.0019649193
vn 0.004221619 0.9999238 0.011599531
vn -0.008424581 0.9999229 0.009133464
vn -0.0114809405 0.9999033 0.007847752
vn 0.00086651475 0.99994457 0.01049965
vn -0.0046121245 0.99992275 0.011546982
vn 0.007923978 0.99992085 0.009771771
vn 0.01298391 0.9999045 0.0047257906
vn 0.013760834 0.9998648 -0.008998939
vn 0.011724182 0.99983954 0.013545748
vn 0.011218704 0.99983656 0.014175839
vn -0.013616393 0.9998386 0.011723001
vn -0.0126677435 0.99983644 0.012903174
vn 0.008002575 0.99987435 0.0136862565
vn 0.012757564 0.99988496 -0.008212109
vn -0.011828669 0.9998727 -0.010713883
vn 0.009227947 0.9999567 -0.0012377199
vn -0.011286123 0.99989176 -0.009441965
g wall_house_S1_0
f 3/3/3 2/2/2 1/1/1
f 2/2/2 4/4/4 1/1/1
f 4/4/4 2/2/2 5/5/5
f 6/6/6 4/4/4 5/5/5
f 9/9/9 8/8/8 7/7/7
f 10/10/10 9/9/9 7/7/7
f 13/13/13 12/12/12 11/11/11
f 14/14/14 13/13/13 11/11/11
f 17/17/17 16/16/16 15/15/15
f 18/18/18 17/17/17 15/15/15
f 21/21/21 20/20/20 19/19/19
f 22/22/22 21/21/21 19/19/19
f 25/25/25 24/24/24 23/23/23
f 24/24/24 25/25/25 26/26/26
f 25/25/25 27/27/27 26/26/26
f 28/28/28 24/24/24 26/26/26
f 28/28/28 29/29/29 24/24/24
f 30/30/30 28/28/28 26/26/26
f 27/27/27 31/31/31 26/26/26
f 27/27/27 32/32/32 31/31/31
f 32/32/32 33/33/33 31/31/31
f 32/32/32 34/34/34 33/33/33
f 34/34/34 35/35/35 33/33/33
f 35/35/35 34/34/34 36/36/36
f 37/37/37 35/35/35 36/36/36
f 40/40/40 39/39/39 38/38/38
f 41/41/41 40/40/40 38/38/38
f 41/41/41 42/42/42 40/40/40
f 42/42/42 43/43/43 40/40/40
f 42/42/42 44/44/44 43/43/43
f 44/44/44 45/45/45 43/43/43
f 44/44/44 46/46/46 45/45/45
f 46/46/46 47/47/47 45/45/45
f 48/48/48 47/47/47 46/46/46
f 49/49/49 48/48/48 46/46/46
f 52/52/52 51/51/51 50/50/50
f 51/51/51 53/53/53 50/50/50
f 53/53/53 54/54/54 50/50/50
f 54/54/54 55/55/55 50/50/50
f 54/54/54 56/56/56 55/55/55
f 56/56/56 57/57/57 55/55/55
f 56/56/56 58/58/58 57/57/57
f 58/58/58 59/59/59 57/57/57
f 58/58/58 60/60/60 59/59/59
f 60/60/60 61/61/61 59/59/59
f 64/64/64 63/63/63 62/62/62
f 64/64/64 62/62/62 65/65/65
f 66/66/66 64/64/64 65/65/65
f 66/66/66 67/67/67 64/64/64
f 66/66/66 68/68/68 67/67/67
f 66/66/66 69/69/69 68/68/68
f 69/69/69 70/70/70 68/68/68
f 70/70/70 71/71/71 68/68/68
f 74/74/74 73/73/73 72/72/72
f 73/73/73 74/74/74 75/75/75
f 74/74/74 76/76/76 75/75/75
f 77/77/77 73/73/73 75/75/75
f 77/77/77 78/78/78 73/73/73
f 79/79/79 77/77/77 75/75/75
f 76/76/76 80/80/80 75/75/75
f 76/76/76 81/81/81 80/80/80
f 81/81/81 82/82/82 80/80/80
f 81/81/81 83/83/83 82/82/82
f 83/83/83 84/84/84 82/82/82
f 84/84/84 83/83/83 85/85/85
f 86/86/86 84/84/84 85/85/85
f 89/89/89 88/88/88 87/87/87
f 90/90/90 89/89/89 87/87/87
f 90/90/90 91/91/91 89/89/89
f 91/91/91 92/92/92 89/89/89
f 91/91/91 93/93/93 92/92/92
f 93/93/93 94/94/94 92/92/92
f 93/93/93 95/95/95 94/94/94
f 95/95/95 96/96/96 94/94/94
f 97/97/97 96/96/96 95/95/95
f 98/98/98 97/97/97 95/95/95
f 101/101/101 100/100/100 99/99/99
f 100/100/100 102/102/102 99/99/99
f 102/102/102 103/103/103 99/99/99
f 103/103/103 104/104/104 99/99/99
f 103/103/103 105/105/105 104/104/104
f 105/105/105 106/106/106 104/104/104
f 105/105/105 107/107/107 106/106/106
f 107/107/107 108/108/108 106/106/106
f 107/107/107 109/109/109 108/108/108
f 109/109/109 110/110/110 108/108/108
f 113/113/113 112/112/112 111/111/111
f 113/113/113 111/111/111 114/114/114
f 115/115/115 113/113/113 114/114/114
f 115/115/115 116/116/116 113/113/113
f 115/115/115 117/117/117 116/116/116
f 115/115/115 118/118/118 117/117/117
f 118/118/118 119/119/119 117/117/117
f 119/119/119 120/120/120 117/117/117
f 123/123/123 122/122/122 121/121/121
f 123/123/123 124/124/124 122/122/122
f 124/124/124 125/125/125 122/122/122
f 125/125/125 126/126/126 122/122/122
f 129/129/129 128/128/128 127/127/127
f 129/129/129 127/127/127 130/130/130
f 131/131/131 129/129/129 130/130/130
f 131/131/131 132/132/132 129/129/129
f 131/131/131 133/133/133 132/132/132
f 131/131/131 134/134/134 133/133/133
f 134/134/134 135/135/135 133/133/133
f 135/135/135 136/136/136 133/133/133
f 139/139/139 138/138/138 137/137/137
f 139/139/139 137/137/137 140/140/140
f 141/141/141 139/139/139 140/140/140
f 141/141/141 142/142/142 139/139/139
f 145/145/145 144/144/144 143/143/143
f 146/146/146 145/145/145 143/143/143
f 149/149/149 148/148/148 147/147/147
f 150/150/150 149/149/149 147/147/147
f 153/153/153 152/152/152 151/151/151
f 152/152/152 154/154/154 151/151/151
f 151/151/151 154/154/154 155/155/155
f 156/156/156 151/151/151 155/155/155
f 155/155/155 157/157/157 156/156/156
f 157/157/157 158/158/158 156/156/156
f 161/161/161 160/160/160 159/159/159
f 162/162/162 161/161/161 159/159/159
f 165/165/165 164/164/164 163/163/163
f 163/163/163 166/166/166 165/165/165
f 167/167/167 165/165/165 166/166/166
f 165/165/165 167/167/167 168/168/168
f 167/167/167 169/169/169 168/168/168
f 166/166/166 170/170/170 167/167/167
f 170/170/170 169/169/169 167/167/167
f 169/169/169 170/170/170 166/166/166
f 173/173/173 172/172/172 171/171/171
f 174/174/174 171/171/171 172/172/172
f 177/177/177 176/176/176 175/175/175
f 175/175/175 178/178/178 177/177/177
f 178/178/178 175/175/175 179/179/179
f 179/179/179 180/180/180 178/178/178
f 180/180/180 179/179/179 181/181/181
f 182/182/182 181/181/181 179/179/179
f 185/185/185 184/184/184 183/183/183
f 183/183/183 186/186/186 185/185/185
f 183/183/183 187/187/187 186/186/186
f 190/190/190 189/189/189 188/188/188
f 191/191/191 189/189/189 190/190/190
f 192/192/192 189/189/189 191/191/191
f 195/195/195 194/194/194 193/193/193
f 196/196/196 194/194/194 195/195/195
f 197/197/197 196/196/196 195/195/195
f 197/197/197 195/195/195 198/198/198
f 193/193/193 199/199/199 195/195/195
f 199/199/199 198/198/198 195/195/195
f 199/199/199 193/193/193 200/200/200
f 199/199/199 201/201/201 198/198/198
f 200/200/200 202/202/202 199/199/199
f 201/201/201 199/199/199 202/202/202
