g wall_wood
v -0.5035 -2.7273553E-17 0.4454109
v -0.4454109 3.083048E-17 -0.5035
v -0.5035 2.7273553E-17 -0.4454109
v 0.5035 2.7273553E-17 -0.4454109
v 0.4454109 3.083048E-17 -0.5035
v 0.4454109 -3.083048E-17 0.5035
v -0.4454109 -3.083048E-17 0.5035
v 0.5035 -2.7273553E-17 0.4454109
v 0.31620553 1.007 -0.3742946
v -0.3742946 1.007 -0.31620553
v -0.31620553 1.007 -0.3742946
v -0.3742946 1.007 0.31620553
v -0.31620553 1.007 0.3742946
v 0.3742946 1.007 -0.31620553
v 0.31620553 1.007 0.3742946
v 0.3742946 1.007 0.31620553
v -0.40096995 0.50350004 0.45905903
v 0.4454109 -3.083048E-17 0.5035
v -0.4454109 -3.083048E-17 0.5035
v 0.40096995 0.5034999 0.45905903
v 0.37736356 0.94907326 0.4354526
v -0.37736356 0.94907326 0.4354526
v 0.45905903 0.5034999 0.40096995
v 0.5035 2.7273553E-17 -0.4454109
v 0.5035 -2.7273553E-17 0.4454109
v 0.45905903 0.5034999 -0.40096995
v 0.4354526 0.94907326 -0.37736356
v 0.4354526 0.94907326 0.37736356
v 0.40096995 0.5034999 -0.45905903
v -0.4454109 3.083048E-17 -0.5035
v 0.4454109 3.083048E-17 -0.5035
v -0.40096995 0.5034999 -0.45905903
v -0.37736356 0.94907326 -0.4354526
v 0.37736356 0.94907326 -0.4354526
v -0.45905903 0.5034999 -0.40096995
v -0.5035 -2.7273553E-17 0.4454109
v -0.5035 2.7273553E-17 -0.4454109
v -0.45905903 0.50350004 0.40096995
v -0.4354526 0.94907326 0.37736356
v -0.4354526 0.94907326 -0.37736356
v -0.31620553 1.007 0.3742946
v 0.37736356 0.94907326 0.4354526
v -0.37736356 0.94907326 0.4354526
v 0.31620553 1.007 0.3742946
v 0.3742946 1.007 0.31620553
v 0.4354526 0.94907326 -0.37736356
v 0.4354526 0.94907326 0.37736356
v 0.3742946 1.007 -0.31620553
v 0.31620553 1.007 -0.3742946
v -0.37736356 0.94907326 -0.4354526
v 0.37736356 0.94907326 -0.4354526
v -0.31620553 1.007 -0.3742946
v -0.3742946 1.007 -0.31620553
v -0.4354526 0.94907326 0.37736356
v -0.4354526 0.94907326 -0.37736356
v -0.3742946 1.007 0.31620553
v 0.4454109 -3.083048E-17 0.5035
v 0.45905903 0.5034999 0.40096995
v 0.5035 -2.7273553E-17 0.4454109
v 0.40096995 0.5034999 0.45905903
v 0.4354526 0.94907326 0.37736356
v 0.37736356 0.94907326 0.4354526
v -0.37736356 0.94907326 0.4354526
v -0.45905903 0.50350004 0.40096995
v -0.4354526 0.94907326 0.37736356
v -0.40096995 0.50350004 0.45905903
v -0.5035 -2.7273553E-17 0.4454109
v -0.4454109 -3.083048E-17 0.5035
v 0.5035 2.7273553E-17 -0.4454109
v 0.40096995 0.5034999 -0.45905903
v 0.4454109 3.083048E-17 -0.5035
v 0.45905903 0.5034999 -0.40096995
v 0.37736356 0.94907326 -0.4354526
v 0.4354526 0.94907326 -0.37736356
v -0.4454109 3.083048E-17 -0.5035
v -0.45905903 0.5034999 -0.40096995
v -0.5035 2.7273553E-17 -0.4454109
v -0.40096995 0.5034999 -0.45905903
v -0.4354526 0.94907326 -0.37736356
v -0.37736356 0.94907326 -0.4354526
v -0.4354526 0.94907326 0.37736356
v -0.31620553 1.007 0.3742946
v -0.37736356 0.94907326 0.4354526
v -0.3742946 1.007 0.31620553
v 0.3742946 1.007 0.31620553
v 0.37736356 0.94907326 0.4354526
v 0.31620553 1.007 0.3742946
v 0.4354526 0.94907326 0.37736356
v -0.37736356 0.94907326 -0.4354526
v -0.3742946 1.007 -0.31620553
v -0.4354526 0.94907326 -0.37736356
v -0.31620553 1.007 -0.3742946
v 0.31620553 1.007 -0.3742946
v 0.4354526 0.94907326 -0.37736356
v 0.3742946 1.007 -0.31620553
v 0.37736356 0.94907326 -0.4354526
vt 2.691114 1.760334
vt 2.7099228 1.4530883
vt 2.691114 1.4718968
vt 3.0171685 1.4718968
vt 2.9983597 1.4530883
vt 2.9983597 1.7791426
vt 2.7099228 1.7791426
vt 3.0171685 1.760334
vt 0.5375925 0.10835515
vt 0.605241 0.1140462
vt 0.59954995 0.10835515
vt 0.605241 0.1760038
vt 0.59954995 0.18169485
vt 0.5319014 0.1140462
vt 0.5375925 0.18169485
vt 0.5319014 0.1760038
vt 0.52928805 0.055273727
vt 0.6122083 0.005754307
vt 0.52493423 0.005754307
vt 0.6078544 0.055273727
vt 0.60507214 0.098987885
vt 0.5328028 0.098987885
vt 0.52928805 0.055273727
vt 0.6122083 0.005754307
vt 0.52493423 0.005754307
vt 0.6078544 0.055273727
vt 0.60507214 0.098987885
vt 0.5328028 0.098987885
vt 0.52928805 0.055273727
vt 0.6122083 0.005754307
vt 0.52493423 0.005754307
vt 0.6078544 0.055273727
vt 0.60507214 0.098987885
vt 0.5328028 0.098987885
vt 0.5292882 0.055273727
vt 0.6122083 0.005754307
vt 0.52493423 0.005754307
vt 0.6078544 0.055273727
vt 0.60507214 0.098987885
vt 0.5328028 0.098987885
vt 0.5328028 0.10622044
vt 0.60507214 0.098987885
vt 0.5328028 0.098987885
vt 0.60507214 0.10622044
vt 0.5328028 0.10622044
vt 0.60507214 0.098987885
vt 0.5328028 0.098987885
vt 0.60507214 0.10622044
vt 0.5328028 0.10622044
vt 0.60507214 0.098987885
vt 0.5328028 0.098987885
vt 0.60507214 0.10622044
vt 0.5328028 0.10622044
vt 0.60507214 0.098987885
vt 0.5328028 0.098987885
vt 0.60507214 0.10622044
vt 0.6122083 0.005754307
vt 0.6202565 0.055273727
vt 0.6202565 0.005754307
vt 0.6122083 0.055273727
vt 0.6202565 0.098987885
vt 0.6122083 0.098987885
vt 0.6202565 0.098987885
vt 0.6122083 0.055273727
vt 0.6122083 0.098987885
vt 0.6202565 0.055273727
vt 0.61220837 0.005814865
vt 0.62025666 0.005814865
vt 0.6122083 0.0057541877
vt 0.6202565 0.055273727
vt 0.6202565 0.0057541877
vt 0.6122083 0.055273727
vt 0.62025666 0.098987885
vt 0.61220837 0.098987885
vt 0.6122083 0.005754307
vt 0.6202565 0.055273727
vt 0.6202565 0.005754307
vt 0.6122083 0.055273727
vt 0.62025666 0.098987885
vt 0.61220837 0.098987885
vt 0.6122083 0.098987885
vt 0.6202565 0.10622044
vt 0.6202565 0.098987885
vt 0.6122083 0.10622044
vt 0.6202565 0.10622044
vt 0.6122083 0.098987885
vt 0.6122083 0.10622044
vt 0.6202565 0.098987885
vt 0.61220837 0.098987885
vt 0.62025666 0.10622044
vt 0.62025666 0.098987885
vt 0.61220837 0.10622044
vt 0.62025666 0.10622044
vt 0.61220837 0.098987885
vt 0.61220837 0.10622044
vt 0.62025666 0.098987885
vn -0 -1 0
vn -0 -1 0
vn -0 -1 0
vn -0 -1 0
vn -0 -1 0
vn -0 -1 0
vn -0 -1 0
vn -0 -1 0
vn -0 1 0
vn -0 1 0
vn -0 1 0
vn -0 1 0
vn -0 1 0
vn -0 1 0
vn -0 1 0
vn -0 1 0
vn -0 0.071199626 0.99746203
vn -0 0.08792228 0.9961273
vn -0 0.08792226 0.9961273
vn -0 0.07119963 0.99746203
vn -0 0.052905634 0.99859947
vn -0 0.05290564 0.99859947
vn 0.99746203 0.071199626 0
vn 0.9961273 0.08792227 0
vn 0.9961273 0.08792227 0
vn 0.99746203 0.07119963 0
vn 0.99859947 0.052905634 0
vn 0.99859947 0.052905638 0
vn -0 0.071199626 -0.99746203
vn -0 0.08792227 -0.9961273
vn -0 0.08792227 -0.9961273
vn -0 0.07119963 -0.99746203
vn -0 0.052905634 -0.99859947
vn -0 0.052905638 -0.99859947
vn -0.99746203 0.07119963 0
vn -0.9961273 0.08792226 0
vn -0.9961273 0.08792227 0
vn -0.99746203 0.07119962 0
vn -0.99859947 0.05290564 0
vn -0.99859947 0.052905638 0
vn -0 0.72602654 0.6876667
vn -0 0.72602654 0.6876667
vn -0 0.72602654 0.6876667
vn -0 0.72602654 0.68766665
vn 0.6876667 0.72602654 0
vn 0.6876667 0.72602654 0
vn 0.6876667 0.72602654 0
vn 0.68766665 0.72602654 0
vn -0 0.72602654 -0.6876667
vn -0 0.72602654 -0.6876667
vn -0 0.72602654 -0.6876667
vn -0 0.72602654 -0.68766665
vn -0.6876667 0.72602654 0
vn -0.6876667 0.72602654 0
vn -0.6876667 0.72602654 0
vn -0.68766665 0.72602654 0
vn 0.7016615 0.12386303 0.7016615
vn 0.7036106 0.0993195 0.7036106
vn 0.7016615 0.12386302 0.7016615
vn 0.7036106 0.0993195 0.7036106
vn 0.7051303 0.07471537 0.7051303
vn 0.7051303 0.07471537 0.7051303
vn -0.7051303 0.07471538 0.7051303
vn -0.7036106 0.09931951 0.7036106
vn -0.7051303 0.07471538 0.7051303
vn -0.7036106 0.09931951 0.7036106
vn -0.7016615 0.12386303 0.7016615
vn -0.7016615 0.12386302 0.7016615
vn 0.7016615 0.12386303 -0.7016615
vn 0.7036106 0.0993195 -0.7036106
vn 0.7016615 0.12386302 -0.7016615
vn 0.7036106 0.0993195 -0.7036106
vn 0.7051303 0.07471537 -0.7051303
vn 0.7051303 0.07471537 -0.7051303
vn -0.7016615 0.12386303 -0.7016615
vn -0.7036106 0.0993195 -0.7036106
vn -0.7016615 0.12386302 -0.7016615
vn -0.7036106 0.0993195 -0.7036106
vn -0.7051303 0.07471537 -0.7051303
vn -0.7051303 0.07471537 -0.7051303
vn -0.39348406 0.83086735 0.39348406
vn -0.39348406 0.83086735 0.39348406
vn -0.39348406 0.83086735 0.39348406
vn -0.39348406 0.83086735 0.39348406
vn 0.39348406 0.83086735 0.39348406
vn 0.39348406 0.83086735 0.39348406
vn 0.39348406 0.83086735 0.39348406
vn 0.39348406 0.83086735 0.39348406
vn -0.39348406 0.83086735 -0.39348406
vn -0.39348406 0.83086735 -0.39348406
vn -0.39348406 0.83086735 -0.39348406
vn -0.39348406 0.83086735 -0.39348406
vn 0.39348406 0.83086735 -0.39348406
vn 0.39348406 0.83086735 -0.39348406
vn 0.39348406 0.83086735 -0.39348406
vn 0.39348406 0.83086735 -0.39348406
g wall_wood_0
f 3/3/3 2/2/2 1/1/1
f 2/2/2 4/4/4 1/1/1
f 5/5/5 4/4/4 2/2/2
f 4/4/4 6/6/6 1/1/1
f 1/1/1 6/6/6 7/7/7
f 8/8/8 6/6/6 4/4/4
f 11/11/11 10/10/10 9/9/9
f 12/12/12 9/9/9 10/10/10
f 12/12/12 13/13/13 9/9/9
f 14/14/14 9/9/9 13/13/13
f 13/13/13 15/15/15 14/14/14
f 16/16/16 14/14/14 15/15/15
f 19/19/19 18/18/18 17/17/17
f 20/20/20 17/17/17 18/18/18
f 20/20/20 21/21/21 17/17/17
f 22/22/22 17/17/17 21/21/21
f 25/25/25 24/24/24 23/23/23
f 26/26/26 23/23/23 24/24/24
f 26/26/26 27/27/27 23/23/23
f 28/28/28 23/23/23 27/27/27
f 31/31/31 30/30/30 29/29/29
f 32/32/32 29/29/29 30/30/30
f 32/32/32 33/33/33 29/29/29
f 34/34/34 29/29/29 33/33/33
f 37/37/37 36/36/36 35/35/35
f 38/38/38 35/35/35 36/36/36
f 38/38/38 39/39/39 35/35/35
f 40/40/40 35/35/35 39/39/39
f 43/43/43 42/42/42 41/41/41
f 44/44/44 41/41/41 42/42/42
f 47/47/47 46/46/46 45/45/45
f 48/48/48 45/45/45 46/46/46
f 51/51/51 50/50/50 49/49/49
f 52/52/52 49/49/49 50/50/50
f 55/55/55 54/54/54 53/53/53
f 56/56/56 53/53/53 54/54/54
f 59/59/59 58/58/58 57/57/57
f 60/60/60 57/57/57 58/58/58
f 58/58/58 61/61/61 60/60/60
f 62/62/62 60/60/60 61/61/61
f 65/65/65 64/64/64 63/63/63
f 66/66/66 63/63/63 64/64/64
f 64/64/64 67/67/67 66/66/66
f 68/68/68 66/66/66 67/67/67
f 71/71/71 70/70/70 69/69/69
f 72/72/72 69/69/69 70/70/70
f 70/70/70 73/73/73 72/72/72
f 74/74/74 72/72/72 73/73/73
f 77/77/77 76/76/76 75/75/75
f 78/78/78 75/75/75 76/76/76
f 76/76/76 79/79/79 78/78/78
f 80/80/80 78/78/78 79/79/79
f 83/83/83 82/82/82 81/81/81
f 84/84/84 81/81/81 82/82/82
f 87/87/87 86/86/86 85/85/85
f 88/88/88 85/85/85 86/86/86
f 91/91/91 90/90/90 89/89/89
f 92/92/92 89/89/89 90/90/90
f 95/95/95 94/94/94 93/93/93
f 96/96/96 93/93/93 94/94/94
