g wall_broken_S2
v -0.3927303 1.2043703 -0.47016492
v -0.39273015 2.0140002 -0.47016466
v -0.41930497 2.0140004 -0.52051467
v -0.41930512 1.2043703 -0.52051497
v -0.42328665 1.3473035 -0.5034997
v -0.42328665 1.2158993 -0.5034997
v 0.42351037 1.2158993 -0.5034997
v 0.42351037 1.3473035 -0.5034997
v 0.42351037 1.3473035 -0.5034997
v 0.42351037 1.3611426 -0.47016492
v -0.42328665 1.3611426 -0.47016492
v -0.42328665 1.3473035 -0.5034997
v -0.35650834 1.2196872 -0.55231744
v -0.5035 1.2196872 -0.55231744
v -0.5035 1.0881304 -0.53681177
v -0.350694 1.0881304 -0.53681177
v -0.5035 1.2196873 -0.36707038
v -0.5035 1.2196872 -0.55231744
v -0.35650834 1.2196872 -0.55231744
v -0.34413597 1.2196873 -0.36707038
v -0.34413597 1.2196873 -0.36707038
v -0.35650834 1.2196872 -0.55231744
v -0.350694 1.0881304 -0.53681177
v -0.33832163 1.0881304 -0.36707044
v 0.5035 1.0881305 -0.53681177
v 0.5035 1.2196873 -0.55231744
v 0.35548192 1.2196873 -0.55231744
v 0.349706 1.0881305 -0.53681177
v 0.34310955 1.2196873 -0.36706975
v 0.33733362 1.0881304 -0.3670698
v 0.349706 1.0881305 -0.53681177
v 0.35548192 1.2196873 -0.55231744
v 0.35548192 1.2196873 -0.55231744
v 0.5035 1.2196873 -0.55231744
v 0.5035 1.2196873 -0.36706975
v 0.34310955 1.2196873 -0.36706975
v 0.50350016 2.0140002 -0.52051467
v 0.41930157 2.0140002 -0.52051467
v 0.41930142 1.2043704 -0.52051497
v 0.5035 1.2043703 -0.52051497
v 0.41930142 1.2043704 -0.52051497
v 0.41930157 2.0140002 -0.52051467
v 0.39273015 2.0140002 -0.47016466
v 0.39273 1.2043703 -0.47016492
v -0.41930497 2.0140004 -0.52051467
v -0.50349987 2.0140004 -0.52051467
v -0.5035 1.2043703 -0.52051497
v -0.41930512 1.2043703 -0.52051497
v -0.46740332 0.6169389 0.43989894
v -0.46725896 0.61694133 -0.37365285
v 0.46031985 0.61694133 -0.37365285
v 0.46031332 0.61694044 0.43989894
v 0.46031332 0.61694044 0.43989894
v 0.43381298 1.2627897 0.43989855
v -0.46740332 1.2627879 0.43989855
v -0.46740332 0.6169389 0.43989894
v -0.42328572 0.6381219 -0.39089707
v -0.42328635 0.48351043 -0.39089704
v 0.42351037 0.48351043 -0.3908965
v 0.42351037 0.6381217 -0.39089653
v -0.42328572 0.6381219 -0.39089707
v 0.42351037 0.6381217 -0.39089653
v 0.42351037 0.6526177 -0.35756162
v -0.42328635 0.6526177 -0.35756233
v 0.41930205 1.0878401 -0.40791154
v 0.41930205 0.48109746 -0.40791166
v 0.5035006 0.48109752 -0.40791166
v 0.5035006 1.0878401 -0.40791154
v 0.41930205 1.0878401 -0.40791154
v 0.3927306 1.0878401 -0.35756162
v 0.3927306 0.48109752 -0.35756153
v 0.41930205 0.48109746 -0.40791166
v -0.41930512 1.0878402 -0.4079124
v -0.5034991 1.0878402 -0.4079123
v -0.5034994 0.48109752 -0.40791205
v -0.41930512 0.48109746 -0.40791214
v -0.3927303 1.0878402 -0.3575621
v -0.41930512 1.0878402 -0.4079124
v -0.3927297 0.48109752 -0.35756212
v -0.41930512 0.48109746 -0.40791214
v -0.3964208 1.2171897 -0.35827523
v 0.3964171 0.64375454 -0.35827452
v 0.39641774 1.2171897 -0.3582745
v -0.39642173 0.6437546 -0.35827515
v -0.50370556 0.4926082 -0.5396464
v 0.5032941 0.4926082 -0.53964627
v 0.5030753 0.49260405 0.50302994
v -0.5039238 0.49260405 0.50302964
v 0.50326335 0.32806844 -0.60603595
v 0.5032609 0.4739018 -0.5623987
v -0.5037372 0.32806846 -0.60603625
v -0.5037394 0.47390184 -0.56239873
v 0.5032609 0.4739018 -0.5623987
v 0.5032941 0.4926082 -0.53964627
v -0.50370556 0.4926082 -0.5396464
v -0.5037394 0.47390184 -0.56239873
v 0.30827436 1.6422056 -0.47087774
v 0.41878513 1.3415122 -0.47087806
v 0.41878513 1.574603 -0.4708779
v -0.4237061 1.3415122 -0.47087806
v 0.06407425 1.6390425 -0.47087798
v 0.29515582 1.7028524 -0.4708779
v -0.034351796 1.7673408 -0.4708779
v -0.40873757 1.850032 -0.47087783
v -0.40873757 1.8500316 -0.32653207
v -0.40873757 1.850032 -0.47087783
v -0.034351796 1.7673408 -0.4708779
v -0.034351796 1.7673404 -0.32653216
v -0.034351796 1.7673408 -0.4708779
v 0.06407425 1.6390425 -0.47087798
v 0.06407425 1.6390421 -0.3265322
v -0.034351796 1.7673404 -0.32653216
v 0.06407425 1.6390425 -0.47087798
v 0.29515582 1.7028524 -0.4708779
v 0.29515582 1.7028521 -0.32653216
v 0.06407425 1.6390421 -0.3265322
v 0.29515582 1.7028524 -0.4708779
v 0.30827436 1.6422056 -0.47087774
v 0.30827436 1.6422054 -0.32653198
v 0.29515582 1.7028521 -0.32653216
v 0.30827436 1.6422056 -0.47087774
v 0.41878513 1.574603 -0.4708779
v 0.41878513 1.5746026 -0.3265321
v 0.30827436 1.6422054 -0.32653198
vt 0.19814394 0.9485233
vt 0.19814394 0.9589243
vt 0.19686998 0.9589243
vt 0.19686998 0.9485233
vt 0.19686998 0.9485233
vt 0.19268768 0.9485233
vt 0.19268768 0.9589243
vt 0.19686998 0.9589243
vt 0.19686998 0.9589243
vt 0.19814394 0.9589243
vt 0.19814394 0.9485233
vt 0.19686998 0.9485233
vt 0.14493467 0.9083836
vt 0.13256852 0.9083836
vt 0.13256852 0.89483976
vt 0.14493467 0.89483976
vt 0.13295488 0.9119539
vt 0.13255344 0.90865743
vt 0.14506735 0.90865743
vt 0.14507298 0.9119539
vt 0.14750545 0.90853834
vt 0.14506735 0.90853834
vt 0.14506735 0.89483976
vt 0.14750545 0.89483976
vt 0.1325777 0.89483976
vt 0.1325777 0.9083836
vt 0.14493467 0.9083836
vt 0.14493467 0.89483976
vt 0.14750545 0.90853834
vt 0.14750545 0.89483976
vt 0.14506735 0.89483976
vt 0.14506735 0.90853834
vt 0.14506735 0.90865743
vt 0.13256274 0.90865743
vt 0.13296242 0.9119539
vt 0.14507298 0.9119539
vt 0.19268768 0.9589243
vt 0.19686998 0.9589243
vt 0.19686998 0.9485233
vt 0.19268768 0.9485233
vt 0.19686998 0.9485233
vt 0.19686998 0.9589243
vt 0.19814394 0.9589243
vt 0.19814394 0.9485233
vt 0.19686998 0.9589243
vt 0.19268768 0.9589243
vt 0.19268768 0.9485233
vt 0.19686998 0.9485233
vt 0.263683 0.7488846
vt 0.2769708 0.7488846
vt 0.2769708 0.73505694
vt 0.263683 0.73505694
vt 0.263683 0.73505694
vt 0.2615512 0.73505694
vt 0.2615512 0.7510146
vt 0.263683 0.7488846
vt 0.17886105 0.9290298
vt 0.17886105 0.921945
vt 0.16926944 0.921945
vt 0.16926944 0.9290298
vt 0.17886105 0.9290298
vt 0.16926944 0.9290298
vt 0.16926944 0.9315599
vt 0.17886105 0.9315599
vt 0.19686998 0.9589243
vt 0.19686998 0.9485233
vt 0.19268768 0.9485233
vt 0.19268768 0.9589243
vt 0.19686998 0.9589243
vt 0.19816048 0.9589243
vt 0.19816048 0.9485233
vt 0.19686998 0.9485233
vt 0.19686998 0.9589243
vt 0.19268768 0.9589243
vt 0.19268768 0.9485233
vt 0.19686998 0.9485233
vt 0.19816048 0.9589243
vt 0.19686998 0.9589243
vt 0.19816048 0.9485233
vt 0.19686998 0.9485233
vt 0.16437657 0.7969588
vt 0.10605527 0.75047624
vt 0.10605528 0.7969588
vt 0.16437654 0.75047624
vt 0.6487659 0.7228514
vt 0.5875656 0.7228514
vt 0.5875529 0.78594196
vt 0.6487533 0.78594196
vt 0.5875674 0.704502
vt 0.58756757 0.7179631
vt 0.6487677 0.704502
vt 0.64876795 0.7179631
vt 0.58756757 0.7179631
vt 0.5875656 0.7228514
vt 0.6487659 0.7228514
vt 0.64876795 0.7179631
vt 0.44252655 0.850897
vt 0.45119908 0.8443928
vt 0.45119908 0.85070276
vt 0.40952116 0.8443928
vt 0.43365154 0.85430586
vt 0.44187757 0.8531519
vt 0.42878243 0.863757
vt 0.41594157 0.863757
vt 0.44848773 0.8778852
vt 0.44848773 0.8650284
vt 0.4613286 0.8650284
vt 0.4613286 0.8778852
vt 0.41905725 0.865681
vt 0.41246492 0.865681
vt 0.41246492 0.8778852
vt 0.41905725 0.8778852
vt 0.45095614 0.8650284
vt 0.45918217 0.8650284
vt 0.45918217 0.8778852
vt 0.45095614 0.8778852
vt 0.4156504 0.865681
vt 0.41252896 0.865681
vt 0.41252896 0.8778852
vt 0.4156504 0.8778852
vt 0.45047966 0.8650284
vt 0.4591522 0.8650284
vt 0.4591522 0.8778852
vt 0.45047966 0.8778852
vn 0.8843761 0 -0.4667751
vn 0.8843761 0 -0.46677506
vn 0.8843761 0 -0.4667751
vn 0.8843761 0 -0.46677506
vn -0 0 -1
vn -0 0 -1
vn -0 0 -1
vn -0 0 -1
vn -0 0.92357093 -0.3834277
vn -0 0.92357093 -0.3834277
vn -0 0.92357093 -0.3834277
vn -0 0.92357093 -0.3834277
vn -0 -0.11705259 -0.9931257
vn -0 -0.11705261 -0.9931257
vn -0 -0.11705261 -0.9931257
vn -0 -0.11705259 -0.9931257
vn -0 1 -8.294653E-07
vn -0 1 -8.294653E-07
vn -0 1 -8.294653E-07
vn -0 1 -8.294653E-07
vn 0.99678254 0.03995959 -0.06948158
vn 0.99678254 0.039959595 -0.06948159
vn 0.99678254 0.039959595 -0.06948158
vn 0.99678254 0.039959595 -0.06948158
vn -0 -0.11705255 -0.9931257
vn -0 -0.11705255 -0.9931257
vn -0 -0.117052525 -0.9931257
vn -0 -0.11705254 -0.9931257
vn -0.99679416 0.039669003 -0.06948212
vn -0.99679416 0.039669007 -0.06948213
vn -0.99679416 0.039669007 -0.06948212
vn -0.99679416 0.039669003 -0.069482125
vn -0 1 0
vn -0 1 0
vn -0 1 0
vn -0 1 0
vn -0 3.321246E-07 -1
vn -0 3.321246E-07 -1
vn -0 3.3212459E-07 -1
vn -0 3.3212456E-07 -1
vn -0.88440055 3.2205529E-07 -0.4667286
vn -0.88440055 3.2205526E-07 -0.4667286
vn -0.88440055 3.2205529E-07 -0.4667286
vn -0.88440055 3.2205526E-07 -0.4667286
vn -0 3.321245E-07 -1
vn -0 3.321245E-07 -1
vn -0 3.321245E-07 -1
vn -0 3.321245E-07 -1
vn -0 1 2.9747118E-06
vn -0 1 2.9747118E-06
vn -0 1 2.9747118E-06
vn -1.6562816E-06 1 1.0859924E-06
vn -0 -5.947828E-07 -1
vn -0 -5.947829E-07 -1
vn -0 -5.947828E-07 -1
vn -0 -5.947828E-07 -1
vn 6.350947E-07 -2.484576E-07 -1
vn 6.3509464E-07 -2.4845758E-07 -1
vn 6.3509464E-07 -2.4845758E-07 -1
vn 6.3509515E-07 -2.484553E-07 -1
vn 4.196689E-07 0.91704476 -0.39878416
vn 4.196689E-07 0.91704476 -0.39878416
vn 4.196689E-07 0.91704476 -0.39878416
vn 3.2562568E-07 0.9170457 -0.39878213
vn -0 1.8993555E-07 -1
vn -0 1.8993555E-07 -1
vn -0 1.8993555E-07 -1
vn -0 1.8993559E-07 -1
vn -0.88440025 0 -0.46672916
vn -0.88440025 0 -0.46672916
vn -0.88440025 0 -0.46672916
vn -0.8844012 0 -0.46672747
vn -9.12512E-07 -4.4318247E-07 -1
vn -9.1251206E-07 -4.4318253E-07 -1
vn -9.12512E-07 -4.4318247E-07 -1
vn -9.1250917E-07 -4.4318293E-07 -1
vn 0.8843773 9.254173E-07 -0.46677282
vn 0.8843773 9.2541717E-07 -0.46677282
vn 0.8843773 9.2541717E-07 -0.46677276
vn 0.88437164 -2.0687045E-07 -0.4667835
vn 9.690245E-07 0 -1
vn 9.690245E-07 0 -1
vn 9.690245E-07 0 -1
vn 7.752193E-07 -2.009691E-07 -1
vn -0 1 3.978908E-06
vn -0 1 3.978908E-06
vn -0 1 3.978908E-06
vn -0 1 3.978908E-06
vn 3.033029E-07 0.28666854 -0.95802987
vn 3.033029E-07 0.28666857 -0.95802987
vn 3.033029E-07 0.28666857 -0.95802987
vn -0 0.28666988 -0.9580294
vn -0 0.77244425 -0.6350826
vn -0 0.77244425 -0.6350826
vn -0 0.7724442 -0.63508266
vn -0 0.7724438 -0.63508314
vn -0 9.88526E-07 -1
vn -0 9.885259E-07 -1
vn -0 9.88526E-07 -1
vn -0 9.885259E-07 -1
vn -1.4152936E-07 4.902467E-07 -1
vn 9.631441E-07 -1.490871E-06 -1
vn -1.4152936E-07 4.902468E-07 -1
vn -1.0442294E-07 4.5631873E-07 -1
vn 0.21567354 0.97646546 2.0689226E-06
vn 0.21567354 0.97646546 2.0689224E-06
vn 0.21567354 0.97646546 2.0689226E-06
vn 0.21567354 0.97646546 2.0689224E-06
vn 0.79341525 0.6086808 1.2926745E-06
vn 0.79341525 0.6086808 1.2926745E-06
vn 0.79341525 0.6086808 1.2926745E-06
vn 0.79341525 0.6086808 1.2926745E-06
vn -0.26617444 0.9639248 2.0568882E-06
vn -0.26617444 0.9639248 2.0568882E-06
vn -0.26617444 0.9639248 2.0568882E-06
vn -0.26617444 0.9639248 2.0568882E-06
vn 0.9773951 0.21142079 4.5078949E-07
vn 0.9773951 0.21142079 4.507895E-07
vn 0.9773951 0.21142079 4.5078949E-07
vn 0.9773951 0.21142079 4.507895E-07
vn 0.5218337 0.85304713 1.8100534E-06
vn 0.5218338 0.85304725 1.8100538E-06
vn 0.5218338 0.85304725 1.8100538E-06
vn 0.5218338 0.85304725 1.8100538E-06
g wall_broken_S2_0
f 3/3/3 2/2/2 1/1/1
f 4/4/4 3/3/3 1/1/1
f 7/7/7 6/6/6 5/5/5
f 8/8/8 7/7/7 5/5/5
f 11/11/11 10/10/10 9/9/9
f 12/12/12 11/11/11 9/9/9
f 15/15/15 14/14/14 13/13/13
f 16/16/16 15/15/15 13/13/13
f 19/19/19 18/18/18 17/17/17
f 20/20/20 19/19/19 17/17/17
f 23/23/23 22/22/22 21/21/21
f 24/24/24 23/23/23 21/21/21
f 27/27/27 26/26/26 25/25/25
f 28/28/28 27/27/27 25/25/25
f 31/31/31 30/30/30 29/29/29
f 32/32/32 31/31/31 29/29/29
f 35/35/35 34/34/34 33/33/33
f 36/36/36 35/35/35 33/33/33
f 39/39/39 38/38/38 37/37/37
f 40/40/40 39/39/39 37/37/37
f 43/43/43 42/42/42 41/41/41
f 44/44/44 43/43/43 41/41/41
f 47/47/47 46/46/46 45/45/45
f 48/48/48 47/47/47 45/45/45
f 51/51/51 50/50/50 49/49/49
f 52/52/52 51/51/51 49/49/49
f 55/55/55 54/54/54 53/53/53
f 56/56/56 55/55/55 53/53/53
f 59/59/59 58/58/58 57/57/57
f 57/57/57 60/60/60 59/59/59
f 63/63/63 62/62/62 61/61/61
f 61/61/61 64/64/64 63/63/63
f 67/67/67 66/66/66 65/65/65
f 65/65/65 68/68/68 67/67/67
f 71/71/71 70/70/70 69/69/69
f 69/69/69 72/72/72 71/71/71
f 75/75/75 74/74/74 73/73/73
f 73/73/73 76/76/76 75/75/75
f 79/79/79 78/78/78 77/77/77
f 79/79/79 80/80/80 78/78/78
f 83/83/83 82/82/82 81/81/81
f 82/82/82 84/84/84 81/81/81
f 87/87/87 86/86/86 85/85/85
f 85/85/85 88/88/88 87/87/87
f 91/91/91 90/90/90 89/89/89
f 90/90/90 91/91/91 92/92/92
f 95/95/95 94/94/94 93/93/93
f 93/93/93 96/96/96 95/95/95
f 99/99/99 98/98/98 97/97/97
f 98/98/98 100/100/100 97/97/97
f 100/100/100 101/101/101 97/97/97
f 101/101/101 102/102/102 97/97/97
f 100/100/100 103/103/103 101/101/101
f 100/100/100 104/104/104 103/103/103
f 107/107/107 106/106/106 105/105/105
f 108/108/108 107/107/107 105/105/105
f 111/111/111 110/110/110 109/109/109
f 112/112/112 111/111/111 109/109/109
f 115/115/115 114/114/114 113/113/113
f 116/116/116 115/115/115 113/113/113
f 119/119/119 118/118/118 117/117/117
f 120/120/120 119/119/119 117/117/117
f 123/123/123 122/122/122 121/121/121
f 124/124/124 123/123/123 121/121/121
