g wall_cvs_CS
v 0.50350004 -0.0008370586 0.5035001
v 0.5036471 -0.0016975915 0.5036472
v -0.5034999 -0.0016977452 0.50379425
v 0.43953714 0.1862363 0.43953723
v -0.50349987 0.1862363 0.43953723
v 0.38021532 0.2081902 0.38021532
v -0.5034998 0.2081902 0.38021532
v -0.5043027 2.1387057 -0.18175738
v -0.49367294 2.138706 -0.4924667
v -0.18175738 2.1387057 -0.18175738
v -0.5043027 2.138706 -0.4924667
v -0.5043027 2.131319 -0.5035003
v -0.5043027 2.110437 -0.14236091
v -0.5043027 2.1387057 -0.18175738
v -0.18175738 2.1387057 -0.18175738
v -0.14236091 2.110437 -0.14236091
v -0.14236091 2.110437 -0.14236091
v -0.09789731 1.8464905 -0.09789724
v -0.5043027 1.8464905 -0.09789724
v -0.5043027 2.110437 -0.14236091
v -0.11897469 1.8703344 -0.11897469
v 0.38021532 0.2081902 0.38021532
v -0.5034998 0.2081902 0.38021532
v -0.50349885 1.8703343 -0.11897469
v 0.4395373 0.1862363 -0.50349987
v 0.5037944 -0.0016977452 -0.50349987
v 0.5036471 -0.0016975915 0.5036472
v 0.50350004 -0.0008370586 0.5035001
v 0.43953714 0.1862363 0.43953723
v 0.38021532 0.2081902 0.38021532
v 0.3802154 0.2081902 -0.5034998
v -0.18175738 2.1387057 -0.5035003
v -0.18175738 2.1387057 -0.18175738
v -0.49367294 2.138706 -0.4924667
v -0.49367294 2.138706 -0.5035003
v -0.5043027 2.131319 -0.5035003
v -0.18175738 2.1387057 -0.18175738
v -0.18175738 2.1387057 -0.5035003
v -0.14236091 2.110437 -0.5035003
v -0.14236091 2.110437 -0.14236091
v -0.14236091 2.110437 -0.14236091
v -0.14236091 2.110437 -0.5035003
v -0.09789724 1.8464905 -0.50350034
v -0.09789731 1.8464905 -0.09789724
v -0.11897469 1.8703344 -0.11897469
v -0.11897469 1.8703343 -0.50349885
v 0.3802154 0.2081902 -0.5034998
v 0.38021532 0.2081902 0.38021532
vt 0.14181478 0.7415692
vt 0.14181477 0.7415368
vt 0.1767698 0.7415368
vt 0.14403504 0.7486181
vt 0.17676981 0.7486182
vt 0.14609425 0.7531966
vt 0.17676981 0.75319666
vt 0.15301436 0.8624332
vt 0.18080252 0.86267143
vt 0.15301436 0.8635695
vt 0.18080252 0.8624332
vt 0.18244253 0.8624332
vt 0.1484766 0.8624332
vt 0.15301436 0.8624332
vt 0.15301436 0.8635695
vt 0.1484766 0.8637083
vt 0.1484766 0.86470854
vt 0.14186396 0.8645519
vt 0.14186396 0.86598366
vt 0.1484766 0.86598366
vt 0.15300615 0.8458827
vt 0.14273232 0.75598705
vt 0.16092001 0.75598705
vt 0.16092001 0.8458827
vt 0.17676981 0.7486182
vt 0.1767698 0.7415368
vt 0.14181477 0.7415368
vt 0.14181478 0.7415692
vt 0.14403504 0.7486181
vt 0.14609425 0.7531966
vt 0.17676981 0.75319666
vt 0.15301436 0.8624332
vt 0.15301436 0.8635695
vt 0.18080252 0.86267143
vt 0.18080252 0.8624332
vt 0.18244253 0.8624332
vt 0.15301436 0.8635695
vt 0.15301436 0.8624332
vt 0.1484766 0.8624332
vt 0.1484766 0.8637083
vt 0.1484766 0.86470854
vt 0.1484766 0.86598366
vt 0.14186396 0.86598366
vt 0.14186396 0.8645519
vt 0.15300615 0.8458827
vt 0.16092001 0.8458827
vt 0.16092001 0.75598705
vt 0.14273232 0.75598705
vn 0.6367343 0.43490076 0.6367345
vn 0.63672435 0.43490076 0.63674444
vn 2.7565147E-07 0.32318237 0.94633675
vn 0.5148698 0.6854327 0.51487
vn 1.5259707E-07 0.6980837 0.7160162
vn 0.17901276 0.9674239 0.17901263
vn -0 0.9378371 0.34707573
vn -0 1 9.890659E-07
vn -0.07952384 0.99359447 -0.08028629
vn 4.9383567E-07 1 4.9331317E-07
vn -0 0.95680785 -0.29072127
vn -0.31802934 0.9005214 -0.29651073
vn -0 0.8124795 0.5829898
vn -0 0.8124795 0.5829898
vn 0.3199454 0.89177907 0.31994537
vn 0.3199454 0.89177907 0.31994537
vn 0.6878563 0.23174855 0.6878563
vn 0.6878562 0.23174852 0.6878564
vn -0 0.16611663 0.98610616
vn -0 0.16611663 0.98610616
vn -0 0.2876369 0.95773953
vn -0 0.28763694 0.95773953
vn -0 0.2876369 0.95773953
vn -0 0.2876369 0.95773953
vn 0.71601623 0.6980836 2.5957786E-07
vn 0.9463366 0.3231825 4.249626E-07
vn 0.63672435 0.43490076 0.63674444
vn 0.6367343 0.43490076 0.6367345
vn 0.5148698 0.6854327 0.51487
vn 0.17901276 0.9674239 0.17901263
vn 0.3470759 0.937837 0
vn 9.852412E-07 1 0
vn 4.9383567E-07 1 4.9331317E-07
vn -0.07952384 0.99359447 -0.08028629
vn -0.299014 0.95424867 0
vn -0.31802934 0.9005214 -0.29651073
vn 0.3199454 0.89177907 0.31994537
vn 0.5829899 0.81247944 0
vn 0.5829899 0.81247944 0
vn 0.3199454 0.89177907 0.31994537
vn 0.6878563 0.23174855 0.6878563
vn 0.98610616 0.16611652 0
vn 0.98610616 0.16611652 0
vn 0.6878562 0.23174852 0.6878564
vn 0.95773953 0.28763694 0
vn 0.9577394 0.2876369 0
vn 0.95773953 0.28763694 0
vn 0.9577394 0.2876369 0
g wall_cvs_CS_0
f 3/3/3 2/2/2 1/1/1
f 1/1/1 4/4/4 3/3/3
f 4/4/4 5/5/5 3/3/3
f 5/5/5 4/4/4 6/6/6
f 7/7/7 5/5/5 6/6/6
f 10/10/10 9/9/9 8/8/8
f 9/9/9 11/11/11 8/8/8
f 11/11/11 9/9/9 12/12/12
f 15/15/15 14/14/14 13/13/13
f 16/16/16 15/15/15 13/13/13
f 19/19/19 18/18/18 17/17/17
f 20/20/20 19/19/19 17/17/17
f 23/23/23 22/22/22 21/21/21
f 24/24/24 23/23/23 21/21/21
f 27/27/27 26/26/26 25/25/25
f 25/25/25 28/28/28 27/27/27
f 25/25/25 29/29/29 28/28/28
f 29/29/29 25/25/25 30/30/30
f 25/25/25 31/31/31 30/30/30
f 34/34/34 33/33/33 32/32/32
f 35/35/35 34/34/34 32/32/32
f 34/34/34 35/35/35 36/36/36
f 39/39/39 38/38/38 37/37/37
f 40/40/40 39/39/39 37/37/37
f 43/43/43 42/42/42 41/41/41
f 44/44/44 43/43/43 41/41/41
f 47/47/47 46/46/46 45/45/45
f 48/48/48 47/47/47 45/45/45
