g water_S
v 0.5034997 -0.516591 0.17646714
v 0.30899823 -0.5167274 0.20162155
v -0.5035 -0.516591 -0.14108504
v 0.5034997 -0.516591 -0.14108443
v -0.34094128 -0.5167272 -0.19735679
v -0.12176462 -0.5167272 -0.19295962
v 0.08807291 -0.51672727 -0.12461573
v 0.30899823 -0.5167273 -0.11593001
v -0.5035 -0.516591 0.17646657
v -0.34094128 -0.5167273 0.12019485
v -0.12176462 -0.5167273 0.12459203
v 0.08807291 -0.5167274 0.19293587
v -0.34094128 -0.5167273 0.12019485
v -0.34094128 -0.5167272 -0.19735679
v -0.12176462 -0.5167273 0.12459203
v -0.12176462 -0.5167272 -0.19295962
v 0.08807291 -0.5167274 0.19293587
v 0.08807291 -0.51672727 -0.12461573
v 0.30899823 -0.5167273 -0.11593001
v 0.30899823 -0.5167274 0.20162155
vt 0.18494858 0.93423337
vt 0.17439024 0.93423337
vt 0.12733199 0.8853318
vt 0.18494858 0.8853318
vt 0.13674706 0.8853318
vt 0.14944133 0.8853318
vt 0.16159469 0.8853318
vt 0.17439024 0.8853318
vt 0.12733199 0.93423337
vt 0.13674706 0.93423337
vt 0.14944133 0.93423337
vt 0.16159469 0.93423337
vt 0.13674706 0.93423337
vt 0.13674706 0.8853318
vt 0.14944133 0.93423337
vt 0.14944133 0.8853318
vt 0.16159469 0.93423337
vt 0.16159469 0.8853318
vt 0.17439024 0.8853318
vt 0.17439024 0.93423337
vn -0 1 3.0242336E-07
vn -0 1 3.0242336E-07
vn -1.1068337E-07 1 3.6290797E-07
vn -0 1 3.0242336E-07
vn -1.1068337E-07 1 3.6290797E-07
vn -0 1 3.6290797E-07
vn -0 1 3.629079E-07
vn -0 1 3.0242336E-07
vn -1.10683374E-07 1 3.6290797E-07
vn -1.1068337E-07 1 3.6290797E-07
vn -0 1 3.6290797E-07
vn -0 1 3.629079E-07
vn -0 1 3.6290797E-07
vn -0 1 3.6290797E-07
vn -0 1 3.629079E-07
vn -0 1 3.629079E-07
vn -0 1 3.0242336E-07
vn -0 1 3.0242336E-07
vn -0 1 3.0242333E-07
vn -0 1 3.0242333E-07
g water_S_0
f 4/4/4 8/8/8 2/2/2
f 1/1/1 4/4/4 2/2/2
f 5/5/5 3/3/3 9/9/9
f 10/10/10 5/5/5 9/9/9
f 6/6/6 14/14/14 13/13/13
f 11/11/11 6/6/6 13/13/13
f 7/7/7 16/16/16 15/15/15
f 12/12/12 7/7/7 15/15/15
f 19/19/19 18/18/18 17/17/17
f 20/20/20 19/19/19 17/17/17
