g window
v 0.4765827 -1.2403888 4.249115
v 0.39168808 -1.2148187 3.9979548
v 0.40744576 -1.2660042 4.500276
v 0.15405662 -1.2825791 4.6631722
v 0.14421798 -1.198198 3.8350582
v -0.15405665 -1.2825792 4.6631722
v -0.14421798 -1.198198 3.8350582
v -0.39168808 -1.2148187 3.9979548
v -0.40744576 -1.266004 4.500276
v -0.4765827 -1.2403888 4.249115
vt 0.95074546 0.5000007
vt 0.87045324 0.22682105
vt 0.88535666 0.7736635
vt 0.6457047 0.9507419
vt 0.6363994 0.049253527
vt 0.35429528 0.95074356
vt 0.36360058 0.049253527
vt 0.12954673 0.22682105
vt 0.11464333 0.77366185
vt 0.049254537 0.5000007
vn 0.0002918971 -0.99484754 -0.101382
vn -4.5685098E-05 -0.9948487 -0.10137118
vn -4.3568823E-05 -0.9948487 -0.10137124
vn -3.5578218E-05 -0.9948487 -0.10137027
vn -3.450028E-05 -0.9948487 -0.101370275
vn 3.5654437E-05 -0.9948487 -0.101370275
vn 3.4589735E-05 -0.9948487 -0.101370275
vn 4.527115E-05 -0.9948487 -0.10137114
vn 4.3163785E-05 -0.9948487 -0.101371214
vn -0.00029089654 -0.99484766 -0.10138169
g window_0
f 3/3/3 2/2/2 1/1/1
f 2/2/2 3/3/3 4/4/4
f 5/5/5 2/2/2 4/4/4
f 5/5/5 4/4/4 6/6/6
f 7/7/7 5/5/5 6/6/6
f 7/7/7 6/6/6 8/8/8
f 6/6/6 9/9/9 8/8/8
f 8/8/8 9/9/9 10/10/10
