g wood_stick2
v 0.23807248 0.04231197 0.087593526
v -0.30325046 -0.049227115 -0.027915807
v -0.30146363 0.048096675 -0.04448972
v 0.2347323 -0.043297533 0.10169928
v -0.278246 -0.047961533 -0.12123477
v 0.2565326 -0.04218422 0.019559793
v 0.2543468 0.04331406 0.018974178
v -0.30146363 0.048096675 -0.04448972
v -0.28096715 0.04923586 -0.12196414
v 0.23807248 0.04231197 0.087593526
v 0.2543468 0.04331406 0.018974178
v -0.28096715 0.04923586 -0.12196414
v -0.278246 -0.047961533 -0.12123477
v 0.2565326 -0.04218422 0.019559793
v 0.23807248 0.04231197 0.087593526
v 0.2543468 0.04331406 0.018974178
v 0.2565326 -0.04218422 0.019559793
v 0.2347323 -0.043297533 0.10169928
v -0.28096715 0.04923586 -0.12196414
v -0.30146363 0.048096675 -0.04448972
v -0.278246 -0.047961533 -0.12123477
v -0.30325046 -0.049227115 -0.027915807
vt 0.29624814 0.8760234
vt 0.28603804 0.9248553
vt 0.29624814 0.9248553
vt 0.28603804 0.8760234
vt 0.2744837 0.9248553
vt 0.2744837 0.8760234
vt 0.2744837 0.8760234
vt 0.28547135 0.9248553
vt 0.2744837 0.9248553
vt 0.28547135 0.8760234
vt 0.29624814 0.8760234
vt 0.29624814 0.9248553
vt 0.28603804 0.9248553
vt 0.28603804 0.8760234
vt 0.29513124 0.9964778
vt 0.29513124 0.9674073
vt 0.26537013 0.9674073
vt 0.26537013 0.9964778
vt 0.29513124 0.9964778
vt 0.29513124 0.9674073
vt 0.26537013 0.9964778
vt 0.26537013 0.9674073
vn 0.4442271 0.6136923 0.65272045
vn -0.69578034 -0.5429905 0.47016063
vn -0.70560396 0.60902536 0.3622306
vn 0.40535933 -0.53016526 0.7447205
vn -0.3982471 -0.58400697 -0.7073437
vn 0.71385473 -0.5651419 -0.41355306
vn 0.6970921 0.58476186 -0.4148689
vn -0.70560396 0.60902536 0.3622306
vn -0.41692445 0.57781565 -0.7016431
vn 0.4442271 0.6136923 0.65272045
vn 0.6970921 0.58476186 -0.4148689
vn -0.41692445 0.57781565 -0.7016431
vn -0.3982471 -0.58400697 -0.7073437
vn 0.71385473 -0.5651419 -0.41355306
vn 0.4442271 0.6136923 0.65272045
vn 0.6970921 0.58476186 -0.4148689
vn 0.71385473 -0.5651419 -0.41355306
vn 0.40535933 -0.53016526 0.7447205
vn -0.41692445 0.57781565 -0.7016431
vn -0.70560396 0.60902536 0.3622306
vn -0.3982471 -0.58400697 -0.7073437
vn -0.69578034 -0.5429905 0.47016063
g wood_stick2_0
f 3/3/3 2/2/2 1/1/1
f 2/2/2 4/4/4 1/1/1
f 4/4/4 2/2/2 5/5/5
f 5/5/5 6/6/6 4/4/4
f 9/9/9 8/8/8 7/7/7
f 8/8/8 10/10/10 7/7/7
f 13/13/13 12/12/12 11/11/11
f 11/11/11 14/14/14 13/13/13
f 17/17/17 16/16/16 15/15/15
f 15/15/15 18/18/18 17/17/17
f 21/21/21 20/20/20 19/19/19
f 21/21/21 22/22/22 20/20/20
